<svg width="536" height="251" viewBox="0 0 536 251" fill="none" xmlns="http://www.w3.org/2000/svg">
<path d="M314.1 182.7C312 181.1 309.2 180.6 306.7 180.4C303.7 180.1 300.6 180.2 297.6 180.2C283.4 180.1 269.3 180.3 255.1 180.6C254.8 180.6 254.6 180.7 254.3 180.8C253.8 180.8 253.3 181.1 252.9 181.7C251.4 184.2 251.3 187.1 251 189.9L250 199C249.7 202.1 249.1 205.2 249 208.3C248.8 211.5 251.7 212.1 254.2 212.1C266.7 212.2 279.1 212.3 291.6 212.3C294.8 212.3 298.1 212.3 301.3 212.4C304 212.4 306.8 212.7 309.4 212.2C311.9 211.7 313.7 210.2 314.5 207.7C315.4 204.9 315.8 201.8 316.1 198.9C316.5 196 316.7 193 316.7 190.1C316.8 187.2 316.5 184.6 314.1 182.7Z" fill="#F7C300"/>
<path d="M493.8 121.6C490.1 121.2 485.2 120.4 482.2 123.3C479.4 126.1 478.6 130.1 478.4 133.9C478.2 138.7 485.6 138.7 485.8 133.9C485.8 132.9 485.9 132 486.2 131.1C486.4 130.2 487.1 129.5 487.4 128.8C488 128.9 488.8 128.7 489.5 128.8C491 128.8 492.4 128.9 493.9 129.1C495.9 129.3 497.6 127.2 497.6 125.4C497.5 123.1 495.8 121.8 493.8 121.6Z" fill="#F7C300"/>
<path d="M509.4 104C509.3 105 509.2 105.9 509 106.9C508.9 107.4 508.8 108.3 508.6 108.8C508.5 108.8 508.4 108.8 508.3 108.8C508 108.8 507.7 108.8 507.3 108.8C506.1 108.8 504.8 108.9 503.6 108.9C498.8 109 498.8 116.5 503.6 116.3C506.9 116.2 511.2 116.7 513.7 114.1C516.1 111.7 516.6 107.3 516.8 104C517.1 99.3001 509.7 99.3001 509.4 104Z" fill="#F7C300"/>
<path d="M405 62.3998C405.1 57.3998 405 52.4998 404.7 47.4998C404.9 43.0998 404.5 38.6998 403.7 34.3998C403.7 34.2998 403.7 34.1998 403.6 34.1998C403.5 32.6998 403.3 30.9998 402.6 29.7998C400.8 27.0998 395.9 26.8998 392.3 26.6998C389.5 26.0998 386.3 25.7998 382.8 25.8998C350.2 27.0998 317.7 27.3998 285 26.5998C283.6 26.5998 282.3 26.5998 281 26.6998C277.5 26.5998 273.9 26.5998 270.4 26.6998C266.3 26.7998 258.5 25.6998 255.3 28.8998C252 32.1998 253.5 40.0998 253.5 44.2998C253.4 50.7998 253.3 57.2998 253.3 63.6998C253.3 64.5998 253.6 65.3998 254 65.8998C253.9 68.2998 254.2 70.5998 255.9 72.4998C265 82.8998 312.5 80.2998 333.6 80.6998C339.6 80.7998 345.8 81.0998 352 81.1998C361.1 82.5998 370.4 83.2998 379.6 83.2998C385.2 83.1998 390.7 82.8998 396.2 82.2998C399.8 81.8998 403.1 81.6998 404.2 77.6998C405.3 73.1998 404.9 67.2998 405 62.3998Z" fill="#59C59F"/>
<path d="M517.5 176.8C517.2 174.7 517 172.3 515.5 170.6C512.6 167.3 506.5 166.6 502.4 166.6C497.6 166.5 497.6 173.9 502.4 174C504.5 174 508 174.2 509.9 175.5C509.4 175.3 510 176.6 510.1 177.3C510.3 178.9 510.3 180.2 509.7 181.7C508.9 183.6 510.5 185.7 512.3 186.3C514.4 186.9 516.1 185.6 516.9 183.7C517.7 181.4 517.8 179.1 517.5 176.8Z" fill="#F7C300"/>
<path d="M207.8 206.8C208.1 203.3 208.4 199.8 208.4 196.3C208.3 192.8 208 189.3 207.8 185.9C207.6 182.4 207.5 178.8 207.6 175.3C207.8 167.2 208.1 159 208.3 150.9C208.3 150.2 207.7 149.8 207.1 149.7C207 149.7 206.9 149.7 206.7 149.7C204.4 148.9 201.2 148.1 198.9 148.9C198.5 148.9 198.1 148.9 197.7 148.9C196.5 148.9 195.3 148.8 194.2 148.3C193.6 148.3 193.1 148.2 192.5 148.2C191.4 148.2 190.3 148.1 189.3 148.2C188.8 148.2 188.4 148.3 188 148.4C186.7 148.7 185.7 149.3 184.9 150.5C184.6 150.9 184.4 151.3 184.3 151.7C183.3 154.7 185.7 158.7 185.2 161.8C185.2 162.3 185.2 162.8 185.2 163.3C185.2 163.8 185.2 164.3 185.1 164.8C185.1 165.3 185.1 165.8 185 166.3C185 166.8 185 167.4 185 167.9C185 168.4 185 169 185 169.5C185 170.1 185 170.6 185 171.2C185 173.5 184.9 175.7 184.6 177.9C184.5 178.4 184.5 178.9 184.4 179.4C184.1 182.9 184.9 186.7 186.6 190C186.6 190.3 186.6 190.7 186.6 191C186.5 198.7 186.5 206.3 186.4 214C186.4 219.3 186 226.6 186.3 232.1C186.3 232.6 186.4 233.1 186.4 233.6C186.3 234.1 186.2 234.7 186.1 235.2C186 235.6 186 236 186 236.4C187.2 240.4 184.8 245.9 189.5 247.4C191.8 248.2 195 245.8 197 246C197.3 246 197.6 246.1 197.9 246.2C198 246.2 198 246.3 198.1 246.3C200.2 247.5 203 248.1 205.2 246.9C207.9 245.4 207.8 242.1 207.7 239.4C207.4 232.2 207.2 225 207.3 217.9C207.4 214.1 207.5 210.4 207.8 206.8Z" fill="#59C59F"/>
<path d="M84.1 233.4C84 232.2 82.9 230.9 81.4 231C77.2 231.4 72.9 231.4 68.7 231.2C67.7 231.1 66.8 231.7 66.4 232.4C65.7 232.8 65.1 233.4 65.1 234.4C65 236.2 65 238 64.9 239.7C64.9 241 64.4 242.9 64.9 244.2C65.9 246.8 70.8 246.5 73.8 246.5C74.2 246.5 74.6 246.5 75 246.5C75.6 246.6 76.2 246.7 76.7 246.7C79.7 247.1 82.8 247.8 84.4 244.7C85.2 243.1 84.4 240.8 84.4 238.5C84.4 238.1 84.4 237.7 84.4 237.4C84.4 237 84.4 236.7 84.3 236.3C84.3 236 84.3 235.6 84.3 235.3C84.2 234.8 84.1 234.1 84.1 233.4Z" fill="#F7C300"/>
<path d="M160 185.4C161 181.7 159.4 178.5 155.1 177.6C154.7 177.5 154.3 177.5 153.8 177.6C153.4 177.6 152.9 177.8 152.5 177.9C152.2 178 151.9 178.2 151.8 178.4C151.4 178.5 150.9 178.6 150.5 178.6C150.1 178.7 149.7 178.7 149.2 178.7C148.8 178.7 148.4 178.7 147.9 178.7C147.6 178.6 147.2 178.4 146.9 178.3C146.6 178.2 146.3 178.1 146 178.1C145.7 177.9 145.3 177.8 144.8 177.7C138.3 176.1 134.4 183.1 138.1 187.7C138.3 188.1 138.4 188.5 138.6 188.8C138.8 189.2 139 189.5 139.2 189.9C139.2 190.2 139.2 190.5 139.2 190.9C139.2 191.2 139.2 191.6 139.2 191.9C139.1 199.6 139.1 207.2 139 214.9C139 220.2 138.6 227.5 138.9 233C138.9 233.5 139 234 139 234.5C138.9 235 138.8 235.6 138.7 236.1C138.6 236.9 138.5 237.7 138.6 238.5C138.6 238.9 138.7 239.3 138.7 239.7C138.4 244.5 140.7 246.8 143.9 247.3C144.4 247.4 144.8 247.4 145.3 247.4C146.4 247.6 147.5 247.4 148.5 247.1C148.8 247 149.2 246.9 149.5 246.8C151.4 247.1 153.8 248.6 155.3 247.8C160.8 246.2 158.4 240.8 158.6 237C158.6 236.5 158.5 236 158.5 235.5C158.4 234.1 158.4 232.6 158.7 231.2C158.7 230.7 158.7 230.1 158.7 229.6C158.7 223.8 158.3 216.8 158.3 210C158.3 208.4 158.3 206.7 158.3 205.1C158.3 203.5 158.3 201.9 158.2 200.3C158.2 198.8 158.2 197.4 158.2 195.9C158.2 195.4 158.2 194.9 158.2 194.4C158.2 193.9 158.2 193.4 158.2 192.9C158.2 192.6 158.3 192.3 158.3 192C158.3 191.7 158.4 191.5 158.4 191.2C158.4 189.7 160 187.4 159.4 186C159.7 186.1 159.8 185.7 160 185.4Z" fill="#F7C300"/>
<path d="M115.9 214.1C115.8 211.2 114.7 208 113.2 208.3C109 209.2 104.7 209.3 100.5 208.8C99.5 208.7 98.6 210 98.2 211.7C97.5 212.6 96.9 214.2 96.9 216.5C96.8 220.8 96.8 225 96.7 229.3C96.7 230.7 96.6 232.4 96.5 234.1C96.5 234.5 96.5 234.9 96.5 235.4C96.9 240.3 96.9 247.3 103.8 247.4C104.3 247.5 104.8 247.5 105.3 247.5C106.8 247.5 108.3 247.2 109.6 246.8C110 246.9 110.4 247 110.7 247.1C112.9 247.6 115 247.3 116.1 241.7C116.9 237.9 116.1 232.3 116.1 226.8C116.1 225.9 116.1 225 116.1 224.1C116.1 223.2 116.1 222.3 116 221.4C116 220.6 116 219.8 116 219C116 217.3 115.9 215.7 115.9 214.1Z" fill="#59C59F"/>
<path d="M512.3 245.1C506.9 245.1 501.5 245.2 496 245.2C403.8 244.9 311.6 244.9 219.8 245C212.4 245 207.6 245 205.9 245C206.4 220 206.5 195 206.1 170C206 162.9 205.8 155.7 205.6 148.6C205.6 147.1 203.7 146.7 202.9 147.6C202.7 147.1 202.2 146.7 201.5 146.7H181.5C180.7 146.7 180.2 147.2 180.1 147.8C179.7 148 179.4 148.5 179.4 149.1C180.4 173.9 180.9 198.8 180.9 223.6C180.9 230.6 180.9 237.5 180.8 244.5C180.8 244.7 180.8 244.9 180.9 245C176.9 245 173 245 169 245C166.5 245 163.9 245 161.4 245C160.9 232.7 160.7 220.3 160.9 208C161 201.7 161.2 198.5 161.5 192.1C161.6 189 161.9 185.9 162 182.7C162.1 180.4 161.5 178 159 177.5C157.4 177.1 155.5 177.3 153.8 177.2C152.1 177.1 150.5 177.1 148.8 177.1C145.1 177 141.4 177.1 137.8 177.2C137 177.2 136.5 177.7 136.4 178.3C135.7 178.4 135.2 178.9 135.2 179.8C136.4 197.6 137 212.3 137.1 230.1C137.1 235.1 137.1 240.1 137 245.1C131.8 245.1 126.7 245.2 121.5 245.2C121.1 238.1 121 231 121.1 223.9C121.2 220.3 121.3 219.8 121.5 216.1C121.6 214.3 121.7 212.6 121.8 210.8C121.9 209.4 121.6 208 120.4 207.2C119.3 206.5 117.8 206.6 116.5 206.6C114.6 206.5 112.8 206.5 110.9 206.5C107.2 206.5 103.5 206.7 99.7999 207.1C98.4999 207.2 96.8999 207.2 95.9999 208.4C95.1999 209.6 95.5999 211.3 95.5999 212.6C95.7999 216.2 95.8999 216.7 95.9999 220.3C96.0999 228.5 95.9999 236.6 95.8999 244.8C95.8999 245 95.8999 245.2 95.9999 245.4C93.1999 245.4 90.4999 245.5 87.6999 245.5C85.9999 245.5 84.2999 245.6 82.6999 245.6C82.6999 241 82.4999 244.2 82.0999 239.6C81.8999 237.2 81.6999 234.8 81.3999 232.4C81.0999 230 79.3999 229.4 77.2999 229.4C74.9999 229.4 72.6999 229.3 70.3999 229.3C68.4999 229.3 66.5999 229.2 64.7999 229.5C63.1999 229.8 61.5999 230.5 60.6999 231.9C59.4999 233.6 59.6999 235.9 59.6999 237.9C59.6999 243.3 59.6999 240.9 59.6999 246.3C53.8999 246.5 48.1999 246.7 42.3999 246.9C40.3999 247 40.3999 250.1 42.3999 250C69.3999 248.9 96.3999 248.3 123.5 248.1C150.5 247.9 177.6 247.9 204.6 248C206.3 248 211.2 248 218.6 248C305.4 247.2 392.9 247.2 479.7 248C485.1 248 490.6 248 496 248.1C501.4 248.1 506.8 248.1 512.3 248.1C514.3 248.2 514.3 245.1 512.3 245.1ZM62.8999 246.3C62.8999 242.3 62.8999 246.2 62.8999 242.2C62.8999 240.2 62.8999 238.3 62.8999 236.3C62.8999 234.7 63.0999 233.5 64.7999 232.9C66.0999 232.5 67.4999 232.5 68.8999 232.5C70.8999 232.5 72.8999 232.6 74.8999 232.6C75.8999 232.6 76.7999 232.6 77.7999 232.6C77.9999 232.6 78.4999 232.5 78.5999 232.7C78.7999 232.9 78.7999 233.8 78.7999 234.1C78.9999 236.1 79.1999 238.2 79.3999 240.2C79.6999 244.7 79.8999 241.3 79.8999 245.8C74.1999 245.9 68.4999 246.1 62.8999 246.3ZM118.8 212.1C118.7 213.8 118.6 215.5 118.5 217.2C118.3 220.4 118.2 220.5 118.2 223.7C118.1 230.9 118.2 238.1 118.6 245.2C112.1 245.3 105.6 245.4 99.0999 245.5C99.1999 245.3 99.1999 245.1 99.1999 244.9C99.2999 238.4 99.3999 231.9 99.2999 225.4C99.2999 222.1 99.1999 222 99.0999 218.7C99.0999 217.2 98.9999 215.7 98.8999 214.2C98.8999 213.4 98.7999 212.7 98.7999 211.9C98.7999 211.5 98.8999 211 98.6999 210.6C98.5999 210.5 98.5999 210.4 98.5999 210.3C99.9999 210 101.5 210 102.8 209.9C104.5 209.8 106.2 209.7 107.8 209.6C111 209.5 114.2 209.5 117.4 209.6C117.6 209.6 118.2 209.6 118.4 209.7C118.8 209.9 118.5 209.4 118.7 210C119.1 210.6 118.9 211.5 118.8 212.1ZM158.9 184.2C158.7 187.2 158.6 190.3 158.4 193.3C157.9 205.3 157.7 214.2 157.8 226.2C157.9 232.5 158.1 238.7 158.3 245C152.2 245 146.2 245 140.1 245C140.3 227.3 140 209.5 139.1 191.8C138.9 186.9 138.6 185.1 138.2 180.2C144 180 149.7 180.1 155.5 180.3C156.2 180.3 158.2 180.1 158.7 180.8C159.4 181.6 159 183.4 158.9 184.2ZM183.3 169.9C183.1 163.2 182.9 156.4 182.6 149.7H201.6C202 149.7 202.4 149.6 202.6 149.3C203.3 174.4 203.5 199.5 203.2 224.5C203.1 231.3 203 238.1 202.9 244.9C196.6 244.9 190.2 244.9 183.9 244.9C184 244.7 184 244.6 184 244.4C184.3 219.6 184.1 194.8 183.3 169.9Z" fill="black"/>
<path d="M512.5 28.7999C510.7 25.4999 507.2 23.5999 503.7 22.5999C502.7 22.2999 501.6 22.0999 500.5 21.9999C500.4 21.9999 500.3 21.8999 500.2 21.8999C498.3 21.1999 496.2 21.5999 494.5 22.4999C492.7 23.4999 491.5 25.1999 490.7 26.9999C489.4 30.2999 489.2 34.4999 490.6 37.7999C492.3 41.5999 496.7 42.7999 500.5 42.8999C504.2 42.9999 508.9 41.9999 511.5 39.0999C514.2 36.1999 514.2 31.9999 512.5 28.7999Z" fill="#F7C300"/>
<path d="M247.3 72.9C264.7 75.8 375 76.9 392.5 76.1C393.2 76.1 393.9 75.4 394.1 74.7C397.9 57.1 398.4 39.3 395.4 21.8C395.2 20.7 394.7 20.1 394 19.9C389.8 19 385.3 18.8 381 18.7L244.3 17.5H244.2C243.8 17.5 243 17.6 243 18.8L242.9 19.8L242 20.3C241.5 20.6 241 21.2 241.1 21.6C244.2 37.9 245.8 54.6 245.9 71.3C246 71.9 246.7 72.8 247.3 72.9ZM244.6 21L380.4 22.2C383.8 22.3 387.3 22.4 390.7 22.9L392.1 23.1L392.3 24.5C394.5 40 394.2 55.7 391.2 70.9L390.9 72.4L389.4 72.5C386.7 72.6 383.9 72.6 381.2 72.6C368.6 72.6 263.5 71.6 251.1 69.7L249.5 69.5V67.9C249.1 53 247.7 38 245 23.4L244.6 21Z" fill="black"/>
<path d="M339.4 94.3998C339.9 93.7998 340.1 92.9998 339.9 92.3998C339.8 92.1998 339.6 91.7998 338.9 91.6998C327.1 89.3998 314.9 89.3998 303.1 89.2998C300.2 89.2998 297.3 89.2998 294.3 89.1998C279.2 88.9998 263.7 88.2998 248.4 87.2998C248.3 87.2998 248.3 87.2998 248.2 87.2998C247.4 87.2998 246.9 87.7998 246.9 88.6998C246.9 89.3998 247.2 90.7998 248.6 90.8998C263.6 91.8998 278.7 92.5998 293.4 92.7998C296.7 92.8998 299.9 92.8998 303.2 92.8998C314.5 92.8998 326.2 92.8998 337.6 95.0998C338.3 95.0998 338.9 94.8998 339.4 94.3998Z" fill="black"/>
<path d="M304.6 110.8C304.7 110.1 304.4 108.7 302.9 108.6C284.9 107.3 266.6 106.8 248.6 107.1C247.9 107.1 247.5 107.4 247.2 107.9C246.8 108.5 246.9 109.4 247.2 110C247.5 110.5 247.9 110.7 248.5 110.6C252 110.5 255.5 110.5 259.1 110.5C273.8 110.5 288.6 111 303.2 112.1C304 112.2 304.5 111.7 304.6 110.8Z" fill="black"/>
<path d="M293.4 129.9C293.4 129.2 293.2 127.8 292 127.7C277.5 126.4 262.7 125.9 248.2 126.2C247.7 126.2 247.3 126.5 247.1 127C246.8 127.6 246.8 128.5 247.1 129.1C247.3 129.6 247.7 129.8 248.2 129.7C251 129.6 253.9 129.6 256.7 129.6C268.6 129.6 280.5 130.1 292.3 131.2C293 131.3 293.4 130.8 293.4 129.9Z" fill="black"/>
<path d="M277.4 121.2C277.9 121.2 278.3 120.9 278.5 120.7C278.9 120.3 279.1 119.8 279.1 119.4C279.1 118.3 278.2 117.7 277.3 117.6L248.5 116.4C248 116.4 247.7 116.7 247.5 116.9C247.1 117.3 246.9 117.8 246.9 118.2C246.9 119.3 247.8 119.9 248.7 120L277.4 121.2Z" fill="black"/>
<path d="M289.2 119.1C289.1 119.8 289.4 121.2 290.9 121.3C308.9 122.6 327.2 123.1 345.2 122.8C345.9 122.8 346.3 122.5 346.6 122C347 121.4 346.9 120.5 346.6 119.9C346.3 119.4 345.9 119.2 345.3 119.3C341.8 119.4 338.3 119.4 334.7 119.4C320 119.4 305.2 118.9 290.6 117.8C289.8 117.7 289.3 118.2 289.2 119.1Z" fill="black"/>
<path d="M316.8 108.6C316.2 108.6 315.7 108.9 315.5 109.1C315 109.5 314.8 110 314.8 110.4C314.8 111.5 315.9 112.1 317 112.2L352 113.4C352 113.4 352 113.4 352.1 113.4C352.7 113.4 353.1 113.1 353.3 112.9C353.8 112.5 354 112 354 111.6C354 110.5 352.9 109.9 351.8 109.8L316.8 108.6Z" fill="black"/>
<path d="M302.7 128.4C302.1 128.4 301.6 128.7 301.4 128.9C300.9 129.3 300.7 129.8 300.7 130.2C300.7 131.3 301.8 131.9 302.9 132L337.9 133.2C337.9 133.2 337.9 133.2 338 133.2C338.6 133.2 339 132.9 339.2 132.7C339.7 132.3 339.9 131.8 339.9 131.4C339.9 130.3 338.8 129.7 337.7 129.6L302.7 128.4Z" fill="black"/>
<path d="M382.9 187.5C383 186.8 382.7 185.4 381.2 185.3C363.2 184 344.9 183.5 326.9 183.8C326.2 183.8 325.8 184.1 325.5 184.6C325.1 185.2 325.2 186.1 325.5 186.7C325.8 187.2 326.2 187.4 326.8 187.3C330.3 187.2 333.8 187.2 337.4 187.2C352.1 187.2 366.9 187.7 381.5 188.8C382.4 188.9 382.9 188.5 382.9 187.5Z" fill="black"/>
<path d="M371.8 206.6C371.8 205.9 371.6 204.5 370.4 204.4C355.9 203.1 341.1 202.6 326.6 202.9C326.1 202.9 325.7 203.2 325.5 203.7C325.2 204.3 325.2 205.2 325.5 205.8C325.7 206.3 326.1 206.5 326.6 206.4C329.4 206.3 332.3 206.3 335.1 206.3C347 206.3 358.9 206.8 370.7 207.9C371.3 208 371.7 207.6 371.8 206.6Z" fill="black"/>
<path d="M355.7 198C356.2 198 356.6 197.7 356.8 197.5C357.2 197.1 357.4 196.6 357.4 196.2C357.4 195.1 356.5 194.5 355.6 194.4L326.8 193.2C326.3 193.2 326 193.5 325.8 193.7C325.4 194.1 325.2 194.6 325.2 195C325.2 196.1 326.1 196.7 327 196.8L355.7 198Z" fill="black"/>
<path d="M310.5 167.1C310.5 167.8 310.1 169.2 308.4 169.2C288.4 169.5 268 169 248 167.7C247.3 167.7 246.8 167.4 246.5 166.8C246.1 166.1 246.2 165.2 246.6 164.7C246.9 164.3 247.4 164.1 248.1 164.1C252 164.4 255.9 164.6 259.8 164.8C276.1 165.6 292.6 165.9 308.8 165.7C309.9 165.7 310.5 166.1 310.5 167.1Z" fill="black"/>
<path d="M299.3 147.4C299.3 148.1 299 149.5 297.6 149.5C281.4 150 265 149.7 248.9 148.6C248.3 148.6 247.9 148.3 247.7 147.8C247.4 147.1 247.5 146.2 247.8 145.7C248.1 145.3 248.5 145.1 249 145.1C252.1 145.3 255.3 145.5 258.4 145.7C271.6 146.4 284.8 146.5 298 146.1C298.9 146 299.3 146.4 299.3 147.4Z" fill="black"/>
<path d="M280.9 155.1C281.4 155.1 281.9 155.4 282.1 155.6C282.5 156 282.7 156.5 282.7 157C282.6 158.1 281.5 158.7 280.6 158.7L248.6 158.3C248.6 158.3 248.6 158.3 248.5 158.3C248 158.3 247.6 158 247.4 157.8C247 157.4 246.8 156.9 246.8 156.4C246.9 155.3 248 154.7 248.9 154.7L280.9 155.1Z" fill="black"/>
<path d="M294 157.9C294 157.2 294.4 155.8 296.1 155.8C316.1 155.5 336.5 156 356.5 157.3C357.2 157.3 357.7 157.6 358 158.2C358.4 158.9 358.3 159.8 357.9 160.3C357.6 160.7 357.1 160.9 356.4 160.9C352.5 160.6 348.6 160.4 344.7 160.2C328.4 159.4 311.9 159.1 295.7 159.3C294.5 159.3 294 158.9 294 157.9Z" fill="black"/>
<path d="M323.9 169.9C323.3 169.9 322.7 169.6 322.5 169.4C322 169 321.7 168.5 321.8 168C321.9 166.9 323.2 166.3 324.4 166.3L363.3 167.1C363.3 167.1 363.3 167.1 363.4 167.1C364 167.1 364.5 167.4 364.7 167.6C365.2 168 365.5 168.5 365.4 169C365.3 170.1 364 170.7 362.8 170.7L323.9 169.9Z" fill="black"/>
<path d="M309.5 149.4C308.9 149.4 308.3 149.1 308.1 148.9C307.6 148.5 307.3 148 307.4 147.5C307.5 146.4 308.8 145.8 310 145.8L348.9 146.6C348.9 146.6 348.9 146.6 349 146.6C349.6 146.6 350.1 146.9 350.3 147.1C350.8 147.5 351.1 148 351 148.5C350.9 149.6 349.6 150.2 348.4 150.2L309.5 149.4Z" fill="black"/>
<path d="M514.4 196.2L514.5 195.7C515.1 191.6 515.5 187.6 515.5 183.7C515.5 181.9 515.5 180 515.4 178.1C515.4 177.7 515.4 177.2 515.4 176.8C515.4 175.2 515.3 173.5 514.9 172.2C514.3 169.9 510.8 169.7 506.8 169.7C506.2 169.7 505.5 169.7 505 169.7C500.7 169.6 496.2 169.6 491.9 169.9C487.8 170.2 484.5 170.6 482.9 173.4C482.1 174.8 481.9 176.4 481.8 178.4C481.6 180.6 481.6 182.8 481.5 184.9C481.3 189.5 481.3 194.4 481.4 199.2C481.4 200.3 482.5 200.5 483 200.5H484.7L484.9 199.3C484.9 199.2 484.9 199.1 484.9 199C484.8 194.5 484.8 190 484.9 185.7C485 183.6 485.1 181.5 485.2 179.4C485.2 179.2 485.2 179 485.2 178.8C485.2 177.3 485.2 175.2 486.4 174C487.5 172.9 489.2 172.9 490.5 172.9C490.7 172.9 490.9 172.9 491.1 172.9C493.4 172.7 495.8 172.6 498.2 172.6C500.5 172.6 502.9 172.6 505.3 172.6C506.4 172.6 507.4 172.7 508.5 172.7C508.6 172.7 508.8 172.7 509 172.7C509.2 172.7 509.4 172.7 509.7 172.7H511.4L511.6 175.5C511.7 176.6 511.7 177.7 511.8 178.7C511.9 180.9 511.9 183.2 511.8 185.5C511.6 190.2 511.1 194.4 510.3 198.3V198.5C510.1 199.7 509.7 201.5 508.2 202.2C507.2 202.7 506 202.5 505 202.4C504.8 202.4 504.6 202.4 504.4 202.3L485.2 201.3L484.9 202.6C484.9 202.8 484.9 202.9 484.9 202.9C484.9 204.2 486.7 204.3 486.9 204.3L500.1 205C500.8 205 501.5 205.1 502.2 205.1C505.6 205.4 509.1 205.7 511.4 203.7C513.5 202.2 514 199.2 514.4 196.2Z" fill="black"/>
<path d="M312.1 200.9L312.2 200.4C312.8 196.3 313.2 196.9 313.2 193C313.2 191.2 313.2 189.3 313.1 187.4C313.1 187 313.1 186.5 313.1 186.1C313.1 184.5 313 182.8 312.6 181.5C312 179.2 308.5 179 304.5 179C303.9 179 303.2 179 302.7 179C298.4 178.9 259.7 178.9 255.4 179.2C251.3 179.5 248 179.9 246.4 182.7C245.6 184.1 245.4 185.7 245.3 187.7C245.1 189.9 245.1 192.1 245 194.2C244.8 198.8 244.8 199 244.9 203.9C244.9 205 246 205.2 246.5 205.2H248.2L248.4 204C248.4 203.9 248.4 203.8 248.4 203.7C248.3 199.2 248.3 199.4 248.4 195.1C248.5 193 248.6 190.9 248.7 188.8C248.7 188.6 248.7 188.4 248.7 188.2C248.7 186.7 248.7 184.6 249.9 183.4C251 182.3 252.7 182.3 254 182.3C254.2 182.3 254.4 182.3 254.6 182.3C256.9 182.1 259.3 182 261.7 182C264 182 300.7 182 303 182C304.1 182 305.1 182.1 306.2 182.1C306.3 182.1 306.5 182.1 306.7 182.1C306.9 182.1 307.1 182.1 307.4 182.1H309.1L309.3 184.9C309.4 186 309.4 187.1 309.5 188.1C309.6 190.3 309.6 192.6 309.5 194.9C309.3 199.6 308.8 199.2 308 203V203.2C307.8 204.4 307.4 206.2 305.9 206.9C304.9 207.4 303.7 207.2 302.7 207.1C302.5 207.1 302.3 207.1 302.1 207L248.6 206L248.3 207.3C248.3 207.5 248.3 207.6 248.3 207.6C248.3 208.9 250.1 209 250.3 209L263.5 209.7C264.2 209.7 299.1 209.8 299.9 209.8C303.3 210.1 306.8 210.4 309.1 208.4C311.2 206.9 311.7 203.9 312.1 200.9Z" fill="black"/>
<path d="M481.6 93.7C481.4 98.3 481.4 103.2 481.5 108C481.5 109.1 482.6 109.3 483.1 109.3H484.8L485 108.1C485 108 485 107.9 485 107.8C484.9 103.3 484.9 98.8 485 94.6C485.1 92.5 485.2 90.4 485.3 88.3C485.3 88.1 485.3 87.9 485.3 87.7C485.3 86.2 485.3 84.1 486.5 82.9C487.6 81.8 489.3 81.8 490.6 81.8C490.8 81.8 491 81.8 491.2 81.8C493.5 81.6 495.9 81.5 498.3 81.5C500.6 81.5 503 81.5 505.4 81.5C506.5 81.5 507.5 81.6 508.6 81.6C508.7 81.6 508.9 81.6 509.1 81.6H511.5L511.7 84.4C511.8 85.5 511.8 86.6 511.9 87.6C512 89.9 512 92.1 511.9 94.4C511.7 99.1 511.2 103.3 510.4 107.2V107.4C510.2 108.6 509.8 110.4 508.3 111.1C507.3 111.6 506.1 111.4 505.1 111.3C504.9 111.3 504.7 111.3 504.5 111.2L485.3 110.2L485 111.5C485 111.7 485 111.7 485 111.8C485 113.1 486.8 113.2 487 113.2L500.2 113.9C500.9 113.9 501.6 114 502.3 114C505.7 114.3 509.2 114.6 511.5 112.6C513.6 110.8 514.1 107.7 514.5 104.8L514.6 104.3C515.2 100.2 515.6 96.2 515.6 92.3C515.6 90.5 515.6 88.6 515.5 86.7C515.5 86.3 515.5 85.8 515.5 85.4C515.5 83.8 515.4 82.1 515 80.8C514.4 78.5 510.9 78.3 506.9 78.3C506.3 78.3 505.6 78.3 505.1 78.3C500.8 78.2 496.3 78.2 492 78.5C487.9 78.8 484.6 79.2 483 82C482.2 83.4 482 85.1 481.9 87C481.8 89.4 481.7 91.7 481.6 93.7Z" fill="black"/>
<path d="M503.2 159.4C507.3 159.1 510.6 158.7 512.2 155.9C513 154.5 513.2 152.9 513.3 150.9C513.5 148.7 513.5 146.5 513.6 144.4C513.8 139.7 513.8 134.9 513.7 130.1C513.7 129 512.6 128.8 512.1 128.8H510.4L510.2 130C510.2 130.1 510.2 130.2 510.2 130.3C510.3 134.8 510.3 139.3 510.2 143.5C510.1 145.6 510 147.7 509.9 149.8C509.9 150 509.9 150.2 509.9 150.4C509.9 151.9 509.9 154 508.7 155.2C507.6 156.3 505.9 156.3 504.6 156.3C504.4 156.3 504.2 156.3 504 156.3C501.7 156.5 499.3 156.6 496.9 156.6C494.6 156.6 492.2 156.6 489.8 156.6C488.7 156.6 487.7 156.5 486.6 156.5C486.5 156.5 486.3 156.5 486.1 156.5H483.7L483.6 154.8C483.6 154.4 483.5 154 483.5 153.7C483.4 152.6 483.4 151.5 483.3 150.5C483.2 148.3 483.2 146 483.3 143.7C483.5 139 484 134.8 484.8 130.9V130.7C485 129.5 485.4 127.7 486.9 127C487.9 126.5 489.1 126.7 490.1 126.8C490.3 126.8 490.5 126.8 490.7 126.9L509.9 127.9L510.2 126.6C510.2 126.4 510.3 126.3 510.2 126.3C510.1 125 508.4 124.9 508.2 124.9L495 124C494.3 124 493.6 123.9 492.9 123.9C489.5 123.6 486 123.3 483.7 125.3C481.6 127.1 481.1 130.2 480.7 133.1L480.6 133.6C480 137.7 479.6 141.7 479.6 145.6C479.6 146.2 479.6 146.8 479.6 147.4C479.6 148.6 479.6 149.9 479.7 151.1C479.7 151.5 479.7 152 479.7 152.4C479.7 154 479.8 155.7 480.2 157C480.8 159.3 484.3 159.5 488.3 159.5C488.9 159.5 489.6 159.5 490.1 159.5C494.4 159.8 498.8 159.7 503.2 159.4Z" fill="black"/>
<path d="M410.4 22.1002C411.6 46.5002 412.7 71.7002 412 96.5002C411.8 103.4 411.5 109.6 411 115.6V115.8C411 115.9 411 116 411 116.1C408.9 140.8 409.6 165.9 410.5 187.3C410.8 193.8 411.1 200.3 411.4 206.8V207.7C411.5 209 413.2 209 413.4 209C414 209 415 208.8 415 207.8C414.1 189.5 413.2 170.8 413.2 152.1C413.2 146.8 413.3 141.6 413.4 136.3C413.6 129.6 413.9 123.6 414.4 118L414.5 117.7C416.6 91.6002 415.9 65.6002 415 43.5002C414.7 36.5002 414.4 29.5002 414.1 22.6002V22.3002C414 20.9002 412.3 20.9002 412.1 20.9002C411.5 20.8002 410.4 21.0002 410.4 22.1002Z" fill="black"/>
<path d="M412.5 119.5C411 119.3 409.4 119.8 408.5 121C407.9 121.9 407.9 122.9 407.9 123.9C407.9 124.8 407.8 125.8 407.8 126.7C407.6 130.2 407.3 133.8 407.4 137.4C407.5 139.1 407.6 141.1 408.3 142.7C409.2 144.8 412.2 146.2 414.9 144.9C417.3 143.8 417 141.4 417.2 139.6C417.3 137.8 417.4 135.9 417.5 134.1C417.6 130 417.5 125.9 417.2 121.9C417.1 120.5 415.8 119.3 413.9 119.3C413.3 119.3 412.9 119.4 412.5 119.5Z" fill="#59C59F"/>
<path d="M408.8 118.8C406.8 119.9 406.3 121.9 406.8 123.8C406.6 124.1 406.5 124.4 406.5 124.9C406.3 129.9 406.2 134.8 406.3 139.8C406.4 142 406 145.2 408.7 145.8C409.8 146.1 411.1 145.8 412.2 145.7C413.5 145.6 414.8 145.6 416 145.4C419.2 145 418.8 141.8 418.8 139.5C418.8 137 418.9 134.6 418.9 132.1C418.9 129.6 419 127.2 419 124.7C419 122.2 419.6 119.1 416.6 118.1C414.3 117.4 411 117.6 408.8 118.8ZM415.7 126.2C415.6 128.1 415.6 130 415.5 132C415.5 133.6 415.5 135.3 415.4 136.9C415.4 138.5 415.4 140 415.3 141.6C415.3 141.8 415.3 141.9 415.1 142C415 142.1 414.9 142.1 414.7 142.1C413.4 142.2 412.2 142.3 410.9 142.4C410.6 142.4 410.3 142.4 410 142.3C409.6 142.1 409.6 141.8 409.6 141.5C409.6 137.4 409.6 133.2 409.7 129.1C409.7 127.8 409.6 126.5 410 125.2C410.1 124.8 410.4 124.3 410.5 123.9C410.7 123.3 410.2 122.9 410.1 122.3C410 121.7 410.8 121.7 411.4 121.6C412.6 121.5 413.8 121.4 415.1 121.5C415.2 121.5 415.4 121.5 415.5 121.6C415.9 121.8 415.5 123.4 415.5 123.8C415.7 124.5 415.7 125.3 415.7 126.2Z" fill="black"/>
<path d="M517 30.0999C515.5 24.6999 510.5 20.8999 505 20.5999C503.8 20.4999 502.8 21.3999 502.6 22.4999C502 22.0999 501.3 21.9999 500.6 22.1999C496 23.9999 493 28.1999 492.6 33.0999C492.2 37.7999 495.1 42.3999 499.3 44.3999C503.8 46.6999 509 46.1999 512.9 42.8999C516.5 39.8999 518.3 34.6999 517 30.0999ZM510.4 38.2999C509.3 39.4999 508.2 40.2999 506.7 40.5999C506.5 40.5999 506.3 40.6999 506.2 40.6999C506.2 40.6999 506.1 40.6999 506 40.6999C505.6 40.6999 505.2 40.6999 504.8 40.6999C504.1 40.6999 503.5 40.5999 502.6 40.2999C501.4 39.8999 500.2 39.0999 499.2 37.9999C499 37.7999 498.9 37.5999 498.6 37.1999C498.4 36.8999 498.3 36.5999 498.1 36.2999C498.1 36.1999 498 36.0999 498 36.0999C497.9 35.8999 497.9 35.6999 497.8 35.3999C497.8 35.1999 497.7 35.0999 497.7 34.8999C497.7 34.7999 497.7 34.6999 497.7 34.5999C497.7 34.5999 497.7 34.5999 497.7 34.4999C497.6 33.3999 497.7 32.8999 497.9 32.0999C498.1 31.0999 498.3 30.7999 498.8 29.9999C499.3 29.1999 499.5 28.8999 500.2 28.1999C500.6 27.7999 500.5 27.8999 501.1 27.4999C501.3 27.3999 501.4 27.2999 501.6 27.1999C501.7 27.1999 502.4 26.7999 502.1 26.8999C503 26.5999 503.6 25.8999 503.9 24.9999C504.3 25.1999 504.7 25.3999 505.2 25.3999C506.5 25.4999 507.9 25.9999 509.3 26.8999C509.6 27.0999 510.3 27.7999 510.8 28.2999C511.3 28.7999 511.7 29.4999 512.1 30.3999C512.9 32.9999 512.3 36.1999 510.4 38.2999Z" fill="black"/>
<path d="M435.8 26.4C430.6 21.6 425.5 28.3 427.2 33.4C430.6 40.1 440.7 36.8 438.8 29.6C438.2 28.2 437.1 27 435.8 26.4Z" fill="black"/>
<path d="M455.1 26.1999C451.1 23.1999 447.7 24.8999 446 28.1999C444.3 31.4999 446 34.8999 449.4 36.5999C452.8 38.2999 459.5 34.8999 458.1 29.2999C457.5 27.9999 456.4 26.8999 455.1 26.1999Z" fill="black"/>
<path d="M473.2 37.3C477.8 36.7 482.9 30.0001 477.8 26.6001C474.4 24.9001 469.4 24.9 466 28.3001C464.3 31.7001 466 35 468.8 36.8C470.2 37.4001 471.8 37.6 473.2 37.3Z" fill="black"/>
<path d="M535 206.6C534.9 202.8 534.9 199.1 534.8 195.3C534.7 191.5 534.7 187.8 534.6 184C534.5 180.2 534.4 176.5 534.3 172.7C534.2 168.9 534.1 165.2 534 161.4C533.9 157.6 533.8 153.9 533.7 150.1C533.6 146.4 533.5 142.8 533.4 139.1C532.5 110.4 531.4 81.2 530 52.4C529.2 36.3 528.3 19.8 527.4 3.6C527.4 3 527 2.4 526.5 2.1C525.9 1.8 525.2 1.8 524.6 2.2C524.1 2.5 523.9 3 523.9 3.6C525.6 32.4 527 61.6 528.2 90.2C529.4 119 530.3 148.1 531 176.9C531.3 188.9 531.5 201.9 531.7 216.6C511.2 217.2 494 217.7 477.7 218.1C455.3 218.7 434.5 219.1 414 219.5C392.1 219.9 370.7 220.2 350.3 220.3C328.6 220.5 307.1 220.5 286.6 220.5C275.9 220.5 265.2 220.4 254.7 220.3C253.3 220.3 251.9 220.3 250.5 220.3C246.8 220.3 242.9 220.2 239.1 220.1C234.9 220 230.4 219.4 228.9 215.6C228.2 213.9 228.5 212.4 229.5 211.4C229.9 211.1 230 210.6 230 210.2C230 209.8 229.8 209.3 229.5 209C229.3 200.9 229 192.9 228.8 184.8C228.3 167.1 227.7 148.9 227.3 130.9C227 117.6 227.7 104.1 228.4 91.6C229.3 77.2 229.8 64.3 230 52.1C230.2 38 230.1 23.6 229.5 9.1C267.3 6.6 305.5 4.9 343 4C381.1 3.1 419.7 3.1 457.7 3.9C479 4.3 500.6 5 522.1 6C523.2 6 523.8 5.2 523.8 4.4C523.8 3.5 523.3 2.6 522.1 2.5C483.8 0.9 445 0 406.8 0C368.7 0 330.1 0.7 292.1 2.4C270.8 3.3 249.2 4.5 227.8 5.9C227.6 5.9 227.4 6 227.2 6C226.4 6.2 225.9 6.8 226 7.6C227 33.7 226.8 60.3 225.3 86.5L225 91.2C224.3 102.6 223.6 114.3 223.8 125.9C223.9 135.4 224.2 145 224.5 154.3C224.6 158 224.7 161.7 224.8 165.4L226.1 210C226.1 210.1 226.1 210.1 226.1 210.1C224.6 212.5 224.8 215.8 226.6 218.5C228.5 221.4 232.1 223 237.3 223.4C241 223.6 244.7 223.6 248.3 223.6C249.8 223.6 251.3 223.6 252.8 223.6C258.3 223.7 263.8 223.7 269.4 223.7C281.1 223.8 293 223.8 305.1 223.8C315.1 223.8 325.2 223.8 335.3 223.7C356.4 223.6 378.6 223.3 401.2 223C422.2 222.7 444.5 222.2 467.4 221.7C471.2 221.6 474.9 221.5 478.7 221.4C482.5 221.3 486.2 221.2 490 221.1C493.8 221 497.5 220.9 501.3 220.8C505.1 220.7 508.8 220.6 512.6 220.5C515.2 220.4 517.9 220.3 520.5 220.2C524 220.1 527.4 220 530.9 219.9C531.8 219.9 532.6 219.9 533.5 219.8C533.8 219.8 534.3 219.8 534.7 219.5C535.2 219.1 535.2 218.4 535.2 218.1C535.1 214.7 535 210.9 535 206.6Z" fill="black"/>
<path d="M12.3 147.4C11.4 145.9 10.5 144.3 9.6 142.8C9.3 142.3 9 141.8 8.7 141.3C3.6 136 14.3 136.6 12.7 131.9C11.7 124.7 5 133 0.9 134C0.6 134.3 0.3 134.7 0.2 135.1C0 135.4 0 135.8 0 136.4C0.2 138.4 2.1 140.6 3.1 142.3C4.6 144.9 6.1 147.5 7.5 150C9.4 153.3 14.1 150.6 12.3 147.4Z" fill="#F7C300"/>
<path d="M24.5999 159.2C26.2999 158 27.7999 156.2 27.5999 153.9C27.4999 152.7 26.9999 151.6 26.2999 150.6C25.4999 149.6 24.5999 148.5 23.2999 148.2C21.7999 147.9 20.4999 148.3 19.3999 149.2C18.5999 149.9 18.0999 151.1 17.8999 152.2C17.7999 153.2 17.7999 154.2 17.9999 155.2C17.9999 155.5 18.0999 155.8 18.0999 156.1C18.1999 156.7 18.3999 157.2 18.6999 157.7C19.1999 158.4 19.7999 158.9 20.4999 159.3C21.0999 159.7 21.7999 159.9 22.4999 159.9C23.2999 159.9 23.9999 159.6 24.5999 159.2Z" fill="#F7C300"/>
<path d="M25 142C23.9 139 22.4 136.1 20.6 133.5C20.2 132.9 19.4 132.5 18.7 132.9C18.1 133.3 17.8 134.2 18.2 134.8C19.9 137.2 21.3 139.9 22.3 142.6C22.6 143.3 23.3 143.9 24 143.7C24.8 143.5 25.3 142.8 25 142Z" fill="black"/>
<path d="M27.9 156.7C28.9 154.4 28 152 27 149.8C26.7 149.1 25.7 148.8 25.1 149.2C25 149.3 24.9 149.3 24.9 149.4C24.3 148.9 23.6 148.6 22.7 148.6C21.6 148.6 20.6 149.1 19.8 149.8C18.4 151.1 17.8 153.2 18.2 155.1C18.5 156.2 19.2 157.2 20 157.9C20.8 158.5 21.6 159.1 22.6 159.3C23.7 159.5 24.8 159.2 25.8 158.7C26.8 158.4 27.5 157.7 27.9 156.7ZM24.2 156.4C24 156.5 23.8 156.5 23.6 156.6C23.5 156.6 23.4 156.6 23.4 156.6C23.4 156.6 23.4 156.6 23.3 156.6C23.2 156.6 23.2 156.6 23.1 156.6C23 156.6 22.9 156.5 22.7 156.5C22.6 156.4 22.5 156.4 22.4 156.3C22.3 156.2 22.2 156.1 22 156.1C21.9 156.1 21.9 156 21.8 156C21.8 156 21.8 156 21.7 155.9C21.6 155.8 21.5 155.7 21.3 155.6C21.2 155.5 21.2 155.4 21.1 155.4C21.1 155.4 21.1 155.4 21.1 155.3C21 155.2 21 155.1 21 155C21 155 21 155 21 154.9C21 154.8 20.9 154.8 20.9 154.7C20.9 154.6 20.9 154.5 20.8 154.4C20.8 154.3 20.8 154.2 20.8 154.2C20.8 154.1 20.8 154 20.8 154C20.8 154 20.8 153.9 20.8 153.8C20.8 153.7 20.8 153.6 20.8 153.6C20.8 153.4 20.9 153.3 20.9 153.1C20.9 153.1 20.9 153 21 153C21.1 152.8 21.2 152.7 21.2 152.5C21.2 152.5 21.2 152.5 21.2 152.4L21.3 152.3C21.4 152.2 21.5 152 21.7 151.9C21.7 151.9 21.7 151.9 21.8 151.8C21.9 151.8 22 151.7 22 151.7C22.1 151.7 22.1 151.6 22.2 151.6C22.2 151.6 22.2 151.6 22.3 151.6C22.4 151.6 22.4 151.6 22.5 151.5H22.7H22.8H22.9C23 151.5 23 151.5 23.1 151.6C23.1 151.6 23.2 151.6 23.2 151.7C23.2 151.7 23.3 151.8 23.2 151.7C23.6 152.2 24.4 152.6 25 152.2C25 152.3 25 152.3 25 152.3C25 152.4 25.1 152.4 25.1 152.5C25.2 152.7 25.2 152.9 25.3 153.1C25.3 153.3 25.4 153.4 25.4 153.6C25.4 153.7 25.4 153.7 25.4 153.7C25.4 153.8 25.4 153.8 25.4 153.9C25.4 154.1 25.4 154.2 25.4 154.4C25.4 154.5 25.4 154.7 25.4 154.7C25.4 154.8 25.4 154.9 25.3 155.1C25.3 155.2 25.3 155.2 25.3 155.3C25.2 155.4 25.2 155.5 25.1 155.6C25.1 155.6 25.1 155.7 25 155.7C25 155.7 25 155.8 24.9 155.8C24.8 155.9 24.8 155.9 24.7 156C24.5 156.1 24.4 156.2 24.2 156.3C24.4 156.3 24.3 156.4 24.2 156.4Z" fill="black"/>
<path d="M23 151.5C23.1 151.6 23 151.5 23 151.5V151.5Z" fill="black"/>
<path d="M89 187.6C93 187.2 97 186.8 100.9 186.2C104.8 185.6 108.6 184.8 112.5 183.9C114.3 183.5 113.9 180.8 112 181.2C108.2 182 104.3 182.9 100.4 183.5C96.4 184.1 92.5 184.5 88.5 184.9C86.7 185.2 87.2 187.8 89 187.6Z" fill="black"/>
<path d="M94.3 182.4C100 181.9 105.7 180.9 111.4 179.6C113.2 179.2 112.8 176.5 110.9 176.9C105.3 178.2 99.6 179.2 93.8 179.7C92 179.9 92.5 182.6 94.3 182.4Z" fill="black"/>
<path d="M87.9 177.4C91.7 177.4 95.4 176.9 99.1 176.2C102.8 175.5 106.4 175 110.1 174.4C111.9 174.1 111.5 171.5 109.6 171.7C106.1 172.2 102.5 172.8 99 173.4C95.4 174 91.8 174.7 88.2 174.6C86.4 174.7 86.1 177.4 87.9 177.4Z" fill="black"/>
<path d="M132.8 92.4002C131.7 90.1002 130.3 87.9002 129 85.7002C128.2 84.4002 127.5 82.8002 126.1 81.9002C122.7 79.8002 119 84.7002 116.6 86.4002C107.6 92.8002 97.9 98.3002 88.6 104.2C86.5 105.6 87.1 108.4 88.7 109.4C95.3 119.9 101.5 130.7 110.6 139.1C111.9 140.3 113.6 140 114.6 139.1C114.9 139 115.2 138.9 115.5 138.8C119.5 136.5 123 134 125.8 130.4C128.6 126.9 132.1 123.3 133.7 119C135.2 115 135.8 109.8 136.1 105.5C136.4 101 134.9 96.6002 132.8 92.4002Z" fill="#59C59F"/>
<path d="M133.9 92.0002C130.1 83.0002 123 75.9002 115.3 70.0002C111.5 67.1002 107.3 65.1002 102.6 64.0002C98 62.9002 93.1 62.1002 88.4 61.8002C86 61.6002 83.6 61.7002 81.3 62.2002C82.7 61.4002 81.4 59.1002 79.8 59.8002C63.6 67.1002 46.7 77.2002 40.8 95.0002C37.9 103.6 38.8 112.7 42.7 120.9C46.8 129.4 53.5 137 62.1 141C70.9 145.1 80.9 147.3 90.6 147.7C95.5 147.9 100.6 147.6 105.3 146.2C110.1 144.8 114.4 142.4 118.4 139.5C125.9 134.1 132.5 127.5 135.4 118.5C138.1 109.9 137.4 100.4 133.9 92.0002ZM108.2 69.0002C112.3 70.9002 115.8 74.0002 119.1 77.0002C120.4 78.2002 121.7 79.4002 122.9 80.7002C116.4 83.6002 110.7 88.1002 104.9 92.2002C99.5 96.0002 94.1 99.9002 88.7 103.7C90.9 91.0002 92.5 78.2002 93.5 65.3002C94.2 65.4002 94.9 65.5002 95.6 65.6002C99.9 66.4002 104.2 67.1002 108.2 69.0002ZM96.4 144.9C87.1 145.5 77.6 143.8 68.9 140.8C64.6 139.3 60.5 137.5 56.9 134.8C53.4 132.1 50.5 128.6 48.1 124.9C43.3 117.7 40.7 109.1 42.3 100.4C45.5 83.4002 60.4 72.5002 75 65.3002C76.8 64.4002 78.5 63.6002 80.3 62.8002C79.5 63.7002 80.2 65.5002 81.7 65.2002C84.7 64.5002 87.7 64.7002 90.7 65.0002C89.6 78.7002 87.9 92.3002 85.5 105.9C85.3 106.1 85.3 106.4 85.3 106.7C85.1 107.5 85.7 108.5 86.4 108.6C94 119.8 101.8 130.8 109.9 141.5C105.7 143.6 101.1 144.6 96.4 144.9ZM133.8 112.5C132.5 121.2 127.7 128.2 121.1 133.8C118.4 136.1 115.5 138.3 112.4 140.1C104.3 129.3 96.4 118.3 88.9 107.1C94.7 103 100.5 98.9002 106.3 94.7002C112.3 90.5002 118.1 85.8002 124.9 82.9002C126.1 84.4002 127.3 85.9002 128.3 87.5002C132.9 95.0002 135.1 103.8 133.8 112.5Z" fill="black"/>
<path d="M127.9 91.7002C127.4 91.1002 126.4 91.1002 125.9 91.6002C125.3 92.2002 125.3 93.0002 125.8 93.6002C125.9 93.7002 126 93.9002 126.1 94.0002C126.1 94.1002 126.2 94.1002 126.2 94.2002C126.4 94.5002 126.6 94.7002 126.7 95.0002C126.8 95.3002 127 95.5002 127.1 95.8002C127.1 95.9002 127.2 96.0002 127.2 96.1002C127.2 96.0002 127.3 96.4002 127.3 96.4002C127.5 97.0002 127.6 97.6002 127.7 98.2002C127.7 98.3002 127.7 98.3002 127.7 98.4002C127.7 98.4002 127.7 98.4002 127.7 98.5002C127.7 98.6002 127.7 98.8002 127.7 98.9002C127.7 99.2002 127.7 99.6002 127.7 99.9002C127.6 100.6 128.3 101.4 129.1 101.4C129.9 101.4 130.5 100.8 130.6 100C131 97.0002 129.9 94.0002 127.9 91.7002Z" fill="black"/>
<path d="M58.4 128.2C55 126 52.5 122.6 51.5 118.7C51.1 116.9 48.3 117.6 48.7 119.4C49.8 124.1 52.8 128.2 56.8 130.7C58.4 131.6 59.9 129.2 58.4 128.2Z" fill="black"/>
<path d="M97.9999 53.1002C96.2999 52.7002 94.4999 52.2002 92.7999 51.8002C92.1999 51.7002 91.5999 51.5002 91.0999 51.4002C83.6999 51.4002 91.5999 44.1002 87.1999 42.0002C81.2999 37.7002 82.5999 48.3002 80.3999 51.9002C80.3999 52.3002 80.4999 52.8002 80.5999 53.2002C80.7999 53.6002 81.0999 54.0002 81.4999 54.3002C83.0999 55.5002 85.9999 55.7002 87.8999 56.2002C90.7999 56.9002 93.6999 57.7002 96.4999 58.4002C100.2 59.3002 101.6 54.0002 97.9999 53.1002Z" fill="#F7C300"/>
<path d="M115 52.6002C115.3 50.6002 115.1 48.2002 113.3 46.7002C112.4 46.0002 111.3 45.5002 110.1 45.3002C108.8 45.1002 107.4 45.0002 106.3 45.7002C105 46.5002 104.4 47.8002 104.3 49.2002C104.2 50.3002 104.7 51.4002 105.4 52.3002C106 53.1002 106.8 53.8002 107.6 54.3002C107.8 54.5002 108.1 54.7002 108.3 54.8002C108.8 55.1002 109.3 55.4002 109.9 55.5002C110.7 55.7002 111.5 55.6002 112.3 55.4002C113 55.2002 113.6 54.9002 114.1 54.4002C114.6 54.0002 114.9 53.3002 115 52.6002Z" fill="#F7C300"/>
<path d="M128.1 25.9002C127.9 25.6002 127.6 25.3002 127.2 25.2002C115.8 21.8002 104.1 19.1002 92.2999 17.4002C91.4999 17.3002 90.9999 17.7002 90.6999 18.2002C90.2999 18.4002 89.9999 18.7002 89.9999 19.3002C89.7999 24.5002 88.4999 29.5002 86.9999 34.4002C85.4999 39.4002 83.7999 44.5002 82.1999 49.5002C81.8999 50.4002 82.5999 51.0002 83.3999 51.1002C82.3999 51.3002 81.7999 52.8002 82.9999 53.5002C85.2999 54.9002 88.0999 55.0002 90.6999 55.5002C93.5999 56.1002 96.3999 56.9002 99.1999 57.6002C104.7 59.0002 110.3 60.5002 115.8 61.9002C116.5 62.6002 118 62.6002 118.3 61.5002C121.4 50.0002 124.8 38.5002 128.5 27.1002C128.6 26.6002 128.4 26.2002 128.1 25.9002ZM115.9 59.3002L100.3 55.3002C97.5999 54.6002 94.9999 53.9002 92.1999 53.3002C89.5999 52.7002 86.5999 52.8002 84.3999 51.4002C84.1999 51.3002 83.9999 51.2002 83.8999 51.2002C84.3999 51.1002 84.7999 50.9002 84.9999 50.3002C86.5999 45.1002 88.3999 40.0002 89.8999 34.8002C91.2999 30.0002 92.4999 25.2002 92.7999 20.2002C103.8 21.9002 114.7 24.3002 125.3 27.5002C121.9 37.9002 118.8 48.6002 115.9 59.3002Z" fill="black"/>
<path d="M119.6 29.8001C115.8 28.5001 112 27.2001 108.2 26.1001C104.4 25.0001 100.6 24.2001 96.7 23.4001C94.9 23.0001 94.2 25.6001 96 26.0001C99.8 26.8001 103.7 27.7001 107.5 28.7001C111.4 29.8001 115.1 31.1001 118.9 32.4001C120.7 33.0001 121.4 30.4001 119.6 29.8001Z" fill="black"/>
<path d="M112.6 32.4002C107.2 30.5002 101.6 29.0002 95.9 27.9002C94.1 27.5002 93.4 30.2002 95.2 30.5002C100.9 31.6002 106.4 33.1002 111.9 35.0002C113.7 35.6002 114.4 33.0002 112.6 32.4002Z" fill="black"/>
<path d="M116.4 39.5001C113 37.9001 109.4 36.9001 105.7 36.0001C102.1 35.1001 98.4999 34.1001 94.9999 33.0001C93.1999 32.5001 92.4999 35.1001 94.2999 35.6001C97.6999 36.6001 101.2 37.6001 104.6 38.5001C108.1 39.4001 111.6 40.3001 114.9 41.9001C116.7 42.7001 118.1 40.3001 116.4 39.5001Z" fill="black"/>
<path d="M103 40.2002C100.1 38.9002 96.9999 38.0002 93.7999 37.4002C93.0999 37.3002 92.1999 37.6002 92.0999 38.4002C91.9999 39.1002 92.3999 39.9001 93.1999 40.1001C96.0999 40.6001 98.9999 41.4001 101.7 42.6001C102.4 42.9001 103.3 42.8001 103.7 42.1001C103.9 41.5001 103.8 40.6002 103 40.2002Z" fill="black"/>
<path d="M115.6 48.4003C114.6 46.1003 112.3 45.0003 110 44.3003C109.3 44.1003 108.4 44.6003 108.3 45.3003C108.3 45.4003 108.3 45.5003 108.3 45.6003C107.5 45.7003 106.8 46.0003 106.2 46.6003C105.4 47.4003 105.1 48.4003 105 49.5003C104.9 51.4003 106 53.3003 107.7 54.4003C108.7 55.0003 109.8 55.2003 111 55.0003C112 54.9003 113 54.7003 113.8 54.1003C114.8 53.4003 115.3 52.5003 115.6 51.4003C116 50.4003 116 49.4003 115.6 48.4003ZM112.8 50.9003C112.7 51.1003 112.6 51.3003 112.5 51.4003C112.5 51.5003 112.4 51.5003 112.4 51.6003L112.3 51.7003C112.2 51.8003 112.1 51.8003 112 51.9003C111.9 51.9003 111.8 52.0003 111.7 52.0003C111.6 52.0003 111.4 52.1003 111.3 52.1003C111.2 52.1003 111.1 52.1003 111.1 52.1003H111C110.8 52.1003 110.7 52.1003 110.5 52.1003C110.4 52.1003 110.3 52.1003 110.2 52.1003C110.2 52.1003 110.2 52.1003 110.1 52.1003C110 52.1003 109.9 52.1003 109.8 52.0003C109.8 52.0003 109.8 52.0003 109.7 52.0003C109.7 52.0003 109.6 51.9003 109.5 51.9003C109.4 51.9003 109.3 51.8003 109.3 51.8003C109.2 51.8003 109.2 51.7003 109.1 51.7003C109 51.6003 109 51.6003 108.9 51.5003L108.8 51.4003C108.8 51.3003 108.7 51.3003 108.7 51.2003C108.6 51.1003 108.5 50.9003 108.5 50.8003V50.7003C108.4 50.5003 108.4 50.4003 108.3 50.2003V50.1003V50.0003C108.3 49.8003 108.3 49.7003 108.3 49.5003V49.4003C108.3 49.3003 108.3 49.2003 108.3 49.2003C108.3 49.1003 108.3 49.0003 108.4 49.0003C108.4 49.0003 108.4 49.0003 108.4 48.9003C108.4 48.8003 108.5 48.8003 108.5 48.7003C108.5 48.7003 108.6 48.6003 108.6 48.5003L108.7 48.4003C108.7 48.4003 108.7 48.4003 108.8 48.4003C108.9 48.4003 108.9 48.3003 109 48.3003H109.1C109.1 48.3003 109.3 48.3003 109.1 48.3003C109.8 48.4003 110.5 48.1003 110.7 47.4003C110.8 47.4003 110.8 47.4003 110.8 47.4003C110.9 47.4003 110.9 47.5003 111 47.5003C111.2 47.6003 111.4 47.7003 111.6 47.8003C111.8 47.9003 111.9 48.0003 112 48.1003C112 48.1003 112.1 48.1003 112.1 48.2003C112.2 48.2003 112.2 48.3003 112.3 48.3003C112.4 48.4003 112.5 48.5003 112.7 48.6003C112.8 48.7003 112.9 48.8003 112.9 48.8003C113 48.9003 113 49.0003 113.1 49.1003C113.1 49.1003 113.2 49.2003 113.2 49.3003C113.2 49.4003 113.3 49.5003 113.3 49.7003V49.8003V49.9003C113.3 50.0003 113.3 50.1003 113.3 50.2003C113.3 50.4003 113.2 50.6003 113.2 50.8003C112.8 50.7003 112.8 50.8003 112.8 50.9003Z" fill="black"/>
<path d="M39.6999 76.2001C38.3999 77.4001 37.0999 78.6001 35.7999 79.9001C35.3999 80.3001 34.8999 80.7001 34.4999 81.1001C30.5999 87.3001 28.5999 76.7001 24.4999 79.3001C17.6999 81.9001 27.2999 86.6001 29.1999 90.3001C29.5999 90.5001 29.9999 90.7001 30.3999 90.8001C30.7999 90.9001 31.2999 90.8001 31.7999 90.6001C33.6999 89.9001 35.3999 87.6001 36.8999 86.2001C39.0999 84.2001 41.1999 82.1001 43.3999 80.1001C46.1999 77.6001 42.4999 73.6001 39.6999 76.2001Z" fill="#F7C300"/>
<path d="M48.4 61.5001C46.8 60.2001 44.7 59.0001 42.5 59.8001C41.4 60.2001 40.4 60.9001 39.6 61.8001C38.8 62.8001 38 63.9001 38 65.2001C38 66.7001 38.7 67.9001 39.9 68.8001C40.8 69.4001 42 69.7001 43.1 69.5001C44.1 69.4001 45.1 69.1001 46 68.7001C46.3 68.6001 46.6 68.5001 46.8 68.4001C47.3 68.2001 47.8 67.8001 48.2 67.4001C48.8 66.8001 49.1 66.1001 49.4 65.3001C49.6 64.6001 49.7 63.9001 49.5 63.2001C49.4 62.6001 49 62.0001 48.4 61.5001Z" fill="#F7C300"/>
<path d="M32.9999 36.1003C32.6999 36.1003 32.2999 36.2003 31.8999 36.5003C22.8999 44.3003 14.3999 52.7003 6.59993 61.8003C6.09993 62.4003 6.09993 63.1003 6.39993 63.6003C6.29993 64.0003 6.49993 64.5003 6.89993 64.8003C11.1999 67.8003 14.6999 71.5003 18.0999 75.5003C21.4999 79.5003 24.8999 83.6003 28.1999 87.6003C28.7999 88.3003 29.6999 88.0003 30.1999 87.4003C29.7999 88.4003 30.7999 89.6003 32.0999 89.0003C34.4999 87.8003 36.0999 85.6003 37.8999 83.6003C39.8999 81.5003 42.0999 79.5003 44.1999 77.6003C48.3999 73.7003 52.5999 69.8003 56.6999 65.9003C57.5999 65.7003 58.4999 64.4003 57.6999 63.6003C49.5999 54.8003 41.7999 45.8003 34.0999 36.5003C33.7999 36.1003 33.3999 36.0003 32.9999 36.1003ZM54.5999 64.4003L42.7999 75.4003C40.7999 77.3003 38.6999 79.1003 36.7999 81.1003C34.9999 83.0003 33.3999 85.5003 30.9999 86.7003C30.7999 86.8003 30.6999 86.9003 30.4999 87.0003C30.6999 86.6003 30.6999 86.1003 30.2999 85.6003C26.7999 81.4003 23.3999 77.2003 19.8999 73.1003C16.5999 69.3003 13.1999 65.7003 9.09993 62.8003C16.3999 54.4003 24.2999 46.6003 32.6999 39.2003C39.7999 47.8003 47.0999 56.2003 54.5999 64.4003Z" fill="black"/>
<path d="M31.6999 45.4003C28.5999 47.9003 25.4999 50.4003 22.4999 53.1003C19.5999 55.7003 16.7999 58.5003 13.9999 61.3003C12.6999 62.6003 14.4999 64.6003 15.8999 63.3003C18.6999 60.5003 21.3999 57.7003 24.3999 55.1003C27.3999 52.4003 30.4999 49.9003 33.5999 47.4003C34.9999 46.2003 33.0999 44.2003 31.6999 45.4003Z" fill="black"/>
<path d="M30.0999 52.6002C25.5999 56.2002 21.2999 60.1002 17.2999 64.2002C15.9999 65.5002 17.8999 67.5002 19.1999 66.2002C23.1999 62.0002 27.3999 58.1002 31.9999 54.6002C33.3999 53.5002 31.5999 51.5002 30.0999 52.6002Z" fill="black"/>
<path d="M38.1999 53.3001C34.9999 55.3001 32.1999 57.8001 29.4999 60.4001C26.7999 62.9001 23.9999 65.4001 21.1999 67.9001C19.7999 69.1001 21.6999 71.1001 23.0999 69.9001C25.7999 67.6001 28.3999 65.2001 30.9999 62.7001C33.5999 60.2001 36.2999 57.7001 39.3999 55.8001C40.9999 54.8001 39.7999 52.3001 38.1999 53.3001Z" fill="black"/>
<path d="M31.5999 65.0003C28.8999 66.8003 26.4999 68.9003 24.2999 71.3003C23.7999 71.9003 23.5999 72.7003 24.1999 73.3003C24.6999 73.8003 25.5999 73.9003 26.1999 73.3003C28.1999 71.1003 30.4999 69.1003 32.7999 67.5003C33.3999 67.1003 33.7999 66.3003 33.4999 65.6003C33.1999 64.9003 32.2999 64.5003 31.5999 65.0003Z" fill="black"/>
<path d="M45.3 58.8002C42.9 58.4002 40.7 59.8002 38.8 61.3002C38.2 61.8002 38.2 62.8002 38.7 63.3002C38.8 63.4002 38.9 63.4002 39 63.5002C38.6 64.2002 38.5 65.0002 38.7 65.8002C39 66.9002 39.7 67.7002 40.5 68.3002C42 69.4002 44.3 69.5002 46.1 68.6002C47.1 68.1002 47.9 67.2002 48.4 66.2002C48.8 65.3002 49.2 64.3002 49.2 63.3002C49.2 62.1002 48.6 61.2002 47.9 60.3002C47.2 59.5002 46.3 59.0002 45.3 58.8002ZM45.8 62.5002C45.9 62.7002 46 62.8002 46.1 63.0002C46.1 63.1002 46.2 63.1002 46.2 63.2002C46.2 63.2002 46.2 63.2002 46.2 63.3002C46.2 63.4002 46.2 63.4002 46.2 63.5002C46.2 63.6002 46.2 63.8002 46.2 63.9002C46.2 64.0002 46.1 64.1002 46.1 64.2002C46.1 64.3002 46 64.5002 45.9 64.6002C45.9 64.7002 45.8 64.8002 45.8 64.8002C45.8 64.8002 45.8 64.8002 45.8 64.9002C45.7 65.0002 45.6 65.2002 45.6 65.3002C45.5 65.4002 45.5 65.5002 45.4 65.5002C45.4 65.5002 45.4 65.5002 45.3 65.6002C45.2 65.7002 45.2 65.7002 45.1 65.8002C45.1 65.8002 45.1 65.8002 45 65.9002L44.9 66.0002C44.8 66.0002 44.7 66.1002 44.6 66.1002C44.5 66.1002 44.5 66.2002 44.4 66.2002C44.3 66.2002 44.2 66.2002 44.2 66.3002C44.2 66.3002 44.1 66.3002 44 66.3002C43.9 66.3002 43.8 66.3002 43.8 66.3002C43.6 66.3002 43.5 66.3002 43.3 66.3002H43.2C43 66.3002 42.9 66.2002 42.7 66.2002H42.6C42.6 66.2002 42.5 66.2002 42.5 66.1002C42.3 66.0002 42.2 65.9002 42.1 65.8002C42.1 65.8002 42 65.8002 42 65.7002C41.9 65.6002 41.9 65.6002 41.9 65.6002C41.8 65.5002 41.8 65.5002 41.7 65.4002C41.7 65.4002 41.7 65.4002 41.7 65.3002C41.7 65.2002 41.6 65.2002 41.6 65.1002C41.6 65.1002 41.5 65.0002 41.5 64.9002V64.8002V64.7002C41.5 64.6002 41.5 64.6002 41.5 64.5002V64.4002C41.5 64.4002 41.6 64.3002 41.5 64.4002C41.9 63.8002 42.1 63.1002 41.6 62.6002L41.7 62.5002C41.8 62.5002 41.8 62.4002 41.9 62.4002C42.1 62.3002 42.3 62.2002 42.5 62.1002C42.7 62.0002 42.8 61.9002 43 61.9002C43.1 61.9002 43.1 61.9002 43.1 61.8002C43.2 61.8002 43.2 61.8002 43.3 61.7002C43.5 61.7002 43.6 61.6002 43.8 61.6002C43.9 61.6002 44.1 61.6002 44.1 61.6002C44.2 61.6002 44.3 61.6002 44.5 61.6002C44.6 61.6002 44.6 61.6002 44.7 61.6002C44.8 61.6002 44.9 61.6002 45.1 61.7002H45.2C45.2 61.7002 45.3 61.7002 45.3 61.8002C45.4 61.8002 45.5 61.9002 45.5 61.9002C45.6 62.0002 45.8 62.2002 45.9 62.3002C45.7 62.3002 45.8 62.4002 45.8 62.5002Z" fill="black"/>
<path d="M52.8 149.9C52.9 149.6 52.9 149.2 52.7 148.8C47.2 138.2 40.9 128 33.9 118.4C33.4 117.8 32.8 117.6 32.2 117.8C31.8 117.6 31.3 117.7 30.9 118C27 121.5 22.5 124.1 18 126.4C13.3 128.8 8.59996 131.1 3.89996 133.5C3.09996 133.9 3.09996 134.8 3.59996 135.5C2.69996 134.9 1.29996 135.6 1.59996 137C2.19996 139.6 3.99996 141.7 5.49996 143.9C7.09996 146.3 8.49996 148.9 9.89996 151.4C12.7 156.4 15.6 161.3 18.4 166.3C18.4 167.3 19.4 168.3 20.4 167.8C30.8 162 41.4 156.4 52.1 151.1C52.7 150.8 52.8 150.4 52.8 149.9ZM20.4 164.5L12.4 150.5C11 148.1 9.69996 145.7 8.19996 143.3C6.79996 141.1 4.69996 138.9 4.09996 136.4C4.09996 136.2 3.99996 136 3.89996 135.9C4.29996 136.2 4.79996 136.3 5.29996 136.1C10.1 133.7 15 131.3 19.8 128.8C24.2 126.5 28.5 123.9 32.3 120.7C38.8 129.7 44.6 139.2 49.8 149.1C39.9 153.9 30.1 159.1 20.4 164.5Z" fill="black"/>
<path d="M44.0999 146.6C42.3999 143 40.5999 139.4 38.6999 135.9C36.7999 132.4 34.7999 129.1 32.6999 125.8C31.6999 124.2 29.2999 125.6 30.2999 127.1C32.3999 130.4 34.4999 133.8 36.2999 137.2C38.1999 140.7 39.8999 144.3 41.6999 147.9C42.5999 149.6 44.8999 148.2 44.0999 146.6Z" fill="black"/>
<path d="M37.4 143.4C35 138.2 32.1 133.1 29 128.3C28 126.7 25.6 128.1 26.6 129.6C29.7 134.4 32.6 139.5 35 144.7C35.8 146.4 38.2 145.1 37.4 143.4Z" fill="black"/>
<path d="M34.8999 151.1C33.6999 147.6 31.8999 144.3 29.9999 141C28.0999 137.8 26.2999 134.5 24.5999 131.2C23.6999 129.5 21.3999 130.9 22.1999 132.5C23.8999 135.7 25.5999 138.8 27.3999 141.9C29.1999 145 30.9999 148.2 32.1999 151.6C32.7999 153.5 35.4999 152.8 34.8999 151.1Z" fill="black"/>
<path d="M99.0999 157.4C100.9 157.1 102.6 156.8 104.4 156.5C105 156.4 105.6 156.3 106.2 156.2C112.9 153.1 108.7 163.1 113.7 163.1C120.8 164.6 115.3 155.4 115.7 151.3C115.5 150.9 115.3 150.5 114.9 150.2C114.6 149.9 114.1 149.7 113.6 149.6C111.6 149.1 108.9 150.1 107 150.5C104.1 151 101.1 151.5 98.1999 152.1C94.4999 152.7 95.3999 158.1 99.0999 157.4Z" fill="#F7C300"/>
<path d="M83.7999 165C84.3999 167 85.4999 169.1 87.7999 169.6C88.9999 169.9 90.1999 169.9 91.2999 169.5C92.4999 169.1 93.7999 168.6 94.4999 167.5C95.2999 166.2 95.3999 164.8 94.8999 163.4C94.4999 162.4 93.5999 161.5 92.5999 161C91.6999 160.6 90.7999 160.2 89.7999 160.1C89.4999 160 89.1999 160 88.8999 159.9C88.2999 159.8 87.6999 159.8 87.1999 159.9C86.3999 160.1 85.6999 160.5 85.0999 161C84.5999 161.5 84.0999 162 83.7999 162.7C83.5999 163.5 83.5999 164.3 83.7999 165Z" fill="#F7C300"/>
<path d="M82.9 194.7C83.2 194.9 83.5 195 84 195C95.8 193.4 107.5 190.9 119 187.6C119.7 187.4 120.1 186.8 120.1 186.2C120.4 185.9 120.5 185.4 120.3 184.9C118.3 180.1 117.4 175 116.8 169.9C116.1 164.7 115.5 159.4 114.9 154.2C114.8 153.3 113.9 153 113.1 153.3C113.9 152.7 113.8 151.1 112.4 150.9C109.7 150.6 107.2 151.6 104.6 152.2C101.8 152.9 98.9 153.3 96 153.8C90.4 154.8 84.7 155.8 79.1 156.8C78.2 156.5 76.8 157.1 77 158.2C79 170 80.6 181.8 82 193.7C82.2 194.2 82.5 194.6 82.9 194.7ZM80.2 159.2L96.1 156.4C98.8 155.9 101.6 155.5 104.3 154.9C106.9 154.3 109.6 153.1 112.2 153.4C112.4 153.4 112.6 153.4 112.8 153.4C112.4 153.7 112.1 154.1 112.2 154.6C112.8 160 113.4 165.4 114.1 170.7C114.8 175.6 115.7 180.5 117.5 185.2C106.8 188.2 95.9 190.5 84.9 192.1C83.5 181.2 82 170.2 80.2 159.2Z" fill="black"/>
<path d="M99.8 171.2C103 171.2 106.2 170.8 109.3 169.9C110 169.7 110.7 169.1 110.5 168.3C110.4 167.6 109.6 167 108.8 167.2C105.9 168 102.9 168.4 100.1 168.4C99.3 168.4 98.6 168.9 98.5 169.6C98.5 170.4 99 171.3 99.8 171.2Z" fill="black"/>
<path d="M84.9999 169C86.7999 170.7 89.3999 170.7 91.7999 170.5C92.5999 170.4 93.0999 169.6 92.9999 168.9C92.9999 168.8 92.8999 168.7 92.8999 168.6C93.5999 168.2 94.0999 167.6 94.3999 166.9C94.7999 165.9 94.6999 164.8 94.2999 163.8C93.5999 162 91.7999 160.7 89.7999 160.5C88.6999 160.4 87.4999 160.7 86.5999 161.3C85.6999 161.8 84.8999 162.4 84.3999 163.3C83.7999 164.3 83.6999 165.4 83.7999 166.5C83.7999 167.3 84.1999 168.3 84.9999 169ZM86.4999 165.6C86.4999 165.4 86.4999 165.2 86.4999 165C86.4999 164.9 86.4999 164.8 86.4999 164.8C86.4999 164.8 86.4999 164.8 86.4999 164.7C86.4999 164.6 86.5999 164.6 86.5999 164.5C86.6999 164.4 86.7999 164.3 86.7999 164.2C86.8999 164.1 86.9999 164.1 86.9999 164C87.0999 163.9 87.1999 163.8 87.3999 163.7C87.4999 163.7 87.4999 163.6 87.5999 163.6C87.5999 163.6 87.5999 163.6 87.6999 163.6C87.7999 163.5 87.9999 163.4 88.0999 163.4C88.1999 163.4 88.2999 163.3 88.3999 163.3C88.3999 163.3 88.3999 163.3 88.4999 163.3C88.5999 163.3 88.6999 163.3 88.7999 163.2C88.7999 163.2 88.7999 163.2 88.8999 163.2C88.9999 163.2 89.0999 163.2 89.0999 163.2C89.1999 163.2 89.2999 163.2 89.3999 163.2C89.4999 163.2 89.5999 163.2 89.5999 163.3C89.6999 163.3 89.7999 163.3 89.7999 163.4C89.7999 163.4 89.8999 163.4 89.9999 163.5C90.0999 163.5 90.0999 163.6 90.1999 163.6C90.2999 163.7 90.4999 163.8 90.5999 163.9L90.6999 164C90.7999 164.1 90.8999 164.3 90.9999 164.4C90.9999 164.4 90.9999 164.4 91.0999 164.5C91.0999 164.5 91.0999 164.6 91.1999 164.6C91.2999 164.7 91.3999 164.9 91.3999 165.1V165.2C91.3999 165.3 91.3999 165.4 91.3999 165.4C91.3999 165.5 91.3999 165.6 91.3999 165.7C91.3999 165.7 91.3999 165.7 91.3999 165.8C91.3999 165.9 91.3999 165.9 91.3999 166V166.2V166.3V166.4C91.3999 166.4 91.2999 166.5 91.2999 166.6L91.1999 166.7C91.1999 166.7 91.0999 166.7 91.1999 166.7C90.4999 166.9 89.9999 167.5 90.0999 168.2C89.9999 168.2 89.9999 168.2 89.9999 168.2C89.8999 168.2 89.7999 168.2 89.7999 168.2C89.5999 168.2 89.2999 168.2 89.0999 168.2C88.8999 168.2 88.7999 168.2 88.5999 168.1C88.4999 168.1 88.4999 168.1 88.4999 168.1C88.3999 168.1 88.3999 168.1 88.2999 168.1C88.0999 168.1 87.9999 168 87.7999 168C87.6999 168 87.4999 167.9 87.4999 167.9C87.3999 167.8 87.2999 167.8 87.1999 167.7L87.0999 167.6C86.9999 167.5 86.8999 167.4 86.7999 167.3L86.6999 167.2C86.6999 167.2 86.6999 167.1 86.5999 167.1C86.5999 167 86.4999 166.9 86.4999 166.9C86.4999 166.7 86.3999 166.5 86.3999 166.3C86.4999 165.7 86.4999 165.7 86.4999 165.6Z" fill="black"/>
<path d="M91.5999 166.1C91.4999 166.2 91.4999 166.1 91.5999 166.1V166.1Z" fill="black"/>
<path d="M145.5 98.0003C145.2 96.2003 144.9 94.5003 144.7 92.7003C144.6 92.1003 144.5 91.5003 144.4 90.9003C141.5 84.2003 151.3 88.5003 151.5 83.6003C153.2 76.5003 143.9 81.9003 139.7 81.3003C139.3 81.5003 138.9 81.7003 138.6 82.0003C138.3 82.3003 138.1 82.7003 137.9 83.3003C137.4 85.3003 138.4 88.0003 138.7 89.9003C139.2 92.8003 139.6 95.8003 140.1 98.7003C140.7 102.5 146.1 101.7 145.5 98.0003Z" fill="#F7C300"/>
<path d="M152.8 113.4C154.8 112.8 156.9 111.8 157.5 109.5C157.8 108.3 157.8 107.1 157.5 106C157.2 104.7 156.7 103.5 155.6 102.7C154.3 101.9 152.9 101.8 151.5 102.3C150.5 102.7 149.6 103.6 149.1 104.5C148.6 105.4 148.3 106.3 148.2 107.3C148.1 107.6 148.1 107.9 148 108.2C147.9 108.8 147.9 109.4 148 109.9C148.2 110.7 148.6 111.4 149.1 112.1C149.5 112.7 150.1 113.2 150.7 113.4C151.3 113.6 152.1 113.6 152.8 113.4Z" fill="#F7C300"/>
<path d="M182.5 114.9C182.7 114.6 182.8 114.3 182.8 113.8C181.4 101.9 179.2 90.2001 176.1 78.7001C175.9 77.9001 175.3 77.6001 174.8 77.5001C174.5 77.2001 174 77.1001 173.5 77.3001C168.7 79.2001 163.5 80.0001 158.4 80.6001C153.2 81.2001 147.9 81.7001 142.7 82.2001C141.8 82.3001 141.5 83.2001 141.7 84.0001C141.1 83.1001 139.5 83.2001 139.3 84.6001C138.9 87.3001 139.9 89.8001 140.5 92.4001C141.1 95.2001 141.5 98.1001 142 101C142.9 106.7 143.8 112.3 144.7 118C144.4 118.9 144.9 120.3 146.1 120.1C157.9 118.4 169.8 116.9 181.7 115.8C182 115.6 182.3 115.3 182.5 114.9ZM147 116.9L144.5 101C144.1 98.3001 143.7 95.5001 143.2 92.8001C142.7 90.2001 141.5 87.5001 141.9 84.9001C141.9 84.7001 141.9 84.5001 141.9 84.3001C142.2 84.7001 142.6 85.0001 143.1 84.9001C148.5 84.4001 153.9 83.9001 159.3 83.3001C164.3 82.7001 169.2 81.9001 173.9 80.2001C176.7 91.0001 178.8 101.9 180.2 112.9C169 114 157.9 115.3 147 116.9Z" fill="black"/>
<path d="M175.6 108.6C175.3 104.6 174.9 100.6 174.4 96.6003C173.9 92.7003 173.1 88.9003 172.4 85.0003C172 83.2003 169.3 83.6003 169.7 85.4003C170.5 89.3003 171.2 93.1003 171.7 97.0003C172.2 101 172.5 105 172.9 109C173 110.9 175.7 110.5 175.6 108.6Z" fill="black"/>
<path d="M170.4 103.3C170 97.6002 169.1 91.8002 167.9 86.2002C167.5 84.4002 164.8 84.8002 165.2 86.6002C166.4 92.2002 167.2 97.9002 167.7 103.7C167.8 105.5 170.5 105.1 170.4 103.3Z" fill="black"/>
<path d="M165.3 109.6C165.4 105.8 164.9 102.1 164.3 98.4002C163.7 94.7002 163.2 91.1002 162.7 87.4002C162.5 85.5002 159.8 86.0002 160 87.8002C160.4 91.3002 160.9 94.9002 161.5 98.4002C162.1 102 162.6 105.6 162.5 109.2C162.5 111 165.3 111.4 165.3 109.6Z" fill="black"/>
<path d="M159.4 97.6002C159.4 94.4002 159.1 91.2002 158.3 88.1002C158.1 87.4002 157.5 86.7002 156.7 86.9002C156 87.0002 155.4 87.8002 155.6 88.5002C156.3 91.4002 156.7 94.4002 156.7 97.3002C156.7 98.1002 157.1 98.9002 157.9 98.9002C158.5 98.9002 159.3 98.4002 159.4 97.6002Z" fill="black"/>
<path d="M156.8 112.3C158.5 110.5 158.6 108 158.4 105.6C158.3 104.8 157.5 104.2 156.8 104.4C156.7 104.4 156.6 104.5 156.5 104.5C156.1 103.8 155.6 103.2 154.8 102.9C153.8 102.5 152.7 102.6 151.7 103C149.9 103.7 148.6 105.5 148.3 107.4C148.1 108.5 148.5 109.7 149 110.6C149.5 111.5 150.1 112.3 150.9 112.9C151.9 113.5 153 113.6 154.1 113.5C155.1 113.5 156.1 113.1 156.8 112.3ZM153.4 110.7C153.2 110.7 153 110.7 152.8 110.7C152.7 110.7 152.6 110.7 152.6 110.7C152.6 110.7 152.6 110.7 152.5 110.7C152.4 110.7 152.4 110.6 152.3 110.6C152.2 110.5 152.1 110.4 152 110.4C151.9 110.3 151.9 110.2 151.8 110.2C151.7 110.1 151.6 110 151.5 109.8C151.5 109.7 151.4 109.7 151.4 109.6C151.4 109.6 151.4 109.6 151.4 109.5C151.3 109.4 151.2 109.2 151.2 109.1C151.2 109 151.1 108.9 151.1 108.8C151.1 108.8 151.1 108.8 151.1 108.7C151.1 108.6 151.1 108.5 151.1 108.4C151.1 108.4 151.1 108.4 151.1 108.3C151.1 108.2 151.1 108.1 151.1 108.1C151.1 108 151.1 107.9 151.1 107.8C151.1 107.7 151.1 107.6 151.2 107.6C151.2 107.5 151.3 107.4 151.3 107.4C151.3 107.4 151.3 107.3 151.4 107.2C151.4 107.1 151.5 107.1 151.5 107C151.6 106.9 151.7 106.7 151.8 106.6L151.9 106.5C152 106.4 152.2 106.3 152.3 106.2C152.3 106.2 152.3 106.2 152.4 106.1C152.4 106.1 152.5 106.1 152.5 106C152.7 105.9 152.8 105.8 153 105.8H153.1C153.2 105.8 153.3 105.8 153.3 105.8C153.4 105.8 153.5 105.8 153.6 105.8H153.7C153.8 105.8 153.8 105.8 153.9 105.8H154.1H154.2H154.3C154.3 105.8 154.4 105.9 154.5 105.9L154.6 106C154.6 106 154.6 106.1 154.6 106C154.8 106.7 155.4 107.2 156.1 107.1C156.1 107.2 156.1 107.2 156.1 107.2C156.1 107.3 156.1 107.4 156.1 107.4C156.1 107.6 156.1 107.9 156.1 108.1C156.1 108.3 156.1 108.4 156 108.6C156 108.7 156 108.7 156 108.7C156 108.8 156 108.8 155.9 108.9C155.9 109.1 155.8 109.2 155.7 109.3C155.7 109.4 155.6 109.6 155.6 109.6C155.5 109.7 155.5 109.8 155.4 109.9L155.3 110C155.2 110.1 155.1 110.2 155 110.3L154.9 110.4C154.9 110.4 154.8 110.4 154.8 110.5C154.7 110.5 154.6 110.6 154.6 110.6C154.4 110.6 154.2 110.7 154 110.7C153.6 110.7 153.5 110.7 153.4 110.7Z" fill="black"/>
<path d="M154 105.7C154.1 105.8 154.1 105.8 154 105.7V105.7Z" fill="black"/>
<path d="M456.1 82.2998C446.4 82.3998 436.8 82.7998 427.1 83.4998C424.7 83.6998 424.7 87.3998 427.1 87.1998C436.7 86.4998 446.4 86.0998 456.1 85.9998C458.4 85.9998 458.5 82.2998 456.1 82.2998Z" fill="black"/>
<path d="M469.3 92.7998C455.5 92.5998 441.8 92.4998 428 92.2998C425.6 92.2998 425.6 95.9998 428 95.9998C441.8 96.1998 455.5 96.2998 469.3 96.4998C471.7 96.4998 471.7 92.7998 469.3 92.7998Z" fill="black"/>
<path d="M450.8 101.7C443.6 101.2 436.5 100.7 429.3 100.2C426.9 100 426.9 103.7 429.3 103.9C436.5 104.4 443.6 104.9 450.8 105.4C453.1 105.5 453.1 101.8 450.8 101.7Z" fill="black"/>
<path d="M461.9 131.4C450.9 131.6 439.9 131.4 428.8 130.9C426.4 130.8 426.4 134.5 428.8 134.6C439.8 135.1 450.8 135.3 461.9 135.1C464.2 135.1 464.2 131.4 461.9 131.4Z" fill="black"/>
<path d="M439.9 140.7C436.3 140.1 432.7 139.9 429 140.2C428 140.3 427.1 141 427.1 142.1C427.1 143 427.9 144 429 144C430.7 143.8 432.4 143.8 434.1 143.9C434.9 143.9 435.8 144 436.6 144.1C436.8 144.1 437 144.1 437.2 144.2C437.2 144.2 437.5 144.2 437.6 144.2C438 144.3 438.5 144.3 438.9 144.4C439.9 144.6 440.9 144.1 441.2 143.1C441.4 142.1 440.9 140.9 439.9 140.7Z" fill="black"/>
<path d="M467.9 141.8C461.3 141.8 454.7 141.5 448.1 141C447.1 140.9 446.2 141.9 446.2 142.9C446.2 144 447 144.7 448.1 144.8C454.7 145.3 461.3 145.5 467.9 145.6C470.3 145.5 470.3 141.8 467.9 141.8Z" fill="black"/>
<path d="M460.2 150.9C449.8 150.6 439.4 150.4 429.1 150.1C426.7 150 426.7 153.7 429.1 153.8C439.5 154.1 449.9 154.3 460.2 154.6C462.6 154.6 462.6 150.9 460.2 150.9Z" fill="black"/>
<path d="M455.1 179.3C447.5 180.8 439.8 178.3 432.2 179.3C431.2 179.4 430.3 180.1 430.3 181.2C430.3 182.1 431.2 183.2 432.2 183.1C440.2 182 448.1 184.6 456.1 183C458.4 182.4 457.4 178.9 455.1 179.3Z" fill="black"/>
<path d="M451.6 189.6C451.3 188.5 450.3 188.2 449.3 188.3C443.8 189.1 438.1 188.7 432.6 188.4C431.6 188.3 430.7 189.3 430.7 190.3C430.7 191.4 431.5 192.1 432.6 192.2C438.5 192.5 444.4 192.8 450.3 192C451.3 191.7 451.9 190.5 451.6 189.6Z" fill="black"/>
<path d="M469.6 197.6L432.7 196.5C430.3 196.4 430.3 200.1 432.7 200.2L469.6 201.3C472 201.4 472 197.7 469.6 197.6Z" fill="black"/>
</svg>
