<svg width="445" height="674" viewBox="0 0 445 674" fill="none" xmlns="http://www.w3.org/2000/svg">
<path d="M318.447 504.629C318.78 503.94 319.142 503.225 319.475 502.536C320.234 500.911 320.964 499.313 321.641 497.658C322.963 494.43 323.981 491.109 324.502 487.664C324.653 486.608 323.686 485.633 322.684 485.55C322.601 485.52 322.517 485.546 322.432 485.571C322.129 485.479 321.796 485.414 321.459 485.461C315.999 485.953 310.567 486.419 305.106 486.911C304.239 486.971 303.59 487.902 303.476 488.708C303.291 490.656 304.737 492.258 305.74 493.792L308.908 498.565C310.016 500.269 311.153 501.946 312.261 503.651C313.238 505.1 314.414 507.978 316.655 507.007C317.678 506.533 318.021 505.566 318.447 504.629ZM312.014 496.139C311.168 494.889 310.351 493.611 309.505 492.36C309.109 491.763 308.713 491.167 308.317 490.57C312.237 490.231 316.186 489.864 320.106 489.525C319.605 491.715 318.965 493.874 318.133 495.944C317.579 497.323 316.969 498.702 316.332 500.051C316.09 500.547 315.874 501.071 315.63 501.622C315.315 501.112 314.97 500.628 314.655 500.117L312.014 496.139Z" fill="#F7C300"/>
<path d="M258.358 56.3655C259.072 56.0908 259.825 55.8162 260.538 55.5415C262.204 54.8745 263.829 54.2075 265.455 53.4621C268.627 52.0103 271.64 50.284 274.375 48.126C275.208 47.459 275.168 46.0858 274.494 45.3403C274.455 45.2618 274.375 45.2226 274.296 45.1834C274.138 44.9087 273.939 44.6341 273.662 44.4379C269.34 41.0637 265.058 37.6894 260.737 34.3152C260.063 33.7659 258.953 34.0013 258.318 34.5113C256.851 35.8061 256.812 37.964 256.494 39.7689L255.543 45.4188C255.186 47.4198 254.869 49.4208 254.512 51.4218C254.235 53.1482 253.124 56.0516 255.424 56.8755C256.494 57.2287 257.406 56.7578 258.358 56.3655ZM259.468 45.7719C259.706 44.281 259.983 42.79 260.221 41.2991C260.34 40.5928 260.459 39.8866 260.578 39.1803C263.671 41.6129 266.803 44.0455 269.895 46.4781C268.032 47.7337 266.089 48.8715 264.067 49.8132C262.719 50.4409 261.331 51.0295 259.944 51.5788C259.428 51.7749 258.913 52.0103 258.358 52.2458C258.477 51.6572 258.556 51.0687 258.675 50.4802L259.468 45.7719Z" fill="#F7C300"/>
<path d="M37.3577 560.366C38.0713 560.091 38.8246 559.816 39.5383 559.542C41.2034 558.875 42.829 558.208 44.4545 557.462C47.6263 556.01 50.6395 554.284 53.3752 552.126C54.2078 551.459 54.1681 550.086 53.4941 549.34C53.4545 549.262 53.3752 549.223 53.2959 549.183C53.1373 548.909 52.9391 548.634 52.6615 548.438C48.34 545.064 44.058 541.689 39.7365 538.315C39.0625 537.766 37.9524 538.001 37.318 538.511C35.851 539.806 35.8114 541.964 35.4942 543.769L34.5427 549.419C34.1859 551.42 33.8687 553.421 33.5119 555.422C33.2343 557.148 32.1242 560.052 34.4237 560.876C35.4942 561.229 36.4061 560.758 37.3577 560.366ZM38.4678 549.772C38.7057 548.281 38.9832 546.79 39.2211 545.299C39.34 544.593 39.459 543.887 39.5779 543.18C42.6704 545.613 45.8025 548.046 48.895 550.478C47.0316 551.734 45.0889 552.872 43.0669 553.813C41.7189 554.441 40.3312 555.03 38.9435 555.579C38.4281 555.775 37.9127 556.01 37.3577 556.246C37.4766 555.657 37.5559 555.069 37.6748 554.48L38.4678 549.772Z" fill="#1E1E1E"/>
<path d="M427.383 592.365C428.097 592.091 428.85 591.816 429.564 591.542C431.229 590.875 432.854 590.208 434.48 589.462C437.652 588.01 440.665 586.284 443.401 584.126C444.233 583.459 444.194 582.086 443.519 581.34C443.48 581.262 443.401 581.223 443.321 581.183C443.163 580.909 442.964 580.634 442.687 580.438C438.365 577.064 434.083 573.689 429.762 570.315C429.088 569.766 427.978 570.001 427.343 570.511C425.876 571.806 425.837 573.964 425.52 575.769L424.568 581.419C424.211 583.42 423.894 585.421 423.537 587.422C423.26 589.148 422.15 592.052 424.449 592.876C425.52 593.229 426.432 592.758 427.383 592.365ZM428.493 581.772C428.731 580.281 429.009 578.79 429.246 577.299C429.365 576.593 429.484 575.887 429.603 575.18C432.696 577.613 435.828 580.046 438.92 582.478C437.057 583.734 435.114 584.872 433.092 585.813C431.744 586.441 430.357 587.029 428.969 587.579C428.454 587.775 427.938 588.01 427.383 588.246C427.502 587.657 427.581 587.069 427.7 586.48L428.493 581.772Z" fill="#1E1E1E"/>
<path fill-rule="evenodd" clip-rule="evenodd" d="M61.4474 321.389C60.5755 321.071 59.5439 320.584 58.6969 319.693C57.712 318.658 57.1937 317.321 56.8587 316.268C56.0789 313.938 55.4406 310.679 56.7651 307.76L56.7679 307.754C57.833 305.425 59.8797 304.017 61.8754 303.418C63.8983 302.811 65.9581 302.943 67.8242 303.322L67.834 303.324L67.8437 303.326C68.7518 303.523 69.9283 303.832 70.9658 304.646C71.9375 305.393 72.6087 306.432 73.0502 307.48C74.91 311.734 73.8634 316.079 71.428 318.848C69.0249 321.581 65.2567 322.845 61.4474 321.389ZM69.1135 315.885C70.598 314.197 71.1272 311.798 70.0607 309.369L70.053 309.351L70.0456 309.334C69.8155 308.784 69.513 308.355 69.1497 308.078L69.1397 308.07L69.1299 308.062C68.7031 307.726 68.1129 307.522 67.2548 307.335C65.6373 307.008 64.0909 306.948 62.6906 307.369C61.2616 307.798 60.1888 308.704 59.7238 309.718C59.1569 310.971 59.3074 312.717 59.9925 314.758L59.9987 314.776L60.0046 314.794C60.2815 315.668 60.5583 316.25 60.9136 316.624C61.2251 316.951 61.7174 317.235 62.4337 317.496L62.4457 317.5L62.4577 317.505C65.0988 318.518 67.5961 317.611 69.1135 315.885Z" fill="#F7C300"/>
<path fill-rule="evenodd" clip-rule="evenodd" d="M139.473 185.389C138.601 185.071 137.569 184.584 136.722 183.693C135.737 182.658 135.219 181.321 134.884 180.268C134.104 177.938 133.466 174.679 134.791 171.76L134.793 171.754C135.858 169.425 137.905 168.017 139.901 167.418C141.924 166.811 143.983 166.943 145.85 167.322L145.859 167.324L145.869 167.326C146.777 167.523 147.954 167.832 148.991 168.646C149.963 169.393 150.634 170.432 151.076 171.48C152.935 175.734 151.889 180.079 149.453 182.848C147.05 185.581 143.282 186.845 139.473 185.389ZM147.139 179.885C148.623 178.197 149.153 175.798 148.086 173.369L148.078 173.351L148.071 173.334C147.841 172.784 147.538 172.355 147.175 172.078L147.165 172.07L147.155 172.062C146.728 171.726 146.138 171.522 145.28 171.335C143.663 171.008 142.116 170.948 140.716 171.369C139.287 171.798 138.214 172.704 137.749 173.718C137.182 174.971 137.333 176.717 138.018 178.758L138.024 178.776L138.03 178.794C138.307 179.668 138.584 180.25 138.939 180.624C139.25 180.951 139.743 181.235 140.459 181.496L140.471 181.5L140.483 181.505C143.124 182.518 145.621 181.611 147.139 179.885Z" fill="#1E1E1E"/>
<path fill-rule="evenodd" clip-rule="evenodd" d="M347.473 253.389C346.601 253.071 345.569 252.584 344.722 251.693C343.737 250.658 343.219 249.321 342.884 248.268C342.104 245.938 341.466 242.679 342.791 239.76L342.793 239.754C343.858 237.425 345.905 236.017 347.901 235.418C349.924 234.811 351.983 234.943 353.85 235.322L353.859 235.324L353.869 235.326C354.777 235.523 355.954 235.832 356.991 236.646C357.963 237.393 358.634 238.432 359.076 239.48C360.935 243.734 359.889 248.079 357.453 250.848C355.05 253.581 351.282 254.845 347.473 253.389ZM355.139 247.885C356.623 246.197 357.153 243.798 356.086 241.369L356.078 241.351L356.071 241.334C355.841 240.784 355.538 240.355 355.175 240.078L355.165 240.07L355.155 240.062C354.728 239.726 354.138 239.522 353.28 239.335C351.663 239.008 350.116 238.948 348.716 239.369C347.287 239.798 346.214 240.704 345.749 241.718C345.182 242.971 345.333 244.717 346.018 246.758L346.024 246.776L346.03 246.794C346.307 247.668 346.584 248.25 346.939 248.624C347.25 248.951 347.743 249.235 348.459 249.496L348.471 249.5L348.483 249.505C351.124 250.518 353.621 249.611 355.139 247.885Z" fill="#1E1E1E"/>
<path fill-rule="evenodd" clip-rule="evenodd" d="M4.44741 18.3892C3.57555 18.071 2.5439 17.5837 1.69688 16.6934C0.712003 15.6581 0.193712 14.3209 -0.141299 13.2678C-0.921099 10.9384 -1.55942 7.67921 -0.234876 4.75998L-0.23212 4.75393C0.83301 2.4252 2.87973 1.01745 4.87544 0.418098C6.89832 -0.189414 8.95809 -0.0568459 10.8242 0.321688L10.834 0.323674L10.8437 0.325799C11.7518 0.523268 12.9283 0.83219 13.9658 1.64613C14.9375 2.39251 15.6087 3.43182 16.0502 4.48018C17.91 8.73384 16.8634 13.0787 14.428 15.8481C12.0249 18.5809 8.25669 19.8447 4.44741 18.3892ZM12.1135 12.8853C13.598 11.1971 14.1272 8.7977 13.0607 6.36893L13.053 6.35139L13.0456 6.33367C12.8155 5.78402 12.513 5.35544 12.1497 5.07772L12.1397 5.07009L12.1299 5.06229C11.7031 4.72583 11.1129 4.52191 10.2548 4.33476C8.63728 4.00766 7.09089 3.9484 5.69056 4.36895C4.26157 4.79811 3.18882 5.7041 2.72375 6.71816C2.15691 7.97097 2.30738 9.71705 2.99252 11.7575L2.9987 11.7759L3.00457 11.7944C3.28154 12.6678 3.5583 13.2501 3.91359 13.6236C4.22511 13.951 4.71739 14.235 5.43368 14.4956L5.44574 14.5L5.45774 14.5046C8.09877 15.5176 10.5961 14.6108 12.1135 12.8853Z" fill="#F7C300"/>
<path fill-rule="evenodd" clip-rule="evenodd" d="M61.4474 673.389C60.5755 673.071 59.5439 672.584 58.6969 671.693C57.712 670.658 57.1937 669.321 56.8587 668.268C56.0789 665.938 55.4406 662.679 56.7651 659.76L56.7679 659.754C57.833 657.425 59.8797 656.018 61.8754 655.418C63.8983 654.811 65.9581 654.943 67.8242 655.322L67.834 655.324L67.8437 655.326C68.7518 655.523 69.9283 655.832 70.9658 656.646C71.9375 657.393 72.6087 658.432 73.0502 659.48C74.91 663.734 73.8634 668.079 71.428 670.848C69.0249 673.581 65.2567 674.845 61.4474 673.389ZM69.1135 667.885C70.598 666.197 71.1272 663.798 70.0607 661.369L70.053 661.351L70.0456 661.334C69.8155 660.784 69.513 660.356 69.1497 660.078L69.1397 660.07L69.1299 660.062C68.7031 659.726 68.1129 659.522 67.2548 659.335C65.6373 659.008 64.0909 658.948 62.6906 659.369C61.2616 659.798 60.1888 660.704 59.7238 661.718C59.1569 662.971 59.3074 664.717 59.9925 666.758L59.9987 666.776L60.0046 666.794C60.2815 667.668 60.5583 668.25 60.9136 668.624C61.2251 668.951 61.7174 669.235 62.4337 669.496L62.4457 669.5L62.4577 669.505C65.0988 670.518 67.5961 669.611 69.1135 667.885Z" fill="#F7C300"/>
<path fill-rule="evenodd" clip-rule="evenodd" d="M21.8407 367.55C21.0656 367.315 20.1485 366.956 19.3955 366.3C18.5199 365.538 18.0592 364.552 17.7613 363.776C17.0681 362.06 16.5006 359.658 17.6781 357.507L17.6806 357.503C18.6275 355.787 20.447 354.75 22.2212 354.308C24.0196 353.86 25.8507 353.958 27.5097 354.237L27.5184 354.238L27.5271 354.24C28.3343 354.386 29.3802 354.613 30.3026 355.213C31.1664 355.763 31.7631 356.529 32.1556 357.301C33.809 360.435 32.8785 363.637 30.7135 365.678C28.5771 367.691 25.2272 368.622 21.8407 367.55ZM28.6558 363.494C29.9756 362.25 30.446 360.482 29.498 358.693L29.4911 358.68L29.4845 358.667C29.28 358.262 29.0111 357.946 28.6881 357.741L28.6792 357.736L28.6704 357.73C28.291 357.482 27.7663 357.332 27.0035 357.194C25.5655 356.953 24.1908 356.909 22.9459 357.219C21.6755 357.535 20.7218 358.203 20.3084 358.95C19.8044 359.873 19.9382 361.16 20.5473 362.663L20.5528 362.677L20.558 362.691C20.8043 363.334 21.0503 363.763 21.3661 364.038C21.6431 364.28 22.0807 364.489 22.7175 364.681L22.7282 364.684L22.7389 364.688C25.0868 365.434 27.3069 364.766 28.6558 363.494Z" fill="#F7C300"/>
</svg>
