<svg width="16" height="553" viewBox="0 0 16 553" fill="none" xmlns="http://www.w3.org/2000/svg">
<path d="M6.99807 8.80166C6.99807 8.80166 7.0082 8.80144 7.01832 8.80122C7.01832 8.80122 7.0082 8.80144 6.99807 8.80166Z" fill="#59C69F"/>
<path d="M2.67656 542.377C2.97204 541.989 3.28905 541.658 3.72947 541.414C4.21989 541.138 4.68333 541.021 5.21849 540.94C4.26727 532.111 4.56148 523.255 5.01749 514.386C5.49977 504.859 5.91118 495.334 6.19073 485.802C6.74164 466.826 6.84638 398.831 6.49568 379.855C6.29282 369.099 5.9383 358.355 5.45214 347.615L5.44832 347.439C4.45404 338.493 0.0474138 274.5 5.21984 129.551C5.70212 120.025 6.11352 110.5 6.39308 100.968C6.94398 81.992 7.03881 63.0066 6.6879 44.0211C6.498 33.8622 6.16613 23.6966 5.72289 13.5335C5.20308 13.3879 4.69192 13.1736 4.20037 12.9295C3.08394 12.3656 2.12591 11.6318 1.35538 10.6685C0.584844 9.70512 0.204961 8.53732 0.0474138 7.34509C-0.24658 4.99937 1.00191 2.77702 2.88632 1.3837C3.73383 0.757701 4.77924 0.382219 5.81898 0.212667C7.17113 -0.0322621 8.53702 -0.110883 9.87133 0.222798C11.3177 0.58345 12.5404 1.38017 13.4264 2.5272C13.802 3.02867 14.0782 3.62051 14.223 4.22499C14.4693 5.30749 14.3176 6.25162 13.8636 7.2709C13.632 7.80514 12.9229 8.27134 12.3793 8.43013C12.2685 8.46193 12.1373 8.48438 12.016 8.49681C12.1605 8.62108 12.2855 8.77518 12.38 8.92993C12.7062 9.49128 12.8732 10.1835 12.6741 10.815C12.4755 11.4662 12.0895 11.8861 11.5413 12.2998C11.2623 12.5117 10.9625 12.7044 10.6523 12.8777C12.3338 50.2493 12.2646 87.6981 10.4208 125.068C5.01749 234.58 9.14153 336.96 10.41 347.341C10.4337 347.497 10.4371 347.654 10.42 347.801L10.4209 347.84C12.1291 385.505 12.0761 472.238 10.2186 509.912C9.73323 519.762 9.03669 529.685 10.0402 539.523C10.1516 539.52 10.2726 539.498 10.3842 539.505C11.7624 539.524 13.1285 539.926 14.1516 540.854C15.2674 541.859 15.633 543.302 15.8051 544.7C15.9642 545.96 15.7083 547.24 15.1659 548.389C14.1686 550.517 11.7982 551.921 9.42016 552.041C8.15532 552.108 6.9518 551.732 5.78729 551.287C4.55126 550.814 3.44114 550.074 2.79799 548.912C2.48169 548.34 2.25588 547.737 2.12057 547.103C1.97407 546.421 1.80689 545.719 1.80193 545.023C1.8214 544.052 2.08559 543.155 2.67656 542.377ZM6.81383 8.71742C6.87522 8.74549 6.93668 8.77359 6.99807 8.80166C6.98795 8.80188 6.96741 8.79249 6.95729 8.79271C6.96741 8.79249 6.98788 8.80185 7.00813 8.80141C7.03893 8.82034 7.07986 8.83906 7.11045 8.84819C7.38681 8.97941 7.16114 8.84713 7.01832 8.80122C7.12 8.81862 7.33384 8.87275 7.47666 8.91866C7.56716 8.88729 7.6682 8.8753 7.75869 8.84394C7.78886 8.83348 7.8089 8.82325 7.82893 8.81301C8.19891 8.58938 8.55918 8.38556 8.89814 8.1332C9.14724 7.94159 9.50963 7.83573 9.88364 7.79822C9.2007 7.1368 9.01915 6.23911 9.273 5.33197C9.21097 5.27451 9.13881 5.21727 9.07679 5.15982C9.06645 5.15024 9.03565 5.13131 9.02552 5.13153C9.00506 5.12217 8.93312 5.07473 8.86139 5.03708C8.7595 5.00989 8.6576 4.9827 8.54559 4.95573C8.50487 4.94681 8.40319 4.92941 8.30151 4.91202C8.18992 4.90464 7.94648 4.89031 7.89585 4.89141C7.56149 4.88886 7.23833 4.93507 6.90461 4.96191C6.85419 4.9728 6.79365 4.98392 6.73332 5.00482C6.55191 5.04796 6.38063 5.09088 6.20977 5.15338C6.18973 5.16362 6.1796 5.16384 6.15957 5.17407C6.02963 5.25529 5.86911 5.32738 5.7493 5.40838C5.65017 5.50853 5.5407 5.59911 5.45191 5.70884C5.42238 5.74868 5.38273 5.78874 5.3532 5.82858C5.29457 5.92786 5.24628 6.03671 5.22667 6.06653C5.22688 6.07633 5.20706 6.09636 5.19735 6.11617C5.15919 6.2248 5.12102 6.33344 5.0932 6.45164C5.07422 6.51086 5.07571 6.57943 5.05694 6.64844C5.05907 6.74639 5.07131 6.84413 5.07238 6.89311C5.07259 6.90291 5.07323 6.93229 5.07386 6.96168C5.107 7.08837 5.14035 7.22485 5.18362 7.35132C5.19374 7.3511 5.2045 7.38027 5.21527 7.40943C5.27857 7.52567 5.34208 7.65169 5.4153 7.75791C5.43598 7.77706 5.44674 7.80623 5.46741 7.82538C5.57079 7.92114 5.6746 8.0365 5.7881 8.13204C5.80857 8.1414 5.81891 8.15097 5.83937 8.16033C5.98283 8.23562 6.12713 8.3501 6.27059 8.42539C6.44506 8.52941 6.62945 8.62341 6.81383 8.71742ZM7.70562 546.786C8.14442 546.934 8.58279 547.061 9.04035 547.14C9.15174 547.137 9.26312 547.135 9.38462 547.132C9.47533 547.111 9.56625 547.099 9.65674 547.067C9.69703 547.057 9.7371 547.036 9.77739 547.026C9.91767 546.954 10.0478 546.883 10.1775 546.792C10.2174 546.761 10.2573 546.731 10.267 546.711C10.3264 546.651 10.3859 546.591 10.4454 546.531C10.4553 546.521 10.4751 546.501 10.4948 546.471C10.5047 546.461 10.5146 546.451 10.5144 546.441C10.5534 546.372 10.6025 546.302 10.6413 546.223C10.6411 546.213 10.651 546.203 10.6508 546.193C10.67 546.144 10.689 546.085 10.6886 546.065C10.7265 545.947 10.7339 545.819 10.7617 545.701C10.7762 545.436 10.7604 545.172 10.7445 544.907C10.7105 544.741 10.6765 544.576 10.6324 544.41C10.6122 544.41 10.6018 544.401 10.5816 544.401C10.3485 544.396 10.1156 544.402 9.88311 544.426C9.32833 544.536 8.77398 544.666 8.20886 544.766C7.96669 544.811 7.73402 544.826 7.51147 544.84C7.4522 544.91 7.40327 544.99 7.33367 545.05C7.20459 545.17 7.07508 545.271 6.93523 545.362C6.99244 545.665 7.04966 545.967 7.14737 546.269C7.16911 546.337 7.19064 546.396 7.21216 546.454C7.24339 546.492 7.26428 546.521 7.28559 546.57C7.33685 546.598 7.39846 546.636 7.44972 546.664C7.53158 546.702 7.62356 546.739 7.70562 546.786Z" fill="#59C69F"/>
</svg>
