<svg width="289" height="47" viewBox="0 0 289 47" fill="none" xmlns="http://www.w3.org/2000/svg">
<path d="M12.7847 26.2973C13.0053 27.2396 13.2131 28.2407 13.3956 29.3019C13.5788 30.3693 13.7496 31.438 13.897 32.5218C14.0505 33.605 14.176 34.659 14.2667 35.6783C14.3636 36.6969 14.4324 37.6225 14.4778 38.4419C15.6138 39.0944 16.3189 39.6943 16.5884 40.2549C16.8579 40.8155 16.9339 41.3188 16.8054 41.7788C16.6625 42.4063 16.3353 42.7585 15.8163 42.8233C15.3035 42.8875 14.6904 42.7638 13.9893 42.4509C13.5525 42.8332 13.057 43.2534 12.4885 43.6936C11.9268 44.1396 11.3267 44.5766 10.693 44.9915C10.06 45.4126 9.42246 45.7895 8.78047 46.1222C8.13848 46.4548 7.53771 46.7003 6.98436 46.858C5.93574 47.1292 4.95399 47.0106 4.05276 46.5133C3.15153 46.0161 2.49336 45.2007 2.08506 44.0728C1.81365 43.308 1.68832 42.503 1.70971 41.6642C1.73046 40.819 1.90369 39.9968 2.2356 39.1971C2.56068 38.3916 3.04273 37.6535 3.66871 36.9775C4.2947 36.3016 5.05864 35.7523 5.95991 35.3234C6.18501 35.1986 6.49874 35.0841 6.91349 34.9787C7.32204 34.8738 7.75302 34.805 8.20706 34.7787C8.6611 34.7523 9.12347 34.8081 9.61146 34.9316C10.0939 35.0621 10.5569 35.3094 10.9949 35.6807C10.9428 35.1047 10.8719 34.4667 10.7885 33.7661C10.7056 33.0718 10.6153 32.3655 10.512 31.6541C10.4086 30.9427 10.3098 30.2756 10.1962 29.6483C10.0888 29.0204 9.97926 28.4948 9.87249 28.0584C9.75868 27.5525 9.53466 27.2556 9.20663 27.1671C8.8786 27.0787 8.49033 27.1368 8.03692 27.3547C7.26487 27.7004 6.37599 28.3133 5.3833 29.1985C4.39062 30.0837 3.45196 31.0082 2.56862 31.9846C2.29588 32.3185 1.96869 32.4854 1.58086 32.486C1.19303 32.4866 0.855597 32.3671 0.5611 32.1157C0.267244 31.8705 0.0865793 31.5692 0.0253 31.2113C-0.0421728 30.854 0.0556554 30.461 0.318144 30.0259C0.826455 29.3617 1.40097 28.6718 2.04234 27.9624C2.6837 27.2529 3.3618 26.5973 4.07662 25.9955C4.79209 25.4 5.5351 24.8911 6.3063 24.4753C7.07131 24.06 7.85852 23.8022 8.65427 23.6905C9.81607 23.5484 10.7417 23.7302 11.4304 24.2296C12.1198 24.7353 12.5712 25.4245 12.7847 26.2973ZM8.01324 37.8064C7.58995 37.9511 7.15277 38.2057 6.69551 38.5709C6.24509 38.9419 5.84442 39.3717 5.50654 39.8654C5.16866 40.3592 4.92881 40.8942 4.80001 41.4756C4.67121 42.057 4.71454 42.6083 4.93065 43.1359C5.01307 43.332 5.17153 43.4758 5.39855 43.5552C5.62557 43.6347 5.86967 43.6357 6.13514 43.5388C6.91744 43.2943 7.79521 42.8805 8.76781 42.2912C9.74041 41.7018 10.4986 41.0956 11.0411 40.46C11.0206 40.2577 10.8946 40.002 10.6699 39.6988C10.4391 39.3962 10.1766 39.0904 9.87763 38.7947C9.57865 38.4989 9.26493 38.243 8.92473 38.0344C8.57833 37.8264 8.27635 37.7481 8.01324 37.8064Z" fill="#1E1E1E"/>
<path d="M21.6318 27.5369C21.7828 28.0391 21.9395 28.5982 22.115 29.2193C22.2906 29.8404 22.4736 30.4736 22.6709 31.1244C22.8682 31.7753 23.0475 32.4343 23.2096 33.1079C23.3717 33.7814 23.5175 34.4183 23.6416 35.0254C23.9613 34.1055 24.3063 33.1256 24.6777 32.0984C25.0491 31.0711 25.4771 30.1084 25.9445 29.2249C26.418 28.3406 26.9372 27.5988 27.5014 26.9929C28.0663 26.3933 28.7139 26.0537 29.4515 25.9861C30.5484 25.8825 31.5135 26.2072 32.34 26.9547C33.1665 27.7021 33.8951 28.6574 34.5253 29.8141C35.1561 30.9771 35.6806 32.202 36.1062 33.5006C36.5317 34.7992 36.8924 35.951 37.1882 36.9561C37.4737 37.86 37.1396 38.5769 36.1798 39.1075C35.7328 39.3886 35.3892 39.455 35.1366 39.3079C34.8839 39.1608 34.7366 39.0031 34.6883 38.8355C34.4795 38.4413 34.2089 37.7467 33.8636 36.7466C33.5183 35.7465 33.1346 34.7375 32.7241 33.7121C32.3075 32.6872 31.861 31.7995 31.3914 31.0546C30.9156 30.3103 30.4332 29.9946 29.9379 30.1081C29.3403 30.2 28.8538 30.7087 28.4659 31.6354C28.1351 32.3839 27.8002 33.2159 27.4668 34.1244C27.1334 35.0329 26.8074 35.9534 26.4896 36.8922C26.1718 37.8311 25.8664 38.7687 25.5671 39.7057C25.2679 40.6426 24.9857 41.5013 24.7269 42.2809C24.5152 42.5385 24.2408 42.7321 23.8961 42.8497C23.5514 42.9673 23.1958 42.9774 22.8163 42.8749C22.4709 42.801 22.1935 42.6564 21.9648 42.4366C21.7423 42.2162 21.6188 41.9859 21.5951 41.7519C21.0475 39.1243 20.5117 36.7381 19.9873 34.5871C19.4628 32.4362 18.8472 30.2497 18.1329 28.0156C17.8244 27.2545 17.7244 26.6386 17.8325 26.1615C17.9412 25.6907 18.4126 25.4646 19.2596 25.4882C20.4519 25.5858 21.2404 26.2668 21.6318 27.5369Z" fill="#1E1E1E"/>
<path d="M47.233 16.0527C47.078 15.4487 47.0644 14.8816 47.1989 14.3572C47.3335 13.8327 47.6818 13.504 48.2452 13.3836C48.7405 13.27 49.1943 13.365 49.6067 13.6686C50.0191 13.9721 50.3061 14.3968 50.4541 14.9313C51.4884 18.7812 52.4775 22.6164 53.4262 26.4238C54.3688 30.2318 55.2541 33.9689 56.0698 37.6363C56.2935 38.6103 56.2933 39.2874 56.0566 39.6688C55.82 40.0502 55.531 40.3474 55.1823 40.5485C54.7963 40.7532 54.4247 40.7905 54.0544 40.6552C53.6903 40.5193 53.436 40.2318 53.292 39.7992L53.2111 39.4943L53.018 39.5648C51.956 40.0737 50.8264 40.4105 49.6356 40.5747C48.4385 40.7394 47.2767 40.6963 46.1453 40.4585C45.0138 40.2207 43.9844 39.7555 43.064 39.0685C42.1436 38.3816 41.4435 37.4618 40.9633 36.3028C39.9171 33.7571 40.1965 31.3275 41.7892 29.0153C42.4743 28.0588 43.3481 27.1728 44.4159 26.3503C45.4838 25.5278 46.7968 24.8405 48.355 24.2882L49.2332 24.0021L47.233 16.0527ZM43.896 34.744C44.1706 35.5404 44.6001 36.1361 45.172 36.5322C45.7439 36.9283 46.4057 37.1621 47.1588 37.2463C47.9056 37.3311 48.6892 37.2844 49.5157 37.1057C50.3422 36.927 51.1411 36.6616 51.9132 36.3159L52.3499 36.1188L50.1076 27.2613L49.1293 27.6085C48.4493 27.8747 47.7374 28.259 46.9938 28.7616C46.2495 29.2578 45.6064 29.8269 45.0571 30.4568C44.5084 31.093 44.1148 31.7776 43.8651 32.5244C43.6099 33.2782 43.6216 34.0115 43.896 34.744Z" fill="#1E1E1E"/>
<path d="M74.5137 22.9995C74.5998 23.5401 74.7172 24.2054 74.8791 25.0003C75.0341 25.7895 75.2053 26.6155 75.3866 27.4787C75.5672 28.3356 75.7534 29.1856 75.9514 30.028C76.1493 30.8704 76.3272 31.6382 76.4987 32.3427C76.7947 31.5594 77.1608 30.6029 77.5895 29.4613C78.0188 28.3261 78.4829 27.2256 78.9701 26.1676C79.4573 25.1096 79.9784 24.2014 80.5279 23.4501C81.0775 22.6988 81.6058 22.2945 82.1019 22.2511C82.6352 22.2041 83.1514 22.4205 83.6511 22.9069C84.1508 23.3933 84.5995 23.9934 85.004 24.7129C85.4084 25.4324 85.7747 26.2069 86.1021 27.0299C86.4301 27.8593 86.7106 28.5912 86.937 29.22C87.0284 28.7637 87.1574 28.2462 87.324 27.6674C87.4906 27.0886 87.6677 26.4896 87.8614 25.8698C88.0552 25.25 88.2812 24.6397 88.5449 24.032C88.8087 23.4244 89.0981 22.8844 89.4249 22.4045C89.8104 21.8868 90.2465 21.4981 90.7257 21.2265C91.2056 20.9612 91.5602 20.8171 91.7955 20.7935C92.0928 20.7637 92.4623 20.8288 92.8964 20.9769C93.3306 21.1249 93.7774 21.3356 94.2423 21.6019C94.701 21.8689 95.1469 22.1946 95.5683 22.5867C95.9896 22.9788 96.3435 23.384 96.6175 23.8036C97.1693 24.6808 97.6365 25.6495 98.0254 26.7091C98.4081 27.7693 98.7181 28.792 98.9419 29.766C99.1657 30.7399 99.3414 31.6101 99.4623 32.3708C99.5831 33.1316 99.6747 33.6653 99.7364 33.9657C99.7812 34.4083 99.7588 34.7427 99.6821 34.9739C99.6055 35.2051 99.4376 35.4008 99.1847 35.5603C98.836 35.7614 98.5197 35.8506 98.2482 35.8267C97.9768 35.8028 97.7485 35.7107 97.5702 35.5562C97.3857 35.4022 97.2357 35.2193 97.1142 35.0079C96.9927 34.7965 96.9109 34.6067 96.8565 34.4398C96.6842 33.665 96.4982 32.8789 96.3034 32.0681C96.1093 31.2636 95.9116 30.4851 95.7034 29.7267C95.4958 28.9747 95.2748 28.2751 95.028 27.6292C94.7811 26.9834 94.5358 26.414 94.2857 25.9217C94.2041 25.7957 94.0803 25.6229 93.9092 25.4165C93.7381 25.2101 93.5491 25.0119 93.349 24.8276C93.1483 24.637 92.9576 24.4837 92.7769 24.3676C92.5956 24.2453 92.4696 24.1749 92.4038 24.1432C92.0694 24.1767 91.7477 24.522 91.4395 25.1852C91.1313 25.8484 90.8545 26.6363 90.6036 27.5556C90.3526 28.475 90.1302 29.4298 89.9365 30.4201C89.7434 31.4167 89.6099 32.2604 89.5428 32.957C89.6263 33.8428 89.5188 34.5114 89.2273 34.9686C88.9357 35.4258 88.6038 35.6699 88.2384 35.7065C87.873 35.7432 87.4675 35.6306 87.023 35.3813C86.5786 35.1321 86.2722 34.8243 86.1043 34.4643C85.851 33.9404 85.5784 33.3482 85.28 32.6883C84.9817 32.0284 84.6759 31.3565 84.3552 30.6606C84.0344 29.9646 83.7224 29.2933 83.4055 28.6353C83.0886 27.9772 82.7911 27.3875 82.5069 26.8667C82.1015 27.5589 81.7087 28.3136 81.3354 29.1367C80.9559 29.9604 80.603 30.8006 80.2583 31.6591C79.9198 32.517 79.5923 33.361 79.289 34.1962C78.9796 35.032 78.6852 35.7705 78.4129 36.4174C78.2153 36.814 77.9947 37.1683 77.7572 37.4795C77.5197 37.7907 77.2124 37.9685 76.8463 37.9988C76.58 38.0255 76.2817 37.9213 75.9581 37.6919C75.6346 37.4625 75.3177 37.1749 75.0198 36.8279C74.715 36.4753 74.4368 36.0752 74.1775 35.6158C73.9121 35.157 73.7154 34.6977 73.5676 34.2271C73.1657 32.792 72.7857 31.2014 72.441 29.4667C72.0902 27.7327 71.7556 26.0353 71.4324 24.3879C71.3431 23.8157 71.3692 23.2701 71.505 22.7583C71.6409 22.2465 71.9668 21.8817 72.489 21.6632C73.0492 21.5112 73.4855 21.5569 73.8103 21.799C74.1704 22.0183 74.3935 22.4303 74.5137 22.9995Z" fill="#1E1E1E"/>
<path d="M114.844 16.8466C115.065 17.7889 115.273 18.79 115.455 19.8511C115.639 20.9186 115.809 21.9873 115.957 23.0711C116.11 24.1543 116.236 25.2083 116.326 26.2275C116.423 27.2461 116.492 28.1718 116.538 28.9912C117.674 29.6437 118.379 30.2436 118.648 30.8042C118.918 31.3648 118.994 31.8681 118.865 32.3281C118.723 32.9619 118.395 33.3078 117.876 33.3726C117.363 33.4368 116.75 33.3131 116.049 33.0002C115.612 33.3825 115.116 33.7963 114.548 34.2429C113.987 34.6889 113.386 35.1259 112.753 35.5407C112.12 35.9619 111.482 36.3388 110.84 36.6715C110.198 37.0041 109.597 37.2496 109.044 37.4073C107.995 37.6785 107.014 37.5598 106.113 37.0626C105.211 36.5654 104.553 35.75 104.145 34.6221C103.873 33.8573 103.748 33.0523 103.769 32.2135C103.79 31.3683 103.963 30.5461 104.295 29.7464C104.627 28.9466 105.102 28.2028 105.728 27.5268C106.354 26.8509 107.118 26.3016 108.02 25.8727C108.245 25.7479 108.558 25.6334 108.973 25.528C109.382 25.4231 109.813 25.3543 110.267 25.3343C110.721 25.3079 111.184 25.3637 111.672 25.4872C112.154 25.6114 112.617 25.865 113.055 26.2363C113.003 25.6603 112.932 25.0223 112.849 24.3217C112.766 23.6274 112.676 22.9211 112.572 22.2097C112.469 21.4983 112.37 20.8312 112.257 20.2039C112.149 19.576 112.04 19.0504 111.933 18.614C111.819 18.1081 111.595 17.8112 111.267 17.7228C110.939 17.6343 110.551 17.6924 110.097 17.9103C109.325 18.256 108.436 18.8689 107.444 19.7541C106.451 20.6393 105.512 21.5638 104.629 22.5402C104.356 22.8741 104.029 23.041 103.641 23.0416C103.253 23.0422 102.916 22.9228 102.621 22.6713C102.328 22.4261 102.147 22.1248 102.086 21.7669C102.019 21.416 102.116 21.0166 102.379 20.5815C102.887 19.9173 103.461 19.2274 104.103 18.518C104.744 17.8085 105.422 17.1529 106.137 16.5511C106.852 15.9556 107.595 15.4467 108.367 15.0309C109.132 14.6156 109.919 14.3578 110.715 14.2461C111.876 14.104 112.802 14.2858 113.491 14.7852C114.179 15.2846 114.631 15.9738 114.844 16.8466ZM110.074 28.3621C109.65 28.5067 109.213 28.7613 108.756 29.1265C108.305 29.4975 107.905 29.9273 107.567 30.421C107.229 30.9148 106.989 31.4498 106.86 32.0312C106.732 32.6126 106.775 33.1639 106.991 33.6915C107.073 33.8876 107.232 34.0314 107.459 34.1108C107.686 34.1903 107.929 34.185 108.189 34.0951C108.972 33.8505 109.849 33.4368 110.822 32.8474C111.795 32.258 112.553 31.6519 113.095 31.0162C113.075 30.8139 112.949 30.5583 112.724 30.2551C112.493 29.9525 112.231 29.6467 111.932 29.3509C111.633 29.0552 111.319 28.7992 110.979 28.5906C110.638 28.3757 110.337 28.3037 110.074 28.3621Z" fill="#1E1E1E"/>
<path d="M123.685 18.0868C123.836 18.5891 123.993 19.1482 124.168 19.7693C124.344 20.3904 124.527 21.0235 124.724 21.6744C124.921 22.3252 125.101 22.9843 125.263 23.6578C125.425 24.3314 125.571 24.9683 125.695 25.5754C126.015 24.6555 126.36 23.6756 126.731 22.6483C127.102 21.6211 127.53 20.6584 127.998 19.7748C128.471 18.8906 128.991 18.1487 129.555 17.5428C130.12 16.9433 130.767 16.6037 131.505 16.5361C132.602 16.4325 133.567 16.7572 134.393 17.5046C135.22 18.2521 135.948 19.2073 136.579 20.3641C137.209 21.5271 137.734 22.7519 138.16 24.0506C138.585 25.3492 138.946 26.501 139.242 27.506C139.526 28.4036 139.193 29.1269 138.233 29.6574C137.786 29.9386 137.443 30.005 137.19 29.8579C136.937 29.7108 136.79 29.5531 136.742 29.3855C136.533 28.9913 136.262 28.2967 135.917 27.2966C135.572 26.2965 135.188 25.2875 134.777 24.262C134.361 23.2372 133.914 22.3494 133.445 21.6045C132.969 20.8602 132.486 20.5446 131.991 20.6581C131.394 20.75 130.907 21.2586 130.519 22.1854C130.188 22.9339 129.854 23.7659 129.52 24.6744C129.187 25.5828 128.861 26.5033 128.543 27.4422C128.225 28.381 127.92 29.3186 127.62 30.2556C127.321 31.1926 127.039 32.0512 126.78 32.8309C126.569 33.0884 126.294 33.282 125.949 33.3996C125.605 33.5172 125.248 33.521 124.87 33.4249C124.524 33.351 124.247 33.2063 124.018 32.9866C123.796 32.7662 123.672 32.5358 123.648 32.3019C123.101 29.6742 122.565 27.2881 122.041 25.1371C121.516 22.9862 120.901 20.7996 120.186 18.5655C119.878 17.8045 119.778 17.1885 119.886 16.7114C119.995 16.2407 120.466 16.0146 121.313 16.0382C122.511 16.1351 123.301 16.8224 123.685 18.0868Z" fill="#1E1E1E"/>
<path d="M157.264 15.7536C157.537 17.5849 157.818 19.4282 158.113 21.2892C158.408 23.1502 158.601 24.9959 158.71 26.818C158.814 28.647 158.808 30.4361 158.686 32.1984C158.564 33.9607 158.249 35.6657 157.727 37.3085C157.205 38.9512 156.456 40.5082 155.466 41.9743C154.475 43.4405 153.186 44.7961 151.586 46.0424C151.337 46.2399 151.055 46.3639 150.736 46.4278C150.424 46.4911 150.113 46.5095 149.81 46.4888C149.508 46.468 149.233 46.4062 148.985 46.3097C148.738 46.2131 148.572 46.0636 148.49 45.8675C148.36 45.574 148.381 45.2269 148.542 44.834C148.708 44.4405 149.004 44.0212 149.433 43.5693C150.795 42.3087 151.914 41.0021 152.797 39.6552C153.68 38.302 154.354 36.8675 154.814 35.3524C155.279 33.8366 155.521 32.2029 155.539 30.4701C155.564 28.7367 155.379 26.8519 154.986 24.8282C154.635 25.3744 154.218 25.9465 153.733 26.5379C153.249 27.1294 152.728 27.6671 152.17 28.151C151.612 28.6349 151.028 29.0448 150.419 29.3933C149.81 29.7418 149.223 29.9412 148.659 29.9914C148.194 30.0316 147.713 29.9777 147.227 29.8156C146.741 29.6535 146.237 29.3081 145.72 28.7724C145.12 28.1044 144.568 27.3423 144.067 26.4791C143.567 25.6159 143.125 24.7724 142.747 23.948C142.37 23.1236 142.051 22.3828 141.808 21.7173C141.559 21.0525 141.406 20.5888 141.348 20.32C141.251 19.9848 141.218 19.6623 141.256 19.352C141.293 19.0417 141.491 18.8302 141.856 18.7297C142.347 18.5783 142.816 18.5696 143.267 18.7032C143.718 18.8304 144.044 19.0788 144.242 19.4357C144.41 19.7957 144.649 20.3594 144.957 21.1204C145.266 21.8815 145.617 22.6319 146.023 23.364C146.429 24.0962 146.85 24.7373 147.287 25.2811C147.724 25.8249 148.162 26.0748 148.596 26.0376C149.098 25.9936 149.661 25.6817 150.297 25.1069C150.934 24.5321 151.53 23.8081 152.086 22.9348C152.642 22.0615 153.101 21.102 153.451 20.0513C153.809 19.0063 153.939 18.0096 153.849 17.0543C153.828 16.8519 153.841 16.6079 153.882 16.3292C153.922 16.0505 153.995 15.7813 154.105 15.5084C154.216 15.2418 154.354 15.0044 154.515 14.803C154.682 14.601 154.863 14.4679 155.058 14.4164C155.584 14.2998 156.076 14.3974 156.521 14.7168C156.985 15.0343 157.226 15.3806 157.264 15.7536Z" fill="#1E1E1E"/>
<path d="M187.404 11.2105C188.44 11.4961 189.333 11.975 190.085 12.6597C190.836 13.3444 191.442 14.1395 191.896 15.0393C192.351 15.9454 192.653 16.886 192.79 17.8686C192.933 18.8506 192.908 19.7792 192.721 20.6538C192.446 21.6396 192.064 22.6232 191.586 23.5908C191.102 24.5591 190.535 25.44 189.869 26.222C189.204 27.0041 188.426 27.6634 187.535 28.1871C186.644 28.7172 185.631 29.0359 184.496 29.137C183.126 29.2616 181.947 29.0477 180.958 28.489C179.963 27.9309 179.154 27.1627 178.523 26.1912C177.893 25.2197 177.442 24.0961 177.174 22.8136C176.9 21.5317 176.807 20.2381 176.887 18.9271C176.933 17.9644 177.068 17.0119 177.299 16.0818C177.53 15.1516 177.865 14.3133 178.296 13.5675C178.727 12.8217 179.252 12.2005 179.858 11.699C180.465 11.1975 181.186 10.908 182.023 10.8305C182.487 10.7839 183.08 10.8266 183.799 10.9461C184.518 11.072 185.189 11.2729 185.825 11.5604C186.219 11.1186 186.744 10.9956 187.404 11.2105ZM185.854 15.1152C185.464 14.9116 185.011 14.6377 184.488 14.2878C183.965 13.9442 183.523 13.7841 183.158 13.8208C182.755 13.8611 182.384 14.0836 182.037 14.4889C181.69 14.9004 181.393 15.3646 181.158 15.88C180.923 16.4018 180.726 16.9261 180.573 17.4525C180.42 17.9851 180.325 18.4034 180.287 18.7138C180.234 19.2365 180.227 19.8503 180.263 20.5685C180.298 21.2867 180.413 21.9906 180.613 22.673C180.814 23.3555 181.132 23.9623 181.567 24.4872C182.001 25.012 182.612 25.3595 183.405 25.5291C183.884 25.6216 184.434 25.56 185.051 25.3512C185.668 25.1424 186.266 24.8015 186.85 24.3341C187.429 23.8673 187.963 23.2708 188.445 22.539C188.934 21.8065 189.283 20.986 189.497 20.0703C189.738 19.0561 189.646 18.0242 189.234 16.9798C188.815 15.9359 188.104 15.2216 187.09 14.838C186.872 15.0323 186.645 15.1381 186.415 15.1611C186.18 15.1847 185.991 15.1717 185.854 15.1152Z" fill="#1E1E1E"/>
<path d="M207.842 13.491C208.472 13.4024 209.119 13.4907 209.786 13.7751C210.453 14.0595 210.815 14.5533 210.882 15.2684C210.866 15.8512 210.593 16.249 210.057 16.4497C209.521 16.6568 209.088 16.7704 208.754 16.804C208.084 16.8647 207.373 16.9488 206.608 17.0511C205.842 17.1535 205.067 17.2823 204.274 17.4193C204.313 18.5459 204.352 19.6087 204.396 20.6007C204.44 21.5926 204.479 22.4702 204.519 23.239C204.56 24.0077 204.598 24.6299 204.646 25.1041C204.687 25.5789 204.732 25.8363 204.766 25.8648C205.484 25.6587 206.26 25.3573 207.077 24.9561C207.899 24.5542 208.712 24.115 209.528 23.6499C210.344 23.1785 211.134 22.6969 211.914 22.1907C212.69 21.6913 213.43 21.2147 214.13 20.7741C214.447 20.5761 214.752 20.4945 215.038 20.5361C215.33 20.5771 215.519 20.7178 215.605 20.9455C215.704 21.3123 215.702 21.7789 215.583 22.34C215.465 22.9012 215.211 23.4185 214.822 23.9046C214.361 24.3596 213.745 24.8876 212.98 25.4881C212.21 26.0955 211.387 26.6763 210.499 27.238C209.611 27.7997 208.705 28.3057 207.793 28.7485C206.874 29.1919 206.053 29.485 205.328 29.6216C204.236 29.827 203.374 29.5941 202.744 28.9355C202.107 28.2712 201.707 27.4044 201.54 26.3162C201.368 25.2348 201.247 23.976 201.158 22.5414C201.075 21.1062 200.99 19.5882 200.908 17.9804C200.283 18.107 199.676 18.2254 199.098 18.3281C198.52 18.4307 197.969 18.5435 197.436 18.6608C197.003 18.7043 196.521 18.644 195.98 18.4875C195.445 18.3304 195.151 17.9639 195.093 17.3885C195.072 17.1862 195.131 16.9056 195.264 16.5474C195.397 16.1892 195.743 15.9053 196.29 15.6781C197.635 15.3132 199.133 14.9713 200.783 14.6461C200.733 13.0352 200.707 11.4794 200.697 9.9666C200.689 8.46011 200.681 7.08764 200.662 5.85044C200.658 5.44205 200.739 5.06984 200.913 4.74584C201.087 4.42185 201.288 4.24836 201.517 4.22537C202.078 4.13723 202.638 4.23431 203.185 4.51154C203.733 4.78878 204.024 5.13004 204.065 5.5347C204.04 6.70608 204.036 8.02858 204.06 9.50159C204.078 10.9752 204.112 12.4856 204.155 14.0269C204.818 13.8966 205.452 13.7946 206.07 13.7199C206.689 13.6578 207.276 13.5798 207.842 13.491Z" fill="#1E1E1E"/>
<path d="M219.552 3.39382C219.628 4.2101 219.709 5.12816 219.788 6.15495C219.866 7.17543 219.967 8.23197 220.083 9.31889C220.199 10.4058 220.326 11.53 220.449 12.6865C220.573 13.843 220.703 14.9476 220.835 16.0011C221.101 15.291 221.442 14.5797 221.846 13.8749C222.25 13.1702 222.717 12.5356 223.255 11.9708C223.792 11.406 224.37 10.9392 224.99 10.5768C225.61 10.208 226.307 9.99118 227.07 9.9211C227.9 9.84418 228.672 10.0479 229.372 10.5333C230.071 11.0188 230.709 11.6894 231.277 12.5458C231.846 13.4021 232.35 14.3671 232.784 15.4413C233.218 16.5155 233.599 17.6143 233.924 18.7313C234.251 19.8546 234.51 20.9272 234.708 21.9548C234.906 22.9825 235.07 23.8666 235.208 24.6128C235.257 25.1572 235.166 25.6134 234.933 25.9752C234.696 26.344 234.396 26.5401 234.03 26.5704C233.764 26.5971 233.423 26.4461 233.003 26.1242C232.588 25.8017 232.272 25.3927 232.053 24.8973C231.912 24.4963 231.759 23.9113 231.587 23.1365C231.414 22.3618 231.218 21.532 230.996 20.6409C230.78 19.7492 230.527 18.8548 230.242 17.9573C229.957 17.0534 229.638 16.255 229.285 15.5495C228.932 14.844 228.54 14.3022 228.102 13.9309C227.664 13.5597 227.183 13.4482 226.661 13.6028C225.841 13.8511 225.176 14.5118 224.654 15.5925C224.131 16.6669 223.709 17.878 223.381 19.2139C223.054 20.5497 222.808 21.8901 222.651 23.2471C222.494 24.5978 222.386 25.6944 222.326 26.5244C222.252 27.1514 222.114 27.5804 221.92 27.8234C221.725 28.0664 221.495 28.1982 221.228 28.2249C220.962 28.2516 220.707 28.1367 220.468 27.8859C220.224 27.6358 219.992 27.3206 219.773 26.9466C219.553 26.5725 219.357 26.1771 219.184 25.7665C219.011 25.3559 218.893 24.9973 218.831 24.6905C218.49 22.8661 218.194 21.1202 217.936 19.4406C217.679 17.7674 217.446 16.0791 217.236 14.382C217.027 12.6849 216.838 10.941 216.669 9.15668C216.501 7.37238 216.357 5.45158 216.23 3.40121C216.07 1.69911 216.6 0.879483 217.814 0.936635C218.217 0.966431 218.601 1.23452 218.945 1.73013C219.296 2.22511 219.496 2.77988 219.552 3.39382Z" fill="#1E1E1E"/>
<path d="M249.801 11.3073C248.573 12.2098 247.233 12.9445 245.77 13.5064C244.307 14.0747 242.711 14.4328 240.981 14.5935C241.157 15.7766 241.582 16.6921 242.247 17.3343C242.913 17.9765 243.705 18.325 244.618 18.374C245.158 18.3965 245.695 18.3235 246.236 18.1734C246.777 18.0169 247.276 17.8136 247.743 17.5432C248.204 17.2798 248.625 16.9885 249.001 16.6825C249.377 16.3766 249.702 16.0693 249.972 15.7676C250.248 15.4653 250.546 15.2566 250.872 15.1408C251.198 15.0251 251.445 14.9939 251.619 15.0467C252.102 15.1771 252.314 15.6668 252.264 16.5341C251.835 17.6693 251.154 18.6701 250.228 19.5295C249.301 20.3889 248.228 20.9755 247.016 21.2952C245.97 21.598 244.862 21.6517 243.703 21.4486C242.537 21.2461 241.467 20.7467 240.485 19.9446C239.643 19.2307 238.974 18.3716 238.476 17.3485C237.979 16.3317 237.627 15.2621 237.421 14.1522C237.221 13.1056 237.219 12.0967 237.413 11.1127C237.608 10.1351 237.969 9.24944 238.502 8.46143C239.035 7.67342 239.725 7.0039 240.581 6.43899C241.438 5.8804 242.464 5.50924 243.653 5.33245C245.075 5.10043 246.404 5.24819 247.628 5.78961C248.853 6.33103 249.756 7.15382 250.332 8.27127C250.658 8.89643 250.789 9.4454 250.713 9.93204C250.638 10.425 250.333 10.8771 249.801 11.3073ZM243.729 8.36513C243.401 8.4619 243.054 8.61806 242.686 8.82097C242.319 9.02388 241.988 9.27427 241.698 9.55886C241.407 9.84346 241.151 10.1566 240.93 10.5045C240.709 10.8524 240.603 11.2271 240.607 11.6418C241.172 11.5916 241.792 11.4783 242.47 11.3145C243.141 11.1513 243.798 10.9578 244.433 10.7471C245.069 10.5365 245.652 10.2992 246.182 10.0416C246.713 9.78397 247.15 9.52302 247.497 9.2518C247.172 8.63295 246.642 8.27736 245.907 8.19135C245.173 8.10534 244.447 8.16537 243.729 8.36513Z" fill="#1E1E1E"/>
<path d="M269.675 3.80208C269.108 4.19745 268.518 4.61427 267.899 5.04685C267.286 5.4788 266.673 5.9746 266.072 6.52669C265.471 7.07878 264.903 7.7169 264.382 8.4335C263.86 9.15009 263.407 9.99387 263.029 10.9516C262.484 12.3092 262.159 13.664 262.047 15.0356C261.942 16.4003 261.914 17.7316 261.971 19.0352C262.027 19.6492 261.947 20.2831 261.719 20.9383C261.492 21.5934 261.133 21.9424 260.631 21.9927C259.999 22.0497 259.457 21.7656 259.012 21.1395C258.567 20.5135 258.248 19.9004 258.055 19.2938C257.259 16.9274 256.571 14.5821 255.985 12.2521C255.398 9.92214 254.856 7.59414 254.37 5.26687C254.328 4.79203 254.439 4.46792 254.71 4.30656C254.982 4.14521 255.299 4.06232 255.668 4.06361C256.075 4.06117 256.463 4.12444 256.846 4.26483C257.229 4.3989 257.474 4.65537 257.573 5.02221C257.825 6.26804 258.113 7.574 258.445 8.93313C258.777 10.2923 259.088 11.4554 259.38 12.4225C259.405 11.2511 259.664 10.0947 260.161 8.95261C260.659 7.81052 261.309 6.75531 262.105 5.78759C262.908 4.81926 263.837 3.97885 264.897 3.26574C265.956 2.54631 267.062 2.03305 268.206 1.72025C268.701 1.60671 269.116 1.56509 269.459 1.60742C269.8 1.64343 270.041 1.74058 270.195 1.89763C270.342 2.0553 270.395 2.3247 270.346 2.70645C270.31 3.09328 270.084 3.45448 269.675 3.80208Z" fill="#1E1E1E"/>
<path d="M282.247 5.0065C282.147 4.63966 282.043 4.28609 281.946 3.95086C281.85 3.61564 281.66 3.41111 281.383 3.33666C280.802 3.21614 280.199 3.25743 279.581 3.45357C278.963 3.64971 278.395 3.91738 277.891 4.25533C277.388 4.59329 276.968 4.9611 276.632 5.35245C276.297 5.74381 276.131 6.07983 276.121 6.35544C276.068 6.87815 276.248 7.3583 276.661 7.79586C277.075 8.23975 277.65 8.66749 278.393 9.07846C279.624 9.6831 280.913 10.3075 282.247 10.9338C283.581 11.5664 284.724 12.231 285.665 12.935C286.606 13.639 287.275 14.4405 287.68 15.3516C288.085 16.2563 288.112 17.3266 287.756 18.5632C287.477 19.5173 286.864 20.326 285.919 20.9957C284.973 21.6654 283.915 22.2185 282.746 22.6552C281.576 23.0919 280.396 23.421 279.206 23.6553C278.015 23.8833 277.005 24.0421 276.175 24.119C275.977 24.1389 275.727 24.0809 275.426 23.9578C275.125 23.8283 274.847 23.6773 274.579 23.4935C274.31 23.3097 274.072 23.1228 273.869 22.9132C273.667 22.7099 273.554 22.5232 273.537 22.3525C273.481 21.7385 273.705 21.2882 274.22 21.0002C274.729 20.7128 275.268 20.5437 275.839 20.4929C276.638 20.4191 277.495 20.2948 278.404 20.127C279.313 19.9592 280.173 19.7388 280.991 19.4779C281.809 19.217 282.534 18.8953 283.173 18.531C283.811 18.1604 284.242 17.7275 284.461 17.2266C284.655 16.7983 284.469 16.3251 283.898 15.8139C283.327 15.3028 282.592 14.7761 281.681 14.2416C280.776 13.7064 279.798 13.1977 278.76 12.7078C277.722 12.2179 276.832 11.7707 276.084 11.3603C275.341 10.9493 274.682 10.4342 274.126 9.81938C273.563 9.20517 273.169 8.40793 272.946 7.43399C272.831 6.55127 272.931 5.68536 273.257 4.82871C273.577 3.97268 274.038 3.20477 274.631 2.51296C275.224 1.82115 275.917 1.25342 276.716 0.802832C277.515 0.352244 278.332 0.0850201 279.163 0.00810398C280.602 -0.0531925 281.826 0.232826 282.824 0.880048C283.828 1.52665 284.476 2.55382 284.776 3.96726C284.817 4.4421 284.783 4.84158 284.659 5.1606C284.535 5.47963 284.294 5.69541 283.935 5.79529C283.477 5.90511 283.092 5.87977 282.795 5.72436C282.495 5.54366 282.309 5.31322 282.247 5.0065Z" fill="#1E1E1E"/>
</svg>
