<svg width="311" height="18" viewBox="0 0 311 18" fill="none" xmlns="http://www.w3.org/2000/svg">
<path d="M200.953 8.79752C203.583 5.90738 207.491 4.63785 211.352 5.03873C213.961 5.27506 216.27 6.19059 218.43 7.44596C219.062 7.79362 219.68 8.20865 220.302 8.62711L220.303 8.62745C221.642 9.52676 223.001 10.4401 224.565 10.7238C226.35 11.1759 227.679 9.93082 228.997 8.69596L229.005 8.68938C229.38 8.33758 229.756 7.9865 230.14 7.67594C231.714 6.28043 233.793 5.36783 235.921 5.78922C237.523 6.07972 238.755 7.11907 239.979 8.15118L239.98 8.15153C240.506 8.59537 241.03 9.03776 241.581 9.41862L241.846 9.59488L241.849 9.59709C243.508 10.7024 245.852 12.2648 247.698 12.196C248.741 12.0368 249.932 11.3576 250.934 10.7858L250.939 10.783C251.333 10.5585 251.697 10.3506 252.012 10.1974L255.365 8.56852L255.671 8.40885C257.627 7.3859 259.461 6.4274 261.632 6.66373C263.923 7.07926 265.92 8.34049 267.917 9.60172C268.417 9.91715 268.875 10.234 269.334 10.5509L269.336 10.5523C269.794 10.8687 270.252 11.1852 270.751 11.5002C270.921 11.6154 271.063 11.7174 271.184 11.8053C271.899 12.32 271.922 12.3366 272.867 11.588C273.427 11.1725 273.978 10.7384 274.527 10.3053C277.232 8.17155 279.903 6.06461 283.561 6.34391C286.248 6.56114 288.452 7.86966 290.673 9.18771L290.674 9.18863L290.677 9.19061C291.959 9.95119 293.245 10.715 294.633 11.2741C295.788 11.7321 296.437 11.7077 297.386 11.0041C298.173 10.3063 299.122 9.6027 300.071 8.89957C300.497 8.55615 300.931 8.17203 301.374 7.77954L301.379 7.77506C302.742 6.56754 304.195 5.28141 305.772 4.8444C306.549 4.7296 308.284 4.56888 309.005 4.8444C309.905 5.18879 311.005 7.5 310.505 9.18863C310.105 10.5395 308.738 10.8055 308.104 10.7697C307.985 10.7138 307.755 10.5533 307.496 10.3716L307.493 10.3693C307.034 10.048 306.712 9.99219 306.505 10C306.505 10 306.005 10 306.029 10.0177C305.951 10.11 305.869 10.1852 305.807 10.1877C305.048 10.4421 304.159 11.235 303.37 11.9401C302.992 12.278 302.637 12.5954 302.329 12.8234C302.025 13.069 301.716 13.3302 301.402 13.5963L301.4 13.5975C299.922 14.8482 298.317 16.2053 296.454 16.5505C294.357 16.963 292.21 16.0412 290.381 14.9406C289.744 14.6081 289.083 14.2004 288.401 13.7804L288.4 13.7798C285.89 12.2331 283.115 10.5233 280.351 11.8088C279.271 12.3247 278.207 13.2633 277.115 14.2268L277.114 14.2277L277.112 14.2287C275.136 15.9716 273.066 17.7965 270.642 17.3498C269.084 17.1624 267.667 16.0689 266.364 15.0636L266.361 15.0617L266.354 15.0557C265.886 14.695 265.434 14.3457 264.994 14.0539C264.68 13.8758 264.353 13.6684 264.016 13.4542L264.015 13.4538L264.012 13.4522C262.566 12.5356 260.923 11.4937 259.233 12.0983C257.86 12.6266 256.494 13.3732 255.129 14.1198C254.105 14.6798 253.081 15.2394 252.054 15.7072L251.763 15.8449C249.958 16.7028 248.275 17.5021 246.26 17.2604C244.3 16.9997 242.147 15.9113 240.319 14.8102C239.627 14.3512 238.959 13.7757 238.297 13.2045L238.295 13.2028C237.361 12.3981 236.437 11.6022 235.47 11.1505C234.15 10.403 232.505 11.9909 231.252 13.2008C230.93 13.5124 230.633 13.7985 230.375 14.0133C228.789 15.0749 227.035 15.9757 225.081 15.882C222.225 15.8761 219.908 14.4001 217.583 12.9187L217.582 12.9186C216.467 12.2082 215.351 11.4967 214.171 10.9455C210.667 9.30729 206.171 9.4108 203.941 12.9245C203.547 14.5402 201.37 15.8112 199.421 14.3732C198.253 13.3249 197.045 12.3185 195.838 11.3127L195.835 11.3106C194.627 10.304 193.418 9.29731 192.249 8.24772L191.747 7.76237L190.316 8.80826C189.047 9.84879 187.941 10.8844 186.835 11.9201C186.544 12.1803 186.258 12.4591 185.972 12.7389C184.544 14.1305 183.098 15.5402 180.91 14.7731C179.944 14.383 179.079 13.5202 178.331 12.7746L178.289 12.7322C178.16 12.6036 178.034 12.4785 177.912 12.3605C177.14 11.7209 176.437 11.0065 175.71 10.2677L175.709 10.2663C175.337 9.88935 174.96 9.50603 174.564 9.12321C174.402 8.96696 174.223 8.77653 174.037 8.57926L174.035 8.57707C173.644 8.16315 173.227 7.72048 172.89 7.50504C172.43 7.24039 172.424 7.01383 172.345 6.98453C172.282 6.9611 172.172 7.06363 171.749 7.37272C170.947 7.87705 170.24 8.7226 169.555 9.54086L169.555 9.54117C169.286 9.86246 169.021 10.1794 168.755 10.4699L168.561 10.6652L168.56 10.6664C166.752 12.4804 165.193 14.0453 162.495 12.9997C157.889 11.1369 153.587 8.59684 149.438 5.71842C148.814 6.57242 148.033 7.5983 147.408 8.45231C147.17 8.80045 146.932 9.17057 146.689 9.54899C145.981 10.652 145.229 11.8234 144.288 12.7223C141.989 14.9196 139.435 13.1164 137.243 11.569L137.231 11.5601C137.018 11.4099 136.808 11.262 136.603 11.1208C135.857 10.6427 135.152 10.1637 134.447 9.68424C133.742 9.20475 133.037 8.72526 132.291 8.24723C132.036 8.08414 131.694 7.81461 131.303 7.50699C130.166 6.61197 128.622 5.39664 127.66 5.55045C127.24 5.67203 126.696 6.22184 126.235 6.68717C125.989 6.93668 125.766 7.16178 125.6 7.28336C125.285 7.62662 124.929 7.92985 124.572 8.23258C124.216 8.5358 123.859 8.83903 123.545 9.18278C122.832 9.78878 122.161 10.3933 121.489 10.9979L121.484 11.0021C120.813 11.6061 120.142 12.2101 119.43 12.8156C118.486 13.8463 117.183 13.7189 116.351 13.0768C116.346 12.9098 116.183 12.9147 116.183 12.9147C115.022 12.1154 113.819 11.3171 112.617 10.5187C111.415 9.72086 110.213 8.92301 109.051 8.12369C108.722 7.96696 107.555 7.00065 107.23 7.0109C107.23 7.0109 106.921 7.52115 106.758 7.52604C105.997 7.77506 105.103 8.56266 104.309 9.26237L104.305 9.26597C103.927 9.59958 103.571 9.91308 103.263 10.1379C102.957 10.3815 102.646 10.6408 102.33 10.9049C100.842 12.1462 99.2282 13.4928 97.3624 13.8249C95.2621 14.2233 93.1215 13.2868 91.3004 12.174C90.6703 11.8395 90.016 11.4304 89.3425 11.0093L89.3279 11.0002L89.3264 10.9992C86.8271 9.43548 84.0643 7.70696 81.2918 8.97379C80.2093 9.48208 79.1396 10.4124 78.0414 11.3674L78.0382 11.3703L78.0377 11.3707C76.0489 13.1005 73.9666 14.9117 71.5458 14.4484C69.9869 14.2506 68.5762 13.1462 67.2793 12.1305L67.2697 12.1231C66.8059 11.76 66.3566 11.4083 65.9203 11.1144C65.6083 10.9349 65.2838 10.7259 64.9486 10.51L64.9447 10.5075L64.9432 10.5065C63.5033 9.58 61.8665 8.52673 60.1728 9.11979C58.7955 9.63932 57.4248 10.3761 56.0541 11.1134C55.0265 11.6662 53.999 12.2189 52.9687 12.6798L52.677 12.8156L52.6749 12.8166C50.8649 13.6609 49.177 14.4483 47.1649 14.1935C45.2068 13.9191 43.0611 12.8161 41.24 11.7033C40.5512 11.2389 39.8869 10.6588 39.2275 10.0827L39.2265 10.0817C38.2983 9.27102 37.3797 8.46873 36.416 8.01041C35.1012 7.25411 33.4461 8.83054 32.1855 10.0312L32.1853 10.0314C31.8605 10.341 31.5619 10.6252 31.3021 10.8385C29.709 11.8893 27.9485 12.778 25.9954 12.6706C23.1389 12.6457 20.832 11.154 18.5166 9.65641L18.5132 9.65425C17.4044 8.93719 16.2936 8.21884 15.1196 7.66031C11.4926 5.93473 6.78485 6.07877 4.62829 9.98551C3.09079 12.8713 -1.20572 10.4982 0.331784 7.61246C2.79785 3.19547 7.61239 1.2111 12.3404 1.73453C14.9479 1.98844 17.2509 2.92008 19.4017 4.1901C20.0314 4.54166 20.6468 4.9611 21.2668 5.38395C22.5993 6.29264 23.9528 7.215 25.5142 7.50944C27.2958 7.97376 28.6335 6.73765 29.9603 5.51166L29.9606 5.51139L29.968 5.50451C30.3462 5.15525 30.7236 4.80673 31.1102 4.49918C32.6931 3.1149 34.7783 2.21647 36.9038 2.65201C38.5037 2.95376 39.729 4.00154 40.9457 5.04202L40.9459 5.04215C41.4689 5.48942 41.9904 5.93522 42.5394 6.31998L42.8032 6.49821C44.4543 7.61539 46.7895 9.19547 48.6368 9.13883C49.6805 8.98746 50.8755 8.31608 51.8815 7.75065C52.2789 7.5275 52.6468 7.32096 52.9643 7.16959L56.3279 5.56363L56.635 5.40592C58.5983 4.39664 60.4385 3.45084 62.6086 3.70182C64.8965 4.13248 66.8849 5.40738 68.8734 6.68229C69.3694 7.00065 69.8251 7.31998 70.2807 7.63932C70.7382 7.96012 71.1956 8.28043 71.6937 8.59977C71.8615 8.71545 72.0018 8.81769 72.1224 8.90556L72.1256 8.90787L72.1261 8.90828C72.8364 9.42693 72.8602 9.4443 73.8091 8.70182C74.3654 8.2954 74.9121 7.87045 75.4574 7.44666L75.4803 7.42887L75.4804 7.42878C78.1993 5.31455 80.8842 3.22672 84.5392 3.53092C87.2236 3.7662 89.4189 5.08972 91.63 6.42283L91.6319 6.42399L91.6348 6.42571C92.9112 7.19516 94.193 7.96787 95.5774 8.53629C96.7289 9.00211 97.3783 8.98209 98.3321 8.28531C99.1236 7.59293 100.077 6.89567 101.031 6.19889C101.46 5.85781 101.897 5.47589 102.344 5.08564L102.347 5.08317L102.349 5.08115C103.72 3.88398 105.18 2.60832 106.759 2.18278C108.642 1.70768 110.231 2.75016 111.763 3.75553L111.766 3.75715C112.07 3.9568 112.372 4.15496 112.674 4.33951C114.662 5.61442 116.484 6.72721 118.31 8.00748C119.416 7.0568 120.483 6.10709 121.549 5.15738L121.554 5.15297C122.622 4.2018 123.69 3.25064 124.799 2.2985C127.812 -0.131678 130.603 0.784826 133.423 2.70231C134.466 3.30192 135.446 3.96988 136.401 4.62174C136.961 5.00358 137.513 5.37955 138.064 5.73258C138.453 6.01432 138.843 6.32438 139.238 6.63785L139.242 6.64146C140.193 7.39667 141.168 8.17127 142.214 8.611L142.371 8.43961C142.523 8.10074 142.68 7.92887 142.838 7.75699L144.71 5.19498C145.255 4.42762 145.801 3.70218 146.347 2.97677L146.349 2.97477C146.895 2.2482 147.442 1.52164 147.988 0.753576C148.617 0.0660761 150.068 -0.312342 150.9 0.330236C153.39 2.09098 155.881 3.85123 158.524 5.27311L161.993 7.17057C162.213 7.27506 162.451 7.36051 162.688 7.44596L162.692 7.44713C163.165 7.61813 163.638 7.78898 163.972 8.11197C164.447 8.09733 164.667 8.2692 164.563 8.49967L164.789 8.25406C165.473 7.62076 166.101 6.89664 166.729 6.17252L166.729 6.1724C167.985 4.72371 169.242 3.27504 170.953 2.55485C173.515 1.30778 175.509 2.74918 177.35 4.52994C178.121 5.16856 178.824 5.88236 179.55 6.62009L179.55 6.62028L179.581 6.65219C179.943 7.01985 180.312 7.39377 180.698 7.76676C180.856 7.92047 181.048 8.07276 181.246 8.23061L181.256 8.23844C181.682 8.57682 182.137 8.93912 182.371 9.38541C182.534 9.38053 182.539 9.54703 182.701 9.54215C184.421 7.31901 187.12 5.23258 189.348 3.66129C192.052 1.74186 193.705 2.69303 196.039 4.62516C197.207 5.67426 198.415 6.67997 199.623 7.68565L199.625 7.68766L199.641 7.70133C200.079 8.06591 200.517 8.43053 200.953 8.79752Z" fill="#F7C300"/>
</svg>
