<svg width="16" height="1177" viewBox="0 0 16 1177" fill="none" xmlns="http://www.w3.org/2000/svg">
<path d="M6.99343 8.80166C6.99343 8.80166 7.00356 8.80144 7.01368 8.80122C7.01368 8.80122 7.00356 8.80144 6.99343 8.80166Z" fill="#59C69F"/>
<path d="M2.67192 1166.38C2.9674 1165.99 3.28441 1165.66 3.72483 1165.41C4.21525 1165.14 4.67869 1165.02 5.21386 1164.94C4.26263 1156.11 4.55684 1147.26 5.01285 1138.39C5.49514 1128.86 5.90654 1119.33 6.1861 1109.8C6.737 1090.83 6.84174 1022.83 6.49104 1003.86C6.28819 993.099 5.93366 982.355 5.4475 971.615L5.44368 971.439C4.4494 962.493 -3 530 5.2152 129.551C5.69748 120.025 6.10888 110.5 6.38844 100.968C6.93935 81.992 7.03417 63.0066 6.68326 44.0211C6.49337 33.8622 6.1615 23.6966 5.71825 13.5335C5.19844 13.3879 4.68728 13.1736 4.19573 12.9295C3.0793 12.3656 2.12127 11.6318 1.35074 10.6685C0.580205 9.70512 0.200322 8.53732 0.0427752 7.34509C-0.251219 4.99937 0.997271 2.77702 2.88169 1.3837C3.72919 0.757701 4.7746 0.382219 5.81434 0.212667C7.1665 -0.0322621 8.53238 -0.110883 9.86669 0.222798C11.313 0.58345 12.5358 1.38017 13.4217 2.5272C13.7973 3.02867 14.0735 3.62051 14.2183 4.22499C14.4647 5.30749 14.3129 6.25162 13.8589 7.2709C13.6274 7.80514 12.9182 8.27134 12.3746 8.43013C12.2639 8.46193 12.1327 8.48438 12.0114 8.49681C12.1559 8.62108 12.2808 8.77518 12.3753 8.92993C12.7016 9.49128 12.8685 10.1835 12.6695 10.815C12.4709 11.4662 12.0849 11.8861 11.5367 12.2998C11.2576 12.5117 10.9579 12.7044 10.6476 12.8777C12.3292 50.2493 11.3924 87.6653 10.4161 125.068C1.50403 466.5 9.13689 960.96 10.4054 971.341C10.4291 971.497 10.4325 971.654 10.4154 971.801L10.4162 971.84C12.1245 1009.51 12.0715 1096.24 10.214 1133.91C9.72859 1143.76 9.03205 1153.69 10.0355 1163.52C10.1469 1163.52 10.268 1163.5 10.3796 1163.51C11.7577 1163.52 13.1239 1163.93 14.1469 1164.85C15.2628 1165.86 15.6284 1167.3 15.8005 1168.7C15.9595 1169.96 15.7036 1171.24 15.1612 1172.39C14.164 1174.52 11.7935 1175.92 9.41552 1176.04C8.15068 1176.11 6.94716 1175.73 5.78265 1175.29C4.54662 1174.81 3.4365 1174.07 2.79335 1172.91C2.47705 1172.34 2.25124 1171.74 2.11593 1171.1C1.96943 1170.42 1.80225 1169.72 1.79729 1169.02C1.81677 1168.05 2.08095 1167.15 2.67192 1166.38ZM6.80919 8.71742C6.87058 8.74549 6.93204 8.77359 6.99343 8.80166C6.98331 8.80188 6.96277 8.79249 6.95265 8.79271C6.96277 8.79249 6.98324 8.80185 7.00349 8.80141C7.03429 8.82034 7.07522 8.83906 7.10581 8.84819C7.38217 8.97941 7.1565 8.84713 7.01368 8.80122C7.11536 8.81862 7.32921 8.87275 7.47202 8.91866C7.56252 8.88729 7.66356 8.8753 7.75405 8.84394C7.78422 8.83348 7.80426 8.82325 7.8243 8.81301C8.19427 8.58938 8.55454 8.38556 8.8935 8.1332C9.1426 7.94159 9.505 7.83573 9.879 7.79822C9.19606 7.1368 9.01451 6.23911 9.26836 5.33197C9.20633 5.27451 9.13418 5.21727 9.07215 5.15982C9.06181 5.15024 9.03101 5.13131 9.02088 5.13153C9.00042 5.12217 8.92848 5.07473 8.85675 5.03708C8.75486 5.00989 8.65296 4.9827 8.54095 4.95573C8.50023 4.94681 8.39855 4.92941 8.29687 4.91202C8.18528 4.90464 7.94184 4.89031 7.89121 4.89141C7.55686 4.88886 7.23369 4.93507 6.89997 4.96191C6.84956 4.9728 6.78901 4.98392 6.72869 5.00482C6.54728 5.04796 6.37599 5.09088 6.20513 5.15338C6.18509 5.16362 6.17497 5.16384 6.15493 5.17407C6.02499 5.25529 5.86447 5.32738 5.74467 5.40838C5.64553 5.50853 5.53607 5.59911 5.44727 5.70884C5.41774 5.74868 5.37809 5.78874 5.34856 5.82858C5.28994 5.92786 5.24164 6.03671 5.22203 6.06653C5.22224 6.07633 5.20242 6.09636 5.19272 6.11617C5.15455 6.2248 5.11638 6.33344 5.08856 6.45164C5.06958 6.51086 5.07107 6.57943 5.0523 6.64844C5.05443 6.74639 5.06668 6.84413 5.06774 6.89311C5.06795 6.90291 5.06859 6.93229 5.06923 6.96168C5.10236 7.08837 5.13571 7.22485 5.17898 7.35132C5.1891 7.3511 5.19987 7.38027 5.21063 7.40943C5.27393 7.52567 5.33745 7.65169 5.41066 7.75791C5.43134 7.77706 5.4421 7.80623 5.46278 7.82538C5.56616 7.92114 5.66996 8.0365 5.78347 8.13204C5.80393 8.1414 5.81427 8.15097 5.83473 8.16033C5.97819 8.23562 6.12249 8.3501 6.26595 8.42539C6.44042 8.52941 6.62481 8.62341 6.80919 8.71742ZM7.70098 1170.79C8.13978 1170.93 8.57815 1171.06 9.03572 1171.14C9.1471 1171.14 9.25848 1171.13 9.37998 1171.13C9.47069 1171.11 9.56161 1171.1 9.6521 1171.07C9.69239 1171.06 9.73247 1171.04 9.77276 1171.03C9.91303 1170.95 10.0432 1170.88 10.1729 1170.79C10.2128 1170.76 10.2526 1170.73 10.2623 1170.71C10.3218 1170.65 10.3813 1170.59 10.4408 1170.53C10.4507 1170.52 10.4705 1170.5 10.4901 1170.47C10.5 1170.46 10.5099 1170.45 10.5097 1170.44C10.5487 1170.37 10.5979 1170.3 10.6367 1170.22C10.6365 1170.21 10.6464 1170.2 10.6462 1170.19C10.6654 1170.14 10.6843 1170.08 10.6839 1170.06C10.7219 1169.95 10.7292 1169.82 10.7571 1169.7C10.7716 1169.44 10.7557 1169.17 10.7399 1168.91C10.7059 1168.74 10.6719 1168.58 10.6278 1168.41C10.6075 1168.41 10.5972 1168.4 10.5769 1168.4C10.3438 1168.4 10.1109 1168.4 9.87847 1168.43C9.32369 1168.54 8.76934 1168.67 8.20422 1168.77C7.96205 1168.81 7.72938 1168.83 7.50683 1168.84C7.44756 1168.91 7.39863 1168.99 7.32903 1169.05C7.19995 1169.17 7.07044 1169.27 6.93059 1169.36C6.98781 1169.66 7.04502 1169.97 7.14273 1170.27C7.16447 1170.34 7.186 1170.4 7.20752 1170.45C7.23875 1170.49 7.25964 1170.52 7.28095 1170.57C7.33222 1170.6 7.39382 1170.64 7.44508 1170.66C7.52694 1170.7 7.61892 1170.74 7.70098 1170.79Z" fill="#59C69F"/>
</svg>
