<svg width="240" height="13" viewBox="0 0 240 13" fill="none" xmlns="http://www.w3.org/2000/svg">
<path d="M1.48344 3.68272C4.22591 5.50195 7.15282 7.17228 9.89528 8.99151C12.6318 10.6662 14.5713 11.4906 17.7427 9.82693C20.3549 8.4654 23.5204 6.65721 25.5377 4.73028C25.7281 4.72597 25.734 4.87055 25.9244 4.86624C26.3289 5.43595 27.2986 5.84815 27.8875 6.26896C29.2617 7.25086 30.4455 8.23707 31.8138 9.0744C33.9733 10.6174 36.3112 11.8669 39.316 10.7859C42.3267 9.84951 44.1358 7.49315 46.5457 5.84677C46.7302 5.69788 46.9147 5.54899 47.0991 5.4001C46.5398 5.70219 46.742 5.98704 47.5036 5.96981C48.0925 6.39062 49.0504 6.51366 49.8238 6.78559C51.1802 7.33375 52.5367 7.88191 53.8931 8.43008C56.9926 9.66237 59.9136 11.1881 62.8346 12.7139C63.8103 13.2707 65.5119 12.9427 66.2498 12.3472C67.5292 11.0158 68.8146 9.829 70.094 8.49763C70.8259 7.7575 71.5579 7.01736 72.2898 6.27723C72.4743 6.12834 72.6587 5.97946 72.8373 5.68599C73.0217 5.5371 73.0217 5.5371 73.0217 5.5371C74.759 6.07665 76.3295 7.19882 77.8881 8.03184C79.6372 8.86054 81.3921 9.83383 83.3316 10.6582C86.6393 12.3199 89.9114 13.1142 93.4459 11.0082C96.0462 9.35752 98.4561 7.71114 101.056 6.06045C103.198 7.1697 105.334 8.13437 107.666 9.23931C109.802 10.204 111.955 11.6024 114.603 11.1083C117.06 10.6186 119.274 8.83194 121.321 7.62791C122.439 7.02374 123.558 6.41957 124.486 5.81971C125.605 5.21555 126.366 5.19831 127.717 5.6019C132.155 6.94861 135.695 9.61808 140.663 9.93981C145.821 10.2572 149.332 7.57294 153.247 5.45835C154.55 4.70529 154.366 4.85418 155.728 5.54693C156.894 6.0994 157.87 6.65618 159.036 7.20865C161.368 8.31359 163.7 9.41853 166.383 9.79196C169.06 10.0208 171.309 9.10163 173.749 8.17814C175.064 7.71424 176.379 7.25035 177.694 6.78645C179.009 6.32256 181.062 5.26311 182.769 5.07976C185.054 5.02806 187.975 6.55382 189.92 7.52279C192.062 8.63204 193.846 10.3282 196.53 10.7017C199.023 11.0794 201.468 10.3005 203.324 9.10076C205.371 7.89674 207.198 5.97412 209.887 6.49212C212.571 6.86555 214.73 8.40854 217.056 9.3689C219.579 10.4695 222.28 11.2767 225.338 11.4969C230.883 11.9503 236.529 10.2307 239.421 6.40269C241.225 3.90175 236.186 1.84506 234.383 4.346C231.853 7.73165 226.332 7.85659 222.078 6.36099C217.825 4.86539 214.279 2.05133 209.323 2.01877C207.032 1.92588 204.968 2.69617 203.099 3.60673C201.612 4.50867 199.041 6.88226 197.102 6.05787C195.168 5.37805 193.389 3.82644 191.444 2.85747C189.308 1.8928 186.792 0.936742 184.495 0.699279C182.008 0.466125 179.944 1.23641 177.689 2.01101C174.868 2.94311 172.066 4.30895 169.24 5.09647C166.788 5.7308 164.438 4.19212 162.499 3.36772C160.554 2.39874 158.388 0.71117 155.901 0.478016C151.493 -0.145798 148.041 3.98429 144.471 5.22278C140.336 6.61878 136.219 3.81765 132.733 2.4494C130.597 1.48473 128.087 0.673258 125.623 1.01842C122.97 1.3679 120.75 3.00997 118.703 4.214C117.585 4.81817 115.925 6.15816 114.604 6.47747C114.413 6.48178 114.05 6.92414 114.05 6.92414C113.67 6.93275 112.301 6.09543 111.915 5.95947C109.19 4.57398 106.275 3.19281 103.55 1.80732C103.55 1.80732 103.36 1.81163 103.354 1.66705C102.378 1.11027 100.849 1.00015 99.7423 1.89348C98.0703 2.94431 96.5886 3.99084 94.9166 5.04167C94.1787 5.63722 93.2445 6.0925 92.5066 6.68805C91.9473 6.99014 90.8464 8.02805 90.0908 8.18986C88.5736 8.3689 85.8252 6.4051 84.6592 5.85263C82.9102 5.02392 81.3515 4.19091 79.6025 3.3622C76.8778 1.97672 73.5523 -0.118744 70.589 1.9743C69.1073 3.02083 68.0242 4.49247 66.9293 5.67496C66.1973 6.41509 65.2809 7.30411 64.549 8.04424C59.6826 5.54951 54.6377 3.34824 49.2357 1.73391C45.9576 0.795089 44.113 2.28397 41.8934 3.92604C40.7867 4.81937 39.6917 6.00186 38.3827 6.61033C37.264 7.2145 38.0137 6.90811 37.044 6.49591C36.461 6.21968 35.6698 5.51401 35.0809 5.09319C33.7067 4.11129 32.5229 3.12508 31.1546 2.28776C30.1731 1.5864 28.9892 0.600191 27.6387 0.196608C24.557 -0.601941 22.7301 1.32068 20.6891 2.66928C19.3919 3.56692 18.0947 4.46456 16.6071 5.3665C16.6071 5.3665 15.4885 5.97067 14.9292 6.27275C14.7329 6.13248 14.5366 5.99221 14.3402 5.85194C11.5978 4.03271 8.67087 2.36238 5.9284 0.54315C2.61478 -1.26315 -1.25902 1.8635 1.48344 3.68272Z" fill="#59C69F"/>
</svg>
