<svg width="270" height="17" viewBox="0 0 270 17" fill="none" xmlns="http://www.w3.org/2000/svg">
<path d="M1.0509 4.81587C4.13434 7.19485 7.42517 9.37914 10.5086 11.7581C13.5854 13.948 15.766 15.0261 19.3318 12.8506C22.2687 11.0701 25.8279 8.70558 28.096 6.18575C28.31 6.18012 28.3167 6.36918 28.5307 6.36355C28.9855 7.10854 30.0758 7.64757 30.738 8.19787C32.283 9.4819 33.614 10.7716 35.1524 11.8665C37.5804 13.8843 40.209 15.5183 43.5874 14.1047C46.9724 12.8801 49.0065 9.79873 51.7161 7.64577C51.9235 7.45107 52.1308 7.25637 52.3383 7.06167C51.7094 7.45671 51.9368 7.8292 52.793 7.80667C53.4552 8.35697 54.5321 8.51786 55.4017 8.87346C56.9268 9.59029 58.4519 10.3071 59.9769 11.0239C63.4619 12.6354 66.7461 14.6306 70.0303 16.6258C71.1272 17.3539 73.0405 16.9251 73.8701 16.1463C75.3085 14.4053 76.7537 12.8533 78.1922 11.1123C79.0152 10.1444 79.8381 9.17655 80.6611 8.20869C80.8685 8.01399 81.0758 7.81929 81.2766 7.43553C81.484 7.24082 81.484 7.24082 81.484 7.24082C83.4372 7.94639 85.203 9.41384 86.9554 10.5032C88.922 11.5869 90.8951 12.8596 93.0757 13.9377C96.7947 16.1107 100.474 17.1493 104.448 14.3954C107.371 12.2368 110.081 10.0838 113.004 7.9252C115.412 9.37576 117.814 10.6373 120.436 12.0822C122.837 13.3437 125.258 15.1724 128.235 14.5263C130.998 13.8859 133.487 11.5495 135.788 9.97496C137.046 9.18489 138.304 8.39483 139.347 7.6104C140.605 6.82033 141.461 6.7978 142.98 7.32556C147.97 9.08664 151.949 12.5775 157.535 12.9982C163.335 13.4133 167.282 9.90307 171.684 7.13784C173.149 6.15308 172.942 6.34778 174.473 7.25367C175.784 7.97613 176.881 8.70423 178.192 9.42669C180.814 10.8716 183.437 12.3165 186.453 12.8049C189.464 13.1041 191.992 11.9021 194.735 10.6945C196.214 10.0879 197.692 9.48123 199.171 8.87459C200.649 8.26796 202.957 6.88253 204.877 6.64276C207.446 6.57516 210.73 8.57038 212.917 9.8375C215.325 11.2881 217.332 13.5061 220.348 13.9945C223.151 14.4884 225.901 13.4699 227.988 11.901C230.289 10.3265 232.343 7.81231 235.367 8.4897C238.384 8.97803 240.812 10.9958 243.427 12.2516C246.263 13.6909 249.3 14.7465 252.738 15.0344C258.973 15.6273 265.321 13.3786 268.573 8.37275C270.601 5.10229 264.935 2.41278 262.908 5.68324C260.064 10.1106 253.856 10.274 249.074 8.31821C244.291 6.36243 240.305 2.68252 234.732 2.63993C232.157 2.51847 229.836 3.52577 227.735 4.7165C226.062 5.89596 223.172 8.99989 220.992 7.92183C218.818 7.03284 216.818 5.00381 214.631 3.73669C212.229 2.4752 209.4 1.22497 206.818 0.914446C204.022 0.609552 201.7 1.61685 199.165 2.62979C195.994 3.84869 192.843 5.63478 189.665 6.66462C186.909 7.49412 184.267 5.482 182.086 4.40394C179.899 3.13682 177.465 0.929995 174.669 0.625102C169.712 -0.190654 165.831 5.21023 161.817 6.8298C157.168 8.65533 152.539 4.99232 148.62 3.20306C146.218 1.94157 143.395 0.880416 140.626 1.33179C137.642 1.78879 135.147 3.93612 132.846 5.51061C131.588 6.30068 129.721 8.05298 128.236 8.47054C128.022 8.47618 127.614 9.05464 127.614 9.05464C127.186 9.06591 125.647 7.97095 125.213 7.79315C122.149 5.98136 118.872 4.17521 115.808 2.36342C115.808 2.36342 115.594 2.36906 115.587 2.17999C114.49 1.4519 112.771 1.3079 111.527 2.47609C109.647 3.85026 107.981 5.21879 106.101 6.59295C105.272 7.37175 104.221 7.96712 103.392 8.74592C102.763 9.14095 101.525 10.4982 100.675 10.7098C98.9695 10.9439 95.8794 8.3759 94.5684 7.65344C92.6019 6.56974 90.8495 5.48042 88.8829 4.39672C85.8195 2.58494 82.0805 -0.155278 78.7487 2.58178C77.0829 3.95031 75.8651 5.87477 74.634 7.4211C73.811 8.38897 72.7807 9.55153 71.9578 10.5194C66.4863 7.25705 60.8142 4.37847 54.7405 2.26742C51.0548 1.03973 48.9808 2.98673 46.4853 5.13406C45.2409 6.30225 44.0098 7.84858 42.538 8.64428C41.2803 9.43435 42.1232 9.03368 41.0329 8.49465C40.3774 8.13342 39.4879 7.21063 38.8257 6.66033C37.2807 5.3763 35.9497 4.08665 34.4113 2.99169C33.3077 2.07453 31.9767 0.784866 30.4583 0.257105C26.9933 -0.787151 24.9393 1.72704 22.6445 3.4906C21.186 4.66443 19.7276 5.83827 18.055 7.01773C18.055 7.01773 16.7973 7.80779 16.1684 8.20283C15.9477 8.0194 15.727 7.83596 15.5063 7.65253C12.4228 5.27355 9.13196 3.08926 6.04852 0.710276C2.32287 -1.65181 -2.03256 2.43688 1.0509 4.81587Z" fill="#1E1E1E"/>
</svg>
