<svg width="190" height="132" viewBox="0 0 190 132" fill="none" xmlns="http://www.w3.org/2000/svg">
<path d="M14.3643 7.72161C14.487 6.0618 14.6575 4.48988 14.7802 2.83008C15.0135 1.79299 14.1294 0.793776 13.0522 0.696056C11.975 0.598337 11.0159 1.3468 10.8303 2.47177C10.6197 4.1793 10.497 5.8391 10.422 7.58678C10.3894 7.94586 10.4925 8.34509 10.6834 8.6966C11.0175 9.31173 11.5674 9.69581 12.2856 9.76095C13.3553 9.63519 14.3143 8.88672 14.3643 7.72161Z" fill="white"/>
<path d="M15.7014 27.365C15.1006 24.1636 14.6756 20.8667 14.4741 17.5622C14.4362 16.4448 13.4241 15.629 12.3067 15.6668C11.1893 15.7047 10.3735 16.7168 10.4114 17.8342C10.6606 21.2265 11.0932 24.7469 11.7894 28.1241C11.797 28.3475 11.8924 28.5233 11.9879 28.699C12.3697 29.4021 13.1909 29.8664 14.1249 29.7005C15.1946 29.5748 15.8749 28.5225 15.7014 27.365Z" fill="white"/>
<path d="M53.4817 54.1852C53.3604 50.6096 52.8074 47.496 51.8627 44.709C51.6718 44.3575 51.5688 43.9583 51.3302 43.5189C50.893 42.5045 49.6249 42.0553 48.6583 42.5803C47.6439 43.0174 47.2825 44.2378 47.7197 45.2522C47.8628 45.5158 47.9659 45.915 48.109 46.1787C48.9909 48.4309 49.4408 51.1452 49.459 54.3216C49.5143 54.633 49.5697 54.9443 49.7128 55.208C50.0469 55.8231 50.7325 56.2473 51.5385 56.2647C52.6559 56.2269 53.5195 55.3026 53.4817 54.1852Z" fill="white"/>
<path d="M4.50491 79.875C4.0799 76.5781 3.96625 73.2259 4.08366 70.0897C4.18138 69.0124 3.29731 68.0132 2.17992 68.0511C1.10267 67.9534 0.10346 68.8374 0.141343 69.9548C-0.0563628 73.3623 0.152737 76.8902 0.585317 80.4106C0.592894 80.6341 0.736073 80.8977 0.831526 81.0734C1.21334 81.7765 2.03453 82.2408 2.88072 82.1227C3.81478 81.9567 4.63066 80.9446 4.50491 79.875Z" fill="white"/>
<path d="M15.8527 45.035C16.0686 44.804 16.4201 44.6131 16.636 44.382C17.1208 45.4842 17.6534 46.6744 18.1382 47.7766L18.186 47.8645C18.6632 48.7432 19.7958 49.1523 20.8101 48.7152C21.8245 48.2781 22.2737 47.0099 21.7487 46.0433C21.1684 44.7653 20.5404 43.3994 20.048 42.0737C20.3995 41.8828 20.751 41.6919 21.0146 41.5487C21.9813 41.0237 22.9956 40.5866 24.01 40.1495C25.0244 39.7124 25.5213 38.5321 25.0842 37.5178C24.6471 36.5034 23.4668 36.0065 22.4525 36.4436C21.3502 36.9284 20.1601 37.461 19.1056 38.0337C18.9298 38.1291 18.7541 38.2246 18.5783 38.32C18.4276 37.8329 18.2768 37.3458 18.1261 36.8587C17.7768 35.7966 16.6844 35.252 15.6223 35.6012C14.5603 35.9504 14.0156 37.0428 14.3648 38.1049C14.5709 38.9034 14.8648 39.6541 15.2065 40.4927C14.5512 40.9624 13.9838 41.3844 13.4164 41.8063C12.6331 42.4594 12.4876 43.4487 12.9649 44.3275C13.0126 44.4154 13.0603 44.5032 13.1558 44.679C13.7687 45.5979 14.9815 45.7358 15.8527 45.035Z" fill="white"/>
<path d="M6.47607 57.524C7.26165 55.618 8.18282 53.7521 9.3752 51.9666C10.0154 51.0499 9.79412 49.8045 8.87748 49.1644C7.96084 48.5243 6.71542 48.7455 6.07529 49.6621C4.667 51.6787 3.57765 53.8635 2.71178 56.0407C2.25498 57.0854 1.89363 58.3058 1.62016 59.4785C1.45956 60.0209 1.52244 60.5558 1.76107 60.9951C1.9997 61.4345 2.41409 61.7784 2.9565 61.939C4.04132 62.2602 5.13598 61.5519 5.3693 60.5148C5.73822 59.5179 6.10715 58.5209 6.47607 57.524Z" fill="white"/>
<path d="M30.9298 35.7087C30.9374 35.9322 31.0805 36.1958 31.176 36.3716C31.5578 37.0746 32.379 37.5389 33.2252 37.4208C36.2986 37.0033 39.3144 37.5276 41.8659 38.873C42.8226 39.3775 44.1082 39.0207 44.565 37.976C45.0695 37.0192 44.7127 35.7336 43.6681 35.2768C40.3431 33.5549 36.6092 32.9656 32.6418 33.4133C31.6199 33.6269 30.804 34.639 30.9298 35.7087Z" fill="white"/>
<path d="M23.4134 56.8603C25.6664 59.961 28.1679 62.4715 30.9655 64.4797C31.8822 65.1199 33.1276 64.8987 33.7677 63.982C34.4078 63.0654 34.1866 61.82 33.27 61.1798C30.839 59.4276 28.6163 57.2209 26.6421 54.424C26.0293 53.5051 24.6808 53.3272 23.8096 54.0279C22.9786 54.5931 22.793 55.7179 23.2703 56.5967C23.2778 56.8202 23.2778 56.8202 23.4134 56.8603Z" fill="white"/>
<path d="M46.4719 69.1447C47.2704 68.9386 48.0211 68.6447 48.6363 68.3106C49.9544 67.5947 51.0816 66.5273 51.7945 65.116C52.299 64.1592 51.9899 62.9615 50.9854 62.3691C50.0286 61.8646 48.8309 62.1737 48.2385 63.1782C47.8143 63.8638 47.3423 64.4615 46.6393 64.8433C46.2878 65.0342 45.8886 65.1372 45.4015 65.288C44.2917 65.5494 43.0387 65.5471 41.4592 65.1532C40.4221 64.9198 39.3274 65.6282 39.0941 66.6653C39.0214 67.1599 39.0365 67.6069 39.2752 68.0463C39.5615 68.5735 39.9759 68.9175 40.6062 69.0303C42.9039 69.4894 44.7871 69.6045 46.4719 69.1447Z" fill="white"/>
<path d="M9.48986 98.9023C8.21867 95.7237 7.17096 92.5374 6.3543 89.567C6.09294 88.4572 4.95281 87.8246 3.89073 88.1738C2.78091 88.4352 2.14836 89.5753 2.49759 90.6374C3.32183 93.8312 4.41727 97.1054 5.78391 100.46C5.83164 100.548 5.87937 100.636 5.87937 100.636C6.35663 101.514 7.40129 101.971 8.41566 101.534C9.43002 101.097 9.92697 99.9167 9.48986 98.9023Z" fill="white"/>
<path d="M13.9854 115.351C14.9634 108.561 16.9785 102.005 19.9026 95.8645C20.4071 94.9077 19.9625 93.6698 19.0057 93.1652C18.0489 92.6607 16.811 93.1055 16.3065 94.0623C14.0876 98.5675 12.371 103.369 11.1491 108.243C10.9257 108.251 10.7901 108.21 10.6143 108.306C10.303 108.361 9.95147 108.552 9.73557 108.783C7.95985 106.561 5.9205 104.483 3.75313 102.587C2.92436 101.899 1.63122 102.033 0.943365 102.861C0.383535 103.507 0.325963 104.448 0.707774 105.151C0.803227 105.327 0.946403 105.591 1.12973 105.719C4.54025 108.646 7.47124 111.947 9.97043 115.711C10.0181 115.799 10.0181 115.799 10.0659 115.887C10.1136 115.975 10.1613 116.062 10.2568 116.238L10.3045 116.326C10.3522 116.414 10.4 116.502 10.5833 116.63C10.631 116.718 10.7666 116.758 10.8143 116.846C10.8621 116.934 10.9499 116.886 10.9977 116.974C11.1333 117.014 11.181 117.102 11.3166 117.142C11.3166 117.142 11.3166 117.142 11.4522 117.182C11.7234 117.262 12.0825 117.295 12.4416 117.328C13.1923 117.034 13.9279 116.293 13.9854 115.351Z" fill="white"/>
<g clip-path="url(#clip0)">
<path d="M126.571 38.1001C119.471 38.1001 119.471 49.1001 126.571 49.1001C133.671 49.1001 133.671 38.1001 126.571 38.1001Z" fill="white"/>
<path d="M79.3711 19.5C74.8711 19.5 74.8711 26.5 79.3711 26.5C83.8711 26.5 83.9711 19.5 79.3711 19.5Z" fill="white"/>
<path d="M91.2711 2.2002C88.0711 2.2002 88.0711 7.2002 91.2711 7.2002C94.4711 7.2002 94.4711 2.2002 91.2711 2.2002Z" fill="white"/>
<path d="M113.471 21.1C111.371 19.7 108.571 20.5 106.671 22.9C105.171 24.8 103.671 26.7 102.071 28.7C100.271 31 100.471 34.5 102.471 35.8C104.571 37.2 107.371 36.4 109.271 34C110.771 32.1 112.271 30.2 113.871 28.2C115.671 25.9 115.471 22.3 113.471 21.1Z" fill="#F7C300"/>
<path d="M143.571 25.0002C143.771 24.3002 143.871 23.6002 143.671 22.9002L143.271 21.5002C142.871 20.6002 142.271 19.8002 141.471 19.3002C141.071 19.1002 140.571 18.8002 140.171 18.6002C139.271 18.3002 138.371 18.2002 137.371 18.3002H137.271C136.571 18.4002 135.871 18.6002 135.271 19.1002C134.571 19.4002 134.071 19.9002 133.671 20.5002C133.171 21.1002 132.871 21.8002 132.771 22.5002C132.571 23.2002 132.471 23.9002 132.671 24.6002C132.771 25.1002 132.971 25.5002 133.071 26.0002C133.471 26.9002 134.071 27.7002 134.871 28.2002C135.271 28.4002 135.771 28.7002 136.171 28.9002C137.071 29.2002 137.971 29.3002 138.971 29.2002H139.071C139.771 29.1002 140.471 28.9002 141.071 28.4002C141.771 28.1002 142.271 27.6002 142.671 27.0002C143.171 26.4002 143.471 25.7002 143.571 25.0002Z" fill="#F7C300"/>
<path d="M115.971 88.6999C121.171 84.1999 124.171 78.2999 125.471 71.5999C126.071 68.7999 124.571 66.8999 122.471 66.1999C121.471 66.5999 120.171 66.4999 119.171 65.8999C118.171 65.2999 117.371 64.3999 117.371 63.1999C117.371 62.4999 117.371 61.8999 117.471 61.1999C117.371 61.0999 117.371 61.0999 117.271 60.9999C115.971 60.9999 114.671 60.7999 113.371 60.5999C113.071 60.8999 112.771 61.0999 112.371 61.2999C111.571 61.6999 110.271 61.7999 109.471 61.3999C108.371 60.8999 107.471 60.0999 106.971 58.9999C106.771 58.4999 106.571 57.8999 106.471 57.2999C106.171 56.4999 106.271 55.5999 106.571 54.7999C106.671 54.4999 106.671 54.0999 106.771 53.7999C106.871 53.5999 106.871 53.3999 106.971 53.2999C106.471 52.7999 106.071 52.1999 105.771 51.5999C105.171 51.8999 104.471 52.0999 103.771 51.9999C103.471 52.1999 103.071 52.3999 102.671 52.5999C102.471 52.6999 102.371 52.7999 102.171 52.8999C102.071 52.9999 101.871 53.0999 101.871 53.0999C101.771 53.1999 101.671 53.2999 101.471 53.3999C99.9707 54.8999 97.3707 54.1999 96.0707 52.7999C95.4707 52.0999 95.1707 50.9999 95.2707 49.9999C95.3707 49.3999 95.5707 48.8999 95.7707 48.4999C95.7707 48.1999 95.7707 47.9999 95.4707 47.7999C94.4707 47.1999 92.9707 47.5999 91.9707 47.8999H91.8707C91.0707 49.9999 88.6707 51.4999 86.3707 50.0999C86.2707 50.3999 86.1707 50.4999 86.2707 50.0999C86.1707 50.0999 86.1707 49.9999 86.0707 49.9999C83.9707 48.3999 84.2707 45.8999 85.6707 44.3999C84.8707 43.4999 83.8707 42.9999 82.6707 42.6999C81.8707 44.7999 79.2707 46.3999 76.8707 44.6999C75.3707 43.5999 75.0707 41.9999 75.5707 40.5999C74.0707 39.8999 72.3707 39.6999 70.8707 40.3999C58.9707 45.0999 52.5707 57.6999 54.2707 70.3999C55.1707 76.7999 58.1707 81.7999 61.4707 87.1999C62.9707 89.5999 62.6707 90.6999 62.6707 93.3999C62.6707 96.5999 64.5707 98.8999 67.4707 100.2C70.9707 101.8 74.8707 102.8 78.4707 103.9C81.3707 104.8 84.5707 106.1 87.6707 105.9C90.3707 105.7 92.5707 104.2 94.0707 102C94.8707 100.9 95.4707 99.5999 96.0707 98.3999C96.3707 97.7999 96.5707 97.1999 96.7707 96.4999C96.8707 96.4999 97.0707 96.3999 97.2707 96.2999C103.971 94.0999 110.371 93.5999 115.971 88.6999Z" fill="#F7C300"/>
<path d="M127.971 66.3001C127.871 65.7001 127.871 65.1 127.471 64.6C126.871 64 125.871 64 125.071 64.1C124.571 64.2 124.071 64.2 123.571 64.2C123.271 64.2 120.371 64.1 120.371 64.1C120.871 61.3 121.371 57.6 117.971 57.5C116.171 57.5 114.271 57.7 112.471 57.8C111.271 57.9 109.971 58 108.771 58C108.771 57 108.971 56.1 109.071 55.1C109.371 53.2 109.571 51.4 109.871 49.5C110.071 48.1 108.371 46.7 107.071 47.5C104.471 49 101.671 50.4 98.9706 51.6C98.2706 48.7 97.5706 45.9 96.6706 43.1C96.2706 41.7 93.9706 41.5 93.2706 42.7C92.3706 44 91.4706 45.2 90.2706 46.3C89.6706 46.8 89.0706 47.3 88.4706 47.7C88.1706 47.9 87.8706 48.1 87.5706 48.3H87.4706C87.1706 47.2 87.0706 46 86.8706 45.1C86.4706 43.5 86.1706 41.9 85.7706 40.4C85.4706 39 83.7706 38.1 82.5706 39.1C80.9706 40.4 79.8706 42.2 78.7706 43.9C78.3706 42.1 77.7706 40.3 76.8706 38.7C76.1706 37.4 74.7706 37.4 73.7706 38C66.9706 39.5 61.5706 47 58.9706 52.9C56.0706 59.6 55.6706 67.3 57.9706 74.2C59.0706 77.5 60.6706 80.6 62.7706 83.4C63.7706 84.8 64.9706 85.9 66.0706 87.2C67.6706 89 66.0706 90.8 65.7706 92.8C64.3706 101.4 76.5706 103.7 82.3706 105.7C86.1706 107 90.2706 109.2 94.3706 109.4C97.6706 109.6 99.8706 107.5 101.171 104.7C101.771 103.3 102.271 101.5 103.671 100.7C105.071 99.9 107.171 99.7 108.671 99.2C111.871 98 114.871 96.2 117.471 94C120.271 91.7 122.571 88.8 124.371 85.7C126.171 82.6 127.371 79.3 128.071 75.8C128.271 74.5 128.471 73.3 128.571 72C128.671 71.1 128.771 70.1 128.671 69.2C128.471 68.3 128.171 67.5 127.971 66.7C127.971 66.5 127.971 66.4001 127.971 66.3001ZM117.071 88.8C115.071 90.9 112.771 92.7 110.171 94.1C107.471 95.5 104.371 95.8 101.671 97.2C99.5706 98.3 98.6706 100.3 97.7706 102.3C97.1706 103.6 96.7706 105.1 95.1706 105.5C93.4706 105.9 91.1706 104.7 89.6706 104.2C86.0706 103 82.4706 101.7 78.9706 100.5C75.9706 99.5 69.9706 98.3 69.4706 94.4C69.0706 91.6 71.5706 89.4 70.1706 86.5C68.8706 83.8 65.9706 81.9 64.3706 79.3C60.5706 73.2001 59.2706 65.7 60.9706 58.7C61.8706 55 63.5706 51.5 65.9706 48.5C67.8706 46 70.6706 43.1 73.7706 42C74.5706 44.1 74.9706 46.3 74.8706 48.5C74.7706 50.2 76.6706 51.3 78.0706 50.3C79.9706 48.9 81.1706 46.8 82.4706 44.9C82.6706 45.8 82.8706 46.7 83.0706 47.7C83.5706 49.7 83.7706 52.6 86.3706 52.7C88.2706 52.8 90.3706 51.2 91.7706 50.1C92.4706 49.5 93.0706 48.9 93.7706 48.3C94.3706 50.5 94.8706 52.7 95.3706 54.9C95.6706 56.2 96.8706 56.9 98.1706 56.4C100.571 55.4 102.871 54.3 105.171 53.1C105.071 53.9 104.971 54.6 104.871 55.4C104.671 57.1 104.471 58.9 104.771 60.6C104.971 61.7 105.971 62.3 107.071 62.3C108.871 62.2 110.671 62.1 112.471 61.9C113.271 61.8 114.171 61.8 114.971 61.7C115.471 61.7 115.971 61.6 116.471 61.6C116.371 62 116.371 62.4 116.271 62.9C116.171 63.8 115.971 64.7 115.871 65.7C115.671 66.8 116.671 67.7 117.671 67.9C119.971 68.3 122.271 68.4 124.671 68.2C124.971 75.7 122.571 83.1 117.071 88.8Z" fill="black"/>
<path d="M96.571 115.4C95.771 113.3 93.271 112.8 91.371 112.3C88.571 111.6 85.771 110.6 82.971 109.6C79.971 108.5 76.871 107.3 73.871 106C71.271 104.9 68.671 103.9 66.871 101.6C65.271 99.6003 62.471 102.3 63.971 104.2C67.171 108.2 72.871 109.8 77.371 111.6C80.071 112.7 82.871 113.7 85.571 114.6C86.871 115 88.171 115.4 89.471 115.8C90.171 116 90.771 116.1 91.471 116.3C91.171 116.3 90.871 116.3 90.571 116.2C89.171 116.1 87.771 115.9 86.371 115.7C83.671 115.2 80.971 114.4 78.271 113.6C75.971 113 73.071 111.8 70.671 112.1C68.371 112.4 67.371 114.6 68.671 116.5C70.171 118.7 72.771 120.1 74.971 121.4C77.871 123 80.771 124.6 83.671 126.1C85.871 127.3 87.971 124 85.771 122.8C83.171 121.4 80.571 120 78.071 118.6C77.071 118 75.971 117.5 74.971 116.9C74.871 116.9 74.771 116.8 74.771 116.7C75.971 117 77.271 117.3 78.471 117.7C81.071 118.4 83.671 119.1 86.271 119.6C88.671 120 91.471 120.6 93.771 119.9C95.871 119.5 97.371 117.5 96.571 115.4Z" fill="black"/>
<path d="M83.071 127.9C81.471 126.9 79.671 126.3 77.771 126.2C75.971 126.1 73.971 126.6 73.071 128.3C72.571 129.2 72.671 130.4 73.671 131C74.571 131.5 75.871 131.4 76.371 130.4C76.371 130.4 76.371 130.3 76.471 130.3C76.471 130.3 76.571 130.3 76.571 130.2C76.671 130.2 76.871 130.1 76.971 130.1H77.071C77.271 130.1 77.371 130.1 77.571 130.1C77.871 130.1 78.271 130.2 78.571 130.2C79.171 130.3 79.771 130.5 80.271 130.7C80.471 130.8 80.771 130.9 80.971 131.1C81.871 131.6 83.171 131.4 83.671 130.5C84.171 129.7 83.971 128.5 83.071 127.9Z" fill="black"/>
<path d="M109.27 72.4998C100.27 78.0998 93.4703 86.2998 89.8703 95.9998C89.2703 97.6998 92.1703 98.5998 92.7703 96.8998C95.9703 87.9998 102.37 80.1998 110.67 74.9998C112.27 73.9998 110.77 71.4998 109.27 72.4998Z" fill="black" stroke="#1E1E1E" stroke-miterlimit="10"/>
<path d="M74.7707 65.1001C80.6707 73.9001 83.5707 84.2001 82.8707 94.5001C82.7707 96.3001 79.7707 96.0001 79.8707 94.2001C80.4707 84.7001 77.8707 75.0001 72.3707 66.9001C71.3707 65.3001 73.7707 63.5001 74.7707 65.1001Z" fill="black" stroke="#1E1E1E" stroke-miterlimit="10"/>
<path d="M102.471 64.9998C102.171 66.0998 101.371 66.9998 100.471 67.5998C99.6709 68.1998 99.1709 67.9998 98.3709 67.4998C98.0709 67.2998 97.8709 67.0998 97.5709 66.7998C98.9709 64.8998 99.5709 62.0998 97.8709 60.1998C96.8709 59.0998 95.1709 59.0998 94.0709 59.9998C92.8709 60.9998 92.4709 62.8998 92.5709 64.3998C92.5709 64.6998 92.6709 64.9998 92.6709 65.2998C92.2709 65.2998 91.9709 65.2998 91.5709 65.1998C91.1709 65.0998 90.8709 64.8998 90.5709 64.6998C90.7709 64.5998 90.8709 64.3998 91.0709 64.2998C92.9709 62.3998 94.2709 57.6998 90.9709 56.3998C87.9709 55.1998 85.6709 58.5998 85.3709 61.1998C85.3709 61.6998 85.3709 62.0998 85.3709 62.5998C84.7709 62.5998 84.1709 62.3998 83.7709 61.9998C83.1709 61.0998 82.9709 59.4998 83.1709 58.3998C83.3709 57.3998 82.2709 56.3998 81.2709 56.3998C80.1709 56.3998 79.3709 57.1998 79.2709 58.2998C78.8709 61.2998 80.1709 65.0998 83.0709 66.1998C84.2709 66.5998 85.5709 66.6998 86.8709 66.4998C88.5709 68.6998 91.5709 69.8998 94.3709 69.0998C95.3709 70.3998 96.8709 71.4998 98.4709 71.7998C101.871 72.5998 105.471 69.2998 106.271 66.1998C106.771 63.6998 103.071 62.4998 102.471 64.9998Z" fill="black"/>
<path d="M133.671 46.5001C133.671 43.8001 132.871 41.2001 131.271 38.9001C130.571 37.9001 129.671 36.9001 128.571 36.2001C127.671 35.6001 126.471 35.5001 125.571 36.2001C124.871 36.7001 124.371 37.4001 123.771 38.1001C121.471 40.6001 119.371 43.4001 117.471 46.3001C116.871 47.2001 116.971 48.5001 117.871 49.1001C118.071 49.3001 118.371 49.4001 118.671 49.4001C118.771 49.5001 118.971 49.6001 119.071 49.6001C121.571 50.5001 124.171 50.8001 126.871 50.6001C128.171 50.5001 129.371 50.2001 130.671 49.8001C131.371 49.6001 132.071 49.4001 132.571 48.9001C133.371 48.4001 133.671 47.4001 133.671 46.5001ZM128.971 46.2001C128.571 46.3001 128.171 46.4001 127.671 46.5001C127.271 46.6001 126.871 46.6001 126.471 46.7001C126.171 46.7001 125.971 46.7001 125.671 46.8001C125.571 46.8001 125.571 46.8001 125.571 46.8001H125.471C124.571 46.8001 123.771 46.7001 122.971 46.6001C122.771 46.6001 122.571 46.5001 122.271 46.5001C122.971 45.6001 123.571 44.7001 124.271 43.8001C124.871 43.0001 125.571 42.3001 126.171 41.5001C126.471 41.1001 126.871 40.8001 127.171 40.4001L127.271 40.5001C127.471 40.7001 127.571 40.9001 127.771 41.1001C127.971 41.4001 128.171 41.7001 128.371 42.0001C128.371 42.1001 128.571 42.3001 128.571 42.4001C128.671 42.6001 128.771 42.8001 128.871 43.0001C129.071 43.4001 129.171 43.8001 129.271 44.2001C129.271 44.3001 129.371 44.5001 129.371 44.6001C129.371 44.8001 129.471 45.0001 129.471 45.2001C129.471 45.4001 129.571 45.7001 129.571 45.9001C129.571 45.9001 129.571 46.1001 129.571 46.2001C129.471 46.3001 129.271 46.3001 129.171 46.4001C129.171 46.1001 128.971 46.2001 128.971 46.2001Z" fill="black"/>
<path d="M92.2703 0C90.5703 0 88.8703 0.6 87.5703 1.6C86.9703 2.1 86.2703 2.6 85.8703 3.3C85.4703 3.9 85.4703 4.6 85.8703 5.2C86.1703 5.6 86.6703 6 87.0703 6.3C88.6703 7.7 90.4703 9.1 92.2703 10.2C92.8703 10.6 93.6703 10.5 94.0703 9.9C94.1703 9.8 94.2703 9.6 94.2703 9.4C94.3703 9.3 94.3703 9.2 94.3703 9.1C94.9703 7.5 95.0703 5.9 94.9703 4.2C94.8703 3.4 94.6703 2.6 94.4703 1.8C94.3703 1.4 94.1703 0.9 93.8703 0.6C93.4703 0.2 92.8703 0 92.2703 0ZM91.8703 3.4C91.8703 3.6 91.9703 3.8 91.9703 4C91.9703 4.2 92.0703 4.3 92.0703 4.5C92.0703 4.6 92.0703 4.7 92.0703 4.8C92.0703 4.8 92.0703 4.8 92.0703 4.9C92.0703 4.9 92.0703 4.9 92.0703 5C92.0703 5.3 92.0703 5.7 91.9703 6C91.9703 6.1 91.9703 6.2 91.9703 6.3C91.5703 6 91.1703 5.8 90.8703 5.5C90.5703 5.3 90.2703 5 89.9703 4.7C89.7703 4.6 89.6703 4.4 89.4703 4.3C89.5703 4.2 89.6703 4.2 89.6703 4.1C89.7703 4 89.8703 3.9 90.0703 3.8C90.0703 3.8 90.1703 3.7 90.2703 3.7C90.3703 3.7 90.4703 3.6 90.4703 3.6C90.6703 3.5 90.7703 3.5 90.9703 3.4C91.0703 3.4 91.0703 3.4 91.1703 3.4C91.2703 3.4 91.3703 3.4 91.3703 3.4C91.4703 3.4 91.5703 3.4 91.6703 3.4H91.7703C91.7703 3.5 91.7703 3.5 91.8703 3.6C91.7703 3.3 91.8703 3.4 91.8703 3.4Z" fill="black"/>
<path d="M81.6707 31.0998C82.4707 29.4998 83.1707 27.8998 83.8707 26.2998C84.5707 24.6998 85.2707 23.0998 85.7707 21.4998C86.1707 20.2998 85.8707 18.9998 84.7707 18.2998C84.0707 17.7998 83.0707 17.4998 82.1707 17.3998C80.6707 17.0998 79.1707 17.2998 77.6707 17.6998C76.2707 17.9998 75.0707 18.8998 73.9707 19.9998C73.7707 20.0998 73.6707 20.0998 73.5707 20.2998C72.6707 21.0998 72.6707 22.1998 73.2707 23.0998C73.6707 23.6998 74.0707 24.3998 74.4707 25.0998C74.4707 25.1998 74.8707 25.7998 74.6707 25.3998C74.7707 25.4998 74.8707 25.6998 74.9707 25.7998C75.1707 26.0998 75.3707 26.4998 75.5707 26.7998C76.3707 28.0998 77.0707 29.4998 77.7707 30.8998C77.8707 30.9998 77.8707 31.0998 77.9707 31.2998C78.1707 31.7998 78.5707 32.2998 79.1707 32.4998C80.1707 32.5998 81.1707 32.0998 81.6707 31.0998ZM77.3707 22.1998C77.4707 22.0998 77.5707 22.0998 77.6707 21.9998C77.7707 21.9998 77.9707 21.7998 78.0707 21.7998C78.2707 21.6998 78.5707 21.4998 78.7707 21.3998C78.9707 21.2998 79.0707 21.2998 79.2707 21.1998C78.7707 21.3998 79.2707 21.1998 79.3707 21.1998C79.7707 21.0998 80.0707 21.0998 80.4707 20.9998C80.4707 20.9998 80.4707 20.9998 80.5707 20.9998C80.7707 20.9998 80.9707 20.9998 81.0707 20.9998C81.2707 20.9998 81.4707 20.9998 81.5707 21.0998C81.4707 21.2998 81.3707 21.4998 81.2707 21.7998C80.8707 22.6998 80.5707 23.5998 80.1707 24.4998C79.9707 24.9998 79.7707 25.4998 79.5707 25.8998C78.8707 24.6998 78.1707 23.4998 77.3707 22.1998Z" fill="black"/>
<path d="M137.371 30.6C139.971 29.4 142.671 28.3 145.371 27.3C145.871 27.1 146.271 26.7 146.571 26.3C147.071 25.8 147.371 25 147.071 24.3C145.871 21.6 144.671 18.9 143.671 16.1C143.271 15.1 142.171 14.4 141.171 14.8C140.971 14.9 140.671 15 140.471 15.2C140.371 15.2 140.271 15.3 140.171 15.4C136.971 17.2 133.971 19.3 131.071 21.5C130.271 22.1 129.871 23.4 130.471 24.3C129.871 25 129.971 26 130.671 26.7C132.071 27.9 133.471 29.2 134.871 30.4C135.271 30.7 135.771 30.9 136.271 30.9C136.671 30.9 137.071 30.8 137.371 30.6ZM133.871 24.2C136.071 22.6 138.271 21.1 140.671 19.6C141.271 21.1 141.871 22.6 142.571 24.1C140.571 24.9 138.571 25.7 136.571 26.6C135.671 25.8 134.771 25 133.871 24.2Z" fill="black"/>
<path d="M118.671 24.9999C118.671 24.7999 118.571 24.5999 118.571 24.4999C117.771 21.9999 115.571 20.2999 113.571 18.8999C111.271 17.3999 108.871 16.2999 106.271 15.5999C105.271 15.2999 104.171 15.6999 103.771 16.6999C103.471 16.8999 103.271 17.1999 103.171 17.4999C101.871 21.8999 100.671 26.2999 99.3709 30.6999C99.2709 30.8999 99.2709 31.0999 99.2709 31.1999C99.1709 31.5999 99.2709 31.9999 99.3709 32.3999C99.9709 34.2999 100.571 37.2999 102.871 37.7999C103.971 37.9999 104.971 37.5999 105.971 37.0999C106.971 36.5999 107.971 35.9999 108.971 35.3999C112.571 33.1999 115.871 30.3999 118.571 27.0999C118.971 26.3999 118.971 25.5999 118.671 24.9999ZM107.871 31.1999C106.571 31.9999 105.271 32.7999 103.971 33.3999C103.871 33.2999 103.871 33.1999 103.871 33.0999C103.671 32.4999 103.471 31.8999 103.271 31.2999C104.371 27.3999 105.471 23.5999 106.671 19.6999C108.271 20.2999 109.771 20.9999 111.071 21.7999C111.571 22.0999 112.071 22.4999 112.471 22.7999C112.671 22.8999 112.871 23.0999 112.971 23.1999C113.071 23.1999 113.471 23.5999 113.471 23.5999C113.871 23.8999 114.171 24.2999 114.471 24.7999C114.571 24.8999 114.671 25.0999 114.671 25.1999C112.571 27.5999 110.371 29.5999 107.871 31.1999Z" fill="black"/>
</g>
<path d="M161.299 23.2395V23.2396C161.179 24.16 161.512 25.1399 162.385 25.5218C163.337 26.1815 164.558 25.6727 165.053 24.5338C168.287 17.4675 171.809 10.8403 175.376 4.75382C175.968 3.76133 175.817 2.27031 174.865 1.6106C174.026 0.965741 172.726 1.19677 172.118 2.32075C168.42 8.52381 164.88 15.2826 161.516 22.4655C161.368 22.7136 161.334 22.9765 161.299 23.2395Z" fill="black"/>
<path d="M189.859 13.6735C189.659 13.0735 189.659 12.3735 189.259 11.7735C188.759 11.0735 187.959 10.8735 187.159 11.0735C185.859 11.2735 184.559 11.4735 183.359 11.5735C180.959 11.8735 178.559 12.2735 176.059 12.5735C175.759 12.4735 175.359 12.3735 175.059 12.4735C174.159 12.6735 173.859 13.4735 174.059 14.2735C174.159 14.8735 174.159 15.5735 174.459 16.1735C174.859 16.8735 175.659 17.0735 176.459 17.0735C177.859 16.9735 179.259 16.7735 180.659 16.6735C182.059 16.5735 183.359 16.3735 184.759 16.2735C186.159 16.1735 187.559 16.0735 188.759 15.5735C189.559 15.1735 190.059 14.5735 189.859 13.6735Z" fill="#B50900"/>
<path d="M162.6 9.5C160.8 9.4 159.1 9.4 157.3 9.7C156.8 8 156.2 6.4 155.5 4.8C155.2 4 153.9 3.8 153.2 4.2C152.3 4.7 152.2 5.7 152.6 6.5C153.1 7.8 153.6 9 154 10.3C152.2 10.8 150.4 11.5 148.8 12.3C148 12.7 147.8 13.9 148.2 14.6C148.7 15.4 149.7 15.6 150.5 15.2C152 14.5 153.5 14 155 13.6C155.4 15.3 155.8 17.1 156.1 18.9C156.2 19.8 157.4 20.3 158.2 20.1C159.2 19.8 159.5 18.9 159.4 18C159.2 16.3 158.8 14.7 158.4 13C159.8 12.8 161.3 12.8 162.7 12.9C163.6 13 164.4 12.1 164.4 11.2C164.3 10.2 163.5 9.6 162.6 9.5Z" fill="#59C59F"/>
<g clip-path="url(#clip1)">
<path d="M163.859 58.6735C163.659 58.0735 163.659 57.3735 163.259 56.7735C162.759 56.0735 161.959 55.8735 161.159 56.0735C159.859 56.2735 158.559 56.4735 157.359 56.5735C154.959 56.8735 152.559 57.2735 150.059 57.5735C149.759 57.4735 149.359 57.3735 149.059 57.4735C148.159 57.6735 147.859 58.4735 148.059 59.2735C148.159 59.8735 148.159 60.5735 148.459 61.1735C148.859 61.8735 149.659 62.0735 150.459 62.0735C151.859 61.9735 153.259 61.7735 154.659 61.6735C156.059 61.5735 157.359 61.3735 158.759 61.2735C160.159 61.1735 161.559 61.0735 162.759 60.5735C163.559 60.1735 164.059 59.5735 163.859 58.6735Z" fill="#B50900"/>
</g>
<path d="M162.6 95.5C160.8 95.4 159.1 95.4 157.3 95.7C156.8 94 156.2 92.4 155.5 90.8C155.2 90 153.9 89.8 153.2 90.2C152.3 90.7 152.2 91.7 152.6 92.5C153.1 93.8 153.6 95 154 96.3C152.2 96.8 150.4 97.5 148.8 98.3C148 98.7 147.8 99.9 148.2 100.6C148.7 101.4 149.7 101.6 150.5 101.2C152 100.5 153.5 100 155 99.6C155.4 101.3 155.8 103.1 156.1 104.9C156.2 105.8 157.4 106.3 158.2 106.1C159.2 105.8 159.5 104.9 159.4 104C159.2 102.3 158.8 100.7 158.4 99C159.8 98.8 161.3 98.8 162.7 98.9C163.6 99 164.4 98.1 164.4 97.2C164.3 96.2 163.5 95.6 162.6 95.5Z" fill="#59C59F"/>
<defs>
<clipPath id="clip0">
<rect width="94" height="132" fill="white" transform="translate(54)"/>
</clipPath>
<clipPath id="clip1">
<rect width="16" height="7" fill="white" transform="translate(148 56)"/>
</clipPath>
</defs>
</svg>
