<svg width="258" height="15" viewBox="0 0 258 15" fill="none" xmlns="http://www.w3.org/2000/svg">
<path d="M256.997 10.7507C254.039 8.65161 250.883 6.7243 247.926 4.6252C244.975 2.69292 242.883 1.74169 239.463 3.66125C236.646 5.23224 233.233 7.31862 231.057 9.54199C230.852 9.54696 230.846 9.38014 230.64 9.38511C230.204 8.72776 229.159 8.25215 228.523 7.76659C227.042 6.63363 225.765 5.4957 224.29 4.52956C221.961 2.74919 219.44 1.30743 216.199 2.55473C212.953 3.6352 211.002 6.35407 208.403 8.25374C208.204 8.42553 208.005 8.59732 207.806 8.76912C208.41 8.42056 208.191 8.09188 207.37 8.11177C206.735 7.62621 205.702 7.48424 204.868 7.17048C203.406 6.53799 201.943 5.90549 200.48 5.273C197.138 3.85113 193.988 2.09064 190.838 0.330157C189.786 -0.312279 187.951 0.0661037 187.155 0.753278C185.775 2.28948 184.389 3.65885 183.01 5.19505C182.22 6.04905 181.431 6.90305 180.642 7.75704C180.443 7.92884 180.244 8.10063 180.051 8.43925C179.853 8.61104 179.853 8.61104 179.853 8.61104C177.979 7.98849 176.286 6.69367 174.605 5.7325C172.719 4.77631 170.826 3.65329 168.735 2.70206C165.168 0.784691 161.639 -0.13174 157.828 2.29822C155.024 4.20286 152.425 6.10253 149.621 8.00717C147.312 6.72727 145.008 5.61419 142.494 4.33926C140.191 3.22618 137.868 1.61264 135.013 2.1827C132.363 2.74779 129.976 4.80931 127.769 6.19857C126.563 6.89568 125.356 7.5928 124.355 8.28494C123.149 8.98206 122.328 9.00194 120.871 8.53627C116.086 6.98237 112.269 3.90222 106.911 3.53099C101.349 3.16474 97.563 6.26199 93.341 8.7019C91.9358 9.57081 92.1347 9.39901 90.6656 8.5997C89.4082 7.96223 88.3561 7.31979 87.0987 6.68233C84.5839 5.4074 82.0691 4.13247 79.1756 3.70159C76.2885 3.43754 73.8631 4.49812 71.2324 5.56368C69.8144 6.09894 68.3964 6.63421 66.9784 7.16947C65.5604 7.70474 63.3467 8.92717 61.5054 9.13873C59.0417 9.19838 55.8918 7.4379 53.794 6.31985C51.4845 5.03995 49.56 3.08281 46.6666 2.65194C43.9784 2.21609 41.3413 3.11482 39.3393 4.49911C37.132 5.88837 35.162 8.10678 32.2621 7.50908C29.3686 7.0782 27.04 5.29783 24.5316 4.18972C21.8115 2.91976 18.8988 1.98842 15.6011 1.73431C9.62159 1.21117 3.5326 3.19535 0.413742 7.61227C-1.53075 10.498 3.90308 12.8711 5.84758 9.98537C8.57498 6.07886 14.5289 5.9347 19.116 7.66039C23.703 9.38608 27.5263 12.6331 32.8708 12.6706C35.3408 12.7778 37.5673 11.889 39.5821 10.8384C41.1862 9.79767 43.9583 7.05892 46.0497 8.01014C48.1348 8.79455 50.0528 10.5849 52.1506 11.7029C54.4537 12.816 57.1674 13.9191 59.6439 14.1931C62.3257 14.4621 64.5522 13.5734 66.9839 12.6796C70.0252 11.6041 73.0474 10.0281 76.0951 9.11945C78.7385 8.38754 81.2725 10.1629 83.3639 11.1142C85.4617 12.2322 87.7967 14.1794 90.4785 14.4484C95.2326 15.1682 98.9546 10.4027 102.804 8.97371C107.264 7.36294 111.703 10.595 115.462 12.1738C117.765 13.2868 120.473 14.2232 123.129 13.8249C125.991 13.4216 128.384 11.5269 130.591 10.1377C131.798 9.44057 133.588 7.89443 135.012 7.52599C135.218 7.52102 135.609 7.01061 135.609 7.01061C136.02 7.00067 137.495 7.96681 137.912 8.12369C140.85 9.72232 143.994 11.316 146.932 12.9146C146.932 12.9146 147.137 12.9097 147.144 13.0765C148.196 13.7189 149.845 13.846 151.038 12.8152C152.841 11.6027 154.439 10.3952 156.242 9.18269C157.038 8.49551 158.045 7.97019 158.841 7.28302C159.444 6.93446 160.631 5.73688 161.446 5.55017C163.082 5.34358 166.046 7.6095 167.303 8.24697C169.189 9.20317 170.87 10.1643 172.756 11.1205C175.694 12.7192 179.28 15.137 182.476 12.722C184.074 11.5144 185.242 9.81638 186.422 8.45197C187.212 7.59798 188.2 6.57219 188.989 5.71819C194.237 8.59672 199.677 11.1366 205.502 12.9993C209.037 14.0826 211.027 12.3647 213.42 10.47C214.614 9.43919 215.794 8.07479 217.206 7.3727C218.412 6.67558 217.604 7.02911 218.649 7.50473C219.278 7.82346 220.131 8.63769 220.766 9.12324C222.248 10.2562 223.525 11.3941 225 12.3603C226.059 13.1695 227.335 14.3075 228.792 14.7731C232.115 15.6945 234.085 13.4761 236.286 11.9201C237.685 10.8843 239.084 9.8486 240.688 8.80789C240.688 8.80789 241.894 8.11078 242.497 7.76222C242.709 7.92407 242.921 8.08592 243.132 8.24778C246.09 10.3469 249.246 12.2742 252.203 14.3733C255.777 16.4575 259.954 12.8498 256.997 10.7507Z" fill="#F7C300"/>
</svg>
