<svg width="292" height="187" viewBox="0 0 292 187" fill="none" xmlns="http://www.w3.org/2000/svg">
<path d="M289.7 186.8C286.4 186.8 283.2 186 280 184.4C279.3 184 279 183.1 279.4 182.4C279.8 181.7 280.7 181.4 281.4 181.8C284.3 183.3 287.2 184 290.3 183.9C291.2 183.9 291.8 184.5 291.9 185.3C291.9 186.1 291.3 186.8 290.5 186.9C290.2 186.8 289.9 186.8 289.7 186.8ZM272.9 178.4C272.5 178.4 272.1 178.2 271.8 177.9C269.6 175.6 267.5 172.8 265.6 169.7C265.2 169 265.4 168.1 266.1 167.6C266.8 167.2 267.7 167.4 268.2 168.1C270 171 271.9 173.6 274 175.8C274.6 176.4 274.5 177.4 273.9 177.9C273.6 178.3 273.2 178.4 272.9 178.4ZM262.3 161.6C261.7 161.6 261.2 161.3 260.9 160.7C259.6 157.7 258.4 154.7 257.2 151.3C256.9 150.5 257.3 149.7 258.1 149.4C258.9 149.1 259.7 149.5 260 150.3C261.2 153.6 262.4 156.6 263.7 159.5C264 160.3 263.7 161.1 262.9 161.5C262.7 161.5 262.5 161.6 262.3 161.6ZM255.5 142.8C254.9 142.8 254.3 142.4 254.1 141.7C253.3 138.9 252.4 135.8 251.3 132C251.1 131.2 251.6 130.4 252.4 130.2C253.2 130 254 130.5 254.2 131.3C255.2 135.1 256.1 138.1 256.9 140.9C257.1 141.7 256.7 142.5 255.9 142.8C255.8 142.7 255.7 142.8 255.5 142.8ZM250.2 123.5C249.5 123.5 248.9 123.1 248.8 122.4C248.1 119.9 247.4 117.3 246.7 114.8C246.5 114.1 246.3 113.5 246.1 112.8C245.9 112 246.3 111.2 247.1 110.9C247.9 110.7 248.7 111.1 249 111.9C249.2 112.6 249.4 113.2 249.6 113.9C250.3 116.4 251 119 251.7 121.6C251.9 122.4 251.4 123.2 250.6 123.4C250.4 123.5 250.3 123.5 250.2 123.5ZM244.6 104.3C244 104.3 243.4 103.9 243.2 103.3C242.2 100.2 241.2 97 240.1 93.8C239.8 93 240.2 92.2 241 91.9C241.8 91.6 242.6 92 242.9 92.8C244 96 245.1 99.2 246.1 102.3C246.4 103.1 245.9 103.9 245.1 104.2C244.9 104.3 244.8 104.3 244.6 104.3ZM5.3004 101.1C5.2004 101.1 5.10041 101.1 5.00041 101.1C4.20041 100.9 3.7004 100.2 3.8004 99.3L3.9004 98.9C4.1004 98.1 4.80042 97.6 5.70042 97.7C6.50042 97.9 7.0004 98.6 6.9004 99.5L6.8004 99.9C6.6004 100.6 6.0004 101.1 5.3004 101.1ZM7.70042 91C7.60042 91 7.4004 91 7.3004 90.9C6.5004 90.7 6.0004 89.8 6.3004 89C7.2004 85.8 8.30042 82.6 9.60042 79.4C9.90042 78.6 10.8004 78.3 11.5004 78.6C12.3004 78.9 12.6004 79.8 12.3004 80.5C11.1004 83.6 10.0004 86.7 9.10042 89.8C8.90042 90.6 8.30042 91 7.70042 91ZM238.1 85.4C237.5 85.4 236.9 85 236.7 84.4C235.5 81.3 234.3 78.2 233.1 75.1C232.8 74.3 233.2 73.5 233.9 73.1C234.7 72.8 235.5 73.2 235.9 73.9C237.2 77 238.4 80.1 239.5 83.3C239.8 84.1 239.4 84.9 238.6 85.2C238.4 85.4 238.2 85.4 238.1 85.4ZM15.0004 72.4C14.8004 72.4 14.5004 72.3 14.3004 72.2C13.6004 71.8 13.3004 70.9 13.6004 70.2C15.1004 67.2 16.8004 64.2 18.5004 61.4C18.9004 60.7 19.9004 60.5 20.6004 60.9C21.3004 61.3 21.5004 62.3 21.1004 63C19.4004 65.8 17.8004 68.7 16.3004 71.6C16.1004 72.1 15.6004 72.4 15.0004 72.4ZM230.6 66.8C230 66.8 229.5 66.5 229.2 65.9C228.6 64.6 228 63.2 227.4 61.9C226.6 60.2 225.9 58.5 225.1 56.8C224.7 56.1 225.1 55.2 225.8 54.8C226.6 54.4 227.4 54.8 227.8 55.5C228.6 57.2 229.4 58.9 230.2 60.6C230.8 61.9 231.4 63.3 232 64.6C232.3 65.4 232 66.2 231.2 66.6C231 66.8 230.8 66.8 230.6 66.8ZM25.5004 55.4C25.2004 55.4 24.9004 55.3 24.6004 55.1C23.9004 54.6 23.8004 53.7 24.3004 53C26.3004 50.3 28.4004 47.7 30.6004 45.1C31.1004 44.5 32.1004 44.4 32.7004 45C33.3004 45.5 33.4004 46.5 32.8004 47.1C30.6004 49.6 28.5004 52.2 26.6004 54.8C26.4004 55.2 26.0004 55.4 25.5004 55.4ZM222 48.8C221.5 48.8 221 48.5 220.7 48C219 44.9 217.4 42.1 215.7 39.5C215.2 38.8 215.4 37.9 216.1 37.4C216.8 36.9 217.7 37.1 218.2 37.8C220 40.5 221.6 43.3 223.4 46.5C223.8 47.2 223.5 48.1 222.8 48.5C222.5 48.7 222.2 48.8 222 48.8ZM38.7004 40.4C38.3004 40.4 37.9004 40.2 37.6004 39.9C37.0004 39.3 37.0004 38.4 37.6004 37.8C40.0004 35.5 42.6004 33.2 45.1004 31C45.7004 30.5 46.7004 30.6 47.2004 31.2C47.7004 31.8 47.6004 32.8 47.0004 33.3C44.5004 35.4 42.0004 37.6 39.6004 39.9C39.4004 40.2 39.1004 40.4 38.7004 40.4ZM211 32.1C210.6 32.1 210.1 31.9 209.8 31.6C207.9 29.3 205.9 27.2 203.9 25.3C203.6 25 203.4 24.8 203.1 24.5C202.5 23.9 202.4 23 203 22.4C203.6 21.8 204.5 21.7 205.1 22.3C205.4 22.6 205.7 22.8 206 23.1C208.1 25.1 210.2 27.3 212.2 29.7C212.7 30.3 212.6 31.3 212 31.8C211.6 32 211.3 32.1 211 32.1ZM54.1004 27.7C53.6004 27.7 53.2004 27.5 52.9004 27.1C52.4004 26.4 52.6004 25.5 53.3004 25C53.7004 24.7 54.1004 24.4 54.5004 24.2C56.9004 22.6 59.3004 21 61.8004 19.6C62.5004 19.2 63.4004 19.4 63.9004 20.1C64.3004 20.8 64.1004 21.7 63.4004 22.2C61.0004 23.6 58.6004 25.1 56.2004 26.7C55.8004 27 55.4004 27.2 55.0004 27.5C54.7004 27.6 54.4004 27.7 54.1004 27.7ZM196.2 18.7C195.9 18.7 195.6 18.6 195.4 18.4C192.8 16.6 189.9 15 186.9 13.5C186.2 13.1 185.9 12.2 186.2 11.5C186.6 10.8 187.5 10.5 188.2 10.8C191.3 12.3 194.2 14.1 197 15.9C197.7 16.4 197.9 17.3 197.4 18C197.2 18.5 196.7 18.7 196.2 18.7ZM71.3004 17.6C70.7004 17.6 70.2004 17.3 70.0004 16.8C69.6004 16.1 69.9004 15.2 70.7004 14.8C73.7004 13.3 76.8004 12 79.9004 10.7C80.7004 10.4 81.5004 10.8 81.8004 11.5C82.1004 12.2 81.7004 13.1 81.0004 13.4C77.9004 14.6 74.9004 16 72.0004 17.4C71.8004 17.5 71.6004 17.6 71.3004 17.6ZM89.9004 10.1C89.3004 10.1 88.7004 9.7 88.5004 9.1C88.2004 8.3 88.7004 7.5 89.5004 7.2C92.7004 6.2 95.9004 5.3 99.2004 4.5C100 4.3 100.8 4.8 101 5.6C101.2 6.4 100.7 7.2 99.9004 7.4C96.7004 8.2 93.5004 9.1 90.4004 10.1C90.2004 10.1 90.0004 10.1 89.9004 10.1ZM178.4 9.7C178.2 9.7 178.1 9.7 177.9 9.6C174.9 8.5 171.7 7.5 168.5 6.7C167.7 6.5 167.2 5.7 167.4 4.9C167.6 4.1 168.4 3.6 169.2 3.8C172.5 4.7 175.8 5.7 178.9 6.8C179.7 7.1 180.1 7.9 179.8 8.7C179.6 9.4 179 9.7 178.4 9.7ZM109.3 5.4C108.6 5.4 108 4.9 107.8 4.2C107.7 3.4 108.2 2.6 109 2.5C112.3 1.9 115.7 1.4 119 1.1C119.8 1 120.6 1.6 120.7 2.4C120.8 3.2 120.2 4 119.4 4.1C116.1 4.5 112.8 4.9 109.6 5.5C109.5 5.3 109.4 5.4 109.3 5.4ZM159.1 4.8C159 4.8 158.9 4.8 158.9 4.8C155.7 4.3 152.4 3.9 149.1 3.6C148.3 3.5 147.7 2.8 147.7 2C147.8 1.2 148.5 0.6 149.3 0.6C152.7 0.9 156.1 1.3 159.3 1.8C160.1 1.9 160.7 2.7 160.5 3.5C160.4 4.2 159.8 4.8 159.1 4.8ZM129.2 3.2C128.4 3.2 127.7 2.6 127.7 1.8C127.7 1 128.3 0.3 129.1 0.2C132.4 0 135.8 0 139.2 0C140 0 140.7 0.7 140.7 1.5C140.7 2.3 140 3 139.2 3C135.8 3 132.5 3 129.2 3.2Z" fill="black"/>
<path d="M16.6004 89.9999C16.0004 89.3999 15.2004 89.4999 14.7004 89.9999C11.5004 92.4999 8.30039 95.0999 6.00039 98.2999C5.30039 94.9999 4.40038 91.6999 3.40038 88.4999C2.90038 86.7999 0.200374 87.4999 0.800374 89.1999C2.10037 93.4999 3.20039 97.9 4.10039 102.3C4.40039 103.7 6.3004 103.5 6.7004 102.3C6.8004 102.1 6.80038 102 6.90038 101.8C7.10038 101.7 7.20038 101.5 7.40038 101.3C9.70038 97.4 13.3004 94.5999 16.7004 91.8999C17.2004 91.3999 17.1004 90.4999 16.6004 89.9999Z" fill="black"/>
</svg>
