<svg width="578" height="344" viewBox="0 0 578 344" fill="none" xmlns="http://www.w3.org/2000/svg">
<path d="M96.7336 151.39C96.7336 151.39 80.0305 148.227 65.096 145.398C63.7204 145.138 62.3449 144.877 61.0676 144.635C60.3188 144.29 59.4531 144.024 58.4706 143.838C58.1572 143.88 57.9421 143.941 57.6287 143.984C53.9003 143.787 50.6423 141.643 47.1528 141.796C46.9377 141.857 46.6429 141.802 46.4278 141.863C43.4244 141.599 39.4943 140.855 41.5345 137.068C41.5903 136.773 41.6275 136.577 41.5851 136.264C43.524 120.652 46.613 104.342 49.6885 88.6397C49.9915 87.5776 50.313 86.4171 50.616 85.3549C51.3387 83.1509 52.0615 80.9469 52.8825 78.7615C53.1668 77.7976 53.568 76.754 53.8523 75.7901C54.485 72.4495 54.8386 70.5827 54.8386 70.5827L109.959 81.0218L96.6353 151.371L96.7336 151.39Z" fill="#F5F5F5"/>
<path d="M93.7069 120.08C93.7069 120.08 93.6087 120.061 93.5104 120.043C93.3325 119.907 93.136 119.87 92.9581 119.734C92.4855 119.543 92.0925 119.469 91.5826 119.474C90.7779 119.423 89.8803 119.864 89.1129 119.617C88.3268 119.468 87.7507 118.748 87.1001 118.421C86.3513 118.076 85.5467 118.025 84.6862 118.27C83.8444 118.416 83.4514 118.341 82.6043 117.977C81.7572 117.613 80.9102 117.249 80.0073 117.18C79.0858 117.209 78.2864 117.668 77.4631 117.716C76.5602 117.647 75.6707 116.969 74.9591 116.427C73.4377 115.325 71.6156 117.423 73.0201 118.605C74.7991 119.959 76.6339 121.019 78.8833 120.428C79.3136 120.305 79.7624 120.085 80.1554 120.16C80.6467 120.253 81.0025 120.524 81.4752 120.715C82.4205 121.097 83.3844 121.382 84.5396 121.193C84.853 121.151 85.3018 120.931 85.6948 121.005C86.0878 121.08 86.5233 121.467 86.8791 121.738C87.7872 122.317 88.6529 122.583 89.6726 122.573C90.1825 122.567 90.6127 122.445 91.1412 122.342C91.6511 122.337 91.9272 122.491 92.3999 122.682C93.3452 123.065 94.3464 123.152 95.2812 122.515C96.8004 121.48 95.2075 119.143 93.7069 120.08Z" fill="#F7C300"/>
<path d="M96.6492 93.2589C86.4361 91.8335 76.2973 90.0151 66.1534 87.6869C64.3052 87.2351 63.7656 90.0844 65.6324 90.438C75.6781 92.7476 85.915 94.5846 96.1282 96.01C97.995 96.3635 98.516 93.6124 96.6492 93.2589Z" fill="#F7C300"/>
<path d="M99.5091 121.688C99.2903 127.142 106.694 126.203 106.913 120.749C107.095 115.491 108.886 110.334 109.675 105.089C110.465 99.8448 112.102 94.9641 113.069 89.8549C114.093 84.451 106.92 83.0926 105.897 88.4965C103.831 99.4027 100.003 110.484 99.5091 121.688Z" fill="#F7C300"/>
<path d="M82.7887 84.2219C74.6471 82.0693 66.3513 80.1928 57.9998 78.6112C55.74 78.1832 55.1631 81.229 57.423 81.657C65.7745 83.2387 73.972 85.0965 82.2119 87.2677C84.4345 87.8922 85.0113 84.8464 82.7887 84.2219Z" fill="black"/>
<path d="M97.8126 91.9525C84.4554 89.9317 71.0743 87.4993 57.9031 84.4959C54.4829 83.7464 53.906 86.7922 57.3263 87.5418C70.5161 90.4469 83.8785 92.9776 97.2358 94.9984C100.712 95.4532 101.289 92.4073 97.8126 91.9525Z" fill="black"/>
<path d="M88.4244 136.687C78.2113 135.262 68.0726 133.443 57.9286 131.115C56.0804 130.663 55.5408 133.512 57.4076 133.866C67.4533 136.176 77.6903 138.013 87.9034 139.438C89.7702 139.792 90.3099 136.942 88.4244 136.687Z" fill="#F7C300"/>
<path d="M74.564 127.65C66.4223 125.497 58.1266 123.621 49.7751 122.039C47.5152 121.611 46.9384 124.657 49.1982 125.085C57.5498 126.667 65.7472 128.525 73.9871 130.696C76.2097 131.32 76.7866 128.274 74.564 127.65Z" fill="black"/>
<path d="M89.5878 135.381C76.2306 133.36 62.8495 130.927 49.6783 127.924C46.2581 127.174 45.6812 130.22 49.1015 130.97C62.2913 133.875 75.6537 136.406 89.011 138.426C92.4871 138.881 93.0639 135.835 89.5878 135.381Z" fill="black"/>
<path d="M41.2367 125.206C40.3487 130.432 39.559 135.676 38.7507 141.019C38.6442 142.119 39.632 142.815 40.4738 142.669C40.4738 142.669 40.4738 142.669 40.5721 142.687C41.2413 142.916 41.9104 143.144 42.5982 143.275L42.561 143.471C43.0522 143.564 43.5621 143.559 43.9551 143.633C45.1528 143.758 46.4301 144 47.6091 144.224C50.4585 144.763 54.309 145.391 57.1583 145.93C62.8756 146.911 68.4761 147.972 74.1748 149.051C81.3473 150.41 88.4029 151.848 95.501 153.599C96.3853 153.767 96.951 153.467 97.1609 152.896C97.376 152.835 97.6097 152.675 97.7638 152.399C99.0202 150.602 99.411 148.538 99.7035 146.456C100.052 144.08 100.498 141.722 100.847 139.345C101.623 134.708 102.418 129.974 103.293 125.356C104.944 116.101 106.791 106.884 108.638 97.6668C109.741 92.3798 110.826 87.1909 112.027 81.9225C112.139 81.333 111.82 80.8655 111.465 80.5946C111.207 80.3422 110.931 80.1882 110.44 80.0951C105.668 79.4967 101.007 78.3087 96.3097 77.3173C91.5139 76.3072 86.8163 75.3158 82.0391 74.2075C74.1178 72.5037 65.5087 70.6697 57.3351 69.2235C56.5491 69.0746 55.763 68.9258 54.977 68.7769C54.7805 68.7397 54.584 68.7025 54.4671 68.7821C54.252 68.8432 54.1352 68.9228 53.92 68.9838C53.6863 69.1431 53.3968 69.5972 53.3409 69.8919C53.3037 70.0884 53.2665 70.285 53.3462 70.4018C48.374 88.5943 44.3048 106.856 41.2367 125.206ZM56.8937 72.0915C56.992 72.1101 57.0902 72.1287 57.1885 72.1473C65.2639 73.5749 73.6764 75.3717 81.4012 77.0382C86.1971 78.0483 90.8946 79.0397 95.6718 80.148C99.8781 81.0464 104.164 82.0617 108.426 82.6653C104.548 100.454 101.063 118.318 97.99 136.158C97.5062 138.712 97.102 141.384 96.7164 143.957C96.3867 146.235 96.1552 148.532 94.9784 150.447C83.7723 147.816 72.3749 145.657 61.0386 143.714C58.091 143.155 54.044 142.491 51.0964 141.932C48.8365 141.505 46.5767 141.077 44.2983 140.747C44.2 140.728 44.1018 140.71 44.0035 140.691C43.414 140.579 42.8245 140.468 42.3518 140.276C42.1553 140.239 41.9774 140.104 41.8791 140.085C44.4984 121.956 47.9037 103.975 52.1932 86.1625C53.3998 81.404 54.625 76.5471 55.9298 71.8071C56.1077 71.9426 56.5007 72.017 56.8937 72.0915Z" fill="black"/>
<path d="M93.8476 106.977C92.3046 107.601 91.3622 105.59 89.6547 105.471C89.0466 105.457 87.8913 105.646 87.5035 106.081C87.4239 105.964 87.246 105.829 87.1664 105.712C86.3327 104.74 85.3822 103.847 83.9322 103.98C83.324 103.966 82.6601 104.248 82.1926 104.566C82.0333 104.333 81.8741 104.099 81.7944 103.982C81.2979 103.379 80.5491 103.034 79.7259 103.081C78.8044 103.11 78.4166 103.546 77.734 103.925C77.1683 104.225 77.2294 104.441 76.7143 103.936C76.2974 103.45 75.9789 102.982 75.5434 102.595C74.5929 101.702 73.2359 101.343 71.9266 101.808C71.5947 101.948 71.1086 102.365 70.7766 102.506C70.6784 102.487 70.697 102.389 70.5191 102.254C70.3598 102.02 70.2005 101.786 70.0226 101.651C69.704 101.183 69.2872 100.697 68.9686 100.23C68.4721 99.6269 67.3117 99.3053 66.6105 99.7832L64.9745 100.898C64.8576 100.978 64.6239 101.137 64.507 101.217C64.0105 100.614 63.1158 99.4267 62.9379 99.2912C62.1653 98.5342 61.2624 98.465 60.2054 98.6719C59.5601 98.8551 58.7607 99.3143 57.9985 99.5771C57.6799 99.1096 57.4596 98.6608 57.2206 98.3102C56.7428 97.609 55.4655 97.3671 54.8625 97.8636C53.9277 98.5008 52.9928 99.1379 52.0579 99.7751C50.4218 100.89 52.3891 103.4 54.0252 102.285C54.4926 101.966 54.9601 101.648 55.4275 101.329C55.985 102.147 56.7763 102.806 58.0297 102.636C58.853 102.589 59.5728 102.013 60.2367 101.731C60.2367 101.731 60.4518 101.67 60.667 101.609C60.7466 101.726 60.8262 101.843 60.9059 101.96C61.721 103.03 62.7749 104.451 64.4028 104.454C65.4226 104.444 66.3389 103.905 67.1755 103.249C68.0702 104.436 69.1614 105.661 70.9062 105.584C71.5329 105.499 72.6085 105.194 72.9963 104.758C73.1131 104.679 73.1131 104.679 73.23 104.599C73.4079 104.735 73.5672 104.968 73.6282 105.183C74.5415 106.272 75.5531 107.38 77.2978 107.303C78.1211 107.256 78.9816 107.011 79.5845 106.515C79.6641 106.632 79.7438 106.749 79.7438 106.749C80.9146 108.09 82.5001 107.78 83.9448 107.137C84.0617 107.058 84.16 107.076 84.16 107.076C84.2396 107.193 84.4175 107.329 84.4175 107.329C84.8157 107.913 85.3308 108.417 85.9628 108.843C86.7116 109.188 87.4976 109.337 88.2412 109.172C88.5732 109.032 89.0034 108.909 89.2557 108.652C89.3726 108.572 89.3726 108.572 89.4895 108.493C89.5877 108.511 89.5691 108.61 89.6674 108.628C90.8382 109.969 93.2149 110.318 94.8562 109.713C97.0259 109.004 95.8208 106.231 93.8476 106.977Z" fill="black"/>
<path d="M80.2715 110.411C79.4855 110.262 79.2837 109.715 78.6332 109.388C77.9826 109.061 77.1966 108.913 76.5513 109.096C76.121 109.218 74.6204 110.155 74.4135 109.098C74.2252 107.943 72.8072 107.369 71.6758 107.969C71.227 108.189 70.4275 108.648 69.7398 108.518C69.3654 108.345 69.0654 107.78 68.8078 107.527C67.937 106.752 66.7579 106.528 65.5655 106.913C65.1352 107.035 64.6864 107.256 64.4155 107.611C64.4155 107.611 64.4155 107.611 64.3969 107.71C64.3969 107.71 64.2986 107.691 64.3172 107.593C63.9376 106.91 62.8888 105.999 62.14 105.654C61.115 105.154 59.9784 105.244 58.9639 105.765C58.847 105.844 58.6319 105.905 58.2999 106.046L58.2203 105.929C56.9594 103.451 53.6716 104.152 51.9001 105.445C50.264 106.56 52.2313 109.07 53.8674 107.955C54.2366 107.617 54.6854 107.397 55.1156 107.275C55.1767 107.49 55.1581 107.588 55.1395 107.687C55.4446 108.762 56.3952 109.655 57.7283 109.602C58.3364 109.615 59.0004 109.334 59.4492 109.114C59.6829 108.954 60.2859 108.458 60.5992 108.415C60.4824 108.495 60.8568 108.668 61.0161 108.901C61.3532 109.271 61.6904 109.64 62.0276 110.009C62.8189 110.668 63.8624 111.069 65.0363 110.782C65.4665 110.66 65.9153 110.44 66.2659 110.201C66.2659 110.201 66.3828 110.121 66.4996 110.042C66.9589 110.841 68.5734 111.452 69.4577 111.62C70.2437 111.769 71.0856 111.623 71.7495 111.341C72.5221 112.098 73.5285 112.696 74.7448 112.723C75.236 112.816 75.6663 112.694 76.1947 112.59C76.4098 112.529 76.625 112.468 76.8401 112.407C76.9383 112.426 76.9569 112.328 77.0552 112.346C77.2331 112.482 77.4906 112.734 77.6871 112.771C78.2394 113.079 78.8104 113.289 79.5167 113.321C81.912 113.571 82.4517 110.722 80.2715 110.411Z" fill="black"/>
<path d="M95.3802 118.768C94.8145 119.068 93.771 118.667 93.1814 118.555C92.2972 118.388 91.3943 118.319 90.5524 118.465C90.1408 118.488 89.5751 118.788 89.2007 118.616C88.9059 118.56 88.667 118.209 88.3908 118.055C87.6792 117.513 86.949 117.07 85.9665 116.884C85.2787 116.753 84.4369 116.899 83.7729 117.181C83.6561 117.26 83.441 117.321 83.3427 117.303L83.2631 117.186C83.0241 116.835 82.6683 116.564 82.3125 116.293C81.6806 115.868 80.9132 115.621 80.0899 115.669C79.1684 115.698 78.5469 116.293 77.705 116.439C77.0783 116.523 76.4836 115.902 75.9313 115.594C75.2011 115.15 74.4709 114.707 73.5866 114.539C72.604 114.353 71.9215 114.733 71 114.762C70.1953 114.711 69.7175 114.01 68.9687 113.664C68.1216 113.301 67.1205 113.213 66.2972 113.26C65.474 113.308 64.1088 114.067 63.2432 113.801C62.6537 113.69 62.3113 112.811 61.8758 112.423C61.1642 111.881 60.2985 111.615 59.4753 111.663C58.4369 111.772 57.6003 112.427 56.8009 112.887C56.8009 112.887 56.684 112.966 56.5672 113.046C56.3468 112.597 55.7521 111.976 55.5318 111.527C54.1354 109.227 52.1487 110.581 50.3534 111.462C48.5394 112.442 50.5067 114.952 52.3207 113.972C52.5544 113.813 52.7695 113.752 53.1015 113.611C53.5794 114.312 54.0386 115.112 54.8485 115.672C56.5478 116.91 58.1839 115.795 59.6659 114.956C59.7641 114.975 59.881 114.895 59.9978 114.815C60.1385 115.147 60.4943 115.418 60.7519 115.671C61.4449 116.311 62.3902 116.693 63.3913 116.781C64.2942 116.85 65.2529 116.625 66.0948 116.479C66.525 116.357 67.0721 116.155 67.4465 116.328C67.9378 116.421 68.2563 116.888 68.6121 117.159C69.3423 117.603 70.1894 117.967 71.1109 117.938C71.8359 117.872 72.715 117.529 73.3841 117.758C74.1516 118.005 74.7463 118.626 75.3968 118.953C76.127 119.397 77.091 119.681 77.9328 119.535C78.7561 119.487 79.5369 119.126 80.2008 118.845L80.2194 118.747C80.2991 118.864 80.3787 118.981 80.3787 118.981C80.7159 119.35 81.0531 119.719 81.5072 120.008C82.256 120.354 82.9437 120.484 83.7856 120.338C84.1972 120.314 84.5292 120.174 84.9594 120.052C85.4879 119.948 85.3897 119.93 85.6658 120.084C86.0402 120.256 86.3588 120.724 86.8128 121.013C87.1686 121.284 87.6413 121.476 88.1326 121.569C89.293 121.89 90.2889 121.468 91.3273 121.359C92.2674 121.232 93.2127 121.615 94.1952 121.801C95.2946 121.907 96.2348 121.78 97.1324 121.339C99.1615 120.299 97.1756 117.887 95.3802 118.768Z" fill="black"/>
<path d="M139.507 181.882C139.507 181.882 122.804 178.718 107.869 175.89C106.494 175.629 105.118 175.369 103.841 175.127C103.092 174.782 102.226 174.516 101.244 174.33C100.93 174.372 100.715 174.433 100.402 174.476C96.0653 174.265 92.5074 171.556 88.3777 172.402C88.083 172.346 87.7086 172.174 87.4138 172.118C87.1377 171.964 86.7633 171.791 86.4685 171.735C85.7197 171.39 85.1674 171.082 84.6523 170.577C84.3947 170.325 84.2355 170.091 83.9779 169.839C85.8454 152.992 89.1948 135.306 92.6106 118.346C92.9321 117.185 93.235 116.123 93.5566 114.962C94.2793 112.758 95.0207 110.456 95.8417 108.271C96.126 107.307 96.5272 106.263 96.8116 105.299C97.4442 101.959 97.8164 99.9937 97.8164 99.9937L152.937 110.433L139.408 181.863L139.507 181.882Z" fill="#F5F5F5"/>
<path d="M137.521 152.601C137.521 152.601 137.422 152.582 137.324 152.564C137.146 152.428 136.95 152.391 136.772 152.255C136.299 152.064 135.906 151.99 135.396 151.995C134.592 151.944 133.694 152.385 132.927 152.138C132.141 151.989 131.564 151.269 130.914 150.942C130.165 150.597 129.36 150.546 128.5 150.791C127.658 150.936 127.265 150.862 126.418 150.498C125.571 150.134 124.724 149.77 123.821 149.701C122.9 149.73 122.1 150.189 121.277 150.237C120.374 150.168 119.484 149.49 118.773 148.948C117.251 147.846 115.429 149.944 116.834 151.126C118.613 152.48 120.448 153.54 122.697 152.948C123.127 152.826 123.576 152.606 123.969 152.68C124.46 152.773 124.816 153.044 125.289 153.236C126.234 153.618 127.198 153.903 128.353 153.714C128.667 153.672 129.116 153.452 129.509 153.526C129.902 153.6 130.337 153.988 130.693 154.259C131.601 154.838 132.467 155.104 133.486 155.094C133.996 155.088 134.426 154.966 134.955 154.863C135.465 154.858 135.741 155.012 136.214 155.203C137.159 155.586 138.16 155.673 139.095 155.036C140.614 154.001 139.003 151.762 137.521 152.601Z" fill="#F7C300"/>
<path d="M140.444 125.878C130.231 124.453 120.092 122.634 109.949 120.306C108.1 119.854 107.561 122.704 109.428 123.057C119.473 125.367 129.71 127.204 139.923 128.629C141.71 128.866 142.33 126.133 140.444 125.878Z" fill="#F7C300"/>
<path d="M94.1246 130.235C94.3434 124.78 86.9394 125.719 86.7206 131.174C86.539 136.432 84.7482 141.588 83.9584 146.833C83.1687 152.078 81.5319 156.958 80.5643 162.068C79.5409 167.472 86.7134 168.83 87.7368 163.426C89.9006 152.538 93.6312 141.439 94.1246 130.235Z" fill="#F7C300"/>
<path d="M126.584 116.841C118.442 114.688 110.147 112.812 101.795 111.23C99.5351 110.802 98.9583 113.848 101.218 114.276C109.57 115.858 117.767 117.716 126.007 119.887C128.248 120.413 128.825 117.367 126.584 116.841Z" fill="black"/>
<path d="M141.528 124.455C128.171 122.434 114.79 120.002 101.619 116.998C98.1983 116.249 97.6215 119.295 101.042 120.044C114.232 122.949 127.594 125.48 140.951 127.501C144.409 128.054 145.084 125.026 141.528 124.455Z" fill="black"/>
<path d="M132.22 169.306C122.006 167.881 111.868 166.062 101.724 163.734C99.8755 163.282 99.3359 166.132 101.203 166.485C111.248 168.795 121.485 170.632 131.698 172.057C133.486 172.294 134.105 169.561 132.22 169.306Z" fill="#F7C300"/>
<path d="M118.359 160.269C110.217 158.116 101.922 156.24 93.5702 154.658C91.3103 154.23 90.7335 157.276 92.9933 157.704C101.345 159.286 109.542 161.144 117.782 163.315C120.023 163.841 120.6 160.795 118.359 160.269Z" fill="black"/>
<path d="M133.303 167.883C119.946 165.862 106.565 163.43 93.3938 160.426C89.9735 159.677 89.3967 162.723 92.8169 163.472C106.007 166.377 119.369 168.908 132.726 170.929C136.184 171.482 136.859 168.455 133.303 167.883Z" fill="black"/>
<path d="M152.397 126.717C153.285 121.491 154.075 116.246 154.883 110.903C154.989 109.804 154.002 109.108 153.16 109.254C153.16 109.254 153.16 109.254 153.062 109.235C152.392 109.007 151.723 108.778 151.036 108.648L151.073 108.451C150.581 108.358 150.072 108.364 149.679 108.289C148.481 108.164 147.204 107.922 146.025 107.699C143.175 107.159 139.325 106.532 136.475 105.992C130.758 105.011 125.158 103.95 119.459 102.871C112.286 101.513 105.231 100.075 98.1327 98.3234C97.2485 98.1559 96.6828 98.4559 96.4729 99.0268C96.2577 99.0878 96.024 99.2471 95.8699 99.5233C94.6135 101.321 94.2227 103.384 93.9302 105.466C93.5819 107.843 93.1353 110.201 92.7869 112.578C92.0106 117.214 91.2157 121.949 90.3411 126.567C88.6902 135.821 86.8428 145.038 84.9954 154.256C83.8923 159.543 82.8078 164.732 81.6064 170C81.4948 170.59 81.8134 171.057 82.1692 171.328C82.4267 171.58 82.7029 171.734 83.1941 171.827C87.9661 172.426 92.6265 173.614 97.324 174.605C102.12 175.615 106.817 176.607 111.595 177.715C119.516 179.419 128.125 181.253 136.299 182.699C137.085 182.848 137.871 182.997 138.657 183.146C138.853 183.183 139.05 183.22 139.167 183.14C139.382 183.079 139.499 183 139.714 182.939C139.947 182.779 140.237 182.325 140.293 182.031C140.33 181.834 140.367 181.638 140.288 181.521C145.26 163.328 149.31 145.165 152.397 126.717ZM136.74 179.831C136.642 179.812 136.544 179.794 136.445 179.775C128.37 178.348 119.957 176.551 112.232 174.884C107.437 173.874 102.739 172.883 97.9619 171.774C93.7556 170.876 89.4697 169.861 85.2076 169.257C89.0855 151.468 92.5704 133.605 95.6437 115.765C96.1276 113.21 96.5317 110.539 96.9173 107.966C97.247 105.687 97.4785 103.39 98.6553 101.476C109.861 104.107 121.259 106.265 132.595 108.209C135.543 108.767 139.59 109.432 142.537 109.99C144.797 110.418 147.057 110.846 149.335 111.176C149.434 111.194 149.532 111.213 149.63 111.232C150.22 111.343 150.809 111.455 151.282 111.646C151.478 111.683 151.656 111.819 151.755 111.837C149.135 129.967 145.73 147.947 141.44 165.76C140.234 170.519 139.009 175.375 137.704 180.115C137.526 179.98 137.133 179.905 136.74 179.831Z" fill="black"/>
<path d="M137.643 139.596C136.1 140.22 135.157 138.21 133.45 138.09C132.842 138.076 131.686 138.265 131.299 138.7C131.219 138.583 131.041 138.448 130.961 138.331C130.128 137.359 129.177 136.466 127.727 136.599C127.119 136.585 126.455 136.867 125.988 137.185C125.828 136.952 125.669 136.718 125.59 136.601C125.093 135.998 124.344 135.653 123.521 135.7C122.599 135.73 122.212 136.165 121.529 136.545C120.963 136.845 121.024 137.06 120.509 136.555C120.093 136.069 119.774 135.601 119.339 135.214C118.388 134.321 117.031 133.962 115.722 134.427C115.39 134.568 114.904 134.984 114.572 135.125C114.473 135.107 114.492 135.008 114.314 134.873C114.155 134.639 113.996 134.405 113.818 134.27C113.499 133.802 113.082 133.316 112.764 132.849C112.267 132.246 111.107 131.924 110.406 132.402L108.77 133.517C108.653 133.597 108.419 133.756 108.302 133.836C107.806 133.233 106.911 132.046 106.733 131.91C105.96 131.153 105.058 131.084 104.001 131.291C103.355 131.474 102.556 131.933 101.794 132.196C101.475 131.729 101.255 131.28 101.016 130.929C100.538 130.228 99.2606 129.986 98.6577 130.483C97.7228 131.12 96.7879 131.757 95.853 132.394C94.2169 133.509 96.1842 136.019 97.8203 134.904C98.2877 134.586 98.7552 134.267 99.2226 133.948C99.7801 134.766 100.571 135.425 101.825 135.255C102.648 135.208 103.368 134.632 104.032 134.35C104.032 134.35 104.247 134.289 104.462 134.228C104.542 134.345 104.621 134.462 104.701 134.579C105.516 135.649 106.57 137.07 108.198 137.073C109.218 137.063 110.134 136.524 110.971 135.868C111.865 137.055 112.957 138.28 114.701 138.203C115.328 138.118 116.404 137.813 116.791 137.378C116.908 137.298 116.908 137.298 117.025 137.218C117.203 137.354 117.362 137.587 117.423 137.803C118.337 138.892 119.348 139.999 121.093 139.922C121.916 139.875 122.777 139.631 123.38 139.134C123.459 139.251 123.539 139.368 123.539 139.368C124.71 140.709 126.295 140.399 127.74 139.756C127.857 139.677 127.955 139.695 127.955 139.695C128.035 139.812 128.213 139.948 128.213 139.948C128.611 140.532 129.126 141.037 129.758 141.462C130.507 141.807 131.293 141.956 132.036 141.791C132.368 141.651 132.799 141.529 133.051 141.271C133.168 141.191 133.168 141.191 133.285 141.112C133.383 141.13 133.364 141.229 133.462 141.247C134.633 142.589 137.01 142.937 138.651 142.332C140.723 141.605 139.536 138.734 137.643 139.596Z" fill="black"/>
<path d="M123.968 143.011C123.182 142.863 122.981 142.315 122.33 141.989C121.679 141.662 120.893 141.513 120.248 141.696C119.818 141.818 118.317 142.755 118.11 141.698C117.922 140.543 116.504 139.969 115.373 140.569C114.924 140.79 114.124 141.249 113.437 141.119C113.062 140.946 112.762 140.38 112.505 140.128C111.634 139.352 110.455 139.129 109.262 139.514C108.832 139.636 108.383 139.856 108.112 140.212C108.112 140.212 108.112 140.212 108.094 140.31C108.094 140.31 107.995 140.292 108.014 140.193C107.634 139.511 106.586 138.6 105.837 138.254C104.812 137.755 103.675 137.845 102.661 138.365C102.544 138.445 102.329 138.506 101.997 138.647L101.917 138.53C100.656 136.052 97.3684 136.752 95.5969 138.045C93.9608 139.16 95.9282 141.67 97.5642 140.555C97.9334 140.218 98.3822 139.998 98.8125 139.876C98.8735 140.091 98.8549 140.189 98.8363 140.287C99.1415 141.363 100.092 142.255 101.425 142.202C102.033 142.216 102.697 141.934 103.146 141.714C103.38 141.555 103.983 141.058 104.296 141.016C104.179 141.096 104.554 141.268 104.713 141.502C105.05 141.871 105.387 142.24 105.724 142.61C106.516 143.268 107.559 143.669 108.733 143.383C109.163 143.261 109.612 143.041 109.963 142.802C109.963 142.802 110.08 142.722 110.196 142.642C110.656 143.442 112.27 144.053 113.155 144.22C113.941 144.369 114.782 144.223 115.446 143.942C116.219 144.699 117.225 145.297 118.442 145.323C118.933 145.416 119.363 145.294 119.892 145.191C120.107 145.13 120.322 145.069 120.537 145.008C120.635 145.026 120.654 144.928 120.752 144.947C120.93 145.082 121.187 145.335 121.384 145.372C121.936 145.68 122.507 145.89 123.214 145.922C125.609 146.172 126.167 143.224 123.968 143.011Z" fill="black"/>
<path d="M139.077 151.369C138.511 151.669 137.468 151.268 136.878 151.156C135.994 150.988 135.091 150.919 134.249 151.065C133.838 151.089 133.272 151.389 132.898 151.216C132.603 151.16 132.364 150.81 132.088 150.656C131.376 150.114 130.646 149.67 129.663 149.484C128.976 149.354 128.134 149.5 127.47 149.781C127.353 149.861 127.138 149.922 127.04 149.903L126.96 149.786C126.721 149.436 126.365 149.165 126.009 148.894C125.377 148.469 124.61 148.222 123.787 148.269C122.865 148.298 122.244 148.893 121.402 149.039C120.775 149.124 120.18 148.502 119.628 148.194C118.898 147.751 118.168 147.307 117.283 147.14C116.301 146.953 115.618 147.333 114.697 147.362C113.892 147.311 113.414 146.61 112.666 146.265C111.818 145.901 110.817 145.813 109.994 145.861C109.171 145.908 107.806 146.668 106.94 146.402C106.35 146.29 106.008 145.411 105.573 145.023C104.861 144.482 103.995 144.216 103.172 144.263C102.134 144.372 101.297 145.028 100.498 145.487C100.498 145.487 100.381 145.567 100.264 145.646C100.044 145.198 99.4489 144.576 99.2286 144.127C97.8322 141.827 95.8456 143.181 94.0502 144.063C92.2362 145.042 94.2036 147.552 96.0175 146.572C96.2512 146.413 96.4664 146.352 96.7983 146.211C97.2762 146.913 97.7355 147.712 98.5453 148.273C100.245 149.51 101.881 148.395 103.363 147.556C103.461 147.575 103.578 147.495 103.695 147.416C103.835 147.748 104.191 148.019 104.449 148.271C105.142 148.911 106.087 149.294 107.088 149.382C107.991 149.451 108.95 149.225 109.792 149.079C110.222 148.957 110.769 148.756 111.143 148.928C111.635 149.021 111.953 149.489 112.309 149.76C113.039 150.203 113.886 150.567 114.808 150.538C115.533 150.472 116.412 150.13 117.081 150.358C117.848 150.605 118.443 151.227 119.094 151.553C119.824 151.997 120.788 152.281 121.63 152.136C122.453 152.088 123.234 151.727 123.898 151.446L123.916 151.347C123.996 151.464 124.076 151.581 124.076 151.581C124.413 151.95 124.75 152.319 125.204 152.609C125.953 152.954 126.641 153.085 127.482 152.939C127.894 152.915 128.226 152.774 128.656 152.652C129.185 152.549 129.087 152.53 129.363 152.684C129.737 152.857 130.056 153.324 130.51 153.614C130.865 153.885 131.338 154.076 131.829 154.169C132.99 154.491 133.986 154.069 135.024 153.96C135.964 153.833 136.91 154.215 137.892 154.401C138.991 154.508 139.932 154.38 140.829 153.94C142.957 152.918 140.891 150.389 139.077 151.369Z" fill="black"/>
<path d="M189.737 141.829C189.737 141.829 173.034 138.666 158.099 135.837C156.724 135.577 155.348 135.316 154.071 135.074C153.322 134.729 152.457 134.463 151.474 134.277C151.161 134.32 150.946 134.381 150.632 134.423C146.296 134.212 142.738 131.503 138.608 132.349C138.313 132.294 137.939 132.121 137.644 132.065C137.368 131.911 136.994 131.738 136.699 131.682C135.95 131.337 135.398 131.029 134.883 130.524C134.625 130.272 134.466 130.038 134.208 129.786C136.076 112.939 139.425 95.2535 142.841 78.2929C143.162 77.1324 143.465 76.0702 143.787 74.9098C144.51 72.7058 145.251 70.4035 146.072 68.2182C146.356 67.2542 146.758 66.2107 147.042 65.2467C147.675 61.9061 148.047 59.941 148.047 59.941L203.167 70.3802L189.639 141.81L189.737 141.829Z" fill="#F5F5F5"/>
<path d="M186.958 109.752C186.958 109.752 186.859 109.733 186.761 109.714C186.583 109.579 186.387 109.542 186.209 109.406C185.736 109.215 185.343 109.14 184.833 109.146C184.029 109.095 183.131 109.536 182.363 109.289C181.577 109.14 181.001 108.42 180.351 108.093C179.602 107.748 178.797 107.697 177.937 107.941C177.095 108.087 176.702 108.013 175.855 107.649C175.008 107.285 174.161 106.921 173.258 106.852C172.336 106.881 171.537 107.34 170.714 107.388C169.811 107.318 168.921 106.641 168.21 106.099C166.688 104.997 164.866 107.094 166.271 108.276C168.05 109.631 169.884 110.691 172.134 110.099C172.564 109.977 173.013 109.757 173.406 109.831C173.897 109.924 174.253 110.195 174.726 110.387C175.671 110.769 176.635 111.053 177.79 110.865C178.104 110.823 178.552 110.602 178.945 110.677C179.338 110.751 179.774 111.139 180.13 111.41C181.038 111.989 181.903 112.255 182.923 112.244C183.433 112.239 183.863 112.117 184.392 112.014C184.902 112.008 185.178 112.163 185.65 112.354C186.596 112.736 187.597 112.824 188.532 112.187C190.051 111.152 188.556 108.833 186.958 109.752Z" fill="#F7C300"/>
<path d="M189.9 82.9306C179.687 81.5053 169.548 79.6869 159.404 77.3586C157.556 76.9068 157.016 79.7562 158.883 80.1097C168.929 82.4194 179.166 84.2564 189.379 85.6817C191.246 86.0353 191.785 83.1859 189.9 82.9306Z" fill="#F7C300"/>
<path d="M192.858 111.378C192.639 116.832 200.043 115.894 200.262 110.439C200.443 105.181 202.234 100.024 203.024 94.7798C203.814 89.5351 205.451 84.6544 206.418 79.5453C207.442 74.1413 200.269 72.7829 199.246 78.1869C197.082 89.0744 193.253 100.155 192.858 111.378Z" fill="#F7C300"/>
<path d="M176.039 73.8936C167.898 71.741 159.602 69.8646 151.25 68.2829C148.991 67.8549 148.414 70.9008 150.674 71.3288C159.025 72.9104 167.223 74.7683 175.462 76.9395C177.783 77.5826 178.262 74.5181 176.039 73.8936Z" fill="black"/>
<path d="M191.063 81.6243C177.706 79.6035 164.325 77.171 151.154 74.1677C147.733 73.4181 147.157 76.464 150.577 77.2135C163.767 80.1186 177.129 82.6493 190.486 84.6702C193.962 85.1249 194.539 82.0791 191.063 81.6243Z" fill="black"/>
<path d="M181.675 126.359C171.462 124.933 161.323 123.115 151.179 120.787C149.331 120.335 148.791 123.184 150.658 123.538C160.704 125.847 170.941 127.684 181.154 129.11C183.021 129.463 183.56 126.614 181.675 126.359Z" fill="#F7C300"/>
<path d="M167.815 117.322C159.673 115.169 151.377 113.293 143.026 111.711C140.766 111.283 140.189 114.329 142.449 114.757C150.8 116.338 158.998 118.196 167.238 120.368C169.559 121.011 170.037 117.946 167.815 117.322Z" fill="black"/>
<path d="M182.857 124.954C169.5 122.933 156.119 120.501 142.947 117.497C139.527 116.748 138.95 119.794 142.371 120.543C155.56 123.448 168.923 125.979 182.28 128C185.738 128.553 186.314 125.507 182.857 124.954Z" fill="black"/>
<path d="M134.487 114.877C133.599 120.103 132.81 125.348 132.001 130.691C131.895 131.79 132.883 132.486 133.724 132.34C133.724 132.34 133.724 132.34 133.823 132.359C134.492 132.588 135.161 132.816 135.849 132.946L135.812 133.143C136.303 133.236 136.813 133.231 137.206 133.305C138.403 133.43 139.681 133.672 140.86 133.895C143.709 134.435 147.56 135.062 150.409 135.602C156.126 136.583 161.727 137.644 167.425 138.723C174.598 140.081 181.653 141.519 188.752 143.271C189.636 143.438 190.202 143.138 190.411 142.567C190.627 142.506 190.86 142.347 191.014 142.071C192.271 140.273 192.662 138.21 192.954 136.128C193.302 133.751 193.749 131.393 194.097 129.017C194.874 124.38 195.669 119.645 196.543 115.027C198.194 105.773 200.041 96.5558 201.889 87.3386C202.992 82.0515 204.076 76.8627 205.278 71.5942C205.389 71.0047 205.071 70.5373 204.715 70.2663C204.458 70.014 204.181 69.8599 203.69 69.7669C198.918 69.1684 194.258 67.9805 189.56 66.989C184.764 65.979 180.067 64.9876 175.29 63.8793C167.368 62.1755 158.759 60.3415 150.586 58.8952C149.8 58.7464 149.014 58.5975 148.228 58.4487C148.031 58.4114 147.835 58.3742 147.718 58.4539C147.503 58.5149 147.386 58.5946 147.171 58.6556C146.937 58.8149 146.647 59.2689 146.591 59.5637C146.554 59.7602 146.517 59.9567 146.597 60.0736C141.625 78.2661 137.574 96.4296 134.487 114.877ZM150.144 61.7632C150.243 61.7818 150.341 61.8004 150.439 61.819C158.514 63.2466 166.927 65.0434 174.652 66.71C179.448 67.72 184.145 68.7115 188.922 69.8198C193.129 70.7182 197.415 71.7335 201.677 72.3371C197.799 90.1262 194.314 107.99 191.241 125.829C190.757 128.384 190.353 131.055 189.967 133.629C189.637 135.907 189.406 138.204 188.229 140.119C177.023 137.487 165.625 135.329 154.289 133.385C151.342 132.827 147.295 132.162 144.347 131.604C142.087 131.176 139.827 130.748 137.549 130.419C137.451 130.4 137.352 130.381 137.254 130.363C136.665 130.251 136.075 130.139 135.602 129.948C135.406 129.911 135.228 129.775 135.13 129.757C137.749 111.628 141.154 93.6472 145.444 75.8343C146.65 71.0757 147.876 66.2189 149.18 61.4789C149.456 61.633 149.751 61.6888 150.144 61.7632Z" fill="black"/>
<path d="M187.098 96.6489C185.555 97.2727 184.613 95.2622 182.905 95.1424C182.297 95.129 181.142 95.3173 180.754 95.7527C180.674 95.6359 180.497 95.5004 180.417 95.3836C179.583 94.4114 178.633 93.519 177.183 93.6515C176.575 93.6381 175.911 93.9195 175.443 94.238C175.284 94.0043 175.125 93.7706 175.045 93.6537C174.548 93.0508 173.8 92.7054 172.976 92.7531C172.055 92.7821 171.667 93.2176 170.985 93.5972C170.419 93.8972 170.48 94.1123 169.965 93.6076C169.548 93.1216 169.229 92.6541 168.794 92.2663C167.843 91.3738 166.486 91.0151 165.177 91.4796C164.845 91.6202 164.359 92.0371 164.027 92.1778C163.929 92.1591 163.948 92.0609 163.77 91.9254C163.61 91.6917 163.451 91.458 163.273 91.3225C162.955 90.8551 162.538 90.369 162.219 89.9016C161.723 89.2986 160.562 88.9771 159.861 89.455L158.225 90.57C158.108 90.6496 157.874 90.8089 157.758 90.8886C157.261 90.2857 156.366 89.0984 156.188 88.963C155.416 88.206 154.513 88.1368 153.456 88.3437C152.811 88.5268 152.011 88.9861 151.249 89.2488C150.93 88.7814 150.71 88.3325 150.471 87.982C149.993 87.2808 148.716 87.0389 148.113 87.5354C147.178 88.1725 146.243 88.8097 145.308 89.4468C143.672 90.5619 145.64 93.0718 147.276 91.9568C147.743 91.6382 148.211 91.3196 148.678 91.001C149.236 91.8191 150.027 92.4778 151.28 92.3081C152.104 92.2604 152.823 91.6843 153.487 91.4029C153.487 91.4029 153.702 91.3419 153.917 91.2809C153.997 91.3977 154.077 91.5146 154.156 91.6315C154.972 92.7018 156.025 94.1228 157.653 94.1257C158.673 94.1153 159.589 93.5764 160.426 92.9206C161.321 94.1078 162.412 95.3323 164.157 95.2556C164.783 95.1708 165.859 94.8656 166.247 94.4301C166.364 94.3505 166.364 94.3505 166.481 94.2708C166.658 94.4063 166.818 94.64 166.879 94.8551C167.792 95.9441 168.804 97.0517 170.548 96.975C171.372 96.9274 172.232 96.6832 172.835 96.1867C172.915 96.3036 172.994 96.4205 172.994 96.4205C174.165 97.7618 175.751 97.4514 177.195 96.809C177.312 96.7293 177.41 96.748 177.41 96.748C177.49 96.8648 177.668 97.0003 177.668 97.0003C178.066 97.5846 178.581 98.0893 179.213 98.5143C179.962 98.8596 180.748 99.0085 181.492 98.844C181.824 98.7033 182.254 98.5812 182.506 98.3237C182.623 98.2441 182.623 98.2441 182.74 98.1644C182.838 98.183 182.82 98.2813 182.918 98.2999C184.089 99.6412 186.465 99.9895 188.107 99.3844C190.276 98.6757 189.071 95.9031 187.098 96.6489Z" fill="black"/>
<path d="M173.522 100.083C172.736 99.9338 172.534 99.3867 171.884 99.0599C171.233 98.7331 170.447 98.5843 169.802 98.7674C169.372 98.8895 167.871 99.8266 167.664 98.7696C167.476 97.6144 166.058 97.0405 164.926 97.6405C164.478 97.8608 163.678 98.3201 162.99 98.1898C162.616 98.0171 162.316 97.4514 162.058 97.1991C161.188 96.4235 160.008 96.2002 158.816 96.585C158.386 96.7071 157.937 96.9274 157.666 97.2832C157.666 97.2832 157.666 97.2832 157.647 97.3815C157.647 97.3815 157.549 97.3629 157.568 97.2646C157.188 96.5821 156.139 95.671 155.391 95.3256C154.366 94.8262 153.229 94.9162 152.214 95.4365C152.098 95.5162 151.882 95.5772 151.55 95.7179L151.471 95.6011C150.21 93.1231 146.922 93.8236 145.151 95.1165C143.515 96.2315 145.482 98.7415 147.118 97.6264C147.487 97.2892 147.936 97.0689 148.366 96.9468C148.427 97.162 148.409 97.2602 148.39 97.3585C148.695 98.434 149.646 99.3265 150.979 99.2736C151.587 99.287 152.251 99.0057 152.7 98.7853C152.933 98.6261 153.536 98.1296 153.85 98.0871C153.733 98.1668 154.107 98.3395 154.267 98.5732C154.604 98.9424 154.941 99.3116 155.278 99.6808C156.069 100.34 157.113 100.741 158.287 100.454C158.717 100.332 159.166 100.112 159.516 99.8728C159.516 99.8728 159.633 99.7932 159.75 99.7135C160.209 100.513 161.824 101.124 162.708 101.292C163.494 101.44 164.336 101.294 165 101.013C165.773 101.77 166.779 102.368 167.995 102.395C168.487 102.488 168.917 102.366 169.445 102.262C169.66 102.201 169.876 102.14 170.091 102.079C170.189 102.098 170.207 101.999 170.306 102.018C170.484 102.153 170.741 102.406 170.938 102.443C171.49 102.751 172.061 102.961 172.767 102.993C175.163 103.243 175.702 100.394 173.522 100.083Z" fill="black"/>
<path d="M188.631 108.44C188.065 108.74 187.022 108.339 186.432 108.227C185.548 108.06 184.645 107.991 183.803 108.136C183.391 108.16 182.826 108.46 182.451 108.288C182.156 108.232 181.918 107.881 181.641 107.727C180.93 107.185 180.2 106.742 179.217 106.555C178.529 106.425 177.687 106.571 177.023 106.852C176.907 106.932 176.692 106.993 176.593 106.975L176.514 106.858C176.275 106.507 175.919 106.236 175.563 105.965C174.931 105.54 174.164 105.293 173.34 105.341C172.419 105.37 171.797 105.964 170.956 106.11C170.329 106.195 169.734 105.574 169.182 105.266C168.452 104.822 167.721 104.378 166.837 104.211C165.855 104.025 165.172 104.404 164.251 104.433C163.446 104.383 162.968 103.682 162.219 103.336C161.372 102.972 160.371 102.884 159.548 102.932C158.725 102.98 157.359 103.739 156.494 103.473C155.904 103.362 155.562 102.483 155.126 102.095C154.415 101.553 153.549 101.287 152.726 101.335C151.687 101.443 150.851 102.099 150.051 102.558C150.051 102.558 149.935 102.638 149.818 102.718C149.597 102.269 149.003 101.647 148.782 101.199C147.386 98.8985 145.399 100.253 143.604 101.134C141.79 102.113 143.757 104.623 145.571 103.644C145.805 103.484 146.02 103.423 146.352 103.283C146.83 103.984 147.289 104.783 148.099 105.344C149.798 106.582 151.434 105.467 152.916 104.628C153.015 104.646 153.132 104.567 153.248 104.487C153.389 104.819 153.745 105.09 154.002 105.342C154.695 105.982 155.641 106.365 156.642 106.453C157.545 106.522 158.503 106.297 159.345 106.151C159.776 106.029 160.323 105.827 160.697 106C161.188 106.093 161.507 106.56 161.863 106.831C162.593 107.275 163.44 107.639 164.361 107.61C165.086 107.543 165.966 107.201 166.635 107.429C167.402 107.676 167.997 108.298 168.647 108.625C169.378 109.068 170.342 109.353 171.183 109.207C172.007 109.159 172.787 108.798 173.451 108.517L173.47 108.419C173.55 108.535 173.629 108.652 173.629 108.652C173.966 109.021 174.304 109.391 174.758 109.68C175.507 110.026 176.194 110.156 177.036 110.01C177.448 109.986 177.78 109.845 178.21 109.723C178.738 109.62 178.64 109.601 178.916 109.755C179.291 109.928 179.609 110.396 180.063 110.685C180.419 110.956 180.892 111.147 181.383 111.24C182.544 111.562 183.539 111.14 184.578 111.031C185.518 110.904 186.463 111.286 187.446 111.473C188.545 111.579 189.485 111.452 190.383 111.011C192.412 109.97 190.445 107.461 188.631 108.44Z" fill="black"/>
<path d="M43.3861 78.3879C42.0582 78.9507 40.81 79.6303 39.4821 80.193C38.4675 80.7133 37.5326 81.3504 37.5855 82.6836C37.7552 83.937 38.3976 85.3818 38.7028 86.4574C38.9045 87.0045 39.008 87.533 39.2283 87.9818C38.0969 88.5817 37.0451 89.2986 35.9137 89.8985C35.2312 90.2781 35.0265 91.3589 35.523 91.9618C36.5956 93.2845 37.4531 94.6682 38.2919 96.1502L38.3716 96.2671C38.1379 96.4264 38.0024 96.6043 37.7687 96.7636C37.0675 97.2414 36.1512 97.7803 35.5483 98.2768C34.4593 99.1901 34.2174 100.467 35.0139 101.636C35.651 102.571 36.4847 103.543 37.2387 104.398L35.2469 105.242C34.1527 105.646 32.7451 106.092 32.6015 107.388C32.3782 108.567 33.3339 109.969 33.7374 111.063C34.1594 112.059 34.5629 113.153 34.9849 114.149L32.9558 115.19C32.0582 115.63 31.1605 116.071 31.1523 117.189C31.1017 117.994 31.6592 118.812 32.0388 119.494C32.3388 120.06 32.6574 120.528 32.9574 121.093C33.1166 121.327 33.2759 121.561 33.4352 121.794L33.5149 121.911C33.1829 122.052 32.6782 122.567 32.5614 122.647C32.0939 122.965 31.7247 123.302 31.2387 123.719C30.6358 124.216 29.916 124.792 29.945 125.713C29.9554 126.733 30.6298 127.471 31.1873 128.29L33.3564 131.347C34.4714 132.983 36.9255 131.31 35.8105 129.674C35.5715 129.323 33.9972 126.888 33.3601 125.953C33.7107 125.714 33.963 125.457 34.3136 125.218C34.9165 124.721 35.599 124.342 36.1037 123.826C36.9776 122.974 36.9857 121.856 36.3858 120.725C35.9876 120.14 35.4911 119.538 35.1115 118.855C34.9522 118.621 34.6336 118.154 34.4133 117.705C35.4464 117.086 36.6575 116.603 37.6534 116.181C38.2191 115.881 38.4848 115.016 38.1848 114.45C37.3408 112.458 36.5153 110.368 35.7694 108.395C36.181 108.371 36.6671 107.954 37.0973 107.832C38.0933 107.41 39.0892 106.988 40.202 106.486C40.9828 106.125 41.5991 105.021 40.9433 104.184C40.3672 103.464 39.7911 102.744 39.215 102.025C38.8778 101.655 38.3575 100.641 37.9034 100.351C38.3336 100.229 38.7214 99.7938 39.072 99.5549C39.7546 99.1752 40.554 98.716 41.0587 98.2009C42.2035 96.9928 41.5239 95.7445 40.8257 94.5945C40.3054 93.58 39.57 92.6265 38.9328 91.6916C40.0642 91.0917 41.116 90.3748 42.2474 89.7749C43.0468 89.3156 43.0922 88.0011 42.3992 87.361C41.2521 86.4313 41.3482 84.3122 40.6872 82.9657C41.0005 82.9232 41.5849 82.525 41.8186 82.3657C42.5994 82.0047 43.4971 81.564 44.2779 81.203C46.1529 80.4386 45.1629 77.6049 43.3861 78.3879Z" fill="#F7C300"/>
<path d="M187.34 152.876C187.517 153.011 187.597 153.128 187.775 153.264C187.873 153.282 187.873 153.282 187.972 153.301L188.07 153.32C188.168 153.338 188.168 153.338 188.266 153.357C188.365 153.375 188.481 153.296 188.58 153.314L188.696 153.235L188.813 153.155L188.93 153.075C188.93 153.075 188.93 153.075 189.047 152.996C189.066 152.897 189.164 152.916 189.183 152.818C189.183 152.818 189.183 152.818 189.201 152.72C189.22 152.621 189.22 152.621 189.337 152.542C189.337 152.542 189.374 152.345 189.355 152.443L189.374 152.345C189.392 152.247 189.392 152.247 189.411 152.149C189.448 151.952 189.448 151.952 189.467 151.854C189.424 151.541 189.382 151.227 189.321 151.012C189.241 150.895 189.279 150.699 189.199 150.582C189.119 150.465 189.138 150.367 189.058 150.25C189.077 150.152 188.979 150.133 188.899 150.016C188.819 149.899 188.74 149.782 188.66 149.666C188.66 149.666 188.66 149.666 188.562 149.647C188.482 149.53 188.482 149.53 188.402 149.413C187.925 148.712 187.447 148.011 186.969 147.31C186.056 146.221 184.778 145.979 183.61 146.775C182.675 147.412 181.703 148.246 180.847 149L180.003 147.008C179.483 145.994 179.154 144.507 177.858 144.363C176.679 144.14 175.277 145.095 174.281 145.517C173.285 145.939 172.191 146.343 171.195 146.765L170.154 144.736C169.713 143.838 169.273 142.941 168.155 142.932C167.332 142.98 166.532 143.439 165.85 143.819C165.284 144.119 164.816 144.437 164.349 144.756C164.115 144.915 163.882 145.075 163.648 145.234L163.531 145.314C163.39 144.982 162.875 144.477 162.796 144.36C162.477 143.893 162.14 143.523 161.723 143.037C161.226 142.434 160.632 141.813 159.729 141.744C158.709 141.754 157.971 142.428 157.153 142.986L154.096 145.155C152.558 146.289 154.23 148.743 155.768 147.609C156.119 147.37 158.554 145.796 159.508 145.06C159.747 145.411 160.004 145.663 160.243 146.014C160.74 146.617 161.138 147.201 161.733 147.823C162.683 148.715 163.703 148.705 164.834 148.105C165.419 147.707 166.022 147.21 166.704 146.83C166.938 146.671 167.405 146.353 167.854 146.132C168.473 147.165 168.956 148.376 169.476 149.391C169.776 149.957 170.642 150.222 171.207 149.922C173.199 149.078 175.191 148.234 177.281 147.409C177.305 147.82 177.722 148.306 177.844 148.737C178.266 149.733 178.786 150.747 179.208 151.743C179.569 152.524 180.674 153.14 181.511 152.484C182.23 151.908 182.95 151.332 183.67 150.756C184.039 150.419 184.955 149.88 185.343 149.445C185.484 149.776 185.901 150.263 186.14 150.613C186.267 151.553 186.726 152.353 187.34 152.876Z" fill="#F7C300"/>
<path d="M262.258 254.39C261.411 254.026 260.989 253.03 261.372 252.085C261.736 251.238 262.732 250.816 263.677 251.198C264.328 251.525 264.997 251.753 265.666 251.982C270.196 253.858 274.978 255.476 279.915 256.818C280.879 257.102 281.418 258.018 281.133 258.982C280.849 259.946 279.933 260.485 278.969 260.201C273.953 258.742 269.072 257.105 264.444 255.211C263.676 254.964 262.909 254.717 262.258 254.39ZM246.725 246.664C246.626 246.646 246.626 246.646 246.528 246.627C241.852 243.91 236.919 240.94 231.704 237.306C230.894 236.745 230.687 235.688 231.247 234.879C231.808 234.069 232.865 233.862 233.675 234.422C238.81 237.939 243.645 240.891 248.223 243.589C249.051 244.052 249.357 245.127 248.894 245.956C248.549 246.705 247.572 247.028 246.725 246.664ZM295.56 263.954C294.811 263.608 294.45 262.828 294.599 262.042C294.785 261.059 295.702 260.52 296.605 260.589C302.027 261.515 307.585 262.262 313.69 262.807C314.691 262.895 315.347 263.732 315.259 264.733C315.171 265.734 314.335 266.39 313.334 266.302C307.13 265.738 301.474 264.972 295.953 264.028C295.836 264.108 295.64 264.071 295.56 263.954ZM217.912 227.366C217.814 227.347 217.734 227.23 217.538 227.193C212.538 223.498 208.128 219.915 203.816 216.35C203.123 215.71 203.014 214.672 203.575 213.862C204.215 213.169 205.253 213.06 206.063 213.621C210.277 217.167 214.706 220.652 219.607 224.328C220.417 224.889 220.507 226.025 219.965 226.737C219.522 227.467 218.661 227.711 217.912 227.366ZM330.133 267.346C329.482 267.02 329.084 266.435 329.116 265.729C329.185 264.826 329.942 264.053 330.962 264.043C336.122 264.206 341.791 264.364 348.303 264.376C349.224 264.346 349.997 265.104 350.007 266.123C350.037 267.045 349.28 267.817 348.26 267.828C341.748 267.816 336.079 267.658 330.821 267.477C330.507 267.519 330.311 267.482 330.133 267.346ZM191.44 204.847C191.244 204.809 191.066 204.674 190.888 204.539C186.608 200.268 182.543 195.935 178.97 191.696C178.394 190.977 178.5 189.877 179.22 189.301C179.939 188.725 181.039 188.831 181.615 189.551C185.09 193.772 189.076 197.987 193.276 202.141C193.969 202.781 193.961 203.899 193.321 204.592C192.835 205.009 192.091 205.173 191.44 204.847ZM364.791 267.6C364.239 267.292 363.742 266.689 363.774 265.982C363.745 265.061 364.521 264.19 365.522 264.278C370.307 264.268 376.641 264.145 382.876 264.002C383.798 263.973 384.669 264.749 384.698 265.671C384.727 266.592 383.951 267.463 383.03 267.492C376.776 267.732 370.461 267.758 365.675 267.767C365.264 267.791 365.067 267.754 364.791 267.6ZM169.417 178.183C169.141 178.029 168.865 177.875 168.626 177.524C166.654 174.504 164.817 171.307 163.176 168.146C162.717 167.347 163.02 166.285 163.917 165.844C164.717 165.385 165.779 165.688 166.22 166.585C167.879 169.648 169.636 172.728 171.51 175.73C172.068 176.548 171.765 177.61 170.947 178.167C170.498 178.388 169.89 178.374 169.417 178.183ZM399.532 266.343C398.961 266.133 398.563 265.548 398.478 264.922C398.35 263.982 399.126 263.111 400.047 263.082C405.731 262.631 410.941 261.99 416.072 261.231L417.129 261.024C418.069 260.897 418.977 261.476 419.104 262.416C419.231 263.356 418.652 264.264 417.712 264.392L416.557 264.58C411.408 265.437 406.099 266.06 400.318 266.491C400.004 266.534 399.808 266.497 399.532 266.343ZM433.739 260.913C433.267 260.722 432.85 260.236 432.746 259.707C432.521 258.749 433.1 257.841 434.059 257.615C436.191 257.103 438.422 256.609 440.536 256.195C444.039 255.434 447.542 254.673 451.045 253.911C452.003 253.686 452.911 254.265 453.137 255.223C453.363 256.182 452.783 257.09 451.825 257.316C448.322 258.077 444.917 258.857 441.414 259.619C439.282 260.131 437.051 260.624 434.937 261.038C434.507 261.16 434.114 261.086 433.739 260.913ZM467.796 254.132C467.225 253.922 466.907 253.455 466.822 252.828C466.694 251.888 467.372 250.998 468.312 250.871C473.953 250.107 479.869 249.498 485.712 249.281C486.633 249.252 487.504 250.028 487.533 250.949C487.562 251.871 486.786 252.741 485.865 252.771C480.121 253.006 474.321 253.536 468.779 254.318C468.386 254.244 468.091 254.188 467.796 254.132ZM502.396 252.543C501.746 252.216 501.347 251.632 501.379 250.925C501.449 250.022 502.206 249.25 503.225 249.239C508.876 249.495 514.785 250.004 520.675 250.61C521.676 250.698 522.313 251.633 522.244 252.536C522.156 253.537 521.221 254.174 520.318 254.105C514.545 253.419 508.735 252.929 503.182 252.692C502.887 252.636 502.593 252.58 502.396 252.543ZM536.857 256.525C536.108 256.179 535.747 255.399 535.896 254.613C536.082 253.63 536.998 253.091 537.883 253.259C543.385 254.301 549.163 255.497 555.003 256.908C555.985 257.094 556.505 258.109 556.24 258.974C556.054 259.957 555.039 260.477 554.173 260.211C548.432 258.819 542.752 257.641 537.25 256.599C537.133 256.679 537.054 256.562 536.857 256.525ZM570.635 264.652C569.886 264.307 569.445 263.409 569.711 262.543C569.995 261.579 570.912 261.041 571.875 261.325C577.186 262.84 582.853 264.625 588.501 266.509C589.367 266.775 589.887 267.789 589.621 268.655C589.337 269.619 588.341 270.041 587.475 269.775C581.827 267.891 576.24 266.223 570.948 264.61C570.831 264.689 570.733 264.671 570.635 264.652Z" fill="black"/>
<path d="M33.2347 59.9774C33.426 59.5047 33.6359 58.9338 33.944 58.3815C34.4807 57.16 35.0174 55.9385 35.5354 54.8153C36.6884 52.4892 38.0007 50.3969 39.6873 48.4772C40.2106 47.8639 41.0949 48.0314 41.7082 48.5546C41.8065 48.5732 41.7879 48.6715 41.7693 48.7697C41.9472 48.9052 42.1251 49.0407 42.2844 49.2744C44.5941 52.6634 46.8055 56.0338 49.1152 59.4227C49.4338 59.8902 49.2664 60.7745 48.8786 61.2099C47.8692 62.2401 46.3582 62.1575 45.0065 62.3086L40.9513 62.7619C39.5013 62.8944 38.0513 63.0269 36.6014 63.1594C35.3479 63.3291 33.295 63.9581 32.7084 62.2186C32.5625 61.3767 32.9876 60.7448 33.2347 59.9774ZM40.8032 59.7823C41.9398 59.6922 42.9781 59.5836 44.0165 59.4749C44.545 59.3714 45.0549 59.3662 45.5647 59.361C43.8922 56.9069 42.3179 54.4714 40.6453 52.0173C39.6784 53.3609 38.8098 54.723 38.119 56.2206C37.6196 57.2456 37.1388 58.1723 36.7376 59.2159C36.5649 59.5903 36.3922 59.9647 36.2195 60.3391C36.6311 60.3153 37.0427 60.2915 37.473 60.1694L40.8032 59.7823Z" fill="#1E1E1E"/>
<path d="M211.221 56.3337C211.768 56.132 212.316 55.9302 212.844 55.8268C214.036 55.4419 215.346 54.9775 216.52 54.6909C218.984 54.0381 221.51 53.6004 223.979 53.4575C224.704 53.3912 225.36 54.2279 225.23 54.9156C225.211 55.0139 225.193 55.1121 225.193 55.1121C225.254 55.3273 225.198 55.622 225.161 55.8185C224.201 59.8097 223.162 63.684 222.203 67.6752C222.091 68.2647 221.292 68.724 220.684 68.7106C219.271 68.6466 218.278 67.4407 217.327 66.5483L214.279 63.8337C213.249 62.8244 212.102 61.8947 211.072 60.8853C210.121 59.9929 208.286 58.933 209.192 57.3743C209.716 56.7609 210.459 56.5964 211.221 56.3337ZM216.494 61.8105C217.267 62.5675 218.156 63.2449 218.929 64.0019C219.266 64.3711 219.72 64.6606 220.058 65.0298C220.794 62.2177 221.45 59.2887 222.186 56.4765C220.619 56.6887 218.936 56.9805 217.43 57.4077C216.354 57.7129 215.279 58.0181 214.301 58.3419C213.871 58.464 213.539 58.6047 213.109 58.7267C213.465 58.9977 213.722 59.25 214.06 59.6192L216.494 61.8105Z" fill="#59C59F"/>
<path d="M47.2639 171.842C47.811 171.64 48.358 171.438 48.8865 171.335C50.079 170.95 51.3883 170.486 52.5621 170.199C55.0266 169.546 57.5522 169.108 60.0219 168.966C60.7469 168.899 61.4027 169.736 61.2724 170.424C61.2538 170.522 61.2352 170.62 61.2352 170.62C61.2962 170.835 61.2404 171.13 61.2032 171.327C60.2437 175.318 59.2047 179.192 58.2452 183.183C58.1336 183.773 57.3342 184.232 56.726 184.219C55.3133 184.155 54.3203 182.949 53.3698 182.056L50.3217 179.342C49.2915 178.332 48.1444 177.403 47.1143 176.393C46.1637 175.501 44.3289 174.441 45.2348 172.882C45.7581 172.269 46.5017 172.104 47.2639 171.842ZM52.5368 177.319C53.3095 178.076 54.1989 178.753 54.9716 179.51C55.3088 179.879 55.7628 180.169 56.1 180.538C56.8361 177.726 57.4926 174.797 58.2288 171.985C56.6619 172.197 54.9782 172.489 53.4724 172.916C52.3969 173.221 51.3213 173.526 50.344 173.85C49.9137 173.972 49.5818 174.113 49.1515 174.235C49.5073 174.506 49.7649 174.758 50.1021 175.127L52.5368 177.319Z" fill="#59C59F"/>
<path d="M511.203 264.083C511.75 263.881 512.297 263.679 512.825 263.576C514.018 263.191 515.327 262.727 516.501 262.44C518.965 261.787 521.491 261.35 523.961 261.207C524.686 261.14 525.341 261.977 525.211 262.665C525.192 262.763 525.174 262.861 525.174 262.861C525.235 263.077 525.179 263.371 525.142 263.568C524.182 267.559 523.143 271.433 522.184 275.424C522.072 276.014 521.273 276.473 520.665 276.46C519.252 276.396 518.259 275.19 517.308 274.298L514.26 271.583C513.23 270.574 512.083 269.644 511.053 268.635C510.102 267.742 508.268 266.682 509.174 265.124C509.795 264.529 510.539 264.364 511.203 264.083ZM516.476 269.56C517.248 270.317 518.138 270.994 518.91 271.751C519.247 272.12 519.702 272.41 520.039 272.779C520.775 269.967 521.431 267.038 522.167 264.226C520.601 264.438 518.917 264.73 517.411 265.157C516.336 265.462 515.26 265.767 514.283 266.091C513.852 266.213 513.52 266.354 513.09 266.476C513.446 266.747 513.704 266.999 514.041 267.368L516.476 269.56Z" fill="#59C59F"/>
<path d="M427.977 234.377C428.412 234.765 428.866 235.055 429.301 235.442C430.271 236.237 431.221 237.129 432.172 238.022C433.974 239.788 435.66 241.634 436.977 243.817C437.357 244.5 437.072 245.464 436.39 245.843C436.371 245.941 436.273 245.923 436.175 245.904C436.039 246.082 435.806 246.241 435.591 246.302C431.859 247.733 428.146 249.065 424.513 250.515C423.966 250.716 423.217 250.371 422.917 249.805C422.238 248.557 422.732 247.022 422.876 245.726L423.559 241.581C423.74 240.089 424.019 238.615 424.298 237.141C424.54 235.864 424.458 233.609 426.203 233.533C426.848 233.349 427.363 233.854 427.977 234.377ZM426.23 241.985C426.026 243.066 425.919 244.165 425.715 245.246C425.621 245.738 425.51 246.327 425.417 246.818C428.054 245.791 430.789 244.783 433.427 243.755C432.452 242.451 431.361 241.227 430.251 240.101C429.479 239.344 428.706 238.587 427.915 237.928C427.657 237.676 427.301 237.405 426.946 237.134C426.871 237.527 426.778 238.018 426.802 238.43L426.23 241.985Z" fill="#1E1E1E"/>
<path fill-rule="evenodd" clip-rule="evenodd" d="M300.765 276.237C298.014 275.716 294.764 276.22 292.745 278.28C290.61 280.42 289.977 283.761 290.967 286.594C291.15 287.24 291.53 287.922 292.026 288.525C292.879 289.399 294.137 289.739 294.806 289.968C295.869 290.271 297.225 290.63 298.675 290.497C300.341 290.303 301.804 289.563 302.973 288.766C304.006 288.148 305.095 287.235 305.809 286.149C306.641 284.983 307.135 283.448 306.824 281.863C306.419 278.631 303.615 276.777 300.765 276.237ZM300.207 279.184C302.271 279.575 303.675 280.757 303.967 282.441C304.052 283.068 303.922 283.755 303.38 284.467C302.936 285.197 302.216 285.773 301.3 286.312C300.267 286.931 299.351 287.47 298.429 287.499C297.606 287.546 296.722 287.379 295.758 287.095C294.99 286.848 294.518 286.656 294.26 286.404C294.082 286.268 293.941 285.936 293.801 285.604C293.135 283.748 293.624 281.703 294.885 280.416C296.011 279.306 298.144 278.794 300.207 279.184Z" fill="#F7C300"/>
<path fill-rule="evenodd" clip-rule="evenodd" d="M105.306 11.5426C102.555 11.0216 99.3046 11.5255 97.286 13.5858C95.1505 15.7258 94.5178 19.0665 95.5078 21.9002C95.6909 22.5455 96.0705 23.2281 96.567 23.831C97.4193 24.7048 98.678 25.045 99.3471 25.2735C100.409 25.5765 101.766 25.9352 103.216 25.8027C104.881 25.6092 106.345 24.8686 107.513 24.0721C108.546 23.4535 109.635 22.5402 110.35 21.4542C111.181 20.2886 111.676 18.7537 111.365 17.1683C110.861 13.9177 108.057 12.0636 105.306 11.5426ZM104.748 14.4902C106.811 14.881 108.216 16.063 108.508 17.7467C108.593 18.3734 108.462 19.0612 107.92 19.7728C107.477 20.503 106.757 21.0791 105.841 21.618C104.808 22.2366 103.891 22.7755 102.97 22.8045C102.147 22.8521 101.262 22.6847 100.298 22.4003C99.531 22.1532 99.0583 21.9619 98.8008 21.7096C98.6229 21.5741 98.4822 21.2422 98.3415 20.9102C97.7736 19.0724 98.1643 17.0091 99.426 15.7214C100.552 14.6115 102.685 14.0994 104.748 14.4902Z" fill="#F7C300"/>
<path fill-rule="evenodd" clip-rule="evenodd" d="M72.1838 186.434C69.4327 185.913 66.1822 186.417 64.1635 188.477C62.028 190.617 61.3954 193.958 62.3853 196.791C62.5685 197.437 62.9481 198.119 63.4446 198.722C64.2968 199.596 65.5555 199.936 66.2247 200.165C67.2869 200.468 68.6438 200.826 70.0938 200.694C71.7589 200.5 73.2223 199.76 74.3909 198.963C75.424 198.345 76.513 197.431 77.2276 196.345C78.059 195.18 78.5532 193.645 78.2428 192.059C77.7389 188.809 74.9349 186.955 72.1838 186.434ZM71.6256 189.381C73.6889 189.772 75.0935 190.954 75.3853 192.638C75.4701 193.265 75.3399 193.952 74.798 194.664C74.3544 195.394 73.6346 195.97 72.7183 196.509C71.6852 197.128 70.7689 197.667 69.8474 197.696C69.0241 197.743 68.1399 197.576 67.1759 197.291C66.4085 197.044 65.9359 196.853 65.6783 196.601C65.5004 196.465 65.3597 196.133 65.2191 195.801C64.5529 193.945 65.0419 191.9 66.3035 190.612C67.4297 189.503 69.5623 188.991 71.6256 189.381Z" fill="black"/>
</svg>
