<svg width="545" height="404" viewBox="0 0 545 404" fill="none" xmlns="http://www.w3.org/2000/svg">
<path d="M307.279 156.209C307.301 155.723 307.307 155.142 307.408 154.546C307.501 153.275 307.594 152.004 307.701 150.828C307.996 148.366 308.508 146.063 309.413 143.796C309.688 143.077 310.538 142.945 311.257 143.22C311.352 143.206 311.366 143.3 311.381 143.394C311.584 143.459 311.788 143.525 312.006 143.684C315.167 145.997 318.235 148.324 321.397 150.636C321.833 150.955 321.965 151.805 321.755 152.321C321.175 153.57 319.789 153.979 318.62 154.547L315.115 156.25C313.852 156.833 312.589 157.415 311.327 157.998C310.253 158.551 308.606 159.773 307.522 158.395C307.122 157.684 307.302 156.979 307.279 156.209ZM314.03 153.616C315.024 153.171 315.924 152.742 316.824 152.312C317.266 152.05 317.724 151.883 318.181 151.715C315.891 150.04 313.696 148.351 311.407 146.677C310.966 148.195 310.619 149.699 310.476 151.267C310.354 152.349 310.217 153.337 310.189 154.405C310.153 154.797 310.118 155.189 310.082 155.581C310.445 155.428 310.808 155.275 311.156 155.028L314.03 153.616Z" fill="#1E1E1E"/>
<path d="M305.862 125.886C306.29 125.53 306.718 125.173 307.16 124.911C308.111 124.184 309.141 123.347 310.106 122.714C312.116 121.339 314.249 120.139 316.426 119.221C317.058 118.93 317.915 119.473 318.018 120.134C318.033 120.228 318.047 120.323 318.047 120.323C318.171 120.497 318.215 120.78 318.244 120.969C318.656 124.868 318.958 128.687 319.37 132.586C319.458 133.152 318.885 133.821 318.333 134.003C317.041 134.397 315.762 133.629 314.621 133.129L311.01 131.66C309.761 131.08 308.431 130.61 307.181 130.031C306.041 129.531 304.05 129.163 304.368 127.471C304.643 126.752 305.26 126.366 305.862 125.886ZM312.358 129.131C313.295 129.566 314.312 129.891 315.25 130.326C315.671 130.55 316.172 130.666 316.594 130.89C316.358 128.124 316.013 125.278 315.777 122.511C314.435 123.203 313.012 124.003 311.793 124.869C310.923 125.487 310.052 126.106 309.276 126.71C308.928 126.957 308.674 127.19 308.325 127.437C308.732 127.567 309.045 127.712 309.466 127.937L312.358 129.131Z" fill="#59C59F"/>
<path d="M353.9 34.9221C354.328 34.5657 354.756 34.2093 355.199 33.9474C356.149 33.22 357.18 32.3836 358.145 31.7506C360.154 30.3756 362.288 29.1747 364.465 28.257C365.097 27.9657 365.954 28.5092 366.057 29.1699C366.071 29.2643 366.086 29.3587 366.086 29.3587C366.21 29.5328 366.254 29.816 366.283 30.0048C366.694 33.9039 366.997 37.7232 367.409 41.6222C367.496 42.1886 366.924 42.8574 366.372 43.0396C365.08 43.4334 363.801 42.6652 362.66 42.1656L359.049 40.696C357.799 40.1166 356.47 39.6463 355.22 39.0669C354.079 38.5673 352.089 38.1994 352.407 36.507C352.761 35.6788 353.393 35.3875 353.9 34.9221ZM360.397 38.1672C361.334 38.6017 362.351 38.9272 363.288 39.3617C363.71 39.5863 364.211 39.7019 364.632 39.9265C364.397 37.16 364.052 34.3138 363.816 31.5474C362.473 32.2389 361.051 33.0395 359.832 33.9052C358.961 34.5236 358.091 35.1419 357.315 35.7456C356.966 35.993 356.712 36.2257 356.364 36.473C356.771 36.6032 357.083 36.748 357.505 36.9726L360.397 38.1672Z" fill="#F7C300"/>
<path d="M159.972 293.89C160.488 294.1 160.989 294.216 161.505 294.426C162.631 294.831 163.772 295.33 164.913 295.83C167.1 296.844 169.207 297.967 171.09 299.511C171.649 300.004 171.702 300.963 171.208 301.523C171.223 301.617 171.129 301.632 171.034 301.646C170.969 301.85 170.81 302.068 170.636 302.191C167.734 304.671 164.818 307.057 162.01 309.522C161.582 309.878 160.798 309.807 160.347 309.394C159.337 308.487 159.291 306.948 159.007 305.735L158.297 301.786C157.983 300.385 157.764 298.969 157.544 297.553C157.354 296.326 156.56 294.323 158.106 293.696C158.722 293.311 159.347 293.6 159.972 293.89ZM160.925 301.281C161.086 302.32 161.342 303.343 161.503 304.381C161.576 304.853 161.664 305.42 161.737 305.892C163.783 304.124 165.923 302.343 167.968 300.575C166.675 299.713 165.301 298.959 163.943 298.3C163.005 297.866 162.068 297.431 161.145 297.091C160.833 296.946 160.426 296.816 160.019 296.686C160.078 297.063 160.151 297.535 160.304 297.898L160.925 301.281Z" fill="#1E1E1E"/>
<path fill-rule="evenodd" clip-rule="evenodd" d="M65.9313 374.302C63.2885 374.712 60.5237 376.204 59.3649 378.704C58.1264 381.312 58.6243 384.522 60.4208 386.756C60.7918 387.278 61.3516 387.771 61.9911 388.155C63.0374 388.67 64.2791 388.574 64.9544 388.566C66.0073 388.499 67.3433 388.388 68.6061 387.806C70.0431 387.1 71.1237 385.965 71.9211 384.875C72.6534 383.988 73.3418 382.818 73.638 381.612C74.014 380.298 73.9685 378.758 73.1825 377.43C71.7701 374.556 68.6685 373.878 65.9313 374.302ZM66.3706 377.134C68.3527 376.826 69.9946 377.441 70.7952 378.864C71.0718 379.401 71.1743 380.061 70.9139 380.875C70.7479 381.674 70.2841 382.423 69.6315 383.201C68.8992 384.087 68.2466 384.865 67.4264 385.186C66.7006 385.492 65.8512 385.623 64.8927 385.676C64.123 385.698 63.6364 385.677 63.3239 385.532C63.1205 385.467 62.8878 385.213 62.6551 384.959C61.4624 383.501 61.2493 381.505 61.9735 379.942C62.6326 378.584 64.3885 377.441 66.3706 377.134Z" fill="#F7C300"/>
<path fill-rule="evenodd" clip-rule="evenodd" d="M279.44 227.221C276.797 227.631 274.032 229.124 272.874 231.623C271.635 234.232 272.133 237.441 273.929 239.675C274.3 240.197 274.86 240.691 275.5 241.075C276.546 241.589 277.788 241.493 278.463 241.485C279.516 241.418 280.852 241.308 282.115 240.725C283.552 240.019 284.632 238.885 285.43 237.794C286.162 236.908 286.85 235.737 287.147 234.532C287.523 233.217 287.477 231.677 286.691 230.349C285.199 227.585 282.097 226.906 279.44 227.221ZM279.879 230.053C281.861 229.745 283.503 230.361 284.304 231.783C284.58 232.32 284.683 232.981 284.423 233.794C284.257 234.593 283.793 235.342 283.14 236.12C282.408 237.007 281.755 237.784 280.935 238.105C280.209 238.411 279.36 238.543 278.401 238.595C277.632 238.617 277.145 238.596 276.833 238.451C276.629 238.386 276.396 238.132 276.164 237.879C274.971 236.421 274.758 234.424 275.482 232.862C276.141 231.503 277.803 230.375 279.879 230.053Z" fill="#F7C300"/>
<path fill-rule="evenodd" clip-rule="evenodd" d="M506.289 115.67C503.646 116.08 500.881 117.573 499.722 120.072C498.484 122.681 498.982 125.89 500.778 128.124C501.149 128.646 501.709 129.14 502.349 129.524C503.395 130.038 504.637 129.942 505.312 129.934C506.365 129.867 507.701 129.757 508.964 129.174C510.401 128.468 511.481 127.334 512.279 126.243C513.011 125.356 513.699 124.186 513.996 122.981C514.371 121.666 514.326 120.126 513.54 118.798C512.033 115.939 508.932 115.26 506.289 115.67ZM506.728 118.502C508.71 118.194 510.352 118.81 511.153 120.232C511.429 120.769 511.532 121.43 511.271 122.243C511.105 123.042 510.642 123.791 509.989 124.569C509.257 125.456 508.604 126.233 507.784 126.554C507.058 126.86 506.209 126.992 505.25 127.044C504.48 127.066 503.994 127.045 503.681 126.9C503.478 126.835 503.245 126.581 503.013 126.328C501.82 124.869 501.607 122.873 502.331 121.311C502.99 119.952 504.746 118.809 506.728 118.502Z" fill="#59C59F"/>
<path d="M377.95 53.2307C390.352 43.4612 405.68 41.2839 420.131 42.7658C423.102 43.1941 426.005 43.8274 428.849 44.7643C431.522 45.7167 434.213 46.8663 436.683 48.4336C439.239 49.9932 441.641 51.7656 443.908 53.9479C445.977 55.8497 447.978 57.9566 449.825 60.2761C465.686 81.2213 465.61 111.956 454.031 134.679C452.79 137.177 451.36 139.494 449.742 141.629C442.951 150.494 432.8 152.702 422.837 152.208C417.728 151.973 412.497 151.35 407.23 150.333C406.991 150.554 406.752 150.774 406.514 150.995C405.797 151.656 405.175 152.408 404.458 153.069C399.929 157.356 395.314 156.877 390.027 154.669C382.057 151.409 373.933 145.479 367.723 138.779C366.486 137.498 365.488 135.997 364.653 134.382C363.817 132.767 363.144 131.038 362.812 129.277C362.673 113.379 353.955 98.9501 358.979 83.879C359.444 82.3454 359.919 80.9104 360.47 79.3691C363.261 72.057 367.937 65.5694 372.554 59.3854C373.312 58.2233 374.155 57.0534 375.102 56.0731C375.972 55.1991 376.918 54.2188 377.95 53.2307Z" fill="white"/>
<path d="M423.816 69.2391C430.409 72.5187 436.672 77.9451 441.902 83.5512C442.954 84.7209 443.941 85.8938 444.848 87.0867C445.686 88.2179 446.493 89.383 447.137 90.5235C447.815 91.6949 448.393 92.8385 448.842 93.9883C449.269 95.0253 449.631 96.0654 449.894 97.0777C451.953 105.91 446.066 110.145 437.318 108.97C436.368 108.852 435.381 108.639 434.357 108.331C430.077 107.023 425.783 103.535 422.077 99.7433C420.172 97.801 418.295 95.7598 416.48 93.6505C416.347 93.5918 416.214 93.5331 416.081 93.4744C415.681 93.2983 415.3 93.1702 414.901 92.9941C412.356 91.8958 410.687 90.1049 409.091 87.8225C406.671 84.3919 404.702 80.5331 403.61 77.283C403.382 76.6432 403.288 76.0621 403.277 75.5257C403.266 74.9894 403.338 74.4979 403.547 74.13C406.524 71.8727 405.948 66.6132 410.737 66.4002C411.207 66.3614 411.662 66.3397 412.166 66.3318C414.624 66.3605 417.644 67.2083 420.584 68.0761C421.095 68.1981 421.64 68.351 422.188 68.5687C422.686 68.7726 423.234 68.9904 423.816 69.2391Z" fill="#F7C300"/>
<path d="M423.174 49.6926C423.08 49.7073 423.08 49.7073 423.174 49.6926C421.918 49.6942 421.687 50.6966 421.681 51.2776C421.718 52.1417 422.206 53.4191 423.651 53.3883C448.341 53.0377 465.275 76.2178 467.454 98.9809C469.544 121.178 458.35 141.859 439.647 150.27C435.133 152.323 430.407 153.636 425.753 154.165C423.096 154.481 420.445 154.215 417.983 153.921C415.63 153.706 413.465 153.462 411.171 153.624C407.932 153.933 405.553 156.042 403.044 158.558C402.87 158.682 402.71 158.9 402.551 159.118C401.057 160.703 399.12 162.55 396.157 162.139C393.586 161.765 391.208 159.524 389.391 157.776C388.94 157.363 388.489 156.95 388.038 156.536L374.182 144.477C373.622 143.984 372.954 143.411 372.19 142.853C367.771 139.286 361.701 134.428 363.356 128.275C363.898 126.161 365.283 124.497 366.429 123.159C367.988 121.371 369.293 119.815 369.086 117.237C368.909 114.848 367.947 112.388 366.986 109.927C366.162 107.735 365.23 105.464 364.864 103.104C362.801 91.052 365.53 78.7398 372.483 69.3487C376.231 64.2245 380.989 60.0066 386.475 56.7392C393.92 52.3945 400.345 50.8179 405.357 51.9735C405.952 52.0744 406.424 52.0012 406.758 51.6594C407.266 51.194 407.417 50.3006 407.111 49.5748C406.944 49.1176 406.652 48.4861 405.759 48.3348C404.255 47.9881 402.687 47.8448 401.147 47.8903C391.613 48.1129 381.251 54.8431 374.615 61.2855C366.47 69.2183 361.335 80.3572 360.58 91.6865C360.173 97.1625 360.739 102.681 362.14 107.973C362.592 109.642 363.218 111.188 363.86 112.829C364.195 113.743 364.515 114.564 364.85 115.478C366.038 118.773 364.051 120.918 362.587 122.692C362.014 123.361 361.441 124.03 360.977 124.778C355.281 134.168 366.221 143.006 374.174 149.408C375.497 150.459 376.711 151.431 377.721 152.337C379.059 153.483 380.411 154.723 381.778 156.058C385.304 159.473 389.034 162.954 393.096 164.837C396.954 166.655 400.765 165.677 404.559 162.093C404.892 161.751 405.226 161.409 405.654 161.053C407.148 159.468 408.896 157.65 411.444 157.255C413.252 157.071 415.024 157.279 416.811 157.582C418.002 157.784 418.99 157.921 420.057 157.948C425.301 158.102 430.681 157.267 435.929 155.583C456.892 148.658 471.005 128.104 471.208 104.488C471.304 88.9112 465.01 73.2626 454.388 62.7319C445.786 54.014 434.938 49.5108 423.174 49.6926Z" fill="black"/>
<path d="M386.186 167.649C385.968 167.49 385.641 167.25 385.423 167.091C381.934 164.539 378.372 161.516 374.439 157.969C370.614 154.503 366.855 150.833 363.002 147.178L362.769 146.924C359.476 143.762 356.168 140.506 354.76 135.795C354.366 134.503 353.328 134.664 352.856 134.737C352.021 134.963 350.991 135.8 351.4 137.186C353.23 143.378 358.53 148.259 363.598 152.885C364.608 153.792 365.619 154.698 366.629 155.605C370.606 159.434 373.965 162.393 377.076 165.003C378.755 166.482 380.5 167.758 382.15 169.049C382.586 169.368 383.037 169.781 383.567 170.085C384.003 170.404 384.44 170.723 384.767 170.962C385.312 171.361 385.429 172.116 385.139 172.741C384.741 173.286 384.109 173.577 383.484 173.288C383.172 173.143 382.968 173.078 382.656 172.933C382.453 172.868 382.344 172.788 382.125 172.629C380.047 171.694 378.034 170.557 375.992 169.231C372.983 167.281 370.134 165.113 367.394 163.025C366.616 162.373 365.758 161.829 364.98 161.177C364.326 160.698 363.657 160.125 362.894 159.567C360.357 157.544 357.588 155.267 354.878 154.625C354.471 154.494 354.079 154.459 353.702 154.517C352.932 154.54 352.206 154.846 351.604 155.326C350.842 156.024 350.532 157.135 350.831 158.442C351.729 162.362 354.718 166.055 357.104 168.971C359.366 171.713 361.628 174.455 363.89 177.197L367.33 181.303C368.275 182.413 369.567 182.019 370.249 181.43C370.677 181.074 371.33 180.296 370.508 179.36L361.089 167.87C360.02 166.586 358.951 165.302 357.962 163.909C357.947 163.814 357.838 163.734 357.823 163.64L357.714 163.56C357.343 163.038 357.43 162.348 357.843 161.897C358.351 161.432 359.026 161.424 359.557 161.728C361.177 162.83 362.733 164.135 364.586 165.491C367.981 168.057 371.39 170.718 375.024 172.957L375.445 173.182C378.549 175.117 382.088 177.371 385.523 177.708C387.092 177.851 388.573 177.428 389.588 176.497C390.444 175.784 390.864 174.753 390.892 173.685C390.983 171.158 388.584 169.404 386.186 167.649Z" fill="black"/>
<path d="M356.264 176.641C355.232 176.221 351.636 174.846 349.322 176.751C348.545 177.355 348.14 178.481 348.759 179.352C349.115 179.78 349.645 180.084 350.241 180.185C350.633 180.221 351.011 180.162 351.265 179.929C351.359 179.915 351.439 179.806 351.439 179.806C351.518 179.697 351.707 179.667 351.802 179.653C351.896 179.638 352.085 179.609 352.179 179.594L352.368 179.565C352.368 179.565 352.368 179.565 352.462 179.55C352.557 179.536 352.557 179.536 352.651 179.521L352.746 179.506C352.949 179.571 353.138 179.542 353.341 179.607L353.435 179.593L353.53 179.578C353.624 179.563 353.624 179.563 353.733 179.643C354.031 179.694 354.249 179.853 354.562 179.998C355.077 180.208 355.608 180.512 356.138 180.816C356.138 180.816 356.138 180.816 356.247 180.896C357.12 181.534 357.897 182.187 358.69 182.934C358.69 182.934 358.705 183.028 358.799 183.013C359.046 183.362 359.388 183.695 359.635 184.044C359.897 184.486 360.413 184.696 360.914 184.812C361.212 184.862 361.699 184.883 362.127 184.527C362.809 183.938 363.214 182.812 362.596 181.941C360.973 179.583 358.763 177.799 356.264 176.641Z" fill="black"/>
<path d="M377.74 132.52C377.857 133.275 378.352 133.971 378.962 134.167C379.369 134.297 379.841 134.224 380.269 133.867C389.417 126.166 394.755 115.092 397.686 107.195C401.268 97.2633 402.765 86.9786 402.193 76.4352C402.068 75.0048 400.985 74.8827 400.513 74.9559L400.419 74.9706C399.649 74.9933 398.466 75.4668 398.592 76.8972C399.141 86.6709 397.68 96.5634 394.438 105.572C391.666 113.251 386.553 123.904 378.435 130.769C377.739 131.264 377.652 131.954 377.74 132.52Z" fill="black"/>
<path d="M396.681 146.206C397.277 146.307 397.923 146.11 398.336 145.66C412.854 129.585 432.454 118.232 453.406 113.725C454.335 113.485 454.719 112.845 454.929 112.329C455.204 111.61 455.073 110.761 454.622 110.347C454.513 110.267 454.28 110.014 453.793 109.992C453.699 110.007 453.51 110.036 453.416 110.051C430.889 114.996 410.832 126.516 395.487 143.492C395.074 143.943 394.958 144.444 395.126 144.901C395.323 145.547 395.977 146.026 396.681 146.206Z" fill="black"/>
<path d="M412.618 86.3199C413.862 87.4802 415.642 88.3639 417.538 88.7464C418.039 88.862 418.381 89.1956 418.548 89.6528C419.759 93.7179 423.117 96.6765 427.054 97.1291C427.635 97.1356 428.086 97.549 428.173 98.1153C428.852 100.62 430.336 102.709 432.175 103.971C435.976 106.667 442.756 104.262 445.373 100.57C446.155 99.3852 445.493 98.2314 444.745 97.7676C444.308 97.4487 443.371 97.0141 442.668 98.0898C441.327 100.038 439.041 100.876 437.371 101.328C434.961 101.992 433.688 100.643 432.808 99.3294C432.437 98.807 432.146 98.1756 431.949 97.5296C431.658 96.8982 431.947 96.2733 432.47 95.9023C435.3 94.2067 437.503 90.9652 436.25 87.8732C435.624 86.3272 433.953 85.5233 432.298 86.07C430.28 86.7697 428.794 89.03 428.208 90.8607C428.078 91.2675 427.948 91.6743 427.926 92.1609C427.891 92.5531 427.651 92.8802 427.288 93.0331C426.926 93.1861 426.548 93.2447 426.25 93.1942C425.437 92.9338 424.812 92.6441 424.267 92.2454C423.612 91.7669 423.132 91.1648 422.623 90.3739C422.376 90.0257 422.411 89.6335 422.542 89.2266C422.672 88.8198 423.02 88.5725 423.383 88.4195L423.666 88.3756C423.855 88.3463 424.029 88.2227 424.218 88.1934C426.475 87.1666 429.144 84.4328 429.598 81.7526C429.785 80.467 429.421 79.3637 428.49 78.3482C427.574 77.4271 426.368 77.1309 425.047 77.3359C422.593 77.7166 420.322 79.9053 419.359 81.7945C419.055 82.325 418.859 82.9353 418.679 83.6399C418.548 84.0467 418.295 84.2794 417.932 84.4324C417.569 84.5853 417.177 84.5495 416.864 84.4047C415.317 83.7749 414.48 82.7447 414.116 81.6414C413.575 79.4054 414.661 76.434 415.494 74.9515C415.734 74.6244 415.66 74.1525 415.522 73.884C415.34 73.3323 414.969 72.81 414.453 72.6C414.14 72.4552 413.937 72.3901 413.748 72.4194C412.79 72.4714 412.166 73.438 412.007 73.6561C409.717 77.5876 409.369 83.441 412.618 86.3199Z" fill="black"/>
<path d="M88.7143 364.775C87.8795 365.001 86.9275 364.472 86.6867 363.543C86.4459 362.614 86.9895 361.756 87.8243 361.53C88.4703 361.333 89.131 361.231 89.7771 361.034C94.2197 359.765 98.8072 358.183 103.365 356.413C104.186 356.092 105.217 356.512 105.538 357.332C105.858 358.152 105.438 359.184 104.618 359.505C99.9804 361.384 95.2985 362.98 90.6671 364.279C90.1008 364.367 89.3604 364.578 88.7143 364.775ZM72.4882 367.969C72.3938 367.984 72.3938 367.984 72.2994 367.998C67.188 368.694 61.7641 369.246 55.6502 369.711C54.6917 369.763 53.9139 369.111 53.8619 368.152C53.8098 367.194 54.4624 366.416 55.4209 366.364C61.3606 366.022 66.7845 365.471 71.7869 364.695C72.7308 364.548 73.5086 365.201 73.655 366.145C73.7868 366.994 73.2286 367.757 72.4882 367.969ZM119.474 352.464C118.734 352.675 118 352.306 117.6 351.595C117.185 350.789 117.51 349.772 118.316 349.357C122.96 346.897 127.561 344.153 132.495 341.068C133.286 340.559 134.288 340.79 134.798 341.581C135.307 342.372 135.076 343.374 134.285 343.884C129.271 347.078 124.576 349.836 119.837 352.311C119.663 352.435 119.569 352.449 119.474 352.464ZM39.4063 370.298C39.3119 370.313 39.1231 370.342 39.0288 370.356C33.1541 370.495 27.6278 370.385 22.3845 370.232C21.5058 370.175 20.7133 369.428 20.7703 368.55C20.8273 367.671 21.5743 366.878 22.453 366.935C27.7109 367.183 33.1282 367.212 38.9085 367.089C39.7726 367.051 40.5651 367.798 40.6171 368.757C40.6252 369.432 40.1467 370.086 39.4063 370.298ZM147.468 334.782C146.822 334.979 146.103 334.704 145.732 334.182C145.223 333.391 145.359 332.403 146.15 331.894C150.155 329.05 154.479 325.769 159.405 322.008C160.087 321.419 161.169 321.541 161.773 322.318C162.362 323 162.24 324.082 161.464 324.685C156.537 328.446 152.214 331.727 148.129 334.68C147.831 334.63 147.657 334.753 147.468 334.782ZM6.2253 368.873C6.03653 368.902 5.84776 368.931 5.64435 368.866C-0.0642634 368.205 -5.62803 367.232 -10.8289 366.106C-11.7223 365.954 -12.2609 364.975 -12.0949 364.176C-11.9435 363.282 -10.9639 362.744 -10.1648 362.91C-5.05836 364.051 0.39638 364.944 6.01061 365.62C6.904 365.771 7.6021 366.533 7.45072 367.426C7.47348 368.196 6.886 368.77 6.2253 368.873ZM173.825 314.649C173.179 314.845 172.554 314.556 172.089 314.048C171.5 313.366 171.622 312.284 172.398 311.68C176.025 308.894 180.654 305.083 185.282 301.272C185.964 300.683 187.046 300.805 187.635 301.487C188.224 302.169 188.102 303.251 187.42 303.84C182.792 307.651 178.055 311.383 174.442 314.263C174.282 314.481 174.014 314.619 173.825 314.649ZM-26.0116 361.695C-26.2948 361.739 -26.6723 361.798 -26.9848 361.653C-30.254 360.517 -33.5526 359.192 -36.5679 357.823C-37.3962 357.469 -37.7461 356.46 -37.3913 355.631C-37.0365 354.803 -36.0275 354.453 -35.1992 354.808C-32.1839 356.177 -28.9944 357.422 -25.8195 358.572C-24.9912 358.927 -24.4673 359.812 -24.8074 360.735C-25.032 361.157 -25.46 361.513 -26.0116 361.695ZM199.236 293.405C198.685 293.587 198.074 293.392 197.609 292.884C197.02 292.202 197.048 291.135 197.73 290.546C201.792 286.822 205.302 283.282 208.718 279.755L209.465 278.963C210.132 278.279 211.09 278.227 211.774 278.894C212.457 279.562 212.509 280.52 211.842 281.204L211.095 281.996C207.694 285.617 203.995 289.187 199.948 293.005C199.788 293.223 199.52 293.361 199.236 293.405ZM221.87 269.209C221.398 269.282 220.803 269.181 220.461 268.848C219.792 268.275 219.631 267.237 220.284 266.459C221.668 264.794 222.974 263.238 224.359 261.574C226.556 258.913 228.673 256.362 230.87 253.701C231.443 253.032 232.481 252.871 233.164 253.538C233.833 254.111 233.994 255.149 233.327 255.833C231.115 258.399 229.013 261.045 226.816 263.706C225.431 265.37 224.14 267.02 222.741 268.591C222.596 268.903 222.248 269.151 221.87 269.209ZM243.588 244.092C243.021 244.18 242.426 244.079 242.069 243.651C241.386 242.984 241.414 241.916 242.001 241.342C245.845 237.459 249.972 233.533 254.237 229.875C254.919 229.286 256.001 229.408 256.59 230.09C257.179 230.771 257.057 231.854 256.375 232.443C252.19 235.992 248.143 239.809 244.393 243.677C244.139 243.91 243.871 244.048 243.588 244.092ZM268.781 222.689C268.135 222.886 267.416 222.611 267.03 221.994C266.521 221.203 266.657 220.215 267.448 219.706C271.896 216.6 276.532 213.464 281.401 210.582C282.192 210.073 283.209 210.398 283.704 211.095C284.213 211.886 283.888 212.903 283.191 213.398C278.417 216.265 273.766 219.306 269.412 222.398C269.144 222.536 268.955 222.565 268.781 222.689ZM297.131 205.436C296.391 205.647 295.657 205.278 295.256 204.566C294.842 203.761 295.167 202.744 295.973 202.329C300.711 199.854 305.748 197.429 310.988 195.07C311.794 194.655 312.825 195.075 313.146 195.895C313.561 196.701 313.141 197.732 312.321 198.053C307.175 200.398 302.233 202.808 297.479 205.188C297.414 205.392 297.225 205.421 297.131 205.436ZM327.294 191.767C326.554 191.979 325.711 191.53 325.405 190.804C325.084 189.984 325.504 188.952 326.324 188.631C331.245 186.708 336.544 184.726 341.937 182.73C342.757 182.409 343.789 182.829 344.03 183.758C344.35 184.578 343.93 185.61 343.001 185.851C337.593 187.753 332.484 189.706 327.563 191.629C327.483 191.738 327.388 191.753 327.294 191.767Z" fill="black"/>
<path d="M366.217 58.2388C365.265 57.7099 364.176 58.1688 363.618 58.932C359.087 65.2409 355.741 72.3327 353.412 79.7499C352.711 82.0818 356.437 83.0502 357.139 80.7183C359.323 73.6135 362.633 66.914 366.91 60.8377C367.548 59.9655 367.06 58.688 366.217 58.2388Z" fill="#1E1E1E"/>
<path d="M481.661 113.305C480.753 113.059 479.49 113.642 479.368 114.724C477.799 125.793 472.474 135.705 466.793 145.189C465.481 147.325 468.853 149.122 470.179 147.08C476.02 137.378 481.475 127.059 483.095 115.692C483.217 114.61 482.758 113.521 481.661 113.305Z" fill="black"/>
<path d="M434.439 15.7585C432.93 22.8552 432.017 30.0528 431.684 37.2569C431.579 39.6898 435.333 39.5907 435.533 37.1432C435.909 30.2222 436.787 23.4168 438.165 16.7269C438.649 14.2355 434.937 13.3615 434.439 15.7585Z" fill="black"/>
<path d="M479.28 38.7657C478.771 37.9748 477.441 37.5044 476.665 38.1081C471.326 42.3194 466.234 46.879 461.36 51.598C459.597 53.3213 462.331 55.9902 464.093 54.267C468.699 49.6862 473.537 45.3594 478.623 41.3808C479.399 40.777 479.819 39.7453 479.28 38.7657Z" fill="black"/>
<path d="M504.079 84.6C495.88 84.712 487.623 84.4465 479.417 83.8831C476.969 83.6828 477.083 87.5315 479.531 87.7317C487.737 88.2951 495.98 88.4662 504.193 88.4486C506.596 88.3657 506.497 84.6115 504.079 84.6Z" fill="black"/>
<path d="M447.34 175.56C444.865 170.821 442.848 165.915 441.193 160.856C440.449 158.555 436.747 159.612 437.491 161.913C439.204 167.35 441.36 172.525 443.973 177.532C444.497 178.418 445.798 178.699 446.588 178.19C447.662 177.637 447.864 176.446 447.34 175.56Z" fill="black"/>
<path d="M395.838 35.472C392.679 30.066 390.421 24.2303 389.186 18.1392C388.93 17.1156 387.79 16.616 386.766 16.8714C385.757 17.2213 385.243 18.2676 385.498 19.2912C386.777 25.6655 389.188 31.864 392.485 37.5386C393.86 39.5484 397.133 37.5909 395.838 35.472Z" fill="black"/>
<path d="M493.843 138.866C491.444 137.112 488.886 135.575 486.198 134.446C485.682 134.236 485.275 134.106 484.723 134.288C484.266 134.456 483.838 134.812 483.613 135.233C483.389 135.655 483.288 136.25 483.455 136.708C483.623 137.165 483.885 137.608 484.401 137.818C485.636 138.303 486.9 138.976 488.15 139.556C488.775 139.845 489.32 140.244 489.96 140.628C490.272 140.773 490.505 141.027 490.817 141.172C490.926 141.251 491.035 141.331 491.253 141.491L491.362 141.57C491.799 141.889 492.22 142.114 492.707 142.135C493.193 142.156 493.73 141.88 494.064 141.538C494.542 140.884 494.715 139.504 493.843 138.866Z" fill="black"/>
<path d="M353.551 63.2C352.243 62.2431 350.964 61.475 349.445 61.0339C348.116 60.5636 346.641 60.4057 345.182 60.3421C344.209 60.2998 343.208 61.325 343.354 62.2688C343.421 63.3217 344.228 64.163 345.281 64.0964C345.564 64.0524 345.956 64.0882 346.254 64.1387L346.348 64.124C346.443 64.1094 346.552 64.1892 346.646 64.1745C347.242 64.2754 347.837 64.3764 348.448 64.5717C348.557 64.6514 348.745 64.6221 348.854 64.7018C348.854 64.7018 348.949 64.6872 348.963 64.7816C349.276 64.9264 349.479 64.9915 349.792 65.1364C350.104 65.2812 350.322 65.4407 350.54 65.6002C350.649 65.6799 350.758 65.7597 350.962 65.8248C351.071 65.9045 351.507 66.2235 351.071 65.9045C351.507 66.2235 351.928 66.4481 352.415 66.4693C352.902 66.4904 353.439 66.2138 353.772 65.8721C354.106 65.5303 354.316 65.0145 354.337 64.5279C354.075 64.0853 353.878 63.4392 353.551 63.2Z" fill="black"/>
</svg>
