<svg width="581" height="489" viewBox="0 0 581 489" fill="none" xmlns="http://www.w3.org/2000/svg">
<path d="M114.414 271.84C109.082 270.491 106.972 278.828 112.304 280.177C117.636 281.527 119.746 273.19 114.414 271.84Z" fill="#F7C300"/>
<path d="M110.911 292.203C105.579 290.854 103.469 299.191 108.801 300.54C114.133 301.89 116.243 293.553 110.911 292.203Z" fill="#F7C300"/>
<path d="M105.333 308.946C100.001 307.597 97.891 315.934 103.223 317.284C108.555 318.633 110.665 310.296 105.333 308.946Z" fill="#F7C300"/>
<path d="M114.162 174.607C113.081 170.723 106.225 168.059 102.513 168.461C101.446 168.603 100.644 168.916 99.891 169.448C98.1449 169.419 96.3718 170.311 95.7105 172.516C94.6077 176.466 93.5049 180.416 92.402 184.366C91.4464 187.735 94.6653 190.097 97.6987 189.524C101.8 188.808 107.441 192.195 110.462 187.596C111.655 185.732 112.172 183.284 112.809 181.175C113.615 179.213 114.762 176.718 114.162 174.607Z" fill="#F7C300"/>
<path d="M187.867 217.191C188.849 212.901 189.807 208.708 190.79 204.418C191.233 202.26 191.7 200.006 191.197 197.919C190.669 195.928 189.243 194.227 187.817 192.525C184.82 188.878 182.187 185.014 179.895 181.03C177.602 177.046 175.505 172.698 171.85 170.02C168.8 167.804 164.898 166.919 161.19 166.084C155.13 164.757 149.046 163.527 142.987 162.199C125.874 158.488 108.543 154.824 91.0828 154.118C86.0872 153.886 84.4063 156.452 82.89 160.813C78.7814 172.564 77.0964 184.928 75.3389 197.172C73.6306 209.221 70.5651 220.926 68.0566 232.876C67.3194 236.197 66.6067 239.42 65.8695 242.741C63.1648 255.466 60.2651 268.555 56.4073 285.837L49.8226 315.116C49.6754 315.698 49.7466 316.232 50.0608 316.62L50.1332 316.742L50.0842 316.936C50.0584 317.445 50.2009 318.513 51.5826 318.759C64.5018 321.513 77.3241 324.242 90.2188 327.093C100.472 329.378 111.089 331.446 121.535 333.78C126.795 335.008 132.054 336.236 137.289 337.561C140.004 338.248 142.694 339.032 145.286 339.791C146.522 340.207 148.896 341.427 149.942 340.144C151.525 337.966 147.939 336.646 146.51 336.181C122.591 329.2 98.012 324.423 73.6522 319.187C67.3018 317.786 61.0238 316.507 54.6734 315.106L54.0917 314.959L54.2389 314.377C58.0231 297.386 60.8493 284.588 63.5773 272.178C66.3054 259.768 69.0346 246.946 72.9157 229.98L77.3378 210.468C79.9665 198.858 80.7042 186.976 83.1391 175.317C84.1964 170.324 85.4476 165.38 87.0867 160.534C88.0656 157.481 89.6658 157.679 92.4059 157.857C93.9337 157.934 95.34 158.084 96.8677 158.161C108.701 159.093 120.579 161.067 132.237 163.914C144.089 166.811 155.991 169.101 167.77 171.875C165.958 177.812 164.534 183.847 163.498 189.981C163.398 190.781 163.274 191.678 163.709 192.407C164.24 193.16 165.21 193.405 166.107 193.529C172.991 194.859 179.801 196.479 186.489 198.584C186.974 198.707 187.434 198.927 187.748 199.316C187.966 199.68 187.915 200.286 187.793 200.771C182.237 226.391 175.325 251.668 168.121 276.871C163.319 293.81 159.219 310.824 154.901 327.886C154.631 328.953 154.531 330.165 155.402 330.798C156.104 331.285 157.124 330.924 157.708 330.247C158.292 329.57 158.513 328.697 158.612 327.897C161.463 315.002 164.604 302.181 168.133 289.458C171.589 277.026 175.82 264.79 179.301 252.261C182.123 240.7 184.898 228.921 187.867 217.191ZM181.703 193.041C177.268 191.815 172.687 190.759 168.082 189.8L167.5 189.653L167.648 189.071C168.436 184.732 169.419 180.442 170.62 176.104L170.963 174.747L171.712 175.864C175.044 181.04 178.618 186.483 182.385 191.975L183.279 193.336L181.703 193.041Z" fill="black"/>
<path d="M109.296 171.415L102.099 169.284C101.032 169.014 100.448 169.692 100.276 170.371C100.105 171.049 100.247 172.117 101.41 172.411L107.081 174.052C107.372 174.126 107.663 174.2 107.954 174.273C108.535 174.42 109.214 174.592 109.771 174.836L110.159 174.935C110.45 175.008 110.594 175.251 110.593 175.663C110.64 176.294 110.493 176.876 110.442 177.482C110.369 177.773 110.32 177.967 110.368 178.185C110.219 179.179 110.095 180.076 109.947 181.07C109.799 182.064 109.65 183.058 109.502 184.052L109.156 186.234L108.719 186.33C108.185 186.401 107.555 186.447 107.142 186.446L106.73 186.445C105.468 186.538 104.353 186.462 103.238 186.386C101.128 186.162 98.8985 185.598 97.0577 184.719C96.8638 184.67 96.5975 184.5 96.4037 184.451L96.0404 184.256L96.0416 183.843C96.0907 183.649 96.0428 183.431 96.1164 183.14L96.1655 182.946C96.266 181.734 96.3665 180.521 96.564 179.334C96.9835 176.861 97.6213 174.34 98.4531 171.869C98.5512 171.481 98.5279 171.166 98.3107 170.801C98.118 170.34 97.6823 170.023 97.2945 169.925C96.422 169.705 95.6932 170.139 95.3509 171.084C93.9327 175.057 93.1686 179.3 92.9137 183.567C92.9113 184.392 92.9089 185.217 93.4403 185.97C93.9717 186.724 94.989 187.187 95.9094 187.626C97.8716 188.433 99.689 188.996 101.459 189.34C103.446 189.637 105.483 189.74 107.254 189.672L107.667 189.674C109.874 189.51 111.791 189.273 112.232 187.528C112.38 186.947 112.454 186.243 112.529 185.54C112.603 185.249 112.579 184.934 112.653 184.643C112.826 183.552 112.999 182.461 113.099 181.249C113.248 180.255 113.396 179.261 113.448 178.243C113.497 178.049 113.473 177.733 113.522 177.539C113.622 176.739 113.721 175.939 113.699 175.212C113.537 172.592 111.235 171.906 109.296 171.415Z" fill="black"/>
<path d="M97.7966 273.102C97.7487 272.884 97.7733 272.787 97.7254 272.568C97.6775 272.35 97.702 272.253 97.6541 272.034C96.7152 269.631 98.1753 267.937 96.3136 265.919C96.1688 265.676 95.9995 265.53 95.8301 265.384C95.1772 264.703 94.2323 264.36 93.0199 264.26C92.7536 264.089 92.5843 263.943 92.318 263.773C89.1715 261.532 85.3907 260.575 82.3573 261.149C82.1389 261.197 81.9205 261.245 81.7021 261.292C78.5532 259.877 75.3995 260.11 73.6917 263.598C73.5457 263.767 73.4721 264.058 73.423 264.252C73.2513 264.93 73.1519 265.73 73.2219 266.676C73.0759 266.846 73.0269 267.04 72.8563 267.306C71.9312 268.516 71.1987 270.187 70.5621 272.296C68.0608 281.772 65.4626 291.223 62.9858 300.602C61.147 307.46 64.0445 311.907 67.7799 311.821C67.9983 311.773 68.1922 311.822 68.4106 311.774C68.6536 311.63 68.9689 311.606 69.1873 311.558C69.5027 311.535 69.6966 311.584 70.012 311.561C73.1608 312.977 74.8544 314.437 77.7627 315.173C77.8118 314.979 77.7639 314.76 77.8129 314.566C79.753 314.645 82.0773 316.058 84.1634 315.967C84.3818 315.919 84.5757 315.968 84.7941 315.921C85.7635 316.166 86.9783 315.442 88.1931 314.718C88.5575 314.501 88.6556 314.113 88.6323 313.797C88.5844 313.579 88.512 313.457 88.3672 313.215C88.3193 312.996 88.2715 312.778 88.1512 312.438C88.5168 311.808 88.956 310.888 89.1768 310.015C89.2259 309.821 89.2995 309.531 89.3486 309.337C89.4946 309.167 89.6896 308.804 89.9093 308.344C89.9583 308.15 90.0798 308.078 90.1289 307.884C90.3018 306.793 90.3066 305.144 90.3592 303.713C90.3113 303.494 90.3849 303.204 90.434 303.01C90.51 301.894 92.9395 300.446 91.4644 298.938C91.538 298.647 91.5871 298.453 91.6607 298.163C92.6888 294.915 93.5474 291.522 94.454 288.348C96.0194 283.793 98.2437 277.857 97.7966 273.102Z" fill="#59C59F"/>
<path d="M96.1981 263.929L79.3066 259.345C78.2402 259.075 77.6561 259.753 77.4844 260.431C77.3127 261.11 77.4551 262.177 78.5939 262.569L93.9589 266.664C94.2497 266.737 94.5405 266.811 94.8314 266.884C95.413 267.032 96.0916 267.203 96.6488 267.448L97.0365 267.546C97.3274 267.619 97.4722 267.862 97.471 268.275C97.5177 268.905 97.3705 269.487 97.3202 270.093C97.2466 270.384 97.1975 270.578 97.2454 270.796C97.097 271.79 96.9732 272.687 96.8248 273.681C96.6764 274.675 87.6957 310.569 87.5474 311.563L87.2015 313.745L86.7647 313.84C86.2309 313.912 85.6001 313.958 85.1878 313.957L84.7755 313.956C83.514 314.049 82.3986 313.973 81.2832 313.897C79.1737 313.673 67.2497 310.655 65.4089 309.777C65.2396 309.631 64.9487 309.557 64.7548 309.508L64.3916 309.313L64.3928 308.901C64.4419 308.707 64.4185 308.392 64.4676 308.198L64.5167 308.004C64.6172 306.791 64.7422 305.482 64.9397 304.294C65.3837 301.725 74.8538 264.304 75.6856 261.833C75.7837 261.445 75.7604 261.13 75.5431 260.765C75.3504 260.304 74.9148 259.987 74.527 259.889C73.6545 259.668 72.9011 260.2 72.5588 261.145C71.1161 265.215 61.4952 304.454 61.2403 308.722C61.238 309.547 61.211 310.468 61.7424 311.221C62.2493 312.072 63.2912 312.439 64.2115 312.878C66.1737 313.684 77.6855 316.7 79.455 317.045C81.443 317.342 83.48 317.445 85.2752 317.28L85.6875 317.281C87.8951 317.118 89.8118 316.881 90.278 315.039C90.4497 314.36 90.5245 313.657 90.5748 313.051C90.6484 312.76 90.625 312.445 90.6986 312.154C90.8961 310.966 99.8767 275.072 99.9772 273.86C100.126 272.866 100.299 271.775 100.35 270.757C100.424 270.466 100.376 270.247 100.449 269.957C100.549 269.157 100.648 268.356 100.626 267.629C100.439 265.106 98.137 264.42 96.1981 263.929Z" fill="black"/>
<path d="M90.8404 204.395C115.662 209.439 140.504 215.623 164.785 222.799C166.239 223.167 167.163 222.37 167.36 221.594C167.726 220.552 167.318 219.314 165.694 218.8C154.668 215.494 143.375 212.43 132.129 209.584C118.751 206.198 105.299 203.103 91.8463 200.421C90.2707 200.125 89.3222 201.02 89.0523 202.086C88.9285 202.983 89.3617 204.124 90.8404 204.395Z" fill="black"/>
<path d="M146.331 230.095C147.085 229.564 147.33 228.594 146.799 227.841C146.509 227.355 145.929 226.795 144.474 226.427C126.442 222.276 108.216 217.664 90.5012 212.665C90.4043 212.64 90.4043 212.64 90.3073 212.616C88.2715 212.101 87.2506 212.874 87.0298 213.746C86.663 214.788 87.3626 216.1 89.5677 216.761C107.38 221.785 125.411 226.348 143.444 230.499C145.02 230.795 145.918 230.506 146.331 230.095Z" fill="black"/>
<path d="M150.038 256.615C150.888 256.108 151.134 255.139 150.505 254.361C150.216 253.875 149.441 253.266 147.793 252.849C126.852 247.962 105.816 242.638 85.0954 236.879C84.9984 236.854 84.9984 236.854 84.9015 236.83C82.5748 236.241 81.457 236.99 81.1393 237.837C80.7724 238.879 81.5689 240.216 84.1619 240.975C104.785 246.71 125.822 252.034 146.666 256.896C148.436 257.241 149.528 257.002 150.038 256.615Z" fill="black"/>
<path d="M126.542 237.775C127.102 237.194 127.347 236.225 127.107 235.545C126.914 235.084 126.527 234.573 125.461 234.303C112.469 231.428 99.4788 228.141 86.708 224.393L86.611 224.368C85.1569 224 84.3299 224.822 84.109 225.695C83.8392 226.761 84.151 227.975 85.7745 228.489C98.4484 232.212 111.439 235.5 124.43 238.375C125.424 238.523 126.153 238.089 126.542 237.775Z" fill="black"/>
<path d="M170.07 248.79C170.533 248.185 170.778 247.216 170.634 246.561C170.539 246.124 170.152 245.613 169.376 245.417C158.808 243.155 148.145 240.456 137.797 237.322L137.7 237.298C136.537 237.003 135.807 237.85 135.586 238.722C135.316 239.789 135.531 240.978 136.767 241.394C147.114 244.528 157.681 247.202 168.249 249.464C169.146 249.588 169.778 249.129 170.07 248.79Z" fill="black"/>
<path d="M120.221 276.611C120.301 274.258 118.78 271.707 116.624 270.852C115.97 270.584 115.485 270.461 114.927 270.629C114.805 270.701 114.587 270.749 114.441 270.919L113.834 271.281L113.593 270.601C113.617 270.504 113.521 270.479 113.545 270.382L113.473 270.261C113.183 269.775 112.65 269.434 112.166 269.311C111.681 269.189 111.05 269.235 110.564 269.525C108.548 270.562 107.62 273.009 107.032 274.923C106.15 278.001 108.544 280.361 110.117 281.481C111.061 282.235 112.297 282.651 113.606 282.776C114.625 282.828 115.595 282.661 116.786 282.034C118.802 280.997 120.141 278.963 120.221 276.611ZM115.756 277.544L115.731 277.641C115.585 277.81 115.464 277.882 115.318 278.052L115.196 278.124L115.075 278.197C115.075 278.197 114.953 278.269 114.832 278.341C114.686 278.511 114.37 278.534 114.176 278.485C114.08 278.46 114.08 278.46 113.983 278.436L113.789 278.387C113.692 278.362 113.595 278.338 113.498 278.313C113.401 278.289 113.304 278.264 113.304 278.264C113.304 278.264 113.086 278.312 113.304 278.264C113.086 278.312 112.989 278.288 112.795 278.239C112.698 278.214 112.528 278.068 112.553 277.971L112.456 277.946C112.287 277.8 112.19 277.776 112.117 277.654C111.948 277.508 111.779 277.362 111.634 277.119L111.561 276.998L111.272 276.512L111.321 276.318C111.419 275.93 111.542 275.446 111.737 275.082C111.956 274.622 112.176 274.162 112.371 273.799L112.76 273.485C112.881 273.412 112.881 273.412 112.881 273.412L113.003 273.34L113.61 272.978L113.851 273.658C114.019 274.216 114.333 274.605 114.721 274.703C114.915 274.752 115.181 274.923 115.351 275.069L115.447 275.093C115.447 275.093 115.52 275.215 115.617 275.239C115.617 275.239 115.689 275.361 115.786 275.385L115.859 275.507C115.859 275.507 115.859 275.507 115.931 275.628C116.028 275.653 116.003 275.75 116.1 275.774L116.173 275.896C116.365 276.357 116.461 276.794 116.266 277.157C116.217 277.351 116.193 277.448 116.047 277.617C115.877 277.471 115.877 277.471 115.756 277.544Z" fill="black"/>
<path d="M110.555 314.807C110.634 312.454 109.114 309.903 106.958 309.048C106.303 308.779 105.819 308.657 105.26 308.825C105.139 308.897 104.921 308.945 104.775 309.115L104.167 309.477L103.927 308.797C103.951 308.7 103.854 308.675 103.879 308.578L103.806 308.457C103.517 307.971 102.984 307.63 102.499 307.507C102.015 307.385 101.384 307.431 100.898 307.721C98.8819 308.758 97.9532 311.205 97.3656 313.119C96.4835 316.197 98.8778 318.556 100.451 319.677C101.395 320.431 102.631 320.847 103.94 320.972C104.958 321.024 105.929 320.857 107.119 320.23C109.135 319.192 110.5 317.062 110.555 314.807ZM106.235 315.57C106.211 315.667 106.089 315.74 106.089 315.74C106.065 315.837 105.968 315.812 105.943 315.909C105.919 316.006 105.797 316.078 105.797 316.078L105.676 316.151L105.554 316.223C105.554 316.223 105.433 316.296 105.311 316.368L105.068 316.513C104.947 316.585 104.85 316.561 104.729 316.633L104.51 316.681C104.413 316.656 104.413 316.656 104.316 316.632L104.122 316.583C104.025 316.558 103.928 316.534 103.831 316.509C103.735 316.485 103.541 316.436 103.444 316.411L103.25 316.362C103.153 316.337 103.153 316.337 103.056 316.313C102.959 316.288 102.887 316.167 102.79 316.142L102.693 316.118C102.523 315.972 102.426 315.947 102.354 315.826C102.185 315.68 102.015 315.534 101.87 315.291L101.798 315.169L101.436 314.562L101.485 314.368C101.583 313.98 101.706 313.496 101.901 313.132C102.121 312.672 102.34 312.212 102.535 311.849L102.924 311.535C103.046 311.462 103.046 311.462 103.046 311.462L103.167 311.39L103.775 311.028L104.015 311.708C104.183 312.266 104.497 312.655 104.885 312.753C105.079 312.802 105.345 312.973 105.515 313.119L105.612 313.143C105.612 313.143 105.684 313.265 105.781 313.289C105.781 313.289 105.854 313.411 105.95 313.435L106.023 313.557C106.095 313.678 106.095 313.678 106.168 313.8L106.288 314.139C106.627 314.431 106.552 315.135 106.235 315.57Z" fill="black"/>
<path d="M116.431 295.663C115.998 294.522 115.346 293.429 114.451 292.48C113.968 291.945 113.532 291.629 113.072 291.409C112.152 290.97 111.23 290.943 110.21 291.304L109.749 291.497L109.459 291.011C109.411 290.792 109.242 290.646 109.145 290.622C108.806 290.33 108.443 290.135 108.152 290.061C107.958 290.012 107.862 289.987 107.643 290.035C107.109 290.106 106.648 290.299 106.137 290.686C105.36 291.314 104.436 292.112 103.85 293.201C103.119 294.461 102.97 295.867 103.378 297.105C104.028 299.023 105.72 300.895 108.093 302.115C109.546 302.895 110.806 303.214 111.85 303.169C113.111 303.075 114.252 302.642 115.104 301.723C116.515 300.223 117.128 297.8 116.431 295.663ZM112.398 298.15L112.032 298.779L111.764 299.021L111.449 299.044C111.352 299.02 111.255 298.995 111.158 298.971C111.061 298.946 110.964 298.922 110.867 298.897C110.407 298.677 109.85 298.433 109.318 298.092L108.954 297.897C108.688 297.727 108.446 297.459 108.204 297.192C108.035 297.046 107.963 296.924 107.793 296.778L107.624 296.632C107.552 296.511 107.479 296.389 107.407 296.268L107.214 295.806L107.288 295.516L107.361 295.225C107.386 295.128 107.386 295.128 107.507 295.055L107.799 294.717C107.945 294.547 108.067 294.475 108.213 294.305L108.894 293.653L109.256 294.26C109.618 294.867 110.272 295.136 110.878 295.186L111.072 295.235L111.241 295.381C111.314 295.503 111.411 295.527 111.411 295.527L111.653 295.795C111.822 295.941 111.894 296.062 111.967 296.184L112.232 296.767C112.304 296.888 112.28 296.985 112.352 297.107L112.399 297.737C112.544 297.98 112.519 298.077 112.398 298.15Z" fill="black"/>
<path d="M120.321 317.381C129.364 318.742 138.38 321.023 147.006 324.031C147.393 324.129 147.903 324.155 148.388 323.866C148.971 323.6 149.312 323.068 149.46 322.486C149.779 321.226 148.884 320.277 147.939 319.935C143.869 318.492 139.749 317.244 135.484 316.164C130.83 314.986 126.225 314.027 121.449 313.334C120.358 313.161 119.217 313.595 118.898 314.855C118.751 315.437 118.894 316.092 119.281 316.602C119.474 317.064 119.934 317.283 120.321 317.381Z" fill="black"/>
<path d="M152.153 305.322C152.712 304.742 152.958 303.773 152.717 303.093C152.621 302.656 152.235 302.145 151.362 301.925L124.967 296.173C123.61 295.83 122.733 296.846 122.464 297.912C122.243 298.785 122.579 299.901 123.936 300.245L150.332 305.996C151.229 306.12 151.836 305.758 152.153 305.322Z" fill="black"/>
<path d="M159.173 284.921C148.702 282.684 138.233 279.622 127.984 276.1C127.887 276.075 127.887 276.075 127.79 276.051C127.208 275.903 126.771 275.999 126.382 276.313C125.847 276.797 125.53 277.645 125.721 278.519C125.817 278.955 126.105 279.854 127.172 280.123C137.299 283.718 147.696 286.659 158.167 288.896C159.524 289.239 160.4 288.223 160.67 287.157C160.866 286.381 160.651 285.192 159.173 284.921Z" fill="black"/>
<path d="M320.781 290.231C319.887 290.335 319 289.633 318.895 288.74C318.779 287.746 319.381 286.87 320.374 286.754C321.07 286.673 321.765 286.592 322.449 286.411C327.292 285.643 332.212 284.666 337.185 283.279C338.067 283.075 339.03 283.566 339.345 284.536C339.549 285.419 339.058 286.382 338.088 286.697C333.016 288.095 327.997 289.085 323.054 289.864C322.271 290.056 321.476 290.149 320.781 290.231ZM303.417 291.556C303.318 291.568 303.318 291.568 303.219 291.579C297.797 291.71 292.043 291.577 285.757 291.205C284.84 291.11 284.04 290.298 284.134 289.381C284.228 288.464 285.041 287.664 285.958 287.758C292.244 288.13 297.788 288.187 303.221 288.156C304.226 288.139 305.014 288.852 305.031 289.857C305.025 290.663 304.311 291.452 303.417 291.556ZM354.28 281.381C353.485 281.473 352.732 281.058 352.44 280.287C352.137 279.416 352.518 278.365 353.488 278.05C358.589 276.044 363.767 273.828 369.295 271.168C370.154 270.765 371.206 271.146 371.608 272.005C372.011 272.864 371.63 273.915 370.771 274.318C365.143 276.989 359.977 279.305 354.665 281.235C354.578 281.346 354.379 281.369 354.28 281.381ZM268.775 289.767C268.676 289.779 268.477 289.802 268.378 289.813C262.157 289.131 256.531 288.38 251.093 287.505C250.164 287.312 249.464 286.487 249.657 285.559C249.851 284.63 250.675 283.93 251.604 284.123C257.042 284.997 262.568 285.761 268.678 286.355C269.595 286.449 270.296 287.274 270.213 288.29C270.207 289.096 269.57 289.674 268.775 289.767ZM385.569 266.547C384.874 266.628 384.231 266.3 383.852 265.64C383.35 264.792 383.731 263.741 384.578 263.239C389.125 260.795 394.023 257.906 399.581 254.639C400.428 254.137 401.468 254.418 401.97 255.266C402.472 256.113 402.19 257.153 401.343 257.655C395.785 260.922 390.788 263.822 386.241 266.267C386.065 266.488 385.867 266.512 385.569 266.547ZM234.586 284.099C234.387 284.122 234.188 284.146 233.978 284.069C228.073 282.646 222.442 280.988 217.186 279.086C216.245 278.793 215.82 277.735 216.124 276.894C216.417 275.954 217.475 275.528 218.316 275.833C223.461 277.647 228.992 279.316 234.787 280.652C235.716 280.846 236.328 281.781 236.035 282.721C235.93 283.539 235.281 284.018 234.586 284.099ZM415.539 249.048C414.844 249.129 414.202 248.801 413.834 248.24C413.332 247.393 413.614 246.353 414.461 245.851C418.5 243.365 423.859 240.121 429.195 236.678C430.043 236.176 431.071 236.358 431.573 237.206C432.075 238.053 431.893 239.081 431.045 239.583C425.709 243.026 420.349 246.27 416.311 248.756C416.024 248.89 415.837 249.013 415.539 249.048ZM201.919 272.514C201.621 272.549 201.212 272.496 200.991 272.321C197.679 270.694 194.555 268.945 191.518 267.085C190.654 266.582 190.427 265.501 190.942 264.737C191.445 263.872 192.526 263.645 193.291 264.16C196.216 265.932 199.341 267.681 202.541 269.22C203.394 269.624 203.72 270.693 203.316 271.546C202.977 272.089 202.515 272.445 201.919 272.514ZM444.74 230.129C444.144 230.198 443.513 229.97 443.146 229.409C442.556 228.672 442.726 227.545 443.562 226.944C448.203 223.582 452.359 220.378 456.305 217.097L457.129 216.397C457.866 215.807 458.981 215.878 459.571 216.615C460.16 217.351 460.09 218.467 459.353 219.057L458.529 219.757C454.484 223.049 450.24 226.364 445.599 229.726C445.225 229.971 444.939 230.105 444.74 230.129ZM471.337 207.889C470.841 207.947 470.221 207.818 469.865 207.357C469.177 206.632 469.247 205.516 469.984 204.926C471.621 203.426 473.246 201.827 474.784 200.338C477.42 197.915 479.946 195.405 482.582 192.983C483.307 192.294 484.423 192.365 485.012 193.101C485.701 193.826 485.63 194.942 484.894 195.531C482.257 197.954 479.72 200.365 477.095 202.887C475.458 204.387 473.833 205.987 472.296 207.475C472.021 207.709 471.635 207.854 471.337 207.889ZM497.001 184.551C496.405 184.621 495.873 184.381 495.418 183.931C494.828 183.194 494.899 182.078 495.636 181.489C500.043 177.852 504.883 174.467 509.833 171.17C510.681 170.668 511.709 170.85 512.211 171.698C512.713 172.545 512.531 173.573 511.683 174.075C506.82 177.261 502.179 180.623 497.76 184.16C497.684 184.37 497.299 184.516 497.001 184.551ZM525.979 165.457C525.284 165.538 524.642 165.21 524.262 164.55C523.76 163.702 524.141 162.651 524.988 162.149C530.009 159.448 535.239 156.823 540.692 154.373C541.551 153.971 542.602 154.351 543.004 155.21C543.407 156.069 543.026 157.12 542.167 157.523C536.814 159.961 531.671 162.475 526.751 165.165C526.365 165.311 526.178 165.433 525.979 165.457ZM557.537 151.195C556.742 151.288 555.989 150.873 555.697 150.102C555.394 149.231 555.774 148.18 556.744 147.865C562.056 145.935 567.567 143.982 573.299 142.204C574.17 141.901 575.233 142.381 575.448 143.362C575.751 144.233 575.26 145.196 574.29 145.511C568.657 147.277 563.135 149.131 557.922 151.05C557.835 151.16 557.735 151.172 557.537 151.195ZM590.651 140.779C589.757 140.884 588.992 140.369 588.788 139.487C588.584 138.604 589.076 137.641 590.046 137.326C595.416 135.893 601.095 134.524 606.985 133.231C607.967 133.016 608.842 133.618 609.046 134.5C609.262 135.482 608.659 136.358 607.777 136.562C601.987 137.843 596.307 139.212 590.937 140.645C590.85 140.756 590.75 140.768 590.651 140.779Z" fill="black"/>
<path d="M99.57 146.26C96.2985 145.329 93.0748 144.617 89.7542 143.879C88.0816 143.559 86.4581 143.045 84.7119 143.016C83.0872 142.914 81.7755 143.614 80.6086 144.556C75.4784 148.931 74.2703 155.743 73.2818 162.095C73.1089 163.186 74.1974 164.183 75.2159 164.235C76.4283 164.335 77.1583 163.488 77.3313 162.398C78.0978 157.331 78.9391 151.561 82.9514 147.934C83.8999 147.04 84.4582 146.872 85.743 147.094C87.1248 147.34 88.5065 147.587 89.8637 147.93C92.6996 148.545 95.4141 149.232 98.2009 150.04C100.818 150.702 102.091 146.898 99.57 146.26Z" fill="black"/>
<path d="M114.715 335.458C104.535 333.295 94.2576 331.106 84.0773 328.943C81.5322 328.402 80.5509 332.279 83.0959 332.82C93.2762 334.984 103.553 337.172 113.734 339.336C116.279 339.877 117.26 335.999 114.715 335.458Z" fill="black"/>
<path d="M206.41 162.261C206.557 161.68 206.776 161.219 206.924 160.638C207.34 159.402 207.755 158.166 208.268 156.955C209.269 154.63 210.464 152.353 211.901 150.344C212.364 149.739 213.285 149.766 213.89 150.229C213.987 150.253 213.963 150.35 214.06 150.375C214.229 150.521 214.495 150.691 214.665 150.837C217.154 154.046 219.739 157.279 222.228 160.488C222.615 160.998 222.515 161.798 222.102 162.21C221.201 163.323 219.649 163.342 218.363 163.533L214.359 164.273C212.952 164.536 211.447 164.774 210.04 165.037C208.754 165.227 206.787 166.07 206.088 164.346C205.848 163.666 206.116 163.012 206.41 162.261ZM213.931 161.483C215.023 161.243 216.09 161.101 217.182 160.861C217.716 160.79 218.153 160.694 218.687 160.623C216.899 158.314 215.111 156.005 213.226 153.671C212.373 155.002 211.592 156.455 210.981 158.054C210.518 159.072 210.151 160.113 209.784 161.155C209.686 161.543 209.491 161.906 209.393 162.294C209.83 162.198 210.242 162.2 210.679 162.104L213.931 161.483Z" fill="#1E1E1E"/>
<path d="M224.703 176.794C225.165 176.601 225.748 176.336 226.306 176.168C227.472 175.637 228.734 175.132 229.972 174.723C232.352 173.881 234.779 173.257 237.326 172.974C238.079 172.855 238.707 173.633 238.729 174.36C238.705 174.457 238.68 174.554 238.68 174.554C238.728 174.773 238.751 175.088 238.702 175.282C237.987 179.33 237.297 183.281 236.582 187.33C236.531 187.936 235.778 188.467 235.172 188.417C233.716 188.461 232.749 187.391 231.636 186.491L228.442 184.032C227.329 183.131 226.119 182.206 224.981 181.403C223.941 180.623 222.027 179.624 222.857 177.977C223.247 177.25 223.999 177.131 224.703 176.794ZM230.34 181.83C231.211 182.463 232.058 183.194 232.929 183.827C233.365 184.143 233.704 184.435 234.139 184.752C234.657 181.891 235.199 178.934 235.62 176.049C233.994 176.36 232.44 176.792 230.862 177.321C229.843 177.682 228.823 178.042 227.779 178.5C227.439 178.621 226.977 178.813 226.638 178.933C226.976 179.226 227.339 179.421 227.678 179.713L230.34 181.83Z" fill="#59C59F"/>
<path d="M449.856 240.303C450.219 239.959 450.669 239.503 451.13 239.147C452.031 238.237 453.03 237.314 454.042 236.491C455.965 234.857 458.011 233.41 460.29 232.237C460.95 231.858 461.815 232.361 462.095 233.033C462.106 233.132 462.118 233.231 462.118 233.231C462.24 233.418 462.375 233.705 462.398 233.903C463.172 237.941 463.934 241.879 464.708 245.916C464.877 246.501 464.363 247.266 463.779 247.435C462.434 247.994 461.15 247.339 459.789 246.894L455.928 245.735C454.567 245.29 453.107 244.856 451.758 244.511C450.508 244.154 448.364 243.901 448.552 242.067C448.769 241.336 449.318 240.869 449.856 240.303ZM457.017 242.99C458.056 243.271 459.108 243.651 460.147 243.933C460.667 244.073 461.088 244.225 461.607 244.366C461.072 241.509 460.525 238.552 459.89 235.707C458.482 236.576 457.184 237.533 455.898 238.59C455.074 239.29 454.25 239.991 453.437 240.791C453.162 241.024 452.8 241.369 452.525 241.602C452.946 241.754 453.354 241.807 453.775 241.959L457.017 242.99Z" fill="#59C59F"/>
<path d="M23.3104 265.804C23.7461 266.121 24.1817 266.438 24.7143 266.779C25.7549 267.558 26.7956 268.337 27.7393 269.092C29.6991 270.722 31.4406 272.401 32.9869 274.442C33.4459 275.074 33.2005 276.044 32.5686 276.503C32.5441 276.6 32.4471 276.575 32.4471 276.575C32.3011 276.745 32.0582 276.889 31.8152 277.034C28.1966 278.697 24.675 280.385 21.0564 282.048C20.4735 282.313 19.747 281.923 19.4328 281.534C18.7087 280.319 19.0043 278.743 19.1294 277.434L19.4812 273.191C19.5584 271.663 19.7325 270.16 19.8821 268.753C20.0072 267.444 19.7468 265.212 21.5421 265.047C22.1249 264.782 22.7054 265.342 23.3104 265.804ZM22.1723 273.562C22.0963 274.678 22.0203 275.793 21.8474 276.884C21.8217 277.393 21.7959 277.903 21.7457 278.509C24.32 277.304 26.8944 276.098 29.5658 274.918C28.5263 273.726 27.3899 272.51 26.1075 271.464C25.2607 270.734 24.3894 270.1 23.615 269.492C23.2518 269.297 23.01 269.029 22.6713 268.737C22.6701 269.15 22.5475 269.634 22.5463 270.047L22.1723 273.562Z" fill="#1E1E1E"/>
<path fill-rule="evenodd" clip-rule="evenodd" d="M137.015 365.136C134.203 364.837 131.023 365.58 129.222 367.806C127.203 370.08 126.853 373.499 128.034 376.17C128.299 376.753 128.637 377.457 129.217 378.017C130.136 378.868 131.324 379.066 132.1 379.262C133.166 379.532 134.548 379.779 135.955 379.516C137.678 379.23 139.039 378.336 140.181 377.491C141.202 376.718 142.151 375.823 142.857 374.661C143.564 373.499 143.981 371.851 143.549 370.297C142.734 366.996 139.828 365.436 137.015 365.136ZM136.692 368.046C138.801 368.27 140.277 369.366 140.685 371.016C140.853 371.575 140.754 372.375 140.267 373.077C139.877 373.803 139.196 374.456 138.321 375.06C137.3 375.833 136.449 376.34 135.479 376.507C134.727 376.626 133.83 376.502 132.739 376.329C131.963 376.133 131.478 376.01 131.237 375.743C131.067 375.597 130.922 375.354 130.802 375.014C130.007 373.265 130.353 371.084 131.521 369.729C132.446 368.519 134.582 367.822 136.692 368.046Z" fill="#1E1E1E"/>
<path fill-rule="evenodd" clip-rule="evenodd" d="M30.4565 302.375C27.644 302.076 24.4646 302.819 22.6634 305.045C20.6438 307.319 20.2943 310.738 21.475 313.409C21.7401 313.992 22.0776 314.696 22.6581 315.256C23.5773 316.107 24.7651 316.305 25.5407 316.501C26.6071 316.771 27.9888 317.017 29.3963 316.755C31.1191 316.469 32.4799 315.575 33.6223 314.73C34.6432 313.956 35.5917 313.062 36.2984 311.9C37.0051 310.738 37.4222 309.089 36.9901 307.536C36.272 304.26 33.2691 302.675 30.4565 302.375ZM30.1083 305.382C32.2177 305.606 33.694 306.702 34.1015 308.352C34.2697 308.911 34.1704 309.711 33.6833 310.413C33.2931 311.139 32.6121 311.792 31.7372 312.396C30.7164 313.169 29.866 313.676 28.8954 313.843C28.1432 313.962 27.2462 313.838 26.1552 313.665C25.3797 313.469 24.895 313.346 24.6532 313.079C24.4839 312.933 24.339 312.69 24.2188 312.35C23.4234 310.601 23.7693 308.419 24.9374 307.065C25.984 305.782 28.0234 305.06 30.1083 305.382Z" fill="#F7C300"/>
<path fill-rule="evenodd" clip-rule="evenodd" d="M311.901 265.092C309.167 265.814 306.461 267.641 305.571 270.363C304.494 273.207 305.385 276.526 307.44 278.601C307.895 279.051 308.462 279.589 309.203 279.905C310.366 280.373 311.546 280.135 312.341 280.042C313.433 279.914 314.812 279.652 316.034 278.905C317.541 278.024 318.495 276.705 319.261 275.507C319.939 274.421 320.507 273.247 320.753 271.91C320.999 270.572 320.802 268.884 319.845 267.586C318.007 264.781 314.636 264.369 311.901 265.092ZM312.647 268.025C314.698 267.483 316.468 267.981 317.437 269.378C317.793 269.84 317.985 270.623 317.78 271.452C317.674 272.27 317.27 273.122 316.668 273.998C315.99 275.084 315.376 275.861 314.528 276.363C313.868 276.742 312.985 276.946 311.904 277.173C311.11 277.266 310.613 277.324 310.292 277.16C310.082 277.084 309.86 276.909 309.626 276.634C308.26 275.283 307.806 273.122 308.415 271.439C308.936 269.868 310.585 268.467 312.647 268.025Z" fill="#F7C300"/>
</svg>
