<svg width="522" height="367" viewBox="0 0 522 367" fill="none" xmlns="http://www.w3.org/2000/svg">
<path d="M348.052 92.168C347.371 89.962 346.759 87.1273 344.236 86.3421C342.915 85.9112 341.687 86.3811 340.437 86.7532C339.732 86.8032 339.048 86.951 338.385 87.1965C338.287 87.2176 338.189 87.2387 338.07 87.1621C337.442 87.0932 336.876 87.3176 336.549 87.6953C336.353 87.7375 336.276 87.8564 336.179 87.8775C329.199 90.6124 322.105 92.3488 314.703 93.1288C314.41 93.1921 314.117 93.2554 313.845 93.4165C313.041 93.4876 312.162 93.6776 311.401 93.9442C310.445 94.253 308.432 93.46 308.389 97.05C308.345 100.64 310.531 108.864 311.459 113.165C312.916 119.909 314.372 126.654 315.752 133.517C315.963 134.495 316.23 135.256 316.454 135.821C317.003 138.363 317.607 140.687 318.344 142.677C318.589 143.34 318.911 143.884 319.234 144.428C319.556 144.973 319.857 145.419 320.256 145.845C320.948 146.207 321.521 146.492 322.289 146.735C322.96 147 323.708 147.145 324.337 147.214C325.084 147.359 325.811 147.407 326.635 147.434C327.361 147.482 328.164 147.41 328.967 147.339C333.527 146.662 337.976 146.417 342.374 145.467C342.472 145.446 342.472 145.446 342.57 145.425C345.013 144.897 347.478 144.467 349.922 143.94C350.313 143.855 350.704 143.771 351.171 143.568C351.856 143.42 352.519 143.174 353.021 142.657C354.688 141.376 354.929 139.175 354.821 137.255C354.527 132.101 354.253 127.045 353.763 121.933C352.847 112.003 351.259 101.808 348.052 92.168Z" fill="#59C59F"/>
<path d="M12.5337 339.665C11.654 339.855 10.7243 339.34 10.4155 338.384C10.2044 337.406 10.7197 336.476 11.6972 336.265C12.3814 336.117 13.0657 335.97 13.7288 335.724C18.4762 334.494 23.258 332.95 27.9765 331.113C28.8351 330.825 29.8414 331.222 30.2269 332.059C30.5146 332.918 30.1181 333.924 29.2806 334.31C24.3666 336.189 19.4871 337.755 14.6631 339.103C13.9788 339.251 13.218 339.518 12.5337 339.665ZM-4.60086 342.752C-4.69861 342.773 -4.69862 342.773 -4.79636 342.794C-10.1802 343.445 -15.8996 343.964 -22.1709 344.295C-23.0929 344.29 -23.946 343.655 -23.9616 342.636C-23.956 341.714 -23.2241 340.839 -22.3021 340.845C-16.0308 340.514 -10.4092 340.016 -5.12304 339.386C-4.12446 339.273 -3.27138 339.907 -3.15804 340.905C-3.08692 341.709 -3.72114 342.562 -4.60086 342.752ZM44.8656 327.364C44.0836 327.532 43.2938 327.191 42.9295 326.452C42.544 325.614 42.8217 324.531 43.6592 324.146C48.5442 321.658 53.4637 318.857 58.6131 315.699C59.4295 315.216 60.5126 315.493 60.9958 316.31C61.479 317.126 61.2013 318.209 60.3849 318.692C55.1589 321.969 50.1416 324.792 45.1588 327.3C45.1377 327.202 45.0611 327.321 44.8656 327.364ZM-39.1701 344.692C-39.2679 344.713 -39.4634 344.755 -39.5611 344.777C-45.7981 344.793 -51.4486 344.684 -57.0435 344.357C-57.9866 344.254 -58.763 343.501 -58.6597 342.558C-58.5565 341.615 -57.8034 340.838 -56.8604 340.942C-51.3632 341.289 -45.7127 341.399 -39.5735 341.403C-38.6515 341.409 -37.8751 342.162 -37.8595 343.181C-37.8306 343.789 -38.4093 344.426 -39.1701 344.692ZM74.4991 309.199C73.8149 309.347 73.144 309.083 72.703 308.462C72.122 307.666 72.302 306.605 73.0972 306.024C77.3669 303.055 81.9643 299.71 87.1825 295.923C87.9778 295.342 89.0397 295.522 89.6207 296.317C90.2016 297.112 90.0217 298.174 89.2264 298.755C84.0293 302.64 79.4319 305.986 75.0645 308.975C74.8901 309.115 74.6946 309.157 74.4991 309.199ZM-73.8017 342.554C-73.9972 342.596 -74.1927 342.638 -74.4093 342.583C-80.4031 341.831 -86.1669 340.723 -91.6586 339.453C-92.6227 339.252 -93.127 338.338 -92.926 337.374C-92.725 336.41 -91.7131 335.884 -90.8467 336.107C-85.4528 337.397 -79.8078 338.429 -73.9118 339.202C-72.9688 339.305 -72.269 340.177 -72.47 341.141C-72.6155 341.889 -73.1175 342.406 -73.8017 342.554ZM102.488 288.628C101.803 288.776 101.132 288.511 100.713 287.988C100.132 287.193 100.311 286.131 101.009 285.571C104.79 282.709 109.792 278.866 114.674 274.947C115.47 274.366 116.511 274.448 117.092 275.244C117.672 276.039 117.59 277.08 116.795 277.661C111.912 281.58 106.911 285.422 103.053 288.404C102.857 288.446 102.683 288.586 102.488 288.628ZM-107.563 334.499C-107.856 334.562 -108.268 334.549 -108.506 334.395C-111.958 333.095 -115.334 331.675 -118.514 330.214C-119.423 329.796 -119.752 328.742 -119.314 327.931C-118.896 327.023 -117.842 326.693 -117.031 327.131C-113.949 328.614 -110.594 329.936 -107.261 331.16C-106.373 331.48 -105.945 332.513 -106.265 333.4C-106.453 333.952 -106.976 334.372 -107.563 334.499ZM129.377 266.759C128.791 266.886 128.141 266.719 127.721 266.196C127.064 265.52 127.125 264.381 127.899 263.703C132.195 259.91 136.003 256.223 139.615 252.579L140.368 251.802C141.044 251.145 142.162 251.108 142.819 251.785C143.477 252.461 143.514 253.578 142.837 254.236L142.084 255.013C138.493 258.755 134.588 262.463 130.194 266.276C129.943 266.535 129.671 266.696 129.377 266.759ZM153.552 241.794C153.064 241.9 152.435 241.831 152.036 241.405C151.281 240.75 151.244 239.633 151.823 238.996C153.308 237.345 154.674 235.618 156.159 233.967C158.432 231.226 160.823 228.561 163.096 225.82C163.751 225.064 164.868 225.028 165.526 225.704C166.281 226.359 166.318 227.477 165.642 228.134C163.25 230.799 160.978 233.541 158.684 236.184C157.22 237.933 155.833 239.562 154.348 241.213C154.216 241.548 153.943 241.71 153.552 241.794ZM176.616 215.943C176.029 216.07 175.477 215.882 174.98 215.478C174.323 214.802 174.286 213.684 174.963 213.027C179 208.983 183.373 205.072 187.984 201.314C188.681 200.754 189.82 200.815 190.38 201.513C190.961 202.308 190.878 203.349 190.181 203.909C185.668 207.646 181.372 211.438 177.432 215.46C177.279 215.698 177.007 215.859 176.616 215.943ZM203.365 193.9C202.681 194.048 202.01 193.784 201.569 193.163C200.988 192.368 201.266 191.285 201.964 190.725C206.582 187.477 211.634 184.34 216.728 181.398C217.544 180.915 218.627 181.193 219.11 182.009C219.593 182.825 219.316 183.908 218.499 184.392C213.405 187.333 208.549 190.428 203.91 193.578C203.833 193.697 203.561 193.858 203.365 193.9ZM233.342 176.378C232.56 176.547 231.771 176.206 231.406 175.466C231.021 174.629 231.298 173.546 232.234 173.139C237.216 170.631 242.611 168.136 248.048 165.836C248.886 165.451 249.99 165.826 250.299 166.783C250.684 167.62 250.309 168.724 249.353 169.033C243.915 171.333 238.618 173.807 233.733 176.294C233.635 176.315 233.44 176.357 233.342 176.378ZM265.239 162.534C264.359 162.723 263.548 162.285 263.26 161.426C262.973 160.568 263.369 159.561 264.304 159.155C269.512 157.212 275.012 155.205 280.729 153.255C281.588 152.967 282.615 153.461 282.903 154.32C283.212 155.276 282.696 156.206 281.838 156.494C276.218 158.423 270.697 160.332 265.608 162.351C265.336 162.512 265.239 162.534 265.239 162.534Z" fill="black"/>
<path d="M345.046 170.16C343.781 169.512 342.273 169.633 340.883 169.831C339.298 170.071 337.637 170.43 336.073 170.767C328.644 172.372 332.847 171.464 325.46 173.264C325.265 173.306 325.167 173.327 325.091 173.446C324.797 173.509 324.644 173.747 324.512 174.082C324.004 175.522 324.244 177.107 324.463 178.594L324.911 183.511C325.074 185.214 325.119 186.842 325.38 188.525C325.641 190.207 327.268 190.163 328.539 189.888C335.088 188.474 334.816 188.635 341.365 187.221C343.027 186.862 339.899 187.538 341.56 187.179C342.929 186.883 344.416 186.664 345.84 186.152C347.047 185.585 347.856 184.592 348.07 183.215C348.243 181.644 348.079 179.94 347.937 178.334C347.795 176.727 347.555 175.142 347.238 173.676C346.922 172.21 346.431 170.884 345.046 170.16Z" fill="#59C59F"/>
<path d="M443.212 60.9788C442.254 59.8558 440.716 59.3694 439.264 59.2739C438.851 59.2606 438.439 59.2472 438.048 59.3317C438.048 59.3317 437.951 59.3528 437.93 59.255C437.182 59.1096 436.345 59.495 435.821 59.9149C435.222 60.4537 434.881 61.2434 434.735 61.991C434.521 63.3672 434.782 65.05 435.643 66.1941C436.644 67.5125 438.411 67.6424 439.877 67.3258C441.343 67.0092 443.018 66.2383 443.764 64.952C444.509 63.6657 444.073 62.1228 443.212 60.9788Z" fill="#F7C300"/>
<path d="M341.21 80.8572C338.856 80.854 336.489 81.2628 334.122 81.6717L301.132 88.0797C300.447 88.2275 300.162 88.8006 300.212 89.506L300.275 89.7992L300.101 89.9392C299.752 90.2191 299.467 90.7923 299.67 91.2599C303.091 99.5239 312.182 137.357 314.159 146.036C314.285 146.622 314.998 147.082 315.508 147.074C323.114 146.762 321.481 147.728 341.617 143.38C347.09 142.198 351.294 141.29 353.325 140.749C353.912 140.623 354.393 140.007 354.364 139.4C354.411 129.671 346.227 90.8229 342.658 81.8747C342.153 80.9605 341.503 80.7939 341.21 80.8572ZM351.379 137.896L351.366 138.308L350.975 138.392C349.606 138.688 348.161 139.102 346.695 139.419C340.146 140.833 323.814 143.848 317.033 144.187L316.621 144.174L316.515 143.685C314.708 135.789 305.786 98.7374 302.75 91.3109L302.505 90.6478L334.42 84.4719C336.18 84.092 338.058 83.7887 339.881 83.702L340.293 83.7153L340.475 84.0852C343.204 91.9871 351.114 129.564 351.379 137.896Z" fill="black"/>
<path d="M396.543 87.4255C390.621 87.4768 384.735 88.6456 379.065 89.8698C377.697 90.1653 376.329 90.4608 374.862 90.7775C367.608 92.2417 360.193 93.4338 352.756 94.5282L352.658 94.5493C352.072 94.6759 351.689 95.2702 351.836 95.9544C352.005 96.7364 352.565 97.4339 353.466 97.3417C360.707 96.2896 368.025 95.1186 375.083 93.6966C376.55 93.3799 378.114 93.0422 379.58 92.7256L379.775 92.6834C385.151 91.5224 390.723 90.3193 396.352 90.3313C396.45 90.3102 396.548 90.2891 396.646 90.268C397.037 90.1836 397.288 89.9247 397.518 89.5682C397.726 89.1139 397.774 88.3874 397.473 87.9409C397.291 87.571 396.955 87.4388 396.543 87.4255Z" fill="black"/>
<path d="M354.501 107.349C354.76 107.6 355.117 107.83 355.606 107.724C364.263 105.65 373.123 104.043 381.873 102.87L381.971 102.849C382.264 102.786 382.536 102.625 382.591 102.408C382.745 102.17 382.877 101.835 382.792 101.444C382.721 100.641 382.043 99.8666 381.163 100.057C372.413 101.23 363.553 102.836 354.993 104.889C354.407 105.016 354.198 105.47 354.066 105.806C353.976 106.337 354.124 107.021 354.501 107.349Z" fill="black"/>
<path d="M357.07 114.978C356.679 115.063 356.351 115.44 356.24 115.874C356.15 116.405 356.277 116.991 356.578 117.438C356.858 117.786 357.193 117.919 357.584 117.834C364.482 116.14 371.681 114.892 378.769 114.078L378.866 114.057C379.16 113.993 379.334 113.854 379.411 113.735C379.564 113.497 379.598 113.183 379.591 112.673C379.422 111.891 378.96 111.172 378.156 111.243C371.069 112.058 363.968 113.284 357.07 114.978Z" fill="black"/>
<path d="M356.78 112.688L370.689 110.298C370.689 110.298 370.689 110.298 370.786 110.277C371.177 110.193 371.407 109.836 371.484 109.717C371.714 109.361 371.727 108.949 371.643 108.558C371.453 107.678 370.663 107.337 370.055 107.366L356.07 109.874C355.679 109.959 355.428 110.218 355.372 110.434C355.142 110.791 355.129 111.203 355.214 111.594C355.306 112.495 356.096 112.836 356.78 112.688Z" fill="black"/>
<path d="M402.719 101.335C394.159 103.388 385.298 104.995 376.451 106.189C376.06 106.274 375.788 106.435 375.733 106.651C375.579 106.889 375.447 107.225 375.532 107.616C375.574 107.811 375.7 108.398 376.176 108.704C376.435 108.955 376.77 109.087 377.161 109.003C384.228 108.091 391.329 106.864 398.269 105.365C399.931 105.007 401.592 104.648 403.254 104.289C403.841 104.162 404.049 103.708 404.181 103.373C404.271 102.842 404.124 102.157 403.823 101.711C403.662 101.439 403.207 101.23 402.719 101.335Z" fill="black"/>
<path d="M404.672 95.696L387.831 98.719C387.44 98.8035 387.091 99.0834 387.036 99.3C386.806 99.6565 386.695 100.09 386.779 100.481C386.969 101.36 387.856 101.68 388.562 101.63L405.424 98.7051C405.815 98.6207 406.066 98.3618 406.22 98.1241C406.449 97.7676 406.561 97.3344 406.476 96.9434C406.363 95.9448 405.454 95.5272 404.672 95.696Z" fill="black"/>
<path d="M401.691 109.844C401.921 109.487 402.032 109.054 401.948 108.663C401.758 107.784 400.87 107.464 400.165 107.514L383.324 110.537C382.933 110.621 382.584 110.901 382.528 111.118C382.299 111.474 382.187 111.907 382.272 112.298C382.462 113.178 383.349 113.498 384.055 113.448L400.896 110.425C401.385 110.319 401.636 110.061 401.691 109.844Z" fill="black"/>
<path d="M445.699 149.243C436.07 150.606 426.33 152.402 416.89 154.645C416.206 154.793 415.997 155.247 415.865 155.583C415.678 156.135 415.825 156.819 416.224 157.244C416.483 157.495 416.839 157.725 417.426 157.599C426.963 155.335 436.703 153.538 446.332 152.175L446.43 152.154C446.821 152.069 446.995 151.929 447.149 151.692C447.302 151.454 447.434 151.119 447.35 150.728C447.279 149.925 446.698 149.129 445.699 149.243Z" fill="black"/>
<path d="M442.106 160.556C434.334 161.518 426.451 162.913 418.869 164.755C418.38 164.861 418.053 165.239 417.942 165.672C417.852 166.203 417.978 166.789 418.279 167.236C418.559 167.585 418.992 167.696 419.383 167.611C427.063 165.748 434.849 164.374 442.718 163.391L442.816 163.369C443.109 163.306 443.284 163.166 443.36 163.047C443.514 162.81 443.646 162.474 443.54 161.985C443.588 161.259 443.007 160.464 442.106 160.556Z" fill="black"/>
<path d="M418.579 162.465L433.856 159.78C433.856 159.78 433.857 159.78 433.954 159.759C434.345 159.674 434.673 159.297 434.75 159.178C434.979 158.821 435.09 158.388 435.006 157.997C434.816 157.117 433.929 156.797 433.223 156.847L417.925 159.435C417.534 159.519 417.283 159.778 417.129 160.016C416.9 160.372 416.788 160.806 416.873 161.197C417.007 162.293 417.895 162.613 418.579 162.465Z" fill="black"/>
<path d="M360.667 137.322C360.828 137.595 361.304 137.901 361.89 137.775C369.739 136.693 377.72 135.277 385.539 133.588C387.397 133.187 389.156 132.807 391.013 132.406C391.404 132.322 391.753 132.042 391.885 131.706C392.192 131.231 392.065 130.645 392.023 130.449C391.938 130.058 391.777 129.786 391.54 129.633C391.302 129.479 390.988 129.445 390.597 129.529C382.896 131.295 374.957 132.907 367.129 134.085C365.251 134.389 363.373 134.692 361.474 134.898C360.866 134.927 360.538 135.304 360.504 135.619C360.218 136.192 360.268 136.897 360.667 137.322Z" fill="black"/>
<path d="M384.409 121.249C384.325 120.858 384.143 120.488 383.905 120.335C383.786 120.258 383.451 120.126 383.157 120.189C376.944 121.736 370.59 123.108 364.25 124.068C362.763 124.286 361.178 124.526 359.69 124.745C359.299 124.83 358.951 125.11 358.818 125.445C358.61 125.899 358.757 126.584 359.058 127.03C359.359 127.477 359.695 127.609 360.205 127.601C365.665 126.831 371.084 125.866 376.46 124.705C378.806 124.198 381.249 123.67 383.574 123.066C384.377 122.995 384.578 122.031 384.409 121.249Z" fill="black"/>
<path d="M360.164 132.623C360.423 132.874 360.737 132.908 361.128 132.824L376.419 129.727C377.103 129.579 377.682 128.942 377.589 128.041C377.505 127.65 377.323 127.281 376.966 127.051C376.847 126.974 376.491 126.744 376.002 126.85L360.711 129.947C360.027 130.095 359.351 130.752 359.541 131.632C359.506 131.946 359.786 132.295 360.164 132.623Z" fill="black"/>
<path d="M383.639 128.577C391.34 126.811 399.278 125.199 407.106 124.021C408.984 123.717 410.862 123.414 412.762 123.208C412.859 123.187 412.859 123.187 412.859 123.187C413.348 123.082 413.578 122.725 413.731 122.487C413.919 121.935 413.869 121.23 413.47 120.805C413.309 120.533 412.834 120.226 412.247 120.353C402.52 121.737 392.78 123.533 383.243 125.797C382.852 125.882 382.503 126.162 382.371 126.497C382.086 127.07 382.191 127.559 382.234 127.755C382.318 128.146 382.479 128.418 382.717 128.571C382.912 128.529 383.227 128.563 383.639 128.577Z" fill="black"/>
<path d="M417.085 127.595C417.867 127.426 418.543 126.768 418.451 125.867C418.367 125.476 418.087 125.128 417.709 124.8C417.493 124.744 417.136 124.514 416.647 124.62L397.991 128.24C397.209 128.408 396.532 129.066 396.625 129.967C396.709 130.358 396.989 130.707 397.367 131.034C397.583 131.09 397.94 131.32 398.429 131.214L417.085 127.595Z" fill="black"/>
<path d="M388.181 121.662C388.3 121.739 388.755 121.947 389.243 121.842L407.9 118.222C408.682 118.053 409.358 117.396 409.266 116.495C409.181 116.104 408.902 115.755 408.524 115.428C408.307 115.372 407.951 115.142 407.462 115.248L388.806 118.867C388.024 119.036 387.249 119.715 387.439 120.595C387.447 121.104 387.727 121.453 388.181 121.662Z" fill="black"/>
<path d="M345.329 171.94C345.139 171.06 344.949 170.181 344.487 169.462C343.478 167.634 340.434 168.7 338.458 169.025C336.189 169.412 327.609 171.368 325.284 171.972C323.057 172.555 321.165 173.271 320.644 175.122C320.324 176.01 320.438 177.008 320.572 178.105C320.728 179.299 320.981 180.472 321.115 181.568L321.179 181.861C321.545 184.033 321.587 184.228 322.234 186.749C322.382 187.433 323.074 187.795 323.856 187.626L324.54 187.478L324.492 188.205C324.513 188.302 324.535 188.4 324.556 188.498C324.746 189.378 325.689 189.481 326.373 189.333L333.397 188.225C333.593 188.183 329.585 189.049 334.277 188.036C339.262 186.959 340.533 186.685 340.826 186.621C341.531 186.571 342.118 186.445 342.802 186.297C343.975 186.044 345.106 185.595 345.817 184.623C346.855 183.273 346.692 181.569 346.626 179.844L346.116 179.852L346.626 179.844L346.563 179.551C346.492 178.748 346.484 178.238 346.518 177.924C346.49 177.316 346.503 176.904 346.305 175.515C346.094 174.537 345.883 173.56 345.672 172.582L345.329 171.94ZM324.14 181.836L324.077 181.542C323.844 180.467 323.71 179.371 323.457 178.198C323.436 178.1 323.414 178.002 323.393 177.905L323.372 177.807C323.225 177.123 323.013 176.145 323.397 175.551C323.703 175.075 324.485 174.907 325.148 174.661C325.246 174.64 325.344 174.619 325.442 174.598C326.593 174.247 327.864 173.972 329.114 173.6C330.091 173.389 337.715 171.743 339.084 171.447C339.67 171.32 340.159 171.215 340.767 171.186C340.864 171.165 340.962 171.144 341.06 171.123L341.842 170.954L342.172 172.008C342.298 172.594 342.502 173.062 342.628 173.649C342.882 174.822 343.135 175.994 343.388 177.167C343.628 178.752 343.615 179.165 343.588 179.989C343.575 180.401 343.562 180.813 343.514 181.539L343.535 181.637C343.564 182.245 343.537 183.069 342.993 183.391C342.644 183.671 342.037 183.7 341.45 183.827C341.353 183.848 341.255 183.869 341.157 183.89L324.825 186.905L324.797 186.297C324.775 186.2 324.754 186.102 324.733 186.004C324.562 183.79 324.541 183.693 324.14 181.836Z" fill="black"/>
<path d="M376.521 163.363C375.256 162.715 373.747 162.836 372.358 163.034C370.773 163.274 369.111 163.633 367.547 163.971C360.118 165.575 364.321 164.667 356.935 166.467C356.739 166.509 356.642 166.53 356.565 166.649C356.272 166.712 356.118 166.95 355.986 167.286C355.479 168.725 355.719 170.31 355.938 171.798L356.385 176.714C356.549 178.418 356.593 180.045 356.854 181.728C357.115 183.411 358.743 183.366 360.013 183.092C366.562 181.677 366.29 181.839 372.839 180.424C374.501 180.065 371.373 180.741 373.035 180.382C374.403 180.087 375.891 179.868 377.315 179.356C378.522 178.788 379.331 177.795 379.545 176.419C379.717 174.847 379.554 173.143 379.411 171.537C379.269 169.931 379.029 168.346 378.713 166.879C378.396 165.413 377.905 164.087 376.521 163.363Z" fill="#F7C300"/>
<path d="M376.803 165.143C376.613 164.264 376.423 163.384 375.961 162.665C374.952 160.837 371.909 161.903 369.933 162.228C367.664 162.616 359.083 164.571 356.758 165.175C354.531 165.758 352.64 166.474 352.119 168.325C351.799 169.213 351.912 170.212 352.047 171.308C352.202 172.502 352.455 173.675 352.59 174.771L352.653 175.064C353.02 177.236 353.062 177.431 353.709 179.952C353.856 180.636 354.548 180.998 355.33 180.829L356.015 180.681L355.967 181.408C355.988 181.506 356.009 181.603 356.03 181.701C356.22 182.581 357.163 182.684 357.847 182.536L364.872 181.429C365.067 181.387 361.06 182.252 365.752 181.239C370.737 180.162 372.007 179.888 372.301 179.825C373.006 179.775 373.592 179.648 374.277 179.5C375.45 179.247 376.58 178.798 377.291 177.826C378.33 176.476 378.166 174.773 378.101 173.048L377.591 173.055L378.101 173.048L378.037 172.754C377.966 171.951 377.959 171.441 377.993 171.127C377.964 170.519 377.977 170.107 377.78 168.718C377.569 167.74 377.357 166.763 377.146 165.785L376.803 165.143ZM355.614 175.039L355.551 174.746C355.319 173.67 355.184 172.574 354.931 171.401C354.91 171.303 354.889 171.206 354.868 171.108L354.847 171.01C354.699 170.326 354.488 169.348 354.871 168.754C355.178 168.279 355.96 168.11 356.623 167.864C356.721 167.843 356.818 167.822 356.916 167.801C358.068 167.45 359.339 167.176 360.588 166.803C361.566 166.592 369.19 164.946 370.558 164.65C371.145 164.524 371.634 164.418 372.241 164.389C372.339 164.368 372.437 164.347 372.534 164.326L373.316 164.157L373.646 165.211C373.773 165.798 373.976 166.265 374.103 166.852C374.356 168.025 374.61 169.198 374.863 170.371C375.103 171.956 375.089 172.368 375.063 173.192C375.049 173.604 375.036 174.016 374.988 174.743L375.01 174.84C375.038 175.448 375.012 176.272 374.468 176.594C374.119 176.874 373.511 176.903 372.925 177.03C372.827 177.051 372.729 177.072 372.631 177.093L356.3 180.108L356.271 179.501C356.25 179.403 356.229 179.305 356.208 179.207C356.037 176.994 356.015 176.896 355.614 175.039Z" fill="black"/>
<path d="M409.168 156.313C407.903 155.665 406.395 155.786 405.005 155.984C403.42 156.224 401.758 156.583 400.195 156.921C392.766 158.525 396.969 157.617 389.582 159.417C389.387 159.459 389.289 159.48 389.212 159.599C388.919 159.662 388.766 159.9 388.634 160.236C388.126 161.675 388.366 163.26 388.585 164.748L389.033 169.664C389.196 171.368 389.241 172.995 389.502 174.678C389.763 176.361 391.39 176.316 392.661 176.042C399.21 174.627 398.938 174.788 405.487 173.374C407.148 173.015 404.021 173.691 405.682 173.332C407.051 173.037 408.538 172.818 409.962 172.306C411.169 171.738 411.978 170.745 412.192 169.369C412.365 167.797 412.201 166.093 412.059 164.487C411.917 162.881 411.677 161.296 411.36 159.829C411.043 158.363 410.65 157.016 409.168 156.313Z" fill="#59C59F"/>
<path d="M409.548 158.072C409.358 157.192 409.168 156.313 408.706 155.594C407.698 153.766 404.654 154.832 402.678 155.157C400.409 155.544 391.828 157.5 389.503 158.104C387.276 158.687 385.385 159.403 384.864 161.254C384.544 162.142 384.657 163.14 384.792 164.237C384.947 165.431 385.201 166.604 385.335 167.7L385.398 167.993C385.765 170.165 385.807 170.36 386.454 172.881C386.601 173.565 387.294 173.927 388.076 173.758L388.76 173.61L388.712 174.337C388.733 174.434 388.754 174.532 388.775 174.63C388.965 175.51 389.908 175.613 390.593 175.465L397.617 174.358C397.812 174.315 393.805 175.181 398.497 174.168C403.482 173.091 404.753 172.817 405.046 172.753C405.751 172.703 406.338 172.577 407.022 172.429C408.195 172.176 409.326 171.727 410.036 170.755C411.075 169.405 410.912 167.701 410.846 165.976L410.336 165.984L410.846 165.976L410.783 165.683C410.712 164.88 410.704 164.37 410.738 164.056C410.709 163.448 410.723 163.036 410.525 161.647C410.314 160.669 410.103 159.692 409.892 158.714L409.548 158.072ZM388.36 167.968L388.296 167.674C388.064 166.599 387.93 165.503 387.676 164.33C387.655 164.232 387.634 164.134 387.613 164.037L387.592 163.939C387.444 163.255 387.233 162.277 387.616 161.683C387.923 161.208 388.705 161.039 389.368 160.793C389.466 160.772 389.563 160.751 389.661 160.73C390.813 160.379 392.084 160.104 393.333 159.732C394.311 159.521 401.935 157.875 403.304 157.579C403.89 157.453 404.379 157.347 404.986 157.318C405.084 157.297 405.182 157.276 405.28 157.255L406.062 157.086L406.392 158.14C406.518 158.727 406.721 159.194 406.848 159.781C407.101 160.954 407.355 162.127 407.608 163.3C407.848 164.885 407.835 165.297 407.808 166.121C407.795 166.533 407.781 166.945 407.734 167.671L407.755 167.769C407.784 168.377 407.757 169.201 407.213 169.523C406.864 169.803 406.256 169.832 405.67 169.959C405.572 169.98 405.474 170.001 405.377 170.022L389.045 173.037L389.016 172.43C388.995 172.332 388.974 172.234 388.953 172.136C388.684 169.944 388.663 169.846 388.36 167.968Z" fill="black"/>
<path d="M439.52 58.0931C439.031 58.1987 438.683 58.4786 438.474 58.9329C438.257 58.8774 437.964 58.9407 437.79 59.0807C436.101 60.2637 435.189 62.1998 435.437 64.2947C435.664 66.2918 437.238 67.8957 439.187 68.3955C440.054 68.6176 440.878 68.6443 441.66 68.4754C442.833 68.2221 443.921 67.5778 444.632 66.6059C445.922 64.9974 446.142 62.6993 445.231 60.8499C444.299 58.9027 441.887 57.6843 439.52 58.0931ZM440.09 60.7323C440.579 60.6268 441.012 60.7378 441.564 60.9255C441.683 61.0022 442.018 61.1343 442.158 61.3087C442.396 61.462 442.536 61.6364 442.697 61.9085C443.257 62.606 443.196 63.7446 442.778 64.6532C442.472 65.1286 442.144 65.5063 441.676 65.7096L441.502 65.8495C441.404 65.8707 441.209 65.9129 441.111 65.934C440.916 65.9762 440.72 66.0184 440.406 65.984C439.994 65.9707 439.539 65.7619 439.064 65.4553C438.945 65.3787 438.945 65.3787 438.805 65.2043C438.686 65.1276 438.665 65.0299 438.525 64.8555C438.504 64.7578 438.483 64.66 438.385 64.6811C438.364 64.5834 438.364 64.5834 438.343 64.4856L438.322 64.3879C438.237 63.9969 438.195 63.8014 438.251 63.5848C438.264 63.1727 438.243 63.075 438.375 62.7395C438.507 62.4041 438.486 62.3063 438.716 61.9497C438.793 61.8309 438.793 61.8309 438.869 61.712C438.967 61.6909 438.946 61.5932 439.044 61.5721L439.141 61.551C439.141 61.551 439.239 61.5299 439.218 61.4321C439.49 61.271 439.741 61.0122 439.776 60.6979C439.895 60.7745 439.992 60.7534 440.09 60.7323Z" fill="black"/>
<path d="M413.182 71.1467C413.573 71.0622 413.845 70.9012 414.117 70.7401C415.108 70.1169 415.832 68.7329 414.985 67.1767C414.565 66.6536 414.068 66.2493 413.418 66.0827C412.37 65.4907 411.371 65.604 410.597 66.2827C409.67 67.1991 409.519 68.8686 410.184 70.0549C411.122 71.0801 412.302 71.3366 413.182 71.1467Z" fill="black"/>
<path d="M419.396 69.6003C419.71 69.6347 420.024 69.6691 420.415 69.5847C421.1 69.4369 421.72 68.9959 422.222 68.4783C422.954 67.6041 423.037 66.5633 422.588 65.4326C422.168 64.9094 421.574 64.5262 421.022 64.3385C419.896 63.8653 419.114 64.0342 418.647 64.2375C418.005 64.5807 417.426 65.2172 417.225 66.1814C416.662 67.8376 417.663 69.156 419.396 69.6003Z" fill="black"/>
<path d="M429.666 62.6765C428.149 62.2878 425.978 62.6544 424.828 64.4372L424.752 64.5561C424.307 66.2889 425.504 67.5651 426.846 68.0938C427.279 68.2049 427.789 68.1971 428.18 68.1126C428.375 68.0704 428.571 68.0282 428.745 67.8882C429.973 67.4183 430.991 65.971 431.031 64.7347C431.134 63.7916 430.672 63.073 429.666 62.6765Z" fill="black"/>
<path d="M476.09 154.956C475.668 153.001 475.127 150.97 474.705 149.015L473.319 143.074C472.897 141.119 472.356 139.087 471.934 137.132C471.512 135.177 470.971 133.146 470.549 131.191C470.029 129.257 469.585 127.204 469.066 125.27C468.546 123.336 468.145 121.479 467.625 119.545C463.864 104.5 459.964 89.2806 456.008 74.2776C453.802 65.9558 451.434 57.3618 449.088 48.8656C448.982 48.3769 448.584 47.9515 448.053 47.8615C447.522 47.7716 446.935 47.8982 446.608 48.2759C446.531 48.3948 446.357 48.5347 446.28 48.6536C446.063 48.5981 445.847 48.5425 445.651 48.5847C425.325 52.0533 404.791 55.9761 384.655 60.3243C364.498 64.5748 344.272 69.454 324.522 74.6397C313.386 77.5559 302.174 80.5909 291.102 83.8003C290.907 83.8425 290.809 83.8636 290.733 83.9824C290.188 84.3046 289.903 84.8777 290.051 85.562C293.592 99.1199 296.415 113.14 298.609 127.091L299.039 129.556C299.936 135.603 300.972 141.824 302.302 147.982C303.455 152.849 304.63 157.813 305.881 162.658L305.923 162.853C306.443 164.787 306.865 166.742 307.385 168.676L313.135 191.987C312.648 193.525 313.168 195.458 314.462 196.714C315.896 198.143 318.16 198.677 321.135 198.239C323.111 197.915 325.066 197.493 327.021 197.071L327.412 196.986C328.096 196.839 328.78 196.691 329.367 196.564C332.299 195.931 335.155 195.417 338.087 194.783C344.245 193.453 350.62 192.179 356.876 190.828C362.154 189.688 367.432 188.549 372.808 187.388C383.931 184.884 395.639 182.253 407.424 179.503C418.525 176.902 430.115 174.194 442.074 171.305L465.679 165.491C466.95 165.217 468.199 164.845 469.47 164.57L470.057 164.444C471.795 163.966 473.554 163.586 475.195 163.129L476.563 162.834C476.759 162.792 477.15 162.707 477.38 162.351C477.686 161.875 477.581 161.387 477.539 161.191C477.116 159.236 476.673 157.183 476.09 154.956ZM469.704 140.069C471.131 146.206 472.783 152.908 474.506 160.414C464.013 162.987 455.181 165.201 446.719 167.233C435.053 170.059 424.169 172.716 413.34 175.157C401.848 177.843 390.649 180.466 379.897 182.788C368.482 185.355 357.143 187.804 346.391 190.126C340.82 191.329 335.129 192.455 329.655 193.637L327.309 194.144C325.354 194.566 323.4 194.988 321.424 195.313C319.35 195.658 317.059 195.948 316.093 194.315C315.652 193.694 315.623 193.087 315.93 192.611C316.159 192.255 316.194 191.94 316.109 191.549C316.046 191.256 315.885 190.984 315.647 190.831C314.642 186.649 313.539 182.488 312.533 178.306C310.34 169.572 307.915 159.763 305.63 150.128C304.013 143.112 302.786 136.01 301.763 129.377C300.626 121.745 299.344 114.86 298.049 108.388C296.585 101.134 294.862 93.6282 293.062 86.2417C312.532 80.7071 332.185 75.5425 351.727 70.8111C371.659 65.9952 391.893 61.6259 412.015 57.6897C423.201 55.4789 434.721 53.4003 446.068 51.4616C446.263 51.4194 446.459 51.3772 446.633 51.2372C450.658 65.6115 454.53 80.2236 458.261 94.6612C462.238 109.762 466.041 125.003 469.704 140.069Z" fill="black"/>
<path d="M451.71 94.6437C450.562 88.8555 449.415 83.0673 448.267 77.2791C447.866 75.4219 444.933 76.0552 445.335 77.9124C449.236 98.3493 453.648 118.778 458.429 139.025C459.772 144.771 461.213 150.496 462.654 156.221C463.153 158.057 466.085 157.424 465.587 155.588C460.61 135.383 455.905 115.017 451.71 94.6437Z" fill="black"/>
<path d="M459.398 120.299C458.72 119.525 457.811 119.107 457.021 118.766C456.113 118.348 455.106 117.952 454.031 118.184C451.957 118.53 450.913 120.801 451.412 122.637C451.433 122.735 451.356 122.854 451.399 123.049C451.507 124.97 452.621 127.287 454.57 127.787C455.653 128.064 456.771 128.028 457.867 127.893C458.356 127.788 458.865 127.78 459.312 127.479C459.856 127.157 460.239 126.562 460.427 126.01C460.649 125.144 460.655 124.222 460.584 123.419C460.526 122.204 460.196 121.15 459.398 120.299Z" fill="#F7C300"/>
<path d="M462.354 121.195C461.079 118.606 458.353 117.353 455.643 117.12C455.622 117.022 455.622 117.022 455.601 116.924C455.236 116.185 454.251 115.886 453.63 116.327C451.453 117.615 449.759 119.72 449.484 122.235C449.132 124.869 450.679 127.297 452.993 128.536C455.425 129.853 458.527 130.001 460.815 128.28C463.005 126.579 463.608 123.687 462.354 121.195ZM460.018 123.643C460.06 123.839 460.018 123.643 460.06 123.839C460.068 124.349 460.089 124.446 459.881 124.901C459.957 124.782 459.748 125.236 459.651 125.257C459.497 125.495 459.497 125.495 459.323 125.635C458.995 126.013 458.898 126.034 458.528 126.216C458.158 126.398 457.865 126.461 457.376 126.567C456.594 126.736 455.727 126.514 454.938 126.173C454.602 126.041 454.819 126.096 454.819 126.096C454.7 126.019 454.602 126.041 454.581 125.943C454.365 125.887 454.225 125.713 453.987 125.56C453.728 125.309 453.469 125.058 453.092 124.73C453.092 124.73 453.07 124.632 452.973 124.653C452.952 124.555 452.833 124.479 452.812 124.381C452.672 124.207 452.629 124.011 452.587 123.816L452.566 123.718C452.545 123.62 452.524 123.522 452.503 123.425C452.482 123.327 452.482 123.327 452.461 123.229L452.397 122.936C452.389 122.426 452.368 122.328 452.577 121.874C452.654 121.755 452.633 121.658 452.709 121.539C452.709 121.539 452.765 121.322 452.863 121.301C452.918 121.084 453.093 120.944 453.148 120.728C453.378 120.371 453.706 119.994 454.054 119.714C454.313 119.965 454.649 120.097 454.963 120.131C455.885 120.137 456.633 120.282 457.52 120.602C458.191 120.866 458.904 121.326 459.345 121.947C459.345 121.947 459.366 122.045 459.464 122.024C459.485 122.122 459.604 122.198 459.625 122.296C459.765 122.47 459.807 122.666 459.849 122.861L459.934 123.252C459.955 123.35 459.976 123.448 460.018 123.643Z" fill="black"/>
<path d="M336.755 156.4C330.967 157.547 325.179 158.695 319.391 159.842C317.534 160.244 318.167 163.176 320.024 162.775C340.461 158.873 360.89 154.462 381.137 149.68C386.883 148.337 392.608 146.896 398.333 145.455C400.169 144.957 399.535 142.024 397.699 142.523C377.495 147.5 357.227 152.184 336.755 156.4Z" fill="black"/>
<path d="M362.41 148.711C361.636 149.39 361.219 150.298 360.878 151.088C360.46 151.997 360.063 153.003 360.296 154.078C360.641 156.152 362.913 157.196 364.749 156.697C364.847 156.676 364.965 156.753 365.161 156.711C367.081 156.603 369.398 155.489 369.898 153.539C370.176 152.456 370.139 151.339 370.005 150.243C369.899 149.754 369.891 149.244 369.59 148.798C369.268 148.253 368.674 147.87 368.122 147.682C367.256 147.46 366.334 147.455 365.53 147.526C364.413 147.563 363.261 147.914 362.41 148.711Z" fill="#F7C300"/>
<path d="M363.383 145.636C360.794 146.912 359.541 149.638 359.308 152.348C359.21 152.369 359.21 152.369 359.113 152.39C358.373 152.754 358.074 153.74 358.515 154.361C359.804 156.538 361.909 158.232 364.423 158.507C367.057 158.859 369.485 157.312 370.725 154.998C372.041 152.565 372.19 149.464 370.468 147.176C368.69 145.104 365.798 144.501 363.383 145.636ZM365.755 148.091C365.95 148.049 365.755 148.091 365.95 148.049C366.46 148.041 366.558 148.02 367.012 148.229C366.893 148.152 367.348 148.361 367.369 148.459C367.607 148.612 367.607 148.612 367.746 148.786C368.124 149.114 368.145 149.212 368.327 149.582C368.51 149.952 368.573 150.245 368.678 150.734C368.847 151.516 368.625 152.382 368.284 153.172C368.152 153.507 368.208 153.291 368.208 153.291C368.131 153.409 368.152 153.507 368.054 153.528C367.999 153.745 367.824 153.885 367.671 154.123C367.42 154.381 367.169 154.64 366.841 155.018C366.841 155.018 366.744 155.039 366.765 155.137C366.667 155.158 366.59 155.277 366.493 155.298C366.318 155.438 366.123 155.48 365.927 155.522L365.83 155.543C365.732 155.564 365.634 155.586 365.536 155.607C365.439 155.628 365.439 155.628 365.341 155.649L365.048 155.712C364.538 155.72 364.44 155.741 363.986 155.532C363.867 155.456 363.769 155.477 363.65 155.4C363.65 155.4 363.434 155.345 363.412 155.247C363.196 155.191 363.056 155.017 362.839 154.961C362.483 154.731 362.105 154.404 361.825 154.055C362.076 153.796 362.208 153.461 362.243 153.146C362.248 152.224 362.394 151.477 362.714 150.589C362.978 149.919 363.438 149.205 364.059 148.764C364.059 148.764 364.156 148.743 364.135 148.646C364.233 148.624 364.31 148.506 364.408 148.484C364.582 148.344 364.777 148.302 364.973 148.26L365.364 148.176C365.559 148.133 365.657 148.112 365.755 148.091Z" fill="black"/>
<path d="M454.663 45.3088C454.333 44.2547 454.037 42.8862 453.24 42.0354C452.323 41.1079 451.066 40.9702 449.872 41.1258C444.467 41.6791 439.028 42.5468 433.644 43.1979C431.744 43.4035 432.377 46.3359 434.277 46.1303C438.955 45.5292 443.634 44.9282 448.312 44.3271C448.899 44.2004 449.409 44.1926 449.898 44.0871C450.093 44.0449 450.68 43.9182 450.896 43.9738C451.134 44.127 451.282 44.8113 451.345 45.1045C451.569 45.6699 451.675 46.1586 451.899 46.724C452.58 48.93 453.066 51.1781 453.453 53.4474C453.757 55.3257 456.689 54.6925 456.386 52.8142C456.151 50.3072 455.505 47.7869 454.663 45.3088Z" fill="black"/>
<path d="M384.754 188.696C370.512 192.385 356.045 195.509 341.55 198.026C339.671 198.329 340.305 201.261 342.183 200.958C356.678 198.442 371.145 195.318 385.387 191.628C387.223 191.129 386.59 188.197 384.754 188.696Z" fill="black"/>
<path d="M287.707 109.291C288.645 115.534 289.465 121.7 290.404 127.942C290.707 129.821 293.64 129.187 293.337 127.309C292.398 121.066 291.578 114.901 290.639 108.658C290.315 106.682 287.403 107.413 287.707 109.291Z" fill="black"/>
<path d="M361.861 44.7854C362.287 44.3867 362.712 43.9879 363.159 43.6868C364.107 42.8682 365.133 41.9307 366.102 41.2097C368.118 39.649 370.274 38.2627 372.493 37.1697C373.135 36.8264 374.065 37.3418 374.213 38.026C374.234 38.1237 374.255 38.2215 374.255 38.2215C374.395 38.3959 374.458 38.6891 374.501 38.8846C375.171 42.9345 375.722 46.9076 376.392 50.9575C376.518 51.544 375.961 52.2782 375.395 52.5026C374.069 52.9936 372.685 52.2694 371.462 51.8174L367.598 50.5035C366.256 49.9748 364.837 49.565 363.496 49.0363C362.273 48.5843 360.17 48.3222 360.397 46.5338C360.62 45.6674 361.241 45.2264 361.861 44.7854ZM368.85 47.7776C369.857 48.1741 370.94 48.4518 371.946 48.8483C372.401 49.0571 372.931 49.1471 373.386 49.3559C372.969 46.479 372.434 43.5255 372.017 40.6486C370.656 41.454 369.219 42.3782 367.998 43.3579C367.126 44.0577 366.255 44.7575 365.48 45.4362C365.132 45.7161 364.881 45.975 364.532 46.2549C364.965 46.366 365.3 46.4981 365.755 46.7069L368.85 47.7776Z" fill="#59C59F"/>
<path d="M486.347 117.651C486.899 117.839 487.43 117.929 487.982 118.116C489.184 118.471 490.406 118.923 491.629 119.375C493.978 120.3 496.249 121.344 498.312 122.842C498.927 123.323 499.041 124.322 498.56 124.937C498.581 125.035 498.483 125.056 498.385 125.077C498.33 125.294 498.177 125.531 498.002 125.671C495.122 128.442 492.221 131.114 489.438 133.864C489.013 134.262 488.189 134.236 487.692 133.831C486.58 132.946 486.438 131.34 486.066 130.09L485.082 126.006C484.667 124.561 484.351 123.095 484.034 121.629C483.76 120.358 482.807 118.313 484.384 117.563C484.907 117.143 485.599 117.505 486.347 117.651ZM487.721 125.436C487.953 126.511 488.283 127.566 488.515 128.641C488.621 129.13 488.747 129.716 488.853 130.205C490.882 128.232 493.009 126.238 495.039 124.265C493.633 123.443 492.152 122.74 490.691 122.135C489.685 121.738 488.678 121.342 487.693 121.043C487.358 120.911 486.924 120.8 486.491 120.689C486.576 121.08 486.681 121.569 486.863 121.938L487.721 125.436Z" fill="#1E1E1E"/>
<path d="M272.972 216.824C273.525 217.012 274.055 217.102 274.608 217.29C275.809 217.644 277.032 218.096 278.255 218.548C280.604 219.473 282.875 220.517 284.938 222.016C285.553 222.497 285.667 223.495 285.186 224.11C285.207 224.208 285.109 224.229 285.011 224.25C284.956 224.467 284.802 224.705 284.628 224.845C281.748 227.615 278.847 230.288 276.064 233.037C275.639 233.436 274.815 233.409 274.318 233.005C273.206 232.12 273.064 230.513 272.692 229.264L271.708 225.18C271.293 223.734 270.977 222.268 270.66 220.802C270.386 219.531 269.432 217.486 271.01 216.737C271.631 216.296 272.323 216.658 272.972 216.824ZM274.347 224.61C274.579 225.685 274.909 226.739 275.141 227.814C275.247 228.303 275.373 228.889 275.479 229.378C277.508 227.405 279.635 225.411 281.664 223.439C280.259 222.617 278.778 221.914 277.317 221.308C276.311 220.912 275.304 220.515 274.319 220.217C273.983 220.084 273.55 219.973 273.117 219.862C273.201 220.253 273.307 220.742 273.489 221.112L274.347 224.61Z" fill="#59C59F"/>
<path d="M37.0215 300.514C37.2248 300.982 37.5469 301.526 37.7502 301.994C38.3179 303.201 38.7667 304.332 39.2366 305.56C40.1553 307.92 40.8784 310.321 41.2106 312.807C41.2818 313.61 40.6053 314.268 39.9 314.318C39.8022 314.339 39.8022 314.339 39.6834 314.262C39.4879 314.304 39.1947 314.368 38.9781 314.312C35.0315 314.039 31.0849 313.766 27.1384 313.493C26.5097 313.424 26.0687 312.803 25.942 312.217C25.842 310.806 26.9227 309.652 27.5914 308.484L29.9117 305.016C30.7547 303.709 31.6188 302.499 32.3852 301.311C33.075 300.241 33.9446 298.11 35.6219 298.77C36.5305 299.188 36.776 299.851 37.0215 300.514ZM32.3521 306.842C31.739 307.793 31.1258 308.744 30.4916 309.597C30.1851 310.073 29.8574 310.45 29.6486 310.905C32.4566 311.117 35.3624 311.308 38.1704 311.52C37.8327 309.956 37.3972 308.413 36.7663 306.912C36.3386 305.879 35.932 304.944 35.5043 303.911C35.3222 303.541 35.14 303.171 35.0555 302.78C34.8256 303.137 34.5957 303.493 34.3658 303.85L32.3521 306.842Z" fill="#59C59F"/>
<path d="M384.444 19.5502C384.996 19.7379 385.527 19.8279 386.079 20.0156C387.281 20.3699 388.503 20.8219 389.726 21.274C392.075 22.1992 394.346 23.2432 396.409 24.7416C397.024 25.2225 397.138 26.2211 396.657 26.8365C396.678 26.9342 396.58 26.9553 396.482 26.9764C396.427 27.193 396.273 27.4307 396.099 27.5707C393.219 30.3411 390.318 33.0137 387.535 35.7629C387.11 36.1617 386.286 36.1351 385.789 35.7308C384.677 34.8455 384.535 33.2393 384.163 31.9897L383.179 27.9055C382.764 26.4604 382.448 24.9942 382.131 23.528C381.857 22.2573 380.904 20.2124 382.481 19.4626C383.102 19.0216 383.773 19.2859 384.444 19.5502ZM385.818 27.3356C386.05 28.4108 386.38 29.4649 386.612 30.5401C386.718 31.0288 386.844 31.6153 386.95 32.1041C388.979 30.1313 391.106 28.1374 393.136 26.1646C391.73 25.3426 390.249 24.6396 388.788 24.0343C387.782 23.6377 386.775 23.2412 385.79 22.9425C385.454 22.8103 385.021 22.6992 384.588 22.5882C384.673 22.9792 384.778 23.4679 384.96 23.8378L385.818 27.3356Z" fill="#1E1E1E"/>
<path fill-rule="evenodd" clip-rule="evenodd" d="M459.485 192.712C456.748 193.303 453.95 195.033 452.893 197.716C451.759 200.519 452.477 203.842 454.492 206.067C454.912 206.59 455.527 207.071 456.219 207.433C457.344 207.906 458.636 207.73 459.341 207.68C460.438 207.545 461.827 207.347 463.111 206.661C464.57 205.834 465.629 204.583 466.396 203.394C467.107 202.422 467.754 201.157 467.99 199.878C468.302 198.481 468.159 196.875 467.256 195.535C465.624 192.716 462.222 192.121 459.485 192.712ZM460.118 195.644C462.171 195.201 463.925 195.743 464.849 197.18C465.171 197.725 465.319 198.409 465.097 199.275C464.973 200.121 464.534 200.932 463.9 201.785C463.189 202.757 462.555 203.61 461.717 203.995C460.977 204.359 460.098 204.549 459.099 204.663C458.296 204.734 457.786 204.742 457.451 204.61C457.234 204.554 456.975 204.303 456.716 204.052C455.38 202.601 455.035 200.528 455.696 198.85C456.301 197.39 458.066 196.088 460.118 195.644Z" fill="#F7C300"/>
<path fill-rule="evenodd" clip-rule="evenodd" d="M155.981 258.252C153.244 258.843 150.446 260.573 149.389 263.256C148.255 266.059 148.973 269.382 150.988 271.607C151.407 272.13 152.023 272.611 152.715 272.973C153.84 273.446 155.132 273.27 155.837 273.22C156.934 273.085 158.323 272.888 159.607 272.201C161.066 271.375 162.125 270.123 162.892 268.934C163.602 267.962 164.25 266.697 164.485 265.419C164.798 264.021 164.655 262.415 163.752 261.075C162.023 258.277 158.718 257.661 155.981 258.252ZM156.614 261.185C158.667 260.741 160.421 261.283 161.345 262.721C161.667 263.265 161.815 263.949 161.593 264.815C161.469 265.661 161.03 266.472 160.396 267.325C159.685 268.297 159.051 269.15 158.213 269.535C157.473 269.9 156.594 270.09 155.595 270.203C154.792 270.274 154.282 270.282 153.947 270.15C153.73 270.094 153.471 269.843 153.212 269.592C151.876 268.141 151.531 266.068 152.191 264.39C152.797 262.93 154.464 261.649 156.614 261.185Z" fill="#F7C300"/>
<path fill-rule="evenodd" clip-rule="evenodd" d="M215.14 100.613C212.403 101.204 209.605 102.934 208.547 105.617C207.413 108.42 208.131 111.743 210.146 113.968C210.566 114.491 211.181 114.972 211.873 115.334C212.999 115.808 214.29 115.631 214.996 115.581C216.092 115.446 217.482 115.249 218.766 114.562C220.224 113.736 221.284 112.484 222.05 111.295C222.761 110.323 223.409 109.058 223.644 107.78C223.956 106.382 223.814 104.776 222.911 103.437C221.181 100.639 217.898 100.12 215.14 100.613ZM215.773 103.546C217.826 103.102 219.58 103.644 220.504 105.082C220.826 105.626 220.974 106.31 220.751 107.177C220.627 108.022 220.188 108.833 219.554 109.686C218.843 110.658 218.209 111.511 217.372 111.896C216.632 112.261 215.752 112.451 214.754 112.564C213.95 112.635 213.441 112.643 213.105 112.511C212.889 112.455 212.63 112.204 212.371 111.953C211.035 110.503 210.689 108.429 211.35 106.751C211.955 105.291 213.622 104.01 215.773 103.546Z" fill="#F7C300"/>
<path fill-rule="evenodd" clip-rule="evenodd" d="M288.353 195.19C285.616 195.781 282.818 197.511 281.76 200.195C280.626 202.997 281.344 206.321 283.359 208.545C283.779 209.069 284.394 209.549 285.086 209.912C286.212 210.385 287.503 210.208 288.209 210.158C289.305 210.024 290.695 209.826 291.979 209.139C293.437 208.313 294.497 207.061 295.263 205.872C295.974 204.901 296.621 203.635 296.857 202.357C297.169 200.959 297.027 199.353 296.124 198.014C294.394 195.216 291.089 194.599 288.353 195.19ZM288.986 198.123C291.038 197.68 292.792 198.222 293.717 199.659C294.039 200.203 294.187 200.887 293.964 201.754C293.84 202.599 293.401 203.41 292.767 204.263C292.056 205.235 291.422 206.088 290.584 206.474C289.845 206.838 288.965 207.028 287.966 207.141C287.163 207.212 286.653 207.22 286.318 207.088C286.101 207.032 285.843 206.781 285.584 206.53C284.247 205.08 283.902 203.006 284.563 201.329C285.168 199.868 286.933 198.566 288.986 198.123Z" fill="black"/>
</svg>
