<svg width="535" height="399" viewBox="0 0 535 399" fill="none" xmlns="http://www.w3.org/2000/svg">
<path d="M219.376 228.661C213.679 230.276 207.666 232.36 201.454 234.992C201.356 235.011 201.356 235.011 201.258 235.03C200.431 235.496 200.014 236.494 200.401 237.438C200.788 238.381 201.903 238.878 202.846 238.491C208.881 235.995 214.796 233.931 220.296 232.354C221.259 232.065 221.873 231.029 221.584 230.066C221.473 228.967 220.358 228.471 219.376 228.661Z" fill="black"/>
<path d="M275.69 230.668C275.123 230.371 274.534 230.485 273.964 230.697C273.59 230.872 273.334 231.125 273.116 231.575C272.679 232.475 273.104 233.615 274.004 234.051C276.234 235.045 278.404 236.253 280.653 237.345C284.036 239.031 287.537 240.796 290.882 242.286L291.774 240.585L292.334 238.745C289.125 237.432 285.84 235.727 282.339 233.961C280.188 232.851 277.939 231.759 275.69 230.668Z" fill="black"/>
<path d="M257.268 224.974C251.212 224.214 244.7 224.255 238.107 224.924C237.911 224.962 237.616 225.019 237.439 225.155C236.79 225.485 236.334 226.287 236.468 226.974C236.56 227.974 237.517 228.706 238.518 228.613C244.797 227.904 251.014 227.919 256.855 228.619C257.894 228.723 258.78 228.042 258.982 226.984C259.007 226.062 258.326 225.176 257.268 224.974Z" fill="black"/>
<path d="M184.328 242.798C180.021 244.755 174.164 247.114 168.153 248.688C167.761 248.764 167.368 248.841 166.995 249.015C166.798 249.053 166.7 249.072 166.523 249.208C165.775 249.557 165.339 250.457 165.609 251.321C165.799 252.303 166.835 252.917 167.817 252.726C168.209 252.65 168.7 252.555 169.074 252.38C175.379 250.749 181.315 248.273 185.818 246.278C186.742 245.793 187.16 244.795 186.754 243.754C186.367 242.81 185.252 242.313 184.328 242.798Z" fill="black"/>
<path d="M117.521 209.824C117.232 208.861 116.196 208.247 115.233 208.536C115.135 208.555 114.939 208.593 114.86 208.71C114.132 209.157 113.695 210.057 113.965 210.921C115.561 216.52 117.407 222.885 120.099 228.882C120.486 229.825 121.582 230.224 122.526 229.837C123.469 229.45 123.868 228.354 123.481 227.41C120.925 221.591 119.098 215.324 117.521 209.824Z" fill="black"/>
<path d="M367.047 202.24C371.913 198.443 377.498 195.729 383.075 194.545C384.056 194.355 384.768 193.3 384.48 192.337C384.289 191.355 383.234 190.643 382.271 190.932C378.658 191.735 375.14 193.029 371.737 194.912C369.337 196.193 366.975 197.67 364.769 199.422C363.98 200.085 363.797 201.241 364.46 202.029C365.005 202.738 366.161 202.921 367.047 202.24Z" fill="black"/>
<path d="M149.104 249.737C145.107 249.087 141.388 247.771 138.163 245.851C136.443 244.86 134.881 243.635 133.379 242.195C132.755 241.603 131.932 241.559 131.184 241.908C131.007 242.044 130.83 242.181 130.653 242.317C129.981 243.058 130.014 244.274 130.755 244.946C132.374 246.465 134.269 247.829 136.125 248.996C139.702 251.154 143.871 252.688 148.397 253.44C149.455 253.642 150.439 252.941 150.543 251.903C150.765 250.943 150.064 249.958 149.104 249.737Z" fill="black"/>
<path d="M347.723 234.411C348.762 234.515 349.629 233.736 349.733 232.697C349.796 231.972 349.938 231.129 350.001 230.404C350.755 225.368 352.45 220.455 355.203 215.744C355.738 214.825 355.411 213.666 354.511 213.23C353.944 212.932 353.219 212.869 352.668 213.18C352.393 213.335 352.136 213.589 351.899 213.941C349.007 218.984 347.113 224.445 346.238 229.912C346.096 230.754 346.052 231.578 345.91 232.42C345.905 233.44 346.684 234.307 347.723 234.411Z" fill="black"/>
<path d="M326.863 253.944C321.012 251.616 315.437 249.133 309.725 246.472C309.158 246.175 308.569 246.289 308.097 246.483C307.724 246.657 307.486 247.009 307.249 247.361C306.812 248.26 307.237 249.4 308.137 249.837C313.947 252.478 319.541 255.059 325.392 257.387C326.39 257.805 327.412 257.301 327.83 256.303C328.266 255.403 327.86 254.361 326.863 253.944Z" fill="black"/>
<path d="M493.435 293.938C487.833 296.044 481.88 297.912 475.734 299.309C475.538 299.347 475.439 299.366 475.262 299.502C474.515 299.851 474.078 300.751 474.348 301.615C474.539 302.597 475.574 303.211 476.654 303.001C482.978 301.468 489.048 299.679 494.827 297.437C495.771 297.05 496.286 296.033 495.88 294.991C495.493 294.048 494.378 293.551 493.435 293.938Z" fill="black"/>
<path d="M457.398 302.46C453.003 302.906 448.49 303.273 443.939 303.443C442.213 303.472 440.585 303.483 438.859 303.512C438.546 303.471 438.27 303.626 437.976 303.684C437.425 303.994 436.931 304.599 436.966 305.306C436.96 306.325 437.838 307.174 438.858 307.18C440.584 307.15 442.31 307.121 444.036 307.091C448.685 306.902 453.315 306.615 457.809 306.15C458.81 306.057 459.541 305.101 459.448 304.1C459.356 303.099 458.497 302.349 457.398 302.46Z" fill="black"/>
<path d="M417.442 203.664C414.158 198.291 408.553 194.082 401.781 191.729C401.233 191.53 400.742 191.625 400.27 191.819C399.896 191.993 399.561 192.364 399.362 192.912C399.042 193.891 399.546 194.913 400.544 195.331C406.534 197.326 411.436 201.06 414.253 205.607C414.837 206.512 415.895 206.714 416.819 206.229C417.725 205.646 418.025 204.569 417.442 203.664Z" fill="black"/>
<path d="M525.586 275.372C525.488 275.391 525.409 275.508 525.213 275.546C520.562 279.403 515.443 282.943 510.013 285.932C509.089 286.417 508.807 287.593 509.292 288.517C509.778 289.442 510.953 289.723 511.877 289.238C517.465 286.014 522.781 282.436 527.608 278.443C528.397 277.78 528.482 276.643 527.917 275.836C527.372 275.127 526.432 275.004 525.586 275.372Z" fill="black"/>
<path d="M385.248 291.813C382.862 290.544 380.556 289.158 378.446 287.734C375.633 285.836 372.86 283.623 370.284 281.373C369.66 280.781 368.837 280.737 368.089 281.086C367.912 281.222 367.735 281.358 367.558 281.495C366.887 282.236 366.919 283.452 367.66 284.123C370.373 286.551 373.262 288.842 376.212 290.918C378.439 292.421 380.863 293.887 383.346 295.136C384.265 295.671 385.405 295.246 385.841 294.346C386.572 293.389 386.246 292.23 385.248 291.813Z" fill="black"/>
<path d="M399.552 252.67C398.889 251.882 397.733 251.699 396.945 252.361C392.238 255.924 386.849 258.599 380.838 260.173C380.74 260.193 380.544 260.231 380.465 260.348C379.718 260.697 379.281 261.596 379.551 262.461C379.839 263.423 380.875 264.037 381.838 263.749C388.32 261.981 394.181 259.112 399.243 255.277C400.031 254.615 400.116 253.478 399.552 252.67Z" fill="black"/>
<path d="M364.559 263.945C364.565 262.925 363.785 262.057 362.765 262.052C360.412 261.999 357.923 261.769 355.433 261.539C353.728 257.999 352.316 254.402 351.415 250.808C351.126 249.846 350.09 249.232 349.128 249.521C349.03 249.54 348.833 249.578 348.754 249.695C348.007 250.044 347.57 250.943 347.84 251.808C348.646 254.911 349.747 257.957 351.142 260.946C349.026 260.542 346.91 260.138 344.677 259.654C343.717 259.433 342.615 260.054 342.394 261.014C342.173 261.974 342.794 263.076 343.754 263.297C346.947 264.001 350.022 264.627 353.06 265.056C353.856 266.531 354.651 268.007 355.643 269.444C356.227 270.349 357.284 270.552 358.209 270.067C359.114 269.483 359.297 268.327 358.831 267.501C358.404 266.871 358.093 266.32 357.763 265.671C359.429 265.857 361.174 265.926 362.821 266.013C363.606 265.861 364.455 264.983 364.559 263.945Z" fill="black"/>
<path d="M418.559 220.968C418.129 220.848 417.638 220.943 417.264 221.117C416.811 221.409 416.476 221.78 416.277 222.328C415.433 225.853 413.921 229.61 411.858 233.678C410.887 235.496 409.897 237.216 408.887 238.838C408.352 239.757 408.562 240.837 409.5 241.47C410.418 242.004 411.498 241.795 412.131 240.857C413.22 239.118 414.289 237.28 415.261 235.462C417.482 231.16 419.133 227.07 420.017 223.232C420.219 222.174 419.617 221.17 418.559 220.968Z" fill="black"/>
<path d="M420.411 302.407C414.041 301.606 407.989 300.336 402.369 298.676C401.84 298.575 401.331 298.572 400.976 298.845C400.504 299.038 400.188 299.507 400.068 299.938C399.748 300.917 400.37 302.019 401.329 302.24C407.164 303.96 413.432 305.29 419.998 306.053C421.037 306.157 421.923 305.475 422.125 304.417C422.15 303.496 421.45 302.511 420.411 302.407Z" fill="black"/>
<path d="M127.263 210.683C127.773 210.686 128.4 210.768 128.91 210.771C130.145 210.837 131.497 210.982 132.752 211.146C135.26 211.474 137.689 211.919 140.018 212.893C140.781 213.153 141.07 214.115 140.791 214.781C140.81 214.879 140.712 214.898 140.712 214.898C140.652 215.113 140.592 215.329 140.434 215.563C138.336 218.924 136.238 222.286 134.023 225.568C133.725 226.135 132.921 226.189 132.373 225.99C131.043 225.433 130.541 223.901 129.901 222.701L127.961 219.003C127.203 217.724 126.525 216.327 125.865 215.029C125.244 213.927 123.862 212.056 125.182 210.985C125.793 210.459 126.538 210.62 127.263 210.683ZM130.478 217.801C130.982 218.824 131.565 219.729 132.069 220.752C132.361 221.205 132.554 221.676 132.846 222.129C134.311 219.706 135.874 217.263 137.457 214.919C135.949 214.498 134.343 214.097 132.677 213.911C131.638 213.807 130.501 213.722 129.462 213.618C129.051 213.596 128.639 213.574 128.227 213.552C128.402 213.926 128.674 214.28 128.868 214.752L130.478 217.801Z" fill="#59C59F"/>
<path d="M268.576 240.198C269.124 240.397 269.653 240.498 270.201 240.698C271.395 241.077 272.589 241.456 273.802 241.934C276.111 242.81 278.361 243.902 280.471 245.326C281.076 245.819 281.168 246.82 280.772 247.406C280.792 247.504 280.693 247.523 280.595 247.542C280.535 247.758 280.377 247.992 280.2 248.129C277.36 250.819 274.442 253.626 271.602 256.317C271.169 256.707 270.345 256.663 269.876 256.346C268.783 255.438 268.576 253.848 268.231 252.591L267.234 248.506C266.85 247.053 266.564 245.58 266.18 244.127C265.834 242.869 264.924 240.805 266.517 240.088C267.147 239.661 267.812 239.939 268.576 240.198ZM269.983 247.972C270.192 249.052 270.5 250.113 270.808 251.174C270.903 251.665 271.116 252.235 271.211 252.726C273.281 250.796 275.332 248.768 277.402 246.838C276.015 245.987 274.548 245.253 273.021 244.734C272.024 244.317 271.045 243.997 269.968 243.697C269.635 243.558 269.204 243.438 268.774 243.318C268.85 243.71 268.945 244.201 269.119 244.575L269.983 247.972Z" fill="#59C59F"/>
<path fill-rule="evenodd" clip-rule="evenodd" d="M417.967 173.308C415.218 173.841 412.385 175.512 411.271 178.172C410.079 180.951 410.727 184.288 412.695 186.555C413.103 187.087 413.709 187.58 414.393 187.957C415.508 188.454 416.803 188.304 417.509 188.269C418.608 188.157 420.002 187.989 421.3 187.329C422.775 186.534 423.861 185.304 424.652 184.132C425.383 183.175 426.057 181.924 426.319 180.651C426.661 179.26 426.552 177.651 425.677 176.293C424.007 173.46 420.716 172.774 417.967 173.308ZM418.539 176.253C420.6 175.852 422.342 176.431 423.236 177.887C423.547 178.438 423.68 179.126 423.44 179.987C423.298 180.83 422.842 181.631 422.19 182.471C421.459 183.428 420.807 184.267 419.962 184.635C419.215 184.984 418.331 185.155 417.33 185.248C416.526 185.302 416.016 185.299 415.684 185.16C415.468 185.1 415.215 184.843 414.961 184.587C413.656 183.109 413.354 181.028 414.049 179.365C414.685 177.917 416.379 176.672 418.539 176.253Z" fill="#F7C300"/>
<path fill-rule="evenodd" clip-rule="evenodd" d="M56.5645 89.4328C53.8158 89.9663 50.9822 91.6368 49.8688 94.2977C48.6763 97.0758 49.3241 100.414 51.292 102.68C51.7009 103.212 52.306 103.706 52.9903 104.082C54.1054 104.579 55.4006 104.429 56.1068 104.394C57.2057 104.283 58.5991 104.114 59.8973 103.455C61.3727 102.659 62.4583 101.43 63.2495 100.257C63.9806 99.3005 64.6545 98.0491 64.9167 96.7759C65.258 95.3854 65.1494 93.7766 64.2746 92.4184C62.6041 89.5848 59.3322 88.9974 56.5645 89.4328ZM57.1361 92.3778C59.1976 91.9777 60.9398 92.5563 61.8337 94.0127C62.1443 94.5636 62.2777 95.2507 62.0375 96.1123C61.8954 96.9548 61.4398 97.7563 60.7878 98.5959C60.0567 99.5527 59.4048 100.392 58.5594 100.76C57.8121 101.109 56.9286 101.28 55.9279 101.373C55.1235 101.427 54.6136 101.424 54.281 101.285C54.0656 101.225 53.8121 100.969 53.5586 100.712C52.253 99.2338 51.951 97.1533 52.6469 95.4902C53.2827 94.0425 55.0746 92.7779 57.1361 92.3778Z" fill="#F7C300"/>
<path fill-rule="evenodd" clip-rule="evenodd" d="M521.422 293.803C518.673 294.336 515.839 296.007 514.726 298.668C513.534 301.446 514.181 304.784 516.149 307.05C516.558 307.582 517.163 308.076 517.848 308.452C518.963 308.949 520.258 308.799 520.964 308.764C522.063 308.653 523.456 308.484 524.755 307.825C526.23 307.029 527.316 305.8 528.107 304.627C528.838 303.67 529.512 302.419 529.774 301.146C530.115 299.755 530.007 298.147 529.132 296.788C527.461 293.955 524.19 293.367 521.422 293.803ZM521.993 296.748C524.055 296.348 525.797 296.926 526.691 298.383C527.002 298.934 527.135 299.621 526.895 300.482C526.753 301.325 526.297 302.126 525.645 302.966C524.914 303.923 524.262 304.762 523.417 305.13C522.669 305.479 521.786 305.65 520.785 305.743C519.981 305.797 519.471 305.794 519.138 305.655C518.923 305.595 518.669 305.339 518.416 305.082C517.11 303.604 516.808 301.523 517.504 299.86C518.042 298.432 519.834 297.167 521.993 296.748Z" fill="black"/>
<path d="M159.747 109.337C160.86 110.343 161.961 109.722 162.414 109.43C163.3 108.749 164.285 108.049 165.27 107.348C165.722 107.057 166.156 106.667 166.431 106.512C166.884 106.22 167.318 105.83 167.771 105.539C169.661 104.255 171.649 102.952 173.637 101.649C174.444 101.085 174.96 100.068 174.475 99.1439C174.183 98.6912 173.695 98.2765 173.167 98.1755C172.853 98.1345 172.539 98.0935 172.166 98.2679L172.068 98.2869C167.993 100.911 163.858 103.751 159.958 106.749C159.702 107.003 159.464 107.354 159.462 107.864C159.183 108.53 159.396 109.1 159.747 109.337Z" fill="#F7C300"/>
<path d="M16.1216 155.55C16.5905 155.867 16.9831 155.79 17.2777 155.733C17.7494 155.54 18.0849 155.169 18.3032 154.719L18.9009 153.075L19.3698 153.392C19.6043 153.55 19.8387 153.708 20.0732 153.866C20.3076 154.025 20.4248 154.104 20.6593 154.262C21.6952 154.876 22.693 155.293 23.7128 155.299C24.8498 155.384 25.7934 154.997 26.4835 154.354C26.819 153.983 27.1545 153.612 27.2556 153.083L27.5339 152.418L28.2944 153.187C29.1912 154.134 29.9517 154.903 31.2279 154.655C31.915 154.522 32.5861 153.78 32.8453 153.017C32.8453 153.017 32.9054 152.802 32.9655 152.586L33.1456 151.94L33.6336 152.355C33.7508 152.434 33.868 152.513 33.8871 152.611C34.1215 152.769 34.375 153.026 34.5113 153.203C35.6235 154.21 36.8528 155.295 38.2491 154.617C39.9209 153.783 40.838 151.16 41.1573 150.181C41.3375 149.535 41.1631 149.162 40.9096 148.905C40.5198 148.472 39.8737 148.291 39.2847 148.406C38.892 148.482 38.5374 148.754 38.2591 149.42C38.1389 149.85 37.8797 150.614 37.5031 151.298L37.2849 151.748L36.309 150.919C36.0745 150.76 35.9383 150.583 35.7038 150.425C34.9814 149.852 34.259 149.279 33.3184 149.156C32.3777 149.033 31.5132 149.303 30.9213 149.927C30.744 150.063 30.5858 150.298 30.4466 150.63L30.1492 151.197L29.8005 150.45C29.04 149.681 28.3176 149.108 27.6714 148.928C27.1234 148.729 26.5344 148.843 26.0817 149.135C25.4517 149.563 24.8979 150.383 24.7558 151.226C24.6957 151.441 24.7148 151.539 24.7148 151.539C24.6928 151.951 24.4174 152.106 24.1229 152.163L23.9266 152.202C23.3375 152.316 22.6342 151.841 22.1653 151.525L22.0481 151.446C20.7587 150.575 19.6055 149.882 18.0377 149.677C17.3124 149.614 16.8187 150.22 16.5403 150.885L16.0628 152.098L13.8736 150.791C13.0721 150.336 12.3249 150.684 11.9484 151.369C11.5719 152.053 11.528 152.876 12.4467 153.411L16.1216 155.55Z" fill="#F7C300"/>
<path d="M154.917 131.157C151.671 125.981 146.541 121.068 142.507 116.554C140.032 113.775 138.2 111.686 134.65 111.763C129.472 111.852 124.165 113.9 119.022 114.695C113.468 115.467 107.777 116.063 102.127 116.344C96.0654 116.604 90.0448 116.55 83.8689 116.221C79.5363 115.941 74.0534 114.459 70.5077 117.184C67.4148 119.618 65.7199 124.531 63.8564 128.051C62.072 131.453 58.6949 135.572 59.6696 140.069C60.7586 145.154 66.5024 149.031 69.9752 152.228C74.4429 156.352 78.9707 160.261 83.5966 164.151C93.5327 172.307 103.826 179.681 114.496 186.37C116.705 187.775 118.845 187.258 120.19 185.265C125.807 176.942 132.945 170.158 139.576 162.861C142.773 159.388 145.932 155.719 148.739 151.813C150.815 148.863 154.585 144.668 154.804 140.551C154.845 140.237 154.807 140.041 154.75 139.746C156.611 136.737 156.996 134.523 154.917 131.157Z" fill="#F7C300"/>
<path d="M154.81 132.706C154.692 132.627 154.692 132.627 154.575 132.548L154.458 132.468C149.847 126.029 145.314 119.473 140.94 112.682L140.823 112.603C140.804 112.504 140.687 112.425 140.766 112.308L140.747 112.21C140.67 111.817 140.496 111.444 140.262 111.285C140.027 111.127 139.714 111.086 139.419 111.143C115.314 115.007 90.8977 118.32 66.719 121.281C66.2281 121.377 65.9527 121.532 65.8325 121.963L65.7725 122.178C65.6934 122.295 65.6143 122.413 65.437 122.549L65.0062 122.429C63.689 122.99 62.8159 124.789 62.18 126.237L61.9427 126.589C60.8513 128.838 59.8771 131.166 58.9819 133.377C57.0936 137.818 55.3605 142.535 53.8238 147.214L53.7828 147.527C53.8019 147.625 53.7228 147.742 53.6437 147.86L53.5645 147.977C53.229 148.348 53.0899 148.68 53.147 148.975C53.1661 149.073 53.2042 149.269 53.6731 149.586C56.7809 151.427 59.2968 153.893 61.7146 156.378C62.9821 157.66 64.2496 158.942 65.5962 160.107C69.129 163.088 73.0354 165.895 76.9037 168.506C78.076 169.297 79.2482 170.088 80.4395 170.978C86.9248 175.525 93.4101 180.073 99.8954 184.62L103.197 186.934L111.44 192.668C111.558 192.747 111.577 192.845 111.694 192.924L111.83 193.102C112.141 193.653 112.825 194.029 113.335 194.032C113.728 193.956 114.003 193.8 114.104 193.271C117.057 184.345 123.645 177.872 129.975 171.651L130.054 171.534C131.593 170.013 133.229 168.473 134.651 166.873C142.443 158.739 147.816 148.63 152.932 138.775L154.874 135.138C155.131 134.885 155.27 134.552 155.311 134.238L155.371 134.023C155.431 133.808 155.63 133.26 154.927 132.785L154.81 132.706ZM115.841 118.776L115.591 118.009C115.553 117.813 115.515 117.617 115.692 117.48C115.771 117.363 115.948 117.227 116.145 117.189L116.93 117.036C122.386 116.283 128.118 115.374 134.655 114.411L135.931 114.163C136.127 114.125 136.46 114.264 136.596 114.442C136.732 114.619 136.789 114.913 136.631 115.148L126.757 134.076C126.678 134.193 126.599 134.311 126.5 134.33C126.402 134.349 126.304 134.368 126.304 134.368C126.108 134.406 125.892 134.346 125.756 134.169L125.094 133.38C121.586 129.477 117.906 124.691 115.841 118.776ZM113.239 121.114C113.455 121.174 113.67 121.234 113.826 121.51L114.387 122.827C115.994 126.386 118.444 130.087 122.01 134.285L122.808 135.25C122.944 135.427 123.002 135.722 122.942 135.937C122.862 136.054 122.783 136.172 122.606 136.308C122.508 136.327 122.41 136.346 122.41 136.346L118.407 136.716C114.816 137.107 111.107 137.419 107.437 137.928L106.24 138.058C106.043 138.097 105.809 137.938 105.673 137.761C105.536 137.584 105.479 137.289 105.637 137.055L110.306 126.471C110.803 125.356 111.3 124.241 111.796 123.126C111.875 123.009 111.856 122.911 111.935 122.794L112.59 121.444C112.768 121.308 113.043 121.152 113.239 121.114ZM91.7066 120.913C91.7667 120.698 91.944 120.562 92.2385 120.505L93.2392 120.412C97.9103 119.811 102.562 119.112 107.233 118.511L110.609 118.059C110.904 118.002 111.138 118.161 111.274 118.338C111.411 118.515 111.37 118.829 111.31 119.044L110.518 120.216C109.351 122.073 108.535 124.167 107.602 126.181C107.402 126.729 107.184 127.179 106.887 127.746L103.132 136.217C103.053 136.334 102.974 136.451 102.895 136.569C102.796 136.588 102.698 136.607 102.698 136.607C102.502 136.645 102.267 136.487 102.131 136.309L96.8574 129.082C95.0286 126.483 93.5897 124.317 92.306 122.427L91.7228 121.522C91.6847 121.325 91.6275 121.031 91.7066 120.913ZM88.6518 123.544C88.7119 123.328 88.9874 123.173 89.1837 123.135C89.38 123.097 89.7126 123.236 89.8489 123.413L90.5875 124.594C92.0455 126.858 93.6017 129.102 95.2942 131.524L99.7884 137.884C99.9246 138.062 99.9628 138.258 99.9027 138.474C99.8236 138.591 99.7445 138.708 99.5672 138.844C99.5672 138.844 99.469 138.863 99.3709 138.882L98.4082 139.171C94.4434 139.737 89.9877 140.398 85.6493 141.138L84.6676 141.329C84.4713 141.367 84.2559 141.307 84.1196 141.129C83.9833 140.952 83.9452 140.756 83.9071 140.56L84.1283 139.6C85.076 135.036 86.4764 130.18 88.2124 124.953L88.6518 123.544ZM68.3514 123.919C68.4114 123.703 68.6869 123.548 68.8832 123.51L70.1785 123.36C73.1616 122.985 76.1447 122.61 79.1279 122.234C80.914 121.99 82.7982 121.726 84.5843 121.481L85.6832 121.37C85.8795 121.331 86.0949 121.391 86.2312 121.569C86.3675 121.746 86.4056 121.942 86.3455 122.158L85.947 123.254C84.5305 127.502 83.2502 131.927 82.1852 136.412L81.923 137.685C81.863 137.9 81.7839 138.018 81.6066 138.154C81.5084 138.173 81.5084 138.173 81.4102 138.192C81.2139 138.23 80.9004 138.189 80.7641 138.012L79.9655 137.046C78.1148 134.859 76.0868 132.808 74.157 130.737C72.5188 129.12 70.9597 127.385 69.4006 125.65L68.4847 124.606C68.3485 124.429 68.2913 124.134 68.3514 123.919ZM57.4428 145.391L58.1005 143.531L58.7467 143.711L58.1797 143.414C59.0367 141.007 59.9728 138.482 60.9279 136.055C61.763 134.06 62.598 132.064 63.4521 130.167C63.8696 129.169 64.3853 128.152 64.8028 127.154L65.2394 126.254C65.2995 126.039 65.4768 125.903 65.7713 125.846C65.9676 125.807 66.183 125.868 66.3193 126.045L66.9816 126.833C68.5407 128.568 70.3152 130.363 71.8552 131.999C74.3902 134.563 77.0424 137.206 79.2419 140.141L79.9232 141.027C80.0595 141.204 80.0976 141.401 80.0376 141.616C79.9585 141.733 79.8793 141.851 79.7021 141.987C79.6039 142.006 79.6039 142.006 79.5057 142.025L78.4259 142.235C73.2039 143.146 66.234 144.499 59.2831 145.95L58.1051 146.179C57.9088 146.217 57.5952 146.176 57.4589 145.999C57.3417 145.92 57.2846 145.625 57.4428 145.391ZM108.786 186.867C108.688 186.886 108.707 186.985 108.609 187.004C108.432 187.14 108.118 187.099 107.884 186.941L103.762 184.074C96.5734 179.051 89.2675 173.95 82.0789 168.928C80.9067 168.136 79.7345 167.345 78.5622 166.554C74.8111 164.023 70.9238 161.314 67.3909 158.332C65.9271 157.088 64.4252 155.648 63.0595 154.385C61.8111 153.201 60.6799 152.097 59.4505 151.011L58.4746 150.182C58.2402 150.024 58.183 149.729 58.2431 149.514C58.3031 149.298 58.4613 149.064 58.7558 149.007L60.032 148.759C66.5902 147.384 73.2656 146.088 80.451 144.796L80.9418 144.7C81.2363 144.643 81.4707 144.801 81.607 144.979L81.8796 145.333C82.9669 147.261 84.1714 149.269 85.2587 151.197L85.4141 151.472C91.4338 162.019 97.7261 172.919 105.538 182.201L108.83 186.044C108.967 186.221 109.043 186.614 108.786 186.867ZM110.364 181.875C110.421 182.17 110.263 182.404 109.969 182.461C109.969 182.461 109.969 182.461 109.87 182.48C109.595 182.636 109.262 182.497 109.126 182.319L107.801 180.743C99.8726 171.382 93.6784 160.462 87.5796 150.033C86.7838 148.558 85.909 147.2 85.1133 145.724L84.7455 144.879C84.6092 144.702 84.6693 144.486 84.7293 144.271C84.7894 144.055 84.9667 143.919 85.163 143.881L86.1447 143.691C91.8765 142.782 97.0003 141.889 102.279 141.272L102.967 141.139C103.163 141.1 103.28 141.18 103.496 141.24C103.613 141.319 103.749 141.496 103.787 141.692L103.822 142.399C104.456 148.286 105.716 154.255 106.939 160.028C108.275 166.39 109.767 173.027 110.239 179.658L110.364 181.875ZM112.702 177.652L112.229 174.688C111.511 169.938 110.577 165.128 109.564 160.435C108.304 154.466 106.986 148.202 106.394 142.001L106.378 141.393C106.301 141.001 106.558 140.747 106.951 140.671L107.54 140.557C112.917 139.92 118.294 139.284 123.592 138.765L124.593 138.673C124.789 138.635 125.005 138.695 125.141 138.872C125.277 139.049 125.315 139.245 125.255 139.461L113.938 177.718C113.877 177.934 113.798 178.051 113.602 178.089C113.504 178.108 113.406 178.127 113.209 178.165C113.013 178.203 112.76 177.947 112.702 177.652ZM150.309 137.858L149.793 138.875C144.263 149.218 139.032 158.484 131.22 166.52C130.372 167.398 129.524 168.275 128.657 169.055C125.244 172.468 121.851 175.979 118.79 179.629L116.736 182.166C116.657 182.284 116.657 182.284 116.559 182.303C116.382 182.439 116.166 182.379 115.951 182.319C115.717 182.161 115.561 181.885 115.602 181.572L128.279 138.772C128.34 138.557 128.596 138.303 128.811 138.363L129.302 138.268C137.014 137.586 142.958 137.247 148.608 136.966L149.824 136.933C150.02 136.895 150.255 137.053 150.391 137.231C150.429 137.427 150.467 137.623 150.309 137.858ZM151.764 133.806C151.684 133.924 151.605 134.041 151.507 134.06C151.409 134.079 151.311 134.098 151.213 134.117L149.997 134.149C144.347 134.431 138.402 134.77 131.299 135.436L130.102 135.566C129.906 135.604 129.671 135.446 129.535 135.269C129.399 135.091 129.341 134.797 129.5 134.562L139.077 116.201C139.137 115.986 139.412 115.831 139.628 115.891C139.824 115.852 140.058 116.011 140.195 116.188L140.778 117.093C144.55 122.881 147.817 127.645 151.028 132.116L151.728 133.1C151.865 133.277 151.824 133.591 151.764 133.806Z" fill="black"/>
<path d="M51.5689 171.284C45.2116 175.268 39.165 179.804 33.7045 184.734C33.4481 184.988 33.3089 185.321 33.2869 185.732C33.284 186.242 33.4584 186.616 33.731 186.97C34.3552 187.562 35.2768 187.587 35.9859 187.042C41.3864 182.327 47.0594 177.966 52.964 174.273C53.6922 173.826 54.1288 172.926 53.7609 172.081C53.5865 171.707 53.1177 171.391 52.6869 171.271C52.237 171.053 51.8253 171.031 51.5689 171.284Z" fill="black"/>
<path d="M43.8885 128.565C44.2211 128.704 44.5947 128.53 44.791 128.492C45.2628 128.298 45.6775 127.81 45.8166 127.478C46.177 126.185 44.9257 125.511 44.6121 125.47C37.0411 122.152 29.5522 118.207 22.3416 113.596C21.9899 113.359 21.5782 113.337 21.1855 113.413C20.7929 113.489 20.3401 113.781 20.2009 114.114C19.609 114.738 19.8978 115.7 20.6011 116.175C27.8117 120.786 35.6523 124.968 43.8885 128.565Z" fill="black"/>
<path d="M94.51 103.867C95.6689 103.54 95.8901 102.58 95.7377 101.795C95.7025 101.089 95.5882 100.5 95.5529 99.7936L95.4635 98.283C95.393 96.8706 95.2435 95.5753 95.1921 94.261C95.0894 91.6324 94.9676 88.9057 94.9631 86.2581C94.966 85.7482 94.7725 85.2764 94.4018 84.9409C94.1483 84.6845 93.8157 84.5453 93.5021 84.5043C93.1886 84.4633 92.9131 84.6186 92.6377 84.774C92.3622 84.9293 91.8304 85.3381 91.7674 86.0634C91.7956 91.4568 92.0773 97.1067 92.6725 102.798C92.7297 103.092 92.885 103.367 93.2367 103.605C93.6865 103.823 94.1173 103.943 94.51 103.867Z" fill="black"/>
<path d="M153.534 157.096C153.318 157.036 152.808 157.033 152.454 157.305C152.08 157.48 151.745 157.851 151.704 158.164C151.643 158.379 151.561 159.007 151.736 159.38C151.91 159.754 152.164 160.01 152.829 160.289C157.622 162.414 162.614 163.992 167.805 165.022C168.55 165.183 168.844 165.126 169.119 164.97C169.493 164.796 169.829 164.425 169.87 164.112C169.99 163.681 169.875 163.092 169.682 162.62C169.527 162.345 169.292 162.186 168.979 162.145C163.749 160.919 158.542 159.282 153.534 157.096Z" fill="black"/>
<path d="M196.825 135.043C188.102 134.189 179.123 133.589 170.398 133.245C169.986 133.224 169.594 133.3 169.318 133.455C168.866 133.747 168.628 134.098 168.527 134.627C168.505 135.039 168.6 135.53 168.99 135.964C169.244 136.22 169.478 136.378 169.792 136.419C178.615 136.744 187.594 137.344 196.415 138.179C197.257 138.321 198.144 137.639 198.188 136.816C198.209 136.404 198.114 135.913 197.861 135.657C197.471 135.223 197.138 135.084 196.825 135.043Z" fill="black"/>
<path d="M129.011 79.0383C129.232 78.0785 130.138 77.4953 130.67 77.0865L130.847 76.9502C132.265 75.86 133.506 74.9061 134.24 73.4393C134.458 72.9895 134.129 72.3404 133.66 72.024L132.45 71.0365C132.411 70.8402 132.392 70.742 132.354 70.5457C132.335 70.4475 132.395 70.2321 132.592 70.194L134.975 68.3052C135.33 68.0326 135.469 67.7 135.393 67.3074C135.298 66.8165 134.908 66.3828 134.458 66.1646C134.027 66.0444 133.733 66.1016 133.378 66.3741L129.418 69.5876C129.162 69.8411 129.003 70.0756 128.962 70.3891C128.94 70.8008 129.134 71.2726 129.504 71.6081L131.105 73.0293C131.222 73.1084 131.26 73.3047 131.279 73.4029C131.298 73.5011 131.238 73.7165 131.042 73.7546L130.51 74.1634C130.253 74.4169 129.978 74.5722 129.604 74.7466C129.329 74.9019 129.152 75.0382 128.974 75.1745C127.911 75.9921 127.16 76.8508 126.664 77.9659C126.265 79.0619 126.18 80.1989 126.548 81.0443C126.742 81.5161 127.033 81.9688 127.502 82.2853L128.107 82.779C128.225 82.8581 128.263 83.0544 128.301 83.2508C128.241 83.4662 128.162 83.5834 127.965 83.6215L126.844 84.1447C125.35 84.8422 124.505 85.21 124.341 86.4642C124.278 87.1895 124.645 88.0349 125.349 88.5096C125.349 88.5096 125.583 88.6678 125.719 88.8451L126.423 89.3198C126.54 89.3989 126.676 89.5762 126.616 89.7916C126.654 89.9879 126.477 90.1242 126.398 90.2414L125.768 90.6693C125.591 90.8056 125.492 90.8246 125.413 90.9419C125.138 91.0972 124.862 91.2525 124.489 91.4269L124.115 91.6013C122.463 92.5333 121.576 93.2146 121.707 94.4117C121.91 96.5114 124.546 98.5464 125.288 99.2174C125.541 99.4738 125.855 99.5148 126.149 99.4576C126.444 99.4005 126.719 99.2451 126.957 98.8935C127.036 98.7762 127.669 97.8385 126.81 97.0883C126.205 96.5946 125.483 96.0217 124.957 95.4108L124.567 94.9771C124.45 94.898 124.411 94.7017 124.491 94.5844C124.57 94.4672 124.649 94.35 124.728 94.2328L126.105 93.4561C126.381 93.3008 126.558 93.1645 126.833 93.0092C127.66 92.5432 128.565 91.96 129.002 91.0603C129.438 90.1606 129.463 89.239 129.114 88.4918C128.978 88.3145 128.823 88.0391 128.667 87.7636L128.16 87.2508C128.043 87.1717 128.005 86.9754 128.065 86.76C128.125 86.5446 128.223 86.5255 128.302 86.4083L128.952 86.0786C130.072 85.5554 130.899 85.0895 131.373 84.3861C131.69 83.9172 131.791 83.3883 131.696 82.8974C131.543 82.1121 130.881 81.3239 130.178 80.8492C130.06 80.7701 129.943 80.6909 129.845 80.71C129.395 80.4917 128.907 80.0771 129.147 79.2155L129.011 79.0383Z" fill="black"/>
<path d="M421.286 238.163C415.856 247.978 407.905 256.346 398.204 261.998C396.552 262.93 397.889 265.624 399.542 264.692C409.696 258.749 418.119 250.187 423.747 239.825C424.64 238.124 422.178 236.462 421.286 238.163Z" fill="#F7C300"/>
<path d="M239.724 216.461C230.838 216.861 222.12 218.655 213.786 221.903C211.978 222.559 212.746 225.466 214.554 224.81C222.612 221.717 231.134 219.962 239.707 219.52C241.61 219.354 241.745 216.374 239.724 216.461Z" fill="#F7C300"/>
</svg>
