<svg width="370" height="672" viewBox="0 0 370 672" fill="none" xmlns="http://www.w3.org/2000/svg">
<path d="M111.372 204.518C95.6724 199.618 77.4724 203.118 61.4724 204.618C43.9724 206.218 26.4724 208.018 8.97239 209.918C-1.02761 211.018 -2.42761 223.418 3.57239 228.118C-0.427598 232.718 0.372403 240.318 6.47239 243.618C13.2724 247.318 20.6724 247.618 28.2724 247.918C36.7724 248.318 45.2724 248.518 53.6724 248.718C70.6724 249.018 87.5724 248.718 104.572 248.018C117.472 247.518 116.072 227.518 103.272 228.018C102.572 228.018 101.872 228.018 101.072 228.118C104.972 226.918 108.872 225.518 112.672 223.718C121.872 219.418 121.072 207.518 111.372 204.518Z" fill="#59C69F"/>
<path d="M27.2414 211.6C27.9414 213.9 27.8414 216 27.1414 218C26.7414 219.1 26.1414 220.3 25.4414 221.5C24.7414 222.7 23.9414 224.1 23.0414 225.4C22.1414 226.7 21.2414 228 20.3414 229.2C19.4414 230.4 18.5414 231.5 17.8414 232.4C18.8414 232.3 20.0414 232.2 21.4414 232C22.8414 231.8 24.3414 231.6 25.8414 231.4C27.3414 231.2 28.8414 231 30.3414 230.8C31.8414 230.6 33.1414 230.5 34.3414 230.4C34.9414 230.4 35.6414 230.4 36.4414 230.6C37.2414 230.8 37.7414 230.9 38.0414 231C38.3414 231.2 38.4414 231.4 38.4414 231.8C38.3414 232.2 38.1414 232.6 37.9414 233C37.6414 233.4 37.3414 233.8 37.0414 234.2C36.6414 234.5 36.4414 234.7 36.1414 234.7C34.4414 235 32.5414 235.2 30.4414 235.5C28.3414 235.8 26.2414 236.1 24.1414 236.4C22.0414 236.7 19.9414 237 17.9414 237.3C15.9414 237.6 14.1414 237.8 12.4414 237.9C11.6414 238 11.0414 237.7 10.5414 237C10.0414 236.3 9.74142 235.6 9.64142 234.8C9.64142 234.7 9.64142 234.5 9.74142 234.2C9.84142 233.9 10.1414 233.5 10.7414 232.9C13.0414 230.4 15.2414 227.6 17.4414 224.6C19.6414 221.6 21.3414 218.6 22.6414 215.6C22.8414 215.2 22.8414 214.8 22.8414 214.3C22.7414 213.9 22.6414 213.6 22.5414 213.5C22.2414 213.3 21.9414 213.2 21.5414 213.1C21.1414 213.1 20.6414 213.1 20.1414 213.1C19.3414 213.1 18.6414 213.3 17.8414 213.5C17.0414 213.7 16.2414 213.9 15.4414 214.2C14.6414 214.5 13.9414 214.7 13.3414 215C12.7414 215.3 12.1414 215.5 11.6414 215.8C11.0414 216.1 10.4414 216.2 10.0414 216.2C9.64142 216.1 9.24142 216 8.94142 215.8C8.64142 215.6 8.44142 215.4 8.24142 215.2C8.04142 215 8.04142 214.8 8.04142 214.7C7.94142 214.4 8.04142 214.1 8.14142 213.7C8.24142 213.3 8.34142 212.9 8.44142 212.7C8.94142 212.1 9.74142 211.5 10.7414 210.9C11.8414 210.3 13.0414 209.7 14.3414 209.3C15.7414 208.9 17.1414 208.5 18.7414 208.3C20.2414 208.1 21.8414 208.1 23.3414 208.3C24.3414 208.6 25.2414 209 25.8414 209.5C26.4414 210.3 26.9414 210.9 27.2414 211.6Z" fill="black" stroke="black" stroke-width="0.75" stroke-miterlimit="10"/>
<path d="M63.8408 219.1C63.8408 220.3 63.6408 221.9 63.2408 223.7C62.8408 225.5 62.1408 227.3 61.2408 229.1C60.3408 230.9 59.1408 232.6 57.6408 234.2C56.1408 235.8 54.3408 237 52.1408 237.9C50.8408 238.5 49.4408 238.8 48.1408 238.8C46.8408 238.8 45.6408 238.6 44.6408 238C43.6408 237.5 42.7408 236.6 42.0408 235.5C41.3408 234.4 40.9408 232.9 40.7408 231.2C40.6408 229.1 40.7408 227 41.3408 224.9C41.8408 222.8 42.6408 220.8 43.8408 218.9C44.9408 217.1 46.3408 215.4 47.8408 214C49.4408 212.6 51.1408 211.4 53.1408 210.6C53.5408 210.4 53.9408 210.4 54.4408 210.6C54.8408 210.8 55.1408 211.3 55.2408 212.1C58.0408 212.4 60.2408 213.1 61.7408 214.4C63.1408 215.6 63.9408 217.2 63.8408 219.1ZM46.2408 231.1C46.3408 231.9 46.5408 232.4 46.8408 232.7C47.1408 233 47.5408 233.2 47.9408 233.4C48.3408 233.5 48.8408 233.4 49.4408 233.2C49.9408 233 50.5408 232.8 51.0408 232.6C51.5408 232.4 52.0408 232.1 52.4408 231.8C52.8408 231.5 53.2408 231.2 53.5408 231C55.0408 229.6 56.2408 227.9 57.2408 225.9C58.2408 223.9 58.7408 221.7 58.9408 219.3C58.9408 219 58.7408 218.7 58.3408 218.3C57.9408 217.9 57.3408 217.7 56.7408 217.5C56.0408 217.3 55.3408 217.2 54.5408 217C53.7408 216.9 52.9408 216.9 52.2408 216.9C51.4408 217.8 50.6408 218.8 49.8408 219.9C49.0408 221 48.4408 222.1 47.8408 223.3C47.3408 224.5 46.8408 225.8 46.6408 227.1C46.2408 228.4 46.1408 229.7 46.2408 231.1Z" fill="black" stroke="black" stroke-width="0.75" stroke-miterlimit="10"/>
<path d="M74.9403 242.2C73.9403 241.4 73.2403 240.4 72.8403 239.2C72.4403 238 72.2403 237.3 72.2403 236.9C71.5403 228.2 71.9403 219.8 73.4403 211.5C73.7403 210.4 74.0403 209.4 74.3403 208.4C74.6403 207.5 75.0403 207 75.3403 207C75.7403 207 76.1403 207.1 76.5403 207.3C76.9403 207.5 77.3403 207.8 77.6403 208.1C77.9403 208.4 78.2403 208.8 78.4403 209.2C78.6403 209.6 78.7403 209.9 78.7403 210.3C77.6403 215.6 77.0403 220.8 76.8403 226.1C76.7403 231.3 76.8403 236.6 77.0403 241.8C77.0403 242.3 76.8403 242.7 76.3403 242.8C76.0403 242.9 75.8403 242.8 75.5403 242.7C75.3403 242.5 75.1403 242.4 74.9403 242.2Z" fill="black" stroke="black" stroke-width="0.75" stroke-miterlimit="10"/>
<path d="M106.84 217.3C105.44 221.9 104.14 226.5 102.94 231.1C101.74 235.7 100.54 240 99.3409 244C99.1409 244.9 98.6409 245.5 97.9409 246C97.2409 246.5 96.6409 246.6 96.0409 246.3C95.7409 246.2 95.5409 245.9 95.3409 245.6C95.1409 245.2 94.9409 244.8 94.8409 244.3C94.7409 243.8 94.6409 243.3 94.6409 242.7C94.6409 242.1 94.6409 241.6 94.7409 241.1C95.6409 237.7 96.7409 233.8 98.0409 229.4C99.2409 225 100.64 220.5 102.04 216C100.74 216.1 99.4409 216.2 98.0409 216.3C96.6409 216.4 95.2409 216.5 93.9409 216.6C92.6409 216.7 91.3409 216.8 90.1409 216.9C88.9409 217 87.9409 217.1 87.0409 217.2C86.1409 217.2 85.2409 216.8 84.5409 215.9C83.7409 215 83.3409 214.1 83.4409 213.2C83.4409 212.9 83.5409 212.7 83.8409 212.5C84.1409 212.3 84.3409 212.2 84.6409 212.1C86.0409 211.9 87.6409 211.7 89.4409 211.6C91.2409 211.5 93.0409 211.3 94.8409 211.2C96.6409 211.1 98.4409 211 100.24 210.9C101.94 210.8 103.54 210.8 104.84 210.8C105.14 210.8 105.54 210.9 105.94 211.2C106.34 211.5 106.74 211.8 107.04 212.1C107.34 212.5 107.64 212.9 107.84 213.3C108.04 213.7 108.14 214.1 108.14 214.4L106.84 217.3Z" fill="black" stroke="black" stroke-width="0.75" stroke-miterlimit="10"/>
<path d="M112.372 134.518C96.6724 129.618 78.4724 133.118 62.4724 134.618C44.9724 136.218 27.4724 138.018 9.97239 139.918C-0.0276012 141.018 -1.42761 153.418 4.57239 158.118C0.572399 162.718 1.37239 170.318 7.47239 173.618C14.2724 177.318 21.6724 177.618 29.2724 177.918C37.7724 178.318 46.2724 178.518 54.6724 178.718C71.6724 179.018 88.5724 178.718 105.572 178.018C118.472 177.518 117.072 157.518 104.272 158.018C103.572 158.018 102.872 158.018 102.072 158.118C105.972 156.918 109.872 155.518 113.672 153.718C122.872 149.418 122.072 137.518 112.372 134.518Z" fill="#59C69F"/>
<path d="M20.2414 144.836C20.9414 147.136 20.8414 149.236 20.1414 151.236C19.7414 152.336 19.1414 153.536 18.4414 154.736C17.7414 155.936 16.9414 157.336 16.0414 158.636C15.1414 159.936 14.2414 161.236 13.3414 162.436C12.4414 163.636 11.5414 164.736 10.8414 165.636C11.8414 165.536 13.0414 165.436 14.4414 165.236C15.8414 165.036 17.3414 164.836 18.8414 164.636C20.3414 164.436 21.8414 164.236 23.3414 164.036C24.8414 163.836 26.1414 163.736 27.3414 163.636C27.9414 163.636 28.6414 163.636 29.4414 163.836C30.2414 164.036 30.7414 164.136 31.0414 164.236C31.3414 164.436 31.4414 164.636 31.4414 165.036C31.3414 165.436 31.1414 165.836 30.9414 166.236C30.6414 166.636 30.3414 167.036 30.0414 167.436C29.6414 167.736 29.4414 167.936 29.1414 167.936C27.4414 168.236 25.5414 168.436 23.4414 168.736C21.3414 169.036 19.2414 169.336 17.1414 169.636C15.0414 169.936 12.9414 170.236 10.9414 170.536C8.94142 170.836 7.14142 171.036 5.44142 171.136C4.64142 171.236 4.04142 170.936 3.54142 170.236C3.04142 169.536 2.74142 168.836 2.64142 168.036C2.64142 167.936 2.64142 167.736 2.74142 167.436C2.84142 167.136 3.14142 166.736 3.74142 166.136C6.04142 163.636 8.24142 160.836 10.4414 157.836C12.6414 154.836 14.3414 151.836 15.6414 148.836C15.8414 148.436 15.8414 148.036 15.8414 147.536C15.7414 147.136 15.6414 146.836 15.5414 146.736C15.2414 146.536 14.9414 146.436 14.5414 146.336C14.1414 146.336 13.6414 146.336 13.1414 146.336C12.3414 146.336 11.6414 146.536 10.8414 146.736C10.0414 146.936 9.24142 147.136 8.44142 147.436C7.64142 147.736 6.94142 147.936 6.34142 148.236C5.74142 148.536 5.14142 148.736 4.64142 149.036C4.04142 149.336 3.44142 149.436 3.04142 149.436C2.64142 149.336 2.24142 149.236 1.94142 149.036C1.64142 148.836 1.44142 148.636 1.24142 148.436C1.04142 148.236 1.04142 148.036 1.04142 147.936C0.941422 147.636 1.04142 147.336 1.14142 146.936C1.24142 146.536 1.34142 146.136 1.44142 145.936C1.94142 145.336 2.74142 144.736 3.74142 144.136C4.84142 143.536 6.04142 142.936 7.34142 142.536C8.74142 142.136 10.1414 141.736 11.7414 141.536C13.2414 141.336 14.8414 141.336 16.3414 141.536C17.3414 141.836 18.2414 142.236 18.8414 142.736C19.4414 143.636 19.9414 144.236 20.2414 144.836Z" fill="black" stroke="black" stroke-width="0.75" stroke-miterlimit="10"/>
<path d="M56.8408 152.336C56.8408 153.536 56.6408 155.136 56.2408 156.936C55.8408 158.736 55.1408 160.536 54.2408 162.336C53.3408 164.136 52.1408 165.836 50.6408 167.436C49.1408 169.036 47.3408 170.236 45.1408 171.136C43.8408 171.736 42.4408 172.036 41.1408 172.036C39.8408 172.036 38.6408 171.836 37.6408 171.236C36.6408 170.736 35.7408 169.836 35.0408 168.736C34.3408 167.636 33.9408 166.136 33.7408 164.436C33.6408 162.336 33.7408 160.236 34.3408 158.136C34.8408 156.036 35.6408 154.036 36.8408 152.136C37.9408 150.336 39.3408 148.636 40.8408 147.236C42.4408 145.836 44.1408 144.636 46.1408 143.836C46.5408 143.636 46.9408 143.636 47.4408 143.836C47.8408 144.036 48.1408 144.536 48.2408 145.336C51.0408 145.636 53.2408 146.336 54.7408 147.636C56.1408 148.836 56.9408 150.436 56.8408 152.336ZM39.2408 164.336C39.3408 165.136 39.5408 165.636 39.8408 165.936C40.1408 166.236 40.5408 166.436 40.9408 166.636C41.3408 166.736 41.8408 166.636 42.4408 166.436C42.9408 166.236 43.5408 166.036 44.0408 165.836C44.5408 165.636 45.0408 165.336 45.4408 165.036C45.8408 164.736 46.2408 164.436 46.5408 164.236C48.0408 162.836 49.2408 161.136 50.2408 159.136C51.2408 157.136 51.7408 154.936 51.9408 152.536C51.9408 152.236 51.7408 151.936 51.3408 151.536C50.9408 151.136 50.3408 150.936 49.7408 150.736C49.0408 150.536 48.3408 150.436 47.5408 150.236C46.7408 150.136 45.9408 150.136 45.2408 150.136C44.4408 151.036 43.6408 152.036 42.8408 153.136C42.0408 154.236 41.4408 155.336 40.8408 156.536C40.3408 157.736 39.8408 159.036 39.6408 160.336C39.2408 161.636 39.1408 163.036 39.2408 164.336Z" fill="black" stroke="black" stroke-width="0.75" stroke-miterlimit="10"/>
<path d="M67.9403 175.436C66.9403 174.636 66.2403 173.636 65.8403 172.436C65.4403 171.236 65.2403 170.536 65.2403 170.136C64.5403 161.436 64.9403 153.036 66.4403 144.736C66.7403 143.636 67.0403 142.636 67.3403 141.636C67.6403 140.736 68.0403 140.236 68.3403 140.236C68.7403 140.236 69.1403 140.336 69.5403 140.536C69.9403 140.736 70.3403 141.036 70.6403 141.336C70.9403 141.636 71.2403 142.036 71.4403 142.436C71.6403 142.836 71.7403 143.136 71.7403 143.536C70.6403 148.836 70.0403 154.036 69.8403 159.336C69.7403 164.536 69.8403 169.836 70.0403 175.036C70.0403 175.536 69.8403 175.936 69.3403 176.036C69.0403 176.136 68.8403 176.036 68.5403 175.936C68.3403 175.736 68.1403 175.636 67.9403 175.436Z" fill="black" stroke="black" stroke-width="0.75" stroke-miterlimit="10"/>
<path d="M76.8406 162.436C78.4406 158.636 80.3406 154.936 82.5406 151.336C84.7406 147.736 87.3406 144.136 90.2406 140.536C90.7406 140.136 91.4406 139.736 92.4406 139.436C93.4406 139.136 94.2406 139.236 94.9406 139.536C95.0406 139.636 95.1406 139.736 95.1406 139.736C95.2406 139.736 95.2406 139.836 95.3406 139.936C95.4406 139.736 95.4406 139.436 95.5406 139.036C95.8406 138.436 96.2406 137.836 96.6406 137.436C97.1406 137.036 97.6406 136.936 98.2406 137.036C99.1406 137.336 99.7406 137.736 100.141 138.336C100.541 138.936 100.641 139.636 100.541 140.436C99.8406 143.536 99.3406 146.636 98.8406 149.836C98.3406 153.036 97.9406 156.436 97.6406 160.136C99.2406 159.736 100.941 159.436 102.641 159.136C104.341 158.836 106.141 158.536 108.041 158.336C108.341 158.236 108.741 158.336 109.141 158.336C109.541 158.436 109.941 158.436 110.341 158.636C110.741 158.736 111.041 158.936 111.341 159.136C111.541 159.336 111.741 159.636 111.741 159.936C111.741 160.736 111.341 161.336 110.441 162.036C109.541 162.636 108.641 163.136 107.641 163.336C105.941 163.636 104.241 163.936 102.541 164.336C100.841 164.736 99.2406 165.136 97.5406 165.536C97.4406 167.536 97.4406 169.636 97.4406 171.836C97.4406 174.036 97.5406 176.236 97.6406 178.636C97.6406 179.236 97.4406 179.836 97.0406 180.136C96.5406 180.536 96.0406 180.636 95.5406 180.636C94.7406 180.536 94.1406 180.136 93.7406 179.336C93.2406 178.536 92.9406 177.636 92.8406 176.736C92.5406 175.036 92.4406 173.436 92.3406 171.836C92.2406 170.236 92.1406 168.536 92.1406 166.936C90.5406 167.336 88.9406 167.736 87.3406 168.136C85.7406 168.536 84.1406 168.936 82.5406 169.236C81.3406 169.536 80.3406 169.436 79.5406 169.036C78.7406 168.636 78.0406 168.136 77.5406 167.336C77.0406 166.636 76.7406 165.836 76.6406 164.936C76.6406 164.036 76.6406 163.236 76.8406 162.436ZM94.8406 142.536C94.7406 142.736 94.6406 142.936 94.4406 143.136C94.2406 143.336 94.1406 143.536 94.0406 143.636C91.4406 146.836 89.0406 150.136 86.9406 153.636C84.8406 157.136 83.0406 160.736 81.6406 164.436C83.3406 163.936 85.0406 163.436 86.7406 162.936C88.5406 162.436 90.3406 161.936 92.2406 161.436C92.5406 155.236 93.3406 148.936 94.8406 142.536Z" fill="black" stroke="black" stroke-width="0.75" stroke-miterlimit="10"/>
<path d="M124.391 86.8724C125.691 85.7724 126.691 84.1724 127.191 82.2724C128.091 78.8724 126.891 74.5724 124.191 71.9724C123.491 70.9724 122.491 70.1724 121.291 69.6724C106.291 62.7724 90.6905 65.2724 74.7905 66.2724C57.8905 67.3724 40.8905 67.4724 23.8905 66.7724C15.8905 66.4724 12.8905 73.9724 14.7905 79.8724C14.4905 79.9724 14.1905 80.0724 13.7905 80.1724C11.7905 80.8724 9.99054 82.0724 8.79054 83.6724C6.69054 83.8724 4.59054 84.7724 2.89054 86.4724C-0.709466 90.0724 -1.20946 97.0724 2.89054 100.572C10.3905 107.072 21.4905 104.972 30.6905 104.972C40.9905 104.972 51.1905 104.972 61.4905 105.172C81.6905 105.372 101.891 105.772 122.091 106.472C134.091 106.872 134.891 89.4724 124.391 86.8724Z" fill="#59C69F"/>
<path d="M31.2414 74.8362C31.9414 77.1362 31.8414 79.2362 31.1414 81.2362C30.7414 82.3362 30.1414 83.5362 29.4414 84.7362C28.7414 85.9362 27.9414 87.3362 27.0414 88.6362C26.1414 89.9362 25.2414 91.2362 24.3414 92.4362C23.4414 93.6362 22.5414 94.7362 21.8414 95.6362C22.8414 95.5362 24.0414 95.4362 25.4414 95.2362C26.8414 95.0362 28.3414 94.8362 29.8414 94.6362C31.3414 94.4362 32.8414 94.2362 34.3414 94.0362C35.8414 93.8362 37.1414 93.7362 38.3414 93.6362C38.9414 93.6362 39.6414 93.6362 40.4414 93.8362C41.2414 94.0362 41.7414 94.1362 42.0414 94.2362C42.3414 94.4362 42.4414 94.6362 42.4414 95.0362C42.3414 95.4362 42.1414 95.8362 41.9414 96.2362C41.6414 96.6362 41.3414 97.0362 41.0414 97.4362C40.6414 97.7362 40.4414 97.9362 40.1414 97.9362C38.4414 98.2362 36.5414 98.4362 34.4414 98.7362C32.3414 99.0362 30.2414 99.3362 28.1414 99.6362C26.0414 99.9362 23.9414 100.236 21.9414 100.536C19.9414 100.836 18.1414 101.036 16.4414 101.136C15.6414 101.236 15.0414 100.936 14.5414 100.236C14.0414 99.5362 13.7414 98.8362 13.6414 98.0362C13.6414 97.9362 13.6414 97.7362 13.7414 97.4362C13.8414 97.1362 14.1414 96.7362 14.7414 96.1362C17.0414 93.6362 19.2414 90.8362 21.4414 87.8362C23.6414 84.8362 25.3414 81.8362 26.6414 78.8362C26.8414 78.4362 26.8414 78.0362 26.8414 77.5362C26.7414 77.1362 26.6414 76.8362 26.5414 76.7362C26.2414 76.5362 25.9414 76.4362 25.5414 76.3362C25.1414 76.3362 24.6414 76.3362 24.1414 76.3362C23.3414 76.3362 22.6414 76.5362 21.8414 76.7362C21.0414 76.9362 20.2414 77.1362 19.4414 77.4362C18.6414 77.7362 17.9414 77.9362 17.3414 78.2362C16.7414 78.5362 16.1414 78.7362 15.6414 79.0362C15.0414 79.3362 14.4414 79.4362 14.0414 79.4362C13.6414 79.3362 13.2414 79.2362 12.9414 79.0362C12.6414 78.8362 12.4414 78.6362 12.2414 78.4362C12.0414 78.2362 12.0414 78.0362 12.0414 77.9362C11.9414 77.6362 12.0414 77.3362 12.1414 76.9362C12.2414 76.5362 12.3414 76.1362 12.4414 75.9362C12.9414 75.3362 13.7414 74.7362 14.7414 74.1362C15.8414 73.5362 17.0414 72.9362 18.3414 72.5362C19.7414 72.1362 21.1414 71.7362 22.7414 71.5362C24.2414 71.3362 25.8414 71.3362 27.3414 71.5362C28.3414 71.8362 29.2414 72.2362 29.8414 72.7362C30.4414 73.6362 30.9414 74.2362 31.2414 74.8362Z" fill="black" stroke="black" stroke-width="0.75" stroke-miterlimit="10"/>
<path d="M67.8408 82.4361C67.8408 83.6361 67.6408 85.2361 67.2408 87.0361C66.8408 88.8361 66.1408 90.6361 65.2408 92.4361C64.3408 94.2361 63.1408 95.9361 61.6408 97.5361C60.1408 99.1361 58.3408 100.336 56.1408 101.236C54.8408 101.836 53.4408 102.136 52.1408 102.136C50.8408 102.136 49.6408 101.936 48.6408 101.336C47.6408 100.836 46.7408 99.9361 46.0408 98.8361C45.3408 97.7361 44.9408 96.2361 44.7408 94.5361C44.6408 92.4361 44.7408 90.3361 45.3408 88.2361C45.8408 86.1361 46.6408 84.1361 47.8408 82.2361C48.9408 80.4361 50.3408 78.7361 51.8408 77.3361C53.4408 75.9361 55.1408 74.7361 57.1408 73.9361C57.5408 73.7361 57.9408 73.7361 58.4408 73.9361C58.8408 74.1361 59.1408 74.6361 59.2408 75.4361C62.0408 75.7361 64.2408 76.4361 65.7408 77.7361C67.1408 78.9361 67.9408 80.4361 67.8408 82.4361ZM50.2408 94.3361C50.3408 95.1361 50.5408 95.6361 50.8408 95.9361C51.1408 96.2361 51.5408 96.4361 51.9408 96.6361C52.3408 96.7361 52.8408 96.6361 53.4408 96.4361C53.9408 96.2361 54.5408 96.0361 55.0408 95.8361C55.5408 95.6361 56.0408 95.3361 56.4408 95.0361C56.8408 94.7361 57.2408 94.4361 57.5408 94.2361C59.0408 92.8361 60.2408 91.1361 61.2408 89.1361C62.2408 87.1361 62.7408 84.9361 62.9408 82.5361C62.9408 82.2361 62.7408 81.9361 62.3408 81.5361C61.9408 81.1361 61.3408 80.9361 60.7408 80.7361C60.0408 80.5361 59.3408 80.4361 58.5408 80.2361C57.7408 80.1361 56.9408 80.1361 56.2408 80.1361C55.4408 81.0361 54.6408 82.0361 53.8408 83.1361C53.0408 84.2361 52.4408 85.3361 51.8408 86.5361C51.3408 87.7361 50.8408 89.0361 50.6408 90.3361C50.2408 91.7361 50.1408 93.0361 50.2408 94.3361Z" fill="black" stroke="black" stroke-width="0.75" stroke-miterlimit="10"/>
<path d="M78.9403 105.436C77.9403 104.636 77.2403 103.636 76.8403 102.436C76.4403 101.236 76.2403 100.536 76.2403 100.136C75.5403 91.4363 75.9403 83.0363 77.4403 74.7363C77.7403 73.6363 78.0403 72.6363 78.3403 71.6363C78.6403 70.7363 79.0403 70.2363 79.3403 70.2363C79.7403 70.2363 80.1403 70.3363 80.5403 70.5363C80.9403 70.7363 81.3403 71.0363 81.6403 71.3363C81.9403 71.6363 82.2403 72.0363 82.4403 72.4363C82.6403 72.8363 82.7403 73.1363 82.7403 73.5363C81.6403 78.8363 81.0403 84.0363 80.8403 89.3363C80.7403 94.5363 80.8403 99.8363 81.0403 105.036C81.0403 105.536 80.8403 105.936 80.3403 106.036C80.0403 106.136 79.8403 106.036 79.5403 105.936C79.3403 105.836 79.1403 105.636 78.9403 105.436Z" fill="black" stroke="black" stroke-width="0.75" stroke-miterlimit="10"/>
<path d="M87.8406 92.4361C89.4406 88.6361 91.3406 84.9361 93.5406 81.3361C95.7406 77.7361 98.3406 74.1361 101.241 70.5361C101.741 70.1361 102.441 69.7361 103.441 69.4361C104.441 69.1361 105.241 69.2361 105.941 69.5361C106.041 69.6361 106.141 69.7361 106.141 69.7361C106.241 69.7361 106.241 69.8361 106.341 69.9361C106.441 69.7361 106.441 69.4361 106.541 69.0361C106.841 68.4361 107.241 67.8361 107.641 67.4361C108.141 67.0361 108.641 66.9361 109.241 67.0361C110.141 67.3361 110.741 67.7361 111.141 68.3361C111.541 68.9361 111.641 69.6361 111.541 70.4361C110.841 73.5361 110.341 76.6361 109.841 79.8361C109.341 83.0361 108.941 86.4361 108.641 90.1361C110.241 89.7361 111.941 89.4361 113.641 89.1361C115.341 88.8361 117.141 88.5361 119.041 88.3361C119.341 88.2361 119.741 88.3361 120.141 88.3361C120.541 88.4361 120.941 88.4361 121.341 88.6361C121.741 88.7361 122.041 88.9361 122.341 89.1361C122.541 89.3361 122.741 89.6361 122.741 89.9361C122.741 90.7361 122.341 91.3361 121.441 92.0361C120.541 92.6361 119.641 93.1361 118.641 93.3361C116.941 93.6361 115.241 93.9361 113.541 94.3361C111.841 94.7361 110.241 95.1361 108.541 95.5361C108.441 97.5361 108.441 99.6361 108.441 101.836C108.441 104.036 108.541 106.236 108.641 108.636C108.641 109.236 108.441 109.836 108.041 110.136C107.541 110.536 107.041 110.636 106.541 110.636C105.741 110.536 105.141 110.136 104.741 109.336C104.241 108.536 103.941 107.636 103.841 106.736C103.541 105.036 103.441 103.436 103.341 101.836C103.241 100.236 103.141 98.5361 103.141 96.9361C101.541 97.3361 99.9406 97.7361 98.3406 98.1361C96.7406 98.5361 95.1406 98.9361 93.5406 99.2361C92.3406 99.5361 91.3406 99.4361 90.5406 99.0361C89.7406 98.6361 89.0406 98.1361 88.5406 97.3361C88.0406 96.6361 87.7406 95.8361 87.6406 94.9361C87.6406 94.0361 87.6406 93.2361 87.8406 92.4361ZM105.841 72.5361C105.741 72.7361 105.641 72.9361 105.441 73.1361C105.241 73.3361 105.141 73.5361 105.041 73.6361C102.441 76.8361 100.041 80.1361 97.9406 83.6361C95.8406 87.1361 94.0406 90.7361 92.6406 94.4361C94.3406 93.9361 96.0406 93.4361 97.7406 92.9361C99.5406 92.4361 101.341 91.9361 103.241 91.4361C103.541 85.3361 104.341 78.9361 105.841 72.5361Z" fill="black" stroke="black" stroke-width="0.75" stroke-miterlimit="10"/>
<path d="M116.217 2.8947C107.517 -1.0053 98.5168 0.0946989 89.2168 0.294699C79.9168 0.494699 70.6168 0.694699 61.3168 0.994699C43.0168 1.4947 24.4168 2.5947 6.91683 8.3947C-2.98317 11.5947 -1.38317 24.9947 6.21683 27.6947C0.816822 33.5947 3.11683 45.0947 13.0168 44.5947C42.5168 43.1947 72.0168 42.9947 101.517 44.0947C113.617 44.5947 114.317 26.8947 103.717 24.3947C107.117 23.3947 110.517 22.2947 113.917 21.0947C121.017 18.5947 124.717 6.6947 116.217 2.8947Z" fill="#59C69F"/>
<path d="M24.4414 9.6001C25.1414 11.9001 25.0414 14.0001 24.3414 16.0001C23.9414 17.1001 23.3414 18.3001 22.6414 19.5001C21.9414 20.7001 21.1414 22.1001 20.2414 23.4001C19.3414 24.7001 18.4414 26.0001 17.5414 27.2001C16.6414 28.4001 15.7414 29.5001 15.0414 30.4001C16.0414 30.3001 17.2414 30.2001 18.6414 30.0001C20.0414 29.8001 21.5414 29.6001 23.0414 29.4001C24.5414 29.2001 26.0414 29.0001 27.5414 28.8001C29.0414 28.6001 30.3414 28.5001 31.5414 28.4001C32.1414 28.4001 32.8414 28.4001 33.6414 28.6001C34.4414 28.8001 34.9414 28.9001 35.2414 29.0001C35.5414 29.2001 35.6414 29.4001 35.6414 29.8001C35.5414 30.2001 35.3414 30.6001 35.1414 31.0001C34.8414 31.4001 34.5414 31.8001 34.2414 32.2001C33.8414 32.5001 33.6414 32.7001 33.3414 32.7001C31.6414 33.0001 29.7414 33.2001 27.6414 33.5001C25.5414 33.8001 23.4414 34.1001 21.3414 34.4001C19.2414 34.7001 17.1414 35.0001 15.1414 35.3001C13.1414 35.6001 11.3414 35.8001 9.64142 35.9001C8.84142 36.0001 8.24142 35.7001 7.74142 35.0001C7.24142 34.3001 6.94142 33.6001 6.84142 32.8001C6.84142 32.7001 6.84142 32.5001 6.94142 32.2001C7.04142 31.9001 7.34142 31.5001 7.94142 30.9001C10.2414 28.4001 12.4414 25.6001 14.6414 22.6001C16.8414 19.6001 18.5414 16.6001 19.8414 13.6001C20.0414 13.2001 20.0414 12.8001 20.0414 12.3001C19.9414 11.9001 19.8414 11.6001 19.7414 11.5001C19.4414 11.3001 19.1414 11.2001 18.7414 11.1001C18.3414 11.1001 17.8414 11.1001 17.3414 11.1001C16.5414 11.1001 15.8414 11.3001 15.0414 11.5001C14.2414 11.7001 13.2414 12.3001 12.5414 12.5001C11.7414 12.8001 11.0414 13.1001 10.3414 13.4001C9.74142 13.7001 9.14142 13.9001 8.64142 14.1001C8.04142 14.4001 7.44142 14.6001 7.04142 14.5001C6.64142 14.5001 6.24142 14.3001 5.94142 14.1001C5.64142 13.9001 5.44142 13.7001 5.24142 13.5001C5.14142 13.3001 5.04142 13.1001 5.04142 13.0001C4.94142 12.7001 5.04142 12.4001 5.14142 12.0001C5.24142 11.6001 5.34142 11.2001 5.44142 11.0001C5.94142 10.4001 6.74142 9.7001 7.74142 9.1001C8.84142 8.5001 10.0414 7.9001 11.3414 7.5001C12.7414 7.1001 14.1414 6.7001 15.7414 6.5001C17.2414 6.3001 18.8414 6.3001 20.3414 6.5001C21.3414 6.8001 22.2414 7.2001 22.8414 7.7001C23.6414 8.3001 24.1414 8.9001 24.4414 9.6001Z" fill="black" stroke="black" stroke-width="0.75" stroke-miterlimit="10"/>
<path d="M61.042 17.0998C61.042 18.2998 60.842 19.8998 60.442 21.6998C60.042 23.4998 59.342 25.2998 58.442 27.0998C57.542 28.8998 56.342 30.5998 54.842 32.1998C53.342 33.7998 51.542 34.9998 49.342 35.8998C48.042 36.4998 46.642 36.7997 45.342 36.7997C44.042 36.7997 42.842 36.5998 41.842 35.9998C40.842 35.4998 39.942 34.5998 39.242 33.4998C38.542 32.3998 38.142 30.8998 37.942 29.1998C37.842 27.0998 37.942 24.9998 38.542 22.8998C39.042 20.7998 39.842 18.7998 41.042 16.8998C42.142 15.0998 43.542 13.3998 45.042 11.9998C46.642 10.5998 48.342 9.39971 50.342 8.59971C50.742 8.39971 51.142 8.39971 51.642 8.59971C52.042 8.79971 52.342 9.29971 52.442 10.0998C55.242 10.3998 57.442 11.0998 58.942 12.3998C60.342 13.5998 61.142 15.1998 61.042 17.0998ZM43.442 29.0998C43.542 29.8998 43.742 30.3998 44.042 30.6998C44.342 30.9998 44.742 31.1998 45.142 31.3998C45.542 31.4998 46.042 31.3998 46.642 31.1998C47.142 30.9998 47.742 30.7998 48.242 30.5998C48.742 30.3998 49.242 30.0998 49.642 29.7998C50.042 29.4998 50.442 29.1998 50.742 28.9998C52.242 27.5998 53.442 25.8998 54.442 23.8998C55.442 21.8998 55.942 19.6998 56.142 17.2998C56.142 16.9998 55.942 16.6998 55.542 16.2998C55.142 15.8998 54.542 15.6998 53.942 15.4998C53.242 15.2998 52.542 15.1998 51.742 14.9998C50.942 14.8998 50.142 14.8998 49.442 14.8998C48.642 15.7998 47.842 16.7998 47.042 17.8998C46.242 18.9998 45.642 20.0998 45.042 21.2998C44.542 22.4998 44.042 23.7998 43.842 25.0998C43.442 26.3998 43.342 27.6998 43.442 29.0998Z" fill="black" stroke="black" stroke-width="0.75" stroke-miterlimit="10"/>
<path d="M72.1415 40.2C71.1415 39.4 70.4415 38.4 70.0415 37.2C69.6415 36 69.4415 35.3 69.4415 34.9C68.7415 26.2 69.1415 17.8 70.6415 9.5C70.9415 8.4 71.2415 7.4 71.5415 6.4C71.8415 5.5 72.2415 5 72.5415 5C72.9415 5 73.3415 5.1 73.7415 5.3C74.1415 5.5 74.5415 5.8 74.8415 6.1C75.1415 6.4 75.4415 6.8 75.6415 7.2C75.8415 7.6 75.9415 7.9 75.9415 8.3C74.8415 13.6 74.2415 18.8 74.0415 24.1C73.9415 29.3 74.0415 34.6 74.2415 39.8C74.2415 40.3 74.0415 40.7 73.5415 40.8C73.2415 40.9 73.0415 40.8 72.7415 40.7C72.5415 40.5 72.3415 40.3 72.1415 40.2Z" fill="black" stroke="black" stroke-width="0.75" stroke-miterlimit="10"/>
<path d="M100.141 10.0998C100.841 12.3998 100.741 14.4998 100.041 16.4998C99.6406 17.5998 99.0406 18.7998 98.3406 19.9998C97.6406 21.2998 96.8406 22.5998 95.9406 23.8998C95.0406 25.1998 94.1406 26.4998 93.2406 27.6998C92.3406 28.8998 91.4406 29.9998 90.7406 30.8998C91.7406 30.7998 92.9406 30.6998 94.3406 30.4998C95.7406 30.2997 97.2406 30.0998 98.7406 29.8998C100.241 29.6998 101.741 29.4998 103.241 29.2998C104.741 29.0998 106.041 28.9998 107.241 28.8998C107.841 28.8998 108.541 28.8998 109.341 29.0998C110.141 29.2998 110.641 29.3998 110.941 29.4998C111.241 29.6998 111.341 29.8998 111.341 30.2998C111.241 30.6998 111.041 31.0998 110.841 31.4998C110.541 31.8998 110.241 32.2998 109.941 32.6998C109.541 32.9998 109.341 33.1998 109.041 33.1998C107.341 33.4998 105.441 33.6998 103.341 33.9998C101.241 34.2997 99.1406 34.5998 97.0406 34.8998C94.9406 35.1998 92.8406 35.4998 90.8406 35.7998C88.8406 36.0998 87.0406 36.2998 85.3406 36.3998C84.5406 36.4998 83.9406 36.1998 83.4406 35.4998C82.9406 34.7997 82.6406 34.0998 82.5406 33.2998C82.5406 33.1998 82.5406 32.9998 82.6406 32.6998C82.7406 32.3998 83.0406 31.9998 83.6406 31.3998C85.9406 28.8998 88.1406 26.0998 90.3406 23.0998C92.5406 20.0998 94.2406 17.0998 95.5406 14.0998C95.6406 13.8998 95.7406 13.4998 95.6406 13.0998C95.6406 12.6998 95.4406 12.4998 95.3406 12.2998C95.0406 12.0998 94.7406 11.9998 94.3406 11.8998C93.9406 11.8998 93.4406 11.8998 92.9406 11.8998C92.1406 11.8998 91.4406 12.0998 90.6406 12.2998C89.8406 12.4998 89.0406 12.6998 88.2406 12.9998C87.4406 13.2998 86.7406 13.4998 86.1406 13.7998C85.5406 14.0998 84.9406 14.2998 84.4406 14.5998C83.8406 14.8998 83.2406 14.9998 82.8406 14.9998C82.4406 14.9998 81.9406 14.8998 81.6406 14.6998C81.3406 14.4998 81.1406 14.2998 80.9406 14.0998C80.7406 13.8998 80.7406 13.6998 80.7406 13.5998C80.6406 13.2998 80.7406 12.9998 80.8406 12.5998C80.9406 12.1998 81.0406 11.7998 81.1406 11.5998C81.6406 10.8998 82.4406 10.2998 83.4406 9.69971C84.5406 9.09971 85.7406 8.49971 87.0406 8.09971C88.4406 7.69971 89.8406 7.29971 91.4406 7.09971C92.9406 6.89971 94.5406 6.89971 96.0406 7.09971C97.0406 7.39971 97.9406 7.79971 98.5406 8.29971C99.3406 8.89971 99.7406 9.49971 100.141 10.0998Z" fill="black" stroke="black" stroke-width="0.75" stroke-miterlimit="10"/>
<path d="M261.508 569.313C257.908 569.513 254.208 569.713 250.508 569.913C253.108 564.313 250.008 556.313 241.708 555.413C203.408 551.313 164.908 549.513 126.408 550.113C107.408 550.413 88.4084 551.413 69.4084 552.813C50.9084 554.213 32.0084 555.913 13.6084 553.313C8.3084 552.513 2.9084 554.613 1.3084 560.313C0.00840682 565.013 2.9084 571.813 8.3084 572.613C9.6084 572.813 10.9084 572.913 12.2084 573.113C11.7084 573.213 11.2084 573.313 10.7084 573.413C2.8084 575.313 0.408407 588.013 8.3084 591.713C22.6084 598.413 39.6084 596.113 54.9084 596.013C71.5084 595.813 88.0084 595.613 104.608 595.213C138.008 594.513 171.508 593.413 204.908 592.013C223.808 591.213 242.608 590.313 261.508 589.313C274.308 588.613 274.408 568.613 261.508 569.313Z" fill="#59C69F"/>
<path d="M20.2 583.375C20 585.175 19.5 586.675 18.7 587.875C17.9 589.175 16.8 590.075 15.6 590.875C14.4 591.575 13 592.075 11.5 592.175C10 592.275 8.5 592.175 7.1 591.775C6.5 591.575 5.8 591.375 5 590.975C4.3 590.575 3.6 590.175 3 589.675C2.4 589.175 1.9 588.675 1.5 587.975C1.1 587.375 1 586.675 1 585.875C1 585.275 1.3 584.675 1.9 584.175C2.5 583.675 3 583.075 3.5 582.675C4 582.375 4.6 582.075 5.3 581.775C5.9 581.475 6.6 581.675 7.2 582.275C7.6 582.975 7.6 583.675 7.4 584.275C7.2 584.875 6.9 585.475 6.8 585.975C6.6 586.575 6.8 586.975 7.6 587.175C8.4 587.375 9.2 587.475 10.3 587.375C11.9 587.275 13.1 586.775 13.9 585.875C14.7 584.975 15.2 583.875 15.5 582.575C15.8 581.275 15.8 579.775 15.7 578.175C15.5 576.575 15.3 575.075 15.1 573.575C14.5 570.875 13.6 568.275 12.3 565.775C11 563.375 9.5 561.175 7.8 559.275C7.3 558.675 6.9 558.075 6.8 557.475C6.7 556.875 6.9 556.275 7.5 555.675C8.4 555.075 9.1 554.875 9.7 555.075C10.3 555.275 10.9 555.575 11.5 556.175C14.6 559.175 17 562.975 18.6 567.475C20 571.975 20.6 577.275 20.2 583.375Z" fill="black" stroke="black" stroke-width="0.75" stroke-miterlimit="10"/>
<path d="M33.5988 568.775C33.2988 570.275 32.8988 571.775 32.5988 573.575C32.2988 575.275 31.9988 576.975 31.8988 578.575C31.7988 580.175 31.6988 581.675 31.8988 582.975C31.9988 584.275 32.3988 585.175 32.8988 585.775C33.7988 585.975 34.8988 585.575 36.0988 584.675C37.2988 583.775 38.4988 582.575 39.5988 581.075C40.6988 579.575 41.7988 578.075 42.6988 576.375C43.5988 574.675 44.2988 573.175 44.6988 571.875C44.8988 571.275 45.0988 570.575 45.2988 569.875C45.4988 569.175 45.5988 568.475 45.5988 567.675C45.5988 567.275 45.8988 566.875 46.4988 566.475C47.0988 566.075 47.4988 565.875 47.8988 565.775C48.1988 565.675 48.4988 565.775 48.7988 565.975C49.0988 566.175 49.4988 566.375 49.7988 566.675C50.0988 566.975 50.3988 567.275 50.5988 567.775C50.7988 568.175 50.9988 568.575 50.9988 569.075C51.0988 570.675 51.1988 572.475 51.3988 574.375C51.5988 576.275 51.7988 578.275 52.0988 580.175C52.3988 582.075 52.6988 583.975 52.9988 585.875C53.2988 587.675 53.5988 589.375 53.8988 590.775C54.0988 591.375 53.8988 592.075 53.3988 592.775C52.8988 593.575 52.3988 593.975 51.7988 594.175C51.2988 594.275 50.7988 594.175 50.2988 593.975C49.7988 593.775 49.3988 593.275 49.0988 592.675C48.7988 591.875 48.5988 590.975 48.3988 589.875C48.1988 588.775 47.9988 587.575 47.7988 586.375C47.5988 585.175 47.4988 583.975 47.2988 582.875C47.0988 581.775 46.9988 580.875 46.9988 580.075C46.1988 581.475 45.1988 582.975 44.0988 584.475C42.9988 585.975 41.7988 587.275 40.4988 588.475C39.1988 589.675 37.8988 590.575 36.4988 591.275C35.0988 591.975 33.6988 592.175 32.2988 591.975C30.1988 591.675 28.4988 589.675 27.3988 585.875C26.9988 584.375 26.7988 582.675 26.7988 580.875C26.7988 579.075 26.9988 577.275 27.1988 575.475C27.4988 573.675 27.7988 571.975 28.0988 570.375C28.4988 568.775 28.7988 567.475 29.0988 566.475C29.1988 566.075 29.3988 565.675 29.7988 565.275C30.0988 564.975 30.4988 564.775 30.8988 564.875C31.6988 565.075 32.3988 565.575 33.0988 566.375C33.5988 567.075 33.7988 567.875 33.5988 568.775Z" fill="black" stroke="black" stroke-width="0.75" stroke-miterlimit="10"/>
<path d="M64.9005 566.275C65.1005 567.075 65.2005 567.975 65.4005 568.975C65.6005 569.975 65.8005 570.975 66.0005 572.075C66.2005 573.175 66.4005 574.175 66.5005 575.275C66.7005 576.375 66.8005 577.375 66.9005 578.375C67.6005 576.975 68.3005 575.475 69.0005 573.975C69.8005 572.375 70.6005 570.975 71.5005 569.675C72.4005 568.375 73.3005 567.275 74.3005 566.475C75.3005 565.575 76.4005 565.175 77.6005 565.175C79.4005 565.175 80.9005 565.875 82.1005 567.175C83.3005 568.475 84.3005 570.075 85.1005 571.975C85.9005 573.875 86.6005 575.875 87.0005 577.975C87.5005 580.075 87.9005 581.975 88.2005 583.575C88.5005 585.075 87.9005 586.075 86.2005 586.775C85.4005 587.175 84.9005 587.175 84.5005 586.875C84.1005 586.575 83.9005 586.375 83.9005 586.075C83.6005 585.475 83.3005 584.275 82.9005 582.675C82.5005 581.075 82.1005 579.375 81.6005 577.775C81.1005 576.075 80.5005 574.675 79.9005 573.375C79.3005 572.175 78.5005 571.575 77.7005 571.675C76.7005 571.675 75.9005 572.475 75.1005 573.875C74.4005 574.975 73.8005 576.275 73.1005 577.575C72.4005 578.975 71.7005 580.375 71.1005 581.775C70.4005 583.175 69.8005 584.575 69.2005 586.075C68.6005 587.475 68.0005 588.775 67.4005 589.975C67.0005 590.375 66.5005 590.575 66.0005 590.775C65.4005 590.875 64.9005 590.875 64.3005 590.675C63.8005 590.475 63.3005 590.275 63.0005 589.875C62.7005 589.475 62.5005 589.075 62.5005 588.775C62.0005 584.575 61.6005 580.775 61.1005 577.275C60.6005 573.875 60.0005 570.275 59.2005 566.675C58.8005 565.475 58.8005 564.475 59.0005 563.775C59.2005 563.075 60.0005 562.775 61.4005 562.975C63.3005 563.075 64.5005 564.175 64.9005 566.275Z" fill="black" stroke="black" stroke-width="0.75" stroke-miterlimit="10"/>
<path d="M113.401 574.275C111.301 575.475 109.001 576.475 106.601 577.075C104.201 577.775 101.601 578.075 98.8012 577.975C98.9012 579.875 99.4013 581.375 100.401 582.475C101.401 583.575 102.601 584.275 104.001 584.475C104.901 584.575 105.701 584.575 106.601 584.375C107.501 584.175 108.301 583.975 109.101 583.675C109.901 583.375 110.601 582.975 111.201 582.475C111.801 582.075 112.401 581.675 112.901 581.175C113.401 580.775 113.901 580.475 114.401 580.375C114.901 580.275 115.301 580.275 115.601 580.375C116.401 580.675 116.601 581.475 116.401 582.775C115.501 584.475 114.301 585.975 112.701 587.175C111.101 588.375 109.301 589.175 107.301 589.475C105.601 589.775 103.801 589.675 102.001 589.175C100.201 588.675 98.5013 587.675 97.1013 586.275C95.9013 585.075 94.9013 583.575 94.3013 581.875C93.7013 580.175 93.3013 578.475 93.1013 576.675C93.0013 574.975 93.1013 573.375 93.6013 571.875C94.1013 570.375 94.8013 569.075 95.8013 567.875C96.8013 566.675 98.0011 565.775 99.5011 565.075C101.001 564.375 102.701 563.875 104.601 563.775C106.901 563.675 109.001 564.075 110.901 565.075C112.801 566.075 114.101 567.575 114.801 569.375C115.201 570.375 115.301 571.275 115.101 572.075C114.901 573.075 114.301 573.675 113.401 574.275ZM104.201 568.775C103.701 568.875 103.101 569.075 102.501 569.375C101.901 569.675 101.301 569.975 100.801 570.375C100.301 570.775 99.8011 571.275 99.4011 571.775C99.0011 572.275 98.8013 572.875 98.7013 573.475C99.6013 573.475 100.601 573.375 101.701 573.275C102.801 573.075 103.901 572.975 104.901 572.675C105.901 572.375 106.901 572.175 107.801 571.875C108.701 571.575 109.401 571.175 110.001 570.875C109.601 569.875 108.801 569.175 107.601 568.975C106.401 568.775 105.401 568.575 104.201 568.775Z" fill="black" stroke="black" stroke-width="0.75" stroke-miterlimit="10"/>
<path d="M162.499 562.675C163.199 564.975 163.099 567.075 162.399 569.075C161.999 570.175 161.399 571.375 160.699 572.575C159.999 573.875 159.199 575.175 158.299 576.475C157.399 577.775 156.499 579.075 155.599 580.275C154.699 581.475 153.799 582.575 153.099 583.475C154.099 583.375 155.299 583.275 156.699 583.075C158.099 582.875 159.599 582.675 161.099 582.475C162.599 582.275 164.099 582.075 165.599 581.875C167.099 581.675 168.399 581.575 169.599 581.475C170.199 581.475 170.899 581.475 171.699 581.675C172.499 581.875 172.999 581.975 173.299 582.075C173.599 582.275 173.699 582.475 173.699 582.875C173.699 583.275 173.399 583.675 173.199 584.075C172.899 584.475 172.599 584.875 172.299 585.275C171.899 585.575 171.699 585.775 171.399 585.775C169.699 586.075 167.799 586.275 165.699 586.575C163.599 586.875 161.499 587.175 159.399 587.475C157.299 587.775 155.199 588.075 153.199 588.375C151.199 588.675 149.399 588.875 147.699 588.975C146.899 589.075 146.299 588.775 145.799 588.075C145.299 587.375 144.999 586.675 144.899 585.875C144.899 585.775 144.899 585.575 144.999 585.275C145.099 584.975 145.399 584.575 145.999 583.975C148.299 581.475 150.499 578.675 152.699 575.675C154.899 572.675 156.599 569.675 157.899 566.675C158.099 566.275 158.099 565.875 158.099 565.475C157.999 565.075 157.899 564.775 157.799 564.675C157.499 564.475 157.199 564.375 156.799 564.275C156.399 564.275 155.899 564.275 155.399 564.275C154.599 564.275 153.899 564.475 153.099 564.675C152.299 564.875 151.499 565.075 150.699 565.375C149.899 565.675 149.199 565.875 148.599 566.175C147.999 566.475 147.399 566.675 146.899 566.975C146.299 567.275 145.699 567.375 145.299 567.375C144.899 567.275 144.499 567.175 144.199 566.975C143.899 566.775 143.699 566.575 143.499 566.375C143.299 566.175 143.299 565.975 143.299 565.875C143.199 565.575 143.299 565.275 143.399 564.875C143.499 564.475 143.599 564.075 143.699 563.875C144.199 563.275 144.999 562.675 145.999 562.075C147.099 561.475 148.299 560.875 149.599 560.475C150.899 560.075 152.399 559.675 153.999 559.475C155.499 559.275 157.099 559.275 158.599 559.475C159.599 559.775 160.499 560.175 161.099 560.675C161.699 561.375 162.199 561.975 162.499 562.675Z" fill="black" stroke="black" stroke-width="0.75" stroke-miterlimit="10"/>
<path d="M199.101 570.175C199.101 571.375 198.901 572.975 198.501 574.775C198.101 576.575 197.401 578.375 196.501 580.175C195.601 581.975 194.401 583.675 192.901 585.275C191.401 586.875 189.601 588.075 187.401 588.975C186.101 589.575 184.701 589.875 183.401 589.875C182.101 589.875 180.901 589.675 179.901 589.075C178.901 588.575 178.001 587.675 177.301 586.575C176.601 585.475 176.201 584.075 176.001 582.275C175.901 580.175 176.001 578.075 176.601 575.975C177.101 573.875 177.901 571.875 179.101 569.975C180.201 568.175 181.601 566.475 183.101 565.075C184.701 563.675 186.401 562.475 188.401 561.675C188.801 561.475 189.201 561.475 189.701 561.675C190.101 561.875 190.401 562.375 190.501 563.175C193.301 563.475 195.501 564.175 197.001 565.475C198.501 566.775 199.101 568.275 199.101 570.175ZM181.501 582.175C181.601 582.975 181.801 583.475 182.101 583.775C182.401 584.075 182.801 584.275 183.201 584.475C183.601 584.575 184.101 584.475 184.701 584.275C185.201 584.075 185.801 583.875 186.301 583.675C186.801 583.475 187.301 583.175 187.701 582.875C188.101 582.575 188.501 582.275 188.801 582.075C190.301 580.675 191.501 578.975 192.501 576.975C193.501 574.975 194.001 572.775 194.201 570.375C194.201 570.075 194.001 569.775 193.601 569.375C193.201 569.075 192.601 568.775 192.001 568.575C191.301 568.375 190.601 568.275 189.801 568.075C189.001 567.975 188.201 567.975 187.501 567.975C186.701 568.875 185.901 569.875 185.101 570.975C184.301 572.075 183.701 573.175 183.101 574.375C182.501 575.575 182.101 576.875 181.901 578.175C181.401 579.475 181.401 580.775 181.501 582.175Z" fill="black" stroke="black" stroke-width="0.75" stroke-miterlimit="10"/>
<path d="M222.8 563.075C223.5 565.375 223.4 567.475 222.7 569.475C222.3 570.575 221.7 571.775 221 572.975C220.3 574.275 219.5 575.575 218.6 576.875C217.7 578.175 216.8 579.475 215.9 580.675C215 581.875 214.1 582.975 213.4 583.875C214.4 583.775 215.6 583.675 217 583.475C218.4 583.275 219.9 583.075 221.4 582.875C222.9 582.675 224.4 582.475 225.9 582.275C227.4 582.075 228.7 581.975 229.9 581.875C230.5 581.875 231.2 581.875 232 582.075C232.8 582.275 233.3 582.375 233.6 582.475C233.9 582.675 234 582.875 234 583.275C233.9 583.675 233.7 584.075 233.5 584.475C233.2 584.875 232.9 585.275 232.6 585.675C232.2 585.975 232 586.175 231.7 586.175C230 586.475 228.1 586.675 226 586.975C223.9 587.275 221.8 587.575 219.7 587.875C217.6 588.175 215.5 588.475 213.5 588.775C211.5 589.075 209.7 589.275 208 589.375C207.2 589.475 206.6 589.175 206.1 588.475C205.6 587.775 205.3 587.075 205.2 586.275C205.2 586.175 205.2 585.975 205.3 585.675C205.4 585.375 205.7 584.975 206.3 584.375C208.6 581.875 210.8 579.075 213 576.075C215.2 573.075 216.9 570.075 218.2 567.075C218.4 566.675 218.4 566.275 218.4 565.775C218.3 565.375 218.2 565.075 218.1 564.975C217.8 564.775 217.5 564.675 217.1 564.575C216.7 564.575 216.2 564.575 215.7 564.575C214.9 564.575 214.2 564.775 213.4 564.975C212.6 565.175 211.8 565.375 211 565.675C210.2 565.975 209.5 566.175 208.9 566.475C208.3 566.775 207.7 566.975 207.2 567.275C206.6 567.575 206 567.675 205.6 567.675C205.2 567.575 204.8 567.475 204.5 567.275C204.2 567.075 204 566.875 203.8 566.675C203.6 566.475 203.6 566.275 203.6 566.175C203.5 565.875 203.6 565.575 203.7 565.175C203.8 564.775 203.9 564.375 204 564.175C204.5 563.575 205.3 562.975 206.3 562.375C207.4 561.775 208.6 561.175 209.9 560.775C211.3 560.375 212.7 559.975 214.3 559.775C215.8 559.575 217.4 559.575 218.9 559.775C219.9 560.075 220.8 560.475 221.4 560.975C222 561.875 222.5 562.475 222.8 563.075Z" fill="black" stroke="black" stroke-width="0.75" stroke-miterlimit="10"/>
<path d="M259.501 570.675C259.501 571.875 259.301 573.475 258.901 575.275C258.501 577.075 257.801 578.875 256.901 580.675C256.001 582.475 254.801 584.175 253.301 585.775C251.801 587.375 250.001 588.575 247.801 589.475C246.501 590.075 245.101 590.375 243.801 590.375C242.501 590.375 241.301 590.175 240.301 589.575C239.301 589.075 238.401 588.175 237.701 587.075C237.001 585.975 236.601 584.475 236.401 582.775C236.301 580.675 236.401 578.575 237.001 576.475C237.501 574.375 238.301 572.375 239.501 570.475C240.601 568.675 242.001 566.975 243.501 565.575C245.101 564.175 246.801 562.975 248.801 562.175C249.201 561.975 249.601 561.975 250.101 562.175C250.501 562.375 250.801 562.875 250.901 563.675C253.701 563.975 255.901 564.675 257.401 565.975C258.701 567.075 259.501 568.675 259.501 570.675ZM241.801 582.575C241.901 583.375 242.101 583.875 242.401 584.175C242.701 584.475 243.101 584.675 243.501 584.875C243.901 584.975 244.401 584.875 245.001 584.675C245.501 584.475 246.101 584.275 246.601 584.075C247.101 583.875 247.601 583.575 248.001 583.275C248.401 582.975 248.801 582.675 249.101 582.475C250.601 581.075 251.801 579.375 252.801 577.375C253.801 575.375 254.301 573.175 254.501 570.775C254.501 570.475 254.301 570.175 253.901 569.775C253.501 569.375 252.901 569.175 252.301 568.975C251.601 568.775 250.901 568.675 250.101 568.475C249.301 568.375 248.501 568.375 247.801 568.375C247.001 569.275 246.201 570.275 245.401 571.375C244.601 572.475 244.001 573.575 243.401 574.775C242.901 575.975 242.401 577.275 242.201 578.575C241.801 579.875 241.701 581.275 241.801 582.575Z" fill="black" stroke="black" stroke-width="0.75" stroke-miterlimit="10"/>
<path d="M267.377 491.999C275.829 488.299 274.264 473.399 262.681 472.799C189.116 469.299 115.551 465.799 41.8812 467.399C32.3855 467.599 29.5681 477.699 33.5333 483.499C20.3855 485.299 6.08986 488.799 0.976821 500.099C-1.73623 506.199 1.18551 515.999 9.95073 515.099C93.742 507.199 178.159 505.599 262.264 510.399C273.742 511.199 275.412 496.699 267.377 491.999Z" fill="#59C69F"/>
<path d="M56.2442 509.574C55.6181 509.574 54.992 509.074 54.3659 508.174C53.7398 507.274 53.4268 506.374 53.3224 505.474C52.905 502.374 52.3833 498.674 51.7572 494.574C51.1311 490.374 50.2964 485.474 49.3572 479.774C47.6877 482.874 46.0181 485.874 44.3485 488.874C42.679 491.874 41.0094 494.874 39.4442 497.874C38.4007 499.774 37.3572 500.674 36.3137 500.674C34.7485 500.674 33.4964 499.874 32.6616 498.274C30.679 495.474 28.6964 492.974 26.6094 490.574C24.5224 488.174 22.3311 485.774 20.1398 483.374C20.0355 486.974 20.0355 490.474 20.1398 493.974C20.3485 497.474 20.6616 500.774 21.079 504.074C21.1833 504.674 21.079 505.174 20.8703 505.674C20.6616 506.174 20.3485 506.374 20.0355 506.474C19.2007 506.774 18.4703 506.574 17.6355 505.974C16.8007 505.374 16.3833 504.774 16.1746 504.074C15.6529 502.174 15.3398 499.974 15.1311 497.574C14.9224 495.174 14.8181 492.774 14.7137 490.374C14.6094 487.974 14.6094 485.574 14.6094 483.174C14.6094 480.774 14.7137 478.674 14.7137 476.673C14.7137 474.473 15.4442 473.473 16.9051 473.473C17.8442 473.473 18.5746 473.773 19.2007 474.373C19.8268 474.973 20.1398 475.873 20.1398 476.973C22.9572 479.674 25.5659 482.474 28.0703 485.274C30.5746 488.074 32.9746 490.974 35.2703 493.874C37.2529 490.474 39.2355 487.074 41.3224 483.474C43.4094 479.874 45.7051 476.474 48.2094 473.074C48.3137 472.474 48.6268 471.874 49.1485 471.274C49.6703 470.674 50.192 470.274 50.8181 470.074C51.4442 469.874 52.0703 470.074 52.6964 470.774C53.3224 471.474 53.8442 472.273 54.0529 473.173C54.992 478.574 55.7224 484.074 56.4529 489.474C57.079 494.874 57.8094 500.374 58.4355 505.774C58.5398 506.774 58.3311 507.674 57.8094 508.274C57.4964 509.274 56.8703 509.574 56.2442 509.574Z" fill="black" stroke="black" stroke-width="0.75" stroke-miterlimit="10"/>
<path d="M86.7124 476.973C86.9211 478.473 87.1298 480.073 87.2341 481.773C87.3385 483.473 87.4428 485.173 87.5472 486.873C87.6515 488.573 87.6515 490.273 87.6515 491.873C87.6515 493.473 87.5472 494.973 87.5472 496.273C89.3211 497.473 90.3646 498.573 90.782 499.473C91.095 500.373 91.1994 501.173 90.8863 501.873C90.5733 502.873 89.9472 503.373 89.1124 503.373C88.2776 503.373 87.2341 503.073 86.0863 502.473C85.2515 502.973 84.4168 503.573 83.3733 504.173C82.3298 504.773 81.2863 505.373 80.1385 505.973C78.9907 506.573 77.8428 506.973 76.7994 507.473C75.6515 507.873 74.6081 508.173 73.6689 508.373C71.895 508.673 70.2254 508.273 68.8689 507.373C67.4081 506.473 66.4689 505.073 65.9472 503.273C65.6341 502.073 65.5298 500.773 65.7385 499.473C65.9472 498.173 66.3646 496.873 66.9907 495.673C67.7211 494.473 68.5559 493.373 69.7037 492.473C70.8515 491.473 72.2081 490.773 73.7733 490.273C74.1907 490.073 74.7124 489.973 75.4428 489.873C76.1733 489.773 76.9037 489.773 77.6341 489.773C78.3646 489.773 79.1994 489.973 79.9298 490.273C80.7646 490.573 81.3907 490.973 82.1211 491.673C82.1211 490.773 82.1211 489.773 82.1211 488.673C82.1211 487.573 82.0168 486.473 82.0168 485.373C82.0168 484.273 81.9124 483.173 81.8081 482.173C81.7037 481.173 81.5994 480.373 81.495 479.673C81.3907 478.873 81.0776 478.373 80.5559 478.173C80.0341 477.973 79.4081 477.973 78.5733 478.273C77.2168 478.673 75.6515 479.473 73.8776 480.773C72.1037 481.973 70.3298 483.273 68.6602 484.673C68.1385 485.173 67.6168 485.373 66.8863 485.273C66.2602 485.173 65.7385 484.973 65.2168 484.573C64.7994 484.173 64.4863 483.673 64.4863 483.073C64.4863 482.473 64.695 481.873 65.2168 481.273C66.1559 480.273 67.3037 479.373 68.4515 478.273C69.5994 477.273 70.8515 476.373 72.2081 475.473C73.4602 474.673 74.8168 473.973 76.1733 473.473C77.5298 472.973 78.8863 472.673 80.2428 472.573C82.2254 472.573 83.6863 472.973 84.7298 473.873C85.8776 474.473 86.5037 475.573 86.7124 476.973ZM76.7994 494.273C76.0689 494.473 75.3385 494.773 74.5037 495.273C73.6689 495.773 72.9385 496.373 72.3124 497.073C71.6863 497.773 71.1646 498.573 70.8515 499.473C70.5385 500.373 70.5385 501.273 70.7472 502.073C70.8515 502.373 71.0602 502.673 71.4776 502.773C71.7907 502.973 72.2081 502.973 72.7298 502.873C74.0863 502.573 75.6515 502.073 77.3211 501.373C78.9907 500.573 80.4515 499.773 81.3907 498.873C81.3907 498.573 81.182 498.173 80.8689 497.573C80.5559 497.073 80.1385 496.573 79.7211 496.073C79.3037 495.573 78.782 495.073 78.2602 494.773C77.7385 494.373 77.2167 494.173 76.7994 494.273Z" fill="black" stroke="black" stroke-width="0.75" stroke-miterlimit="10"/>
<path d="M121.879 481.673C121.983 484.573 122.192 487.473 122.401 490.473C122.609 493.473 122.609 496.373 122.505 499.273C122.401 502.173 122.088 504.973 121.566 507.673C121.044 510.373 120.209 513.073 119.061 515.473C117.914 517.973 116.348 520.273 114.47 522.373C112.592 524.473 110.192 526.473 107.27 528.173C106.853 528.473 106.331 528.573 105.809 528.673C105.288 528.673 104.766 528.673 104.244 528.573C103.722 528.473 103.305 528.373 102.888 528.173C102.47 527.973 102.261 527.773 102.157 527.373C101.948 526.873 102.053 526.373 102.47 525.773C102.783 525.173 103.409 524.573 104.14 523.973C106.644 522.173 108.731 520.373 110.401 518.373C112.07 516.373 113.427 514.273 114.47 511.973C115.514 509.673 116.14 507.173 116.557 504.473C116.87 501.773 116.87 498.773 116.557 495.573C115.827 496.373 115.096 497.173 114.157 498.073C113.218 498.973 112.279 499.673 111.235 500.373C110.192 501.073 109.148 501.573 108.105 502.073C107.061 502.473 106.018 502.773 105.079 502.773C104.244 502.773 103.514 502.573 102.679 502.273C101.844 501.973 101.114 501.273 100.383 500.373C99.4435 499.273 98.7131 497.973 97.9827 496.573C97.2522 495.173 96.7305 493.773 96.2088 492.373C95.687 491.073 95.2696 489.773 95.0609 488.773C94.7479 487.673 94.5392 486.973 94.5392 486.473C94.4348 485.973 94.4348 485.473 94.5392 484.973C94.6435 484.473 95.0609 484.173 95.687 484.073C96.5218 483.873 97.3566 483.973 98.087 484.273C98.8174 484.573 99.3392 484.973 99.5479 485.573C99.7566 486.173 100.07 487.073 100.488 488.373C100.905 489.573 101.322 490.873 101.844 492.073C102.366 493.273 102.992 494.373 103.618 495.273C104.244 496.173 104.974 496.673 105.705 496.673C106.54 496.673 107.583 496.273 108.731 495.473C109.879 494.673 111.027 493.673 112.07 492.373C113.114 491.073 114.053 489.673 114.888 488.073C115.618 486.473 116.035 484.973 116.035 483.473C116.035 483.173 116.14 482.773 116.244 482.373C116.348 481.973 116.557 481.573 116.766 481.173C116.974 480.773 117.288 480.473 117.601 480.173C117.914 479.873 118.227 479.673 118.54 479.673C119.479 479.573 120.209 479.773 120.94 480.373C121.67 480.973 121.879 481.073 121.879 481.673Z" fill="black" stroke="black" stroke-width="0.75" stroke-miterlimit="10"/>
<path d="M171.965 476.473C172.696 478.773 172.591 480.873 171.861 482.873C171.443 483.973 170.817 485.173 170.087 486.373C169.357 487.673 168.522 488.973 167.583 490.273C166.643 491.573 165.704 492.873 164.765 494.073C163.826 495.273 162.887 496.373 162.157 497.273C163.2 497.173 164.452 497.073 165.913 496.873C167.374 496.673 168.939 496.473 170.504 496.273C172.07 496.073 173.635 495.873 175.2 495.673C176.765 495.473 178.122 495.373 179.374 495.273C180 495.273 180.73 495.273 181.565 495.473C182.4 495.673 182.922 495.773 183.235 495.873C183.548 496.073 183.652 496.273 183.652 496.673C183.548 497.073 183.339 497.473 183.13 497.873C182.817 498.273 182.504 498.673 182.191 499.073C181.774 499.373 181.565 499.573 181.252 499.573C179.478 499.873 177.496 500.073 175.304 500.373C173.113 500.673 170.922 500.973 168.73 501.273C166.539 501.573 164.348 501.873 162.261 502.173C160.174 502.473 158.296 502.673 156.522 502.773C155.687 502.873 155.061 502.573 154.539 501.873C154.017 501.173 153.704 500.473 153.6 499.673C153.6 499.573 153.6 499.373 153.704 499.073C153.809 498.773 154.122 498.373 154.748 497.773C157.148 495.273 159.443 492.473 161.739 489.473C164.035 486.473 165.809 483.473 167.165 480.473C167.374 480.073 167.374 479.673 167.374 479.173C167.27 478.773 167.165 478.473 167.061 478.373C166.748 478.173 166.435 478.073 166.017 477.973C165.6 477.973 165.078 477.973 164.557 477.973C163.722 477.973 162.991 478.173 162.157 478.373C161.322 478.573 160.487 478.773 159.652 479.073C158.817 479.373 158.087 479.573 157.461 479.873C156.835 480.173 156.209 480.373 155.687 480.673C155.061 480.973 154.435 481.073 154.017 481.073C153.6 480.973 153.183 480.873 152.87 480.673C152.557 480.473 152.348 480.273 152.139 480.073C151.93 479.873 151.93 479.673 151.93 479.573C151.826 479.273 151.93 478.973 152.035 478.573C152.139 478.173 152.243 477.773 152.348 477.573C152.87 476.973 153.704 476.373 154.748 475.773C155.896 475.173 157.148 474.573 158.504 474.173C159.965 473.773 161.426 473.373 163.096 473.173C164.661 472.973 166.33 472.973 167.896 473.173C168.939 473.473 169.878 473.873 170.504 474.373C171.13 475.273 171.652 475.773 171.965 476.473Z" fill="black" stroke="black" stroke-width="0.75" stroke-miterlimit="10"/>
<path d="M210.261 483.973C210.261 485.173 210.052 486.773 209.635 488.573C209.217 490.373 208.487 492.173 207.548 493.973C206.609 495.773 205.356 497.473 203.791 499.073C202.226 500.673 200.348 501.873 198.052 502.773C196.695 503.373 195.235 503.673 193.878 503.673C192.522 503.673 191.269 503.473 190.226 502.873C189.182 502.373 188.243 501.473 187.513 500.373C186.782 499.273 186.365 497.773 186.156 496.073C186.052 493.973 186.156 491.873 186.782 489.773C187.304 487.673 188.139 485.673 189.391 483.773C190.539 481.973 192 480.273 193.565 478.873C195.235 477.473 197.009 476.273 199.095 475.473C199.513 475.273 199.93 475.273 200.452 475.473C200.869 475.673 201.182 476.173 201.287 476.973C204.209 477.273 206.504 477.973 208.069 479.273C209.426 480.473 210.261 482.073 210.261 483.973ZM191.791 495.973C191.895 496.773 192.104 497.273 192.417 497.573C192.73 497.873 193.148 498.073 193.565 498.273C193.982 498.373 194.504 498.273 195.13 498.073C195.652 497.873 196.278 497.673 196.8 497.473C197.322 497.273 197.843 496.973 198.261 496.673C198.678 496.373 199.095 496.073 199.409 495.873C200.974 494.473 202.226 492.773 203.269 490.773C204.209 488.773 204.835 486.573 205.043 484.173C205.043 483.873 204.835 483.573 204.417 483.173C204 482.873 203.374 482.573 202.748 482.373C202.017 482.173 201.287 482.073 200.452 481.873C199.617 481.773 198.782 481.773 198.052 481.773C197.217 482.673 196.382 483.673 195.548 484.773C194.713 485.873 194.087 486.973 193.461 488.173C192.939 489.373 192.417 490.673 192.209 491.973C192 493.273 191.687 494.673 191.791 495.973Z" fill="black" stroke="black" stroke-width="0.75" stroke-miterlimit="10"/>
<path d="M234.992 476.973C235.722 479.273 235.618 481.373 234.888 483.373C234.47 484.473 233.844 485.673 233.114 486.873C232.383 488.173 231.549 489.473 230.609 490.773C229.67 492.073 228.731 493.373 227.792 494.573C226.853 495.773 225.914 496.873 225.183 497.773C226.227 497.673 227.479 497.573 228.94 497.373C230.401 497.173 231.966 496.973 233.531 496.773C235.096 496.573 236.662 496.373 238.227 496.173C239.792 495.973 241.149 495.873 242.401 495.773C243.027 495.773 243.757 495.773 244.592 495.973C245.427 496.173 245.949 496.273 246.262 496.373C246.575 496.573 246.679 496.773 246.679 497.173C246.575 497.573 246.366 497.973 246.157 498.373C245.844 498.773 245.531 499.173 245.218 499.573C244.801 499.873 244.592 500.073 244.279 500.073C242.505 500.373 240.522 500.573 238.331 500.873C236.14 501.173 233.949 501.473 231.757 501.773C229.566 502.073 227.375 502.373 225.288 502.673C223.201 502.973 221.322 503.173 219.549 503.273C218.714 503.373 218.088 503.073 217.566 502.373C217.044 501.673 216.731 500.973 216.627 500.173C216.627 500.073 216.627 499.873 216.731 499.573C216.836 499.273 217.149 498.873 217.775 498.273C220.175 495.773 222.47 492.973 224.766 489.973C227.062 486.973 228.836 483.973 230.192 480.973C230.401 480.573 230.401 480.173 230.401 479.673C230.296 479.273 230.192 478.973 230.088 478.873C229.775 478.673 229.462 478.573 229.044 478.473C228.627 478.473 228.105 478.473 227.583 478.473C226.749 478.473 226.018 478.673 225.183 478.873C224.349 479.073 223.514 479.273 222.679 479.573C221.844 479.873 221.114 480.073 220.488 480.373C219.862 480.673 219.236 480.873 218.714 481.173C218.088 481.473 217.462 481.573 217.044 481.573C216.627 481.473 216.209 481.373 215.896 481.173C215.583 480.973 215.375 480.773 215.166 480.573C214.957 480.373 214.957 480.173 214.957 480.073C214.853 479.773 214.957 479.473 215.062 479.073C215.166 478.673 215.27 478.273 215.375 478.073C215.896 477.473 216.731 476.873 217.775 476.273C218.922 475.673 220.175 475.073 221.531 474.673C222.888 474.273 224.453 473.873 226.122 473.673C227.688 473.473 229.357 473.473 230.923 473.673C231.966 473.973 232.905 474.373 233.531 474.873C234.053 475.673 234.575 476.273 234.992 476.973Z" fill="black" stroke="black" stroke-width="0.75" stroke-miterlimit="10"/>
<path d="M273.183 484.473C273.183 485.673 272.974 487.273 272.556 489.073C272.139 490.873 271.409 492.673 270.47 494.473C269.53 496.273 268.278 497.973 266.713 499.573C265.148 501.173 263.27 502.373 260.974 503.273C259.617 503.873 258.156 504.173 256.8 504.173C255.443 504.173 254.191 503.973 253.148 503.373C252.104 502.873 251.165 501.973 250.435 500.873C249.704 499.773 249.287 498.273 249.078 496.573C248.974 494.473 249.078 492.373 249.704 490.273C250.226 488.173 251.061 486.173 252.313 484.273C253.461 482.473 254.922 480.773 256.487 479.373C258.156 477.973 259.93 476.773 262.017 475.973C262.435 475.773 262.852 475.773 263.374 475.973C263.791 476.173 264.104 476.673 264.209 477.473C267.13 477.773 269.426 478.473 270.991 479.773C272.452 480.973 273.183 482.473 273.183 484.473ZM254.713 496.473C254.817 497.273 255.026 497.773 255.339 498.073C255.652 498.373 256.07 498.573 256.487 498.773C256.904 498.873 257.426 498.773 258.052 498.673C258.574 498.473 259.2 498.273 259.722 498.073C260.243 497.873 260.765 497.573 261.183 497.273C261.6 496.973 262.017 496.673 262.33 496.473C263.896 495.073 265.148 493.373 266.191 491.373C267.235 489.373 267.756 487.173 267.965 484.773C267.965 484.473 267.756 484.173 267.339 483.773C266.922 483.373 266.296 483.173 265.67 482.973C264.939 482.773 264.209 482.673 263.374 482.473C262.539 482.373 261.704 482.373 260.974 482.373C260.139 483.273 259.304 484.273 258.47 485.373C257.635 486.473 257.009 487.573 256.383 488.773C255.861 489.973 255.339 491.273 255.13 492.573C254.713 493.773 254.609 495.073 254.713 496.473Z" fill="black" stroke="black" stroke-width="0.75" stroke-miterlimit="10"/>
<path d="M124.391 426.872C125.691 425.772 126.691 424.172 127.191 422.272C128.091 418.872 126.891 414.572 124.191 411.972C123.491 410.972 122.491 410.172 121.291 409.672C106.291 402.772 90.6905 405.272 74.7905 406.272C57.8905 407.372 40.8905 407.472 23.8905 406.772C15.8905 406.472 12.8905 413.972 14.7905 419.872C14.4905 419.972 14.1905 420.072 13.7905 420.172C11.7905 420.872 9.99054 422.072 8.79054 423.672C6.69054 423.872 4.59054 424.772 2.89054 426.472C-0.709466 430.072 -1.20946 437.072 2.89054 440.572C10.3905 447.072 21.4905 444.972 30.6905 444.972C40.9905 444.972 51.1905 444.972 61.4905 445.172C81.6905 445.372 101.891 445.772 122.091 446.472C134.091 446.972 134.891 429.472 124.391 426.872Z" fill="#59C69F"/>
<path d="M25.2414 414.2C25.9414 416.5 25.8414 418.6 25.1414 420.6C24.7414 421.7 24.1414 422.9 23.4414 424.1C22.7414 425.3 21.9414 426.7 21.0414 428C20.1414 429.3 19.2414 430.6 18.3414 431.8C17.4414 433 16.5414 434.1 15.8414 435C16.8414 434.9 18.0414 434.8 19.4414 434.6C20.8414 434.4 22.3414 434.2 23.8414 434C25.3414 433.8 26.8414 433.6 28.3414 433.4C29.8414 433.2 31.1414 433.1 32.3414 433C32.9414 433 33.6414 433 34.4414 433.2C35.2414 433.4 35.7414 433.5 36.0414 433.6C36.3414 433.8 36.4414 434 36.4414 434.4C36.3414 434.8 36.1414 435.2 35.9414 435.6C35.6414 436 35.3414 436.4 35.0414 436.8C34.6414 437.1 34.4414 437.3 34.1414 437.3C32.4414 437.6 30.5414 437.8 28.4414 438.1C26.3414 438.4 24.2414 438.7 22.1414 439C20.0414 439.3 17.9414 439.6 15.9414 439.9C13.9414 440.2 12.1414 440.4 10.4414 440.5C9.64142 440.6 9.04142 440.3 8.54142 439.6C8.04142 438.9 7.74142 438.2 7.64142 437.4C7.64142 437.3 7.64142 437.1 7.74142 436.8C7.84142 436.5 8.14142 436.1 8.74142 435.5C11.0414 433 13.2414 430.2 15.4414 427.2C17.6414 424.2 19.3414 421.2 20.6414 418.2C20.8414 417.8 20.8414 417.4 20.8414 416.9C20.7414 416.5 20.6414 416.2 20.5414 416.1C20.2414 415.9 19.9414 415.8 19.5414 415.7C19.1414 415.7 18.6414 415.7 18.1414 415.7C17.3414 415.7 16.6414 415.9 15.8414 416.1C15.0414 416.3 14.2414 416.5 13.4414 416.8C12.6414 417.1 11.9414 417.3 11.3414 417.6C10.7414 417.9 10.1414 418.1 9.64142 418.4C9.04142 418.7 8.44142 418.8 8.04142 418.8C7.64142 418.7 7.24142 418.6 6.94142 418.4C6.64142 418.2 6.44142 418 6.24142 417.8C6.04142 417.6 6.04142 417.4 6.04142 417.3C5.94142 417 6.04142 416.7 6.14142 416.3C6.24142 415.9 6.34142 415.5 6.44142 415.3C6.94142 414.7 7.74142 414.1 8.74142 413.5C9.84142 412.9 11.0414 412.3 12.3414 411.9C13.7414 411.5 15.1414 411.1 16.7414 410.9C18.2414 410.7 19.8414 410.7 21.3414 410.9C22.3414 411.2 23.2414 411.6 23.8414 412.1C24.4414 413 24.9414 413.6 25.2414 414.2Z" fill="black" stroke="black" stroke-width="0.75" stroke-miterlimit="10"/>
<path d="M61.8408 421.8C61.8408 423 61.6408 424.6 61.2408 426.4C60.8408 428.2 60.1408 430 59.2408 431.8C58.3408 433.6 57.1408 435.3 55.6408 436.9C54.1408 438.5 52.3408 439.7 50.1408 440.6C48.8408 441.2 47.4408 441.5 46.1408 441.5C44.8408 441.5 43.6408 441.3 42.6408 440.7C41.6408 440.2 40.7408 439.3 40.0408 438.2C39.3408 437.1 38.9408 435.6 38.7408 433.9C38.6408 431.8 38.7408 429.7 39.3408 427.6C39.8408 425.5 40.6408 423.5 41.8408 421.6C42.9408 419.8 44.3408 418.1 45.8408 416.7C47.4408 415.3 49.1408 414.1 51.1408 413.3C51.5408 413.1 51.9408 413.1 52.4408 413.3C52.8408 413.5 53.1408 414 53.2408 414.8C56.0408 415.1 58.2408 415.8 59.7408 417.1C61.1408 418.2 61.9408 419.8 61.8408 421.8ZM44.2408 433.7C44.3408 434.5 44.5408 435 44.8408 435.3C45.1408 435.6 45.5408 435.8 45.9408 436C46.3408 436.1 46.8408 436 47.4408 435.8C47.9408 435.6 48.5408 435.4 49.0408 435.2C49.5408 435 50.0408 434.7 50.4408 434.4C50.8408 434.1 51.2408 433.8 51.5408 433.6C53.0408 432.2 54.2408 430.5 55.2408 428.5C56.2408 426.5 56.7408 424.3 56.9408 421.9C56.9408 421.6 56.7408 421.3 56.3408 420.9C55.9408 420.5 55.3408 420.3 54.7408 420.1C54.0408 419.9 53.3408 419.8 52.5408 419.6C51.7408 419.5 50.9408 419.5 50.2408 419.5C49.4408 420.4 48.6408 421.4 47.8408 422.5C47.0408 423.6 46.4408 424.7 45.8408 425.9C45.3408 427.1 44.8408 428.4 44.6408 429.7C44.2408 431 44.1408 432.4 44.2408 433.7Z" fill="black" stroke="black" stroke-width="0.75" stroke-miterlimit="10"/>
<path d="M85.5402 414.7C86.2402 417 86.1402 419.1 85.4402 421.1C85.0402 422.2 84.4404 423.4 83.7404 424.6C83.0404 425.9 82.2402 427.2 81.3403 428.5C80.4403 429.8 79.5402 431.1 78.6402 432.3C77.7402 433.5 76.8402 434.6 76.1402 435.5C77.1402 435.4 78.3404 435.3 79.7404 435.1C81.1404 434.9 82.6402 434.7 84.1402 434.5C85.6402 434.3 87.1402 434.1 88.6402 433.9C90.1402 433.7 91.4402 433.6 92.6402 433.5C93.2402 433.5 93.9404 433.5 94.7404 433.7C95.5404 433.9 96.0403 434 96.3403 434.1C96.6403 434.3 96.7404 434.5 96.7404 434.9C96.6404 435.3 96.4404 435.7 96.2404 436.1C95.9404 436.5 95.6403 436.9 95.3403 437.3C94.9403 437.6 94.7402 437.8 94.4402 437.8C92.7402 438.1 90.8404 438.3 88.7404 438.6C86.6404 438.9 84.5402 439.2 82.4402 439.5C80.3402 439.8 78.2404 440.1 76.2404 440.4C74.2404 440.7 72.4404 440.9 70.7404 441C69.9404 441.1 69.3402 440.8 68.8402 440.1C68.3402 439.4 68.0402 438.7 67.9402 437.9C67.9402 437.8 67.9402 437.6 68.0402 437.3C68.1402 437 68.4402 436.6 69.0402 436C71.3402 433.5 73.5404 430.7 75.7404 427.7C77.9404 424.7 79.6402 421.7 80.9402 418.7C81.1402 418.3 81.1402 417.9 81.1402 417.4C81.0402 417 80.9403 416.7 80.8403 416.6C80.5403 416.4 80.2403 416.3 79.8403 416.2C79.4403 416.2 78.9402 416.2 78.4402 416.2C77.6402 416.2 76.9402 416.4 76.1402 416.6C75.3402 416.8 74.5404 417 73.7404 417.3C72.9404 417.6 72.2402 417.8 71.6402 418.1C71.0402 418.4 70.4402 418.6 69.9402 418.9C69.3402 419.2 68.7402 419.3 68.3402 419.3C67.9402 419.2 67.5404 419.1 67.2404 418.9C66.9404 418.7 66.7402 418.5 66.5402 418.3C66.3402 418.1 66.3402 417.9 66.3402 417.8C66.2402 417.5 66.3402 417.2 66.4402 416.8C66.5402 416.4 66.6404 416 66.7404 415.8C67.2404 415.2 68.0402 414.6 69.0402 414C70.1402 413.4 71.3402 412.8 72.6402 412.4C74.0402 412 75.4402 411.6 77.0402 411.4C78.5402 411.2 80.1402 411.2 81.6402 411.4C82.6402 411.7 83.5402 412.1 84.1402 412.6C84.7402 413.4 85.2402 414 85.5402 414.7Z" fill="black" stroke="black" stroke-width="0.75" stroke-miterlimit="10"/>
<path d="M122.241 422.2C122.241 423.4 122.041 425 121.641 426.8C121.241 428.6 120.541 430.4 119.641 432.2C118.741 434 117.541 435.7 116.041 437.3C114.541 438.9 112.741 440.1 110.541 441C109.241 441.6 107.841 441.9 106.541 441.9C105.241 441.9 104.041 441.7 103.041 441.1C102.041 440.6 101.141 439.7 100.441 438.6C99.7412 437.5 99.3412 436.1 99.1412 434.3C99.0412 432.2 99.1412 430.1 99.7412 428C100.241 425.9 101.041 423.9 102.241 422C103.341 420.2 104.741 418.5 106.241 417.1C107.841 415.7 109.541 414.5 111.541 413.7C111.941 413.5 112.341 413.5 112.841 413.7C113.241 413.9 113.541 414.4 113.641 415.2C116.441 415.5 118.641 416.2 120.141 417.5C121.441 418.7 122.241 420.3 122.241 422.2ZM104.541 434.2C104.641 435 104.841 435.5 105.141 435.8C105.441 436.1 105.841 436.3 106.241 436.5C106.641 436.6 107.141 436.5 107.741 436.3C108.241 436.1 108.841 435.9 109.341 435.7C109.841 435.5 110.341 435.2 110.741 434.9C111.141 434.6 111.541 434.3 111.841 434.1C113.341 432.7 114.541 431 115.541 429C116.441 427 117.041 424.8 117.241 422.4C117.241 422.1 117.041 421.8 116.641 421.4C116.241 421.1 115.641 420.8 115.041 420.6C114.341 420.4 113.641 420.3 112.841 420.1C112.041 420 111.241 420 110.541 420C109.741 420.9 108.941 421.9 108.141 423C107.341 424.1 106.741 425.2 106.141 426.4C105.641 427.6 105.141 428.9 104.941 430.2C104.741 431.5 104.441 432.8 104.541 434.2Z" fill="black" stroke="black" stroke-width="0.75" stroke-miterlimit="10"/>
<path d="M116.217 337.895C107.517 333.995 98.5168 335.095 89.2168 335.295C79.9168 335.495 70.6168 335.695 61.3168 335.995C43.0168 336.495 24.4168 337.595 6.91683 343.395C-2.98317 346.695 -1.38317 360.095 6.21683 362.795C0.816822 368.695 3.11683 380.195 13.0168 379.695C42.5168 378.295 72.0168 378.095 101.517 379.195C113.617 379.695 114.317 361.995 103.717 359.495C107.117 358.495 110.517 357.395 113.917 356.195C121.017 353.595 124.717 341.795 116.217 337.895Z" fill="#59C69F"/>
<path d="M20.2414 345.55C20.9414 347.85 20.8414 349.95 20.1414 351.95C19.7414 353.05 19.1414 354.25 18.4414 355.45C17.7414 356.65 16.9414 358.05 16.0414 359.35C15.1414 360.65 14.2414 361.95 13.3414 363.15C12.4414 364.35 11.5414 365.45 10.8414 366.35C11.8414 366.25 13.0414 366.15 14.4414 365.95C15.8414 365.75 17.3414 365.55 18.8414 365.35C20.3414 365.15 21.8414 364.95 23.3414 364.75C24.8414 364.55 26.1414 364.45 27.3414 364.35C27.9414 364.35 28.6414 364.35 29.4414 364.55C30.2414 364.75 30.7414 364.85 31.0414 364.95C31.3414 365.15 31.4414 365.35 31.4414 365.75C31.3414 366.15 31.1414 366.55 30.9414 366.95C30.6414 367.35 30.3414 367.75 30.0414 368.15C29.6414 368.45 29.4414 368.65 29.1414 368.65C27.4414 368.95 25.5414 369.15 23.4414 369.45C21.3414 369.75 19.2414 370.05 17.1414 370.35C15.0414 370.65 12.9414 370.95 10.9414 371.25C8.94142 371.55 7.14142 371.75 5.44142 371.85C4.64142 371.95 4.04142 371.65 3.54142 370.95C3.04142 370.25 2.74142 369.55 2.64142 368.75C2.64142 368.65 2.64142 368.45 2.74142 368.15C2.84142 367.85 3.14142 367.45 3.74142 366.85C6.04142 364.35 8.24142 361.55 10.4414 358.55C12.6414 355.55 14.3414 352.55 15.6414 349.55C15.8414 349.15 15.8414 348.75 15.8414 348.25C15.7414 347.85 15.6414 347.55 15.5414 347.45C15.2414 347.25 14.9414 347.15 14.5414 347.05C14.1414 347.05 13.6414 347.05 13.1414 347.05C12.3414 347.05 11.6414 347.25 10.8414 347.45C10.0414 347.65 9.24142 347.85 8.44142 348.15C7.64142 348.45 6.94142 348.65 6.34142 348.95C5.74142 349.25 5.14142 349.45 4.64142 349.75C4.04142 350.05 3.44142 350.15 3.04142 350.15C2.64142 350.05 2.24142 349.95 1.94142 349.75C1.64142 349.55 1.44142 349.35 1.24142 349.15C1.04142 348.95 1.04142 348.75 1.04142 348.65C0.941422 348.35 1.04142 348.05 1.14142 347.65C1.24142 347.25 1.34142 346.85 1.44142 346.65C1.94142 346.05 2.74142 345.45 3.74142 344.85C4.84142 344.25 6.04142 343.65 7.34142 343.25C8.74142 342.85 10.1414 342.45 11.7414 342.25C13.2414 342.05 14.8414 342.05 16.3414 342.25C17.3414 342.55 18.2414 342.95 18.8414 343.45C19.4414 344.35 19.9414 344.95 20.2414 345.55Z" fill="black" stroke="black" stroke-width="0.75" stroke-miterlimit="10"/>
<path d="M56.8408 353.15C56.8408 354.35 56.6408 355.95 56.2408 357.75C55.8408 359.55 55.1408 361.35 54.2408 363.15C53.3408 364.95 52.1408 366.65 50.6408 368.25C49.1408 369.85 47.3408 371.05 45.1408 371.95C43.8408 372.55 42.4408 372.85 41.1408 372.85C39.8408 372.85 38.6408 372.65 37.6408 372.05C36.6408 371.55 35.7408 370.65 35.0408 369.55C34.3408 368.45 33.9408 366.95 33.7408 365.25C33.6408 363.15 33.7408 361.05 34.3408 358.95C34.8408 356.85 35.6408 354.85 36.8408 352.95C37.9408 351.15 39.3408 349.45 40.8408 348.05C42.4408 346.65 44.1408 345.45 46.1408 344.65C46.5408 344.45 46.9408 344.45 47.4408 344.65C47.8408 344.85 48.1408 345.35 48.2408 346.15C51.0408 346.45 53.2408 347.15 54.7408 348.45C56.1408 349.65 56.9408 351.15 56.8408 353.15ZM39.2408 365.05C39.3408 365.85 39.5408 366.35 39.8408 366.65C40.1408 366.95 40.5408 367.15 40.9408 367.35C41.3408 367.45 41.8408 367.35 42.4408 367.15C42.9408 366.95 43.5408 366.75 44.0408 366.55C44.5408 366.35 45.0408 366.05 45.4408 365.75C45.8408 365.45 46.2408 365.15 46.5408 364.95C48.0408 363.55 49.2408 361.85 50.2408 359.85C51.2408 357.85 51.7408 355.65 51.9408 353.25C51.9408 352.95 51.7408 352.65 51.3408 352.25C50.9408 351.85 50.3408 351.65 49.7408 351.45C49.0408 351.25 48.3408 351.15 47.5408 350.95C46.7408 350.85 45.9408 350.85 45.2408 350.85C44.4408 351.75 43.6408 352.75 42.8408 353.85C42.0408 354.95 41.4408 356.05 40.8408 357.25C40.3408 358.45 39.8408 359.75 39.6408 361.05C39.2408 362.45 39.1408 363.75 39.2408 365.05Z" fill="black" stroke="black" stroke-width="0.75" stroke-miterlimit="10"/>
<path d="M67.9403 376.25C66.9403 375.45 66.2403 374.45 65.8403 373.25C65.4403 372.05 65.2403 371.35 65.2403 370.95C64.5403 362.25 64.9403 353.85 66.4403 345.55C66.7403 344.45 67.0403 343.45 67.3403 342.45C67.6403 341.55 68.0403 341.05 68.3403 341.05C68.7403 341.05 69.1403 341.15 69.5403 341.35C69.9403 341.55 70.3403 341.85 70.6403 342.15C70.9403 342.45 71.2403 342.85 71.4403 343.25C71.6403 343.65 71.7403 343.95 71.7403 344.35C70.6403 349.65 70.0403 354.85 69.8403 360.15C69.7403 365.35 69.8403 370.65 70.0403 375.85C70.0403 376.35 69.8403 376.75 69.3403 376.85C69.0403 376.95 68.8403 376.85 68.5403 376.75C68.3403 376.55 68.1403 376.35 67.9403 376.25Z" fill="black" stroke="black" stroke-width="0.75" stroke-miterlimit="10"/>
<path d="M91.9415 342.65C91.2415 342.75 90.3415 343.05 89.3415 343.65C88.2415 344.25 87.2415 345.05 86.2415 345.95C85.2415 346.95 84.3415 348.05 83.6415 349.35C82.8415 350.65 82.4415 352.05 82.2415 353.55C82.2415 354.55 82.4415 355.25 82.8415 355.45C83.4415 355.75 84.2415 355.65 85.1415 354.95C86.2415 354.25 87.3415 353.35 88.3415 352.25C89.3415 351.15 90.3415 349.95 91.2415 348.85C92.1415 347.75 93.0415 346.65 93.8415 345.55C94.6415 344.45 95.4415 343.65 96.1415 343.15C96.4415 342.95 96.7415 342.85 97.2415 342.95C97.7415 343.05 98.1415 343.25 98.5415 343.65C98.9415 343.95 99.3415 344.35 99.6415 344.85C99.9415 345.35 100.142 345.75 100.142 346.25C100.242 352.35 100.142 358.35 100.042 364.05C99.9415 369.85 99.5415 375.75 98.9415 381.95C98.8415 382.55 98.5415 383.05 98.1415 383.35C97.7415 383.65 97.3415 383.75 96.8415 383.65C95.0415 383.35 94.1415 382.45 94.1415 380.85C94.4415 376.15 94.7415 371.35 94.9415 366.65C95.1415 361.95 95.2415 356.95 95.0415 351.85C94.4415 352.75 93.7415 353.75 92.8415 354.85C91.9415 355.95 91.0415 356.95 90.0415 357.85C89.0415 358.75 87.9415 359.55 86.8415 360.15C85.6415 360.75 84.5415 361.05 83.3415 361.05C81.2415 361.05 79.7415 360.45 78.7415 359.35C77.7415 358.25 77.2415 356.85 77.1415 355.15C77.0415 353.75 77.1415 352.35 77.5415 350.95C77.9415 349.55 78.4415 348.25 79.1415 346.95C79.8415 345.65 80.6415 344.45 81.5415 343.45C82.4415 342.35 83.5415 341.45 84.6415 340.65C86.4415 339.45 88.1415 338.65 89.9415 338.15C91.6415 337.75 93.1415 338.15 94.3415 339.35C94.6415 339.65 94.7415 340.15 94.7415 340.85C94.7415 341.55 94.7415 342.05 94.5415 342.35C94.1415 342.65 93.7415 342.85 93.1415 342.85C92.6415 343.05 92.2415 342.95 91.9415 342.65Z" fill="black" stroke="black" stroke-width="0.75" stroke-miterlimit="10"/>
<path d="M4.9091 310.816C13.6091 314.716 22.6091 313.616 31.9091 313.416C41.2091 313.216 50.5091 313.016 59.8091 312.716C78.1091 312.216 96.7091 311.116 114.209 305.316C124.109 302.016 122.509 288.616 114.909 285.916C120.309 280.016 118.009 268.516 108.109 269.016C78.6091 270.416 49.1091 270.616 19.6091 269.516C7.5091 269.016 6.8091 286.716 17.4091 289.216C14.0091 290.216 10.6091 291.316 7.2091 292.516C0.109095 295.116 -3.5909 307.016 4.9091 310.816Z" fill="#59C69F"/>
<path d="M24.2414 279.264C24.9414 281.564 24.8414 283.664 24.1414 285.664C23.7414 286.764 23.1414 287.964 22.4414 289.164C21.7414 290.364 20.9414 291.764 20.0414 293.064C19.1414 294.364 18.2414 295.664 17.3414 296.864C16.4414 298.064 15.5414 299.164 14.8414 300.064C15.8414 299.964 17.0414 299.864 18.4414 299.664C19.8414 299.464 21.3414 299.264 22.8414 299.064C24.3414 298.864 25.8414 298.664 27.3414 298.464C28.8414 298.264 30.1414 298.164 31.3414 298.064C31.9414 298.064 32.6414 298.064 33.4414 298.264C34.2414 298.464 34.7414 298.564 35.0414 298.664C35.3414 298.864 35.4414 299.064 35.4414 299.464C35.3414 299.864 35.1414 300.264 34.9414 300.664C34.6414 301.064 34.3414 301.464 34.0414 301.864C33.6414 302.164 33.4414 302.364 33.1414 302.364C31.4414 302.664 29.5414 302.864 27.4414 303.164C25.3414 303.464 23.2414 303.764 21.1414 304.064C19.0414 304.364 16.9414 304.664 14.9414 304.964C12.9414 305.264 11.1414 305.464 9.44142 305.564C8.64142 305.664 8.04142 305.364 7.54142 304.664C7.04142 303.964 6.74142 303.264 6.64142 302.464C6.64142 302.364 6.64142 302.164 6.74142 301.864C6.84142 301.564 7.14142 301.164 7.74142 300.564C10.0414 298.064 12.2414 295.264 14.4414 292.264C16.6414 289.264 18.3414 286.264 19.6414 283.264C19.8414 282.864 19.8414 282.464 19.8414 281.964C19.7414 281.564 19.6414 281.264 19.5414 281.164C19.2414 280.964 18.9414 280.864 18.5414 280.764C18.1414 280.764 17.6414 280.764 17.1414 280.764C16.3414 280.764 15.6414 280.964 14.8414 281.164C14.0414 281.364 13.2414 281.564 12.4414 281.864C11.6414 282.164 10.9414 282.364 10.3414 282.664C9.74142 282.964 9.14142 283.164 8.64142 283.464C8.04142 283.764 7.44142 283.864 7.04142 283.864C6.64142 283.764 6.24142 283.664 5.94142 283.464C5.64142 283.264 5.44142 283.064 5.24142 282.864C5.04142 282.664 5.04142 282.464 5.04142 282.364C4.94142 282.064 5.04142 281.764 5.14142 281.364C5.24142 280.964 5.34142 280.564 5.44142 280.364C5.94142 279.764 6.74142 279.164 7.74142 278.564C8.84142 277.964 10.0414 277.364 11.3414 276.964C12.7414 276.564 14.1414 276.164 15.7414 275.964C17.2414 275.764 18.8414 275.764 20.3414 275.964C21.3414 276.264 22.2414 276.664 22.8414 277.164C23.4414 277.964 23.9414 278.564 24.2414 279.264Z" fill="black" stroke="black" stroke-width="0.75" stroke-miterlimit="10"/>
<path d="M60.8408 286.764C60.8408 287.964 60.6408 289.564 60.2408 291.364C59.8408 293.164 59.1408 294.964 58.2408 296.764C57.3408 298.564 56.1408 300.264 54.6408 301.864C53.1408 303.464 51.3408 304.664 49.1408 305.564C47.8408 306.164 46.4408 306.464 45.1408 306.464C43.8408 306.464 42.6408 306.264 41.6408 305.664C40.6408 305.164 39.7408 304.264 39.0408 303.164C38.3408 302.064 37.9408 300.564 37.7408 298.864C37.6408 296.764 37.7408 294.664 38.3408 292.564C38.8408 290.464 39.6408 288.464 40.8408 286.564C41.9408 284.764 43.3408 283.064 44.8408 281.664C46.4408 280.264 48.1408 279.064 50.1408 278.264C50.5408 278.064 50.9408 278.064 51.4408 278.264C51.8408 278.464 52.1408 278.964 52.2408 279.764C55.0408 280.064 57.2408 280.764 58.7408 282.064C60.1408 283.264 60.9408 284.864 60.8408 286.764ZM43.2408 298.764C43.3408 299.564 43.5408 300.064 43.8408 300.364C44.1408 300.664 44.5408 300.864 44.9408 301.064C45.3408 301.164 45.8408 301.064 46.4408 300.864C46.9408 300.664 47.5408 300.464 48.0408 300.264C48.5408 300.064 49.0408 299.764 49.4408 299.464C49.8408 299.164 50.2408 298.864 50.5408 298.664C52.0408 297.264 53.2408 295.564 54.2408 293.564C55.2408 291.564 55.7408 289.364 55.9408 286.964C55.9408 286.664 55.7408 286.364 55.3408 285.964C54.9408 285.564 54.3408 285.364 53.7408 285.164C53.0408 284.964 52.3408 284.864 51.5408 284.664C50.7408 284.564 49.9408 284.564 49.2408 284.564C48.4408 285.464 47.6408 286.464 46.8408 287.564C46.0408 288.664 45.4408 289.764 44.8408 290.964C44.3408 292.164 43.8408 293.464 43.6408 294.764C43.2408 296.064 43.1408 297.364 43.2408 298.764Z" fill="black" stroke="black" stroke-width="0.75" stroke-miterlimit="10"/>
<path d="M71.9403 309.864C70.9403 309.064 70.2403 308.064 69.8403 306.864C69.4403 305.664 69.2403 304.964 69.2403 304.564C68.5403 295.864 68.9403 287.464 70.4403 279.164C70.7403 278.064 71.0403 277.064 71.3403 276.064C71.6403 275.164 72.0403 274.664 72.3403 274.664C72.7403 274.664 73.1403 274.764 73.5403 274.964C73.9403 275.164 74.3403 275.464 74.6403 275.764C74.9403 276.064 75.2403 276.464 75.4403 276.864C75.6403 277.264 75.7403 277.564 75.7403 277.964C74.6403 283.264 74.0403 288.464 73.8403 293.764C73.7403 298.964 73.8403 304.264 74.0403 309.464C74.0403 309.964 73.8403 310.364 73.3403 310.464C73.0403 310.564 72.8403 310.464 72.5403 310.364C72.3403 310.164 72.1403 309.964 71.9403 309.864Z" fill="black" stroke="black" stroke-width="0.75" stroke-miterlimit="10"/>
<path d="M93.9402 294.964C96.0402 295.564 97.6402 296.564 98.8402 297.864C100.04 299.164 100.64 300.764 100.64 302.664C100.64 304.464 100.04 306.064 98.7402 307.564C97.5402 309.064 96.0402 310.364 94.2402 311.364C93.8402 311.664 93.1402 311.964 92.2402 312.364C91.3402 312.764 90.3402 313.064 89.2402 313.364C88.1402 313.664 87.1402 313.864 86.0402 313.964C84.9402 314.064 84.0402 313.964 83.2402 313.664C82.8402 313.464 82.4402 313.164 82.0402 312.564C81.6402 312.064 81.3402 311.364 81.0402 310.664C80.8402 309.864 80.7402 309.064 80.7402 308.164C80.7402 307.264 81.0402 306.364 81.5402 305.464C82.6402 303.364 83.8402 301.164 85.1402 298.964C86.4402 296.764 87.8402 294.564 89.2402 292.264C88.2402 291.564 87.4402 290.764 86.6402 289.864C85.8402 288.964 85.2402 287.864 84.7402 286.664C84.2402 285.464 84.0402 284.164 83.9402 282.864C83.8402 281.464 84.0402 280.064 84.5402 278.564C85.1402 276.864 86.3402 275.364 88.1402 274.164C89.9402 272.964 92.0402 272.364 94.6402 272.364C95.8402 272.364 97.0402 272.664 98.3402 273.164C99.6402 273.664 100.64 274.364 101.44 275.364C102.24 276.264 102.64 277.464 102.74 278.764C102.84 280.064 102.34 281.664 101.24 283.464C99.9402 285.364 98.6402 287.264 97.4402 289.164C96.1402 291.064 94.9402 292.964 93.7402 294.864L93.9402 294.964ZM86.1402 308.664C86.5402 308.664 87.1402 308.564 88.0402 308.364C88.8402 308.164 89.7402 307.864 90.6402 307.464C91.5402 307.064 92.4402 306.664 93.4402 306.164C94.3402 305.664 95.1402 305.064 95.8402 304.464C96.4402 303.764 96.3402 302.764 95.5402 301.764C94.7402 300.664 93.6402 299.564 92.3402 298.264C92.2402 298.164 92.1402 298.164 92.1402 298.064C92.1402 297.964 92.0402 297.964 92.0402 297.864C90.9402 299.564 89.9402 301.364 89.0402 303.164C87.9402 304.964 87.0402 306.764 86.1402 308.664ZM96.5402 281.264C97.6402 279.364 97.6402 278.264 96.4402 277.764C95.1402 277.364 93.7402 277.364 92.3402 277.764C90.9402 278.164 89.9402 279.164 89.1402 280.664C88.9402 281.064 88.8402 281.664 88.8402 282.264C88.7402 282.864 88.8402 283.564 88.9402 284.364C89.1402 285.164 89.4402 285.864 89.8402 286.564C90.3402 287.264 90.9402 287.964 91.7402 288.464C92.5402 287.264 93.3402 286.064 94.1402 284.764C94.9402 283.764 95.7402 282.564 96.5402 281.264Z" fill="black" stroke="black" stroke-width="0.75" stroke-miterlimit="10"/>
<g clip-path="url(#clip0)">
<path d="M363.805 652.7C363.605 652.8 363.505 652.9 363.305 653C361.905 653.6 360.505 654.1 359.105 654.5C358.705 654.6 358.405 654.7 358.005 654.9C358.405 656.1 358.705 657.4 358.705 658.9C358.705 664 354.805 669.4 350.205 668.9C313.805 665.3 277.405 662.8 240.905 661.4L238.305 661.5L235.605 661.6L66.3048 669L61.6048 669.2L15.4048 671.2C10.3048 671.4 7.50485 667.2 7.20484 662.5C7.10485 660.6 7.30484 658.7 8.00484 657C9.20484 653.8 11.7048 651.3 15.4048 651.2C16.5048 651.1 17.5048 651.1 18.6048 651.1C18.4048 650.4 18.4048 649.6 18.3048 648.9C17.8048 647.9 17.0048 647 16.0048 646.2C15.9048 646.1 15.8048 646.1 15.7048 646C13.2048 646.1 10.7048 646.1 8.20484 646.2C1.40484 646.4 -1.19516 638.7 0.504847 632.8C1.20484 630.5 2.50485 628.4 4.50485 627.2C5.60485 626.6 6.80484 626.2 8.30484 626.1C10.7048 626.1 13.2048 626 15.6048 625.9C16.9048 625.9 18.2048 625.8 19.5048 625.8C42.3048 625.3 65.1048 624.8 87.9048 624.4C119.005 623.9 150.205 623.5 181.305 623.5C182.805 623.5 184.305 623.5 185.905 623.5C200.105 623.5 214.305 623.6 228.605 623.8C251.705 624.1 274.905 624.8 298.005 625.7C309.805 626.2 321.705 626.8 333.505 627.5C344.005 628.1 356.405 627.1 365.405 634.4C365.505 634.5 365.505 634.5 365.605 634.6C366.905 635.7 367.905 637.1 368.505 638.6C370.605 643.8 368.805 650.1 363.805 652.7Z" fill="#59C69F"/>
<path d="M32.8049 629.7C31.3049 628.4 29.1049 627.6 26.5049 627.2C25.1049 627 23.7049 627 22.6049 627.3C21.7049 627.5 21.0049 627.8 20.4049 628.2C20.3049 628 20.2049 627.7 20.0049 627.5C19.6049 627.1 19.2049 626.9 18.6049 627C17.0049 627.2 15.4049 627.9 14.0049 629.1C12.6049 630.2 11.4049 631.7 10.4049 633.5C9.60488 635 8.90488 636.6 8.40488 638.5C7.90488 640.3 7.60488 642.3 7.50488 644.3C7.50488 646.3 7.70488 648.3 8.20488 650.2C8.70488 652.1 9.60488 653.9 10.9049 655.5C12.8049 657.4 14.9049 658.5 17.3049 658.8C17.9049 658.9 18.6049 658.9 19.2049 658.9C21.0049 658.9 22.7049 658.6 24.5049 658C25.8049 657.5 27.1049 656.8 28.4049 656C29.7049 655.1 30.9049 654.1 32.0049 652.9C33.1049 651.7 34.1049 650.4 34.9049 649C35.8049 647.6 36.4049 646.1 36.7049 644.6C37.0049 643.1 37.2049 641.5 37.2049 639.6C37.2049 637.8 36.8049 636 36.1049 634.3C35.5049 632.5 34.4049 631 32.8049 629.7ZM19.7049 652.3C17.8049 652.3 16.4049 651.7 15.5049 650.6C14.6049 649.4 14.1049 648 13.9049 646.2C13.8049 644.9 13.8049 643.6 14.0049 642.3C14.1049 641 14.4049 639.7 14.9049 638.6C15.3049 637.5 15.9049 636.4 16.6049 635.5C17.2049 634.8 17.9049 634.2 18.6049 633.8C18.7049 634.3 19.1049 634.5 19.3049 634.6C19.8049 634.8 20.3049 634.7 20.7049 634.5C22.4049 633.7 23.9049 633.4 25.4049 633.5C26.9049 633.7 28.2049 634.1 29.2049 634.9C29.9049 635.5 30.5049 636.1 30.8049 636.9C31.2049 637.7 31.4049 638.6 31.4049 639.5C31.4049 640.4 31.4049 641.3 31.2049 642.2C31.0049 643 30.8049 643.8 30.6049 644.3C30.1049 645.4 29.5049 646.5 28.7049 647.5C27.9049 648.5 27.0049 649.4 26.1049 650.1C25.2049 650.8 24.1049 651.4 23.0049 651.8C21.9049 652.1 20.8049 652.3 19.7049 652.3Z" fill="black"/>
<path d="M66.405 649.2C65.705 649.3 65.005 649.4 64.105 649.8C62.405 650.8 60.605 651.7 58.605 652.3C56.705 652.9 54.905 653.2 53.405 653.2C51.605 653.2 50.305 652.6 49.405 651.4C48.605 650.2 48.305 648.7 48.505 646.9C48.705 645.9 49.005 644.9 49.405 643.9C49.805 642.9 50.405 642 51.005 641.2C51.605 640.4 52.405 639.8 53.205 639.3C54.005 638.8 55.005 638.6 56.005 638.6C57.105 638.6 58.105 639.1 58.805 640.1C59.205 640.8 59.805 641.2 60.405 641.3C61.005 641.4 61.605 641.3 62.005 641.1C62.605 640.8 62.905 640.3 63.105 639.8C63.205 639.3 63.205 638.8 63.105 638.3C62.505 636.3 61.205 634.8 59.305 634C57.405 633.2 55.405 633 53.405 633.3C52.105 633.5 50.905 633.9 49.905 634.6C48.905 635.2 47.905 636 47.005 636.9C46.105 637.8 45.405 638.8 44.805 639.8C44.205 640.9 43.705 641.9 43.405 643C42.605 645.8 42.305 648.5 42.805 651.1C43.205 653.8 44.505 655.9 46.605 657.4C47.905 658.2 49.405 658.8 50.905 659C51.605 659.1 52.405 659.2 53.205 659.2C54.005 659.2 54.805 659.1 55.505 659C57.005 658.8 58.605 658.4 60.105 657.8C61.605 657.2 63.005 656.6 64.405 655.8C65.805 655.1 66.905 654.3 67.705 653.4C68.905 652.1 68.605 651 68.205 650.3C67.805 649.5 67.205 649.2 66.405 649.2Z" fill="black"/>
<path d="M101.505 652C101.005 651.9 100.405 652 99.8051 652.3C98.6051 652.9 97.4051 653.5 96.0051 654.2C94.7051 654.9 93.3051 655.5 92.0051 656.1C90.6051 656.7 89.2051 657.3 87.9051 657.8C86.7051 658.2 85.6051 658.6 84.5051 658.8C84.5051 658.6 84.5051 658.4 84.5051 658C84.5051 657.2 84.5051 656.3 84.6051 655.1C84.7051 653.9 84.7051 652.5 84.8051 650.9C84.9051 649.4 85.0051 647.9 85.1051 646.2C86.3051 646.1 87.5051 646.1 88.6051 646C89.8051 646 91.0051 645.9 92.1051 645.9C92.7051 645.9 93.4051 645.8 94.3051 645.5C95.3051 645.2 95.9051 644.5 96.1051 643.4C96.1051 642.1 95.5051 641.2 94.4051 640.6C93.3051 640 92.2051 639.8 91.1051 639.8C90.2051 639.8 89.2051 639.9 88.2051 639.9C87.3051 639.9 86.4051 640 85.5051 640C85.7051 637.7 85.9051 635.5 86.0051 633.3C86.2051 631 86.4051 628.9 86.7051 627.1C86.7051 626.3 86.2051 625.6 85.3051 625C84.4051 624.4 83.5051 624.2 82.5051 624.2C82.0051 624.2 81.5051 624.5 81.1051 625.1C80.7051 625.6 80.5051 626.3 80.5051 627C80.3051 628.9 80.1051 631.1 79.9051 633.4C79.7051 635.7 79.5051 638 79.3051 640.4C76.7051 640.6 74.4051 640.9 72.2051 641.3C71.2051 641.6 70.5051 642.1 70.2051 642.7C69.9051 643.3 69.7051 643.8 69.7051 644.2C69.7051 645.3 70.2051 646 71.2051 646.4C72.1051 646.7 72.9051 646.9 73.7051 646.9C74.6051 646.8 75.5051 646.7 76.4051 646.6C77.2051 646.5 78.1051 646.5 78.9051 646.4C78.8051 648.8 78.7051 651 78.6051 653.1C78.5051 655.4 78.5051 657.4 78.6051 659.1C78.7051 660.9 79.2051 662.4 80.2051 663.6C81.1051 664.7 82.3051 665.2 83.9051 665.2C84.1051 665.2 84.3051 665.2 84.5051 665.2C85.7051 665.1 87.1051 664.8 88.7051 664.2C90.3051 663.6 91.8051 663 93.3051 662.2C94.8051 661.5 96.3051 660.7 97.6051 659.8C98.9051 659 100.005 658.2 100.905 657.6C101.605 656.9 102.205 656 102.505 655.1C102.805 654.2 102.905 653.4 102.805 652.7C102.505 652.6 102.305 652.2 101.505 652Z" fill="black"/>
<path d="M131.205 640.5C130.605 639 129.705 637.6 128.605 636.4C127.505 635.2 126.105 634.2 124.405 633.6C123.305 633.1 122.405 633.2 121.605 633.8C120.705 633.3 119.705 632.9 118.605 632.6C117.405 632.3 116.505 632.1 115.705 632.1C114.305 632.1 113.005 632.5 111.905 633.2C110.805 633.9 109.805 634.8 109.005 636C108.205 637.1 107.505 638.4 106.905 639.9C106.405 641.3 106.005 642.8 105.805 644.4C105.505 646.5 105.405 648.6 105.605 650.6C105.805 652.7 106.405 654.6 107.305 656.2C108.205 657.9 109.405 659.3 110.905 660.3C112.505 661.4 114.405 661.9 116.705 661.9H116.805C118.605 661.9 120.305 661.5 121.905 660.9C123.405 660.2 124.805 659.3 126.105 658.1C127.305 657 128.405 655.6 129.305 654.2C130.205 652.7 131.005 651.2 131.605 649.7C132.105 648.3 132.205 646.8 132.205 645.2C132.105 643.6 131.805 642 131.205 640.5ZM118.105 655.3C117.105 655.5 116.305 655.5 115.605 655.3C114.505 654.9 113.605 654.3 113.005 653.5C112.405 652.7 112.005 651.7 111.805 650.6C111.605 649.5 111.505 648.4 111.605 647.3C111.705 646.2 111.805 645.2 111.905 644.5C112.005 644 112.205 643.4 112.505 642.6C112.805 641.8 113.205 641 113.705 640.3C114.105 639.6 114.705 638.9 115.305 638.3C115.805 637.8 116.405 637.5 116.905 637.5C117.405 637.5 118.005 637.8 118.705 638.4C119.505 639 120.205 639.5 120.805 639.9C121.105 640 121.405 640.1 121.905 640.1C122.305 640.1 122.705 640 123.005 639.8C124.405 640.5 125.205 641.6 125.705 643.2C126.205 644.8 126.105 646.4 125.605 647.9C125.105 649.2 124.405 650.4 123.605 651.5C122.705 652.5 121.805 653.4 120.805 654C120.105 654.7 119.105 655.1 118.105 655.3Z" fill="black"/>
<path d="M157.805 635.6C157.005 634.5 155.905 633.6 154.605 633C153.305 632.4 151.805 632.2 150.005 632.4C148.905 632.6 147.705 633 146.705 633.7C145.805 634.3 145.005 635 144.305 636C144.205 635 144.105 633.9 144.005 632.8C143.905 631.3 143.805 629.8 143.805 628.4C143.805 627 143.705 625.6 143.705 624.4C143.705 623.2 143.605 622.1 143.605 621.2C143.405 620.3 143.005 619.5 142.405 619C141.805 618.5 141.005 618.1 140.205 618C139.905 618 139.405 618.1 138.905 618.3C138.305 618.5 138.005 619.2 137.905 620.5C137.705 626.7 138.005 632.9 138.705 639C139.305 645 140.305 650.9 141.505 656.8C141.205 657 140.905 657.2 140.505 657.5C140.005 657.8 139.605 658.2 139.205 658.6C138.805 659 138.605 659.5 138.505 660C138.405 660.5 138.505 661.2 138.805 662C139.205 662.5 139.905 662.9 141.005 663.1C141.405 663.2 141.705 663.2 142.105 663.2C142.805 663.2 143.605 663 144.405 662.7C145.205 662.2 146.405 661.4 148.105 660.3C149.805 659.2 151.605 657.8 153.305 656.1C155.105 654.4 156.705 652.5 158.005 650.3C159.405 648.1 160.105 645.7 160.105 643.1C160.105 641.9 159.905 640.6 159.505 639.3C159.205 637.9 158.605 636.7 157.805 635.6ZM154.505 642.7C154.505 643.9 154.205 645 153.705 646C153.205 647.1 152.505 648.1 151.705 649C150.905 649.9 150.005 650.8 149.005 651.6C148.205 652.2 147.505 652.8 146.705 653.3C146.505 652.2 146.305 651 146.205 649.7C146.005 648.2 145.905 646.7 145.805 645.4C145.805 644.6 145.905 643.8 146.105 643C146.305 642.2 146.705 641.4 147.205 640.8C147.705 640.1 148.205 639.6 148.805 639.1C149.405 638.7 150.105 638.4 150.805 638.3C150.905 638.3 151.005 638.3 151.105 638.3C151.905 638.3 152.605 638.6 153.305 639.2C154.105 639.8 154.505 641 154.505 642.7Z" fill="black"/>
<path d="M187.405 649.3C187.105 649.2 186.605 649.2 186.005 649.3C185.405 649.4 184.805 649.8 184.305 650.2C183.805 650.6 183.305 651 182.605 651.4C182.005 651.8 181.305 652.2 180.505 652.5C179.805 652.8 178.905 653.1 178.105 653.2C177.305 653.3 176.405 653.4 175.605 653.3C174.205 653.1 173.105 652.5 172.205 651.4C171.405 650.4 170.905 649.1 170.705 647.5C173.405 647.5 175.905 647.2 178.205 646.5C180.605 645.8 183.005 644.9 185.105 643.6C186.105 643 186.705 642.2 186.905 641.4C187.105 640.6 187.005 639.6 186.505 638.5C185.705 636.6 184.405 635.1 182.405 634C180.505 632.9 178.305 632.5 175.905 632.6C173.905 632.7 172.205 633.1 170.705 633.9C169.205 634.7 167.905 635.6 166.905 636.8C165.905 638 165.105 639.4 164.705 640.9C164.205 642.4 164.105 644.1 164.205 645.8C164.405 647.6 164.805 649.4 165.405 651.1C166.005 652.8 167.005 654.3 168.305 655.6C169.805 657 171.505 658 173.405 658.6C174.605 658.9 175.705 659.1 176.805 659.1C177.505 659.1 178.205 659 178.905 658.9C180.905 658.6 182.805 657.8 184.505 656.6C186.205 655.4 187.505 653.9 188.405 652.1V652C188.705 650.6 188.305 649.7 187.405 649.3ZM181.105 639.8C180.605 640.1 180.005 640.4 179.205 640.6C178.305 640.9 177.405 641.2 176.305 641.4C175.305 641.6 174.205 641.8 173.105 642C172.205 642.1 171.305 642.2 170.605 642.2C170.705 641.8 170.905 641.4 171.205 641.1C171.605 640.6 172.005 640.2 172.505 639.8C173.005 639.4 173.505 639.1 174.105 638.9C174.705 638.6 175.205 638.5 175.805 638.4C176.905 638.2 178.105 638.2 179.205 638.5C180.105 638.6 180.705 639.1 181.105 639.8Z" fill="black"/>
<path d="M218.005 631.1C217.405 631 216.705 631 215.805 631.1C213.905 631.4 212.005 632.1 210.105 633C208.305 634 206.605 635.2 205.105 636.6C203.605 638 202.405 639.6 201.405 641.3C200.705 642.4 200.305 643.6 199.905 644.8C199.705 643.7 199.505 642.5 199.305 641.1C199.005 638.9 198.705 636.8 198.505 634.8C198.405 634.1 198.005 633.6 197.205 633.2C196.605 632.9 195.905 632.7 195.205 632.7C194.505 632.6 193.905 632.7 193.405 633C192.805 633.3 192.505 633.9 192.505 634.8C192.905 638.5 193.405 642.3 194.005 646C194.605 649.7 195.305 653.6 196.205 657.4C196.405 658.4 196.805 659.5 197.505 660.5C198.205 661.7 199.105 662.3 200.305 662.3C201.305 662.3 202.005 661.7 202.505 660.6C203.005 659.6 203.205 658.5 203.205 657.5C203.305 655.5 203.605 653.4 204.005 651.3C204.405 649.2 205.105 647.2 206.205 645.2C206.905 643.8 207.805 642.6 208.705 641.5C209.605 640.5 210.605 639.6 211.605 638.8C212.605 638 213.705 637.4 214.705 636.8C215.805 636.2 216.805 635.7 217.705 635.1C218.505 634.6 219.005 634 219.105 633.3C219.305 632.6 219.205 632.1 218.905 631.7C219.105 631.4 218.705 631.2 218.005 631.1Z" fill="black"/>
<path d="M273.905 651.2C273.605 651.1 273.105 650.9 272.305 650.8C271.505 650.6 270.805 650.6 270.105 650.6C268.905 650.7 267.605 650.8 266.105 651C264.605 651.2 263.105 651.4 261.605 651.6C260.105 651.8 258.605 652 257.205 652.2C256.205 652.3 255.305 652.4 254.505 652.5C255.105 651.7 255.805 650.9 256.505 649.9C257.405 648.7 258.305 647.4 259.205 646.1C260.105 644.8 260.905 643.5 261.605 642.2C262.305 640.9 262.905 639.7 263.305 638.6C264.105 636.5 264.105 634.3 263.405 632V631.9C263.105 631.2 262.505 630.6 261.805 630C261.105 629.4 260.205 629 259.105 628.7C257.505 628.5 255.905 628.5 254.405 628.7C252.905 628.9 251.405 629.2 250.005 629.7C248.605 630.2 247.405 630.7 246.305 631.4C245.205 632.1 244.405 632.7 243.905 633.3L243.805 633.4C243.705 633.7 243.605 634 243.505 634.5C243.405 635 243.305 635.4 243.405 635.6C243.405 635.8 243.505 636 243.705 636.3C243.905 636.6 244.205 636.8 244.505 637C244.805 637.2 245.305 637.4 245.705 637.4C246.205 637.5 246.805 637.3 247.505 637C248.005 636.8 248.605 636.5 249.205 636.2C249.805 635.9 250.505 635.6 251.305 635.4C252.105 635.1 252.905 634.9 253.705 634.7C254.505 634.5 255.205 634.4 256.005 634.3C256.505 634.3 257.005 634.2 257.305 634.3C257.605 634.3 257.905 634.4 258.105 634.6C258.105 634.6 258.205 634.7 258.305 635.1C258.305 635.4 258.305 635.8 258.205 636.2C257.005 639.2 255.205 642.2 253.105 645.2C250.905 648.2 248.705 651 246.405 653.5C245.705 654.2 245.405 654.6 245.305 655C245.205 655.3 245.205 655.5 245.205 655.7C245.305 656.5 245.605 657.3 246.205 658.1C246.705 658.8 247.405 659.2 248.105 659.2C248.205 659.2 248.305 659.2 248.405 659.2C250.005 659 251.905 658.8 253.905 658.6C255.905 658.3 258.005 658 260.105 657.7C262.205 657.4 264.305 657.1 266.405 656.8L272.005 656C272.305 656 272.705 655.8 273.105 655.4C273.505 655 273.805 654.6 274.105 654.2C274.405 653.7 274.605 653.3 274.705 652.8C274.605 651.9 274.405 651.5 273.905 651.2Z" fill="black"/>
<path d="M297.605 634.6C296.105 633.4 293.905 632.6 291.205 632.3C291.105 631.6 290.805 631.1 290.305 630.8C289.805 630.5 289.205 630.5 288.705 630.7C286.705 631.6 284.905 632.7 283.305 634.2C281.705 635.7 280.305 637.3 279.205 639.2C278.105 641.1 277.205 643.1 276.705 645.3C276.205 647.4 276.005 649.6 276.105 651.8C276.305 653.6 276.705 655.1 277.405 656.3C278.105 657.5 279.005 658.3 280.105 658.9C281.205 659.5 282.405 659.7 283.705 659.7H283.805C285.205 659.7 286.605 659.4 287.905 658.8C290.105 657.9 292.005 656.7 293.505 655C295.005 653.4 296.205 651.6 297.205 649.8C298.105 648 298.805 646.1 299.205 644.3C299.605 642.5 299.805 640.9 299.805 639.7C300.005 637.6 299.205 635.9 297.605 634.6ZM282.605 647.7C282.905 646.4 283.305 645.2 283.805 644C284.305 642.8 285.005 641.7 285.705 640.6C286.405 639.6 287.205 638.6 287.905 637.8C288.605 637.8 289.305 637.8 290.005 637.9C290.805 638 291.505 638.2 292.205 638.3C292.805 638.5 293.305 638.7 293.705 639C293.905 639.2 294.205 639.4 294.205 639.6C294.005 642 293.405 644.2 292.505 646.1C291.605 648.1 290.405 649.7 288.905 651.1C288.605 651.4 288.305 651.6 287.905 651.9C287.505 652.2 287.005 652.4 286.505 652.7C286.005 652.9 285.505 653.1 285.005 653.3C284.505 653.4 284.105 653.5 283.705 653.4C283.305 653.3 283.005 653.1 282.705 652.8C282.405 652.5 282.305 652.1 282.205 651.4C282.205 650.3 282.305 649 282.605 647.7Z" fill="black"/>
<path d="M334.205 651.7C333.905 651.6 333.405 651.4 332.605 651.3C331.805 651.1 331.105 651.1 330.405 651.1C329.205 651.2 327.905 651.3 326.405 651.5C324.905 651.7 323.405 651.9 321.905 652.1C320.405 652.3 318.905 652.5 317.505 652.7C316.505 652.8 315.605 652.9 314.805 653C315.405 652.2 316.105 651.4 316.805 650.4C317.705 649.2 318.605 647.9 319.505 646.6C320.405 645.3 321.205 644 321.905 642.7C322.605 641.4 323.205 640.2 323.605 639.1C324.405 637 324.405 634.8 323.705 632.5V632.4C323.405 631.7 322.805 631.1 322.105 630.5C321.405 629.9 320.505 629.5 319.405 629.2C317.805 629 316.205 629 314.705 629.2C313.205 629.4 311.705 629.7 310.305 630.2C308.905 630.7 307.705 631.2 306.605 631.9C305.505 632.6 304.705 633.2 304.205 633.8L304.105 633.9C304.005 634.2 303.905 634.5 303.805 635C303.705 635.5 303.605 635.9 303.705 636.1C303.705 636.3 303.805 636.5 304.005 636.8C304.205 637.1 304.405 637.3 304.805 637.5C305.105 637.7 305.605 637.9 306.005 637.9C306.505 638 307.105 637.8 307.805 637.5C308.305 637.3 308.905 637 309.505 636.7C310.105 636.4 310.805 636.1 311.605 635.9C312.405 635.6 313.205 635.4 314.005 635.2C314.805 635 315.505 634.9 316.305 634.8C316.805 634.8 317.305 634.7 317.605 634.8C317.905 634.8 318.205 634.9 318.405 635.1C318.405 635.1 318.505 635.2 318.605 635.6C318.605 635.9 318.605 636.3 318.505 636.7C317.305 639.7 315.505 642.7 313.405 645.7C311.205 648.7 309.005 651.5 306.705 654C306.005 654.7 305.705 655.1 305.605 655.5C305.505 655.8 305.505 656 305.505 656.2C305.605 657 305.905 657.8 306.505 658.6C307.005 659.3 307.705 659.7 308.405 659.7C308.505 659.7 308.605 659.7 308.705 659.7C310.305 659.6 312.205 659.3 314.205 659.1C316.205 658.8 318.305 658.5 320.405 658.2C322.505 657.9 324.605 657.6 326.705 657.3L332.305 656.5C332.605 656.5 333.005 656.3 333.405 655.9C333.805 655.5 334.105 655.1 334.405 654.7C334.705 654.2 334.905 653.8 335.005 653.3C334.905 652.4 334.705 651.9 334.205 651.7Z" fill="black"/>
<path d="M357.905 635.1C356.405 633.9 354.205 633.1 351.505 632.8C351.405 632.1 351.105 631.6 350.605 631.3C350.105 631 349.505 631 349.005 631.2C347.005 632.1 345.205 633.2 343.605 634.7C342.005 636.2 340.605 637.8 339.505 639.7C338.405 641.6 337.505 643.6 337.005 645.8C336.505 647.9 336.305 650.1 336.405 652.3C336.605 654.1 337.005 655.6 337.705 656.8C338.405 658 339.305 658.8 340.405 659.4C341.505 660 342.705 660.2 344.005 660.2H344.105C345.505 660.2 346.905 659.9 348.205 659.3C350.405 658.4 352.305 657.2 353.805 655.5C355.305 653.9 356.505 652.1 357.505 650.3C358.405 648.5 359.105 646.6 359.505 644.8C359.905 643 360.105 641.4 360.105 640.2C360.405 638 359.505 636.4 357.905 635.1ZM342.905 648.2C343.205 646.9 343.605 645.7 344.105 644.5C344.605 643.3 345.305 642.2 346.005 641.1C346.705 640.1 347.505 639.1 348.205 638.3C348.905 638.3 349.605 638.3 350.305 638.4C351.105 638.5 351.805 638.7 352.505 638.8C353.105 639 353.605 639.2 354.005 639.5C354.205 639.7 354.505 639.9 354.505 640.1C354.305 642.5 353.705 644.7 352.805 646.6C351.905 648.6 350.705 650.2 349.205 651.6C348.905 651.8 348.605 652.1 348.205 652.4C347.805 652.7 347.305 652.9 346.805 653.2C346.305 653.4 345.805 653.6 345.305 653.8C344.805 653.9 344.405 654 344.005 653.9C343.605 653.8 343.305 653.6 343.005 653.3C342.705 653 342.605 652.6 342.505 651.9C342.605 650.7 342.705 649.4 342.905 648.2Z" fill="black"/>
</g>
<defs>
<clipPath id="clip0">
<rect width="370" height="54" fill="white" transform="translate(0 618)"/>
</clipPath>
</defs>
</svg>
