<svg width="252" height="15" viewBox="0 0 252 15" fill="none" xmlns="http://www.w3.org/2000/svg">
<path d="M251.02 10.7507C248.131 8.65161 245.048 6.7243 242.16 4.6252C239.277 2.69292 237.235 1.74169 233.894 3.66125C231.143 5.23224 227.809 7.31862 225.684 9.54199C225.483 9.54696 225.477 9.38014 225.277 9.38511C224.851 8.72776 223.829 8.25215 223.209 7.76659C221.762 6.63363 220.515 5.4957 219.073 4.52956C216.799 2.74919 214.336 1.30743 211.172 2.55473C208 3.6352 206.095 6.35407 203.557 8.25374C203.362 8.42553 203.168 8.59732 202.974 8.76912C203.563 8.42056 203.35 8.09188 202.548 8.11177C201.927 7.62621 200.918 7.48424 200.104 7.17048C198.675 6.53799 197.246 5.90549 195.818 5.273C192.553 3.85113 189.476 2.09064 186.4 0.330157C185.372 -0.312279 183.58 0.0661037 182.803 0.753278C181.455 2.28948 180.101 3.65885 178.754 5.19505C177.983 6.04905 177.212 6.90305 176.441 7.75704C176.247 7.92884 176.052 8.10063 175.864 8.43925C175.67 8.61104 175.67 8.61104 175.67 8.61104C173.84 7.98849 172.186 6.69367 170.544 5.7325C168.702 4.77631 166.854 3.65329 164.811 2.70206C161.327 0.784691 157.88 -0.13174 154.158 2.29822C151.419 4.20286 148.88 6.10253 146.141 8.00717C143.886 6.72727 141.636 5.61419 139.18 4.33926C136.93 3.22618 134.662 1.61264 131.873 2.1827C129.285 2.74779 126.954 4.80931 124.798 6.19857C123.619 6.89568 122.441 7.5928 121.463 8.28494C120.285 8.98206 119.483 9.00194 118.061 8.53627C113.386 6.98237 109.658 3.90222 104.425 3.53099C98.992 3.16474 95.2941 6.26199 91.1702 8.7019C89.7977 9.57081 89.992 9.39901 88.5571 8.5997C87.3289 7.96223 86.3013 7.31979 85.0731 6.68233C82.6168 5.4074 80.1605 4.13247 77.3343 3.70159C74.5143 3.43754 72.1454 4.49812 69.5759 5.56368C68.1908 6.09894 66.8058 6.63421 65.4208 7.16947C64.0358 7.70474 61.8736 8.92717 60.075 9.13873C57.6686 9.19838 54.592 7.4379 52.5429 6.31985C50.2872 5.03995 48.4075 3.08281 45.5813 2.65194C42.9556 2.21609 40.3799 3.11482 38.4245 4.49911C36.2685 5.88837 34.3443 8.10678 31.5118 7.50908C28.6856 7.0782 26.4111 5.29783 23.9611 4.18972C21.3042 2.91976 18.4593 1.98842 15.2383 1.73431C9.39783 1.21117 3.45045 3.19535 0.40412 7.61227C-1.49515 10.498 3.81231 12.8711 5.71159 9.98537C8.37556 6.07886 14.191 5.9347 18.6714 7.66039C23.1518 9.38608 26.8862 12.6331 32.1063 12.6706C34.519 12.7778 36.6936 11.889 38.6615 10.8384C40.2284 9.79767 42.936 7.05892 44.9788 8.01014C47.0153 8.79455 48.8888 10.5849 50.9378 11.7029C53.1873 12.816 55.838 13.9191 58.2568 14.1931C60.8763 14.4621 63.0509 13.5734 65.4262 12.6796C68.3967 11.6041 71.3486 10.0281 74.3254 9.11945C76.9074 8.38754 79.3824 10.1629 81.4252 11.1142C83.4742 12.2322 85.7549 14.1794 88.3744 14.4484C93.0178 15.1682 96.6533 10.4027 100.414 8.97371C104.769 7.36294 109.105 10.595 112.777 12.1738C115.027 13.2868 117.671 14.2232 120.266 13.8249C123.061 13.4216 125.398 11.5269 127.554 10.1377C128.732 9.44057 130.481 7.89443 131.872 7.52599C132.073 7.52102 132.455 7.01061 132.455 7.01061C132.856 7.00067 134.298 7.96681 134.705 8.12369C137.575 9.72232 140.645 11.316 143.515 12.9146C143.515 12.9146 143.715 12.9097 143.722 13.0765C144.749 13.7189 146.36 13.846 147.526 12.8152C149.287 11.6027 150.847 10.3952 152.608 9.18269C153.386 8.49551 154.37 7.97019 155.147 7.28302C155.736 6.93446 156.895 5.73688 157.691 5.55017C159.289 5.34358 162.184 7.6095 163.412 8.24697C165.255 9.20317 166.896 10.1643 168.739 11.1205C171.608 12.7192 175.111 15.137 178.232 12.722C179.793 11.5144 180.934 9.81638 182.087 8.45197C182.858 7.59798 183.823 6.57219 184.594 5.71819C189.72 8.59672 195.033 11.1366 200.723 12.9993C204.176 14.0826 206.119 12.3647 208.457 10.47C209.623 9.43919 210.776 8.07479 212.155 7.3727C213.333 6.67558 212.543 7.02911 213.565 7.50473C214.179 7.82346 215.012 8.63769 215.632 9.12324C217.08 10.2562 218.327 11.3941 219.768 12.3603C220.802 13.1695 222.049 14.3075 223.471 14.7731C226.717 15.6945 228.641 13.4761 230.791 11.9201C232.157 10.8843 233.524 9.8486 235.09 8.80789C235.09 8.80789 236.269 8.11078 236.858 7.76222C237.064 7.92407 237.271 8.08592 237.478 8.24778C240.367 10.3469 243.449 12.2742 246.338 14.3733C249.828 16.4575 253.908 12.8498 251.02 10.7507Z" fill="#F7C300"/>
</svg>
