<svg width="395" height="211" viewBox="0 0 395 211" fill="none" xmlns="http://www.w3.org/2000/svg">
<path d="M76.1181 112.593C75.4303 112.041 75.1838 110.939 75.8459 110.114C76.508 109.288 77.4997 109.179 78.3252 109.841C78.8755 110.283 79.4257 110.724 79.976 111.166C83.9384 114.118 88.2591 116.905 92.6901 119.555C93.4884 119.969 93.8724 121.182 93.3206 121.87C92.7689 122.557 91.6941 123.052 91.0062 122.5C86.4376 119.74 81.9794 116.842 78.017 113.89C77.3563 113.586 76.806 113.145 76.1181 112.593ZM62.8022 101.007C58.7309 97.0635 54.7427 92.7341 50.4522 87.936C49.8747 87.2467 49.8762 86.1174 50.6758 85.4023C51.3652 84.8248 52.4944 84.8263 53.2095 85.626C57.3625 90.3137 61.3506 94.6431 65.1468 98.3664C65.7243 99.0557 65.9708 100.158 65.1711 100.873C64.6193 101.561 63.4901 101.559 62.8022 101.007ZM106.447 130.59C105.897 130.149 105.54 129.184 105.955 128.386C106.369 127.588 107.444 127.094 108.242 127.508C113.389 129.828 118.647 132.011 124.511 134.001C125.42 134.278 125.914 135.353 125.638 136.261C125.361 137.17 124.286 137.664 123.378 137.388C117.376 135.287 112.118 133.104 106.833 130.673C106.585 130.701 106.585 130.701 106.447 130.59ZM39.4522 74.5909C39.3146 74.4805 39.3146 74.4805 39.177 74.3702C35.2448 69.4073 31.7252 64.7755 28.4536 60.1165C27.9864 59.2896 28.1255 58.2706 28.8148 57.6931C29.5041 57.1156 30.6606 57.365 31.2382 58.0543C34.3722 62.603 37.8917 67.2348 41.7968 71.9498C42.3743 72.6391 42.2625 73.9059 41.5732 74.4834C41.0214 75.1713 40.14 75.1426 39.4522 74.5909ZM139.511 142.642C138.961 142.2 138.631 141.484 138.935 140.823C139.212 139.915 140.149 139.31 141.195 139.697C146.261 141.273 151.823 142.796 158.156 144.484C159.064 144.76 159.669 145.698 159.392 146.606C159.116 147.515 158.179 148.12 157.27 147.843C150.937 146.155 145.375 144.633 140.31 143.056C139.924 142.973 139.649 142.752 139.511 142.642ZM19.1074 45.837C18.9698 45.7266 18.8322 45.6163 18.805 45.3683C15.5893 40.0759 12.7591 34.8666 10.4247 29.6028C9.95755 28.7759 10.3445 27.7297 11.1714 27.2625C11.9983 26.7954 13.0445 27.1823 13.5116 28.0092C15.8188 33.0251 18.649 38.2345 21.7271 43.4166C22.1943 44.2435 21.9449 45.3999 21.118 45.8671C20.4287 46.4446 19.6577 46.2784 19.1074 45.837ZM173.626 151.693C173.075 151.251 172.883 150.645 173.05 149.874C173.326 148.965 174.263 148.361 175.172 148.637C179.825 149.883 186.131 151.323 192.188 152.791C193.097 153.067 193.702 154.005 193.425 154.913C193.148 155.822 192.211 156.427 191.303 156.15C184.997 154.71 178.802 153.132 174.038 152.024C174.038 152.024 173.901 151.913 173.626 151.693ZM4.19263 13.9777C3.91748 13.757 3.75267 13.3987 3.72544 13.1508C2.46298 9.6512 1.5588 5.98677 0.681839 2.57028C0.462598 1.71616 1.09749 0.642779 1.95161 0.423538C2.80574 0.204297 3.8791 0.839184 4.09834 1.69331C4.9753 5.1098 5.85227 8.52629 7.11473 12.0259C7.47154 12.9904 6.94702 13.9262 5.98254 14.283C5.37634 14.475 4.60535 14.3088 4.19263 13.9777ZM207.962 159.339C207.412 158.898 207.22 158.291 207.276 157.658C207.415 156.639 208.352 156.034 209.371 156.173C215.126 157.172 220.469 157.84 225.674 158.398L226.693 158.537C227.712 158.676 228.427 159.476 228.288 160.495C228.149 161.513 227.349 162.229 226.33 162.09L225.201 162.088C219.996 161.53 214.516 160.752 208.76 159.753C208.623 159.643 208.237 159.56 207.962 159.339ZM243.213 162.745C242.8 162.414 242.498 161.945 242.554 161.312C242.583 160.43 243.493 159.578 244.374 159.606C246.632 159.609 248.918 159.86 251.177 159.863C254.702 159.978 258.475 160.065 262.001 160.18C262.882 160.209 263.735 161.119 263.706 162C263.677 162.881 262.767 163.734 261.886 163.705C258.361 163.591 254.698 163.366 251.172 163.251C248.914 163.248 246.518 163.135 244.37 162.994C243.763 163.186 243.488 162.966 243.213 162.745ZM278.301 164.663C277.888 164.332 277.558 163.616 277.752 163.092C277.891 162.074 278.691 161.358 279.709 161.497C285.548 162.111 291.441 163.22 297.333 164.33C298.242 164.606 298.847 165.544 298.681 166.315C298.404 167.223 297.467 167.828 296.696 167.662C290.913 166.415 285.158 165.416 279.457 164.913C278.961 164.967 278.576 164.884 278.301 164.663ZM312.72 171.924C312.17 171.483 311.84 170.766 312.144 170.105C312.421 169.197 313.358 168.592 314.404 168.979C319.856 170.639 325.472 172.657 331.226 174.785C332.134 175.061 332.629 176.136 332.242 177.182C331.965 178.091 330.89 178.585 329.844 178.198C324.338 176.043 318.722 174.025 313.408 172.476C313.133 172.255 312.995 172.145 312.72 171.924ZM345.618 184.747C345.068 184.305 344.711 183.341 345.125 182.543C345.539 181.744 346.614 181.25 347.412 181.664C352.56 183.984 358.01 186.773 363.212 189.589C364.01 190.004 364.394 191.216 363.98 192.014C363.566 192.812 362.353 193.196 361.555 192.782C356.353 189.966 351.041 187.288 345.893 184.967C346.003 184.83 345.755 184.857 345.618 184.747ZM376.776 201.148C376.088 200.596 375.979 199.604 376.393 198.806C376.807 198.008 378.02 197.624 378.707 198.175C383.551 201.156 388.643 204.11 393.789 207.56C394.587 207.974 394.834 209.076 394.309 210.012C393.895 210.81 392.793 211.056 391.857 210.532C386.738 207.33 381.619 204.128 376.913 201.258C376.913 201.258 376.913 201.258 376.776 201.148Z" fill="black"/>
</svg>
