<svg width="112" height="13" viewBox="0 0 112 13" fill="none" xmlns="http://www.w3.org/2000/svg">
<path d="M108.84 7.69089C108.445 8.02783 108.074 8.34444 107.753 8.57146C107.433 8.81759 107.109 9.07949 106.779 9.34634C105.227 10.6001 103.542 11.9605 101.595 12.2959C99.4037 12.6984 97.1698 11.7523 95.2695 10.6283C94.612 10.2904 93.9293 9.87717 93.2266 9.45182L93.2112 9.44252L93.2096 9.44154C90.6015 7.86196 87.7185 6.1159 84.8252 7.39559C83.6956 7.90904 82.5793 8.8488 81.4334 9.81357L81.43 9.81639L81.4296 9.81676C79.3542 11.5642 77.1812 13.3938 74.655 12.9258C73.0283 12.726 71.5562 11.6103 70.2028 10.5844L70.1927 10.5767C69.7088 10.21 69.24 9.85478 68.7847 9.55793C68.4591 9.37663 68.1204 9.16546 67.7707 8.94736L67.7666 8.94484L67.7651 8.94386C66.2625 8.00793 64.5544 6.94399 62.7871 7.54306C61.3498 8.06787 59.9194 8.81216 58.4891 9.55695L58.489 9.55698C57.4167 10.1153 56.3445 10.6736 55.2693 11.1393L54.965 11.2764L54.9628 11.2774C53.074 12.1303 51.3127 12.9257 49.213 12.6683C47.1696 12.3911 44.9305 11.2769 43.0302 10.1528C42.3114 9.68371 41.6182 9.09774 40.9301 8.51573L40.929 8.51478C39.9604 7.69584 39.0019 6.8854 37.9962 6.42243C36.6242 5.65845 34.897 7.25088 33.5816 8.46372L33.5813 8.46393C33.2424 8.77665 32.9308 9.06371 32.6597 9.27925C30.9973 10.3407 29.1602 11.2384 27.1221 11.1299C24.1412 11.1047 21.7339 9.59789 19.3177 8.08513L19.3142 8.08297C18.1572 7.35863 16.998 6.63297 15.7728 6.06878C11.988 4.32568 7.07532 4.47118 4.8249 8.41757C3.22048 11.3326 -1.26304 8.93547 0.341384 6.02044C2.91479 1.55862 7.93889 -0.445892 12.8727 0.0828581C15.5937 0.339341 17.9969 1.28044 20.2413 2.56335C20.8985 2.91848 21.5407 3.34217 22.1876 3.76931C23.5781 4.68722 24.9905 5.61895 26.6199 5.91637C28.479 6.3854 29.875 5.13675 31.2595 3.89833L31.2598 3.89804L31.2676 3.89106C31.6623 3.53827 32.056 3.18623 32.4594 2.87556C34.1113 1.47724 36.2872 0.569683 38.5052 1.00965C40.1748 1.31446 41.4534 2.37286 42.7231 3.4239L42.7232 3.42404C43.269 3.87585 43.8132 4.32617 44.3861 4.71484L44.6615 4.89488C46.3844 6.0234 48.8212 7.61951 50.7489 7.5623C51.8381 7.4094 53.085 6.73119 54.1349 6.16003C54.5496 5.93462 54.9335 5.72598 55.2648 5.57308L58.7748 3.95082L59.0952 3.7915C61.144 2.77198 63.0643 1.81658 65.3288 2.07011C67.7163 2.50514 69.7913 3.79298 71.8663 5.08083C72.384 5.40242 72.8595 5.72499 73.3349 6.04757C73.8123 6.37163 74.2896 6.69519 74.8094 7.01777C74.9845 7.1346 75.1309 7.23786 75.2567 7.32661L75.2601 7.329L75.2607 7.32941C76.0019 7.85332 76.0267 7.87087 77.0169 7.12085C77.5974 6.71031 78.1679 6.28105 78.7369 5.85296L78.7608 5.83498L78.7609 5.8349C81.5981 3.69921 84.3999 1.59019 88.2141 1.89748C91.0153 2.13515 93.3061 3.4721 95.6134 4.81873L95.6155 4.8199L95.6184 4.82162C96.9504 5.59889 98.288 6.37945 99.7327 6.95364C100.934 7.42419 101.612 7.40397 102.607 6.70012C103.433 6.00071 104.429 5.29637 105.424 4.59252C105.871 4.24794 106.327 3.8621 106.794 3.46783L106.796 3.46548C107.895 2.73598 110.301 1.49584 111.136 2.37124C112.179 3.46548 112.179 5.09858 111.657 5.57308C111.136 6.04757 109.33 7.27699 108.845 7.68709L108.84 7.69089Z" fill="#F7C300"/>
</svg>
