<svg width="336" height="210" viewBox="0 0 336 210" fill="none" xmlns="http://www.w3.org/2000/svg">
<path d="M300.689 186.216C299.711 186.344 298.852 185.86 298.529 184.909C298.205 183.958 298.834 182.683 299.786 182.359C306.085 180.342 311.669 177.424 316.343 173.632C317.244 172.917 318.443 172.959 319.158 173.859C319.872 174.759 319.83 175.957 318.93 176.671C313.72 180.931 307.77 184.095 300.884 186.19C301.08 186.164 300.884 186.19 300.689 186.216ZM281.305 188.557C281.11 188.582 281.11 188.582 280.914 188.608C279.324 188.617 277.709 188.432 276.289 188.22C271.221 187.493 266.077 186.18 261.221 184.034C260.167 183.576 259.818 182.429 260.081 181.401C260.539 180.347 261.687 179.998 262.716 180.261C267.35 182.237 272.078 183.406 276.754 184.184C278.174 184.396 279.594 184.607 281.184 184.598C282.188 184.665 283.098 185.539 283.056 186.737C282.988 187.74 282.283 188.428 281.305 188.557ZM22.4363 208.96L22.2408 208.986C15.2947 209.101 8.46729 208.605 2.09853 207.054C1.06966 206.792 0.32946 205.696 0.592535 204.668C0.85561 203.64 1.95202 202.9 2.98089 203.163C8.93299 204.569 15.3693 205.117 22.1199 205.027C23.1231 205.094 24.0077 205.773 24.1613 206.946C24.2893 207.923 23.414 208.832 22.4363 208.96ZM41.9898 206.398C41.0121 206.527 40.1276 205.847 39.804 204.896C39.4805 203.945 40.3302 202.84 41.2823 202.516C47.267 201.136 53.3706 199.144 59.8139 196.71C60.766 196.387 62.016 196.819 62.3396 197.77C62.6631 198.721 62.2301 199.971 61.278 200.294C54.6647 202.949 48.3656 204.967 41.9898 206.398ZM245.556 173.765C244.969 173.842 244.552 173.698 244.11 173.358C238.947 168.867 234.49 163.688 231.129 157.769C230.609 156.844 230.847 155.62 231.773 155.101C232.7 154.582 233.924 154.819 234.443 155.745C237.532 161.104 241.769 166.113 246.685 170.238C247.569 170.917 247.527 172.115 246.848 172.999C246.508 173.441 245.947 173.714 245.556 173.765ZM329.873 161.525C329.482 161.576 329.091 161.627 328.87 161.458C327.815 161 327.466 159.853 327.925 158.799C330.362 153.114 331.354 147.022 331.096 140.498C330.942 139.326 331.817 138.416 333.016 138.458C334.19 138.304 335.1 139.178 335.058 140.376C335.393 147.487 334.112 154.411 331.53 160.513C331.191 160.955 330.655 161.422 329.873 161.525ZM78.746 192.441C77.9638 192.543 77.1049 192.06 76.807 191.304C76.2879 190.378 76.7209 189.129 77.6474 188.61C83.0619 185.913 88.7907 182.579 94.6894 179.024C95.6159 178.505 96.8403 178.742 97.3594 179.668C97.8784 180.594 97.6409 181.817 96.7145 182.336C90.8157 185.891 84.8914 189.251 79.5025 192.143C79.1114 192.194 78.9415 192.415 78.746 192.441ZM112.481 172.122C111.699 172.225 111.061 171.911 110.567 171.181C110.048 170.255 110.286 169.031 111.212 168.513C116.694 164.813 122.176 161.114 127.463 157.44C128.364 156.726 129.588 156.963 130.303 157.863C131.018 158.763 130.78 159.987 129.854 160.506C124.567 164.179 119.111 168.074 113.629 171.773C113.042 171.85 112.872 172.071 112.481 172.122ZM225.475 140.425C224.497 140.553 223.613 139.874 223.289 138.923C222.165 134.897 221.185 130.455 220.247 124.814C220.017 123.056 219.565 121.128 219.335 119.369C219.181 118.197 219.861 117.313 221.034 117.159C222.208 117.006 223.092 117.685 223.246 118.857C223.476 120.615 223.732 122.569 224.158 124.302C225.07 129.747 226.025 133.994 226.953 138.046C227.277 138.997 226.623 140.076 225.475 140.425C225.67 140.4 225.67 140.4 225.475 140.425ZM144.71 149.418C143.928 149.52 143.29 149.206 142.822 148.671C142.107 147.771 142.345 146.548 143.246 145.833C146.339 143.639 149.212 141.276 152.306 139.082C154.473 137.407 156.64 135.732 158.807 134.057C159.708 133.342 160.933 133.579 161.647 134.479C162.362 135.38 162.124 136.603 161.224 137.317C159.056 138.992 156.889 140.667 154.526 142.368C151.458 144.757 148.365 146.951 145.492 149.315C145.466 149.12 145.101 149.366 144.71 149.418ZM328.817 123.109C328.035 123.212 327.176 122.728 326.683 121.998C324.13 116.172 320.624 110.669 316.439 106.05C315.724 105.15 315.766 103.952 316.667 103.238C317.568 102.524 318.767 102.566 319.481 103.466C323.913 108.449 327.666 114.317 330.466 120.509C330.789 121.46 330.356 122.709 329.404 123.032C329.209 123.058 329.013 123.084 328.817 123.109ZM175.977 125.448C175.391 125.524 174.558 125.236 174.09 124.701C173.375 123.801 173.613 122.578 174.513 121.863C180.675 117.28 185.766 113.632 190.492 110.231C191.418 109.712 192.617 109.754 193.136 110.679C193.851 111.579 193.613 112.803 192.687 113.322C187.936 116.528 182.845 120.176 176.904 124.929C176.734 125.15 176.369 125.396 175.977 125.448ZM302.796 94.5228C302.405 94.574 301.988 94.4299 301.572 94.2857C296.027 91.435 289.973 89.2473 283.629 87.8924C282.601 87.6297 281.86 86.5343 282.123 85.5062C282.387 84.4781 283.483 83.7382 284.512 84.0009C291.272 85.5 297.717 87.6364 303.509 90.8523C304.368 91.3359 304.912 92.4569 304.258 93.5363C303.918 93.9783 303.383 94.4459 302.796 94.5228ZM208.674 103.278C207.892 103.38 207.059 103.092 206.761 102.336C206.242 101.41 206.479 100.187 207.601 99.6423C210.942 97.8135 214.112 96.2057 217.283 94.598C217.034 89.6623 216.98 84.701 216.953 79.935C217.02 78.9325 217.895 78.0229 218.873 77.8948C219.876 77.9621 220.787 78.8365 220.915 79.8134C220.891 84.1886 221.038 88.3428 221.21 92.6923C221.771 92.4201 222.136 92.1734 222.723 92.0966C223.649 91.5777 224.797 91.2286 225.749 90.9052C226.701 90.5817 227.951 91.0141 228.275 91.9654C228.598 92.9166 228.165 94.1658 227.213 94.4893C226.261 94.8127 225.334 95.3316 224.382 95.6551C223.43 95.9785 222.504 96.4974 221.552 96.8209C221.654 97.6024 221.561 98.4095 221.663 99.191C221.817 100.363 220.942 101.273 219.743 101.231C218.57 101.385 217.66 100.511 217.702 99.3126C217.676 99.1173 217.625 98.7265 217.599 98.5311C214.99 99.8667 212.38 101.202 209.601 102.759C209.261 103.201 208.87 103.252 208.674 103.278ZM264.712 86.1977L264.516 86.2233C258.378 86.4314 251.925 87.2768 245.354 88.734C244.18 88.8877 243.296 88.2087 242.972 87.2574C242.819 86.0851 243.499 85.2011 244.451 84.8777C251.218 83.3949 257.866 82.5238 264.395 82.2645C265.398 82.3318 266.283 83.0108 266.437 84.1831C266.565 85.16 265.689 86.0696 264.712 86.1977ZM219.784 62.0757C219.588 62.1013 219.588 62.1013 219.393 62.1269C218.39 62.0596 217.479 61.1852 217.521 59.9873C218.045 53.3605 218.765 46.7081 219.705 40.2254C219.969 39.1973 220.869 38.4831 221.873 38.5503C222.902 38.813 223.616 39.713 223.549 40.7155C222.608 47.1982 221.863 53.6553 221.313 60.0867C221.467 61.259 220.762 61.9476 219.784 62.0757ZM225.623 23.154C225.428 23.1797 225.232 23.2053 225.011 23.0355C223.982 22.7729 223.242 21.6774 223.505 20.6493C225.058 14.2852 226.781 7.70001 228.75 1.48C229.013 0.451875 230.135 -0.0925936 231.164 0.170065C232.193 0.432724 232.738 1.55375 232.475 2.58188C230.505 8.80189 228.757 15.1917 227.399 21.5302C227.136 22.5583 226.601 23.0259 225.623 23.154Z" fill="black"/>
</svg>
