<svg width="322" height="195" viewBox="0 0 322 195" fill="none" xmlns="http://www.w3.org/2000/svg">
<path d="M281.24 193.256C276.453 193.821 271.443 194.242 266.189 194.353C265.168 194.304 264.079 193.755 264.141 192.731C264.226 191.874 264.91 190.946 266.129 190.972C271.361 190.694 276.394 190.439 280.981 189.898C282.577 189.71 284.372 189.498 285.968 189.31C286.942 189.026 288.054 189.742 288.192 190.742C288.329 191.743 287.623 192.504 286.426 192.645C284.83 192.833 283.035 193.045 281.24 193.256ZM305.829 187.815C305.031 187.909 304.165 187.503 303.674 186.883C303.36 186.073 303.821 185.002 304.796 184.718C309.998 182.749 314.556 180.517 318.424 177.688C319.352 177.071 320.572 177.096 321.285 177.859C321.998 178.622 321.936 179.646 321.007 180.264C316.963 183.283 312.029 185.728 306.451 187.911C306.029 187.791 305.829 187.815 305.829 187.815ZM246.343 194.491C246.144 194.515 246.144 194.515 245.944 194.538C239.225 194.314 232.482 193.923 225.893 193.175C224.873 193.126 223.938 192.22 224.222 191.339C224.307 190.482 225.412 189.674 226.455 189.889C233.021 190.471 239.564 190.885 246.284 191.109C247.304 191.158 248.217 191.898 248.155 192.922C248.07 193.779 247.341 194.373 246.343 194.491ZM206.701 190.694C206.502 190.718 206.303 190.741 206.08 190.598C199.445 189.516 192.964 188.078 186.483 186.64C185.44 186.424 184.903 185.47 185.188 184.59C185.472 183.709 186.623 183.234 187.666 183.45C193.948 184.912 200.429 186.351 206.865 187.455C207.908 187.671 208.644 188.601 208.359 189.482C208.228 190.006 207.499 190.6 206.701 190.694ZM168.475 180.969C168.076 181.016 167.677 181.063 167.432 180.753C161.235 178.434 155.368 175.568 149.855 172.321C148.965 171.748 148.828 170.748 149.334 170.01C149.841 169.273 151.237 169.108 152.104 169.514C157.395 172.618 163.039 175.341 169.014 177.517C170.08 177.9 170.417 178.876 169.933 179.781C169.825 180.471 169.273 180.875 168.475 180.969ZM136.084 162.084C135.485 162.155 134.864 162.059 134.396 161.606C129.589 157.598 125.357 153.353 121.479 148.727C120.766 147.964 121.027 146.916 121.956 146.299C122.884 145.681 124.127 145.873 124.84 146.636C128.496 151.119 132.728 155.364 137.29 159.062C137.98 159.658 138.14 160.825 137.212 161.443C136.882 161.99 136.483 162.037 136.084 162.084ZM113.701 134.903C112.903 134.997 112.037 134.591 111.546 133.971C110.941 132.518 110.336 131.064 109.731 129.61C108.488 129.418 107.046 129.249 105.803 129.057C104.76 128.841 104.047 128.078 104.309 127.031C104.593 126.15 105.522 125.532 106.764 125.724C107.386 125.82 108.206 125.893 108.828 125.989C108.491 125.012 108.33 123.845 108.193 122.845C107.918 120.844 107.843 118.82 107.99 116.939C108.074 116.081 108.98 115.297 110.2 115.322C111.22 115.372 112.132 116.111 112.07 117.135C111.901 118.849 111.953 120.707 112.205 122.541C112.388 123.875 112.771 125.185 113.177 126.662C117.503 127.169 121.983 127.318 126.463 127.468C127.483 127.517 128.395 128.257 128.31 129.114C128.225 129.971 127.32 130.756 126.3 130.706C122.441 130.653 118.36 130.457 114.456 130.07C114.77 130.88 115.107 131.857 115.62 132.644C115.934 133.454 115.473 134.525 114.499 134.809C114.1 134.856 113.9 134.88 113.701 134.903ZM146.406 129.521C145.409 129.639 144.32 129.09 144.183 128.089C144.045 127.089 144.751 126.328 145.948 126.187C148.741 125.857 151.51 125.361 154.28 124.865C158.622 124.014 161.944 123.114 165.044 122.071C166.018 121.787 167.284 122.146 167.598 122.956C167.912 123.766 167.451 124.837 166.477 125.121C163.2 126.355 159.679 127.278 154.914 128.01C152.168 128.672 149.199 129.192 146.406 129.521ZM180.575 114.14C180.176 114.187 179.754 114.067 179.532 113.924C178.466 113.541 178.129 112.564 178.613 111.66C180.748 108.02 181.594 103.853 181.067 100.018C180.976 99.3515 180.884 98.6845 180.57 97.8744C180.501 97.3741 180.233 96.8975 180.164 96.3973C179.85 95.5871 180.311 94.5161 181.485 94.2083C182.46 93.9239 183.725 94.283 184.062 95.2599C184.353 95.9033 184.422 96.4035 184.713 97.0469C185.027 97.8571 185.142 98.6908 185.256 99.5244C185.875 104.026 184.897 108.716 182.432 112.904C181.749 113.832 181.174 114.069 180.575 114.14ZM87.1577 124.648C86.7588 124.695 86.5593 124.718 86.1375 124.599C79.8099 122.803 73.8126 120.461 68.1684 117.737L67.7465 117.618C66.8799 117.212 66.5201 116.068 67.0268 115.331C67.5336 114.593 68.9069 114.262 69.7735 114.668L70.1953 114.787C75.6172 117.367 81.5917 119.543 87.5203 121.386C88.5863 121.768 89.1227 122.722 88.616 123.459C88.5081 124.15 87.9555 124.554 87.1577 124.648ZM117.219 102.973C116.82 103.02 116.199 102.924 115.754 102.637C114.864 102.065 114.727 101.064 115.433 100.303C119.294 95.9508 124.421 91.9574 130.614 88.3467C131.543 87.7289 132.785 87.9212 133.299 88.7079C133.812 89.4945 133.75 90.5184 132.799 90.9695C126.782 94.39 122.032 98.1695 118.523 102.141C118.193 102.689 117.817 102.902 117.219 102.973ZM52.6939 108.379C52.0955 108.45 51.6736 108.33 51.2289 108.044C46.0685 104.417 41.2841 100.575 36.8529 96.3537C36.1399 95.5906 36.2019 94.5667 37.1305 93.9489C38.0591 93.3311 39.2788 93.3567 39.9917 94.1198C44.2006 98.1982 48.985 102.039 53.923 105.524C54.8125 106.096 54.95 107.097 54.2438 107.858C53.6683 108.095 53.2923 108.309 52.6939 108.379ZM169.739 85.4273C169.34 85.4743 168.918 85.3547 168.496 85.235C166.763 84.4227 164.876 83.9675 162.79 83.5358C158.839 82.8155 154.804 82.9525 150.263 83.827C149.265 83.9446 148.199 83.562 147.862 82.5851C147.525 81.6082 148.232 80.8472 149.405 80.5393C154.523 79.4275 159.179 79.3867 163.751 80.2031C166.036 80.6113 168.146 81.2098 170.301 82.1417C171.367 82.5243 171.704 83.5012 171.02 84.429C170.912 85.1194 170.337 85.3567 169.739 85.4273ZM26.7504 83.3124C25.9526 83.4065 25.3084 83.1436 24.8178 82.5237C21.3151 77.6842 18.1885 72.6309 15.6602 67.5071C15.3462 66.6969 15.8071 65.626 16.7815 65.3416C17.7559 65.0573 19.0214 65.4164 19.3354 66.2265C21.8408 71.1836 24.7451 76.0936 28.2249 80.7664C28.7383 81.553 28.4769 82.6005 27.5254 83.0516C27.3488 83.2418 27.1494 83.2653 26.7504 83.3124ZM10.8287 52.997C10.0309 53.0911 9.1643 52.6849 8.67373 52.065C6.92712 48.2045 4.95814 44.2008 4.47703 40.6994C4.24794 39.032 3.79647 37.2214 3.56737 35.5541C3.42991 34.5537 4.13613 33.7927 5.33291 33.6515C6.52969 33.5104 7.41918 34.0832 7.55664 35.0837C7.78574 36.751 8.21428 38.3948 8.46629 40.2289C9.10104 43.3734 10.8706 47.4006 12.5714 50.9277C12.8854 51.7378 12.4244 52.8088 11.45 53.0931C11.2047 52.7832 11.0282 52.9734 10.8287 52.997ZM3.67669 20.1225C2.47991 20.2636 1.5675 19.524 1.45296 18.6903C0.87349 12.9978 0.516401 7.4485 0.159309 1.8992C0.021851 0.898786 0.927523 0.114237 2.14721 0.13984C3.34399 -0.00129116 4.2564 0.738297 4.19439 1.76223C4.55148 7.31153 5.10804 12.8373 5.48804 18.5534C5.57968 19.2203 4.674 20.0048 3.67669 20.1225Z" fill="black"/>
</svg>
