<svg width="289" height="201" viewBox="0 0 289 201" fill="none" xmlns="http://www.w3.org/2000/svg">
<path d="M228.599 116.947C229.183 116.35 229.323 115.236 228.657 114.461C227.99 113.686 227.079 113.648 226.377 114.364C225.91 114.842 225.442 115.32 224.974 115.798C221.59 119.013 217.867 122.09 214.033 125.037C213.337 125.505 213.08 126.739 213.635 127.384C214.191 128.03 215.208 128.447 215.793 127.849C219.744 124.783 223.584 121.586 226.968 118.371C227.547 118.022 228.014 117.545 228.599 116.947ZM239.844 104.486C243.251 100.276 246.554 95.6885 250.095 90.6134C250.569 89.887 250.481 88.7635 249.698 88.108C249.025 87.5817 247.997 87.6624 247.406 88.5082C243.981 93.4639 240.679 98.0514 237.506 102.022C237.032 102.749 236.892 103.863 237.675 104.518C238.231 105.164 239.26 105.083 239.844 104.486ZM202.343 136.982C202.811 136.504 203.062 135.52 202.623 134.754C202.185 133.989 201.168 133.573 200.472 134.041C195.96 136.711 191.336 139.251 186.146 141.643C185.339 141.982 184.971 143.086 185.293 143.971C185.614 144.855 186.631 145.272 187.438 144.933C192.745 142.422 197.369 139.881 201.998 137.092C202.226 137.102 202.226 137.102 202.343 136.982ZM259.096 76.5633C259.213 76.4439 259.213 76.4439 259.33 76.3244C262.532 71.1105 265.384 66.255 268.008 61.3897C268.371 60.5342 268.166 59.5301 267.494 59.0038C266.821 58.4775 265.787 58.8067 265.313 59.5331C262.806 64.2789 259.954 69.1345 256.757 74.0998C256.284 74.8262 256.483 76.0789 257.155 76.6052C257.711 77.2509 258.511 77.1606 259.096 76.5633ZM173.141 151.292C173.608 150.815 173.854 150.079 173.526 149.442C173.205 148.558 172.304 148.022 171.381 148.48C166.886 150.404 161.935 152.309 156.294 154.433C155.488 154.772 155.008 155.747 155.33 156.631C155.652 157.516 156.552 158.052 157.358 157.713C162.999 155.589 167.95 153.684 172.445 151.761C172.79 151.651 173.024 151.412 173.141 151.292ZM275.431 46.5259C275.547 46.4065 275.664 46.287 275.67 46.0384C278.195 40.5468 280.374 35.1649 282.098 29.7637C282.461 28.9081 282.028 27.8943 281.239 27.4875C280.449 27.0806 279.526 27.539 279.164 28.3946C277.446 33.5472 275.266 38.9291 272.858 44.3013C272.496 45.1568 272.812 46.29 273.601 46.6969C274.273 47.2232 274.963 47.0037 275.431 46.5259ZM142.751 162.691C143.219 162.213 143.347 161.596 143.137 160.841C142.815 159.956 141.915 159.42 141.108 159.759C136.964 161.324 131.329 163.2 125.922 165.085C125.115 165.424 124.636 166.399 124.958 167.284C125.279 168.168 126.18 168.704 126.986 168.365C132.621 166.49 138.145 164.485 142.4 163.049C142.4 163.049 142.517 162.929 142.751 162.691ZM286.58 13.7794C286.814 13.5405 286.936 13.1724 286.942 12.9238C287.824 9.35312 288.368 5.64354 288.905 2.18256C289.039 1.31732 288.379 0.293812 287.584 0.135562C286.789 -0.0226879 285.859 0.68431 285.725 1.54955C285.188 5.01053 284.65 8.47151 283.768 12.0422C283.517 13.0269 284.066 13.9213 284.972 14.2087C285.539 14.3572 286.229 14.1377 286.58 13.7794ZM112.052 172.707C112.519 172.229 112.648 171.612 112.548 170.986C112.344 169.982 111.443 169.446 110.526 169.656C105.358 171.053 100.542 172.093 95.842 173.012L94.9243 173.222C94.0066 173.432 93.4163 174.278 93.621 175.282C93.8257 176.286 94.6091 176.941 95.5268 176.732L96.5556 176.651C101.255 175.731 106.189 174.572 111.356 173.175C111.473 173.055 111.818 172.946 112.052 172.707ZM80.1942 178.568C80.5449 178.209 80.7845 177.722 80.6851 177.096C80.5914 176.221 79.697 175.436 78.8962 175.526C76.8386 175.688 74.7751 176.098 72.7175 176.259C69.5142 176.62 66.083 176.972 62.8797 177.333C62.0788 177.424 61.3716 178.389 61.4653 179.264C61.5589 180.139 62.4534 180.923 63.2542 180.833C66.4575 180.472 69.7777 179.991 72.981 179.629C75.0386 179.468 77.2131 179.187 79.1596 178.897C79.7267 179.046 79.9604 178.807 80.1942 178.568ZM48.3718 182.937C48.7225 182.579 48.9679 181.843 48.7515 181.336C48.5468 180.332 47.7634 179.676 46.8457 179.886C41.5732 180.906 36.289 182.423 31.0048 183.94C30.1982 184.279 29.719 185.254 29.9295 186.01C30.2511 186.894 31.1514 187.43 31.8412 187.211C37.0142 185.564 42.1815 184.167 47.3371 183.266C47.7931 183.286 48.138 183.176 48.3718 182.937ZM17.567 192.576C18.0346 192.098 18.28 191.362 17.9526 190.726C17.631 189.841 16.7307 189.305 15.8072 189.763C10.9673 191.797 6.00479 194.199 0.925335 196.72C0.118693 197.059 -0.249464 198.163 0.183226 199.177C0.504835 200.062 1.52202 200.478 2.44555 200.02C7.29703 197.489 12.2596 195.087 16.9825 193.173C17.2163 192.934 17.3332 192.815 17.567 192.576Z" fill="black"/>
</svg>
