<svg width="298" height="264" viewBox="0 0 298 264" fill="none" xmlns="http://www.w3.org/2000/svg">
<path d="M224.615 52.4099C224.106 53.3129 223.291 54.1156 222.578 54.818C221.763 55.6207 220.948 56.4234 220.133 57.2261C219.522 57.8281 218.707 57.9284 218.096 57.7277C215.855 61.1392 212.901 63.9486 209.743 66.4571C206.178 69.2665 202.51 72.377 198.232 74.2834C198.232 74.785 198.13 75.2867 198.13 75.7884C197.723 77.8955 196.195 79.7016 194.565 81.1063C190.694 84.3171 186.212 86.9258 182.138 89.8356C177.859 92.8457 173.785 96.0565 170.118 99.769C169.71 100.17 169.303 100.271 168.895 100.371C166.756 102.378 163.496 103.381 160.542 103.682C157.894 103.883 155.144 103.582 152.597 103.281C149.745 102.879 146.893 102.478 143.938 102.077C143.429 101.976 143.022 101.675 142.818 101.274C141.494 102.578 140.068 103.782 138.743 104.987C136.502 106.993 134.261 108.9 132.02 110.706C131.715 110.906 131.409 111.107 131.104 111.107L131.002 111.207C128.761 112.512 126.01 112.01 123.668 111.107C121.528 110.304 119.593 109.301 117.861 107.896C114.398 105.288 111.546 101.274 110.629 97.0599C110.221 95.0531 110.12 92.6451 111.342 90.839C111.444 90.4376 111.749 90.0363 112.157 89.7353C114.398 88.3306 116.333 86.4241 118.065 84.3171C117.963 84.2167 117.963 84.1164 117.861 84.0161C117.861 84.0161 117.861 84.0161 117.759 83.9157C117.658 83.8154 117.556 83.715 117.556 83.6147C117.454 83.5144 117.352 83.5144 117.25 83.414C117.148 83.3137 117.046 83.3137 116.944 83.2134C116.944 83.2134 116.944 83.2134 116.843 83.2134C116.741 83.2134 116.028 82.9124 115.926 82.9124C115.213 82.6113 114.398 82.4107 113.685 82.1096C113.481 82.1096 113.379 82.0093 113.176 81.909C112.972 81.8086 112.768 81.8086 112.564 81.7083C111.953 83.6147 110.833 85.3204 109.101 86.7252C107.166 88.3306 104.924 89.4343 102.887 90.9393C100.85 92.4444 99.0164 94.2504 97.3865 96.0565C97.1828 96.3575 96.8772 96.4579 96.6735 96.5582C95.8586 97.1602 94.7381 97.4612 93.5157 97.4612C90.7654 97.4612 87.9132 96.4579 85.3666 95.3542C80.9864 93.4477 77.1156 90.237 74.8746 86.0228C73.5503 83.715 72.6335 81.0059 73.1429 78.3972C73.3466 77.3938 73.754 76.4908 74.3652 75.7884C74.3652 75.3871 74.569 74.8854 74.8746 74.484C77.1156 72.0759 79.4584 69.7682 82.0051 67.5608C78.8473 65.554 76.81 62.0422 76.7081 58.2294C76.7081 57.9284 76.7081 57.6274 76.7081 57.3264C76.6062 57.1257 76.6062 56.925 76.6062 56.7244C76.3007 53.2126 76.7081 49.6004 80.1715 47.694C80.9864 47.2927 81.8013 46.8913 82.7181 46.5903C83.1256 46.189 83.533 45.6873 83.9405 45.2859C90.0523 38.3627 96.1642 30.2354 104.924 26.4226C104.721 25.8205 104.721 25.0178 105.332 24.4158C109.407 20.2017 113.685 15.9875 117.658 11.5727C118.472 10.6696 119.389 9.66626 120.102 8.66289C120.612 7.96053 121.121 7.35851 121.834 6.85682C122.038 4.95042 123.362 3.24469 124.992 2.14098C126.927 0.736257 129.372 0.134235 131.715 0.0338974C133.752 -0.0664397 135.993 0.0338974 137.929 0.63592C140.068 1.33828 141.901 2.64266 143.531 4.14772C146.689 6.95716 149.541 10.1679 152.088 13.4791C154.532 16.5895 156.672 20.2017 157.486 24.1148C158.403 28.2286 154.94 31.8408 151.884 34.2489C151.069 34.9512 150.05 34.8509 149.337 34.3492C148.726 35.3526 147.911 36.3559 147.198 37.3593C147.504 37.6603 147.911 37.861 148.217 38.162C149.643 39.5667 150.662 41.1721 151.884 42.7775C152.903 44.0819 154.023 45.4866 155.653 45.9883C157.385 46.49 159.116 46.0886 160.746 45.4866C164.108 44.3829 167.265 42.8778 170.831 42.8778C171.544 42.2758 172.664 42.0751 173.581 42.8778C174.294 43.5802 175.007 44.2826 175.822 44.9849C179.387 40.2691 182.341 35.0515 184.582 29.6333C184.684 29.4327 184.786 29.232 184.888 29.1317C184.888 28.8306 184.99 28.63 185.092 28.329C185.703 27.1249 186.314 25.9209 186.925 24.7168C187.435 23.7135 187.842 22.7101 188.861 22.1081C191 20.904 193.75 21.9074 195.889 22.6097C199.964 24.0145 204.038 25.6199 207.909 27.5263C211.474 29.3323 215.549 31.3391 218.299 34.3492C221.152 37.4596 222.883 41.7741 223.902 45.6873C224.615 47.694 225.532 50.5035 224.615 52.4099Z" fill="white"/>
<path d="M130.9 100.07C130.595 99.1671 129.78 98.565 128.863 98.565C128.761 98.565 128.659 98.565 128.558 98.565C127.844 98.264 127.233 97.8627 126.724 97.4613C126.52 97.2607 126.317 97.1603 126.215 96.9597C126.113 96.759 125.909 96.5583 125.807 96.2573C125.502 95.4546 125.196 94.5516 124.789 93.7489C124.585 93.2472 124.381 92.8458 123.872 92.5448C123.464 92.2438 122.751 92.1435 122.344 92.3441C121.325 92.6452 120.51 93.7489 120.918 94.8526C121.325 95.9563 121.733 97.06 122.242 98.1637C122.751 99.3677 123.668 100.17 124.585 100.873C125.502 101.575 126.418 102.077 127.539 102.478C128.456 102.779 129.474 102.98 130.289 102.278C130.9 101.776 131.206 100.873 130.9 100.07Z" fill="#59C59F"/>
<path d="M95.0442 84.2167L91.9883 81.8086C91.1734 81.1062 90.2566 80.4039 89.5435 79.6012C89.3398 79.3002 89.1361 79.0995 89.0342 78.7985C88.8305 78.3971 88.2193 77.9958 87.8119 77.8955C87.3025 77.7951 86.6913 77.7951 86.2839 78.0961C85.8764 78.3971 85.469 78.7985 85.3671 79.3002C85.2652 79.9022 85.3671 80.3036 85.5708 80.8052C86.182 82.21 87.4044 83.3137 88.5249 84.2167C89.7473 85.2201 90.9696 86.1231 92.192 87.1265C92.5995 87.4275 93.0069 87.7285 93.6181 87.7285C94.1274 87.7285 94.7386 87.5278 95.0442 87.1265C95.3498 86.7251 95.6554 86.2234 95.6554 85.7218C95.5535 85.2201 95.4517 84.618 95.0442 84.2167Z" fill="#59C59F"/>
<path d="M219.522 41.473C218.197 38.3625 216.262 35.0514 213.614 32.844C210.659 30.4359 206.687 29.5329 203.223 28.2285C199.353 26.8238 195.482 25.419 191.611 24.0143C189.879 23.4123 188.861 25.0177 189.166 26.4224C189.064 26.4224 188.962 26.5228 188.861 26.5228C188.453 26.8238 188.046 27.2251 187.944 27.7268C187.842 28.2285 187.842 28.8305 188.147 29.2319C188.453 29.6332 188.861 30.0346 189.37 30.1349C189.879 30.2352 190.49 30.2352 190.898 29.9342C191 29.9342 191.102 29.8339 191.203 29.8339C191.305 29.8339 191.509 29.8339 191.611 29.8339C192.12 29.9342 192.629 30.0346 193.139 30.2352C193.648 30.4359 194.259 30.3356 194.667 30.0346C194.871 29.9342 195.074 29.7335 195.176 29.6332C197.01 30.3356 198.843 30.9376 200.779 31.6399C202.408 32.242 204.038 32.844 205.77 33.446C207.298 34.048 209.03 34.5497 210.354 35.4528C212.799 37.1585 214.327 40.0683 215.549 42.677C216.873 45.5868 217.79 48.6973 218.096 51.8077C218.197 52.9114 218.91 53.8145 220.133 53.8145C221.151 53.8145 222.272 52.9114 222.17 51.8077C221.865 48.1956 220.948 44.7841 219.522 41.473Z" fill="#F7C300"/>
<path d="M153.718 25.4191C153.616 22.9106 152.699 20.5025 151.681 18.1948C150.255 15.1847 148.319 12.3752 146.078 9.96714C143.837 7.55905 141.087 5.45197 138.133 3.94691C137.827 3.74624 137.42 3.6459 137.114 3.54556C137.012 3.44523 136.911 3.34489 136.911 3.24455C135.383 1.83983 133.345 1.63916 131.308 1.83983C130.289 1.94017 129.169 2.04051 128.048 2.24118C126.724 2.44186 125.705 3.24455 125.298 4.4486C125.196 4.64927 125.196 4.74961 125.196 4.95028C123.872 5.85332 123.77 8.06073 125.705 8.56242C129.373 9.46545 132.938 10.7698 136.299 12.4756C137.624 13.6796 139.05 14.683 140.374 15.7867C141.8 16.9907 143.124 18.2951 144.245 19.6998C146.486 22.4089 148.116 25.5194 149.134 28.8305C149.236 30.7369 152.394 31.3389 153.209 29.1315C153.514 28.1282 153.718 27.0244 153.718 26.0211C153.718 25.7201 153.718 25.5194 153.718 25.4191Z" fill="#F7C300"/>
<path d="M147.606 51.0054C147.3 49.1993 146.994 47.3932 146.179 45.7878C145.364 44.1825 143.837 43.2794 142.309 42.5771C138.438 40.9717 134.261 39.868 130.085 41.4734C129.576 41.674 129.168 41.975 128.862 42.3764C128.353 42.3764 127.742 42.5771 127.436 42.9784C126.112 44.5838 124.686 45.9885 123.056 47.2929C121.936 48.1959 122.547 50.4034 123.973 50.604C127.131 51.1057 130.187 52.2094 132.937 53.8148C134.261 54.6175 135.484 55.5205 136.706 56.6243C137.215 57.1259 137.725 57.728 138.336 58.1293C139.253 58.7313 140.169 58.7313 141.188 58.4303C142.92 57.8283 144.55 56.9253 145.976 55.7212C147.606 54.5172 147.911 52.9118 147.606 51.0054Z" fill="#59C59F"/>
<path d="M120.714 67.9622C120.409 67.3602 119.899 66.7581 119.492 66.2564C119.084 65.7548 118.575 65.2531 118.066 64.8517C117.251 64.049 116.436 63.146 115.214 63.146C114.297 63.146 113.482 63.748 113.176 64.5507C112.973 64.7514 112.769 64.9521 112.667 65.1527C112.361 65.6544 112.361 66.1561 112.463 66.6578C112.973 69.1662 115.01 71.3736 117.556 72.076C117.964 72.1763 118.371 72.2767 118.779 72.2767C119.594 72.1763 120.409 71.775 120.816 71.0726C121.325 69.9689 121.122 68.8652 120.714 67.9622Z" fill="#F7C300"/>
<path d="M119.491 62.0425C119.491 62.0425 119.391 62.1425 119.491 62.0425C119.391 62.1425 119.491 62.0425 119.491 62.0425Z" fill="black"/>
<path d="M224.106 45.8875C223.087 41.874 221.355 37.5595 218.503 34.5494C215.753 31.5393 211.678 29.5325 208.113 27.7265C204.242 25.8201 200.168 24.1143 196.093 22.8099C193.954 22.1076 191.204 21.1042 189.065 22.3083C188.046 22.9103 187.638 23.9137 187.129 24.917C186.518 26.1211 185.907 27.3251 185.296 28.5292C185.194 28.8302 185.092 29.0308 185.092 29.3319C184.99 29.5325 184.888 29.6329 184.786 29.8335C182.545 35.2517 179.591 40.4693 176.026 45.1851C175.313 44.4828 174.6 43.7804 173.785 43.078C172.868 42.2753 171.748 42.476 171.035 43.078C167.469 43.078 164.312 44.5831 160.95 45.6868C159.32 46.1885 157.487 46.6902 155.857 46.1885C154.227 45.6868 153.005 44.2821 152.088 42.9777C150.865 41.3723 149.847 39.7669 148.421 38.3622C148.115 38.0612 147.81 37.7602 147.402 37.5595C148.115 36.6565 148.93 35.6531 149.541 34.5494C150.254 35.0511 151.273 35.1514 152.088 34.4491C155.042 32.041 158.607 28.4288 157.69 24.315C156.774 20.4019 154.634 16.7897 152.292 13.6793C149.745 10.3681 146.791 7.15735 143.633 4.34791C142.003 2.84286 140.17 1.53848 138.031 0.836115C136.095 0.234093 133.854 0.133756 131.817 0.234093C129.474 0.434767 127.029 0.936453 125.094 2.34117C123.362 3.44488 122.038 5.15061 121.834 7.05702C121.121 7.5587 120.612 8.16072 120.102 8.86308C119.288 9.86646 118.473 10.7695 117.658 11.7729C113.685 16.0874 109.407 20.3015 105.332 24.616C104.721 25.218 104.619 26.0207 104.925 26.6228C96.1643 30.5359 90.0525 38.5629 83.9406 45.4861C83.5332 45.8875 83.1257 46.3892 82.7183 46.7905C81.8015 47.0915 80.9866 47.4929 80.1717 47.8942C76.7083 49.8006 76.3008 53.4128 76.6064 56.9246C76.6064 57.1252 76.7083 57.3259 76.7083 57.5266C76.7083 57.8276 76.7083 58.1286 76.7083 58.4296C76.8101 62.2424 78.8474 65.6539 82.0052 67.6606C79.5605 69.868 77.1157 72.1758 74.8747 74.5839C74.4673 74.9852 74.3654 75.3866 74.3654 75.8883C73.7542 76.691 73.3468 77.594 73.143 78.497C72.6337 81.2061 73.6524 83.8149 74.8747 86.1227C77.1157 90.2365 81.0884 93.5476 85.3667 95.454C87.8115 96.5577 90.7655 97.5611 93.5159 97.5611C94.8401 97.5611 95.8587 97.1597 96.6737 96.6581C96.9793 96.5577 97.183 96.357 97.3867 96.1564C99.1184 94.3503 100.952 92.5442 102.887 91.0392C104.925 89.5341 107.166 88.3301 109.101 86.825C110.731 85.5206 111.851 83.7146 112.564 81.8082C112.768 81.8082 112.972 81.9085 113.176 82.0088C113.278 82.1092 113.481 82.1092 113.583 82.2095C114.296 82.5105 115.009 82.8115 115.824 83.0122C115.926 83.0122 116.639 83.3132 116.741 83.3132C116.741 83.3132 116.741 83.3132 116.843 83.3132C116.945 83.4136 117.047 83.4136 117.148 83.5139C117.25 83.6142 117.352 83.6142 117.454 83.7146C117.556 83.8149 117.658 83.9152 117.658 83.9152C117.658 83.9152 117.658 84.0156 117.76 84.0156C117.861 84.1159 117.861 84.2163 117.963 84.3166C116.232 86.3233 114.398 88.2297 112.055 89.7348C111.546 90.0358 111.342 90.4372 111.24 90.8385C110.018 92.6446 110.12 95.0527 110.527 97.0594C111.444 101.374 114.296 105.287 117.76 107.896C119.491 109.301 121.427 110.304 123.566 111.107C125.909 111.909 128.659 112.511 130.9 111.207L131.002 111.107C131.307 111.006 131.613 110.906 131.919 110.705C134.262 108.799 136.503 106.892 138.642 104.986C139.966 103.782 141.392 102.578 142.716 101.274C143.022 101.675 143.327 101.976 143.837 102.076C146.689 102.478 149.541 102.879 152.495 103.28C155.144 103.682 157.792 103.983 160.441 103.682C163.497 103.381 166.654 102.377 168.794 100.371C169.201 100.371 169.608 100.17 170.016 99.7685C173.683 96.1564 177.758 92.8453 182.036 89.8351C186.11 86.9254 190.592 84.3166 194.463 81.1058C196.093 79.7011 197.621 77.895 198.029 75.7879C198.13 75.2863 198.13 74.7846 198.13 74.2829C202.409 72.3765 206.076 69.3664 209.641 66.4566C212.799 63.9482 215.855 61.1387 217.994 57.7273C218.605 58.0283 219.42 57.9279 220.031 57.3259C220.846 56.5232 221.661 55.7205 222.476 54.9178C223.189 54.2155 224.106 53.5131 224.513 52.5097C225.532 50.503 224.513 47.6935 224.106 45.8875ZM149.134 45.8875C149.847 46.7905 150.662 47.5932 151.578 48.2956C150.967 48.9979 150.356 49.7003 149.643 50.4026C149.439 50.1016 149.337 49.8006 149.134 49.4996C149.134 49.3993 149.134 49.2989 149.032 49.1986C147.911 45.4861 145.161 42.5764 141.494 41.1716C139.559 40.3689 137.419 40.1683 135.382 39.9676C134.16 39.8673 132.937 39.7669 131.613 39.5662C131.817 39.1649 132.021 38.8639 132.224 38.4625C133.039 38.7635 133.956 38.8639 134.873 38.7635C137.012 38.6632 139.049 38.4625 141.086 38.9642C145.161 39.8673 146.791 42.9777 149.134 45.8875ZM119.899 70.0687C119.797 70.0687 119.797 70.1691 119.899 70.0687C119.491 70.3697 119.084 70.6707 118.676 70.7711C118.574 70.8714 118.473 70.8714 118.371 70.9718C118.371 70.9718 118.371 70.9718 118.269 70.9718C118.065 71.0721 117.76 71.0721 117.556 71.1724C117.454 71.1724 117.352 71.1724 117.25 71.1724C117.148 71.1724 117.047 71.1724 116.945 71.0721C116.945 71.0721 116.843 71.0721 116.843 70.9718C116.741 70.9718 116.741 70.8714 116.741 70.8714C116.537 70.7711 116.333 70.6707 116.232 70.5704C116.232 70.5704 115.926 70.3697 115.926 70.2694C115.722 70.1691 115.62 69.9684 115.417 69.7677C115.213 69.567 115.111 69.3664 114.907 69.1657C114.907 69.1657 114.805 69.0654 114.805 68.965C114.805 68.8647 114.704 68.8647 114.704 68.7643C114.398 68.363 114.092 67.8613 113.889 67.46C113.889 67.3596 113.787 67.2593 113.787 67.159C113.685 66.8579 113.583 66.5569 113.481 66.2559V66.1556C113.481 66.0552 113.481 65.9549 113.481 65.7542C113.481 65.6539 113.583 65.5536 113.583 65.5536C113.583 65.5536 113.583 65.5536 113.685 65.5536H113.787C114.092 65.5536 114.398 65.4532 114.704 65.3529C114.704 65.3529 114.805 65.3529 114.805 65.2525C115.009 65.1522 115.213 65.1522 115.315 65.0519C115.417 65.0519 115.417 65.0519 115.519 65.0519C115.722 65.0519 116.028 65.0519 116.232 65.0519C116.333 65.0519 116.435 65.0519 116.537 65.0519C116.639 65.0519 116.639 65.0519 116.639 65.0519C116.741 65.0519 116.945 65.1522 116.945 65.1522C117.047 65.1522 117.352 65.3529 117.454 65.3529C117.556 65.3529 117.658 65.4532 117.658 65.4532C117.76 65.5536 117.963 65.6539 118.065 65.7542C118.167 65.8546 118.167 65.8546 118.269 65.9549C118.371 66.0552 118.574 66.2559 118.574 66.2559C118.676 66.4566 118.778 66.5569 118.88 66.7576C118.982 66.9583 119.084 67.159 119.186 67.3596C119.186 67.3596 119.186 67.46 119.288 67.5603C119.288 67.6606 119.389 67.6606 119.389 67.761C119.593 68.1623 119.695 68.664 119.899 69.0653C120.001 69.266 120.001 69.4667 120.102 69.6674V69.7677C119.899 69.9684 119.899 70.0687 119.899 70.0687ZM119.389 62.1421C119.389 62.0418 119.491 62.0418 119.389 62.1421C119.491 62.0418 119.491 62.0418 119.389 62.1421C119.491 62.0418 119.491 62.0418 119.389 62.1421C119.491 62.0418 119.593 61.9414 119.695 61.9414C119.899 61.8411 120.102 61.6404 120.408 61.5401C121.325 61.0384 122.343 60.5367 123.158 59.9347C123.464 59.6337 123.77 59.3327 124.075 59.0316C124.279 59.2323 124.584 59.433 124.89 59.5333C125.399 59.734 125.807 59.8343 126.214 60.035C125.094 61.2391 124.483 62.7441 123.77 64.2492C123.464 64.9515 123.158 65.6539 122.853 66.3562C122.343 65.1522 121.732 63.9482 120.612 63.0451C120.306 62.6438 119.899 62.3428 119.389 62.1421ZM121.019 74.0822C121.427 73.8815 121.732 73.6809 122.14 73.3798C122.242 73.3798 122.343 73.4802 122.445 73.4802C123.566 73.7812 124.584 73.1792 124.992 72.0755C125.399 71.0721 125.705 70.0687 126.112 69.0653C126.316 68.5637 126.52 67.9616 126.724 67.46C126.927 66.9583 127.029 66.7576 127.233 66.3562C127.64 65.4532 128.048 64.5502 128.455 63.7475C128.659 63.4465 128.863 63.1455 129.066 62.8445C129.168 62.7441 129.372 62.5434 129.372 62.5434C129.474 62.4431 129.474 62.4431 129.576 62.3428C129.576 62.3428 129.576 62.3428 129.678 62.3428L129.78 62.2424C130.289 62.6438 130.798 63.0451 131.307 63.5468C133.345 65.3529 135.484 66.6573 138.031 67.6606C140.068 68.4633 142.309 68.965 144.346 69.868C143.735 69.868 143.226 69.868 142.614 69.868C139.355 69.9684 136.095 70.3697 133.039 71.5738C132.53 71.7745 132.122 72.0755 131.919 72.4768C130.594 72.1758 129.168 72.5771 127.946 73.3798C126.927 74.0822 126.011 74.8849 125.196 75.6876C124.483 75.0856 123.566 74.5839 122.547 74.3832C122.038 74.2829 121.529 74.1825 121.019 74.0822ZM133.549 59.9347C131.307 57.9279 128.863 56.5232 126.011 55.5198C125.603 55.4195 125.298 55.4195 124.992 55.4195C124.788 55.2188 124.584 55.0182 124.381 54.9178C124.177 54.7171 123.973 54.6168 123.668 54.6168C123.362 54.5165 123.158 54.5165 122.853 54.6168C122.14 54.5165 121.325 54.5165 120.612 54.4161C120.714 53.7138 120.917 53.1118 121.121 52.4094C123.77 52.3091 126.316 52.9111 128.659 54.0148C129.881 54.6168 131.104 55.4195 132.122 56.3225C133.345 57.4262 134.16 58.7306 135.382 59.734C135.484 59.8343 135.484 59.9347 135.586 60.035C135.891 60.336 136.095 60.5367 136.401 60.8377C136.197 61.1387 135.993 61.4397 135.891 61.7407C135.891 61.7407 135.891 61.7407 135.891 61.8411C135.076 61.2391 134.262 60.637 133.549 59.9347ZM138.234 56.9246C136.91 55.8209 135.993 54.4161 134.771 53.3124C133.447 52.2087 132.021 51.2053 130.493 50.503C128.353 49.4996 126.112 48.7973 123.871 48.5966C124.381 47.8942 124.992 47.2922 125.501 46.5898C126.214 45.7871 126.825 44.9844 127.539 44.2821C127.844 43.9811 128.15 43.5797 128.455 43.2787L128.557 43.1784C129.576 43.2787 130.493 43.3791 131.511 43.4794C131.002 44.2821 130.391 44.9844 129.881 45.6868C129.78 45.8875 129.576 45.9878 129.576 46.1885C129.474 46.3892 129.372 46.6902 129.372 46.9912C129.372 47.4929 129.576 48.0949 129.983 48.3959C130.391 48.6969 130.9 48.9979 131.409 48.9979C131.919 48.9979 132.53 48.7973 132.835 48.3959C133.956 46.8909 135.076 45.4861 136.095 43.8807C136.808 43.9811 137.623 44.0814 138.336 44.2821C137.012 45.5865 135.79 46.9912 134.669 48.4962C134.363 48.8976 134.363 49.6 134.465 50.0013C134.567 50.503 134.975 51.0047 135.382 51.2053C135.891 51.406 136.401 51.6067 136.91 51.406C137.419 51.2053 137.827 50.9043 138.132 50.503C138.234 50.3023 138.336 50.202 138.54 50.0013C139.66 48.5966 140.883 47.1919 142.207 45.9878C142.92 46.4895 143.531 47.1919 144.041 47.8942C142.513 48.5966 141.086 49.6 139.966 50.9043C139.66 51.3057 139.355 51.8074 139.355 52.3091C139.355 52.8107 139.559 53.4128 139.966 53.7138C140.373 54.0148 140.883 54.3158 141.392 54.3158C141.901 54.3158 142.513 54.1151 142.818 53.7138C143.226 53.2121 143.735 52.8107 144.244 52.4094C144.754 52.1084 145.161 51.8074 145.772 51.5064C146.078 52.008 146.383 52.6101 146.587 53.1118C146.078 53.4128 145.67 53.8141 145.161 54.1151C144.142 54.9178 143.022 55.6202 142.003 56.4229C141.392 56.8242 140.883 57.2256 140.272 57.6269C140.068 57.8276 139.864 57.9279 139.559 58.1286C139.253 57.8276 138.845 57.4262 138.54 57.1252C138.438 57.1252 138.336 57.0249 138.234 56.9246ZM135.586 4.34791C139.762 5.15061 142.92 9.1641 145.67 12.1742C148.421 15.1843 150.967 18.3951 152.597 22.0072C153.31 23.5123 154.329 25.4187 153.31 27.0241C152.699 28.1278 151.782 29.0308 150.967 29.9339C151.069 28.1278 150.56 26.3217 149.745 24.616C147.81 20.4019 144.55 16.4887 141.086 13.3783C137.725 10.2678 133.65 7.85971 129.168 6.65567C128.353 6.45499 127.437 6.25432 126.418 6.05365C128.455 3.94657 133.141 3.84623 135.586 4.34791ZM117.556 17.5924C118.982 16.0874 120.51 14.5823 121.834 12.9769C122.445 12.1742 123.056 11.3715 123.77 10.6692C124.381 10.0671 124.992 10.0671 125.807 10.1675C133.65 11.0705 139.966 17.0907 144.142 23.3116C145.263 25.0174 146.587 26.9238 146.791 29.0308C146.995 31.3386 145.568 33.1447 144.244 34.8504C144.041 35.0511 143.939 35.3521 143.837 35.5528C143.429 35.3521 142.92 35.2517 142.513 35.1514C140.272 34.5494 137.929 34.5494 135.688 34.6497C134.669 34.7501 133.752 34.9507 132.937 34.2484C132.122 33.4457 131.307 32.5426 130.594 31.6396C127.437 28.2281 123.668 25.3184 118.88 24.5157C116.232 24.014 113.481 24.1143 110.833 24.616C113.074 22.3083 115.315 19.9002 117.556 17.5924ZM107.471 29.7332C111.24 28.2281 115.417 27.6261 119.389 28.7298C123.464 29.8335 126.316 32.944 129.066 35.9541C128.557 36.9575 127.844 37.9608 127.131 38.8639C126.927 39.0646 126.825 39.2652 126.622 39.4659C126.52 39.5662 126.52 39.6666 126.418 39.7669C124.992 40.7703 123.871 42.2753 122.751 43.5797C121.427 45.1851 120.102 46.7905 118.676 48.3959C118.574 48.4962 118.371 48.6969 118.269 48.7973C118.269 48.7973 118.269 48.7973 118.269 48.8976C118.167 49.0983 117.963 49.2989 117.963 49.6C117.25 51.0047 116.741 52.5097 116.537 54.0148C115.213 53.9144 113.889 53.7138 112.564 53.6134C110.833 53.4128 109.101 53.3124 107.369 53.1118C105.841 52.9111 104.212 52.8107 102.786 52.1084C101.461 51.406 100.646 50.3023 99.7296 49.1986C98.8128 48.1952 97.5904 47.2922 96.3681 46.6902C94.2289 45.6868 91.886 45.2855 89.4413 45.0848C94.6364 39.1649 100.035 32.7433 107.471 29.7332ZM80.681 57.2256C80.681 57.1252 80.681 56.9246 80.7828 56.8242C80.681 55.4195 80.8847 53.9144 81.5978 52.6101C82.4127 51.105 83.8388 50.1016 85.6723 50.1016H85.7742C87.2003 49.8006 88.7283 49.7003 90.2562 49.8006C91.5805 49.901 93.0066 50.1016 94.2289 50.6033C95.3494 51.0047 95.8587 51.8074 96.2662 52.9111C96.7755 54.3158 97.2848 55.7205 97.4886 57.1252C97.5904 57.9279 97.7942 58.9313 97.0811 59.433C96.7755 59.6337 96.6737 59.9347 96.5718 60.1353C96.1643 60.035 95.655 59.9347 95.2476 59.9347C92.4972 59.6337 90.3581 61.0384 88.2189 62.5434C87.2003 63.2458 86.2835 64.0485 85.2649 64.8512C82.2089 63.7475 80.2735 60.2357 80.681 57.2256ZM94.1271 93.3469C93.7196 93.5476 93.2103 93.4473 92.701 93.4473C90.9693 93.2466 89.1357 92.7449 87.5059 92.0425C84.3481 90.7382 81.394 88.5308 79.3567 85.7213C77.8288 83.6142 75.0785 78.497 78.9493 77.293C80.1717 76.8916 81.4959 77.0923 82.8201 77.4937C82.5145 80.9051 84.0425 84.2163 86.4872 86.6243C88.7283 88.7314 91.5805 90.1361 94.6364 90.4372C94.5345 91.4405 94.3308 92.4439 94.1271 93.3469ZM86.8947 79.4001C87.9133 80.0021 88.8301 80.6041 89.645 81.4068C91.2749 82.8115 92.9047 84.4169 93.9233 86.3233C93.6177 86.223 93.3121 86.1227 93.0066 86.0223C92.8028 85.922 92.701 85.922 92.4972 85.8217C91.886 85.5206 91.3767 85.2196 90.7655 84.9186C90.6637 84.8183 90.5618 84.7179 90.4599 84.7179C90.1544 84.5173 89.9506 84.3166 89.645 84.0156C89.4413 83.8149 89.2376 83.6142 89.0338 83.3132C88.932 83.2129 88.8301 83.1125 88.7283 83.0122C88.7283 83.0122 88.7283 82.9119 88.6264 82.9119C88.6264 82.9119 88.6264 82.9119 88.6264 82.8115C88.2189 82.3099 87.9133 81.7078 87.6077 81.1058C87.6077 81.1058 87.5059 80.8048 87.404 80.8048C87.3022 80.6041 87.3022 80.5038 87.2003 80.3031C86.9966 80.0021 86.8947 79.7011 86.8947 79.4001ZM105.943 84.0156C104.008 85.4203 101.767 86.6244 99.8315 88.2297C99.424 88.5308 99.0165 88.8318 98.7109 89.1328C98.7109 88.0291 98.5072 86.9254 98.0998 85.8217C97.183 83.3132 95.2476 81.1058 93.3121 79.2997C91.3767 77.4937 89.2376 75.9886 86.8947 74.8849C85.2649 74.0822 83.5332 73.4802 81.8015 73.1792C83.635 71.3731 85.6723 69.6674 87.7096 67.9616C89.3394 66.6573 91.0711 64.9515 93.0066 64.1488C95.0438 63.3461 97.183 64.6505 99.0165 65.4532C101.054 66.3562 103.397 67.159 105.332 68.363C106.962 69.4667 107.777 71.5738 108.388 73.2795C109.712 77.293 109.407 81.5072 105.943 84.0156ZM112.361 61.9414C110.833 62.2424 109.61 63.6472 109.305 65.1522C109.203 65.6539 109.203 66.1556 109.305 66.6573C107.675 64.7509 105.128 63.9482 102.989 62.9448C102.174 62.5434 101.359 62.1421 100.545 61.7407C101.869 60.1353 101.869 57.9279 101.461 55.8209C101.767 56.0215 102.072 56.1219 102.48 56.2222C105.536 57.4263 109.305 57.3259 112.564 57.6269C114.5 57.8276 116.333 58.0283 118.269 58.1286C117.454 58.6303 116.741 59.2323 116.028 59.8343C115.926 59.9347 115.926 59.9347 115.824 60.035C115.824 60.035 115.722 60.035 115.722 60.1353L115.62 60.2357C115.519 60.2357 115.519 60.336 115.417 60.336C115.213 60.4364 115.111 60.5367 114.907 60.637C114.805 60.637 114.704 60.7374 114.704 60.7374C114.194 60.938 113.685 61.2391 113.481 61.7407C113.379 61.8411 113.176 61.8411 113.074 61.9414C112.564 61.8411 112.463 61.9414 112.361 61.9414ZM117.047 78.9987C116.741 78.8984 116.333 78.7981 116.028 78.6977C115.824 78.5974 115.62 78.5974 115.519 78.497C115.519 78.497 115.417 78.497 115.417 78.3967C114.704 78.0957 113.991 77.7947 113.278 77.6943C113.278 77.1927 113.278 76.5906 113.176 76.0889C113.889 76.2896 114.602 76.4903 115.315 76.691C116.232 76.992 117.148 77.3933 118.065 77.6943C118.982 77.9954 119.899 78.0957 120.815 78.196C121.223 78.2964 121.63 78.3967 121.936 78.497C122.038 78.497 122.14 78.5974 122.242 78.5974C122.343 78.5974 122.343 78.6977 122.445 78.6977C121.834 79.4001 121.223 80.2028 120.612 81.0055C119.593 80.0021 118.371 79.4001 117.047 78.9987ZM129.372 106.993C128.455 108.197 127.029 107.795 125.807 107.494C124.279 107.093 122.955 106.391 121.63 105.588C118.982 103.882 116.843 101.474 115.519 98.6648C114.805 97.1597 113.889 94.7516 114.602 93.1463C115.213 91.9422 117.352 92.2432 118.473 92.2432C118.574 92.2432 118.778 92.2432 118.88 92.2432C118.371 93.5476 118.371 94.9523 118.676 96.357C119.084 98.0628 120.102 99.4675 121.121 100.772C122.14 101.976 123.26 103.08 124.788 103.782C126.316 104.484 127.844 104.685 129.474 104.986C129.678 104.986 129.881 104.986 129.983 104.986C129.983 105.588 129.78 106.29 129.372 106.993ZM122.445 94.1496C122.445 93.949 122.547 93.8486 122.547 93.7483C122.547 93.6479 122.649 93.6479 122.649 93.5476C124.279 94.6513 125.603 96.2567 126.724 97.9624C127.233 98.6648 127.844 99.5678 128.455 100.571C127.946 100.471 127.335 100.27 126.825 100.17C126.825 100.17 126.622 100.07 126.52 100.07C126.418 100.07 126.316 99.9692 126.316 99.9692C126.011 99.8688 125.705 99.6682 125.501 99.4675C125.501 99.4675 125.501 99.4675 125.399 99.3672C125.298 99.2668 125.196 99.1665 125.094 99.0661C124.89 98.8655 124.584 98.5645 124.381 98.2635C124.279 98.1631 124.177 98.0628 124.075 97.8621C124.075 97.8621 124.075 97.8621 124.075 97.7618C123.871 97.5611 123.668 97.2601 123.566 97.0594C123.362 96.7584 123.26 96.4574 123.056 96.1564C123.056 96.056 122.955 95.9557 122.955 95.8554C122.955 95.755 122.853 95.6547 122.853 95.6547C122.751 95.3537 122.649 95.0527 122.649 94.852C122.649 94.852 122.649 94.7516 122.649 94.6513C122.445 94.551 122.445 94.3503 122.445 94.1496ZM141.596 96.2567C139.864 98.3638 137.725 100.07 135.79 101.876C135.178 102.478 134.567 102.979 133.854 103.481C133.549 101.675 132.632 99.9692 131.715 98.3638C129.066 93.7483 125.399 88.9321 119.797 87.9287C120.815 86.7247 121.834 85.5206 122.853 84.3166C124.177 82.7112 125.399 81.1058 126.825 79.6007C127.539 78.8984 128.252 78.0957 128.965 77.4937C129.27 77.1927 129.678 76.8916 130.085 76.5906C130.289 76.4903 131.002 76.1893 130.9 76.0889C131.104 76.1893 131.715 77.9954 132.021 78.3967C132.734 79.2997 133.549 80.1024 134.465 80.9051C136.197 82.3099 138.031 83.5139 139.66 85.019C142.818 88.1294 144.652 92.5442 141.596 96.2567ZM166.043 97.3604C164.617 98.6648 162.58 99.2668 160.644 99.4675C158.2 99.7685 155.653 99.4675 153.208 99.1665C150.56 98.8655 147.911 98.4641 145.263 98.0628C146.485 96.2567 147.3 94.25 147.198 92.0425C147.096 89.4338 146.18 86.9254 144.652 84.8183C143.124 82.7112 141.086 81.0055 139.049 79.5004C138.132 78.798 137.114 78.196 136.299 77.3933C135.586 76.7913 135.28 75.9886 134.873 75.2863C136.808 74.5839 138.845 74.2829 140.985 73.9819C143.327 73.6809 145.467 73.5805 147.606 74.6842C151.782 76.691 155.347 79.1994 158.403 82.6109C159.829 84.3166 161.357 85.922 162.885 87.5274C164.312 88.9321 165.839 90.4372 166.654 92.3436C167.367 93.949 167.469 95.9557 166.043 97.3604ZM191.306 78.2964C187.638 81.2061 183.564 83.6142 179.795 86.3233C176.841 88.4304 173.887 90.6378 171.136 93.0459C170.423 88.5308 166.451 85.4203 163.497 82.2095C161.663 80.2028 160.033 78.0957 157.996 76.2896C156.875 75.3866 155.653 74.4836 154.431 73.7812C154.533 73.3799 154.431 72.9785 154.125 72.5771C152.495 70.2694 150.356 68.2627 147.81 66.9583C145.365 65.6539 142.716 64.9515 140.17 64.0485C139.864 63.9482 139.66 63.8478 139.355 63.7475C139.355 63.6471 139.355 63.6471 139.355 63.5468C139.457 63.4465 139.559 63.2458 139.559 63.1455C139.762 62.9448 139.864 62.7441 140.068 62.6438C140.577 62.4431 140.985 62.1421 141.392 61.8411C143.022 60.637 144.55 59.5333 146.18 58.3293C146.995 57.7273 147.708 57.2256 148.523 56.6236C148.828 56.4229 149.236 56.1219 149.541 55.8209C149.847 55.7205 150.051 55.6202 150.254 55.4195C151.986 53.7138 153.616 51.9077 155.246 50.1016C156.672 50.4026 158.098 50.4026 159.728 50.1016C163.497 49.2989 167.469 46.4895 171.442 47.0915C171.544 47.0915 171.748 47.0915 171.849 47.0915C175.211 50.202 178.471 53.5131 181.73 56.7239C183.564 58.53 185.397 60.4364 187.129 62.2424C188.759 63.9482 190.491 65.5536 191.713 67.5603C192.833 69.3664 193.852 71.6741 193.852 73.8815C194.158 75.7879 192.833 77.1927 191.306 78.2964ZM206.789 63.5468C203.835 65.8546 200.881 68.363 197.519 70.0687C197.316 69.4667 197.112 68.8647 196.908 68.2627C194.871 63.4465 190.796 59.9347 187.129 56.3225C184.379 53.5131 181.628 50.7037 178.776 47.9946C182.443 43.078 185.601 37.8605 187.944 32.1413C191.306 31.9406 194.463 32.4423 197.621 33.4457C200.881 34.4491 204.446 35.7534 207.094 37.9608C211.984 41.9743 214.836 48.1952 215.142 54.4161C213.206 58.0283 210.049 60.938 206.789 63.5468ZM220.031 51.6067L219.216 52.4094C218.401 45.7871 215.244 39.3656 210.15 35.0511C206.993 32.5426 203.122 30.9373 199.251 29.7332C196.195 28.7298 193.139 28.1278 189.879 28.0275C190.083 27.7265 190.185 27.3251 190.389 27.0241C190.592 26.6228 190.796 26.0207 191.102 25.6194C191.102 25.6194 191.407 25.6194 191.713 25.6194C193.852 25.8201 196.195 26.9238 198.13 27.6261C202.409 29.2315 206.483 31.1379 210.354 33.4457C212.188 34.5494 214.123 35.6531 215.549 37.2585C216.975 38.7635 217.892 40.8706 218.707 42.777C219.624 44.8841 220.235 47.0915 220.642 49.2989C220.744 49.6 220.948 50.202 220.846 50.503C220.846 50.9043 220.337 51.3057 220.031 51.6067Z" fill="black"/>
<path d="M64.951 170.118C64.7337 170.769 64.5165 171.348 64.1543 171.927C63.8646 172.433 63.5025 172.722 63.1404 172.795C62.4162 173.012 61.8368 172.867 61.4746 172.433C61.1125 171.999 60.9677 171.493 61.0401 170.769C61.4022 168.454 61.9092 165.995 62.6334 163.391C63.3577 160.787 64.2268 158.255 65.1683 155.651C66.1098 153.046 67.1962 150.587 68.2826 148.127C69.4414 145.74 70.6001 143.498 71.7589 141.545C71.9762 141.255 72.1935 141.038 72.4108 140.966C72.628 140.894 72.9177 140.894 73.0626 140.966C73.2799 140.821 73.4971 140.677 73.7868 140.532C74.0765 140.387 74.3662 140.387 74.5835 140.387C74.7284 140.387 74.8008 140.387 74.9456 140.46C75.0905 140.532 75.2353 140.604 75.3802 140.821C75.525 141.038 75.7423 141.328 75.9596 141.689C76.1769 142.051 76.3941 142.63 76.7563 143.281C77.2632 145.234 77.915 147.332 78.6393 149.429C79.3635 151.527 80.0878 153.625 80.812 155.723C80.9569 155.651 81.0293 155.651 81.1017 155.651C81.1742 155.651 81.319 155.578 81.3914 155.578C81.826 155.578 82.333 155.578 82.8399 155.651C83.4193 155.723 83.7815 156.012 83.9263 156.446C84.1436 157.025 84.1436 157.531 83.7815 157.965C83.4918 158.399 82.9124 158.833 82.0433 159.267C82.5502 160.497 83.0572 161.727 83.5642 162.957C84.0712 164.114 84.5781 165.344 85.0851 166.429C85.1575 166.646 85.1575 166.935 85.23 167.369C85.3024 167.803 85.3748 168.165 85.3748 168.599C85.3748 169.033 85.3748 169.395 85.3024 169.756C85.23 170.118 85.0851 170.335 84.7954 170.48C84.5057 170.624 84.216 170.552 83.9263 170.407C83.6366 170.263 83.3469 170.046 83.0572 169.756C82.7675 169.467 82.5502 169.25 82.333 168.961C82.1157 168.671 81.9708 168.382 81.826 168.165C81.1742 166.863 80.5223 165.561 79.9429 164.259C79.3635 162.957 78.7841 161.655 78.2772 160.28C76.6114 160.569 74.8732 160.859 72.9177 161.076C70.9623 161.293 69.0792 161.438 67.1962 161.51C66.7616 162.957 66.3271 164.403 65.8925 165.85C65.6753 167.297 65.3131 168.671 64.951 170.118ZM73.4247 145.668C71.6141 149.646 70.0208 153.625 68.6447 157.676C71.252 157.604 74.0765 157.314 76.9735 156.736C75.6699 153.191 74.4387 149.502 73.4247 145.668Z" fill="black" stroke="black" stroke-width="0.75" stroke-miterlimit="10"/>
<path d="M107.754 159.773C107.175 159.846 106.595 159.773 105.871 159.556C105.147 159.339 104.64 158.833 104.423 158.11C104.278 157.748 104.278 157.314 104.35 156.952C104.423 156.591 104.857 156.301 105.582 156.157C106.306 156.012 107.03 155.867 107.827 155.723C108.623 155.578 109.42 155.506 110.289 155.361L108.189 148.778C107.537 146.319 107.465 144.148 107.972 142.34C108.479 140.532 109.927 139.302 112.317 138.506C113.259 138.217 114.272 138.072 115.214 138.144C116.156 138.217 117.097 138.506 117.894 138.94C118.763 139.374 119.487 139.953 120.211 140.676C120.936 141.4 121.443 142.195 121.877 143.136C122.022 143.57 122.094 143.931 122.167 144.293C122.167 144.655 122.022 144.944 121.805 145.161C121.443 145.523 121.008 145.74 120.501 145.668C120.066 145.595 119.704 145.451 119.56 145.306C119.197 144.872 118.835 144.438 118.401 144.004C117.966 143.57 117.604 143.136 117.097 142.846C116.663 142.485 116.156 142.268 115.649 142.051C115.142 141.906 114.562 141.834 113.983 141.906C113.693 141.978 113.403 142.051 113.041 142.34C112.679 142.557 112.317 142.919 112.1 143.425C111.81 143.931 111.665 144.51 111.593 145.306C111.52 146.102 111.665 147.042 111.955 148.199C112.245 149.14 112.534 150.225 112.896 151.382C113.259 152.54 113.621 153.697 114.055 154.927C115.938 154.782 117.676 154.71 119.197 154.782C120.066 154.854 120.863 154.999 121.587 155.289C122.312 155.506 122.891 155.867 123.398 156.374C123.543 156.735 123.47 157.097 123.326 157.314C123.181 157.531 122.963 157.748 122.674 157.965C122.384 158.182 122.022 158.254 121.66 158.327C121.298 158.399 120.936 158.471 120.573 158.471C119.777 158.544 118.98 158.616 118.111 158.688C117.242 158.761 116.373 158.833 115.431 158.905C116.011 160.642 116.59 162.305 117.097 163.897C117.604 165.488 118.039 166.79 118.328 167.875C118.473 168.454 118.473 169.105 118.401 169.756C118.256 170.407 118.111 171.058 117.894 171.709C117.604 172.577 117.169 173.301 116.735 173.879C116.228 174.386 115.721 174.603 115.214 174.386C114.779 174.169 114.49 173.952 114.417 173.59C114.273 173.301 114.272 172.867 114.345 172.288C114.417 171.637 114.49 171.058 114.49 170.407C114.49 169.756 114.49 169.177 114.417 168.671C114.345 168.165 114.272 167.658 114.2 167.297C114.128 166.863 114.055 166.573 113.983 166.429L111.593 159.267C110.941 159.339 110.362 159.412 109.71 159.484C109.058 159.629 108.406 159.701 107.754 159.773Z" fill="black" stroke="black" stroke-width="0.75" stroke-miterlimit="10"/>
<path d="M132.451 153.336C132.234 154.421 131.944 155.506 131.727 156.808C131.51 158.038 131.292 159.267 131.22 160.425C131.148 161.582 131.075 162.667 131.22 163.608C131.292 164.548 131.582 165.199 131.944 165.633C132.596 165.778 133.393 165.488 134.262 164.837C135.131 164.186 136 163.318 136.797 162.233C137.593 161.22 138.39 160.063 139.042 158.833C139.694 157.604 140.201 156.518 140.49 155.578C140.635 155.144 140.78 154.638 140.925 154.131C141.07 153.625 141.142 153.119 141.142 152.54C141.142 152.251 141.359 151.961 141.794 151.672C142.229 151.382 142.518 151.238 142.808 151.165C143.025 151.093 143.243 151.165 143.46 151.31C143.677 151.455 143.967 151.599 144.184 151.817C144.401 152.034 144.619 152.323 144.763 152.612C144.908 152.902 145.053 153.191 145.053 153.553C145.126 154.71 145.198 156.012 145.343 157.387C145.488 158.761 145.633 160.208 145.85 161.582C146.067 162.957 146.284 164.331 146.502 165.705C146.719 167.007 146.936 168.237 147.153 169.25C147.298 169.684 147.153 170.19 146.791 170.697C146.429 171.275 146.067 171.565 145.633 171.709C145.27 171.782 144.908 171.709 144.546 171.565C144.184 171.42 143.894 171.058 143.677 170.624C143.46 170.046 143.315 169.395 143.17 168.599C143.025 167.803 142.88 166.935 142.736 166.067C142.591 165.199 142.518 164.331 142.373 163.535C142.229 162.74 142.156 162.088 142.156 161.51C141.577 162.523 140.853 163.608 140.056 164.693C139.259 165.778 138.39 166.718 137.449 167.586C136.507 168.454 135.566 169.105 134.552 169.612C133.538 170.118 132.524 170.263 131.51 170.118C129.989 169.901 128.758 168.454 127.961 165.705C127.671 164.62 127.526 163.391 127.526 162.088C127.526 160.786 127.671 159.484 127.816 158.182C128.033 156.88 128.251 155.65 128.468 154.493C128.758 153.336 128.975 152.395 129.192 151.672C129.265 151.382 129.409 151.093 129.699 150.804C129.916 150.587 130.206 150.442 130.496 150.514C131.075 150.659 131.582 151.021 132.089 151.599C132.451 152.106 132.596 152.685 132.451 153.336Z" fill="black" stroke="black" stroke-width="0.75" stroke-miterlimit="10"/>
<path d="M164.608 155.216C165.332 155.216 166.056 155.361 166.853 155.795C167.577 156.157 167.939 156.808 167.939 157.604C167.867 158.255 167.505 158.689 166.853 158.833C166.201 158.978 165.694 159.123 165.332 159.05C164.535 159.05 163.739 159.05 162.797 159.123C161.928 159.123 160.987 159.195 160.045 159.267C159.973 160.569 159.9 161.727 159.828 162.884C159.755 164.042 159.683 164.982 159.683 165.922C159.61 166.791 159.61 167.514 159.61 168.02C159.61 168.599 159.61 168.888 159.683 168.888C160.552 168.744 161.494 168.454 162.435 168.093C163.449 167.731 164.463 167.297 165.404 166.863C166.418 166.429 167.36 165.995 168.301 165.488C169.243 164.982 170.184 164.548 171.054 164.114C171.416 163.897 171.778 163.897 172.14 163.969C172.502 164.042 172.647 164.259 172.719 164.476C172.792 164.91 172.719 165.416 172.502 166.067C172.285 166.718 171.923 167.225 171.416 167.731C170.836 168.165 170.04 168.744 169.098 169.322C168.157 169.901 167.143 170.48 165.984 170.986C164.897 171.492 163.811 171.999 162.652 172.361C161.566 172.795 160.552 173.012 159.683 173.084C158.379 173.156 157.438 172.867 156.786 171.999C156.134 171.203 155.772 170.118 155.7 168.888C155.627 167.659 155.627 166.212 155.7 164.548C155.772 162.884 155.844 161.148 155.917 159.34C155.193 159.412 154.468 159.484 153.817 159.557C153.165 159.629 152.513 159.701 151.861 159.774C151.354 159.774 150.775 159.629 150.195 159.412C149.616 159.195 149.326 158.689 149.326 158.038C149.326 157.821 149.399 157.459 149.616 157.097C149.833 156.736 150.268 156.446 150.92 156.229C152.513 155.94 154.323 155.723 156.207 155.578C156.351 153.77 156.496 151.961 156.641 150.297C156.786 148.561 156.931 147.042 157.076 145.595C157.148 145.161 157.293 144.727 157.51 144.366C157.727 144.004 158.017 143.859 158.307 143.859C158.959 143.859 159.61 144.004 160.19 144.366C160.769 144.727 161.059 145.161 161.059 145.595C160.914 146.898 160.769 148.417 160.552 150.08C160.407 151.744 160.262 153.48 160.117 155.216C160.914 155.144 161.638 155.072 162.363 155.072C163.304 155.216 163.956 155.216 164.608 155.216Z" fill="black" stroke="black" stroke-width="0.75" stroke-miterlimit="10"/>
<path d="M180.252 153.697C180.034 154.71 179.745 155.868 179.527 157.17C179.31 158.399 179.093 159.629 179.02 160.786C178.948 161.944 178.875 163.029 179.02 163.969C179.093 164.91 179.382 165.561 179.745 165.995C180.396 166.139 181.193 165.85 182.062 165.199C182.931 164.548 183.8 163.68 184.597 162.595C185.394 161.582 186.19 160.425 186.842 159.195C187.494 157.965 188.001 156.88 188.291 155.94C188.436 155.506 188.58 154.999 188.725 154.493C188.87 153.987 188.943 153.48 188.943 152.902C188.943 152.612 189.16 152.323 189.594 152.034C190.029 151.744 190.319 151.6 190.608 151.527C190.826 151.455 191.043 151.527 191.26 151.672C191.477 151.817 191.767 151.961 191.984 152.178C192.202 152.395 192.419 152.685 192.564 152.974C192.709 153.263 192.853 153.553 192.853 153.914C192.926 155.072 192.998 156.374 193.143 157.748C193.288 159.123 193.433 160.569 193.65 161.944C193.867 163.318 194.085 164.693 194.302 166.067C194.519 167.369 194.736 168.599 194.954 169.612C195.099 170.046 194.954 170.552 194.592 171.058C194.23 171.637 193.867 171.927 193.433 172.071C193.071 172.144 192.709 172.071 192.346 171.927C191.984 171.782 191.695 171.42 191.477 170.986C191.26 170.407 191.115 169.756 190.97 168.961C190.826 168.165 190.681 167.297 190.536 166.429C190.391 165.561 190.319 164.693 190.174 163.897C190.029 163.101 189.956 162.45 189.956 161.872C189.377 162.884 188.653 163.969 187.856 165.054C187.059 166.139 186.19 167.08 185.249 167.948C184.307 168.816 183.366 169.467 182.352 169.973C181.338 170.48 180.324 170.624 179.31 170.48C177.717 170.263 176.558 168.816 175.761 166.067C175.472 164.982 175.327 163.752 175.327 162.45C175.327 161.148 175.472 159.846 175.616 158.544C175.834 157.242 176.051 156.012 176.268 154.855C176.558 153.697 176.775 152.757 176.992 152.034C177.065 151.744 177.21 151.455 177.499 151.166C177.789 150.876 178.006 150.804 178.296 150.876C178.875 151.021 179.382 151.383 179.889 151.961C180.252 152.468 180.396 153.046 180.252 153.697Z" fill="black" stroke="black" stroke-width="0.75" stroke-miterlimit="10"/>
<path d="M216.681 151.093C215.956 151.455 215.232 151.889 214.508 152.323C213.711 152.757 212.987 153.263 212.19 153.769C211.394 154.348 210.669 154.999 210.018 155.723C209.293 156.446 208.714 157.386 208.135 158.399C207.338 159.846 206.831 161.365 206.541 162.884C206.252 164.403 206.034 165.922 205.962 167.369C205.962 168.092 205.817 168.743 205.455 169.467C205.093 170.19 204.658 170.552 204.079 170.552C203.355 170.552 202.775 170.19 202.341 169.394C201.906 168.599 201.616 167.875 201.472 167.224C200.82 164.476 200.313 161.727 199.878 158.978C199.444 156.301 199.154 153.552 198.864 150.876C198.864 150.297 199.009 150.008 199.371 149.863C199.733 149.719 200.095 149.646 200.53 149.719C200.965 149.791 201.472 149.863 201.906 150.08C202.341 150.297 202.558 150.587 202.63 151.021C202.775 152.467 202.992 153.987 203.21 155.578C203.427 157.169 203.644 158.544 203.862 159.629C204.006 158.327 204.441 157.025 205.165 155.795C205.889 154.565 206.759 153.408 207.772 152.395C208.786 151.382 210.018 150.514 211.321 149.863C212.625 149.14 214.001 148.706 215.305 148.489C215.884 148.416 216.391 148.416 216.753 148.489C217.115 148.561 217.405 148.706 217.55 148.923C217.695 149.14 217.695 149.429 217.622 149.863C217.477 150.37 217.188 150.731 216.681 151.093Z" fill="black" stroke="black" stroke-width="0.75" stroke-miterlimit="10"/>
<path d="M234.28 157.603C232.759 158.471 231.094 159.195 229.355 159.629C227.617 160.135 225.734 160.352 223.706 160.28C223.779 161.654 224.141 162.739 224.865 163.535C225.589 164.331 226.458 164.837 227.472 164.982C228.124 165.054 228.703 165.054 229.355 164.909C230.007 164.765 230.587 164.62 231.166 164.403C231.745 164.186 232.252 163.897 232.687 163.535C233.121 163.246 233.556 162.884 233.918 162.595C234.28 162.305 234.642 162.088 235.004 162.016C235.367 161.944 235.656 161.944 235.874 162.016C236.453 162.233 236.598 162.812 236.453 163.752C235.801 164.982 234.932 166.067 233.773 166.935C232.614 167.803 231.311 168.382 229.862 168.599C228.631 168.816 227.327 168.743 226.024 168.382C224.72 168.02 223.489 167.297 222.475 166.284C221.606 165.416 220.882 164.331 220.447 163.101C220.013 161.871 219.723 160.642 219.578 159.339C219.506 158.11 219.578 156.952 219.94 155.867C220.302 154.782 220.809 153.842 221.533 152.974C222.258 152.178 223.127 151.455 224.213 150.948C225.3 150.442 226.531 150.08 227.907 150.008C229.573 149.936 231.094 150.225 232.47 150.948C233.846 151.672 234.787 152.757 235.294 154.059C235.584 154.782 235.656 155.433 235.511 156.012C235.294 156.735 234.932 157.242 234.28 157.603ZM227.545 153.625C227.183 153.697 226.748 153.842 226.313 154.059C225.879 154.276 225.444 154.493 225.082 154.782C224.72 155.072 224.358 155.433 224.068 155.795C223.779 156.157 223.634 156.591 223.561 157.025C224.213 157.025 224.937 156.952 225.734 156.88C226.531 156.735 227.327 156.663 228.052 156.446C228.776 156.301 229.5 156.084 230.152 155.867C230.804 155.65 231.311 155.361 231.745 155.144C231.456 154.42 230.876 153.914 230.007 153.769C229.283 153.48 228.414 153.48 227.545 153.625Z" fill="black" stroke="black" stroke-width="0.75" stroke-miterlimit="10"/>
<path d="M22.6552 215.401C22.3655 215.835 22.0034 216.125 21.5688 216.269C21.2067 216.414 20.8446 216.486 20.4825 216.486C19.9031 216.414 19.4685 216.269 18.9615 215.908C18.527 215.546 18.2373 215.257 18.0924 214.895C17.8752 214.244 17.5855 213.521 17.3682 212.653C17.0785 211.857 16.8612 210.989 16.5715 210.193C16.3542 209.325 16.0645 208.529 15.7748 207.734C15.4851 206.938 15.2679 206.215 15.0506 205.563C14.2539 206.938 13.5297 208.312 12.8054 209.687C12.0812 211.061 11.2845 212.508 10.4154 213.955C10.0533 214.533 9.54631 214.967 9.03934 215.112C8.53237 215.329 8.09782 215.401 7.7357 215.401C7.22872 215.329 6.79417 215.184 6.35963 214.823C5.92508 214.461 5.63538 214.172 5.4181 213.81C4.98355 213.087 4.54901 212.219 4.18688 211.061C3.75233 209.976 3.39021 208.746 3.02809 207.517C2.66596 206.287 2.30384 205.057 2.01414 203.827C1.72444 202.598 1.43474 201.513 1.28989 200.5C1.14504 199.849 1.21747 199.198 1.36232 198.619C1.50717 198.04 1.86929 197.679 2.37626 197.606C3.02809 197.606 3.60748 197.823 4.18688 198.257C4.69386 198.764 5.05598 199.198 5.1284 199.704C5.27325 200.5 5.49053 201.368 5.63538 202.236C5.85265 203.176 6.06993 204.044 6.2872 204.985C6.50448 205.925 6.79417 206.866 7.01145 207.734C7.22872 208.602 7.51842 209.397 7.80812 210.121C8.38752 209.18 9.03934 208.095 9.76359 206.866C10.4878 205.636 11.2121 204.478 11.8639 203.321C12.5157 202.164 13.1676 201.151 13.6745 200.355C14.2539 199.487 14.6885 198.981 14.9782 198.764C15.1954 198.619 15.5576 198.619 15.9921 198.836C16.4267 198.981 16.7164 199.27 16.9336 199.559C17.8027 201.296 18.4546 203.176 19.034 205.202C19.6134 207.227 20.1203 209.18 20.6273 210.916C21.2067 210.193 21.7861 209.325 22.3655 208.168C23.0173 207.01 23.5967 205.78 24.1761 204.551C24.7555 203.249 25.3349 202.019 25.8419 200.717C26.3489 199.415 26.7834 198.257 27.0731 197.317C27.3628 196.304 27.7974 195.798 28.3768 195.798C29.101 195.87 29.6804 196.087 30.1874 196.521C30.6943 196.883 30.9116 197.317 30.7668 197.751C29.8977 201.151 28.7389 204.334 27.3628 207.155C26.1316 209.976 24.5382 212.725 22.6552 215.401Z" fill="black" stroke="black" stroke-width="0.75" stroke-miterlimit="10"/>
<path d="M49.2353 203.177C47.7144 204.045 46.0486 204.768 44.3104 205.202C42.5722 205.708 40.6892 205.925 38.6613 205.925C38.7337 207.3 39.0958 208.385 39.8201 209.181C40.5443 209.976 41.4134 210.483 42.4274 210.627C43.0792 210.7 43.6586 210.7 44.3104 210.555C44.9622 210.41 45.5416 210.266 46.121 210.049C46.7004 209.832 47.2074 209.542 47.6419 209.181C48.0765 208.891 48.511 208.53 48.8732 208.24C49.2353 207.951 49.5974 207.734 49.9595 207.661C50.3216 207.589 50.6114 207.589 50.8286 207.661C51.408 207.878 51.5529 208.457 51.408 209.398C50.7562 210.627 49.8871 211.712 48.7283 212.58C47.5695 213.448 46.2659 214.027 44.8174 214.244C43.5861 214.461 42.2825 214.389 40.9789 214.027C39.6752 213.666 38.444 212.942 37.43 211.929C36.5609 211.061 35.8367 209.976 35.4021 208.747C34.9676 207.517 34.6779 206.287 34.5331 204.985C34.4606 203.755 34.5331 202.598 34.8952 201.513C35.2573 200.428 35.7643 199.487 36.4885 198.619C37.2128 197.824 38.0819 197.1 39.1682 196.594C40.2546 196.087 41.4858 195.726 42.8619 195.653C44.5277 195.581 46.0486 195.87 47.4247 196.594C48.8007 197.317 49.7423 198.402 50.2492 199.704C50.5389 200.428 50.6114 201.079 50.4665 201.657C50.3217 202.308 49.8871 202.742 49.2353 203.177ZM42.5722 199.198C42.2101 199.27 41.7755 199.415 41.341 199.632C40.9064 199.849 40.4719 200.066 40.1098 200.355C39.7476 200.645 39.3855 201.006 39.0958 201.368C38.8061 201.73 38.6613 202.164 38.5888 202.598C39.2407 202.598 39.9649 202.525 40.7616 202.453C41.5583 202.308 42.3549 202.236 43.0792 202.019C43.8758 201.874 44.5277 201.657 45.1795 201.44C45.8313 201.223 46.3383 200.934 46.7728 200.717C46.4831 199.994 45.9037 199.487 45.0346 199.343C44.238 199.053 43.4413 199.053 42.5722 199.198Z" fill="black" stroke="black" stroke-width="0.75" stroke-miterlimit="10"/>
<path d="M86.6062 195.581C86.751 196.666 86.8959 197.823 86.9683 199.053C87.0407 200.283 87.1131 201.513 87.1856 202.742C87.258 203.972 87.258 205.202 87.258 206.359C87.258 207.517 87.1856 208.602 87.1856 209.542C88.4168 210.41 89.141 211.206 89.4307 211.857C89.648 212.508 89.7204 213.087 89.5031 213.593C89.2859 214.316 88.8513 214.678 88.2719 214.678C87.6925 214.678 86.9683 214.461 86.1716 214.027C85.5922 214.389 85.0128 214.823 84.2886 215.257C83.5643 215.691 82.8401 216.125 82.0434 216.559C81.2467 216.993 80.4501 217.282 79.7258 217.644C78.9291 217.933 78.2049 218.15 77.5531 218.295C76.3218 218.512 75.163 218.223 74.2215 217.572C73.2076 216.921 72.5558 215.908 72.1936 214.606C71.9764 213.738 71.9039 212.797 72.0488 211.857C72.1936 210.916 72.4833 209.976 72.9179 209.108C73.3524 208.24 74.0043 207.444 74.8009 206.793C75.5976 206.07 76.5391 205.563 77.6255 205.202C77.9152 205.057 78.2773 204.985 78.7843 204.912C79.2913 204.84 79.7982 204.84 80.3052 204.84C80.8122 204.84 81.3916 204.985 81.8985 205.202C82.4779 205.419 82.9125 205.708 83.4195 206.215C83.4195 205.563 83.4195 204.84 83.4195 204.044C83.4195 203.249 83.347 202.453 83.347 201.657C83.347 200.861 83.2746 200.066 83.2022 199.342C83.1298 198.619 83.0573 198.04 82.9849 197.534C82.9125 196.955 82.6952 196.594 82.3331 196.449C81.971 196.304 81.5364 196.304 80.957 196.521C80.0155 196.811 78.9291 197.389 77.6979 198.33C76.4667 199.198 75.2355 200.138 74.0767 201.151C73.7146 201.513 73.3524 201.657 72.8455 201.585C72.4109 201.513 72.0488 201.368 71.6867 201.079C71.397 200.789 71.1797 200.427 71.1797 199.993C71.1797 199.559 71.3245 199.125 71.6867 198.691C72.3385 197.968 73.1352 197.317 73.9318 196.521C74.7285 195.798 75.5976 195.147 76.5391 194.496C77.4082 193.917 78.3497 193.411 79.2913 193.049C80.2328 192.687 81.1743 192.47 82.1158 192.398C83.4919 192.398 84.5058 192.687 85.2301 193.338C86.0268 193.772 86.4613 194.568 86.6062 195.581ZM79.7982 208.095C79.2913 208.24 78.7843 208.457 78.2049 208.819C77.6255 209.18 77.1185 209.614 76.684 210.121C76.2494 210.627 75.8873 211.206 75.67 211.857C75.4527 212.508 75.4527 213.159 75.5976 213.738C75.67 213.955 75.8149 214.172 76.1046 214.244C76.3218 214.389 76.6115 214.389 76.9737 214.316C77.9152 214.099 79.0016 213.738 80.1604 213.231C81.3192 212.653 82.3331 212.074 82.9849 211.423C82.9849 211.206 82.8401 210.916 82.6228 210.482C82.4055 210.121 82.1158 209.759 81.8261 209.397C81.5364 209.036 81.1743 208.674 80.8122 208.457C80.4501 208.168 80.0879 208.023 79.7982 208.095Z" fill="black" stroke="black" stroke-width="0.75" stroke-miterlimit="10"/>
<path d="M97.977 189.939C98.1219 194.207 98.4116 198.547 98.8461 203.104C99.2807 207.661 99.7877 212.002 100.295 216.125C100.367 217.861 99.9325 218.729 98.8461 218.729C98.6289 218.729 98.4116 218.657 98.1219 218.44C97.9046 218.295 97.6873 218.006 97.4701 217.789C97.2528 217.499 97.1079 217.21 96.8907 216.921C96.7458 216.631 96.601 216.342 96.601 216.125C96.3113 214.172 96.0216 212.002 95.8043 209.832C95.5146 207.589 95.2973 205.419 95.1525 203.177C94.9352 200.934 94.7903 198.764 94.6455 196.594C94.5006 194.424 94.4282 192.471 94.4282 190.662C94.5006 189.722 94.6455 188.926 94.8628 188.275C95.0801 187.624 95.4422 187.335 96.094 187.407C96.7458 187.479 97.2528 187.696 97.5425 188.203C97.7598 188.637 97.9046 189.288 97.977 189.939Z" fill="black" stroke="black" stroke-width="0.75" stroke-miterlimit="10"/>
<path d="M110.145 190.083C110.289 194.351 110.579 198.691 111.014 203.249C111.448 207.806 111.955 212.146 112.462 216.27C112.535 218.006 112.1 218.874 111.014 218.874C110.796 218.874 110.579 218.801 110.289 218.584C110.072 218.44 109.855 218.15 109.638 217.933C109.42 217.644 109.275 217.355 109.058 217.065C108.913 216.776 108.768 216.487 108.768 216.27C108.479 214.316 108.189 212.146 107.972 209.976C107.682 207.734 107.465 205.564 107.32 203.321C107.103 201.079 106.958 198.908 106.813 196.738C106.668 194.568 106.596 192.615 106.596 190.807C106.668 189.866 106.813 189.07 107.03 188.419C107.248 187.768 107.61 187.479 108.261 187.551C108.913 187.624 109.42 187.841 109.71 188.347C110 188.781 110.145 189.36 110.145 190.083Z" fill="black" stroke="black" stroke-width="0.75" stroke-miterlimit="10"/>
<path d="M147.153 202.67C146.864 202.815 146.574 202.887 146.139 202.815C145.777 202.742 145.415 202.525 145.126 202.091C144.474 201.296 143.749 200.862 142.88 200.862C142.084 200.862 141.359 201.006 140.708 201.368C140.056 201.73 139.476 202.236 138.969 202.815C138.462 203.393 138.1 204.117 137.738 204.84C137.449 205.564 137.231 206.287 137.086 207.083C136.869 208.457 137.086 209.614 137.738 210.555C138.39 211.495 139.404 212.002 140.852 212.002C142.011 212.074 143.242 211.857 144.691 211.351C146.139 210.844 147.443 210.266 148.674 209.47C149.254 209.253 149.761 209.108 150.195 209.108C150.63 209.108 151.064 209.325 151.354 209.831C151.716 210.483 151.644 211.061 151.064 211.712C150.485 212.363 149.688 212.942 148.747 213.448C147.733 213.955 146.719 214.461 145.633 214.823C144.546 215.257 143.46 215.474 142.373 215.691C141.287 215.836 140.201 215.836 139.114 215.691C138.028 215.546 137.014 215.185 136.145 214.533C134.696 213.521 133.755 212.074 133.465 210.193C133.175 208.312 133.32 206.432 133.9 204.406C134.117 203.683 134.479 202.887 134.914 202.164C135.348 201.44 135.855 200.717 136.507 200.138C137.086 199.487 137.811 198.981 138.535 198.547C139.259 198.113 140.128 197.823 140.997 197.679C142.446 197.462 143.822 197.606 145.126 198.113C146.429 198.619 147.298 199.632 147.733 201.006C147.805 201.296 147.805 201.657 147.733 201.947C147.733 202.164 147.516 202.453 147.153 202.67Z" fill="black" stroke="black" stroke-width="0.75" stroke-miterlimit="10"/>
<path d="M169.533 196.232C169.678 197.317 169.823 198.475 169.895 199.704C169.967 200.934 170.04 202.164 170.112 203.394C170.185 204.623 170.185 205.853 170.185 207.011C170.185 208.168 170.112 209.253 170.112 210.193C171.344 211.061 172.068 211.857 172.358 212.508C172.575 213.159 172.647 213.738 172.43 214.244C172.213 214.968 171.778 215.329 171.199 215.329C170.619 215.329 169.895 215.112 169.098 214.678C168.519 215.04 167.94 215.474 167.215 215.908C166.491 216.342 165.767 216.776 164.97 217.21C164.173 217.644 163.377 217.934 162.653 218.295C161.856 218.585 161.132 218.802 160.48 218.946C159.249 219.163 158.09 218.874 157.148 218.223C156.134 217.572 155.483 216.559 155.12 215.257C154.903 214.389 154.831 213.449 154.976 212.508C155.12 211.568 155.41 210.627 155.845 209.759C156.279 208.891 156.931 208.096 157.728 207.445C158.524 206.721 159.466 206.215 160.552 205.853C160.842 205.708 161.204 205.636 161.711 205.564C162.218 205.491 162.725 205.491 163.232 205.491C163.739 205.491 164.318 205.636 164.825 205.853C165.405 206.07 165.839 206.359 166.346 206.866C166.346 206.215 166.346 205.491 166.346 204.696C166.346 203.9 166.274 203.104 166.274 202.309C166.274 201.513 166.201 200.717 166.129 199.994C166.057 199.27 165.984 198.692 165.912 198.185C165.839 197.607 165.622 197.245 165.26 197.1C164.898 196.956 164.463 196.956 163.884 197.173C162.942 197.462 161.856 198.041 160.625 198.981C159.393 199.849 158.162 200.789 157.003 201.802C156.641 202.164 156.279 202.309 155.772 202.236C155.338 202.164 154.976 202.019 154.613 201.73C154.324 201.441 154.106 201.079 154.106 200.645C154.106 200.211 154.251 199.777 154.613 199.343C155.265 198.619 156.062 197.968 156.859 197.173C157.655 196.377 158.524 195.798 159.466 195.147C160.335 194.568 161.277 194.062 162.218 193.7C163.16 193.339 164.101 193.122 165.043 193.049C166.419 193.049 167.433 193.339 168.157 193.99C168.954 194.351 169.388 195.219 169.533 196.232ZM162.653 208.747C162.146 208.891 161.639 209.108 161.059 209.47C160.48 209.832 159.973 210.266 159.538 210.772C159.104 211.278 158.742 211.857 158.524 212.508C158.307 213.159 158.307 213.81 158.452 214.389C158.524 214.606 158.669 214.823 158.959 214.895C159.249 214.968 159.466 215.04 159.828 214.968C160.77 214.751 161.856 214.389 163.015 213.883C164.173 213.304 165.187 212.725 165.839 212.074C165.839 211.857 165.694 211.568 165.477 211.134C165.26 210.772 164.97 210.41 164.68 210.049C164.391 209.687 164.029 209.325 163.667 209.108C163.304 208.819 163.015 208.674 162.653 208.747Z" fill="black" stroke="black" stroke-width="0.75" stroke-miterlimit="10"/>
<path d="M179.672 198.619C179.817 199.198 179.889 199.849 180.034 200.572C180.179 201.296 180.324 202.019 180.469 202.815C180.613 203.538 180.758 204.334 180.831 205.13C180.976 205.925 181.048 206.649 181.12 207.372C181.627 206.359 182.134 205.274 182.641 204.189C183.221 203.032 183.8 202.019 184.452 201.079C185.104 200.138 185.756 199.343 186.48 198.764C187.204 198.113 188.001 197.823 188.87 197.823C190.173 197.823 191.26 198.33 192.129 199.27C192.998 200.211 193.722 201.368 194.302 202.742C194.881 204.117 195.388 205.564 195.678 207.083C196.04 208.602 196.33 209.976 196.547 211.134C196.764 212.219 196.33 212.942 195.098 213.448C194.519 213.738 194.157 213.738 193.867 213.521C193.577 213.304 193.433 213.159 193.433 212.942C193.215 212.508 192.998 211.64 192.708 210.483C192.419 209.325 192.129 208.095 191.767 206.938C191.405 205.708 190.97 204.696 190.536 203.755C190.101 202.887 189.522 202.453 188.942 202.525C188.218 202.525 187.639 203.104 187.059 204.117C186.552 204.913 186.118 205.853 185.611 206.793C185.104 207.806 184.597 208.819 184.162 209.832C183.655 210.844 183.221 211.857 182.786 212.942C182.352 213.955 181.917 214.895 181.483 215.763C181.193 216.053 180.831 216.197 180.469 216.342C180.034 216.414 179.672 216.414 179.237 216.27C178.875 216.125 178.513 215.98 178.296 215.691C178.079 215.402 177.934 215.112 177.934 214.895C177.572 211.857 177.282 209.108 176.92 206.576C176.558 204.117 176.123 201.513 175.544 198.908C175.254 198.04 175.254 197.317 175.399 196.811C175.544 196.304 176.123 196.087 177.137 196.232C178.513 196.304 179.31 197.172 179.672 198.619Z" fill="black" stroke="black" stroke-width="0.75" stroke-miterlimit="10"/>
<path d="M221.968 190.879C222.113 195.147 222.402 199.487 222.837 204.045C223.271 208.602 223.778 212.942 224.285 217.065C224.358 218.802 223.923 219.67 222.837 219.67C222.62 219.67 222.402 219.597 222.113 219.38C221.895 219.236 221.678 218.946 221.461 218.729C221.243 218.44 221.099 218.151 220.881 217.861C220.737 217.572 220.592 217.282 220.592 217.065C220.302 215.112 220.012 212.942 219.795 210.772C219.505 208.53 219.288 206.359 219.143 204.117C218.926 201.874 218.781 199.704 218.636 197.534C218.491 195.364 218.419 193.411 218.419 191.602C218.491 190.662 218.636 189.866 218.853 189.215C219.071 188.564 219.433 188.275 220.085 188.347C220.737 188.42 221.243 188.637 221.533 189.143C221.823 189.577 221.968 190.156 221.968 190.879Z" fill="black" stroke="black" stroke-width="0.75" stroke-miterlimit="10"/>
<path d="M242.682 197.968C243.841 198.402 244.855 199.053 245.651 199.921C246.448 200.79 247.027 201.73 247.462 202.815C247.896 203.9 248.114 204.985 248.186 206.143C248.259 207.3 248.114 208.313 247.752 209.325C247.317 210.411 246.738 211.496 246.086 212.508C245.434 213.521 244.637 214.461 243.768 215.257C242.899 216.053 241.958 216.704 240.799 217.21C239.712 217.717 238.481 217.934 237.178 217.934C235.584 217.934 234.208 217.572 233.122 216.776C232.035 216.053 231.166 215.04 230.587 213.883C230.008 212.725 229.573 211.351 229.428 209.904C229.283 208.457 229.283 206.938 229.573 205.492C229.718 204.406 230.008 203.321 230.37 202.309C230.732 201.296 231.239 200.356 231.818 199.56C232.398 198.764 233.049 198.113 233.846 197.607C234.643 197.1 235.512 196.883 236.453 196.883C237.033 196.883 237.685 197.028 238.481 197.245C239.278 197.462 240.075 197.751 240.726 198.185C241.306 197.751 241.958 197.679 242.682 197.968ZM240.437 202.236C240.002 201.947 239.495 201.585 238.988 201.151C238.409 200.717 237.902 200.5 237.467 200.5C237.033 200.5 236.526 200.717 236.091 201.151C235.657 201.585 235.222 202.092 234.932 202.598C234.57 203.177 234.281 203.755 234.063 204.334C233.846 204.913 233.701 205.347 233.556 205.709C233.412 206.287 233.339 207.011 233.339 207.806C233.267 208.602 233.339 209.398 233.484 210.193C233.629 210.989 233.918 211.713 234.353 212.364C234.788 213.015 235.439 213.449 236.381 213.738C236.96 213.883 237.54 213.883 238.336 213.738C239.061 213.593 239.785 213.232 240.509 212.798C241.233 212.364 241.885 211.713 242.537 210.917C243.189 210.121 243.696 209.253 244.058 208.24C244.42 207.083 244.493 205.926 244.13 204.696C243.768 203.466 243.044 202.598 241.885 202.019C241.596 202.236 241.306 202.309 241.089 202.309C240.799 202.381 240.582 202.309 240.437 202.236Z" fill="black" stroke="black" stroke-width="0.75" stroke-miterlimit="10"/>
<path d="M266.292 198.185C267.451 198.619 268.465 199.27 269.262 200.138C270.058 201.006 270.638 201.947 271.072 203.032C271.507 204.117 271.724 205.202 271.797 206.359C271.869 207.517 271.724 208.53 271.362 209.542C270.927 210.627 270.348 211.712 269.696 212.725C269.044 213.738 268.248 214.678 267.379 215.474C266.51 216.27 265.568 216.921 264.409 217.427C263.323 217.933 262.092 218.15 260.788 218.15C259.195 218.15 257.819 217.789 256.732 216.993C255.646 216.27 254.777 215.257 254.197 214.1C253.618 212.942 253.183 211.568 253.039 210.121C252.894 208.674 252.894 207.155 253.183 205.708C253.328 204.623 253.618 203.538 253.98 202.525C254.342 201.513 254.849 200.572 255.429 199.777C256.008 198.981 256.732 198.33 257.456 197.823C258.253 197.317 259.122 197.1 260.064 197.1C260.643 197.1 261.295 197.245 262.092 197.462C262.888 197.679 263.685 197.968 264.337 198.402C264.916 197.896 265.568 197.823 266.292 198.185ZM264.047 202.381C263.613 202.091 263.106 201.73 262.599 201.296C262.019 200.862 261.512 200.645 261.15 200.645C260.716 200.645 260.209 200.862 259.774 201.296C259.339 201.73 258.905 202.236 258.615 202.742C258.253 203.321 257.963 203.9 257.746 204.479C257.529 205.057 257.384 205.491 257.239 205.853C257.094 206.432 257.022 207.155 257.022 207.951C256.949 208.747 257.022 209.542 257.167 210.338C257.312 211.134 257.601 211.857 258.036 212.508C258.47 213.159 259.122 213.593 260.064 213.883C260.643 214.027 261.222 214.027 262.019 213.883C262.743 213.738 263.468 213.376 264.192 212.942C264.916 212.508 265.568 211.857 266.22 211.061C266.872 210.266 267.379 209.398 267.741 208.385C268.103 207.227 268.175 206.07 267.813 204.84C267.451 203.611 266.727 202.742 265.568 202.164C265.278 202.381 264.989 202.453 264.771 202.453C264.409 202.525 264.192 202.525 264.047 202.381Z" fill="black" stroke="black" stroke-width="0.75" stroke-miterlimit="10"/>
<path d="M292.51 199.632C292.655 199.559 292.872 199.559 293.234 199.559C293.524 199.559 293.813 199.559 294.176 199.632C294.465 199.704 294.755 199.776 294.9 199.921C295.117 200.066 295.262 200.21 295.262 200.428C295.334 200.862 295.262 201.296 295.045 201.657C294.827 202.019 294.465 202.381 293.886 202.598C292.365 203.321 290.844 204.044 289.251 204.912C287.657 205.781 286.281 206.576 285.122 207.227C285.847 207.734 286.643 208.24 287.512 208.819C288.454 209.397 289.395 210.048 290.337 210.699C291.279 211.351 292.292 212.002 293.234 212.797C294.176 213.521 295.117 214.244 295.986 214.967C296.783 215.618 296.928 216.27 296.348 216.776C296.131 217.065 295.696 217.21 295.189 217.355C294.683 217.499 294.176 217.427 293.669 217.138C292.799 216.704 291.858 216.197 290.844 215.546C289.83 214.967 288.816 214.316 287.73 213.665C286.643 213.014 285.629 212.363 284.688 211.712C283.674 211.061 282.805 210.482 282.008 209.904C282.153 211.278 282.298 212.653 282.443 214.027C282.588 215.401 282.66 216.776 282.805 218.15C283.022 218.874 283.022 219.525 282.732 219.959C282.443 220.393 282.008 220.61 281.356 220.61C280.705 220.465 280.198 220.248 279.908 219.814C279.618 219.38 279.401 218.874 279.184 218.223C278.966 216.631 278.749 214.75 278.459 212.58C278.17 210.41 277.88 208.168 277.59 205.781C277.301 203.466 277.011 201.151 276.721 198.981C276.431 196.738 276.214 194.785 275.997 193.049C275.924 192.47 275.852 191.892 275.852 191.241C275.852 190.59 276.069 190.156 276.504 190.011C277.083 189.794 277.663 189.938 278.314 190.373C278.966 190.879 279.401 191.602 279.691 192.543C279.98 194.351 280.27 196.304 280.56 198.402C280.849 200.5 281.139 202.742 281.429 205.057C282.225 204.623 283.095 204.117 284.181 203.538C285.195 202.959 286.281 202.453 287.295 201.947C288.309 201.44 289.323 200.934 290.192 200.572C291.279 200.066 292.003 199.776 292.51 199.632Z" fill="black" stroke="black" stroke-width="0.75" stroke-miterlimit="10"/>
<path d="M39.4579 247.954C38.8785 248.026 38.2991 247.954 37.5748 247.737C36.8506 247.52 36.3436 247.013 36.1263 246.29C35.9815 245.928 35.9815 245.494 36.0539 245.132C36.1263 244.771 36.5609 244.481 37.2851 244.337C38.0094 244.192 38.7336 244.047 39.5303 243.903C40.327 243.758 41.1237 243.686 41.9927 243.541L39.8924 236.958C39.2406 234.499 39.1682 232.329 39.6752 230.52C40.1821 228.712 41.6306 227.482 44.0206 226.686C44.9622 226.397 45.9761 226.252 46.9176 226.325C47.8592 226.397 48.8007 226.686 49.5973 227.12C50.4664 227.554 51.1907 228.133 51.9149 228.856C52.6392 229.58 53.1462 230.376 53.5807 231.316C53.7256 231.75 53.798 232.112 53.8704 232.473C53.8704 232.835 53.7256 233.124 53.5083 233.341C53.1462 233.703 52.7116 233.92 52.2046 233.848C51.7701 233.775 51.408 233.631 51.2631 233.486C50.901 233.052 50.5389 232.618 50.1043 232.184C49.6698 231.75 49.3076 231.316 48.8007 231.027C48.3661 230.665 47.8592 230.448 47.3522 230.231C46.8452 230.086 46.2658 230.014 45.6864 230.086C45.3967 230.159 45.107 230.231 44.7449 230.52C44.3828 230.737 44.0206 231.099 43.8034 231.605C43.5137 232.112 43.3688 232.69 43.2964 233.486C43.224 234.282 43.3688 235.222 43.6585 236.38C43.9482 237.32 44.2379 238.405 44.6 239.562C44.9622 240.72 45.3243 241.877 45.7588 243.107C47.6419 242.962 49.3801 242.89 50.901 242.962C51.7701 243.035 52.5668 243.179 53.291 243.469C54.0153 243.686 54.5947 244.047 55.1016 244.554C55.2465 244.915 55.174 245.277 55.0292 245.494C54.8843 245.711 54.6671 245.928 54.3774 246.145C54.0877 246.362 53.7256 246.435 53.3634 246.507C53.0013 246.579 52.6392 246.652 52.2771 246.652C51.4804 246.724 50.6837 246.796 49.8146 246.869C48.9455 246.941 48.0764 247.013 47.1349 247.086C47.7143 248.822 48.2937 250.485 48.8007 252.077C49.3076 253.668 49.7422 254.97 50.0319 256.055C50.1767 256.634 50.1767 257.285 50.1043 257.936C49.9595 258.587 49.8146 259.238 49.5973 259.889C49.3076 260.757 48.8731 261.481 48.4385 262.06C47.9316 262.566 47.4246 262.783 46.9176 262.566C46.4831 262.349 46.1934 262.132 46.121 261.77C45.9761 261.481 45.9761 261.047 46.0485 260.468C46.121 259.817 46.1934 259.238 46.1934 258.587C46.1934 257.936 46.1934 257.358 46.121 256.851C46.0485 256.345 45.9761 255.838 45.9037 255.477C45.8313 255.115 45.7588 254.753 45.6864 254.609L43.2964 247.447C42.6446 247.52 42.0652 247.592 41.4133 247.664C40.7615 247.809 40.1821 247.881 39.4579 247.954Z" fill="black" stroke="black" stroke-width="0.75" stroke-miterlimit="10"/>
<path d="M72.6282 238.478C73.787 238.912 74.8009 239.563 75.5976 240.431C76.3943 241.299 76.9737 242.239 77.4082 243.324C77.8428 244.409 78.06 245.494 78.1325 246.652C78.2049 247.809 78.06 248.822 77.6979 249.835C77.2634 250.92 76.684 252.005 76.0321 253.018C75.3803 254.03 74.5836 254.971 73.7145 255.766C72.8454 256.562 71.9039 257.213 70.7451 257.72C69.6588 258.226 68.4275 258.443 67.1239 258.443C65.5305 258.443 64.1545 258.081 63.0681 257.286C61.9817 256.562 61.1126 255.549 60.5332 254.392C59.9538 253.235 59.5193 251.86 59.3744 250.413C59.2296 248.967 59.2296 247.448 59.5193 246.001C59.6641 244.916 59.9538 243.831 60.316 242.818C60.6781 241.805 61.1851 240.865 61.7645 240.069C62.3439 239.273 62.9957 238.622 63.7924 238.116C64.589 237.61 65.4581 237.393 66.3996 237.393C66.979 237.393 67.6309 237.537 68.4275 237.754C69.2242 237.971 70.0209 238.261 70.6727 238.695C71.2521 238.261 71.9039 238.188 72.6282 238.478ZM70.383 242.746C69.9485 242.456 69.4415 242.095 68.9345 241.661C68.3551 241.226 67.8481 241.009 67.486 241.009C67.0515 241.009 66.5445 241.226 66.1099 241.661C65.6754 242.095 65.2408 242.601 64.9512 243.107C64.589 243.686 64.2993 244.265 64.0821 244.843C63.8648 245.422 63.7199 245.856 63.5751 246.218C63.4302 246.797 63.3578 247.52 63.3578 248.316C63.2854 249.111 63.3578 249.907 63.5027 250.703C63.6475 251.498 63.9372 252.222 64.3718 252.873C64.8063 253.524 65.4581 253.958 66.3996 254.247C66.979 254.392 67.5584 254.392 68.3551 254.247C69.0794 254.103 69.8036 253.741 70.5279 253.307C71.2521 252.873 71.9039 252.222 72.5558 251.426C73.2076 250.63 73.7145 249.762 74.0767 248.75C74.4388 247.592 74.5112 246.435 74.1491 245.205C73.787 243.975 73.0627 243.107 71.9039 242.529C71.6142 242.746 71.3245 242.818 71.1073 242.818C70.7451 242.818 70.5279 242.818 70.383 242.746Z" fill="black" stroke="black" stroke-width="0.75" stroke-miterlimit="10"/>
<path d="M100.295 238.911C99.5703 239.273 98.846 239.707 98.1218 240.141C97.3251 240.575 96.6009 241.081 95.8042 241.588C95.0075 242.167 94.2833 242.818 93.6314 243.541C92.9072 244.264 92.3278 245.205 91.7484 246.217C90.9517 247.664 90.4448 249.183 90.1551 250.702C89.8654 252.222 89.6481 253.741 89.5757 255.187C89.5757 255.911 89.4308 256.562 89.0687 257.285C88.7066 258.009 88.272 258.37 87.6926 258.37C86.9684 258.37 86.389 258.009 85.9544 257.213C85.5199 256.417 85.2302 255.694 85.0853 255.043C84.4335 252.294 83.9265 249.545 83.492 246.796C83.0574 244.12 82.7677 241.371 82.478 238.694C82.478 238.116 82.6229 237.826 82.985 237.682C83.3471 237.537 83.7093 237.465 84.1438 237.537C84.5783 237.609 85.0853 237.682 85.5199 237.899C85.9544 238.116 86.1717 238.405 86.2441 238.839C86.389 240.286 86.6062 241.805 86.8235 243.396C87.0408 244.988 87.2581 246.362 87.4753 247.447C87.6202 246.145 88.0547 244.843 88.779 243.613C89.5032 242.384 90.3723 241.226 91.3863 240.213C92.4002 239.201 93.6314 238.333 94.9351 237.682C96.2387 236.958 97.6148 236.524 98.9184 236.307C99.4978 236.235 100.005 236.235 100.367 236.307C100.729 236.38 101.019 236.524 101.164 236.741C101.308 236.958 101.308 237.248 101.236 237.682C101.164 238.116 100.802 238.55 100.295 238.911Z" fill="black" stroke="black" stroke-width="0.75" stroke-miterlimit="10"/>
<path d="M124.412 257.864C124.122 258.298 123.76 258.587 123.326 258.732C122.964 258.877 122.601 258.949 122.239 258.949C121.66 258.877 121.225 258.732 120.718 258.37C120.284 258.008 119.994 257.719 119.849 257.357C119.632 256.706 119.342 255.983 119.125 255.115C118.835 254.319 118.618 253.451 118.328 252.655C118.111 251.787 117.821 250.992 117.532 250.196C117.242 249.4 117.025 248.677 116.807 248.026C116.011 249.4 115.287 250.775 114.562 252.149C113.838 253.524 113.041 254.97 112.172 256.417C111.81 256.996 111.303 257.357 110.796 257.574C110.289 257.791 109.855 257.864 109.493 257.864C108.986 257.791 108.551 257.647 108.116 257.285C107.682 256.923 107.392 256.634 107.175 256.272C106.74 255.549 106.306 254.681 105.944 253.524C105.509 252.438 105.147 251.209 104.785 249.979C104.423 248.749 104.061 247.519 103.771 246.29C103.481 245.06 103.192 243.975 103.047 242.962C102.902 242.311 102.974 241.66 103.119 241.081C103.264 240.503 103.626 240.141 104.133 240.069C104.785 240.069 105.364 240.286 105.944 240.72C106.451 241.226 106.813 241.66 106.885 242.166C107.03 242.962 107.247 243.83 107.392 244.698C107.609 245.639 107.827 246.507 108.044 247.447C108.261 248.388 108.551 249.328 108.768 250.196C108.986 251.064 109.275 251.86 109.565 252.583C110.144 251.643 110.796 250.558 111.52 249.328C112.245 248.098 112.969 246.941 113.621 245.783C114.273 244.626 114.924 243.613 115.431 242.818C116.011 241.949 116.445 241.443 116.735 241.226C116.952 241.081 117.314 241.081 117.749 241.298C118.183 241.443 118.473 241.732 118.69 242.022C119.56 243.758 120.211 245.639 120.791 247.664C121.37 249.69 121.877 251.643 122.384 253.379C122.964 252.655 123.543 251.787 124.122 250.63C124.774 249.473 125.354 248.243 125.933 247.013C126.512 245.711 127.092 244.481 127.599 243.179C128.106 241.877 128.54 240.72 128.83 239.779C129.12 238.767 129.554 238.26 130.134 238.26C130.858 238.333 131.437 238.55 131.944 238.984C132.451 239.345 132.668 239.779 132.524 240.213C131.654 243.613 130.496 246.796 129.12 249.617C127.961 252.511 126.295 255.26 124.412 257.864Z" fill="black" stroke="black" stroke-width="0.75" stroke-miterlimit="10"/>
<path d="M151.571 237.826C151.716 238.911 151.861 240.069 151.933 241.299C152.006 242.528 152.078 243.758 152.15 244.988C152.223 246.218 152.223 247.447 152.223 248.605C152.223 249.762 152.15 250.847 152.15 251.788C153.382 252.656 154.106 253.451 154.396 254.102C154.613 254.754 154.685 255.332 154.468 255.839C154.251 256.562 153.816 256.924 153.237 256.924C152.657 256.924 151.933 256.707 151.136 256.273C150.557 256.634 149.978 257.068 149.253 257.502C148.529 257.936 147.805 258.37 147.008 258.804C146.212 259.238 145.415 259.528 144.691 259.89C143.894 260.179 143.17 260.396 142.518 260.541C141.287 260.758 140.128 260.468 139.186 259.817C138.172 259.166 137.521 258.153 137.158 256.851C136.941 255.983 136.869 255.043 137.014 254.102C137.158 253.162 137.448 252.222 137.883 251.354C138.39 250.486 138.969 249.69 139.766 249.039C140.562 248.315 141.504 247.809 142.59 247.447C142.88 247.303 143.242 247.23 143.749 247.158C144.256 247.086 144.763 247.086 145.27 247.086C145.777 247.086 146.356 247.23 146.863 247.447C147.443 247.664 147.877 247.954 148.384 248.46C148.384 247.809 148.384 247.086 148.384 246.29C148.384 245.494 148.312 244.699 148.312 243.903C148.312 243.107 148.239 242.311 148.167 241.588C148.095 240.865 148.022 240.286 147.95 239.78C147.877 239.201 147.66 238.839 147.298 238.694C146.936 238.55 146.501 238.55 145.922 238.767C144.98 239.056 143.894 239.635 142.663 240.575C141.432 241.443 140.2 242.384 139.042 243.396C138.679 243.758 138.317 243.903 137.81 243.83C137.376 243.758 137.014 243.613 136.652 243.324C136.362 243.035 136.145 242.673 136.145 242.239C136.145 241.805 136.289 241.371 136.652 240.937C137.303 240.214 138.1 239.563 138.897 238.767C139.693 238.043 140.562 237.392 141.504 236.741C142.373 236.163 143.315 235.656 144.256 235.295C145.198 234.933 146.139 234.716 147.081 234.644C148.457 234.644 149.471 234.933 150.195 235.584C150.992 236.018 151.426 236.814 151.571 237.826ZM144.691 250.341C144.184 250.486 143.677 250.703 143.097 251.064C142.518 251.426 142.011 251.86 141.576 252.366C141.142 252.873 140.78 253.451 140.562 254.102C140.345 254.754 140.345 255.405 140.49 255.983C140.562 256.2 140.707 256.417 140.997 256.49C141.287 256.562 141.504 256.634 141.866 256.562C142.808 256.345 143.894 255.983 145.053 255.477C146.212 254.898 147.226 254.319 147.877 253.668C147.877 253.451 147.732 253.162 147.515 252.728C147.298 252.366 147.008 252.005 146.719 251.643C146.429 251.281 146.067 250.92 145.705 250.703C145.342 250.413 145.053 250.269 144.691 250.341Z" fill="black" stroke="black" stroke-width="0.75" stroke-miterlimit="10"/>
<path d="M175.399 239.49C174.675 239.852 173.951 240.286 173.226 240.72C172.43 241.154 171.705 241.66 170.909 242.166C170.112 242.745 169.388 243.396 168.736 244.12C168.012 244.843 167.432 245.783 166.853 246.796C166.056 248.243 165.549 249.762 165.26 251.281C164.97 252.8 164.753 254.319 164.68 255.766C164.68 256.489 164.535 257.14 164.173 257.864C163.811 258.587 163.376 258.949 162.797 258.949C162.073 258.949 161.493 258.587 161.059 257.791C160.624 256.996 160.335 256.272 160.19 255.621C159.538 252.872 159.031 250.124 158.596 247.375C158.162 244.698 157.872 241.949 157.583 239.273C157.583 238.694 157.727 238.405 158.089 238.26C158.452 238.116 158.814 238.043 159.248 238.116C159.683 238.188 160.19 238.26 160.624 238.477C161.059 238.694 161.276 238.984 161.349 239.418C161.493 240.864 161.711 242.383 161.928 243.975C162.145 245.566 162.363 246.941 162.58 248.026C162.725 246.724 163.159 245.422 163.883 244.192C164.608 242.962 165.477 241.805 166.491 240.792C167.505 239.779 168.736 238.911 170.04 238.26C171.343 237.537 172.719 237.103 174.023 236.886C174.602 236.813 175.109 236.813 175.471 236.886C175.834 236.958 176.123 237.103 176.268 237.32C176.413 237.537 176.413 237.826 176.341 238.26C176.196 238.767 175.906 239.128 175.399 239.49Z" fill="black" stroke="black" stroke-width="0.75" stroke-miterlimit="10"/>
<path d="M188.87 230.086C188.725 229.363 188.798 228.712 189.015 228.133C189.232 227.554 189.667 227.193 190.318 227.12C190.898 227.048 191.405 227.193 191.839 227.627C192.274 227.988 192.564 228.495 192.708 229.146C193.433 233.631 194.157 238.043 194.809 242.528C195.461 246.941 196.04 251.281 196.547 255.549C196.692 256.707 196.619 257.43 196.33 257.864C196.04 258.298 195.678 258.587 195.243 258.732C194.809 258.949 194.302 258.949 193.94 258.732C193.505 258.515 193.288 258.153 193.143 257.647L193.071 257.285L192.853 257.358C191.55 257.792 190.246 258.081 188.798 258.081C187.421 258.153 186.045 257.936 184.742 257.575C183.438 257.141 182.352 256.562 181.338 255.621C180.324 254.753 179.672 253.596 179.237 252.222C178.296 249.256 178.948 246.507 181.048 244.047C181.917 243.035 183.076 242.167 184.38 241.299C185.683 240.503 187.277 239.852 189.16 239.418L190.246 239.201L188.87 230.086ZM182.786 250.92C183.004 251.86 183.438 252.583 184.09 253.09C184.742 253.596 185.466 253.958 186.335 254.102C187.204 254.319 188.073 254.319 189.087 254.175C190.029 254.03 191.043 253.885 191.984 253.524L192.491 253.379L190.898 243.107L189.739 243.396C188.942 243.613 188.073 243.975 187.132 244.481C186.19 244.988 185.394 245.494 184.669 246.218C183.945 246.869 183.438 247.592 183.076 248.388C182.641 249.183 182.569 250.051 182.786 250.92Z" fill="black" stroke="black" stroke-width="0.75" stroke-miterlimit="10"/>
<path d="M229.355 244.409C230.08 244.409 230.804 244.554 231.6 244.988C232.325 245.35 232.687 246.001 232.687 246.796C232.614 247.447 232.252 247.882 231.6 248.026C230.949 248.171 230.442 248.316 230.08 248.243C229.283 248.243 228.486 248.243 227.545 248.316C226.676 248.316 225.734 248.388 224.793 248.46C224.72 249.762 224.648 250.92 224.575 252.077C224.503 253.235 224.43 254.175 224.43 255.115C224.358 255.983 224.358 256.707 224.358 257.213C224.358 257.792 224.358 258.081 224.43 258.081C225.3 257.937 226.241 257.647 227.183 257.285C228.124 256.924 229.21 256.49 230.152 256.056C231.166 255.622 232.107 255.188 233.049 254.681C233.991 254.175 234.932 253.741 235.801 253.307C236.163 253.09 236.525 253.09 236.888 253.162C237.25 253.235 237.394 253.452 237.467 253.669C237.539 254.103 237.467 254.609 237.25 255.26C237.032 255.911 236.67 256.417 236.163 256.924C235.584 257.358 234.787 257.937 233.846 258.515C232.904 259.094 231.89 259.673 230.731 260.179C229.645 260.685 228.559 261.192 227.4 261.553C226.314 261.987 225.3 262.204 224.43 262.277C223.127 262.349 222.185 262.06 221.533 261.192C220.882 260.396 220.52 259.311 220.447 258.081C220.375 256.851 220.375 255.405 220.447 253.741C220.52 252.077 220.592 250.341 220.664 248.533C219.94 248.605 219.216 248.677 218.564 248.75C217.912 248.822 217.26 248.894 216.609 248.967C216.102 248.967 215.522 248.822 214.943 248.605C214.363 248.388 214.074 247.882 214.074 247.23C214.074 247.013 214.146 246.652 214.363 246.29C214.581 245.928 215.015 245.639 215.667 245.422C217.26 245.133 219.071 244.916 220.954 244.771C221.099 242.963 221.244 241.154 221.389 239.49C221.533 237.754 221.678 236.235 221.823 234.788C221.896 234.354 222.04 233.92 222.258 233.559C222.475 233.197 222.765 233.052 223.054 233.052C223.706 233.052 224.358 233.197 224.937 233.559C225.517 233.92 225.807 234.354 225.807 234.788C225.662 236.09 225.517 237.61 225.3 239.273C225.155 240.937 225.01 242.673 224.865 244.409C225.662 244.337 226.386 244.265 227.11 244.265C227.979 244.409 228.704 244.409 229.355 244.409Z" fill="black" stroke="black" stroke-width="0.75" stroke-miterlimit="10"/>
<path d="M253.401 239.852C254.559 240.286 255.573 240.937 256.37 241.805C257.167 242.673 257.746 243.613 258.181 244.698C258.615 245.783 258.832 246.868 258.905 248.026C258.977 249.183 258.832 250.196 258.47 251.209C258.036 252.294 257.456 253.379 256.805 254.392C256.153 255.404 255.356 256.345 254.487 257.14C253.618 257.936 252.676 258.587 251.518 259.094C250.431 259.6 249.2 259.817 247.896 259.817C246.303 259.817 244.927 259.455 243.841 258.66C242.754 257.936 241.885 256.923 241.306 255.766C240.726 254.609 240.292 253.234 240.147 251.787C240.002 250.341 240.002 248.822 240.292 247.375C240.437 246.29 240.726 245.205 241.088 244.192C241.451 243.179 241.958 242.239 242.537 241.443C243.116 240.647 243.768 239.996 244.565 239.49C245.361 238.984 246.231 238.767 247.172 238.767C247.751 238.767 248.403 238.911 249.2 239.128C249.997 239.345 250.793 239.635 251.445 240.069C252.025 239.562 252.676 239.49 253.401 239.852ZM251.155 244.047C250.721 243.758 250.214 243.396 249.707 242.962C249.128 242.528 248.621 242.311 248.186 242.311C247.751 242.311 247.245 242.528 246.81 242.962C246.375 243.396 245.941 243.903 245.651 244.409C245.289 244.988 244.999 245.566 244.782 246.145C244.565 246.724 244.42 247.158 244.275 247.519C244.13 248.098 244.058 248.822 244.058 249.617C243.985 250.413 244.058 251.209 244.203 252.004C244.348 252.8 244.637 253.524 245.072 254.175C245.506 254.826 246.158 255.26 247.1 255.549C247.679 255.694 248.258 255.694 249.055 255.549C249.779 255.404 250.504 255.043 251.228 254.609C251.952 254.175 252.604 253.524 253.256 252.728C253.908 251.932 254.415 251.064 254.777 250.051C255.139 248.894 255.211 247.737 254.849 246.507C254.487 245.277 253.763 244.409 252.604 243.83C252.314 244.047 252.025 244.12 251.807 244.12C251.518 244.192 251.3 244.12 251.155 244.047Z" fill="black" stroke="black" stroke-width="0.75" stroke-miterlimit="10"/>
</svg>
