<svg width="322" height="217" viewBox="0 0 322 217" fill="none" xmlns="http://www.w3.org/2000/svg">
<path d="M286.855 216.112C281.658 215.944 276.126 215.609 269.923 215.106C269.085 215.106 268.247 214.268 268.415 213.262C268.582 212.424 269.253 211.585 270.259 211.753C276.294 212.256 281.826 212.591 286.855 212.759C287.861 212.759 288.531 213.597 288.531 214.435C288.531 215.441 287.693 216.112 286.855 216.112ZM303.619 215.944C302.781 215.944 301.942 215.273 301.942 214.435C301.942 213.429 302.613 212.759 303.451 212.591C309.151 212.256 314.683 211.585 319.88 210.412C320.718 210.244 321.724 210.747 321.891 211.753C322.059 212.591 321.556 213.597 320.55 213.765C315.353 214.77 309.654 215.609 303.619 215.944ZM253.495 213.262H253.327C247.795 212.591 242.095 211.753 236.731 210.747C235.893 210.58 235.222 209.741 235.39 208.735C235.558 207.897 236.396 207.227 237.402 207.394C242.766 208.4 248.298 209.238 253.83 209.909C254.668 210.077 255.339 210.915 255.339 211.753C255.004 212.759 254.333 213.262 253.495 213.262ZM220.47 207.562C220.303 207.562 220.302 207.562 220.135 207.562C214.603 206.389 209.071 205.047 203.706 203.706C202.868 203.539 202.198 202.533 202.533 201.695C202.868 200.856 203.706 200.354 204.545 200.521C209.909 201.862 215.273 203.203 220.805 204.377C221.644 204.545 222.314 205.383 222.147 206.389C221.979 207.059 221.141 207.562 220.47 207.562ZM187.948 199.012C187.781 199.012 187.613 199.012 187.445 199.012C182.081 197.336 176.717 195.492 171.52 193.648C170.682 193.313 170.179 192.307 170.514 191.469C170.849 190.631 171.855 190.128 172.693 190.463C177.89 192.307 183.254 194.151 188.451 195.827C189.289 196.163 189.792 197.001 189.625 198.007C189.457 198.677 188.787 199.012 187.948 199.012ZM156.6 187.613C156.432 187.613 156.097 187.613 155.929 187.445C150.733 185.266 145.536 182.919 140.674 180.405C139.836 180.069 139.501 179.064 139.836 178.225C140.171 177.387 141.177 177.052 142.015 177.387C146.877 179.734 152.074 182.081 157.271 184.26C158.109 184.596 158.444 185.601 158.109 186.44C157.773 187.11 157.271 187.613 156.6 187.613ZM126.425 172.861C126.09 172.861 125.922 172.861 125.587 172.693C120.725 170.011 115.864 166.994 111.17 163.976C110.332 163.473 110.164 162.467 110.667 161.629C111.17 160.791 112.176 160.623 113.014 161.126C117.708 164.144 122.402 166.994 127.263 169.676C128.101 170.179 128.437 171.184 127.934 172.023C127.599 172.526 127.096 172.861 126.425 172.861ZM98.0942 154.924C97.759 154.924 97.4237 154.756 97.0884 154.588L96.2502 153.918C92.0593 150.9 87.8683 147.548 83.845 144.195C83.1744 143.524 83.0068 142.518 83.6773 141.848C84.3479 141.177 85.3537 141.01 86.0243 141.68C90.0476 145.033 94.0709 148.218 98.2619 151.236L99.1001 151.906C99.7706 152.409 99.9383 153.583 99.4353 154.253C99.2677 154.588 98.7648 154.924 98.0942 154.924ZM72.4456 133.466C72.1103 133.466 71.6074 133.298 71.2721 132.963C67.2488 129.107 63.2255 125.084 59.3698 121.061C58.6992 120.39 58.6992 119.384 59.5374 118.714C60.208 118.043 61.2138 118.043 61.8844 118.881C65.5724 122.905 69.5957 126.928 73.619 130.784C74.2896 131.454 74.2896 132.46 73.619 133.131C73.2838 133.298 72.7809 133.466 72.4456 133.466ZM49.6468 108.991C49.1439 108.991 48.641 108.823 48.3057 108.32C44.7853 103.962 41.2649 99.4353 38.0798 94.9091C37.5768 94.0709 37.7445 93.0651 38.415 92.5622C39.2532 92.0593 40.259 92.2269 40.762 92.8975C43.9471 97.4237 47.2999 101.782 50.8203 106.141C51.3232 106.811 51.3232 107.985 50.6526 108.488C50.3173 108.823 49.9821 108.991 49.6468 108.991ZM30.3684 81.498C29.8655 81.498 29.1949 81.1628 28.8596 80.6599C26.0098 75.7983 23.1599 70.9368 20.6454 65.9077C20.1425 65.0695 20.4777 64.0637 21.3159 63.7284C22.1541 63.2255 23.1599 63.5608 23.4952 64.3989C26.0098 69.2605 28.692 74.122 31.5419 78.9835C32.0448 79.8217 31.7095 80.8275 31.0389 81.3304C30.8713 81.498 30.536 81.498 30.3684 81.498ZM15.1133 51.6584C14.4427 51.6584 13.7722 51.3232 13.6046 50.6526C11.4253 45.4558 9.41361 40.0914 7.73722 34.727C7.40195 33.8888 7.90486 32.883 8.74305 32.5477C9.58124 32.2124 10.5871 32.7153 10.9223 33.5535C12.5987 38.7503 14.6104 43.9471 16.622 49.1439C16.9573 49.9821 16.622 50.9879 15.7839 51.3232C15.6162 51.6584 15.4486 51.6584 15.1133 51.6584ZM4.88737 19.8072C4.04918 19.8072 3.37863 19.3043 3.21099 18.4661C1.86988 12.934 0.864051 7.40195 0.0258599 1.86988C-0.141778 1.03169 0.52878 0.0258599 1.36697 0.0258599C2.20516 -0.141778 3.21099 0.52878 3.21099 1.36697C4.04918 6.73139 5.05501 12.2635 6.39612 17.6279C6.56376 18.4661 6.06084 19.4719 5.22265 19.6395C5.05501 19.8072 4.88737 19.8072 4.88737 19.8072Z" fill="black"/>
</svg>
