<svg width="118" height="108" viewBox="0 0 118 108" fill="none" xmlns="http://www.w3.org/2000/svg">
<path d="M2.81594 108C2.0898 108 1.18214 107.46 1.0006 106.559C0.819069 105.659 1.36367 104.578 2.27134 104.398C4.99434 103.677 7.89888 102.957 10.6219 102.416C11.5296 102.236 12.6188 102.777 12.8003 103.857C12.9818 104.758 12.4372 105.839 11.348 106.019C8.62502 106.559 5.72048 107.28 2.99747 108C3.17901 108 2.99747 108 2.81594 108ZM29.1383 102.957C28.2306 102.957 27.5045 102.236 27.323 101.335C27.1414 100.435 27.8676 99.5341 28.9568 99.354C34.9474 98.6334 41.1195 98.093 47.1101 97.7328C48.1993 97.7328 48.9255 98.4533 48.9255 99.5341C48.9255 100.615 48.1993 101.335 47.1101 101.335C41.1195 101.516 35.1289 102.056 29.1383 102.777C29.3199 102.957 29.1383 102.957 29.1383 102.957ZM70.8911 101.335C69.0757 101.335 67.2604 101.335 65.2635 101.335C64.1743 101.335 63.4482 100.435 63.4482 99.5341C63.4482 98.6334 64.3559 97.7328 65.2635 97.7328C67.0789 97.7328 68.8942 97.7328 70.8911 97.7328C75.974 97.7328 79.7862 97.5526 83.4169 97.3725C84.5061 97.3725 85.2322 98.093 85.4137 98.9937C85.4137 99.8944 84.6876 100.795 83.7799 100.975C79.9677 101.335 75.974 101.335 70.8911 101.335ZM101.207 97.5526C100.481 97.5526 99.7549 97.0122 99.5734 96.2917C99.2103 95.391 99.7549 94.3102 100.663 93.9499C101.389 93.7698 102.115 93.4095 102.841 93.2294C106.653 91.6082 111.736 88.9062 113.733 84.4028C114.096 83.5021 115.185 83.1419 116.093 83.5021C117.001 83.8624 117.364 84.9432 117.001 85.8439C115.185 90.3472 110.647 94.1301 104.112 96.652C103.386 97.0122 102.659 97.1924 101.933 97.5526C101.57 97.3725 101.389 97.5526 101.207 97.5526ZM112.462 69.6318C111.918 69.6318 111.192 69.2715 110.828 68.7311C108.287 64.4079 104.475 60.2648 98.8472 56.3018C98.1211 55.7614 97.9396 54.5004 98.4842 53.7799C99.0288 53.0594 100.3 52.8792 101.026 53.4196C106.835 57.7429 111.01 62.2462 113.915 66.9297C114.459 67.8304 114.096 68.9112 113.188 69.4516C113.188 69.6318 112.825 69.6318 112.462 69.6318ZM84.8691 46.9348C84.5061 46.9348 84.3245 46.9348 83.9615 46.7547C79.0601 43.8725 73.4325 40.4499 68.7127 36.3068C67.9865 35.5863 67.805 34.5055 68.5311 33.785C69.2573 33.0644 70.3465 32.8843 71.0726 33.6048C75.6109 37.5678 81.0569 40.8102 85.7768 43.5122C86.6845 44.0526 86.866 45.1334 86.503 46.0341C85.9584 46.7547 85.4137 46.9348 84.8691 46.9348ZM59.4544 22.2563C58.7283 22.2563 58.0022 21.8961 57.8206 20.9954C56.1868 17.2126 55.4607 13.0695 55.4607 8.74624C55.4607 6.58462 55.6422 4.423 56.0053 2.44152C56.1868 1.54085 57.276 0.820309 58.1837 1.00044C59.0914 1.18058 59.8175 2.08125 59.636 3.16206C59.2729 4.96341 59.0914 6.94489 59.0914 8.74624C59.0914 12.5291 59.8175 16.3119 61.0882 19.9146C61.4513 20.8153 60.9067 21.8961 59.999 22.2563C59.8175 22.2563 59.636 22.2563 59.4544 22.2563Z" fill="black"/>
</svg>
