<svg width="368" height="209" viewBox="0 0 368 209" fill="none" xmlns="http://www.w3.org/2000/svg">
<path d="M2.09185 0.0541874C2.27681 0.0270933 2.2768 0.0270941 2.46176 0C3.41358 0.0489647 4.28852 0.862758 4.26566 1.99646C3.93939 7.50765 3.59026 14.1526 3.92694 20.3202C4.08904 21.4268 3.27229 22.3 2.13551 22.2782C1.02575 22.4407 0.150832 21.6269 0.17369 20.4932C-0.217028 13.9567 0.132108 7.31179 0.431358 1.61617C0.693211 0.82424 1.352 0.162564 2.09185 0.0541874ZM6.48942 36.5234C7.22926 36.415 8.05014 36.86 8.34317 37.5706C9.35319 39.3066 10.3632 41.0426 11.5312 42.567C13.8401 45.4315 16.8348 47.8187 20.5423 49.9131C21.3632 50.358 21.7373 51.622 21.2905 52.441C20.8436 53.26 19.5759 53.6341 18.755 53.1892C14.8355 50.9374 11.4169 48.2355 8.68403 45.0564C7.30409 43.3746 6.0821 41.4813 5.01805 39.3764C4.51304 38.5085 4.90581 37.3206 5.77657 36.8162C6.11948 36.5776 6.30446 36.5505 6.48942 36.5234ZM37.1597 55.0146C37.3446 54.9875 37.5296 54.9604 37.7146 54.9333C38.1115 55.0635 38.4814 55.0094 38.8784 55.1396C45.0133 55.7481 51.198 55.4073 56.061 55.0717C57.1708 54.9091 58.0457 55.7229 58.0229 56.8566C58 57.9903 57.3412 58.652 56.2314 58.8146C51.3684 59.1502 44.9987 59.5181 38.4939 58.9638C38.097 58.8335 37.7271 58.8877 37.1452 58.7846C36.1933 58.7356 35.2914 57.7374 35.5262 56.761C35.761 55.7846 36.4198 55.1229 37.1597 55.0146ZM74.5072 53.3115C81.2469 52.8895 87.6706 52.8904 93.5935 53.3416C94.5453 53.3905 95.4203 54.2043 95.3974 55.3381C95.3475 56.2873 94.5308 57.1605 93.394 57.1386C87.6831 56.8449 81.4443 56.8168 74.8896 57.2118C73.9648 57.3472 72.9049 56.5605 72.9278 55.4268C72.7657 54.3202 73.3975 53.4741 74.5072 53.3115ZM111.578 56.1704C111.763 56.1433 111.948 56.1163 112.345 56.2465C118.8 57.75 124.781 59.8882 130.289 62.6609C131.294 63.0788 131.641 64.1583 131.222 65.1617C130.802 66.1652 129.719 66.5122 128.713 66.0944C123.418 63.479 117.649 61.4982 111.564 59.9404C110.585 59.707 109.868 58.6817 110.103 57.7053C110.153 56.7561 110.839 56.2788 111.578 56.1704ZM144.148 73.4414C144.703 73.3601 145.285 73.4633 145.736 73.9624C147.513 75.7744 149.263 77.402 150.855 79.2412C153.533 82.0514 156 84.7043 158.598 86.9613L157.492 88.442L156.175 89.7654C153.55 87.324 150.871 84.5137 148.192 81.7034C146.415 79.8914 144.851 78.2367 143.074 76.4247C142.411 75.7682 142.407 74.4501 143.065 73.7884C143.408 73.5498 143.778 73.4956 144.148 73.4414ZM247.691 72.2149C251.575 71.646 255.355 71.6574 259.005 72.0648C259.956 72.1137 260.673 73.1391 260.624 74.0883C260.574 75.0376 259.545 75.7535 258.593 75.7045C253.013 75.0148 246.882 75.7244 240.914 77.5407C240.016 77.8606 238.798 77.2854 238.478 76.3904C238.158 75.4953 238.736 74.2803 239.634 73.9604C242.169 73.2122 244.916 72.6213 247.691 72.2149ZM223.775 83.0656C224.33 82.9843 225.124 83.2448 225.39 83.771C226.08 84.6119 226.057 85.7456 225.213 86.4344C221.179 89.8512 217.808 93.9244 215.443 98.4155C215.154 99.023 214.708 99.842 214.419 100.45C213.999 101.453 212.916 101.8 211.91 101.382C210.904 100.964 210.557 99.8848 210.977 98.8814C211.239 98.0894 211.713 97.4548 212.16 96.6358C214.841 91.7217 218.369 87.4369 222.719 83.597C223.062 83.3584 223.405 83.1198 223.775 83.0656ZM275.495 78.8804C276.05 78.7991 276.447 78.9293 276.871 79.244C282.436 83.7038 286.314 89.5411 287.576 95.5732C287.738 96.6798 287.106 97.526 286.208 97.8459C285.099 98.0084 284.251 97.3791 283.931 96.484C282.777 91.1896 279.404 86.2203 274.475 82.2325C273.627 81.6032 273.465 80.4966 274.097 79.6504C274.597 79.2003 274.94 78.9617 275.495 78.8804ZM170.824 99.4882C171.379 99.4069 171.961 99.5101 172.412 100.009C176.841 104.447 181.215 108.516 185.987 112.715C186.835 113.345 186.839 114.663 186.18 115.325C185.548 116.171 184.227 116.176 183.564 115.519C178.792 111.32 174.39 107.067 169.777 102.656C169.114 101.999 168.925 100.708 169.768 100.02C169.926 99.8081 170.269 99.5695 170.824 99.4882ZM207.779 115.74C207.964 115.713 207.964 115.713 208.149 115.686C209.101 115.735 210.003 116.733 209.953 117.682C209.753 121.479 209.739 125.249 210.121 129.15C212.372 130.327 214.595 131.32 216.792 132.129C217.798 132.546 218.145 133.626 217.91 134.602C217.49 135.606 216.408 135.953 215.429 135.719C213.841 135.198 212.411 134.466 210.796 133.761C210.905 134.498 211.013 135.236 211.279 135.762C211.441 136.869 210.809 137.715 209.911 138.035C208.801 138.197 207.954 137.568 207.633 136.673C207.205 135.04 206.962 133.38 206.719 131.72C204.044 130.228 201.37 128.736 198.668 127.059C197.82 126.43 197.473 125.351 198.105 124.504C198.737 123.658 199.819 123.311 200.667 123.941C202.548 125.172 204.402 126.22 206.256 127.267C205.981 124.104 206.05 120.703 206.172 117.671C206.195 116.537 206.854 115.876 207.779 115.74ZM281.653 111.889C282.023 111.835 282.605 111.938 283.002 112.068C283.85 112.698 284.197 113.777 283.565 114.623C281.408 117.954 278.484 121.208 275.005 124.543C273.502 125.894 271.815 127.271 270.312 128.622C269.469 129.311 268.305 129.104 267.615 128.263C266.925 127.422 267.133 126.262 267.976 125.573C269.506 124.407 271.008 123.056 272.511 121.706C275.832 118.582 278.413 115.566 280.439 112.632C280.57 112.236 281.098 111.97 281.653 111.889ZM234.041 136.384C234.226 136.357 234.226 136.357 234.411 136.33C240.519 136.754 246.492 136.256 252.064 134.309C252.961 133.989 254.179 134.564 254.499 135.46C254.819 136.355 254.241 137.57 253.344 137.89C247.402 139.89 240.901 140.654 234.212 140.127C233.26 140.078 232.358 139.08 232.408 138.13C232.458 137.181 233.116 136.52 234.041 136.384ZM215.691 151.694C216.431 151.586 217.251 152.031 217.544 152.742C219.114 155.714 221.053 158.633 222.964 161.367C224.583 163.391 226.202 165.414 228.006 167.411C228.696 168.252 228.673 169.386 227.83 170.074C226.986 170.763 225.849 170.741 225.159 169.9C223.355 167.904 221.524 165.723 219.878 163.515C217.754 160.623 215.788 157.52 214.007 154.39C213.502 153.522 213.895 152.334 214.766 151.83C215.136 151.776 215.506 151.722 215.691 151.694ZM240.309 179.173C240.864 179.092 241.261 179.222 241.685 179.537C246.349 182.998 251.725 186.167 257.444 189.097C258.45 189.515 258.797 190.594 258.192 191.625C257.772 192.628 256.69 192.975 255.657 192.373C249.753 189.47 244.349 186.117 239.474 182.498C238.626 181.869 238.464 180.762 239.096 179.916C239.411 179.493 239.939 179.227 240.309 179.173ZM273.592 196.151C273.962 196.097 274.147 196.07 274.544 196.2C276.131 196.721 277.719 197.242 279.307 197.763C283.673 199.196 287.986 200.26 292.298 201.324C293.277 201.557 293.994 202.582 293.759 203.559C293.524 204.535 292.495 205.251 291.516 205.017C287.019 203.981 282.68 202.732 278.314 201.3C276.726 200.779 275.138 200.258 273.365 199.764C272.359 199.346 271.827 198.294 272.247 197.29C272.351 196.71 272.852 196.26 273.592 196.151ZM309.94 204.391C310.125 204.364 310.31 204.337 310.495 204.31C316.63 204.918 322.922 205.315 328.949 205.186C329.901 205.235 330.776 206.049 330.911 206.971C330.861 207.92 330.044 208.793 329.12 208.929C322.908 209.085 316.642 208.873 310.295 208.107C309.343 208.058 308.441 207.06 308.676 206.083C308.356 205.188 309.015 204.526 309.94 204.391ZM365.197 198.557C366.122 198.422 366.943 198.867 367.263 199.762C367.583 200.657 367.19 201.845 366.108 202.192C360.193 204.377 354.012 206.036 347.751 207.142C346.826 207.277 345.793 206.675 345.631 205.568C345.469 204.461 346.101 203.615 347.21 203.453C353.287 202.374 359.283 200.742 364.854 198.796C364.854 198.796 365.012 198.584 365.197 198.557Z" fill="black"/>
</svg>
