<svg width="327" height="258" viewBox="0 0 327 258" fill="none" xmlns="http://www.w3.org/2000/svg">
<path d="M231.951 229.848C231.057 230.228 229.859 229.891 229.404 228.818C228.949 227.745 229.361 226.726 230.434 226.271C236.261 223.589 241.936 220.55 247.536 217.331C248.354 216.773 249.552 217.109 250.186 218.107C250.744 218.925 250.408 220.123 249.41 220.757C243.632 224.051 237.957 227.091 231.951 229.848ZM213.988 237.254C207.755 239.475 201.445 241.517 195.239 243.305C194.269 243.505 193.174 242.914 192.795 242.02C192.595 241.049 193.186 239.955 194.08 239.575C200.286 237.788 206.417 235.822 212.471 233.677C213.544 233.222 214.639 233.813 215.018 234.707C215.473 235.78 214.882 236.875 213.988 237.254ZM265.547 210.538C264.653 210.917 263.71 210.684 263.152 209.866C262.594 209.047 262.675 207.746 263.673 207.112C268.866 203.433 274.162 199.499 279.024 195.538C279.767 194.801 281.068 194.883 281.702 195.88C282.439 196.623 282.357 197.924 281.36 198.558C276.318 202.595 271.022 206.528 265.65 210.283C265.726 210.462 265.726 210.462 265.547 210.538ZM176.675 247.8C176.496 247.875 176.496 247.875 176.317 247.951C170.241 249.05 163.732 250.122 156.968 251.091C155.997 251.291 155.006 250.446 154.805 249.476C154.784 248.429 155.451 247.514 156.421 247.313C163.006 246.42 169.337 245.424 175.413 244.325C176.383 244.125 177.478 244.716 177.754 245.865C177.803 246.477 177.391 247.496 176.675 247.8ZM138.057 252.778C137.878 252.854 137.699 252.93 137.445 252.827C131.499 253.238 125.119 253.622 117.949 254.13C116.903 254.151 115.911 253.305 115.89 252.259C115.868 251.213 116.714 250.222 117.76 250.2C124.828 249.947 131.207 249.563 137.077 248.974C138.123 248.952 139.039 249.619 139.136 250.844C139.26 251.635 138.773 252.475 138.057 252.778ZM295.389 185.856C294.673 186.159 293.806 186.105 293.324 185.465C292.587 184.723 292.49 183.498 293.232 182.761C297.791 178.084 302.02 173.126 305.56 168.037C306.227 167.121 307.452 167.024 308.292 167.512C309.208 168.179 309.305 169.404 308.817 170.244C305.098 175.408 300.87 180.367 296.207 185.298C295.926 185.629 295.747 185.704 295.389 185.856ZM99.1957 254.695C99.0169 254.771 98.838 254.847 98.4044 254.82L79.0389 255.434C77.9928 255.455 77.0011 254.61 76.9797 253.564C76.9582 252.517 77.8039 251.526 78.8499 251.504L98.2155 250.89C99.2615 250.869 100.253 251.714 100.275 252.76C100.399 253.552 99.9112 254.392 99.1957 254.695ZM317.909 154.36C317.373 154.587 316.939 154.56 316.43 154.354C315.411 153.942 315.135 152.793 315.547 151.774C318.274 145.764 320.389 139.802 321.458 133.862C321.615 132.74 322.613 132.106 323.735 132.264C324.856 132.421 325.49 133.419 325.333 134.54C324.161 140.735 322.019 147.13 319.189 153.395C318.728 153.802 318.446 154.132 317.909 154.36ZM60.3888 255.745C60.2099 255.82 60.0311 255.896 59.5975 255.869L40.232 256.483C39.1859 256.505 38.1942 255.659 38.1727 254.613C38.1512 253.567 38.9969 252.575 40.043 252.554L59.4085 251.94C60.4546 251.918 61.4463 252.764 61.4678 253.81C61.6681 254.78 61.1043 255.441 60.3888 255.745ZM21.6578 256.973C21.4789 257.049 21.3 257.125 20.8664 257.097L2.11329 257.663C1.06724 257.684 0.0755911 256.839 0.0541113 255.793C0.0326314 254.747 0.878317 253.755 1.92437 253.733L20.6775 253.168C21.7235 253.146 22.7152 253.992 22.7367 255.038C22.6823 255.905 22.3732 256.67 21.6578 256.973ZM324.892 116.579C324.713 116.655 324.534 116.73 324.355 116.806C323.309 116.828 322.393 116.161 322.193 115.191L322.117 115.012C321.349 109.218 319.968 103.472 317.617 97.9273L317.313 97.2118C316.858 96.1386 317.27 95.1197 318.344 94.6646C319.238 94.2854 320.436 94.6217 320.891 95.6949L321.27 96.5893C323.773 102.492 325.305 108.595 326.226 114.747L326.301 114.926C326.095 115.435 325.607 116.275 324.892 116.579ZM309.772 81.4167C309.056 81.7201 307.934 81.5627 307.452 80.923C303.67 75.9847 299.427 71.4529 294.393 67.0455C293.656 66.3029 293.558 65.0779 294.301 64.341C295.044 63.604 296.269 63.5066 297.006 64.2493C302.116 68.8355 306.689 73.6493 310.471 78.5876C311.03 79.4061 310.948 80.7069 310.129 81.265C310.054 81.0861 309.951 81.3408 309.772 81.4167ZM280.915 55.6665C280.379 55.894 279.691 55.7638 279.181 55.5577C274.244 52.3753 268.695 49.2415 262.354 46.2323C261.335 45.8202 260.983 44.4922 261.471 43.6522C261.883 42.6333 263.211 42.2813 264.051 42.7692C270.468 45.9574 276.017 49.0912 281.209 52.3766C282.125 53.0435 282.401 54.1925 281.734 55.1084C281.555 55.1842 281.273 55.5148 280.915 55.6665ZM246.237 38.083C245.7 38.3106 245.266 38.2833 244.757 38.0773C240.936 36.5319 237.04 34.8076 233.398 33.1864C231.284 32.1833 229.068 31.4349 226.954 30.4318C225.935 30.0197 225.48 28.9464 225.892 27.9276C226.304 26.9087 227.378 26.4536 228.396 26.8657C230.51 27.8688 232.727 28.6172 234.84 29.6203C238.661 31.1657 242.558 32.89 246.378 34.4354C247.397 34.8475 247.852 35.9207 247.44 36.9396C247.055 37.5249 246.773 37.8555 246.237 38.083ZM211.531 20.9331C210.815 21.2365 210.127 21.1063 209.466 20.5425C206.415 17.8265 204.155 14.986 202.942 12.1241C201.425 8.54664 201.312 4.79601 202.83 1.40884C203.242 0.38997 204.315 -0.0650722 205.334 0.347038C206.353 0.759147 206.808 1.83237 206.396 2.85124C205.366 5.39841 205.381 7.9241 206.519 10.6072C207.505 12.9325 209.358 15.3122 212.003 17.5674C212.74 18.3101 212.837 19.535 212.094 20.272C212.067 20.7056 211.888 20.7815 211.531 20.9331Z" fill="black"/>
</svg>
