<svg width="211" height="256" viewBox="0 0 211 256" fill="none" xmlns="http://www.w3.org/2000/svg">
<path d="M210.684 34.8618C210.898 38.8519 210.955 43.0172 210.689 47.3667C210.568 48.2069 209.947 49.074 208.941 48.9613C208.1 48.8398 207.233 48.2194 207.346 47.213C207.446 42.8724 207.555 38.6982 207.35 34.8743C207.278 33.5442 207.198 32.0479 207.126 30.7179C206.915 29.8956 207.702 29.0196 208.699 28.966C209.697 28.9123 210.398 29.5416 210.451 30.5391C210.523 31.8692 210.603 33.3655 210.684 34.8618ZM207.073 14.2139C207.108 14.8789 206.645 15.5707 205.998 15.939C205.176 16.1499 204.152 15.7048 203.941 14.8825C202.369 10.4651 200.492 6.56431 197.977 3.19808C197.433 2.39361 197.546 1.38712 198.351 0.843667C199.155 0.300211 200.162 0.412844 200.705 1.21731C203.395 4.74087 205.457 8.96519 207.212 13.7062C207.064 14.0476 207.073 14.2139 207.073 14.2139ZM209.404 63.776C209.413 63.9422 209.413 63.9422 209.422 64.1085C208.719 69.6485 207.85 75.1975 206.64 80.5982C206.518 81.4384 205.556 82.157 204.707 81.8692C203.867 81.7476 203.148 80.7859 203.436 79.9367C204.48 74.545 205.358 69.1623 206.061 63.6222C206.182 62.782 206.978 62.0723 207.984 62.1849C208.824 62.3065 209.359 62.9447 209.404 63.776ZM202.816 96.3102C202.825 96.4765 202.834 96.6427 202.676 96.8179C201.134 102.236 199.249 107.507 197.365 112.777C197.077 113.626 196.098 114.012 195.248 113.724C194.399 113.436 194.013 112.457 194.301 111.607C196.194 106.504 198.078 101.233 199.63 95.9812C199.918 95.1321 200.889 94.5797 201.738 94.8675C202.246 95.007 202.78 95.6452 202.816 96.3102ZM190.477 127.32C190.495 127.652 190.513 127.985 190.189 128.169C187.456 133.151 184.206 137.828 180.605 142.19C179.976 142.89 178.979 142.944 178.287 142.481C177.595 142.018 177.532 140.854 177.995 140.162C181.438 135.975 184.531 131.474 187.107 126.667C187.561 125.809 188.55 125.589 189.408 126.043C190.082 126.174 190.441 126.654 190.477 127.32ZM169.513 152.957C169.539 153.456 169.4 153.963 168.919 154.323C164.618 158.055 160.124 161.298 155.279 164.226C154.475 164.77 153.459 164.491 152.916 163.686C152.372 162.882 152.651 161.867 153.456 161.323C158.143 158.57 162.637 155.327 166.615 151.779C167.253 151.244 168.417 151.182 168.96 151.986C169.477 152.292 169.495 152.624 169.513 152.957ZM141.074 169.825C141.11 170.49 140.647 171.182 140 171.55C138.521 171.963 137.043 172.376 135.564 172.789C135.285 173.805 135.015 174.986 134.737 176.002C134.449 176.851 133.644 177.394 132.629 177.116C131.78 176.828 131.236 176.023 131.515 175.008C131.655 174.5 131.785 173.826 131.924 173.318C130.936 173.538 129.772 173.601 128.775 173.655C126.78 173.762 124.776 173.703 122.929 173.469C122.089 173.347 121.379 172.551 121.492 171.545C121.613 170.705 122.409 169.995 123.415 170.108C125.096 170.351 126.933 170.419 128.762 170.32C130.092 170.249 131.413 170.011 132.901 169.765C133.71 166.22 134.179 162.526 134.647 158.833C134.769 157.993 135.564 157.283 136.405 157.404C137.245 157.526 137.954 158.322 137.833 159.162C137.504 162.347 137.018 165.708 136.356 168.912C137.179 168.701 138.167 168.481 138.981 168.104C139.803 167.893 140.827 168.338 141.038 169.16C141.056 169.493 141.065 169.659 141.074 169.825ZM138.103 142.474C138.148 143.305 137.527 144.172 136.53 144.226C135.532 144.279 134.831 143.65 134.778 142.652C134.653 140.325 134.361 138.006 134.07 135.687C133.541 132.048 132.89 129.248 132.082 126.624C131.871 125.802 132.316 124.777 133.139 124.566C133.961 124.355 134.985 124.8 135.196 125.623C136.179 128.404 136.839 131.37 137.22 135.351C137.677 137.661 137.978 140.146 138.103 142.474ZM125.364 113.313C125.382 113.645 125.233 113.987 125.076 114.162C124.622 115.02 123.633 115.24 122.775 114.786C119.334 112.803 115.281 111.854 111.457 112.059C110.792 112.095 110.127 112.131 109.305 112.342C108.806 112.369 108.316 112.562 107.818 112.589C106.995 112.8 105.971 112.354 105.751 111.366C105.54 110.543 105.985 109.519 106.974 109.299C107.63 109.097 108.129 109.07 108.785 108.868C109.607 108.657 110.438 108.613 111.27 108.568C115.759 108.327 120.319 109.415 124.277 111.704C125.144 112.324 125.337 112.814 125.364 113.313ZM129.048 191.147C129.066 191.48 129.075 191.646 128.926 191.987C126.701 197.109 123.958 201.925 120.866 206.427L120.717 206.768C120.254 207.46 119.099 207.689 118.408 207.226C117.716 206.763 117.487 205.608 117.95 204.916L118.098 204.574C121.034 200.248 123.61 195.441 125.853 190.652C126.307 189.794 127.287 189.408 127.979 189.871C128.653 190.001 129.012 190.482 129.048 191.147ZM109.802 165.004C109.82 165.336 109.68 165.844 109.366 166.194C108.736 166.895 107.739 166.949 107.038 166.32C103.018 162.867 99.4421 158.391 96.3208 153.057C95.7774 152.252 96.0563 151.237 96.8697 150.86C97.6831 150.482 98.6896 150.595 99.0667 151.408C102.013 156.586 105.404 160.738 109.074 163.876C109.591 164.181 109.775 164.505 109.802 165.004ZM110.518 218.654C110.545 219.153 110.397 219.495 110.082 219.845C106.131 223.892 101.996 227.616 97.5111 231.025C96.7067 231.569 95.7002 231.456 95.1567 230.651C94.6133 229.847 94.7259 228.841 95.5304 228.297C99.8584 225.063 103.993 221.339 107.787 217.467C108.416 216.767 109.414 216.713 110.114 217.342C110.308 217.832 110.492 218.156 110.518 218.654ZM96.2405 120.547C96.2584 120.88 96.11 121.221 95.9616 121.563C95.0356 122.946 94.451 124.478 93.8754 126.177C92.8814 129.398 92.7277 132.741 93.2657 136.547C93.3104 137.378 92.8564 138.237 91.8678 138.456C90.8792 138.676 90.1784 138.047 89.9585 137.058C89.2274 132.763 89.5205 128.912 90.654 125.183C91.2207 123.318 91.9626 121.611 93.037 119.886C93.4911 119.028 94.4797 118.808 95.3467 119.428C96.0206 119.559 96.2137 120.049 96.2405 120.547ZM83.9121 238.592C83.9479 239.257 83.6422 239.774 82.995 240.142C77.9662 242.747 72.7533 245.028 67.5135 246.81C66.6912 247.021 65.6669 246.576 65.4559 245.754C65.245 244.931 65.6901 243.907 66.5125 243.696C71.5859 241.923 76.6415 239.817 81.5041 237.221C82.3175 236.844 83.3329 237.123 83.7101 237.936C83.8853 238.094 83.8942 238.26 83.9121 238.592ZM52.8419 249.933C52.8777 250.598 52.4147 251.29 51.7675 251.659C47.831 252.871 43.7372 254.258 40.2458 254.445C38.5833 254.535 36.7634 254.799 35.1008 254.889C34.1033 254.942 33.4025 254.313 33.3489 253.316C33.2953 252.318 33.9245 251.617 34.9221 251.564C36.5846 251.474 38.2382 251.219 40.0671 251.12C43.217 250.784 47.3197 249.563 50.9237 248.369C51.7461 248.158 52.7704 248.603 52.9814 249.426C52.6578 249.61 52.833 249.767 52.8419 249.933ZM19.8732 253.873C19.9269 254.871 19.1313 255.581 18.3001 255.625C12.6384 255.763 7.13411 255.725 1.6298 255.688C0.632267 255.741 -0.0774443 254.946 0.0351845 253.939C-0.0184424 252.942 0.777085 252.232 1.78356 252.345C7.28787 252.382 12.7832 252.254 18.4538 252.282C19.1188 252.247 19.8285 253.042 19.8732 253.873Z" fill="black"/>
</svg>
