<svg width="174" height="15" viewBox="0 0 174 15" fill="none" xmlns="http://www.w3.org/2000/svg">
<path d="M173.323 10.7507C171.329 8.65161 169.2 6.7243 167.206 4.6252C165.215 2.69292 163.805 1.74169 161.498 3.66125C159.599 5.23224 157.296 7.31862 155.829 9.54199C155.691 9.54696 155.687 9.38014 155.548 9.38511C155.254 8.72776 154.549 8.25215 154.12 7.76659C153.121 6.63363 152.26 5.4957 151.265 4.52956C149.695 2.74919 147.994 1.30743 145.809 2.55473C143.619 3.6352 142.304 6.35407 140.551 8.25374C140.417 8.42553 140.283 8.59732 140.149 8.76912C140.555 8.42056 140.408 8.09188 139.854 8.11177C139.426 7.62621 138.729 7.48424 138.167 7.17048C137.18 6.53799 136.194 5.90549 135.208 5.273C132.953 3.85113 130.829 2.09064 128.705 0.330157C127.995 -0.312279 126.758 0.0661037 126.221 0.753278C125.29 2.28948 124.356 3.65885 123.425 5.19505C122.893 6.04905 122.361 6.90305 121.828 7.75704C121.694 7.92884 121.56 8.10063 121.43 8.43925C121.296 8.61104 121.296 8.61104 121.296 8.61104C120.032 7.98849 118.89 6.69367 117.757 5.7325C116.485 4.77631 115.208 3.65329 113.798 2.70206C111.392 0.784691 109.013 -0.13174 106.442 2.29822C104.551 4.20286 102.798 6.10253 100.907 8.00717C99.3497 6.72727 97.7964 5.61419 96.1004 4.33926C94.5471 3.22618 92.9809 1.61264 91.0554 2.1827C89.2682 2.74779 87.6584 4.80931 86.1697 6.19857C85.3562 6.89568 84.5426 7.5928 83.8676 8.28494C83.054 8.98206 82.5002 9.00194 81.518 8.53627C78.2902 6.98237 75.716 3.90222 72.103 3.53099C68.3516 3.16474 65.7983 6.26199 62.9509 8.7019C62.0032 9.57081 62.1373 9.39901 61.1465 8.5997C60.2985 7.96223 59.589 7.31979 58.741 6.68233C57.0449 5.4074 55.3489 4.13247 53.3975 3.70159C51.4504 3.43754 49.8147 4.49812 48.0405 5.56368C47.0842 6.09894 46.1278 6.63421 45.1715 7.16947C44.2152 7.70474 42.7222 8.92717 41.4804 9.13873C39.8188 9.19838 37.6944 7.4379 36.2797 6.31985C34.7221 5.03995 33.4242 3.08281 31.4728 2.65194C29.6598 2.21609 27.8814 3.11482 26.5312 4.49911C25.0425 5.88837 23.7139 8.10678 21.7582 7.50908C19.8068 7.0782 18.2363 5.29783 16.5445 4.18972C14.71 2.91976 12.7457 1.98842 10.5217 1.73431C6.48898 1.21117 2.38245 3.19535 0.279035 7.61227C-1.03237 10.498 2.63231 12.8711 3.94372 9.98537C5.78313 6.07886 9.79858 5.9347 12.8922 7.66039C15.9858 9.38608 18.5643 12.6331 22.1686 12.6706C23.8345 12.7778 25.3361 11.889 26.6949 10.8384C27.7767 9.79767 29.6463 7.05892 31.0568 8.01014C32.463 8.79455 33.7565 10.5849 35.1713 11.7029C36.7246 12.816 38.5548 13.9191 40.225 14.1931C42.0336 14.4621 43.5352 13.5734 45.1752 12.6796C47.2263 11.6041 49.2645 10.0281 51.3199 9.11945C53.1027 8.38754 54.8117 10.1629 56.2222 11.1142C57.637 12.2322 59.2117 14.1794 61.0204 14.4484C64.2266 15.1682 66.7368 10.4027 69.3332 8.97371C72.3406 7.36294 75.3345 10.595 77.8699 12.1738C79.4232 13.2868 81.2491 14.2232 83.0405 13.8249C84.9703 13.4216 86.5845 11.5269 88.0732 10.1377C88.8867 9.44057 90.0941 7.89443 91.0547 7.52599C91.1932 7.52102 91.4572 7.01061 91.4572 7.01061C91.7341 7.00067 92.7292 7.96681 93.0105 8.12369C94.9921 9.72232 97.1121 11.316 99.0937 12.9146C99.0937 12.9146 99.2321 12.9097 99.2364 13.0765C99.946 13.7189 101.058 13.846 101.863 12.8152C103.079 11.6027 104.157 10.3952 105.373 9.18269C105.909 8.49551 106.589 7.97019 107.125 7.28302C107.532 6.93446 108.333 5.73688 108.882 5.55017C109.986 5.34358 111.984 7.6095 112.832 8.24697C114.104 9.20317 115.238 10.1643 116.51 11.1205C118.492 12.7192 120.91 15.137 123.065 12.722C124.143 11.5144 124.93 9.81638 125.727 8.45197C126.259 7.59798 126.926 6.57219 127.458 5.71819C130.997 8.59672 134.666 11.1366 138.595 12.9993C140.979 14.0826 142.32 12.3647 143.934 10.47C144.739 9.43919 145.536 8.07479 146.488 7.3727C147.301 6.67558 146.756 7.02911 147.461 7.50473C147.885 7.82346 148.461 8.63769 148.889 9.12324C149.888 10.2562 150.749 11.3941 151.744 12.3603C152.458 13.1695 153.319 14.3075 154.301 14.7731C156.543 15.6945 157.871 13.4761 159.356 11.9201C160.299 10.8843 161.242 9.8486 162.324 8.80789C162.324 8.80789 163.138 8.11078 163.545 7.76222C163.687 7.92407 163.83 8.08592 163.973 8.24778C165.967 10.3469 168.096 12.2742 170.091 14.3733C172.5 16.4575 175.318 12.8498 173.323 10.7507Z" fill="#F7C300"/>
</svg>
