<svg width="228" height="58" viewBox="0 0 228 58" fill="none" xmlns="http://www.w3.org/2000/svg">
<path d="M4.13084 24.0314C3.97591 24.5161 3.81849 24.9478 3.60198 25.3818C3.38298 25.7626 3.09742 25.9864 2.8069 26.1041C2.22337 26.2862 1.74562 26.1982 1.43522 25.891C1.12482 25.5838 0.930133 25.219 1.02348 24.6834C1.18037 22.975 1.50958 21.1535 2.01111 19.219C2.51265 17.2845 3.07328 15.3477 3.7546 13.4594C4.43343 11.518 5.17633 9.68057 5.97832 7.84084C6.78032 6.00111 7.65135 4.37151 8.52735 2.84811C8.69471 2.62885 8.86455 2.4627 9.03936 2.40275C9.21417 2.3428 9.45056 2.33366 9.57124 2.3822C9.74357 2.26915 9.91589 2.15609 10.1473 2.04076C10.3246 2.03391 10.5585 1.97168 10.7949 1.96254C10.9131 1.95798 10.9722 1.95569 11.0929 2.00423C11.2136 2.05277 11.3343 2.10131 11.4599 2.25605C11.5856 2.41079 11.7728 2.61635 11.9625 2.87502C12.1522 3.13368 12.4085 3.54937 12.6672 4.01816C13.2071 5.43367 13.752 6.95538 14.415 8.47253C15.078 9.98968 15.7411 11.5068 16.4632 13.0217C16.5789 12.964 16.638 12.9617 16.6971 12.9595C16.7562 12.9572 16.8719 12.8995 16.931 12.8972C17.2831 12.8304 17.6993 12.8675 18.1155 12.9047C18.5907 12.9395 18.8962 13.1405 19.0293 13.4545C19.2264 13.8725 19.2438 14.2442 18.9633 14.5743C18.7418 14.902 18.2839 15.2389 17.6487 15.5826C18.1046 16.4694 18.5606 17.3561 19.014 18.1898C19.4675 19.0235 19.9209 19.8571 20.4334 20.6885C20.5 20.8455 20.5099 21.0579 20.5839 21.3743C20.6579 21.6906 20.7295 21.9538 20.7444 22.2725C20.7593 22.5911 20.7717 22.8566 20.725 23.1244C20.6783 23.3922 20.5676 23.5561 20.3953 23.6691C20.1639 23.7844 19.925 23.7405 19.6836 23.6434C19.4423 23.5463 19.1984 23.3961 18.9546 23.246C18.7107 23.0958 18.5235 22.8902 18.3362 22.6847C18.149 22.4791 18.0209 22.2713 17.8952 22.1165C17.3186 21.1812 16.742 20.2459 16.2245 19.3083C15.707 18.3708 15.1895 17.4332 14.672 16.4956C13.3227 16.7605 11.9142 17.0277 10.326 17.2486C8.73784 17.4696 7.20625 17.6351 5.67219 17.7476C5.36729 18.8233 5.06239 19.8991 4.81659 20.9726C4.62492 21.9375 4.37913 23.011 4.13084 24.0314ZM10.0873 5.82017C8.74653 8.79788 7.64461 11.8196 6.6584 14.7836C8.78345 14.6483 11.0168 14.296 13.4199 13.7776C12.1753 11.219 11.0439 8.54955 10.0873 5.82017Z" fill="#59C69F"/>
<path d="M39.5323 8.77911C39.6138 9.25475 39.6386 9.78577 39.7891 10.4715C39.8805 11.1596 40.031 11.8454 40.1249 12.5865C40.2779 13.3254 40.3693 14.0134 40.5223 14.7523C40.6728 15.4381 40.8232 16.1238 40.9097 16.7057C41.2345 16.0548 41.6134 15.2953 42.1005 14.3189C42.5902 13.3957 43.0798 12.4724 43.5719 11.6022C44.0641 10.732 44.6228 10.0188 45.1864 9.41188C45.7501 8.80492 46.267 8.46576 46.7398 8.4475C47.2717 8.42695 47.7544 8.6211 48.1905 9.08305C48.624 9.49189 49.0626 10.0069 49.3879 10.6327C49.7132 11.2586 50.0385 11.8844 50.3097 12.6187C50.5784 13.2999 50.7855 13.9303 50.9876 14.4544C51.0884 14.0782 51.2458 13.6465 51.4008 13.1617C51.5557 12.677 51.7697 12.1899 51.9838 11.7028C52.1978 11.2158 52.4684 10.6734 52.7416 10.184C53.0147 9.69468 53.3494 9.25616 53.6866 8.87074C54.0804 8.42994 54.5408 8.14617 55.0036 7.91549C55.469 7.73792 55.8186 7.61802 56.055 7.60889C56.3505 7.59748 56.7075 7.63688 57.0696 7.78249C57.4907 7.92582 57.9143 8.12225 58.3405 8.37178C58.7666 8.62132 59.1952 8.92395 59.5647 9.22887C59.9366 9.58689 60.2495 9.9472 60.5033 10.3098C61.0134 11.0881 61.4052 11.8709 61.6863 12.8176C62.0241 13.7089 62.2436 14.6048 62.3991 15.3968C62.557 16.2419 62.7075 16.9277 62.7398 17.618C62.8287 18.2529 62.8511 18.7309 62.9201 18.941C62.9375 19.3127 62.8909 19.5805 62.8417 19.7952C62.7334 20.0122 62.5611 20.1252 62.3297 20.2406C61.9825 20.4136 61.6895 20.4781 61.4507 20.4341C61.2118 20.3901 60.9704 20.2931 60.8473 20.1914C60.6625 20.039 60.5369 19.8842 60.4703 19.7272C60.3447 19.5725 60.2756 19.3623 60.2706 19.2561C60.1226 18.6235 60.0312 17.9354 59.8807 17.2496C59.7302 16.5639 59.5822 15.9312 59.4317 15.2454C59.2837 14.6128 59.0791 14.0355 58.8745 13.4582C58.6723 12.934 58.4702 12.4099 58.273 11.9919C58.209 11.888 58.0833 11.7332 57.9577 11.5785C57.832 11.4237 57.6448 11.2182 57.46 11.0657C57.2753 10.9133 57.0905 10.7608 56.9674 10.6592C56.7851 10.5598 56.6644 10.5113 56.6028 10.4605C56.3073 10.4719 55.9652 10.7511 55.6354 11.2958C55.3057 11.8405 54.9809 12.4914 54.7202 13.2463C54.4595 14.0011 54.2013 14.8091 53.9431 15.6171C53.6848 16.425 53.5398 17.1222 53.449 17.7109C53.4838 18.4543 53.3313 18.9922 53.0532 19.3753C52.7751 19.7585 52.428 19.9315 52.0734 19.9452C51.7188 19.9589 51.2386 19.8178 50.8149 19.6214C50.3888 19.3718 50.14 19.1155 50.0069 18.8014C49.8072 18.3303 49.5485 17.8615 49.3439 17.2843C49.0801 16.7093 48.8164 16.1343 48.5527 15.5593C48.289 14.9843 48.0252 14.4093 47.7615 13.8343C47.4978 13.2593 47.239 12.7905 46.9803 12.3217C46.5323 12.871 46.1485 13.5242 45.7646 14.1774C45.3807 14.8306 44.9993 15.5369 44.618 16.2433C44.2366 16.9496 43.9143 17.6536 43.5895 18.3045C43.2672 19.0086 42.94 19.6064 42.6668 20.0957C42.4453 20.4235 42.2214 20.6981 41.9974 20.9727C41.7734 21.2474 41.4829 21.365 41.1283 21.3787C40.8919 21.3878 40.5915 21.2931 40.286 21.0921C39.9806 20.8911 39.7318 20.6347 39.4214 20.3275C39.1701 20.018 38.9163 19.6554 38.6625 19.2928C38.4063 18.8771 38.2707 18.51 38.1326 18.0897C37.8391 16.8775 37.5381 15.506 37.2937 14.079C37.0468 12.599 36.8024 11.1721 36.6196 9.79599C36.5382 9.32035 36.634 8.83786 36.7939 8.45929C36.9513 8.02762 37.2935 7.74841 37.7588 7.57084C38.2858 7.44409 38.7044 7.53432 39.0098 7.73531C39.2562 7.93859 39.4509 8.30346 39.5323 8.77911Z" fill="#59C69F"/>
<path d="M78.0043 11.0701C76.7931 11.7553 75.4587 12.3388 74.0577 12.7653C72.6567 13.1918 71.1276 13.4105 69.4729 13.4744C69.5792 14.4811 69.9119 15.2662 70.5303 15.8275C71.1486 16.3888 71.8751 16.7331 72.7075 16.8074C73.2419 16.8399 73.7146 16.8217 74.2416 16.6949C74.7685 16.5682 75.2363 16.4437 75.6991 16.213C76.1645 16.0354 76.5682 15.807 76.9104 15.5278C77.255 15.3017 77.5972 15.0225 77.8828 14.7987C78.1683 14.5749 78.4563 14.4042 78.7494 14.3396C79.0424 14.2751 79.2788 14.266 79.4585 14.3122C79.9388 14.4533 80.0768 14.8735 79.9909 15.5684C79.5013 16.4917 78.8294 17.3157 77.9136 17.9894C76.9979 18.6632 75.954 19.1291 74.7795 19.334C73.7823 19.5322 72.716 19.5202 71.6423 19.3488C70.5661 19.1244 69.5391 18.6853 68.6769 17.9738C67.9379 17.364 67.3097 16.5903 66.9128 15.7012C66.516 14.8122 66.2374 13.9186 66.0745 12.9673C65.914 12.0691 65.9925 11.2149 66.1916 10.4092C66.4498 9.60128 66.8312 8.89496 67.3333 8.23719C67.8944 7.57713 68.5813 7.07181 69.3888 6.61503C70.2554 6.15597 71.191 5.90703 72.3705 5.80828C73.7248 5.64957 74.9782 5.86714 76.126 6.35479C77.2737 6.84244 78.0767 7.5562 78.5967 8.54689C78.858 9.06878 78.9985 9.54214 78.9002 9.97153C78.7994 10.3478 78.5213 10.7309 78.0043 11.0701ZM72.3715 8.36176C72.0785 8.42628 71.7289 8.54618 71.3818 8.71919C71.0346 8.89219 70.6875 9.0652 70.402 9.28902C70.1164 9.51285 69.8333 9.78977 69.6094 10.0644C69.3854 10.3391 69.2821 10.6622 69.2379 10.9831C69.7698 10.9626 70.3583 10.8867 71.0059 10.8084C71.651 10.6771 72.2961 10.5458 72.8821 10.4168C73.4681 10.2878 74.0517 10.1056 74.5761 9.92576C75.1005 9.74591 75.5043 9.51752 75.8514 9.34451C75.5902 8.82262 75.1 8.46916 74.3858 8.39035C73.7849 8.20077 73.0757 8.22816 72.3715 8.36176Z" fill="#59C69F"/>
<path d="M91.9996 7.76319C91.9256 7.44685 91.8516 7.13052 91.7801 6.86729C91.7086 6.60406 91.5213 6.3985 91.2824 6.35453C90.7431 6.21576 90.1521 6.23859 89.5661 6.36762C88.9801 6.49666 88.3991 6.7319 87.9362 6.96257C87.4168 7.24863 87.0155 7.53012 86.6733 7.80933C86.3312 8.08854 86.1688 8.414 86.1196 8.6287C86.0213 9.05808 86.2185 9.47606 86.5313 9.83636C86.9058 10.2475 87.4551 10.5987 88.125 10.9984C89.2752 11.5391 90.4279 12.133 91.6988 12.7223C92.9106 13.3138 94.0042 13.91 94.8614 14.5153C95.7186 15.1205 96.3443 15.8411 96.6771 16.6263C97.0098 17.4114 96.993 18.3164 96.5649 19.2905C96.2476 20.1008 95.6248 20.71 94.7016 21.2244C93.7784 21.7389 92.732 22.1517 91.6216 22.4606C90.5112 22.7695 89.3391 23.0275 88.2188 23.124C87.1009 23.2736 86.0987 23.3655 85.3304 23.3952C85.1531 23.402 84.9142 23.3581 84.6113 23.2102C84.3108 23.1154 84.067 22.9652 83.8231 22.815C83.5793 22.6648 83.3329 22.4616 83.2073 22.3068C83.0225 22.1544 82.9535 21.9442 82.9485 21.838C82.9237 21.307 83.1452 20.9793 83.6671 20.7463C84.1891 20.5133 84.6569 20.3889 85.2479 20.3661C86.0162 20.3364 86.841 20.2513 87.725 20.164C88.609 20.0766 89.4314 19.9385 90.1922 19.7495C90.9531 19.5605 91.7114 19.3184 92.29 19.0301C92.9276 18.7394 93.3264 18.4048 93.602 17.9686C93.8235 17.6409 93.6263 17.2229 93.1312 16.7632C92.636 16.3036 91.9636 15.8508 91.1114 15.3517C90.2591 14.8526 89.3503 14.4089 88.4415 13.9653C87.4735 13.5239 86.6854 13.1287 85.9563 12.7313C85.2864 12.3316 84.673 11.8765 84.1754 11.3637C83.6778 10.851 83.3475 10.1189 83.192 9.32697C83.0981 8.58581 83.2431 7.88863 83.6245 7.18232C83.9468 6.47829 84.4514 5.87361 85.0175 5.31976C85.5836 4.76591 86.2729 4.31369 87.0854 3.96312C87.8388 3.61482 88.6587 3.42356 89.427 3.39388C90.7887 3.39448 91.9265 3.66972 92.8428 4.27271C93.7591 4.8757 94.3332 5.7579 94.5651 6.91931C94.585 7.34413 94.5408 7.66502 94.376 7.93738C94.2702 8.20746 93.9822 8.37819 93.6301 8.44499C93.1598 8.51635 92.8027 8.47694 92.5588 8.32677C92.1993 8.23426 92.012 8.0287 91.9996 7.76319Z" fill="#59C69F"/>
<path d="M108.133 7.13998C108.059 6.82365 107.985 6.50731 107.914 6.24408C107.842 5.98085 107.655 5.77529 107.416 5.73132C106.877 5.59256 106.286 5.61539 105.7 5.74442C105.114 5.87345 104.533 6.10869 104.07 6.33936C103.551 6.62542 103.149 6.90691 102.807 7.18612C102.465 7.46533 102.303 7.7908 102.253 8.00549C102.155 8.43488 102.352 8.85285 102.665 9.21315C103.04 9.62428 103.589 9.97545 104.259 10.3752C105.409 10.9159 106.562 11.5098 107.833 12.0991C109.044 12.6906 110.138 13.2868 110.995 13.892C111.852 14.4973 112.478 15.2179 112.811 16.0031C113.144 16.7882 113.127 17.6932 112.699 18.6673C112.381 19.4776 111.759 20.0868 110.835 20.6012C109.912 21.1157 108.866 21.5285 107.755 21.8374C106.645 22.1463 105.473 22.4043 104.352 22.5008C103.235 22.6504 102.232 22.7423 101.464 22.772C101.287 22.7788 101.048 22.7348 100.745 22.587C100.445 22.4922 100.201 22.342 99.9569 22.1918C99.713 22.0416 99.4667 21.8384 99.341 21.6836C99.1563 21.5312 99.0873 21.321 99.0823 21.2148C99.0574 20.6838 99.2789 20.3561 99.8009 20.1231C100.323 19.8901 100.791 19.7657 101.382 19.7428C102.15 19.7132 102.975 19.6281 103.859 19.5408C104.743 19.4534 105.565 19.3153 106.326 19.1263C107.087 18.9373 107.845 18.6952 108.424 18.4069C109.061 18.1162 109.46 17.7816 109.736 17.3454C109.957 17.0177 109.76 16.5997 109.265 16.14C108.77 15.6804 108.097 15.2276 107.245 14.7285C106.393 14.2294 105.484 13.7857 104.575 13.3421C103.607 12.9007 102.819 12.5055 102.09 12.1081C101.42 11.7084 100.807 11.2533 100.309 10.7405C99.8115 10.2278 99.4812 9.49573 99.3258 8.70376C99.2319 7.96261 99.3769 7.26542 99.7583 6.55911C100.081 5.85508 100.585 5.25041 101.151 4.69655C101.717 4.1427 102.407 3.69049 103.219 3.33991C103.973 2.99162 104.792 2.80035 105.561 2.77068C106.922 2.77127 108.06 3.04651 108.977 3.6495C109.893 4.25249 110.467 5.13469 110.699 6.2961C110.719 6.72092 110.675 7.04182 110.51 7.31418C110.404 7.58426 110.116 7.75498 109.764 7.82178C109.294 7.89314 108.936 7.85374 108.693 7.70356C108.333 7.61105 108.205 7.40321 108.133 7.13998Z" fill="#59C69F"/>
<path d="M127.14 3.37351C127.295 4.16549 127.453 5.01056 127.554 5.91102C127.656 6.81148 127.757 7.71195 127.858 8.61241C127.96 9.51287 128.002 10.4156 128.042 11.2653C128.081 12.1149 128.119 12.9114 128.092 13.604C129.126 14.2025 129.801 14.7084 130.001 15.1795C130.201 15.6505 130.28 16.0731 130.12 16.4516C129.967 16.9895 129.625 17.2687 129.152 17.287C128.68 17.3053 128.081 17.1688 127.419 16.9284C126.958 17.2121 126.5 17.549 125.924 17.8905C125.348 18.2319 124.772 18.5734 124.137 18.9171C123.502 19.2608 122.864 19.5514 122.283 19.7867C121.643 20.0242 121.059 20.2063 120.532 20.3331C119.535 20.5312 118.58 20.3553 117.789 19.9071C116.939 19.4611 116.373 18.7382 116.032 17.7938C115.825 17.1634 115.734 16.4753 115.82 15.7804C115.906 15.0855 116.11 14.3861 116.435 13.7351C116.759 13.0842 117.264 12.4795 117.889 11.9234C118.514 11.3673 119.265 10.9659 120.137 10.613C120.368 10.4977 120.661 10.4332 121.073 10.3641C121.484 10.295 121.897 10.279 122.311 10.263C122.725 10.2471 123.203 10.335 123.621 10.4252C124.101 10.5663 124.525 10.7627 124.897 11.1207C124.875 10.6428 124.85 10.1118 124.822 9.52765C124.795 8.94352 124.709 8.36168 124.681 7.77755C124.595 7.19571 124.568 6.61158 124.484 6.08283C124.4 5.55409 124.321 5.13155 124.244 4.76212C124.165 4.33958 123.976 4.08092 123.675 3.98612C123.375 3.89133 123.023 3.95813 122.555 4.0826C121.796 4.32469 120.932 4.83685 119.957 5.51289C118.983 6.18893 118.013 6.97118 117.161 7.74885C116.878 8.02578 116.587 8.1434 116.171 8.10628C115.814 8.06687 115.514 7.97208 115.208 7.77108C114.962 7.5678 114.772 7.30914 114.757 6.99052C114.683 6.67419 114.846 6.34873 115.067 6.02098C115.574 5.46941 116.14 4.91556 116.825 4.35714C117.45 3.801 118.137 3.29568 118.824 2.79036C119.513 2.33815 120.264 1.93676 121.017 1.58846C121.773 1.29327 122.534 1.10429 123.3 1.02151C124.42 0.925035 125.26 1.15859 125.932 1.6114C126.605 2.06421 126.987 2.63464 127.14 3.37351ZM122.076 12.8257C121.667 12.9479 121.261 13.1231 120.8 13.4069C120.34 13.6907 119.941 14.0253 119.607 14.4638C119.269 14.8492 118.994 15.2855 118.839 15.7702C118.684 16.255 118.706 16.7329 118.903 17.1509C118.97 17.3079 119.096 17.4627 119.335 17.5066C119.517 17.606 119.753 17.5969 120.046 17.5323C120.807 17.3433 121.681 17.0436 122.607 16.5823C123.532 16.1209 124.281 15.6664 124.849 15.1657C124.842 15.0063 124.714 14.7985 124.522 14.4867C124.332 14.2281 124.083 13.9717 123.834 13.7153C123.586 13.4589 123.278 13.2048 122.975 13.0569C122.61 12.8582 122.31 12.7634 122.076 12.8257Z" fill="#59C69F"/>
<path d="M141.217 6.87284C141.468 7.18233 141.722 7.54491 142.039 8.01142C142.298 8.48021 142.498 8.95129 142.638 9.42465C142.853 10.2143 143.127 11.0017 143.405 11.8954C143.684 12.789 143.965 13.7357 144.246 14.6824C144.527 15.6291 144.811 16.6289 145.035 17.631C145.26 18.6331 145.541 19.5798 145.701 20.478C145.938 21.7456 145.875 22.9185 145.575 24.1004C145.216 25.2846 144.613 26.3187 143.769 27.2557C142.865 28.195 141.777 28.9818 140.443 29.5653C139.109 30.1488 137.587 30.5268 135.876 30.6461C135.518 30.6067 135.097 30.4634 134.671 30.2138C134.243 29.9112 134.053 29.6525 134.038 29.3339C133.964 29.0176 134.129 28.7452 134.476 28.5722C134.821 28.3461 135.229 28.2239 135.581 28.1571C136.229 28.0789 136.933 27.9453 137.632 27.7055C138.332 27.4657 139.031 27.2259 139.605 26.8314C140.24 26.4876 140.811 26.04 141.261 25.5438C141.771 25.0453 142.157 24.4452 142.423 23.7966C142.634 23.2564 142.723 22.6146 142.688 21.8712C142.653 21.1278 142.559 20.3866 142.406 19.6477C142.253 18.9089 142.103 18.2231 141.893 17.5396C141.684 16.8561 141.484 16.3851 141.348 16.0179C141.122 16.2394 140.895 16.461 140.551 16.6871C140.206 16.9132 139.862 17.1393 139.458 17.3677C139.054 17.5961 138.589 17.7737 138.121 17.8981C137.653 18.0226 137.124 18.0962 136.648 18.0614C136.114 18.0288 135.575 17.8901 135.146 17.5874C134.658 17.2871 134.225 16.8782 133.848 16.414C133.471 15.9498 133.148 15.3771 132.939 14.6936C132.672 14.0655 132.581 13.3774 132.546 12.634C132.526 10.9324 132.926 9.37421 133.81 8.01012C134.634 6.64831 136.065 5.58229 138.039 4.76124C138.214 4.70129 138.391 4.69444 138.684 4.62993C138.977 4.56541 139.214 4.55628 139.512 4.59796C139.807 4.58655 140.105 4.62824 140.344 4.67221C140.642 4.7139 140.824 4.81325 141.066 4.91033C141.43 5.10904 141.622 5.42081 141.645 5.89873C141.546 6.32812 141.443 6.6513 141.217 6.87284ZM135.521 12.9447C135.536 13.2633 135.612 13.6327 135.689 14.0022C135.765 14.3716 136.017 14.6811 136.32 14.829C136.684 15.0277 137.157 15.0094 137.743 14.8804C138.267 14.7006 138.789 14.4676 139.245 14.0776C139.703 13.7407 139.981 13.3576 140.081 12.9813C140.182 12.605 140.157 12.074 140.009 11.4413C139.802 10.811 139.593 10.1275 139.381 9.39089C139.171 8.70741 139.02 8.02164 138.937 7.4929C138.589 7.6659 138.188 7.9474 137.73 8.28427C137.331 8.61887 136.935 9.00657 136.603 9.49819C136.271 9.98981 136 10.5322 135.789 11.0724C135.579 11.6657 135.491 12.3075 135.521 12.9447Z" fill="#59C69F"/>
<path d="M160.328 7.89014C159.117 8.57531 157.783 9.15884 156.382 9.58534C154.981 10.0119 153.451 10.2305 151.797 10.2944C151.903 11.3011 152.236 12.0862 152.854 12.6475C153.472 13.2088 154.199 13.5531 155.031 13.6274C155.566 13.6599 156.039 13.6417 156.565 13.5149C157.092 13.3882 157.56 13.2637 158.023 13.033C158.488 12.8555 158.892 12.6271 159.234 12.3479C159.579 12.1218 159.921 11.8426 160.207 11.6187C160.492 11.3949 160.78 11.2242 161.073 11.1597C161.366 11.0952 161.603 11.086 161.782 11.1323C162.263 11.2733 162.401 11.6936 162.315 12.3885C161.825 13.3118 161.153 14.1357 160.238 14.8095C159.322 15.4832 158.278 15.9491 157.103 16.1541C156.106 16.3522 155.04 16.3402 153.966 16.1689C152.89 15.9444 151.863 15.5053 151.001 14.7939C150.262 14.184 149.634 13.4103 149.237 12.5213C148.84 11.6322 148.561 10.7386 148.398 9.78732C148.238 8.88914 148.316 8.03493 148.515 7.22926C148.774 6.42131 149.155 5.715 149.657 5.05722C150.218 4.39716 150.905 3.89185 151.713 3.43507C152.579 2.976 153.515 2.72707 154.694 2.62831C156.049 2.4696 157.302 2.68717 158.45 3.17482C159.598 3.66248 160.401 4.37624 160.921 5.36692C161.182 5.88882 161.322 6.36217 161.224 6.79156C161.182 7.16556 160.845 7.55098 160.328 7.89014ZM154.695 5.1818C154.402 5.24632 154.053 5.36622 153.706 5.53922C153.358 5.71223 153.011 5.88523 152.726 6.10906C152.44 6.33288 152.157 6.60981 151.933 6.88445C151.709 7.1591 151.606 7.48228 151.562 7.80317C152.094 7.78263 152.682 7.7067 153.33 7.62848C153.975 7.49717 154.62 7.36585 155.206 7.23682C155.792 7.10779 156.376 6.92565 156.9 6.7458C157.424 6.56594 157.828 6.33755 158.175 6.16455C157.914 5.64265 157.424 5.2892 156.71 5.21039C156.109 5.02081 155.4 5.0482 154.695 5.1818Z" fill="#59C69F"/>
<path d="M9.58955 46.3465C9.11924 46.4179 8.64396 46.383 8.04801 46.2997C7.44957 46.1632 7.02098 45.8605 6.75725 45.2855C6.62663 45.0246 6.61172 44.706 6.6584 44.4382C6.70507 44.1704 7.04974 43.9443 7.63575 43.8152C8.22176 43.6862 8.80777 43.5572 9.45288 43.4259C10.098 43.2945 10.7431 43.1632 11.3907 43.085L9.39412 38.3743C8.77776 36.5893 8.64415 34.9985 8.99572 33.655C9.34729 32.3114 10.487 31.363 12.4099 30.7036C13.1682 30.4615 13.9907 30.3233 14.7614 30.3468C15.5322 30.3702 16.3104 30.5529 17.032 30.791C17.7561 31.0823 18.4261 31.482 18.9803 31.9393C19.5961 32.4475 20.0371 33.0157 20.424 33.6923C20.5571 34.0064 20.6286 34.2696 20.7002 34.5328C20.7126 34.7984 20.6634 35.013 20.437 35.2346C20.1539 35.5115 19.8068 35.6845 19.3906 35.6474C18.9744 35.6103 18.7331 35.5132 18.6099 35.4116C18.2995 35.1044 17.9891 34.7972 17.6196 34.4922C17.2501 34.1873 16.8806 33.8824 16.5161 33.6837C16.1491 33.4319 15.7279 33.2885 15.3093 33.1983C14.8906 33.1081 14.4153 33.0733 13.945 33.1446C13.7111 33.2069 13.4772 33.2691 13.1917 33.4929C12.9036 33.6636 12.6206 33.9406 12.4607 34.3191C12.2417 34.7 12.1434 35.1294 12.1116 35.7158C12.0798 36.3022 12.2303 36.9879 12.5065 37.8285C12.7752 38.5097 13.0488 39.2971 13.3841 40.1353C13.7193 40.9735 14.0546 41.8118 14.4514 42.7008C15.9805 42.4821 17.3397 42.4296 18.6424 42.4325C19.354 42.4582 20.0091 42.5393 20.6075 42.6758C21.206 42.8123 21.7503 43.0572 22.1223 43.4153C22.2529 43.6762 22.2062 43.944 22.0954 44.1079C21.9872 44.3249 21.8149 44.4379 21.5859 44.6063C21.3545 44.7217 21.064 44.8393 20.771 44.9038C20.478 44.9683 20.185 45.0329 19.8895 45.0443C19.2419 45.1225 18.5943 45.2007 17.8901 45.3343C17.1834 45.4148 16.4792 45.5484 15.7134 45.6312C16.3049 46.8851 16.8348 48.0882 17.3032 49.2405C17.7715 50.3927 18.1708 51.3349 18.442 52.0692C18.5801 52.4894 18.6025 52.9674 18.5657 53.4476C18.4699 53.9301 18.3741 54.4126 18.2782 54.895C18.0716 55.5414 17.7419 56.0861 17.4072 56.5246C17.0725 56.9632 16.6637 57.0853 16.1835 56.9443C15.8215 56.7987 15.5776 56.6485 15.5086 56.4384C15.3804 56.2305 15.3655 55.9119 15.4048 55.4848C15.4415 55.0046 15.4807 54.5775 15.4583 54.0996C15.436 53.6217 15.4161 53.1968 15.3396 52.8274C15.2631 52.458 15.1866 52.0885 15.1151 51.8253C15.0411 51.509 14.9721 51.2989 14.908 51.1949L12.6552 46.0685C12.1258 46.1421 11.6555 46.2135 11.1261 46.2872C10.6483 46.1992 10.1189 46.2729 9.58955 46.3465Z" fill="#59C69F"/>
<path d="M39.5789 38.1659C39.0003 38.4542 38.4243 38.7957 37.8482 39.1371C37.2721 39.4786 36.6395 39.8754 36.0683 40.323C35.4972 40.7707 34.9286 41.2715 34.3625 41.8253C33.8554 42.3769 33.3558 43.0878 32.9794 43.9003C32.379 44.9874 32.0175 46.1186 31.8358 47.296C31.6516 48.4202 31.5856 49.54 31.5787 50.6574C31.6035 51.1884 31.5102 51.724 31.237 52.2134C30.9664 52.7558 30.6242 53.035 30.1514 53.0533C29.5604 53.0761 29.0752 52.8288 28.6342 52.2607C28.1932 51.6925 27.9911 51.1684 27.7914 50.6973C27.1651 48.6999 26.5979 46.7003 26.1514 44.7492C25.7049 42.7981 25.315 40.7916 24.9866 38.836C24.9668 38.4111 25.075 38.1942 25.363 38.0234C25.6536 37.9058 25.9466 37.8413 26.3037 37.8807C26.6607 37.9201 27.0769 37.9572 27.4389 38.1029C27.801 38.2485 27.9882 38.454 28.0622 38.7704C28.2301 39.8278 28.4596 40.9361 28.6916 42.0976C28.9235 43.259 29.1455 44.208 29.4217 45.0485C29.4951 44.0881 29.805 43.1185 30.3537 42.1929C30.9025 41.2674 31.5719 40.3903 32.3645 39.6149C33.1571 38.8395 34.0728 38.1658 35.1118 37.5937C36.1507 37.0216 37.1995 36.6618 38.315 36.4592C38.7853 36.3878 39.199 36.3718 39.4969 36.4135C39.7949 36.4552 40.0363 36.5523 40.1619 36.707C40.2876 36.8618 40.3566 37.0719 40.2533 37.3951C40.2041 37.6098 39.9211 37.8867 39.5789 38.1659Z" fill="#59C69F"/>
<path d="M53.3414 37.4747C54.3018 37.7568 55.1516 38.2027 55.8315 38.8148C56.5114 39.427 57.0164 40.099 57.4083 40.8819C57.8002 41.6647 58.0147 42.4544 58.1136 43.3018C58.2124 44.1491 58.129 44.8971 57.9274 45.6497C57.6101 46.4599 57.2337 47.2724 56.6775 48.0387C56.1829 48.8558 55.5626 49.5181 54.9423 50.1805C54.2605 50.792 53.5146 51.2996 52.6455 51.7056C51.7764 52.1115 50.7792 52.3096 49.7154 52.3507C48.4153 52.4009 47.28 52.1788 46.3686 51.682C45.4573 51.1852 44.7158 50.5223 44.2008 49.6378C43.6292 48.8087 43.289 47.8643 43.0595 46.756C42.8916 45.6985 42.8394 44.5833 42.967 43.5144C43.048 42.7133 43.2471 41.9077 43.5078 41.1528C43.7685 40.398 44.1499 39.6917 44.5953 39.0893C45.0408 38.4869 45.5503 37.9884 46.183 37.5916C46.7566 37.197 47.4583 37.0103 48.2857 36.9784C48.7585 36.9601 49.2929 36.9927 49.9504 37.1269C50.6079 37.2611 51.2679 37.4484 51.8147 37.7464C52.2701 37.3564 52.7404 37.2851 53.3414 37.4747ZM51.715 40.6762C51.3505 40.4775 50.9244 40.228 50.4367 39.9276C49.949 39.6273 49.5278 39.4839 49.1732 39.4976C48.8186 39.5113 48.4124 39.6866 48.0727 40.0189C47.733 40.3512 47.3959 40.7366 47.1793 41.1706C46.9037 41.6068 46.7463 42.0385 46.5298 42.4725C46.3724 42.9041 46.2716 43.2804 46.2224 43.4951C46.1241 43.9245 46.0899 44.4578 46.1172 45.0419C46.0854 45.6283 46.1719 46.2102 46.3174 46.7897C46.4629 47.3693 46.7241 47.8912 47.1602 48.3531C47.5371 48.8174 48.0839 49.1154 48.8621 49.2982C49.3399 49.3861 49.8127 49.3679 50.4578 49.2365C51.0438 49.1075 51.6224 48.8192 52.1984 48.4777C52.7745 48.1363 53.284 47.6378 53.7886 47.0331C54.2931 46.4285 54.677 45.7752 54.9377 45.0204C55.1935 44.1593 55.2128 43.3074 54.816 42.4184C54.4782 41.527 53.8574 40.9126 52.892 40.5243C52.6631 40.6928 52.4292 40.755 52.2519 40.7619C52.0155 40.771 51.8357 40.7247 51.715 40.6762Z" fill="#59C69F"/>
<path d="M64.5632 38.1584C64.6447 38.634 64.6695 39.1651 64.82 39.8508C64.9114 40.5389 65.0618 41.2246 65.1557 41.9658C65.3087 42.7047 65.4001 43.3927 65.5531 44.1316C65.7036 44.8174 65.8541 45.5031 65.9405 46.085C66.2653 45.434 66.6442 44.6746 67.1314 43.6982C67.621 42.775 68.1107 41.8517 68.6028 40.9815C69.0949 40.1113 69.6536 39.3981 70.2173 38.7912C70.7809 38.1842 71.2979 37.8451 71.7707 37.8268C72.3026 37.8062 72.7853 38.0004 73.2213 38.4623C73.6549 38.8712 74.0934 39.3862 74.4187 40.012C74.744 40.6379 75.0694 41.2637 75.3405 41.998C75.6092 42.6792 75.8163 43.3096 76.0185 43.8337C76.1193 43.4575 76.2767 43.0258 76.4316 42.541C76.5866 42.0562 76.8006 41.5692 77.0146 41.0821C77.2286 40.5951 77.4993 40.0526 77.7724 39.5633C78.0455 39.074 78.3803 38.6354 78.7175 38.25C79.1113 37.8092 79.5716 37.5255 80.0345 37.2948C80.4998 37.1172 80.8494 36.9973 81.0858 36.9882C81.3813 36.9768 81.7384 37.0162 82.1005 37.1618C82.5216 37.3051 82.9452 37.5015 83.3713 37.7511C83.7974 38.0006 84.226 38.3032 84.5955 38.6082C84.9675 38.9662 85.2804 39.3265 85.5342 39.6891C86.0442 40.4674 86.4361 41.2502 86.7172 42.1969C87.0549 43.0882 87.2745 43.9841 87.4299 44.7761C87.5879 45.6212 87.7384 46.307 87.7707 46.9973C87.8596 47.6322 87.882 48.1102 87.951 48.3203C87.9684 48.692 87.9217 48.9598 87.8726 49.1745C87.7643 49.3915 87.592 49.5045 87.3606 49.6199C87.0134 49.7929 86.7204 49.8574 86.4815 49.8134C86.2427 49.7694 86.0013 49.6724 85.8781 49.5707C85.6934 49.4183 85.5677 49.2635 85.5012 49.1065C85.3755 48.9518 85.3065 48.7416 85.3015 48.6354C85.1535 48.0028 85.0621 47.3147 84.9116 46.6289C84.7611 45.9432 84.6131 45.3105 84.4626 44.6247C84.3146 43.9921 84.11 43.4148 83.9053 42.8375C83.7032 42.3133 83.5011 41.7892 83.3039 41.3712C83.2398 41.2673 83.1142 41.1125 82.9885 40.9578C82.8629 40.803 82.6756 40.5975 82.4909 40.445C82.3061 40.2926 82.1214 40.1401 81.9982 40.0385C81.8159 39.9391 81.6953 39.8906 81.6337 39.8397C81.3382 39.8512 80.996 40.1304 80.6663 40.6751C80.3365 41.2198 80.0118 41.8707 79.7511 42.6256C79.4904 43.3804 79.2321 44.1884 78.9739 44.9963C78.7157 45.8043 78.5707 46.5015 78.4798 47.0902C78.5146 47.8336 78.3622 48.3715 78.0841 48.7546C77.806 49.1377 77.4588 49.3108 77.1043 49.3245C76.7497 49.3382 76.3901 49.2456 75.964 48.9961C75.5379 48.7466 75.2891 48.4902 75.156 48.1761C74.9563 47.7051 74.6975 47.2363 74.4929 46.659C74.2292 46.084 73.9655 45.509 73.7018 44.934C73.438 44.359 73.1743 43.784 72.9106 43.209C72.6469 42.634 72.3881 42.1652 72.1294 41.6964C71.6814 42.2457 71.2975 42.8989 70.9137 43.5521C70.5298 44.2054 70.1484 44.9117 69.767 45.618C69.3856 46.3243 69.0633 47.0283 68.7386 47.6792C68.4163 48.3833 68.089 48.9811 67.8159 49.4704C67.5944 49.7982 67.3704 50.0728 67.1465 50.3475C66.9225 50.6221 66.632 50.7397 66.2774 50.7534C66.041 50.7626 65.7405 50.6678 65.4351 50.4668C65.1297 50.2658 64.8809 50.0094 64.5705 49.7022C64.3192 49.3927 64.0654 49.0301 63.8116 48.6675C63.5553 48.2519 63.4197 47.8847 63.2817 47.4644C62.9881 46.2522 62.6871 44.8807 62.4427 43.4538C62.1959 41.9737 61.9515 40.5468 61.7687 39.1707C61.6872 38.6951 61.7831 38.2126 61.943 37.834C62.1004 37.4024 62.4426 37.1231 62.9079 36.9456C63.4348 36.8188 63.8535 36.909 64.1589 37.11C64.287 37.3179 64.4817 37.6828 64.5632 38.1584Z" fill="#59C69F"/>
<path d="M115.615 38.5271C116.204 38.4512 116.802 38.5876 117.465 38.828C118.068 39.0707 118.386 39.5372 118.413 40.1214C118.376 40.6016 118.096 40.9316 117.569 41.0583C117.042 41.1851 116.633 41.3073 116.338 41.3187C115.688 41.3438 115.038 41.3689 114.272 41.4517C113.565 41.5322 112.797 41.5619 112.031 41.6446C112.017 42.6028 111.997 43.4547 111.978 44.3066C111.959 45.1585 111.991 45.8489 111.964 46.5415C111.935 47.181 111.96 47.712 111.977 48.0838C111.997 48.5086 112.007 48.721 112.066 48.7187C112.77 48.5851 113.529 48.343 114.284 48.0478C115.099 47.7504 115.853 47.4021 116.665 47.0515C117.478 46.7009 118.229 46.2995 118.982 45.9512C119.733 45.5498 120.486 45.2015 121.18 44.8555C121.468 44.6848 121.764 44.6734 122.062 44.7151C122.36 44.7568 122.486 44.9115 122.552 45.0685C122.626 45.3849 122.584 45.7589 122.489 46.2414C122.334 46.7261 122.056 47.1093 121.659 47.497C121.201 47.8338 120.571 48.2838 119.823 48.7383C119.074 49.1928 118.267 49.6495 117.4 50.1086C116.534 50.5677 115.662 50.9205 114.731 51.2757C113.86 51.6285 113.04 51.8198 112.333 51.9003C111.274 52.0476 110.494 51.8117 109.932 51.1951C109.373 50.6315 109.04 49.8464 108.939 48.9459C108.837 48.0454 108.788 46.9834 108.79 45.7597C108.792 44.5361 108.791 43.2594 108.788 41.9295C108.2 42.0054 107.611 42.0814 107.082 42.155C106.552 42.2287 106.023 42.3023 105.493 42.376C105.08 42.3919 104.602 42.304 104.122 42.163C103.642 42.0219 103.331 41.7147 103.306 41.1837C103.299 41.0244 103.346 40.7566 103.51 40.4842C103.675 40.2119 104.02 39.9857 104.544 39.8059C105.835 39.5433 107.305 39.3269 108.834 39.1082C108.89 37.7761 108.887 36.4462 109.007 35.218C109.065 33.939 109.131 32.8193 109.2 31.7527C109.244 31.4318 109.288 31.1109 109.512 30.8362C109.677 30.5639 109.909 30.4485 110.086 30.4417C110.615 30.368 111.155 30.5068 111.64 30.754C112.125 31.0013 112.435 31.3085 112.45 31.6271C112.377 32.5875 112.311 33.7073 112.25 34.9332C112.189 36.1591 112.13 37.4381 112.131 38.7149C112.778 38.6367 113.367 38.5607 113.958 38.5379C114.495 38.6236 115.086 38.6007 115.615 38.5271Z" fill="#59C69F"/>
<path d="M127.203 30.5785C127.235 31.2688 127.27 32.0123 127.312 32.915C127.352 33.7647 127.394 34.6674 127.436 35.5701C127.478 36.4729 127.582 37.4264 127.627 38.3823C127.672 39.3381 127.775 40.2917 127.815 41.1413C128.083 40.5458 128.472 39.9988 128.859 39.3987C129.307 38.8494 129.754 38.3001 130.266 37.8547C130.778 37.4094 131.352 37.0148 131.992 36.7773C132.571 36.489 133.275 36.3554 133.984 36.328C134.752 36.2983 135.472 36.4833 136.144 36.9361C136.757 37.3912 137.376 37.9525 137.824 38.68C138.332 39.4052 138.726 40.2411 139.125 41.1832C139.463 42.0746 139.803 43.019 140.025 43.968C140.247 44.917 140.467 45.8129 140.627 46.7111C140.785 47.5562 140.882 48.3504 140.968 48.9323C140.99 49.4102 140.89 49.7865 140.666 50.0611C140.442 50.3358 140.154 50.5065 139.799 50.5202C139.563 50.5293 139.201 50.3837 138.834 50.1319C138.467 49.8801 138.151 49.4667 138.013 49.0464C137.88 48.7323 137.796 48.2036 137.648 47.5709C137.5 46.9383 137.347 46.1994 137.194 45.4605C137.041 44.7217 136.827 43.932 136.614 43.1954C136.4 42.4057 136.131 41.7245 135.808 41.1518C135.483 40.526 135.165 40.0595 134.737 39.7568C134.367 39.4519 133.887 39.3109 133.36 39.4376C132.599 39.6266 131.912 40.1319 131.361 41.0044C130.81 41.8768 130.323 42.8532 129.961 43.9844C129.597 45.0624 129.295 46.1912 129.051 47.3178C128.808 48.4444 128.673 49.354 128.587 50.0489C128.494 50.5845 128.331 50.9099 128.164 51.1292C127.938 51.3507 127.763 51.4107 127.467 51.4221C127.231 51.4312 126.99 51.3342 126.743 51.1309C126.556 50.9253 126.305 50.6158 126.113 50.3041C125.92 49.9923 125.726 49.6274 125.593 49.3134C125.457 48.9462 125.324 48.6322 125.314 48.4198C125.065 46.8866 124.877 45.4043 124.751 43.9728C124.565 42.5436 124.442 41.1653 124.315 39.7338C124.189 38.3023 124.122 36.8685 124.05 35.3285C123.978 33.7886 123.965 32.2463 123.942 30.4916C123.875 29.0579 124.436 28.3978 125.567 28.5138C125.924 28.5532 126.291 28.805 126.606 29.2184C127.04 29.6272 127.18 30.1006 127.203 30.5785Z" fill="#59C69F"/>
<path d="M155.514 38.4223C154.303 39.1074 152.969 39.691 151.568 40.1175C150.167 40.544 148.638 40.7626 146.983 40.8265C147.089 41.8332 147.422 42.6183 148.04 43.1796C148.659 43.7409 149.385 44.0853 150.217 44.1595C150.752 44.1921 151.225 44.1738 151.752 44.0471C152.278 43.9203 152.746 43.7958 153.209 43.5652C153.674 43.3876 154.078 43.1592 154.42 42.88C154.765 42.6539 155.107 42.3747 155.393 42.1509C155.678 41.927 155.966 41.7563 156.259 41.6918C156.552 41.6273 156.789 41.6181 156.969 41.6644C157.449 41.8054 157.587 42.2257 157.501 42.9206C157.011 43.8439 156.339 44.6678 155.424 45.3416C154.508 46.0153 153.464 46.4812 152.289 46.6862C151.292 46.8843 150.226 46.8723 149.152 46.701C148.076 46.4766 147.049 46.0374 146.187 45.326C145.448 44.7161 144.82 43.9424 144.423 43.0534C144.026 42.1643 143.747 41.2707 143.585 40.3194C143.424 39.4213 143.502 38.5671 143.702 37.7614C143.96 36.9534 144.341 36.2471 144.843 35.5893C145.404 34.9293 146.091 34.424 146.899 33.9672C147.765 33.5081 148.701 33.2592 149.88 33.1604C151.235 33.0017 152.488 33.2193 153.636 33.7069C154.784 34.1946 155.587 34.9084 156.107 35.899C156.368 36.4209 156.509 36.8943 156.41 37.3237C156.369 37.6977 156.031 38.0831 155.514 38.4223ZM149.941 35.7116C149.648 35.7761 149.298 35.8961 148.951 36.0691C148.604 36.2421 148.257 36.4151 147.971 36.6389C147.686 36.8627 147.402 37.1396 147.178 37.4143C146.955 37.6889 146.851 38.0121 146.807 38.333C147.339 38.3125 147.927 38.2365 148.575 38.1583C149.22 38.027 149.865 37.8957 150.451 37.7667C151.037 37.6376 151.621 37.4555 152.145 37.2756C152.67 37.0958 153.073 36.8674 153.421 36.6944C153.159 36.1725 152.669 35.819 151.955 35.7402C151.295 35.5529 150.586 35.5803 149.941 35.7116Z" fill="#59C69F"/>
<path d="M183.677 31.6954C183.803 31.8501 183.869 32.0071 183.939 32.2172C183.948 32.4297 183.956 32.589 183.845 32.7528C183.683 33.0783 183.451 33.1936 183.033 33.1034C182.375 32.9692 181.663 32.9435 180.957 33.024C180.25 33.1045 179.492 33.3466 178.807 33.905C178.121 34.4103 177.562 35.1235 177.193 36.0953C176.821 37.014 176.691 38.0298 176.736 38.9857C176.781 39.9415 177.057 40.782 177.621 41.4518C178.185 42.1216 178.86 42.6275 179.703 42.9142C180.244 43.106 180.781 43.1917 181.431 43.1666C182.084 43.1946 182.732 43.1164 183.379 43.0382C184.027 42.9599 184.672 42.8286 185.314 42.6442C185.957 42.4598 186.541 42.2777 187.122 42.0424C187.296 41.9825 187.474 41.9756 187.656 42.075C187.838 42.1743 187.961 42.276 188.025 42.3799C188.22 42.7448 188.119 43.121 187.841 43.5042C187.504 43.8896 186.987 44.2288 186.352 44.5725C185.714 44.8631 185.018 45.156 184.316 45.3427C183.614 45.5294 182.792 45.6676 181.964 45.6995C181.196 45.7292 180.425 45.7058 179.709 45.5739C178.694 45.4003 177.849 45.0605 177.179 44.6608C176.45 44.2634 175.894 43.7529 175.393 43.187C174.893 42.6212 174.568 41.9953 174.302 41.3672C174.033 40.686 173.883 40.0003 173.85 39.3099C173.712 37.6129 173.994 36.0593 174.757 34.6466C175.52 33.234 176.595 32.1817 178.043 31.4874C179.084 30.9684 180.197 30.7126 181.266 30.7777C182.273 30.792 183.118 31.1318 183.677 31.6954Z" fill="#59C69F"/>
<path d="M204.364 36.0033C204.494 36.2643 204.391 36.5875 204.049 36.8667C203.707 37.1459 203.064 37.3303 202.242 37.4685C200.831 37.6826 199.363 37.9521 197.893 38.1684C196.426 38.4379 194.897 38.6566 193.37 38.9283C193.378 40.3644 193.448 41.8513 193.574 43.2828C194.283 43.2554 195.167 43.168 196.223 42.9676C197.223 42.8226 198.277 42.5691 199.392 42.3664C200.446 42.1129 201.5 41.8594 202.495 41.6082C203.489 41.357 204.309 41.1657 205.011 40.979C205.361 40.8591 205.713 40.7923 206.124 40.7232C206.476 40.6564 206.831 40.6427 207.129 40.6844C207.427 40.7261 207.668 40.8232 207.912 40.9734C208.097 41.1258 208.227 41.3868 208.242 41.7054C208.247 41.8116 208.134 41.9224 207.905 42.0908C207.676 42.2592 207.449 42.4808 207.102 42.6538C206.758 42.8799 206.411 43.0529 206.063 43.2259C205.716 43.3989 205.367 43.5188 205.076 43.6364C203.153 44.2959 201.225 44.8491 199.354 45.347C197.483 45.8449 195.602 46.1303 193.831 46.2519C192.77 46.3461 191.989 46.1103 191.432 45.5998C190.876 45.0893 190.545 44.3573 190.439 43.3506C190.315 41.9723 190.248 40.5385 190.24 39.1024C189.696 38.8575 189.381 38.4441 189.356 37.913C189.39 37.3797 189.668 36.9966 190.19 36.7636C190.209 35.9117 190.231 35.1129 190.192 34.2632C190.211 33.4113 190.171 32.5617 190.193 31.7629C189.836 31.7235 189.533 31.5756 189.225 31.3215C188.917 31.0674 188.786 30.8064 188.772 30.4878C188.759 30.2223 188.808 30.0076 188.917 29.7906C189.025 29.5736 189.254 29.4052 189.603 29.2853C190.189 29.1563 190.891 28.9696 191.714 28.8314C192.533 28.6401 193.356 28.502 194.237 28.3615C195.119 28.2211 195.941 28.0829 196.764 27.9447C197.586 27.8066 198.234 27.7284 198.825 27.7055C199.472 27.6273 200.125 27.6553 200.782 27.7895C201.44 27.9237 201.987 28.2218 202.543 28.7323C202.682 29.1525 202.635 29.4203 202.349 29.6441C202.064 29.868 201.655 29.9902 201.185 30.0615C200.714 30.1329 200.126 30.2088 199.481 30.3401C198.833 30.4183 198.129 30.5519 197.422 30.6324C196.718 30.766 196.011 30.8465 195.305 30.927C194.598 31.0075 193.894 31.1411 193.305 31.2171C193.308 31.2702 193.31 31.3233 193.315 31.4295C193.318 31.4826 193.323 31.5888 193.325 31.6419C193.301 32.3876 193.277 33.1333 193.311 33.8767C193.287 34.6225 193.322 35.3659 193.297 36.1116C194.647 35.8467 195.999 35.6349 197.35 35.4231C198.761 35.209 199.82 35.0617 200.645 34.9766C201.293 34.8984 201.945 34.9264 202.605 35.1137C203.26 35.1948 203.866 35.4906 204.364 36.0033Z" fill="#59C69F"/>
<path d="M226.834 36.6781C226.694 37.4815 226.374 38.2386 225.936 39.0003C225.498 39.762 224.937 40.4221 224.317 41.0844C223.696 41.7468 223.071 42.3029 222.325 42.8105C221.579 43.3181 220.885 43.6641 220.129 43.9593C218.733 44.492 217.379 44.6507 215.953 44.5462C214.586 44.4394 213.318 43.9032 212.15 42.9908C211.404 42.2216 210.83 41.3394 210.487 40.3419C210.145 39.3443 209.92 38.3422 209.929 37.2779C209.88 36.2159 210.01 35.2001 210.261 34.2328C210.511 33.2655 210.883 32.3468 211.321 31.5851C211.87 30.6595 212.485 29.891 213.282 29.2218C214.023 28.608 214.892 28.202 215.833 28.0593C216.067 27.9971 216.306 28.041 216.431 28.1958C216.616 28.3483 216.685 28.5584 216.695 28.7708C216.978 28.4939 217.5 28.2609 218.143 28.0765C218.785 27.8921 219.554 27.8624 220.386 27.9366C221.93 28.0366 223.132 28.4158 224.048 29.0187C224.964 29.6217 225.652 30.3932 226.105 31.2268C226.559 32.0605 226.84 33.0072 226.885 33.963C227.055 35.0736 227.036 35.9256 226.834 36.6781ZM216.216 31.1832C215.578 31.4739 215.064 31.8661 214.673 32.36C214.281 32.8539 213.954 33.4518 213.688 34.1004C213.423 34.749 213.278 35.4462 213.251 36.1388C213.227 36.8846 213.259 37.5749 213.35 38.2629C213.516 39.2673 213.848 40.0525 214.469 40.6669C215.09 41.2813 215.991 41.5656 217.173 41.52C217.882 41.4926 218.587 41.359 219.224 41.0684C219.921 40.7754 220.497 40.434 221.071 40.0395C221.642 39.5918 222.151 39.0933 222.599 38.5441C223.047 37.9948 223.434 37.3947 223.64 36.7483C223.803 36.4228 223.903 36.0465 223.94 35.5663C224.036 35.0839 224.014 34.6059 223.991 34.128C223.91 33.6524 223.769 33.179 223.57 32.7079C223.311 32.2391 222.939 31.8811 222.451 31.5808C221.781 31.1811 220.941 30.9475 220.05 30.8755C219.099 30.8059 218.164 31.0548 217.179 31.5184C217.007 31.6315 216.773 31.6937 216.531 31.5966C216.238 31.6612 216.169 31.451 216.216 31.1832Z" fill="#59C69F"/>
<path d="M4.13084 24.0314C3.97591 24.5161 3.81849 24.9478 3.60198 25.3818C3.38298 25.7626 3.09742 25.9864 2.8069 26.1041C2.22337 26.2862 1.74562 26.1982 1.43522 25.891C1.12482 25.5838 0.930133 25.219 1.02348 24.6834C1.18037 22.975 1.50958 21.1535 2.01111 19.219C2.51265 17.2845 3.07328 15.3477 3.7546 13.4594C4.43343 11.518 5.17633 9.68057 5.97832 7.84084C6.78032 6.00111 7.65135 4.37151 8.52735 2.84811C8.69471 2.62885 8.86455 2.4627 9.03936 2.40275C9.21417 2.3428 9.45056 2.33366 9.57124 2.3822C9.74357 2.26915 9.91589 2.15609 10.1473 2.04076C10.3246 2.03391 10.5585 1.97168 10.7949 1.96254C10.9131 1.95798 10.9722 1.95569 11.0929 2.00423C11.2136 2.05277 11.3343 2.10131 11.4599 2.25605C11.5856 2.41079 11.7728 2.61635 11.9625 2.87502C12.1522 3.13368 12.4085 3.54937 12.6672 4.01816C13.2071 5.43367 13.752 6.95538 14.415 8.47253C15.078 9.98968 15.7411 11.5068 16.4632 13.0217C16.5789 12.964 16.638 12.9617 16.6971 12.9595C16.7562 12.9572 16.8719 12.8995 16.931 12.8972C17.2831 12.8304 17.6993 12.8675 18.1155 12.9047C18.5907 12.9395 18.8962 13.1405 19.0293 13.4545C19.2264 13.8725 19.2438 14.2442 18.9633 14.5743C18.7418 14.902 18.2839 15.2389 17.6487 15.5826C18.1046 16.4694 18.5606 17.3561 19.014 18.1898C19.4675 19.0235 19.9209 19.8571 20.4334 20.6885C20.5 20.8455 20.5099 21.0579 20.5839 21.3743C20.6579 21.6906 20.7295 21.9538 20.7444 22.2725C20.7593 22.5911 20.7717 22.8566 20.725 23.1244C20.6783 23.3922 20.5676 23.5561 20.3953 23.6691C20.1639 23.7844 19.925 23.7405 19.6836 23.6434C19.4423 23.5463 19.1984 23.3961 18.9546 23.246C18.7107 23.0958 18.5235 22.8902 18.3362 22.6847C18.149 22.4791 18.0209 22.2713 17.8952 22.1165C17.3186 21.1812 16.742 20.2459 16.2245 19.3083C15.707 18.3708 15.1895 17.4332 14.672 16.4956C13.3227 16.7605 11.9142 17.0277 10.326 17.2486C8.73784 17.4696 7.20625 17.6351 5.67219 17.7476C5.36729 18.8233 5.06239 19.8991 4.81659 20.9726C4.62492 21.9375 4.37913 23.011 4.13084 24.0314ZM10.0873 5.82017C8.74653 8.79788 7.64461 11.8196 6.6584 14.7836C8.78345 14.6483 11.0168 14.296 13.4199 13.7776C12.1753 11.219 11.0439 8.54955 10.0873 5.82017Z" stroke="#59C69F" stroke-width="0.75" stroke-miterlimit="10"/>
<path d="M39.5323 8.77911C39.6138 9.25475 39.6386 9.78577 39.7891 10.4715C39.8805 11.1596 40.031 11.8454 40.1249 12.5865C40.2779 13.3254 40.3693 14.0134 40.5223 14.7523C40.6728 15.4381 40.8232 16.1238 40.9097 16.7057C41.2345 16.0548 41.6134 15.2953 42.1005 14.3189C42.5902 13.3957 43.0798 12.4724 43.5719 11.6022C44.0641 10.732 44.6228 10.0188 45.1864 9.41188C45.7501 8.80492 46.267 8.46576 46.7398 8.4475C47.2717 8.42695 47.7544 8.6211 48.1905 9.08305C48.624 9.49189 49.0626 10.0069 49.3879 10.6327C49.7132 11.2586 50.0385 11.8844 50.3097 12.6187C50.5784 13.2999 50.7855 13.9303 50.9876 14.4544C51.0884 14.0782 51.2458 13.6465 51.4008 13.1617C51.5557 12.677 51.7697 12.1899 51.9838 11.7028C52.1978 11.2158 52.4684 10.6734 52.7416 10.184C53.0147 9.69468 53.3494 9.25616 53.6866 8.87074C54.0804 8.42994 54.5408 8.14617 55.0036 7.91549C55.469 7.73792 55.8186 7.61802 56.055 7.60889C56.3505 7.59748 56.7075 7.63688 57.0696 7.78249C57.4907 7.92582 57.9143 8.12225 58.3405 8.37178C58.7666 8.62132 59.1952 8.92395 59.5647 9.22887C59.9366 9.58689 60.2495 9.9472 60.5033 10.3098C61.0134 11.0881 61.4052 11.8709 61.6863 12.8176C62.0241 13.7089 62.2436 14.6048 62.3991 15.3968C62.557 16.2419 62.7075 16.9277 62.7398 17.618C62.8287 18.2529 62.8511 18.7309 62.9201 18.941C62.9375 19.3127 62.8909 19.5805 62.8417 19.7952C62.7334 20.0122 62.5611 20.1252 62.3297 20.2406C61.9825 20.4136 61.6895 20.4781 61.4507 20.4341C61.2118 20.3901 60.9704 20.2931 60.8473 20.1914C60.6625 20.039 60.5369 19.8842 60.4703 19.7272C60.3447 19.5725 60.2756 19.3623 60.2706 19.2561C60.1226 18.6235 60.0312 17.9354 59.8807 17.2496C59.7302 16.5639 59.5822 15.9312 59.4317 15.2454C59.2837 14.6128 59.0791 14.0355 58.8745 13.4582C58.6723 12.934 58.4702 12.4099 58.273 11.9919C58.209 11.888 58.0833 11.7332 57.9577 11.5785C57.832 11.4237 57.6448 11.2182 57.46 11.0657C57.2753 10.9133 57.0905 10.7608 56.9674 10.6592C56.7851 10.5598 56.6644 10.5113 56.6028 10.4605C56.3073 10.4719 55.9652 10.7511 55.6354 11.2958C55.3057 11.8405 54.9809 12.4914 54.7202 13.2463C54.4595 14.0011 54.2013 14.8091 53.9431 15.6171C53.6848 16.425 53.5398 17.1222 53.449 17.7109C53.4838 18.4543 53.3313 18.9922 53.0532 19.3753C52.7751 19.7585 52.428 19.9315 52.0734 19.9452C51.7188 19.9589 51.2386 19.8178 50.8149 19.6214C50.3888 19.3718 50.14 19.1155 50.0069 18.8014C49.8072 18.3303 49.5485 17.8615 49.3439 17.2843C49.0801 16.7093 48.8164 16.1343 48.5527 15.5593C48.289 14.9843 48.0252 14.4093 47.7615 13.8343C47.4978 13.2593 47.239 12.7905 46.9803 12.3217C46.5323 12.871 46.1485 13.5242 45.7646 14.1774C45.3807 14.8306 44.9993 15.5369 44.618 16.2433C44.2366 16.9496 43.9143 17.6536 43.5895 18.3045C43.2672 19.0086 42.94 19.6064 42.6668 20.0957C42.4453 20.4235 42.2214 20.6981 41.9974 20.9727C41.7734 21.2474 41.4829 21.365 41.1283 21.3787C40.8919 21.3878 40.5915 21.2931 40.286 21.0921C39.9806 20.8911 39.7318 20.6347 39.4214 20.3275C39.1701 20.018 38.9163 19.6554 38.6625 19.2928C38.4063 18.8771 38.2707 18.51 38.1326 18.0897C37.8391 16.8775 37.5381 15.506 37.2937 14.079C37.0468 12.599 36.8024 11.1721 36.6196 9.79599C36.5382 9.32035 36.634 8.83786 36.7939 8.45929C36.9513 8.02762 37.2935 7.74841 37.7588 7.57084C38.2858 7.44409 38.7044 7.53432 39.0098 7.73531C39.2562 7.93859 39.4509 8.30346 39.5323 8.77911Z" stroke="#59C69F" stroke-width="0.75" stroke-miterlimit="10"/>
<path d="M78.0043 11.0701C76.7931 11.7553 75.4587 12.3388 74.0577 12.7653C72.6567 13.1918 71.1276 13.4105 69.4729 13.4744C69.5792 14.4811 69.9119 15.2662 70.5303 15.8275C71.1486 16.3888 71.8751 16.7331 72.7075 16.8074C73.2419 16.8399 73.7146 16.8217 74.2416 16.6949C74.7685 16.5682 75.2363 16.4437 75.6991 16.213C76.1645 16.0354 76.5682 15.807 76.9104 15.5278C77.255 15.3017 77.5972 15.0225 77.8828 14.7987C78.1683 14.5749 78.4563 14.4042 78.7494 14.3396C79.0424 14.2751 79.2788 14.266 79.4585 14.3122C79.9388 14.4533 80.0768 14.8735 79.9909 15.5684C79.5013 16.4917 78.8294 17.3157 77.9136 17.9894C76.9979 18.6632 75.954 19.1291 74.7795 19.334C73.7823 19.5322 72.716 19.5202 71.6423 19.3488C70.5661 19.1244 69.5391 18.6853 68.6769 17.9738C67.9379 17.364 67.3097 16.5903 66.9128 15.7012C66.516 14.8122 66.2374 13.9186 66.0745 12.9673C65.914 12.0691 65.9925 11.2149 66.1916 10.4092C66.4498 9.60128 66.8312 8.89496 67.3333 8.23719C67.8944 7.57713 68.5813 7.07181 69.3888 6.61503C70.2554 6.15597 71.191 5.90703 72.3705 5.80828C73.7248 5.64957 74.9782 5.86714 76.126 6.35479C77.2737 6.84244 78.0767 7.5562 78.5967 8.54689C78.858 9.06878 78.9985 9.54214 78.9002 9.97153C78.7994 10.3478 78.5213 10.7309 78.0043 11.0701ZM72.3715 8.36176C72.0785 8.42628 71.7289 8.54618 71.3818 8.71919C71.0346 8.89219 70.6875 9.0652 70.402 9.28902C70.1164 9.51285 69.8333 9.78977 69.6094 10.0644C69.3854 10.3391 69.2821 10.6622 69.2379 10.9831C69.7698 10.9626 70.3583 10.8867 71.0059 10.8084C71.651 10.6771 72.2961 10.5458 72.8821 10.4168C73.4681 10.2878 74.0517 10.1056 74.5761 9.92576C75.1005 9.74591 75.5043 9.51752 75.8514 9.34451C75.5902 8.82262 75.1 8.46916 74.3858 8.39035C73.7849 8.20077 73.0757 8.22816 72.3715 8.36176Z" stroke="#59C69F" stroke-width="0.75" stroke-miterlimit="10"/>
<path d="M91.9996 7.76319C91.9256 7.44685 91.8516 7.13052 91.7801 6.86729C91.7086 6.60406 91.5213 6.3985 91.2824 6.35453C90.7431 6.21576 90.1521 6.23859 89.5661 6.36762C88.9801 6.49666 88.3991 6.7319 87.9362 6.96257C87.4168 7.24863 87.0155 7.53012 86.6733 7.80933C86.3312 8.08854 86.1688 8.414 86.1196 8.6287C86.0213 9.05808 86.2185 9.47606 86.5313 9.83636C86.9058 10.2475 87.4551 10.5987 88.125 10.9984C89.2752 11.5391 90.4279 12.133 91.6988 12.7223C92.9106 13.3138 94.0042 13.91 94.8614 14.5153C95.7186 15.1205 96.3443 15.8411 96.6771 16.6263C97.0098 17.4114 96.993 18.3164 96.5649 19.2905C96.2476 20.1008 95.6248 20.71 94.7016 21.2244C93.7784 21.7389 92.732 22.1517 91.6216 22.4606C90.5112 22.7695 89.3391 23.0275 88.2188 23.124C87.1009 23.2736 86.0987 23.3655 85.3304 23.3952C85.1531 23.402 84.9142 23.3581 84.6113 23.2102C84.3108 23.1154 84.067 22.9652 83.8231 22.815C83.5793 22.6648 83.3329 22.4616 83.2073 22.3068C83.0225 22.1544 82.9535 21.9442 82.9485 21.838C82.9237 21.307 83.1452 20.9793 83.6671 20.7463C84.1891 20.5133 84.6569 20.3889 85.2479 20.3661C86.0162 20.3364 86.841 20.2513 87.725 20.164C88.609 20.0766 89.4314 19.9385 90.1922 19.7495C90.9531 19.5605 91.7114 19.3184 92.29 19.0301C92.9276 18.7394 93.3264 18.4048 93.602 17.9686C93.8235 17.6409 93.6263 17.2229 93.1312 16.7632C92.636 16.3036 91.9636 15.8508 91.1114 15.3517C90.2591 14.8526 89.3503 14.4089 88.4415 13.9653C87.4735 13.5239 86.6854 13.1287 85.9563 12.7313C85.2864 12.3316 84.673 11.8765 84.1754 11.3637C83.6778 10.851 83.3475 10.1189 83.192 9.32697C83.0981 8.58581 83.2431 7.88863 83.6245 7.18232C83.9468 6.47829 84.4514 5.87361 85.0175 5.31976C85.5836 4.76591 86.2729 4.31369 87.0854 3.96312C87.8388 3.61482 88.6587 3.42356 89.427 3.39388C90.7887 3.39448 91.9265 3.66972 92.8428 4.27271C93.7591 4.8757 94.3332 5.7579 94.5651 6.91931C94.585 7.34413 94.5408 7.66502 94.376 7.93738C94.2702 8.20746 93.9822 8.37819 93.6301 8.44499C93.1598 8.51635 92.8027 8.47694 92.5588 8.32677C92.1993 8.23426 92.012 8.0287 91.9996 7.76319Z" stroke="#59C69F" stroke-width="0.75" stroke-miterlimit="10"/>
<path d="M108.133 7.13998C108.059 6.82365 107.985 6.50731 107.914 6.24408C107.842 5.98085 107.655 5.77529 107.416 5.73132C106.877 5.59256 106.286 5.61539 105.7 5.74442C105.114 5.87345 104.533 6.10869 104.07 6.33936C103.551 6.62542 103.149 6.90691 102.807 7.18612C102.465 7.46533 102.303 7.7908 102.253 8.00549C102.155 8.43488 102.352 8.85285 102.665 9.21315C103.04 9.62428 103.589 9.97545 104.259 10.3752C105.409 10.9159 106.562 11.5098 107.833 12.0991C109.044 12.6906 110.138 13.2868 110.995 13.892C111.852 14.4973 112.478 15.2179 112.811 16.0031C113.144 16.7882 113.127 17.6932 112.699 18.6673C112.381 19.4776 111.759 20.0868 110.835 20.6012C109.912 21.1157 108.866 21.5285 107.755 21.8374C106.645 22.1463 105.473 22.4043 104.352 22.5008C103.235 22.6504 102.232 22.7423 101.464 22.772C101.287 22.7788 101.048 22.7348 100.745 22.587C100.445 22.4922 100.201 22.342 99.9569 22.1918C99.713 22.0416 99.4667 21.8384 99.341 21.6836C99.1563 21.5312 99.0873 21.321 99.0823 21.2148C99.0574 20.6838 99.2789 20.3561 99.8009 20.1231C100.323 19.8901 100.791 19.7657 101.382 19.7428C102.15 19.7132 102.975 19.6281 103.859 19.5408C104.743 19.4534 105.565 19.3153 106.326 19.1263C107.087 18.9373 107.845 18.6952 108.424 18.4069C109.061 18.1162 109.46 17.7816 109.736 17.3454C109.957 17.0177 109.76 16.5997 109.265 16.14C108.77 15.6804 108.097 15.2276 107.245 14.7285C106.393 14.2294 105.484 13.7857 104.575 13.3421C103.607 12.9007 102.819 12.5055 102.09 12.1081C101.42 11.7084 100.807 11.2533 100.309 10.7405C99.8115 10.2278 99.4812 9.49573 99.3258 8.70376C99.2319 7.96261 99.3769 7.26542 99.7583 6.55911C100.081 5.85508 100.585 5.25041 101.151 4.69655C101.717 4.1427 102.407 3.69049 103.219 3.33991C103.973 2.99162 104.792 2.80035 105.561 2.77068C106.922 2.77127 108.06 3.04651 108.977 3.6495C109.893 4.25249 110.467 5.13469 110.699 6.2961C110.719 6.72092 110.675 7.04182 110.51 7.31418C110.404 7.58426 110.116 7.75498 109.764 7.82178C109.294 7.89314 108.936 7.85374 108.693 7.70356C108.333 7.61105 108.205 7.40321 108.133 7.13998Z" stroke="#59C69F" stroke-width="0.75" stroke-miterlimit="10"/>
<path d="M127.14 3.37351C127.295 4.16549 127.453 5.01056 127.554 5.91102C127.656 6.81148 127.757 7.71195 127.858 8.61241C127.96 9.51287 128.002 10.4156 128.042 11.2653C128.081 12.1149 128.119 12.9114 128.092 13.604C129.126 14.2025 129.801 14.7084 130.001 15.1795C130.201 15.6505 130.28 16.0731 130.12 16.4516C129.967 16.9895 129.625 17.2687 129.152 17.287C128.68 17.3053 128.081 17.1688 127.419 16.9284C126.958 17.2121 126.5 17.549 125.924 17.8905C125.348 18.2319 124.772 18.5734 124.137 18.9171C123.502 19.2608 122.864 19.5514 122.283 19.7867C121.643 20.0242 121.059 20.2063 120.532 20.3331C119.535 20.5312 118.58 20.3553 117.789 19.9071C116.939 19.4611 116.373 18.7382 116.032 17.7938C115.825 17.1634 115.734 16.4753 115.82 15.7804C115.906 15.0855 116.11 14.3861 116.435 13.7351C116.759 13.0842 117.264 12.4795 117.889 11.9234C118.514 11.3673 119.265 10.9659 120.137 10.613C120.368 10.4977 120.661 10.4332 121.073 10.3641C121.484 10.295 121.897 10.279 122.311 10.263C122.725 10.2471 123.203 10.335 123.621 10.4252C124.101 10.5663 124.525 10.7627 124.897 11.1207C124.875 10.6428 124.85 10.1118 124.822 9.52765C124.795 8.94352 124.709 8.36168 124.681 7.77755C124.595 7.19571 124.568 6.61158 124.484 6.08283C124.4 5.55409 124.321 5.13155 124.244 4.76212C124.165 4.33958 123.976 4.08092 123.675 3.98612C123.375 3.89133 123.023 3.95813 122.555 4.0826C121.796 4.32469 120.932 4.83685 119.957 5.51289C118.983 6.18893 118.013 6.97118 117.161 7.74885C116.878 8.02578 116.587 8.1434 116.171 8.10628C115.814 8.06687 115.514 7.97208 115.208 7.77108C114.962 7.5678 114.772 7.30914 114.757 6.99052C114.683 6.67419 114.846 6.34873 115.067 6.02098C115.574 5.46941 116.14 4.91556 116.825 4.35714C117.45 3.801 118.137 3.29568 118.824 2.79036C119.513 2.33815 120.264 1.93676 121.017 1.58846C121.773 1.29327 122.534 1.10429 123.3 1.02151C124.42 0.925035 125.26 1.15859 125.932 1.6114C126.605 2.06421 126.987 2.63464 127.14 3.37351ZM122.076 12.8257C121.667 12.9479 121.261 13.1231 120.8 13.4069C120.34 13.6907 119.941 14.0253 119.607 14.4638C119.269 14.8492 118.994 15.2855 118.839 15.7702C118.684 16.255 118.706 16.7329 118.903 17.1509C118.97 17.3079 119.096 17.4627 119.335 17.5066C119.517 17.606 119.753 17.5969 120.046 17.5323C120.807 17.3433 121.681 17.0436 122.607 16.5823C123.532 16.1209 124.281 15.6664 124.849 15.1657C124.842 15.0063 124.714 14.7985 124.522 14.4867C124.332 14.2281 124.083 13.9717 123.834 13.7153C123.586 13.4589 123.278 13.2048 122.975 13.0569C122.61 12.8582 122.31 12.7634 122.076 12.8257Z" stroke="#59C69F" stroke-width="0.75" stroke-miterlimit="10"/>
<path d="M141.217 6.87284C141.468 7.18233 141.722 7.54491 142.039 8.01142C142.298 8.48021 142.498 8.95129 142.638 9.42465C142.853 10.2143 143.127 11.0017 143.405 11.8954C143.684 12.789 143.965 13.7357 144.246 14.6824C144.527 15.6291 144.811 16.6289 145.035 17.631C145.26 18.6331 145.541 19.5798 145.701 20.478C145.938 21.7456 145.875 22.9185 145.575 24.1004C145.216 25.2846 144.613 26.3187 143.769 27.2557C142.865 28.195 141.777 28.9818 140.443 29.5653C139.109 30.1488 137.587 30.5268 135.876 30.6461C135.518 30.6067 135.097 30.4634 134.671 30.2138C134.243 29.9112 134.053 29.6525 134.038 29.3339C133.964 29.0176 134.129 28.7452 134.476 28.5722C134.821 28.3461 135.229 28.2239 135.581 28.1571C136.229 28.0789 136.933 27.9453 137.632 27.7055C138.332 27.4657 139.031 27.2259 139.605 26.8314C140.24 26.4876 140.811 26.04 141.261 25.5438C141.771 25.0453 142.157 24.4452 142.423 23.7966C142.634 23.2564 142.723 22.6146 142.688 21.8712C142.653 21.1278 142.559 20.3866 142.406 19.6477C142.253 18.9089 142.103 18.2231 141.893 17.5396C141.684 16.8561 141.484 16.3851 141.348 16.0179C141.122 16.2394 140.895 16.461 140.551 16.6871C140.206 16.9132 139.862 17.1393 139.458 17.3677C139.054 17.5961 138.589 17.7737 138.121 17.8981C137.653 18.0226 137.124 18.0962 136.648 18.0614C136.114 18.0288 135.575 17.8901 135.146 17.5874C134.658 17.2871 134.225 16.8782 133.848 16.414C133.471 15.9498 133.148 15.3771 132.939 14.6936C132.672 14.0655 132.581 13.3774 132.546 12.634C132.526 10.9324 132.926 9.37421 133.81 8.01012C134.634 6.64831 136.065 5.58229 138.039 4.76124C138.214 4.70129 138.391 4.69444 138.684 4.62993C138.977 4.56541 139.214 4.55628 139.512 4.59796C139.807 4.58655 140.105 4.62824 140.344 4.67221C140.642 4.7139 140.824 4.81325 141.066 4.91033C141.43 5.10904 141.622 5.42081 141.645 5.89873C141.546 6.32812 141.443 6.6513 141.217 6.87284ZM135.521 12.9447C135.536 13.2633 135.612 13.6327 135.689 14.0022C135.765 14.3716 136.017 14.6811 136.32 14.829C136.684 15.0277 137.157 15.0094 137.743 14.8804C138.267 14.7006 138.789 14.4676 139.245 14.0776C139.703 13.7407 139.981 13.3576 140.081 12.9813C140.182 12.605 140.157 12.074 140.009 11.4413C139.802 10.811 139.593 10.1275 139.381 9.39089C139.171 8.70741 139.02 8.02164 138.937 7.4929C138.589 7.6659 138.188 7.9474 137.73 8.28427C137.331 8.61887 136.935 9.00657 136.603 9.49819C136.271 9.98981 136 10.5322 135.789 11.0724C135.579 11.6657 135.491 12.3075 135.521 12.9447Z" stroke="#59C69F" stroke-width="0.75" stroke-miterlimit="10"/>
<path d="M160.328 7.89014C159.117 8.57531 157.783 9.15884 156.382 9.58534C154.981 10.0119 153.451 10.2305 151.797 10.2944C151.903 11.3011 152.236 12.0862 152.854 12.6475C153.472 13.2088 154.199 13.5531 155.031 13.6274C155.566 13.6599 156.039 13.6417 156.565 13.5149C157.092 13.3882 157.56 13.2637 158.023 13.033C158.488 12.8555 158.892 12.6271 159.234 12.3479C159.579 12.1218 159.921 11.8426 160.207 11.6187C160.492 11.3949 160.78 11.2242 161.073 11.1597C161.366 11.0952 161.603 11.086 161.782 11.1323C162.263 11.2733 162.401 11.6936 162.315 12.3885C161.825 13.3118 161.153 14.1357 160.238 14.8095C159.322 15.4832 158.278 15.9491 157.103 16.1541C156.106 16.3522 155.04 16.3402 153.966 16.1689C152.89 15.9444 151.863 15.5053 151.001 14.7939C150.262 14.184 149.634 13.4103 149.237 12.5213C148.84 11.6322 148.561 10.7386 148.398 9.78732C148.238 8.88914 148.316 8.03493 148.515 7.22926C148.774 6.42131 149.155 5.715 149.657 5.05722C150.218 4.39716 150.905 3.89185 151.713 3.43507C152.579 2.976 153.515 2.72707 154.694 2.62831C156.049 2.4696 157.302 2.68717 158.45 3.17482C159.598 3.66248 160.401 4.37624 160.921 5.36692C161.182 5.88882 161.322 6.36217 161.224 6.79156C161.182 7.16556 160.845 7.55098 160.328 7.89014ZM154.695 5.1818C154.402 5.24632 154.053 5.36622 153.706 5.53922C153.358 5.71223 153.011 5.88523 152.726 6.10906C152.44 6.33288 152.157 6.60981 151.933 6.88445C151.709 7.1591 151.606 7.48228 151.562 7.80317C152.094 7.78263 152.682 7.7067 153.33 7.62848C153.975 7.49717 154.62 7.36585 155.206 7.23682C155.792 7.10779 156.376 6.92565 156.9 6.7458C157.424 6.56594 157.828 6.33755 158.175 6.16455C157.914 5.64265 157.424 5.2892 156.71 5.21039C156.109 5.02081 155.4 5.0482 154.695 5.1818Z" stroke="#59C69F" stroke-width="0.75" stroke-miterlimit="10"/>
<path d="M9.58955 46.3465C9.11924 46.4179 8.64396 46.383 8.04801 46.2997C7.44957 46.1632 7.02098 45.8605 6.75725 45.2855C6.62663 45.0246 6.61172 44.706 6.6584 44.4382C6.70507 44.1704 7.04974 43.9443 7.63575 43.8152C8.22176 43.6862 8.80777 43.5572 9.45288 43.4259C10.098 43.2945 10.7431 43.1632 11.3907 43.085L9.39412 38.3743C8.77776 36.5893 8.64415 34.9985 8.99572 33.655C9.34729 32.3114 10.487 31.363 12.4099 30.7036C13.1682 30.4615 13.9907 30.3233 14.7614 30.3468C15.5322 30.3702 16.3104 30.5529 17.032 30.791C17.7561 31.0823 18.4261 31.482 18.9803 31.9393C19.5961 32.4475 20.0371 33.0157 20.424 33.6923C20.5571 34.0064 20.6286 34.2696 20.7002 34.5328C20.7126 34.7984 20.6634 35.013 20.437 35.2346C20.1539 35.5115 19.8068 35.6845 19.3906 35.6474C18.9744 35.6103 18.7331 35.5132 18.6099 35.4116C18.2995 35.1044 17.9891 34.7972 17.6196 34.4922C17.2501 34.1873 16.8806 33.8824 16.5161 33.6837C16.1491 33.4319 15.7279 33.2885 15.3093 33.1983C14.8906 33.1081 14.4153 33.0733 13.945 33.1446C13.7111 33.2069 13.4772 33.2691 13.1917 33.4929C12.9036 33.6636 12.6206 33.9406 12.4607 34.3191C12.2417 34.7 12.1434 35.1294 12.1116 35.7158C12.0798 36.3022 12.2303 36.9879 12.5065 37.8285C12.7752 38.5097 13.0488 39.2971 13.3841 40.1353C13.7193 40.9735 14.0546 41.8118 14.4514 42.7008C15.9805 42.4821 17.3397 42.4296 18.6424 42.4325C19.354 42.4582 20.0091 42.5393 20.6075 42.6758C21.206 42.8123 21.7503 43.0572 22.1223 43.4153C22.2529 43.6762 22.2062 43.944 22.0954 44.1079C21.9872 44.3249 21.8149 44.4379 21.5859 44.6063C21.3545 44.7217 21.064 44.8393 20.771 44.9038C20.478 44.9683 20.185 45.0329 19.8895 45.0443C19.2419 45.1225 18.5943 45.2007 17.8901 45.3343C17.1834 45.4148 16.4792 45.5484 15.7134 45.6312C16.3049 46.8851 16.8348 48.0882 17.3032 49.2405C17.7715 50.3927 18.1708 51.3349 18.442 52.0692C18.5801 52.4894 18.6025 52.9674 18.5657 53.4476C18.4699 53.9301 18.3741 54.4126 18.2782 54.895C18.0716 55.5414 17.7419 56.0861 17.4072 56.5246C17.0725 56.9632 16.6637 57.0853 16.1835 56.9443C15.8215 56.7987 15.5776 56.6485 15.5086 56.4384C15.3804 56.2305 15.3655 55.9119 15.4048 55.4848C15.4415 55.0046 15.4807 54.5775 15.4583 54.0996C15.436 53.6217 15.4161 53.1968 15.3396 52.8274C15.2631 52.458 15.1866 52.0885 15.1151 51.8253C15.0411 51.509 14.9721 51.2989 14.908 51.1949L12.6552 46.0685C12.1258 46.1421 11.6555 46.2135 11.1261 46.2872C10.6483 46.1992 10.1189 46.2729 9.58955 46.3465Z" stroke="#59C69F" stroke-width="0.75" stroke-miterlimit="10"/>
<path d="M39.5789 38.1659C39.0003 38.4542 38.4243 38.7957 37.8482 39.1371C37.2721 39.4786 36.6395 39.8754 36.0683 40.323C35.4972 40.7707 34.9286 41.2715 34.3625 41.8253C33.8554 42.3769 33.3558 43.0878 32.9794 43.9003C32.379 44.9874 32.0175 46.1186 31.8358 47.296C31.6516 48.4202 31.5856 49.54 31.5787 50.6574C31.6035 51.1884 31.5102 51.724 31.237 52.2134C30.9664 52.7558 30.6242 53.035 30.1514 53.0533C29.5604 53.0761 29.0752 52.8288 28.6342 52.2607C28.1932 51.6925 27.9911 51.1684 27.7914 50.6973C27.1651 48.6999 26.5979 46.7003 26.1514 44.7492C25.7049 42.7981 25.315 40.7916 24.9866 38.836C24.9668 38.4111 25.075 38.1942 25.363 38.0234C25.6536 37.9058 25.9466 37.8413 26.3037 37.8807C26.6607 37.9201 27.0769 37.9572 27.4389 38.1029C27.801 38.2485 27.9882 38.454 28.0622 38.7704C28.2301 39.8278 28.4596 40.9361 28.6916 42.0976C28.9235 43.259 29.1455 44.208 29.4217 45.0485C29.4951 44.0881 29.805 43.1185 30.3537 42.1929C30.9025 41.2674 31.5719 40.3903 32.3645 39.6149C33.1571 38.8395 34.0728 38.1658 35.1118 37.5937C36.1507 37.0216 37.1995 36.6618 38.315 36.4592C38.7853 36.3878 39.199 36.3718 39.4969 36.4135C39.7949 36.4552 40.0363 36.5523 40.1619 36.707C40.2876 36.8618 40.3566 37.0719 40.2533 37.3951C40.2041 37.6098 39.9211 37.8867 39.5789 38.1659Z" stroke="#59C69F" stroke-width="0.75" stroke-miterlimit="10"/>
<path d="M53.3414 37.4747C54.3018 37.7568 55.1516 38.2027 55.8315 38.8148C56.5114 39.427 57.0164 40.099 57.4083 40.8819C57.8002 41.6647 58.0147 42.4544 58.1136 43.3018C58.2124 44.1491 58.129 44.8971 57.9274 45.6497C57.6101 46.4599 57.2337 47.2724 56.6775 48.0387C56.1829 48.8558 55.5626 49.5181 54.9423 50.1805C54.2605 50.792 53.5146 51.2996 52.6455 51.7056C51.7764 52.1115 50.7792 52.3096 49.7154 52.3507C48.4153 52.4009 47.28 52.1788 46.3686 51.682C45.4573 51.1852 44.7158 50.5223 44.2008 49.6378C43.6292 48.8087 43.289 47.8643 43.0595 46.756C42.8916 45.6985 42.8394 44.5833 42.967 43.5144C43.048 42.7133 43.2471 41.9077 43.5078 41.1528C43.7685 40.398 44.1499 39.6917 44.5953 39.0893C45.0408 38.4869 45.5503 37.9884 46.183 37.5916C46.7566 37.197 47.4583 37.0103 48.2857 36.9784C48.7585 36.9601 49.2929 36.9927 49.9504 37.1269C50.6079 37.2611 51.2679 37.4484 51.8147 37.7464C52.2701 37.3564 52.7404 37.2851 53.3414 37.4747ZM51.715 40.6762C51.3505 40.4775 50.9244 40.228 50.4367 39.9276C49.949 39.6273 49.5278 39.4839 49.1732 39.4976C48.8186 39.5113 48.4124 39.6866 48.0727 40.0189C47.733 40.3512 47.3959 40.7366 47.1793 41.1706C46.9037 41.6068 46.7463 42.0385 46.5298 42.4725C46.3724 42.9041 46.2716 43.2804 46.2224 43.4951C46.1241 43.9245 46.0899 44.4578 46.1172 45.0419C46.0854 45.6283 46.1719 46.2102 46.3174 46.7897C46.4629 47.3693 46.7241 47.8912 47.1602 48.3531C47.5371 48.8174 48.0839 49.1154 48.8621 49.2982C49.3399 49.3861 49.8127 49.3679 50.4578 49.2365C51.0438 49.1075 51.6224 48.8192 52.1984 48.4777C52.7745 48.1363 53.284 47.6378 53.7886 47.0331C54.2931 46.4285 54.677 45.7752 54.9377 45.0204C55.1935 44.1593 55.2128 43.3074 54.816 42.4184C54.4782 41.527 53.8574 40.9126 52.892 40.5243C52.6631 40.6928 52.4292 40.755 52.2519 40.7619C52.0155 40.771 51.8357 40.7247 51.715 40.6762Z" stroke="#59C69F" stroke-width="0.75" stroke-miterlimit="10"/>
<path d="M64.5632 38.1584C64.6447 38.634 64.6695 39.1651 64.82 39.8508C64.9114 40.5389 65.0618 41.2246 65.1557 41.9658C65.3087 42.7047 65.4001 43.3927 65.5531 44.1316C65.7036 44.8174 65.8541 45.5031 65.9405 46.085C66.2653 45.434 66.6442 44.6746 67.1314 43.6982C67.621 42.775 68.1107 41.8517 68.6028 40.9815C69.0949 40.1113 69.6536 39.3981 70.2173 38.7912C70.7809 38.1842 71.2979 37.8451 71.7707 37.8268C72.3026 37.8062 72.7853 38.0004 73.2213 38.4623C73.6549 38.8712 74.0934 39.3862 74.4187 40.012C74.744 40.6379 75.0694 41.2637 75.3405 41.998C75.6092 42.6792 75.8163 43.3096 76.0185 43.8337C76.1193 43.4575 76.2767 43.0258 76.4316 42.541C76.5866 42.0562 76.8006 41.5692 77.0146 41.0821C77.2286 40.5951 77.4993 40.0526 77.7724 39.5633C78.0455 39.074 78.3803 38.6354 78.7175 38.25C79.1113 37.8092 79.5716 37.5255 80.0345 37.2948C80.4998 37.1172 80.8494 36.9973 81.0858 36.9882C81.3813 36.9768 81.7384 37.0162 82.1005 37.1618C82.5216 37.3051 82.9452 37.5015 83.3713 37.7511C83.7974 38.0006 84.226 38.3032 84.5955 38.6082C84.9675 38.9662 85.2804 39.3265 85.5342 39.6891C86.0442 40.4674 86.4361 41.2502 86.7172 42.1969C87.0549 43.0882 87.2745 43.9841 87.4299 44.7761C87.5879 45.6212 87.7384 46.307 87.7707 46.9973C87.8596 47.6322 87.882 48.1102 87.951 48.3203C87.9684 48.692 87.9217 48.9598 87.8726 49.1745C87.7643 49.3915 87.592 49.5045 87.3606 49.6199C87.0134 49.7929 86.7204 49.8574 86.4815 49.8134C86.2427 49.7694 86.0013 49.6724 85.8781 49.5707C85.6934 49.4183 85.5677 49.2635 85.5012 49.1065C85.3755 48.9518 85.3065 48.7416 85.3015 48.6354C85.1535 48.0028 85.0621 47.3147 84.9116 46.6289C84.7611 45.9432 84.6131 45.3105 84.4626 44.6247C84.3146 43.9921 84.11 43.4148 83.9053 42.8375C83.7032 42.3133 83.5011 41.7892 83.3039 41.3712C83.2398 41.2673 83.1142 41.1125 82.9885 40.9578C82.8629 40.803 82.6756 40.5975 82.4909 40.445C82.3061 40.2926 82.1214 40.1401 81.9982 40.0385C81.8159 39.9391 81.6953 39.8906 81.6337 39.8397C81.3382 39.8512 80.996 40.1304 80.6663 40.6751C80.3365 41.2198 80.0118 41.8707 79.7511 42.6256C79.4904 43.3804 79.2321 44.1884 78.9739 44.9963C78.7157 45.8043 78.5707 46.5015 78.4798 47.0902C78.5146 47.8336 78.3622 48.3715 78.0841 48.7546C77.806 49.1377 77.4588 49.3108 77.1043 49.3245C76.7497 49.3382 76.3901 49.2456 75.964 48.9961C75.5379 48.7466 75.2891 48.4902 75.156 48.1761C74.9563 47.7051 74.6975 47.2363 74.4929 46.659C74.2292 46.084 73.9655 45.509 73.7018 44.934C73.438 44.359 73.1743 43.784 72.9106 43.209C72.6469 42.634 72.3881 42.1652 72.1294 41.6964C71.6814 42.2457 71.2975 42.8989 70.9137 43.5521C70.5298 44.2054 70.1484 44.9117 69.767 45.618C69.3856 46.3243 69.0633 47.0283 68.7386 47.6792C68.4163 48.3833 68.089 48.9811 67.8159 49.4704C67.5944 49.7982 67.3704 50.0728 67.1465 50.3475C66.9225 50.6221 66.632 50.7397 66.2774 50.7534C66.041 50.7626 65.7405 50.6678 65.4351 50.4668C65.1297 50.2658 64.8809 50.0094 64.5705 49.7022C64.3192 49.3927 64.0654 49.0301 63.8116 48.6675C63.5553 48.2519 63.4197 47.8847 63.2817 47.4644C62.9881 46.2522 62.6871 44.8807 62.4427 43.4538C62.1959 41.9737 61.9515 40.5468 61.7687 39.1707C61.6872 38.6951 61.7831 38.2126 61.943 37.834C62.1004 37.4024 62.4426 37.1231 62.9079 36.9456C63.4348 36.8188 63.8535 36.909 64.1589 37.11C64.287 37.3179 64.4817 37.6828 64.5632 38.1584Z" stroke="#59C69F" stroke-width="0.75" stroke-miterlimit="10"/>
<path d="M115.615 38.5271C116.204 38.4512 116.802 38.5876 117.465 38.828C118.068 39.0707 118.386 39.5372 118.413 40.1214C118.376 40.6016 118.096 40.9316 117.569 41.0583C117.042 41.1851 116.633 41.3073 116.338 41.3187C115.688 41.3438 115.038 41.3689 114.272 41.4517C113.565 41.5322 112.797 41.5619 112.031 41.6446C112.017 42.6028 111.997 43.4547 111.978 44.3066C111.959 45.1585 111.991 45.8489 111.964 46.5415C111.935 47.181 111.96 47.712 111.977 48.0838C111.997 48.5086 112.007 48.721 112.066 48.7187C112.77 48.5851 113.529 48.343 114.284 48.0478C115.099 47.7504 115.853 47.4021 116.665 47.0515C117.478 46.7009 118.229 46.2995 118.982 45.9512C119.733 45.5498 120.486 45.2015 121.18 44.8555C121.468 44.6848 121.764 44.6734 122.062 44.7151C122.36 44.7568 122.486 44.9115 122.552 45.0685C122.626 45.3849 122.584 45.7589 122.489 46.2414C122.334 46.7261 122.056 47.1093 121.659 47.497C121.201 47.8338 120.571 48.2838 119.823 48.7383C119.074 49.1928 118.267 49.6495 117.4 50.1086C116.534 50.5677 115.662 50.9205 114.731 51.2757C113.86 51.6285 113.04 51.8198 112.333 51.9003C111.274 52.0476 110.494 51.8117 109.932 51.1951C109.373 50.6315 109.04 49.8464 108.939 48.9459C108.837 48.0454 108.788 46.9834 108.79 45.7597C108.792 44.5361 108.791 43.2594 108.788 41.9295C108.2 42.0054 107.611 42.0814 107.082 42.155C106.552 42.2287 106.023 42.3023 105.493 42.376C105.08 42.3919 104.602 42.304 104.122 42.163C103.642 42.0219 103.331 41.7147 103.306 41.1837C103.299 41.0244 103.346 40.7566 103.51 40.4842C103.675 40.2119 104.02 39.9857 104.544 39.8059C105.835 39.5433 107.305 39.3269 108.834 39.1082C108.89 37.7761 108.887 36.4462 109.007 35.218C109.065 33.939 109.131 32.8193 109.2 31.7527C109.244 31.4318 109.288 31.1109 109.512 30.8362C109.677 30.5639 109.909 30.4485 110.086 30.4417C110.615 30.368 111.155 30.5068 111.64 30.754C112.125 31.0013 112.435 31.3085 112.45 31.6271C112.377 32.5875 112.311 33.7073 112.25 34.9332C112.189 36.1591 112.13 37.4381 112.131 38.7149C112.778 38.6367 113.367 38.5607 113.958 38.5379C114.495 38.6236 115.086 38.6007 115.615 38.5271Z" stroke="#59C69F" stroke-width="0.75" stroke-miterlimit="10"/>
<path d="M127.203 30.5785C127.235 31.2688 127.27 32.0123 127.312 32.915C127.352 33.7647 127.394 34.6674 127.436 35.5701C127.478 36.4729 127.582 37.4264 127.627 38.3823C127.672 39.3381 127.775 40.2917 127.815 41.1413C128.083 40.5458 128.472 39.9988 128.859 39.3987C129.307 38.8494 129.754 38.3001 130.266 37.8547C130.778 37.4094 131.352 37.0148 131.992 36.7773C132.571 36.489 133.275 36.3554 133.984 36.328C134.752 36.2983 135.472 36.4833 136.144 36.9361C136.757 37.3912 137.376 37.9525 137.824 38.68C138.332 39.4052 138.726 40.2411 139.125 41.1832C139.463 42.0746 139.803 43.019 140.025 43.968C140.247 44.917 140.467 45.8129 140.627 46.7111C140.785 47.5562 140.882 48.3504 140.968 48.9323C140.99 49.4102 140.89 49.7865 140.666 50.0611C140.442 50.3358 140.154 50.5065 139.799 50.5202C139.563 50.5293 139.201 50.3837 138.834 50.1319C138.467 49.8801 138.151 49.4667 138.013 49.0464C137.88 48.7323 137.796 48.2036 137.648 47.5709C137.5 46.9383 137.347 46.1994 137.194 45.4605C137.041 44.7217 136.827 43.932 136.614 43.1954C136.4 42.4057 136.131 41.7245 135.808 41.1518C135.483 40.526 135.165 40.0595 134.737 39.7568C134.367 39.4519 133.887 39.3109 133.36 39.4376C132.599 39.6266 131.912 40.1319 131.361 41.0044C130.81 41.8768 130.323 42.8532 129.961 43.9844C129.597 45.0624 129.295 46.1912 129.051 47.3178C128.808 48.4444 128.673 49.354 128.587 50.0489C128.494 50.5845 128.331 50.9099 128.164 51.1292C127.938 51.3507 127.763 51.4107 127.467 51.4221C127.231 51.4312 126.99 51.3342 126.743 51.1309C126.556 50.9253 126.305 50.6158 126.113 50.3041C125.92 49.9923 125.726 49.6274 125.593 49.3134C125.457 48.9462 125.324 48.6322 125.314 48.4198C125.065 46.8866 124.877 45.4043 124.751 43.9728C124.565 42.5436 124.442 41.1653 124.315 39.7338C124.189 38.3023 124.122 36.8685 124.05 35.3285C123.978 33.7886 123.965 32.2463 123.942 30.4916C123.875 29.0579 124.436 28.3978 125.567 28.5138C125.924 28.5532 126.291 28.805 126.606 29.2184C127.04 29.6272 127.18 30.1006 127.203 30.5785Z" stroke="#59C69F" stroke-width="0.75" stroke-miterlimit="10"/>
<path d="M155.514 38.4223C154.303 39.1074 152.969 39.691 151.568 40.1175C150.167 40.544 148.638 40.7626 146.983 40.8265C147.089 41.8332 147.422 42.6183 148.04 43.1796C148.659 43.7409 149.385 44.0853 150.217 44.1595C150.752 44.1921 151.225 44.1738 151.752 44.0471C152.278 43.9203 152.746 43.7958 153.209 43.5652C153.674 43.3876 154.078 43.1592 154.42 42.88C154.765 42.6539 155.107 42.3747 155.393 42.1509C155.678 41.927 155.966 41.7563 156.259 41.6918C156.552 41.6273 156.789 41.6181 156.969 41.6644C157.449 41.8054 157.587 42.2257 157.501 42.9206C157.011 43.8439 156.339 44.6678 155.424 45.3416C154.508 46.0153 153.464 46.4812 152.289 46.6862C151.292 46.8843 150.226 46.8723 149.152 46.701C148.076 46.4766 147.049 46.0374 146.187 45.326C145.448 44.7161 144.82 43.9424 144.423 43.0534C144.026 42.1643 143.747 41.2707 143.585 40.3194C143.424 39.4213 143.502 38.5671 143.702 37.7614C143.96 36.9534 144.341 36.2471 144.843 35.5893C145.404 34.9293 146.091 34.424 146.899 33.9672C147.765 33.5081 148.701 33.2592 149.88 33.1604C151.235 33.0017 152.488 33.2193 153.636 33.7069C154.784 34.1946 155.587 34.9084 156.107 35.899C156.368 36.4209 156.509 36.8943 156.41 37.3237C156.369 37.6977 156.031 38.0831 155.514 38.4223ZM149.941 35.7116C149.648 35.7761 149.298 35.8961 148.951 36.0691C148.604 36.2421 148.257 36.4151 147.971 36.6389C147.686 36.8627 147.402 37.1396 147.178 37.4143C146.955 37.6889 146.851 38.0121 146.807 38.333C147.339 38.3125 147.927 38.2365 148.575 38.1583C149.22 38.027 149.865 37.8957 150.451 37.7667C151.037 37.6376 151.621 37.4555 152.145 37.2756C152.67 37.0958 153.073 36.8674 153.421 36.6944C153.159 36.1725 152.669 35.819 151.955 35.7402C151.295 35.5529 150.586 35.5803 149.941 35.7116Z" stroke="#59C69F" stroke-width="0.75" stroke-miterlimit="10"/>
<path d="M183.677 31.6954C183.803 31.8501 183.869 32.0071 183.939 32.2172C183.948 32.4297 183.956 32.589 183.845 32.7528C183.683 33.0783 183.451 33.1936 183.033 33.1034C182.375 32.9692 181.663 32.9435 180.957 33.024C180.25 33.1045 179.492 33.3466 178.807 33.905C178.121 34.4103 177.562 35.1235 177.193 36.0953C176.821 37.014 176.691 38.0298 176.736 38.9857C176.781 39.9415 177.057 40.782 177.621 41.4518C178.185 42.1216 178.86 42.6275 179.703 42.9142C180.244 43.106 180.781 43.1917 181.431 43.1666C182.084 43.1946 182.732 43.1164 183.379 43.0382C184.027 42.9599 184.672 42.8286 185.314 42.6442C185.957 42.4598 186.541 42.2777 187.122 42.0424C187.296 41.9825 187.474 41.9756 187.656 42.075C187.838 42.1743 187.961 42.276 188.025 42.3799C188.22 42.7448 188.119 43.121 187.841 43.5042C187.504 43.8896 186.987 44.2288 186.352 44.5725C185.714 44.8631 185.018 45.156 184.316 45.3427C183.614 45.5294 182.792 45.6676 181.964 45.6995C181.196 45.7292 180.425 45.7058 179.709 45.5739C178.694 45.4003 177.849 45.0605 177.179 44.6608C176.45 44.2634 175.894 43.7529 175.393 43.187C174.893 42.6212 174.568 41.9953 174.302 41.3672C174.033 40.686 173.883 40.0003 173.85 39.3099C173.712 37.6129 173.994 36.0593 174.757 34.6466C175.52 33.234 176.595 32.1817 178.043 31.4874C179.084 30.9684 180.197 30.7126 181.266 30.7777C182.273 30.792 183.118 31.1318 183.677 31.6954Z" stroke="#59C69F" stroke-width="0.75" stroke-miterlimit="10"/>
<path d="M204.364 36.0033C204.494 36.2643 204.391 36.5875 204.049 36.8667C203.707 37.1459 203.064 37.3303 202.242 37.4685C200.831 37.6826 199.363 37.9521 197.893 38.1684C196.426 38.4379 194.897 38.6566 193.37 38.9283C193.378 40.3644 193.448 41.8513 193.574 43.2828C194.283 43.2554 195.167 43.168 196.223 42.9676C197.223 42.8226 198.277 42.5691 199.392 42.3664C200.446 42.1129 201.5 41.8594 202.495 41.6082C203.489 41.357 204.309 41.1657 205.011 40.979C205.361 40.8591 205.713 40.7923 206.124 40.7232C206.476 40.6564 206.831 40.6427 207.129 40.6844C207.427 40.7261 207.668 40.8232 207.912 40.9734C208.097 41.1258 208.227 41.3868 208.242 41.7054C208.247 41.8116 208.134 41.9224 207.905 42.0908C207.676 42.2592 207.449 42.4808 207.102 42.6538C206.758 42.8799 206.411 43.0529 206.063 43.2259C205.716 43.3989 205.367 43.5188 205.076 43.6364C203.153 44.2959 201.225 44.8491 199.354 45.347C197.483 45.8449 195.602 46.1303 193.831 46.2519C192.77 46.3461 191.989 46.1103 191.432 45.5998C190.876 45.0893 190.545 44.3573 190.439 43.3506C190.315 41.9723 190.248 40.5385 190.24 39.1024C189.696 38.8575 189.381 38.4441 189.356 37.913C189.39 37.3797 189.668 36.9966 190.19 36.7636C190.209 35.9117 190.231 35.1129 190.192 34.2632C190.211 33.4113 190.171 32.5617 190.193 31.7629C189.836 31.7235 189.533 31.5756 189.225 31.3215C188.917 31.0674 188.786 30.8064 188.772 30.4878C188.759 30.2223 188.808 30.0076 188.917 29.7906C189.025 29.5736 189.254 29.4052 189.603 29.2853C190.189 29.1563 190.891 28.9696 191.714 28.8314C192.533 28.6401 193.356 28.502 194.237 28.3615C195.119 28.2211 195.941 28.0829 196.764 27.9447C197.586 27.8066 198.234 27.7284 198.825 27.7055C199.472 27.6273 200.125 27.6553 200.782 27.7895C201.44 27.9237 201.987 28.2218 202.543 28.7323C202.682 29.1525 202.635 29.4203 202.349 29.6441C202.064 29.868 201.655 29.9902 201.185 30.0615C200.714 30.1329 200.126 30.2088 199.481 30.3401C198.833 30.4183 198.129 30.5519 197.422 30.6324C196.718 30.766 196.011 30.8465 195.305 30.927C194.598 31.0075 193.894 31.1411 193.305 31.2171C193.308 31.2702 193.31 31.3233 193.315 31.4295C193.318 31.4826 193.323 31.5888 193.325 31.6419C193.301 32.3876 193.277 33.1333 193.311 33.8767C193.287 34.6225 193.322 35.3659 193.297 36.1116C194.647 35.8467 195.999 35.6349 197.35 35.4231C198.761 35.209 199.82 35.0617 200.645 34.9766C201.293 34.8984 201.945 34.9264 202.605 35.1137C203.26 35.1948 203.866 35.4906 204.364 36.0033Z" stroke="#59C69F" stroke-width="0.75" stroke-miterlimit="10"/>
<path d="M226.834 36.6781C226.694 37.4815 226.374 38.2386 225.936 39.0003C225.498 39.762 224.937 40.4221 224.317 41.0844C223.696 41.7468 223.071 42.3029 222.325 42.8105C221.579 43.3181 220.885 43.6641 220.129 43.9593C218.733 44.492 217.379 44.6507 215.953 44.5462C214.586 44.4394 213.318 43.9032 212.15 42.9908C211.404 42.2216 210.83 41.3394 210.487 40.3419C210.145 39.3443 209.92 38.3422 209.929 37.2779C209.88 36.2159 210.01 35.2001 210.261 34.2328C210.511 33.2655 210.883 32.3468 211.321 31.5851C211.87 30.6595 212.485 29.891 213.282 29.2218C214.023 28.608 214.892 28.202 215.833 28.0593C216.067 27.9971 216.306 28.041 216.431 28.1958C216.616 28.3483 216.685 28.5584 216.695 28.7708C216.978 28.4939 217.5 28.2609 218.143 28.0765C218.785 27.8921 219.554 27.8624 220.386 27.9366C221.93 28.0366 223.132 28.4158 224.048 29.0187C224.964 29.6217 225.652 30.3932 226.105 31.2268C226.559 32.0605 226.84 33.0072 226.885 33.963C227.055 35.0736 227.036 35.9256 226.834 36.6781ZM216.216 31.1832C215.578 31.4739 215.064 31.8661 214.673 32.36C214.281 32.8539 213.954 33.4518 213.688 34.1004C213.423 34.749 213.278 35.4462 213.251 36.1388C213.227 36.8846 213.259 37.5749 213.35 38.2629C213.516 39.2673 213.848 40.0525 214.469 40.6669C215.09 41.2813 215.991 41.5656 217.173 41.52C217.882 41.4926 218.587 41.359 219.224 41.0684C219.921 40.7754 220.497 40.434 221.071 40.0395C221.642 39.5918 222.151 39.0933 222.599 38.5441C223.047 37.9948 223.434 37.3947 223.64 36.7483C223.803 36.4228 223.903 36.0465 223.94 35.5663C224.036 35.0839 224.014 34.6059 223.991 34.128C223.91 33.6524 223.769 33.179 223.57 32.7079C223.311 32.2391 222.939 31.8811 222.451 31.5808C221.781 31.1811 220.941 30.9475 220.05 30.8755C219.099 30.8059 218.164 31.0548 217.179 31.5184C217.007 31.6315 216.773 31.6937 216.531 31.5966C216.238 31.6612 216.169 31.451 216.216 31.1832Z" stroke="#59C69F" stroke-width="0.75" stroke-miterlimit="10"/>
</svg>
