<svg width="463" height="585" viewBox="0 0 463 585" fill="none" xmlns="http://www.w3.org/2000/svg">
<path d="M379.265 347.524C378.653 347.751 378.007 347.978 377.396 348.205C375.968 348.756 374.575 349.307 373.182 349.923C370.463 351.122 367.88 352.548 365.536 354.331C364.822 354.882 364.856 356.016 365.434 356.632C365.468 356.697 365.536 356.729 365.604 356.762C365.739 356.988 365.909 357.215 366.147 357.377C369.851 360.165 373.522 362.952 377.226 365.74C377.804 366.193 378.755 365.999 379.299 365.578C380.556 364.508 380.59 362.725 380.862 361.234L381.678 356.567C381.984 354.914 382.255 353.261 382.561 351.608C382.799 350.182 383.751 347.783 381.78 347.103C380.862 346.811 380.08 347.2 379.265 347.524ZM378.313 356.275C378.109 357.507 377.872 358.739 377.668 359.97C377.566 360.554 377.464 361.137 377.362 361.721C374.711 359.711 372.026 357.702 369.376 355.692C370.973 354.655 372.638 353.715 374.371 352.937C375.527 352.418 376.716 351.932 377.906 351.478C378.347 351.316 378.789 351.122 379.265 350.927C379.163 351.414 379.095 351.9 378.993 352.386L378.313 356.275Z" fill="#DADADA"/>
<path d="M458.642 0.634519C457.929 0.909167 457.175 1.18382 456.462 1.45846C454.797 2.12547 453.171 2.79247 451.545 3.53794C448.374 4.98966 445.361 6.71602 442.625 8.87397C441.792 9.54097 441.832 10.9142 442.506 11.6597C442.546 11.7382 442.625 11.7774 442.704 11.8166C442.863 12.0913 443.061 12.3659 443.338 12.5621C447.66 15.9363 451.942 19.3106 456.264 22.6849C456.938 23.2341 458.048 22.9987 458.682 22.4887C460.149 21.1939 460.189 19.036 460.506 17.2311L461.457 11.5812C461.814 9.5802 462.131 7.5792 462.488 5.57819C462.766 3.85183 463.876 0.948402 461.576 0.124458C460.506 -0.228662 459.594 0.242164 458.642 0.634519ZM457.532 11.2281C457.294 12.719 457.017 14.21 456.779 15.7009C456.66 16.4072 456.541 17.1134 456.422 17.8197C453.33 15.3871 450.197 12.9545 447.105 10.5219C448.968 9.26632 450.911 8.12849 452.933 7.18684C454.281 6.55907 455.669 5.97054 457.056 5.42125C457.572 5.22507 458.087 4.98966 458.642 4.75424C458.523 5.34277 458.444 5.93131 458.325 6.51984L457.532 11.2281Z" fill="#DADADA"/>
<path fill-rule="evenodd" clip-rule="evenodd" d="M284.553 19.6108C285.424 19.929 286.456 20.4163 287.303 21.3066C288.288 22.3419 288.806 23.6791 289.141 24.7322C289.921 27.0616 290.559 30.3208 289.235 33.24L289.232 33.2461C288.167 35.5748 286.12 36.9826 284.125 37.5819C282.102 38.1894 280.042 38.0568 278.176 37.6783L278.166 37.6763L278.156 37.6742C277.248 37.4767 276.072 37.1678 275.034 36.3539C274.063 35.6075 273.391 34.5682 272.95 33.5198C271.09 29.2662 272.137 24.9213 274.572 22.1519C276.975 19.4191 280.743 18.1553 284.553 19.6108ZM276.887 25.1147C275.402 26.8029 274.873 29.2023 275.939 31.6311L275.947 31.6486L275.954 31.6663C276.184 32.216 276.487 32.6446 276.85 32.9223L276.86 32.9299L276.87 32.9377C277.297 33.2742 277.887 33.4781 278.745 33.6652C280.363 33.9923 281.909 34.0516 283.309 33.631C284.738 33.2019 285.811 32.2959 286.276 31.2818C286.843 30.029 286.693 28.283 286.007 26.2425L286.001 26.2241L285.995 26.2056C285.718 25.3322 285.442 24.7499 285.086 24.3764C284.775 24.049 284.283 23.765 283.566 23.5044L283.554 23.5L283.542 23.4954C280.901 22.4824 278.404 23.3892 276.887 25.1147Z" fill="#59C69F"/>
<path fill-rule="evenodd" clip-rule="evenodd" d="M329.159 396.45C329.934 396.685 330.852 397.044 331.605 397.7C332.48 398.462 332.941 399.448 333.239 400.224C333.932 401.94 334.499 404.342 333.322 406.493L333.319 406.497C332.372 408.213 330.553 409.25 328.779 409.692C326.98 410.14 325.149 410.042 323.49 409.763L323.482 409.762L323.473 409.76C322.666 409.614 321.62 409.387 320.697 408.787C319.834 408.237 319.237 407.471 318.844 406.699C317.191 403.565 318.121 400.363 320.286 398.322C322.423 396.309 325.773 395.378 329.159 396.45ZM322.344 400.506C321.024 401.75 320.554 403.518 321.502 405.307L321.509 405.32L321.515 405.333C321.72 405.738 321.989 406.054 322.312 406.259L322.321 406.264L322.33 406.27C322.709 406.518 323.234 406.668 323.996 406.806C325.434 407.047 326.809 407.091 328.054 406.781C329.325 406.465 330.278 405.797 330.692 405.05C331.196 404.127 331.062 402.84 330.453 401.337L330.447 401.323L330.442 401.309C330.196 400.666 329.95 400.237 329.634 399.962C329.357 399.72 328.919 399.511 328.282 399.319L328.272 399.316L328.261 399.312C325.913 398.566 323.693 399.234 322.344 400.506Z" fill="#FFD540"/>
<path d="M194.735 169.476C195.347 169.249 195.993 169.022 196.604 168.795C198.032 168.244 199.425 167.693 200.818 167.077C203.537 165.878 206.12 164.452 208.464 162.669C209.178 162.118 209.144 160.984 208.566 160.368C208.532 160.303 208.464 160.271 208.396 160.238C208.261 160.012 208.091 159.785 207.853 159.623C204.149 156.835 200.478 154.048 196.774 151.26C196.196 150.807 195.245 151.001 194.701 151.422C193.444 152.492 193.41 154.275 193.138 155.766L192.322 160.433C192.016 162.086 191.745 163.739 191.439 165.392C191.201 166.818 190.249 169.217 192.22 169.897C193.138 170.189 193.92 169.8 194.735 169.476ZM195.687 160.725C195.891 159.493 196.128 158.261 196.332 157.03C196.434 156.446 196.536 155.863 196.638 155.279C199.289 157.289 201.974 159.298 204.624 161.308C203.027 162.345 201.362 163.285 199.629 164.063C198.473 164.582 197.284 165.068 196.094 165.522C195.653 165.684 195.211 165.878 194.735 166.073C194.837 165.586 194.905 165.1 195.007 164.614L195.687 160.725Z" fill="#DADADA"/>
<path d="M202.36 584.365C203.073 584.091 203.827 583.816 204.54 583.542C206.205 582.875 207.831 582.208 209.456 581.462C212.628 580.01 215.641 578.284 218.377 576.126C219.21 575.459 219.17 574.086 218.496 573.34C218.456 573.262 218.377 573.223 218.298 573.183C218.139 572.909 217.941 572.634 217.663 572.438C213.342 569.064 209.06 565.689 204.738 562.315C204.064 561.766 202.954 562.001 202.32 562.511C200.853 563.806 200.813 565.964 200.496 567.769L199.545 573.419C199.188 575.42 198.871 577.421 198.514 579.422C198.236 581.148 197.126 584.052 199.426 584.876C200.496 585.229 201.408 584.758 202.36 584.365ZM203.47 573.772C203.708 572.281 203.985 570.79 204.223 569.299C204.342 568.593 204.461 567.887 204.58 567.18C207.672 569.613 210.804 572.046 213.897 574.478C212.034 575.734 210.091 576.872 208.069 577.813C206.721 578.441 205.333 579.029 203.945 579.579C203.43 579.775 202.915 580.01 202.36 580.246C202.479 579.657 202.558 579.069 202.677 578.48L203.47 573.772Z" fill="#DADADA"/>
<path fill-rule="evenodd" clip-rule="evenodd" d="M44.4494 422.389C43.5775 422.071 42.5458 421.584 41.6988 420.693C40.714 419.658 40.1957 418.321 39.8607 417.268C39.0809 414.938 38.4425 411.679 39.7671 408.76L39.7698 408.754C40.835 406.425 42.8817 405.017 44.8774 404.418C46.9003 403.811 48.96 403.943 50.8261 404.322L50.8359 404.324L50.8457 404.326C51.7537 404.523 52.9302 404.832 53.9677 405.646C54.9394 406.393 55.6106 407.432 56.0522 408.48C57.912 412.734 56.8653 417.079 54.43 419.848C52.0268 422.581 48.2586 423.845 44.4494 422.389ZM52.1154 416.885C53.5999 415.197 54.1291 412.798 53.0627 410.369L53.055 410.351L53.0475 410.334C52.8175 409.784 52.515 409.355 52.1517 409.078L52.1417 409.07L52.1318 409.062C51.705 408.726 51.1148 408.522 50.2568 408.335C48.6392 408.008 47.0928 407.948 45.6925 408.369C44.2635 408.798 43.1908 409.704 42.7257 410.718C42.1589 411.971 42.3093 413.717 42.9945 415.758L43.0006 415.776L43.0065 415.794C43.2835 416.668 43.5602 417.25 43.9155 417.624C44.2271 417.951 44.7193 418.235 45.4356 418.496L45.4477 418.5L45.4597 418.505C48.1007 419.518 50.598 418.611 52.1154 416.885Z" fill="#59C69F"/>
<path d="M92.0646 59.9977C92.45 60.4964 92.8354 61.0284 93.253 61.5272C94.1523 62.6909 95.0837 63.8546 96.0473 64.9518C97.9423 67.1463 100.03 69.108 102.375 70.7704C103.081 71.2692 104.141 70.9034 104.559 70.1719C104.591 70.1054 104.623 70.0057 104.623 69.9392C104.816 69.7397 104.976 69.507 105.073 69.241C106.679 64.9518 108.317 60.6627 109.923 56.3403C110.18 55.6753 109.762 54.8108 109.184 54.4783C107.803 53.6139 106.133 54.1459 104.623 54.3453L99.9979 54.9771C98.3599 55.2098 96.6897 55.4426 95.0516 55.6421C93.6063 55.8416 91.101 55.6753 91.0047 57.7368C90.9404 58.701 91.5507 59.2995 92.0646 59.9977ZM100.608 58.2355C101.861 58.0693 103.081 57.903 104.334 57.7368C104.912 57.6703 105.49 57.5705 106.068 57.504C104.912 60.5962 103.756 63.6884 102.567 66.7805C101.154 65.6168 99.8052 64.3201 98.5847 62.9236C97.7496 61.9927 96.9788 61.0284 96.2079 60.0642C95.9188 59.6985 95.6298 59.3327 95.3086 58.967C95.7904 58.9005 96.2721 58.834 96.7539 58.7675L100.608 58.2355Z" fill="#59C69F"/>
<path fill-rule="evenodd" clip-rule="evenodd" d="M4.84266 468.55C4.06758 468.315 3.15044 467.956 2.39743 467.3C1.52188 466.538 1.06111 465.552 0.76329 464.776C0.070044 463.06 -0.497422 460.658 0.680099 458.507L0.682549 458.503C1.62945 456.787 3.449 455.75 5.22318 455.308C7.02153 454.86 8.85267 454.958 10.5116 455.237L10.5203 455.238L10.529 455.24C11.3363 455.386 12.3822 455.613 13.3045 456.213C14.1684 456.763 14.7651 457.529 15.1576 458.301C16.811 461.435 15.8805 464.637 13.7155 466.678C11.579 468.691 8.22912 469.622 4.84266 468.55ZM11.6578 464.494C12.9775 463.25 13.448 461.482 12.4999 459.693L12.4931 459.68L12.4865 459.667C12.2819 459.262 12.013 458.946 11.69 458.741L11.6812 458.736L11.6724 458.73C11.293 458.482 10.7683 458.332 10.0055 458.194C8.56747 457.953 7.19273 457.909 5.94783 458.219C4.67745 458.535 3.72378 459.203 3.31033 459.95C2.8064 460.873 2.94017 462.16 3.54927 463.663L3.55475 463.677L3.55998 463.691C3.80621 464.334 4.05224 464.763 4.36809 465.038C4.64504 465.28 5.08267 465.489 5.71946 465.681L5.73018 465.684L5.74085 465.688C8.08873 466.434 10.3088 465.766 11.6578 464.494Z" fill="#FFD540"/>
</svg>
