<svg width="166" height="123" viewBox="0 0 166 123" fill="none" xmlns="http://www.w3.org/2000/svg">
<path d="M60.2136 96.148C60.2507 95.1133 60.8211 94.5167 61.3792 94.2649C61.5311 93.8571 61.7466 93.5903 61.962 93.3234C82.9454 74.6973 96.9061 50.9253 109.864 26.4182C110.826 24.4571 112.131 22.5112 114.542 22.2721C116.889 21.892 119.163 23.5813 120.192 25.492C123.027 30.6604 117.907 37.5506 115.348 41.9284C107.911 54.1051 98.1766 65.2824 88.7968 76.1298C83.4985 82.2522 78.2002 88.3745 72.4444 93.8548C70.2385 96.0374 67.6406 99.5844 64.5957 100.279C62.0966 101.067 60.1148 98.9071 60.2136 96.148Z" fill="#59C69F"/>
<path d="M121.533 11.5012C121.326 11.4064 121.119 11.3117 120.839 11.0656C120.558 10.8196 120.351 10.7248 120.071 10.4788C119.304 9.89192 118.464 9.15375 117.501 8.83139C115.71 8.13008 114.734 9.45252 114.148 10.246C113.428 11.096 112.915 12.0408 112.268 13.0422C111.047 15.1962 109.899 17.5016 109.238 20.1478C108.215 20.0333 107.203 20.2781 106.763 21.3742C106.702 21.5821 106.641 21.79 106.579 21.9979C88.6593 37.3883 74.2836 55.1076 63.9039 74.4191C60.8879 79.8799 58.0908 85.7946 55.7078 91.8989C55.4514 92.3713 55.195 92.8437 55.2798 93.3542C55.3528 93.5055 55.3646 93.8647 55.5717 93.9595C56.0825 95.0187 56.7886 95.8135 57.4947 96.6082C57.4947 96.6082 57.4217 96.4569 57.2876 96.5135C56.7393 96.3806 56.2639 96.399 55.9956 96.5122C55.5933 96.682 55.398 96.9464 55.3368 97.1543L55.0686 97.2675C54.6662 97.4373 54.2638 97.607 53.8614 97.7768C53.459 97.9465 53.1908 98.0597 52.7154 98.0781C52.5813 98.1347 52.5813 98.1347 52.4472 98.1913L52.2401 98.0965C51.7647 98.115 51.2894 98.1334 50.96 98.4545C50.4234 98.6808 50.094 99.0019 50.0447 99.569C49.5416 102.877 48.0642 105.503 46.4526 108.187C45.6833 109.604 44.7799 111.077 44.2177 112.589C44.0954 113.005 43.9731 113.421 44.0579 113.932C44.1426 114.442 44.3616 114.896 44.8487 115.237C45.543 115.672 46.5667 115.787 47.0914 115.201C47.3597 115.088 47.6279 114.975 47.8232 114.71C49.2631 113.01 51.4703 111.897 53.7623 111.294C54.64 111.106 55.5908 111.069 56.6756 110.976C58.2358 110.864 59.796 110.752 61.1984 109.978C61.4667 109.865 61.6619 109.601 61.7231 109.393C61.6383 108.882 61.7606 108.466 61.6758 107.956C61.664 107.597 61.7133 107.03 61.7015 106.67C61.7508 106.103 61.8002 105.536 61.8495 104.969L61.8377 104.61C61.8988 104.402 61.96 104.194 62.0211 103.986L62.1434 103.57C62.2046 103.362 62.3999 103.098 62.534 103.041C62.8634 102.72 62.9128 102.153 62.6938 101.699C62.609 101.189 62.183 100.64 61.7688 100.45C60.8674 99.9201 59.9167 99.957 59.3309 100.75C58.2322 102.489 57.8277 104.662 58.447 106.951C57.7034 107.082 57.0939 107.157 56.3503 107.289L56.009 107.251C54.583 107.306 53.3029 107.664 52.1569 107.965C51.7545 108.135 51.4133 108.097 51.0109 108.267C51.9636 106.226 52.9164 104.185 53.455 101.955C54.1986 101.823 54.7351 101.597 55.4787 101.465L55.7469 101.352C56.1493 101.182 56.6858 100.956 57.2223 100.729C57.6247 100.56 57.82 100.295 58.0883 100.182C58.5518 99.8044 58.6741 99.3886 58.7964 98.9728C58.9187 98.557 58.7609 97.8951 58.542 97.4411C60.2954 99.0688 62.3665 100.016 64.4868 100.396C65.0351 100.529 65.4375 100.36 65.7669 100.038C66.0963 99.7174 66.3528 99.245 66.268 98.7345C66.2325 97.6568 65.4534 96.7107 64.4298 96.5963C64.2227 96.5015 64.0885 96.5581 63.8814 96.4634L63.5402 96.4252C63.199 96.3871 62.9189 96.141 62.5777 96.1029C62.3706 96.0081 62.3706 96.0081 62.1635 95.9134L61.9564 95.8186C61.6763 95.5726 61.3351 95.5344 61.055 95.2884C60.7749 95.0423 60.4948 94.7963 60.2147 94.5502L59.9347 94.3041C59.8617 94.1528 59.6546 94.0581 59.5816 93.9068C59.3016 93.6607 59.1556 93.3581 59.0826 93.2068C63.1146 83.4932 68.0362 73.9506 73.9321 65.0896C77.7191 68.591 82.1037 71.6581 87.9262 75.0292C85.498 77.6925 83.131 80.1479 80.691 82.452C76.2746 86.6825 71.4321 90.3643 66.4437 93.7435C65.846 94.1777 65.6626 94.8014 65.6862 95.5199C65.7099 96.2383 66.2089 96.9383 66.8302 97.2226C67.3174 97.5633 67.9268 97.4883 68.3904 97.1107C82.5015 87.8798 94.9224 74.8093 104.458 58.7677C103.968 60.431 103.698 62.5482 104.44 64.4206C104.889 65.6877 105.668 66.6338 106.984 67.3536C109.408 68.6983 111.458 66.9232 112.641 65.6955C114.215 63.9388 114.412 61.6703 112.988 59.7216C112.562 59.1729 112.075 58.8321 111.466 58.9071C110.856 58.9821 110.259 59.4163 110.075 60.0401C109.892 60.6638 109.915 61.3822 110.414 62.0822C110.414 62.0822 110.487 62.2336 110.353 62.2901C110.17 62.9138 109.108 63.7257 108.572 63.9521C108.304 64.0652 108.231 63.9139 108.231 63.9139C108.024 63.8192 107.878 63.5165 107.72 62.8547C107.466 61.3231 108.162 59.7546 108.797 58.394C110.507 54.5767 112.839 51.0436 115.512 47.5487C116.817 45.9052 118.123 44.2617 119.636 42.7129L120.161 42.1273C121.21 40.9562 122.394 39.7285 122.956 38.2166C124.313 34.0019 120.599 30.6519 118.432 28.8348C118.42 28.4755 118.274 28.1729 118.128 27.8703C117.982 27.5676 118.043 27.3597 117.897 27.0571C118.617 26.207 119.264 25.2057 119.777 24.2609L123.306 17.8553C123.367 17.6474 123.501 17.5908 123.562 17.3829C124.148 16.5895 124.722 15.4368 124.272 14.1696C123.616 12.8077 122.434 12.0314 121.533 11.5012ZM93.3447 68.1907C92.0173 67.1117 90.6287 66.2407 89.1672 65.2183C86.8043 63.6656 84.3684 61.9617 82.2619 59.9366C81.9088 59.5393 81.5676 59.5011 81.0923 59.5195C80.6169 59.538 80.0804 59.7643 79.824 60.2367C79.3722 60.9736 79.6148 62.146 80.455 62.8841C82.6956 64.8526 85.1315 66.5566 87.5674 68.2605C88.7489 69.0369 90.0033 69.9645 91.2577 70.8921C90.8672 71.4211 90.5378 71.7422 90.1472 72.2712C83.9105 68.7106 79.5259 65.6435 75.739 62.1421C81.5738 53.489 88.1758 45.4228 95.338 37.8487C99.6085 33.3155 104.293 28.9719 109.185 24.7229C109.38 24.4584 109.575 24.194 109.637 23.9861C109.844 24.0808 109.917 24.2321 110.124 24.3269L112.341 25.5769C112.755 25.7663 113.449 26.2019 113.802 26.5992C114.082 26.8453 114.167 27.3558 114.325 28.0177C114.398 28.169 114.398 28.169 114.471 28.3203C109.117 43.3263 102.083 56.8559 93.3447 68.1907ZM118.911 37.1916C118.459 37.9285 117.8 38.5707 117.141 39.2128C116.812 39.5339 116.482 39.8549 116.287 40.1194C115.433 41.0261 114.652 42.084 113.737 43.1986C112.821 44.3131 111.845 45.6355 111.064 46.6935C113.226 42.1393 115.242 37.2825 117.112 32.1231C117.672 32.6152 118.378 33.4099 118.877 34.11C119.522 35.1126 119.485 36.039 118.911 37.1916ZM120.079 14.846L116.098 21.9885C115.842 22.4609 115.586 22.9333 115.329 23.4057C114.562 22.8188 113.868 22.3833 113.173 21.9478C112.966 21.853 112.759 21.7583 112.552 21.6635L112.613 21.4556C113.481 18.9042 114.556 16.4475 116.045 14.1803C116.436 13.6513 116.827 13.1224 117.217 12.5934L120.079 14.846Z" fill="black"/>
<path d="M52.5317 106.076C52.6629 106.021 52.7941 105.966 52.9253 105.911L53.0565 105.856C53.1877 105.8 53.319 105.745 53.3788 105.543C53.8323 105.175 53.8805 104.622 53.9288 104.069C54.0485 103.664 53.9655 103.167 53.6201 102.779C53.3345 102.19 52.6553 101.765 51.9877 101.691C51.7252 101.801 51.4628 101.911 51.2004 102.022C51.0691 102.077 50.9379 102.132 50.7469 102.39L50.4246 102.702L50.3648 102.905C50.1737 103.163 50.1853 103.513 50.1969 103.863L50.2682 104.01C50.3396 104.158 50.2084 104.213 50.2798 104.36C50.3512 104.508 50.494 104.803 50.5654 104.95L50.6368 105.098L50.7082 105.245C50.7796 105.393 50.9822 105.485 51.2562 105.725C51.2562 105.725 51.4588 105.817 51.6614 105.909L51.864 106.002L52.0666 106.094L52.2692 106.186C52.138 106.242 52.4004 106.131 52.5317 106.076Z" fill="black"/>
</svg>
