<svg width="496" height="56" viewBox="0 0 496 56" fill="none" xmlns="http://www.w3.org/2000/svg">
<path d="M4.99276 46.5474C4.79992 47.2115 4.60399 47.8028 4.33451 48.3972C4.06193 48.9189 3.70651 49.2255 3.34491 49.3867C2.61862 49.6362 2.02398 49.5157 1.63764 49.0949C1.2513 48.6741 1.00899 48.1742 1.12518 47.4406C1.32044 45.1003 1.7302 42.6052 2.35443 39.9551C2.97867 37.3051 3.67647 34.652 4.52447 32.0654C5.36938 29.406 6.29403 26.8889 7.29223 24.3688C8.29044 21.8486 9.37458 19.6163 10.4649 17.5295C10.6732 17.2291 10.8846 17.0015 11.1022 16.9194C11.3197 16.8373 11.614 16.8248 11.7642 16.8913C11.9787 16.7364 12.1932 16.5815 12.4812 16.4235C12.7019 16.4142 12.993 16.3289 13.2872 16.3164C13.4343 16.3101 13.5079 16.307 13.6581 16.3735C13.8083 16.44 13.9585 16.5065 14.1149 16.7185C14.2713 16.9304 14.5043 17.212 14.7405 17.5664C14.9766 17.9207 15.2956 18.4901 15.6176 19.1323C16.2896 21.0713 16.9677 23.1558 17.793 25.2341C18.6182 27.3124 19.4435 29.3906 20.3423 31.4658C20.4863 31.3868 20.5599 31.3837 20.6334 31.3805C20.707 31.3774 20.851 31.2984 20.9245 31.2953C21.3628 31.2038 21.8808 31.2546 22.3988 31.3055C22.9903 31.3532 23.3705 31.6285 23.5361 32.0587C23.7816 32.6313 23.8032 33.1405 23.454 33.5926C23.1783 34.0415 22.6084 34.503 21.8178 34.9739C22.3853 36.1886 22.9528 37.4033 23.5172 38.5453C24.0815 39.6873 24.6459 40.8293 25.2838 41.9682C25.3667 42.1833 25.379 42.4743 25.4712 42.9076C25.5633 43.3409 25.6523 43.7015 25.6708 44.138C25.6894 44.5744 25.7049 44.9381 25.6468 45.305C25.5887 45.6718 25.4508 45.8963 25.2364 46.0512C24.9483 46.2091 24.651 46.1489 24.3506 46.0159C24.0502 45.883 23.7467 45.6772 23.4432 45.4715C23.1397 45.2658 22.9066 44.9842 22.6736 44.7026C22.4405 44.421 22.281 44.1363 22.1247 43.9243C21.407 42.6431 20.6893 41.3619 20.0452 40.0775C19.4011 38.7932 18.7569 37.5089 18.1128 36.2245C16.4334 36.5874 14.6804 36.9534 12.7036 37.2561C10.7269 37.5587 8.82059 37.7855 6.9112 37.9396C6.53171 39.4132 6.15222 40.8868 5.84629 42.3573C5.60772 43.6792 5.30179 45.1497 4.99276 46.5474ZM12.4065 21.6008C10.7377 25.6798 9.36619 29.8191 8.13869 33.8793C10.7836 33.694 13.5633 33.2114 16.5544 32.5013C15.0053 28.9963 13.5971 25.3396 12.4065 21.6008Z" fill="#59C69F"/>
<path d="M49.0553 25.6541C49.1567 26.3056 49.1877 27.0331 49.375 27.9725C49.4887 28.915 49.676 29.8544 49.7929 30.8697C49.9833 31.8818 50.0971 32.8243 50.2875 33.8365C50.4748 34.7759 50.6621 35.7153 50.7697 36.5123C51.1739 35.6206 51.6455 34.5803 52.2519 33.2428C52.8613 31.9781 53.4707 30.7133 54.0833 29.5213C54.6958 28.3292 55.3912 27.3523 56.0927 26.5209C56.7943 25.6894 57.4377 25.2248 58.0262 25.1998C58.6882 25.1717 59.289 25.4376 59.8318 26.0704C60.3714 26.6305 60.9172 27.336 61.3221 28.1933C61.727 29.0506 62.1319 29.9078 62.4694 30.9137C62.8038 31.8469 63.0616 32.7104 63.3132 33.4284C63.4387 32.913 63.6346 32.3217 63.8275 31.6576C64.0203 30.9935 64.2867 30.3264 64.5531 29.6592C64.8195 28.992 65.1563 28.2489 65.4963 27.5786C65.8362 26.9083 66.2528 26.3076 66.6725 25.7796C67.1627 25.1758 67.7357 24.787 68.3118 24.4711C68.891 24.2278 69.3261 24.0636 69.6203 24.0511C69.9881 24.0354 70.4326 24.0894 70.8832 24.2889C71.4073 24.4852 71.9346 24.7543 72.465 25.0961C72.9953 25.4379 73.5288 25.8525 73.9887 26.2702C74.4517 26.7606 74.8411 27.2542 75.157 27.7509C75.7918 28.817 76.2796 29.8894 76.6294 31.1862C77.0498 32.4072 77.323 33.6345 77.5165 34.7194C77.7131 35.877 77.9005 36.8164 77.9407 37.762C78.0513 38.6318 78.0792 39.2865 78.1651 39.5743C78.1867 40.0835 78.1286 40.4504 78.0675 40.7445C77.9327 41.0417 77.7182 41.1966 77.4302 41.3546C76.9981 41.5916 76.6334 41.6799 76.3361 41.6197C76.0388 41.5595 75.7384 41.4265 75.5851 41.2873C75.3551 41.0784 75.1987 40.8664 75.1159 40.6513C74.9595 40.4394 74.8736 40.1515 74.8674 40.006C74.6832 39.1394 74.5694 38.1968 74.3821 37.2575C74.1948 36.3181 74.0106 35.4514 73.8232 34.512C73.639 33.6453 73.3843 32.8545 73.1296 32.0638C72.878 31.3457 72.6264 30.6277 72.381 30.0551C72.3013 29.9128 72.1449 29.7008 71.9885 29.4888C71.8321 29.2768 71.5991 28.9952 71.3691 28.7864C71.1392 28.5776 70.9092 28.3687 70.7559 28.2295C70.5291 28.0934 70.3789 28.0269 70.3022 27.9573C69.9344 27.9729 69.5086 28.3554 69.0982 29.1016C68.6877 29.8478 68.2835 30.7394 67.959 31.7735C67.6345 32.8075 67.3131 33.9143 66.9917 35.021C66.6703 36.1278 66.4899 37.0829 66.3768 37.8893C66.4201 38.9077 66.2303 39.6445 65.8842 40.1693C65.538 40.6941 65.106 40.9311 64.6646 40.9499C64.2233 40.9687 63.6256 40.7755 63.0983 40.5064C62.5679 40.1646 62.2582 39.8133 62.0926 39.3831C61.8441 38.7378 61.522 38.0957 61.2673 37.3049C60.9391 36.5172 60.6108 35.7296 60.2826 34.9419C59.9544 34.1542 59.6261 33.3666 59.2979 32.5789C58.9696 31.7913 58.6476 31.1491 58.3255 30.5069C57.768 31.2593 57.2902 32.1542 56.8124 33.049C56.3346 33.9438 55.8599 34.9113 55.3852 35.8788C54.9105 36.8464 54.5094 37.8108 54.1051 38.7025C53.704 39.6669 53.2967 40.4858 52.9567 41.1561C52.6811 41.6051 52.4023 41.9813 52.1235 42.3576C51.8448 42.7338 51.4832 42.8949 51.0418 42.9137C50.7476 42.9262 50.3736 42.7963 49.9935 42.521C49.6133 42.2456 49.3036 41.8944 48.9173 41.4736C48.6045 41.0497 48.2886 40.553 47.9728 40.0563C47.6538 39.4869 47.485 38.9839 47.3132 38.4082C46.9478 36.7477 46.5732 34.8689 46.269 32.9142C45.9618 30.8868 45.6576 28.9321 45.4301 27.0471C45.3287 26.3955 45.448 25.7346 45.647 25.216C45.8429 24.6247 46.2688 24.2422 46.848 23.9989C47.5038 23.8253 48.0249 23.9489 48.405 24.2242C48.7116 24.5027 48.954 25.0025 49.0553 25.6541Z" fill="#59C69F"/>
<path d="M96.9397 28.7924C95.4321 29.731 93.7712 30.5303 92.0275 31.1146C90.2838 31.6988 88.3806 31.9984 86.321 32.0859C86.4533 33.4649 86.8675 34.5404 87.6371 35.3093C88.4066 36.0782 89.311 36.5499 90.347 36.6516C91.0121 36.6962 91.6005 36.6712 92.2563 36.4975C92.9122 36.3239 93.4944 36.1534 94.0705 35.8374C94.6497 35.5942 95.1522 35.2813 95.5781 34.8988C96.0071 34.5891 96.433 34.2066 96.7884 33.9C97.1438 33.5934 97.5023 33.3596 97.867 33.2712C98.2317 33.1828 98.5259 33.1703 98.7497 33.2336C99.3474 33.4269 99.5192 34.0025 99.4123 34.9545C98.8029 36.2192 97.9666 37.3479 96.8268 38.2708C95.687 39.1938 94.3877 39.832 92.9259 40.1128C91.6847 40.3842 90.3576 40.3677 89.0212 40.133C87.6817 39.8256 86.4034 39.2241 85.3303 38.2495C84.4105 37.4141 83.6285 36.3542 83.1346 35.1363C82.6407 33.9185 82.2939 32.6944 82.0911 31.3913C81.8915 30.1609 81.9891 28.9907 82.2369 27.8871C82.5583 26.7803 83.033 25.8128 83.6579 24.9117C84.3564 24.0075 85.2112 23.3153 86.2163 22.6896C87.2949 22.0608 88.4594 21.7198 89.9275 21.5845C91.6131 21.3671 93.1733 21.6651 94.6018 22.3331C96.0303 23.0011 97.0298 23.9789 97.677 25.336C98.0022 26.0509 98.1771 26.6993 98.0547 27.2875C97.9293 27.803 97.5831 28.3278 96.9397 28.7924ZM89.9288 25.0824C89.5641 25.1708 89.129 25.335 88.6969 25.572C88.2648 25.809 87.8328 26.046 87.4774 26.3526C87.1219 26.6592 86.7696 27.0385 86.4909 27.4148C86.2121 27.791 86.0835 28.2337 86.0285 28.6733C86.6905 28.6451 87.423 28.5411 88.229 28.434C89.032 28.2541 89.8349 28.0742 90.5643 27.8974C91.2937 27.7207 92.02 27.4712 92.6727 27.2248C93.3254 26.9785 93.828 26.6656 94.26 26.4286C93.9349 25.7137 93.3248 25.2295 92.4359 25.1215C91.688 24.8618 90.8053 24.8994 89.9288 25.0824Z" fill="#59C69F"/>
<path d="M114.359 24.2624C114.267 23.8291 114.175 23.3958 114.086 23.0352C113.997 22.6746 113.764 22.393 113.466 22.3328C112.795 22.1427 112.06 22.174 111.33 22.3507C110.601 22.5275 109.878 22.8497 109.301 23.1657C108.655 23.5575 108.155 23.9432 107.73 24.3256C107.304 24.7081 107.102 25.1539 107.04 25.448C106.918 26.0362 107.163 26.6088 107.553 27.1024C108.019 27.6655 108.703 28.1466 109.536 28.6941C110.968 29.4349 112.403 30.2484 113.985 31.0556C115.493 31.866 116.854 32.6826 117.921 33.5117C118.988 34.3409 119.767 35.328 120.181 36.4035C120.595 37.479 120.574 38.7188 120.041 40.0531C119.646 41.163 118.871 41.9976 117.722 42.7023C116.573 43.407 115.271 43.9725 113.888 44.3957C112.506 44.8188 111.048 45.1723 109.653 45.3045C108.262 45.5094 107.014 45.6353 106.058 45.6759C105.837 45.6853 105.54 45.6251 105.163 45.4225C104.789 45.2926 104.486 45.0869 104.182 44.8812C103.879 44.6755 103.572 44.397 103.416 44.185C103.186 43.9762 103.1 43.6883 103.094 43.5429C103.063 42.8154 103.338 42.3665 103.988 42.0474C104.638 41.7282 105.22 41.5577 105.955 41.5265C106.912 41.4858 107.938 41.3693 109.039 41.2496C110.139 41.13 111.162 40.9407 112.109 40.6818C113.056 40.423 114 40.0913 114.72 39.6964C115.514 39.2982 116.01 38.8399 116.353 38.2423C116.629 37.7934 116.384 37.2208 115.767 36.5911C115.151 35.9615 114.314 35.3412 113.253 34.6575C112.193 33.9739 111.062 33.3661 109.93 32.7583C108.726 32.1537 107.745 31.6124 106.837 31.068C106.003 30.5204 105.24 29.897 104.621 29.1946C104.001 28.4922 103.59 27.4894 103.397 26.4046C103.28 25.3893 103.46 24.4343 103.935 23.4667C104.336 22.5023 104.964 21.674 105.669 20.9153C106.373 20.1566 107.231 19.5371 108.242 19.0569C109.18 18.5798 110.201 18.3178 111.157 18.2771C112.852 18.2779 114.268 18.655 115.408 19.481C116.549 20.307 117.263 21.5155 117.552 23.1064C117.577 23.6884 117.522 24.1279 117.317 24.501C117.185 24.871 116.827 25.1049 116.388 25.1964C115.803 25.2941 115.359 25.2402 115.055 25.0344C114.607 24.9077 114.374 24.6261 114.359 24.2624Z" fill="#59C69F"/>
<path d="M134.44 23.4087C134.348 22.9754 134.256 22.5421 134.167 22.1815C134.078 21.8209 133.845 21.5393 133.547 21.4791C132.876 21.289 132.14 21.3203 131.411 21.497C130.682 21.6738 129.958 21.996 129.382 22.312C128.736 22.7038 128.236 23.0895 127.811 23.4719C127.385 23.8544 127.183 24.3002 127.121 24.5943C126.999 25.1825 127.244 25.7551 127.634 26.2487C128.1 26.8118 128.784 27.2929 129.617 27.8404C131.049 28.5812 132.484 29.3947 134.066 30.2019C135.574 31.0123 136.935 31.8289 138.002 32.658C139.069 33.4872 139.848 34.4743 140.262 35.5498C140.676 36.6253 140.655 37.8651 140.122 39.1994C139.727 40.3093 138.952 41.1439 137.803 41.8486C136.654 42.5533 135.352 43.1188 133.969 43.542C132.587 43.9651 131.129 44.3186 129.734 44.4508C128.343 44.6557 127.095 44.7816 126.139 44.8222C125.918 44.8316 125.621 44.7714 125.244 44.5688C124.87 44.4389 124.567 44.2332 124.263 44.0275C123.96 43.8218 123.653 43.5433 123.497 43.3313C123.267 43.1225 123.181 42.8346 123.174 42.6892C123.144 41.9617 123.419 41.5128 124.069 41.1937C124.718 40.8745 125.301 40.704 126.036 40.6728C126.993 40.6321 128.019 40.5156 129.12 40.3959C130.22 40.2763 131.243 40.087 132.19 39.8281C133.137 39.5693 134.081 39.2376 134.801 38.8427C135.595 38.4445 136.091 37.9862 136.434 37.3886C136.71 36.9397 136.465 36.3671 135.848 35.7374C135.232 35.1078 134.395 34.4875 133.334 33.8038C132.274 33.1202 131.142 32.5124 130.011 31.9046C128.807 31.3 127.826 30.7587 126.918 30.2143C126.084 29.6667 125.321 29.0433 124.701 28.3409C124.082 27.6385 123.671 26.6357 123.478 25.5509C123.361 24.5356 123.541 23.5806 124.016 22.613C124.417 21.6486 125.045 20.8203 125.75 20.0616C126.454 19.3029 127.312 18.6834 128.323 18.2032C129.261 17.7261 130.282 17.4641 131.238 17.4234C132.933 17.4242 134.349 17.8013 135.489 18.6273C136.63 19.4533 137.344 20.6618 137.633 22.2527C137.658 22.8347 137.603 23.2743 137.398 23.6473C137.266 24.0173 136.907 24.2512 136.469 24.3427C135.884 24.4404 135.439 24.3865 135.136 24.1807C134.688 24.054 134.529 23.7693 134.44 23.4087Z" fill="#59C69F"/>
<path d="M158.096 18.2492C158.29 19.3341 158.486 20.4917 158.612 21.7252C158.738 22.9587 158.865 24.1922 158.991 25.4257C159.117 26.6592 159.169 27.8958 159.219 29.0597C159.268 30.2236 159.315 31.3147 159.281 32.2635C160.569 33.0833 161.409 33.7763 161.658 34.4216C161.906 35.0669 162.004 35.6457 161.805 36.1643C161.616 36.9011 161.19 37.2836 160.601 37.3086C160.013 37.3336 159.268 37.1467 158.443 36.8174C157.87 37.2061 157.3 37.6676 156.583 38.1353C155.866 38.603 155.149 39.0707 154.359 39.5416C153.568 40.0124 152.775 40.4106 152.051 40.7328C151.255 41.0582 150.528 41.3077 149.872 41.4813C148.631 41.7527 147.442 41.5117 146.458 40.8977C145.4 40.2868 144.695 39.2966 144.272 38.0028C144.014 37.1393 143.9 36.1968 144.007 35.2449C144.114 34.293 144.368 33.3348 144.772 32.4431C145.176 31.5514 145.804 30.7231 146.583 29.9613C147.361 29.1995 148.295 28.6496 149.38 28.1663C149.668 28.0083 150.033 27.9199 150.545 27.8253C151.056 27.7306 151.571 27.7087 152.086 27.6869C152.601 27.665 153.196 27.7854 153.717 27.909C154.315 28.1022 154.842 28.3713 155.305 28.8618C155.277 28.2071 155.246 27.4796 155.212 26.6795C155.178 25.8793 155.07 25.0823 155.036 24.2821C154.929 23.4851 154.895 22.6849 154.79 21.9606C154.686 21.2363 154.588 20.6575 154.492 20.1514C154.394 19.5726 154.158 19.2183 153.784 19.0884C153.41 18.9586 152.972 19.0501 152.39 19.2206C151.446 19.5522 150.37 20.2538 149.157 21.1798C147.943 22.1059 146.736 23.1775 145.676 24.2428C145.324 24.6221 144.962 24.7833 144.444 24.7324C144 24.6784 143.626 24.5486 143.246 24.2732C142.939 23.9948 142.703 23.6404 142.684 23.204C142.592 22.7707 142.794 22.3248 143.07 21.8759C143.701 21.1203 144.406 20.3616 145.258 19.5966C146.036 18.8348 146.891 18.1426 147.746 17.4504C148.603 16.8309 149.538 16.2811 150.476 15.804C151.417 15.3996 152.363 15.1407 153.317 15.0273C154.711 14.8952 155.756 15.2151 156.593 15.8354C157.43 16.4557 157.906 17.2371 158.096 18.2492ZM151.793 31.1973C151.285 31.3646 150.779 31.6048 150.206 31.9935C149.633 32.3822 149.137 32.8406 148.72 33.4413C148.3 33.9692 147.957 34.5668 147.765 35.2309C147.572 35.8949 147.6 36.5496 147.845 37.1222C147.928 37.3373 148.084 37.5492 148.381 37.6095C148.608 37.7456 148.903 37.7331 149.267 37.6447C150.214 37.3858 151.302 36.9752 152.454 36.3432C153.606 35.7113 154.538 35.0887 155.246 34.4027C155.236 34.1845 155.077 33.8998 154.838 33.4727C154.602 33.1184 154.292 32.7671 153.982 32.4159C153.672 32.0647 153.289 31.7167 152.912 31.5141C152.458 31.2419 152.085 31.112 151.793 31.1973Z" fill="#59C69F"/>
<path d="M175.617 23.0428C175.93 23.4667 176.246 23.9634 176.641 24.6025C176.963 25.2446 177.212 25.8899 177.387 26.5384C177.654 27.6201 177.994 28.6988 178.341 29.9229C178.688 31.147 179.038 32.4438 179.388 33.7407C179.738 35.0376 180.091 36.4072 180.37 37.7799C180.65 39.1526 180.999 40.4495 181.199 41.6799C181.494 43.4163 181.415 45.0229 181.042 46.642C180.595 48.2642 179.844 49.6807 178.794 50.9642C177.669 52.2509 176.315 53.3287 174.654 54.1281C172.993 54.9274 171.099 55.4452 168.969 55.6086C168.525 55.5546 168.001 55.3583 167.47 55.0165C166.937 54.6019 166.701 54.2476 166.682 53.8111C166.59 53.3778 166.795 53.0047 167.227 52.7677C167.656 52.458 168.165 52.2906 168.603 52.1991C169.409 52.0919 170.286 51.9089 171.156 51.5804C172.026 51.2519 172.897 50.9235 173.611 50.383C174.401 49.9121 175.112 49.2989 175.673 48.6192C176.307 47.9364 176.788 47.1143 177.118 46.2258C177.382 45.4858 177.492 44.6067 177.448 43.5883C177.405 42.5699 177.288 41.5546 177.098 40.5425C176.907 39.5303 176.72 38.5909 176.459 37.6547C176.198 36.7184 175.95 36.0731 175.781 35.5701C175.499 35.8736 175.217 36.1771 174.788 36.4868C174.359 36.7966 173.93 37.1063 173.428 37.4192C172.925 37.732 172.346 37.9753 171.764 38.1458C171.182 38.3163 170.523 38.4172 169.931 38.3694C169.266 38.3248 168.595 38.1348 168.061 37.7202C167.454 37.3087 166.915 36.7487 166.446 36.1128C165.976 35.4769 165.575 34.6923 165.314 33.756C164.982 32.8956 164.869 31.9531 164.825 30.9347C164.8 28.6038 165.299 26.4693 166.398 24.6007C167.424 22.7352 169.205 21.2749 171.662 20.1502C171.88 20.0681 172.1 20.0587 172.465 19.9703C172.83 19.8819 173.124 19.8694 173.495 19.9265C173.863 19.9109 174.234 19.968 174.531 20.0282C174.902 20.0854 175.129 20.2215 175.429 20.3544C175.883 20.6266 176.122 21.0537 176.15 21.7084C176.027 22.2966 175.899 22.7393 175.617 23.0428ZM168.528 31.3603C168.546 31.7968 168.642 32.3028 168.737 32.8089C168.832 33.315 169.145 33.7389 169.522 33.9415C169.976 34.2137 170.564 34.1887 171.293 34.0119C171.946 33.7656 172.596 33.4465 173.163 32.9122C173.733 32.4508 174.079 31.9259 174.204 31.4105C174.33 30.895 174.299 30.1676 174.115 29.301C173.857 28.4374 173.596 27.5011 173.332 26.4921C173.071 25.5559 172.884 24.6165 172.779 23.8922C172.347 24.1292 171.848 24.5148 171.278 24.9762C170.781 25.4346 170.288 25.9657 169.875 26.6391C169.461 27.3126 169.124 28.0556 168.861 28.7956C168.601 29.6082 168.491 30.4874 168.528 31.3603Z" fill="#59C69F"/>
<path d="M199.404 24.4363C197.897 25.3749 196.236 26.1743 194.492 26.7585C192.749 27.3428 190.845 27.6423 188.786 27.7298C188.918 29.1088 189.332 30.1843 190.102 30.9532C190.871 31.7221 191.776 32.1938 192.812 32.2955C193.477 32.3401 194.065 32.3151 194.721 32.1415C195.377 31.9678 195.959 31.7973 196.535 31.4813C197.114 31.2381 197.617 30.9252 198.043 30.5428C198.472 30.233 198.898 29.8505 199.253 29.5439C199.608 29.2373 199.967 29.0035 200.332 28.9151C200.696 28.8267 200.991 28.8142 201.214 28.8776C201.812 29.0708 201.984 29.6465 201.877 30.5984C201.268 31.8631 200.431 32.9918 199.292 33.9148C198.152 34.8377 196.852 35.4759 195.391 35.7567C194.149 36.0281 192.822 36.0116 191.486 35.777C190.146 35.4695 188.868 34.868 187.795 33.8934C186.875 33.058 186.093 31.9981 185.599 30.7803C185.105 29.5624 184.759 28.3383 184.556 27.0352C184.356 25.8048 184.454 24.6347 184.702 23.531C185.023 22.4242 185.498 21.4567 186.123 20.5557C186.821 19.6515 187.676 18.9593 188.681 18.3335C189.76 17.7047 190.924 17.3637 192.392 17.2284C194.078 17.011 195.638 17.309 197.066 17.977C198.495 18.6451 199.495 19.6228 200.142 20.9799C200.467 21.6948 200.642 22.3432 200.519 22.9314C200.468 23.4438 200.048 23.9717 199.404 24.4363ZM192.394 20.7263C192.029 20.8147 191.594 20.9789 191.162 21.2159C190.73 21.4529 190.297 21.6899 189.942 21.9965C189.587 22.3031 189.234 22.6825 188.956 23.0587C188.677 23.4349 188.548 23.8776 188.493 24.3172C189.155 24.2891 189.888 24.185 190.694 24.0779C191.497 23.898 192.3 23.7181 193.029 23.5414C193.758 23.3646 194.485 23.1151 195.137 22.8687C195.79 22.6224 196.293 22.3095 196.725 22.0725C196.4 21.3576 195.79 20.8734 194.901 20.7655C194.153 20.5058 193.27 20.5433 192.394 20.7263Z" fill="#59C69F"/>
<path d="M224.694 26.4948C224.108 26.5925 223.517 26.5448 222.775 26.4306C222.03 26.2436 221.497 25.8291 221.169 25.0414C221.006 24.684 220.987 24.2475 221.046 23.8807C221.104 23.5138 221.533 23.2041 222.262 23.0273C222.991 22.8506 223.721 22.6738 224.524 22.4939C225.327 22.3141 226.13 22.1342 226.936 22.027L224.451 15.574C223.683 13.1289 223.517 10.9498 223.955 9.1093C224.392 7.26885 225.811 5.96968 228.204 5.06632C229.148 4.73469 230.172 4.54543 231.131 4.57752C232.09 4.60961 233.059 4.85993 233.957 5.18611C234.858 5.58504 235.692 6.13259 236.382 6.75913C237.149 7.45528 237.697 8.23356 238.179 9.16045C238.345 9.59065 238.434 9.95124 238.523 10.3118C238.538 10.6755 238.477 10.9696 238.195 11.2731C237.843 11.6525 237.411 11.8895 236.893 11.8386C236.375 11.7877 236.074 11.6548 235.921 11.5155C235.535 11.0947 235.148 10.6739 234.688 10.2562C234.229 9.83851 233.769 9.42082 233.315 9.14861C232.858 8.80366 232.334 8.60733 231.813 8.48373C231.292 8.36013 230.7 8.31241 230.115 8.41017C229.824 8.49542 229.533 8.58067 229.177 8.88728C228.819 9.12114 228.466 9.50049 228.267 10.0191C227.995 10.5408 227.872 11.129 227.833 11.9323C227.793 12.7356 227.981 13.675 228.324 14.8263C228.659 15.7595 228.999 16.8381 229.417 17.9864C229.834 19.1346 230.251 20.2829 230.745 21.5007C232.648 21.2012 234.34 21.1293 235.961 21.1332C236.847 21.1684 237.663 21.2795 238.407 21.4665C239.152 21.6534 239.83 21.989 240.293 22.4794C240.455 22.8369 240.397 23.2037 240.259 23.4282C240.125 23.7254 239.91 23.8803 239.625 24.111C239.337 24.269 238.975 24.4301 238.611 24.5185C238.246 24.6069 237.881 24.6953 237.514 24.7109C236.708 24.8181 235.902 24.9252 235.025 25.1082C234.145 25.2185 233.269 25.4015 232.316 25.5149C233.052 27.2326 233.712 28.8806 234.295 30.4591C234.878 32.0375 235.375 33.3281 235.712 34.334C235.884 34.9097 235.912 35.5644 235.866 36.2222C235.747 36.8831 235.627 37.5441 235.508 38.205C235.251 39.0904 234.841 39.8366 234.424 40.4373C234.007 41.038 233.499 41.2054 232.901 41.0122C232.45 40.8127 232.147 40.607 232.061 40.3192C231.901 40.0344 231.883 39.598 231.932 39.0129C231.977 38.3551 232.026 37.77 231.998 37.1154C231.971 36.4607 231.946 35.8787 231.851 35.3727C231.755 34.8666 231.66 34.3605 231.571 33.9999C231.479 33.5666 231.393 33.2788 231.313 33.1364L228.509 26.1139C227.851 26.2148 227.265 26.3126 226.606 26.4135C226.012 26.293 225.353 26.3939 224.694 26.4948Z" fill="#59C69F"/>
<path d="M262.02 15.2886C261.3 15.6836 260.583 16.1513 259.866 16.619C259.149 17.0867 258.362 17.6303 257.651 18.2435C256.94 18.8568 256.232 19.5427 255.528 20.3014C254.896 21.057 254.275 22.0308 253.806 23.1438C253.059 24.6331 252.609 26.1825 252.383 27.7954C252.153 29.3355 252.071 30.8693 252.063 32.4001C252.094 33.1275 251.977 33.8612 251.637 34.5315C251.301 35.2746 250.875 35.657 250.286 35.682C249.551 35.7133 248.947 35.3746 248.398 34.5963C247.849 33.8181 247.597 33.1 247.349 32.4547C246.569 29.7186 245.863 26.9794 245.308 24.3067C244.752 21.634 244.266 18.8854 243.858 16.2065C243.833 15.6245 243.968 15.3273 244.326 15.0934C244.688 14.9323 245.053 14.8439 245.497 14.8979C245.941 14.9519 246.459 15.0027 246.91 15.2022C247.361 15.4017 247.594 15.6833 247.686 16.1166C247.895 17.5652 248.18 19.0834 248.469 20.6744C248.758 22.2653 249.034 23.5653 249.378 24.7167C249.469 23.4011 249.855 22.0729 250.538 20.805C251.221 19.5371 252.054 18.3357 253.041 17.2735C254.027 16.2114 255.167 15.2884 256.46 14.5047C257.753 13.721 259.059 13.2283 260.447 12.9506C261.032 12.8529 261.547 12.831 261.918 12.8881C262.289 12.9452 262.589 13.0782 262.746 13.2901C262.902 13.5021 262.988 13.7899 262.86 14.2327C262.798 14.5268 262.446 14.9061 262.02 15.2886Z" fill="#59C69F"/>
<path d="M279.15 14.3417C280.345 14.7281 281.403 15.339 282.249 16.1775C283.095 17.016 283.724 17.9367 284.212 19.0091C284.699 20.0814 284.966 21.1632 285.089 22.3239C285.212 23.4847 285.109 24.5093 284.858 25.5403C284.463 26.6502 283.994 27.7632 283.302 28.8129C282.686 29.9321 281.914 30.8394 281.142 31.7468C280.294 32.5844 279.365 33.2798 278.284 33.8359C277.202 34.392 275.961 34.6634 274.637 34.7197C273.018 34.7885 271.605 34.4842 270.471 33.8037C269.337 33.1231 268.414 32.215 267.773 31.0034C267.061 29.8677 266.638 28.5739 266.352 27.0557C266.143 25.6071 266.078 24.0795 266.237 22.6153C266.338 21.5179 266.586 20.4142 266.91 19.3802C267.235 18.3462 267.709 17.3786 268.264 16.5535C268.818 15.7283 269.453 15.0454 270.24 14.5018C270.954 13.9614 271.827 13.7056 272.857 13.6618C273.446 13.6368 274.111 13.6814 274.929 13.8653C275.747 14.0491 276.569 14.3057 277.25 14.714C277.816 14.1797 278.402 14.082 279.15 14.3417ZM277.125 18.7273C276.672 18.4551 276.141 18.1133 275.534 17.7018C274.927 17.2904 274.403 17.0941 273.962 17.1128C273.52 17.1316 273.015 17.3717 272.592 17.8269C272.169 18.2822 271.75 18.8101 271.48 19.4046C271.137 20.0021 270.941 20.5935 270.672 21.1879C270.476 21.7792 270.35 22.2947 270.289 22.5888C270.167 23.177 270.124 23.9075 270.158 24.7077C270.118 25.511 270.226 26.308 270.407 27.1019C270.588 27.8959 270.913 28.6108 271.456 29.2436C271.925 29.8795 272.606 30.2878 273.575 30.5381C274.169 30.6586 274.758 30.6336 275.561 30.4537C276.29 30.2769 277.01 29.882 277.727 29.4142C278.444 28.9465 279.078 28.2637 279.706 27.4354C280.334 26.607 280.812 25.7122 281.137 24.6782C281.455 23.4987 281.479 22.3317 280.985 21.1138C280.565 19.8928 279.792 19.0512 278.59 18.5193C278.305 18.75 278.014 18.8353 277.794 18.8447C277.499 18.8572 277.276 18.7938 277.125 18.7273Z" fill="#59C69F"/>
<path d="M293.117 15.2783C293.218 15.9299 293.249 16.6573 293.437 17.5967C293.55 18.5392 293.738 19.4786 293.854 20.4939C294.045 21.506 294.159 22.4485 294.349 23.4607C294.536 24.4001 294.724 25.3395 294.831 26.1365C295.236 25.2449 295.707 24.2046 296.313 22.8671C296.923 21.6023 297.532 20.3375 298.145 19.1455C298.757 17.9535 299.453 16.9765 300.154 16.1451C300.856 15.3137 301.499 14.8491 302.088 14.824C302.75 14.7959 303.351 15.0619 303.893 15.6946C304.433 16.2547 304.979 16.9602 305.384 17.8175C305.789 18.6748 306.193 19.5321 306.531 20.538C306.865 21.4711 307.123 22.3346 307.375 23.0527C307.5 22.5372 307.696 21.9459 307.889 21.2818C308.082 20.6178 308.348 19.9506 308.615 19.2834C308.881 18.6162 309.218 17.8731 309.558 17.2028C309.898 16.5325 310.314 15.9318 310.734 15.4038C311.224 14.8 311.797 14.4113 312.373 14.0953C312.953 13.852 313.388 13.6878 313.682 13.6753C314.05 13.6596 314.494 13.7136 314.945 13.9131C315.469 14.1094 315.996 14.3785 316.527 14.7203C317.057 15.0622 317.59 15.4767 318.05 15.8944C318.513 16.3848 318.903 16.8784 319.219 17.3751C319.853 18.4412 320.341 19.5136 320.691 20.8105C321.111 22.0314 321.385 23.2587 321.578 24.3436C321.775 25.5012 321.962 26.4406 322.002 27.3863C322.113 28.256 322.141 28.9107 322.227 29.1986C322.248 29.7078 322.19 30.0746 322.129 30.3687C321.994 30.6659 321.78 30.8208 321.492 30.9788C321.06 31.2158 320.695 31.3042 320.398 31.2439C320.1 31.1837 319.8 31.0507 319.647 30.9115C319.417 30.7026 319.26 30.4907 319.177 30.2756C319.021 30.0636 318.935 29.7757 318.929 29.6303C318.745 28.7636 318.631 27.8211 318.444 26.8817C318.256 25.9423 318.072 25.0756 317.885 24.1362C317.701 23.2696 317.446 22.4788 317.191 21.688C316.94 20.9699 316.688 20.2519 316.443 19.6793C316.363 19.537 316.207 19.325 316.05 19.113C315.894 18.9011 315.661 18.6195 315.431 18.4106C315.201 18.2018 314.971 17.9929 314.818 17.8537C314.591 17.7176 314.44 17.6511 314.364 17.5815C313.996 17.5971 313.57 17.9796 313.16 18.7258C312.749 19.472 312.345 20.3637 312.021 21.3977C311.696 22.4317 311.375 23.5385 311.053 24.6453C310.732 25.752 310.551 26.7071 310.438 27.5135C310.482 28.5319 310.292 29.2687 309.946 29.7935C309.6 30.3184 309.168 30.5554 308.726 30.5741C308.285 30.5929 307.837 30.4662 307.307 30.1243C306.777 29.7825 306.467 29.4313 306.301 29.0011C306.053 28.3558 305.731 27.7136 305.476 26.9228C305.148 26.1352 304.82 25.3475 304.491 24.5599C304.163 23.7722 303.835 22.9845 303.507 22.1969C303.178 21.4092 302.856 20.7671 302.534 20.1249C301.977 20.8773 301.499 21.7721 301.021 22.6669C300.543 23.5617 300.069 24.5293 299.594 25.4968C299.119 26.4644 298.718 27.4288 298.314 28.3204C297.913 29.2849 297.505 30.1038 297.165 30.7741C296.89 31.2231 296.611 31.5993 296.332 31.9755C296.053 32.3517 295.692 32.5129 295.251 32.5316C294.956 32.5441 294.582 32.4143 294.202 32.139C293.822 31.8636 293.512 31.5124 293.126 31.0916C292.813 30.6676 292.497 30.171 292.181 29.6743C291.862 29.1048 291.694 28.6019 291.522 28.0262C291.157 26.3656 290.782 24.4868 290.478 22.5322C290.17 20.5047 289.866 18.5501 289.639 16.665C289.537 16.0135 289.657 15.3525 289.856 14.8339C290.052 14.2426 290.478 13.8602 291.057 13.6169C291.712 13.4433 292.234 13.5669 292.614 13.8422C292.773 14.1269 293.016 14.6267 293.117 15.2783Z" fill="#59C69F"/>
<path d="M356.659 15.7833C357.391 15.6793 358.136 15.8663 358.961 16.1956C359.712 16.528 360.107 17.1671 360.141 17.9673C360.096 18.6251 359.746 19.0772 359.091 19.2508C358.435 19.4244 357.926 19.5918 357.558 19.6074C356.749 19.6418 355.94 19.6762 354.987 19.7896C354.107 19.8999 353.151 19.9405 352.198 20.0539C352.18 21.3664 352.156 22.5334 352.132 23.7004C352.108 24.8675 352.148 25.8131 352.115 26.7619C352.078 27.6379 352.109 28.3654 352.131 28.8746C352.156 29.4565 352.168 29.7475 352.241 29.7443C353.118 29.5613 354.062 29.2297 355.003 28.8253C356.017 28.4178 356.955 27.9407 357.966 27.4605C358.977 26.9803 359.912 26.4304 360.849 25.9533C361.784 25.4035 362.722 24.9264 363.586 24.4524C363.944 24.2185 364.312 24.2029 364.683 24.26C365.054 24.3171 365.21 24.5291 365.293 24.7442C365.385 25.1775 365.333 25.6898 365.214 26.3508C365.021 27.0148 364.675 27.5397 364.182 28.0707C363.612 28.5322 362.827 29.1486 361.896 29.7711C360.965 30.3937 359.959 31.0195 358.881 31.6483C357.802 32.2772 356.717 32.7605 355.559 33.247C354.474 33.7304 353.454 33.9924 352.574 34.1026C351.256 34.3044 350.285 33.9814 349.586 33.1366C348.889 32.3646 348.475 31.2891 348.349 30.0556C348.223 28.8221 348.161 27.3672 348.164 25.691C348.166 24.0148 348.165 22.2659 348.162 20.4442C347.429 20.5482 346.697 20.6522 346.038 20.7531C345.379 20.854 344.72 20.9548 344.061 21.0557C343.546 21.0776 342.951 20.9572 342.354 20.7639C341.756 20.5707 341.37 20.1499 341.339 19.4225C341.329 19.2043 341.388 18.8374 341.593 18.4643C341.798 18.0912 342.227 17.7815 342.88 17.5351C344.486 17.1754 346.315 16.879 348.218 16.5794C348.288 14.7546 348.284 12.9329 348.434 11.2504C348.507 9.49837 348.589 7.96452 348.674 6.50341C348.729 6.06383 348.784 5.62424 349.063 5.24802C349.268 4.87493 349.556 4.71693 349.777 4.70755C350.436 4.60667 351.107 4.79675 351.711 5.13545C352.315 5.47414 352.701 5.89496 352.72 6.33142C352.628 7.64704 352.546 9.18089 352.47 10.8602C352.394 12.5396 352.321 14.2916 352.322 16.0406C353.128 15.9334 353.861 15.8294 354.596 15.7982C355.264 15.9155 356 15.8842 356.659 15.7833Z" fill="#59C69F"/>
<path d="M371.081 4.89497C371.121 5.84062 371.165 6.85902 371.217 8.09564C371.267 9.25952 371.319 10.4961 371.372 11.7328C371.425 12.9694 371.554 14.2756 371.609 15.585C371.665 16.8944 371.794 18.2006 371.844 19.3645C372.178 18.5487 372.662 17.7994 373.142 16.9773C373.7 16.2249 374.258 15.4724 374.895 14.8623C375.532 14.2523 376.246 13.7118 377.043 13.3864C377.763 12.9914 378.639 12.8084 379.522 12.7709C380.478 12.7302 381.373 12.9837 382.21 13.604C382.974 14.2274 383.743 14.9963 384.301 15.9928C384.933 16.9862 385.424 18.1313 385.921 19.4219C386.341 20.6429 386.765 21.9366 387.041 23.2366C387.317 24.5366 387.591 25.7638 387.79 26.9942C387.987 28.1518 388.107 29.2398 388.215 30.0369C388.242 30.6916 388.117 31.207 387.838 31.5832C387.559 31.9595 387.201 32.1933 386.76 32.2121C386.465 32.2246 386.015 32.0251 385.558 31.6802C385.101 31.3352 384.709 30.7689 384.537 30.1932C384.371 29.763 384.267 29.0387 384.082 28.1721C383.898 27.3054 383.708 26.2933 383.517 25.2811C383.327 24.269 383.06 23.1872 382.796 22.1782C382.529 21.0965 382.194 20.1633 381.793 19.3788C381.388 18.5215 380.992 17.8825 380.459 17.4679C379.999 17.0502 379.401 16.857 378.745 17.0306C377.798 17.2895 376.943 17.9817 376.257 19.1769C375.571 20.372 374.965 21.7095 374.515 23.259C374.062 24.7358 373.685 26.2821 373.383 27.8253C373.08 29.3686 372.912 30.6146 372.805 31.5665C372.689 32.3002 372.486 32.746 372.278 33.0464C371.996 33.3498 371.779 33.432 371.411 33.4476C371.117 33.4601 370.816 33.3271 370.51 33.0487C370.277 32.7671 369.964 32.3431 369.725 31.916C369.485 31.489 369.243 30.9892 369.077 30.559C368.909 30.056 368.743 29.6258 368.731 29.3348C368.42 27.2347 368.186 25.2042 368.029 23.2432C367.799 21.2854 367.645 19.3973 367.488 17.4363C367.331 15.4754 367.247 13.5114 367.158 11.4018C367.068 9.29228 367.052 7.17962 367.023 4.77599C366.94 2.81194 367.638 1.90775 369.045 2.06657C369.49 2.12055 369.946 2.4655 370.339 3.0318C370.879 3.59185 371.053 4.24028 371.081 4.89497Z" fill="#59C69F"/>
<path d="M406.32 15.6397C404.812 16.5783 403.151 17.3777 401.408 17.9619C399.664 18.5462 397.761 18.8457 395.701 18.9333C395.833 20.3123 396.247 21.3878 397.017 22.1567C397.787 22.9255 398.691 23.3972 399.727 23.4989C400.392 23.5435 400.98 23.5185 401.636 23.3449C402.292 23.1712 402.874 23.0007 403.451 22.6848C404.03 22.4415 404.532 22.1287 404.958 21.7462C405.387 21.4364 405.813 21.054 406.168 20.7474C406.524 20.4408 406.882 20.2069 407.247 20.1185C407.612 20.0301 407.906 20.0176 408.13 20.081C408.727 20.2742 408.899 20.8499 408.792 21.8018C408.183 23.0666 407.347 24.1952 406.207 25.1182C405.067 26.0411 403.768 26.6794 402.306 26.9601C401.065 27.2315 399.738 27.2151 398.401 26.9804C397.062 26.6729 395.783 26.0714 394.71 25.0968C393.79 24.2614 393.009 23.2016 392.515 21.9837C392.021 20.7658 391.674 19.5417 391.471 18.2386C391.271 17.0082 391.369 15.8381 391.617 14.7344C391.938 13.6277 392.413 12.6601 393.038 11.7591C393.736 10.8549 394.591 10.1627 395.596 9.53696C396.675 8.90811 397.839 8.56711 399.307 8.43183C400.993 8.21442 402.553 8.51246 403.982 9.18047C405.41 9.84848 406.41 10.8262 407.057 12.1833C407.382 12.8982 407.557 13.5467 407.435 14.1349C407.383 14.6472 406.963 15.1751 406.32 15.6397ZM399.382 11.9266C399.018 12.015 398.582 12.1792 398.15 12.4162C397.718 12.6532 397.286 12.8902 396.931 13.1968C396.575 13.5034 396.223 13.8828 395.944 14.259C395.666 14.6352 395.537 15.0779 395.482 15.5175C396.144 15.4893 396.877 15.3853 397.683 15.2782C398.486 15.0983 399.288 14.9184 400.018 14.7417C400.747 14.5649 401.473 14.3154 402.126 14.069C402.779 13.8227 403.281 13.5098 403.714 13.2728C403.388 12.5579 402.778 12.0737 401.889 11.9658C401.068 11.7092 400.185 11.7467 399.382 11.9266Z" fill="#59C69F"/>
<path d="M441.373 6.42489C441.529 6.63686 441.612 6.85196 441.698 7.1398C441.71 7.43078 441.72 7.649 441.582 7.87349C441.38 8.31932 441.092 8.47732 440.57 8.35372C439.752 8.16989 438.866 8.13468 437.987 8.24494C437.107 8.35521 436.163 8.68683 435.311 9.45179C434.457 10.144 433.761 11.1209 433.302 12.4522C432.84 13.7107 432.678 15.1022 432.733 16.4116C432.789 17.7209 433.133 18.8723 433.835 19.7898C434.537 20.7073 435.377 21.4003 436.426 21.793C437.1 22.0558 437.768 22.1732 438.577 22.1388C439.39 22.1771 440.196 22.07 441.002 21.9628C441.808 21.8557 442.611 21.6758 443.41 21.4232C444.21 21.1706 444.937 20.9211 445.66 20.5988C445.877 20.5167 446.098 20.5073 446.325 20.6434C446.552 20.7795 446.705 20.9188 446.785 21.0611C447.027 21.5609 446.902 22.0764 446.556 22.6012C446.136 23.1292 445.492 23.5938 444.702 24.0646C443.908 24.4627 443.041 24.864 442.168 25.1197C441.294 25.3755 440.27 25.5648 439.241 25.6085C438.284 25.6492 437.325 25.6171 436.433 25.4364C435.17 25.1986 434.119 24.7332 433.285 24.1856C432.378 23.6412 431.685 22.9419 431.062 22.1668C430.44 21.3916 430.035 20.5343 429.703 19.6739C429.369 18.7408 429.182 17.8014 429.142 16.8558C428.969 14.5311 429.321 12.4028 430.27 10.4677C431.219 8.53264 432.558 7.09111 434.36 6.14002C435.656 5.42905 437.041 5.07867 438.372 5.16786C439.625 5.18744 440.677 5.65286 441.373 6.42489Z" fill="#59C69F"/>
<path d="M467.12 12.3262C467.283 12.6837 467.154 13.1264 466.728 13.5089C466.303 13.8913 465.503 14.144 464.479 14.3332C462.723 14.6265 460.896 14.9956 459.067 15.292C457.24 15.6612 455.337 15.9607 453.437 16.333C453.447 18.3002 453.533 20.337 453.69 22.2979C454.573 22.2604 455.673 22.1407 456.988 21.8662C458.232 21.6676 459.544 21.3203 460.932 21.0427C462.244 20.6954 463.556 20.3481 464.794 20.004C466.032 19.6599 467.052 19.3979 467.926 19.1421C468.361 18.9779 468.799 18.8864 469.311 18.7917C469.749 18.7002 470.191 18.6815 470.562 18.7386C470.932 18.7957 471.233 18.9287 471.536 19.1344C471.766 19.3432 471.929 19.7007 471.947 20.1371C471.954 20.2826 471.813 20.4344 471.528 20.6651C471.243 20.8958 470.961 21.1993 470.529 21.4363C470.1 21.746 469.668 21.983 469.236 22.22C468.804 22.457 468.369 22.6213 468.007 22.7824C465.614 23.6857 463.214 24.4436 460.885 25.1256C458.556 25.8076 456.214 26.1987 454.011 26.3652C452.69 26.4943 451.718 26.1712 451.025 25.4719C450.332 24.7726 449.921 23.7699 449.789 22.3909C449.635 20.5027 449.551 18.5387 449.542 16.5715C448.864 16.2359 448.472 15.6696 448.441 14.9422C448.483 14.2116 448.829 13.6868 449.479 13.3677C449.503 12.2007 449.53 11.1064 449.481 9.94253C449.505 8.77552 449.455 7.61164 449.483 6.51737C449.038 6.46339 448.661 6.2608 448.278 5.91272C447.895 5.56464 447.732 5.20718 447.713 4.77073C447.698 4.40701 447.759 4.11292 447.894 3.81569C448.029 3.51847 448.314 3.28773 448.749 3.12348C449.478 2.94673 450.352 2.69097 451.375 2.50171C452.396 2.2397 453.419 2.05044 454.516 1.85804C455.614 1.66565 456.637 1.47639 457.661 1.28712C458.684 1.09786 459.49 0.990717 460.226 0.959445C461.032 0.852305 461.844 0.890649 462.663 1.07448C463.481 1.25831 464.162 1.66662 464.855 2.3659C465.026 2.94159 464.968 3.30843 464.613 3.61504C464.258 3.92164 463.749 4.08902 463.163 4.18678C462.578 4.28454 461.846 4.38855 461.043 4.56843C460.237 4.67557 459.36 4.85858 458.481 4.96885C457.604 5.15186 456.724 5.26213 455.845 5.3724C454.965 5.48267 454.089 5.66568 453.356 5.76969C453.359 5.84243 453.362 5.91518 453.369 6.06066C453.372 6.1334 453.378 6.27889 453.381 6.35163C453.351 7.37316 453.321 8.39468 453.364 9.41308C453.334 10.4346 453.377 11.453 453.347 12.4745C455.026 12.1116 456.709 11.8215 458.391 11.5313C460.147 11.238 461.465 11.0363 462.492 10.9197C463.298 10.8126 464.11 10.851 464.931 11.1075C465.747 11.2186 466.501 11.6238 467.12 12.3262Z" fill="#59C69F"/>
<path d="M495.088 13.2505C494.914 14.3511 494.516 15.3882 493.97 16.4316C493.425 17.4751 492.727 18.3792 491.955 19.2865C491.183 20.1939 490.405 20.9557 489.476 21.651C488.548 22.3463 487.684 22.8203 486.743 23.2247C485.005 23.9544 483.32 24.1718 481.545 24.0287C479.844 23.8824 478.265 23.1479 476.812 21.8979C475.883 20.8443 475.168 19.6358 474.742 18.2693C474.315 16.9029 474.036 15.5301 474.048 14.0722C473.986 12.6173 474.148 11.2258 474.46 9.90081C474.772 8.57581 475.234 7.3173 475.779 6.27388C476.462 5.00599 477.228 3.95319 478.221 3.0365C479.143 2.19568 480.225 1.63957 481.396 1.44405C481.687 1.3588 481.984 1.41904 482.14 1.63101C482.37 1.83986 482.456 2.1277 482.469 2.41867C482.821 2.03932 483.471 1.72021 484.27 1.46758C485.07 1.21496 486.027 1.1743 487.062 1.27601C488.984 1.41293 490.48 1.93233 491.621 2.75833C492.761 3.58434 493.617 4.64108 494.181 5.78307C494.745 6.92507 495.095 8.22192 495.151 9.53129C495.363 11.0526 495.339 12.2196 495.088 13.2505ZM481.872 5.72336C481.079 6.12147 480.438 6.65882 479.951 7.33539C479.464 8.01196 479.057 8.83089 478.726 9.71944C478.395 10.608 478.215 11.563 478.182 12.5118C478.151 13.5333 478.191 14.479 478.305 15.4215C478.511 16.7974 478.925 17.8729 479.698 18.7145C480.471 19.5562 481.593 19.9457 483.064 19.8832C483.946 19.8456 484.823 19.6626 485.617 19.2645C486.484 18.8633 487.201 18.3955 487.915 17.8551C488.626 17.2419 489.26 16.559 489.817 15.8066C490.375 15.0541 490.856 14.2321 491.113 13.3467C491.315 12.9008 491.44 12.3854 491.486 11.7276C491.605 11.0666 491.578 10.4119 491.55 9.75726C491.448 9.10571 491.273 8.45728 491.025 7.81198C490.703 7.1698 490.24 6.67936 489.633 6.26792C488.799 5.72038 487.754 5.40045 486.644 5.30187C485.461 5.20642 484.297 5.54742 483.071 6.18252C482.856 6.33739 482.565 6.42264 482.265 6.28967C481.9 6.37805 481.814 6.0902 481.872 5.72336Z" fill="#59C69F"/>
<path d="M4.99276 46.5474C4.79992 47.2115 4.60399 47.8028 4.33451 48.3972C4.06193 48.9189 3.70651 49.2255 3.34491 49.3867C2.61862 49.6362 2.02398 49.5157 1.63764 49.0949C1.2513 48.6741 1.00899 48.1742 1.12518 47.4406C1.32044 45.1003 1.7302 42.6052 2.35443 39.9551C2.97867 37.3051 3.67647 34.652 4.52447 32.0654C5.36938 29.406 6.29403 26.8889 7.29223 24.3688C8.29044 21.8486 9.37458 19.6163 10.4649 17.5295C10.6732 17.2291 10.8846 17.0015 11.1022 16.9194C11.3197 16.8373 11.614 16.8248 11.7642 16.8913C11.9787 16.7364 12.1932 16.5815 12.4812 16.4235C12.7019 16.4142 12.993 16.3289 13.2872 16.3164C13.4343 16.3101 13.5079 16.307 13.6581 16.3735C13.8083 16.44 13.9585 16.5065 14.1149 16.7185C14.2713 16.9304 14.5043 17.212 14.7405 17.5664C14.9766 17.9207 15.2956 18.4901 15.6176 19.1323C16.2896 21.0713 16.9677 23.1558 17.793 25.2341C18.6182 27.3124 19.4435 29.3906 20.3423 31.4658C20.4863 31.3868 20.5599 31.3837 20.6334 31.3805C20.707 31.3774 20.851 31.2984 20.9245 31.2953C21.3628 31.2038 21.8808 31.2546 22.3988 31.3055C22.9903 31.3532 23.3705 31.6285 23.5361 32.0587C23.7816 32.6313 23.8032 33.1405 23.454 33.5926C23.1783 34.0415 22.6084 34.503 21.8178 34.9739C22.3853 36.1886 22.9528 37.4033 23.5172 38.5453C24.0815 39.6873 24.6459 40.8293 25.2838 41.9682C25.3667 42.1833 25.379 42.4743 25.4712 42.9076C25.5633 43.3409 25.6523 43.7015 25.6708 44.138C25.6894 44.5744 25.7049 44.9381 25.6468 45.305C25.5887 45.6718 25.4508 45.8963 25.2364 46.0512C24.9483 46.2091 24.651 46.1489 24.3506 46.0159C24.0502 45.883 23.7467 45.6772 23.4432 45.4715C23.1397 45.2658 22.9066 44.9842 22.6736 44.7026C22.4405 44.421 22.281 44.1363 22.1247 43.9243C21.407 42.6431 20.6893 41.3619 20.0452 40.0775C19.4011 38.7932 18.7569 37.5089 18.1128 36.2245C16.4334 36.5874 14.6804 36.9534 12.7036 37.2561C10.7269 37.5587 8.82059 37.7855 6.9112 37.9396C6.53171 39.4132 6.15222 40.8868 5.84629 42.3573C5.60772 43.6792 5.30179 45.1497 4.99276 46.5474ZM12.4065 21.6008C10.7377 25.6798 9.36619 29.8191 8.13869 33.8793C10.7836 33.694 13.5633 33.2114 16.5544 32.5013C15.0053 28.9963 13.5971 25.3396 12.4065 21.6008Z" stroke="#59C69F" stroke-width="0.75" stroke-miterlimit="10"/>
<path d="M49.0553 25.6541C49.1567 26.3056 49.1877 27.0331 49.375 27.9725C49.4887 28.915 49.676 29.8544 49.7929 30.8697C49.9833 31.8818 50.0971 32.8243 50.2875 33.8365C50.4748 34.7759 50.6621 35.7153 50.7697 36.5123C51.1739 35.6206 51.6455 34.5803 52.2519 33.2428C52.8613 31.9781 53.4707 30.7133 54.0833 29.5213C54.6958 28.3292 55.3912 27.3523 56.0927 26.5209C56.7943 25.6894 57.4377 25.2248 58.0262 25.1998C58.6882 25.1717 59.289 25.4376 59.8318 26.0704C60.3714 26.6305 60.9172 27.336 61.3221 28.1933C61.727 29.0506 62.1319 29.9078 62.4694 30.9137C62.8038 31.8469 63.0616 32.7104 63.3132 33.4284C63.4387 32.913 63.6346 32.3217 63.8275 31.6576C64.0203 30.9935 64.2867 30.3264 64.5531 29.6592C64.8195 28.992 65.1563 28.2489 65.4963 27.5786C65.8362 26.9083 66.2528 26.3076 66.6725 25.7796C67.1627 25.1758 67.7357 24.787 68.3118 24.4711C68.891 24.2278 69.3261 24.0636 69.6203 24.0511C69.9881 24.0354 70.4326 24.0894 70.8832 24.2889C71.4073 24.4852 71.9346 24.7543 72.465 25.0961C72.9953 25.4379 73.5288 25.8525 73.9887 26.2702C74.4517 26.7606 74.8411 27.2542 75.157 27.7509C75.7918 28.817 76.2796 29.8894 76.6294 31.1862C77.0498 32.4072 77.323 33.6345 77.5165 34.7194C77.7131 35.877 77.9005 36.8164 77.9407 37.762C78.0513 38.6318 78.0792 39.2865 78.1651 39.5743C78.1867 40.0835 78.1286 40.4504 78.0675 40.7445C77.9327 41.0417 77.7182 41.1966 77.4302 41.3546C76.9981 41.5916 76.6334 41.6799 76.3361 41.6197C76.0388 41.5595 75.7384 41.4265 75.5851 41.2873C75.3551 41.0784 75.1987 40.8664 75.1159 40.6513C74.9595 40.4394 74.8736 40.1515 74.8674 40.006C74.6832 39.1394 74.5694 38.1968 74.3821 37.2575C74.1948 36.3181 74.0106 35.4514 73.8232 34.512C73.639 33.6453 73.3843 32.8545 73.1296 32.0638C72.878 31.3457 72.6264 30.6277 72.381 30.0551C72.3013 29.9128 72.1449 29.7008 71.9885 29.4888C71.8321 29.2768 71.5991 28.9952 71.3691 28.7864C71.1392 28.5776 70.9092 28.3687 70.7559 28.2295C70.5291 28.0934 70.3789 28.0269 70.3022 27.9573C69.9344 27.9729 69.5086 28.3554 69.0982 29.1016C68.6877 29.8478 68.2835 30.7394 67.959 31.7735C67.6345 32.8075 67.3131 33.9143 66.9917 35.021C66.6703 36.1278 66.4899 37.0829 66.3768 37.8893C66.4201 38.9077 66.2303 39.6445 65.8842 40.1693C65.538 40.6941 65.106 40.9311 64.6646 40.9499C64.2233 40.9687 63.6256 40.7755 63.0983 40.5064C62.5679 40.1646 62.2582 39.8133 62.0926 39.3831C61.8441 38.7378 61.522 38.0957 61.2673 37.3049C60.9391 36.5172 60.6108 35.7296 60.2826 34.9419C59.9544 34.1542 59.6261 33.3666 59.2979 32.5789C58.9696 31.7913 58.6476 31.1491 58.3255 30.5069C57.768 31.2593 57.2902 32.1542 56.8124 33.049C56.3346 33.9438 55.8599 34.9113 55.3852 35.8788C54.9105 36.8464 54.5094 37.8108 54.1051 38.7025C53.704 39.6669 53.2967 40.4858 52.9567 41.1561C52.6811 41.6051 52.4023 41.9813 52.1235 42.3576C51.8448 42.7338 51.4832 42.8949 51.0418 42.9137C50.7476 42.9262 50.3736 42.7963 49.9935 42.521C49.6133 42.2456 49.3036 41.8944 48.9173 41.4736C48.6045 41.0497 48.2886 40.553 47.9728 40.0563C47.6538 39.4869 47.485 38.9839 47.3132 38.4082C46.9478 36.7477 46.5732 34.8689 46.269 32.9142C45.9618 30.8868 45.6576 28.9321 45.4301 27.0471C45.3287 26.3955 45.448 25.7346 45.647 25.216C45.8429 24.6247 46.2688 24.2422 46.848 23.9989C47.5038 23.8253 48.0249 23.9489 48.405 24.2242C48.7116 24.5027 48.954 25.0025 49.0553 25.6541Z" stroke="#59C69F" stroke-width="0.75" stroke-miterlimit="10"/>
<path d="M96.9397 28.7924C95.4321 29.731 93.7712 30.5303 92.0275 31.1146C90.2838 31.6988 88.3806 31.9984 86.321 32.0859C86.4533 33.4649 86.8675 34.5404 87.6371 35.3093C88.4066 36.0782 89.311 36.5499 90.347 36.6516C91.0121 36.6962 91.6005 36.6712 92.2563 36.4975C92.9122 36.3239 93.4944 36.1534 94.0705 35.8374C94.6497 35.5942 95.1522 35.2813 95.5781 34.8988C96.0071 34.5891 96.433 34.2066 96.7884 33.9C97.1438 33.5934 97.5023 33.3596 97.867 33.2712C98.2317 33.1828 98.5259 33.1703 98.7497 33.2336C99.3474 33.4269 99.5192 34.0025 99.4123 34.9545C98.8029 36.2192 97.9666 37.3479 96.8268 38.2708C95.687 39.1938 94.3877 39.832 92.9259 40.1128C91.6847 40.3842 90.3576 40.3677 89.0212 40.133C87.6817 39.8256 86.4034 39.2241 85.3303 38.2495C84.4105 37.4141 83.6285 36.3542 83.1346 35.1363C82.6407 33.9185 82.2939 32.6944 82.0911 31.3913C81.8915 30.1609 81.9891 28.9907 82.2369 27.8871C82.5583 26.7803 83.033 25.8128 83.6579 24.9117C84.3564 24.0075 85.2112 23.3153 86.2163 22.6896C87.2949 22.0608 88.4594 21.7198 89.9275 21.5845C91.6131 21.3671 93.1733 21.6651 94.6018 22.3331C96.0303 23.0011 97.0298 23.9789 97.677 25.336C98.0022 26.0509 98.1771 26.6993 98.0547 27.2875C97.9293 27.803 97.5831 28.3278 96.9397 28.7924ZM89.9288 25.0824C89.5641 25.1708 89.129 25.335 88.6969 25.572C88.2648 25.809 87.8328 26.046 87.4774 26.3526C87.1219 26.6592 86.7696 27.0385 86.4909 27.4148C86.2121 27.791 86.0835 28.2337 86.0285 28.6733C86.6905 28.6451 87.423 28.5411 88.229 28.434C89.032 28.2541 89.8349 28.0742 90.5643 27.8974C91.2937 27.7207 92.02 27.4712 92.6727 27.2248C93.3254 26.9785 93.828 26.6656 94.26 26.4286C93.9349 25.7137 93.3248 25.2295 92.4359 25.1215C91.688 24.8618 90.8053 24.8994 89.9288 25.0824Z" stroke="#59C69F" stroke-width="0.75" stroke-miterlimit="10"/>
<path d="M114.359 24.2624C114.267 23.8291 114.175 23.3958 114.086 23.0352C113.997 22.6746 113.764 22.393 113.466 22.3328C112.795 22.1427 112.06 22.174 111.33 22.3507C110.601 22.5275 109.878 22.8497 109.301 23.1657C108.655 23.5575 108.155 23.9432 107.73 24.3256C107.304 24.7081 107.102 25.1539 107.04 25.448C106.918 26.0362 107.163 26.6088 107.553 27.1024C108.019 27.6655 108.703 28.1466 109.536 28.6941C110.968 29.4349 112.403 30.2484 113.985 31.0556C115.493 31.866 116.854 32.6826 117.921 33.5117C118.988 34.3409 119.767 35.328 120.181 36.4035C120.595 37.479 120.574 38.7188 120.041 40.0531C119.646 41.163 118.871 41.9976 117.722 42.7023C116.573 43.407 115.271 43.9725 113.888 44.3957C112.506 44.8188 111.048 45.1723 109.653 45.3045C108.262 45.5094 107.014 45.6353 106.058 45.6759C105.837 45.6853 105.54 45.6251 105.163 45.4225C104.789 45.2926 104.486 45.0869 104.182 44.8812C103.879 44.6755 103.572 44.397 103.416 44.185C103.186 43.9762 103.1 43.6883 103.094 43.5429C103.063 42.8154 103.338 42.3665 103.988 42.0474C104.638 41.7282 105.22 41.5577 105.955 41.5265C106.912 41.4858 107.938 41.3693 109.039 41.2496C110.139 41.13 111.162 40.9407 112.109 40.6818C113.056 40.423 114 40.0913 114.72 39.6964C115.514 39.2982 116.01 38.8399 116.353 38.2423C116.629 37.7934 116.384 37.2208 115.767 36.5911C115.151 35.9615 114.314 35.3412 113.253 34.6575C112.193 33.9739 111.062 33.3661 109.93 32.7583C108.726 32.1537 107.745 31.6124 106.837 31.068C106.003 30.5204 105.24 29.897 104.621 29.1946C104.001 28.4922 103.59 27.4894 103.397 26.4046C103.28 25.3893 103.46 24.4343 103.935 23.4667C104.336 22.5023 104.964 21.674 105.669 20.9153C106.373 20.1566 107.231 19.5371 108.242 19.0569C109.18 18.5798 110.201 18.3178 111.157 18.2771C112.852 18.2779 114.268 18.655 115.408 19.481C116.549 20.307 117.263 21.5155 117.552 23.1064C117.577 23.6884 117.522 24.1279 117.317 24.501C117.185 24.871 116.827 25.1049 116.388 25.1964C115.803 25.2941 115.359 25.2402 115.055 25.0344C114.607 24.9077 114.374 24.6261 114.359 24.2624Z" stroke="#59C69F" stroke-width="0.75" stroke-miterlimit="10"/>
<path d="M134.44 23.4087C134.348 22.9754 134.256 22.5421 134.167 22.1815C134.078 21.8209 133.845 21.5393 133.547 21.4791C132.876 21.289 132.14 21.3203 131.411 21.497C130.682 21.6738 129.958 21.996 129.382 22.312C128.736 22.7038 128.236 23.0895 127.811 23.4719C127.385 23.8544 127.183 24.3002 127.121 24.5943C126.999 25.1825 127.244 25.7551 127.634 26.2487C128.1 26.8118 128.784 27.2929 129.617 27.8404C131.049 28.5812 132.484 29.3947 134.066 30.2019C135.574 31.0123 136.935 31.8289 138.002 32.658C139.069 33.4872 139.848 34.4743 140.262 35.5498C140.676 36.6253 140.655 37.8651 140.122 39.1994C139.727 40.3093 138.952 41.1439 137.803 41.8486C136.654 42.5533 135.352 43.1188 133.969 43.542C132.587 43.9651 131.129 44.3186 129.734 44.4508C128.343 44.6557 127.095 44.7816 126.139 44.8222C125.918 44.8316 125.621 44.7714 125.244 44.5688C124.87 44.4389 124.567 44.2332 124.263 44.0275C123.96 43.8218 123.653 43.5433 123.497 43.3313C123.267 43.1225 123.181 42.8346 123.174 42.6892C123.144 41.9617 123.419 41.5128 124.069 41.1937C124.718 40.8745 125.301 40.704 126.036 40.6728C126.993 40.6321 128.019 40.5156 129.12 40.3959C130.22 40.2763 131.243 40.087 132.19 39.8281C133.137 39.5693 134.081 39.2376 134.801 38.8427C135.595 38.4445 136.091 37.9862 136.434 37.3886C136.71 36.9397 136.465 36.3671 135.848 35.7374C135.232 35.1078 134.395 34.4875 133.334 33.8038C132.274 33.1202 131.142 32.5124 130.011 31.9046C128.807 31.3 127.826 30.7587 126.918 30.2143C126.084 29.6667 125.321 29.0433 124.701 28.3409C124.082 27.6385 123.671 26.6357 123.478 25.5509C123.361 24.5356 123.541 23.5806 124.016 22.613C124.417 21.6486 125.045 20.8203 125.75 20.0616C126.454 19.3029 127.312 18.6834 128.323 18.2032C129.261 17.7261 130.282 17.4641 131.238 17.4234C132.933 17.4242 134.349 17.8013 135.489 18.6273C136.63 19.4533 137.344 20.6618 137.633 22.2527C137.658 22.8347 137.603 23.2743 137.398 23.6473C137.266 24.0173 136.907 24.2512 136.469 24.3427C135.884 24.4404 135.439 24.3865 135.136 24.1807C134.688 24.054 134.529 23.7693 134.44 23.4087Z" stroke="#59C69F" stroke-width="0.75" stroke-miterlimit="10"/>
<path d="M158.096 18.2492C158.29 19.3341 158.486 20.4917 158.612 21.7252C158.738 22.9587 158.865 24.1922 158.991 25.4257C159.117 26.6592 159.169 27.8958 159.219 29.0597C159.268 30.2236 159.315 31.3147 159.281 32.2635C160.569 33.0833 161.409 33.7763 161.658 34.4216C161.906 35.0669 162.004 35.6457 161.805 36.1643C161.616 36.9011 161.19 37.2836 160.601 37.3086C160.013 37.3336 159.268 37.1467 158.443 36.8174C157.87 37.2061 157.3 37.6676 156.583 38.1353C155.866 38.603 155.149 39.0707 154.359 39.5416C153.568 40.0124 152.775 40.4106 152.051 40.7328C151.255 41.0582 150.528 41.3077 149.872 41.4813C148.631 41.7527 147.442 41.5117 146.458 40.8977C145.4 40.2868 144.695 39.2966 144.272 38.0028C144.014 37.1393 143.9 36.1968 144.007 35.2449C144.114 34.293 144.368 33.3348 144.772 32.4431C145.176 31.5514 145.804 30.7231 146.583 29.9613C147.361 29.1995 148.295 28.6496 149.38 28.1663C149.668 28.0083 150.033 27.9199 150.545 27.8253C151.056 27.7306 151.571 27.7087 152.086 27.6869C152.601 27.665 153.196 27.7854 153.717 27.909C154.315 28.1022 154.842 28.3713 155.305 28.8618C155.277 28.2071 155.246 27.4796 155.212 26.6795C155.178 25.8793 155.07 25.0823 155.036 24.2821C154.929 23.4851 154.895 22.6849 154.79 21.9606C154.686 21.2363 154.588 20.6575 154.492 20.1514C154.394 19.5726 154.158 19.2183 153.784 19.0884C153.41 18.9586 152.972 19.0501 152.39 19.2206C151.446 19.5522 150.37 20.2538 149.157 21.1798C147.943 22.1059 146.736 23.1775 145.676 24.2428C145.324 24.6221 144.962 24.7833 144.444 24.7324C144 24.6784 143.626 24.5486 143.246 24.2732C142.939 23.9948 142.703 23.6404 142.684 23.204C142.592 22.7707 142.794 22.3248 143.07 21.8759C143.701 21.1203 144.406 20.3616 145.258 19.5966C146.036 18.8348 146.891 18.1426 147.746 17.4504C148.603 16.8309 149.538 16.2811 150.476 15.804C151.417 15.3996 152.363 15.1407 153.317 15.0273C154.711 14.8952 155.756 15.2151 156.593 15.8354C157.43 16.4557 157.906 17.2371 158.096 18.2492ZM151.793 31.1973C151.285 31.3646 150.779 31.6048 150.206 31.9935C149.633 32.3822 149.137 32.8406 148.72 33.4413C148.3 33.9692 147.957 34.5668 147.765 35.2309C147.572 35.8949 147.6 36.5496 147.845 37.1222C147.928 37.3373 148.084 37.5492 148.381 37.6095C148.608 37.7456 148.903 37.7331 149.267 37.6447C150.214 37.3858 151.302 36.9752 152.454 36.3432C153.606 35.7113 154.538 35.0887 155.246 34.4027C155.236 34.1845 155.077 33.8998 154.838 33.4727C154.602 33.1184 154.292 32.7671 153.982 32.4159C153.672 32.0647 153.289 31.7167 152.912 31.5141C152.458 31.2419 152.085 31.112 151.793 31.1973Z" stroke="#59C69F" stroke-width="0.75" stroke-miterlimit="10"/>
<path d="M175.617 23.0428C175.93 23.4667 176.246 23.9634 176.641 24.6025C176.963 25.2446 177.212 25.8899 177.387 26.5384C177.654 27.6201 177.994 28.6988 178.341 29.9229C178.688 31.147 179.038 32.4438 179.388 33.7407C179.738 35.0376 180.091 36.4072 180.37 37.7799C180.65 39.1526 180.999 40.4495 181.199 41.6799C181.494 43.4163 181.415 45.0229 181.042 46.642C180.595 48.2642 179.844 49.6807 178.794 50.9642C177.669 52.2509 176.315 53.3287 174.654 54.1281C172.993 54.9274 171.099 55.4452 168.969 55.6086C168.525 55.5546 168.001 55.3583 167.47 55.0165C166.937 54.6019 166.701 54.2476 166.682 53.8111C166.59 53.3778 166.795 53.0047 167.227 52.7677C167.656 52.458 168.165 52.2906 168.603 52.1991C169.409 52.0919 170.286 51.9089 171.156 51.5804C172.026 51.2519 172.897 50.9235 173.611 50.383C174.401 49.9121 175.112 49.2989 175.673 48.6192C176.307 47.9364 176.788 47.1143 177.118 46.2258C177.382 45.4858 177.492 44.6067 177.448 43.5883C177.405 42.5699 177.288 41.5546 177.098 40.5425C176.907 39.5303 176.72 38.5909 176.459 37.6547C176.198 36.7184 175.95 36.0731 175.781 35.5701C175.499 35.8736 175.217 36.1771 174.788 36.4868C174.359 36.7966 173.93 37.1063 173.428 37.4192C172.925 37.732 172.346 37.9753 171.764 38.1458C171.182 38.3163 170.523 38.4172 169.931 38.3694C169.266 38.3248 168.595 38.1348 168.061 37.7202C167.454 37.3087 166.915 36.7487 166.446 36.1128C165.976 35.4769 165.575 34.6923 165.314 33.756C164.982 32.8956 164.869 31.9531 164.825 30.9347C164.8 28.6038 165.299 26.4693 166.398 24.6007C167.424 22.7352 169.205 21.2749 171.662 20.1502C171.88 20.0681 172.1 20.0587 172.465 19.9703C172.83 19.8819 173.124 19.8694 173.495 19.9265C173.863 19.9109 174.234 19.968 174.531 20.0282C174.902 20.0854 175.129 20.2215 175.429 20.3544C175.883 20.6266 176.122 21.0537 176.15 21.7084C176.027 22.2966 175.899 22.7393 175.617 23.0428ZM168.528 31.3603C168.546 31.7968 168.642 32.3028 168.737 32.8089C168.832 33.315 169.145 33.7389 169.522 33.9415C169.976 34.2137 170.564 34.1887 171.293 34.0119C171.946 33.7656 172.596 33.4465 173.163 32.9122C173.733 32.4508 174.079 31.9259 174.204 31.4105C174.33 30.895 174.299 30.1676 174.115 29.301C173.857 28.4374 173.596 27.5011 173.332 26.4921C173.071 25.5559 172.884 24.6165 172.779 23.8922C172.347 24.1292 171.848 24.5148 171.278 24.9762C170.781 25.4346 170.288 25.9657 169.875 26.6391C169.461 27.3126 169.124 28.0556 168.861 28.7956C168.601 29.6082 168.491 30.4874 168.528 31.3603Z" stroke="#59C69F" stroke-width="0.75" stroke-miterlimit="10"/>
<path d="M199.404 24.4363C197.897 25.3749 196.236 26.1743 194.492 26.7585C192.749 27.3428 190.845 27.6423 188.786 27.7298C188.918 29.1088 189.332 30.1843 190.102 30.9532C190.871 31.7221 191.776 32.1938 192.812 32.2955C193.477 32.3401 194.065 32.3151 194.721 32.1415C195.377 31.9678 195.959 31.7973 196.535 31.4813C197.114 31.2381 197.617 30.9252 198.043 30.5428C198.472 30.233 198.898 29.8505 199.253 29.5439C199.608 29.2373 199.967 29.0035 200.332 28.9151C200.696 28.8267 200.991 28.8142 201.214 28.8776C201.812 29.0708 201.984 29.6465 201.877 30.5984C201.268 31.8631 200.431 32.9918 199.292 33.9148C198.152 34.8377 196.852 35.4759 195.391 35.7567C194.149 36.0281 192.822 36.0116 191.486 35.777C190.146 35.4695 188.868 34.868 187.795 33.8934C186.875 33.058 186.093 31.9981 185.599 30.7803C185.105 29.5624 184.759 28.3383 184.556 27.0352C184.356 25.8048 184.454 24.6347 184.702 23.531C185.023 22.4242 185.498 21.4567 186.123 20.5557C186.821 19.6515 187.676 18.9593 188.681 18.3335C189.76 17.7047 190.924 17.3637 192.392 17.2284C194.078 17.011 195.638 17.309 197.066 17.977C198.495 18.6451 199.495 19.6228 200.142 20.9799C200.467 21.6948 200.642 22.3432 200.519 22.9314C200.468 23.4438 200.048 23.9717 199.404 24.4363ZM192.394 20.7263C192.029 20.8147 191.594 20.9789 191.162 21.2159C190.73 21.4529 190.297 21.6899 189.942 21.9965C189.587 22.3031 189.234 22.6825 188.956 23.0587C188.677 23.4349 188.548 23.8776 188.493 24.3172C189.155 24.2891 189.888 24.185 190.694 24.0779C191.497 23.898 192.3 23.7181 193.029 23.5414C193.758 23.3646 194.485 23.1151 195.137 22.8687C195.79 22.6224 196.293 22.3095 196.725 22.0725C196.4 21.3576 195.79 20.8734 194.901 20.7655C194.153 20.5058 193.27 20.5433 192.394 20.7263Z" stroke="#59C69F" stroke-width="0.75" stroke-miterlimit="10"/>
<path d="M224.694 26.4948C224.108 26.5925 223.517 26.5448 222.775 26.4306C222.03 26.2436 221.497 25.8291 221.169 25.0414C221.006 24.684 220.987 24.2475 221.046 23.8807C221.104 23.5138 221.533 23.2041 222.262 23.0273C222.991 22.8506 223.721 22.6738 224.524 22.4939C225.327 22.3141 226.13 22.1342 226.936 22.027L224.451 15.574C223.683 13.1289 223.517 10.9498 223.955 9.1093C224.392 7.26885 225.811 5.96968 228.204 5.06632C229.148 4.73469 230.172 4.54543 231.131 4.57752C232.09 4.60961 233.059 4.85993 233.957 5.18611C234.858 5.58504 235.692 6.13259 236.382 6.75913C237.149 7.45528 237.697 8.23356 238.179 9.16045C238.345 9.59065 238.434 9.95124 238.523 10.3118C238.538 10.6755 238.477 10.9696 238.195 11.2731C237.843 11.6525 237.411 11.8895 236.893 11.8386C236.375 11.7877 236.074 11.6548 235.921 11.5155C235.535 11.0947 235.148 10.6739 234.688 10.2562C234.229 9.83851 233.769 9.42082 233.315 9.14861C232.858 8.80366 232.334 8.60733 231.813 8.48373C231.292 8.36013 230.7 8.31241 230.115 8.41017C229.824 8.49542 229.533 8.58067 229.177 8.88728C228.819 9.12114 228.466 9.50049 228.267 10.0191C227.995 10.5408 227.872 11.129 227.833 11.9323C227.793 12.7356 227.981 13.675 228.324 14.8263C228.659 15.7595 228.999 16.8381 229.417 17.9864C229.834 19.1346 230.251 20.2829 230.745 21.5007C232.648 21.2012 234.34 21.1293 235.961 21.1332C236.847 21.1684 237.663 21.2795 238.407 21.4665C239.152 21.6534 239.83 21.989 240.293 22.4794C240.455 22.8369 240.397 23.2037 240.259 23.4282C240.125 23.7254 239.91 23.8803 239.625 24.111C239.337 24.269 238.975 24.4301 238.611 24.5185C238.246 24.6069 237.881 24.6953 237.514 24.7109C236.708 24.8181 235.902 24.9252 235.025 25.1082C234.145 25.2185 233.269 25.4015 232.316 25.5149C233.052 27.2326 233.712 28.8806 234.295 30.4591C234.878 32.0375 235.375 33.3281 235.712 34.334C235.884 34.9097 235.912 35.5644 235.866 36.2222C235.747 36.8831 235.627 37.5441 235.508 38.205C235.251 39.0904 234.841 39.8366 234.424 40.4373C234.007 41.038 233.499 41.2054 232.901 41.0122C232.45 40.8127 232.147 40.607 232.061 40.3192C231.901 40.0344 231.883 39.598 231.932 39.0129C231.977 38.3551 232.026 37.77 231.998 37.1154C231.971 36.4607 231.946 35.8787 231.851 35.3727C231.755 34.8666 231.66 34.3605 231.571 33.9999C231.479 33.5666 231.393 33.2788 231.313 33.1364L228.509 26.1139C227.851 26.2148 227.265 26.3126 226.606 26.4135C226.012 26.293 225.353 26.3939 224.694 26.4948Z" stroke="#59C69F" stroke-width="0.75" stroke-miterlimit="10"/>
<path d="M262.02 15.2886C261.3 15.6836 260.583 16.1513 259.866 16.619C259.149 17.0867 258.362 17.6303 257.651 18.2435C256.94 18.8568 256.232 19.5427 255.528 20.3014C254.896 21.057 254.275 22.0308 253.806 23.1438C253.059 24.6331 252.609 26.1825 252.383 27.7954C252.153 29.3355 252.071 30.8693 252.063 32.4001C252.094 33.1275 251.977 33.8612 251.637 34.5315C251.301 35.2746 250.875 35.657 250.286 35.682C249.551 35.7133 248.947 35.3746 248.398 34.5963C247.849 33.8181 247.597 33.1 247.349 32.4547C246.569 29.7186 245.863 26.9794 245.308 24.3067C244.752 21.634 244.266 18.8854 243.858 16.2065C243.833 15.6245 243.968 15.3273 244.326 15.0934C244.688 14.9323 245.053 14.8439 245.497 14.8979C245.941 14.9519 246.459 15.0027 246.91 15.2022C247.361 15.4017 247.594 15.6833 247.686 16.1166C247.895 17.5652 248.18 19.0834 248.469 20.6744C248.758 22.2653 249.034 23.5653 249.378 24.7167C249.469 23.4011 249.855 22.0729 250.538 20.805C251.221 19.5371 252.054 18.3357 253.041 17.2735C254.027 16.2114 255.167 15.2884 256.46 14.5047C257.753 13.721 259.059 13.2283 260.447 12.9506C261.032 12.8529 261.547 12.831 261.918 12.8881C262.289 12.9452 262.589 13.0782 262.746 13.2901C262.902 13.5021 262.988 13.7899 262.86 14.2327C262.798 14.5268 262.446 14.9061 262.02 15.2886Z" stroke="#59C69F" stroke-width="0.75" stroke-miterlimit="10"/>
<path d="M279.15 14.3417C280.345 14.7281 281.403 15.339 282.249 16.1775C283.095 17.016 283.724 17.9367 284.212 19.0091C284.699 20.0814 284.966 21.1632 285.089 22.3239C285.212 23.4847 285.109 24.5093 284.858 25.5403C284.463 26.6502 283.994 27.7632 283.302 28.8129C282.686 29.9321 281.914 30.8394 281.142 31.7468C280.294 32.5844 279.365 33.2798 278.284 33.8359C277.202 34.392 275.961 34.6634 274.637 34.7197C273.018 34.7885 271.605 34.4842 270.471 33.8037C269.337 33.1231 268.414 32.215 267.773 31.0034C267.061 29.8677 266.638 28.5739 266.352 27.0557C266.143 25.6071 266.078 24.0795 266.237 22.6153C266.338 21.5179 266.586 20.4142 266.91 19.3802C267.235 18.3462 267.709 17.3786 268.264 16.5535C268.818 15.7283 269.453 15.0454 270.24 14.5018C270.954 13.9614 271.827 13.7056 272.857 13.6618C273.446 13.6368 274.111 13.6814 274.929 13.8653C275.747 14.0491 276.569 14.3057 277.25 14.714C277.816 14.1797 278.402 14.082 279.15 14.3417ZM277.125 18.7273C276.672 18.4551 276.141 18.1133 275.534 17.7018C274.927 17.2904 274.403 17.0941 273.962 17.1128C273.52 17.1316 273.015 17.3717 272.592 17.8269C272.169 18.2822 271.75 18.8101 271.48 19.4046C271.137 20.0021 270.941 20.5935 270.672 21.1879C270.476 21.7792 270.35 22.2947 270.289 22.5888C270.167 23.177 270.124 23.9075 270.158 24.7077C270.118 25.511 270.226 26.308 270.407 27.1019C270.588 27.8959 270.913 28.6108 271.456 29.2436C271.925 29.8795 272.606 30.2878 273.575 30.5381C274.169 30.6586 274.758 30.6336 275.561 30.4537C276.29 30.2769 277.01 29.882 277.727 29.4142C278.444 28.9465 279.078 28.2637 279.706 27.4354C280.334 26.607 280.812 25.7122 281.137 24.6782C281.455 23.4987 281.479 22.3317 280.985 21.1138C280.565 19.8928 279.792 19.0512 278.59 18.5193C278.305 18.75 278.014 18.8353 277.794 18.8447C277.499 18.8572 277.276 18.7938 277.125 18.7273Z" stroke="#59C69F" stroke-width="0.75" stroke-miterlimit="10"/>
<path d="M293.117 15.2783C293.218 15.9299 293.249 16.6573 293.437 17.5967C293.55 18.5392 293.738 19.4786 293.854 20.4939C294.045 21.506 294.159 22.4485 294.349 23.4607C294.536 24.4001 294.724 25.3395 294.831 26.1365C295.236 25.2449 295.707 24.2046 296.313 22.8671C296.923 21.6023 297.532 20.3375 298.145 19.1455C298.757 17.9535 299.453 16.9765 300.154 16.1451C300.856 15.3137 301.499 14.8491 302.088 14.824C302.75 14.7959 303.351 15.0619 303.893 15.6946C304.433 16.2547 304.979 16.9602 305.384 17.8175C305.789 18.6748 306.193 19.5321 306.531 20.538C306.865 21.4711 307.123 22.3346 307.375 23.0527C307.5 22.5372 307.696 21.9459 307.889 21.2818C308.082 20.6178 308.348 19.9506 308.615 19.2834C308.881 18.6162 309.218 17.8731 309.558 17.2028C309.898 16.5325 310.314 15.9318 310.734 15.4038C311.224 14.8 311.797 14.4113 312.373 14.0953C312.953 13.852 313.388 13.6878 313.682 13.6753C314.05 13.6596 314.494 13.7136 314.945 13.9131C315.469 14.1094 315.996 14.3785 316.527 14.7203C317.057 15.0622 317.59 15.4767 318.05 15.8944C318.513 16.3848 318.903 16.8784 319.219 17.3751C319.853 18.4412 320.341 19.5136 320.691 20.8105C321.111 22.0314 321.385 23.2587 321.578 24.3436C321.775 25.5012 321.962 26.4406 322.002 27.3863C322.113 28.256 322.141 28.9107 322.227 29.1986C322.248 29.7078 322.19 30.0746 322.129 30.3687C321.994 30.6659 321.78 30.8208 321.492 30.9788C321.06 31.2158 320.695 31.3042 320.398 31.2439C320.1 31.1837 319.8 31.0507 319.647 30.9115C319.417 30.7026 319.26 30.4907 319.177 30.2756C319.021 30.0636 318.935 29.7757 318.929 29.6303C318.745 28.7636 318.631 27.8211 318.444 26.8817C318.256 25.9423 318.072 25.0756 317.885 24.1362C317.701 23.2696 317.446 22.4788 317.191 21.688C316.94 20.9699 316.688 20.2519 316.443 19.6793C316.363 19.537 316.207 19.325 316.05 19.113C315.894 18.9011 315.661 18.6195 315.431 18.4106C315.201 18.2018 314.971 17.9929 314.818 17.8537C314.591 17.7176 314.44 17.6511 314.364 17.5815C313.996 17.5971 313.57 17.9796 313.16 18.7258C312.749 19.472 312.345 20.3637 312.021 21.3977C311.696 22.4317 311.375 23.5385 311.053 24.6453C310.732 25.752 310.551 26.7071 310.438 27.5135C310.482 28.5319 310.292 29.2687 309.946 29.7935C309.6 30.3184 309.168 30.5554 308.726 30.5741C308.285 30.5929 307.837 30.4662 307.307 30.1243C306.777 29.7825 306.467 29.4313 306.301 29.0011C306.053 28.3558 305.731 27.7136 305.476 26.9228C305.148 26.1352 304.82 25.3475 304.491 24.5599C304.163 23.7722 303.835 22.9845 303.507 22.1969C303.178 21.4092 302.856 20.7671 302.534 20.1249C301.977 20.8773 301.499 21.7721 301.021 22.6669C300.543 23.5617 300.069 24.5293 299.594 25.4968C299.119 26.4644 298.718 27.4288 298.314 28.3204C297.913 29.2849 297.505 30.1038 297.165 30.7741C296.89 31.2231 296.611 31.5993 296.332 31.9755C296.053 32.3517 295.692 32.5129 295.251 32.5316C294.956 32.5441 294.582 32.4143 294.202 32.139C293.822 31.8636 293.512 31.5124 293.126 31.0916C292.813 30.6676 292.497 30.171 292.181 29.6743C291.862 29.1048 291.694 28.6019 291.522 28.0262C291.157 26.3656 290.782 24.4868 290.478 22.5322C290.17 20.5047 289.866 18.5501 289.639 16.665C289.537 16.0135 289.657 15.3525 289.856 14.8339C290.052 14.2426 290.478 13.8602 291.057 13.6169C291.712 13.4433 292.234 13.5669 292.614 13.8422C292.773 14.1269 293.016 14.6267 293.117 15.2783Z" stroke="#59C69F" stroke-width="0.75" stroke-miterlimit="10"/>
<path d="M356.659 15.7833C357.391 15.6793 358.136 15.8663 358.961 16.1956C359.712 16.528 360.107 17.1671 360.141 17.9673C360.096 18.6251 359.746 19.0772 359.091 19.2508C358.435 19.4244 357.926 19.5918 357.558 19.6074C356.749 19.6418 355.94 19.6762 354.987 19.7896C354.107 19.8999 353.151 19.9405 352.198 20.0539C352.18 21.3664 352.156 22.5334 352.132 23.7004C352.108 24.8675 352.148 25.8131 352.115 26.7619C352.078 27.6379 352.109 28.3654 352.131 28.8746C352.156 29.4565 352.168 29.7475 352.241 29.7443C353.118 29.5613 354.062 29.2297 355.003 28.8253C356.017 28.4178 356.955 27.9407 357.966 27.4605C358.977 26.9803 359.912 26.4304 360.849 25.9533C361.784 25.4035 362.722 24.9264 363.586 24.4524C363.944 24.2185 364.312 24.2029 364.683 24.26C365.054 24.3171 365.21 24.5291 365.293 24.7442C365.385 25.1775 365.333 25.6898 365.214 26.3508C365.021 27.0148 364.675 27.5397 364.182 28.0707C363.612 28.5322 362.827 29.1486 361.896 29.7711C360.965 30.3937 359.959 31.0195 358.881 31.6483C357.802 32.2772 356.717 32.7605 355.559 33.247C354.474 33.7304 353.454 33.9924 352.574 34.1026C351.256 34.3044 350.285 33.9814 349.586 33.1366C348.889 32.3646 348.475 31.2891 348.349 30.0556C348.223 28.8221 348.161 27.3672 348.164 25.691C348.166 24.0148 348.165 22.2659 348.162 20.4442C347.429 20.5482 346.697 20.6522 346.038 20.7531C345.379 20.854 344.72 20.9548 344.061 21.0557C343.546 21.0776 342.951 20.9572 342.354 20.7639C341.756 20.5707 341.37 20.1499 341.339 19.4225C341.329 19.2043 341.388 18.8374 341.593 18.4643C341.798 18.0912 342.227 17.7815 342.88 17.5351C344.486 17.1754 346.315 16.879 348.218 16.5794C348.288 14.7546 348.284 12.9329 348.434 11.2504C348.507 9.49837 348.589 7.96452 348.674 6.50341C348.729 6.06383 348.784 5.62424 349.063 5.24802C349.268 4.87493 349.556 4.71693 349.777 4.70755C350.436 4.60667 351.107 4.79675 351.711 5.13545C352.315 5.47414 352.701 5.89496 352.72 6.33142C352.628 7.64704 352.546 9.18089 352.47 10.8602C352.394 12.5396 352.321 14.2916 352.322 16.0406C353.128 15.9334 353.861 15.8294 354.596 15.7982C355.264 15.9155 356 15.8842 356.659 15.7833Z" stroke="#59C69F" stroke-width="0.75" stroke-miterlimit="10"/>
<path d="M371.081 4.89497C371.121 5.84062 371.165 6.85902 371.217 8.09564C371.267 9.25952 371.319 10.4961 371.372 11.7328C371.425 12.9694 371.554 14.2756 371.609 15.585C371.665 16.8944 371.794 18.2006 371.844 19.3645C372.178 18.5487 372.662 17.7994 373.142 16.9773C373.7 16.2249 374.258 15.4724 374.895 14.8623C375.532 14.2523 376.246 13.7118 377.043 13.3864C377.763 12.9914 378.639 12.8084 379.522 12.7709C380.478 12.7302 381.373 12.9837 382.21 13.604C382.974 14.2274 383.743 14.9963 384.301 15.9928C384.933 16.9862 385.424 18.1313 385.921 19.4219C386.341 20.6429 386.765 21.9366 387.041 23.2366C387.317 24.5366 387.591 25.7638 387.79 26.9942C387.987 28.1518 388.107 29.2398 388.215 30.0369C388.242 30.6916 388.117 31.207 387.838 31.5832C387.559 31.9595 387.201 32.1933 386.76 32.2121C386.465 32.2246 386.015 32.0251 385.558 31.6802C385.101 31.3352 384.709 30.7689 384.537 30.1932C384.371 29.763 384.267 29.0387 384.082 28.1721C383.898 27.3054 383.708 26.2933 383.517 25.2811C383.327 24.269 383.06 23.1872 382.796 22.1782C382.529 21.0965 382.194 20.1633 381.793 19.3788C381.388 18.5215 380.992 17.8825 380.459 17.4679C379.999 17.0502 379.401 16.857 378.745 17.0306C377.798 17.2895 376.943 17.9817 376.257 19.1769C375.571 20.372 374.965 21.7095 374.515 23.259C374.062 24.7358 373.685 26.2821 373.383 27.8253C373.08 29.3686 372.912 30.6146 372.805 31.5665C372.689 32.3002 372.486 32.746 372.278 33.0464C371.996 33.3498 371.779 33.432 371.411 33.4476C371.117 33.4601 370.816 33.3271 370.51 33.0487C370.277 32.7671 369.964 32.3431 369.725 31.916C369.485 31.489 369.243 30.9892 369.077 30.559C368.909 30.056 368.743 29.6258 368.731 29.3348C368.42 27.2347 368.186 25.2042 368.029 23.2432C367.799 21.2854 367.645 19.3973 367.488 17.4363C367.331 15.4754 367.247 13.5114 367.158 11.4018C367.068 9.29228 367.052 7.17962 367.023 4.77599C366.94 2.81194 367.638 1.90775 369.045 2.06657C369.49 2.12055 369.946 2.4655 370.339 3.0318C370.879 3.59185 371.053 4.24028 371.081 4.89497Z" stroke="#59C69F" stroke-width="0.75" stroke-miterlimit="10"/>
<path d="M406.32 15.6397C404.812 16.5783 403.151 17.3777 401.408 17.9619C399.664 18.5462 397.761 18.8457 395.701 18.9333C395.833 20.3123 396.247 21.3878 397.017 22.1567C397.787 22.9255 398.691 23.3972 399.727 23.4989C400.392 23.5435 400.98 23.5185 401.636 23.3449C402.292 23.1712 402.874 23.0007 403.451 22.6848C404.03 22.4415 404.532 22.1287 404.958 21.7462C405.387 21.4364 405.813 21.054 406.168 20.7474C406.524 20.4408 406.882 20.2069 407.247 20.1185C407.612 20.0301 407.906 20.0176 408.13 20.081C408.727 20.2742 408.899 20.8499 408.792 21.8018C408.183 23.0666 407.347 24.1952 406.207 25.1182C405.067 26.0411 403.768 26.6794 402.306 26.9601C401.065 27.2315 399.738 27.2151 398.401 26.9804C397.062 26.6729 395.783 26.0714 394.71 25.0968C393.79 24.2614 393.009 23.2016 392.515 21.9837C392.021 20.7658 391.674 19.5417 391.471 18.2386C391.271 17.0082 391.369 15.8381 391.617 14.7344C391.938 13.6277 392.413 12.6601 393.038 11.7591C393.736 10.8549 394.591 10.1627 395.596 9.53696C396.675 8.90811 397.839 8.56711 399.307 8.43183C400.993 8.21442 402.553 8.51246 403.982 9.18047C405.41 9.84848 406.41 10.8262 407.057 12.1833C407.382 12.8982 407.557 13.5467 407.435 14.1349C407.383 14.6472 406.963 15.1751 406.32 15.6397ZM399.382 11.9266C399.018 12.015 398.582 12.1792 398.15 12.4162C397.718 12.6532 397.286 12.8902 396.931 13.1968C396.575 13.5034 396.223 13.8828 395.944 14.259C395.666 14.6352 395.537 15.0779 395.482 15.5175C396.144 15.4893 396.877 15.3853 397.683 15.2782C398.486 15.0983 399.288 14.9184 400.018 14.7417C400.747 14.5649 401.473 14.3154 402.126 14.069C402.779 13.8227 403.281 13.5098 403.714 13.2728C403.388 12.5579 402.778 12.0737 401.889 11.9658C401.068 11.7092 400.185 11.7467 399.382 11.9266Z" stroke="#59C69F" stroke-width="0.75" stroke-miterlimit="10"/>
<path d="M441.373 6.42489C441.529 6.63686 441.612 6.85196 441.698 7.1398C441.71 7.43078 441.72 7.649 441.582 7.87349C441.38 8.31932 441.092 8.47732 440.57 8.35372C439.752 8.16989 438.866 8.13468 437.987 8.24494C437.107 8.35521 436.163 8.68683 435.311 9.45179C434.457 10.144 433.761 11.1209 433.302 12.4522C432.84 13.7107 432.678 15.1022 432.733 16.4116C432.789 17.7209 433.133 18.8723 433.835 19.7898C434.537 20.7073 435.377 21.4003 436.426 21.793C437.1 22.0558 437.768 22.1732 438.577 22.1388C439.39 22.1771 440.196 22.07 441.002 21.9628C441.808 21.8557 442.611 21.6758 443.41 21.4232C444.21 21.1706 444.937 20.9211 445.66 20.5988C445.877 20.5167 446.098 20.5073 446.325 20.6434C446.552 20.7795 446.705 20.9188 446.785 21.0611C447.027 21.5609 446.902 22.0764 446.556 22.6012C446.136 23.1292 445.492 23.5938 444.702 24.0646C443.908 24.4627 443.041 24.864 442.168 25.1197C441.294 25.3755 440.27 25.5648 439.241 25.6085C438.284 25.6492 437.325 25.6171 436.433 25.4364C435.17 25.1986 434.119 24.7332 433.285 24.1856C432.378 23.6412 431.685 22.9419 431.062 22.1668C430.44 21.3916 430.035 20.5343 429.703 19.6739C429.369 18.7408 429.182 17.8014 429.142 16.8558C428.969 14.5311 429.321 12.4028 430.27 10.4677C431.219 8.53264 432.558 7.09111 434.36 6.14002C435.656 5.42905 437.041 5.07867 438.372 5.16786C439.625 5.18744 440.677 5.65286 441.373 6.42489Z" stroke="#59C69F" stroke-width="0.75" stroke-miterlimit="10"/>
<path d="M467.12 12.3262C467.283 12.6837 467.154 13.1264 466.728 13.5089C466.303 13.8913 465.503 14.144 464.479 14.3332C462.723 14.6265 460.896 14.9956 459.067 15.292C457.24 15.6612 455.337 15.9607 453.437 16.333C453.447 18.3002 453.533 20.337 453.69 22.2979C454.573 22.2604 455.673 22.1407 456.988 21.8662C458.232 21.6676 459.544 21.3203 460.932 21.0427C462.244 20.6954 463.556 20.3481 464.794 20.004C466.032 19.6599 467.052 19.3979 467.926 19.1421C468.361 18.9779 468.799 18.8864 469.311 18.7917C469.749 18.7002 470.191 18.6815 470.562 18.7386C470.932 18.7957 471.233 18.9287 471.536 19.1344C471.766 19.3432 471.929 19.7007 471.947 20.1371C471.954 20.2826 471.813 20.4344 471.528 20.6651C471.243 20.8958 470.961 21.1993 470.529 21.4363C470.1 21.746 469.668 21.983 469.236 22.22C468.804 22.457 468.369 22.6213 468.007 22.7824C465.614 23.6857 463.214 24.4436 460.885 25.1256C458.556 25.8076 456.214 26.1987 454.011 26.3652C452.69 26.4943 451.718 26.1712 451.025 25.4719C450.332 24.7726 449.921 23.7699 449.789 22.3909C449.635 20.5027 449.551 18.5387 449.542 16.5715C448.864 16.2359 448.472 15.6696 448.441 14.9422C448.483 14.2116 448.829 13.6868 449.479 13.3677C449.503 12.2007 449.53 11.1064 449.481 9.94253C449.505 8.77552 449.455 7.61164 449.483 6.51737C449.038 6.46339 448.661 6.2608 448.278 5.91272C447.895 5.56464 447.732 5.20718 447.713 4.77073C447.698 4.40701 447.759 4.11292 447.894 3.81569C448.029 3.51847 448.314 3.28773 448.749 3.12348C449.478 2.94673 450.352 2.69097 451.375 2.50171C452.396 2.2397 453.419 2.05044 454.516 1.85804C455.614 1.66565 456.637 1.47639 457.661 1.28712C458.684 1.09786 459.49 0.990717 460.226 0.959445C461.032 0.852305 461.844 0.890649 462.663 1.07448C463.481 1.25831 464.162 1.66662 464.855 2.3659C465.026 2.94159 464.968 3.30843 464.613 3.61504C464.258 3.92164 463.749 4.08902 463.163 4.18678C462.578 4.28454 461.846 4.38855 461.043 4.56843C460.237 4.67557 459.36 4.85858 458.481 4.96885C457.604 5.15186 456.724 5.26213 455.845 5.3724C454.965 5.48267 454.089 5.66568 453.356 5.76969C453.359 5.84243 453.362 5.91518 453.369 6.06066C453.372 6.1334 453.378 6.27889 453.381 6.35163C453.351 7.37316 453.321 8.39468 453.364 9.41308C453.334 10.4346 453.377 11.453 453.347 12.4745C455.026 12.1116 456.709 11.8215 458.391 11.5313C460.147 11.238 461.465 11.0363 462.492 10.9197C463.298 10.8126 464.11 10.851 464.931 11.1075C465.747 11.2186 466.501 11.6238 467.12 12.3262Z" stroke="#59C69F" stroke-width="0.75" stroke-miterlimit="10"/>
<path d="M495.088 13.2505C494.914 14.3511 494.516 15.3882 493.97 16.4316C493.425 17.4751 492.727 18.3792 491.955 19.2865C491.183 20.1939 490.405 20.9557 489.476 21.651C488.548 22.3463 487.684 22.8203 486.743 23.2247C485.005 23.9544 483.32 24.1718 481.545 24.0287C479.844 23.8824 478.265 23.1479 476.812 21.8979C475.883 20.8443 475.168 19.6358 474.742 18.2693C474.315 16.9029 474.036 15.5301 474.048 14.0722C473.986 12.6173 474.148 11.2258 474.46 9.90081C474.772 8.57581 475.234 7.3173 475.779 6.27388C476.462 5.00599 477.228 3.95319 478.221 3.0365C479.143 2.19568 480.225 1.63957 481.396 1.44405C481.687 1.3588 481.984 1.41904 482.14 1.63101C482.37 1.83986 482.456 2.1277 482.469 2.41867C482.821 2.03932 483.471 1.72021 484.27 1.46758C485.07 1.21496 486.027 1.1743 487.062 1.27601C488.984 1.41293 490.48 1.93233 491.621 2.75833C492.761 3.58434 493.617 4.64108 494.181 5.78307C494.745 6.92507 495.095 8.22192 495.151 9.53129C495.363 11.0526 495.339 12.2196 495.088 13.2505ZM481.872 5.72336C481.079 6.12147 480.438 6.65882 479.951 7.33539C479.464 8.01196 479.057 8.83089 478.726 9.71944C478.395 10.608 478.215 11.563 478.182 12.5118C478.151 13.5333 478.191 14.479 478.305 15.4215C478.511 16.7974 478.925 17.8729 479.698 18.7145C480.471 19.5562 481.593 19.9457 483.064 19.8832C483.946 19.8456 484.823 19.6626 485.617 19.2645C486.484 18.8633 487.201 18.3955 487.915 17.8551C488.626 17.2419 489.26 16.559 489.817 15.8066C490.375 15.0541 490.856 14.2321 491.113 13.3467C491.315 12.9008 491.44 12.3854 491.486 11.7276C491.605 11.0666 491.578 10.4119 491.55 9.75726C491.448 9.10571 491.273 8.45728 491.025 7.81198C490.703 7.1698 490.24 6.67936 489.633 6.26792C488.799 5.72038 487.754 5.40045 486.644 5.30187C485.461 5.20642 484.297 5.54742 483.071 6.18252C482.856 6.33739 482.565 6.42264 482.265 6.28967C481.9 6.37805 481.814 6.0902 481.872 5.72336Z" stroke="#59C69F" stroke-width="0.75" stroke-miterlimit="10"/>
</svg>
