<svg width="397" height="166" viewBox="0 0 397 166" fill="none" xmlns="http://www.w3.org/2000/svg">
<path d="M77.0469 79.0424C73.5329 77.3745 68.7281 77.583 66.2182 80.7799C65.4293 81.8918 67.1504 83.0733 68.011 82.0308C69.6604 79.8764 72.8158 79.7374 75.254 80.5714C77.9074 81.4748 79.9871 83.6293 80.6325 86.2702C80.9194 87.5907 81.0628 89.1891 80.2739 90.3011C79.4134 91.4826 77.9791 92.4555 76.6166 93.081C74.1783 94.193 71.0947 94.2625 69.015 92.4555C66.6485 90.5096 66.505 86.9652 68.5847 84.8803C69.015 84.4633 69.0867 83.9073 68.7281 83.4208C68.4413 83.0038 67.6524 82.8648 67.2222 83.2818C64.7122 85.8532 64.2102 89.6756 66.2899 92.664C68.2979 95.583 72.3138 96.5559 75.6843 95.6525C77.6923 95.0965 79.4851 94.054 80.9911 92.5945C82.4253 91.2046 82.999 89.6756 82.9273 87.7297C82.8556 84.0463 80.4891 80.6409 77.0469 79.0424Z" fill="#1E1E1E"/>
<path d="M76.1147 81.892C75.2541 81.4055 74.1067 81.2665 73.031 81.5445C71.5968 81.892 70.6645 83.004 70.5928 84.3244C70.5928 84.6024 70.6645 84.8109 70.8796 85.0194C71.0948 85.2279 71.3816 85.3669 71.6685 85.3669C72.2422 85.3669 72.7442 84.8804 72.7442 84.3244V84.2549C72.7442 84.1854 72.7442 84.1854 72.7442 84.1159C72.7442 84.1159 72.7442 84.0464 72.8159 84.0464C72.8159 83.977 72.8876 83.9075 72.8876 83.9075C72.9593 83.838 73.031 83.699 73.1745 83.6295C73.4613 83.421 73.8916 83.3515 74.3218 83.3515C74.3935 83.3515 74.3935 83.3515 74.4653 83.3515C74.537 83.56 74.6804 83.56 74.7521 83.56C74.8238 83.56 74.8238 83.56 74.8955 83.6295H74.9672C74.9672 83.6295 75.039 83.699 75.1107 83.699C75.3258 83.838 75.3975 84.0464 75.3258 84.4634C75.3258 84.6024 75.2541 84.8109 75.1824 85.0194C75.1824 85.0889 75.1107 85.1584 75.1107 85.2279C74.9672 85.2974 74.7521 85.4364 74.6087 85.5059C74.3218 85.6449 74.1067 85.7839 73.8199 85.9229C72.9593 86.6179 72.529 87.7993 72.7442 88.9808C72.8159 89.1893 72.9593 89.4673 73.1745 89.6063C73.3896 89.7453 73.6047 89.8148 73.8199 89.8148C73.8916 89.8148 74.035 89.8148 74.1067 89.8148C74.6087 89.6758 74.9672 89.1893 74.8955 88.6333V88.5638C74.8955 88.4943 74.8955 88.4943 74.8955 88.4943V88.3553C74.8955 88.2858 74.8955 88.2163 74.9672 88.1468V88.0773L75.039 88.0078C75.1107 87.8688 75.1107 87.8688 75.2541 87.7298L75.3258 87.6603L75.3975 87.5909C75.4692 87.5214 75.6127 87.4519 75.6844 87.4519C76.1864 87.2434 76.6884 86.9654 76.9752 86.4789C77.2621 86.0619 77.4055 85.5754 77.4772 84.9499C77.6206 83.56 77.1186 82.5175 76.1147 81.892Z" fill="#59C69F"/>
<path d="M73.963 90.7183C73.2458 90.7183 72.959 91.2743 72.959 91.7608C72.959 92.2473 73.3175 92.8033 73.963 92.8033C74.2498 92.8033 74.5367 92.6643 74.7518 92.4558C74.8952 92.2473 75.0387 92.0388 75.0387 91.7608C75.0387 91.2048 74.6801 90.7183 73.963 90.7183Z" fill="#59C69F"/>
<g clip-path="url(#clip0)">
<path d="M79.8737 99.7564C77.3849 96.6616 72.8222 94.8163 69.1646 96.8634C67.9438 97.5458 69.0326 99.4584 70.2581 98.7761C72.6667 97.4305 75.6834 98.6223 77.5311 100.429C79.5767 102.433 80.5336 105.393 79.9774 108.243C79.704 109.637 79.1337 111.222 77.8799 111.982C76.5601 112.775 74.8444 113.106 73.3313 113.13C70.6446 113.178 67.7552 111.905 66.6146 109.271C65.3749 106.407 66.7607 102.938 69.6076 101.775C70.1544 101.549 70.5268 101.039 70.3618 100.415C70.2251 99.8861 69.5699 99.42 69.0279 99.6459C65.5917 101.049 63.4989 104.538 64.1023 108.32C64.6962 112.025 67.9202 114.649 71.4506 115.192C73.5057 115.509 75.6504 115.254 77.5971 114.524C79.4777 113.817 80.7268 112.582 81.4951 110.694C82.9846 107.037 82.32 102.793 79.8737 99.7564Z" fill="#1E1E1E"/>
<path d="M78.6437 102.745C78.0923 102.414 77.5125 102.663 77.1637 103.139C76.4708 104.076 75.7638 104.999 75.0426 105.907C74.675 106.373 74.3026 106.83 73.9349 107.282C73.7369 107.522 73.5437 107.757 73.3457 107.993C73.3221 108.022 73.2939 108.055 73.2656 108.089C73.2373 108.065 73.2137 108.046 73.1807 108.017C72.8932 107.777 72.6198 107.517 72.3559 107.248C71.861 106.729 71.4886 106.239 71.1162 105.624C70.8099 105.119 70.1452 104.917 69.6362 105.23C69.1413 105.523 68.9386 106.234 69.2497 106.739C69.8153 107.676 70.5035 108.536 71.3048 109.271C71.7148 109.646 72.1532 110.002 72.6104 110.314C73.2656 110.761 73.9773 110.626 74.4911 110.026C76.0749 108.156 77.5832 106.215 79.0491 104.244C79.3885 103.783 79.1057 103.024 78.6437 102.745Z" fill="#F7C300"/>
</g>
<path d="M94.0872 68.7541C93.3222 68.2924 92.4138 68.1539 91.5532 68.0616C90.597 67.9692 89.4973 67.8769 88.7801 68.6156C88.3498 69.0772 88.302 69.8159 88.7801 70.2314C88.1108 71.1086 87.8239 72.1704 88.1108 73.2784C88.5411 74.8481 90.1189 75.6791 91.6488 75.9099C92.6051 76.0484 93.6569 76.0946 94.4697 75.5406C95.2347 75.0327 95.7606 74.2479 95.9041 73.3707C96.2388 71.7087 95.7128 69.6774 94.0872 68.7541ZM93.6091 72.8167C93.6091 72.8629 93.6091 72.9091 93.6091 72.9552C93.6091 73.0014 93.5613 73.0937 93.5613 73.1399V73.1861C93.5613 73.2322 93.5613 73.2322 93.5135 73.2784L93.4657 73.3246C93.4179 73.3707 93.4179 73.4169 93.37 73.4631C93.3222 73.5092 93.2744 73.5554 93.2266 73.6016C93.1788 73.6016 93.1788 73.6477 93.131 73.6477C93.131 73.6477 93.131 73.6477 93.0832 73.6477C93.0832 73.6477 92.9876 73.6939 92.9398 73.6939C92.8919 73.6939 92.8919 73.6939 92.8441 73.6939C92.6529 73.6939 92.5094 73.6939 92.3182 73.6939C92.2704 73.6939 92.1748 73.6939 92.1269 73.6939C92.1269 73.6939 92.1269 73.6939 92.1748 73.6939H92.1269C92.0791 73.6939 92.0791 73.6939 92.0313 73.6939C91.9357 73.6939 91.8879 73.6939 91.7923 73.6477C91.6488 73.6016 91.5532 73.6016 91.4098 73.5554C91.362 73.5554 91.3142 73.5554 91.2663 73.5092C91.2663 73.5092 91.2185 73.5092 91.2185 73.4631C91.1229 73.4169 91.0273 73.3707 90.9795 73.3246C90.9317 73.2784 90.8838 73.2784 90.7882 73.2322C90.7404 73.1861 90.7404 73.1861 90.6926 73.1861C90.6448 73.1861 90.597 73.0937 90.5492 73.0937C90.5013 73.0476 90.5014 73.0014 90.4535 72.9552C90.4535 72.9552 90.4057 72.8629 90.4057 72.8167C90.4057 72.7706 90.3579 72.6782 90.3579 72.6782V72.6321C90.3579 72.5859 90.3579 72.5859 90.3579 72.5859C90.3579 72.5397 90.3579 72.4936 90.3579 72.4474C90.3579 72.4012 90.3579 72.4012 90.3579 72.3551C90.3579 72.3089 90.4057 72.2166 90.4057 72.1704C90.4057 72.1242 90.4535 72.0319 90.4535 71.9857C90.4535 71.9857 90.4535 71.9857 90.4535 71.9396C90.4535 71.9396 90.4535 71.9396 90.5013 71.8934C90.5492 71.8011 90.597 71.6626 90.6926 71.5702C90.6926 71.5702 90.7404 71.5702 90.7404 71.5241C90.7882 71.4779 90.836 71.4317 90.9317 71.3394C90.9795 71.2932 91.0273 71.2471 91.0751 71.2009C91.1229 71.2009 91.1229 71.1547 91.1229 71.1547C91.2185 71.0624 91.4098 70.9701 91.5532 70.9239C91.7445 70.7854 91.8879 70.6469 91.9835 70.4622C92.1748 70.5084 92.4138 70.5546 92.6051 70.6469H92.6529C92.7007 70.6469 92.7007 70.6931 92.7485 70.6931C92.7963 70.6931 92.8919 70.7392 92.9876 70.7854L93.0354 70.8316C93.0832 70.8777 93.131 70.9239 93.1788 70.9239C93.1788 70.9239 93.1788 70.9239 93.2266 70.9701C93.2266 71.0162 93.3222 71.1086 93.37 71.1547C93.4179 71.2009 93.4179 71.2471 93.4657 71.2932C93.5135 71.4317 93.5613 71.5241 93.5613 71.6626C93.5613 71.7549 93.6091 71.8011 93.6091 71.8934V71.9396C93.6091 71.9857 93.6091 72.1242 93.6091 72.1242C93.6091 72.2166 93.6091 72.3551 93.6091 72.4474C93.6091 72.5859 93.6091 72.7244 93.6091 72.8167Z" fill="#1E1E1E"/>
<g clip-path="url(#clip1)">
<path d="M51.6001 118.884C52.1334 115.465 52.2668 112.182 51.8667 108.763C51.6001 107.122 50.2667 106.438 49.0667 106.985C48.4001 106.711 47.7334 106.711 47.2001 107.122C47.3334 105.754 47.4667 104.523 47.4667 103.155C47.6001 100.693 47.7334 98.0945 48.1334 95.6325C48.5334 92.7603 49.3334 90.0247 49.3334 87.1524C49.4667 81.8182 46.6667 77.4414 44.0001 73.2013C41.0667 68.5509 38.8001 63.627 37.3334 58.2928C36.9334 56.925 35.4667 56.2411 34.4001 56.925C32.0001 58.5663 30.5334 60.7547 29.3334 63.3535C28.0001 66.3625 26.8001 69.5084 25.4668 72.5174C22.9334 78.6724 19.8668 84.8273 19.4668 91.666C19.0668 98.5048 20.5334 105.344 20.4001 112.319C20.4001 113.824 20.1334 115.328 20.8001 116.559C21.6001 117.79 22.8001 118.201 24.1334 118.337C27.6001 118.748 31.0668 119.158 34.5334 119.432C36.5334 119.705 38.4001 119.842 40.4001 120.115C42.0001 120.252 44.0001 120.799 45.4667 119.979C45.8667 119.705 46.1334 119.432 46.4001 119.158C46.9334 120.115 47.6001 120.936 48.4001 121.757C50.0001 123.535 52.5334 121.21 51.6001 119.295C51.4668 119.158 51.6001 119.021 51.6001 118.884ZM34.8001 85.2376C33.6001 85.5111 32.4001 85.2376 31.4668 84.4169C30.8001 83.7331 30.4001 82.7756 30.4001 81.8182C30.4001 81.6814 30.4001 81.6814 30.4001 81.5446C30.2668 80.8608 30.5334 80.1769 30.8001 79.6298C31.2001 78.5356 31.7334 77.4414 32.5334 76.6207C32.9334 76.2104 33.7334 76.2104 34.1334 76.6207C34.5334 76.6207 34.8001 76.6207 35.2001 76.7575C36.4001 77.031 37.7334 77.8517 38.1334 79.2195C38.8001 81.6814 37.2001 84.8273 34.8001 85.2376Z" fill="white"/>
<path d="M44.9337 147.744C46.8003 143.641 46.667 138.17 42.9337 135.024C41.2003 133.519 39.067 132.562 36.9337 132.152C34.5337 131.604 31.7337 131.194 29.467 132.425C27.467 133.519 26.1337 135.571 25.6003 137.759C25.067 140.085 24.8003 143.094 25.3337 145.282C26.0003 147.47 27.467 149.522 28.667 151.3C30.0003 153.215 31.3337 155.13 32.267 157.182C32.267 157.182 32.267 157.318 32.4003 157.318C32.9337 158.549 34.267 159.644 35.6003 159.507C37.6003 159.37 38.667 158.002 38.9337 156.087C38.8003 156.635 38.9337 156.087 38.9337 155.951C38.9337 155.814 39.067 155.677 39.067 155.404C39.067 155.267 39.2003 155.13 39.2003 155.13C39.3337 154.993 39.467 154.72 39.6003 154.583C39.7337 154.446 39.867 154.309 39.867 154.173C39.867 154.036 40.0003 154.036 40.0003 153.899C40.4003 153.489 40.667 153.078 41.067 152.668C42.1337 151.574 43.067 150.343 44.0003 149.112C44.267 148.838 44.5337 148.428 44.667 148.018C44.8003 148.154 44.9337 147.881 44.9337 147.744Z" fill="#F7C300"/>
<path d="M52.8003 104.796C52.1337 104.112 51.467 103.702 50.5337 103.702C49.7337 103.702 48.667 103.976 48.1337 104.523C46.9337 105.754 46.5337 108.079 47.867 109.31C47.867 109.31 48.1337 109.583 48.267 109.72C48.267 109.857 48.4003 109.857 48.4003 109.994C48.4003 110.131 48.5337 110.267 48.5337 110.404C48.5337 110.541 48.667 110.814 48.667 110.814C48.9337 111.909 49.2003 113.276 49.2003 114.507C49.2003 114.644 49.2003 114.644 49.2003 114.644C49.2003 115.055 49.2003 115.328 49.2003 115.738C49.2003 116.422 49.2003 116.969 49.067 117.653C49.067 118.337 48.9337 118.884 48.8003 119.568C48.8003 119.842 48.667 120.115 48.667 120.252C48.667 120.389 48.5337 120.662 48.5337 120.799C48.1337 122.577 48.8003 124.629 50.5337 125.176C52.1337 125.723 54.267 124.902 54.8003 123.124C55.6003 119.842 55.867 116.696 55.6003 113.276C55.467 110.404 54.9337 106.848 52.8003 104.796Z" fill="#F7C300"/>
<path d="M21.7332 119.979C21.5999 119.432 21.4665 118.748 21.3332 118.201C21.0665 116.423 20.9332 114.508 20.9332 112.593C20.9332 111.636 21.0665 110.815 21.0665 109.858C21.3332 107.806 20.2665 105.754 18.7999 105.754C17.3332 105.617 15.8665 107.122 15.7332 109.31C15.1999 114.098 15.5999 119.021 16.6665 123.398C17.1999 125.176 18.9332 126.134 20.1332 125.176C21.5999 124.082 22.2665 121.894 21.7332 119.979Z" fill="#F7C300"/>
<path d="M39.2002 77.8516C38.1335 75.3896 35.0668 73.8851 32.5335 74.9793C32.1335 75.1161 31.7335 75.3896 31.4668 75.6632C30.9335 75.6632 30.4002 76.0735 30.0002 76.6206C28.6668 78.5355 27.7335 80.8607 28.1335 83.3226C28.2668 84.4168 28.8002 85.5111 29.6002 86.3317C30.5335 87.2891 31.7335 87.8362 32.9335 87.973C35.2002 88.2466 37.3335 87.0156 38.5335 85.1007C40.0002 82.9123 40.2668 80.1768 39.2002 77.8516ZM36.0002 81.9549C36.0002 81.9549 36.0002 82.0917 35.8668 82.2284V82.3652C35.8668 82.502 35.7335 82.502 35.7335 82.6388C35.6002 82.7755 35.6002 82.9123 35.4668 83.0491L35.3335 83.1859C35.2002 83.3226 35.0668 83.4594 34.9335 83.5962L34.8002 83.733C34.6668 83.8697 34.5335 83.8697 34.4002 84.0065H34.2668C34.2668 84.0065 34.1335 84.0065 34.0002 84.1433C34.0002 84.1433 34.0002 84.1433 33.8668 84.1433C33.7335 84.1433 33.6002 84.1433 33.6002 84.1433H33.4668C33.3335 84.1433 33.2002 84.0065 33.0668 84.0065C32.9335 84.0065 32.9335 83.8697 32.8002 83.8697L32.6668 83.733C32.6668 83.5962 32.5335 83.5962 32.5335 83.4594C32.6668 83.5962 32.5335 83.4594 32.5335 83.3226C32.5335 83.1859 32.4002 82.9123 32.4002 82.7755C32.4002 82.6388 32.4002 82.6388 32.4002 82.502C32.4002 82.3652 32.4002 82.0917 32.4002 81.9549C32.4002 81.8181 32.5335 81.5446 32.5335 81.5446C32.5335 81.4078 32.6668 81.1342 32.6668 80.9975C32.6668 80.8607 32.6668 80.7239 32.8002 80.7239C32.5335 81.1342 32.8002 80.7239 32.8002 80.5871C32.9335 80.3136 33.0668 80.1768 33.0668 79.9032C33.3335 79.4929 33.4668 79.2194 33.7335 78.809C33.8668 78.809 34.0002 78.809 34.0002 78.6723C34.1335 78.5355 34.4002 78.5355 34.5335 78.5355C34.5335 78.5355 34.5335 78.5355 34.6668 78.5355H34.8002C34.9335 78.5355 34.9335 78.5355 35.0668 78.5355C35.2002 78.5355 35.2002 78.5355 35.3335 78.5355C35.4668 78.5355 35.7335 78.6723 35.4668 78.5355C35.2002 78.3987 35.6002 78.6723 35.7335 78.6723C35.7335 78.6723 35.7335 78.6723 35.8668 78.6723C35.8668 78.6723 36.0002 78.809 36.1335 78.9458C36.1335 78.9458 36.1335 78.9458 36.1335 79.0826C36.1335 79.2194 36.2668 79.2194 36.2668 79.3561L36.4002 79.4929C36.4002 79.6297 36.5335 79.9032 36.5335 80.04V80.1768V80.3136C36.5335 80.5871 36.5335 80.7239 36.5335 80.9975C36.5335 81.1342 36.5335 81.1342 36.5335 81.271C36.0002 81.5446 36.0002 81.8181 36.0002 81.9549Z" fill="#1E1E1E"/>
<path d="M51.4671 100.83C51.3338 100.693 51.2005 100.556 51.0671 100.42L50.6671 100.009V99.4622C52.5338 83.0491 47.3338 66.9096 36.4005 54.8733C35.7338 54.1895 35.2005 54.1895 34.6671 54.463L34.2671 54.5998L33.8671 54.3262C33.4671 54.0527 32.6671 53.6424 32.0005 54.5998C21.4671 68.4141 16.0005 84.4169 16.5338 99.4622V99.599L16.4005 99.7358C12.8005 107.669 11.4671 114.644 12.5338 121.073C12.6671 122.167 13.4671 125.86 15.7338 127.228C16.6671 127.775 17.6005 127.912 18.8005 127.638C20.6671 127.091 21.2005 125.45 21.8671 123.535L23.2005 119.842L23.8671 119.979C24.4005 120.115 24.8005 120.115 25.3338 120.115C25.6005 120.115 26.0005 120.115 26.2671 120.252C27.4671 120.389 28.6671 120.526 29.8671 120.662C35.2005 121.21 39.6005 121.21 43.7338 120.526H43.8671L44.5338 120.252L44.9338 120.799C45.4671 121.757 45.8671 122.851 46.1338 123.808C46.5338 124.766 46.8005 125.723 47.3338 126.544C47.7338 127.365 48.5338 127.775 49.3338 127.775C50.1338 127.775 50.9338 127.228 51.4671 126.544C52.2671 125.176 52.6671 123.398 53.0671 121.757V121.62C55.0671 115.055 54.4005 107.669 51.4671 100.83ZM18.0005 124.766L17.0671 123.261C16.8005 122.577 16.6671 122.03 16.5338 121.483V121.346C16.2671 119.979 16.1338 118.611 16.1338 117.106C16.1338 115.055 16.4005 112.866 16.8005 110.541L17.4671 107.258L18.2671 110.541C18.6671 112.182 19.0671 113.55 19.6005 114.918V115.055L19.7338 115.465C19.8671 116.012 20.1338 116.559 20.4005 117.243L20.5338 117.517L18.0005 124.766ZM41.8671 117.106L41.6005 117.517H41.2005C40.0005 117.653 38.6671 117.653 37.3338 117.653C35.6005 117.653 33.7338 117.517 31.6005 117.38C29.7338 117.243 27.7338 116.969 26.1338 116.696C26.0005 116.696 25.8671 116.696 25.7338 116.559C25.4671 116.559 25.2005 116.422 25.0671 116.422C24.9338 116.422 24.8005 116.422 24.6671 116.422H24.4005L24.2671 116.286C23.8671 115.875 23.4671 114.644 23.3338 114.234C23.3338 114.097 23.2005 113.96 23.2005 113.96C21.7338 109.584 20.8005 105.07 20.5338 100.42V100.283V100.146C20.6671 99.599 20.6671 99.1887 20.5338 98.7784L20.4005 98.5048C20.1338 85.1008 24.8005 71.1497 33.7338 58.9766L34.2671 58.156L34.9338 58.9766C48.8005 74.8426 51.6005 98.2313 41.8671 117.106ZM50.2671 119.568C50.2671 119.705 50.2671 119.705 50.2671 119.842L49.7338 122.304L48.6671 120.252C48.0005 118.884 47.3338 117.927 46.5338 117.106L46.1338 116.696L46.4005 116.149C47.3338 113.96 48.1338 111.772 48.8005 109.584L49.8671 106.164L50.4005 109.72C50.6671 111.362 50.8005 112.729 50.8005 114.097C50.6671 116.012 50.5338 117.79 50.2671 119.568Z" fill="#1E1E1E"/>
<path d="M43.5999 136.802V136.529C42.3999 131.741 37.5999 129.963 33.7333 129.963H33.5999C29.3333 129.963 23.8666 131.878 21.3333 136.802C18.7999 141.863 21.0666 147.197 23.1999 151.437C24.2666 153.489 25.5999 155.54 26.7999 157.592C28.2666 160.054 29.8666 162.516 31.1999 165.115C31.5999 166.072 32.3999 166.072 32.7999 165.935C33.5999 165.799 34.3999 165.115 34.5333 164.02C34.7999 159.37 36.2666 154.993 39.1999 150.753L39.3333 150.48C41.8666 146.65 44.2666 142.957 44.2666 138.307C44.2666 137.76 44.1333 137.349 43.7333 137.076L43.5999 136.802ZM40.6666 139.127C40.3999 142.547 38.5333 145.282 36.6666 148.018C35.9999 148.975 35.4666 149.933 34.7999 150.89C33.7333 152.668 32.9333 154.72 32.2666 156.771L31.7333 158.413L29.9999 155.677C29.3333 154.72 28.7999 153.762 28.1333 152.805L27.7333 152.121C25.8666 149.112 23.4666 145.282 23.5999 141.589C23.7333 137.486 27.3333 134.75 30.7999 134.067C32.5333 133.656 36.2666 133.383 38.3999 135.024C39.3333 135.708 39.8666 136.665 39.9999 137.76C39.9999 138.17 40.1333 138.443 40.3999 138.854L40.5333 139.127H40.6666Z" fill="#1E1E1E"/>
<path d="M9.73308 99.7356C8.53308 99.4621 7.73308 100.146 7.33308 101.103C5.86641 104.933 5.06641 109.036 5.06641 113.14C5.06641 114.234 5.99974 115.191 7.06641 115.191C8.13308 115.191 9.06641 114.234 9.06641 113.14C9.06641 112.182 9.06641 111.088 9.19974 110.131C9.19974 109.857 9.19974 109.72 9.33308 109.447C9.33308 109.31 9.33308 109.31 9.33308 109.31C9.33308 109.31 9.33308 109.31 9.33308 109.173C9.46641 108.626 9.46641 108.216 9.59974 107.669C9.99974 105.754 10.5331 103.839 11.1997 102.061C11.5997 101.24 10.6664 100.009 9.73308 99.7356Z" fill="#1E1E1E"/>
<path d="M4.8 97.821C4.8 97.5475 4.66667 97.274 4.53333 97.0005L4.26667 96.59C4 96.3165 3.73333 96.1797 3.33333 96.0429C3.2 96.0429 2.93333 96.043 2.8 95.9062C2.4 95.9062 2.13333 96.0429 1.73333 96.1797C1.46667 96.3165 1.2 96.59 1.06667 96.7268C0.933333 96.8636 0.8 97.1371 0.666667 97.2739L0.533333 97.4107L0.4 97.5476C0.266667 97.8211 0.266667 97.9578 0.133333 98.2314C0.133333 98.3681 0 98.505 0 98.6418C0 99.1889 0 99.4624 0 99.736C0 100.009 0.133333 100.283 0.266667 100.557C0.4 100.83 0.533333 100.967 0.8 101.104C0.933333 101.24 1.2 101.377 1.46667 101.514C1.6 101.514 1.86667 101.514 2 101.651C2.4 101.651 2.66667 101.514 3.06667 101.377C3.2 101.24 3.33333 101.104 3.46667 101.104C3.73333 100.83 3.86667 100.557 4 100.146C4 100.009 4 100.009 4.13333 99.8727L4.26667 99.736L4.13333 99.8727C4.13333 99.8727 4.13333 99.8728 4.13333 99.736C4.26667 99.5992 4.4 99.5991 4.4 99.4623C4.53333 99.3256 4.66666 99.052 4.8 98.7785C4.8 98.3681 4.93333 98.0946 4.8 97.821Z" fill="#F7C300"/>
<path d="M55.8662 69.7818C55.4662 68.8243 54.5329 68.0037 53.4662 68.414C52.5329 68.6875 51.7329 69.9185 52.1329 70.876C53.4662 74.9792 54.1329 78.9457 54.1329 83.1858C54.1329 84.28 55.0662 85.2374 56.1329 85.2374C57.1996 85.2374 58.1329 84.28 58.1329 83.1858C57.9996 78.5354 57.3329 74.0218 55.8662 69.7818Z" fill="#1E1E1E"/>
<path d="M63.8667 73.0644C63.7334 72.7909 63.6 72.6541 63.4667 72.3806C63.3334 72.2438 63.0667 72.107 62.8 71.9702C62.5334 71.8335 62.2667 71.8335 62 71.8335C61.8667 71.8335 61.6 71.8335 61.4667 71.9702C61.0667 72.107 60.8 72.2438 60.5334 72.5173L60.2667 72.9277C60.1334 73.2012 60 73.6115 60 74.0219V74.569C60 74.8425 60 75.1161 60.1334 75.3896C60.2667 75.6632 60.4 75.8 60.5334 76.0735C60.6667 76.2103 60.9334 76.3471 61.2 76.4838C61.4667 76.6206 61.7334 76.6206 62 76.6206C62.1334 76.6206 62.4 76.6206 62.5334 76.4838C62.9334 76.3471 63.2 76.2103 63.4667 75.9367L63.7334 75.5264C63.8667 75.2529 64 74.8425 64 74.4322V73.8851C64 73.6115 64 73.338 63.8667 73.0644Z" fill="#F7C300"/>
</g>
<g clip-path="url(#clip2)">
<path d="M105.024 54.2643C104.031 53.6843 103.013 54.1226 102.382 54.9603C101.145 56.5843 99.8819 58.2083 98.5932 59.7936C97.9359 60.6055 97.2787 61.4175 96.6086 62.2037C96.2606 62.6291 95.9127 63.0415 95.5648 63.4539C95.5132 63.5055 95.4745 63.5699 95.423 63.6215C95.3714 63.5828 95.3328 63.5441 95.2812 63.4926C94.7658 63.0801 94.2761 62.6291 93.8121 62.1522C92.9358 61.25 92.2657 60.3864 91.6085 59.3167C91.0543 58.4274 89.8688 58.0794 88.9538 58.6207C88.0646 59.1362 87.7166 60.3735 88.2579 61.2628C89.276 62.8868 90.5002 64.4077 91.9178 65.6965C92.6394 66.3539 93.4255 66.9725 94.2374 67.5138C95.4101 68.3 96.6859 68.0552 97.588 67.0112C100.423 63.7504 103.104 60.3478 105.707 56.9065C106.351 56.0687 105.849 54.7412 105.024 54.2643Z" fill="#F7C300"/>
</g>
<g clip-path="url(#clip3)">
<path fill-rule="evenodd" clip-rule="evenodd" d="M242.068 8.85726C240.565 4.52727 236.847 1.03163 231.3 1.10011C209.047 1.46592 186.942 4.09916 164.827 6.73359C150.669 8.42016 136.507 10.1072 122.3 11.2001C85.538 14.0971 48.6763 14.8985 11.9141 15.6976L11.8 15.7001C5.4 15.9001 0 21.0001 0 27.5001C0 33.8001 5.4 39.4001 11.8 39.3001C14.55 39.2501 17.325 39.1751 20.1 39.1001C22.875 39.0251 25.65 38.9501 28.4 38.9001C29.8 43.8001 34.4 47.2001 39.7 47.5001C72.8 49.1001 106 49.0001 139 46.9001C144.044 46.5944 149.087 46.242 154.131 45.8429C155.635 50.1729 159.353 53.6685 164.9 53.6C187.153 53.2342 209.258 50.601 231.372 47.9666C245.53 46.28 259.692 44.5929 273.9 43.5C310.662 40.603 347.524 39.8017 384.286 39.0025L384.4 39C390.8 38.9 396.2 33.7 396.2 27.2C396.2 20.9 390.8 15.3 384.4 15.4C381.65 15.45 378.875 15.525 376.1 15.6C373.325 15.675 370.55 15.75 367.8 15.8C366.4 10.9 361.8 7.50005 356.5 7.20005C323.4 5.60005 290.2 5.70004 257.2 7.80004C252.156 8.10573 247.112 8.45813 242.068 8.85726Z" fill="#59C69F"/>
<path d="M53.7996 9.10017C52.4996 12.3001 51.0996 15.7001 49.3996 19.2001C47.6996 22.7001 45.7996 26.2001 43.4996 29.6001C42.8996 30.6001 42.0996 31.1001 41.2996 31.1001C40.7996 31.1001 40.3996 31.0001 39.9996 30.7001C39.6996 30.5001 39.3996 30.2001 39.0996 29.8001C37.9996 28.1001 36.9996 26.2001 36.0996 24.3001C35.1996 22.4001 34.2996 20.2001 33.4996 17.7001C32.2996 19.9001 30.8996 22.1001 29.2996 24.4001C27.7996 26.6001 26.0996 28.7001 24.2996 30.7001C23.9996 31.1001 23.5996 31.3001 23.1996 31.5001C22.7996 31.6001 22.4996 31.7001 22.2996 31.6001C21.3996 31.5001 20.6996 30.9001 20.1996 29.9001C18.5996 26.9001 17.4996 23.7001 16.9996 20.1001C16.3996 16.5001 16.0996 12.9001 16.0996 9.10017C16.0996 8.80017 16.1996 8.40017 16.4996 8.10017C16.7996 7.80017 17.0996 7.60017 17.6996 7.60017C18.4996 7.60017 19.0996 7.90016 19.4996 8.50016C19.8996 9.00016 20.1996 9.70016 20.2996 10.5001C20.3996 11.6001 20.4996 12.8001 20.5996 14.2001C20.6996 15.6001 20.8996 16.9001 21.0996 18.4001C21.2996 19.8001 21.5996 21.2001 21.8996 22.5001C22.1996 23.8001 22.6996 25.0001 23.1996 26.0001C23.7996 25.2001 24.4996 24.3001 25.2996 23.3001C25.9996 22.3001 26.7996 21.3001 27.4996 20.2001C28.1996 19.1001 28.8996 18.0001 29.4996 16.9001C30.0996 15.8001 30.6996 14.7001 31.1996 13.6001C31.4996 12.9001 31.9996 12.4001 32.4996 12.2001C32.9996 12.0001 33.3996 11.9001 33.6996 11.9001C34.9996 11.9001 35.8996 12.5001 36.2996 13.8001C36.9996 15.6001 37.7996 17.5001 38.4996 19.6001C39.2996 21.6001 40.0996 23.5001 40.9996 25.4001C41.7996 24.2001 42.5996 22.8001 43.3996 21.3001C44.1996 19.8001 44.9996 18.3001 45.7996 16.7001C46.5996 15.1001 47.2996 13.5001 47.9996 12.0001C48.6996 10.4001 49.2996 8.90016 49.8996 7.50016C50.0996 7.00016 50.4996 6.60017 50.9996 6.20017C51.4996 5.90017 52.0996 5.90017 52.6996 6.30017C53.1996 6.60017 53.4996 7.10017 53.6996 7.80017C53.9996 8.10017 53.9996 8.70017 53.7996 9.10017Z" fill="#1E1E1E" stroke="#1E1E1E" stroke-width="0.6006" stroke-miterlimit="10"/>
<path d="M74.0001 18.8001C72.3001 19.8001 70.5001 20.6001 68.6001 21.1001C66.7001 21.6001 64.6001 21.9001 62.3001 21.9001C62.4001 23.4001 62.8001 24.6001 63.6001 25.5001C64.4001 26.4001 65.3001 26.9001 66.5001 27.1001C67.2001 27.2001 67.9001 27.2001 68.6001 27.0001C69.3001 26.9001 70.0001 26.7001 70.6001 26.4001C71.2001 26.1001 71.8001 25.8001 72.3001 25.5001C72.8001 25.2001 73.3001 24.8001 73.7001 24.5001C74.1001 24.2001 74.5001 23.9001 74.9001 23.8001C75.3001 23.7001 75.7001 23.7001 75.9001 23.8001C76.5001 24.0001 76.7001 24.7001 76.5001 25.7001C75.8001 27.1001 74.8001 28.3001 73.5001 29.2001C72.2001 30.2001 70.8001 30.8001 69.2001 31.0001C67.8001 31.3001 66.4001 31.2001 64.9001 30.8001C63.4001 30.4001 62.1001 29.7001 61.0001 28.5001C60.0001 27.5001 59.3001 26.3001 58.7001 25.0001C58.2001 23.7001 57.9001 22.3001 57.7001 20.9001C57.6001 19.6001 57.7001 18.3001 58.1001 17.1001C58.5001 15.9001 59.0001 14.8001 59.8001 13.9001C60.6001 13.0001 61.5001 12.2001 62.7001 11.6001C63.9001 11.0001 65.2001 10.7001 66.8001 10.6001C68.7001 10.5001 70.3001 10.8001 71.8001 11.6001C73.3001 12.4001 74.4001 13.6001 75.0001 15.0001C75.3001 15.8001 75.4001 16.5001 75.3001 17.1001C75.2001 17.8001 74.7001 18.4001 74.0001 18.8001ZM66.6001 14.5001C66.2001 14.6001 65.7001 14.7001 65.2001 15.0001C64.7001 15.2001 64.3001 15.5001 63.8001 15.8001C63.4001 16.1001 63.0001 16.5001 62.7001 16.9001C62.4001 17.3001 62.2001 17.8001 62.2001 18.3001C62.9001 18.3001 63.7001 18.2001 64.6001 18.1001C65.5001 18.0001 66.3001 17.8001 67.2001 17.6001C68.0001 17.4001 68.8001 17.2001 69.5001 16.9001C70.2001 16.6001 70.8001 16.4001 71.3001 16.1001C71.0001 15.3001 70.3001 14.8001 69.4001 14.6001C68.4001 14.3001 67.5001 14.3001 66.6001 14.5001Z" fill="#1E1E1E" stroke="#1E1E1E" stroke-width="0.6006" stroke-miterlimit="10"/>
<path d="M114 17.3999C113.7 17.5999 113.3 17.5999 112.9 17.5999C112.5 17.4999 112.1 17.2999 111.8 16.7999C111.1 15.8999 110.3 15.3999 109.3 15.3999C108.4 15.3999 107.6 15.5999 106.9 15.9999C106.2 16.3999 105.6 16.8999 105 17.5999C104.5 18.2999 104 18.9999 103.7 19.7999C103.4 20.5999 103.1 21.3999 103 22.2999C102.8 23.7999 103 25.0999 103.8 26.0999C104.5 27.0999 105.7 27.6999 107.2 27.6999C108.4 27.6999 109.9 27.4999 111.4 26.9999C113 26.4999 114.4 25.7999 115.8 24.8999C116.4 24.5999 117 24.4999 117.5 24.3999C118 24.3999 118.4 24.5999 118.8 25.1999C119.2 25.8999 119.1 26.5999 118.5 27.2999C117.9 27.9999 117 28.5999 115.9 29.1999C114.8 29.7999 113.7 30.2999 112.5 30.7999C111.3 31.2999 110.1 31.5999 108.9 31.7999C107.7 31.9999 106.5 31.9999 105.3 31.7999C104.1 31.5999 103 31.1999 102 30.5999C100.4 29.4999 99.3998 27.8999 98.9998 25.7999C98.5998 23.6999 98.7998 21.5999 99.4998 19.3999C99.7998 18.5999 100.1 17.7999 100.6 16.8999C101.1 16.0999 101.6 15.2999 102.3 14.5999C103 13.8999 103.7 13.2999 104.5 12.7999C105.3 12.2999 106.2 11.9999 107.2 11.7999C108.8 11.4999 110.3 11.6999 111.8 12.2999C113.3 12.8999 114.2 13.8999 114.7 15.4999C114.8 15.7999 114.8 16.1999 114.7 16.5999C114.6 16.8999 114.4 17.1999 114 17.3999Z" fill="#1E1E1E" stroke="#1E1E1E" stroke-width="0.6006" stroke-miterlimit="10"/>
<path d="M138.7 10.1003C138.9 11.3003 139 12.6002 139.1 13.9002C139.2 15.3002 139.3 16.6002 139.4 18.0002C139.5 19.4002 139.5 20.7002 139.5 22.0002C139.5 23.3002 139.5 24.5002 139.4 25.5002C140.8 26.4002 141.6 27.3002 141.9 28.0002C142.2 28.7002 142.2 29.4002 142 29.9002C141.7 30.7002 141.3 31.1003 140.6 31.1003C139.9 31.1003 139.2 30.9002 138.3 30.4002C137.7 30.8002 137 31.3002 136.2 31.8002C135.4 32.3002 134.6 32.8003 133.7 33.2003C132.8 33.7003 132 34.1002 131.1 34.4002C130.2 34.7002 129.4 35.0003 128.7 35.1003C127.3 35.3003 126.1 35.1002 125 34.3002C123.9 33.6002 123.2 32.5002 122.8 31.0002C122.5 30.0002 122.5 29.0002 122.6 27.9002C122.7 26.8002 123.1 25.8002 123.6 24.9002C124.1 23.9002 124.8 23.1002 125.7 22.3002C126.6 21.5002 127.6 20.9002 128.8 20.5002C129.1 20.4002 129.5 20.3003 130.1 20.2003C130.6 20.1002 131.2 20.1003 131.8 20.1003C132.4 20.1003 133 20.2002 133.6 20.5002C134.2 20.7002 134.8 21.1003 135.3 21.6003C135.3 20.9003 135.3 20.1002 135.3 19.2003C135.3 18.3003 135.2 17.4002 135.2 16.5002C135.2 15.6002 135.1 14.7002 135 13.9002C134.9 13.1002 134.9 12.4002 134.8 11.9002C134.7 11.3002 134.5 10.9003 134.1 10.7003C133.7 10.5003 133.2 10.6002 132.6 10.8002C131.6 11.1002 130.4 11.8002 129 12.8002C127.6 13.8002 126.3 14.8002 125.1 16.0002C124.7 16.4002 124.3 16.6002 123.8 16.5002C123.3 16.5002 122.9 16.3002 122.5 15.9002C122.2 15.6002 122 15.2003 121.9 14.7003C121.9 14.2003 122 13.8003 122.4 13.2003C123.1 12.4003 124 11.6002 124.9 10.8002C125.8 10.0002 126.8 9.20029 127.7 8.60029C128.7 7.90029 129.7 7.40029 130.7 7.00029C131.7 6.60029 132.8 6.30029 133.8 6.30029C135.3 6.30029 136.5 6.60029 137.3 7.30029C138 8.10029 138.5 9.00029 138.7 10.1003ZM131.2 24.0002C130.6 24.1002 130 24.4002 129.4 24.8002C128.8 25.2002 128.2 25.7002 127.7 26.3002C127.2 26.9002 126.8 27.5002 126.6 28.2003C126.4 28.9003 126.4 29.6002 126.6 30.3002C126.7 30.6002 126.9 30.8002 127.1 30.9002C127.4 31.0002 127.7 31.1002 128 31.0002C129 30.8002 130.2 30.4003 131.5 29.7003C132.8 29.1002 133.9 28.4003 134.6 27.7003C134.6 27.4003 134.5 27.1002 134.2 26.7003C133.9 26.3003 133.6 25.9002 133.3 25.5002C133 25.1002 132.6 24.7002 132.2 24.4002C131.9 24.1002 131.5 24.0002 131.2 24.0002Z" fill="#1E1E1E" stroke="#1E1E1E" stroke-width="0.6006" stroke-miterlimit="10"/>
<path d="M149.8 12.7C149.9 13.3 150.1 14.1 150.2 14.9C150.3 15.7 150.5 16.5 150.7 17.4C150.9 18.2 151 19.1 151.2 20C151.3 20.9 151.4 21.7 151.5 22.5C152 21.4 152.6 20.2 153.2 18.9C153.8 17.7 154.5 16.5 155.2 15.4C155.9 14.3 156.7 13.5 157.5 12.8C158.3 12.1 159.2 11.8 160.1 11.8C161.5 11.8 162.7 12.3 163.7 13.4C164.7 14.4 165.5 15.7 166.2 17.2C166.9 18.7 167.4 20.3 167.8 22C168.2 23.7 168.5 25.2 168.8 26.5C169.1 27.7 168.5 28.5 167.2 29.1C166.6 29.4 166.1 29.4 165.8 29.2C165.5 29 165.3 28.8 165.3 28.6C165.1 28.1 164.8 27.2 164.5 25.9C164.2 24.6 163.8 23.3 163.4 22C163 20.7 162.5 19.5 162 18.5C161.5 17.5 160.9 17.1 160.3 17.1C159.5 17.1 158.8 17.7 158.2 18.8C157.7 19.7 157.2 20.7 156.6 21.8C156.1 22.9 155.5 24 155 25.2C154.5 26.3 154 27.5 153.5 28.6C153 29.7 152.5 30.8 152.1 31.7C151.8 32 151.4 32.2 151 32.3C150.5 32.4 150.1 32.4 149.6 32.2C149.2 32.1 148.8 31.9 148.6 31.6C148.3 31.3 148.2 31 148.2 30.7C147.8 27.3 147.4 24.3 147 21.5C146.6 18.7 146.1 15.9 145.4 13C145.1 12 145 11.2 145.2 10.6C145.4 10 146 9.80005 147.1 9.90005C148.6 10.1 149.5 11.1 149.8 12.7Z" fill="#1E1E1E" stroke="#1E1E1E" stroke-width="0.6006" stroke-miterlimit="10"/>
<path d="M195.7 5.40017C195.7 6.40017 195.7 7.60017 195.7 8.90017C195.7 10.2001 195.7 11.5001 195.7 12.9001C195.7 14.3001 195.7 15.7001 195.8 17.2001C195.8 18.7001 195.9 20.1001 195.9 21.4001C196.3 20.5001 196.8 19.7001 197.4 18.8001C198 17.9001 198.7 17.2001 199.4 16.6001C200.1 16.0001 201 15.4001 201.8 15.0001C202.6 14.6001 203.6 14.4001 204.5 14.4001C205.6 14.4001 206.5 14.7001 207.4 15.4001C208.2 16.1001 209 17.0001 209.6 18.1001C210.2 19.2001 210.8 20.5001 211.2 21.9001C211.6 23.3001 212 24.7001 212.3 26.2001C212.6 27.6001 212.8 29.0001 212.9 30.3001C213 31.6001 213.1 32.7001 213.2 33.7001C213.2 34.4001 213 35.0001 212.7 35.4001C212.4 35.8001 211.9 36.0001 211.5 36.0001C211.2 36.0001 210.7 35.8001 210.2 35.3001C209.7 34.8001 209.3 34.3001 209.1 33.7001C209 33.2001 208.8 32.4001 208.7 31.4001C208.6 30.4001 208.4 29.3001 208.2 28.2001C208 27.1001 207.8 25.9001 207.6 24.7001C207.3 23.5001 207 22.5001 206.7 21.6001C206.3 20.7001 205.9 20.0001 205.4 19.4001C204.9 18.9001 204.3 18.7001 203.6 18.8001C202.5 19.0001 201.6 19.8001 200.8 21.1001C200 22.4001 199.3 23.9001 198.7 25.5001C198.1 27.1001 197.6 28.8001 197.3 30.5001C196.9 32.2001 196.7 33.5001 196.5 34.6001C196.3 35.4001 196.1 35.9001 195.8 36.2001C195.5 36.5001 195.2 36.6001 194.9 36.6001C194.6 36.6001 194.2 36.4001 194 36.1001C193.7 35.8001 193.5 35.3001 193.2 34.8001C193 34.3001 192.8 33.8001 192.6 33.2001C192.4 32.7001 192.3 32.2001 192.3 31.8001C192.1 29.5001 191.9 27.2001 191.8 25.1001C191.7 23.0001 191.6 20.8001 191.5 18.7001C191.4 16.5001 191.4 14.3001 191.4 12.1001C191.4 9.80017 191.4 7.40017 191.5 4.80017C191.5 2.60017 192.3 1.70017 193.8 1.90017C194.3 2.00017 194.8 2.40017 195.2 3.00017C195.6 3.60017 195.7 4.60017 195.7 5.40017Z" fill="#1E1E1E" stroke="#1E1E1E" stroke-width="0.6006" stroke-miterlimit="10"/>
<path d="M233.5 18.8001C231.8 19.8001 230 20.6001 228.1 21.1001C226.2 21.6001 224.1 21.9001 221.8 21.9001C221.9 23.4001 222.3 24.6001 223.1 25.5001C223.9 26.4001 224.8 26.9001 226 27.1001C226.7 27.2001 227.4 27.2001 228.1 27.0001C228.8 26.9001 229.5 26.7001 230.1 26.4001C230.7 26.1001 231.3 25.8001 231.8 25.5001C232.3 25.2001 232.8 24.8001 233.2 24.5001C233.6 24.2001 234 23.9001 234.4 23.8001C234.8 23.7001 235.2 23.7001 235.4 23.8001C236 24.0001 236.2 24.7001 236 25.7001C235.3 27.1001 234.3 28.3001 233 29.2001C231.7 30.2001 230.3 30.8001 228.7 31.0001C227.3 31.3001 225.9 31.2001 224.4 30.8001C222.9 30.4001 221.6 29.7001 220.5 28.5001C219.5 27.5001 218.8 26.3001 218.2 25.0001C217.7 23.7001 217.4 22.3001 217.2 20.9001C217.1 19.6001 217.2 18.3001 217.6 17.1001C218 15.9001 218.5 14.8001 219.3 13.9001C220.1 13.0001 221 12.2001 222.2 11.6001C223.4 11.0001 224.7 10.7001 226.3 10.6001C228.2 10.5001 229.8 10.8001 231.3 11.6001C232.8 12.4001 233.9 13.6001 234.5 15.0001C234.8 15.8001 234.9 16.5001 234.8 17.1001C234.7 17.8001 234.2 18.4001 233.5 18.8001ZM226.1 14.5001C225.7 14.6001 225.2 14.7001 224.7 15.0001C224.2 15.2001 223.8 15.5001 223.3 15.8001C222.9 16.1001 222.5 16.5001 222.2 16.9001C221.9 17.3001 221.7 17.8001 221.7 18.3001C222.4 18.3001 223.2 18.2001 224.1 18.1001C225 18.0001 225.8 17.8001 226.7 17.6001C227.5 17.4001 228.3 17.2001 229 16.9001C229.7 16.6001 230.3 16.4001 230.8 16.1001C230.5 15.3001 229.8 14.8001 228.9 14.6001C228 14.3001 227 14.3001 226.1 14.5001Z" fill="#1E1E1E" stroke="#1E1E1E" stroke-width="0.6006" stroke-miterlimit="10"/>
<path d="M246 3.8C246.2 8.5 246.6 13.4 247.1 18.4C247.6 23.4 248.2 28.2 248.8 32.8C248.9 34.7 248.4 35.7 247.3 35.7C247 35.7 246.8 35.6 246.5 35.4C246.2 35.2 246 35 245.8 34.7C245.6 34.4 245.4 34.1 245.2 33.7C245 33.4 244.9 33.1 244.8 32.8C244.5 30.6 244.1 28.3 243.8 25.8C243.5 23.3 243.2 20.9 243 18.4C242.8 15.9 242.6 13.5 242.4 11.1C242.2 8.70001 242.1 6.60001 242.1 4.60001C242.2 3.60001 242.3 2.7 242.6 2C242.8 1.3 243.3 1 244 1C244.7 1 245.3 1.3 245.6 1.9C245.7 2.4 245.9 3 246 3.8Z" fill="#1E1E1E" stroke="#1E1E1E" stroke-width="0.6006" stroke-miterlimit="10"/>
<path d="M265 41.0998C265 41.5998 264.7 41.9998 264.4 42.3998C264 42.7998 263.6 42.9998 263.1 42.8998C262.4 42.8998 261.8 42.5998 261.4 42.0998C261 41.5998 260.8 41.1998 260.8 40.7998C260.8 39.1998 260.8 37.4998 260.7 35.6998C260.6 33.8998 260.5 32.0998 260.4 30.1998C259.8 30.2998 259.3 30.1998 258.9 29.9998C258.4 29.7998 258.1 29.4998 258 29.0998C257.7 28.3998 257.7 27.6998 258.1 27.1998C258.5 26.6998 259.1 26.0998 260 25.5998C259.8 23.9998 259.6 22.3998 259.4 20.8998C259.2 19.2998 259 17.7998 258.8 16.3998C258.8 16.0998 258.8 15.8998 258.9 15.6998C259 15.4998 259.1 15.2998 259.2 15.0998C259.3 14.8998 259.6 14.6998 259.9 14.5998C260.5 14.3998 261.1 14.5998 261.8 15.0998C262.5 15.6998 263 16.3998 263.3 17.1998C263.4 17.9998 263.6 18.9998 263.7 19.9998C263.9 21.0998 264 22.1998 264.1 23.4998C265 22.8998 265.9 22.2998 266.7 21.6998C267.5 21.0998 268.2 20.3998 268.8 19.5998C269.4 18.8998 269.8 18.0998 270.1 17.2998C270.4 16.4998 270.5 15.6998 270.4 14.7998C270.3 14.0998 270 13.3998 269.4 12.7998C268.8 12.1998 268 11.8998 266.8 11.8998C265.7 11.8998 264.7 11.8998 263.6 12.1998C262.5 12.3998 261.5 12.6998 260.5 12.9998C259.5 13.2998 258.5 13.7998 257.5 14.1998C256.5 14.6998 255.6 15.0998 254.7 15.5998C254.1 15.8998 253.5 16.0998 252.9 15.9998C252.3 15.8998 251.9 15.6998 251.8 15.3998C251.4 14.4998 251.4 13.7998 251.9 13.0998C252.4 12.3998 253.1 11.7998 254 11.1998C254.8 10.6998 255.8 10.1998 256.9 9.69974C258 9.19974 259.2 8.79974 260.5 8.39974C261.8 7.99974 263.1 7.79974 264.4 7.59974C265.7 7.39974 267 7.49974 268.2 7.69974C269.4 7.89974 270.5 8.29974 271.5 8.89974C272.5 9.49974 273.3 10.3998 273.9 11.5998C274.6 13.5998 274.8 15.3998 274.5 17.0998C274.2 18.7998 273.5 20.2998 272.6 21.5998C271.6 22.9998 270.4 24.1998 269 25.2998C267.6 26.3998 266.2 27.3998 264.8 28.1998C265 30.4998 265.2 32.7998 265.3 35.0998C265 37.2998 265.1 39.2998 265 41.0998Z" fill="#1E1E1E" stroke="#1E1E1E" stroke-width="0.6006" stroke-miterlimit="10"/>
<path d="M316.8 13.7C316.9 16 317.1 18.4 317.2 20.7C317.4 23.1 317.4 25.4 317.3 27.7C317.2 30 317 32.3 316.6 34.5C316.2 36.7 315.6 38.8 314.8 40.8C313.9 42.8 312.8 44.7 311.3 46.4C309.9 48.1 308 49.7 305.8 51.1C305.5 51.3 305.1 51.4 304.7 51.5C304.3 51.5 303.9 51.5 303.5 51.5C303.1 51.4 302.8 51.3 302.5 51.2C302.2 51 302 50.8 301.9 50.6C301.8 50.2 301.8 49.8 302.1 49.3C302.4 48.8 302.8 48.3 303.4 47.8C305.3 46.4 306.9 44.9 308.2 43.3C309.5 41.7 310.5 40 311.3 38.1C312.1 36.2 312.6 34.2 312.8 32.1C313 29.9 313 27.5 312.8 25C312.3 25.6 311.7 26.3 311 27C310.3 27.7 309.6 28.3 308.8 28.8C308 29.3 307.2 29.8 306.4 30.2C305.6 30.6 304.8 30.7 304.1 30.7C303.5 30.7 302.9 30.6 302.3 30.3C301.7 30 301.1 29.5 300.5 28.8C299.8 27.9 299.2 26.9 298.7 25.7C298.2 24.6 297.7 23.4 297.3 22.4C296.9 21.3 296.6 20.4 296.4 19.5C296.2 18.6 296 18 296 17.7C295.9 17.3 295.9 16.9 296 16.5C296.1 16.1 296.4 15.9 296.8 15.8C297.4 15.7 298 15.7 298.6 15.9C299.2 16.1 299.5 16.5 299.8 16.9C300 17.4 300.2 18.1 300.5 19.1C300.8 20.1 301.2 21.1 301.6 22C302 23 302.5 23.8 303 24.6C303.5 25.3 304 25.7 304.6 25.7C305.2 25.7 306 25.4 306.9 24.7C307.8 24.1 308.6 23.2 309.5 22.2C310.3 21.2 311 20 311.6 18.7C312.2 17.4 312.5 16.2 312.5 15C312.5 14.7 312.5 14.4 312.6 14.1C312.7 13.8 312.8 13.4 313 13.1C313.2 12.8 313.4 12.5 313.6 12.3C313.8 12.1 314.1 11.9 314.3 11.9C315 11.8 315.6 12 316.1 12.4C316.6 12.7 316.8 13.2 316.8 13.7Z" fill="#1E1E1E" stroke="#1E1E1E" stroke-width="0.6006" stroke-miterlimit="10"/>
<path d="M337.9 11.4999C339.2 11.9999 340.3 12.6999 341.2 13.5999C342.1 14.4999 342.8 15.5999 343.2 16.7999C343.6 17.9999 343.9 19.1999 344 20.3999C344.1 21.6999 343.9 22.7999 343.6 23.8999C343.1 25.0999 342.5 26.2999 341.8 27.4999C341.1 28.6999 340.2 29.6999 339.3 30.5999C338.4 31.4999 337.3 32.1999 336.1 32.7999C334.9 33.3999 333.6 33.5999 332.1 33.5999C330.3 33.5999 328.8 33.1999 327.6 32.3999C326.4 31.5999 325.4 30.4999 324.8 29.1999C324.1 27.8999 323.7 26.3999 323.5 24.7999C323.3 23.1999 323.3 21.4999 323.6 19.8999C323.8 18.6999 324.1 17.4999 324.5 16.3999C324.9 15.2999 325.4 14.1999 326.1 13.3999C326.7 12.4999 327.5 11.7999 328.3 11.1999C329.1 10.5999 330.1 10.3999 331.2 10.3999C331.8 10.3999 332.6 10.4999 333.5 10.7999C334.4 10.9999 335.2 11.3999 336 11.7999C336.4 11.1999 337.1 11.0999 337.9 11.4999ZM335.4 16.1999C334.9 15.8999 334.4 15.4999 333.8 14.9999C333.2 14.4999 332.6 14.2999 332.2 14.2999C331.7 14.2999 331.2 14.4999 330.7 14.9999C330.2 15.4999 329.8 15.9999 329.4 16.5999C329 17.1999 328.7 17.8999 328.5 18.4999C328.2 19.0999 328.1 19.6999 328 19.9999C327.9 20.5999 327.8 21.3999 327.7 22.2999C327.7 23.1999 327.7 24.0999 327.9 24.9999C328.1 25.8999 328.4 26.6999 328.9 27.3999C329.4 28.0999 330.1 28.5999 331.1 28.8999C331.7 29.0999 332.4 29.0999 333.2 28.8999C334 28.6999 334.8 28.3999 335.6 27.7999C336.4 27.2999 337.2 26.5999 337.9 25.6999C338.6 24.7999 339.2 23.7999 339.5 22.6999C339.9 21.4999 339.9 20.0999 339.5 18.7999C339.1 17.3999 338.3 16.4999 337 15.8999C336.7 16.0999 336.4 16.1999 336.1 16.1999C335.9 16.2999 335.6 16.2999 335.4 16.1999Z" fill="#1E1E1E" stroke="#1E1E1E" stroke-width="0.6006" stroke-miterlimit="10"/>
<path d="M354.7 14.9001C354.4 16.1001 354.2 17.3001 353.9 18.7001C353.6 20.1001 353.5 21.4001 353.4 22.7001C353.3 24.0001 353.3 25.2001 353.4 26.2001C353.5 27.2001 353.8 28.0001 354.2 28.4001C354.9 28.5001 355.8 28.2001 356.7 27.5001C357.6 26.7001 358.6 25.8001 359.5 24.6001C360.4 23.4001 361.2 22.2001 362 20.8001C362.7 19.4001 363.2 18.2001 363.5 17.2001C363.7 16.7001 363.8 16.1001 364 15.6001C364.1 15.0001 364.2 14.5001 364.2 13.9001C364.2 13.6001 364.4 13.2001 364.9 12.9001C365.4 12.6001 365.7 12.4001 366 12.4001C366.2 12.4001 366.5 12.4001 366.7 12.5001C367 12.6001 367.2 12.8001 367.5 13.0001C367.7 13.2001 368 13.5001 368.1 13.8001C368.3 14.1001 368.4 14.5001 368.4 14.8001C368.5 16.1001 368.6 17.5001 368.8 19.1001C369 20.7001 369.2 22.2001 369.4 23.8001C369.6 25.3001 369.9 26.9001 370.1 28.3001C370.4 29.8001 370.6 31.1001 370.9 32.2001C371 32.7001 370.9 33.2001 370.5 33.8001C370.1 34.4001 369.7 34.8001 369.2 34.9001C368.8 35.0001 368.4 34.9001 368 34.8001C367.6 34.6001 367.3 34.3001 367.1 33.8001C366.9 33.2001 366.7 32.5001 366.5 31.6001C366.3 30.7001 366.1 29.8001 366 28.8001C365.8 27.8001 365.7 26.9001 365.6 26.0001C365.5 25.1001 365.4 24.4001 365.3 23.8001C364.7 25.0001 363.9 26.1001 363 27.3001C362.1 28.5001 361.2 29.6001 360.2 30.5001C359.2 31.5001 358.1 32.2001 357 32.8001C355.9 33.3001 354.8 33.5001 353.6 33.4001C351.9 33.2001 350.6 31.6001 349.7 28.6001C349.4 27.4001 349.2 26.1001 349.2 24.6001C349.2 23.1001 349.3 21.7001 349.5 20.2001C349.7 18.8001 349.9 17.4001 350.2 16.1001C350.5 14.8001 350.7 13.8001 350.9 12.9001C351 12.6001 351.2 12.2001 351.4 12.0001C351.7 11.7001 352 11.6001 352.3 11.7001C352.9 11.8001 353.5 12.2001 354.1 12.9001C354.7 13.5001 354.9 14.2001 354.7 14.9001Z" fill="#1E1E1E" stroke="#1E1E1E" stroke-width="0.6006" stroke-miterlimit="10"/>
</g>
<g clip-path="url(#clip4)">
<path fill-rule="evenodd" clip-rule="evenodd" d="M81.8204 56.7426C80.3029 55.9429 78.6069 55.4098 76.9108 55.5875C74.5006 55.7652 72.4475 57.1868 70.4837 58.4308C69.1447 59.2305 68.252 60.119 67.5379 61.363C66.1989 64.9171 65.7526 68.7379 67.5379 72.3809C69.6803 76.6459 74.5006 78.9561 79.1424 77.6233C83.8735 76.2904 87.6227 72.292 87.9798 67.3162C88.2476 63.3178 85.8374 59.2305 82.5346 57.098C82.356 57.0091 82.0882 56.8314 81.8204 56.7426Z" fill="#F7C300"/>
<path d="M83.6057 58.5198C80.5706 54.7879 74.8576 52.5666 70.3943 55.0545C68.8768 55.8542 70.2157 58.1644 71.7333 57.3647C74.679 55.6765 78.4282 57.187 80.6599 59.3195C83.1593 61.7185 84.409 65.2727 83.6949 68.738C83.3379 70.4262 82.6237 72.2921 81.1062 73.2695C79.4994 74.2469 77.357 74.6024 75.4824 74.6912C72.1796 74.7801 68.609 73.1807 67.1807 70.0708C65.6632 66.5166 67.3592 62.3405 70.9299 60.9188C71.644 60.6523 72.0903 60.0303 71.8225 59.3195C71.644 58.6975 70.8406 58.0755 70.2157 58.3421C65.931 60.0303 63.3423 64.2064 64.1457 68.8268C64.8598 73.2695 68.8768 76.4683 73.2508 77.0903C75.7502 77.4457 78.4282 77.1791 80.8384 76.2906C83.1593 75.402 84.6768 73.9804 85.6588 71.6702C87.4441 67.3163 86.6407 62.1628 83.6057 58.5198Z" fill="black"/>
<path d="M82.0885 62.1628C81.3744 61.8074 80.6603 62.074 80.214 62.6071C79.3213 63.7622 78.5179 64.8284 77.6252 65.9835C77.1789 66.5166 76.7326 67.1386 76.2863 67.6717C76.0185 67.9383 75.8399 68.2048 75.5721 68.5603L75.4829 68.6491L75.3936 68.5603C75.0365 68.2937 74.6795 67.9383 74.4117 67.6717C73.7868 67.0497 73.3404 66.4278 72.8941 65.7169C72.537 65.0949 71.7337 64.8284 71.0195 65.2727C70.3947 65.6281 70.1269 66.5166 70.5732 67.1386C71.1088 68.116 72.0015 69.0934 72.9834 69.9819C73.519 70.4262 74.0546 70.8705 74.5902 71.2259C75.3936 71.759 76.2863 71.5813 76.9111 70.8705C78.875 68.6491 80.7496 66.25 82.5349 63.9399C82.9812 63.4068 82.6241 62.4294 82.0885 62.1628Z" fill="black"/>
</g>
<path d="M348.7 123.726C349.6 117.126 345.4 109.626 337.3 109.726C300.8 110.326 264.7 117.026 228.3 119.826C191.6 122.726 154.7 123.526 117.8 124.326C111.4 124.526 106 129.626 106 136.126C106 142.426 111.4 148.026 117.8 147.926C123.3 147.826 128.9 147.626 134.4 147.526C135.8 152.426 140.4 155.826 145.7 156.126C178.8 157.726 212 157.626 245 155.526C261.5 154.526 278 153.026 294.5 151.026C310.8 149.026 327.1 146.526 343.6 146.326C356.9 146.126 358.6 128.126 348.7 123.726Z" fill="#F7C300"/>
<path d="M130 137.126C130 137.326 130.1 137.526 130.1 137.826C130.1 138.126 130 138.426 129.9 138.826C129.8 139.226 129.6 139.426 129.4 139.626C129.2 139.826 128.8 140.026 128.4 140.026C127.5 139.426 126.7 138.626 126 137.626C125.7 136.326 125.3 134.826 125.1 133.126C124.8 131.426 124.6 129.726 124.4 127.826C124.2 126.026 124.1 124.126 124 122.226C123.9 120.326 123.9 118.526 124 116.726C124 116.426 124 116.026 124.1 115.526C124.2 115.026 124.3 114.626 124.5 114.126C124.7 113.626 124.9 113.326 125.1 112.926C125.4 112.626 125.7 112.426 126.2 112.426C126.8 112.426 127.2 112.626 127.6 112.926C128 113.226 128 114.126 128 114.826C128 116.526 128 118.426 128 120.326C128.1 122.326 128.2 124.226 128.4 126.226C128.6 128.226 128.8 130.126 129.1 132.026C129.4 133.926 129.7 135.626 130 137.126Z" fill="#1E1E1E" stroke="#1E1E1E" stroke-width="0.6006" stroke-miterlimit="10"/>
<path d="M138.4 130.926C137.8 131.026 137.1 130.926 136.3 130.726C135.5 130.526 135 129.926 134.7 129.126C134.6 128.726 134.5 128.326 134.6 127.826C134.7 127.426 135.1 127.126 136 126.926C136.8 126.726 137.6 126.626 138.5 126.426C139.4 126.226 140.3 126.126 141.2 126.026L138.8 118.826C138 116.026 137.9 113.726 138.5 111.726C139.1 109.726 140.7 108.326 143.3 107.426C144.4 107.126 145.4 106.926 146.5 107.026C147.6 107.126 148.6 107.426 149.5 107.826C150.4 108.326 151.3 108.926 152.1 109.726C152.9 110.526 153.5 111.426 154 112.426C154.2 112.926 154.3 113.326 154.3 113.726C154.3 114.126 154.2 114.426 153.9 114.726C153.5 115.126 153 115.326 152.5 115.226C152 115.126 151.6 115.026 151.5 114.826C151.1 114.326 150.7 113.826 150.2 113.326C149.7 112.826 149.3 112.426 148.8 112.026C148.3 111.626 147.8 111.426 147.2 111.226C146.6 111.026 146 111.026 145.4 111.026C145.1 111.026 144.7 111.226 144.3 111.526C143.9 111.826 143.5 112.226 143.2 112.726C142.9 113.226 142.7 113.926 142.7 114.826C142.6 115.726 142.8 116.726 143.1 118.026C143.4 119.126 143.7 120.226 144.1 121.526C144.5 122.826 144.9 124.126 145.4 125.426C147.5 125.226 149.4 125.126 151.1 125.226C152 125.326 152.9 125.526 153.7 125.726C154.5 126.026 155.2 126.326 155.7 126.926C155.8 127.326 155.8 127.726 155.6 128.026C155.4 128.326 155.2 128.526 154.9 128.726C154.6 128.926 154.2 129.026 153.8 129.126C153.4 129.226 153 129.326 152.6 129.326C151.7 129.426 150.8 129.526 149.9 129.626C149 129.726 148 129.826 146.9 129.926C147.6 131.826 148.2 133.726 148.8 135.426C149.4 137.126 149.8 138.626 150.2 139.826C150.4 140.426 150.4 141.126 150.3 141.926C150.2 142.626 150 143.326 149.8 144.026C149.5 145.026 149 145.826 148.5 146.426C148 147.026 147.4 147.226 146.8 147.026C146.3 146.826 146 146.526 145.9 146.226C145.8 145.926 145.7 145.426 145.8 144.826C145.9 144.126 145.9 143.426 145.9 142.726C145.9 142.026 145.9 141.426 145.8 140.826C145.7 140.226 145.6 139.726 145.5 139.226C145.4 138.726 145.3 138.426 145.3 138.326L142.6 130.426C141.9 130.526 141.2 130.626 140.5 130.626C139.9 130.726 139.2 130.826 138.4 130.926Z" fill="#1E1E1E" stroke="#1E1E1E" stroke-width="0.6006" stroke-miterlimit="10"/>
<path d="M198.3 122.326C198.4 124.626 198.6 127.026 198.7 129.326C198.9 131.726 198.9 134.026 198.8 136.326C198.7 138.626 198.5 140.926 198.1 143.126C197.7 145.326 197.1 147.426 196.3 149.426C195.4 151.426 194.3 153.326 192.8 155.026C191.4 156.726 189.5 158.326 187.3 159.726C187 159.926 186.6 160.026 186.2 160.126C185.8 160.126 185.4 160.126 185 160.126C184.6 160.026 184.3 159.926 184 159.826C183.7 159.626 183.5 159.426 183.4 159.226C183.3 158.826 183.3 158.426 183.6 157.926C183.9 157.426 184.3 156.926 184.9 156.426C186.8 155.026 188.4 153.526 189.7 151.926C191 150.326 192 148.626 192.8 146.726C193.6 144.826 194.1 142.826 194.3 140.726C194.5 138.526 194.5 136.126 194.3 133.626C193.8 134.226 193.2 134.926 192.5 135.626C191.8 136.326 191.1 136.926 190.3 137.426C189.5 137.926 188.7 138.426 187.9 138.826C187.1 139.226 186.3 139.326 185.6 139.326C185 139.326 184.4 139.226 183.8 138.926C183.2 138.626 182.6 138.126 182 137.426C181.3 136.526 180.7 135.526 180.2 134.326C179.7 133.226 179.2 132.026 178.8 131.026C178.4 129.926 178.1 129.026 177.9 128.126C177.7 127.226 177.5 126.626 177.5 126.326C177.4 125.926 177.4 125.526 177.5 125.126C177.6 124.726 177.9 124.526 178.3 124.426C178.9 124.326 179.5 124.326 180.1 124.526C180.7 124.726 181 125.126 181.3 125.526C181.5 126.026 181.7 126.726 182 127.726C182.3 128.726 182.7 129.726 183.1 130.626C183.5 131.626 184 132.426 184.5 133.226C185 133.926 185.5 134.326 186.1 134.326C186.7 134.326 187.5 134.026 188.4 133.326C189.3 132.726 190.1 131.826 191 130.826C191.8 129.826 192.5 128.626 193.1 127.326C193.7 126.026 194 124.826 194 123.626C194 123.326 194 123.026 194.1 122.726C194.2 122.426 194.3 122.026 194.5 121.726C194.7 121.426 194.9 121.126 195.1 120.926C195.3 120.726 195.6 120.526 195.8 120.526C196.5 120.426 197.1 120.626 197.6 121.026C198 121.326 198.3 121.826 198.3 122.326Z" fill="#1E1E1E" stroke="#1E1E1E" stroke-width="0.6006" stroke-miterlimit="10"/>
<path d="M219.3 120.126C220.6 120.626 221.7 121.326 222.6 122.226C223.5 123.126 224.2 124.226 224.6 125.426C225 126.626 225.3 127.826 225.4 129.026C225.5 130.326 225.3 131.426 225 132.526C224.5 133.726 223.9 134.926 223.2 136.126C222.5 137.326 221.6 138.326 220.7 139.226C219.8 140.126 218.7 140.826 217.5 141.426C216.3 142.026 215 142.226 213.5 142.226C211.7 142.226 210.2 141.826 209 141.026C207.8 140.226 206.8 139.126 206.2 137.826C205.5 136.526 205.1 135.026 204.9 133.426C204.7 131.826 204.7 130.126 205 128.526C205.2 127.326 205.5 126.126 205.9 125.026C206.3 123.926 206.8 122.826 207.5 122.026C208.1 121.126 208.9 120.426 209.7 119.826C210.5 119.226 211.5 119.026 212.6 119.026C213.2 119.026 214 119.126 214.9 119.426C215.8 119.626 216.6 120.026 217.4 120.426C217.8 119.826 218.5 119.726 219.3 120.126ZM216.9 124.826C216.4 124.526 215.9 124.126 215.3 123.626C214.7 123.126 214.1 122.926 213.7 122.926C213.2 122.926 212.7 123.126 212.2 123.626C211.7 124.126 211.3 124.626 210.9 125.226C210.5 125.826 210.2 126.526 210 127.126C209.7 127.726 209.6 128.326 209.5 128.626C209.4 129.226 209.3 130.026 209.2 130.926C209.2 131.826 209.2 132.726 209.4 133.626C209.6 134.526 209.9 135.326 210.4 136.026C210.9 136.726 211.6 137.226 212.6 137.526C213.2 137.726 213.9 137.726 214.7 137.526C215.5 137.326 216.3 137.026 217.1 136.426C217.9 135.926 218.7 135.226 219.4 134.326C220.1 133.426 220.7 132.426 221 131.326C221.4 130.126 221.4 128.726 221 127.426C220.6 126.026 219.8 125.126 218.5 124.526C218.2 124.726 217.9 124.826 217.6 124.826C217.3 124.926 217 124.926 216.9 124.826Z" fill="#1E1E1E" stroke="#1E1E1E" stroke-width="0.6006" stroke-miterlimit="10"/>
<path d="M236.1 123.526C235.8 124.726 235.6 125.926 235.3 127.326C235 128.726 234.9 130.026 234.8 131.326C234.7 132.626 234.7 133.826 234.8 134.826C234.9 135.826 235.2 136.626 235.6 137.026C236.3 137.126 237.2 136.826 238.1 136.126C239 135.326 240 134.426 240.9 133.226C241.8 132.026 242.6 130.826 243.4 129.426C244.1 128.026 244.6 126.826 244.9 125.826C245.1 125.326 245.2 124.726 245.4 124.226C245.5 123.626 245.6 123.126 245.6 122.526C245.6 122.226 245.8 121.826 246.3 121.526C246.8 121.226 247.1 121.026 247.4 121.026C247.6 121.026 247.9 121.026 248.1 121.126C248.4 121.226 248.6 121.426 248.9 121.626C249.1 121.826 249.4 122.126 249.5 122.426C249.7 122.726 249.8 123.126 249.8 123.426C249.9 124.726 250 126.126 250.2 127.726C250.4 129.326 250.6 130.826 250.8 132.426C251 133.926 251.3 135.526 251.5 136.926C251.8 138.426 252 139.726 252.3 140.826C252.4 141.326 252.3 141.826 251.9 142.426C251.5 143.026 251.1 143.426 250.6 143.526C250.2 143.626 249.8 143.526 249.4 143.426C249 143.226 248.7 142.926 248.5 142.426C248.3 141.826 248.1 141.126 247.9 140.226C247.7 139.326 247.5 138.426 247.4 137.426C247.2 136.426 247.1 135.526 247 134.626C246.9 133.726 246.8 133.026 246.7 132.426C246.1 133.626 245.3 134.726 244.4 135.926C243.5 137.126 242.6 138.226 241.6 139.126C240.6 140.126 239.5 140.826 238.4 141.426C237.3 141.926 236.2 142.126 235 142.026C233.3 141.826 232 140.226 231.1 137.226C230.8 136.026 230.6 134.726 230.6 133.226C230.6 131.726 230.7 130.326 230.9 128.826C231.1 127.426 231.3 126.026 231.6 124.726C231.9 123.426 232.1 122.426 232.3 121.526C232.4 121.226 232.6 120.826 232.8 120.626C233.1 120.326 233.4 120.226 233.7 120.326C234.3 120.426 234.9 120.826 235.5 121.526C236.1 122.126 236.3 122.826 236.1 123.526Z" fill="#1E1E1E" stroke="#1E1E1E" stroke-width="0.6006" stroke-miterlimit="10"/>
<path d="M291.3 118.726C291.5 119.926 291.6 121.226 291.7 122.526C291.8 123.926 291.9 125.226 292 126.626C292.1 128.026 292.1 129.326 292.1 130.626C292.1 131.926 292.1 133.126 292 134.126C293.4 135.026 294.2 135.926 294.5 136.626C294.8 137.326 294.8 138.026 294.6 138.526C294.3 139.326 293.9 139.726 293.2 139.726C292.5 139.726 291.8 139.526 290.9 139.026C290.3 139.426 289.6 139.926 288.8 140.426C288 140.926 287.2 141.426 286.3 141.826C285.4 142.326 284.6 142.726 283.7 143.026C282.8 143.326 282 143.626 281.3 143.726C279.9 143.926 278.7 143.726 277.6 142.926C276.5 142.226 275.8 141.126 275.4 139.626C275.1 138.626 275.1 137.626 275.2 136.526C275.3 135.426 275.7 134.426 276.2 133.526C276.7 132.526 277.4 131.726 278.3 130.926C279.2 130.126 280.2 129.526 281.4 129.126C281.7 129.026 282.1 128.926 282.7 128.826C283.2 128.726 283.8 128.726 284.4 128.726C285 128.726 285.6 128.826 286.2 129.126C286.8 129.326 287.4 129.726 287.9 130.226C287.9 129.526 287.9 128.726 287.9 127.826C287.9 126.926 287.8 126.026 287.8 125.126C287.8 124.226 287.7 123.326 287.6 122.526C287.5 121.726 287.5 121.026 287.4 120.526C287.3 119.926 287.1 119.526 286.7 119.326C286.3 119.126 285.8 119.226 285.2 119.426C284.2 119.726 283 120.426 281.6 121.426C280.2 122.426 278.9 123.426 277.7 124.626C277.3 125.026 276.9 125.226 276.4 125.126C275.9 125.126 275.5 124.926 275.1 124.526C274.8 124.226 274.6 123.826 274.5 123.326C274.5 122.826 274.6 122.426 275 121.826C275.7 121.026 276.6 120.226 277.5 119.426C278.4 118.626 279.4 117.826 280.3 117.226C281.3 116.526 282.3 116.026 283.3 115.626C284.3 115.226 285.4 114.926 286.4 114.926C287.9 114.926 289.1 115.226 289.9 115.926C290.6 116.726 291.1 117.626 291.3 118.726ZM283.8 132.626C283.2 132.726 282.6 133.026 282 133.426C281.4 133.826 280.8 134.326 280.3 134.926C279.8 135.526 279.4 136.126 279.2 136.826C279 137.526 279 138.226 279.2 138.926C279.3 139.226 279.5 139.426 279.7 139.526C280 139.626 280.3 139.726 280.6 139.626C281.6 139.426 282.8 139.026 284.1 138.326C285.4 137.726 286.5 137.026 287.2 136.326C287.2 136.026 287.1 135.726 286.8 135.326C286.5 134.926 286.2 134.526 285.9 134.126C285.6 133.726 285.2 133.326 284.8 133.026C284.5 132.726 284.2 132.626 283.8 132.626Z" fill="#1E1E1E" stroke="#1E1E1E" stroke-width="0.6006" stroke-miterlimit="10"/>
<path d="M317.7 120.326C316.9 120.726 316.1 121.226 315.3 121.726C314.5 122.226 313.6 122.726 312.8 123.326C312 123.926 311.2 124.726 310.4 125.526C309.6 126.326 309 127.326 308.4 128.526C307.5 130.126 307 131.826 306.7 133.526C306.4 135.226 306.2 136.926 306.1 138.526C306.1 139.326 305.9 140.126 305.6 140.926C305.2 141.726 304.7 142.126 304.1 142.126C303.3 142.126 302.6 141.726 302.1 140.826C301.6 139.926 301.3 139.226 301.1 138.426C300.4 135.326 299.8 132.326 299.3 129.326C298.8 126.326 298.4 123.326 298.1 120.426C298.1 119.826 298.3 119.426 298.6 119.226C299 119.026 299.4 119.026 299.9 119.026C300.4 119.026 300.9 119.226 301.4 119.426C301.9 119.626 302.2 120.026 302.2 120.426C302.4 122.026 302.6 123.726 302.8 125.426C303.1 127.126 303.3 128.626 303.6 129.926C303.8 128.426 304.2 127.026 305 125.626C305.8 124.226 306.7 123.026 307.9 121.926C309 120.826 310.3 119.826 311.8 119.126C313.2 118.326 314.7 117.826 316.2 117.626C316.8 117.526 317.4 117.526 317.8 117.626C318.2 117.726 318.5 117.826 318.7 118.126C318.9 118.326 318.9 118.726 318.8 119.126C318.6 119.526 318.2 119.926 317.7 120.326Z" fill="#1E1E1E" stroke="#1E1E1E" stroke-width="0.6006" stroke-miterlimit="10"/>
<path d="M337.2 127.426C335.5 128.426 333.7 129.226 331.8 129.726C329.9 130.226 327.8 130.526 325.5 130.526C325.6 132.026 326 133.226 326.8 134.126C327.6 135.026 328.5 135.526 329.7 135.726C330.4 135.826 331.1 135.826 331.8 135.626C332.5 135.526 333.2 135.326 333.8 135.026C334.4 134.726 335 134.426 335.5 134.126C336 133.826 336.5 133.426 336.9 133.126C337.3 132.826 337.7 132.526 338.1 132.426C338.5 132.326 338.9 132.326 339.1 132.426C339.7 132.626 339.9 133.326 339.7 134.326C339 135.726 338 136.926 336.7 137.826C335.4 138.826 334 139.426 332.4 139.626C331 139.926 329.6 139.826 328.1 139.426C326.6 139.026 325.3 138.326 324.2 137.126C323.2 136.126 322.5 134.926 321.9 133.626C321.4 132.326 321.1 130.926 320.9 129.526C320.8 128.226 320.9 126.926 321.3 125.726C321.7 124.526 322.2 123.426 323 122.526C323.8 121.626 324.7 120.826 325.9 120.226C327.1 119.626 328.4 119.326 330 119.226C331.9 119.126 333.5 119.426 335 120.226C336.5 121.026 337.6 122.226 338.2 123.626C338.5 124.426 338.6 125.126 338.5 125.726C338.3 126.426 337.9 127.026 337.2 127.426ZM329.7 123.026C329.3 123.126 328.8 123.226 328.3 123.526C327.8 123.726 327.4 124.026 326.9 124.326C326.5 124.626 326.1 125.026 325.8 125.426C325.5 125.826 325.3 126.326 325.3 126.826C326 126.826 326.8 126.726 327.7 126.626C328.6 126.526 329.4 126.326 330.3 126.126C331.1 125.926 331.9 125.726 332.6 125.426C333.3 125.126 333.9 124.926 334.4 124.626C334.1 123.826 333.4 123.326 332.5 123.126C331.6 122.926 330.7 122.926 329.7 123.026Z" fill="#1E1E1E" stroke="#1E1E1E" stroke-width="0.6006" stroke-miterlimit="10"/>
<path d="M341.5 147.026C341.1 146.626 341 146.126 341.2 145.526C341.4 144.926 341.6 144.426 341.9 144.026C342.4 142.826 342.9 141.526 343.4 140.126C343.8 138.726 344.2 137.326 344.5 135.726C344.6 135.026 345 134.426 345.6 133.926C346.2 133.426 347.1 133.326 348.2 133.626C348.6 133.826 348.9 134.126 349 134.526C349.1 134.926 349.1 135.326 349.1 135.826C349.1 136.626 349 137.426 348.8 138.426C348.6 139.426 348.3 140.426 348 141.326C347.7 142.226 347.3 143.126 346.9 143.926C346.5 144.726 346.1 145.326 345.7 145.726C345 146.426 344.4 146.926 343.6 147.126C342.7 147.526 342.1 147.426 341.5 147.026Z" fill="#1E1E1E" stroke="#1E1E1E" stroke-width="0.75" stroke-miterlimit="10"/>
<path d="M186.2 91.8001C185.9 88.0001 183.1 84.7001 180.2 82.5001C178.2 81.0001 175.8 80.0001 173.3 79.5001C174.4 77.4001 175.2 75.2001 175.5 72.9001C175.7 70.9001 175 68.9001 173.4 67.6001C170.6 65.4001 166.1 65.5001 162.7 65.7001C158.3 65.9001 154 66.8001 149.6 67.5001C147.9 67.8001 146.1 68.0001 144.3 68.1001C135.5 69.0001 126.6 68.8001 117.7 69.0001C111.4 69.1001 106 74.3001 106 80.8001C106 87.1001 111.4 92.8001 117.8 92.6001C122.8 92.5001 128.1 92.0001 133.1 92.2001C134.6 92.3001 134.4 92.4001 135 93.7001C135.4 94.6001 135.9 95.4001 136.5 96.2001C140.9 101.6 148.9 101.2 155.2 101.1C161 101 166.8 100.7 172.6 100C177.6 99.5001 186.8 98.7001 186.2 91.8001Z" fill="#F7C300"/>
<path d="M129.701 87.9C129.301 87.7 128.801 87.4 128.401 86.9C127.901 86.4 127.701 86 127.601 85.7C127.401 84.8 127.101 83.8 126.901 82.5C126.601 81.3 126.401 79.9 126.101 78.5C125.801 77.1 125.601 75.6 125.401 74.1C125.201 72.6 124.901 71.2 124.701 69.8C124.501 68.4 124.301 67.2 124.201 66.1C124.101 65 124.001 64.2 123.901 63.5C123.901 62.8 124.101 62.4 124.601 62.3C125.701 62.2 126.501 62.6 127.001 63.5C127.201 64.3 127.501 65.2 127.701 66.1C128.001 67.1 128.201 68.2 128.501 69.3C129.501 68.9 130.501 68.4 131.301 67.8C132.101 67.2 132.801 66.5 133.301 65.8C133.801 65.1 134.201 64.4 134.501 63.6C134.701 62.8 134.801 62.1 134.601 61.4C134.401 60.6 133.801 60 132.801 59.6C131.801 59.2 130.701 59 129.401 59C127.701 59 126.101 59.3 124.801 59.9C123.401 60.5 122.201 61.3 121.101 62.2C120.601 62.6 120.001 62.7 119.401 62.6C118.801 62.4 118.401 62.1 118.101 61.4C118.101 60.8 118.201 60.3 118.401 59.9C118.601 59.5 118.901 59.1 119.201 58.7C120.501 57.3 122.101 56.4 123.901 55.8C125.701 55.2 127.701 55 129.701 55C131.301 55 132.901 55.3 134.401 55.8C135.901 56.3 137.201 57.2 138.301 58.6C138.801 59.5 139.101 60.4 139.101 61.3C139.101 62.2 139.001 63.2 138.701 64.1C138.401 65 138.001 65.9 137.401 66.7C136.901 67.5 136.301 68.2 135.801 68.8C136.901 68.7 138.001 68.8 139.101 69.1C140.201 69.4 141.201 69.9 142.101 70.5C143.001 71.2 143.701 72 144.301 73.1C144.901 74.2 145.101 75.5 145.101 77C145.101 78.7 144.701 80.3 144.001 81.7C143.201 83.1 142.301 84.3 141.001 85.3C139.801 86.3 138.401 87.1 136.801 87.6C135.201 88.2 133.601 88.4 131.901 88.4C131.201 88.4 130.601 88.2 130.201 87.8C130.101 88.1 129.901 88 129.701 87.9ZM129.501 74.3C129.801 76 130.201 77.7 130.501 79.5C130.801 81.3 131.101 83.1 131.501 84.9H131.801C132.701 84.9 133.801 84.7 134.901 84.4C136.001 84.1 137.101 83.5 138.101 82.9C139.101 82.2 139.901 81.4 140.601 80.4C141.201 79.4 141.501 78.3 141.501 77.1C141.301 76 140.801 75.2 140.001 74.6C139.201 74 138.301 73.7 137.201 73.5C136.101 73.3 134.901 73.3 133.601 73.5C132.101 73.8 130.801 74 129.501 74.3Z" fill="#1E1E1E" stroke="#1E1E1E" stroke-width="0.6006" stroke-miterlimit="10"/>
<path d="M169.5 66.8997C169.6 69.1997 169.8 71.5997 169.9 73.8997C170.1 76.2997 170.1 78.5997 170 80.8997C169.9 83.1997 169.7 85.4998 169.3 87.6998C168.9 89.8998 168.3 91.9997 167.5 93.9997C166.6 95.9997 165.5 97.8997 164 99.5997C162.6 101.3 160.7 102.9 158.5 104.3C158.2 104.5 157.8 104.6 157.4 104.7C157 104.7 156.6 104.7 156.2 104.7C155.8 104.6 155.5 104.5 155.2 104.4C154.9 104.2 154.7 104 154.6 103.8C154.5 103.4 154.5 103 154.8 102.5C155.1 102 155.5 101.5 156.1 101C158 99.5997 159.6 98.0997 160.9 96.4997C162.2 94.8997 163.2 93.1997 164 91.2997C164.8 89.3997 165.3 87.3997 165.5 85.2997C165.7 83.0997 165.7 80.6998 165.5 78.1998C165 78.7998 164.4 79.4998 163.7 80.1998C163 80.8998 162.3 81.4997 161.5 81.9997C160.7 82.4997 159.9 82.9998 159.1 83.3998C158.3 83.7997 157.5 83.8998 156.8 83.8998C156.2 83.8998 155.6 83.7997 155 83.4997C154.4 83.1997 153.8 82.6997 153.2 81.9997C152.5 81.0997 151.9 80.0997 151.4 78.8997C150.9 77.7997 150.4 76.5997 150 75.5997C149.6 74.4997 149.3 73.5998 149.1 72.6998C148.9 71.7998 148.7 71.1997 148.7 70.8997C148.6 70.4997 148.6 70.0998 148.7 69.6998C148.8 69.2998 149.1 69.0997 149.5 68.9997C150.1 68.8997 150.7 68.8997 151.3 69.0997C151.9 69.2997 152.2 69.6997 152.5 70.0997C152.7 70.5997 152.9 71.2997 153.2 72.2997C153.5 73.2997 153.9 74.2998 154.3 75.1998C154.7 76.1998 155.2 76.9997 155.7 77.7997C156.2 78.4997 156.7 78.8997 157.3 78.8997C157.9 78.8997 158.7 78.5997 159.6 77.8997C160.5 77.2997 161.3 76.3997 162.2 75.3997C163 74.3997 163.7 73.1997 164.3 71.8997C164.9 70.5997 165.2 69.3998 165.2 68.1998C165.2 67.8998 165.2 67.5997 165.3 67.2997C165.4 66.9997 165.5 66.5997 165.7 66.2997C165.9 65.9997 166.1 65.6997 166.3 65.4997C166.5 65.2997 166.8 65.0997 167 65.0997C167.7 64.9997 168.3 65.1997 168.8 65.5997C169.2 65.9997 169.5 66.3997 169.5 66.8997Z" fill="#1E1E1E" stroke="#1E1E1E" stroke-width="0.6006" stroke-miterlimit="10"/>
<path d="M181.104 92.3351C181.404 94.2351 180.504 95.3351 178.704 95.6351C177.704 95.7351 176.904 95.4351 176.304 94.8351C175.704 94.2351 175.304 93.4351 175.104 92.5351C174.904 91.5351 175.004 90.6351 175.304 89.7351C175.604 88.8351 176.204 88.3351 177.004 88.2351C178.104 88.0351 179.004 88.4351 179.704 89.4351C180.604 90.2351 181.004 91.2351 181.104 92.3351Z" fill="#1E1E1E"/>
<path d="M191.604 93.735C190.904 95.535 189.704 96.135 187.904 95.535C187.004 95.135 186.404 94.535 186.204 93.735C186.004 92.835 186.004 92.035 186.304 91.135C186.604 90.235 187.104 89.435 187.804 88.735C188.504 88.035 189.204 87.835 190.004 88.135C191.004 88.535 191.704 89.235 191.904 90.435C192.104 91.635 192.004 92.735 191.604 93.735Z" fill="#1E1E1E"/>
<path d="M203.404 92.5348C203.704 94.4348 202.804 95.5348 201.004 95.8348C200.004 95.9348 199.204 95.6348 198.604 95.0348C198.004 94.3348 197.604 93.6348 197.404 92.7348C197.204 91.7348 197.304 90.8348 197.604 89.9348C197.904 89.0348 198.504 88.5348 199.304 88.4348C200.404 88.2348 201.304 88.6348 202.004 89.6348C202.904 90.4348 203.304 91.4348 203.404 92.5348Z" fill="#1E1E1E"/>
<defs>
<clipPath id="clip0">
<rect width="19" height="20" fill="white" transform="translate(64 96)"/>
</clipPath>
<clipPath id="clip1">
<rect width="64" height="112" fill="white" transform="translate(0 54)"/>
</clipPath>
<clipPath id="clip2">
<rect width="18" height="14" fill="white" transform="translate(88 54)"/>
</clipPath>
<clipPath id="clip3">
<rect width="397" height="54" fill="white"/>
</clipPath>
<clipPath id="clip4">
<rect width="24" height="24" fill="white" transform="translate(64 54)"/>
</clipPath>
</defs>
</svg>
