<svg width="264" height="15" viewBox="0 0 264 15" fill="none" xmlns="http://www.w3.org/2000/svg">
<path d="M262.973 10.7507C259.947 8.65161 256.717 6.7243 253.691 4.6252C250.672 2.69292 248.532 1.74169 245.032 3.66125C242.15 5.23224 238.657 7.31862 236.431 9.54199C236.221 9.54696 236.214 9.38014 236.004 9.38511C235.558 8.72776 234.488 8.25215 233.838 7.76659C232.322 6.63363 231.015 5.4957 229.506 4.52956C227.123 2.74919 224.543 1.30743 221.227 2.55473C217.905 3.6352 215.909 6.35407 213.25 8.25374C213.046 8.42553 212.843 8.59732 212.639 8.76912C213.256 8.42056 213.033 8.09188 212.193 8.11177C211.543 7.62621 210.486 7.48424 209.633 7.17048C208.136 6.53799 206.639 5.90549 205.142 5.273C201.722 3.85113 198.499 2.09064 195.276 0.330157C194.199 -0.312279 192.322 0.0661037 191.508 0.753278C190.096 2.28948 188.678 3.65885 187.266 5.19505C186.458 6.04905 185.65 6.90305 184.843 7.75704C184.639 7.92884 184.436 8.10063 184.239 8.43925C184.035 8.61104 184.035 8.61104 184.035 8.61104C182.118 7.98849 180.385 6.69367 178.665 5.7325C176.735 4.77631 174.799 3.65329 172.659 2.70206C169.009 0.784691 165.398 -0.13174 161.498 2.29822C158.629 4.20286 155.97 6.10253 153.101 8.00717C150.737 6.72727 148.381 5.61419 145.807 4.33926C143.451 3.22618 141.075 1.61264 138.153 2.1827C135.441 2.74779 132.999 4.80931 130.74 6.19857C129.506 6.89568 128.272 7.5928 127.247 8.28494C126.013 8.98206 125.173 9.00194 123.682 8.53627C118.785 6.98237 114.879 3.90222 109.398 3.53099C103.706 3.16474 99.8319 6.26199 95.5117 8.7019C94.0738 9.57081 94.2773 9.39901 92.7741 8.5997C91.4874 7.96223 90.4109 7.31979 89.1242 6.68233C86.5509 5.4074 83.9776 4.13247 81.0169 3.70159C78.0626 3.43754 75.5809 4.49812 72.889 5.56368C71.438 6.09894 69.9871 6.63421 68.5361 7.16947C67.0851 7.70474 64.8199 8.92717 62.9357 9.13873C60.4147 9.19838 57.1916 7.4379 55.045 6.31985C52.6818 5.03995 50.7126 3.08281 47.7518 2.65194C45.0011 2.21609 42.3027 3.11482 40.2542 4.49911C37.9956 5.88837 35.9797 8.10678 33.0124 7.50908C30.0516 7.0782 27.6688 5.29783 25.1021 4.18972C22.3187 2.91976 19.3383 1.98842 15.9639 1.73431C9.84535 1.21117 3.61475 3.19535 0.423364 7.61227C-1.56635 10.498 3.99385 12.8711 5.98357 9.98537C8.7744 6.07886 14.8668 5.9347 19.5605 7.66039C24.2543 9.38608 28.1665 12.6331 33.6352 12.6706C36.1627 12.7778 38.441 11.889 40.5026 10.8384C42.144 9.79767 44.9806 7.05892 47.1207 8.01014C49.2542 8.79455 51.2168 10.5849 53.3634 11.7029C55.7201 12.816 58.4969 13.9191 61.031 14.1931C63.7751 14.4621 66.0534 13.5734 68.5417 12.6796C71.6537 11.6041 74.7461 10.0281 77.8647 9.11945C80.5696 8.38754 83.1625 10.1629 85.3026 11.1142C87.4492 12.2322 89.8385 14.1794 92.5827 14.4484C97.4473 15.1682 101.256 10.4027 105.195 8.97371C109.758 7.36294 114.301 10.595 118.147 12.1738C120.504 13.2868 123.274 14.2232 125.992 13.8249C128.921 13.4216 131.37 11.5269 133.628 10.1377C134.863 9.44057 136.695 7.89443 138.152 7.52599C138.362 7.52102 138.763 7.01061 138.763 7.01061C139.183 7.00067 140.693 7.96681 141.119 8.12369C144.126 9.72232 147.342 11.316 150.349 12.9146C150.349 12.9146 150.559 12.9097 150.566 13.0765C151.642 13.7189 153.329 13.846 154.551 12.8152C156.396 11.6027 158.031 10.3952 159.876 9.18269C160.69 8.49551 161.721 7.97019 162.535 7.28302C163.152 6.93446 164.367 5.73688 165.201 5.55017C166.875 5.34358 169.907 7.6095 171.194 8.24697C173.124 9.20317 174.844 10.1643 176.774 11.1205C179.78 12.7192 183.45 15.137 186.72 12.722C188.354 11.5144 189.55 9.81638 190.758 8.45197C191.565 7.59798 192.577 6.57219 193.384 5.71819C198.754 8.59672 204.321 11.1366 210.282 12.9993C213.899 14.0826 215.934 12.3647 218.383 10.47C219.605 9.43919 220.813 8.07479 222.257 7.3727C223.492 6.67558 222.664 7.02911 223.734 7.50473C224.378 7.82346 225.251 8.63769 225.901 9.12324C227.417 10.2562 228.723 11.3941 230.233 12.3603C231.316 13.1695 232.622 14.3075 234.112 14.7731C237.513 15.6945 239.529 13.4761 241.781 11.9201C243.212 10.8843 244.644 9.8486 246.285 8.80789C246.285 8.80789 247.52 8.11078 248.137 7.76222C248.353 7.92407 248.57 8.08592 248.787 8.24778C251.813 10.3469 255.042 12.2742 258.068 14.3733C261.725 16.4575 265.999 12.8498 262.973 10.7507Z" fill="#F7C300"/>
</svg>
