<svg width="160" height="10" viewBox="0 0 160 10" fill="none" xmlns="http://www.w3.org/2000/svg">
<path d="M0.622314 2.83286C2.45633 4.23227 4.41371 5.51714 6.24773 6.91654C8.07779 8.20473 9.37479 8.83888 11.4957 7.55918C13.2426 6.51185 15.3595 5.12093 16.7086 3.63868C16.8359 3.63536 16.8399 3.74658 16.9672 3.74326C17.2377 4.1815 17.8862 4.49857 18.28 4.82228C19.199 5.57759 19.9907 6.33621 20.9057 6.9803C22.3499 8.16722 23.9134 9.12839 25.9228 8.29686C27.9362 7.57654 29.1461 5.76396 30.7577 4.49751C30.8811 4.38298 31.0044 4.26845 31.1278 4.15393C30.7538 4.3863 30.889 4.60541 31.3983 4.59216C31.7921 4.91586 32.4327 5.01051 32.9499 5.21968C33.857 5.64135 34.7641 6.06301 35.6713 6.48467C37.7441 7.43259 39.6975 8.60625 41.6509 9.77991C42.3034 10.2082 43.4414 9.95594 43.9348 9.49782C44.7904 8.47369 45.65 7.56077 46.5056 6.53664C46.9951 5.9673 47.4846 5.39797 47.9741 4.82864C48.0974 4.71411 48.2208 4.59958 48.3402 4.37384C48.4635 4.25931 48.4636 4.25931 48.4636 4.25931C49.6253 4.67434 50.6756 5.53755 51.7179 6.17833C52.8876 6.8158 54.0612 7.56448 55.3582 8.19863C57.5703 9.47688 59.7585 10.0878 62.1222 8.46786C63.8612 7.1981 65.4728 5.93165 67.2117 4.66188C68.644 5.51515 70.0723 6.25721 71.6318 7.10716C73.0601 7.84922 74.5003 8.92491 76.2709 8.54487C77.9143 8.16815 79.3946 6.7938 80.7635 5.86762C81.5115 5.40288 82.2596 4.93813 82.8804 4.4767C83.6285 4.01196 84.1378 3.9987 85.0409 4.30915C88.009 5.34508 90.3761 7.39852 93.6984 7.64601C97.148 7.89018 99.4958 5.82534 102.114 4.19873C102.986 3.61946 102.862 3.73399 103.773 4.26687C104.553 4.69184 105.206 5.12014 105.985 5.54511C107.545 6.39507 109.104 7.24502 110.899 7.53227C112.689 7.70831 114.193 7.00125 115.825 6.29088C116.704 5.93403 117.584 5.57719 118.463 5.22035C119.342 4.86351 120.715 4.04855 121.857 3.90751C123.385 3.86774 125.338 5.0414 126.639 5.78676C128.072 6.64003 129.265 7.94479 131.059 8.23204C132.727 8.52261 134.362 7.92345 135.604 7.00059C136.972 6.07441 138.194 4.59548 139.992 4.99394C141.787 5.28119 143.231 6.46811 144.787 7.20685C146.474 8.05349 148.28 8.67438 150.325 8.84379C154.033 9.19255 157.809 7.86976 159.743 4.92515C160.949 3.00135 157.579 1.41928 156.374 3.34308C154.682 5.94742 150.99 6.04353 148.145 4.89307C145.3 3.74261 142.929 1.57795 139.615 1.5529C138.083 1.48145 136.702 2.07398 135.453 2.77441C134.458 3.46821 132.739 5.29405 131.442 4.6599C130.149 4.13696 128.96 2.94342 127.659 2.19805C126.23 1.456 124.547 0.720572 123.012 0.537909C121.348 0.358559 119.968 0.951089 118.46 1.54693C116.574 2.26393 114.699 3.31458 112.809 3.92036C111.17 4.4083 109.598 3.2247 108.301 2.59055C107.001 1.84519 105.552 0.547055 103.889 0.367705C100.941 -0.112151 98.6328 3.06484 96.2454 4.01753C93.4799 5.09137 90.7269 2.93666 88.3955 1.88416C86.9672 1.1421 85.2882 0.517892 83.641 0.783403C81.8663 1.05223 80.382 2.31536 79.0132 3.24154C78.2651 3.70628 77.1548 4.73704 76.2715 4.98267C76.1442 4.98599 75.9014 5.32626 75.9014 5.32626C75.6468 5.33289 74.7317 4.68879 74.4731 4.58421C72.651 3.51845 70.7015 2.456 68.8794 1.39025C68.8794 1.39025 68.7521 1.39356 68.7481 1.28235C68.0956 0.854056 67.0731 0.769351 66.3329 1.45653C65.2148 2.26486 64.2239 3.06988 63.1057 3.87821C62.6123 4.33632 61.9875 4.68654 61.4941 5.14466C61.12 5.37703 60.3838 6.17542 59.8785 6.29989C58.8639 6.43762 57.0259 4.927 56.2461 4.50202C55.0764 3.86455 54.0341 3.22377 52.8644 2.58631C51.0423 1.52055 48.8184 -0.0913408 46.8366 1.5187C45.8458 2.32371 45.1215 3.45575 44.3892 4.36535C43.8997 4.93469 43.2869 5.61855 42.7974 6.18788C39.543 4.26885 36.1692 2.57557 32.5567 1.33378C30.3644 0.611607 29.1308 1.7569 27.6465 3.02003C26.9063 3.70721 26.1741 4.61681 25.2987 5.08487C24.5506 5.54962 25.0519 5.31393 24.4034 4.99685C24.0135 4.78437 23.4845 4.24155 23.0906 3.91784C22.1716 3.16253 21.3799 2.40391 20.4649 1.75982C19.8085 1.22031 19.0168 0.461686 18.1137 0.151237C16.0527 -0.463032 14.831 1.0159 13.4661 2.0533C12.5986 2.74378 11.7311 3.43427 10.7363 4.12808C10.7363 4.12808 9.9882 4.59282 9.61415 4.82519C9.48286 4.71729 9.35158 4.60939 9.22029 4.50149C7.38628 3.10209 5.42889 1.81721 3.59488 0.417808C1.37889 -0.971653 -1.21172 1.43346 0.622314 2.83286Z" fill="#F7C300"/>
</svg>
