<svg width="240" height="240" viewBox="0 0 240 240" fill="none" xmlns="http://www.w3.org/2000/svg">
<path d="M239.638 227.286C239.398 226.687 239.158 226.087 238.918 225.607C237.358 223.328 234.478 222.849 231.959 222.849L227.879 222.729C228.359 189.745 228.359 156.402 228.359 124.018C228.359 115.262 228.359 106.387 228.359 97.6312C228.359 94.9925 228.359 91.7542 226.799 88.9955C224.519 85.0375 219.479 85.1575 215.279 85.1575C214.199 85.1575 213.119 85.1575 212.159 85.1575C210.239 85.0375 208.439 84.9176 203.519 84.7976C158.279 83.7182 109.799 83.2384 50.8796 83.3584C42.5997 83.3584 34.3197 83.3584 26.1598 83.3584C25.5598 83.3584 24.7198 83.3584 23.8798 83.2384C20.9998 82.9985 17.7598 82.7587 15.7198 84.3179C12.8399 86.3569 12.8399 90.6747 12.8399 93.6732C12.8399 115.862 12.8399 138.171 12.8399 159.76C12.8399 178.351 12.8399 197.541 12.8399 216.372C12.8399 216.732 12.8399 217.211 12.9598 217.691C13.0798 218.531 13.1998 220.09 12.8399 220.45C12.8399 220.45 12.7199 220.45 12.4799 220.45C11.0399 220.33 9.59987 220.33 8.03988 220.57C6.35989 220.81 5.0399 221.169 3.8399 221.769C0.479925 223.688 -0.480069 228.366 0.239927 232.084C0.839923 234.963 3.23991 236.762 6.95989 237.121C9.95987 237.361 12.9598 237.481 15.8398 237.481C17.1598 237.481 18.5998 237.481 19.9198 237.601C28.4398 237.841 37.1997 238.081 45.8396 238.321L49.7996 238.441C53.2796 238.561 56.7596 238.561 60.2396 238.681H61.3196C71.6395 238.801 82.5594 239.041 94.6794 239.16C124.679 239.52 155.639 239.64 182.879 239.88H183.119C188.399 239.88 193.679 240 199.079 240C203.039 240 207.119 240 211.079 239.88C216.239 239.76 220.919 239.76 225.359 239.52C225.959 239.52 226.679 239.52 227.399 239.52H227.519C230.759 239.52 234.838 239.64 237.238 237.601C237.478 237.361 237.718 237.121 237.958 236.882C238.678 236.042 239.038 234.963 239.278 234.003C239.878 232.084 240.358 229.685 239.638 227.286ZM120.719 89.2354C120.719 89.1155 120.719 88.9955 120.839 88.9955C120.839 88.8756 120.959 88.7557 121.079 88.7557L121.199 88.6357C121.559 88.3958 121.799 88.2759 122.039 88.2759C122.159 88.2759 122.159 88.3958 122.279 88.3958L122.399 88.5158C122.399 88.6357 122.519 88.6357 122.519 88.7557C122.519 88.8756 122.519 88.9955 122.519 88.9955C122.519 89.1155 122.519 89.1155 122.519 89.2354C122.519 89.2354 122.519 89.3554 122.399 89.3554C122.279 89.4753 122.159 89.7152 121.919 89.8351C121.799 89.9551 121.559 89.9551 121.439 89.9551C121.439 89.9551 121.319 89.9551 121.199 89.9551C121.079 89.9551 120.959 89.8351 120.959 89.8351C120.839 89.7152 120.839 89.5952 120.719 89.4753C120.719 89.3554 120.719 89.2354 120.719 89.2354ZM97.9193 91.8741C99.9593 92.9536 102.239 92.8336 104.399 92.8336L139.559 92.7137C141.959 92.7137 144.359 92.7137 146.519 91.5143C147.719 90.7946 148.679 89.9551 149.279 88.7557C162.239 88.8756 172.919 89.1155 182.639 89.2354L186.719 89.3554L191.759 89.4753C201.719 89.5952 211.919 89.8351 221.879 90.5548C222.119 90.5548 222.959 90.6747 223.199 91.1545C223.319 91.3943 223.319 91.7542 223.319 92.114C223.319 94.153 223.199 96.1919 223.199 98.111C223.079 103.868 222.959 109.745 222.959 115.622V127.496C222.959 133.613 222.959 139.73 222.959 145.847V147.047C222.959 179.31 222.839 215.652 222.839 222.609H220.919C215.039 222.489 209.279 222.249 203.399 222.129C188.159 221.769 172.799 221.529 157.799 221.289L149.399 221.169C148.679 221.169 147.719 221.169 146.759 221.649C146.159 222.009 145.679 222.609 145.319 223.208C145.199 223.448 145.079 223.568 144.959 223.688C143.999 224.888 142.199 225.127 140.879 225.247C135.719 225.367 130.559 225.247 125.519 225.247H125.159C121.559 225.247 117.839 225.247 114.239 225.247C113.159 225.247 112.079 225.247 110.999 225.247H110.759C107.519 225.367 104.159 225.367 101.039 225.008C100.679 225.008 99.5993 224.768 99.3593 224.408C99.2393 224.168 99.2393 223.928 99.2393 223.568C99.2393 222.969 99.1193 222.009 98.3993 221.409C97.6793 220.81 96.8393 220.81 96.2393 220.81H93.9594C78.7195 220.69 62.9995 220.57 47.5196 220.57H44.6397C36.1197 220.57 27.7198 220.69 20.7598 220.81C20.6398 220.81 20.3998 220.81 20.2798 220.81C19.3198 220.81 18.7198 220.81 18.5998 220.69C18.4798 220.57 18.4798 219.85 18.4798 219.49C18.4798 219.25 18.4798 219.011 18.4798 218.771C18.3598 217.211 18.2398 215.652 18.1198 214.093C17.9998 213.014 17.9998 211.934 17.8798 210.735C17.0398 198.261 17.0398 185.547 17.0398 173.313V169.595C17.0398 157.841 17.0398 146.087 17.0398 134.453C17.0398 133.133 17.0398 131.694 17.0398 130.375C17.0398 128.576 17.0398 126.657 17.0398 124.858C17.1598 115.023 17.1598 105.907 17.2798 97.0315C17.2798 96.1919 17.2798 95.4723 17.2798 94.6327V94.3928C17.2798 92.4738 17.2798 90.5548 17.3998 88.6357C32.5197 88.036 35.7597 87.9161 50.5196 87.9161C65.1595 88.036 79.7994 88.036 94.4393 88.156C95.2793 89.7152 96.3593 91.0345 97.9193 91.8741ZM28.3198 225.247C33.2397 225.127 38.2797 225.127 43.7997 225.127C46.0796 225.127 48.3596 225.127 50.7596 225.127C65.3995 225.247 80.0394 225.247 94.6794 225.367C95.1593 226.927 96.3593 228.246 97.9193 228.966C99.9593 230.045 102.239 229.925 104.399 229.925L139.559 229.805C141.959 229.805 144.359 229.805 146.519 228.606C147.719 227.886 148.679 227.047 149.279 225.847C162.119 225.967 172.679 226.207 182.639 226.327L186.359 226.447C200.639 226.687 215.159 227.047 229.079 227.406H229.799C231.118 227.406 232.438 227.526 233.638 227.646C233.878 227.646 234.479 227.766 234.718 228.126C234.838 228.246 234.838 228.726 234.838 228.846C234.838 229.445 234.838 230.165 234.838 230.765C234.718 231.484 234.598 232.324 234.358 233.044C234.358 233.283 234.118 233.763 233.878 233.883C233.758 234.003 233.398 234.003 233.158 234.003C219.599 235.322 205.799 235.202 192.359 235.082H187.799C173.159 234.963 158.519 234.963 143.879 234.843C119.759 234.723 88.0794 234.363 55.6796 233.763C51.7196 233.643 47.7596 233.643 43.6797 233.643C31.1997 233.523 18.3598 233.283 5.75989 232.444C5.3999 232.444 5.0399 232.444 4.7999 232.204C4.6799 232.084 4.5599 231.724 4.4399 231.244C4.1999 229.805 4.4399 228.366 4.7999 226.927C4.9199 226.687 5.0399 226.327 5.1599 226.207C5.2799 226.087 5.63989 225.967 6.11989 225.967C11.5199 225.367 17.0398 225.247 22.4398 225.247C24.7198 225.247 26.5198 225.247 28.3198 225.247Z" fill="#1E1E1E"/>
<path d="M179.039 98.7106C179.639 93.4333 179.879 88.1559 179.759 82.7586C179.639 77.4812 179.279 72.0839 178.079 67.0465C177.599 65.1274 176.519 63.3283 174.599 62.3688C172.439 61.4093 169.799 61.2893 167.399 61.0495C162.119 60.4498 156.959 60.2099 151.679 60.0899C140.879 59.97 130.079 60.4498 119.399 60.9295C118.439 60.9295 117.479 61.0495 116.519 61.0495V60.9295C99.3592 61.0495 82.0793 61.2893 64.9194 61.4093C62.1594 61.4093 59.2794 61.4093 56.5195 61.5292C54.8395 61.5292 54.4795 63.3283 55.1995 64.4078C55.0795 64.6477 55.0795 64.7676 54.9595 65.0075C54.3595 70.2848 54.1195 75.5622 54.2395 80.9595C54.3595 86.2369 54.7195 91.6342 55.9195 96.6716C56.3995 98.5907 57.4795 100.39 59.3994 101.349C61.5594 102.309 64.1994 102.429 66.5994 102.669C71.8794 103.268 77.0393 103.508 82.3193 103.628C93.1192 103.748 103.919 103.268 114.599 102.789C115.559 102.789 116.519 102.669 117.479 102.669V102.789C134.639 102.669 151.919 102.429 169.079 102.309C171.839 102.309 174.719 102.309 177.479 102.189C179.159 102.189 179.519 100.39 178.799 99.3103C178.919 99.1904 178.919 98.9505 179.039 98.7106Z" fill="#1E1E1E" stroke="#1E1E1E" stroke-width="1.5554" stroke-miterlimit="10"/>
<path d="M208.919 99.4304C203.279 99.4304 203.279 108.186 208.919 108.186C214.559 108.066 214.559 99.4304 208.919 99.4304Z" fill="#59C69F"/>
<path d="M52.1996 167.316C50.1596 163.718 42.7196 162.759 39.2396 164.078C38.2797 164.438 37.5597 165.037 36.9597 165.757C35.1597 166.117 33.7197 167.556 33.5997 169.835C33.4797 174.033 33.3597 178.231 33.3597 182.429C33.2397 186.027 37.0797 187.466 39.9596 186.147C43.9196 184.348 50.2796 186.387 52.0796 180.989C52.7996 178.83 52.6796 176.312 52.7996 174.033C52.7996 171.994 53.2796 169.355 52.1996 167.316Z" fill="#F7C300"/>
<path d="M86.0393 169.955C85.5593 164.078 78.9594 163.958 74.3994 163.958C73.3194 163.958 72.2394 164.438 71.3994 165.157C68.9995 164.678 66.1195 166.117 66.2395 169.235C66.2395 171.754 66.3595 174.393 66.3595 176.912C66.3595 179.55 66.5995 182.309 68.6395 184.228C70.6794 186.147 73.1994 185.547 75.7194 185.187C77.9994 184.948 80.7594 184.948 82.7994 183.748C85.0794 182.429 85.5594 179.79 85.7993 177.391C86.0393 175.112 86.2793 172.474 86.0393 169.955Z" fill="#F7C300"/>
<path d="M116.279 178.951C116.159 177.751 115.799 176.672 115.919 175.592C116.039 174.273 116.159 172.954 115.799 171.634C114.239 165.877 105.719 166.357 101.16 167.916C98.6395 166.597 94.5595 167.796 94.5595 171.514C94.5595 176.072 94.3195 183.268 98.3995 186.387C100.68 188.066 103.559 186.987 106.079 186.987C108.959 186.987 111.839 187.586 114.239 185.427C116.039 183.748 116.519 181.349 116.279 178.951Z" fill="#F7C300"/>
<path d="M46.6797 165.397L39.1197 165.038C38.0397 165.038 37.5597 165.877 37.5597 166.477C37.5597 167.197 37.9197 168.156 39.1197 168.276L45.1197 168.516C45.4797 168.516 45.7197 168.516 46.0797 168.516C46.6797 168.516 47.3997 168.516 47.9997 168.636H48.3597C48.7197 168.636 48.9597 168.876 48.9597 169.235C49.0797 169.835 49.1997 170.435 49.1997 171.035C49.1997 171.274 49.1997 171.514 49.3197 171.754C49.4397 172.714 49.5597 173.673 49.6797 174.633C49.7997 175.712 49.9197 176.672 50.0397 177.751L50.2797 179.91L49.7997 180.03C49.3197 180.27 48.7197 180.39 48.2397 180.51L47.8797 180.63C46.6797 180.99 45.4797 181.229 44.3997 181.469C42.2397 181.829 39.9597 181.709 37.9197 181.349C37.6797 181.349 37.4397 181.23 37.1997 181.23L36.8397 181.11L36.7197 180.75C36.7197 180.51 36.5998 180.27 36.5998 180.03V179.91C36.3598 178.711 36.2398 177.391 36.1198 176.192C35.8798 173.673 35.8798 171.035 36.1198 168.396C36.1198 168.036 35.9998 167.676 35.7598 167.316C35.3998 166.957 34.9198 166.717 34.5598 166.717C33.7198 166.717 32.9998 167.436 32.8798 168.396C32.5198 172.714 32.7598 177.032 33.5998 181.23C33.7198 182.069 33.9598 182.909 34.6798 183.508C35.3998 184.108 36.4797 184.348 37.5597 184.468C39.7197 184.828 41.6397 184.828 43.4397 184.708C45.4797 184.588 47.5197 184.108 49.1997 183.508L49.5597 183.388C51.7197 182.669 53.5196 181.949 53.5196 180.15C53.5196 179.43 53.3996 178.831 53.3996 178.111C53.3996 177.751 53.2796 177.511 53.2796 177.271C53.1597 176.192 53.0396 174.993 52.9196 173.913C52.7997 172.834 52.6797 171.874 52.5597 170.915C52.5597 170.675 52.5597 170.435 52.4397 170.195C52.3197 169.475 52.3197 168.636 52.0797 167.916C51.1197 165.517 48.5997 165.517 46.6797 165.397Z" fill="#1E1E1E"/>
<path d="M83.1597 167.676C83.5197 167.316 83.7597 166.837 83.7597 166.477C83.7597 165.637 83.0397 164.918 82.0797 164.798C80.7597 164.678 79.4397 164.678 78.1197 164.678C75.1197 164.678 72.1197 164.918 69.2397 165.517C68.3997 165.637 67.5597 165.877 66.9597 166.597C66.3598 167.316 66.1198 168.396 65.9998 169.355C65.6398 171.514 65.6398 173.433 65.7598 175.232C65.8798 177.271 66.3598 179.19 66.9597 180.99L67.0798 181.349C67.7997 183.508 68.5197 185.307 70.3197 185.307C71.0397 185.307 71.7597 185.187 72.3597 185.187C72.5997 185.187 72.9597 185.068 73.1997 185.068C74.2797 184.948 75.4797 184.828 76.5597 184.708C77.6397 184.588 78.5997 184.468 79.6797 184.348L80.3997 184.228C81.2397 184.108 81.9597 184.108 82.6797 183.868C85.0796 183.029 85.1996 180.51 85.3196 178.471L85.6796 170.915C85.6796 170.435 85.5596 170.075 85.3196 169.835C85.0796 169.595 84.5996 169.355 84.2396 169.355C83.3996 169.355 82.5597 169.835 82.5597 170.915L82.3197 176.912C82.3197 177.271 82.3197 177.511 82.3197 177.871C82.3197 178.591 82.3197 179.19 82.1997 179.79L82.0797 180.75H81.5997H81.4797C80.8797 180.87 80.2797 180.99 79.6797 180.99C79.4397 180.99 79.1997 180.99 78.9597 181.11C77.9997 181.229 77.0397 181.349 76.0797 181.469C74.9997 181.589 74.0397 181.709 72.9597 181.829L70.7997 182.069L70.6797 181.589C70.4397 181.11 70.3197 180.51 70.1997 180.03L70.0797 179.67C69.7197 178.471 69.4797 177.271 69.2397 176.192C68.8797 174.033 68.9997 171.754 69.3597 169.715C69.3597 169.475 69.4797 169.235 69.4797 168.996L69.5997 168.636L69.9597 168.516C70.1997 168.516 70.5597 168.396 70.7997 168.396C71.9997 168.156 73.3197 168.036 74.5197 167.916C77.0397 167.676 79.6797 167.676 82.3197 167.916C82.5597 168.036 82.9197 167.916 83.1597 167.676Z" fill="#1E1E1E"/>
<path d="M145.799 167.316C143.759 163.718 136.319 162.759 132.839 164.078C131.879 164.438 131.159 165.037 130.559 165.757C128.759 166.117 127.319 167.556 127.199 169.835C127.079 174.033 126.959 178.231 126.959 182.429C126.839 186.027 130.679 187.466 133.559 186.147C137.519 184.348 143.879 186.387 145.679 180.989C146.399 178.83 146.279 176.312 146.399 174.033C146.399 171.994 146.879 169.355 145.799 167.316Z" fill="#F7C300"/>
<path d="M140.279 165.397L132.719 165.038C131.639 165.038 131.159 165.877 131.159 166.477C131.159 167.197 131.519 168.156 132.719 168.276L138.719 168.516C139.079 168.516 139.319 168.516 139.679 168.516C140.279 168.516 140.999 168.516 141.599 168.636H141.959C142.319 168.636 142.559 168.876 142.559 169.235C142.679 169.835 142.799 170.435 142.799 171.035C142.799 171.274 142.799 171.514 142.919 171.754C143.039 172.714 143.159 173.673 143.279 174.633C143.399 175.712 143.519 176.672 143.639 177.751L143.879 179.91L143.399 180.03C142.919 180.27 142.319 180.39 141.839 180.51L141.479 180.63C140.279 180.99 139.079 181.229 137.999 181.469C135.839 181.829 133.559 181.709 131.519 181.349C131.279 181.349 131.039 181.23 130.799 181.23L130.439 181.11L130.319 180.75C130.319 180.51 130.199 180.27 130.199 180.03V179.91C129.959 178.711 129.839 177.391 129.719 176.192C129.479 173.673 129.479 171.035 129.719 168.396C129.719 168.036 129.599 167.676 129.359 167.316C128.999 166.957 128.519 166.717 128.159 166.717C127.319 166.717 126.599 167.436 126.479 168.396C126.119 172.714 126.359 177.032 127.199 181.23C127.319 182.069 127.559 182.909 128.279 183.508C128.999 184.108 130.079 184.348 131.159 184.468C133.319 184.828 135.239 184.828 137.039 184.708C139.079 184.588 141.119 184.108 142.799 183.508L143.159 183.388C145.319 182.669 147.119 181.949 147.119 180.15C147.119 179.43 146.999 178.831 146.999 178.111C146.999 177.751 146.879 177.511 146.879 177.271C146.759 176.192 146.639 174.993 146.519 173.913C146.399 172.834 146.279 171.874 146.159 170.915C146.159 170.675 146.159 170.435 146.039 170.195C145.919 169.475 145.919 168.636 145.679 167.916C144.719 165.517 142.199 165.517 140.279 165.397Z" fill="#1E1E1E"/>
<path d="M116.039 180.51V180.39C116.279 176.432 116.039 172.474 115.319 168.756C115.199 167.916 114.959 167.077 114.239 166.477C113.519 165.877 112.439 165.637 111.359 165.517C109.919 165.277 108.599 165.157 107.279 165.157C106.679 165.157 106.079 165.157 105.479 165.277C103.439 165.397 101.399 165.877 99.7194 166.477L99.3594 166.597C97.1994 167.316 95.3994 168.036 95.3994 169.835C95.3994 170.555 95.5194 171.154 95.5194 171.874C95.5194 172.234 95.6394 172.474 95.6394 172.714C95.7594 173.793 95.8794 174.993 95.9994 176.072C96.1194 177.151 96.2394 178.111 96.3594 179.19C96.3594 179.43 96.3594 179.67 96.4794 179.91C96.5994 180.63 96.5994 181.469 96.8394 182.189C97.6794 184.588 100.199 184.708 102.239 184.828L109.799 185.187C110.039 185.187 110.279 185.187 110.519 185.068L110.879 184.948C111.239 184.948 111.599 184.828 111.959 184.828C112.799 184.828 113.759 184.708 114.599 184.348C115.679 183.868 116.519 182.549 116.399 181.229C116.399 180.99 116.399 180.87 116.279 180.63L116.039 180.51ZM112.799 180.99V181.589H112.199C111.959 181.589 111.599 181.589 111.359 181.709C111.119 181.709 110.759 181.829 110.519 181.829L110.039 181.949H109.919L102.959 181.709C102.359 181.709 101.639 181.709 101.039 181.589H100.919C100.799 181.589 100.679 181.589 100.679 181.589C100.439 181.589 100.199 181.349 100.079 180.99C99.9594 180.39 99.8394 179.79 99.8394 179.19C99.8394 178.951 99.8394 178.711 99.7194 178.471C99.5994 177.511 99.4794 176.552 99.3594 175.592C99.2394 174.513 99.1194 173.553 98.9994 172.474L98.7594 170.315L99.2394 170.195C99.7194 169.955 100.319 169.835 100.799 169.715L101.159 169.595C102.359 169.235 103.439 168.996 104.639 168.756C106.799 168.396 109.079 168.516 111.119 168.876C111.359 168.876 111.599 168.996 111.839 168.996L112.199 169.115L112.319 169.475C112.319 169.715 112.439 169.955 112.439 170.315C112.679 171.514 112.799 172.834 112.919 174.033C113.039 176.072 113.039 178.471 112.799 180.99Z" fill="#1E1E1E"/>
<path d="M33.24 198.021C56.0399 196.822 79.0797 196.702 101.88 197.781C103.2 197.781 103.8 196.822 103.92 195.862C103.92 194.783 103.32 193.583 101.88 193.463C91.4397 192.984 80.9997 192.744 70.5598 192.744C58.0799 192.744 45.7199 193.103 33.36 193.703C31.92 193.823 31.2 195.023 31.32 196.102C31.32 197.061 31.8 198.021 33.24 198.021Z" fill="#1E1E1E"/>
<path d="M72.5994 206.777C72.9594 206.057 72.9594 205.098 72.5994 204.378C72.3594 204.018 71.8794 203.538 70.9194 203.538C58.9195 203.898 46.7996 203.898 34.9196 203.418H34.7996C33.4796 203.418 32.9996 204.378 32.8796 205.337C32.8796 206.417 33.4796 207.616 34.9196 207.616C46.7996 208.096 58.9195 208.096 70.7994 207.736C71.8794 207.736 72.3594 207.257 72.5994 206.777Z" fill="#1E1E1E"/>
<path d="M215.878 102.669C215.398 100.27 213.238 98.2311 210.959 97.8713C210.239 97.7513 209.759 97.7514 209.279 98.1112C209.159 98.2311 209.039 98.351 208.799 98.471L208.319 99.0707L207.839 98.471C207.839 98.351 207.719 98.3511 207.719 98.2311C207.719 98.2311 207.719 98.1112 207.599 98.1112C207.119 97.7514 206.639 97.5115 206.039 97.5115C205.559 97.5115 204.959 97.7514 204.479 98.1112C202.799 99.6704 202.439 102.189 202.439 104.348C202.319 107.586 205.319 109.266 207.119 109.985C208.319 110.465 209.519 110.585 210.839 110.345C211.798 110.225 212.758 109.745 213.838 108.906C215.638 107.347 216.358 104.948 215.878 102.669ZM211.798 104.588V104.708C211.678 104.948 211.559 105.068 211.559 105.188L211.438 105.308L211.319 105.428C211.319 105.428 211.198 105.547 211.078 105.667C210.958 105.787 210.718 106.027 210.478 106.027H210.359H210.239C210.119 106.027 209.999 106.027 209.879 106.027C209.759 106.027 209.759 106.027 209.639 106.027C209.639 106.027 209.399 106.147 209.639 106.027C209.519 106.147 209.279 106.147 209.159 106.147C209.039 106.147 208.919 106.027 208.799 105.907H208.679C208.439 105.787 208.319 105.787 208.319 105.667C208.079 105.547 207.839 105.428 207.719 105.308L207.599 105.188L207.119 104.708V104.468C207.119 103.988 207.119 103.508 207.239 103.149C207.359 102.669 207.479 102.189 207.599 101.709L207.839 101.23C207.959 101.11 207.959 101.11 207.959 101.11L208.079 100.99L208.559 100.51L209.039 101.11C209.399 101.589 209.759 101.829 210.119 101.949C210.359 101.949 210.599 102.069 210.839 102.069H210.959C210.959 102.069 211.079 102.189 211.199 102.189L211.319 102.309L211.438 102.429C211.438 102.429 211.439 102.429 211.559 102.549C211.679 102.549 211.678 102.669 211.678 102.669L211.798 102.789C212.038 103.149 212.278 103.508 212.278 103.988C212.278 104.108 212.278 104.348 212.158 104.468C211.799 104.588 211.798 104.588 211.798 104.588Z" fill="#1E1E1E"/>
<path d="M175.319 98.5911C156.479 98.8309 137.519 98.9509 118.679 99.1908C118.439 99.1908 118.199 99.1908 117.959 99.1908C117.719 99.1908 117.359 99.1908 117.119 99.1908C109.079 99.5506 101.159 99.7905 93.1195 100.03C87.7196 100.15 82.3196 100.15 76.9196 99.9104C74.0397 99.7905 71.2797 99.5506 68.5197 99.3107C67.0797 99.1908 65.7597 98.9509 64.3197 98.8309C63.2397 98.711 61.7997 98.711 60.8397 98.1113C58.9198 97.0318 59.0397 93.3137 58.7998 91.5146C58.4398 88.756 58.1998 85.8774 58.0798 83.1188C57.8398 77.4816 57.9598 71.7245 58.5598 66.0873C58.5598 65.8474 58.5598 65.6076 58.5598 65.4876C77.5196 65.2477 96.3595 65.0079 115.199 64.768C115.439 64.768 115.679 64.768 115.919 64.768C116.159 64.768 116.519 64.768 116.759 64.768C124.799 64.4082 132.719 64.1683 140.759 63.9284C146.159 63.8085 151.559 63.8085 156.959 64.0483C159.839 64.1683 162.599 64.4082 165.359 64.648C166.799 64.768 168.119 65.0079 169.559 65.1278C170.639 65.2477 172.079 65.2477 173.039 65.8474C174.959 66.9269 174.839 70.645 175.079 72.4441C175.439 75.2028 175.679 78.0813 175.799 80.8399C176.039 86.4771 175.919 92.2342 175.319 97.8714C175.319 98.2312 175.319 98.3512 175.319 98.5911Z" fill="white"/>
<path d="M155.999 150.165C156.599 144.887 156.839 139.61 156.719 134.213C156.599 128.935 156.239 123.538 155.039 118.501C154.559 116.582 153.479 114.782 151.559 113.823C149.399 112.863 146.759 112.743 144.359 112.504C139.079 111.904 133.919 111.664 128.639 111.544C117.839 111.424 107.039 111.904 96.3595 112.384C95.3995 112.384 94.4395 112.504 93.4795 112.504V112.384C76.3196 112.504 59.0398 112.743 41.8799 112.863C39.1199 112.863 36.2399 112.863 33.4799 112.983C31.7999 112.983 31.4399 114.782 32.1599 115.862C32.0399 116.102 32.0399 116.222 31.9199 116.462C31.3199 121.739 31.0799 127.016 31.1999 132.414C31.3199 137.691 31.6799 143.088 32.8799 148.126C33.3599 150.045 34.4399 151.844 36.3599 152.803C38.5199 153.763 41.1599 153.883 43.5598 154.123C48.8398 154.722 53.9998 154.962 59.2798 155.082C70.0797 155.202 80.8796 154.722 91.5596 154.243C92.5196 154.243 93.4795 154.123 94.4395 154.123V154.243C111.599 154.123 128.879 153.883 146.039 153.763C148.799 153.763 151.679 153.763 154.439 153.643C156.119 153.643 156.479 151.844 155.759 150.764C155.879 150.644 155.879 150.405 155.999 150.165Z" fill="#1E1E1E" stroke="#1E1E1E" stroke-width="1.5554" stroke-miterlimit="10"/>
<path d="M152.399 150.045C133.559 150.285 114.599 150.405 95.7595 150.645C95.5195 150.645 95.2795 150.645 95.0395 150.645C94.7995 150.645 94.4395 150.645 94.1995 150.645C86.1595 151.005 78.2396 151.244 70.1996 151.484C64.7997 151.604 59.3997 151.604 53.9997 151.364C51.1197 151.244 48.3598 151.005 45.5998 150.765C44.1598 150.645 42.8398 150.405 41.3998 150.285C40.3198 150.165 38.8798 150.165 37.9198 149.565C35.9998 148.486 36.1198 144.768 35.8798 142.969C35.5198 140.21 35.2798 137.331 35.1598 134.573C34.9198 128.936 35.0398 123.179 35.6398 117.541C35.6398 117.301 35.6398 117.062 35.6398 116.942C54.4797 116.702 73.4396 116.582 92.2795 116.342C92.5195 116.342 92.7595 116.342 92.9995 116.342C93.2395 116.342 93.5995 116.342 93.8395 116.342C101.879 115.982 109.799 115.742 117.839 115.502C123.239 115.382 128.639 115.382 134.039 115.622C136.919 115.742 139.679 115.982 142.439 116.222C143.879 116.342 145.199 116.582 146.639 116.702C147.719 116.822 149.159 116.822 150.119 117.421C152.039 118.501 151.919 122.219 152.159 124.018C152.519 126.777 152.759 129.655 152.879 132.414C153.119 138.051 152.999 143.808 152.399 149.445C152.279 149.565 152.279 149.805 152.399 150.045Z" fill="white"/>
<path d="M155.999 48.6957C156.599 43.4184 156.839 38.141 156.719 32.7437C156.599 27.4663 156.239 22.069 155.039 17.0316C154.559 15.1125 153.479 13.3134 151.559 12.3539C149.399 11.3944 146.759 11.2744 144.359 11.0346C139.079 10.4349 133.919 10.195 128.639 10.075C117.839 9.9551 107.039 10.4349 96.3595 10.9146C95.3995 10.9146 94.4395 11.0346 93.4795 11.0346V10.9146C76.3196 11.0346 59.0398 11.2744 41.8799 11.3944C39.1199 11.3944 36.2399 11.3944 33.4799 11.5143C31.7999 11.5143 31.4399 13.3134 32.1599 14.3929C32.0399 14.6328 32.0399 14.7527 31.9199 14.9926C31.3199 20.2699 31.0799 25.5473 31.1999 30.9446C31.3199 36.222 31.6799 41.6193 32.8799 46.6567C33.3599 48.5758 34.4399 50.3749 36.3599 51.3344C38.5199 52.2939 41.1599 52.4139 43.5598 52.6538C48.8398 53.2535 53.9998 53.4933 59.2798 53.6133C70.0797 53.7332 80.8796 53.2534 91.5596 52.7737C92.5196 52.7737 93.4795 52.6538 94.4395 52.6538V52.7737C111.599 52.6538 128.879 52.4139 146.039 52.2939C148.799 52.2939 151.679 52.2939 154.439 52.174C156.119 52.174 156.479 50.3749 155.759 49.2954C155.879 49.1755 155.879 48.9356 155.999 48.6957Z" fill="#1E1E1E" stroke="#1E1E1E" stroke-width="1.5554" stroke-miterlimit="10"/>
<path d="M152.399 48.5756C133.559 48.8155 114.599 48.9354 95.7595 49.1753C95.5195 49.1753 95.2795 49.1753 95.0395 49.1753C94.7995 49.1753 94.4395 49.1753 94.1995 49.1753C86.1595 49.5351 78.2396 49.775 70.1996 50.0149C64.7997 50.1348 59.3997 50.1348 53.9997 49.895C51.1197 49.775 48.3598 49.5351 45.5998 49.2952C44.1598 49.1753 42.8398 48.9354 41.3998 48.8155C40.3198 48.6956 38.8798 48.6955 37.9198 48.0958C35.9998 47.0164 36.1198 43.2982 35.8798 41.4991C35.5198 38.7405 35.2798 35.862 35.1598 33.1033C34.9198 27.4662 35.0398 21.709 35.6398 16.0719C35.6398 15.832 35.6398 15.5921 35.6398 15.4722C54.4797 15.2323 73.4396 15.1123 92.2795 14.8725C92.5195 14.8725 92.7595 14.8725 92.9995 14.8725C93.2395 14.8725 93.5995 14.8725 93.8395 14.8725C101.879 14.5126 109.799 14.2728 117.839 14.0329C123.239 13.9129 128.639 13.9129 134.039 14.1528C136.919 14.2728 139.679 14.5126 142.439 14.7525C143.879 14.8725 145.199 15.1123 146.639 15.2323C147.719 15.3522 149.159 15.3522 150.119 15.9519C152.039 17.0314 151.919 20.7495 152.159 22.5486C152.519 25.3072 152.759 28.1858 152.879 30.9444C153.119 36.5816 152.999 42.3387 152.399 47.9759C152.279 48.0959 152.279 48.3357 152.399 48.5756Z" fill="white"/>
<path d="M61.5598 30.4646C59.2798 24.8274 52.5599 22.1887 47.7599 26.6265C45.5999 28.7854 44.3999 31.664 44.6399 34.6625C44.9999 37.5411 47.0399 40.2997 50.0399 40.4196C50.9999 41.3792 52.3199 41.9788 53.8798 42.0988C60.4798 42.8184 63.8398 35.9818 61.5598 30.4646Z" fill="#59C69F"/>
<path d="M49.3198 42.0989C51.1198 42.5787 52.7998 42.2189 54.2398 41.2593C55.5598 40.2998 56.6398 39.1004 57.5998 37.5412C59.3998 34.5427 59.5198 30.9445 57.8398 28.1859C55.7998 24.8276 51.7198 23.3883 47.9998 24.5877C47.1598 24.8276 46.5598 25.6671 46.7998 26.6267L47.0398 27.5862L46.0798 27.2264C45.8398 27.1064 45.5998 27.1064 45.3598 27.1064C44.9998 27.1064 44.5199 27.2264 44.2799 27.5862C42.3599 29.985 41.8799 32.9835 42.8399 35.862C44.0399 38.9805 46.5598 41.3793 49.3198 42.0989ZM45.9598 32.2638C45.9598 31.4243 46.3198 30.7046 46.7998 30.1049C47.3998 29.3853 47.2798 28.4258 47.1598 27.5862C47.5198 27.946 48.1198 28.0659 48.5998 28.0659C49.0798 28.0659 49.6798 27.8261 50.1598 27.8261C51.4798 27.7061 52.7998 28.0659 53.8798 28.9055C54.8398 29.7451 55.5598 30.9445 55.6798 32.2638C55.7998 34.4228 54.4798 36.4617 53.0398 37.901C52.6798 38.2608 52.3198 38.6207 51.8398 38.7406C51.1198 38.9805 50.2798 38.8605 49.6798 38.6207C48.8398 38.2608 47.9998 37.6611 47.3998 36.9415C47.5198 36.8216 47.5198 36.8216 47.6398 36.7016C47.6398 36.8216 47.3998 36.7016 47.2798 36.5817C46.4398 35.5022 45.8398 33.8231 45.9598 32.2638Z" fill="#1E1E1E"/>
<path d="M134.639 29.9852H134.759C135.719 29.6254 136.319 28.5459 136.079 27.5864C135.959 27.1066 135.719 26.6269 135.239 26.387C134.879 26.267 134.519 26.267 134.159 26.267C120.959 26.1471 107.759 25.9072 94.5592 25.9072C86.2793 25.9072 77.9993 25.9072 69.7194 26.0272C68.7594 26.0272 68.3994 26.5069 68.1594 26.8667C67.7994 27.4664 67.7994 28.426 68.1594 29.0257C68.3994 29.3855 68.8794 29.8652 69.7194 29.8652C78.1193 29.7453 86.6393 29.7453 95.0392 29.7453C107.759 29.7453 120.359 29.8652 133.079 30.1051C133.679 30.1051 134.159 30.1051 134.639 29.9852Z" fill="#1E1E1E"/>
<path d="M111.839 40.7795C112.199 40.6596 112.559 40.4197 112.799 40.1798C113.279 39.5801 113.039 38.5007 112.439 38.0209C110.759 36.3417 107.639 37.3013 105.599 37.1813C102.239 37.1813 98.8795 37.0614 95.5195 37.0614C88.7996 36.9414 82.0796 36.8215 75.3596 36.5816C73.4396 36.5816 71.6397 36.4617 69.7197 36.4617C68.3997 36.4617 67.9197 37.4212 67.9197 38.2608C67.9197 39.2203 68.5197 40.2997 69.8397 40.2997C83.0396 40.7795 96.4795 41.6191 109.679 41.2593C110.279 41.2593 110.879 41.1393 111.479 41.0194C111.719 40.8995 111.839 40.7795 111.839 40.7795Z" fill="#1E1E1E"/>
<path d="M85.3197 84.7976C83.0397 90.4347 76.3198 93.0734 71.5198 88.6356C69.3598 86.5967 68.1598 83.5982 68.5198 80.7196C68.8798 77.841 70.9198 75.0824 73.9198 74.9625C74.8798 74.003 76.1998 73.4032 77.7598 73.2833C84.3597 72.4437 87.5997 79.2803 85.3197 84.7976Z" fill="#59C69F"/>
<path d="M66.8396 79.5202C65.8796 82.3988 66.3596 85.3973 68.2796 87.7961C68.5196 88.1559 68.8796 88.2759 69.3596 88.2759C69.5996 88.2759 69.8396 88.2759 70.0796 88.1559L71.0396 87.7961L70.7996 88.7556C70.5596 89.7151 71.2796 90.5547 71.9996 90.7946C75.5996 91.994 79.7995 90.5547 81.8395 87.1964C83.5195 84.4378 83.3995 80.9595 81.5995 77.8411C80.6395 76.2819 79.5595 75.0825 78.2395 74.1229C76.9196 73.1634 75.1196 72.8036 73.3196 73.2834C70.3196 73.8831 67.9196 76.2819 66.8396 79.5202ZM71.0396 78.8006C71.1596 78.6807 71.2796 78.5607 71.3996 78.6807C71.2796 78.5607 71.2796 78.5607 71.1596 78.4408C71.7596 77.7211 72.4796 77.1214 73.4396 76.7616C74.1596 76.5217 74.8796 76.2819 75.5996 76.6417C76.0796 76.7616 76.4396 77.1214 76.7996 77.4813C78.3595 79.0405 79.6795 80.9595 79.4395 83.1184C79.3195 84.4378 78.7195 85.6372 77.6395 86.4768C76.6796 87.3163 75.2396 87.6762 73.9196 87.5562C73.4396 87.4363 72.8396 87.3163 72.3596 87.3163C71.8796 87.3163 71.2796 87.4363 70.9196 87.7961C71.0396 86.9565 71.1596 85.997 70.5596 85.2774C70.0796 84.6777 69.8396 83.8381 69.7196 83.1184C69.5996 81.5592 70.1996 79.8801 71.0396 78.8006Z" fill="#1E1E1E"/>
<path d="M166.319 85.2774H166.439C167.519 85.6372 168.119 86.7167 167.999 87.6762C167.879 88.156 167.519 88.6357 167.039 88.8756C166.679 88.9955 166.199 88.9955 165.839 88.9955C151.079 89.1155 136.319 89.3554 121.559 89.3554C112.319 89.3554 103.079 89.3554 93.8395 89.2354C92.8795 89.2354 92.2795 88.7557 92.0395 88.3958C91.6795 87.7961 91.6795 86.8366 92.0395 86.2369C92.2795 85.8771 92.7595 85.3973 93.8395 85.3973C103.199 85.5173 112.679 85.5173 122.159 85.5173C136.319 85.5173 150.599 85.3974 164.759 85.1575C165.239 85.1575 165.839 85.1575 166.319 85.2774Z" fill="#1E1E1E"/>
<path d="M135.719 74.4825C136.079 74.6024 136.439 74.8423 136.679 75.0822C137.159 75.6819 136.919 76.7613 136.319 77.2411C134.639 78.9203 131.519 77.9607 129.479 78.0807C126.119 78.0807 122.759 78.2006 119.399 78.2006C112.679 78.3206 105.959 78.4405 99.2395 78.6804C97.3195 78.6804 95.5195 78.8003 93.5995 78.8003C92.2796 78.8003 91.7996 77.8408 91.7996 77.0012C91.7996 76.0417 92.3996 74.9622 93.7195 74.9622C106.919 74.4825 120.359 73.6429 133.559 74.0027C134.159 74.0027 134.759 74.1227 135.359 74.2426C135.479 74.4825 135.599 74.4825 135.719 74.4825Z" fill="#1E1E1E"/>
<path d="M61.5599 130.735C59.28 125.097 52.56 122.459 47.76 126.897C45.6 128.936 44.4 131.934 44.76 134.813C45.12 137.691 47.16 140.45 50.16 140.57C51.12 141.529 52.44 142.129 54 142.249C60.4799 143.088 63.8399 136.252 61.5599 130.735Z" fill="#59C69F"/>
<path d="M49.3198 142.249C51.1198 142.729 52.7998 142.369 54.2398 141.409C55.5598 140.45 56.6398 139.25 57.5998 137.691C59.3998 134.693 59.5198 131.094 57.8398 128.336C55.7998 124.977 51.7198 123.538 47.9998 124.738C47.1598 124.977 46.5598 125.817 46.7998 126.777L47.0398 127.736L46.0798 127.376C45.8398 127.256 45.5998 127.256 45.3598 127.256C44.9998 127.256 44.5199 127.376 44.2799 127.736C42.3599 130.135 41.8799 133.133 42.8399 136.012C44.0399 139.13 46.5598 141.529 49.3198 142.249ZM45.9598 132.414C45.9598 131.574 46.3198 130.855 46.7998 130.255C47.3998 129.535 47.2798 128.576 47.1598 127.736C47.5198 128.096 48.1198 128.216 48.5998 128.216C49.0798 128.216 49.6798 127.976 50.1598 127.976C51.4798 127.856 52.7998 128.216 53.8798 129.055C54.8398 129.895 55.5598 131.094 55.6798 132.414C55.7998 134.573 54.4798 136.612 53.0398 138.051C52.6798 138.411 52.3198 138.771 51.8398 138.891C51.1198 139.13 50.2798 139.01 49.6798 138.771C48.8398 138.411 47.9998 137.811 47.3998 137.091C47.5198 136.971 47.5198 136.971 47.6398 136.852C47.6398 136.971 47.3998 136.852 47.2798 136.732C46.4398 135.652 45.8398 133.973 45.9598 132.414Z" fill="#1E1E1E"/>
<path d="M143.399 130.135H143.519C144.599 129.775 145.319 128.696 145.079 127.736C144.959 127.257 144.599 126.777 144.119 126.537C143.759 126.417 143.279 126.417 142.919 126.417C128.039 126.297 113.039 126.057 98.1596 126.057C88.7996 126.057 79.4397 126.057 70.0798 126.177C68.9998 126.177 68.5198 126.657 68.2798 127.017C67.9198 127.616 67.9198 128.576 68.2798 129.176C68.5198 129.535 68.9998 130.015 70.0798 130.015C79.5597 129.895 89.1596 129.895 98.7596 129.895C113.159 129.895 127.439 130.015 141.839 130.255C142.319 130.255 142.799 130.255 143.399 130.135Z" fill="#1E1E1E"/>
<path d="M117.719 141.049C118.199 140.929 118.559 140.689 118.799 140.45C119.399 139.85 119.039 138.77 118.439 138.291C116.519 136.612 113.039 137.571 110.759 137.451C106.919 137.451 103.079 137.331 99.3595 137.331C91.7995 137.211 84.1196 137.091 76.5596 136.851C74.3996 136.851 72.3596 136.731 70.1997 136.731C68.7597 136.731 68.1597 137.691 68.1597 138.531C68.1597 139.49 68.7597 140.57 70.3197 140.57C85.3196 141.049 100.439 141.889 115.439 141.529C116.159 141.529 116.879 141.409 117.479 141.289C117.479 141.049 117.599 141.049 117.719 141.049Z" fill="#1E1E1E"/>
<path d="M209.879 147.166C209.879 144.648 206.159 144.648 206.159 147.166C205.799 168.995 206.039 190.705 206.759 212.534C206.879 215.052 210.599 215.052 210.479 212.534C209.759 190.705 209.519 168.995 209.879 147.166Z" fill="#1E1E1E"/>
<path d="M214.919 187.706C214.799 186.747 214.679 185.787 214.079 184.948C213.719 184.468 213.359 184.228 212.879 183.988C212.879 183.748 212.879 183.508 212.879 183.268C212.759 181.11 210.119 180.87 209.639 182.909C208.439 182.549 207.359 182.189 206.159 181.829C205.919 181.709 205.679 181.709 205.559 181.829C204.599 181.709 203.519 182.309 203.639 183.748C203.879 187.706 204.359 191.664 204.959 195.502C205.319 197.541 205.679 199.46 206.039 201.499C206.159 202.339 206.279 203.298 206.519 204.018C206.879 205.218 207.959 205.577 209.039 205.457C209.879 205.337 210.599 205.098 211.439 204.978C212.279 204.858 213.239 204.738 213.959 204.378C215.759 203.538 215.639 201.379 215.519 199.46C215.279 195.502 215.159 191.544 214.919 187.706Z" fill="#59C69F"/>
<path d="M215.279 181.23C214.199 180.51 212.639 180.75 211.319 180.63C208.319 180.39 205.439 180.15 202.439 179.91C200.999 179.79 200.399 181.11 200.759 182.309C200.279 182.549 199.919 183.149 199.919 183.868C199.919 188.906 200.039 193.943 200.399 198.861C200.519 200.06 200.639 201.379 200.759 202.579C200.879 203.778 200.879 204.978 201.599 205.937C202.919 207.856 205.919 207.257 207.959 207.137C209.159 207.137 210.359 207.137 211.559 207.017C212.759 207.017 213.959 207.137 214.919 206.297C215.759 205.577 215.879 204.738 215.879 203.658C215.999 202.339 215.999 201.02 216.119 199.7C216.359 194.663 216.479 189.625 216.479 184.468C216.359 183.269 216.359 181.949 215.279 181.23ZM210.839 203.299L208.319 203.418C207.599 203.418 206.759 203.418 206.039 203.418C205.679 203.418 204.959 203.538 204.479 203.538C204.359 203.059 204.359 202.339 204.359 201.859C204.239 201.14 204.239 200.3 204.119 199.58C203.999 197.781 203.879 195.982 203.759 194.303C203.639 190.825 203.519 187.346 203.519 183.868V183.748C206.519 183.988 209.519 184.108 212.519 184.468V184.588C212.519 185.068 212.519 185.547 212.519 186.027C212.519 186.867 212.519 187.706 212.519 188.546C212.519 190.345 212.519 192.144 212.399 193.943C212.399 195.622 212.279 197.421 212.279 199.101C212.279 200.06 212.159 201.02 212.159 201.859C212.159 202.339 212.159 202.819 212.039 203.299V203.418C211.679 203.299 211.199 203.299 210.839 203.299Z" fill="#1E1E1E"/>
<path d="M202.679 77.6008C198.239 77.7208 193.799 77.6008 189.359 77.4809C188.999 77.4809 188.519 77.4809 188.159 77.4809C188.159 77.4809 188.039 77.4809 187.919 77.361V77.241C187.799 76.2815 187.559 75.4419 187.439 74.4824C187.199 72.3235 187.079 70.1646 187.199 68.0056C187.319 65.6068 183.479 65.6068 183.479 68.0056C183.359 70.5244 183.599 72.9232 183.839 75.4419C184.199 77.8407 184.559 80.5993 187.319 81.0791C188.519 81.319 189.839 81.319 191.039 81.319C192.359 81.319 193.559 81.4389 194.879 81.4389C197.519 81.4389 200.039 81.4389 202.679 81.4389C205.079 81.199 205.079 77.4809 202.679 77.6008Z" fill="#F7C300"/>
<path d="M25.4398 21.4693C25.5598 20.5098 24.4799 19.5503 23.5199 19.5503C22.4399 19.5503 21.7199 20.3899 21.5999 21.4693C21.1199 25.7872 20.9999 30.225 21.2399 34.5428C21.2399 35.5023 22.0799 36.4618 23.1599 36.4618C24.1199 36.4618 25.0798 35.6223 25.0798 34.5428C24.8398 30.225 24.9599 25.7872 25.4398 21.4693Z" fill="#1E1E1E"/>
<path d="M133.679 0H111.719C109.319 0 109.319 3.71814 111.719 3.71814H133.679C136.079 3.71814 136.079 0 133.679 0Z" fill="#F7C300"/>
<path d="M8.40004 133.014C8.28004 132.054 7.56004 131.094 6.48005 131.094C5.52005 131.094 4.56006 131.934 4.56006 133.014C5.28005 140.33 5.40005 147.766 5.16006 155.082C5.04006 157.481 8.76003 157.481 8.88003 155.082C9.24003 147.766 9.00003 140.33 8.40004 133.014Z" fill="#F7C300"/>
<path d="M236.519 169.715C236.639 167.316 232.919 167.316 232.799 169.715C232.199 178.111 232.199 186.387 232.919 194.783C233.159 197.181 236.879 197.181 236.639 194.783C235.919 186.387 235.919 177.991 236.519 169.715Z" fill="#1E1E1E"/>
</svg>
