<svg width="240" height="240" viewBox="0 0 240 240" fill="none" xmlns="http://www.w3.org/2000/svg">
<path d="M165.109 79.4412C168.468 66.9613 177.106 54.8415 175.546 41.4016C174.227 30.4817 166.669 19.4418 158.631 12.1219C150.713 4.80196 140.635 0.00200661 129.838 0.00200661C117.841 -0.117992 104.884 5.16196 94.567 11.0419C90.0082 13.6819 85.9292 17.1618 83.05 21.6018C81.4904 23.8818 80.4106 26.5217 78.851 28.8017C77.0515 31.3217 75.132 33.4817 73.9323 36.4817C69.8533 46.8015 71.8928 60.0014 77.5314 69.1213C79.211 71.8813 81.7303 74.8813 82.5701 78.2412C83.5299 81.8412 81.7303 84.7212 80.2907 87.9611C78.0113 93.0011 77.0515 98.641 80.7706 103.201C87.2489 111.241 103.445 112.561 110.523 104.761C112.203 102.841 112.442 99.721 110.523 97.921C108.843 96.3611 107.044 95.4011 105.124 94.8011C105.964 92.7611 105.604 90.3611 103.205 88.9211C99.0059 86.4012 96.7265 82.4412 94.4471 78.2412C92.0477 73.8013 88.8085 69.4813 86.769 64.9214C84.0097 58.8014 87.7288 52.8015 90.0082 47.2815C90.968 45.1216 91.8077 41.1616 93.3673 39.4816C95.0469 37.6816 98.2861 37.4416 100.685 37.0816C111.363 35.6417 121.8 40.3216 132.117 35.4017C133.557 34.6817 136.796 32.1617 138.836 32.1617C137.876 32.4017 139.556 34.9217 140.155 35.7617C142.555 39.1216 145.554 38.8816 149.273 39.4816C153.712 40.2016 156.231 49.2015 157.551 53.4015C158.391 55.9215 158.991 58.6814 159.111 61.5614C158.991 62.0414 158.871 62.5214 158.751 62.8814C157.671 65.7614 156.591 68.5213 155.631 71.4013C153.232 73.8013 150.233 75.6013 148.553 78.6012C147.474 80.4012 147.114 82.4412 146.514 84.3612C145.674 87.7211 144.714 88.5611 142.315 90.9611C141.355 91.9211 140.755 93.0011 140.275 93.9611C137.876 93.8411 135.117 95.4011 134.877 98.521C133.557 112.681 151.313 109.801 159.59 107.521C164.029 106.321 166.669 103.561 165.589 98.641C164.029 91.6811 163.19 86.5212 165.109 79.4412Z" fill="#F7C300"/>
<path d="M125.279 164.64C121.8 163.44 118.441 162.96 115.442 164.28C113.882 163.32 111.723 163.2 110.043 165C102.725 172.56 97.5664 188.04 108.364 195C117.241 200.76 131.878 201.84 137.636 191.4C143.635 180.48 135.837 168.36 125.279 164.64Z" fill="#59C69F"/>
<path d="M194.382 221.88C193.422 221.88 192.702 222.24 191.982 222.6C169.428 221.28 146.754 220.68 124.2 220.68C112.683 220.68 101.166 220.92 89.6485 221.28C84.3698 221.4 79.2112 221.64 73.9325 221.76C68.4139 221.88 62.5354 220.92 57.0168 221.28C47.8991 222 49.2188 233.76 57.0168 235.68C61.4557 236.76 66.4944 236.4 71.0532 236.64C76.8118 236.88 82.6903 237.12 88.5688 237.24C99.9659 237.48 111.363 237.6 122.76 237.36C134.037 237.12 145.314 236.16 156.591 236.4C169.068 236.64 181.665 237.72 194.142 236.04C198.341 235.44 202.66 233.52 202.9 228.6C203.14 223.8 198.461 221.64 194.382 221.88Z" fill="#F7C300"/>
<path d="M150.473 114.841C147.594 119.041 141.595 120.241 137.037 121.561C133.198 122.761 129.239 123.721 125.16 124.441C124.68 123.961 123.96 123.601 123.12 123.361C111.123 120.361 99.2462 117.361 88.8088 110.401C87.7291 109.681 86.7693 109.561 85.8096 109.681C81.6107 108.121 77.0518 113.641 80.8909 117.121C92.5279 127.561 104.285 135.48 120.481 134.16C128.039 133.56 135.357 131.64 142.555 129.36C148.794 127.321 154.432 124.921 158.391 119.401C161.75 114.721 153.832 110.041 150.473 114.841Z" fill="#59C69F"/>
<path d="M186.344 227.16C183.584 227.16 183.584 231.48 186.344 231.48C189.103 231.48 189.103 227.16 186.344 227.16Z" fill="#1E1E1E"/>
<path d="M178.906 227.16C176.147 227.16 176.147 231.48 178.906 231.48C181.665 231.48 181.665 227.16 178.906 227.16Z" fill="#1E1E1E"/>
<path d="M173.507 228.72C173.387 228.48 173.267 228.24 173.147 228C173.027 227.76 172.787 227.64 172.548 227.4C172.428 227.28 172.188 227.28 172.068 227.16C171.708 227.04 171.348 227.04 170.988 227.16C170.868 227.28 170.628 227.28 170.508 227.4C170.148 227.64 169.908 227.88 169.788 228.12C169.788 228.24 169.668 228.36 169.668 228.36C169.548 228.6 169.428 228.84 169.428 229.2C169.308 229.44 169.428 229.8 169.428 230.04C169.548 230.28 169.668 230.52 169.788 230.76C169.908 231 170.148 231.12 170.388 231.36C170.508 231.48 170.748 231.48 170.868 231.6C171.228 231.72 171.588 231.72 171.948 231.6C172.068 231.48 172.308 231.48 172.428 231.36C172.787 231.12 173.027 230.88 173.147 230.64C173.147 230.52 173.267 230.4 173.267 230.4C173.387 230.16 173.507 229.92 173.507 229.56C173.627 229.32 173.627 229.08 173.507 228.72Z" fill="#1E1E1E"/>
<path d="M57.1367 228.48C57.0167 228.24 56.8967 228 56.6568 227.76C56.4169 227.52 56.1769 227.4 55.937 227.28C55.697 227.16 55.4571 227.04 55.0972 227.04C54.8573 227.04 54.7373 227.04 54.4973 227.16C54.1374 227.28 53.7775 227.4 53.5376 227.76C53.4176 227.88 53.2977 228 53.1777 228.24C52.9377 228.6 52.9377 228.96 52.9377 229.32V229.44C52.9377 229.68 52.9377 230.04 53.1777 230.28C53.2977 230.52 53.4176 230.76 53.6576 231C53.8975 231.24 54.1374 231.36 54.3774 231.48C54.6173 231.6 54.8573 231.72 55.2172 231.72C55.4571 231.72 55.5771 231.72 55.817 231.6C56.1769 231.48 56.5368 231.36 56.7768 231C56.8967 230.88 57.0167 230.76 57.1367 230.52C57.3766 230.16 57.3766 229.8 57.3766 229.44V229.32C57.3766 229.08 57.2566 228.84 57.1367 228.48Z" fill="#1E1E1E"/>
<path d="M65.655 228.72C65.535 228.48 65.415 228.24 65.1751 228C64.9352 227.76 64.6952 227.64 64.4553 227.52C64.2154 227.4 63.9754 227.28 63.6155 227.28C63.3756 227.28 63.2556 227.28 63.0157 227.4C62.6557 227.52 62.2958 227.64 62.0559 228C61.9359 228.12 61.816 228.24 61.696 228.48C61.4561 228.84 61.4561 229.2 61.4561 229.56V229.68C61.4561 229.92 61.4561 230.28 61.696 230.52C61.816 230.76 61.9359 231 62.1759 231.24C62.4158 231.48 62.6557 231.6 62.8957 231.72C63.1356 231.84 63.3756 231.96 63.7355 231.96C63.9754 231.96 64.0954 231.96 64.3353 231.84C64.6952 231.72 65.0551 231.6 65.2951 231.24C65.415 231.12 65.535 231 65.655 230.76C65.8949 230.4 65.8949 230.04 65.8949 229.68V229.56C65.775 229.2 65.775 228.96 65.655 228.72Z" fill="#1E1E1E"/>
<path d="M72.6127 227.64C69.8534 227.64 69.8534 231.96 72.6127 231.96C75.372 231.96 75.372 227.64 72.6127 227.64Z" fill="#1E1E1E"/>
<path d="M126.599 188.04C127.199 188.88 127.799 189.72 128.159 190.68C128.279 191.04 128.399 191.4 128.759 191.52C129.598 191.88 130.798 190.8 131.158 190.2C131.398 189.6 131.518 189 131.638 188.28C131.998 185.28 132.118 182.161 131.638 179.161C131.158 176.521 130.438 173.401 128.279 171.601C125.519 169.201 120.961 168.721 117.481 169.561C115.322 170.161 113.163 171.601 111.963 173.521C110.523 175.801 110.283 178.681 109.803 181.321C109.324 183.721 108.484 186.24 109.204 188.64C109.443 189.6 112.683 194.76 113.642 192.96C113.762 192.72 113.762 192.36 113.762 192C113.882 190.44 114.242 188.88 115.082 187.56C116.642 185.161 119.641 184.441 122.28 185.161C124.08 185.76 125.519 186.72 126.599 188.04ZM120.001 181.801C119.641 181.681 119.401 181.561 119.041 181.441C118.201 180.961 117.481 180.241 117.122 179.401C117.002 178.921 117.002 178.321 117.002 177.841C117.002 176.881 117.122 175.921 117.481 175.081C118.081 173.761 119.281 173.041 120.601 173.041C121.68 173.041 122.76 173.761 123.6 174.481C124.32 175.201 124.92 176.041 125.279 177.121C125.759 179.041 124.56 181.081 122.88 181.801C121.92 181.921 120.961 182.041 120.001 181.801Z" fill="#1E1E1E"/>
<path d="M205.779 170.52C203.979 166.2 202.18 161.88 200.5 157.56C200.5 157.56 200.5 157.56 200.5 157.44C200.5 153.48 200.38 149.52 200.14 145.56C200.02 144.12 199.9 142.56 199.78 141.12C199.42 137.401 199.54 132.361 195.221 130.921C193.182 130.321 190.783 130.201 188.743 130.081C188.263 130.081 187.903 129.961 187.423 129.961C183.105 125.281 177.466 122.641 171.827 119.881C167.748 117.841 163.789 115.561 159.83 113.521C159.351 113.401 158.871 113.161 158.271 113.041C155.392 111.601 152.152 110.761 149.033 109.681C152.152 109.081 155.152 108.601 158.151 107.881C161.03 107.281 163.909 105.841 164.989 102.961C166.429 99.4809 164.989 95.8809 164.509 92.401C161.99 74.4012 175.666 60.7213 176.026 43.3214C176.266 28.0816 164.869 15.6017 152.752 7.9218C145.314 3.24184 136.316 0.00187683 127.559 2.52185C127.079 2.64185 126.839 2.88185 126.599 3.24185C126.479 3.24185 126.239 3.36184 126.119 3.36184C109.923 3.60184 92.7676 9.24179 81.4905 21.4817C70.8132 33.1216 66.4943 51.3614 74.0524 65.7612C75.9719 69.4812 78.8512 72.8412 79.6909 76.9211C80.4108 81.2411 78.0114 85.201 76.9316 89.161C75.8519 93.241 76.3318 97.2009 78.7312 100.681C81.2505 104.161 85.0896 106.321 89.0485 107.641C89.4085 107.761 89.7684 107.881 90.1283 108.001C90.0083 108.001 89.8883 108.001 89.6484 108.001C87.7289 107.401 85.6894 107.041 83.7699 107.521C83.1701 107.401 82.6902 107.641 82.2103 108.001C80.8906 108.481 79.571 109.081 78.2513 109.681C78.2513 109.681 78.2513 109.681 78.2513 109.801C72.9727 112.561 67.814 115.681 63.1352 119.401C59.2961 122.521 56.057 126.601 53.7775 131.041C50.8983 131.041 47.8991 131.041 45.0198 131.761C41.1808 132.721 38.5414 135.241 37.1018 138.961C35.6622 142.8 35.3023 147.36 35.6622 151.44C35.7821 153.6 36.1421 155.76 36.7419 157.92C37.4617 160.56 41.5407 159.48 40.8209 156.72C39.7411 152.76 39.5012 148.56 40.101 144.48C40.5809 141.24 41.5407 137.401 45.0198 136.201C47.6591 135.241 50.6583 135.361 53.4176 135.361C54.0175 135.841 54.9772 135.961 55.5771 135.361C60.016 135.361 64.4548 135.241 68.8937 135.241C86.2893 135.001 103.685 134.761 121.08 134.521C138.356 134.281 155.752 133.801 173.147 133.921C177.466 133.921 181.905 134.041 186.224 134.401C188.263 134.521 190.423 134.761 192.462 135.001C193.062 135.121 193.782 135.121 194.262 135.481C194.742 135.961 194.862 136.921 194.982 137.521C195.581 141.84 195.701 146.28 195.821 150.6C195.941 154.8 196.061 159.12 195.941 163.32C195.821 173.04 195.461 182.64 194.982 192.36C194.502 201.24 193.902 210.36 190.183 218.52C189.943 219.12 189.823 219.72 190.063 220.2C189.823 220.2 189.463 220.2 189.223 220.2C178.186 219.6 167.149 219.24 156.231 219.12C134.277 218.76 112.203 219.24 90.2482 219.48C79.2111 219.6 68.1739 219.72 57.2567 219.84C55.0972 219.84 52.8178 219.84 50.6583 220.2C46.4594 203.4 43.9401 186.12 42.8603 168.84C42.7404 166.08 38.4215 166.08 38.5414 168.84C38.6614 171.6 38.9013 174.36 39.1413 177.12C36.502 183.36 35.7821 190.2 35.3023 196.92C35.0623 200.4 35.3023 203.64 36.6219 206.88C37.9416 210 39.9811 212.64 42.2605 215.04C43.1003 216 44.3 215.64 44.8998 214.8C44.8998 214.92 44.8998 214.92 44.8998 215.04C45.0198 215.64 46.6994 221.64 46.4594 221.76C45.9795 222 45.6196 222.36 45.2597 222.72C42.1405 225.84 42.8603 230.76 45.4997 234C48.4989 237.72 53.4176 238.44 57.8565 238.8C63.2551 239.28 68.5338 239.52 73.9324 239.64C84.7297 239.88 95.5269 239.76 106.324 239.4C128.039 238.68 149.753 237.36 171.348 238.44C173.987 238.56 176.746 238.8 179.385 238.92C182.145 239.16 182.145 234.84 179.385 234.6C159.351 233.04 139.316 233.76 119.281 234.48C99.2459 235.32 79.2111 236.04 59.1762 234.48C55.5771 234.24 50.6583 234 48.3789 230.76C47.5391 229.68 46.9393 228 47.5391 226.56C48.139 225 49.8186 224.52 51.2582 224.16C53.1777 223.8 55.2172 223.92 57.1367 223.8C59.656 223.8 62.0554 223.8 64.5748 223.68C69.7335 223.68 74.8922 223.56 80.0508 223.56C100.446 223.32 120.72 223.08 141.115 223.08C151.193 223.08 161.15 223.2 171.228 223.56C176.386 223.68 181.425 223.92 186.584 224.16C187.783 224.16 189.103 224.28 190.303 224.4C191.023 224.4 191.742 224.28 191.982 224.88C192.582 226.56 192.462 229.32 191.742 231C191.143 232.44 189.823 233.64 188.263 233.64C185.504 233.52 185.504 237.84 188.263 237.96C191.982 238.08 194.502 235.56 195.821 232.32C195.821 232.32 195.821 232.32 195.941 232.32C196.661 230.28 196.661 228.12 196.661 225.96C196.541 224.52 196.181 223.08 195.461 222C195.101 221.4 194.502 221.04 193.902 220.68C193.902 220.56 194.022 220.56 194.022 220.44C195.941 216.36 197.141 211.92 197.861 207.6C198.221 207.48 198.461 207.24 198.701 206.88C201.1 202.8 203.379 198.84 205.779 194.76C207.938 191.16 209.978 187.44 209.618 183.12C209.498 178.68 207.458 174.6 205.779 170.52ZM80.0508 92.161C80.5307 88.321 82.6902 84.841 83.1701 81.0011C83.7699 76.9211 82.4502 73.2012 80.4108 69.6012C78.4912 66.3612 76.4518 63.2413 75.2521 59.6413C74.1724 56.1613 73.6925 52.4414 73.8124 48.7214C74.0524 41.4015 76.5717 34.0815 80.7707 28.0816C89.6484 15.2417 105.604 8.76179 120.72 7.32181C122.88 7.08181 125.159 6.96181 127.319 6.96181C127.559 7.08181 127.679 7.08181 127.919 7.20181C128.518 7.4418 129.118 7.8018 129.718 8.2818C130.198 8.76179 130.678 9.12179 131.158 9.72178C131.398 10.0818 131.998 10.2018 132.477 10.2018C132.957 10.2018 133.437 9.96178 133.797 9.72178C134.157 9.36179 134.397 8.88179 134.277 8.40179C134.277 7.9218 134.037 7.5618 133.797 7.08181C133.317 6.48181 132.717 5.88182 131.998 5.40182C138.356 4.68183 144.594 7.08181 150.113 10.4418C156.111 14.0417 161.87 18.8417 166.069 24.4816C170.148 30.0016 172.787 36.3615 172.667 43.3214C172.547 50.2814 169.908 56.8813 167.269 63.2413C164.989 68.7612 162.23 74.6411 161.27 80.6411C160.19 87.241 162.59 93.481 162.23 100.081C162.11 103.081 159.591 103.921 157.071 104.521C153.592 105.241 150.113 105.841 146.634 106.441C145.554 106.681 145.194 107.521 145.434 108.361C145.074 108.241 144.834 108.121 144.474 108.001C140.156 106.321 135.717 103.441 134.397 98.6409C133.797 96.3609 130.318 97.3209 130.918 99.6009C132.357 104.881 136.796 108.481 141.595 110.641C143.995 111.721 146.634 112.561 149.153 113.281C142.915 117.721 135.477 120.241 127.799 120.721C123.24 120.961 118.801 120.481 114.362 119.281C109.683 117.961 105.004 116.281 100.686 114.241C98.7661 113.401 96.8466 112.321 95.047 111.241C97.4464 111.001 99.9658 110.521 102.365 109.921C108.004 108.361 113.642 105.361 115.442 99.3609C116.162 97.0809 112.683 96.1209 111.963 98.4009C110.403 103.561 105.004 105.601 100.326 106.681C99.6059 106.921 98.7661 107.041 98.0463 107.161C98.0463 106.561 97.5664 105.961 96.7266 105.721C90.0083 104.401 78.9711 101.401 80.0508 92.161ZM80.6507 112.561C82.0903 112.321 83.53 111.841 84.9696 111.241C86.1693 111.361 87.249 111.481 88.4487 111.481C89.5284 112.561 90.8481 113.521 92.0478 114.481C89.8883 116.761 87.7289 119.041 85.6894 121.321C83.29 118.921 81.3705 116.041 80.0508 112.801C80.1708 112.801 80.4108 112.681 80.6507 112.561ZM71.1731 130.681C66.8542 130.681 62.4153 130.801 57.9765 130.801C60.016 127.321 62.6553 124.321 65.7745 121.801C69.0137 119.161 72.6127 117.001 76.2118 114.841C78.0114 118.921 80.6507 122.521 83.7699 125.521C83.8899 125.641 83.8899 125.761 84.0098 125.881C84.1298 126.001 84.2498 126.121 84.3698 126.121C86.2893 127.801 88.3287 129.121 90.4882 130.321C84.1298 130.561 77.6515 130.561 71.1731 130.681ZM88.8086 124.201C91.088 121.801 93.3675 119.281 95.6469 116.881C95.6469 116.881 95.6469 116.881 95.7668 116.761C97.8063 117.841 99.9658 118.921 102.245 119.761C100.686 122.641 99.3659 125.761 98.1662 128.761C94.8071 127.801 91.5679 126.241 88.8086 124.201ZM117.121 124.561C116.881 126.121 116.522 127.681 116.282 129.121C116.282 129.481 116.162 129.721 116.282 130.081C111.603 130.201 106.924 130.201 102.125 130.321C102.365 129.841 102.485 129.241 102.725 128.761C102.845 128.521 102.845 128.401 102.965 128.161C102.965 128.161 103.085 127.681 103.205 127.681C103.325 127.321 103.565 126.841 103.685 126.481C104.525 124.681 105.364 123.001 106.324 121.201C107.884 121.681 109.323 122.281 110.883 122.761C113.042 123.481 115.082 123.961 117.241 124.321C117.121 124.441 117.121 124.561 117.121 124.561ZM126.839 129.961C124.679 129.961 122.52 129.961 120.481 130.081C120.72 128.641 120.96 127.201 121.32 125.761C121.32 125.521 121.44 125.281 121.32 124.921C125.879 125.401 130.558 125.161 135.117 124.081C135.117 124.201 135.237 124.441 135.357 124.561C136.316 126.241 137.276 128.041 137.996 129.721C134.277 129.841 130.558 129.961 126.839 129.961ZM142.195 128.401H142.075C141.235 126.481 140.395 124.681 139.316 122.881C139.676 122.761 140.156 122.641 140.515 122.521C141.835 122.041 143.035 121.561 144.234 120.961C145.194 122.641 146.394 124.201 147.714 125.641C146.034 127.081 144.234 128.041 142.195 128.401ZM148.073 119.161C150.113 117.961 152.152 116.641 153.952 115.081C154.432 115.321 154.912 115.441 155.512 115.681C155.752 116.161 156.111 116.521 156.591 116.761C155.032 119.041 152.992 121.081 150.953 123.121C150.833 123.001 150.833 122.881 150.713 122.881C150.353 122.401 149.993 122.041 149.633 121.561C149.033 120.721 148.553 119.881 148.073 119.161ZM154.432 129.601C152.872 129.601 151.193 129.601 149.633 129.721C150.953 128.761 152.152 127.681 153.352 126.601C156.111 124.081 158.751 121.321 160.79 118.081C163.909 119.761 166.909 121.561 170.028 123.121C173.987 125.041 178.186 126.961 181.665 129.721C172.547 129.241 163.55 129.481 154.432 129.601ZM39.9811 205.2C38.6614 202.2 38.6614 199.2 39.0213 196.08C39.2613 192.6 39.6212 189.12 40.221 185.76C41.1808 193.08 42.1405 200.52 43.5802 207.72C43.8201 209.04 44.18 210.36 44.4199 211.56C42.7404 209.76 41.0608 207.72 39.9811 205.2ZM202.42 193.56L198.941 199.44C199.42 194.4 199.54 189.24 199.78 184.2C200.02 179.16 200.26 174 200.26 168.96C200.26 168.24 200.26 167.52 200.26 166.8L201.82 170.76C203.379 174.6 205.419 178.56 205.899 182.76C206.499 186.72 204.459 190.08 202.42 193.56Z" fill="#1E1E1E"/>
<path d="M160.791 49.9214C160.671 49.9214 160.671 49.9214 160.791 49.9214C160.311 49.2014 159.471 48.7214 158.631 48.7214C157.791 48.7214 156.951 48.7214 156.232 48.2415C155.632 47.8815 155.272 47.2815 155.152 46.6815C154.912 45.7215 155.032 44.6415 155.152 43.6815C154.912 42.7215 154.792 41.6415 154.432 40.6815C153.592 38.5215 152.393 36.3616 150.353 35.1616C148.074 33.8416 145.194 34.3216 142.675 34.0816C140.756 33.8416 137.396 33.1216 137.396 30.6016C137.396 30.3616 137.396 30.2416 137.277 30.1216C137.396 29.7616 137.396 29.2816 137.157 28.9216C136.797 28.3216 135.717 27.8417 135.117 28.3216C132.238 30.4816 129.119 32.0416 125.639 33.0016C122.04 33.9616 118.441 34.2016 114.722 33.8416C110.643 33.4816 106.684 32.7616 102.605 33.3616C100.686 33.6016 98.7663 33.9616 96.9668 34.5616C95.2872 35.1616 93.6076 35.8816 92.4079 37.0816C90.9683 38.6415 90.3685 40.8015 89.6486 42.7215C89.4087 43.4415 89.0488 44.1615 88.8089 44.8815C88.8089 46.2015 88.209 47.4015 87.4892 48.3614C86.8894 49.2014 86.0496 49.9214 85.2098 50.5214C84.49 51.6014 83.8901 52.9214 83.5302 54.2414C82.6904 56.8814 82.4505 59.7613 82.8104 62.5213C83.1703 65.2813 83.8901 68.0413 85.3298 70.4412C85.9296 71.5212 86.7694 72.6012 87.9691 73.0812C88.209 73.2012 88.449 73.2012 88.6889 73.3212C88.6889 73.4412 88.6889 73.5612 88.6889 73.8012C88.8089 74.1612 88.9288 74.5212 89.0488 75.0012C89.0488 75.1212 89.1688 75.3612 89.1688 75.4812C91.4482 82.8011 96.127 89.041 102.485 93.481C105.725 95.761 109.444 97.441 113.163 98.641C117.122 99.9609 121.68 101.041 125.879 100.321C129.598 99.7209 133.318 98.041 136.557 96.241C136.677 96.241 136.797 96.121 136.797 96.121C137.037 96.001 137.277 95.881 137.396 95.761C137.516 95.641 137.636 95.641 137.636 95.521L137.756 95.401C138.116 95.041 138.476 94.801 138.836 94.441C139.556 93.841 140.276 93.241 141.116 93.001C142.435 91.921 143.635 90.721 144.835 89.401C147.234 86.6411 149.034 83.5211 150.233 80.1611C150.473 79.4411 150.713 78.6012 151.073 77.8812C151.433 76.9212 152.033 76.4412 152.992 76.0812C154.792 75.2412 156.352 74.2812 157.671 72.8412C160.79 69.1212 161.63 64.3213 161.87 59.6413C162.35 56.2814 162.59 52.4414 160.791 49.9214ZM159.111 59.5213C158.871 63.2413 158.391 67.2013 155.992 70.2012C154.912 71.5212 153.592 72.4812 152.033 73.2012C150.233 74.0412 149.153 75.1212 148.434 76.9212C147.834 78.4812 147.354 80.0411 146.634 81.6011C145.914 83.0411 145.075 84.4811 144.115 85.8011C140.156 91.081 134.397 94.801 128.159 96.721C126.119 97.321 124.08 97.801 121.92 97.561C120.001 97.441 118.201 96.961 116.402 96.481C112.923 95.521 109.564 94.201 106.324 92.401C99.4861 88.4411 94.4474 82.2011 92.048 74.6412C92.048 73.6812 91.9281 72.6012 91.4482 71.7612C91.0883 71.2812 90.6084 70.9212 90.0086 70.6812C89.6487 70.5612 89.1688 70.5612 88.8089 70.3212C87.9691 69.8412 87.4892 68.5213 87.1293 67.6813C86.6494 66.4813 86.2895 65.2813 86.0496 64.0813C85.5697 61.8013 85.5697 59.2813 85.9296 57.0014C86.2895 55.3214 86.7694 52.2014 88.5689 51.4814C89.0488 51.1214 89.5287 50.6414 89.8886 50.1614C90.1285 49.6814 90.3685 49.2014 90.6084 48.8414C90.6084 48.8414 90.4884 48.8414 90.4884 48.7214C90.9683 47.2815 91.5682 45.9615 92.048 44.5215C92.6479 42.8415 93.1278 40.9215 94.2075 39.4815C95.1672 38.1616 96.7268 37.6816 98.1665 37.2016C99.966 36.6016 101.766 36.2416 103.685 36.1216C107.524 35.7616 111.363 36.4816 115.322 36.8416C118.921 37.0816 122.52 36.8416 125.999 35.8816C128.999 35.0416 131.878 33.8416 134.397 32.1616C135.117 34.4416 137.516 36.0016 139.916 36.4816C141.475 36.8416 143.155 36.9616 144.715 37.0816C146.154 37.0816 147.714 36.9616 148.914 37.9216C151.073 39.6015 152.033 43.0815 152.513 45.7215C152.513 45.8415 152.513 46.0815 152.633 46.2015C152.753 46.3215 152.873 46.4415 152.753 46.6815C152.753 46.9215 152.753 47.1615 152.753 47.4015V47.5215V47.6415C152.753 47.7615 152.753 47.8815 152.873 48.0015C152.873 48.1215 152.992 48.2414 152.992 48.3614C152.992 48.4814 152.992 48.4814 153.112 48.6014V48.7214C153.232 48.9614 153.352 49.2014 153.472 49.4414C153.592 49.5614 153.592 49.6814 153.712 49.8014L153.832 49.9214C153.952 50.1614 154.192 50.2814 154.432 50.5214L154.552 50.6414C154.552 50.6414 154.672 50.6414 154.672 50.7614C154.792 50.8814 154.792 50.8814 154.912 50.8814C155.152 50.8814 155.272 51.0014 155.512 51.0014L158.151 51.6014C159.711 53.7614 159.231 57.3614 159.111 59.5213Z" fill="#1E1E1E" stroke="#1E1E1E" stroke-width="0.752" stroke-miterlimit="10"/>
<path d="M114.362 48.0019C113.762 47.0419 112.803 46.9219 111.843 47.4019C108.604 48.7219 105.005 49.2019 101.405 48.8419C100.446 48.7219 99.606 49.8019 99.606 50.6419C99.606 51.7219 100.446 52.3219 101.405 52.4419C105.604 52.9219 109.803 52.0819 113.642 50.5219C114.602 50.1619 114.842 48.7219 114.362 48.0019Z" fill="#1E1E1E"/>
<path d="M147.114 51.0012C145.314 51.3612 143.395 50.8812 141.715 50.4012C139.796 49.8012 137.876 49.2012 136.197 48.2412C135.357 47.7612 134.157 48.3612 133.797 49.2012C133.437 50.1612 133.797 51.1212 134.757 51.6012C136.557 52.6812 138.596 53.2812 140.636 53.8812C142.915 54.4812 145.194 55.2012 147.474 54.7212C148.434 54.4812 149.153 53.7612 149.033 52.6812C149.033 51.7212 148.194 50.8812 147.114 51.0012Z" fill="#1E1E1E"/>
<path d="M104.045 65.0413C104.645 64.9213 105.125 64.5613 105.125 63.9613C105.125 63.6013 105.245 63.3613 105.365 63.0013C105.485 62.6413 105.605 62.4013 105.844 62.1613C106.564 61.0813 108.244 60.0013 110.163 60.1213C110.523 60.1213 110.763 60.2413 111.123 60.3613C112.323 60.8413 113.283 61.8013 113.762 63.0013C114.002 63.6013 114.482 63.8413 115.082 63.8413C115.922 63.7213 116.402 62.8813 116.162 62.1613C115.442 60.3613 114.122 58.8013 112.323 58.0814C111.963 57.9614 111.603 57.8414 111.243 57.7214C107.884 56.6414 103.805 58.8013 102.965 62.4013C102.845 62.7613 102.725 63.1213 102.725 63.6013C102.485 64.4413 103.205 65.1613 104.045 65.0413Z" fill="#1E1E1E"/>
<path d="M131.758 64.6815C132.358 64.8015 132.958 64.5615 133.197 64.0815C133.317 63.7215 133.557 63.4815 133.677 63.2415C133.917 63.0015 134.157 62.7615 134.397 62.5215C135.477 61.8015 137.276 61.3215 139.076 61.9215C139.436 62.0415 139.676 62.2815 139.916 62.4015C140.995 63.2415 141.595 64.4415 141.595 65.7615C141.595 66.3615 142.075 66.8415 142.555 66.9615C143.395 67.0815 144.115 66.4815 144.115 65.6415C143.995 63.7215 143.155 61.8015 141.715 60.6015C141.475 60.3615 141.115 60.1216 140.756 59.8816C137.996 57.8416 133.437 58.5616 131.398 61.8015C131.158 62.1615 130.918 62.4015 130.798 62.7615C130.558 63.6015 130.918 64.4415 131.758 64.6815Z" fill="#1E1E1E"/>
<path d="M131.758 77.2814C130.558 76.0814 128.399 76.5614 126.959 76.6814C123.36 77.0414 119.641 77.5214 116.042 78.3614C115.202 78.4814 114.722 79.4414 114.842 80.1614C114.122 80.5214 113.523 81.3613 113.882 82.2013C116.042 87.6013 122.04 90.4813 127.559 88.2013C130.198 87.0013 132.718 84.8413 132.838 81.7213C132.838 81.0014 132.718 80.1614 132.598 79.4414C132.478 78.7214 132.358 77.8814 131.758 77.2814ZM128.639 83.5213C127.559 84.7213 125.999 85.4413 124.44 85.6813C121.441 86.0413 118.441 84.3613 117.242 81.6013C119.281 81.1214 121.321 80.7614 123.48 80.5214C124.56 80.4014 125.639 80.2814 126.719 80.1614C127.319 80.1614 127.799 80.0414 128.399 80.0414C128.639 80.0414 128.999 80.0414 129.239 80.0414C129.239 80.0414 129.239 80.0414 129.359 80.0414C129.598 81.2413 129.478 82.5613 128.639 83.5213Z" fill="#1E1E1E"/>
<path d="M238.29 236.4C225.694 236.16 213.097 235.68 200.5 234.96C198.221 234.84 198.221 238.44 200.5 238.56C213.097 239.4 225.694 239.88 238.29 240C240.57 240 240.57 236.4 238.29 236.4Z" fill="#1E1E1E"/>
<path d="M221.375 229.2C214.656 228.84 207.938 228.6 201.22 228.24C198.94 228.12 198.94 231.72 201.22 231.84C207.938 232.2 214.656 232.44 221.375 232.8C223.654 233.04 223.654 229.32 221.375 229.2Z" fill="#1E1E1E"/>
<path d="M41.0607 235.32C29.3037 234.96 17.5467 235.08 5.78974 235.56C4.47008 235.44 3.15041 235.32 1.83075 235.44C1.35087 235.44 0.870993 235.56 0.511085 235.92C0.151177 236.28 -0.0887618 236.76 0.0312076 237.24C0.0312076 237.72 0.151177 238.2 0.511085 238.56C0.870993 238.92 1.35087 239.16 1.83075 239.04C2.07069 239.04 2.4306 239.04 2.67053 239.04C2.91047 239.16 3.27038 239.28 3.63029 239.28C5.90971 239.16 8.18913 239.04 10.4685 239.04C10.7085 239.16 10.8285 239.16 11.1884 239.16C11.5483 239.16 11.7882 239.04 12.0281 238.92C21.7457 238.56 31.3432 238.56 41.0607 238.92C43.3402 239.04 43.3402 235.44 41.0607 235.32Z" fill="#1E1E1E"/>
<path d="M39.8613 228.6C32.0632 228.48 24.2652 228.36 16.3473 228.12C14.0678 228.12 14.0678 231.72 16.3473 231.72C24.1453 231.84 31.9433 231.96 39.8613 232.2C42.1407 232.2 42.1407 228.6 39.8613 228.6Z" fill="#1E1E1E"/>
<path d="M204.339 130.321C203.859 128.641 203.259 126.841 201.58 126.121C200.14 125.521 198.341 125.161 196.781 124.921C195.821 124.681 194.861 125.161 194.621 126.241C194.382 127.081 194.861 128.281 195.821 128.521C197.141 128.761 198.58 129.121 199.9 129.481C200.02 129.481 200.14 129.601 200.14 129.601C200.26 129.721 200.26 129.961 200.38 130.201C200.62 130.921 200.86 131.521 200.98 132.241C201.7 134.881 202.06 137.641 202.419 140.281C202.539 141.241 203.139 142.081 204.219 142.081C205.059 142.081 206.139 141.241 206.019 140.281C205.779 136.801 205.299 133.441 204.339 130.321Z" fill="#1E1E1E"/>
<path d="M70.3333 20.4019C63.615 29.7618 59.656 40.9217 58.6963 52.4416C58.4564 54.7215 62.0554 54.7215 62.2954 52.4416C63.1352 41.5217 67.0941 31.0818 73.4525 22.2019C74.8922 20.2819 71.773 18.4819 70.3333 20.4019Z" fill="#1E1E1E"/>
<path d="M173.267 76.9212C172.427 76.4412 171.348 76.6812 170.748 77.5211C168.948 80.4011 168.348 84.0011 169.308 87.241C169.548 88.201 170.628 88.801 171.467 88.561C172.427 88.201 173.027 87.3611 172.667 86.2811C172.547 85.9211 172.547 85.5611 172.427 85.2011C172.427 85.0811 172.427 85.0811 172.427 84.9611C172.427 84.8411 172.427 84.7211 172.427 84.6011C172.427 84.2411 172.427 83.8811 172.427 83.5211C172.427 83.2811 172.427 83.1611 172.427 82.9211C172.427 82.9211 172.427 82.9211 172.427 82.8011C172.547 82.0811 172.667 81.4811 172.907 80.8811V80.7611C173.027 80.6411 173.027 80.4011 173.147 80.2811C173.267 79.9211 173.507 79.6811 173.747 79.3211C174.467 78.6011 174.107 77.4011 173.267 76.9212Z" fill="#1E1E1E"/>
<path d="M29.9036 156.361C29.5437 155.401 28.2241 155.281 27.3843 155.761C26.4245 156.361 26.3045 157.321 26.7844 158.281C28.7039 162.96 29.9036 168 30.1436 173.04C30.1436 174 30.9833 174.84 31.9431 174.84C32.9029 174.84 33.7426 174 33.7426 173.04C33.5027 167.28 32.183 161.641 29.9036 156.361Z" fill="#1E1E1E"/>
</svg>
