<svg width="240" height="240" viewBox="0 0 240 240" fill="none" xmlns="http://www.w3.org/2000/svg">
<path d="M239.97 228.203C239.97 227.363 240.09 226.161 239.85 224.96C239.61 223.639 239.01 222.557 237.451 222.557C202.429 222.798 167.406 222.918 132.384 223.158C97.4813 223.398 62.5787 223.518 27.5562 223.759C21.3193 223.759 14.9625 223.879 8.72564 223.759C6.8066 223.759 5.0075 223.759 3.2084 224.479C1.4093 225.08 0.449775 226.642 0.209895 228.444C0.089955 229.405 0.089955 230.486 0.089955 231.567C0.089955 233.129 -0.269865 235.051 0.449775 236.492C0.809595 237.093 1.28936 237.574 1.76912 237.934C3.8081 239.135 6.68666 239.015 8.96552 239.015C15.0825 239.255 21.0795 239.135 27.1964 239.135C33.7931 239.255 40.3898 239.255 46.9865 239.255C53.5832 239.255 60.1799 239.376 66.7766 239.376C73.3733 239.376 79.97 239.496 86.5667 239.496C88.2459 239.496 90.045 239.496 91.7241 239.496C122.909 239.736 154.213 240.096 185.397 239.976C202.549 239.976 219.7 239.736 236.852 239.376C236.972 239.376 237.211 239.376 237.331 239.376C238.771 239.496 239.37 237.814 239.49 236.613C239.97 234.09 239.97 231.207 239.97 228.203ZM234.573 234.811C234.333 234.811 234.213 234.931 233.973 234.931C231.814 235.051 229.775 235.051 227.616 235.051C225.097 235.051 222.699 235.171 220.18 235.171C215.262 235.291 210.345 235.291 205.307 235.291C200.39 235.291 195.472 235.411 190.435 235.411C185.517 235.411 180.6 235.411 175.562 235.411C170.645 235.411 165.727 235.411 160.69 235.411C155.772 235.411 150.855 235.411 145.817 235.291C145.217 235.291 144.738 235.291 144.138 235.291C113.073 235.171 82.009 234.811 50.9445 234.45C44.3478 234.33 37.7511 234.33 31.1544 234.33C24.5577 234.33 18.081 234.09 11.4843 234.21C9.44528 234.21 7.28636 234.09 5.24738 233.97C5.12744 233.97 5.0075 233.97 4.88756 233.85C4.76762 233.729 4.64768 233.489 4.64768 233.249C4.64768 232.048 4.76762 230.846 4.64768 229.645C4.64768 229.525 4.64768 229.285 4.64768 229.165C4.76762 228.804 5.0075 228.804 5.36732 228.804C6.92654 228.684 8.48576 228.804 10.045 228.684C11.7241 228.684 13.2834 228.684 14.9625 228.684C18.2009 228.684 21.5592 228.684 24.7976 228.684C25.0375 228.684 25.2774 228.684 25.5172 228.684C25.7571 228.684 25.8771 228.684 26.1169 228.684C27.916 228.684 29.7151 228.684 31.5142 228.684L81.5292 228.444C114.633 228.203 147.736 228.083 180.84 227.843C181.319 227.843 181.679 227.843 182.159 227.843C183.358 227.843 184.558 227.843 185.877 227.843C187.676 227.843 189.475 227.843 191.394 227.843C193.673 227.843 195.832 227.843 198.111 227.843C200.63 227.843 203.028 227.843 205.547 227.843C208.066 227.843 210.585 227.843 213.103 227.843C215.502 227.843 217.901 227.843 220.3 227.843C222.339 227.843 224.498 227.843 226.537 227.843C228.816 227.843 230.975 227.843 233.253 227.723C233.613 227.723 234.093 227.723 234.453 227.843C235.412 228.324 235.052 229.885 235.052 230.726C235.052 231.447 235.052 232.048 235.052 232.768C235.052 233.369 235.412 234.33 234.813 234.811C234.813 234.69 234.693 234.811 234.573 234.811Z" fill="#1E1E1E"/>
<path d="M32.2339 218.833C32.2339 216.31 32.2339 213.788 32.2339 211.265C32.2339 201.655 32.114 192.164 32.114 182.554C31.994 163.573 31.994 132.58 31.8741 113.599C31.8741 109.995 32.2339 105.19 27.6762 103.388C24.9176 102.307 19.4003 102.788 18.081 105.671C17.9611 105.911 17.9611 106.031 17.8411 106.271C17.6012 107.112 17.8411 108.073 17.8411 108.914C17.9611 110.116 17.8411 111.197 17.8411 112.398C17.2414 123.57 17.4813 146.875 16.8816 158.047C16.8816 158.047 16.8816 158.168 16.8816 158.288C16.8816 168.979 17.0015 179.791 17.1215 190.482C17.2414 201.414 17.3614 212.226 17.7212 223.158C17.7212 223.278 17.7212 223.518 17.7212 223.638C17.7212 223.879 17.8411 224.119 17.9611 224.359C18.081 225.32 18.8006 226.281 20.2399 226.161C23.4783 226.041 29.9551 227.002 31.6342 223.879C32.7137 222.437 32.2339 220.395 32.2339 218.833ZM27.4363 220.755C27.4363 222.437 26.9566 221.836 25.0375 221.957C24.1979 221.957 23.4783 221.957 22.6387 222.077C21.1994 187.96 21.3194 141.71 22.7587 107.593C22.7587 107.473 22.7587 107.353 22.6387 107.232C24.1979 106.031 26.3569 107.353 26.7167 108.914C27.3164 111.197 26.9566 113.84 26.9566 116.122C26.9566 117.804 26.9566 121.047 26.9566 124.651C26.8366 124.651 26.7167 124.651 26.5967 124.651C26.2369 124.651 25.997 124.771 25.6372 124.892C25.3973 125.012 25.1575 125.252 24.9176 125.492C24.6777 125.732 24.5578 125.973 24.4378 126.333C24.4378 126.573 24.4378 126.814 24.3179 126.934C24.3179 127.414 24.4378 127.775 24.6777 128.135C24.7976 128.255 24.9176 128.495 25.0375 128.616C25.3973 128.976 25.6372 129.096 26.117 129.216C26.3569 129.216 26.5967 129.336 26.7167 129.336C26.7167 134.622 26.7167 139.788 26.7167 142.19C26.7167 143.151 26.7167 144.112 26.7167 145.073C26.4768 145.073 26.117 145.194 25.8771 145.194C25.5173 145.314 25.2774 145.434 25.0375 145.674C24.7976 145.794 24.5578 146.034 24.4378 146.395C24.3179 146.635 24.1979 146.995 24.1979 147.356C24.078 147.716 24.1979 147.956 24.1979 148.317C24.3179 148.557 24.3179 148.677 24.4378 148.918C24.6777 149.278 24.9176 149.518 25.2774 149.758C25.5173 149.879 25.6372 149.879 25.8771 149.999C26.117 150.119 26.4768 150.119 26.7167 150.119C26.7167 155.405 26.7167 160.81 26.8366 166.096H25.997C25.6372 166.096 25.3973 166.096 25.0375 166.336C24.6777 166.456 24.4378 166.577 24.3179 166.817C24.078 167.057 23.9581 167.297 23.8381 167.658C23.7182 167.898 23.5982 168.258 23.5982 168.619L23.7182 169.219C23.8381 169.58 24.078 169.94 24.3179 170.301C24.4378 170.421 24.6777 170.541 24.7976 170.661C25.1575 170.901 25.6372 171.021 25.997 171.021H26.8366C26.8366 180.512 26.9566 190.122 26.9566 199.612C26.9566 204.297 26.9566 208.982 26.9566 213.668C27.4363 216.07 27.4363 218.473 27.4363 220.755Z" fill="#1E1E1E"/>
<path d="M39.7901 198.892C39.3104 193.366 35.7122 189.041 30.9146 186.879C30.6747 185.918 29.7152 185.197 28.6357 185.077C22.7586 184.596 16.5218 187.239 12.8036 191.804C10.7646 194.327 9.20541 197.45 9.44529 200.814C9.56523 203.817 10.7646 206.58 12.8036 208.863C17.0015 213.788 24.1979 214.629 30.075 212.587C33.1934 211.506 35.952 209.824 37.8711 207.061C39.3104 204.778 40.03 201.655 39.7901 198.892ZM34.3928 203.096C33.5532 205.139 31.7541 206.58 29.7152 207.421C25.7571 209.223 20.4798 209.463 17.1215 206.34C15.6822 205.019 14.7227 203.337 14.3628 201.415C14.003 199.252 14.8426 197.21 16.042 195.408C18.2009 192.405 21.5592 190.483 25.1574 189.882C25.2774 189.882 25.3973 190.002 25.5173 190.002C29.5952 190.723 33.5532 193.246 34.6327 197.45C35.1125 199.372 35.1125 201.415 34.3928 203.096Z" fill="#1E1E1E"/>
<path d="M34.3928 202.976C33.5533 205.018 31.7542 206.46 29.7152 207.301C25.7572 209.103 20.4798 209.343 17.1215 206.22C15.6822 204.898 14.7227 203.216 14.3629 201.294C14.003 199.132 14.8426 197.09 16.042 195.288C18.2009 192.284 21.5593 190.362 25.1575 189.762C25.2774 189.762 25.3973 189.882 25.5173 189.882C29.5952 190.603 33.5533 193.125 34.6327 197.33C35.1125 199.252 35.1125 201.294 34.3928 202.976Z" fill="#F7C300"/>
<path d="M77.6912 218.833C77.6912 216.31 77.6912 213.788 77.6912 211.265C77.6912 201.655 77.5712 192.164 77.5712 182.554C77.4513 163.573 77.4513 132.58 77.3314 113.599C77.3314 109.995 77.6912 105.19 73.1335 103.388C70.3748 102.307 64.8576 102.788 63.5383 105.671C63.4183 105.911 63.4183 106.031 63.2984 106.271C63.0585 107.112 63.2984 108.073 63.2984 108.914C63.4183 110.116 63.2984 111.197 63.2984 112.398C62.6987 123.57 62.9386 146.875 62.3389 158.047C62.3389 158.047 62.3389 158.168 62.3389 158.288C62.3389 168.979 62.4588 179.791 62.5787 190.482C62.6987 201.414 62.8186 212.226 63.1784 223.158C63.1784 223.278 63.1784 223.518 63.1784 223.638C63.1784 223.879 63.2984 224.119 63.4183 224.359C63.5383 225.32 64.2579 226.281 65.6972 226.161C68.9356 226.041 75.4123 227.002 77.0915 223.879C78.051 222.437 77.6912 220.395 77.6912 218.833ZM72.8936 220.755C72.8936 222.437 72.4138 221.836 70.4948 221.957C69.6552 221.957 68.9356 221.957 68.096 222.077C66.6567 187.96 66.7766 141.71 68.2159 107.593C68.2159 107.473 68.2159 107.353 68.096 107.232C69.6552 106.031 71.8141 107.353 72.1739 108.914C72.7736 111.197 72.4138 113.84 72.4138 116.122C72.4138 117.804 72.4138 121.047 72.4138 124.651C72.2939 124.651 72.1739 124.651 72.054 124.651C71.6942 124.651 71.4543 124.771 71.0945 124.892C70.8546 125.012 70.6147 125.252 70.3748 125.492C70.135 125.732 70.015 125.973 69.8951 126.333C69.8951 126.573 69.8951 126.814 69.7751 126.934C69.7751 127.414 69.8951 127.775 70.135 128.135C70.2549 128.255 70.3748 128.495 70.4948 128.616C70.8546 128.976 71.0945 129.096 71.5742 129.216C71.8141 129.216 72.054 129.336 72.1739 129.336C72.1739 134.622 72.1739 139.788 72.1739 142.19C72.1739 143.151 72.1739 144.112 72.1739 145.073C71.9341 145.073 71.5742 145.194 71.3344 145.194C70.9745 145.314 70.7347 145.434 70.4948 145.674C70.2549 145.794 70.015 146.034 69.8951 146.395C69.7751 146.635 69.6552 146.995 69.6552 147.356C69.5353 147.716 69.6552 147.956 69.6552 148.317C69.7751 148.557 69.7751 148.677 69.8951 148.918C70.135 149.278 70.3748 149.518 70.7347 149.758C70.9745 149.879 71.0945 149.879 71.3344 149.999C71.5742 150.119 71.9341 150.119 72.1739 150.119C72.1739 155.405 72.1739 160.81 72.2939 166.096H71.4543C71.0945 166.096 70.8546 166.096 70.4948 166.336C70.2549 166.456 69.8951 166.577 69.7751 166.817C69.5353 167.057 69.4153 167.297 69.2954 167.658C69.1754 167.898 69.0555 168.258 69.0555 168.619L69.1754 169.219C69.2954 169.58 69.5353 169.94 69.7751 170.301C69.8951 170.421 70.135 170.541 70.2549 170.661C70.6147 170.901 71.0945 171.021 71.4543 171.021H72.2939C72.2939 180.512 72.4138 190.122 72.4138 199.612C72.4138 201.054 72.4138 202.495 72.4138 203.937C69.2954 203.937 69.2954 208.862 72.4138 208.862C72.4138 210.544 72.4138 212.106 72.4138 213.788C72.8936 216.07 72.8936 218.473 72.8936 220.755Z" fill="#1E1E1E"/>
<path d="M55.982 176.908C58.3808 181.833 63.2983 184.716 68.5757 184.957C69.1754 185.797 70.2548 186.158 71.3343 185.797C76.9715 184.116 81.889 179.551 83.6881 173.905C84.7676 170.781 85.0075 167.297 83.6881 164.294C82.4887 161.531 80.3298 159.369 77.8111 157.927C72.1739 154.804 65.0974 156.606 60.2998 160.57C57.7811 162.612 55.7421 165.255 55.0224 168.499C54.3028 171.262 54.7826 174.385 55.982 176.908ZM59.5802 171.022C59.5802 168.739 60.7796 166.937 62.3388 165.255C65.3373 162.132 70.3748 160.09 74.5727 161.772C76.3718 162.492 77.931 163.694 78.8905 165.375C79.97 167.297 79.97 169.46 79.3703 171.622C78.4108 175.226 75.892 178.229 72.7736 180.031C72.6536 180.031 72.5337 180.031 72.4138 180.031C68.3358 180.752 63.7781 179.911 61.2593 176.307C60.0599 174.746 59.4602 172.823 59.5802 171.022Z" fill="#1E1E1E"/>
<path d="M59.5802 171.141C59.5802 168.859 60.7796 167.057 62.3388 165.375C65.3373 162.252 70.3748 160.21 74.5727 161.891C76.3718 162.612 77.931 163.813 78.8905 165.495C79.97 167.417 79.97 169.58 79.3703 171.742C78.4108 175.346 75.892 178.349 72.7736 180.151C72.6536 180.151 72.5337 180.151 72.4138 180.151C68.3358 180.872 63.7781 180.031 61.2593 176.427C60.1799 174.865 59.4602 172.943 59.5802 171.141Z" fill="#59C69F"/>
<path d="M123.148 218.833C123.148 216.31 123.148 213.788 123.148 211.265C123.148 201.655 123.029 192.164 123.029 182.554C122.909 163.573 122.909 132.58 122.789 113.599C122.789 109.995 123.148 105.19 118.591 103.388C115.832 102.307 110.315 102.788 108.996 105.671C108.876 105.911 108.876 106.031 108.756 106.271C108.516 107.112 108.756 108.073 108.756 108.914C108.876 110.116 108.756 111.197 108.756 112.398C108.156 123.57 108.396 146.875 107.796 158.047C107.796 158.047 107.796 158.168 107.796 158.288C107.796 168.979 107.916 179.791 108.036 190.482C108.156 201.414 108.276 212.226 108.636 223.158C108.636 223.278 108.636 223.518 108.636 223.638C108.636 223.879 108.756 224.119 108.876 224.359C108.996 225.32 109.715 226.281 111.154 226.161C114.393 226.041 120.87 227.002 122.549 223.879C123.508 222.437 123.148 220.395 123.148 218.833ZM118.351 220.755C118.351 222.437 117.871 221.836 115.952 221.957C115.112 221.957 114.393 221.957 113.553 222.077C112.114 187.96 112.234 141.71 113.673 107.593C113.673 107.473 113.673 107.353 113.553 107.232C115.112 106.031 117.271 107.353 117.631 108.914C118.231 111.197 117.871 113.84 117.871 116.122C117.871 117.804 117.871 121.047 117.871 124.651C117.751 124.651 117.631 124.651 117.511 124.651C117.151 124.651 116.912 124.771 116.552 124.892C116.312 125.012 116.072 125.252 115.832 125.492C115.592 125.732 115.472 125.973 115.352 126.333C115.352 126.573 115.352 126.814 115.232 126.934C115.232 127.414 115.352 127.775 115.592 128.135C115.712 128.255 115.832 128.495 115.952 128.616C116.312 128.976 116.552 129.096 117.032 129.216C117.271 129.216 117.511 129.336 117.631 129.336C117.631 134.622 117.631 139.788 117.631 142.19C117.631 143.151 117.631 144.112 117.631 145.073C117.391 145.073 117.032 145.194 116.792 145.194C116.432 145.314 116.192 145.434 115.952 145.674C115.712 145.794 115.472 146.034 115.352 146.395C115.232 146.635 115.112 146.995 115.112 147.356C114.993 147.716 115.112 147.956 115.112 148.317C115.232 148.557 115.232 148.677 115.352 148.918C115.592 149.278 115.832 149.518 116.192 149.758C116.432 149.879 116.552 149.879 116.792 149.999C117.032 150.119 117.391 150.119 117.631 150.119C117.631 155.405 117.631 160.81 117.751 166.096H116.912C116.552 166.096 116.312 166.096 115.952 166.336C115.712 166.456 115.352 166.577 115.232 166.817C114.993 167.057 114.873 167.297 114.753 167.658C114.633 167.898 114.513 168.258 114.513 168.619L114.633 169.219C114.753 169.58 114.993 169.94 115.232 170.301C115.352 170.421 115.592 170.541 115.712 170.661C116.072 170.901 116.552 171.021 116.912 171.021H117.751C117.751 180.512 117.871 190.122 117.871 199.612C117.871 201.294 117.871 202.976 117.871 204.658C114.753 204.658 114.753 209.583 117.871 209.583C117.871 211.025 117.871 212.346 117.871 213.788C118.351 216.07 118.351 218.473 118.351 220.755Z" fill="#1E1E1E"/>
<path d="M104.558 177.989C100.959 182.194 100.48 187.84 102.159 192.765C101.679 193.726 101.799 194.807 102.519 195.648C106.357 200.213 112.474 202.856 118.351 202.255C121.589 201.895 124.827 200.934 127.106 198.411C129.145 196.249 130.225 193.366 130.465 190.362C130.944 183.875 126.627 178.109 121.109 175.346C118.231 173.905 114.992 173.064 111.754 173.664C108.995 174.145 106.357 175.827 104.558 177.989ZM111.394 178.83C113.433 177.989 115.712 178.349 117.751 179.07C121.829 180.632 125.667 184.356 125.787 188.921C125.907 190.843 125.427 192.765 124.228 194.327C122.908 196.129 120.869 196.97 118.711 197.33C114.992 197.931 111.274 196.729 108.396 194.567C108.396 194.447 108.276 194.327 108.276 194.207C105.997 190.843 104.917 186.278 107.196 182.434C108.156 180.872 109.595 179.551 111.394 178.83Z" fill="#1E1E1E"/>
<path d="M111.275 178.95C113.314 178.109 115.592 178.47 117.631 179.19C121.709 180.752 125.547 184.476 125.667 189.041C125.787 190.963 125.308 192.885 124.108 194.447C122.789 196.249 120.75 197.09 118.591 197.45C114.873 198.051 111.155 196.849 108.276 194.687C108.276 194.567 108.156 194.447 108.156 194.327C105.877 190.963 104.798 186.398 107.077 182.554C108.036 180.992 109.595 179.551 111.275 178.95Z" fill="#F7C300"/>
<path d="M168.606 218.833C168.606 216.31 168.606 213.788 168.606 211.265C168.606 201.655 168.486 192.164 168.486 182.554C168.366 163.573 168.366 132.58 168.246 113.599C168.246 109.995 168.605 105.19 164.048 103.388C161.289 102.307 155.772 102.788 154.453 105.671C154.333 105.911 154.333 106.031 154.213 106.271C153.973 107.112 154.213 108.073 154.213 108.914C154.333 110.116 154.213 111.197 154.213 112.398C153.613 123.57 153.853 146.875 153.253 158.047C153.253 158.047 153.253 158.168 153.253 158.288C153.253 168.979 153.373 179.791 153.493 190.482C153.613 201.414 153.733 212.226 154.093 223.158C154.093 223.278 154.093 223.518 154.093 223.638C154.093 223.879 154.213 224.119 154.333 224.359C154.453 225.32 155.172 226.281 156.611 226.161C159.85 226.041 166.327 227.002 168.006 223.879C168.965 222.437 168.606 220.395 168.606 218.833ZM163.808 220.755C163.808 222.437 163.328 221.836 161.409 221.957C160.57 221.957 159.85 221.957 159.01 222.077C157.571 187.96 157.691 141.71 159.13 107.593C159.13 107.473 159.13 107.353 159.01 107.232C160.57 106.031 162.728 107.353 163.088 108.914C163.688 111.197 163.328 113.84 163.328 116.122C163.328 117.804 163.328 121.047 163.328 124.651C163.208 124.651 163.088 124.651 162.968 124.651C162.609 124.651 162.369 124.771 162.009 124.892C161.769 125.012 161.529 125.252 161.289 125.492C161.049 125.732 160.929 125.973 160.809 126.333C160.809 126.573 160.809 126.814 160.689 126.934C160.689 127.414 160.809 127.775 161.049 128.135C161.169 128.255 161.289 128.495 161.409 128.616C161.769 128.976 162.009 129.096 162.489 129.216C162.728 129.216 162.968 129.336 163.088 129.336C163.088 134.622 163.088 139.788 163.088 142.19C163.088 143.151 163.088 144.112 163.088 145.073C162.848 145.073 162.489 145.194 162.249 145.194C161.889 145.314 161.649 145.434 161.409 145.674C161.169 145.794 160.929 146.034 160.809 146.395C160.689 146.635 160.57 146.995 160.57 147.356C160.45 147.716 160.57 147.956 160.57 148.317C160.689 148.557 160.689 148.677 160.809 148.918C161.049 149.278 161.289 149.518 161.649 149.758C161.889 149.879 162.009 149.879 162.249 149.999C162.489 150.119 162.848 150.119 163.088 150.119C163.088 155.405 163.088 160.81 163.208 166.096H162.369C162.009 166.096 161.769 166.096 161.409 166.336C161.169 166.456 160.809 166.577 160.689 166.817C160.45 167.057 160.33 167.297 160.21 167.658C160.09 167.898 159.97 168.258 159.97 168.619L160.09 169.219C160.21 169.58 160.45 169.94 160.689 170.301C160.809 170.421 161.049 170.541 161.169 170.661C161.529 170.901 162.009 171.021 162.369 171.021H163.208C163.208 175.827 163.208 180.632 163.208 185.437C163.088 185.437 162.968 185.437 162.848 185.437C159.73 185.437 159.73 190.362 162.848 190.362C162.968 190.362 163.088 190.362 163.208 190.362C163.208 193.486 163.208 196.609 163.208 199.732C163.208 201.294 163.208 202.736 163.208 204.297C163.208 204.297 163.208 204.297 163.088 204.297C159.97 204.297 159.97 209.223 163.088 209.223H163.208C163.208 210.784 163.208 212.346 163.208 213.908C163.688 216.07 163.808 218.473 163.808 220.755Z" fill="#1E1E1E"/>
<path d="M173.163 158.648C176.162 154.083 175.922 148.317 173.403 143.632C173.763 142.671 173.523 141.59 172.684 140.869C168.246 136.905 161.889 135.103 156.012 136.544C152.774 137.265 149.775 138.827 147.856 141.59C146.177 143.992 145.457 146.996 145.577 149.999C145.937 156.486 151.095 161.531 156.972 163.574C160.09 164.655 163.328 165.015 166.447 163.934C169.325 162.973 171.724 161.051 173.163 158.648ZM166.327 158.768C164.408 159.85 162.129 159.85 159.97 159.369C155.772 158.408 151.454 155.285 150.615 150.72C150.255 148.798 150.495 146.876 151.334 145.074C152.414 143.152 154.213 141.95 156.372 141.35C159.97 140.268 163.808 140.869 166.927 142.671C167.047 142.791 167.047 142.911 167.166 143.031C169.925 146.035 171.604 150.479 169.925 154.444C169.205 156.246 168.006 157.807 166.327 158.768Z" fill="#1E1E1E"/>
<path d="M166.447 158.648C164.528 159.729 162.249 159.729 160.09 159.249C155.892 158.288 151.574 155.164 150.735 150.6C150.375 148.677 150.615 146.755 151.454 144.953C152.534 143.031 154.333 141.83 156.492 141.229C160.09 140.148 163.928 140.749 167.047 142.551C167.166 142.671 167.166 142.791 167.286 142.911C170.045 145.914 171.724 150.359 170.045 154.324C169.325 156.125 168.006 157.687 166.447 158.648Z" fill="#59C69F"/>
<path d="M214.063 218.833C214.063 216.31 214.063 213.788 214.063 211.265C214.063 201.655 213.943 192.164 213.943 182.554C213.823 163.573 213.823 132.58 213.703 113.599C213.703 109.995 214.063 105.19 209.505 103.388C206.747 102.307 201.229 102.788 199.91 105.671C199.79 105.911 199.79 106.031 199.67 106.271C199.43 107.112 199.67 108.073 199.67 108.914C199.79 110.116 199.67 111.197 199.67 112.398C199.07 123.57 199.31 146.875 198.711 158.047C198.711 158.047 198.711 158.168 198.711 158.288C198.711 168.979 198.831 179.791 198.951 190.482C199.071 201.414 199.19 212.226 199.55 223.158C199.55 223.278 199.55 223.518 199.55 223.638C199.55 223.879 199.67 224.119 199.79 224.359C199.91 225.32 200.63 226.281 202.069 226.161C205.307 226.041 211.784 227.002 213.463 223.879C214.423 222.437 214.063 220.395 214.063 218.833ZM209.145 220.755C209.145 222.437 208.666 221.836 206.747 221.957C205.907 221.957 205.187 221.957 204.348 222.077C202.909 187.96 203.029 141.71 204.468 107.593C204.468 107.473 204.468 107.353 204.348 107.232C205.907 106.031 208.066 107.353 208.426 108.914C209.026 111.197 208.666 113.84 208.666 116.122C208.666 117.804 208.666 121.047 208.666 124.651C208.546 124.651 208.426 124.651 208.306 124.651C207.946 124.651 207.706 124.771 207.346 124.892C207.106 125.012 206.867 125.252 206.627 125.492C206.387 125.732 206.267 125.973 206.147 126.333C206.147 126.573 206.147 126.814 206.027 126.934C206.027 127.414 206.147 127.775 206.387 128.135C206.507 128.255 206.627 128.495 206.747 128.616C207.106 128.976 207.346 129.096 207.826 129.216C208.066 129.216 208.306 129.336 208.426 129.336C208.426 134.622 208.426 139.788 208.426 142.19C208.426 143.151 208.426 144.112 208.426 145.073C208.186 145.073 207.826 145.194 207.586 145.194C207.226 145.314 206.987 145.434 206.747 145.674C206.507 145.794 206.267 146.034 206.147 146.395C206.027 146.635 205.907 146.995 205.907 147.356C205.787 147.716 205.907 147.956 205.907 148.317C206.027 148.557 206.027 148.677 206.147 148.918C206.387 149.278 206.627 149.518 206.987 149.758C207.226 149.879 207.346 149.879 207.586 149.999C207.826 150.119 208.186 150.119 208.426 150.119C208.426 155.405 208.426 160.81 208.546 166.096H207.706C207.346 166.096 207.106 166.096 206.747 166.336C206.387 166.456 206.147 166.577 206.027 166.817C205.787 167.057 205.667 167.297 205.547 167.658C205.427 167.898 205.307 168.258 205.307 168.619L205.427 169.219C205.547 169.58 205.787 169.94 206.027 170.301C206.147 170.421 206.387 170.541 206.507 170.661C206.867 170.901 207.346 171.021 207.706 171.021H208.546C208.546 180.512 208.666 190.122 208.666 199.612C208.666 200.934 208.666 202.255 208.666 203.697C205.547 203.697 205.547 208.622 208.666 208.622C208.666 208.622 208.666 208.622 208.786 208.622C208.786 210.304 208.786 212.106 208.786 213.788C209.145 216.07 209.265 218.473 209.145 220.755Z" fill="#1E1E1E"/>
<path d="M220.66 183.034C222.219 177.749 220.3 172.343 216.582 168.619C216.702 167.538 216.102 166.577 215.023 166.096C209.625 163.573 203.029 163.694 197.871 166.697C194.993 168.379 192.474 170.661 191.514 173.905C190.555 176.788 190.795 179.791 191.754 182.554C193.913 188.681 200.39 192.044 206.507 192.284C209.745 192.405 212.984 191.804 215.742 189.882C218.141 188.32 219.94 185.677 220.66 183.034ZM214.183 185.077C212.624 186.759 210.585 187.359 208.306 187.479C203.988 187.72 198.951 186.038 196.912 181.953C196.072 180.271 195.712 178.349 196.072 176.427C196.432 174.265 197.991 172.583 199.79 171.382C202.909 169.34 206.747 168.739 210.345 169.58C210.465 169.7 210.465 169.82 210.585 169.82C214.063 171.983 216.942 175.707 216.462 180.031C216.222 181.833 215.382 183.635 214.183 185.077Z" fill="#1E1E1E"/>
<path d="M214.663 184.596C213.223 186.519 211.064 187.48 208.906 187.84C204.588 188.561 199.43 187.239 197.151 183.155C196.192 181.353 195.712 179.311 195.952 177.269C196.312 174.866 197.751 172.944 199.43 171.502C202.429 168.98 206.267 167.898 209.865 168.379C209.985 168.499 210.105 168.619 210.105 168.619C213.703 170.541 216.822 174.265 216.582 178.95C216.462 180.872 215.862 183.035 214.663 184.596Z" fill="#F7C300"/>
<path d="M31.6343 2.2393L22.6388 1.87891C21.3194 1.87891 20.8397 2.83995 20.8397 3.68086C20.8397 4.52176 21.3194 5.72306 22.7587 5.84319L29.8352 6.08345C30.195 6.08345 30.5548 6.08345 30.9146 6.08345C31.6343 6.08345 32.4738 6.08345 33.1935 6.20358H33.6732C34.0331 6.20358 34.2729 6.44384 34.3929 6.92436C34.6328 7.64514 34.6328 8.36592 34.7527 9.0867C34.7527 9.44709 34.7527 9.68735 34.8726 9.92761C34.9926 11.1289 35.1125 12.2101 35.2325 13.4114C35.3524 14.6127 35.4723 15.814 35.5923 17.0153L35.8322 19.6581L35.3524 19.8984C34.7527 20.1387 34.0331 20.3789 33.5533 20.499H33.0735C31.6343 20.9796 30.3149 21.2198 28.9956 21.4601C26.3569 21.8205 23.7182 21.8205 21.3194 21.34C21.0795 21.34 20.7197 21.2198 20.4798 21.2198L20.0001 21.0997L19.8801 20.6192C19.8801 20.3789 19.7602 20.1387 19.7602 19.7783V19.538C19.5203 18.0964 19.2804 16.6549 19.1605 15.0932C18.9206 12.0899 18.9206 8.96657 19.1605 5.84319C19.1605 5.36267 19.0406 5.00228 18.6807 4.64189C18.3209 4.16137 17.7212 3.92111 17.2415 3.92111C16.162 3.92111 15.4424 4.76202 15.3224 5.84319C14.8427 10.8886 15.2025 16.0542 16.162 21.0997C16.4019 22.0607 16.6418 23.0218 17.4813 23.8627C18.3209 24.5835 19.6403 24.8237 20.8397 25.064C23.3584 25.4244 25.6373 25.5445 27.7962 25.4244C30.195 25.1841 32.5938 24.7036 34.6328 24.1029L35.1125 23.9828C37.6313 23.1419 39.7902 22.301 39.7902 20.1387C39.7902 19.2977 39.6702 18.577 39.5503 17.7361C39.5503 17.3757 39.4304 17.0153 39.4304 16.6549C39.3104 15.3335 39.1905 14.012 38.9506 12.5705C38.8307 11.3692 38.7107 10.1679 38.4708 8.96657C38.4708 8.60618 38.4708 8.36592 38.4708 8.00553C38.3509 7.04449 38.231 6.08345 37.9911 5.24254C36.9116 2.47956 33.9131 2.35943 31.6343 2.2393Z" fill="#1E1E1E"/>
<path d="M38.231 52.2129C35.8322 47.8882 27.0765 46.8071 22.8786 48.3688C21.6792 48.8493 20.8397 49.4499 20.12 50.411C18.081 50.8915 16.2819 52.4532 16.162 55.2162C16.0421 60.1415 15.9221 65.1869 15.8022 70.1123C15.6822 74.3168 20.12 76.1188 23.5983 74.5571C28.2759 72.3947 35.8322 74.7973 37.8712 68.4305C38.7107 65.9077 38.5908 62.7843 38.8307 60.1415C38.9506 57.7389 39.5503 54.4954 38.231 52.2129Z" fill="#59C69F"/>
<path d="M42.1888 46.3266C40.8695 48.4889 39.3103 50.5312 37.751 52.5734C36.6716 50.0506 33.793 49.8104 31.5141 49.8104L22.5186 49.45C21.1993 49.45 20.7195 50.411 20.7195 51.2519C20.7195 52.0928 21.1993 53.2941 22.6386 53.4143L29.715 53.6545C30.0749 53.6545 30.4347 53.6545 30.7945 53.6545C31.5141 53.6545 32.3537 53.6545 33.0734 53.7747H33.5531C33.9129 53.7747 34.1528 54.0149 34.2728 54.4954C34.5126 55.0961 34.5126 55.8169 34.6326 56.5377C34.0329 57.2584 33.4332 57.9792 32.7135 58.7C32.1138 59.4208 31.5141 60.0214 30.9144 60.6221C30.5546 60.9825 30.3147 61.2227 29.9549 61.5831C29.5951 61.2227 29.2353 60.8623 28.8755 60.5019C28.2758 59.7812 27.6761 59.0604 27.0764 58.2195C25.6371 55.937 21.9189 58.0993 23.3582 60.3818C24.0779 61.463 24.9174 62.5441 25.757 63.5052C26.5966 64.4662 27.5561 65.4273 28.6356 66.0279C30.3147 66.8688 31.6341 65.7877 32.8335 64.5864C33.5531 63.7454 34.3927 63.0247 35.1124 62.1838C35.2323 62.9045 35.2323 63.7454 35.3522 64.4662L35.5921 67.1091L35.2323 67.3493C34.6326 67.5896 33.9129 67.8299 33.4332 67.95L32.9534 68.0701C31.5141 68.5506 30.1948 68.7909 28.8755 69.0312C26.2368 69.3916 23.5981 69.3916 21.1993 68.911C20.9594 68.911 20.5996 68.7909 20.3597 68.7909L19.88 68.6708L19.76 68.1903C19.76 67.95 19.6401 67.7097 19.6401 67.3493V67.1091C19.4002 65.6675 19.1603 64.226 19.0404 62.6643C18.8005 59.661 18.8005 56.5377 19.0404 53.4143C19.0404 52.9338 18.9204 52.5734 18.5606 52.213C18.2008 51.7325 17.6011 51.4922 17.1213 51.4922C16.0419 51.4922 15.3222 52.3331 15.2023 53.4143C14.7225 58.4597 15.0824 63.6253 16.0419 68.6708C16.2818 69.6318 16.5216 70.5929 17.3612 71.4338C18.2008 72.1545 19.5201 72.3948 20.7195 72.6351C23.2383 72.9955 25.5171 73.1156 27.6761 72.9955C30.0749 72.7552 32.4737 72.2747 34.5126 71.674L34.9924 71.5539C37.5112 70.713 39.6701 69.8721 39.6701 67.7097C39.6701 66.8688 39.5501 66.148 39.4302 65.3071C39.4302 64.9467 39.3103 64.5864 39.3103 64.226C39.1903 62.9045 39.0704 61.5831 38.8305 60.1415C38.7106 59.5409 38.7105 58.9403 38.5906 58.3396C41.1094 55.2162 43.5082 51.9727 45.6671 48.4889C47.3462 46.2065 43.6281 44.0441 42.1888 46.3266Z" fill="#1E1E1E"/>
<path d="M152.534 4.52151C150.135 0.196833 141.379 -0.884337 137.181 0.677352C135.982 1.15787 135.142 1.75852 134.423 2.71956C132.384 3.20008 130.585 4.76177 130.465 7.52476C130.345 12.4501 130.225 17.4955 130.105 22.4209C129.985 26.6254 134.423 28.4274 137.901 26.8657C142.579 24.7033 150.135 27.1059 152.174 20.739C153.013 18.2163 152.894 15.0929 153.133 12.4501C153.253 10.0475 153.853 6.80398 152.534 4.52151Z" fill="#59C69F"/>
<path d="M159.85 1.75837C159.011 0.917463 157.691 1.03759 156.852 1.75837C155.412 3.0798 153.853 4.40123 152.414 5.60253C152.414 5.4824 152.414 5.36227 152.294 5.24214C151.214 2.35902 148.336 2.23889 145.937 2.11876L136.942 1.75837C135.622 1.75837 135.142 2.71941 135.142 3.56032C135.142 4.40123 135.622 5.60253 137.061 5.72266L144.138 5.96292C144.498 5.96292 144.858 5.96292 145.217 5.96292C145.937 5.96292 146.777 5.96292 147.496 6.08305H147.976C148.336 6.08305 148.576 6.32331 148.696 6.80383C148.816 7.28435 148.936 7.76487 148.936 8.36552C147.616 9.32656 146.297 10.4077 144.978 11.3688C144.258 11.8493 143.538 12.4499 142.819 12.9305C142.459 13.1707 142.099 13.5311 141.739 13.7714C141.619 13.5311 141.379 13.411 141.259 13.1707C140.9 12.5701 140.42 11.9694 140.06 11.4889C138.621 9.0863 135.023 11.2486 136.342 13.6512C136.942 14.7324 137.661 15.6934 138.501 16.6545C139.34 17.7357 140.42 18.8168 141.979 18.4564C143.059 18.2162 144.138 17.2551 145.097 16.6545C146.177 15.9337 147.136 15.2129 148.096 14.4921C148.576 14.1318 148.936 13.7714 149.415 13.5311C149.535 14.7324 149.655 15.9337 149.775 17.135L150.015 19.7779L149.535 20.0181C148.936 20.2584 148.216 20.4986 147.736 20.6188L147.256 20.7389C145.817 21.2194 144.498 21.4597 143.178 21.6999C140.54 22.0603 137.901 22.0603 135.502 21.5798C135.262 21.5798 134.903 21.4597 134.663 21.4597L134.183 21.3396L134.063 20.859C134.063 20.6188 133.943 20.3785 133.943 20.0181V19.7779C133.703 18.3363 133.463 16.8947 133.343 15.3331C133.103 12.3298 133.103 9.20643 133.343 6.08305C133.343 5.60253 133.223 5.24214 132.864 4.88175C132.504 4.40123 131.904 4.16097 131.424 4.16097C130.345 4.16097 129.625 5.00188 129.505 6.08305C129.026 11.1285 129.385 16.2941 130.345 21.3396C130.585 22.3006 130.825 23.2616 131.664 24.1025C132.504 24.8233 133.823 25.0636 135.023 25.3038C137.541 25.6642 139.82 25.7844 141.979 25.6642C144.378 25.424 146.777 24.9434 148.816 24.3428L149.295 24.2227C151.814 23.3818 153.973 22.5408 153.973 20.3785C153.973 19.5376 153.853 18.8168 153.733 17.9759C153.733 17.6155 153.613 17.2551 153.613 16.8947C153.493 15.5733 153.373 14.2519 153.133 12.8103C153.014 12.0895 153.014 11.4889 152.894 10.7681C155.172 8.96617 157.451 7.04409 159.61 5.00188C160.69 4.04084 160.57 2.59928 159.85 1.75837Z" fill="#1E1E1E"/>
<path d="M145.937 49.8103L136.942 49.45C135.622 49.45 135.143 50.411 135.143 51.2519C135.143 52.0928 135.622 53.2941 137.062 53.4142L144.138 53.6545C144.498 53.6545 144.858 53.6545 145.218 53.6545C145.937 53.6545 146.777 53.6545 147.496 53.7746H147.976C148.336 53.7746 148.576 54.0149 148.696 54.4954C148.936 55.2162 148.936 55.937 149.056 56.6577C149.056 57.0181 149.056 57.2584 149.176 57.4987C149.296 58.7 149.416 59.7811 149.535 60.9824C149.655 62.1837 149.775 63.385 149.895 64.5863L150.135 67.2292L149.655 67.4694C149.056 67.7097 148.336 67.95 147.856 68.0701L147.377 68.1902C145.937 68.6707 144.618 68.911 143.299 69.1513C140.66 69.5117 138.021 69.5117 135.622 69.0311C135.383 69.0311 135.023 68.911 134.783 68.911L134.303 68.7909L134.183 68.3103C134.183 68.0701 134.063 67.8298 134.063 67.4694V67.2292C133.823 65.7876 133.583 64.3461 133.463 62.7844C133.224 59.7811 133.224 56.6577 133.463 53.5344C133.463 53.0539 133.344 52.6935 132.984 52.3331C132.624 51.8526 132.024 51.6123 131.544 51.6123C130.465 51.6123 129.745 52.4532 129.625 53.5344C129.146 58.5798 129.505 63.7454 130.465 68.7909C130.705 69.7519 130.945 70.7129 131.784 71.5539C132.624 72.2746 133.943 72.5149 135.143 72.7552C137.661 73.1155 139.94 73.2357 142.099 73.1155C144.498 72.8753 146.897 72.3948 148.936 71.7941L149.416 71.674C151.934 70.8331 154.093 69.9922 154.093 67.8298C154.093 66.9889 153.973 66.2681 153.853 65.4272C153.853 65.0668 153.733 64.7065 153.733 64.3461C153.613 63.0246 153.493 61.7032 153.254 60.2616C153.134 59.0603 153.014 57.859 152.774 56.6577C152.774 56.4175 152.654 56.0571 152.654 55.8168C152.534 54.8558 152.414 53.8948 152.174 53.0538C151.215 50.0506 148.336 49.9305 145.937 49.8103Z" fill="#1E1E1E"/>
<path d="M48.1857 10.7682C68.2157 9.32667 88.3657 9.20654 108.396 10.4078C109.595 10.4078 110.075 9.20654 110.195 8.12537C110.195 6.80394 109.715 5.36238 108.396 5.36238C99.2802 4.88186 90.0448 4.6416 80.9294 4.6416C70.0148 4.6416 59.1003 5.00199 48.3057 5.8429C47.1063 5.96303 46.5066 7.28446 46.5066 8.72602C46.5066 9.68706 46.9863 10.8884 48.1857 10.7682Z" fill="#1E1E1E"/>
<path d="M82.8485 21.2196C83.2083 20.3787 83.2083 19.1774 82.8485 18.4567C82.6086 17.9761 82.2488 17.4956 81.4092 17.4956C70.9745 17.9761 60.2998 17.9761 49.865 17.3755H49.7451C48.5457 17.3755 48.0659 18.5768 48.0659 19.658C48.0659 20.9794 48.5457 22.3008 49.865 22.4209C60.1799 22.9015 70.8545 22.9015 81.2893 22.4209C82.1289 22.4209 82.6086 21.8203 82.8485 21.2196Z" fill="#1E1E1E"/>
<path d="M163.688 57.1384C183.718 55.6968 203.868 55.5767 223.898 56.778C225.098 56.778 225.577 55.5767 225.697 54.4955C225.697 53.1741 225.217 51.7325 223.898 51.7325C214.783 51.1319 205.547 50.8916 196.432 50.8916C185.517 50.8916 174.603 51.252 163.808 52.0929C162.609 52.213 162.009 53.5345 162.009 54.976C162.009 56.0572 162.489 57.2585 163.688 57.1384Z" fill="#1E1E1E"/>
<path d="M198.351 67.5898C198.711 66.7489 198.711 65.5476 198.351 64.8268C198.111 64.3463 197.751 63.8657 196.911 63.8657C186.477 64.3463 175.802 64.3463 165.367 63.7456H165.247C164.048 63.7456 163.568 64.9469 163.568 66.0281C163.568 67.3495 164.048 68.6709 165.367 68.7911C175.802 69.3917 186.477 69.3917 196.911 68.9112C197.631 68.7911 198.111 68.0703 198.351 67.5898Z" fill="#1E1E1E"/>
<path d="M47.8259 57.1384C63.658 55.6968 79.8499 55.5767 95.682 56.778C96.6415 56.778 97.0014 55.5767 97.1213 54.4955C97.1213 53.1741 96.7615 51.7325 95.682 51.7325C88.4856 51.1319 81.1693 50.8916 73.8529 50.8916C65.2172 50.8916 56.4616 51.252 47.9459 52.0929C46.9864 52.213 46.5066 53.5345 46.5066 54.976C46.5066 56.0572 46.8664 57.2585 47.8259 57.1384Z" fill="#1E1E1E"/>
<path d="M92.3239 67.5898C92.8036 66.7489 92.6837 65.5476 92.3239 64.8268C92.084 64.3463 91.4843 63.8657 90.4048 63.8657C77.0915 64.3463 63.5382 64.3463 50.2249 63.7456H50.105C48.6657 63.7456 48.066 64.9469 47.946 66.0281C47.946 67.3495 48.5457 68.6709 50.2249 68.7911C63.5382 69.3917 77.0915 69.3917 90.4048 68.9112C91.4843 68.7911 92.084 68.0703 92.3239 67.5898Z" fill="#1E1E1E"/>
<path d="M161.889 10.8884C177.721 9.4468 193.913 9.32667 209.745 10.528C210.705 10.528 211.065 9.32667 211.185 8.2455C211.185 6.92407 210.825 5.48251 209.745 5.48251C202.549 4.88186 195.232 4.6416 187.916 4.6416C179.28 4.6416 170.525 5.00199 162.009 5.8429C161.05 5.96303 160.57 7.28446 160.57 8.72602C160.57 9.80719 160.93 11.0085 161.889 10.8884Z" fill="#1E1E1E"/>
<path d="M206.387 18.4566C206.147 17.9761 205.547 17.4956 204.468 17.4956C202.069 17.6157 199.55 17.6157 197.151 17.7359C194.753 17.7359 192.234 17.6157 189.715 17.9761C189.355 17.9761 188.996 18.0963 188.756 18.3365C188.276 18.6969 188.036 19.2976 187.916 19.8982C187.796 20.1385 187.796 20.4989 187.796 20.7391C187.796 21.58 188.396 22.3008 189.235 22.6612C190.075 23.0216 190.795 23.0216 191.634 23.0216C195.952 22.7813 200.27 22.9015 204.468 22.7813C205.547 22.7813 206.147 22.0605 206.387 21.58C206.867 20.4989 206.747 19.2976 206.387 18.4566Z" fill="#1E1E1E"/>
<path d="M179.04 22.7813C179.28 22.7813 179.4 22.6612 179.64 22.6612C180.36 22.4209 180.84 21.7002 181.079 20.9794C181.319 20.2586 180.959 19.4177 180.48 18.817C179.88 18.2164 178.92 17.9761 178.081 17.856C175.922 17.7359 173.643 17.856 171.484 17.7359C169.085 17.7359 166.687 17.6157 164.408 17.4956H164.288C162.849 17.4956 162.249 18.6969 162.129 19.7781C162.129 21.0995 162.729 22.4209 164.408 22.5411C167.046 22.6612 169.565 22.7813 172.204 22.7813C173.523 22.7813 174.843 22.7813 176.282 22.9015C177.001 22.7813 178.081 22.9015 179.04 22.7813Z" fill="#1E1E1E"/>
</svg>
