<svg width="101" height="168" viewBox="0 0 101 168" fill="none" xmlns="http://www.w3.org/2000/svg">
<path d="M50.0573 39.7938C47.3357 37.0938 42.4404 36.6669 39.3854 39.4005C38.8947 39.8394 38.5029 40.2623 38.331 40.8861C37.6035 41.2506 37.0538 41.9314 36.7794 42.7929C35.8038 46.0541 35.5932 49.4584 37.2821 52.4333C38.0505 53.798 39.25 54.9059 40.6801 55.6093C42.3533 56.4047 44.2526 56.4365 46.0586 55.9809C49.3679 55.1597 51.6167 52.4584 52.5141 49.3859C53.4946 46.0227 52.515 42.2288 50.0573 39.7938ZM47.3922 46.776C47.3865 46.8182 47.3952 47.0155 47.4032 47.1529C47.404 47.2128 47.3862 47.2794 47.3991 47.3148C47.37 47.4657 47.3658 47.6276 47.3182 47.7852C47.2657 48.0448 47.2068 48.2868 47.1479 48.5287C47.1422 48.5708 47.1422 48.5708 47.1301 48.5953C47.0938 48.6686 47.0575 48.7419 47.0455 48.7664C46.943 49.004 46.8342 49.224 46.7068 49.4507C46.6947 49.4751 46.6826 49.4996 46.6705 49.524C46.6157 49.6041 46.5359 49.6732 46.4932 49.7288C46.365 49.8956 46.224 50.027 46.0894 50.1762C46.0031 50.2275 45.8928 50.3278 45.8436 50.3657C45.7944 50.4036 45.6349 50.5417 45.4625 50.6444C45.444 50.6512 45.4254 50.6579 45.3328 50.6916C45.1845 50.7454 45.0427 50.817 44.888 50.8531C44.7954 50.8868 44.7213 50.9137 44.6222 50.9296C44.3991 50.9505 44.1639 50.9959 43.9343 50.9991C43.9158 51.0058 43.8909 50.9948 43.8723 51.0016C43.8474 50.9906 43.8474 50.9906 43.8039 50.9863C43.6919 50.9669 43.555 50.9364 43.4431 50.9169C43.4245 50.9237 43.4245 50.9237 43.4181 50.906C43.4181 50.906 43.4181 50.906 43.3931 50.895C43.2868 50.8334 43.1685 50.7962 43.0437 50.7413C43.0187 50.7303 42.9937 50.7193 42.9752 50.7261C42.8375 50.6357 42.712 50.521 42.6242 50.4526C42.6178 50.4349 42.5928 50.4239 42.5742 50.4307C42.7369 50.532 42.5179 50.391 42.4423 50.2982C42.2595 50.0839 42.1203 49.8739 41.9746 49.6461C41.936 49.5399 41.8661 49.4049 41.8218 49.3408C41.7132 49.0996 41.6481 48.8626 41.5766 48.608C41.5622 48.4528 41.4955 48.0961 41.4826 48.0607C41.4603 47.7682 41.4443 47.4933 41.4469 47.2117C41.4518 47.1097 41.4181 46.9014 41.46 46.7859C41.3187 47.3785 41.4657 46.7438 41.4827 46.6173C41.5159 46.3046 41.5676 45.9851 41.6378 45.6589C41.7421 45.0797 41.8962 44.5225 42.0689 43.9586C42.2107 43.8871 42.3461 43.7978 42.4936 43.6841C42.7144 43.4836 42.936 43.343 43.1632 43.1602C43.2124 43.1223 43.2309 43.1155 43.243 43.0911C43.3171 43.0642 43.3912 43.0373 43.4468 43.0171C43.5765 42.97 43.7062 42.9228 43.8545 42.869C43.873 42.8623 43.873 42.8623 43.873 42.8623C43.9906 42.8396 44.1581 42.8389 44.1767 42.8321C44.3007 42.8272 44.8105 42.9026 44.4183 42.8045C44.0076 42.7131 44.7107 42.8587 44.8041 42.8849C44.8291 42.8959 44.916 42.9044 44.9845 42.9196C45.0094 42.9306 45.0158 42.9483 45.0408 42.9593C45.1407 43.0032 45.3525 43.0666 45.5272 43.1434C45.5336 43.1611 45.5586 43.1721 45.615 43.2118C45.7341 43.3088 45.8718 43.3991 45.9909 43.4962C46.0787 43.5645 46.1479 43.6396 46.2357 43.708C46.3998 43.929 46.5761 44.1256 46.7218 44.3533C46.7346 44.3887 46.7725 44.4351 46.8168 44.4992C46.8425 44.5701 46.8932 44.6519 46.906 44.6873C47.0339 44.9817 47.1312 45.3072 47.2406 45.6083C47.247 45.626 47.2534 45.6437 47.2663 45.6791C47.2864 45.7921 47.3 45.8874 47.3136 45.9826C47.3602 46.2263 47.3762 46.5012 47.3922 46.776Z" fill="#F6F6F6"/>
<path d="M77.6757 64.2811C77.4707 64.067 77.2106 63.9348 76.8822 63.8479L76.2066 63.681L76.0434 62.9982C70.703 40.2417 55.5261 21.2853 34.441 10.9893C33.2552 10.41 32.261 9.60597 31.364 9.93181L30.8207 10.1292L30.3337 10.3061C29.1472 10.7371 28.8144 11.2604 28.2593 12.8844C20.1007 36.772 20.1023 60.767 28.2532 80.4616L28.3711 80.728L28.3448 81.0055C27.1053 93.4123 28.6931 103.328 33.2437 111.302C34.0164 112.671 36.8384 117.17 40.6558 117.99C42.1766 118.324 43.6223 117.984 45.1065 116.991C47.4159 115.41 47.4815 112.789 47.5316 110.008L47.6495 104.379L48.6269 104.209C49.3409 104.074 50.0792 103.888 50.7921 103.691C51.2737 103.557 51.7431 103.448 52.2125 103.34C53.9525 102.934 55.6737 102.536 57.407 102.112C65.1469 100.187 71.334 97.8985 76.9116 94.9241C76.9799 94.8787 77.0295 94.8401 77.0978 94.7946L77.8724 94.1834L78.656 94.7646C79.8618 95.749 80.8515 96.9562 81.8281 98.1269C82.8047 99.2976 83.7108 100.391 84.7887 101.257C85.8347 102.093 87.1152 102.35 88.314 101.914C89.4798 101.387 90.4053 100.433 90.6827 99.0951C91.1396 96.9089 90.8592 94.2691 90.6218 91.9228L90.5986 91.6838C89.4957 81.4679 85.0307 71.9785 77.6757 64.2811ZM42.0797 113.329L40.0396 111.74C39.3981 111.025 38.9264 110.31 38.4865 109.625L38.3829 109.456C37.3544 107.851 36.4802 106.086 35.7271 104.072C34.6841 101.317 33.9628 98.2807 33.583 95.0172L33.0002 90.2608L35.7427 94.1914C37.1041 96.1295 38.3728 97.8125 39.6767 99.3591C39.7219 99.4251 39.7793 99.4661 39.8366 99.5071L40.2158 99.9672C40.7052 100.614 41.3147 101.3 41.9672 101.928L42.3254 102.272L42.0797 113.329ZM72.0566 90.9569L71.9675 91.5871L71.3879 91.8595C69.7054 92.6562 67.9335 93.3823 66.0041 94.0832C63.5689 94.9678 60.8813 95.7998 57.829 96.62C55.0269 97.3699 52.2104 98.022 49.8192 98.5608C49.6065 98.6174 49.3872 98.6558 49.1426 98.6828C48.7856 98.7507 48.4032 98.8071 48.1476 98.9206C47.9602 98.9887 47.7729 99.0567 47.5724 99.0883L47.19 99.1448L46.8539 98.9783C46.0868 98.6179 44.9052 97.233 44.6021 96.8071C44.4863 96.6636 44.3772 96.5384 44.256 96.4381C40.0289 91.3976 36.5775 85.8073 33.8962 79.7104L33.8047 79.5169L33.8069 79.2893C33.7935 78.5521 33.5113 77.8919 33.0373 77.4044L32.7915 77.0195C25.9039 59.4016 25.7343 38.2713 32.3342 17.5061L32.7681 16.1322L34.0499 16.8004C61.1779 31.065 76.4507 60.8506 72.0566 90.9569ZM84.9352 89.9274C84.9562 90.0435 84.965 90.1846 84.9859 90.3006L85.4825 93.769L82.9585 91.4906C81.4552 90.0371 80.0423 89.0661 78.5038 88.45L77.7125 88.1396L77.785 87.2886C78.0874 83.8599 78.1649 80.5127 78.0375 77.3019L77.8194 72.2068L80.27 76.6764C81.3812 78.6847 82.2379 80.5174 82.8796 82.284C83.8642 84.936 84.538 87.433 84.9352 89.9274Z" fill="#F6F6F6"/>
<path d="M91.7876 131.962C91.9991 125.33 88.6613 118.134 81.737 116.24C78.4613 115.342 74.9744 115.38 71.6237 115.987C67.9075 116.666 63.8618 117.855 61.3317 120.814C59.1043 123.403 58.4473 127.023 58.9665 130.307C59.496 133.716 60.8287 137.86 63.0543 140.556C65.2219 143.168 68.3738 144.9 71.2636 146.636C74.1877 148.402 77.1225 150.141 79.7199 152.372C79.7886 152.429 79.868 152.46 79.9288 152.498C81.3393 153.923 83.8904 154.42 85.6398 153.576C88.3487 152.25 89.0934 149.697 88.3027 147.008C88.5418 147.814 88.3398 146.991 88.3402 146.84C88.3196 146.589 88.299 146.338 88.2863 146.105C88.2945 145.972 88.3189 145.723 88.3138 145.66C88.3702 145.332 88.4001 144.995 88.4565 144.667C88.4915 144.392 88.553 144.127 88.6145 143.862C88.6492 143.739 88.708 143.518 88.7107 143.474C88.9561 142.718 89.22 141.954 89.4839 141.19C90.2567 139.057 91.0215 136.907 91.4398 134.668C91.6212 134.07 91.7047 133.449 91.6718 132.813C91.7254 132.53 91.779 132.247 91.7876 131.962Z" fill="#F1C527"/>
<path d="M84.2488 117.228L84.0466 116.953C80.0255 111.166 72.7097 111.257 67.5701 113.124C67.4979 113.15 67.4438 113.17 67.3717 113.196C61.6206 115.347 55.1325 120.414 54.096 128.182C53.063 136.071 58.6724 142.185 63.6936 146.623C66.2166 148.848 68.9542 150.933 71.5982 152.929C74.8137 155.374 78.1589 157.896 81.1552 160.749C82.241 161.772 83.2804 161.373 83.8179 161.055C84.7848 160.457 85.5964 159.095 85.1876 157.745C83.3459 151.495 83.2819 144.968 85.0213 137.787L85.1354 137.314C86.684 130.9 88.1643 124.86 85.8537 118.781C85.5787 118.08 85.1334 117.585 84.513 117.338L84.2488 117.228ZM81.364 121.931C82.5815 126.519 81.4008 131.136 80.2576 135.576C79.8418 137.184 79.4537 138.701 79.1803 140.196C78.632 143.126 78.4397 146.194 78.5954 149.319L78.7205 151.799L75.0518 149.005C73.761 148.037 72.4816 147.044 71.2023 146.051L70.3204 145.365C66.3083 142.244 61.3026 138.355 59.6236 133.339C57.778 127.809 61.3936 122.533 65.8085 119.739C67.9029 118.424 72.8501 116.195 76.6097 117.273C78.1589 117.716 79.3463 118.681 80.0423 120.091C80.2809 120.579 80.6145 120.992 81.0005 121.324L81.2929 121.567L81.364 121.931Z" fill="#F6F6F6"/>
</svg>
