<svg width="85" height="167" viewBox="0 0 85 167" fill="none" xmlns="http://www.w3.org/2000/svg">
<path d="M40.9042 146.782C45.2489 141.767 47.1933 134.077 43.012 128.242C41.0352 125.48 38.3043 123.311 35.3205 121.67C32.0077 119.855 28.117 118.228 24.2879 118.93C20.9265 119.536 18.1346 121.932 16.4679 124.809C14.7301 127.789 13.1525 131.846 13.181 135.342C13.2168 138.736 14.5723 142.067 15.7209 145.237C16.8783 148.451 18.0605 151.65 18.6702 155.02C18.6877 155.108 18.73 155.181 18.7529 155.25C18.9498 157.245 20.6168 159.239 22.5072 159.686C25.4456 160.365 27.6332 158.852 28.7147 156.266C28.3922 157.042 28.7536 156.277 28.8496 156.159C28.9918 155.951 29.134 155.743 29.2708 155.555C29.3614 155.456 29.5372 155.279 29.5727 155.227C29.823 155.008 30.0592 154.764 30.3095 154.546C30.5101 154.354 30.7248 154.187 30.9395 154.02C31.0442 153.947 31.2287 153.812 31.2589 153.78C31.9259 153.347 32.6124 152.921 33.2989 152.494C35.243 151.326 37.1924 150.138 38.9282 148.664C39.4463 148.314 39.9025 147.884 40.2775 147.37C40.4976 147.184 40.7177 146.998 40.9042 146.782Z" fill="#F1C527"/>
<path d="M55.6825 42.659C54.8595 38.9147 50.9777 35.9018 46.9286 36.5423C46.2783 36.645 45.7198 36.788 45.2372 37.2189C44.4282 37.1308 43.5972 37.4048 42.8996 37.9798C40.3116 40.1911 38.2889 42.9374 38.095 46.3528C38.0008 47.9161 38.4079 49.4974 39.2282 50.8638C40.2029 52.4394 41.7815 53.4958 43.5461 54.0923C46.772 55.1965 50.1261 54.1459 52.546 52.0509C55.1935 49.7565 56.4273 46.0376 55.6825 42.659ZM49.6574 47.0809C49.6297 47.1132 49.5301 47.2837 49.4623 47.4035C49.4305 47.4542 49.3795 47.5006 49.3711 47.5373C49.2648 47.6483 49.1736 47.7821 49.0481 47.8887C48.8632 48.0784 48.6825 48.2497 48.5018 48.4211C48.4742 48.4534 48.4742 48.4534 48.4508 48.4674C48.3806 48.5093 48.3103 48.5513 48.2869 48.5652C48.072 48.7094 47.8612 48.8352 47.6313 48.9566C47.6079 48.9706 47.5845 48.9846 47.561 48.9986C47.4716 49.0361 47.3671 49.0509 47.301 49.0745C47.1029 49.1452 46.9131 49.1791 46.7192 49.2315C46.6189 49.2279 46.4718 49.2522 46.4099 49.2574C46.3481 49.2626 46.1391 49.2922 45.9385 49.285C45.9193 49.2807 45.9001 49.2763 45.804 49.2543C45.6502 49.2192 45.4923 49.2024 45.3427 49.1489C45.2466 49.127 45.1698 49.1094 45.0779 49.0691C44.8791 48.9657 44.6568 48.8763 44.4622 48.7545C44.443 48.7501 44.428 48.7273 44.4088 48.723C44.3937 48.7002 44.3937 48.7002 44.3595 48.673C44.276 48.596 44.1775 48.4962 44.094 48.4191C44.0747 48.4147 44.0747 48.4147 44.0789 48.3963C44.0789 48.3963 44.0789 48.3963 44.0639 48.3736C44.008 48.2642 43.9287 48.1687 43.8536 48.0549C43.8386 48.0322 43.8235 48.0094 43.8043 48.005C43.7376 47.8545 43.6943 47.69 43.6576 47.585C43.6618 47.5666 43.6468 47.5438 43.6276 47.5394C43.7093 47.7127 43.6018 47.4756 43.5885 47.3566C43.5512 47.0774 43.548 46.8255 43.5491 46.5551C43.5743 46.4449 43.5887 46.2936 43.5862 46.2157C43.6258 45.9542 43.6996 45.7198 43.7775 45.467C43.8495 45.3288 43.9869 44.993 43.9953 44.9562C44.1351 44.6983 44.2708 44.4587 44.4256 44.2234C44.485 44.1404 44.5696 43.9471 44.6675 43.8728C44.2274 44.2941 44.6951 43.8405 44.7779 43.7434C44.9754 43.4986 45.1921 43.2582 45.428 43.0222C45.8296 42.5921 46.2612 42.2075 46.7121 41.8273C46.87 41.8441 47.0322 41.8425 47.2177 41.8269C47.512 41.7781 47.7744 41.7801 48.0644 41.7497C48.1263 41.7445 48.1455 41.7489 48.169 41.7349C48.2458 41.7525 48.3227 41.7701 48.3803 41.7832C48.5149 41.814 48.6494 41.8447 48.8031 41.8798C48.8224 41.8842 48.8224 41.8842 48.8224 41.8842C48.9335 41.9289 49.0746 42.0192 49.0939 42.0235C49.2008 42.0866 49.5883 42.4264 49.3119 42.1313C49.0163 41.8319 49.5282 42.3354 49.5925 42.408C49.6075 42.4308 49.676 42.4851 49.7252 42.535C49.7402 42.5578 49.736 42.5761 49.751 42.5989C49.8111 42.6899 49.9547 42.858 50.0599 43.0174C50.0557 43.0357 50.0707 43.0585 50.0966 43.1224C50.1441 43.2685 50.2108 43.4191 50.2583 43.5652C50.295 43.6702 50.3124 43.7708 50.3491 43.8759C50.3672 44.1506 50.4087 44.4113 50.4076 44.6817C50.3992 44.7184 50.4059 44.7779 50.4083 44.8558C50.3915 44.9293 50.3897 45.0255 50.3814 45.0622C50.3292 45.3789 50.2345 45.7051 50.1631 46.0174C50.1589 46.0358 50.1547 46.0541 50.1463 46.0909C50.1019 46.1967 50.0618 46.2842 50.0215 46.3716C49.9286 46.6016 49.793 46.8413 49.6574 47.0809Z" fill="#F6F6F6"/>
<path d="M65.6122 78.2091C65.556 77.918 65.4092 77.6659 65.1803 77.4148L64.7031 76.9083L64.9362 76.2461C72.7873 54.2293 70.3128 30.0723 58.1783 9.98891C57.496 8.85916 57.0966 7.64455 56.1662 7.43199L55.6027 7.30326L55.0976 7.18785C53.8669 6.9067 53.3036 7.16598 51.9566 8.22964C32.1497 23.8778 19.1411 44.0405 15.3117 65.0084L15.2664 65.2961L15.0938 65.5151C7.32552 75.2679 3.28321 84.4608 2.78341 93.6283C2.69076 95.1972 2.62229 100.508 5.38581 103.266C6.48258 104.371 7.88149 104.87 9.66677 104.84C12.4645 104.764 13.9408 102.597 15.4906 100.288L18.6419 95.6215L19.555 96.009C20.2286 96.2822 20.9496 96.5264 21.6555 96.7473C22.1327 96.896 22.586 97.0592 23.0394 97.2224C24.7211 97.8253 26.3834 98.4237 28.0695 99.0076C35.6168 101.586 42.0565 103.018 48.3558 103.543C48.4378 103.542 48.5004 103.536 48.5825 103.535L49.5647 103.441L49.908 104.355C50.3874 105.835 50.5646 107.386 50.7504 108.9C50.9362 110.413 51.1048 111.823 51.541 113.135C51.9664 114.405 52.9034 115.314 54.1469 115.598C55.4119 115.788 56.7072 115.488 57.6656 114.514C59.2348 112.925 60.4305 110.555 61.5032 108.454L61.6132 108.241C66.2254 99.059 67.6188 88.6647 65.6122 78.2091ZM9.1093 100.122L8.25631 97.681C8.10509 96.7322 8.09638 95.8756 8.09844 95.0612L8.1027 94.8634C8.10896 92.9568 8.33112 91.0002 8.79069 88.8991C9.40777 86.019 10.4479 83.0767 11.8983 80.1286L13.9875 75.816L14.1607 80.6057C14.2538 82.9723 14.4073 85.0743 14.6644 87.0808C14.6666 87.1608 14.6925 87.2264 14.7184 87.2919L14.7876 87.8841C14.8481 88.6929 14.9885 89.5995 15.1959 90.4816L15.3103 90.9649L9.1093 100.122ZM46.4274 97.5769L46.0107 98.0581L45.3761 97.9728C43.5303 97.73 41.6478 97.3794 39.6466 96.9222C37.1208 96.3452 34.4115 95.5871 31.4021 94.6213C28.6409 93.7321 25.9208 92.7529 23.6195 91.9092C23.4101 91.8415 23.205 91.7549 22.9848 91.6449C22.648 91.5084 22.2961 91.3485 22.0198 91.3052C21.8255 91.2608 21.6312 91.2164 21.4456 91.1343L21.0937 90.9744L20.9015 90.6522C20.4524 89.9335 20.2104 88.1292 20.1866 87.607C20.1671 87.4237 20.1434 87.2593 20.0958 87.1093C19.2769 80.5821 19.4079 74.0135 20.4606 67.4368L20.4887 67.2246L20.6139 67.0346C21.0024 66.4078 21.1232 65.7 20.9892 65.0334L20.9914 64.5768C24.7563 46.0388 36.0704 28.192 52.8747 14.3224L53.9842 13.4033L54.699 14.6597C69.7593 41.3541 66.4429 74.6624 46.4274 97.5769ZM57.8068 103.695C57.7615 103.803 57.6924 103.927 57.6471 104.036L56.1838 107.219L55.2984 103.936C54.8232 101.9 54.1625 100.318 53.2038 98.9661L52.7072 98.2762L53.2296 97.6006C55.3427 94.8834 57.2226 92.113 58.8565 89.346L61.4357 84.9466L61.0714 90.0309C60.9163 92.3209 60.6424 94.3253 60.2238 96.1575C59.6132 98.9198 58.8255 101.383 57.8068 103.695Z" fill="#F6F6F6"/>
<path d="M42.4278 126.262L42.4073 125.921C42.1662 118.878 35.9696 114.988 30.6387 113.77C30.5639 113.753 30.5077 113.741 30.4329 113.723C24.4344 112.412 16.2354 113.152 11.1529 119.117C6.00724 125.186 7.40597 133.365 9.21885 139.816C10.1325 143.053 11.3022 146.29 12.4416 149.401C13.8175 153.199 15.2612 157.131 16.2317 161.154C16.5898 162.601 17.679 162.83 18.3033 162.854C19.4398 162.876 20.8604 162.171 21.249 160.815C23.0902 154.565 26.5749 149.047 31.9301 143.955L32.2822 143.62C37.0611 139.071 41.5798 134.798 42.9347 128.437C43.0836 127.699 42.978 127.041 42.5905 126.497L42.4278 126.262ZM37.4541 128.649C35.9896 133.164 32.4941 136.404 29.1265 139.514C27.9048 140.641 26.7564 141.705 25.716 142.813C23.6667 144.977 21.842 147.451 20.278 150.162L19.0386 152.313L17.4708 147.976C16.9112 146.463 16.3746 144.935 15.8381 143.407L15.4688 142.352C13.7898 137.555 11.6926 131.573 13.0011 126.448C14.4487 120.8 20.3473 118.328 25.5721 118.373C28.045 118.404 33.4101 119.214 35.985 122.158C37.0463 123.37 37.521 124.824 37.3412 126.387C37.277 126.926 37.3336 127.454 37.4779 127.942L37.5919 128.305L37.4541 128.649Z" fill="#F6F6F6"/>
</svg>
