<svg width="141" height="129" viewBox="0 0 141 129" fill="none" xmlns="http://www.w3.org/2000/svg">
<path d="M51.6823 60.7563C51.2448 60.9136 50.8976 61.2003 50.5751 61.5436C49.6473 61.2739 48.5528 61.5494 47.8934 62.5124C46.8725 64.0382 47.794 65.7618 48.9709 66.8339C51.3 68.9214 55.3342 68.5768 56.4412 65.3935C57.5179 62.5272 54.5819 59.5911 51.6823 60.7563Z" fill="white" fill-opacity="0.25"/>
<path d="M125.908 85.3228C126.125 84.6278 126.174 83.823 126.307 83.0731C126.452 80.2984 125.431 77.4773 123.805 75.2157C122.57 73.4503 121.033 71.9646 119.441 70.5626C117.962 69.3538 116.09 67.6488 114.227 67.0255C113.616 66.8639 113.088 66.757 112.534 66.8723L112.395 66.9011C112.395 66.9011 112.341 66.9848 112.424 67.0396C113.009 70.8903 113.069 74.9947 112.128 78.8019C112.128 78.8019 112.073 78.8856 112.157 78.9404C112.157 78.9404 112.241 78.9952 112.324 79.05C112.742 79.3241 113.051 79.7655 113.221 80.2356C113.959 82.3932 112.563 84.7063 110.768 85.802C108.919 86.9814 106.563 87.1108 104.4 87.1278C104.76 87.1249 106.114 82.8707 106.22 82.3429C106.734 80.647 107.248 78.9511 107.539 77.2292C108.261 73.7566 108.539 70.2319 108.51 66.6265C108.376 60.0819 107.52 53.5429 104.948 47.4334C104.213 45.6364 103.256 43.8133 102.189 42.1575C96.938 33.9334 88.6172 30.3929 79.477 28.4675C78.505 28.3087 77.3397 28.2623 76.5407 28.9343C76.4859 29.0179 76.2926 29.1304 76.1541 29.1592C76.0157 29.188 75.8772 29.2168 75.7936 29.162C69.0444 27.9668 62.8807 27.1552 56.3734 28.5098C50.5583 29.7203 44.9767 32.3989 40.71 36.5372C40.3523 36.9006 39.9946 37.264 39.6917 37.5437C39.0311 38.1868 38.3993 38.9683 37.8223 39.6663C37.1645 40.6699 36.0681 42.3426 35.6844 42.9281C35.2459 43.5972 34.8362 44.4048 34.3428 45.1575C30.869 51.3698 29.4285 58.6756 29.4562 65.748C27.619 64.9026 25.8078 63.8351 24.1899 62.6551C22.7393 61.5848 21.3694 60.2088 20.7178 58.4665C20.0663 56.7242 20.3551 54.6418 21.7599 53.4104C23.3033 52.1502 25.5242 52.4102 27.2088 51.4817C27.4021 51.3692 27.7338 51.2279 27.8982 50.977C28.1175 50.6425 28.1983 50.3368 28.3339 49.9474C29.1392 46.5296 30.4435 43.0801 32.0276 39.9335C32.3277 39.2933 33.32 38.5089 33.2595 37.8714C33.2222 36.6514 31.4223 37.026 30.508 37.1441C28.013 37.3024 25.6333 38.0144 23.3112 39.0033C14.8537 42.7862 3.53381 52.943 8.5797 63.3044C9.8772 66.0678 12.193 67.8248 14.783 69.1636C20.277 73.0035 26.0711 76.2032 32.1942 78.9011C36.8219 88.9885 47.8619 96.2242 57.5757 100.558C65.6196 104.156 74.7337 106.304 83.54 104.543C89.4935 103.304 94.3512 100.27 98.0352 96.1086C100.836 96.0312 103.691 95.8701 106.406 95.3773C107.626 95.34 108.901 95.2191 110.176 95.0982C113.418 94.7122 116.686 94.1041 119.475 92.5846C122.541 91.0073 125.046 88.4638 125.908 85.3228ZM36.1229 59.9545C36.3365 58.8989 36.4665 57.7884 36.6801 56.7328C36.7869 56.2049 36.8937 55.6771 37.0842 55.2041C37.6725 55.9484 38.0127 56.8887 37.9923 57.8319C37.946 58.9972 37.0633 59.6143 36.1229 59.9545ZM87.363 96.8856C79.7102 100.718 70.6248 98.7086 63.0308 95.8835C55.5204 93.1133 48.1084 88.7336 42.3781 83.0649C50.1942 85.916 58.2008 88.294 66.2073 90.672C73.5188 92.8336 81.5225 94.8511 89.5726 95.7033C88.8543 96.0695 88.0813 96.5194 87.363 96.8856ZM80.6687 77.9112C82.4482 78.4797 83.1026 80.5825 82.8398 82.4429C80.394 81.7964 77.9482 81.1499 75.5024 80.5034C76.5699 78.6922 78.3613 77.2359 80.6687 77.9112ZM88.5102 84.0071C89.3619 79.424 87.8253 74.4714 83.1501 72.4833C77.4453 70.0595 71.7885 73.7649 69.5551 78.9967C64.4962 77.5941 59.4373 76.1915 54.4332 74.7052C48.8176 73.0573 43.0088 71.5219 37.3644 69.7355C36.8078 69.4903 36.1675 69.1902 35.6109 68.9449C35.4928 68.0306 35.5131 67.0874 35.4498 66.0894C39.3554 65.4209 43.5265 63.2525 43.8791 58.7011C44.1538 54.8159 42.1295 51.3371 39.1706 48.9195C42.6387 41.9861 48.3707 37.2538 55.2878 35.0917C55.0453 36.0089 55.1634 36.9233 55.5584 37.78C55.9275 38.8588 56.709 39.4906 57.8223 39.9811C58.128 40.0619 58.5174 40.1975 58.7943 40.1399C60.5998 40.4863 62.619 39.7771 63.7153 38.1044C64.5924 36.7662 64.5235 35.0471 63.5978 33.723C67.4801 33.6371 71.5066 34.2435 75.5387 35.571C76.9289 36.0039 78.0625 35.5512 78.6655 34.6312C88.6652 36.5221 95.8868 41.3748 99.4041 51.3322C102.408 59.5184 102.819 69.4724 100.75 77.9203C100.051 80.8103 98.992 83.7031 97.5148 86.3219C94.792 85.733 91.6223 84.7316 88.5102 84.0071Z" fill="white" fill-opacity="0.5"/>
<path d="M95.3974 53.2496C96.457 46.8898 89.9249 41.5325 84.693 39.2991C84.298 38.4424 83.5165 37.8106 82.2128 37.7931C79.6341 37.8965 76.8018 37.4749 74.5402 39.1013C72.0305 40.9238 70.5877 44.4021 70.3622 47.4825C69.8333 54.3097 75.9297 60.6967 82.35 62.3937C88.3809 63.9551 94.3898 59.1652 95.3974 53.2496ZM83.1067 56.3136C80.0754 55.2834 76.3581 51.6514 76.3327 48.4065C76.3214 46.9643 76.6966 45.2972 77.9659 44.4552C79.0419 43.7257 80.1523 43.8556 81.3176 43.902C81.6261 44.3433 82.0731 44.7559 82.7134 45.056C84.6891 45.8725 87.7288 47.9844 88.7986 50.0007C90.6844 53.5084 86.8331 57.5603 83.1067 56.3136Z" fill="white" fill-opacity="0.5"/>
<path d="M70.8223 56.6317C70.5601 55.0251 69.4151 54.0356 68.0798 53.519C66.9349 52.5295 65.3254 52.4312 64.1686 53.4665C62.7089 54.7815 61.5578 56.5379 62.1285 58.5859C62.7569 60.9107 65.2632 62.1947 67.5045 61.5115C69.6361 60.9955 71.2286 58.9306 70.8223 56.6317Z" fill="white" fill-opacity="0.5"/>
</svg>
