<svg width="117" height="77" viewBox="0 0 117 77" fill="none" xmlns="http://www.w3.org/2000/svg">
<path d="M116.339 25.4582C116.139 24.7582 115.739 24.0582 115.439 23.3582C114.039 20.9582 111.639 19.1582 109.039 18.1582C107.039 17.3582 104.939 16.9582 102.839 16.6582C100.939 16.4582 98.439 16.0582 96.539 16.5582C95.939 16.7582 95.439 16.9582 95.039 17.3582L94.939 17.4582C94.939 17.4582 94.939 17.5582 95.039 17.5582C97.639 20.4582 99.939 23.8582 101.239 27.5582C101.239 27.5582 101.239 27.6582 101.339 27.6582C101.339 27.6582 101.439 27.6582 101.539 27.6582C102.039 27.6582 102.539 27.8582 102.939 28.1582C104.739 29.5582 104.839 32.2582 103.939 34.1582C103.039 36.1582 101.139 37.5582 99.339 38.7582C99.639 38.5582 98.439 34.2582 98.239 33.7582C97.739 32.0582 97.239 30.3582 96.539 28.7582C95.239 25.4582 93.539 22.3582 91.539 19.3582C87.839 13.9582 83.539 8.95823 78.039 5.25823C76.439 4.15823 74.639 3.15823 72.839 2.35823C63.939 -1.64177 55.039 -0.0417736 46.339 3.35823C45.439 3.75823 44.439 4.35823 44.139 5.35823C44.139 5.45823 44.039 5.65823 43.939 5.75823C43.839 5.85823 43.739 5.95823 43.639 5.95823C37.339 8.65823 31.739 11.3582 27.039 16.0582C22.839 20.2582 19.639 25.5582 18.339 31.3582C18.239 31.8582 18.139 32.3582 18.039 32.7582C17.839 33.6582 17.739 34.6582 17.639 35.5582C17.639 36.7582 17.639 38.7582 17.639 39.4582C17.639 40.2582 17.739 41.1582 17.739 42.0582C18.239 49.1582 21.039 56.0582 24.939 61.9582C22.939 62.2582 20.839 62.3582 18.839 62.2582C17.039 62.1582 15.139 61.7582 13.639 60.6582C12.139 59.5582 11.239 57.6582 11.739 55.8582C12.339 53.9582 14.339 52.9582 15.239 51.2582C15.339 51.0582 15.539 50.7582 15.539 50.4582C15.539 50.0582 15.439 49.7582 15.339 49.3582C14.139 46.0582 13.339 42.4582 12.939 38.9582C12.839 38.2582 13.239 37.0582 12.839 36.5582C12.139 35.5582 10.839 36.8582 10.139 37.4582C8.13904 38.9582 6.53904 40.8582 5.13904 42.9582C0.139036 50.7582 -3.76096 65.4582 6.13904 71.3582C8.73904 72.9582 11.639 73.1582 14.539 72.8582C21.239 73.0582 27.839 72.5582 34.439 71.4582C43.839 77.3582 57.039 77.3582 67.539 75.6582C76.239 74.2582 85.039 71.0582 91.439 64.7582C95.739 60.4582 98.139 55.2582 98.939 49.7582C101.239 48.1582 103.539 46.4582 105.539 44.5582C106.539 43.8582 107.539 43.0582 108.539 42.2582C111.039 40.1582 113.439 37.8582 114.939 35.0582C116.639 32.0582 117.339 28.5582 116.339 25.4582ZM27.339 53.4582C26.939 52.4582 26.439 51.4582 26.039 50.4582C25.839 49.9582 25.639 49.4582 25.539 48.9582C26.439 49.2582 27.239 49.8582 27.739 50.6582C28.339 51.6582 27.939 52.6582 27.339 53.4582ZM90.439 56.2582C86.139 63.6582 77.439 66.9582 69.539 68.7582C61.739 70.5582 53.139 70.9582 45.239 69.3582C53.339 67.4582 61.339 65.0582 69.339 62.6582C76.639 60.4582 84.439 57.7582 91.639 54.0582C91.239 54.7582 90.839 55.5582 90.439 56.2582ZM74.439 44.0582C76.239 43.5582 77.939 44.9582 78.739 46.6582C76.339 47.4582 73.939 48.2582 71.539 49.0582C71.439 46.9582 72.139 44.7582 74.439 44.0582ZM84.339 44.8582C82.539 40.5582 78.539 37.2582 73.539 38.1582C67.439 39.2582 64.739 45.4582 65.739 51.0582C60.739 52.6582 55.739 54.2582 50.739 55.7582C45.139 57.4582 39.439 59.3582 33.739 60.9582C33.139 61.0582 32.439 61.1582 31.839 61.2582C31.239 60.5582 30.739 59.7582 30.139 58.9582C33.039 56.2582 35.339 52.1582 33.139 48.1582C31.239 44.7582 27.639 42.9582 23.839 42.5582C22.939 34.8582 25.139 27.7582 29.739 22.1582C30.039 23.0582 30.639 23.7582 31.439 24.2582C32.339 24.9582 33.339 25.0582 34.539 24.8582C34.839 24.7582 35.239 24.6582 35.439 24.4582C37.139 23.7582 38.439 22.0582 38.439 20.0582C38.439 18.4582 37.439 17.0582 35.939 16.4582C39.139 14.2582 42.839 12.5582 46.939 11.4582C48.339 11.0582 49.039 10.0582 49.039 8.95823C58.439 5.05823 67.139 5.15823 75.539 11.5582C82.539 16.7582 88.339 24.8582 91.239 33.0582C92.239 35.8582 92.939 38.8582 93.139 41.8582C90.539 42.8582 87.339 43.7582 84.339 44.8582Z" fill="white" fill-opacity="0.5"/>
<path d="M73.239 15.3582C70.639 9.4582 62.2391 8.5582 56.6391 9.5582C55.8391 9.0582 54.8391 8.9582 53.7391 9.6582C51.6391 11.1582 49.0391 12.3582 48.0391 14.9582C46.9391 17.8582 47.6391 21.5582 49.1391 24.2582C52.4391 30.2582 61.0391 32.2582 67.3391 30.1582C73.2391 28.1582 75.639 20.8582 73.239 15.3582ZM64.6391 24.6582C61.5391 25.4582 56.4391 24.4582 54.6391 21.7582C53.8391 20.5582 53.2391 18.9582 53.8391 17.5582C54.3391 16.3582 55.3391 15.8582 56.3391 15.2582C56.8391 15.4582 57.4391 15.5582 58.1391 15.4582C60.2391 15.0582 63.9391 15.1582 65.9391 16.2582C69.4391 18.1582 68.4391 23.6582 64.6391 24.6582Z" fill="white" fill-opacity="0.5"/>
<path d="M54.5391 31.6582C53.4391 30.4582 51.9391 30.2582 50.5391 30.5582C49.0391 30.3582 47.6391 31.1582 47.2391 32.6582C46.7391 34.5582 46.7391 36.6582 48.3391 38.0582C50.1391 39.6582 52.9391 39.3582 54.4391 37.5582C55.9391 35.9582 56.1391 33.3582 54.5391 31.6582Z" fill="white" fill-opacity="0.5"/>
</svg>
