<svg width="222" height="14" viewBox="0 0 222 14" fill="none" xmlns="http://www.w3.org/2000/svg">
<path d="M0.863448 3.96601C3.40814 5.92517 6.12401 7.724 8.66872 9.68316C11.2079 11.4866 13.0075 12.3744 15.9503 10.5829C18.3741 9.11659 21.3114 7.1693 23.1832 5.09415C23.3598 5.08951 23.3653 5.24521 23.542 5.24057C23.9173 5.8541 24.8171 6.298 25.3636 6.75119C26.6387 7.80862 27.7371 8.87069 29.0067 9.77242C31.0104 11.4341 33.1798 12.7797 35.9679 11.6156C38.7615 10.6072 40.4402 8.06955 42.6763 6.29652C42.8475 6.13618 43.0186 5.97584 43.1898 5.8155C42.6708 6.14082 42.8585 6.44758 43.5651 6.42902C44.1116 6.88221 45.0004 7.01471 45.718 7.30756C46.9766 7.89789 48.2352 8.48821 49.4939 9.07854C52.3699 10.4056 55.0803 12.0487 57.7906 13.6919C58.6959 14.2915 60.2749 13.9383 60.9595 13.297C62.1467 11.8632 63.3394 10.5851 64.5265 9.15129C65.2057 8.35423 65.8849 7.55716 66.564 6.7601C66.7352 6.59976 66.9063 6.43942 67.072 6.12337C67.2432 5.96303 67.2432 5.96303 67.2432 5.96303C68.8551 6.54408 70.3124 7.75258 71.7586 8.64967C73.3816 9.54212 75.01 10.5903 76.8096 11.4781C79.8788 13.2676 82.915 14.123 86.1946 11.855C88.6074 10.0773 90.8435 8.30431 93.2563 6.52664C95.2435 7.72121 97.2253 8.76009 99.3892 9.95003C101.371 10.9889 103.369 12.4949 105.826 11.9628C108.106 11.4354 110.16 9.51132 112.059 8.21467C113.097 7.56403 114.135 6.91339 114.997 6.26739C116.035 5.61674 116.741 5.59819 117.994 6.03281C122.112 7.48312 125.397 10.3579 130.006 10.7044C134.793 11.0462 138.05 8.15547 141.683 5.87823C142.892 5.06724 142.721 5.22758 143.985 5.97361C145.067 6.56858 145.973 7.16819 147.055 7.76316C149.219 8.95309 151.382 10.143 153.872 10.5452C156.356 10.7916 158.443 9.80175 160.707 8.80723C161.927 8.30765 163.147 7.80807 164.367 7.30849C165.588 6.80891 167.492 5.66796 169.077 5.47051C171.197 5.41483 173.907 7.05796 175.712 8.10147C177.699 9.29605 179.355 11.1227 181.845 11.5249C184.158 11.9316 186.427 11.0928 188.15 9.80082C190.049 8.50418 191.744 6.43367 194.24 6.99152C196.729 7.39367 198.733 9.05535 200.891 10.0896C203.232 11.2749 205.738 12.1441 208.576 12.3813C213.721 12.8696 218.96 11.0177 221.644 6.89521C223.317 4.20189 218.642 1.98699 216.968 4.68031C214.622 8.32639 209.498 8.46094 205.551 6.85029C201.604 5.23965 198.315 2.20913 193.716 2.17406C191.59 2.07403 189.675 2.90357 187.941 3.88417C186.561 4.8555 184.175 7.41167 182.376 6.52386C180.582 5.79175 178.931 4.12079 177.126 3.07727C175.144 2.0384 172.809 1.0088 170.678 0.753073C168.371 0.501984 166.455 1.33153 164.363 2.16571C161.746 3.16951 159.145 4.64041 156.523 5.48851C154.248 6.17163 152.068 4.51459 150.268 3.62677C148.463 2.58326 146.454 0.765879 144.146 0.514789C140.056 -0.15701 136.853 4.29078 133.54 5.62454C129.703 7.12792 125.884 4.11132 122.649 2.63782C120.667 1.59894 118.337 0.725049 116.052 1.09677C113.59 1.47312 111.53 3.24151 109.631 4.53815C108.593 5.1888 107.052 6.63186 105.827 6.97574C105.65 6.98038 105.313 7.45676 105.313 7.45676C104.96 7.46604 103.69 6.56431 103.331 6.41789C100.803 4.92583 98.0984 3.43841 95.5702 1.94635C95.5702 1.94635 95.3935 1.95099 95.388 1.79529C94.4827 1.19568 93.0639 1.07709 92.0369 2.03914C90.4855 3.1708 89.1107 4.29783 87.5592 5.42949C86.8745 6.07086 86.0077 6.56116 85.323 7.20252C84.804 7.52784 83.7825 8.64559 83.0814 8.81985C81.6736 9.01266 79.1234 6.8978 78.0415 6.30283C76.4185 5.41038 74.9723 4.51328 73.3494 3.62083C70.8212 2.12877 67.7355 -0.127876 64.9858 2.12617C63.611 3.2532 62.606 4.83805 61.59 6.1115C60.9109 6.90856 60.0605 7.86597 59.3814 8.66303C54.8659 5.97639 50.1848 3.6058 45.1723 1.86729C42.1306 0.856251 40.419 2.45966 38.3595 4.22805C37.3325 5.19009 36.3165 6.46354 35.1019 7.11882C34.0639 7.76946 34.7596 7.4395 33.8598 6.9956C33.3188 6.69811 32.5847 5.93816 32.0382 5.48498C30.7631 4.42755 29.6647 3.36547 28.3951 2.46374C27.4843 1.70843 26.3858 0.646361 25.1327 0.211734C22.2731 -0.648243 20.578 1.42227 18.6842 2.87461C17.4805 3.8413 16.2769 4.80798 14.8966 5.77931C14.8966 5.77931 13.8586 6.42995 13.3396 6.75527C13.1575 6.60421 12.9753 6.45315 12.7932 6.30208C10.2484 4.34292 7.53258 2.5441 4.98788 0.584932C1.91319 -1.36031 -1.68126 2.00684 0.863448 3.96601Z" fill="#F7C300"/>
</svg>
