<svg width="200" height="744" viewBox="0 0 200 744" fill="none" xmlns="http://www.w3.org/2000/svg">
<path d="M170.412 113.713C166.974 105.952 157.852 101.601 150.449 97.0145C141.591 91.4876 132.469 86.4311 121.892 84.3144C115.282 82.9032 111.845 91.8404 118.455 93.2515C120.835 93.7219 123.215 94.4274 125.462 95.2506C118.587 95.2506 111.448 96.6617 109.333 101.953C108.672 103.482 109.069 105.364 110.391 106.657C113.035 109.244 115.679 109.009 119.381 109.244C124.404 109.597 129.296 111.008 133.791 112.89C141.591 116.182 153.357 121.944 155.076 130.176C156.266 136.173 166.578 134.292 165.388 128.294C164.066 121.709 159.439 116.888 153.754 113.007C156.794 114.771 159.571 116.77 161.686 119.122C165.652 123.355 172.527 118.417 170.412 113.713Z" fill="#59C69F"/>
<path d="M44.0241 159.693C42.3054 154.871 37.0173 155.694 31.4647 155.342C30.8037 155.224 30.1426 155.224 29.6138 155.106C21.4171 154.401 13.0882 154.871 4.89157 156.4C4.09834 156.518 3.70173 156.988 3.43732 157.458C3.30511 157.576 3.17291 157.811 3.0407 157.929C0.661023 163.338 0 169.1 0 174.862C0.132205 180.859 0.793227 186.974 2.24748 192.854C2.37968 193.207 2.51189 193.56 2.77629 193.795C3.0407 194.618 3.83393 195.323 5.02377 195.088C10.973 194.03 16.9222 192.972 22.8714 192.148C23.5324 192.031 24.1934 191.913 24.8544 191.913C25.5155 192.031 26.1765 192.148 26.8375 192.148C27.3663 192.148 28.0274 192.148 28.6884 192.148C32.9189 192.031 36.8851 193.442 39.6614 191.208C40.3224 190.855 40.8512 190.385 41.1156 190.032C41.38 189.679 41.5122 189.209 41.5122 188.856C41.38 188.385 41.2478 187.915 41.1156 187.445C40.8512 186.151 40.5868 184.622 40.3224 183.094C40.1902 182.623 40.1902 182.035 40.058 181.565C39.9258 180.389 39.7936 179.331 39.6614 178.272C39.6614 177.684 39.5291 177.214 39.5291 176.626C39.5291 175.803 39.6614 174.862 39.6614 173.921C39.6614 173.451 39.6614 172.981 39.7936 172.393C39.7936 171.922 39.9258 171.452 40.058 170.982C40.1902 170.629 40.4546 170.158 40.5868 169.688C40.719 169.218 40.8512 168.865 40.9834 168.394C41.1156 168.042 41.2478 167.689 41.2478 167.336C41.38 166.983 41.38 166.513 41.5122 166.043C40.4546 164.044 44.4207 163.103 43.8919 160.516C43.8919 160.398 44.0241 160.045 44.0241 159.693Z" fill="#F7C300"/>
<path d="M168.561 317.503C168.429 312.446 167.9 307.625 166.313 302.686C165.388 300.217 163.008 300.452 160.628 300.687C157.852 300.922 155.208 301.393 152.432 301.745C146.747 302.569 140.93 302.804 135.113 302.569C134.452 302.569 133.923 302.804 133.659 303.157C132.469 303.274 131.279 304.332 131.808 305.744C133.659 310.095 134.452 314.681 134.849 319.267C134.981 321.501 135.113 323.735 135.245 325.97C135.377 328.204 135.377 330.438 135.113 332.673C134.981 333.025 134.849 333.378 134.981 333.731C134.716 335.612 137.493 335.965 138.418 334.554C139.079 334.319 140.137 334.319 140.666 334.319C141.988 334.201 143.177 334.084 144.499 334.084C146.879 333.966 149.259 333.966 151.639 333.966C156.53 333.966 161.422 334.319 166.181 334.907C167.239 335.024 168.164 334.201 168.164 333.26C168.693 328.086 168.693 322.677 168.561 317.503Z" fill="#59C69F"/>
<path d="M199.761 498.832C199.496 496.833 199.232 494.717 198.968 492.717C198.703 490.836 198.439 489.072 198.307 487.191C198.174 485.191 198.307 483.192 198.174 481.193C198.042 477.313 194.208 476.842 190.507 476.842C186.012 476.96 181.649 478.018 177.286 478.959C172.923 479.9 168.032 480.017 163.933 481.899C162.479 482.604 162.479 484.721 164.198 485.191L167.9 486.132C168.428 486.25 169.089 486.367 169.618 486.603C170.279 486.955 169.883 486.485 170.015 487.073C170.147 487.779 169.089 489.19 168.825 489.895C168.428 490.954 167.9 492.012 167.503 493.07C165.917 496.598 164.066 500.008 161.686 503.183C160.1 503.418 159.439 505.418 160.761 506.358C161.157 506.829 161.818 507.064 162.479 507.064C165.388 508.122 168.032 509.769 170.147 511.768C171.337 512.944 172.262 514.119 173.056 515.413C173.849 516.707 174.642 518.118 176.361 518.47C178.079 518.823 179.269 518 180.327 516.824C181.781 515.413 183.103 513.884 184.425 512.473C185.747 511.062 186.937 509.533 188.127 508.122C188.788 507.417 189.317 506.593 189.846 505.888C190.11 505.535 190.374 505.182 190.639 504.712C191.035 504.242 190.903 504.124 191.432 504.242C192.225 504.359 193.018 505.182 193.679 505.418C194.34 505.653 195.134 505.888 195.927 505.888C197.646 505.888 199.1 504.947 199.629 503.418C200.29 502.007 199.893 500.243 199.761 498.832Z" fill="#F7C300"/>
<path d="M77.472 519.411C76.9432 519.058 76.4143 518.94 75.8855 518.94C75.4889 518.588 74.9601 518.235 74.4313 518C73.9025 517.764 73.3736 517.764 72.8448 517.529C72.8448 517.529 72.8448 517.529 72.8448 517.412C72.8448 517.294 72.8448 517.059 72.7126 516.941C72.4482 516.001 72.0516 515.295 71.2584 514.707C70.0685 513.766 68.3499 514.825 68.2177 516.001C68.2177 516.471 68.0855 516.824 67.9533 517.294C67.6888 517.412 67.2922 517.647 67.0278 517.882C66.3668 516.824 64.7803 516.941 63.9871 517.529C63.4583 516.941 62.4007 516.706 61.6074 517.059C60.682 517.529 60.1532 518.588 60.682 519.411C61.0786 519.999 61.4752 520.587 62.004 521.057C62.1363 521.175 62.1363 521.292 62.2685 521.41L62.4007 521.527C62.4007 521.527 62.6651 521.998 62.5329 521.763C62.4007 521.645 62.5329 521.88 62.5329 521.88C62.5329 522.351 62.4007 522.703 62.1363 523.291C61.8718 523.997 61.6074 524.703 61.7396 525.526C61.7396 526.584 62.7973 527.642 64.1193 527.407C64.9125 527.29 65.7058 527.172 66.499 527.054C66.6312 527.054 66.7634 527.054 66.7634 527.054C66.8956 527.29 67.16 527.525 67.16 527.525C67.6888 528.113 68.4821 528.701 69.2753 529.053C69.6719 529.171 70.0685 529.171 70.4651 529.171C71.3906 529.289 72.316 528.936 72.5804 527.995C72.8448 527.054 73.2414 525.996 73.7703 525.173C73.9025 524.938 74.1669 524.585 74.4313 524.232C74.4313 524.232 74.4313 524.232 74.4313 524.115C74.9601 524.35 75.6211 524.467 76.1499 524.115C77.3398 523.527 77.7364 522.115 78.133 521.057C78.5296 520.704 78.2652 519.881 77.472 519.411Z" fill="#F7C300"/>
<path d="M34.3732 490.248C33.7122 489.778 32.9189 489.425 32.1257 489.072C32.7867 488.366 33.4478 487.661 34.1088 486.838C34.6376 486.132 35.1664 485.309 35.0342 484.368C34.7698 483.192 33.9766 482.604 32.7867 482.369C32.1257 482.252 31.3325 482.722 31.0681 483.192C31.0681 483.192 31.0681 483.192 31.0681 483.31C30.6715 483.075 30.0104 482.84 29.4816 482.84C28.6884 482.84 28.0274 483.075 27.3664 483.428C26.9697 482.722 26.5731 482.016 26.1765 481.311C25.2511 479.9 23.268 480.135 22.4748 481.546L22.3426 481.664C22.0782 482.134 21.8138 482.487 21.8138 483.075C21.8138 483.192 21.8138 483.31 21.8138 483.428C21.6816 483.428 21.4171 483.663 21.2849 483.78C20.8883 484.016 20.4917 484.251 20.0951 484.486C18.5086 485.427 17.0544 486.25 15.4679 487.073C14.6747 487.543 14.2781 488.249 14.4103 488.954C14.5425 489.778 15.3357 490.248 16.2612 490.366C17.0544 490.483 17.7154 490.601 18.5086 490.836C18.5086 490.836 19.0375 491.071 18.7731 490.954C18.7731 490.954 19.0375 491.189 18.9053 491.071C19.0375 491.306 19.3019 491.542 19.5663 491.777C19.9629 492.247 20.3595 492.835 20.6239 493.305C20.7561 493.541 20.7561 493.776 20.8883 493.893C21.2849 495.305 21.5494 496.833 21.946 498.362C22.0782 499.067 22.7392 499.538 23.5324 499.773C24.3256 499.891 24.9867 499.655 25.5155 499.068L28.5562 495.775C28.8206 495.422 29.2172 495.069 29.4816 494.717C29.8782 494.481 30.2748 494.246 30.6715 493.893C30.8037 493.776 30.8037 493.658 30.9359 493.541C31.3325 493.658 31.8613 493.541 32.2579 493.541C32.5223 493.541 32.6545 493.423 32.9189 493.305C33.7122 493.541 34.7698 493.423 35.2986 492.717C35.4308 491.894 35.2986 490.836 34.3732 490.248Z" fill="#F7C300"/>
<path d="M65.1769 716.381C68.7464 723.201 75.4888 728.023 83.1567 731.08C87.1228 732.726 91.2212 733.785 95.4517 734.608C100.079 735.549 104.706 736.254 109.465 735.901C111.052 737.9 113.96 738.371 116.472 737.43C131.015 732.138 143.706 718.145 142.384 703.681C141.723 696.39 136.303 690.863 129.825 686.747C126.52 684.63 122.95 682.631 119.249 680.867C119.249 680.632 119.116 680.397 119.116 680.279C118.984 679.692 118.852 678.986 118.72 678.398C117.662 674.282 114.489 672.518 110.391 671.342C104.045 669.461 96.5093 668.873 89.8991 669.461C86.4618 669.814 83.1567 671.225 81.1736 673.694C80.116 674.988 79.5872 676.399 78.7939 677.81C78.7939 677.81 78.6617 677.928 78.5295 678.28C78.3973 678.398 78.3973 678.398 78.1329 678.516C77.6041 678.868 77.2075 679.221 76.6787 679.574C74.96 680.985 73.9024 682.631 73.2413 684.395C70.465 687.453 68.3498 690.98 66.4989 694.508C62.5328 701.446 61.4751 709.208 65.1769 716.381Z" fill="#F7C300"/>
<path d="M73.6379 729.551C86.0651 743.427 110.126 749.66 126.52 737.548C128.767 735.901 125.594 733.079 123.347 734.725C110.126 744.486 90.8245 739.899 79.7193 729.669C69.4073 720.261 65.5734 706.032 72.3158 694.038C73.7701 691.333 75.7531 688.864 78.1328 686.747C80.6447 684.513 83.9498 683.337 86.4617 681.22C88.4448 679.574 88.8414 677.34 89.1058 674.988C89.238 673.577 89.238 671.93 90.8245 671.107C92.5431 670.166 95.4516 670.754 97.3025 670.754C101.665 670.872 106.028 670.99 110.391 671.225C114.092 671.342 120.967 670.637 122.95 674.4C124.272 677.104 122.289 679.927 124.933 682.396C127.313 684.63 131.015 685.689 133.659 687.805C139.872 692.627 143.838 699.682 144.235 706.973C144.499 710.854 143.706 714.852 142.12 718.497C140.666 722.025 138.154 726.259 134.188 728.022C131.543 729.198 133.791 732.609 136.435 731.55C143.971 728.258 147.54 718.85 148.466 712.03C149.523 704.621 147.276 696.86 142.384 690.745C140.005 687.805 137.228 685.218 134.055 683.102C132.469 682.043 130.75 681.338 129.164 680.397C126.916 679.103 127.842 676.869 127.577 674.87C126.255 665.933 111.977 667.344 104.97 667.109C100.343 666.991 95.055 666.051 90.56 667.109C86.8583 667.932 85.1397 670.519 84.743 673.812C84.4786 675.341 84.6108 677.222 83.2888 678.516C81.9668 679.691 79.8515 680.515 78.265 681.573C75.0921 683.69 72.448 686.394 70.2006 689.334C61.0784 701.799 63.3259 718.027 73.6379 729.551Z" fill="#1E1E1E"/>
<path d="M86.0652 661.817C87.6517 663.699 90.5602 663.346 92.9399 663.228C96.3772 663.111 99.6823 663.228 103.12 663.346C106.821 663.581 110.655 663.816 114.357 664.169C117.53 664.404 120.835 664.639 123.611 666.403C125.991 667.932 128.371 664.404 125.991 662.993C121.099 659.936 114.357 660.171 108.672 659.818C105.367 659.583 101.93 659.348 98.4925 659.348C96.906 659.348 95.3196 659.348 93.7331 659.348C92.9399 659.348 92.1467 659.465 91.3534 659.465C91.75 659.348 92.0145 659.348 92.4111 659.23C93.9975 658.877 95.584 658.642 97.1704 658.524C100.343 658.289 103.648 658.172 106.821 658.172C109.598 658.054 113.167 658.407 115.811 657.349C118.191 656.408 118.588 653.938 116.604 652.41C114.225 650.646 110.92 650.058 108.011 649.47C104.309 648.764 100.476 648.059 96.7738 647.353C93.9975 646.883 92.6755 650.646 95.584 651.234C98.8891 651.822 102.194 652.41 105.499 652.998C106.821 653.233 108.143 653.468 109.465 653.821C109.598 653.821 109.73 653.821 109.73 653.938C108.276 654.056 106.821 654.056 105.235 654.056C102.194 654.174 99.0213 654.173 95.9806 654.526C93.2043 654.761 89.8992 655.114 87.5195 656.525C85.4042 657.584 84.4788 659.936 86.0652 661.817Z" fill="#1E1E1E"/>
<path d="M96.906 645.472C99.0212 645.942 101.269 646.06 103.384 645.472C105.367 645.001 107.482 643.943 107.879 642.061C108.143 641.003 107.615 639.827 106.292 639.592C105.103 639.357 103.781 639.827 103.516 641.003V641.121C103.516 641.121 103.516 641.121 103.384 641.238C103.252 641.356 103.12 641.356 102.987 641.473H102.855C102.723 641.473 102.459 641.591 102.326 641.591C101.93 641.709 101.533 641.709 101.137 641.826C100.475 641.826 99.8145 641.826 99.0213 641.826C98.7568 641.826 98.4924 641.709 98.0958 641.709C96.906 641.473 95.5839 642.061 95.3195 643.12C95.0551 643.943 95.5839 645.119 96.906 645.472Z" fill="#1E1E1E"/>
<path d="M113.299 698.506C115.811 704.974 119.645 710.854 124.801 715.91C126.784 717.792 129.957 714.969 127.974 713.088C123.347 708.619 119.777 703.328 117.662 697.565C115.414 691.803 113.96 685.101 115.282 679.103C115.811 676.634 111.448 675.458 110.92 678.045C109.465 684.63 110.787 692.039 113.299 698.506Z" fill="#1E1E1E"/>
<path d="M82.6279 719.556C93.0721 708.032 99.1535 694.038 100.079 679.339C100.211 676.752 95.7162 676.752 95.584 679.339C94.6585 692.862 89.106 706.15 79.455 716.734C77.7364 718.733 80.7771 721.555 82.6279 719.556Z" fill="#1E1E1E"/>
<path d="M94.2617 720.614C94.1295 719.438 94.7905 718.38 95.5838 717.439C96.2448 716.616 96.9058 716.616 97.9634 716.851C98.3601 716.969 98.7567 717.086 99.0211 717.322C98.0956 719.556 98.36 722.496 100.872 723.789C102.326 724.612 104.177 724.142 105.102 722.848C106.16 721.437 105.896 719.556 105.367 718.027C105.235 717.674 105.102 717.439 104.838 717.204C105.235 717.086 105.631 716.969 106.028 716.969C106.425 716.969 106.953 717.086 107.35 717.204C107.218 717.439 107.086 717.557 106.953 717.792C105.499 720.261 105.631 725.318 109.73 725.553C113.431 725.788 114.886 721.79 114.225 719.203C114.092 718.733 113.96 718.262 113.696 717.792C114.357 717.674 115.15 717.557 115.679 717.909C116.604 718.615 117.398 720.144 117.53 721.202C117.662 722.26 119.248 722.848 120.306 722.613C121.628 722.26 122.157 721.202 121.892 720.144C121.364 717.086 118.72 713.794 115.018 713.558C113.564 713.441 112.109 713.794 110.787 714.382C108.143 712.735 104.441 712.383 101.665 714.029C100.079 712.971 98.0956 712.383 96.2448 712.5C92.2786 712.735 89.2379 717.086 89.5023 720.379C89.899 723.084 94.3939 723.201 94.2617 720.614Z" fill="#1E1E1E"/>
<path d="M158.91 519.999C141.459 505.182 114.886 508.593 98.6245 519.411L97.6991 519.999L96.9058 519.176C93.4685 516.001 90.56 512.473 88.3125 508.71C76.943 490.836 79.4548 469.199 95.055 452.265C96.5092 450.737 98.0957 449.09 99.8143 447.679L100.74 446.856L101.665 447.562C104.309 449.796 107.218 451.795 110.126 453.441C123.215 460.967 137.757 463.789 148.994 460.732C155.869 458.851 161.686 453.794 163.537 447.914C164.462 444.739 164.727 440.036 160.1 435.567C150.184 426.042 131.94 428.982 126.652 430.158C117.926 432.039 109.333 435.92 101.93 441.212L101.004 441.917L100.211 441.094C86.0651 427.218 79.9837 407.932 84.4786 390.881C88.0481 377.123 97.5669 364.54 111.448 355.486L112.109 355.015L112.903 355.368C115.547 356.544 118.191 357.602 120.835 358.661C127.577 361.13 134.849 363.129 142.252 364.54C149.127 365.834 157.059 367.01 163.934 364.305C169.751 362.071 173.849 357.014 173.717 352.075C173.717 347.607 170.412 343.726 165.123 341.374C156.133 337.611 143.838 338.199 128.635 343.256C123.082 345.137 117.662 347.607 112.506 350.664L111.845 351.017L111.184 350.664C99.4177 344.785 89.3702 337.023 82.0989 328.322C78.3972 323.971 74.6955 318.679 72.9768 313.387C72.3158 311.506 72.1836 309.507 72.7124 307.625C72.5802 307.978 76.6785 307.978 76.943 307.978C78.6616 307.625 79.8515 306.684 80.6447 305.391C81.7023 303.392 80.9091 301.157 78.7938 299.981C76.6785 298.806 74.0345 299.158 72.1836 300.569C71.3904 301.157 70.7293 301.863 70.2005 302.569C69.5395 302.098 69.0107 301.628 68.6141 301.04C68.0853 300.452 66.631 299.394 66.631 298.688C66.631 298.335 66.8954 297.982 67.0276 297.63C68.0853 295.631 67.6886 293.631 67.6886 291.397C67.4242 281.519 69.8039 271.994 74.9599 263.998C76.2819 261.999 77.8684 260 79.4548 258.118L80.2481 257.177L81.3057 257.883C96.377 268.231 120.174 275.757 137.757 262.822C140.005 261.176 147.011 255.296 145.293 248.358C143.971 242.713 137.625 239.656 134.055 238.362C121.628 233.894 106.689 236.951 96.7736 241.302C90.8244 243.889 85.404 247.417 80.7769 251.65L79.8515 252.474L78.926 251.65C67.6886 241.89 59.6242 227.779 56.4513 212.139C52.4851 192.971 55.2614 172.157 64.2513 153.577C67.1598 147.462 70.7293 141.818 74.8277 136.879L75.7531 135.703L76.8108 136.644C78.5294 138.173 80.2481 139.466 81.9667 140.642C92.5431 147.815 107.482 150.873 124.008 149.226C131.543 148.403 139.211 147.462 144.367 144.17C149.92 140.642 149.92 134.292 148.069 129.706C143.442 118.299 129.296 113.243 118.72 112.42C106.028 111.361 93.3363 115.477 82.76 123.709C80.6447 125.355 78.6616 127.119 76.5463 129.235L75.4887 130.294L74.5633 129.118C66.8954 119.946 62.4005 109.009 58.9631 99.3667C47.858 68.7923 47.9902 44.568 59.3598 25.5178C65.309 15.5224 73.9023 7.87878 84.2142 3.29262C84.8752 3.05744 85.2718 2.58706 85.2718 1.99909C85.2718 1.29353 84.8752 0.587968 84.2142 0.235187C83.1566 0.117594 82.8922 0 82.6278 0C82.3633 0 81.9667 0 81.5701 0.235187C52.6173 13.0529 44.2884 43.6273 46.1393 65.8525C47.1969 79.1405 50.8987 93.0166 57.9055 109.715C62.0038 119.358 66.2344 126.531 71.5226 132.41L72.1836 133.116L71.5226 133.822C59.492 147.933 51.6919 167.689 50.2376 188.15C48.519 212.492 56.1868 235.305 71.5226 250.71C72.8446 252.003 74.1667 253.297 75.7531 254.59L76.6786 255.296L75.8853 256.119C72.9768 259.412 70.5971 262.822 68.6141 266.467C66.2344 270.936 64.6479 275.757 63.7225 280.696C63.3259 283.166 63.1937 285.635 63.1937 288.105C63.1937 290.574 63.5903 293.631 62.7971 295.983C61.7394 295.748 60.814 294.925 59.7564 294.572C58.1699 294.102 56.1868 294.102 54.8648 295.043C53.5428 295.866 53.0139 297.512 53.5428 298.923C54.2038 301.157 56.9801 302.686 59.492 302.569C60.6818 302.569 61.6072 302.216 62.6649 301.745C62.7971 301.745 62.9293 301.628 63.0615 301.628C63.3259 301.628 63.4581 301.863 63.4581 301.981C64.1191 302.921 64.7801 303.744 65.8378 304.568C66.7632 305.273 67.953 305.979 68.3497 307.155C68.6141 307.86 68.3497 308.683 68.2175 309.389C67.5564 313.622 69.5395 317.15 71.787 320.796C73.7701 324.206 76.1497 327.381 78.6616 330.438C83.6854 336.553 89.7668 342.08 96.5092 346.784C97.5669 347.489 98.7567 348.312 99.9465 349.018C102.062 350.312 104.177 351.488 106.292 352.663L107.879 353.487L106.425 354.545C102.723 357.25 99.2855 360.072 96.2448 363.247C78.3972 381.474 74.0345 406.169 85.1396 427.571C88.1803 433.45 92.1465 438.86 97.038 443.681L97.8313 444.504L96.9058 445.327C86.5939 454.264 79.8515 465.789 77.7362 477.783C74.9599 493.07 80.9091 509.063 93.8651 521.528L94.7906 522.351L93.8651 523.174C93.2041 523.762 92.5431 524.35 91.8821 524.938C74.0345 542.46 70.0683 569.977 81.0413 598.552C86.4617 612.428 94.3939 625.363 102.194 637.24C102.723 637.946 103.384 638.181 103.913 638.181C104.706 638.181 105.499 637.828 105.896 637.24C106.16 636.77 106.16 636.299 105.764 635.829C91.6177 614.192 77.8684 591.026 78.7938 565.626C79.3226 549.633 85.9329 535.051 96.6414 525.526L97.5669 524.703L98.4923 525.409C102.458 528.584 106.821 531.288 111.448 533.523C123.082 539.049 135.51 541.284 147.408 539.99C154.15 539.285 159.703 536.58 162.479 532.817C166.313 527.643 161.818 522.586 158.91 519.999ZM104.706 443.799C110.258 439.918 116.34 436.978 122.818 434.979C129.296 433.098 145.293 429.452 155.472 436.861C160.496 440.506 161.289 446.621 157.323 451.56C153.622 456.263 146.879 458.615 138.418 458.38C138.021 458.38 137.625 458.38 137.228 458.38C126.52 457.792 115.547 453.676 106.16 446.738C105.631 446.386 105.103 445.915 104.706 445.562L103.516 444.622L104.706 443.799ZM117.265 352.075C121.099 350.076 125.065 348.312 129.164 346.901C138.55 343.609 151.903 340.669 162.347 344.549C165.652 345.843 168.032 347.96 168.825 350.429C169.618 352.546 169.222 354.78 167.767 356.779C164.727 361.13 159.174 363.012 151.242 362.541C150.316 362.541 149.523 362.424 148.598 362.306C138.154 361.13 127.445 358.19 117.53 354.075L115.282 353.134L117.265 352.075ZM83.1566 254.12C88.3125 249.534 94.1295 246.006 100.74 243.537C110.655 239.774 124.801 237.774 134.981 243.184C140.401 246.124 141.062 249.534 140.533 251.886C139.476 258.236 129.693 263.998 123.082 265.409C119.513 266.115 115.679 266.467 111.845 266.232C104.706 265.879 97.3025 263.763 90.56 260.352C88.0481 259.059 85.6685 257.648 83.2888 256.001L82.0989 255.178L83.1566 254.12ZM78.1328 132.293C89.6346 120.416 103.516 114.771 118.059 116.065C129.825 117.123 142.516 123.591 144.235 133.822C145.425 141.7 137.228 143.347 131.147 144.523L130.75 144.64C123.743 146.051 116.869 146.639 110.391 146.287C110.258 146.287 109.994 146.287 109.862 146.287C97.3025 145.581 86.4617 141.23 78.1328 133.939L77.2074 133.116L78.1328 132.293ZM57.5089 298.1C57.3767 297.982 57.3767 297.865 57.3767 297.865C57.6411 297.747 58.1699 297.865 58.4343 297.982C59.0953 298.218 59.7564 298.453 60.2852 298.806C59.2276 299.041 58.1699 298.923 57.5089 298.1ZM75.2243 303.039C75.7531 303.039 76.4141 303.274 76.4141 303.744C76.4141 304.568 74.9599 304.803 74.2989 304.803C73.77 304.803 73.3734 304.685 72.8446 304.568C73.3734 303.744 74.1667 303.039 75.2243 303.039ZM159.439 530.465C157.588 534.228 152.167 536.345 143.838 536.815C141.591 536.933 139.476 536.933 137.228 536.815C124.669 536.11 111.977 531.406 101.665 523.527L100.343 522.586L101.665 521.763C106.292 518.706 111.581 516.471 117.133 515.178C128.767 512.473 140.666 513.649 149.523 518.353C160.1 523.762 160.761 527.878 159.439 530.465Z" fill="#1E1E1E"/>
<path d="M193.547 476.254C193.547 476.137 193.415 476.136 193.415 476.019C193.151 475.431 192.622 474.961 191.696 474.961C180.591 474.725 168.957 475.901 159.571 481.311C158.117 482.134 158.513 483.898 159.571 484.486C159.306 485.426 159.703 486.485 160.761 486.72C162.215 487.073 163.669 487.661 165.123 488.249C161.95 493.658 158.381 498.832 154.283 503.771C153.886 504.241 153.886 504.712 153.886 505.065C153.886 505.77 154.283 506.476 155.208 506.711C162.479 508.945 168.957 513.414 173.056 519.293C173.584 520.117 174.642 520.587 175.7 520.117C176.096 519.999 176.361 519.646 176.625 519.293C176.757 519.176 176.757 519.058 176.89 518.941C181.385 513.061 185.747 507.064 190.242 501.184C191.564 501.654 192.754 502.242 194.076 502.83C194.341 502.948 194.473 503.065 194.737 503.065C195.266 503.301 195.663 503.418 196.191 503.301C196.324 503.301 196.324 503.301 196.456 503.183C197.381 503.183 198.307 502.477 198.307 501.537C197.646 493.188 196.985 484.486 193.547 476.254ZM175.832 479.547C179.005 478.959 182.31 478.724 185.747 478.606C184.69 479.194 184.293 480.723 185.483 481.663C186.673 482.604 187.73 483.545 188.656 484.721C186.673 484.015 184.69 483.192 182.839 482.369C180.591 481.428 178.212 480.487 175.832 479.547ZM191.432 482.016C190.374 480.84 189.052 479.664 187.73 478.606C187.598 478.488 187.598 478.488 187.466 478.488C188.391 478.488 189.317 478.488 190.242 478.488C190.771 479.664 191.168 480.84 191.432 482.016ZM162.876 483.78C165.388 482.487 167.9 481.546 170.544 480.723V480.84C172.659 484.25 176.229 486.955 178.873 490.13C180.195 491.776 181.649 493.305 182.971 494.951C178.344 493.07 173.717 491.188 169.09 489.307C169.09 489.189 169.222 489.189 169.222 489.072C169.486 488.601 169.618 488.131 169.486 487.778C169.618 487.073 169.354 486.367 168.693 486.014C166.71 485.074 164.859 484.368 162.876 483.78ZM165.652 495.657C165.52 495.539 165.256 495.539 165.123 495.539C165.652 494.716 166.181 493.893 166.71 493.188C167.767 494.834 168.957 496.48 170.412 498.009C168.825 497.186 167.239 496.363 165.652 495.657ZM183.5 503.889C181.781 501.537 178.344 500.126 176.096 498.244C174.774 497.068 173.584 495.892 172.395 494.481C177.022 496.363 181.649 498.244 186.276 500.126C185.351 501.419 184.425 502.595 183.5 503.889ZM174.774 515.53C170.676 510.591 165.123 506.711 158.778 504.359C160.364 502.477 161.686 500.478 163.14 498.597C164.595 500.949 166.578 503.065 168.428 505.065C166.71 504.124 164.859 503.065 163.14 502.125C161.025 500.949 158.778 503.889 160.893 505.065C165.123 507.416 169.486 509.768 173.717 512.12C175.435 513.061 177.286 511.532 176.625 509.886C175.303 506.946 173.056 504.477 170.808 502.125C174.245 503.771 177.683 505.417 181.12 507.181C178.873 509.886 176.757 512.708 174.774 515.53ZM189.978 497.421C187.334 494.364 184.822 491.188 182.178 488.131C181.12 486.955 180.062 485.662 179.005 484.603C180.062 485.074 181.12 485.426 182.178 485.897C185.615 487.19 189.052 488.837 192.754 489.189C192.886 489.189 192.886 489.189 193.019 489.189C193.547 492.482 193.812 495.892 193.944 499.185C192.622 498.597 191.3 498.009 189.978 497.421Z" fill="#1E1E1E"/>
<path d="M75.8855 422.631C73.7702 416.164 72.4482 409.461 72.4482 402.758C72.316 396.526 72.4482 389.235 76.1499 383.826C77.4719 381.826 74.1668 379.945 72.8448 381.826C68.8786 387.706 68.3498 395.232 68.482 401.935C68.482 409.108 69.6719 416.399 72.0516 423.219C72.7126 425.454 76.6787 424.748 75.8855 422.631Z" fill="#1E1E1E"/>
<path d="M160.496 347.019C159.571 346.784 158.249 347.136 157.984 348.077C157.72 349.018 158.116 350.076 159.174 350.311C159.306 350.311 159.438 350.429 159.571 350.429C159.703 350.429 159.967 350.664 159.703 350.429C159.438 350.311 159.703 350.429 159.835 350.547C159.967 350.664 160.1 350.664 160.1 350.782C160.1 350.782 160.232 350.782 160.232 350.899C160.364 351.017 160.496 351.252 160.628 351.37C160.628 351.487 160.761 351.605 160.761 351.605C160.761 351.723 160.893 351.723 160.893 351.84C160.893 351.84 160.893 351.84 160.893 351.723C160.893 351.723 160.893 351.723 160.893 351.84C161.025 351.958 160.893 351.958 160.893 351.84C160.893 351.958 161.025 352.193 161.025 352.311C161.025 352.311 161.025 352.428 161.025 352.546C161.025 352.546 161.025 352.546 161.025 352.663C161.025 352.781 161.025 352.898 161.025 352.898C161.025 353.016 160.893 353.251 160.893 353.369C160.893 353.369 160.893 353.486 160.761 353.486C160.761 353.486 160.761 353.486 160.761 353.604C160.628 353.722 160.496 353.957 160.364 354.074C160.232 354.192 160.232 354.192 160.1 354.31C159.967 354.427 159.967 354.427 159.835 354.545C159.835 354.545 159.703 354.545 159.703 354.662C159.571 354.78 159.306 354.898 159.306 354.898C159.306 354.898 159.306 354.898 159.174 354.898C159.042 354.898 158.91 355.015 158.91 355.015C157.852 355.25 157.059 356.191 157.323 357.132C157.588 358.073 158.645 358.778 159.703 358.543C162.479 357.955 164.859 355.721 164.991 353.016C165.255 350.429 163.272 347.842 160.496 347.019Z" fill="#1E1E1E"/>
<path d="M130.089 231.189C129.428 229.778 128.371 228.484 127.181 227.426C126.123 226.485 124.404 226.721 123.876 228.014C123.743 228.249 123.611 228.602 123.479 228.837C123.082 228.249 122.818 227.661 122.686 227.309C122.157 226.485 121.628 225.545 121.099 224.721C120.042 223.075 117.662 223.781 117.398 225.427C117.133 226.603 116.604 227.544 115.943 228.484C115.415 227.779 114.754 227.073 114.225 226.25C113.299 225.074 111.316 225.662 110.92 226.838C110.523 227.661 110.259 228.484 109.73 229.308C109.069 228.602 108.54 227.896 107.879 227.191C107.218 226.25 105.367 226.485 104.706 227.309C103.913 228.602 102.987 229.778 102.194 230.954C101.533 230.366 101.004 229.896 100.475 229.19C99.55 228.014 97.5669 228.602 97.1703 229.778C96.6415 230.836 96.1127 231.895 95.4516 232.835C94.7906 232.483 94.2618 232.13 93.6008 231.777C92.5431 231.189 91.4855 230.248 90.1635 230.601C88.9736 230.954 88.7092 231.777 88.4448 232.718C88.0482 234.129 87.6516 235.54 87.255 236.951C86.5939 239.185 90.2957 240.361 90.9567 238.127C91.2211 237.069 91.4855 236.01 91.7499 234.952C91.8821 235.07 92.1465 235.187 92.2787 235.305C93.072 235.775 93.9974 236.363 94.7906 236.834C95.716 237.422 96.9059 237.186 97.5669 236.363C98.2279 235.54 98.889 234.599 99.4178 233.659C100.079 234.247 100.74 234.717 101.401 235.187C102.194 235.775 103.648 235.54 104.177 234.717C104.97 233.659 105.764 232.483 106.425 231.424C106.953 232.012 107.614 232.6 108.275 233.188C108.937 233.776 110.259 234.129 111.052 233.306C111.845 232.483 112.506 231.659 113.035 230.836C113.431 231.307 113.828 231.777 114.225 232.365C114.886 233.188 116.34 233.071 117.001 232.483C118.059 231.542 118.984 230.601 119.645 229.543C119.777 229.778 119.909 230.013 120.042 230.248C120.703 231.189 121.232 232.365 122.554 232.718C123.876 233.071 125.065 232.483 125.991 231.542C126.255 231.895 126.52 232.247 126.652 232.718C127.577 234.834 131.015 233.306 130.089 231.189Z" fill="#1E1E1E"/>
<path d="M78.5296 604.314C75.3567 597.376 72.8448 590.32 71.2584 583.029C70.9939 582.089 70.2007 581.383 69.0109 581.501C67.9532 581.618 67.0278 582.559 67.2922 583.5C69.1431 591.026 71.655 598.552 74.8279 605.607C75.8855 607.724 79.455 606.431 78.5296 604.314Z" fill="#1E1E1E"/>
<path d="M144.896 103.13C145.689 101.719 146.615 100.307 147.408 99.0139C148.201 99.7195 148.994 100.66 149.655 101.483C150.845 102.895 153.357 101.248 152.167 99.8371C151.242 98.6612 150.184 97.6028 148.994 96.6621C149.655 95.7213 150.316 94.8982 151.242 94.075C152.564 92.7815 150.184 91.1352 148.862 92.4287C147.937 93.2518 147.143 94.1926 146.482 95.2509C145.954 95.0158 145.425 94.8982 144.896 94.7806C141.987 94.3102 138.947 95.8389 138.286 98.426C137.757 100.543 139.343 102.307 141.062 103.835C140.269 105.246 139.476 106.54 138.815 107.951C137.36 107.363 136.303 106.422 136.699 105.129C136.831 104.423 136.17 103.718 135.377 103.6C134.452 103.482 133.791 104.07 133.659 104.776C132.998 107.363 135.113 109.362 137.625 110.421C137.096 111.479 136.699 112.42 136.303 113.478C135.642 115.124 138.55 116.183 139.211 114.536C139.608 113.36 140.137 112.302 140.665 111.244C141.723 111.361 142.648 111.479 143.706 111.479C145.16 111.361 147.011 111.244 148.201 110.303C151.11 108.069 146.879 104.658 144.896 103.13ZM142.252 97.7204C143.045 97.25 143.97 97.25 144.896 97.6028C144.103 98.7787 143.309 100.072 142.648 101.366C141.326 100.072 140.533 98.7787 142.252 97.7204ZM145.425 108.421C144.764 108.539 143.97 108.657 143.309 108.657C142.913 108.657 142.516 108.657 141.987 108.657C142.516 107.598 143.045 106.658 143.574 105.717C144.499 106.422 145.425 107.128 145.954 108.069C145.954 108.069 145.954 108.186 146.086 108.304C145.689 108.304 145.425 108.421 145.425 108.421Z" fill="#1E1E1E"/>
<path d="M123.743 96.3094C123.876 94.7807 124.14 93.1344 124.272 91.6057C125.33 91.9585 126.387 92.5464 127.445 93.0168C129.164 93.9576 130.75 91.4881 129.032 90.6649C127.71 89.9594 126.255 89.2538 124.801 88.7834C124.933 87.7251 125.33 86.6668 125.726 85.6084C126.387 83.9621 123.479 83.2565 122.686 84.9028C122.157 85.9612 121.893 87.1371 121.76 88.3131C121.232 88.3131 120.703 88.3131 120.042 88.4307C117.133 89.0186 115.018 91.4881 115.547 94.0752C116.076 96.1918 118.323 97.2502 120.438 98.0733C120.306 99.6021 120.174 101.131 120.174 102.659C118.587 102.659 117.265 102.189 117.001 100.778C116.869 100.072 115.811 99.6021 115.15 99.8372C114.225 100.072 113.96 100.778 114.092 101.484C114.621 104.071 117.53 105.247 120.174 105.364C120.174 106.422 120.174 107.598 120.306 108.657C120.438 110.421 123.479 110.421 123.347 108.657C123.215 107.481 123.215 106.305 123.215 105.129C124.14 104.894 125.198 104.659 126.123 104.306C127.445 103.718 129.032 102.895 129.825 101.719C131.543 98.6613 126.255 97.015 123.743 96.3094ZM118.984 92.1937C119.513 91.4881 120.438 91.2529 121.364 91.1353C121.232 92.5464 120.967 93.9576 120.835 95.3687C119.116 94.6631 117.794 93.7224 118.984 92.1937ZM126.387 101.013C125.859 101.366 125.198 101.719 124.537 102.072C124.14 102.189 123.743 102.307 123.215 102.542C123.215 101.484 123.347 100.308 123.479 99.2493C124.669 99.6021 125.726 99.9548 126.652 100.66L126.784 100.778C126.652 100.66 126.52 100.896 126.387 101.013Z" fill="#1E1E1E"/>
<path d="M159.042 116.418C160.364 115.36 161.686 114.301 163.008 113.243C163.537 114.184 163.801 115.242 164.198 116.183C164.727 117.829 167.767 117.123 167.106 115.36C166.71 114.066 166.181 112.655 165.388 111.479C166.313 110.773 167.371 110.185 168.428 109.715C170.147 109.009 168.561 106.658 166.842 107.363C165.652 107.834 164.595 108.539 163.537 109.245C163.14 108.892 162.744 108.539 162.215 108.304C159.703 107.01 156.266 107.481 154.679 109.715C153.357 111.597 154.15 113.713 155.34 115.595C154.018 116.653 152.828 117.711 151.639 118.77C150.581 117.829 149.92 116.653 150.713 115.477C151.11 114.889 150.713 113.948 150.052 113.596C149.259 113.243 148.466 113.596 147.937 114.184C146.35 116.418 147.54 119.005 149.523 120.769C148.73 121.592 147.805 122.415 147.144 123.238C145.954 124.649 148.201 126.413 149.391 125.12C150.184 124.179 151.11 123.356 152.035 122.415C152.961 122.886 153.886 123.238 154.811 123.474C156.133 123.826 158.117 124.179 159.439 123.826C163.008 122.886 160.364 118.417 159.042 116.418ZM158.645 110.538C159.571 110.421 160.364 110.656 161.157 111.126C159.967 112.067 158.778 113.008 157.588 113.948C156.927 112.42 156.662 110.891 158.645 110.538ZM157.456 121.474C156.794 121.474 156.001 121.239 155.34 121.122C154.944 121.004 154.547 120.886 154.15 120.651C155.076 119.828 155.869 119.123 156.794 118.299C157.323 119.24 157.984 120.181 158.117 121.239C158.117 121.239 158.117 121.357 158.117 121.474C157.852 121.474 157.588 121.474 157.456 121.474Z" fill="#1E1E1E"/>
<path d="M46.4036 157.576C46.1392 157.105 45.7426 156.635 45.2138 156.635C33.051 154.401 20.6237 153.46 8.06431 154.048C7.6677 154.048 7.40329 154.166 7.13888 154.283C6.47786 154.401 5.81684 154.989 5.68463 155.812C3.30495 168.747 1.8507 182.153 5.42022 194.971C6.08124 197.205 9.91518 196.499 9.25415 194.265C5.94904 182.153 7.27109 169.688 9.38636 157.576C20.6237 157.105 31.9933 157.929 43.0985 159.928C39.1324 169.806 37.6781 180.389 39.1324 190.737C29.8781 190.267 20.6237 191.325 11.8982 193.912C10.8406 194.265 10.1796 194.971 10.3118 196.029C10.444 196.852 11.6338 197.675 12.6915 197.44C21.417 194.853 30.6713 193.795 39.9256 194.383C40.7188 195.323 42.7019 194.971 43.2307 193.912C43.7595 193.207 43.7595 192.148 43.2307 191.56C41.6443 180.859 42.9663 169.923 47.3291 159.81C47.7257 158.752 47.1968 157.929 46.4036 157.576Z" fill="#1E1E1E"/>
<path d="M32.9191 161.574C26.7055 160.986 20.3597 160.515 14.1461 160.398C11.6342 160.28 11.3698 163.808 13.8817 163.926C20.2275 164.161 26.4411 164.514 32.6547 165.102C35.1666 165.337 35.431 161.809 32.9191 161.574Z" fill="#1E1E1E"/>
<path d="M26.4411 168.041C21.9462 167.453 17.4512 167.453 12.9562 168.041C11.8986 168.159 11.2376 169.217 11.3698 170.158C11.6342 171.099 12.6918 171.686 13.7495 171.569C17.8478 171.099 22.0784 171.099 26.1767 171.686C27.2343 171.804 28.292 170.981 28.292 170.04C28.292 168.864 27.4987 168.159 26.4411 168.041Z" fill="#1E1E1E"/>
<path d="M28.5564 175.097C23.2682 174.627 18.1122 174.392 12.9562 175.803C11.8986 176.155 11.2376 176.861 11.3698 177.919C11.502 178.742 12.6918 179.566 13.7495 179.33C15.9969 178.625 18.2444 178.272 20.6241 178.155C23.136 178.155 25.6479 178.39 28.1598 178.625C29.2174 178.742 30.1428 177.919 30.275 176.979C30.4072 176.038 29.614 175.215 28.5564 175.097Z" fill="#1E1E1E"/>
<path d="M161.157 299.746C160.893 299.158 160.364 298.805 159.968 298.805C159.703 298.688 159.439 298.688 159.042 298.688C149.788 299.746 140.666 300.687 131.411 301.392C130.354 301.51 129.693 302.568 129.825 303.509C130.089 304.567 131.147 304.92 132.205 304.92C140.93 304.215 149.523 303.392 158.117 302.451C162.215 312.211 163.537 322.677 162.347 332.908C153.754 332.202 145.161 331.614 136.832 333.613C137.096 324.911 136.171 316.209 134.32 307.625C133.791 305.391 129.957 306.096 130.486 308.33C132.469 317.15 133.262 326.087 132.998 335.024C132.072 336.2 133.659 338.317 135.642 337.611C144.5 334.671 154.283 335.612 163.537 336.435C163.801 336.435 164.066 336.435 164.33 336.435C165.256 336.435 166.181 335.847 166.313 334.907C167.768 323.03 166.181 310.917 161.157 299.746Z" fill="#1E1E1E"/>
<path d="M152.035 305.979C147.54 305.979 143.045 306.214 138.682 306.685C137.625 306.802 136.832 307.86 137.096 308.801C137.36 309.742 138.286 310.33 139.476 310.212C143.574 309.742 147.54 309.507 151.771 309.507C152.828 309.507 153.886 308.801 153.886 307.86C153.886 306.92 153.225 305.979 152.035 305.979Z" fill="#1E1E1E"/>
<path d="M153.754 313.505C153.489 312.446 152.564 312.094 151.374 312.094C149.523 312.211 147.804 312.329 146.086 312.446C144.235 312.564 142.384 312.564 140.533 312.681C139.476 312.681 138.418 313.269 138.418 314.328C138.418 315.269 139.211 316.209 140.269 316.209C144.235 316.092 148.201 315.974 152.167 315.621C153.225 315.504 154.018 314.328 153.754 313.505Z" fill="#1E1E1E"/>
<path d="M153.49 317.503C151.374 317.621 149.127 317.738 147.012 317.856C144.764 317.973 142.517 318.091 140.401 318.796C139.476 319.149 139.079 320.325 139.476 321.148C140.005 322.089 141.062 322.324 142.12 321.971C143.574 321.501 145.425 321.501 147.144 321.384C149.127 321.266 151.11 321.148 153.225 321.031C154.283 320.913 155.34 320.443 155.34 319.384C155.34 318.561 154.547 317.503 153.49 317.503Z" fill="#1E1E1E"/>
<path d="M160.496 327.851C160.496 327.733 160.496 327.733 160.496 327.851C160.496 327.498 160.364 327.263 160.232 327.145C160.1 326.91 159.967 326.793 159.835 326.557C159.703 326.44 159.439 326.205 159.306 326.087C158.778 325.852 158.381 325.734 157.852 325.617C157.323 325.617 156.794 325.734 156.398 325.852C156.133 325.969 156.001 326.087 155.869 326.205C155.737 326.322 155.605 326.44 155.605 326.44C155.605 326.44 155.605 326.557 155.472 326.557C155.208 326.91 155.076 327.381 154.944 327.851C154.944 328.086 154.944 328.204 154.944 328.439C154.944 329.262 155.472 330.203 156.662 330.32C156.662 330.32 156.662 330.32 156.794 330.32C156.927 330.32 157.191 330.438 157.455 330.438H157.588C158.117 330.438 158.513 330.438 159.042 330.203C159.174 330.203 159.174 330.085 159.306 330.085C159.439 329.968 159.703 329.968 159.835 329.732C159.967 329.615 160.232 329.38 160.364 329.262C160.496 329.145 160.496 328.909 160.628 328.792V328.674C160.628 328.557 160.761 328.321 160.761 328.086C160.496 328.204 160.496 327.969 160.496 327.851Z" fill="#1E1E1E"/>
<path d="M81.4381 521.058C81.4381 520.705 81.3059 520.352 81.0415 519.999C80.7771 519.647 80.3805 519.412 79.9839 519.294L74.6957 517.53C74.1669 516.589 73.9025 515.296 73.6381 514.002C73.6381 513.767 73.5059 513.532 73.5059 513.179L73.3737 512.591C73.1093 511.768 72.4482 511.18 71.5228 511.062C70.5974 510.945 69.6719 511.18 69.1431 511.768L65.838 515.531C65.4414 516.001 63.8549 515.766 62.6651 515.649H62.5329C61.8719 515.531 61.3431 515.531 60.8142 515.413H60.1532C59.2278 515.413 58.4346 515.766 57.9057 516.472C57.3769 517.177 57.5091 518 58.0379 518.706L61.0786 522.822C60.8142 523.41 60.5498 523.998 60.4176 524.468C60.021 525.526 59.6244 526.467 59.0956 527.29C59.0956 527.29 58.9634 527.408 58.9634 527.525C58.8312 527.878 58.699 528.349 58.8312 528.701C58.9634 529.289 59.36 529.76 59.8888 530.113C60.1532 530.23 60.4176 530.348 60.682 530.348C61.0786 530.465 61.4753 530.465 61.8719 530.348L67.2923 529.054L68.3499 529.76C68.4821 529.877 68.4821 529.877 68.6143 529.877C68.8787 529.995 69.4075 530.348 69.8041 530.7C70.5974 531.406 71.655 532.229 72.9771 532.347C73.1093 532.347 73.3737 532.347 73.5059 532.347C73.9025 532.347 74.1669 532.229 74.4313 532.112C75.8856 531.641 75.8856 530.113 75.7533 528.937C75.7533 528.701 75.7533 528.584 75.7533 528.349L75.8856 525.644L76.0178 525.526C76.15 525.409 76.4144 525.291 76.5466 525.174C76.6788 525.174 76.6788 525.056 76.6788 525.056C77.0754 524.703 77.7364 524.468 78.2652 524.115C79.3229 523.527 80.3805 522.939 81.3059 521.881C81.3059 521.763 81.4381 521.411 81.4381 521.058ZM72.316 528.349C72.316 528.584 72.316 528.819 72.316 529.054V529.172C72.0516 528.937 71.9194 528.819 71.7872 528.701C71.2584 528.231 70.7296 527.761 70.0686 527.525L68.8787 526.585C68.3499 526.232 67.6889 525.997 66.8956 526.114C66.7634 526.114 66.7634 526.114 66.6312 526.114L62.5329 527.173C62.7973 526.585 63.0617 525.879 63.3261 525.291C63.5905 524.703 63.7227 524.115 64.1194 523.527C64.2516 523.175 64.2516 522.822 64.2516 522.469C64.2516 522.116 64.1194 521.763 63.8549 521.528L61.4753 518.236C61.7397 518.236 61.8719 518.353 62.1363 518.353C64.2516 518.706 66.7634 519.059 68.3499 517.295L70.7296 514.708C70.994 516.236 71.3906 517.765 72.1838 519.059C72.1838 519.176 72.316 519.294 72.4482 519.412C72.7126 519.647 72.9771 519.882 73.3737 519.999L77.472 521.293C77.2076 521.411 76.9432 521.528 76.6788 521.763C76.0178 522.116 75.3567 522.469 74.8279 522.939C74.6957 523.057 74.4313 523.174 74.2991 523.174L73.7703 523.527C73.1093 523.88 72.7126 524.586 72.5804 525.291L72.316 528.349Z" fill="#1E1E1E"/>
<path d="M64.3835 492.365C63.7225 492.247 63.1937 492.247 62.7971 492.365C62.2683 492.13 61.7394 491.894 61.0784 491.894C60.5496 491.894 60.0208 491.894 59.3598 491.894C59.3598 491.894 59.3598 491.894 59.3598 491.777C59.2276 491.659 59.2276 491.542 59.0954 491.306C58.5665 490.483 57.9055 489.895 56.9801 489.543C55.5258 489.072 54.2038 490.483 54.4682 491.659C54.6004 492.13 54.6004 492.482 54.6004 492.953C54.336 493.188 54.0716 493.423 53.9394 493.776C53.0139 492.953 51.4275 493.423 50.8987 494.246C50.1055 493.894 49.18 493.894 48.519 494.481C47.7258 495.069 47.7258 496.363 48.519 496.951C49.0478 497.421 49.7088 497.774 50.3699 498.245C50.5021 498.362 50.6343 498.362 50.7665 498.48L50.8987 498.597C50.8987 498.597 51.2953 498.95 51.1631 498.832C51.0309 498.715 51.2953 498.95 51.2953 498.95C51.5597 499.42 51.4275 499.773 51.4275 500.361C51.4275 501.067 51.4275 501.89 51.6919 502.595C52.0885 503.654 53.4106 504.359 54.6004 503.771C55.2614 503.419 56.0547 503.066 56.7157 502.831C56.8479 502.831 56.9801 502.831 56.9801 502.713C57.2445 502.831 57.5089 503.066 57.5089 503.066C58.3021 503.536 59.2276 503.889 60.153 504.007C60.5496 504.007 60.9462 504.007 61.3428 503.771C62.2683 503.654 63.0615 503.066 62.9293 502.125C62.9293 501.067 62.9293 500.126 63.0615 499.068C63.0615 498.832 63.1937 498.362 63.3259 498.009C63.3259 498.009 63.3259 498.009 63.3259 497.892C63.9869 498.009 64.5157 497.892 65.0446 497.421C65.97 496.598 65.8378 495.069 65.97 494.011C65.8378 493.306 65.1768 492.6 64.3835 492.365Z" fill="#59C69F"/>
<path d="M68.6143 492.835C68.4821 492.482 68.2176 492.129 67.821 491.894C67.4244 491.659 67.0278 491.541 66.499 491.541L60.8142 491.306C60.021 490.483 59.3599 489.424 58.6989 488.248C58.5667 488.013 58.4345 487.778 58.3023 487.543L58.0379 487.073C57.5091 486.367 56.7159 486.014 55.7904 486.014C54.865 486.132 54.0718 486.602 53.8074 487.425L51.8243 491.894C51.5599 492.482 49.9734 492.599 48.7836 492.835H48.6514C47.9904 492.952 47.4615 492.952 46.9327 493.07L46.2717 493.187C45.3463 493.423 44.6852 494.011 44.553 494.834C44.2886 495.657 44.6852 496.48 45.3463 496.95L49.709 500.125C49.709 500.713 49.5768 501.301 49.5768 501.889C49.5768 502.948 49.4446 504.006 49.3124 504.947C49.3124 505.064 49.3124 505.064 49.3124 505.182C49.3124 505.652 49.3124 506.005 49.5768 506.358C49.8412 506.828 50.5022 507.299 51.1633 507.416C51.4277 507.534 51.6921 507.534 51.9565 507.534C52.3531 507.534 52.7497 507.416 53.0141 507.181L57.7735 504.476L58.9633 504.947C59.0955 504.947 59.2277 505.064 59.2277 505.064C59.6244 505.064 60.1532 505.3 60.682 505.535C61.6074 506.005 62.9295 506.475 64.2515 506.24C64.3837 506.24 64.6481 506.123 64.7803 506.123C65.0447 506.005 65.3091 505.77 65.5736 505.652C66.7634 504.829 66.2346 503.418 65.838 502.242C65.7058 502.007 65.7058 501.889 65.7058 501.654L64.9125 499.067L65.0447 498.949C65.1769 498.832 65.3091 498.714 65.4414 498.479L65.5736 498.361C65.838 497.891 66.3668 497.538 66.7634 497.068C67.5566 496.245 68.4821 495.422 68.8787 494.128C68.8787 493.54 68.8787 493.187 68.6143 492.835ZM62.2684 502.242C62.4006 502.477 62.4006 502.712 62.5329 502.948V503.065C62.2684 502.948 62.004 502.83 61.8718 502.83C61.2108 502.595 60.5498 502.242 59.8888 502.125L58.4345 501.537C57.7735 501.301 57.1125 501.301 56.4514 501.537C56.3192 501.537 56.3192 501.654 56.187 501.654L52.6175 503.771C52.7497 503.065 52.7497 502.477 52.7497 501.772C52.7497 501.184 52.7497 500.478 52.8819 499.89C52.8819 499.537 52.8819 499.185 52.7497 498.949C52.6175 498.597 52.3531 498.362 52.0887 498.126L48.6514 495.657C48.9158 495.657 49.048 495.657 49.3124 495.539C51.4277 495.304 53.9396 494.951 54.865 492.835L56.187 489.777C56.9803 491.188 57.9057 492.482 58.9633 493.54C59.0955 493.658 59.2277 493.658 59.2277 493.775C59.6244 493.893 59.8888 494.011 60.2854 494.128L64.6481 494.363C64.5159 494.599 64.2515 494.716 64.1193 494.951C63.5905 495.422 63.0617 496.01 62.6651 496.48C62.5329 496.598 62.4006 496.715 62.2684 496.95L61.8718 497.421C61.343 498.009 61.2108 498.714 61.343 499.42L62.2684 502.242Z" fill="#1E1E1E"/>
<path d="M36.0917 481.193C35.8273 480.958 35.4307 480.723 35.0341 480.605C34.6375 480.488 34.1087 480.488 33.712 480.605L28.2917 482.016C27.234 481.546 26.1764 480.605 25.1188 479.782C24.8543 479.665 24.7221 479.429 24.4577 479.194L23.9289 478.841C23.2679 478.371 22.2103 478.253 21.417 478.606C20.6238 478.959 20.095 479.665 20.095 480.488L19.9628 485.309C19.9628 485.897 18.6407 486.603 17.4509 487.073L17.3187 487.191C16.7899 487.426 16.261 487.661 15.8644 488.014L15.3356 488.367C14.5424 488.837 14.1458 489.66 14.278 490.366C14.4102 491.189 15.0712 491.894 15.8644 492.13L21.1526 493.776C21.2848 494.364 21.5492 494.952 21.6814 495.422C22.078 496.48 22.4747 497.421 22.6069 498.362C22.6069 498.48 22.6069 498.48 22.6069 498.597C22.7391 498.95 23.0035 499.303 23.2679 499.656C23.7967 500.008 24.4577 500.243 25.1188 500.126C25.3832 500.126 25.6476 500.008 25.912 499.891C26.3086 499.773 26.573 499.538 26.8374 499.185L30.2747 495.187H31.5968C31.729 495.187 31.8612 495.187 31.9934 495.187C32.39 495.187 32.9188 495.187 33.4476 495.187C34.5053 495.305 35.9595 495.422 37.0172 494.834C37.1494 494.717 37.2816 494.599 37.4138 494.481C37.6782 494.246 37.8104 494.011 37.9426 493.776C38.7358 492.6 37.6782 491.424 36.885 490.483C36.7527 490.366 36.6205 490.13 36.4883 490.013L34.7697 487.779L34.9019 487.543C35.0341 487.426 35.0341 487.191 35.1663 486.955C35.1663 486.838 35.1663 486.838 35.1663 486.72C35.2985 486.25 35.5629 485.662 35.8273 485.074C36.2239 484.016 36.7528 482.957 36.7528 481.664C36.4883 481.781 36.3561 481.429 36.0917 481.193ZM33.8442 491.894C33.9765 492.012 34.1087 492.247 34.3731 492.482C34.3731 492.482 34.3731 492.6 34.5053 492.6C34.2409 492.6 33.8442 492.6 33.712 492.6C32.9188 492.482 32.2578 492.482 31.5968 492.6L30.0103 492.482C29.3493 492.482 28.6883 492.717 28.1595 493.188C28.1595 493.188 28.0273 493.305 28.0273 493.423L25.3832 496.48C25.251 495.893 24.9865 495.187 24.7221 494.599C24.4577 494.011 24.3255 493.423 24.0611 492.717C23.9289 492.365 23.7967 492.129 23.5323 491.894C23.2679 491.659 22.8713 491.424 22.6069 491.306L18.5085 490.013C18.6407 489.895 18.9051 489.778 19.0373 489.778C20.8882 488.954 23.1357 487.779 23.1357 485.544L23.2679 482.252C24.5899 483.31 25.912 484.368 27.3662 484.956C27.4984 484.956 27.6306 485.074 27.7628 485.074C28.1595 485.191 28.5561 485.074 28.9527 485.074L33.051 483.898C32.9188 484.133 32.7866 484.368 32.7866 484.604C32.5222 485.191 32.2578 485.897 32.1256 486.485C31.9934 486.72 31.9934 486.838 31.8612 486.955L31.5968 487.426C31.3324 488.131 31.4646 488.837 31.8612 489.425L33.8442 491.894Z" fill="#1E1E1E"/>
</svg>
