<svg width="315" height="20" viewBox="0 0 315 20" fill="none" xmlns="http://www.w3.org/2000/svg">
<path d="M313.775 14.3343C310.164 11.5355 306.311 8.96575 302.7 6.16694C299.097 3.59056 296.543 2.32226 292.368 4.88167C288.929 6.97633 284.761 9.75817 282.105 12.7227C281.854 12.7293 281.846 12.5069 281.596 12.5135C281.063 11.637 279.787 11.0029 279.011 10.3555C277.202 8.84485 275.643 7.32761 273.842 6.03942C270.999 3.66559 267.921 1.74325 263.964 3.40631C260.001 4.84693 257.619 8.4721 254.446 11.005C254.203 11.2341 253.96 11.4631 253.717 11.6922C254.454 11.2274 254.187 10.7892 253.185 10.8157C252.409 10.1683 251.148 9.97901 250.13 9.56066C248.344 8.71733 246.558 7.874 244.772 7.03067C240.691 5.13485 236.846 2.78753 233 0.44021C231.715 -0.416373 229.475 0.0881384 228.503 1.00437C226.819 3.05264 225.127 4.87848 223.442 6.92675C222.478 8.06541 221.515 9.20407 220.551 10.3427C220.308 10.5718 220.065 10.8009 219.83 11.2523C219.587 11.4814 219.587 11.4814 219.587 11.4814C217.3 10.6513 215.232 8.92491 213.18 7.64335C210.878 6.36842 208.567 4.87105 206.013 3.60275C201.659 1.04626 197.35 -0.175654 192.697 3.0643C189.273 5.60383 186.1 8.13672 182.677 10.6762C179.857 8.96971 177.045 7.4856 173.975 5.78569C171.163 4.30158 168.328 2.15019 164.842 2.91027C161.606 3.66372 158.692 6.41242 155.997 8.26477C154.524 9.19426 153.051 10.1237 151.829 11.0466C150.356 11.9761 149.354 12.0026 147.576 11.3817C141.732 9.30984 137.072 5.20297 130.531 4.708C123.74 4.21966 119.118 8.34933 113.963 11.6025C112.247 12.7611 112.49 12.532 110.696 11.4663C109.161 10.6163 107.877 9.75974 106.341 8.90978C103.271 7.20987 100.201 5.50996 96.6679 4.93546C93.1429 4.58339 90.1817 5.99751 86.9698 7.41825C85.2385 8.13194 83.5073 8.84562 81.776 9.55931C80.0447 10.273 77.342 11.9029 75.0938 12.185C72.0857 12.2645 68.2399 9.91721 65.6787 8.42648C62.8589 6.71994 60.5094 4.11042 56.9766 3.53592C53.6945 2.95479 50.4749 4.1531 48.0306 5.99883C45.3356 7.85118 42.9303 10.8091 39.3898 10.0121C35.8571 9.43762 33.0139 7.06379 29.9513 5.58631C26.6303 3.89303 23.0741 2.65123 19.0478 2.31242C11.7473 1.6149 4.31306 4.26047 0.50515 10.1497C-1.86894 13.9973 4.76539 17.1614 7.13949 13.3138C10.4695 8.10515 17.7388 7.91294 23.3393 10.2139C28.9398 12.5148 33.6077 16.8441 40.1329 16.8942C43.1487 17.0371 45.8671 15.852 48.3269 14.4512C50.2855 13.0636 53.67 9.4119 56.2235 10.6802C58.7692 11.7261 61.111 14.1132 63.6722 15.6039C66.4842 17.088 69.7974 18.5589 72.821 18.9242C76.0953 19.2829 78.8137 18.0978 81.7827 16.9061C85.4959 15.4721 89.1857 13.3709 92.9068 12.1593C96.1342 11.1834 99.228 13.5506 101.781 14.8189C104.343 16.3096 107.194 18.9059 110.468 19.2646C116.272 20.2243 120.817 13.8703 125.517 11.965C130.961 9.81727 136.381 14.1267 140.971 16.2317C143.783 17.7158 147.089 18.9642 150.332 18.4332C153.826 17.8956 156.748 15.3693 159.443 13.5169C160.916 12.5874 163.101 10.5259 164.84 10.0347C165.091 10.028 165.569 9.34749 165.569 9.34749C166.07 9.33424 167.872 10.6224 168.381 10.8316C171.968 12.9631 175.806 15.088 179.394 17.2195C179.394 17.2195 179.644 17.2129 179.652 17.4353C180.937 18.2919 182.95 18.4613 184.407 17.087C186.608 15.4703 188.559 13.8603 190.761 12.2436C191.732 11.3274 192.962 10.6269 193.934 9.7107C194.67 9.24596 196.119 7.64918 197.114 7.40024C199.112 7.12478 202.73 10.146 204.265 10.996C206.568 12.2709 208.62 13.5525 210.923 14.8274C214.511 16.9589 218.889 20.1827 222.79 16.9626C224.741 15.3526 226.167 13.0885 227.609 11.2693C228.572 10.1306 229.779 8.76293 230.743 7.62426C237.15 11.4623 243.792 14.8489 250.904 17.3325C255.22 18.7768 257.649 16.4862 260.571 13.96C262.028 12.5856 263.47 10.7664 265.193 9.83028C266.666 8.90079 265.679 9.37216 266.956 10.0063C267.723 10.4313 268.765 11.5169 269.54 12.1643C271.35 13.675 272.908 15.1922 274.71 16.4804C276.002 17.5594 277.561 19.0767 279.339 19.6975C283.396 20.9261 285.801 17.9682 288.489 15.8934C290.197 14.5125 291.904 13.1315 293.863 11.7439C293.863 11.7439 295.336 10.8144 296.072 10.3496C296.331 10.5654 296.589 10.7812 296.848 10.997C300.458 13.7959 304.312 16.3656 307.923 19.1644C312.285 21.9433 317.386 17.1331 313.775 14.3343Z" fill="#F7C300"/>
</svg>
