<svg width="311" height="302" viewBox="0 0 311 302" fill="none" xmlns="http://www.w3.org/2000/svg">
<path fill-rule="evenodd" clip-rule="evenodd" d="M9.77617 189.561C10.4552 189.766 11.2587 190.08 11.9183 190.654C12.6854 191.322 13.089 192.184 13.3499 192.863C13.9572 194.365 14.4544 196.466 13.4228 198.348L13.4207 198.352C12.5911 199.853 10.9971 200.761 9.44281 201.147C7.86735 201.539 6.26317 201.454 4.80982 201.21L4.8022 201.208L4.79459 201.207C4.08741 201.08 3.17112 200.88 2.36312 200.356C1.60633 199.875 1.08357 199.204 0.739711 198.529C-0.708735 195.786 0.106407 192.985 2.00309 191.199C3.87473 189.437 6.80944 188.623 9.77617 189.561ZM3.80572 193.109C2.64956 194.198 2.23742 195.745 3.06799 197.311L3.07399 197.322L3.07976 197.334C3.25895 197.688 3.49453 197.964 3.77747 198.143L3.78524 198.148L3.79295 198.153C4.12534 198.37 4.58501 198.502 5.25324 198.622C6.51302 198.833 7.71738 198.871 8.80798 198.6C9.9209 198.324 10.7564 197.739 11.1186 197.086C11.56 196.278 11.4429 195.152 10.9093 193.837L10.9044 193.825L10.8999 193.813C10.6842 193.25 10.4686 192.874 10.1919 192.633C9.9493 192.422 9.5659 192.239 9.00804 192.071L8.99865 192.068L8.9893 192.065C6.93243 191.412 4.9875 191.997 3.80572 193.109Z" fill="#F1C527"/>
<path d="M181.095 1.90356C214.093 7.222 253.017 24.0418 275.32 50.4138C297.64 77.0875 303.186 113.171 306.992 135.035C310.799 156.899 313.682 182.246 306.992 209.872C300.303 237.498 284.18 267.242 266.101 284.041C248.176 300.982 195.769 306.789 171.949 295.635C147.991 284.64 117.367 271.501 96.4064 248.378C75.5837 225.096 61.572 167.096 51.0826 135.035C40.5932 102.975 60.3858 64.1639 81.2993 32.2209C102.229 0.579397 147.96 -3.2555 181.095 1.90356Z" fill="#F5F5F5"/>
<path d="M28.7226 186.435C29.8504 190.576 30.9913 194.779 32.0565 198.932C33.3676 203.949 34.6161 208.978 35.8776 214.071C38.3613 224.067 40.9235 234.439 44.0339 244.305C45.3628 248.469 49.7363 247.491 55.7727 245.71C56.9998 245.323 58.1146 245.025 59.1172 244.816L138.507 227.599C139.948 227.299 139.736 225.971 139.671 225.659C139.592 225.283 139.231 224.183 137.915 224.457L52.3345 243.031C51.9585 243.109 51.5199 243.201 51.0943 243.355C50.2928 243.587 49.4286 243.833 48.6009 243.94L47.3346 244.139L46.8352 243.003C46.3227 241.803 46.058 240.226 45.77 238.849C45.626 238.161 45.4952 237.535 45.4035 237.097L28.8596 174.586C26.4469 165.554 23.9686 156.209 21.83 146.924C20.5526 141.443 19.5549 136.361 18.6721 131.517C18.6198 131.266 18.5413 130.891 18.4627 130.516C17.9942 128.589 17.6304 127.162 18.0606 126.093L18.2037 125.214L19.1774 124.554C20.3625 123.654 21.9421 123.389 23.3207 123.102C23.7594 123.01 24.1981 122.919 24.5114 122.853L29.1458 121.56C51.0016 115.367 73.3643 109.722 95.5315 104.705C101.221 103.453 106.91 102.201 112.675 100.998C112.989 100.932 113.365 100.854 113.754 100.838C114.38 100.707 115.083 100.626 115.508 100.472L118.453 99.8577L118.88 101.271C118.932 101.521 119.047 101.758 119.202 102.183C119.673 104.436 120.28 106.399 120.837 108.438C121.122 109.489 121.47 110.527 121.756 111.578C124.598 122.349 127.439 133.12 130.156 143.917C136.317 168.363 142.324 193.952 147.942 219.557C148.23 220.934 149.559 220.722 149.873 220.656C150.212 220.716 151.364 220.28 151.076 218.903C144.138 187.304 136.636 155.823 128.704 125.41C126.705 117.729 124.643 110.061 122.581 102.393L122.335 101.53C121.879 99.6654 121.375 97.8767 119.961 97.0613C118.397 96.1469 116.229 96.7296 114.112 97.2367C113.611 97.3413 113.122 97.5085 112.684 97.6C97.2058 100.829 81.5425 104.424 66.2581 108.266C47.6159 112.939 33.4361 116.746 20.2616 120.67C18.2329 121.289 16.2042 121.909 15.2885 123.471C14.3233 125.109 14.7319 127.375 15.1275 129.579L15.3135 130.781C16.414 137.605 17.9328 144.864 20.0789 153.559C22.8348 164.544 25.818 175.677 28.7226 186.435Z" fill="#1E1E1E"/>
<path d="M15.3634 130.705L15.1773 129.503C14.7818 127.299 14.3731 125.033 15.3384 123.395C16.2541 121.833 18.2828 121.214 20.3114 120.594C33.4859 116.67 47.6527 112.8 66.3079 108.19C81.6551 104.335 97.2556 100.753 112.734 97.524C113.172 97.4325 113.674 97.3279 114.162 97.1607C116.342 96.6406 118.522 96.1204 120.011 96.9853C121.424 97.8008 121.854 99.5399 122.385 101.454L122.631 102.317C124.693 109.985 126.755 117.653 128.754 125.334C136.65 155.885 144.138 187.304 151.076 218.903C151.364 220.28 150.212 220.716 149.873 220.656C149.559 220.722 148.293 220.921 147.942 219.557C142.324 193.952 136.33 168.426 130.104 143.666C127.387 132.869 124.608 122.085 121.704 111.327C121.418 110.276 121.133 109.225 120.785 108.188C120.178 106.224 119.621 104.186 119.15 101.933C119.008 101.57 118.943 101.257 118.828 101.02C118.671 100.269 117.851 99.7873 117.036 99.9572L115.47 100.284C115.044 100.438 114.354 100.582 113.715 100.65C113.339 100.729 112.95 100.744 112.636 100.81C106.934 102 101.245 103.252 95.4925 104.517C73.3253 109.534 51.0252 115.166 29.1067 121.372L24.4724 122.665C24.159 122.731 23.7203 122.822 23.2817 122.914C21.9031 123.201 20.3365 123.528 19.1384 124.366C18.5875 124.546 18.1049 125.365 18.0216 125.905C17.654 126.961 17.9552 128.401 18.4237 130.327C18.5154 130.765 18.6434 131.065 18.6331 131.329C19.4532 136.186 20.5136 141.255 21.7911 146.736C23.9297 156.021 26.4079 165.366 28.8206 174.398L45.3645 236.909C45.4692 237.409 45.587 237.973 45.731 238.661C46.019 240.038 46.2706 241.553 46.7962 242.815C47.0655 243.477 47.81 243.909 48.5124 243.828C49.3401 243.721 50.2043 243.475 51.0058 243.242C51.4445 243.151 51.87 242.997 52.246 242.918L137.915 224.457C139.231 224.183 139.605 225.346 139.671 225.659C139.723 225.909 139.935 227.236 138.507 227.599L59.1172 244.816C58.1146 245.025 57.0129 245.386 55.7727 245.71C49.7363 247.491 45.3497 248.407 44.0339 244.305C40.9104 234.377 38.3613 224.067 35.8776 214.071C34.6291 209.041 33.3676 203.949 32.0565 198.932C30.9287 194.792 29.8504 190.576 28.7226 186.435C25.818 175.677 22.8352 164.544 20.1419 153.546C17.9827 144.788 16.464 137.529 15.3634 130.705Z" fill="#1E1E1E"/>
<path d="M48.5995 243.94C47.8345 244.035 47.1658 243.652 46.8834 242.927L47.3828 244.064L48.5995 243.94Z" fill="#1E1E1E"/>
<path d="M18.0486 126.031C18.1318 125.491 18.6771 124.659 19.1653 124.491L18.1915 125.152L18.0486 126.031Z" fill="#1E1E1E"/>
<path d="M117.036 99.9572C117.851 99.7873 118.608 100.282 118.904 101.069L118.477 99.6563L117.036 99.9572Z" fill="#1E1E1E"/>
<path d="M35.8777 135.53C36.6197 135.332 37.3497 135.335 38.0509 135.478C38.3314 135.535 39.1772 135.971 39.6311 136.18C40.0065 136.345 40.7077 136.488 41.0953 136.45C42.0228 136.202 42.7681 135.275 43.9087 133.844C44.304 133.342 44.8063 132.744 45.0824 132.538C46.2771 131.556 47.4808 131.102 48.6932 131.174C48.8335 131.203 49.1921 131.306 49.4108 131.379C50.0049 131.618 50.8011 131.868 51.6216 131.714C52.6441 131.573 53.4678 130.691 54.1392 129.982C54.2915 129.809 54.4604 129.697 54.551 129.541C55.6838 128.576 56.9359 127.314 58.346 127.135C59.7064 126.771 60.8945 127.248 62.4295 128.028C62.7476 128.473 63.2798 128.727 63.8076 128.718C64.2736 128.726 64.7352 128.47 65.0233 128.062C65.7609 127.6 66.2302 126.879 66.6708 126.298C66.8066 126.063 67.0042 125.811 67.1566 125.638C68.3634 124.455 69.4554 123.832 70.6181 123.719C71.4717 123.689 72.004 123.944 72.7881 124.396C73.3987 124.696 74.0095 124.996 74.7438 125.263C75.3213 125.439 75.9396 125.274 76.3514 124.832C76.4133 124.816 76.7181 124.47 76.7634 124.391C77.0515 123.983 77.4015 123.559 77.7681 123.196C78.1347 122.833 78.7032 122.482 79.305 122.255C80.3684 121.772 81.581 121.845 82.9999 122.193C83.3754 122.357 83.8291 122.567 84.283 122.776C85.2073 123.257 86.21 123.783 87.2988 123.889C87.9216 123.987 88.5521 123.619 88.8689 123.071C88.8689 123.071 88.9142 122.993 88.9429 122.853C88.9882 122.775 89.0334 122.696 89.0168 122.635L89.4606 121.325C89.6373 120.748 89.8757 120.155 90.1021 119.763C90.6166 118.964 91.1521 118.489 91.7704 118.324L91.8324 118.307C93.5803 117.906 96.2338 119.645 98.1653 120.915L99.3745 121.716C100.489 122.411 100.181 123.486 99.802 124.051C99.5757 124.442 98.921 125.213 97.8852 124.564C97.555 124.321 97.1011 124.112 96.6307 123.84C95.9416 123.495 95.1741 123.105 94.6087 122.727C94.2001 122.439 93.6392 122.324 93.1445 122.457C92.6498 122.589 92.2213 122.969 92.09 123.467C91.6009 124.855 91.1031 125.717 90.3986 126.302C88.6066 127.775 86.6388 127.11 83.8251 126.009L83.2309 125.771C81.1516 124.938 80.4095 125.136 78.8406 126.946C77.8193 128.08 76.7891 128.686 75.6882 128.782C75.1438 128.73 74.6898 128.52 73.9842 128.113C73.2786 127.706 72.4163 127.209 71.4059 127.149C70.0532 127.047 69.2173 128.131 68.3815 129.215C68.0602 129.5 67.8172 129.83 67.5577 130.098C66.5651 131.091 65.6752 131.726 64.7145 131.851C63.9106 132.066 63.3166 131.828 62.4873 131.454C61.8932 131.216 61.299 130.978 60.6596 130.818C59.4217 130.157 58.7295 130.541 58.1443 130.829C57.2665 131.263 56.7473 131.799 56.3355 132.24C56.1831 132.413 56.0309 132.586 55.862 132.698C54.898 133.551 53.8105 134.438 52.5738 134.769C52.1409 134.885 51.3778 134.758 50.7384 134.598C49.7568 134.398 48.8535 134.242 47.8641 134.507C46.7058 134.883 45.8247 136.045 44.9889 137.129C44.6389 137.554 44.3506 137.962 44.0911 138.23C43.0654 139.1 42.1423 139.612 41.1032 139.691C40.8393 139.696 40.0597 139.507 39.6224 139.36C38.1869 138.949 36.0336 138.334 35.1162 140.102C34.8159 140.712 34.4449 140.811 34.1192 140.832C33.5295 140.858 32.8404 140.512 32.4892 139.945C32.1545 139.438 32.1458 138.911 32.4626 138.363C33.1206 136.864 34.3439 135.742 35.8777 135.53Z" fill="#1E1E1E"/>
<path d="M76.5302 151.046C75.9891 150.264 75.2049 149.812 74.38 149.702C73.353 149.579 72.228 150.079 71.2806 150.994C69.4765 152.668 68.1823 153.279 66.7634 152.931C65.9838 152.743 65.2781 152.336 64.6509 151.974C64.6509 151.974 64.3207 151.732 64.2588 151.748C64.102 151.658 63.8669 151.522 63.7885 151.477C63.4417 151.173 63.0043 151.025 62.6168 151.062C61.5158 151.158 60.5353 151.95 59.3119 153.072C59.0524 153.34 58.8383 153.529 58.6859 153.703C57.4912 154.684 56.1397 155.575 54.618 155.585C53.9665 155.627 53.2654 155.484 52.5763 155.139C52.4195 155.048 52.2009 154.975 52.0441 154.884L51.652 154.658C50.963 154.313 50.1425 154.466 49.6402 155.064C49.5949 155.142 49.4877 155.237 49.4424 155.316C49.3519 155.472 49.278 155.691 49.2041 155.909C49.097 156.004 48.1783 156.779 47.486 157.163C46.8102 157.608 46.0682 157.807 45.3383 157.804C44.6084 157.8 43.7172 157.443 43.4157 157.061C43.176 156.661 42.8624 156.481 42.3799 156.411C41.8807 156.28 41.481 156.519 41.0979 156.82C40.7766 157.105 40.4554 157.389 40.0888 157.752C39.7388 158.177 39.2441 158.309 38.8068 158.162C38.1674 158.002 37.6141 157.422 37.4484 156.804C37.3159 156.31 37.4637 155.874 37.8755 155.432C39.799 153.462 41.7115 152.685 43.3822 153.231C43.7411 153.333 44.1166 153.498 44.4634 153.802C44.872 154.09 45.3545 154.159 45.8039 154.105C46.1749 154.006 46.6818 153.672 46.9082 153.28C47.1179 152.827 48.3126 151.845 48.836 151.573C49.7591 151.061 50.7815 150.92 51.7179 151.199C52.0768 151.301 52.6092 151.556 53.0012 151.782C53.0796 151.827 53.455 151.992 53.5334 152.037C53.9299 152.526 54.4411 152.456 55.0429 152.229C55.3974 152.068 55.8137 151.89 56.1968 151.589C56.7654 151.238 57.1773 150.797 57.6675 150.401C58.0507 150.1 58.372 149.816 58.7099 149.593C60.4567 148.199 62.0931 147.629 63.5739 147.96C64.4771 148.116 65.1993 148.584 65.905 148.991L66.4705 149.369C67.1143 149.793 67.9059 149.779 68.5033 149.289C68.6104 149.194 68.7794 149.082 69.0389 148.814C69.9862 147.899 71.1235 147.198 72.3602 146.867C73.1022 146.668 73.9393 146.577 74.7023 146.703C76.521 146.812 78.2006 147.885 79.3944 149.617C79.9521 150.461 79.4663 151.12 78.9595 151.455C78.4527 151.789 77.2326 152.181 76.5302 151.046Z" fill="#1E1E1E"/>
<path d="M42.2089 170.901C42.4397 170.773 42.8106 170.673 43.376 171.052C46.5951 173.169 48.894 171.362 50.3813 170.236C51.0857 169.65 51.8067 169.127 52.594 168.85C53.5049 168.54 54.173 168.56 55.0928 168.777C55.3733 168.834 55.9222 169.15 56.376 169.36C57.519 169.915 57.8779 170.017 58.5746 169.897C59.2548 169.715 59.4812 169.323 60.21 168.334C60.5434 167.848 60.922 167.283 61.1815 167.015C61.6265 166.698 62.3022 166.252 63.2177 166.206C64.0094 166.192 64.917 166.611 65.5443 166.973C67.9582 168.312 68.9477 168.048 70.1864 165.995L70.4746 165.587C71.8205 163.44 73.0452 163.311 74.0721 163.434C74.8351 163.56 75.5407 163.967 76.3247 164.419C77.0016 164.966 77.5837 165.406 78.1778 165.644C78.6769 165.775 79.2501 165.688 79.6785 165.309C79.8474 165.197 79.9997 165.024 80.0737 164.806C80.1974 164.773 80.2879 164.616 80.3497 164.6C80.6545 164.253 80.9592 163.907 81.2805 163.623C82.5161 162.299 83.3564 161.479 84.8283 161.283C85.5251 161.163 86.4283 161.319 87.2697 161.49C89.4352 161.904 93.0649 162.587 94.2516 158.365C94.5761 157.351 95.5821 157.148 96.3451 157.275C97.8094 157.545 98.7546 158.351 99.8899 159.371C100.488 159.873 101.104 160.436 101.904 160.95C102.705 161.464 103.522 162.039 104.557 161.696C105.608 161.415 106.027 160.509 106.385 159.619C106.969 158.337 107.405 157.492 108.048 156.923C108.369 156.639 108.859 156.243 109.663 156.028C111.333 155.581 114.278 156.183 119.373 161.835C119.77 162.325 119.902 162.819 119.726 163.395C119.504 164.05 118.878 164.681 118.35 164.69C118.103 164.756 117.698 164.732 117.224 164.197C116.464 163.342 115.597 162.581 114.73 161.82C114.288 161.409 113.846 160.997 113.405 160.586C113.215 160.372 113.025 160.158 112.852 160.006C112.488 159.64 111.918 158.998 110.958 159.123C109.828 159.359 109.623 160.076 109.294 160.826C108.426 162.779 107.797 164.139 106.474 164.89C104.751 165.88 102.94 165.306 102.033 164.887C101.203 164.513 100.415 163.797 99.6097 163.02C99.0896 162.564 98.6313 162.09 98.1277 161.696C97.7975 161.453 97.3602 161.305 96.9107 161.36C96.4613 161.414 96.1234 161.636 95.8187 161.983C94.74 163.396 93.4217 164.411 91.8758 164.825C90.7009 165.139 89.4597 165.206 88.1976 164.949C87.7768 164.863 87.4179 164.76 87.1375 164.703C85.5948 164.387 84.6175 164.45 83.1104 166.244C80.932 168.746 79.2503 169.394 77.0307 168.532C76.515 168.339 75.9993 168.146 75.6526 167.842C75.3058 167.538 74.65 167.316 74.1387 167.387C73.6893 167.441 73.1659 167.713 72.8943 168.183C72.5653 168.933 71.9105 169.704 71.2513 170.211C69.7188 171.415 66.3134 172.062 64.9838 170.564C64.6657 170.12 64.1787 169.787 63.6509 169.796C63.123 169.805 62.5996 170.077 62.328 170.547C62.0398 170.955 61.7683 171.425 61.4017 171.788C60.5162 172.687 59.6548 173.182 58.5373 173.216C58.1497 173.254 57.5392 172.954 56.9451 172.715C56.1157 172.342 55.2079 171.923 54.2307 171.986C52.9895 172.053 51.9638 172.923 51.0617 173.76C50.6333 174.14 50.2048 174.519 49.9122 174.664C47.4477 175.852 44.4 175.609 41.9816 174.006C41.4162 173.628 41.2219 173.15 41.2583 172.545C41.2615 171.816 41.6855 171.173 42.2089 170.901Z" fill="#1E1E1E"/>
<path d="M47.915 189.51C48.0718 189.601 48.2737 189.613 48.4758 189.625C48.7563 189.682 49.0655 189.599 49.3128 189.533C49.9599 189.228 50.5738 188.799 51.1259 188.386C52.1848 187.64 53.2603 186.955 54.4352 186.64C55.3174 186.47 56.637 186.448 57.8462 187.25C58.3332 187.583 58.775 187.994 59.2333 188.467C59.5966 188.833 60.1122 189.026 60.6235 188.956C61.1347 188.885 61.5963 188.629 61.806 188.176C62.0776 187.706 62.3492 187.236 62.5424 186.721C63.0812 185.518 63.7437 184.282 64.712 183.692C65.697 183.164 66.4148 183.369 67.9619 183.947C69.4305 184.481 70.8904 184.488 72.0155 183.988C72.7863 183.649 73.8253 183.57 74.3377 184.492C74.5608 184.829 74.5862 185.418 74.4548 185.916C74.3809 186.135 74.2618 186.431 73.9073 186.592C72.2422 187.303 70.8652 187.605 69.5125 187.504C68.766 187.439 68.0814 187.357 67.4873 187.119C67.1902 187 66.8026 187.037 66.4935 187.12C65.9988 187.253 65.6156 187.554 65.4059 188.007C64.9289 189.193 64.3405 190.211 63.7763 190.826C62.8168 191.943 61.5227 192.554 60.1865 192.514C59.1762 192.454 58.1734 191.928 57.0051 190.784L56.3734 190.159C55.8367 189.641 54.9666 189.609 54.3527 190.038C53.4749 190.471 52.9846 190.867 52.4778 191.201C51.695 191.742 50.9573 192.204 50.1865 192.543C48.8593 193.03 47.6303 192.896 46.3924 192.234C46.0169 192.07 45.8392 191.654 45.7729 191.407C45.6569 190.975 45.7099 190.431 45.8744 190.056C46.4054 189.318 47.3209 189.272 47.915 189.51Z" fill="#1E1E1E"/>
<path d="M59.8489 227.029C55.7548 225.066 52.2408 220.458 51.7453 216.241C51.1445 211.576 53.6848 207.266 58.0823 205.283C61.9476 203.484 67.5072 202.916 71.1325 205.549C75.2727 208.483 76.4127 213.894 73.9085 218.327C73.6936 218.682 73.3648 218.832 73.1196 218.904C72.7129 218.97 72.3092 218.956 71.953 218.741C71.2406 218.312 71.1527 217.38 71.4989 216.746L71.8033 216.152C71.8033 216.152 71.9375 215.793 71.9793 215.754C72.1163 215.315 72.2086 214.995 72.262 214.634C72.3573 214.233 72.3241 214.03 72.3718 213.83L72.3862 213.427L72.3618 212.982C72.1501 210.996 71.4636 209.841 70.2178 208.504C69.2026 207.498 67.5688 206.834 66.0372 206.699C64.2634 206.554 62.6394 206.739 60.7587 207.317C59.165 207.785 57.7183 208.662 56.5442 209.831C55.9586 210.376 55.5735 210.968 55.1408 211.76C54.8364 212.354 54.5175 213.352 54.4914 214.078C54.3499 215.769 54.7376 217.358 55.607 219.044C56.4404 220.609 57.6026 222.023 59.1744 223.291C60.6655 224.555 62.3803 225.222 64.1181 225.244C65.0872 225.279 65.8588 225.185 66.8842 224.778C66.926 224.739 67.255 224.589 67.2968 224.55C67.5838 224.44 67.79 224.326 67.9574 224.17C67.9992 224.131 68.0827 224.054 68.1245 224.015C68.2918 223.859 68.4593 223.704 68.5906 223.426C68.5906 223.426 68.5905 223.426 68.6324 223.387C68.7218 223.148 69.3306 221.958 70.4915 222.282C70.692 222.33 70.9286 222.5 71.1232 222.709C71.24 222.834 71.3539 223.04 71.4289 223.204C71.5038 223.369 71.6147 223.655 71.4834 223.933C70.6005 226.001 68.9059 227.031 67.6353 227.51C65.2613 228.313 62.2731 228.206 59.8489 227.029Z" fill="#1E1E1E"/>
<path d="M128.287 252.606C127.95 252.169 127.612 251.704 127.246 251.268C126.458 250.249 125.642 249.231 124.798 248.271C123.138 246.351 121.309 244.634 119.255 243.18C118.636 242.743 117.708 243.063 117.342 243.703C117.314 243.762 117.286 243.849 117.286 243.907C117.117 244.082 116.976 244.285 116.892 244.518C115.485 248.271 114.05 252.024 112.643 255.806C112.418 256.388 112.783 257.144 113.29 257.435C114.5 258.192 115.963 257.726 117.286 257.552L121.337 256.999C122.772 256.795 124.236 256.591 125.671 256.417C126.937 256.242 129.132 256.388 129.216 254.584C129.272 253.74 128.738 253.217 128.287 252.606ZM120.803 254.148C119.705 254.293 118.636 254.439 117.539 254.584C117.032 254.642 116.526 254.73 116.019 254.788C117.032 252.082 118.045 249.377 119.086 246.671C120.324 247.689 121.506 248.824 122.575 250.046C123.307 250.86 123.982 251.704 124.658 252.548C124.911 252.868 125.164 253.188 125.445 253.508C125.023 253.566 124.601 253.624 124.179 253.682L120.803 254.148Z" fill="#59C69F"/>
<path d="M57.9461 75.5359C57.3209 75.7762 56.661 76.0165 56.0358 76.2569C54.577 76.8405 53.1529 77.4241 51.7288 78.0764C48.9502 79.3466 46.3104 80.8572 43.9139 82.7454C43.1845 83.329 43.2192 84.5305 43.8096 85.1828C43.8444 85.2515 43.9138 85.2858 43.9833 85.3202C44.1222 85.5605 44.2959 85.8008 44.539 85.9724C48.325 88.9249 52.0762 91.8773 55.8621 94.8297C56.4526 95.3104 57.4251 95.1044 57.9808 94.6581C59.266 93.5252 59.3007 91.637 59.5786 90.0578L60.4122 85.1142C60.7248 83.3633 61.0026 81.6124 61.3152 79.8616C61.5584 78.351 62.5309 75.8106 60.5164 75.0896C59.5786 74.7806 58.7797 75.1926 57.9461 75.5359ZM56.9736 84.8052C56.7652 86.1098 56.522 87.4143 56.3136 88.7189C56.2094 89.3368 56.1052 89.9548 56.001 90.5727C53.2918 88.4442 50.5479 86.3157 47.8387 84.1872C49.4712 83.0887 51.1731 82.0931 52.9445 81.2691C54.1254 80.7198 55.3411 80.2049 56.5568 79.7243C57.0083 79.5526 57.4598 79.3466 57.9461 79.1406C57.8419 79.6556 57.7724 80.1706 57.6682 80.6855L56.9736 84.8052Z" fill="#1E1E1E"/>
<path d="M161.866 248.688C161.33 248.886 160.765 249.085 160.229 249.283C158.978 249.765 157.758 250.247 156.537 250.786C154.155 251.835 151.893 253.083 149.838 254.643C149.213 255.125 149.243 256.118 149.749 256.657C149.779 256.713 149.838 256.742 149.898 256.77C150.017 256.969 150.166 257.167 150.374 257.309C153.619 259.748 156.835 262.187 160.08 264.626C160.586 265.023 161.42 264.853 161.896 264.484C162.997 263.548 163.027 261.988 163.265 260.684L163.98 256.6C164.248 255.154 164.486 253.707 164.754 252.261C164.962 251.013 165.796 248.914 164.069 248.319C163.265 248.064 162.581 248.404 161.866 248.688ZM161.032 256.345C160.854 257.422 160.645 258.5 160.467 259.578C160.378 260.088 160.288 260.599 160.199 261.109C157.877 259.351 155.525 257.593 153.203 255.834C154.602 254.927 156.061 254.104 157.579 253.424C158.591 252.97 159.633 252.544 160.675 252.147C161.062 252.006 161.449 251.835 161.866 251.665C161.777 252.091 161.717 252.516 161.628 252.942L161.032 256.345Z" fill="#1E1E1E"/>
</svg>
