<svg width="237" height="59" viewBox="0 0 237 59" fill="none" xmlns="http://www.w3.org/2000/svg">
<path d="M232.564 10.2109C228.412 10.8582 224.435 12.2589 220.842 14.384C220.186 14.7578 219.788 15.4495 220.111 16.2529C220.406 16.8483 221.325 17.3569 221.98 16.9832C225.375 14.9563 229.084 13.6636 232.959 13.0548C234.753 12.735 234.367 9.96049 232.564 10.2109Z" fill="#F7C300"/>
<path d="M230.253 23.6114C230.184 23.621 230.115 23.6306 230.045 23.6403L229.976 23.6499C229.837 23.6692 229.689 23.6191 229.62 23.6287C229.332 23.5979 228.986 23.646 228.699 23.6152C228.124 23.5535 227.55 23.4919 226.976 23.4302C226.402 23.3685 225.818 23.2375 225.234 23.1065C224.947 23.0756 224.651 22.9754 224.354 22.8752L224.136 22.8348C223.988 22.7847 223.839 22.7346 223.701 22.7539C222.969 22.5727 222.146 22.7577 221.895 23.4995C221.635 24.1719 221.909 25.1237 222.641 25.3048C225.292 26.0678 227.955 26.4051 230.639 26.3859C231.342 26.3589 231.93 25.4996 231.833 24.806C231.718 23.9736 231.095 23.5651 230.253 23.6114Z" fill="#F7C300"/>
<path d="M224.04 1.77956C221.668 3.02804 219.474 4.53469 217.457 6.29953C216.821 6.81203 216.738 7.74264 217.241 8.3091C217.744 8.87557 218.605 8.96807 219.241 8.45557C220.185 7.61746 221.208 6.83908 222.171 6.1397C222.429 5.96245 222.618 5.79483 222.886 5.68693C222.946 5.60794 223.015 5.59831 223.144 5.50968C223.273 5.42105 223.402 5.33243 223.532 5.2438C224.048 4.88929 224.574 4.60415 225.169 4.30937C225.824 3.9356 226.214 3.17455 225.83 2.45009C225.535 1.85473 224.695 1.40579 224.04 1.77956Z" fill="#F7C300"/>
<path d="M4.52013 49.0168C8.67223 48.3695 12.649 46.9689 16.2424 44.8438C16.8975 44.47 17.2963 43.7783 16.9727 42.9749C16.6779 42.3795 15.7588 41.8708 15.1037 42.2446C11.7088 44.2715 7.99986 45.5642 4.1252 46.173C2.33142 46.4928 2.71671 49.2673 4.52013 49.0168Z" fill="#F7C300"/>
<path d="M6.83056 35.6163C6.89993 35.6067 6.96929 35.597 7.03865 35.5874L7.10801 35.5778C7.24674 35.5585 7.39509 35.6086 7.46445 35.599C7.75154 35.6298 8.09835 35.5816 8.38543 35.6125C8.95959 35.6741 9.53375 35.7358 10.1079 35.7975C10.6821 35.8591 11.2659 35.9902 11.8497 36.1212C12.1367 36.152 12.4335 36.2522 12.7302 36.3524L12.9479 36.3929C13.0962 36.443 13.2446 36.4931 13.3833 36.4738C14.1155 36.6549 14.9382 36.47 15.1887 35.7282C15.4488 35.0558 15.1752 34.104 14.4431 33.9229C11.7919 33.1598 9.12919 32.8226 6.44527 32.8418C5.74201 32.8688 5.15435 33.7281 5.25067 34.4217C5.36626 35.254 5.98858 35.6625 6.83056 35.6163Z" fill="#F7C300"/>
<path d="M13.0439 57.4482C15.4157 56.1997 17.6102 54.6931 19.6276 52.9283C20.2634 52.4158 20.3463 51.4851 19.8434 50.9187C19.3405 50.3522 18.4793 50.2597 17.8435 50.7722C16.8993 51.6103 15.8762 52.3887 14.9129 53.0881C14.6547 53.2653 14.4659 53.433 14.198 53.5408C14.1383 53.6198 14.0689 53.6295 13.9399 53.7181C13.8108 53.8067 13.6817 53.8954 13.5526 53.984C13.0362 54.3385 12.5102 54.6236 11.9148 54.9184C11.2598 55.2922 10.8705 56.0532 11.2539 56.7777C11.5487 57.373 12.3888 57.822 13.0439 57.4482Z" fill="#F7C300"/>
<path d="M117.604 30.0643L118.739 38.1357L116.135 38.5017L113.354 18.7135L120.124 17.7621C121.816 17.5242 123.321 17.8437 124.788 18.8324C126.124 19.8394 126.958 21.0498 127.196 22.7422C127.434 24.4346 126.984 25.9581 125.959 27.1643C124.952 28.5006 123.593 29.2226 121.77 29.4788L117.604 30.0643ZM116.305 20.8211L117.275 27.7209L121.571 27.1171C122.613 26.9708 123.339 26.4704 123.898 25.728C124.458 24.9856 124.739 24.1496 124.592 23.1081C124.464 22.1968 123.964 21.4706 123.221 20.9112C122.479 20.3517 121.513 20.0892 120.602 20.2173L116.305 20.8211Z" fill="#777677"/>
<path d="M133.965 21.7909C135.788 21.5348 137.423 21.836 138.611 22.7311C139.799 23.6262 140.633 24.8366 140.889 26.6592L142.06 34.991L139.587 35.3387L139.33 33.5161L139.2 33.5344C138.378 35.243 137.056 36.2253 135.364 36.4632C133.932 36.6644 132.575 36.4568 131.405 35.6919C130.236 34.927 129.569 33.9587 129.386 32.6568C129.184 31.2248 129.559 30.1101 130.472 29.0525C131.404 28.125 132.763 27.403 134.585 27.1468C136.148 26.9273 137.356 27.023 138.471 27.3973L138.397 26.8766C138.269 25.9653 137.769 25.2391 137.045 24.8098C136.302 24.2504 135.355 24.1181 134.443 24.2462C133.011 24.4474 131.931 25.263 131.315 26.5445L128.9 25.4235C129.779 23.1758 131.492 22.1386 133.965 21.7909ZM131.953 32.0305C132.044 32.6815 132.378 33.1656 132.972 33.6132C133.547 33.9305 134.235 34.0994 135.016 33.9897C136.058 33.8433 137.044 33.3064 137.715 32.4155C138.387 31.5246 138.779 30.5401 138.633 29.4986C137.76 28.9575 136.552 28.8618 135.25 29.0447C134.209 29.1911 133.334 29.5795 132.756 30.1918C132.16 30.6738 131.861 31.3796 131.953 32.0305Z" fill="#777677"/>
<path d="M142.873 20.9373L145.347 20.5897L145.658 22.8028L145.788 22.7845C146.331 20.9823 147.765 19.8515 150.109 19.5221L150.629 19.449L150.995 22.0527L149.805 22.0871C148.634 22.2518 147.647 22.7887 147.088 23.5311C146.416 24.422 146.154 25.3882 146.3 26.4297L147.343 33.8503L144.739 34.2162L142.873 20.9373ZM160.695 32.5048C159.654 32.6512 158.557 32.407 157.815 31.8475C156.942 31.3064 156.536 30.3015 156.241 29.1481L155.18 21.5974L152.836 21.9267L152.507 19.5834L154.85 19.254L154.265 15.0881L156.869 14.7222L157.454 18.8881L160.709 18.4307L161.038 20.774L157.783 21.2314L158.735 28.0011C158.863 28.9124 159.085 29.545 159.512 29.7505C159.939 29.956 160.366 30.1614 160.757 30.1066C161.017 30.07 161.147 30.0517 161.389 29.8849C161.519 29.8666 161.761 29.6998 161.892 29.6815L162.984 31.7849C162.369 32.1367 161.607 32.3767 160.695 32.5048Z" fill="#777677"/>
<path d="M163.312 18.0648L165.785 17.7172L166.041 19.5398L166.172 19.5215C166.471 18.8157 167.048 18.2035 167.756 17.5729C168.482 17.0726 169.357 16.6842 170.138 16.5744C171.831 16.3365 173.206 16.6743 174.115 17.4758C175.154 18.2591 175.746 19.6362 175.984 21.3286L177.173 29.7907L174.57 30.1566L173.399 21.8247C173.088 19.6116 171.769 18.7348 169.556 19.0458C168.515 19.1922 167.789 19.6925 167.117 20.5834C166.576 21.456 166.332 22.5524 166.497 23.724L167.558 31.2748L164.954 31.6407L163.051 18.1014L163.312 18.0648Z" fill="#777677"/>
<path d="M186.36 29.0307C184.408 29.3052 182.624 28.8921 181.121 27.643C179.636 26.5241 178.729 24.793 178.436 22.7101C178.143 20.6271 178.556 18.8432 179.527 17.2465C180.627 15.6315 182.098 14.761 184.051 14.4866C186.004 14.2121 187.787 14.6252 189.142 15.7624C190.497 16.8996 191.404 18.6307 191.733 20.974L191.77 21.2344L181.095 22.7347C181.277 24.0365 181.945 25.0048 182.854 25.8064C183.875 26.4594 184.841 26.7219 186.013 26.5572C187.575 26.3376 188.767 25.3736 189.44 23.5531L191.8 24.2835C191.314 25.5467 190.661 26.5678 189.711 27.3651C188.927 28.4044 187.792 28.8295 186.36 29.0307ZM181.08 20.7453L188.892 19.6475C188.633 18.7545 188.133 18.0283 187.391 17.4689C186.648 16.9094 185.7 16.7771 184.529 16.9418C183.617 17.0699 182.743 17.4583 182.183 18.2007C181.494 18.9614 181.213 19.7974 181.08 20.7453Z" fill="#777677"/>
<path d="M197.632 27.0482L195.028 27.4141L193.125 13.8748L195.599 13.5272L195.91 15.7403L196.04 15.722C196.19 14.9043 196.638 14.3104 197.346 13.6799C198.054 13.0494 198.798 12.6792 199.58 12.5694C200.361 12.4597 200.9 12.5167 201.457 12.7038L201.135 15.1387C200.857 15.0451 200.336 15.1183 199.685 15.2097C198.774 15.3378 197.917 15.8564 197.376 16.729C196.835 17.6016 196.573 18.5678 196.719 19.6093L197.762 27.0299L197.632 27.0482Z" fill="#777677"/>
<path fill-rule="evenodd" clip-rule="evenodd" d="M206.833 11.2543C205.453 11.4512 204.37 12.0051 203.659 12.917C202.931 13.8285 202.652 14.8903 202.815 16.0742C202.962 17.1301 203.404 17.9848 204.098 18.5509C204.788 19.1137 205.687 19.4294 206.725 19.5127L209.286 19.6859C209.934 19.7257 210.422 19.8722 210.763 20.1197C211.1 20.3646 211.303 20.7157 211.369 21.1885C211.457 21.8288 211.3 22.3142 210.873 22.7253C210.438 23.1443 209.863 23.4076 209.143 23.5103C208.157 23.6611 207.358 23.5807 206.736 23.2795C206.117 22.9795 205.662 22.4541 205.373 21.6889L205.27 21.4757L203.137 22.3043L203.239 22.5408C203.766 23.8082 204.533 24.7256 205.539 25.2724C206.544 25.8191 207.776 25.9891 209.221 25.7831C210.754 25.5644 211.951 24.9955 212.778 24.0705C213.627 23.141 213.957 22.0063 213.777 20.6993C213.609 19.5644 213.159 18.6856 212.419 18.0718C211.68 17.4591 210.663 17.1198 209.38 17.0411L207.023 16.9012C206.435 16.8633 205.998 16.7254 205.695 16.4967C205.394 16.2702 205.214 15.9466 205.154 15.513C205.077 14.9555 205.221 14.5331 205.597 14.1697C205.978 13.8017 206.534 13.5602 207.237 13.4599C207.95 13.3583 208.546 13.4351 209.041 13.6851C209.535 13.9348 209.94 14.3631 210.258 14.9842L210.356 15.1889L212.41 14.3696L212.309 14.134C211.829 12.9938 211.13 12.1751 210.209 11.6913C209.289 11.2079 208.16 11.065 206.833 11.2543Z" fill="#777677"/>
<path d="M35.0317 38.8386L35.4207 41.6065L42.234 40.6489C42.2605 42.3822 41.6183 43.9923 40.7033 45.2064C39.5754 46.4506 38.1449 47.0859 36.2286 47.3552C34.0995 47.6544 32.3064 47.255 30.6065 45.9741C28.9066 44.6931 28.0285 43.0796 27.7293 40.9504C27.43 38.8213 27.8294 37.0282 29.1104 35.3283C30.3913 33.6285 32.0048 32.7503 34.134 32.4511C36.0502 32.1818 37.8433 32.5811 39.5133 33.6492L41.1602 31.4636C38.9447 29.6038 36.483 29.0813 33.7151 29.4703C32.0118 29.7097 30.1554 30.4048 28.8146 31.6788C27.2309 32.7699 26.133 34.2269 25.5207 36.0499C24.6656 37.69 24.4792 39.4531 24.7485 41.3694C25.0178 43.2856 25.683 44.9291 26.957 46.2699C28.0182 47.6406 29.4752 48.7385 31.2982 49.3508C33.1212 49.9631 34.9143 50.3624 36.8305 50.0931C39.5984 49.7041 41.8208 48.5233 43.4977 46.5507C44.7487 44.6379 45.4841 42.1462 45.0652 39.1654C44.9754 38.5267 44.8856 37.8879 44.6129 37.492L35.0317 38.8386Z" fill="#487CBF"/>
<path d="M52.2218 34.4686C50.3055 34.7379 48.9049 35.5861 47.8069 37.0432C46.709 38.5002 46.2797 40.0804 46.549 41.9966C46.8183 43.9128 47.6665 45.3135 49.1236 46.4114C50.5806 47.5094 52.1608 47.9387 54.077 47.6694C55.9933 47.4001 57.3939 46.5518 58.4918 45.0948C59.5898 43.6378 60.0191 42.0576 59.7498 40.1414C59.4805 38.2251 58.6322 36.8245 57.1752 35.7265C55.7182 34.6286 54.138 34.1993 52.2218 34.4686ZM56.0934 43.4778C55.5743 44.4192 54.5397 44.7818 53.688 44.9015C52.6234 45.0511 51.7119 44.7449 50.7705 44.2259C50.0121 43.464 49.4665 42.6722 49.3169 41.6076C49.1374 40.3301 49.4435 39.4186 49.9925 38.6901C50.5115 37.7487 51.5462 37.3861 52.6108 37.2365C53.6754 37.0869 54.5869 37.393 55.5283 37.9121C56.2568 38.4611 56.8323 39.4658 56.9819 40.5304C56.9186 41.6249 56.8553 42.7194 56.0934 43.4778Z" fill="#EF372C"/>
<path d="M91.505 21.9995L88.5242 22.4185L91.2772 42.0067L94.258 41.5877L91.505 21.9995Z" fill="#00AC4E"/>
<path d="M66.7002 32.4338C64.7839 32.7031 63.3833 33.5513 62.2853 35.0084C61.1874 36.4654 60.7581 38.0456 61.0274 39.9618C61.2967 41.8781 62.1449 43.2787 63.602 44.3766C65.059 45.4746 66.6392 45.9039 68.5554 45.6346C70.4716 45.3653 71.8723 44.5171 72.9702 43.06C74.0682 41.603 74.4975 40.0228 74.2282 38.1066C73.9589 36.1903 73.1106 34.7897 71.6536 33.6918C70.1966 32.5938 68.6164 32.1645 66.7002 32.4338ZM70.7847 41.4131C70.2656 42.3545 69.231 42.7171 68.3793 42.8368C67.3147 42.9864 66.4032 42.6802 65.4618 42.1612C64.7034 41.3993 64.1578 40.6075 64.0082 39.5429C63.8287 38.2654 64.1348 37.3539 64.6838 36.6254C65.2029 35.684 66.2375 35.3214 67.3021 35.1718C68.3667 35.0222 69.2782 35.3283 70.2196 35.8474C70.9481 36.3964 71.5236 37.4011 71.6732 38.4657C71.6099 39.5602 71.3337 40.6846 70.7847 41.4131Z" fill="#FDB614"/>
<path d="M101.837 38.352C100.346 38.5615 99.1919 38.0724 98.3736 36.8847L106.807 32.0083L106.475 31.1866C106.172 30.5778 105.656 29.9989 105.384 29.603C104.898 29.237 104.382 28.6581 103.927 28.505C103.441 28.139 102.772 28.0159 102.104 27.8927C101.435 27.7696 100.796 27.8594 100.157 27.9491C98.4541 28.1885 97.0535 29.0367 95.9555 30.4937C94.8576 31.9508 94.6412 33.501 94.9105 35.4173C95.1798 37.3335 96.028 38.7341 97.4851 39.8321C98.9421 40.93 100.522 41.3593 102.439 41.09C104.781 40.7609 106.547 39.427 107.555 37.3312L105.004 36.1699C104.302 37.3542 103.114 38.1725 101.837 38.352ZM98.0812 31.7148C98.6302 30.9863 99.422 30.4408 100.487 30.2912C101.125 30.2014 101.581 30.3545 102.037 30.5076C102.493 30.6606 102.978 31.0266 103.038 31.4524L97.6186 34.6024C97.2561 33.5678 97.5323 32.4434 98.0812 31.7148Z" fill="#EF372C"/>
<path d="M84.7941 31.4106C83.7928 30.4657 82.4555 30.2194 80.9651 30.4288C79.2618 30.6682 77.8611 31.5164 76.7632 32.9735C75.6652 34.4305 75.2659 36.2236 75.5053 37.9269C75.7746 39.8431 76.6228 41.2438 78.0798 42.3417C79.5368 43.4397 81.117 43.869 82.8203 43.6296C84.3107 43.4201 85.5284 42.8148 86.0175 41.6604L86.1073 42.2992C86.4963 45.067 85.4283 46.737 83.0862 47.0662C82.2345 47.1858 81.5659 47.0627 81.0802 46.6967C80.3816 46.3607 79.866 45.7818 79.5633 45.1729L77.1579 46.5966C77.4606 47.2054 77.9463 47.5714 78.4619 48.1503C78.9476 48.5163 79.4333 48.8823 79.9189 49.2482C80.4046 49.6142 81.0733 49.7374 81.742 49.8605C82.4106 49.9837 83.0494 49.8939 83.6881 49.8041C85.6044 49.5348 87.2179 48.6567 88.1329 47.4425C89.0179 46.0154 89.4173 44.2223 89.118 42.0931L87.3825 29.7441L84.6146 30.1331L84.7941 31.4106ZM85.0496 39.4081C84.5306 40.3495 83.7088 40.6821 82.6443 40.8318C81.5797 40.9814 80.6682 40.6752 79.9396 40.1263C79.2111 39.5773 78.6357 38.5726 78.4861 37.508C78.3365 36.4434 78.6127 35.319 79.1616 34.5905C79.6807 33.649 80.6854 33.0736 81.5371 32.9539C82.6017 32.8043 83.5132 33.1104 84.2417 33.6594C85.0001 34.4213 85.5456 35.2131 85.7252 36.4906C85.8748 37.5552 85.5986 38.6796 85.0496 39.4081Z" fill="#487CBF"/>
</svg>
