<svg width="331" height="299" viewBox="0 0 331 299" fill="none" xmlns="http://www.w3.org/2000/svg">
<path fill-rule="evenodd" clip-rule="evenodd" d="M307.41 218.372C306.654 218.603 305.772 218.954 305.052 219.59C304.216 220.326 303.774 221.28 303.485 222.042C302.81 223.732 302.274 226.059 303.396 228.135L303.399 228.139C304.304 229.799 306.053 230.815 307.777 231.249C309.522 231.688 311.301 231.593 312.919 231.318L312.927 231.316L312.935 231.315C313.725 231.171 314.733 230.948 315.618 230.365C316.446 229.832 317.017 229.091 317.393 228.342C318.979 225.3 318.092 222.194 316.005 220.204C313.942 218.236 310.696 217.319 307.41 218.372ZM314.122 222.174C315.446 223.437 315.931 225.255 314.97 227.091L314.964 227.102L314.958 227.114C314.749 227.532 314.472 227.863 314.137 228.078L314.129 228.083L314.121 228.088C313.731 228.346 313.201 228.497 312.453 228.634C311.039 228.874 309.679 228.918 308.444 228.607C307.187 228.291 306.221 227.618 305.795 226.838C305.271 225.867 305.422 224.54 306.022 223.041L306.027 223.029L306.032 223.017C306.275 222.372 306.525 221.924 306.856 221.632C307.145 221.378 307.589 221.166 308.216 220.975L308.226 220.972L308.236 220.968C310.564 220.22 312.772 220.887 314.122 222.174Z" fill="#F1C527"/>
<path d="M131.472 0.753023C97.2659 6.09295 67.7389 38.8897 44.6186 65.3683C21.4814 92.1498 4.91017 112.47 0.964066 134.422C-2.98206 156.375 6.01555 179.673 12.9496 207.41C19.8837 235.147 24.6118 267.164 43.3527 284.03C61.9343 301.04 94.5288 302.899 119.221 291.7C144.056 280.661 161.148 256.421 182.876 233.204C204.461 209.828 230.682 187.476 241.556 155.286C252.429 123.096 248.081 81.5314 226.402 49.4593C204.705 17.69 165.82 -4.42688 131.472 0.753023Z" fill="#F5F5F5"/>
<path d="M316.394 189.438C316.437 188.934 316.465 188.407 316.53 187.889C316.63 186.713 316.751 185.523 316.923 184.365C317.245 182.063 317.796 179.839 318.649 177.712C318.907 177.073 319.775 176.877 320.37 177.203C320.421 177.235 320.485 177.29 320.514 177.336C320.729 177.391 320.937 177.483 321.117 177.625C324.045 179.889 326.995 182.14 329.937 184.427C330.397 184.774 330.49 185.543 330.247 186.014C329.695 187.188 328.346 187.527 327.249 188.025L323.877 189.54C322.679 190.07 321.46 190.613 320.276 191.166C319.222 191.638 317.615 192.807 316.661 191.434C316.201 190.8 316.351 190.133 316.394 189.438ZM322.879 187.049C323.79 186.636 324.679 186.236 325.59 185.822C326.006 185.624 326.437 185.449 326.853 185.252C324.743 183.619 322.633 181.986 320.501 180.366C320.057 181.759 319.713 183.216 319.499 184.687C319.341 185.677 319.241 186.662 319.141 187.648C319.106 188.02 319.07 188.393 319.013 188.779C319.364 188.622 319.716 188.464 320.067 188.307L322.879 187.049Z" fill="#1E1E1E"/>
<path d="M185.543 169.345C184.405 173.651 183.247 178.02 182.046 182.304C180.618 187.492 179.126 192.66 177.614 197.89C174.652 208.161 171.566 218.811 169.235 229.289C168.266 233.72 172.704 235.108 179.055 236.634C180.359 236.923 181.516 237.233 182.525 237.564L262.822 263.229C264.274 263.706 264.772 262.403 264.876 262.088C265.001 261.709 265.248 260.534 263.923 260.098L177.357 232.445C176.978 232.321 176.537 232.176 176.074 232.094C175.233 231.887 174.329 231.66 173.529 231.328L172.287 230.851L172.429 229.57C172.592 228.227 173.174 226.672 173.63 225.285C173.858 224.592 174.066 223.962 174.211 223.521L191.823 158.767C194.348 149.399 196.976 139.716 199.878 130.264C201.578 124.676 203.322 119.591 205.046 114.78C205.129 114.528 205.253 114.15 205.378 113.772C205.958 111.797 206.372 110.327 207.315 109.589L207.9 108.873L209.118 108.784C210.651 108.589 212.208 109.17 213.596 109.626C214.038 109.771 214.48 109.916 214.796 110.019L219.633 111.258C242.493 117.018 265.525 123.532 288.054 130.51C293.818 132.333 299.582 134.155 305.388 136.062C305.704 136.165 306.082 136.29 306.44 136.477C307.071 136.684 307.745 136.975 308.207 137.057L311.174 138.031L310.823 139.522C310.74 139.774 310.72 140.047 310.638 140.509C309.891 142.778 309.416 144.857 308.857 146.978C308.568 148.07 308.341 149.183 308.052 150.275C305.009 161.428 301.967 172.581 298.798 183.693C291.633 208.856 283.736 234.967 275.481 260.89C275.024 262.277 276.329 262.775 276.644 262.879C276.918 263.108 278.18 263.313 278.636 261.926C288.82 229.932 298.436 197.751 307.109 166.308C309.303 158.368 311.435 150.408 313.566 142.448L313.793 141.545C314.353 139.633 314.828 137.764 313.982 136.299C313.051 134.667 310.8 134.067 308.634 133.426C308.129 133.26 307.603 133.157 307.161 133.012C291.573 127.894 275.628 123.008 259.895 118.541C240.712 113.081 225.99 109.155 212.11 105.855C209.965 105.361 207.82 104.866 206.186 105.796C204.467 106.768 203.657 109.016 202.867 111.201L202.41 112.378C199.853 119.081 197.447 126.392 194.857 135.319C191.626 146.62 188.522 158.172 185.543 169.345Z" fill="#1E1E1E"/>
<path d="M202.494 112.336L202.952 111.159C203.741 108.974 204.551 106.725 206.27 105.753C207.905 104.824 210.05 105.318 212.195 105.813C226.074 109.113 240.817 112.976 259.979 118.499C275.775 122.987 291.657 127.852 307.246 132.97C307.687 133.115 308.192 133.281 308.718 133.383C310.947 134.046 313.177 134.708 314.066 136.257C314.912 137.722 314.394 139.507 313.877 141.503L313.65 142.406C311.519 150.366 309.388 158.326 307.193 166.265C298.415 197.814 288.82 229.932 278.636 261.926C278.18 263.313 276.918 263.108 276.644 262.879C276.329 262.775 275.087 262.298 275.481 260.89C283.736 234.967 291.612 208.919 298.882 183.44C302.05 172.329 305.156 161.197 308.135 150.023C308.425 148.931 308.714 147.839 308.941 146.726C309.415 144.647 309.974 142.526 310.721 140.257C310.782 139.858 310.886 139.543 310.906 139.27C311.155 138.514 310.668 137.656 309.848 137.386L308.27 136.868C307.808 136.786 307.113 136.558 306.503 136.288C306.124 136.163 305.766 135.976 305.451 135.872C299.707 133.987 293.944 132.164 288.117 130.321C265.587 123.343 242.619 116.85 219.695 111.069L214.858 109.83C214.543 109.727 214.101 109.582 213.659 109.436C212.271 108.981 210.693 108.463 209.181 108.595C208.592 108.471 207.733 108.957 207.377 109.399C206.498 110.158 206.021 111.608 205.441 113.582C205.295 114.024 205.255 114.359 205.109 114.591C203.322 119.382 201.641 124.487 199.941 130.074C197.039 139.527 194.41 149.21 191.886 158.577L174.274 223.331C174.108 223.836 173.921 224.403 173.693 225.096C173.236 226.483 172.675 227.974 172.492 229.381C172.39 230.116 172.834 230.89 173.508 231.181C174.307 231.513 175.212 231.741 176.053 231.947C176.495 232.092 176.957 232.174 177.336 232.298L263.923 260.098C265.248 260.534 264.98 261.772 264.876 262.088C264.793 262.34 264.294 263.643 262.822 263.229L182.525 237.564C181.516 237.233 180.338 236.986 179.055 236.634C172.704 235.108 168.286 233.657 169.235 229.289C171.586 218.748 174.652 208.161 177.614 197.89C179.106 192.723 180.618 187.492 182.046 182.304C183.184 177.999 184.405 173.651 185.543 169.345C188.522 158.172 191.627 146.62 194.921 135.34C197.531 126.35 199.938 119.039 202.494 112.336Z" fill="#1E1E1E"/>
<path d="M173.528 231.327C172.791 231.015 172.389 230.325 172.512 229.527L172.37 230.807L173.528 231.327Z" fill="#1E1E1E"/>
<path d="M207.336 109.526C207.691 109.084 208.614 108.619 209.14 108.721L207.921 108.81L207.336 109.526Z" fill="#1E1E1E"/>
<path d="M309.848 137.386C310.668 137.656 311.092 138.493 310.948 139.353L311.299 137.862L309.848 137.386Z" fill="#1E1E1E"/>
<path d="M218.424 127.302C219.194 127.508 219.848 127.89 220.404 128.382C220.626 128.579 221.16 129.408 221.459 129.832C221.712 130.174 222.267 130.666 222.635 130.833C223.598 131.091 224.749 130.643 226.518 129.949C227.134 129.702 227.896 129.425 228.252 129.383C229.835 129.12 231.153 129.335 232.205 130.028C232.316 130.127 232.585 130.405 232.744 130.585C233.154 131.106 233.739 131.744 234.556 132.031C235.549 132.434 236.747 132.068 237.719 131.779C237.946 131.702 238.156 131.689 238.318 131.596C239.838 131.315 241.619 130.83 242.979 131.4C244.391 131.778 245.211 132.822 246.185 134.319C246.24 134.883 246.586 135.388 247.065 135.653C247.48 135.902 248.028 135.911 248.499 135.693C249.402 135.66 250.198 135.255 250.896 134.961C251.14 134.82 251.449 134.697 251.675 134.62C253.375 134.182 254.68 134.188 255.784 134.689C256.566 135.105 256.912 135.609 257.382 136.422C257.775 137.008 258.168 137.594 258.689 138.214C259.117 138.672 259.759 138.844 260.358 138.661C260.422 138.678 260.876 138.524 260.957 138.478C261.428 138.26 261.963 138.06 262.481 137.924C262.999 137.788 263.693 137.767 264.352 137.875C265.558 137.992 266.61 138.685 267.705 139.733C267.957 140.076 268.256 140.499 268.555 140.923C269.136 141.834 269.764 142.826 270.687 143.485C271.196 143.896 271.953 143.893 272.523 143.564C272.523 143.564 272.604 143.517 272.703 143.406C272.784 143.359 272.866 143.312 272.883 143.248L273.962 142.301C274.421 141.874 274.943 141.464 275.35 141.23C276.228 140.778 276.956 140.629 277.597 140.801L277.662 140.818C279.441 141.363 280.923 144.301 281.998 146.443L282.669 147.79C283.309 148.992 282.474 149.798 281.84 150.11C281.433 150.344 280.444 150.698 279.851 149.577C279.68 149.188 279.381 148.765 279.099 148.277C278.659 147.61 278.172 146.862 277.86 146.229C277.643 145.758 277.198 145.365 276.685 145.227C276.171 145.09 275.589 145.209 275.212 145.589C274.051 146.583 273.156 147.099 272.219 147.26C269.843 147.655 268.42 146.038 266.463 143.591L266.053 143.069C264.617 141.243 263.847 141.037 261.497 141.85C259.99 142.34 258.749 142.351 257.709 141.867C257.248 141.537 256.949 141.114 256.526 140.383C256.103 139.651 255.586 138.757 254.71 138.179C253.547 137.387 252.232 137.929 250.918 138.47C250.481 138.559 250.091 138.73 249.719 138.836C248.31 139.215 247.181 139.324 246.252 138.939C245.418 138.715 245.008 138.193 244.457 137.428C244.047 136.906 243.636 136.384 243.145 135.909C242.376 134.673 241.554 134.659 240.878 134.616C239.864 134.55 239.119 134.763 238.52 134.946C238.293 135.023 238.066 135.1 237.856 135.112C236.547 135.38 235.108 135.613 233.825 135.27C233.376 135.15 232.756 134.64 232.264 134.165C231.486 133.476 230.755 132.869 229.728 132.594C228.492 132.332 227.096 132.92 225.782 133.461C225.246 133.661 224.775 133.879 224.403 133.985C223.029 134.235 221.933 134.217 220.958 133.75C220.719 133.617 220.116 133.044 219.8 132.685C218.723 131.572 217.107 129.903 215.364 131.017C214.777 131.409 214.392 131.306 214.089 131.156C213.545 130.874 213.105 130.206 213.085 129.514C213.047 128.886 213.313 128.407 213.883 128.079C215.253 127.072 216.935 126.698 218.424 127.302Z" fill="#1E1E1E"/>
<path d="M246.898 162.312C246.818 161.329 246.348 160.517 245.664 159.99C244.805 159.348 243.534 159.214 242.207 159.546C239.715 160.115 238.235 159.994 237.141 158.946C236.538 158.372 236.115 157.641 235.739 156.991C235.739 156.991 235.569 156.602 235.504 156.585C235.41 156.422 235.27 156.178 235.223 156.097C235.069 155.644 234.753 155.285 234.385 155.117C233.346 154.633 232.053 154.837 230.371 155.211C229.998 155.317 229.707 155.377 229.48 155.454C227.897 155.717 226.219 155.817 224.846 155.038C224.239 154.738 223.683 154.246 223.243 153.578C223.149 153.416 222.991 153.236 222.897 153.074L222.662 152.668C222.222 152 221.405 151.713 220.643 151.99C220.562 152.037 220.416 152.067 220.335 152.113C220.172 152.207 219.992 152.365 219.812 152.523C219.667 152.553 218.438 152.774 217.616 152.76C216.778 152.81 216.008 152.604 215.353 152.223C214.699 151.842 214.084 151.059 214.011 150.559C214.004 150.076 213.816 149.751 213.418 149.438C213.038 149.062 212.554 149.07 212.053 149.142C211.617 149.231 211.18 149.32 210.662 149.457C210.127 149.657 209.613 149.519 209.297 149.16C208.806 148.685 208.61 147.877 208.782 147.236C208.919 146.724 209.279 146.408 209.878 146.225C212.631 145.45 214.753 145.743 215.971 147.1C216.241 147.378 216.493 147.72 216.646 148.173C216.864 148.643 217.262 148.956 217.694 149.14C218.079 149.243 218.708 149.205 219.115 148.971C219.539 148.672 221.122 148.409 221.734 148.436C222.83 148.454 223.822 148.857 224.519 149.593C224.788 149.871 225.134 150.376 225.369 150.782C225.416 150.863 225.668 151.205 225.715 151.287C225.817 151.932 226.313 152.133 226.972 152.241C227.374 152.28 227.841 152.336 228.341 152.264C229.035 152.243 229.634 152.06 230.28 151.959C230.781 151.887 231.218 151.797 231.637 151.772C233.931 151.425 235.698 151.76 236.857 152.826C237.588 153.433 237.994 154.229 238.416 154.96L238.728 155.593C239.087 156.307 239.805 156.705 240.597 156.574C240.743 156.544 240.952 156.531 241.325 156.425C242.652 156.093 244.038 156.052 245.322 156.396C246.092 156.602 246.892 156.953 247.512 157.462C249.089 158.503 250.042 160.337 250.214 162.513C250.277 163.56 249.498 163.901 248.869 163.938C248.24 163.976 246.939 163.697 246.898 162.312Z" fill="#1E1E1E"/>
<path d="M205.736 162.372C206.009 162.377 206.394 162.48 206.706 163.112C208.499 166.683 211.504 166.251 213.426 166.009C214.363 165.848 215.283 165.751 216.135 165.91C217.115 166.104 217.705 166.468 218.419 167.139C218.641 167.336 218.97 167.905 219.269 168.328C220.008 169.419 220.277 169.697 220.966 169.95C221.672 170.139 222.078 169.905 223.247 169.393C223.8 169.129 224.433 168.818 224.806 168.711C225.371 168.656 226.21 168.606 227.057 169.039C227.775 169.437 228.373 170.284 228.749 170.934C230.222 173.389 231.249 173.663 233.429 172.461L233.9 172.243C236.225 171.011 237.393 171.53 238.252 172.172C238.872 172.681 239.295 173.412 239.765 174.225C240.089 175.067 240.383 175.764 240.794 176.286C241.174 176.663 241.734 176.881 242.316 176.762C242.526 176.75 242.753 176.673 242.933 176.515C243.061 176.549 243.224 176.456 243.288 176.473C243.742 176.319 244.196 176.166 244.632 176.077C246.431 175.528 247.612 175.226 249.036 175.813C249.725 176.066 250.456 176.674 251.123 177.264C252.854 178.758 255.762 181.253 259.022 178.073C259.84 177.33 260.85 177.669 261.47 178.178C262.645 179.18 263.076 180.394 263.567 181.899C263.844 182.66 264.104 183.485 264.556 184.362C265.009 185.238 265.444 186.179 266.552 186.407C267.643 186.699 268.491 186.101 269.275 185.487C270.466 184.638 271.297 184.105 272.17 183.926C272.607 183.837 273.253 183.735 274.087 183.959C275.82 184.422 278.154 186.489 279.797 194.209C279.899 194.855 279.761 195.367 279.303 195.794C278.763 196.268 277.872 196.51 277.393 196.245C277.137 196.176 276.786 195.945 276.637 195.218C276.399 194.056 276.015 192.923 275.631 191.79C275.448 191.191 275.265 190.593 275.081 189.994C275.022 189.703 274.962 189.413 274.886 189.186C274.749 188.669 274.571 187.797 273.642 187.411C272.504 187.038 271.948 187.576 271.262 188.079C269.468 189.385 268.195 190.281 266.616 190.27C264.554 190.268 263.224 188.813 262.626 187.966C262.075 187.201 261.738 186.149 261.419 185.033C261.188 184.353 261.022 183.691 260.775 183.075C260.604 182.686 260.288 182.327 259.856 182.142C259.424 181.958 259.004 181.983 258.551 182.136C256.847 182.848 255.135 183.077 253.53 182.648C252.311 182.321 251.16 181.739 250.16 180.853C249.827 180.558 249.557 180.28 249.335 180.083C248.112 179 247.202 178.55 244.915 179.381C241.657 180.501 239.809 180.212 238.262 178.287C237.899 177.847 237.536 177.406 237.382 176.953C237.228 176.5 236.754 175.961 236.258 175.759C235.826 175.575 235.214 175.549 234.726 175.83C234.04 176.334 233.051 176.687 232.195 176.801C230.192 177.09 226.796 175.906 226.379 173.871C226.324 173.307 226.059 172.756 225.58 172.49C225.101 172.224 224.489 172.198 224.001 172.48C223.53 172.697 223.042 172.978 222.524 173.115C221.261 173.463 220.23 173.462 219.208 172.914C218.84 172.747 218.447 172.161 218.037 171.639C217.485 170.873 216.887 170.027 215.976 169.577C214.826 168.994 213.452 169.245 212.206 169.529C211.624 169.648 211.042 169.767 210.704 169.746C207.871 169.537 205.258 167.739 203.918 165.045C203.606 164.412 203.68 163.882 204.027 163.357C204.409 162.704 205.124 162.346 205.736 162.372Z" fill="#1E1E1E"/>
<path d="M201.194 182.054C201.288 182.216 201.464 182.332 201.639 182.448C201.861 182.645 202.182 182.73 202.439 182.799C203.179 182.86 203.954 182.792 204.664 182.708C206.004 182.585 207.326 182.527 208.545 182.853C209.427 183.158 210.624 183.822 211.294 185.169C211.559 185.72 211.742 186.319 211.908 186.981C212.045 187.499 212.408 187.939 212.904 188.141C213.4 188.342 213.948 188.351 214.372 188.053C214.86 187.771 215.349 187.49 215.79 187.127C216.899 186.325 218.137 185.557 219.314 185.529C220.473 185.564 221.012 186.12 222.102 187.442C223.144 188.683 224.453 189.445 225.724 189.579C226.592 189.674 227.568 190.141 227.549 191.235C227.574 191.654 227.291 192.197 226.914 192.576C226.734 192.734 226.473 192.939 226.071 192.9C224.205 192.676 222.811 192.234 221.648 191.442C221.01 190.997 220.437 190.569 220.027 190.047C219.822 189.786 219.454 189.619 219.133 189.533C218.62 189.395 218.119 189.468 217.695 189.766C216.65 190.585 215.592 191.195 214.766 191.455C213.323 191.962 211.843 191.84 210.662 191.112C209.786 190.535 209.158 189.542 208.702 187.909L208.459 187.02C208.246 186.276 207.481 185.797 206.706 185.864C205.692 185.799 205.045 185.901 204.416 185.938C203.432 186.018 202.529 186.051 201.66 185.956C200.214 185.707 199.179 184.949 198.411 183.713C198.159 183.371 198.215 182.905 198.284 182.649C198.404 182.2 198.734 181.739 199.077 181.487C199.937 181.099 200.784 181.532 201.194 182.054Z" fill="#1E1E1E"/>
<path d="M192.425 221.958C189.766 218.072 189.002 212.11 190.747 208.063C192.631 203.559 197.154 201.002 202.136 201.498C206.545 201.884 211.837 204.254 213.727 208.499C215.924 213.282 214.137 218.736 209.583 221.422C209.205 221.63 208.831 221.594 208.574 221.532C208.174 221.381 207.818 221.158 207.61 220.781C207.193 220.026 207.598 219.143 208.238 218.753L208.821 218.376C208.821 218.376 209.128 218.123 209.186 218.11C209.537 217.786 209.786 217.547 210.022 217.25C210.315 216.939 210.391 216.739 210.538 216.584L210.761 216.229L210.97 215.817C211.812 213.922 211.795 212.528 211.37 210.681C210.98 209.252 209.856 207.808 208.55 206.892C207.031 205.844 205.476 205.168 203.485 204.713C201.809 204.308 200.054 204.346 198.391 204.789C197.582 204.975 196.928 205.307 196.128 205.795C195.545 206.171 194.74 206.903 194.339 207.542C193.334 208.988 192.857 210.617 192.762 212.583C192.698 214.421 193.007 216.294 193.761 218.248C194.444 220.157 195.639 221.645 197.189 222.565C198.042 223.099 198.784 223.415 199.918 223.58C199.976 223.567 200.349 223.602 200.407 223.589C200.722 223.638 200.967 223.643 201.198 223.59C201.256 223.576 201.371 223.55 201.429 223.537C201.66 223.484 201.891 223.431 202.154 223.249C202.154 223.249 202.154 223.249 202.212 223.235C202.416 223.067 203.581 222.313 204.456 223.206C204.612 223.353 204.736 223.628 204.802 223.917C204.842 224.09 204.838 224.334 204.82 224.521C204.802 224.707 204.753 225.022 204.49 225.204C202.622 226.605 200.564 226.652 199.173 226.425C196.622 225.916 193.992 224.272 192.425 221.958Z" fill="#1E1E1E"/>
<path d="M179.968 95.0795C180.282 94.6799 180.596 94.2537 180.935 93.8541C181.667 92.9217 182.424 91.9893 183.208 91.1102C184.75 89.3519 186.448 87.7802 188.355 86.4482C188.93 86.0486 189.792 86.3417 190.132 86.9277C190.158 86.981 190.184 87.0609 190.184 87.1142C190.341 87.2741 190.472 87.4605 190.55 87.6736C191.856 91.1102 193.189 94.5467 194.495 98.0099C194.704 98.5427 194.364 99.2353 193.894 99.5017C192.771 100.194 191.412 99.7681 190.184 99.6082L186.422 99.1021C185.089 98.9156 183.731 98.7291 182.398 98.5693C181.223 98.4095 179.185 98.5427 179.106 96.891C179.054 96.1184 179.55 95.6389 179.968 95.0795ZM186.918 96.4914C187.937 96.6246 188.93 96.7578 189.949 96.891C190.419 96.9443 190.89 97.0242 191.36 97.0775C190.419 94.6 189.479 92.1225 188.512 89.645C187.362 90.5774 186.265 91.6163 185.272 92.7352C184.593 93.4811 183.966 94.2537 183.339 95.0262C183.104 95.3192 182.869 95.6123 182.607 95.9053C182.999 95.9586 183.391 96.0119 183.783 96.0652L186.918 96.4914Z" fill="#F1C527"/>
<path d="M235.761 67.596C236.255 67.7695 236.777 67.943 237.271 68.1165C238.425 68.5378 239.551 68.9591 240.677 69.43C242.874 70.3471 244.961 71.4376 246.856 72.8007C247.433 73.2221 247.405 74.0895 246.938 74.5604C246.911 74.61 246.856 74.6348 246.801 74.6595C246.691 74.833 246.554 75.0065 246.362 75.1305C243.368 77.2619 240.402 79.3934 237.409 81.5248C236.942 81.8718 236.173 81.7231 235.733 81.4009C234.717 80.583 234.69 79.2199 234.47 78.0798L233.811 74.5108C233.564 73.2468 233.344 71.9828 233.097 70.7188C232.905 69.6283 232.136 67.7943 233.729 67.2738C234.47 67.0507 235.102 67.3482 235.761 67.596ZM236.53 74.2878C236.695 75.2296 236.887 76.1714 237.052 77.1132C237.134 77.5593 237.216 78.0054 237.299 78.4516C239.441 76.9149 241.61 75.3783 243.753 73.8417C242.462 73.0486 241.116 72.3298 239.715 71.735C238.782 71.3384 237.821 70.9667 236.859 70.6197C236.502 70.4958 236.145 70.3471 235.761 70.1984C235.843 70.5701 235.898 70.9419 235.98 71.3137L236.53 74.2878Z" fill="#1E1E1E"/>
<path d="M205.57 283.736C206.034 283.92 206.523 284.104 206.986 284.289C208.068 284.736 209.123 285.184 210.179 285.684C212.239 286.659 214.195 287.817 215.972 289.266C216.513 289.713 216.487 290.635 216.049 291.135C216.023 291.188 215.972 291.214 215.92 291.241C215.817 291.425 215.689 291.609 215.508 291.741C212.702 294.006 209.921 296.27 207.115 298.535C206.677 298.904 205.956 298.746 205.544 298.403C204.592 297.534 204.566 296.086 204.36 294.875L203.742 291.083C203.51 289.74 203.304 288.397 203.073 287.054C202.893 285.895 202.172 283.946 203.665 283.393C204.36 283.156 204.952 283.472 205.57 283.736ZM206.291 290.846C206.446 291.846 206.626 292.847 206.78 293.848C206.858 294.322 206.935 294.796 207.012 295.27C209.02 293.637 211.054 292.004 213.062 290.372C211.852 289.529 210.591 288.765 209.278 288.133C208.402 287.712 207.501 287.317 206.6 286.948C206.265 286.817 205.931 286.659 205.57 286.501C205.647 286.896 205.699 287.291 205.776 287.686L206.291 290.846Z" fill="#59C69F"/>
<path fill-rule="evenodd" clip-rule="evenodd" d="M144.299 236.164C141.782 236.487 139.128 237.904 137.985 240.238C136.755 242.734 137.199 245.761 138.839 247.909C139.183 248.368 139.661 248.873 140.305 249.225L140.317 249.231L140.329 249.237C141.331 249.759 142.463 249.723 143.155 249.701L143.159 249.701C144.191 249.664 145.44 249.566 146.606 249.067L146.609 249.065C148.028 248.454 149.068 247.359 149.846 246.367C150.53 245.503 151.219 244.473 151.58 243.251C151.942 242.028 151.965 240.549 151.255 239.254C149.793 236.573 146.84 235.838 144.299 236.164ZM144.647 238.866C146.543 238.622 148.132 239.222 148.861 240.558L148.863 240.562L148.863 240.562C149.134 241.056 149.181 241.747 148.965 242.479C148.748 243.213 148.304 243.923 147.705 244.68L147.701 244.685L147.701 244.685C147.02 245.552 146.324 246.221 145.53 246.563C144.859 246.851 144.045 246.943 143.064 246.978C142.309 247.003 141.882 246.969 141.6 246.827C141.419 246.726 141.223 246.544 141.018 246.271L141.014 246.266L141.01 246.26C139.935 244.855 139.701 242.924 140.432 241.439L140.434 241.436C141.054 240.169 142.729 239.112 144.647 238.866Z" fill="#1E1E1E"/>
</svg>
