<svg width="310" height="17" viewBox="0 0 310 17" fill="none" xmlns="http://www.w3.org/2000/svg">
<path d="M1.20572 4.81587C4.75912 7.19485 8.55154 9.37914 12.1049 11.7581C15.6507 13.948 18.1636 15.0261 22.2729 12.8506C25.6575 11.0701 29.7591 8.70558 32.3729 6.18575C32.6196 6.18012 32.6273 6.36918 32.874 6.36355C33.398 7.10854 34.6545 7.64757 35.4176 8.19787C37.1981 9.4819 38.732 10.7716 40.5049 11.8665C43.3029 13.8843 46.3322 15.5183 50.2255 14.1047C54.1264 12.8801 56.4705 9.79873 59.5931 7.64577C59.8321 7.45107 60.0711 7.25637 60.3101 7.06167C59.5854 7.45671 59.8474 7.8292 60.8342 7.80667C61.5973 8.35697 62.8384 8.51786 63.8405 8.87346C65.598 9.59029 67.3555 10.3071 69.113 11.0239C73.1291 12.6354 76.9139 14.6306 80.6987 16.6258C81.9628 17.3539 84.1676 16.9251 85.1237 16.1463C86.7814 14.4053 88.4469 12.8533 90.1046 11.1123C91.053 10.1444 92.0014 9.17655 92.9498 8.20869C93.1888 8.01399 93.4278 7.81929 93.6591 7.43552C93.8981 7.24083 93.8981 7.24083 93.8981 7.24083C96.149 7.94639 98.1839 9.41384 100.204 10.5032C102.47 11.5869 104.744 12.8596 107.257 13.9377C111.542 16.1107 115.782 17.1493 120.362 14.3954C123.731 12.2368 126.854 10.0838 130.223 7.9252C132.998 9.37576 135.765 10.6373 138.787 12.0822C141.554 13.3437 144.344 15.1724 147.775 14.5263C150.959 13.8859 153.827 11.5495 156.479 9.97496C157.929 9.18489 159.378 8.39483 160.581 7.6104C162.03 6.82033 163.017 6.7978 164.767 7.32556C170.517 9.08664 175.104 12.5775 181.541 12.9982C188.224 13.4133 192.773 9.90307 197.846 7.13784C199.535 6.15308 199.296 6.34778 201.061 7.25367C202.572 7.97613 203.836 8.70423 205.347 9.42669C208.368 10.8716 211.39 12.3165 214.867 12.8049C218.336 13.1041 221.25 11.9021 224.411 10.6945C226.114 10.0879 227.818 9.48123 229.522 8.87459C231.226 8.26796 233.886 6.88253 236.098 6.64276C239.058 6.57515 242.843 8.57037 245.364 9.8375C248.139 11.2881 250.451 13.5061 253.928 13.9945C257.158 14.4884 260.326 13.4699 262.732 11.901C265.384 10.3265 267.751 7.81231 271.235 8.4897C274.712 8.97803 277.51 10.9958 280.524 12.2516C283.792 13.6909 287.292 14.7465 291.255 15.0344C298.439 15.6273 305.755 13.3786 309.503 8.37275C311.839 5.10229 305.31 2.41277 302.974 5.68323C299.697 10.1106 292.543 10.274 287.031 8.31821C281.52 6.36243 276.926 2.68251 270.504 2.63992C267.536 2.51846 264.861 3.52576 262.44 4.71649C260.513 5.89596 257.182 8.99989 254.669 7.92183C252.164 7.03283 249.859 5.00381 247.338 3.73669C244.571 2.47519 241.31 1.22497 238.335 0.914443C235.113 0.609547 232.437 1.61685 229.515 2.62978C225.861 3.84868 222.23 5.63478 218.568 6.66462C215.392 7.49412 212.347 5.482 209.834 4.40394C207.313 3.13681 204.508 0.929992 201.285 0.625097C195.573 -0.190658 191.101 5.21023 186.475 6.8298C181.117 8.65533 175.783 4.99232 171.266 3.20306C168.499 1.94157 165.246 0.880414 162.054 1.33178C158.616 1.78879 155.74 3.93612 153.088 5.51061C151.639 6.30068 149.487 8.05298 147.776 8.47054C147.529 8.47618 147.059 9.05464 147.059 9.05464C146.566 9.06591 144.793 7.97095 144.292 7.79315C140.761 5.98136 136.984 4.17521 133.454 2.36342C133.454 2.36342 133.207 2.36905 133.199 2.17999C131.935 1.45189 129.954 1.3079 128.52 2.47609C126.354 3.85026 124.434 5.21879 122.267 6.59295C121.311 7.37175 120.101 7.96712 119.145 8.74592C118.42 9.14095 116.994 10.4982 116.015 10.7098C114.049 10.9439 110.488 8.3759 108.977 7.65344C106.711 6.56974 104.691 5.48042 102.425 4.39672C98.8944 2.58493 94.5856 -0.155279 90.746 2.58178C88.8262 3.95031 87.4228 5.87477 86.0041 7.4211C85.0557 8.38897 83.8683 9.55153 82.92 10.5194C76.6146 7.25705 70.0779 4.37847 63.0785 2.26742C58.8311 1.03973 56.4409 2.98673 53.5651 5.13406C52.131 6.30225 50.7123 7.84858 49.0161 8.64428C47.5667 9.43435 48.5381 9.03368 47.2816 8.49465C46.5262 8.13342 45.5011 7.21063 44.738 6.66033C42.9575 5.37631 41.4236 4.08665 39.6508 2.99169C38.3789 2.07452 36.8451 0.784865 35.0952 0.257104C31.1021 -0.787154 28.735 1.72704 26.0905 3.4906C24.4098 4.66443 22.729 5.83827 20.8015 7.01773C20.8015 7.01773 19.3521 7.8078 18.6274 8.20283C18.373 8.0194 18.1187 7.83596 17.8643 7.65253C14.3109 5.27355 10.5185 3.08926 6.96506 0.710274C2.67157 -1.65181 -2.34772 2.43688 1.20572 4.81587Z" fill="#1E1E1E"/>
</svg>
