<svg width="16" height="264" viewBox="0 0 16 264" fill="none" xmlns="http://www.w3.org/2000/svg">
<path d="M8.93908 7.44639C8.93908 7.44639 8.92886 7.44621 8.91864 7.44602C8.91864 7.44602 8.92886 7.44621 8.93908 7.44639Z" fill="#F1C527"/>
<path d="M13.3023 255.818C13.0039 255.489 12.6839 255.209 12.2392 255.002C11.744 254.769 11.2761 254.67 10.7358 254.602C11.6962 247.132 11.3992 239.64 10.9388 232.136C10.4518 224.076 10.0365 216.018 9.7542 207.954C9.19799 191.9 9.09224 175.829 9.44632 159.775C9.65113 150.675 10.0091 141.586 10.4999 132.5L10.5038 132.35C11.5076 124.782 11.2029 117.19 10.7345 109.603C10.2475 101.543 9.83216 93.4851 9.5499 85.4208C8.99369 69.367 8.89795 53.3049 9.25224 37.2428C9.44397 28.6482 9.77904 20.0479 10.2266 11.4496C10.7514 11.3265 11.2675 11.1451 11.7638 10.9386C12.8909 10.4616 13.8582 9.84073 14.6362 9.02574C15.4141 8.21074 15.7977 7.22275 15.9567 6.2141C16.2536 4.22958 14.993 2.34941 13.0905 1.17064C12.2348 0.641031 11.1793 0.323365 10.1295 0.179921C8.76435 -0.0272945 7.3853 -0.093809 6.03813 0.188491C4.57786 0.493611 3.34329 1.16765 2.4488 2.13806C2.06961 2.56232 1.79073 3.06303 1.64453 3.57443C1.39582 4.49025 1.54902 5.289 2.00742 6.15134C2.2412 6.60331 2.95718 6.99773 3.50601 7.13207C3.61782 7.15897 3.75029 7.17796 3.87276 7.18848C3.72684 7.29361 3.60073 7.42398 3.50529 7.55491C3.17594 8.02982 3.00736 8.61545 3.20832 9.14974C3.40886 9.70061 3.79855 10.0559 4.35203 10.4059C4.63378 10.5852 4.9364 10.7482 5.24967 10.8948C3.55187 42.512 3.62182 74.1944 5.48339 105.81C6.00214 114.616 6.77496 123.486 5.49421 132.268C5.47034 132.4 5.46691 132.533 5.48413 132.657L5.48328 132.69C3.7586 164.556 3.8121 196.478 5.68748 228.351C6.17755 236.684 6.88082 245.08 5.86766 253.402C5.7552 253.4 5.63296 253.382 5.52029 253.388C4.12886 253.404 2.74952 253.744 1.71663 254.529C0.590009 255.379 0.220904 256.6 0.0471117 257.782C-0.113455 258.849 0.144913 259.931 0.692532 260.903C1.69941 262.704 4.0927 263.892 6.49364 263.993C7.77068 264.05 8.9858 263.732 10.1615 263.355C11.4095 262.955 12.5303 262.329 13.1797 261.346C13.499 260.862 13.727 260.352 13.8636 259.816C14.0115 259.238 14.1803 258.644 14.1853 258.056C14.1657 257.235 13.8989 256.475 13.3023 255.818ZM9.1251 7.37512C9.06312 7.39887 9.00107 7.42264 8.93908 7.44639C8.94931 7.44658 8.97004 7.43863 8.98026 7.43882C8.97004 7.43863 8.94938 7.44655 8.92893 7.44618C8.89783 7.4622 8.85651 7.47803 8.82563 7.48576C8.5466 7.59677 8.77444 7.48486 8.91864 7.44602C8.81598 7.46074 8.60007 7.50653 8.45588 7.54537C8.36451 7.51884 8.26249 7.50869 8.17113 7.48216C8.14067 7.47331 8.12044 7.46465 8.10021 7.45599C7.72667 7.2668 7.36293 7.09436 7.0207 6.88086C6.7692 6.71875 6.40331 6.62919 6.02569 6.59746C6.71522 6.03789 6.89852 5.27841 6.64223 4.51096C6.70485 4.46235 6.7777 4.41392 6.84033 4.36531C6.85077 4.35721 6.88186 4.34119 6.89209 4.34138C6.91275 4.33346 6.98538 4.29333 7.0578 4.26148C7.16068 4.23847 7.26355 4.21547 7.37665 4.19265C7.41776 4.1851 7.52042 4.17039 7.62308 4.15567C7.73575 4.14943 7.98153 4.13731 8.03265 4.13824C8.37023 4.13608 8.69651 4.17517 9.03345 4.19788C9.08435 4.20709 9.14547 4.2165 9.20638 4.23419C9.38954 4.27068 9.56248 4.30699 9.73498 4.35987C9.75522 4.36853 9.76544 4.36871 9.78567 4.37737C9.91686 4.44609 10.0789 4.50707 10.1999 4.5756C10.3 4.66033 10.4105 4.73696 10.5001 4.8298C10.53 4.8635 10.57 4.8974 10.5998 4.9311C10.659 5.01509 10.7078 5.10718 10.7276 5.13242C10.7273 5.1407 10.7474 5.15765 10.7572 5.17441C10.7957 5.26631 10.8342 5.35822 10.8623 5.45823C10.8815 5.50832 10.88 5.56633 10.8989 5.62472C10.8968 5.70759 10.8844 5.79028 10.8833 5.83172C10.8831 5.84 10.8825 5.86487 10.8818 5.88973C10.8484 5.99691 10.8147 6.11237 10.771 6.21937C10.7608 6.21918 10.7499 6.24386 10.7391 6.26854C10.6752 6.36687 10.611 6.47349 10.5371 6.56335C10.5162 6.57956 10.5054 6.60423 10.4845 6.62044C10.3801 6.70145 10.2753 6.79905 10.1607 6.87988C10.1401 6.88779 10.1296 6.89589 10.109 6.90381C9.96411 6.96751 9.81841 7.06436 9.67358 7.12806C9.49742 7.21606 9.31126 7.29559 9.1251 7.37512ZM8.22471 259.548C7.78168 259.672 7.33908 259.78 6.87711 259.847C6.76466 259.844 6.6522 259.842 6.52953 259.84C6.43795 259.822 6.34615 259.812 6.25479 259.785C6.21411 259.776 6.17365 259.759 6.13297 259.75C5.99134 259.689 5.85994 259.629 5.72897 259.552C5.68872 259.526 5.64847 259.501 5.63868 259.484C5.57863 259.433 5.51858 259.382 5.45852 259.332C5.44852 259.323 5.4285 259.306 5.4087 259.281C5.39869 259.272 5.38868 259.264 5.38889 259.256C5.3495 259.197 5.29989 259.138 5.26071 259.071C5.26092 259.063 5.25092 259.054 5.25113 259.046C5.23176 259.004 5.2126 258.954 5.21303 258.937C5.17471 258.837 5.16727 258.729 5.13917 258.629C5.12452 258.405 5.14053 258.182 5.15655 257.958C5.19086 257.818 5.22518 257.677 5.26972 257.537C5.29016 257.538 5.3006 257.529 5.32105 257.53C5.55639 257.526 5.79153 257.53 6.02623 257.551C6.58636 257.644 7.14606 257.754 7.71662 257.839C7.96112 257.876 8.19604 257.889 8.42074 257.901C8.48057 257.96 8.52997 258.028 8.60025 258.079C8.73058 258.18 8.86133 258.266 9.00253 258.343C8.94476 258.599 8.887 258.855 8.78834 259.11C8.76639 259.168 8.74466 259.217 8.72293 259.266C8.6914 259.299 8.67031 259.324 8.64879 259.365C8.59703 259.389 8.53484 259.421 8.48308 259.445C8.40043 259.476 8.30757 259.508 8.22471 259.548Z" fill="#F1C527"/>
</svg>
