<svg width="129" height="65" viewBox="0 0 129 65" fill="none" xmlns="http://www.w3.org/2000/svg">
<path d="M12.4439 23.279C12.659 24.0617 12.8813 24.8974 13.0575 25.7936C13.2336 26.6898 13.4098 27.586 13.5859 28.4822C13.7621 29.3784 13.8849 30.2819 14.0004 31.1322C14.1159 31.9825 14.1709 32.7869 14.2648 33.4778C15.2589 33.9922 15.8722 34.5042 16.1507 34.9535C16.3758 35.41 16.487 35.8279 16.3774 36.2217C16.2895 36.7749 16.0053 37.0841 15.5782 37.1422C15.1512 37.2002 14.5957 37.1133 13.9652 36.8742C13.5742 37.198 13.1905 37.5749 12.7 37.9663C12.2095 38.3577 11.719 38.7491 11.1752 39.1477C10.6313 39.5464 10.073 39.8388 9.57526 40.177C9.01695 40.4694 8.5048 40.7014 8.0388 40.8729C7.15298 41.1557 6.26998 41.0592 5.51103 40.6752C4.69869 40.2984 4.11715 39.6197 3.72025 38.6994C3.40562 37.9844 3.25836 37.3008 3.27124 36.5954C3.28412 35.89 3.40377 35.1701 3.6374 34.4889C3.92441 33.8004 4.32541 33.1505 4.84762 32.5924C5.3626 31.9812 6.00601 31.5149 6.77063 31.1403C6.96972 31.005 7.2294 30.9156 7.59585 30.8117C7.9623 30.7078 8.33598 30.657 8.70965 30.6062C9.08332 30.5555 9.52482 30.6037 9.92016 30.7124C10.3689 30.8138 10.7181 30.9828 11.1423 31.304C11.0773 30.8258 11.0051 30.2943 10.9256 29.7097C10.8462 29.1251 10.7134 28.5478 10.6339 27.9632C10.5545 27.3786 10.4217 26.8013 10.2961 26.2771C10.1705 25.753 10.0593 25.3351 9.9554 24.9703C9.84424 24.5524 9.64799 24.3084 9.36663 24.2384C9.08528 24.1684 8.76499 24.2119 8.3596 24.4294C7.69452 24.7363 6.95157 25.2702 6.13796 26.0844C5.31713 26.8455 4.50352 27.6597 3.75051 28.5197C3.51971 28.8217 3.26725 28.9643 2.88635 28.9619C2.55884 28.9523 2.27749 28.8823 1.98169 28.706C1.73928 28.5224 1.54303 28.2784 1.4997 27.9596C1.40299 27.648 1.5198 27.3073 1.74338 26.9522C2.1516 26.3555 2.67381 25.7974 3.18157 25.133C3.69655 24.5218 4.27214 23.9564 4.90111 23.3839C5.48392 22.8717 6.12733 22.4053 6.78518 22.0453C7.44304 21.6853 8.11534 21.4316 8.80208 21.2841C9.81633 21.1463 10.5926 21.2573 11.1914 21.6631C11.8291 21.9553 12.2361 22.5495 12.4439 23.279ZM8.61479 33.1089C8.25556 33.2659 7.90355 33.4762 7.51261 33.7999C7.12166 34.1237 6.79132 34.4933 6.52158 34.9088C6.25184 35.3244 6.0427 35.7858 5.94755 36.2858C5.8524 36.7859 5.91739 37.2642 6.08193 37.6748C6.15698 37.827 6.28541 37.9719 6.50615 37.9961C6.7269 38.0202 6.89427 38.0516 7.15396 37.9622C7.82626 37.7084 8.59087 37.3339 9.39443 36.8458C10.1908 36.3046 10.8803 35.7779 11.2958 35.2343C11.2741 35.0749 11.1385 34.8768 10.935 34.5797C10.7387 34.3358 10.4891 34.0991 10.2395 33.8624C9.98983 33.6257 9.68682 33.3962 9.39824 33.273C9.10967 33.1499 8.82832 33.0799 8.61479 33.1089Z" fill="#F7C300"/>
<path d="M20.1031 24.0242C20.2676 24.4348 20.386 24.9059 20.565 25.4228C20.7439 25.9397 20.9229 26.4566 21.1091 27.0267C21.2881 27.5437 21.4743 28.1137 21.6071 28.6911C21.7933 29.2611 21.9189 29.7853 22.0445 30.3095C22.3171 29.5147 22.5824 28.6668 22.8478 27.8188C23.1593 26.9105 23.4852 26.1085 23.8718 25.3523C24.2584 24.5961 24.6594 23.9463 25.1354 23.4486C25.6042 22.8978 26.1625 22.6054 26.8031 22.5183C27.764 22.3878 28.6153 22.651 29.3497 23.2548C30.0842 23.8586 30.7336 24.6364 31.2978 25.5881C31.8621 26.5398 32.3802 27.5519 32.7454 28.6389C33.1639 29.7186 33.5147 30.6994 33.7904 31.5279C34.0588 32.3033 33.8108 32.8783 32.9538 33.3736C32.5556 33.6442 32.2887 33.6805 32.0535 33.55C31.8184 33.4196 31.6971 33.3279 31.6755 33.1684C31.472 32.8713 31.2252 32.2554 30.8961 31.4341C30.5671 30.6128 30.2308 29.7383 29.8483 28.9243C29.4586 28.0571 29.0372 27.3566 28.6231 26.7093C28.2161 26.1151 27.7457 25.8543 27.3259 25.9654C26.7921 26.038 26.4228 26.5212 26.0968 27.3232C25.8026 27.9586 25.5762 28.693 25.2964 29.4346C25.0238 30.2294 24.7513 31.0242 24.5321 31.8117C24.2595 32.6065 24.0403 33.3941 23.8284 34.2347C23.6092 35.0223 23.3828 35.7567 23.1491 36.4379C22.9645 36.6795 22.712 36.8221 22.4596 36.9646C22.1465 37.0613 21.8796 37.0976 21.5448 37.0348C21.2635 36.9648 20.9821 36.8948 20.7931 36.704C20.6041 36.5131 20.4684 36.3151 20.4468 36.1556C19.8765 33.9599 19.3886 31.9694 18.8689 30.1456C18.3565 28.375 17.7762 26.5054 17.0892 24.6502C16.8279 23.928 16.7023 23.4038 16.8119 23.01C16.8681 22.6235 17.2735 22.406 18.0353 22.4108C19.0712 22.4324 19.7451 22.9903 20.1031 24.0242Z" fill="#F7C300"/>
<path d="M41.9387 13.4794C41.7597 12.9625 41.7481 12.477 41.8504 12.0301C41.96 11.6363 42.2442 11.327 42.7708 11.2014C43.1906 11.0902 43.5788 11.1457 43.9424 11.421C44.2988 11.6432 44.5629 11.9862 44.7346 12.45C45.7162 15.6724 46.6905 18.8416 47.6187 22.0713C48.5396 25.2478 49.4 28.3784 50.1997 31.4631C50.422 32.2989 50.4409 32.8376 50.2707 33.1854C50.1005 33.5333 49.8625 33.7822 49.5566 33.932C49.258 34.1349 48.8843 34.1857 48.5957 34.0626C48.2538 33.9466 48.0575 33.7027 47.9002 33.3452L47.8107 33.0867L47.6578 33.1616C46.7403 33.6111 45.8083 33.9542 44.7406 34.0993C43.7336 34.2903 42.6977 34.2687 41.7007 34.1335C40.7037 33.9984 39.838 33.6289 38.9968 33.0396C38.1628 32.5034 37.5668 31.7184 37.1093 30.7522C36.1192 28.6676 36.3253 26.5828 37.6278 24.5655C38.1673 23.7345 38.9347 22.9807 39.8089 22.2124C40.6904 21.4972 41.7998 20.8594 43.1444 20.3519L43.9234 20.0836L41.9387 13.4794ZM39.5344 29.3942C39.7884 30.0633 40.1809 30.5513 40.7119 30.858C41.2429 31.1647 41.8128 31.3579 42.4679 31.3771C43.1301 31.4495 43.7707 31.3625 44.5108 31.2078C45.1903 31.0072 45.9232 30.7993 46.5811 30.4393L46.9403 30.2822L44.7405 22.8954L43.9152 23.224C43.3497 23.4633 42.7452 23.816 42.1018 24.2823C41.4584 24.7486 40.9218 25.2004 40.4602 25.8044C39.9913 26.3552 39.6899 26.9375 39.5024 27.5583C39.2543 28.1333 39.2876 28.7783 39.5344 29.3942Z" fill="#F7C300"/>
<path d="M30.6017 47.224C30.4026 47.3593 30.1963 47.4415 29.8688 47.4319C29.5946 47.415 29.3061 47.2918 29.0492 47.002C28.4893 46.4827 27.9122 46.2364 27.2716 46.3234C26.6844 46.4032 26.165 46.582 25.7207 46.913C25.2764 47.244 24.8999 47.6741 24.584 48.15C24.2681 48.6259 24.0734 49.1936 23.8787 49.7614C23.7374 50.3218 23.6494 50.875 23.6221 51.4741C23.5992 52.5056 23.8749 53.3341 24.4492 53.9597C25.0235 54.5853 25.8214 54.8558 26.889 54.7107C27.7504 54.6478 28.6362 54.365 29.6533 53.8479C30.6704 53.3308 31.5735 52.7751 32.4015 52.0672C32.8069 51.8498 33.1661 51.6927 33.4864 51.6492C33.8067 51.6056 34.1487 51.7216 34.4128 52.0645C34.7447 52.5066 34.7491 52.939 34.387 53.4753C34.0249 54.0116 33.4955 54.5166 32.8521 54.9829C32.1553 55.4564 31.4585 55.93 30.6939 56.3045C29.9365 56.7322 29.1574 57.0004 28.3784 57.2687C27.5921 57.4838 26.7914 57.5926 25.9762 57.5951C25.161 57.5976 24.3776 57.4335 23.672 57.0422C22.5032 56.4433 21.6648 55.4747 21.2636 54.122C20.8623 52.7693 20.7813 51.373 21.0061 49.8269C21.094 49.2737 21.2815 48.6529 21.5296 48.0779C21.7777 47.503 22.0791 46.9208 22.5018 46.4303C22.8639 45.894 23.3471 45.4494 23.8376 45.058C24.3281 44.6666 24.9398 44.367 25.5659 44.1737C26.6119 43.8692 27.6406 43.8376 28.652 44.0791C29.6634 44.3205 30.4051 44.9775 30.8626 45.9437C30.9449 46.149 30.981 46.4147 30.9565 46.6346C30.932 46.8544 30.8541 47.0815 30.6017 47.224Z" fill="black"/>
<path d="M39.7804 44.3532C39.7286 45.1721 39.6234 45.9983 39.5932 46.9766C39.5559 47.9018 39.5185 48.827 39.5807 49.6846C39.6428 50.5422 39.6978 51.3466 39.8984 52.0229C40.0457 52.7066 40.3242 53.1558 40.6344 53.4384C41.1293 53.4794 41.6876 53.1871 42.2632 52.6217C42.8388 52.0564 43.3927 51.3316 43.8716 50.4546C44.3577 49.6308 44.8293 48.7007 45.187 47.732C45.5447 46.7633 45.81 45.9153 45.9297 45.1955C45.9931 44.8621 46.0493 44.4756 46.1055 44.0891C46.1617 43.7025 46.1646 43.3233 46.1068 42.8981C46.0779 42.6855 46.2092 42.4512 46.5006 42.1951C46.792 41.939 46.9911 41.8037 47.1974 41.7216C47.3503 41.6466 47.5177 41.678 47.6923 41.7626C47.8668 41.8471 48.0948 41.9244 48.2766 42.062C48.4584 42.1997 48.6402 42.3374 48.7831 42.5886C48.9188 42.7866 49.0544 42.9847 49.0905 43.2504C49.2595 44.0935 49.4428 45.0428 49.6868 46.038C49.9308 47.0333 50.182 48.0816 50.4793 49.0696C50.7767 50.0576 51.074 51.0456 51.3714 52.0335C51.6687 53.0215 51.9444 53.85 52.2057 54.5723C52.3558 54.8767 52.2996 55.2632 52.0832 55.6714C51.8741 56.1329 51.636 56.3817 51.3302 56.5315C51.0705 56.6209 50.7964 56.6041 50.515 56.534C50.2337 56.464 49.984 56.2273 49.7806 55.9302C49.5627 55.5268 49.3909 55.063 49.2047 54.493C49.0185 53.9229 48.8251 53.2997 48.6316 52.6765C48.4382 52.0532 48.2982 51.4228 48.112 50.8527C47.9258 50.2826 47.8074 49.8116 47.7496 49.3864C47.4237 50.1885 46.9982 51.0582 46.5193 51.9351C46.0404 52.8121 45.4937 53.59 44.8864 54.322C44.2791 55.054 43.6502 55.6266 42.9534 56.1002C42.2566 56.5738 41.5237 56.7816 40.7619 56.7769C39.6192 56.7698 38.5673 55.8302 37.7057 53.8905C37.3838 53.1224 37.1543 52.2335 37.0243 51.2769C36.8943 50.3203 36.8711 49.3492 36.8478 48.3781C36.878 47.3997 36.9154 46.4745 36.96 45.6024C37.058 44.7231 37.1242 44.0105 37.2122 43.4573C37.2366 43.2375 37.3145 43.0104 37.4992 42.7688C37.6376 42.5876 37.8367 42.4523 38.0575 42.4764C38.499 42.5247 38.9088 42.7396 39.3402 43.114C39.6577 43.4497 39.8294 43.9135 39.7804 44.3532Z" fill="black"/>
<path d="M61.7807 41.4174C61.684 41.1058 61.5873 40.7942 61.4978 40.5357C61.4083 40.2773 61.2193 40.0864 60.9913 40.0092C60.4892 39.915 59.9554 39.9876 59.436 40.1664C58.9166 40.3452 58.4045 40.5772 58.0136 40.9009C57.5692 41.2319 57.2317 41.5484 56.9475 41.8577C56.6705 42.2201 56.5465 42.5076 56.522 42.7274C56.473 43.167 56.6375 43.5777 57.0084 43.9062C57.3864 44.2878 57.864 44.6018 58.5624 44.9399C59.6561 45.3866 60.757 45.8865 61.9647 46.3719C63.119 46.8646 64.1131 47.379 64.9543 47.9683C65.7883 48.5045 66.3699 49.1832 66.7451 49.9441C67.1203 50.705 67.1897 51.6157 66.8927 52.6303C66.6735 53.4179 66.1729 54.1354 65.3838 54.7297C64.5947 55.3241 63.6844 55.8267 62.7062 56.2302C61.7281 56.6338 60.6821 56.9383 59.6823 57.1824C58.6825 57.4265 57.7822 57.603 57.0811 57.6441C56.9209 57.6659 56.7002 57.6417 56.4116 57.5186C56.1302 57.4486 55.8951 57.3181 55.6526 57.1346C55.4174 57.0042 55.2284 56.8134 55.0466 56.6757C54.8576 56.4849 54.7825 56.3327 54.7681 56.2264C54.6959 55.695 54.8661 55.3471 55.3176 55.0692C55.7692 54.7914 56.2352 54.6198 56.7228 54.6077C57.4168 54.5134 58.1641 54.4118 58.9504 54.1967C59.7439 54.0347 60.4768 53.8269 61.1491 53.5732C61.8214 53.3194 62.4865 53.0126 62.9914 52.7274C63.5425 52.3819 63.8728 52.0123 64.0892 51.604C64.2594 51.2561 64.0949 50.8455 63.5494 50.4325C63.0574 50.0122 62.4052 49.6137 61.5856 49.1838C60.7661 48.7539 59.9537 48.3772 59.0274 47.9618C58.1083 47.5996 57.3494 47.2156 56.6582 46.9306C56.0132 46.5853 55.4144 46.1795 54.9152 45.7061C54.4087 45.1796 54.0479 44.525 53.8328 43.7423C53.7317 42.9983 53.798 42.2857 54.0244 41.5513C54.3042 40.8096 54.6518 40.167 55.1668 39.5558C55.6817 38.9445 56.2646 38.4323 56.9152 38.0192C57.5658 37.606 58.2915 37.345 58.9855 37.2507C60.2205 37.137 61.2853 37.3712 62.1654 37.847C63.0528 38.3759 63.656 39.2141 63.9217 40.3687C63.9794 40.7939 63.9694 41.12 63.8453 41.4075C63.7747 41.6877 63.5294 41.8834 63.2164 41.9801C62.7965 42.0913 62.469 42.0816 62.2338 41.9512C62.0059 41.8739 61.8702 41.6759 61.7807 41.4174Z" fill="black"/>
<path d="M78.3112 40.6326C78.845 40.5601 79.3932 40.5938 80.0166 40.7797C80.5865 40.9729 80.9184 41.4149 80.9978 41.9995C81.0094 42.4851 80.7859 42.8402 80.3199 43.0118C79.8539 43.1833 79.4946 43.3404 79.2205 43.3235C78.6333 43.4033 78.0461 43.4831 77.3594 43.6306C76.7188 43.7176 76.032 43.8651 75.3453 44.0125C75.4219 44.9764 75.4841 45.8339 75.5462 46.6915C75.6084 47.549 75.6489 48.2471 75.7428 48.938C75.7761 49.583 75.8483 50.1144 75.8988 50.4864C75.9566 50.9116 75.9855 51.1242 76.0389 51.1169C76.665 50.9236 77.3301 50.6167 77.9879 50.2567C78.6992 49.8894 79.4032 49.469 80.0538 49.0558C80.7578 48.6354 81.4085 48.2222 82.0519 47.7559C82.6953 47.2896 83.3459 46.8765 83.9432 46.4706C84.1884 46.2749 84.4553 46.2386 84.7295 46.2555C85.0036 46.2723 85.132 46.4173 85.2071 46.5694C85.3038 46.881 85.3009 47.2603 85.2058 47.7604C85.1106 48.2604 84.8943 48.6687 84.5712 49.0915C84.1874 49.4684 83.658 49.9733 83.0218 50.4928C82.3856 51.0122 81.6961 51.5389 80.8925 52.027C80.1423 52.5078 79.3922 52.9886 78.5742 53.3704C77.8168 53.7981 77.0911 54.0591 76.4577 54.1993C75.5041 54.383 74.7812 54.2647 74.2141 53.6923C73.6543 53.173 73.279 52.4121 73.1029 51.5159C72.9267 50.6197 72.7823 49.5568 72.6696 48.3273C72.5569 47.0977 72.4441 45.8681 72.3098 44.4791C71.7832 44.6048 71.2566 44.7305 70.7834 44.8489C70.3101 44.9674 69.8369 45.0858 69.3637 45.2042C68.99 45.255 68.5485 45.2067 68.0998 45.1053C67.6511 45.0039 67.3942 44.7141 67.322 44.1826C67.3004 44.0232 67.3176 43.7502 67.4417 43.4628C67.5657 43.1753 67.8571 42.9192 68.3159 42.6945C69.4614 42.3223 70.7743 41.9815 72.1478 41.6866C72.074 40.3435 72.0002 39.0004 71.9409 37.7636C71.8743 36.4736 71.8294 35.3431 71.799 34.3189C71.809 33.9927 71.8725 33.6594 71.9965 33.3719C72.1205 33.0844 72.3196 32.9491 72.5332 32.9201C73.0136 32.8548 73.5085 32.8958 73.9716 33.1035C74.4348 33.3112 74.6917 33.601 74.735 33.9199C74.7582 34.891 74.8031 36.0215 74.8091 37.2656C74.8684 38.5024 74.9349 39.7924 75.0015 41.0823C75.5815 40.9494 76.1081 40.8237 76.6419 40.7512C77.3041 40.8236 77.7846 40.7583 78.3112 40.6326Z" fill="black"/>
<path d="M95.5787 34.8764C96.4761 35.0792 97.2884 35.456 97.9623 36.0139C98.6362 36.5718 99.1571 37.2047 99.5857 37.9583C100.014 38.7119 100.283 39.4873 100.452 40.3304C100.621 41.1734 100.615 41.932 100.449 42.7122C100.237 43.5529 99.9185 44.4081 99.5392 45.2174C99.1598 46.0267 98.6665 46.7974 98.1054 47.469C97.5442 48.1406 96.9153 48.7132 96.1117 49.2013C95.3615 49.6821 94.4757 49.9649 93.5148 50.0954C92.3404 50.255 91.2901 50.1271 90.4099 49.6514C89.5369 49.2287 88.7953 48.5718 88.2527 47.7795C87.7101 46.9872 87.2526 46.021 87.0014 44.9726C86.7502 43.9243 86.5985 42.8082 86.6676 41.7164C86.6661 40.9047 86.7713 40.0785 86.9371 39.2982C87.1029 38.5179 87.3827 37.7763 87.7303 37.1337C88.0779 36.4911 88.4933 35.9475 89.03 35.4957C89.5666 35.0439 90.1856 34.7974 90.8795 34.7031C91.3066 34.6451 91.8014 34.6861 92.4103 34.7657C93.0192 34.8453 93.6353 34.9781 94.159 35.2317C94.5428 34.8548 94.9626 34.7436 95.5787 34.8764ZM94.3499 38.2368C94.0007 38.0677 93.591 37.8528 93.174 37.5847C92.7036 37.3239 92.3082 37.2152 91.9879 37.2587C91.6676 37.3023 91.3156 37.5125 91.0387 37.8749C90.7617 38.2372 90.492 38.6528 90.329 39.0538C90.1199 39.5152 89.9641 39.9694 89.8617 40.4163C89.7594 40.8632 89.6959 41.1966 89.6253 41.4768C89.5763 41.9165 89.5951 42.4552 89.6746 43.0398C89.7006 43.6316 89.8334 44.2089 90.0269 44.8321C90.2131 45.4022 90.4988 45.9046 90.8841 46.3394C91.2694 46.7742 91.7931 47.0278 92.516 47.146C92.9575 47.1943 93.3845 47.1363 93.9573 46.9502C94.4767 46.7714 94.9744 46.4331 95.4649 46.0417C95.9554 45.6503 96.3708 45.1067 96.7718 44.4568C97.1728 43.807 97.4598 43.1185 97.6256 42.3382C97.777 41.4516 97.7148 40.594 97.3251 39.7269C96.9355 38.8597 96.315 38.2945 95.4031 37.9854C95.2112 38.1739 95.0049 38.256 94.8448 38.2778C94.6313 38.3068 94.4639 38.2754 94.3499 38.2368Z" fill="black"/>
<path d="M105.781 34.7348C105.846 35.2131 105.971 35.7373 106.172 36.4137C106.319 37.0973 106.52 37.7737 106.674 38.5104C106.882 39.2399 107.029 39.9236 107.237 40.6531C107.438 41.3294 107.585 42.013 107.771 42.5831C108.005 41.9019 108.277 41.1071 108.635 40.1383C108.993 39.1696 109.35 38.2009 109.723 37.3384C110.141 36.4156 110.527 35.6594 110.982 35.0023C111.436 34.3452 111.88 34.0142 112.308 33.9562C112.788 33.8909 113.244 34.0454 113.683 34.4729C114.114 34.8473 114.514 35.3884 114.913 35.9294C115.267 36.5309 115.628 37.1855 115.935 37.8473C116.243 38.5092 116.489 39.1252 116.729 39.688C116.785 39.3015 116.888 38.8546 117.036 38.3472C117.185 37.8399 117.28 37.3399 117.482 36.8253C117.63 36.318 117.825 35.7503 118.027 35.2357C118.229 34.7212 118.491 34.2525 118.761 33.837C119.084 33.4142 119.468 33.0373 119.873 32.8198C120.279 32.6023 120.585 32.4525 120.798 32.4235C121.065 32.3873 121.4 32.45 121.742 32.5659C122.137 32.6746 122.54 32.8364 122.896 33.0586C123.306 33.2735 123.723 33.5416 124.094 33.8701C124.464 34.1986 124.782 34.5343 125.046 34.8773C125.528 35.6237 125.964 36.4305 126.353 37.2976C126.69 38.1721 127.026 39.0465 127.241 39.8292C127.463 40.6649 127.611 41.3486 127.758 42.0322C127.898 42.6627 127.963 43.141 128.045 43.3463C128.096 43.7183 128.079 43.9913 128.001 44.2183C127.916 44.3923 127.777 44.5735 127.578 44.7088C127.279 44.9117 127.02 45.0011 126.799 44.977C126.578 44.9529 126.35 44.8756 126.229 44.7838C126.047 44.6462 125.919 44.5012 125.844 44.3491C125.708 44.151 125.633 43.9988 125.619 43.8925C125.425 43.2693 125.278 42.5857 125.077 41.9093C124.877 41.233 124.683 40.6097 124.483 39.9334C124.289 39.3102 124.05 38.7473 123.863 38.1773C123.624 37.6144 123.399 37.1579 123.181 36.7545C123.113 36.6555 122.984 36.5106 122.849 36.3125C122.713 36.1144 122.531 35.9768 122.35 35.8391C122.168 35.7014 121.986 35.5637 121.865 35.472C121.69 35.3874 121.569 35.2957 121.516 35.3029C121.249 35.3392 120.964 35.6484 120.716 36.2234C120.468 36.7984 120.235 37.4796 120.069 38.2599C119.903 39.0402 119.691 39.8809 119.586 40.707C119.427 41.5405 119.361 42.2531 119.334 42.8522C119.435 43.5962 119.347 44.1494 119.131 44.5577C118.914 44.966 118.616 45.1689 118.295 45.2124C117.975 45.256 117.64 45.1932 117.23 44.9783C116.821 44.7633 116.571 44.5266 116.421 44.2222C116.196 43.7657 115.917 43.3164 115.678 42.7536C115.385 42.198 115.092 41.6425 114.852 41.0797C114.559 40.5241 114.266 39.9685 113.973 39.413C113.68 38.8574 113.402 38.4081 113.177 37.9516C112.822 38.541 112.528 39.1764 112.248 39.9181C111.968 40.6597 111.681 41.3482 111.401 42.0899C111.121 42.8315 110.895 43.5659 110.608 44.2544C110.382 44.9888 110.141 45.6169 109.885 46.1387C109.715 46.4866 109.538 46.7813 109.36 47.0761C109.183 47.3708 108.931 47.5134 108.61 47.5569C108.397 47.5859 108.115 47.5159 107.82 47.3396C107.524 47.1633 107.274 46.9266 106.964 46.644C106.707 46.3541 106.443 46.0111 106.179 45.6681C105.961 45.2648 105.75 44.9145 105.639 44.4966C105.259 43.3033 104.858 41.9506 104.556 40.5302C104.194 39.0639 103.892 37.6436 103.544 36.2836C103.479 35.8053 103.468 35.3197 103.577 34.926C103.68 34.4791 103.964 34.1698 104.369 33.9524C104.835 33.7808 105.223 33.8363 105.519 34.0126C105.451 33.9136 105.662 34.2638 105.781 34.7348Z" fill="black"/>
</svg>
