<svg width="11" height="182" viewBox="0 0 11 182" fill="none" xmlns="http://www.w3.org/2000/svg">
<path d="M8.92457 0.911778C8.34056 0.518017 7.53754 0.255511 6.80752 0.124257C5.8585 -0.0069964 4.83648 -0.0726231 3.88745 0.124257C2.79243 0.386764 1.91641 0.911778 1.33239 1.6993C1.04039 2.02743 0.821382 2.42119 0.74838 2.81495C0.529375 3.53685 0.675378 4.19311 0.967385 4.84938C1.18639 5.24314 1.6974 5.57128 2.06241 5.6369C2.13541 5.6369 2.20841 5.6369 2.35442 5.70253C2.20841 5.76816 2.13541 5.89941 2.06241 5.96504C1.84341 6.3588 1.6974 6.81818 1.84341 7.21194C1.98941 7.67133 2.28142 7.93384 2.64642 8.19635C2.86543 8.3276 3.08443 8.45885 3.30344 8.59011C2.57342 25.8499 2.42731 106.953 2.79232 124.212C2.86532 128.347 4.03334 173.433 4.10635 173.433C4.03334 173.433 3.96034 173.433 3.88734 173.433C2.86532 173.433 1.91629 173.695 1.18628 174.351C0.383259 175.008 0.0912521 175.992 0.0182504 176.911C-0.0547513 177.764 0.0912521 178.617 0.456261 179.405C1.18628 180.848 2.86532 181.767 4.61736 181.833C5.56638 181.898 6.3694 181.636 7.24542 181.308C8.12144 180.98 8.92446 180.52 9.36247 179.733C9.58147 179.339 9.72748 178.945 9.87348 178.551C9.94648 178.092 10.0925 177.633 10.0925 177.173C10.0925 176.517 9.87348 175.926 9.50847 175.401C9.28947 175.139 9.07046 174.942 8.77845 174.745C8.41345 174.548 8.12144 174.483 7.68343 174.417C8.34044 168.511 8.12144 162.538 7.75643 156.632C7.17242 146.132 6.73441 135.566 6.5154 125C6.2234 118.569 5.42038 89.5 6.15051 41.9941C6.15051 37.8596 6.15051 33.6595 6.22351 29.525C6.36951 22.6999 6.51552 15.8747 6.88052 9.11512C7.24553 8.98387 7.61054 8.85261 7.97555 8.72136C8.77857 8.3276 9.43558 7.86821 10.0196 7.21194C10.6036 6.55568 10.8226 5.76816 10.9686 4.98064C11.1876 3.33997 10.2386 1.83055 8.92457 0.911778ZM6.15039 177.961C6.15039 178.026 6.15039 178.026 6.07739 178.092C6.07739 178.092 6.07739 178.158 6.00439 178.158C5.93139 178.158 5.93139 178.223 5.85839 178.223C5.78538 178.223 5.71238 178.289 5.63938 178.289C5.34737 178.42 4.98237 178.486 4.69036 178.551C4.61736 178.551 4.54436 178.551 4.47135 178.551C4.39835 178.551 4.32535 178.551 4.25235 178.486H4.17935C4.10635 178.42 3.96034 178.42 3.88734 178.355L3.81434 178.289C3.74134 178.223 3.74134 178.223 3.66834 178.158C3.66834 178.158 3.66834 178.158 3.66834 178.092C3.66834 178.026 3.59533 178.026 3.59533 177.961C3.59533 177.895 3.59533 177.895 3.59533 177.895C3.59533 177.83 3.59533 177.698 3.52233 177.633C3.52233 177.436 3.52233 177.305 3.52233 177.108C3.52233 176.976 3.59533 176.911 3.59533 176.779C3.59533 176.779 3.59533 176.779 3.66834 176.779C3.81434 176.779 4.03334 176.779 4.17935 176.779C4.61736 176.845 4.98237 176.911 5.42038 176.976C5.56638 176.976 5.78539 177.042 5.93139 177.042C6.00439 177.108 6.00439 177.108 6.07739 177.173C6.15039 177.239 6.2964 177.305 6.3694 177.37C6.2964 177.501 6.2234 177.764 6.15039 177.961ZM7.31853 4.58687C7.31853 4.71813 7.24553 4.78376 7.24553 4.91501V4.98064C7.17253 5.04626 7.17253 5.11189 7.09953 5.17752C7.09953 5.17752 7.09953 5.17752 7.09953 5.24314C6.95353 5.30877 6.88052 5.3744 6.80752 5.44002C6.66152 5.50565 6.58852 5.57128 6.44251 5.6369C6.36951 5.70253 6.22351 5.76816 6.0775 5.83378C6.0045 5.83378 6.0045 5.83378 5.9315 5.89941C5.9315 5.89941 5.8585 5.89941 5.8585 5.96504C5.63949 6.03066 5.8585 5.96504 5.9315 5.96504C5.8585 5.89941 5.7125 5.96504 5.63949 5.96504C5.56649 5.96504 5.49349 5.89941 5.42049 5.89941C5.42049 5.89941 5.42049 5.89941 5.34749 5.89941C5.05548 5.76816 4.83648 5.6369 4.54447 5.44002C4.39847 5.30877 4.10646 5.24314 3.88745 5.24314C4.39847 4.78375 4.47147 4.19311 4.32546 3.60247C4.39847 3.53685 4.39847 3.53685 4.47147 3.47122H4.54447C4.54447 3.47122 4.61747 3.47122 4.69047 3.40559C4.76347 3.40559 4.83648 3.33997 4.90948 3.33997C4.90948 3.33997 4.98248 3.33997 5.05548 3.33997C5.12848 3.33997 5.27449 3.33997 5.34749 3.33997C5.56649 3.33997 5.7855 3.33997 6.0775 3.40559C6.15051 3.40559 6.15051 3.40559 6.22351 3.40559C6.36951 3.40559 6.44251 3.47122 6.58852 3.47122C6.66152 3.53685 6.80752 3.60247 6.88052 3.60247C6.95353 3.6681 7.02653 3.73373 7.09953 3.79935L7.17253 3.86498C7.17253 3.93061 7.17253 3.99623 7.24553 4.06186C7.24553 4.06186 7.24553 4.06186 7.24553 4.12749C7.24553 4.19311 7.31853 4.25874 7.31853 4.32437C7.31853 4.38999 7.31853 4.39 7.31853 4.45562C7.31853 4.52125 7.31853 4.58687 7.31853 4.58687Z" fill="#F1C527"/>
</svg>
