<svg width="144" height="48" viewBox="0 0 144 48" fill="none" xmlns="http://www.w3.org/2000/svg">
<path d="M11.5074 13.5123C11.7248 14.3189 11.9316 15.1764 12.1167 16.0861C12.3025 17.0013 12.4771 17.9178 12.6313 18.8533C12.7905 19.7827 12.9237 20.6877 13.0247 21.5634C13.1313 22.4385 13.2107 23.2342 13.267 23.9388C14.3093 24.4751 14.96 24.9758 15.2148 25.4524C15.4695 25.9291 15.5477 26.3609 15.4395 26.76C15.3214 27.3037 15.0311 27.6144 14.5616 27.682C14.0976 27.7489 13.5392 27.6562 12.8975 27.4026C12.5084 27.7418 12.0666 28.1149 11.559 28.5069C11.0577 28.9037 10.5214 29.2937 9.95427 29.6653C9.38782 30.0424 8.81648 30.3815 8.24027 30.6825C7.66406 30.9835 7.12364 31.2086 6.62461 31.3569C5.67843 31.6143 4.78574 31.5343 3.95913 31.1265C3.13252 30.7187 2.52053 30.0313 2.12876 29.0638C1.86852 28.4113 1.74004 27.7208 1.74402 26.9979C1.74731 26.2695 1.88934 25.5575 2.1757 24.8612C2.45646 24.1656 2.87945 23.5135 3.43483 22.9171C3.99022 22.3208 4.67307 21.8304 5.48269 21.4406C5.68458 21.3281 5.96705 21.2223 6.34131 21.1221C6.70997 21.0226 7.09963 20.9536 7.51099 20.9206C7.92235 20.8875 8.34277 20.9251 8.78768 21.0205C9.22768 21.1219 9.65219 21.3244 10.0563 21.6342C9.99848 21.1393 9.92247 20.5915 9.83387 19.99C9.74598 19.3939 9.65108 18.7877 9.54427 18.1773C9.43746 17.567 9.33554 16.9947 9.22097 16.457C9.11201 15.9186 9.003 15.4685 8.89814 15.0951C8.7856 14.6619 8.57695 14.4113 8.27778 14.3425C7.9786 14.2738 7.62749 14.3326 7.22023 14.5306C6.52628 14.8458 5.73127 15.3938 4.84711 16.1787C3.96295 16.9635 3.12852 17.781 2.34522 18.6419C2.10397 18.9357 1.81025 19.0869 1.45847 19.0962C1.1067 19.1054 0.798431 19.0102 0.526682 18.8003C0.25563 18.5958 0.0862199 18.3405 0.024058 18.0336C-0.0437104 17.7274 0.0378028 17.3867 0.2679 17.006C0.716765 16.4225 1.22521 15.8153 1.79393 15.1897C2.36265 14.5642 2.96567 13.9842 3.60301 13.4497C4.24104 12.9206 4.90564 12.4655 5.59753 12.0899C6.28941 11.7142 6.99242 11.4696 7.71286 11.3608C8.76408 11.2121 9.60698 11.3477 10.2409 11.7622C10.8755 12.1821 11.2976 12.7655 11.5074 13.5123ZM7.39082 23.5326C7.00953 23.6668 6.61766 23.896 6.20961 24.2209C5.80787 24.5505 5.45234 24.9298 5.15493 25.3627C4.85753 25.7956 4.6498 26.2618 4.54365 26.7654C4.4375 27.269 4.48694 27.7429 4.69266 28.1924C4.77103 28.3594 4.91741 28.4797 5.12479 28.5429C5.33216 28.6062 5.5536 28.6016 5.79262 28.5121C6.49772 28.2838 7.2863 27.9076 8.15768 27.3779C9.02906 26.8483 9.70564 26.3091 10.186 25.7493C10.1637 25.5756 10.0447 25.3583 9.83538 25.1022C9.62042 24.8468 9.37673 24.5894 9.1001 24.3415C8.82347 24.0935 8.53421 23.8802 8.22179 23.7083C7.90377 23.537 7.62841 23.4764 7.39082 23.5326Z" fill="#F1C527"/>
<path d="M19.5548 14.3795C19.701 14.8086 19.8534 15.2865 20.0241 15.8175C20.1947 16.3484 20.3723 16.8896 20.5633 17.4457C20.7542 18.0017 20.929 18.5653 21.0884 19.1417C21.2478 19.7181 21.3918 20.2633 21.5155 20.7834C21.7886 19.9839 22.0835 19.1321 22.4015 18.239C22.7195 17.3459 23.0901 16.5071 23.4977 15.7355C23.911 14.9632 24.3683 14.3125 24.869 13.7779C25.3704 13.2488 25.9515 12.9416 26.6193 12.8667C27.6124 12.7526 28.4937 13.0104 29.2571 13.6354C30.0205 14.2604 30.699 15.0666 31.2919 16.0485C31.8855 17.0359 32.3837 18.0789 32.7936 19.1877C33.2035 20.2965 33.5518 21.2803 33.8385 22.1392C34.1134 22.9058 33.8243 23.5362 32.9635 24.0149C32.5632 24.2672 32.2527 24.3322 32.0208 24.2112C31.789 24.0902 31.6524 23.9578 31.6056 23.8145C31.4089 23.4797 31.1507 22.8876 30.8191 22.0341C30.4875 21.1806 30.1209 20.3203 29.7298 19.4464C29.333 18.5732 28.9117 17.8188 28.472 17.1879C28.0268 16.5577 27.5834 16.2967 27.1362 16.4057C26.5959 16.4984 26.1639 16.9475 25.8291 17.7544C25.5428 18.4066 25.2543 19.1307 24.9686 19.9207C24.6829 20.7107 24.4041 21.5108 24.1331 22.3266C23.8621 23.1424 23.6023 23.9568 23.3481 24.7706C23.0938 25.5843 22.8537 26.3302 22.6332 27.0075C22.446 27.2341 22.2006 27.4071 21.8901 27.5162C21.5796 27.6253 21.2572 27.642 20.9111 27.5624C20.5965 27.5065 20.3366 27.3889 20.1307 27.2042C19.9248 27.0194 19.8086 26.8238 19.7828 26.6229C19.2377 24.3722 18.7079 22.3293 18.1927 20.4887C17.6775 18.6481 17.0789 16.7789 16.3899 14.871C16.0961 14.2225 15.9941 13.6943 16.0834 13.281C16.1733 12.8731 16.5967 12.6676 17.3654 12.6688C18.4488 12.7258 19.1765 13.2945 19.5548 14.3795Z" fill="#F1C527"/>
<path d="M42.5658 3.90872C42.4141 3.39203 42.3913 2.90395 42.5037 2.4492C42.6161 1.99446 42.926 1.70344 43.4348 1.587C43.882 1.47799 44.2954 1.54952 44.675 1.8016C45.0547 2.05368 45.3228 2.41295 45.4668 2.86989C46.4758 6.16214 47.4435 9.44283 48.374 12.7004C49.2989 15.9587 50.1706 19.1572 50.9779 22.2972C51.1988 23.131 51.211 23.7141 51.0033 24.0479C50.7957 24.3818 50.5391 24.6443 50.2264 24.8254C49.8801 25.0105 49.5437 25.051 49.2053 24.9429C48.8726 24.834 48.6366 24.5922 48.4981 24.2229L48.4191 23.9621L48.2452 24.0272C47.2912 24.4896 46.2728 24.8053 45.1957 24.9736C44.1129 25.1426 43.0583 25.1318 42.0276 24.9526C40.9969 24.7735 40.0547 24.3961 39.2072 23.8254C38.3596 23.2546 37.7078 22.4783 37.2508 21.491C36.2551 19.3222 36.4639 17.2234 37.8661 15.196C38.47 14.3567 39.2462 13.5738 40.1997 12.8413C41.1532 12.1087 42.3316 11.487 43.7404 10.9753L44.5317 10.7091L42.5658 3.90872ZM39.8824 20.0821C40.1461 20.7617 40.5466 21.265 41.0726 21.5932C41.5987 21.9214 42.2033 22.1078 42.8879 22.1632C43.5669 22.2193 44.2768 22.1614 45.0232 21.9887C45.7696 21.8161 46.4894 21.5694 47.1833 21.2542L47.5759 21.0746L45.3792 13.4968L44.4981 13.8181C43.8862 14.0627 43.2476 14.4099 42.5823 14.8595C41.9163 15.3037 41.3435 15.8084 40.8575 16.3688C40.3715 16.9292 40.027 17.5278 39.8143 18.1766C39.5959 18.8261 39.62 19.4574 39.8824 20.0821Z" fill="#F1C527"/>
<path d="M67.4443 9.2727C67.5323 9.73639 67.651 10.3067 67.8125 10.9876C67.9676 11.6638 68.1381 12.3713 68.3184 13.1106C68.498 13.8446 68.6825 14.5724 68.8775 15.2934C69.0726 16.0144 69.248 16.6717 69.4165 17.2746C69.6706 16.5932 69.9851 15.7611 70.353 14.7682C70.7215 13.7808 71.1223 12.8225 71.5447 11.9003C71.9672 10.978 72.4232 10.1841 72.9079 9.52456C73.3925 8.86504 73.8643 8.50488 74.3136 8.45629C74.7964 8.40364 75.2686 8.57839 75.7308 8.98598C76.193 9.39356 76.611 9.90023 76.9911 10.5107C77.3712 11.1212 77.7177 11.7799 78.0297 12.4813C78.3425 13.1882 78.6105 13.8122 78.8273 14.3486C78.9019 13.9536 79.0094 13.5049 79.1443 13.0034C79.2847 12.5011 79.4344 11.9812 79.5987 11.443C79.763 10.9048 79.9568 10.3741 80.1849 9.84476C80.413 9.31542 80.6655 8.84379 80.9531 8.4231C81.2933 7.9685 81.6817 7.6239 82.1115 7.37911C82.5419 7.13976 82.8608 7.00758 83.0738 6.98192C83.3429 6.94951 83.6793 6.99723 84.0758 7.11492C84.4724 7.2326 84.8815 7.40392 85.3081 7.62277C85.7291 7.84229 86.1395 8.11272 86.5289 8.44084C86.9183 8.76896 87.2468 9.10993 87.503 9.46511C88.0197 10.2081 88.4613 11.0318 88.8335 11.9355C89.2001 12.8399 89.5001 13.7138 89.721 14.5475C89.9419 15.3812 90.1172 16.1267 90.2408 16.7791C90.3644 17.4316 90.4573 17.8891 90.5188 18.1465C90.562 18.5273 90.5534 18.8151 90.4881 19.016C90.4228 19.2169 90.2741 19.3892 90.0477 19.5323C89.7351 19.7134 89.4498 19.7974 89.2031 19.783C88.9565 19.7685 88.7477 19.6944 88.5831 19.5653C88.4129 19.4369 88.2736 19.2828 88.1595 19.1035C88.0454 18.9242 87.9677 18.7626 87.9152 18.62C87.7447 17.9567 87.5616 17.2839 87.37 16.59C87.1792 15.9015 86.9855 15.2355 86.7827 14.5871C86.5806 13.9441 86.3673 13.3466 86.1315 12.7959C85.8957 12.2453 85.6627 11.7604 85.4268 11.3421C85.3505 11.2355 85.235 11.0895 85.076 10.9156C84.9171 10.7417 84.742 10.5753 84.5571 10.4211C84.3715 10.2615 84.1957 10.1337 84.0297 10.0379C83.863 9.93666 83.7474 9.87889 83.6872 9.85306C83.3844 9.88952 83.099 10.1941 82.8317 10.7723C82.5643 11.3505 82.3277 12.0353 82.1169 12.8328C81.9062 13.6303 81.722 14.4577 81.5652 15.3203C81.4084 16.183 81.3084 16.912 81.2547 17.5141C81.3467 18.2751 81.2615 18.8534 81.0055 19.2538C80.7494 19.6541 80.4529 19.8718 80.1221 19.9117C79.7913 19.9515 79.4214 19.8637 79.0137 19.6592C78.606 19.4546 78.3224 19.1964 78.1635 18.8902C77.9241 18.4447 77.6659 17.9409 77.3832 17.3793C77.1004 16.8178 76.8107 16.246 76.5126 15.6532C76.2096 15.0665 75.9136 14.49 75.614 13.9305C75.3145 13.3709 75.0338 12.8698 74.7664 12.4277C74.4114 13.033 74.069 13.6919 73.7455 14.4092C73.422 15.1265 73.1118 15.8588 72.8148 16.606C72.5235 17.3525 72.2421 18.0868 71.9823 18.813C71.7169 19.5399 71.4635 20.1826 71.2284 20.7458C71.0565 21.0919 70.8629 21.402 70.6532 21.6755C70.4435 21.9489 70.168 22.1089 69.8365 22.1434C69.5954 22.1724 69.3229 22.0894 69.0252 21.8991C68.7275 21.7089 68.4348 21.4684 68.1582 21.1763C67.876 20.8849 67.6155 20.5413 67.3719 20.1515C67.1227 19.7624 66.9359 19.3713 66.7932 18.9693C66.4023 17.7424 66.0283 16.3811 65.6838 14.895C65.3337 13.4095 64.999 11.9552 64.6748 10.5383C64.5834 10.0475 64.597 9.57707 64.7108 9.13319C64.8246 8.68931 65.1135 8.36773 65.5832 8.16777C66.0885 8.02417 66.4851 8.05361 66.7842 8.25473C67.1092 8.43618 67.3192 8.7859 67.4443 9.2727Z" fill="#F1C527"/>
<path d="M103.908 3.06049C104.126 3.86707 104.332 4.72455 104.518 5.63429C104.703 6.54946 104.878 7.46599 105.032 8.4015C105.191 9.33091 105.325 10.2359 105.426 11.1116C105.532 11.9867 105.612 12.7823 105.668 13.487C106.71 14.0232 107.361 14.5239 107.616 15.0006C107.87 15.4773 107.949 15.9091 107.84 16.3082C107.723 16.8573 107.432 17.1626 106.962 17.2301C106.499 17.2971 105.94 17.2044 105.298 16.9508C104.909 17.29 104.467 17.663 103.96 18.0551C103.459 18.4519 102.922 18.8419 102.355 19.2135C101.789 19.5906 101.217 19.9296 100.641 20.2307C100.065 20.5317 99.5245 20.7568 99.0255 20.9051C98.0793 21.1625 97.1866 21.0825 96.36 20.6747C95.5334 20.2669 94.9214 19.5795 94.5303 18.6174C94.2701 17.9649 94.1416 17.2744 94.1456 16.5515C94.1489 15.8231 94.2909 15.1111 94.5773 14.4148C94.858 13.7192 95.281 13.0671 95.8364 12.4707C96.3918 11.8744 97.0746 11.384 97.8843 10.9942C98.0861 10.8817 98.3686 10.7759 98.7429 10.6757C99.1115 10.5762 99.5012 10.5072 99.9125 10.4742C100.324 10.4411 100.744 10.4787 101.189 10.5741C101.629 10.67 102.054 10.878 102.458 11.1878C102.4 10.6929 102.324 10.1451 102.235 9.54358C102.148 8.94751 102.053 8.34126 101.946 7.73093C101.839 7.1206 101.737 6.54829 101.623 6.01059C101.514 5.47221 101.405 5.02208 101.3 4.64866C101.187 4.2155 100.979 3.96489 100.679 3.89614C100.38 3.82739 100.029 3.88623 99.6218 4.08419C98.9278 4.39941 98.1328 4.94741 97.2487 5.73225C96.3645 6.5171 95.5301 7.33456 94.7468 8.1955C94.5055 8.48928 94.2118 8.64048 93.86 8.64976C93.5083 8.65905 93.2 8.56382 92.9282 8.35389C92.6572 8.1494 92.4878 7.89405 92.4256 7.58718C92.3586 7.28642 92.4394 6.94027 92.6695 6.5596C93.1183 5.97609 93.6268 5.36886 94.1955 4.74333C94.7642 4.11781 95.3672 3.53779 96.0046 3.00328C96.6426 2.47419 97.3072 2.01912 97.9991 1.64348C98.691 1.26784 99.3947 1.02866 100.114 0.914388C101.166 0.765703 102.009 0.901315 102.642 1.31579C103.276 1.73027 103.698 2.31365 103.908 3.06049ZM99.7924 13.0862C99.4111 13.2204 99.0192 13.4496 98.6112 13.7745C98.2094 14.1041 97.8539 14.4834 97.5565 14.9163C97.2591 15.3492 97.0514 15.8154 96.9452 16.319C96.8391 16.8226 96.8885 17.2965 97.0942 17.746C97.1726 17.913 97.319 18.0333 97.5263 18.0965C97.7337 18.1598 97.9545 18.1498 98.1886 18.0664C98.8937 17.8381 99.6823 17.4618 100.554 16.9322C101.425 16.4026 102.102 15.8634 102.582 15.3036C102.56 15.1298 102.441 14.9125 102.231 14.6565C102.016 14.4011 101.773 14.1437 101.496 13.8957C101.219 13.6478 100.93 13.4345 100.618 13.2625C100.305 13.0852 100.03 13.03 99.7924 13.0862Z" fill="#F1C527"/>
<path d="M111.95 3.92831C112.096 4.35742 112.249 4.83541 112.419 5.36636C112.59 5.8973 112.767 6.43844 112.958 6.99451C113.149 7.55059 113.325 8.11956 113.484 8.69055C113.643 9.26697 113.787 9.81216 113.911 10.3322C114.184 9.53273 114.479 8.68099 114.797 7.78785C115.115 6.89472 115.485 6.05592 115.893 5.28435C116.306 4.51211 116.763 3.8614 117.264 3.3268C117.765 2.79763 118.347 2.49048 119.014 2.41555C120.007 2.30145 120.889 2.55927 121.652 3.18427C122.416 3.80927 123.094 4.61546 123.687 5.59741C124.281 6.58479 124.779 7.62777 125.189 8.73655C125.599 9.84533 125.947 10.8292 126.234 11.6881C126.509 12.4601 126.219 13.0851 125.359 13.5638C124.958 13.8161 124.648 13.881 124.416 13.7601C124.184 13.6391 124.048 13.5066 124.001 13.3634C123.804 13.0286 123.546 12.4365 123.214 11.583C122.883 10.7295 122.516 9.8692 122.125 8.99531C121.728 8.12209 121.307 7.36765 120.867 6.73675C120.422 6.10652 119.978 5.84558 119.531 5.95459C118.991 6.04725 118.559 6.49636 118.224 7.30327C117.938 7.95545 117.649 8.67957 117.364 9.46955C117.078 10.2595 116.799 11.0597 116.528 11.8755C116.257 12.6912 115.997 13.5057 115.743 14.3194C115.489 15.1332 115.249 15.879 115.028 16.5564C114.841 16.783 114.596 16.9559 114.285 17.065C113.975 17.1741 113.652 17.1855 113.306 17.1113C112.992 17.0554 112.732 16.9378 112.526 16.753C112.32 16.5683 112.204 16.3727 112.178 16.1717C111.633 13.9211 111.103 11.8782 110.588 10.0376C110.073 8.19695 109.474 6.32777 108.785 4.41984C108.491 3.77138 108.389 3.24319 108.478 2.82984C108.568 2.42192 108.992 2.2165 109.761 2.21766C110.849 2.27401 111.578 2.84807 111.95 3.92831Z" fill="#F1C527"/>
<path d="M142.365 1.15801C142.647 2.72898 142.935 4.31015 143.237 5.90625C143.538 7.50236 143.748 9.08755 143.88 10.6544C144.008 12.2273 144.035 13.7682 143.957 15.2887C143.879 16.8093 143.624 18.2849 143.181 19.7115C142.738 21.1381 142.087 22.496 141.216 23.7812C140.345 25.0663 139.2 26.2631 137.771 27.3727C137.549 27.5484 137.296 27.6616 137.008 27.7239C136.726 27.7855 136.444 27.8084 136.169 27.7973C135.895 27.7863 135.644 27.7393 135.417 27.6618C135.191 27.5842 135.038 27.4593 134.96 27.2922C134.837 27.0423 134.85 26.743 134.988 26.4009C135.132 26.0582 135.392 25.6905 135.774 25.2915C136.985 24.175 137.976 23.0243 138.753 21.8443C139.528 20.6589 140.114 19.4082 140.502 18.0874C140.897 16.7714 141.086 15.3643 141.07 13.8662C141.061 12.3727 140.853 10.7543 140.465 9.01965C140.157 9.49803 139.789 10.0001 139.36 10.5205C138.932 11.0463 138.469 11.5212 137.972 11.9452C137.474 12.3746 136.952 12.7408 136.406 13.0548C135.86 13.3687 135.332 13.5537 134.821 13.6097C134.399 13.6549 133.962 13.6194 133.519 13.4908C133.075 13.3622 132.612 13.0762 132.133 12.6265C131.577 12.0647 131.061 11.4209 130.592 10.6888C130.122 9.95675 129.705 9.24033 129.348 8.53889C128.99 7.83744 128.687 7.20662 128.455 6.63897C128.217 6.07201 128.069 5.67616 128.011 5.446C127.918 5.15948 127.882 4.8825 127.91 4.61438C127.939 4.34626 128.114 4.15969 128.443 4.06486C128.886 3.92327 129.311 3.9052 129.723 4.01C130.134 4.10936 130.434 4.31592 130.621 4.61879C130.78 4.92504 131.006 5.40511 131.3 6.05357C131.594 6.70203 131.932 7.33966 132.308 7.9617C132.69 8.58306 133.084 9.12569 133.49 9.58415C133.896 10.0426 134.298 10.2479 134.691 10.206C135.146 10.1568 135.651 9.87535 136.217 9.36591C136.784 8.85647 137.311 8.21938 137.799 7.45465C138.288 6.68992 138.687 5.85318 138.985 4.94034C139.29 4.03227 139.39 3.1709 139.29 2.35014C139.268 2.17635 139.275 1.96592 139.307 1.72495C139.339 1.48399 139.4 1.25051 139.495 1.01298C139.59 0.780883 139.711 0.573238 139.854 0.396154C140.002 0.218394 140.163 0.0997016 140.339 0.0509361C140.814 -0.061452 141.262 0.0114618 141.672 0.276459C142.099 0.544862 142.324 0.837576 142.365 1.15801Z" fill="#F1C527"/>
<path d="M54.4126 35.1237C54.5006 35.5874 54.6193 36.1576 54.7808 36.8386C54.9359 37.5148 55.1064 38.2223 55.2867 38.9616C55.4663 39.6955 55.6508 40.4234 55.8458 41.1444C56.0409 41.8654 56.2163 42.5226 56.3848 43.1255C56.6389 42.4442 56.9534 41.6121 57.3212 40.6192C57.6898 39.6318 58.0905 38.6735 58.513 37.7512C58.9355 36.829 59.3915 36.035 59.8762 35.3755C60.3608 34.716 60.8326 34.3559 61.2818 34.3073C61.7647 34.2546 62.2369 34.4294 62.6991 34.837C63.1613 35.2445 63.5793 35.7512 63.9594 36.3617C64.3395 36.9722 64.686 37.6309 64.998 38.3323C65.3108 39.0392 65.5788 39.6632 65.7956 40.1996C65.8702 39.8045 65.9777 39.3559 66.1126 38.8543C66.253 38.3521 66.4026 37.8322 66.567 37.294C66.7313 36.7558 66.9251 36.2251 67.1532 35.6957C67.3813 35.1664 67.6338 34.6948 67.9214 34.2741C68.2616 33.8195 68.65 33.4749 69.0797 33.2301C69.5102 32.9907 69.8291 32.8586 70.0421 32.8329C70.3112 32.8005 70.6476 32.8482 71.0441 32.9659C71.4406 33.0836 71.8498 33.2549 72.2764 33.4737C72.6974 33.6933 73.1078 33.9637 73.4972 34.2918C73.8866 34.6199 74.215 34.9609 74.4713 35.3161C74.9879 36.059 75.4296 36.8827 75.8018 37.7865C76.1683 38.6909 76.4684 39.5647 76.6893 40.3985C76.9101 41.2322 77.0855 41.9777 77.2091 42.6301C77.3327 43.2825 77.4256 43.7401 77.4871 43.9974C77.5303 44.3783 77.5217 44.6661 77.4564 44.867C77.3911 45.0679 77.2424 45.2402 77.016 45.3833C76.7033 45.5643 76.4181 45.6483 76.1714 45.6339C75.9248 45.6195 75.716 45.5454 75.5514 45.4163C75.3812 45.2879 75.2419 45.1337 75.1278 44.9545C75.0137 44.7752 74.936 44.6136 74.8835 44.471C74.713 43.8077 74.5299 43.1348 74.3383 42.441C74.1475 41.7525 73.9538 41.0865 73.751 40.4381C73.5489 39.7951 73.3356 39.1976 73.0998 38.6469C72.864 38.0962 72.631 37.6114 72.3951 37.1931C72.3188 37.0865 72.2033 36.9405 72.0443 36.7666C71.8854 36.5927 71.7103 36.4263 71.5254 36.2721C71.3398 36.1124 71.164 35.9847 70.998 35.8889C70.8313 35.7876 70.7157 35.7299 70.6555 35.704C70.3527 35.7405 70.0673 36.0451 69.8 36.6233C69.5326 37.2015 69.296 37.8863 69.0852 38.6838C68.8745 39.4813 68.6903 40.3086 68.5335 41.1713C68.3766 42.034 68.2767 42.763 68.223 43.3651C68.315 44.1261 68.2298 44.7044 67.9738 45.1048C67.7177 45.5051 67.4212 45.7228 67.0904 45.7627C66.7596 45.8025 66.3897 45.7147 65.982 45.5101C65.5743 45.3055 65.2907 45.0474 65.1318 44.7412C64.8924 44.2957 64.6342 43.7919 64.3515 43.2303C64.0688 42.6687 63.779 42.097 63.4809 41.5042C63.1835 40.9168 62.8818 40.341 62.5823 39.7814C62.2827 39.2219 62.0021 38.7208 61.7347 38.2787C61.3797 38.884 61.0373 39.5429 60.7138 40.2602C60.3847 40.9782 60.08 41.7098 59.7831 42.457C59.4918 43.2035 59.2103 43.9378 58.9506 44.664C58.6852 45.3909 58.4318 46.0335 58.1967 46.5968C58.0248 46.9429 57.8312 47.253 57.6215 47.5264C57.4118 47.7999 57.1363 47.9599 56.8048 47.9943C56.5637 48.0234 56.2912 47.9404 55.9935 47.7501C55.6958 47.5599 55.4031 47.3194 55.1265 47.0273C54.8443 46.7359 54.5838 46.3923 54.3402 46.0025C54.091 45.6134 53.9041 45.2222 53.7615 44.8203C53.3706 43.5934 52.9966 42.2321 52.6521 40.746C52.302 39.2605 51.9673 37.8062 51.6431 36.3893C51.5517 35.8985 51.5653 35.428 51.6791 34.9842C51.7929 34.5403 52.0818 34.2187 52.5515 34.0187C53.0512 33.8758 53.4534 33.9046 53.7525 34.1057C54.0775 34.2871 54.2868 34.6314 54.4126 35.1237Z" fill="#1E1E1E"/>
<path d="M90.0859 29.9332C91.0311 30.1558 91.85 30.548 92.544 31.1206C93.2381 31.6933 93.8024 32.3644 94.2308 33.129C94.6598 33.899 94.9508 34.7023 95.0932 35.5455C95.2412 36.388 95.2358 37.1883 95.0825 37.9458C94.8507 38.801 94.5215 39.6513 94.1068 40.5009C93.6865 41.3512 93.187 42.1173 92.5923 42.8066C92.0032 43.4953 91.3098 44.0807 90.5107 44.552C89.7122 45.0287 88.7996 45.3261 87.7723 45.4388C86.5318 45.5772 85.4584 45.4197 84.5513 44.961C83.6385 44.5029 82.8898 43.8596 82.3003 43.0371C81.7109 42.2147 81.2805 41.2573 81.0143 40.1588C80.7431 39.0664 80.6339 37.949 80.6823 36.8181C80.7066 35.9879 80.8116 35.1645 81.0041 34.3582C81.1967 33.5519 81.4845 32.8223 81.8675 32.1695C82.2449 31.5174 82.7099 30.9706 83.2505 30.5249C83.791 30.0793 84.4401 29.8136 85.1977 29.7279C85.6182 29.6772 86.1563 29.7006 86.8107 29.7872C87.4659 29.8793 88.0782 30.0372 88.6597 30.2649C89.0082 29.8755 89.4834 29.7631 90.0859 29.9332ZM88.7509 33.3258C88.3936 33.1593 87.9775 32.9336 87.4963 32.6442C87.0157 32.3601 86.6122 32.2322 86.2814 32.2721C85.917 32.316 85.584 32.516 85.2769 32.8729C84.9704 33.2352 84.7094 33.6417 84.5052 34.0909C84.3017 34.5456 84.1325 35.0017 84.0033 35.4584C83.8747 35.9206 83.796 36.2831 83.7678 36.5512C83.729 37.0026 83.7342 37.5314 83.7794 38.1492C83.8245 38.7669 83.9418 39.3705 84.1362 39.9537C84.3307 40.5369 84.6302 41.0523 85.0343 41.4945C85.4383 41.9367 85.9987 42.2221 86.7211 42.3502C87.1569 42.419 87.6552 42.3535 88.211 42.1597C88.7668 41.9659 89.3024 41.6587 89.824 41.2429C90.3401 40.8278 90.8134 40.302 91.2378 39.6608C91.6678 39.0189 91.9689 38.3043 92.1467 37.5163C92.3463 36.6319 92.2446 35.7507 91.8513 34.8605C91.4525 33.971 90.7949 33.3719 89.8673 33.0645C89.6731 33.2368 89.4691 33.3331 89.2617 33.358C89.0486 33.3837 88.8763 33.3714 88.7509 33.3258Z" fill="#1E1E1E"/>
<path d="M111.516 27.6884C111.01 28.0417 110.482 28.4141 109.929 28.8007C109.38 29.1866 108.833 29.6275 108.298 30.1166C107.763 30.6057 107.261 31.1681 106.801 31.7971C106.34 32.4261 105.945 33.163 105.62 33.9964C105.151 35.178 104.881 36.3576 104.805 37.536C104.734 38.7137 104.733 39.8609 104.809 40.9824C104.871 41.5099 104.81 42.0576 104.615 42.627C104.421 43.1965 104.102 43.5051 103.648 43.5598C103.075 43.6233 102.579 43.3908 102.163 42.8617C101.748 42.3327 101.448 41.8118 101.263 41.2992C100.497 39.2792 99.8294 37.2749 99.2547 35.2815C98.68 33.2881 98.1453 31.2955 97.6624 29.3076C97.6157 28.8996 97.7105 28.6179 97.9537 28.4728C98.197 28.3277 98.483 28.2491 98.8235 28.2412C99.1921 28.2299 99.5453 28.2756 99.8956 28.3878C100.246 28.5 100.472 28.7099 100.569 29.0236C100.82 30.0909 101.106 31.2091 101.432 32.3721C101.758 33.5351 102.062 34.5298 102.344 35.3561C102.346 34.3467 102.559 33.3449 102.989 32.35C103.419 31.3551 103.989 30.4316 104.7 29.5794C105.41 28.7272 106.237 27.9824 107.185 27.3442C108.134 26.7061 109.127 26.2335 110.16 25.9436C110.607 25.8346 110.982 25.7894 111.293 25.8127C111.603 25.8359 111.824 25.9141 111.966 26.0459C112.103 26.1784 112.155 26.4092 112.118 26.7391C112.079 27.0581 111.881 27.3798 111.516 27.6884Z" fill="#1E1E1E"/>
<path d="M125.771 30.9622C124.673 31.7673 123.472 32.4304 122.155 32.9476C120.844 33.4694 119.397 33.8147 117.831 33.9923C118.012 35.0072 118.414 35.7861 119.03 36.3241C119.645 36.8621 120.37 37.1443 121.199 37.1659C121.689 37.1675 122.175 37.0979 122.663 36.9563C123.151 36.8093 123.6 36.6229 124.018 36.3795C124.432 36.1422 124.808 35.8817 125.144 35.6097C125.479 35.3377 125.768 35.0657 126.007 34.7998C126.252 34.5331 126.519 34.3521 126.813 34.245C127.107 34.1379 127.33 34.1055 127.489 34.147C127.929 34.2484 128.131 34.6653 128.101 35.4134C127.733 36.4008 127.134 37.2782 126.309 38.0393C125.485 38.8004 124.522 39.33 123.428 39.6327C122.486 39.9173 121.481 39.9886 120.426 39.8399C119.365 39.692 118.385 39.2861 117.48 38.6176C116.703 38.0218 116.08 37.2916 115.61 36.4272C115.14 35.5628 114.801 34.6495 114.594 33.6984C114.393 32.8015 114.373 31.9326 114.531 31.0808C114.69 30.2344 115.001 29.4634 115.47 28.7727C115.939 28.0819 116.552 27.4897 117.318 26.9838C118.085 26.4833 119.009 26.1404 120.085 25.9612C121.37 25.7291 122.578 25.8263 123.699 26.2648C124.82 26.7034 125.654 27.3915 126.197 28.3409C126.505 28.8719 126.634 29.3471 126.574 29.768C126.508 30.1841 126.246 30.5851 125.771 30.9622ZM120.204 28.572C119.908 28.6628 119.596 28.8051 119.267 28.9882C118.937 29.1713 118.641 29.3944 118.383 29.6461C118.125 29.8978 117.899 30.1733 117.704 30.4779C117.51 30.7826 117.421 31.1077 117.432 31.4648C117.943 31.4087 118.504 31.2971 119.116 31.1407C119.722 30.9849 120.314 30.8034 120.886 30.6075C121.459 30.4117 121.983 30.1941 122.46 29.9602C122.937 29.7263 123.328 29.4917 123.638 29.2502C123.332 28.7246 122.844 28.4304 122.176 28.373C121.514 28.3094 120.856 28.3776 120.204 28.572Z" fill="#1E1E1E"/>
</svg>
