<svg width="12" height="421" viewBox="0 0 12 421" fill="none" xmlns="http://www.w3.org/2000/svg">
<path d="M6.14109 413.955C6.14109 413.955 6.14876 413.956 6.15643 413.956C6.15643 413.956 6.14876 413.956 6.14109 413.955Z" fill="#59C69F"/>
<path d="M2.02329 7.66245C2.24704 7.93021 2.48708 8.15778 2.82059 8.32642C3.19195 8.51605 3.54287 8.59726 3.94812 8.65253C3.22782 14.7357 3.45061 20.8376 3.79591 26.9486C4.16111 33.5124 4.47264 40.0751 4.68433 46.6426C5.10149 59.7168 5.1808 72.8047 4.91524 85.8788C4.76164 93.2899 4.49318 100.692 4.12505 108.092L4.12215 108.214C4 206.5 4.44319 324.581 4.79456 330.76C5.15976 337.323 5.47128 343.886 5.68297 350.454C6.10013 363.528 6.17194 376.609 5.90622 389.689C5.76243 396.689 5.51112 403.693 5.17548 410.695C4.78188 410.796 4.39481 410.943 4.02259 411.111C3.1772 411.5 2.45175 412.006 1.86828 412.669C1.28481 413.333 0.997154 414.138 0.877855 414.959C0.655235 416.575 1.60063 418.106 3.02756 419.066C3.66931 419.498 4.46093 419.756 5.24825 419.873C6.27214 420.042 7.30643 420.096 8.3168 419.866C9.412 419.618 10.3379 419.069 11.0088 418.279C11.2932 417.933 11.5023 417.525 11.612 417.109C11.7985 416.363 11.6836 415.712 11.3398 415.01C11.1645 414.642 10.6275 414.321 10.2159 414.211C10.132 414.19 10.0327 414.174 9.94083 414.166C10.0503 414.08 10.1448 413.974 10.2164 413.867C10.4634 413.48 10.5899 413.003 10.4392 412.568C10.2888 412.12 9.99648 411.83 9.58137 411.545C9.37006 411.399 9.1431 411.267 8.90815 411.147C10.1815 385.398 10.129 359.596 8.73285 333.849C7.88688 257 7.88485 332.173 8 121C8.01791 120.892 7.8998 108.065 7.88688 107.964L7.88752 107.937C9.18103 81.9858 9.14089 55.9881 7.73436 30.0311C7.36681 23.2445 6.83936 16.4073 7.59923 9.62939C7.68357 9.63107 7.77525 9.64639 7.85976 9.6413C8.90332 9.62811 9.93782 9.35144 10.7125 8.71173C11.5575 8.01941 11.8343 7.02548 11.9646 6.06247C12.0851 5.19379 11.8913 4.31216 11.4806 3.52078C10.7254 2.05411 8.93044 1.08682 7.12974 1.00403C6.17196 0.95813 5.26062 1.21698 4.37882 1.52371C3.44287 1.84961 2.60225 2.35974 2.11524 3.16043C1.87573 3.55411 1.70474 3.96933 1.60228 4.40622C1.49134 4.87671 1.36475 5.36038 1.361 5.83972C1.37574 6.50852 1.57579 7.12692 2.02329 7.66245ZM6.00158 414.014C6.04807 413.994 6.0946 413.975 6.14109 413.955C6.13342 413.955 6.11788 413.962 6.11021 413.962C6.11788 413.962 6.13337 413.955 6.14871 413.956C6.17203 413.943 6.20302 413.93 6.22618 413.923C6.43545 413.833 6.26457 413.924 6.15643 413.956C6.23342 413.944 6.39535 413.907 6.5035 413.875C6.57202 413.896 6.64853 413.905 6.71705 413.926C6.7399 413.934 6.75507 413.941 6.77024 413.948C7.0504 414.102 7.32321 414.242 7.57987 414.416C7.7685 414.548 8.04292 414.621 8.32613 414.647C7.80898 415.103 7.67151 415.721 7.86373 416.346C7.81676 416.386 7.76212 416.425 7.71515 416.465C7.70733 416.471 7.684 416.484 7.67634 416.484C7.66084 416.491 7.60636 416.523 7.55205 416.549C7.47489 416.568 7.39774 416.587 7.31291 416.605C7.28208 416.611 7.20509 416.623 7.12809 416.635C7.04359 416.641 6.85925 416.65 6.82092 416.65C6.56773 416.651 6.32302 416.62 6.07032 416.601C6.03214 416.594 5.9863 416.586 5.94062 416.571C5.80325 416.542 5.67355 416.512 5.54417 416.469C5.52899 416.462 5.52133 416.462 5.50615 416.455C5.40776 416.399 5.28621 416.349 5.19549 416.293C5.12042 416.224 5.03753 416.162 4.97029 416.086C4.94793 416.059 4.91791 416.031 4.89555 416.004C4.85115 415.936 4.81459 415.861 4.79974 415.84C4.7999 415.833 4.78488 415.819 4.77754 415.806C4.74864 415.731 4.71974 415.656 4.69867 415.575C4.6843 415.534 4.68542 415.487 4.67121 415.439C4.67282 415.372 4.6821 415.304 4.6829 415.27C4.68306 415.264 4.68354 415.243 4.68403 415.223C4.70912 415.136 4.73437 415.042 4.76714 414.955C4.7748 414.955 4.78295 414.935 4.7911 414.915C4.83904 414.835 4.88713 414.748 4.94257 414.675C4.95823 414.661 4.96638 414.641 4.98203 414.628C5.06032 414.562 5.13892 414.483 5.22487 414.417C5.24037 414.41 5.24819 414.404 5.26369 414.397C5.37232 414.345 5.48159 414.267 5.59022 414.215C5.72234 414.143 5.86196 414.078 6.00158 414.014ZM5.83144 4.62473C6.16371 4.52325 6.49566 4.43524 6.84214 4.38132C6.92648 4.383 7.01082 4.38467 7.10283 4.38648C7.17151 4.40134 7.24036 4.40945 7.30888 4.43106C7.33939 4.43842 7.36974 4.45248 7.40025 4.45984C7.50646 4.50922 7.60501 4.55844 7.70324 4.62116C7.73343 4.642 7.76361 4.66287 7.77096 4.67651C7.816 4.71793 7.86104 4.75931 7.90608 4.80072C7.91358 4.80762 7.9286 4.82141 7.94345 4.84195C7.95096 4.84885 7.95846 4.85577 7.9583 4.86252C7.98784 4.91037 8.02506 4.95837 8.05444 5.01297C8.05428 5.01971 8.06178 5.02661 8.06162 5.03336C8.07615 5.06741 8.09052 5.10825 8.0902 5.12173C8.11894 5.20334 8.12452 5.2912 8.14559 5.37265C8.15658 5.55518 8.14457 5.73727 8.13256 5.91934C8.10682 6.03363 8.08109 6.14789 8.04768 6.26202C8.03235 6.26172 8.02452 6.26831 8.00919 6.26801C7.83268 6.27127 7.65633 6.26779 7.4803 6.25082C7.0602 6.17502 6.64043 6.08569 6.2125 6.01648C6.02913 5.98584 5.85294 5.97562 5.68442 5.96555C5.63954 5.91739 5.60249 5.86267 5.54979 5.82111C5.45204 5.73816 5.35397 5.6687 5.24808 5.60584C5.2914 5.39737 5.33473 5.18887 5.40872 4.98102C5.42518 4.93408 5.44148 4.89389 5.45778 4.8537C5.48142 4.82715 5.49724 4.80722 5.51338 4.77377C5.5522 4.75427 5.59885 4.72821 5.63767 4.70871C5.69965 4.68292 5.7693 4.65726 5.83144 4.62473Z" fill="#59C69F"/>
</svg>
