<svg width="404" height="18" viewBox="0 0 404 18" fill="none" xmlns="http://www.w3.org/2000/svg">
<path d="M200.949 8.79752C203.58 5.90738 207.487 4.63785 211.348 5.03873C213.957 5.27506 216.267 6.19059 218.426 7.44596C219.058 7.79362 219.676 8.20865 220.299 8.62711C221.638 9.52653 222.997 10.4401 224.561 10.7238C226.346 11.1759 227.675 9.93082 228.994 8.69596C229.372 8.34196 229.749 7.98844 230.136 7.67594C231.71 6.28043 233.789 5.36783 235.917 5.78922C237.52 6.07975 238.752 7.1193 239.976 8.15153C240.502 8.59537 241.026 9.03776 241.578 9.41862L241.842 9.59488C243.501 10.7004 245.847 12.2648 247.694 12.196C248.737 12.0368 249.928 11.3576 250.93 10.7858C251.326 10.5602 251.692 10.3512 252.008 10.1974L255.361 8.56852L255.667 8.40885C257.623 7.3859 259.457 6.4274 261.629 6.66373C263.919 7.07926 265.917 8.34049 267.914 9.60172C268.413 9.91715 268.872 10.234 269.33 10.5509C269.789 10.8678 270.248 11.1847 270.747 11.5002C270.917 11.6154 271.059 11.7174 271.181 11.8053C271.895 12.32 271.919 12.3366 272.863 11.588C273.424 11.1725 273.974 10.7384 274.523 10.3053C277.229 8.17155 279.9 6.06461 283.558 6.34391C286.245 6.56119 288.449 7.87028 290.671 9.18863C291.953 9.94987 293.241 10.7145 294.63 11.2741C295.784 11.7321 296.433 11.7077 297.383 11.0041C298.169 10.3063 299.118 9.6027 300.067 8.89957C300.495 8.55485 300.93 8.1691 301.375 7.77506C302.739 6.56754 304.191 5.28141 305.768 4.8444C307.647 4.35612 309.244 5.38834 310.783 6.38297C311.089 6.58121 311.393 6.77799 311.697 6.9611C312.203 7.28092 312.699 7.59 313.186 7.8942C314.622 8.79069 315.988 9.6442 317.358 10.5905C318.458 9.63199 319.518 8.67545 320.577 7.71891C321.641 6.75895 322.704 5.79899 323.808 4.83756C326.805 2.38688 329.601 3.28434 332.435 5.18229C333.481 5.77457 334.465 6.43571 335.424 7.08072C335.988 7.45914 336.542 7.8317 337.096 8.18131C337.488 8.46012 337.88 8.76774 338.277 9.07877C339.234 9.82926 340.215 10.5983 341.265 11.0314L341.421 10.8586C341.571 10.5192 341.727 10.3463 341.883 10.1735L343.738 7.59879C344.279 6.82682 344.821 6.09635 345.362 5.36637C345.904 4.63639 346.446 3.90641 346.986 3.13444C347.61 2.44303 349.059 2.05485 349.895 2.69156C352.397 4.43522 354.9 6.17887 357.552 7.58268L361.035 9.45621C361.256 9.55924 361.494 9.64322 361.732 9.72721C362.207 9.89518 362.683 10.0631 363.02 10.3844C363.495 10.3664 363.716 10.5373 363.614 10.7677L363.837 10.5207C364.518 9.88297 365.141 9.15446 365.764 8.42594C367.01 6.96891 368.256 5.51188 369.963 4.77994C372.516 3.5153 374.52 4.94352 376.373 6.7111C377.148 7.3444 377.856 8.05338 378.587 8.78629C378.962 9.16227 379.343 9.5441 379.743 9.92545C379.905 10.0802 380.101 10.234 380.304 10.3932C380.732 10.7292 381.19 11.088 381.427 11.5324C381.59 11.526 381.596 11.693 381.758 11.6872C383.463 9.45182 386.148 7.34733 388.365 5.76139C391.056 3.8234 392.716 4.76334 395.062 6.67936C396.239 7.72184 397.456 8.72135 398.672 9.72037C399.886 10.7179 401.101 11.7155 402.276 12.756C404.629 14.839 401.35 18.4694 398.511 16.4045C397.334 15.363 396.119 14.3644 394.904 13.3664C393.688 12.3678 392.473 11.3693 391.297 10.3278L390.791 9.84586L389.368 10.901C388.106 11.9504 387.007 12.9938 385.909 14.0368C385.619 14.299 385.335 14.5797 385.05 14.8615C383.632 16.2629 382.196 17.6828 380.002 16.9303C379.034 16.5461 378.162 15.6886 377.409 14.9479C377.264 14.8053 377.124 14.6672 376.988 14.5378C376.213 13.9045 375.505 13.195 374.774 12.4621C374.399 12.0866 374.018 11.7047 373.619 11.3234C373.456 11.1681 373.275 10.9787 373.087 10.7829C372.693 10.3713 372.272 9.93033 371.934 9.71647C371.472 9.45524 371.464 9.22867 371.385 9.19987C371.321 9.17692 371.213 9.28043 370.791 9.59244C369.993 10.1017 369.292 10.9523 368.612 11.7755C368.346 12.0983 368.083 12.4172 367.819 12.7096L367.626 12.9064C365.83 14.7331 364.282 16.3092 361.576 15.2819C356.957 13.4504 352.639 10.9396 348.47 8.08951C347.852 8.94791 347.077 9.97867 346.459 10.8371C346.223 11.1872 345.988 11.5588 345.748 11.9386C345.047 13.0461 344.302 14.2228 343.367 15.1281C341.084 17.3405 338.518 15.5553 336.315 14.0236C336.097 13.8717 335.882 13.7223 335.671 13.5793C334.924 13.1071 334.217 12.6335 333.51 12.1603C332.8 11.6847 332.091 11.2091 331.34 10.735C331.085 10.5734 330.74 10.3058 330.347 10.0006C329.204 9.11393 327.652 7.90934 326.691 8.06998C326.272 8.19449 325.732 8.74772 325.275 9.21598C325.03 9.46744 324.808 9.69401 324.643 9.81656C324.33 10.1623 323.976 10.4679 323.622 10.7736C323.267 11.0793 322.913 11.3844 322.601 11.7301C321.892 12.341 321.224 12.9508 320.556 13.5607C319.888 14.1701 319.22 14.7795 318.511 15.3908C317.574 16.4279 316.27 16.3097 315.433 15.673C315.427 15.506 315.265 15.5124 315.265 15.5124C314.098 14.7209 312.89 13.9308 311.683 13.1408C310.475 12.3507 309.268 11.5612 308.101 10.7697C307.981 10.7135 307.75 10.5519 307.489 10.3693C307.031 10.048 306.479 9.66129 306.272 9.6691C306.272 9.6691 306.154 9.86686 306.026 10.0177C305.947 10.11 305.865 10.1852 305.804 10.1877C305.044 10.4421 304.156 11.235 303.367 11.9401C302.989 12.278 302.633 12.5954 302.326 12.8234C302.021 13.069 301.712 13.3302 301.398 13.5963C299.919 14.8473 298.314 16.2052 296.451 16.5505C294.353 16.963 292.206 16.0412 290.377 14.9406C289.741 14.6081 289.079 14.2004 288.398 13.7804C285.887 12.2336 283.112 10.5231 280.347 11.8088C279.267 12.3249 278.203 13.2638 277.11 14.2277C275.133 15.9709 273.063 17.7965 270.639 17.3498C269.079 17.1623 267.661 16.0675 266.358 15.0617C265.888 14.6989 265.432 14.3473 264.991 14.0539C264.676 13.8756 264.349 13.6681 264.011 13.4538C262.565 12.5368 260.92 11.4933 259.23 12.0983C257.856 12.6266 256.491 13.3732 255.125 14.1198C254.101 14.6798 253.077 15.2394 252.05 15.7072L251.759 15.8449C249.954 16.7028 248.271 17.5021 246.257 17.2604C244.297 16.9997 242.144 15.9113 240.315 14.8102C239.623 14.3507 238.954 13.7746 238.291 13.2028C237.357 12.3981 236.433 11.6022 235.466 11.1505C234.146 10.403 232.501 11.9909 231.249 13.2008C230.926 13.5124 230.63 13.7985 230.371 14.0133C228.786 15.0749 227.031 15.9757 225.077 15.882C222.221 15.8761 219.904 14.4001 217.579 12.9186C216.464 12.2082 215.347 11.4967 214.168 10.9455C210.663 9.30729 206.167 9.4108 203.938 12.9245C203.543 14.5402 201.367 15.8112 199.417 14.3732C198.249 13.3249 197.042 12.3185 195.834 11.3127C194.625 10.3053 193.415 9.29801 192.245 8.24772L191.743 7.76237L190.312 8.80826C189.044 9.84879 187.938 10.8844 186.832 11.9201C186.541 12.1803 186.255 12.4591 185.968 12.7389C184.54 14.1305 183.094 15.5402 180.906 14.7731C179.941 14.383 179.075 13.5202 178.328 12.7746C178.183 12.631 178.044 12.4914 177.908 12.3605C177.136 11.7209 176.433 11.0065 175.706 10.2677C175.335 9.8903 174.957 9.50651 174.56 9.12321C174.399 8.96696 174.219 8.77653 174.033 8.57926C173.642 8.16471 173.224 7.72086 172.887 7.50504C172.427 7.24039 172.42 7.01383 172.341 6.98453C172.278 6.9611 172.168 7.06363 171.745 7.37272C170.944 7.87711 170.236 8.72281 169.552 9.54117C169.283 9.86246 169.018 10.1794 168.752 10.4699L168.557 10.6652C166.749 12.4797 165.19 14.0456 162.491 12.9997C157.885 11.1369 153.584 8.59684 149.434 5.71842C148.81 6.57242 148.029 7.5983 147.405 8.45231C147.166 8.80045 146.929 9.17057 146.686 9.54899C145.977 10.652 145.225 11.8234 144.284 12.7223C141.986 14.9196 139.431 13.1164 137.24 11.569C137.022 11.4157 136.809 11.2648 136.599 11.1208C135.853 10.6427 135.148 10.1637 134.443 9.68424C133.738 9.20475 133.033 8.72526 132.287 8.24723C132.033 8.08414 131.69 7.81461 131.299 7.50699C130.162 6.61197 128.619 5.39664 127.656 5.55045C127.236 5.67203 126.692 6.22184 126.232 6.68717C125.985 6.93668 125.762 7.16178 125.596 7.28336C125.281 7.62662 124.925 7.92985 124.569 8.23258C124.212 8.5358 123.856 8.83903 123.541 9.18278C122.827 9.7902 122.154 10.3962 121.48 11.0021C120.809 11.6061 120.138 12.2101 119.426 12.8156C118.483 13.8463 117.179 13.7189 116.347 13.0768C116.342 12.9098 116.18 12.9147 116.18 12.9147C115.018 12.1154 113.816 11.3171 112.613 10.5187C111.411 9.72086 110.209 8.92301 109.048 8.12369C108.718 7.96696 107.551 7.00065 107.227 7.0109C107.227 7.0109 106.917 7.52115 106.755 7.52604C105.993 7.77506 105.1 8.56266 104.306 9.26237C103.925 9.59733 103.568 9.91227 103.259 10.1379C102.953 10.3815 102.642 10.6408 102.326 10.9049C100.839 12.1462 99.2245 13.4928 97.3588 13.8249C95.2585 14.2233 93.1178 13.2868 91.2968 12.174C90.6621 11.8371 90.0029 11.4245 89.3243 11.0002C86.8246 9.43619 84.0612 7.7067 81.2881 8.97379C80.2046 9.48258 79.1338 10.4142 78.0345 11.3703C76.0456 13.1003 73.9631 14.9118 71.5421 14.4484C69.9832 14.2506 68.5725 13.1462 67.2756 12.1305C66.8084 11.7648 66.3559 11.4103 65.9166 11.1144C65.6034 10.9342 65.2776 10.7243 64.941 10.5075C63.5008 9.58072 61.8634 8.52653 60.1692 9.11979C58.7919 9.63932 57.4211 10.3761 56.0504 11.1134C55.0229 11.6662 53.9953 12.2189 52.965 12.6798L52.6734 12.8156C50.8625 13.6603 49.1741 14.4484 47.1613 14.1935C45.2031 13.9191 43.0574 12.8161 41.2363 11.7033C40.5475 11.2389 39.8833 10.6588 39.2239 10.0827C38.2953 9.27164 37.3764 8.46891 36.4124 8.01041C35.0975 7.25406 33.4422 8.83072 32.1816 10.0314C31.8568 10.341 31.5583 10.6252 31.2984 10.8385C29.7053 11.8893 27.9449 12.778 25.9918 12.6706C23.1353 12.6457 20.8283 11.154 18.5129 9.65641C17.403 8.93863 16.2912 8.2194 15.1159 7.66031C11.489 5.93473 6.78119 6.07877 4.62463 9.98551C3.08712 12.8713 -1.20938 10.4982 0.328121 7.61246C2.79419 3.19547 7.60873 1.2111 12.3367 1.73453C14.9442 1.98844 17.2472 2.92008 19.398 4.1901C20.0278 4.54166 20.6432 4.9611 21.2631 5.38395C22.5957 6.29264 23.9491 7.215 25.5106 7.50944C27.2923 7.97379 28.6301 6.73746 29.9569 5.51139C30.3376 5.15983 30.7174 4.80875 31.1065 4.49918C32.6894 3.1149 34.7746 2.21647 36.9001 2.65201C38.5001 2.95377 39.7254 4.00162 40.9422 5.04215C41.4652 5.48942 41.9867 5.93522 42.5357 6.31998L42.7996 6.49821C44.4506 7.61539 46.7859 9.19547 48.6331 9.13883C49.6768 8.98746 50.8718 8.31608 51.8779 7.75065C52.2753 7.5275 52.6432 7.32096 52.9607 7.16959L56.3243 5.56363L56.6313 5.40592C58.5946 4.39664 60.4348 3.45084 62.6049 3.70182C64.8928 4.13248 66.8813 5.40738 68.8697 6.68229C69.3658 7.00065 69.8215 7.31998 70.2771 7.63932C70.7345 7.96012 71.1919 8.28043 71.69 8.59977C71.8593 8.71647 72.0006 8.81949 72.1219 8.90787C72.8328 9.42692 72.8563 9.44449 73.8055 8.70182C74.3695 8.28971 74.9238 7.85856 75.4766 7.42887C78.1955 5.31461 80.8805 3.22672 84.5356 3.53092C87.2207 3.76627 89.4165 5.09049 91.6283 6.42399C92.9056 7.19401 94.1884 7.96744 95.5738 8.53629C96.7253 9.00211 97.3746 8.98209 98.3285 8.28531C99.1199 7.59293 100.074 6.89567 101.028 6.19889C101.457 5.85709 101.895 5.47428 102.343 5.08317C103.714 3.88541 105.176 2.60856 106.756 2.18278C108.638 1.70768 110.228 2.75016 111.76 3.75553C112.065 3.95572 112.368 4.15446 112.67 4.33951C114.659 5.61442 116.48 6.72721 118.306 8.00748C119.413 7.0568 120.479 6.10709 121.545 5.15738C122.615 4.20475 123.685 3.25211 124.795 2.2985C127.809 -0.131678 130.599 0.784826 133.419 2.70231C134.462 3.30192 135.442 3.96988 136.398 4.62174C136.958 5.00358 137.51 5.37955 138.061 5.73258C138.45 6.01432 138.84 6.32438 139.234 6.63785C140.186 7.3942 141.162 8.17057 142.21 8.611L142.367 8.43961C142.519 8.10074 142.677 7.92887 142.834 7.75699L144.706 5.19498C145.252 4.42692 145.798 3.70084 146.345 2.97477C146.892 2.2482 147.439 1.52164 147.984 0.753576C148.613 0.0660761 150.064 -0.312342 150.896 0.330236C153.387 2.09098 155.877 3.85123 158.52 5.27311L161.99 7.17057C162.21 7.27506 162.447 7.36051 162.685 7.44596C163.159 7.61735 163.633 7.78824 163.968 8.11197C164.444 8.09733 164.663 8.2692 164.56 8.49967L164.785 8.25406C165.47 7.62076 166.098 6.89664 166.726 6.17252C167.982 4.72379 169.238 3.27506 170.949 2.55485C173.511 1.30778 175.505 2.74918 177.346 4.52994C178.117 5.16862 178.82 5.88248 179.546 6.62028C179.918 6.99821 180.297 7.38297 180.694 7.76676C180.855 7.92301 181.05 8.0778 181.252 8.23844C181.678 8.57682 182.134 8.93912 182.368 9.38541C182.53 9.38053 182.535 9.54703 182.698 9.54215C184.418 7.31901 187.117 5.23258 189.344 3.66129C192.048 1.74186 193.702 2.69303 196.035 4.62516C197.204 5.67496 198.413 6.68131 199.621 7.68766C200.065 8.0568 200.508 8.42594 200.949 8.79752Z" fill="#F1C527"/>
</svg>
