<svg width="16" height="314" viewBox="0 0 16 314" fill="none" xmlns="http://www.w3.org/2000/svg">
<path d="M6.9949 9.76846C6.9949 9.76846 7.00502 9.76824 7.01515 9.76802C7.01515 9.76802 7.00502 9.76824 6.9949 9.76846Z" fill="#59C69F"/>
<path d="M2.67338 303.344C2.96886 302.956 3.28587 302.625 3.7263 302.38C4.21672 302.105 4.68015 301.987 5.21532 301.907C4.26409 293.078 4.55831 284.222 5.01432 275.353C5.4966 265.826 5.908 256.301 6.18756 246.769C6.73846 227.793 6.8432 208.798 6.49251 189.822C6.28965 179.066 5.93512 168.322 5.44897 157.582L5.44514 157.405C4.45086 148.46 4.75265 139.486 5.21667 130.518C5.69895 120.992 6.11035 111.466 6.38991 101.934C6.94081 82.9588 7.03564 63.9734 6.68473 44.9879C6.49483 34.829 6.16296 24.6634 5.71971 14.5003C5.19991 14.3547 4.68875 14.1404 4.1972 13.8962C3.08077 13.3324 2.12274 12.5986 1.3522 11.6353C0.58167 10.6719 0.201787 9.50412 0.04424 8.31189C-0.249754 5.96617 0.998735 3.74381 2.88315 2.3505C3.73065 1.7245 4.77606 1.34902 5.81581 1.17946C7.16796 0.934535 8.53385 0.855914 9.86815 1.18959C11.3145 1.55025 12.5373 2.34696 13.4232 3.494C13.7988 3.99547 14.075 4.5873 14.2198 5.19179C14.4661 6.27429 14.3144 7.21842 13.8604 8.2377C13.6288 8.77194 12.9197 9.23813 12.3761 9.39693C12.2654 9.42873 12.1341 9.45118 12.0129 9.46361C12.1574 9.58788 12.2823 9.74197 12.3768 9.89673C12.703 10.4581 12.87 11.1503 12.6709 11.7818C12.4723 12.433 12.0863 12.8529 11.5382 13.2666C11.2591 13.4785 10.9594 13.6712 10.6491 13.8445C12.3307 51.2161 12.2614 88.6649 10.4176 126.034C9.9038 136.444 9.13836 146.927 10.4069 157.308C10.4305 157.464 10.4339 157.621 10.4169 157.768L10.4177 157.807C12.1259 195.472 12.0729 233.205 10.2155 270.879C9.73006 280.729 9.03351 290.652 10.037 300.489C10.1484 300.487 10.2695 300.465 10.3811 300.472C11.7592 300.491 13.1254 300.893 14.1484 301.821C15.2643 302.826 15.6298 304.269 15.802 305.666C15.961 306.927 15.7051 308.207 15.1627 309.355C14.1655 311.484 11.795 312.888 9.41699 313.008C8.15215 313.075 6.94862 312.699 5.78411 312.254C4.54809 311.781 3.43796 311.04 2.79481 309.878C2.47851 309.307 2.25271 308.704 2.11739 308.07C1.97089 307.387 1.80371 306.685 1.79876 305.99C1.81823 305.019 2.08242 304.121 2.67338 303.344ZM6.81066 9.68422C6.87205 9.71229 6.93351 9.74039 6.9949 9.76846C6.98477 9.76868 6.96424 9.75929 6.95411 9.75951C6.96424 9.75929 6.9847 9.76865 7.00495 9.76821C7.03576 9.78714 7.07668 9.80585 7.10727 9.81499C7.38363 9.9462 7.15797 9.81393 7.01515 9.76802C7.11683 9.78542 7.33067 9.83955 7.47349 9.88545C7.56398 9.85409 7.66503 9.8421 7.75552 9.81073C7.78568 9.80028 7.80572 9.79004 7.82576 9.77981C8.19573 9.55618 8.556 9.35236 8.89496 9.1C9.14407 8.90839 9.50646 8.80253 9.88047 8.76502C9.19753 8.1036 9.01597 7.2059 9.26982 6.29876C9.20779 6.24131 9.13564 6.18407 9.07361 6.12661C9.06328 6.11704 9.03247 6.0981 9.02235 6.09832C9.00188 6.08897 8.92994 6.04152 8.85822 6.00388C8.75632 5.97669 8.65443 5.9495 8.54241 5.92252C8.5017 5.91361 8.40002 5.89621 8.29834 5.87881C8.18674 5.87143 7.9433 5.85711 7.89268 5.85821C7.55832 5.85566 7.23515 5.90187 6.90143 5.92871C6.85102 5.9396 6.79048 5.95071 6.73015 5.97162C6.54874 6.01476 6.37745 6.05767 6.20659 6.12018C6.18656 6.13041 6.17643 6.13063 6.15639 6.14087C6.02646 6.22209 5.86594 6.29417 5.74613 6.37517C5.647 6.47533 5.53753 6.5659 5.44874 6.67563C5.41921 6.71548 5.37956 6.75554 5.35003 6.79538C5.2914 6.89465 5.24311 7.00351 5.22349 7.03333C5.22371 7.04313 5.20388 7.06316 5.19418 7.08297C5.15601 7.1916 5.11785 7.30023 5.09002 7.41844C5.07105 7.47765 5.07253 7.54622 5.05377 7.61523C5.05589 7.71319 5.06814 7.81093 5.0692 7.85991C5.06942 7.8697 5.07005 7.89909 5.07069 7.92848C5.10383 8.05517 5.13718 8.19165 5.18044 8.31811C5.19057 8.31789 5.20133 8.34706 5.21209 8.37623C5.2754 8.49246 5.33891 8.61849 5.41213 8.72471C5.4328 8.74386 5.44357 8.77303 5.46424 8.79218C5.56762 8.88794 5.67142 9.00329 5.78493 9.09884C5.80539 9.10819 5.81573 9.11777 5.8362 9.12713C5.97965 9.20242 6.12396 9.31689 6.26742 9.39219C6.44189 9.49621 6.62627 9.59021 6.81066 9.68422ZM7.70245 307.753C8.14125 307.9 8.57962 308.028 9.03718 308.106C9.14856 308.104 9.25994 308.102 9.38145 308.099C9.47215 308.077 9.56307 308.066 9.65356 308.034C9.69385 308.023 9.73393 308.003 9.77422 307.992C9.91449 307.921 10.0446 307.849 10.1744 307.758C10.2142 307.728 10.2541 307.698 10.2638 307.678C10.3233 307.618 10.3827 307.558 10.4422 307.498C10.4521 307.488 10.472 307.468 10.4916 307.438C10.5015 307.428 10.5114 307.418 10.5112 307.408C10.5502 307.339 10.5993 307.269 10.6382 307.19C10.6379 307.18 10.6479 307.17 10.6476 307.16C10.6668 307.111 10.6858 307.051 10.6854 307.032C10.7233 306.913 10.7307 306.786 10.7585 306.668C10.773 306.403 10.7572 306.138 10.7413 305.874C10.7073 305.708 10.6733 305.542 10.6292 305.377C10.609 305.377 10.5986 305.368 10.5784 305.368C10.3453 305.363 10.1124 305.368 9.87994 305.393C9.32516 305.503 8.7708 305.633 8.20568 305.733C7.96352 305.778 7.73084 305.792 7.5083 305.807C7.44903 305.877 7.4001 305.956 7.33049 306.017C7.20141 306.137 7.0719 306.238 6.93206 306.329C6.98927 306.632 7.04648 306.934 7.1442 307.236C7.16594 307.304 7.18746 307.362 7.20899 307.421C7.24021 307.459 7.2611 307.488 7.28242 307.537C7.33368 307.565 7.39528 307.603 7.44655 307.631C7.5284 307.669 7.62038 307.706 7.70245 307.753Z" fill="#59C69F"/>
</svg>
