<svg width="12" height="215" viewBox="0 0 12 215" fill="none" xmlns="http://www.w3.org/2000/svg">
<path d="M5.2957 208.936C5.2957 208.936 5.30337 208.936 5.31103 208.936C5.31103 208.936 5.30337 208.936 5.2957 208.936Z" fill="#59C69F"/>
<path d="M2.02331 6.6637C2.24705 6.93146 2.4871 7.15903 2.82061 7.32767C3.19196 7.5173 3.54289 7.59851 3.94813 7.65376C3.22784 13.737 3.45063 19.8388 3.79593 25.9498C4.16113 32.5136 4.47266 39.0763 4.68435 45.6438C5.10151 58.7179 5.18082 71.8057 4.91526 84.8798C4.76166 92.2909 4.4932 99.693 4.12507 107.093L4.12217 107.215C3.36927 113.378 3.5978 119.561 3.94916 125.74C4.31436 132.304 4.62589 138.866 4.83758 145.434C5.25474 158.508 5.32655 171.589 5.06083 184.67C4.91703 191.669 4.66573 198.673 4.33009 205.676C3.93648 205.776 3.54942 205.923 3.1772 206.092C2.33181 206.48 1.60636 206.986 1.02289 207.649C0.43942 208.313 0.151761 209.118 0.0324626 209.939C-0.190157 211.555 0.755235 213.087 2.18217 214.047C2.82392 214.478 3.61553 214.737 4.40286 214.853C5.42675 215.022 6.46104 215.076 7.47141 214.846C8.56661 214.598 9.49254 214.049 10.1634 213.259C10.4478 212.913 10.657 212.505 10.7666 212.089C10.9531 211.343 10.8382 210.693 10.4944 209.99C10.3191 209.622 9.78212 209.301 9.3705 209.192C9.28664 209.17 9.18729 209.154 9.09544 209.146C9.20487 209.06 9.29945 208.954 9.37103 208.847C9.61805 208.461 9.74448 207.984 9.59376 207.549C9.44336 207.1 9.15109 206.811 8.73598 206.525C8.52467 206.38 8.29771 206.247 8.06275 206.127C9.3361 180.379 9.28364 154.577 7.88745 128.829C7.4984 121.657 6.91878 114.434 7.87934 107.282C7.89724 107.174 7.89982 107.066 7.8869 106.965L7.88754 106.938C9.18104 80.9868 9.14091 54.9893 7.73438 29.0323C7.36683 22.2457 6.83938 15.4085 7.59925 8.63062C7.68359 8.63228 7.77527 8.6476 7.85977 8.64252C8.90334 8.62935 9.93784 8.35266 10.7125 7.71295C11.5575 7.02063 11.8343 6.02673 11.9646 5.06371C12.0851 4.19502 11.8913 3.3134 11.4806 2.52202C10.7254 1.05534 8.93046 0.0880893 7.12976 0.00529523C6.17198 -0.0406184 5.26064 0.218262 4.37884 0.524979C3.44289 0.850892 2.60227 1.36098 2.11526 2.16167C1.87575 2.55533 1.70476 2.9706 1.6023 3.40747C1.49136 3.87796 1.36477 4.36163 1.36102 4.84097C1.37576 5.50975 1.57581 6.12817 2.02331 6.6637ZM5.15619 208.994C5.20267 208.974 5.24921 208.955 5.2957 208.936C5.28803 208.936 5.27248 208.942 5.26482 208.942C5.27248 208.942 5.28798 208.936 5.30331 208.936C5.32664 208.923 5.35763 208.91 5.38079 208.904C5.59006 208.813 5.41918 208.904 5.31103 208.936C5.38803 208.924 5.54996 208.887 5.6581 208.855C5.72663 208.877 5.80314 208.885 5.87166 208.907C5.8945 208.914 5.90968 208.921 5.92485 208.928C6.20501 209.082 6.47781 209.222 6.73448 209.396C6.92311 209.528 7.19753 209.601 7.48074 209.627C6.96359 210.083 6.82612 210.701 7.01834 211.326C6.97137 211.366 6.91673 211.405 6.86976 211.445C6.86193 211.452 6.83861 211.465 6.83094 211.464C6.81545 211.471 6.76097 211.504 6.70666 211.529C6.6295 211.548 6.55234 211.567 6.46752 211.586C6.43669 211.592 6.3597 211.604 6.2827 211.616C6.1982 211.621 6.01386 211.631 5.97552 211.63C5.72234 211.632 5.47763 211.6 5.22493 211.581C5.18675 211.574 5.14091 211.566 5.09523 211.552C4.95786 211.522 4.82815 211.492 4.69877 211.449C4.6836 211.442 4.67593 211.442 4.66076 211.435C4.56237 211.379 4.44082 211.329 4.3501 211.274C4.27503 211.205 4.19214 211.142 4.1249 211.067C4.10254 211.039 4.07252 211.012 4.05016 210.984C4.00576 210.916 3.96919 210.841 3.95434 210.82C3.9545 210.813 3.93949 210.8 3.93214 210.786C3.90324 210.711 3.87435 210.636 3.85327 210.555C3.8389 210.514 3.84003 210.467 3.82582 210.419C3.82743 210.352 3.8367 210.284 3.83751 210.251C3.83767 210.244 3.83815 210.224 3.83863 210.203C3.86373 210.116 3.88898 210.022 3.92174 209.935C3.92941 209.935 3.93756 209.915 3.94571 209.895C3.99364 209.815 4.04174 209.728 4.09718 209.655C4.11284 209.642 4.12099 209.622 4.13664 209.608C4.21492 209.542 4.29353 209.463 4.37948 209.397C4.39497 209.391 4.4028 209.384 4.4183 209.378C4.52693 209.326 4.6362 209.247 4.74483 209.195C4.87694 209.123 5.01656 209.059 5.15619 208.994ZM5.83146 3.62598C6.16373 3.52451 6.49568 3.43649 6.84216 3.38255C6.9265 3.38423 7.01084 3.3859 7.10285 3.38771C7.17153 3.40257 7.24038 3.41071 7.3089 3.43231C7.33941 3.43967 7.36976 3.45374 7.40026 3.46109C7.50648 3.51045 7.60503 3.55968 7.70326 3.62239C7.73344 3.64323 7.76363 3.66411 7.77098 3.67775C7.81602 3.71915 7.86106 3.76057 7.9061 3.80197C7.9136 3.80887 7.92861 3.82266 7.94347 3.8432C7.95097 3.85011 7.95848 3.85703 7.95832 3.86377C7.98786 3.91162 8.02507 3.95961 8.05446 4.01422C8.05429 4.02097 8.0618 4.02786 8.06164 4.03461C8.07617 4.06866 8.09054 4.10947 8.09022 4.12297C8.11896 4.20456 8.12453 4.29245 8.14561 4.37389C8.1566 4.55643 8.14459 4.73851 8.13258 4.92058C8.10684 5.03487 8.08111 5.14914 8.0477 5.26328C8.03237 5.26297 8.02454 5.26956 8.0092 5.26926C7.83269 5.27254 7.65634 5.26904 7.48032 5.25206C7.06022 5.17625 6.64045 5.08695 6.21252 5.01773C6.02915 4.98709 5.85296 4.97687 5.68444 4.9668C5.63956 4.91864 5.60251 4.86391 5.5498 4.82234C5.45206 4.7394 5.35399 4.66994 5.2481 4.60707C5.29142 4.39861 5.33474 4.19014 5.40874 3.98227C5.4252 3.93533 5.4415 3.89513 5.4578 3.85494C5.48144 3.8284 5.49726 3.80846 5.5134 3.77502C5.55222 3.75552 5.59886 3.72943 5.63768 3.70995C5.69967 3.68416 5.76932 3.65852 5.83146 3.62598Z" fill="#59C69F"/>
</svg>
