<svg width="11" height="118" viewBox="0 0 11 118" fill="none" xmlns="http://www.w3.org/2000/svg">
<path d="M8.92446 0.911778C8.34044 0.518017 7.53743 0.255511 6.80741 0.124257C5.85839 -0.0069964 4.83636 -0.0726231 3.88734 0.124257C2.79232 0.386764 1.91629 0.911778 1.33228 1.6993C1.04027 2.02743 0.821269 2.42119 0.748268 2.81495C0.529262 3.53685 0.675266 4.19311 0.967273 4.84938C1.18628 5.24314 1.69729 5.57128 2.0623 5.6369C2.1353 5.6369 2.2083 5.6369 2.35431 5.70253C2.2083 5.76816 2.1353 5.89941 2.0623 5.96504C1.84329 6.3588 1.69729 6.81818 1.84329 7.21194C1.9893 7.67133 2.2813 7.93384 2.64631 8.19635C2.86532 8.3276 3.08432 8.45885 3.30333 8.59011C2.57331 25.8499 2.42731 43.1098 2.79232 60.3696C2.86532 64.5041 4.03334 109.59 4.10635 109.59C4.03334 109.59 3.96034 109.59 3.88734 109.59C2.86532 109.59 1.91629 109.852 1.18628 110.508C0.383259 111.165 0.0912521 112.149 0.0182504 113.068C-0.0547513 113.921 0.0912521 114.774 0.456261 115.562C1.18628 117.005 2.86532 117.924 4.61736 117.99C5.56638 118.055 6.3694 117.793 7.24542 117.465C8.12144 117.137 8.92446 116.677 9.36247 115.89C9.58147 115.496 9.72748 115.102 9.87348 114.709C9.94648 114.249 10.0925 113.79 10.0925 113.33C10.0925 112.674 9.87348 112.083 9.50847 111.558C9.28947 111.296 9.07046 111.099 8.77845 110.902C8.41345 110.705 8.12144 110.64 7.68343 110.574C8.34044 104.668 8.12144 98.6956 7.75643 92.7892C7.17242 82.2889 6.73441 71.723 6.5154 61.1571C6.2234 54.7257 6.15039 48.3599 6.15039 41.9941C6.15039 37.8596 6.15039 33.6595 6.2234 29.525C6.3694 22.6999 6.5154 15.8747 6.88041 9.11512C7.24542 8.98387 7.61043 8.85261 7.97544 8.72136C8.77846 8.3276 9.43547 7.86821 10.0195 7.21194C10.6035 6.55568 10.8225 5.76816 10.9685 4.98064C11.1875 3.33997 10.2385 1.83055 8.92446 0.911778ZM6.15039 114.118C6.15039 114.184 6.15039 114.184 6.07739 114.249C6.07739 114.249 6.07739 114.315 6.00439 114.315C5.93139 114.315 5.93139 114.38 5.85839 114.38C5.78539 114.38 5.71238 114.446 5.63938 114.446C5.34737 114.577 4.98237 114.643 4.69036 114.709C4.61736 114.709 4.54436 114.709 4.47135 114.709C4.39835 114.709 4.32535 114.709 4.25235 114.643H4.17935C4.10635 114.577 3.96034 114.577 3.88734 114.512L3.81434 114.446C3.74134 114.38 3.74134 114.38 3.66834 114.315C3.66834 114.315 3.66834 114.315 3.66834 114.249C3.66834 114.184 3.59533 114.184 3.59533 114.118C3.59533 114.052 3.59533 114.052 3.59533 114.052C3.59533 113.987 3.59533 113.855 3.52233 113.79C3.52233 113.593 3.52233 113.462 3.52233 113.265C3.52233 113.133 3.59533 113.068 3.59533 112.937C3.59533 112.937 3.59533 112.937 3.66834 112.937C3.81434 112.937 4.03334 112.937 4.17935 112.937C4.61736 113.002 4.98237 113.068 5.42038 113.133C5.56638 113.133 5.78539 113.199 5.93139 113.199C6.00439 113.265 6.00439 113.265 6.07739 113.33C6.15039 113.396 6.2964 113.462 6.3694 113.527C6.2964 113.659 6.2234 113.921 6.15039 114.118ZM7.31842 4.58687C7.31842 4.71813 7.24542 4.78376 7.24542 4.91501V4.98064C7.17242 5.04626 7.17242 5.11189 7.09942 5.17752C7.09942 5.17752 7.09942 5.17752 7.09942 5.24314C6.95341 5.30877 6.88041 5.3744 6.80741 5.44002C6.66141 5.50565 6.5884 5.57128 6.4424 5.6369C6.3694 5.70253 6.2234 5.76816 6.07739 5.83378C6.00439 5.83378 6.00439 5.83378 5.93139 5.89941C5.93139 5.89941 5.85839 5.89941 5.85839 5.96504C5.63938 6.03066 5.85839 5.96504 5.93139 5.96504C5.85839 5.89941 5.71238 5.96504 5.63938 5.96504C5.56638 5.96504 5.49338 5.89941 5.42038 5.89941C5.42038 5.89941 5.42038 5.89941 5.34737 5.89941C5.05537 5.76816 4.83636 5.6369 4.54436 5.44002C4.39835 5.30877 4.10635 5.24314 3.88734 5.24314C4.39835 4.78376 4.47135 4.19311 4.32535 3.60247C4.39835 3.53685 4.39835 3.53685 4.47135 3.47122H4.54436C4.54436 3.47122 4.61736 3.47122 4.69036 3.40559C4.76336 3.40559 4.83636 3.33997 4.90936 3.33997C4.90936 3.33997 4.98237 3.33997 5.05537 3.33997C5.12837 3.33997 5.27437 3.33997 5.34737 3.33997C5.56638 3.33997 5.78539 3.33997 6.07739 3.40559C6.15039 3.40559 6.15039 3.40559 6.2234 3.40559C6.3694 3.40559 6.4424 3.47122 6.5884 3.47122C6.66141 3.53685 6.80741 3.60247 6.88041 3.60247C6.95341 3.6681 7.02641 3.73373 7.09942 3.79935L7.17242 3.86498C7.17242 3.93061 7.17242 3.99623 7.24542 4.06186C7.24542 4.06186 7.24542 4.06186 7.24542 4.12749C7.24542 4.19311 7.31842 4.25874 7.31842 4.32437C7.31842 4.38999 7.31842 4.38999 7.31842 4.45562C7.31842 4.52125 7.31842 4.58687 7.31842 4.58687Z" fill="#F1C527"/>
</svg>
