<svg width="13" height="230" viewBox="0 0 13 230" fill="none" xmlns="http://www.w3.org/2000/svg">
<path d="M7.26398 7.44124C7.26398 7.44124 7.25567 7.44106 7.24737 7.44087C7.24737 7.44087 7.25567 7.44106 7.26398 7.44124Z" fill="#59C69F"/>
<path d="M10.8091 221.823C10.5667 221.495 10.3066 221.215 9.94532 221.009C9.54301 220.776 9.16284 220.676 8.72382 220.608C9.50415 213.144 9.26279 205.657 8.88871 198.158C8.49308 190.104 8.15559 182.051 7.92626 173.992C7.47434 157.95 7.38842 141.89 7.67611 125.848C7.84252 116.754 8.13335 116.125 8.53216 107.045L8.53529 106.896C9.35093 99.3327 9.10337 91.7459 8.72272 84.1643C8.32709 76.1102 7.9896 68.0573 7.76027 59.9986C7.30835 43.9559 7.23056 53.2681 7.51842 37.217C7.6742 28.6283 7.94644 20.034 8.31006 11.4417C8.73647 11.3186 9.15579 11.1374 9.55902 10.931C10.4749 10.4544 11.2608 9.83393 11.8929 9.01949C12.525 8.20506 12.8366 7.21776 12.9658 6.2098C13.207 4.22665 12.1828 2.34779 10.637 1.16983C9.94174 0.640588 9.08416 0.323141 8.23122 0.179796C7.12201 -0.0272756 6.00153 -0.0937441 4.90696 0.188361C3.72049 0.493269 2.7174 1.16684 1.99063 2.13658C1.68254 2.56055 1.45594 3.06091 1.33716 3.57196C1.13508 4.48714 1.25956 5.28534 1.63201 6.14708C1.82195 6.59875 2.40368 6.99289 2.84961 7.12713C2.94046 7.15402 3.04809 7.173 3.14759 7.18351C3.02904 7.28857 2.92657 7.41885 2.84903 7.54969C2.58143 8.02427 2.44446 8.60949 2.60774 9.14341C2.77067 9.6939 3.0873 10.049 3.537 10.3987C3.76592 10.5778 4.0118 10.7408 4.26633 10.8873C2.88687 42.4826 2.9437 48.78 4.45623 80.3736C4.87771 89.174 5.50563 98.0371 4.46503 106.813C4.44563 106.945 4.44284 107.078 4.45684 107.202L4.45614 107.235C3.05484 139.079 3.09831 162.525 4.62205 194.376C5.02024 202.703 5.59164 211.093 4.76845 219.41C4.67708 219.408 4.57775 219.389 4.48621 219.395C3.35568 219.411 2.23497 219.751 1.39574 220.536C0.480359 221.385 0.180461 222.605 0.0392548 223.787C-0.0912058 224.852 0.118718 225.934 0.563659 226.905C1.38175 228.705 3.3263 229.892 5.27706 229.993C6.31465 230.05 7.30194 229.732 8.25723 229.356C9.27118 228.956 10.1818 228.33 10.7094 227.348C10.9689 226.864 11.1542 226.355 11.2652 225.819C11.3853 225.242 11.5225 224.648 11.5265 224.06C11.5106 223.239 11.2938 222.48 10.8091 221.823ZM7.41512 7.37002C7.36476 7.39375 7.31434 7.41751 7.26398 7.44124C7.27229 7.44143 7.28913 7.43349 7.29744 7.43368C7.28913 7.43349 7.27234 7.4414 7.25573 7.44103C7.23046 7.45704 7.19689 7.47286 7.1718 7.48058C6.94509 7.59151 7.13021 7.47968 7.24737 7.44087C7.16396 7.45558 6.98854 7.50134 6.87138 7.54015C6.79714 7.51364 6.71425 7.5035 6.64002 7.47698C6.61527 7.46814 6.59884 7.45949 6.5824 7.45084C6.2789 7.26177 5.98335 7.08945 5.7053 6.8761C5.50095 6.71411 5.20366 6.62461 4.89685 6.5929C5.45709 6.03371 5.60603 5.27477 5.39779 4.50784C5.44867 4.45926 5.50786 4.41087 5.55874 4.36229C5.56722 4.3542 5.59249 4.33819 5.6008 4.33838C5.61758 4.33047 5.6766 4.29036 5.73544 4.25853C5.81903 4.23554 5.90261 4.21255 5.9945 4.18975C6.0279 4.18221 6.11132 4.1675 6.19473 4.1528C6.28627 4.14656 6.48597 4.13445 6.5275 4.13538C6.80179 4.13322 7.06689 4.17229 7.34065 4.19498C7.38201 4.20419 7.43167 4.21358 7.48116 4.23126C7.62998 4.26773 7.77049 4.30401 7.91065 4.35685C7.92709 4.36551 7.93539 4.36569 7.95183 4.37435C8.05842 4.44301 8.1901 4.50395 8.28838 4.57244C8.36971 4.65711 8.45951 4.73369 8.53235 4.82646C8.55657 4.86014 8.5891 4.89401 8.61332 4.92769C8.66142 5.01162 8.70103 5.10365 8.71712 5.12887C8.71694 5.13715 8.73321 5.15408 8.74117 5.17083C8.77247 5.26267 8.80378 5.35451 8.82661 5.45445C8.84218 5.50451 8.84096 5.56248 8.85635 5.62083C8.85461 5.70364 8.84456 5.78628 8.84369 5.82768C8.84351 5.83597 8.84299 5.86081 8.84247 5.88566C8.81528 5.99276 8.78793 6.10815 8.75244 6.21507C8.74413 6.21488 8.7353 6.23954 8.72647 6.2642C8.67454 6.36247 8.62244 6.46902 8.56238 6.55882C8.54542 6.57501 8.53659 6.59967 8.51963 6.61586C8.43482 6.69682 8.34967 6.79434 8.25656 6.87512C8.23977 6.88303 8.23129 6.89112 8.2145 6.89903C8.09682 6.96269 7.97844 7.05947 7.86076 7.12313C7.71763 7.21107 7.56638 7.29054 7.41512 7.37002ZM6.68355 225.551C6.32359 225.675 5.96398 225.783 5.58863 225.849C5.49726 225.847 5.40589 225.845 5.30622 225.843C5.23181 225.825 5.15722 225.815 5.08299 225.788C5.04994 225.779 5.01706 225.762 4.98401 225.753C4.86894 225.692 4.76218 225.632 4.65577 225.555C4.62306 225.53 4.59036 225.504 4.5824 225.487C4.53361 225.436 4.48482 225.386 4.43603 225.335C4.4279 225.326 4.41163 225.309 4.39554 225.284C4.38741 225.276 4.37928 225.267 4.37945 225.259C4.34745 225.2 4.30713 225.141 4.2753 225.074C4.27548 225.066 4.26735 225.058 4.26752 225.049C4.25178 225.008 4.23621 224.957 4.23656 224.941C4.20543 224.841 4.19938 224.733 4.17656 224.633C4.16465 224.409 4.17766 224.186 4.19067 223.962C4.21855 223.822 4.24643 223.682 4.28262 223.542C4.29923 223.542 4.30771 223.534 4.32433 223.534C4.51554 223.53 4.70659 223.535 4.89729 223.555C5.35239 223.648 5.80715 223.758 6.27073 223.843C6.46939 223.881 6.66026 223.893 6.84282 223.905C6.89144 223.965 6.93158 224.032 6.98868 224.083C7.09457 224.184 7.20081 224.27 7.31553 224.347C7.2686 224.603 7.22166 224.858 7.1415 225.114C7.12367 225.171 7.10601 225.22 7.08836 225.27C7.06274 225.302 7.0456 225.327 7.02812 225.368C6.98607 225.392 6.93553 225.424 6.89348 225.448C6.82633 225.479 6.75087 225.511 6.68355 225.551Z" fill="#59C69F"/>
</svg>
