<svg width="385" height="17" viewBox="0 0 385 17" fill="none" xmlns="http://www.w3.org/2000/svg">
<path d="M191.936 8.58636C194.448 5.76559 198.181 4.52653 201.868 4.91779C204.361 5.14845 206.566 6.042 208.629 7.26724C209.232 7.60655 209.823 8.01163 210.417 8.42004C211.696 9.29787 212.995 10.1895 214.489 10.4664C216.193 10.9077 217.463 9.69246 218.723 8.48724C219.084 8.14173 219.444 7.7967 219.814 7.4917C221.317 6.12969 223.303 5.23899 225.335 5.65027C226.866 5.93382 228.043 6.94842 229.212 7.95587C229.714 8.38906 230.215 8.82083 230.742 9.19255L230.995 9.36459C232.579 10.4435 234.82 11.9704 236.584 11.9032C237.58 11.7479 238.718 11.085 239.675 10.5269C240.053 10.3067 240.403 10.1028 240.705 9.95266L243.907 8.36285L244.199 8.20702C246.068 7.20862 247.819 6.27313 249.894 6.50379C252.082 6.90934 253.989 8.1403 255.897 9.37126C256.373 9.67912 256.812 9.9884 257.25 10.2977C257.688 10.607 258.126 10.9163 258.603 11.2241C258.765 11.3366 258.901 11.4362 259.017 11.522C259.7 12.0243 259.722 12.0405 260.624 11.3099C261.159 10.9044 261.685 10.4807 262.21 10.058C264.794 7.97541 267.345 5.91905 270.839 6.19164C273.405 6.40371 275.511 7.68137 277.633 8.96809C278.858 9.71105 280.088 10.4573 281.414 11.0035C282.517 11.4505 283.137 11.4267 284.044 10.7399C284.795 10.0589 285.702 9.37221 286.608 8.68596C287.016 8.34951 287.432 7.97303 287.858 7.58844C289.16 6.4099 290.547 5.15464 292.053 4.72812C293.848 4.25156 295.373 5.25901 296.843 6.22976C297.136 6.42325 297.426 6.6153 297.716 6.79401C298.2 7.10616 298.673 7.40782 299.138 7.70472C300.51 8.57969 301.815 9.41272 303.123 10.3363C304.174 9.4008 305.186 8.46722 306.198 7.53364C307.214 6.59672 308.229 5.6598 309.284 4.72145C312.146 2.32959 314.817 3.20551 317.523 5.0579C318.523 5.63597 319.463 6.28123 320.379 6.91077C320.917 7.28011 321.447 7.64372 321.976 7.98494C322.35 8.25706 322.725 8.55729 323.104 8.86086C324.018 9.59334 324.955 10.3439 325.958 10.7666L326.107 10.5979C326.25 10.2667 326.4 10.098 326.549 9.92931L328.32 7.4164C328.836 6.66296 329.354 5.95002 329.872 5.23756C330.389 4.5251 330.906 3.81265 331.422 3.0592C332.019 2.38439 333.402 2.00552 334.201 2.62696C336.591 4.32876 338.981 6.03056 341.515 7.40068L344.841 9.22924C345.052 9.3298 345.279 9.41177 345.507 9.49373C345.961 9.65767 346.415 9.82161 346.737 10.1352C347.19 10.1176 347.402 10.2843 347.304 10.5093L347.518 10.2681C348.168 9.64576 348.763 8.93473 349.358 8.2237C350.548 6.80164 351.739 5.37958 353.368 4.66521C355.807 3.43092 357.721 4.82486 359.491 6.55001C360.232 7.16811 360.908 7.86008 361.606 8.5754C361.964 8.94235 362.328 9.31502 362.71 9.68722C362.865 9.83829 363.052 9.9884 363.246 10.1438C363.655 10.4716 364.093 10.8219 364.319 11.2556C364.474 11.2494 364.48 11.4124 364.635 11.4067C366.263 9.22495 368.828 7.17097 370.945 5.6231C373.515 3.73163 375.101 4.64901 377.342 6.51904C378.466 7.5365 379.628 8.51202 380.79 9.48706C381.95 10.4607 383.11 11.4343 384.232 12.4498C386.479 14.4829 383.348 18.0261 380.636 16.0107C379.512 14.9942 378.352 14.0196 377.191 13.0455C376.03 12.071 374.869 11.0964 373.746 10.0799L373.263 9.60954L371.903 10.6394C370.698 11.6635 369.649 12.6819 368.599 13.6999C368.323 13.9558 368.051 14.2298 367.779 14.5048C366.425 15.8725 365.053 17.2583 362.958 16.524C362.033 16.1489 361.2 15.3121 360.481 14.5891C360.343 14.45 360.208 14.3151 360.079 14.1888C359.338 13.5707 358.662 12.8783 357.964 12.163C357.606 11.7965 357.242 11.4238 356.86 11.0516C356.705 10.9001 356.532 10.7152 356.353 10.5241C355.977 10.1223 355.574 9.69198 355.251 9.48325C354.81 9.22829 354.802 9.00716 354.727 8.97905C354.666 8.95665 354.562 9.05768 354.16 9.3622C353.398 9.85926 352.727 10.6894 352.079 11.4929C351.824 11.8079 351.573 12.1191 351.321 12.4046L351.136 12.5966C349.421 14.3794 347.942 15.9178 345.358 14.9151C340.946 13.1275 336.821 10.677 332.839 7.89535C332.249 8.73314 331.509 9.73916 330.919 10.577C330.693 10.9187 330.469 11.2813 330.239 11.6521C329.57 12.7329 328.859 13.8814 327.966 14.765C325.785 16.9243 323.334 15.182 321.23 13.687C321.022 13.5388 320.816 13.393 320.615 13.2533C319.901 12.7925 319.226 12.3302 318.551 11.8684C317.873 11.4043 317.195 10.9401 316.478 10.4774C316.234 10.3196 315.905 10.0585 315.53 9.76061C314.438 8.89517 312.956 7.7195 312.037 7.87628C311.638 7.99781 311.121 8.53775 310.685 8.99477C310.451 9.2402 310.239 9.46133 310.081 9.58094C309.783 9.91835 309.444 10.2167 309.106 10.515C308.768 10.8133 308.429 11.1112 308.131 11.4486C307.454 12.0448 306.816 12.64 306.178 13.2352C305.54 13.83 304.901 14.4247 304.224 15.0214C303.33 16.0336 302.084 15.9183 301.285 15.2968C301.279 15.1338 301.124 15.14 301.124 15.14C300.009 14.3675 298.856 13.5965 297.703 12.8254C296.549 12.0543 295.396 11.2837 294.281 10.5112C294.166 10.4564 293.946 10.2986 293.697 10.1204C293.259 9.80683 292.732 9.4294 292.534 9.43702C292.534 9.43702 292.422 9.63003 292.299 9.77729C292.224 9.86736 292.146 9.94075 292.087 9.94313C291.362 10.1914 290.513 10.9654 289.76 11.6535C289.398 11.9833 289.059 12.2931 288.765 12.5156C288.474 12.7553 288.179 13.0103 287.879 13.27C286.466 14.491 284.933 15.8163 283.154 16.1532C281.15 16.5559 279.099 15.6561 277.353 14.582C276.745 14.2574 276.113 13.8595 275.462 13.4497C273.064 11.9399 270.413 10.2705 267.773 11.5253C266.741 12.029 265.724 12.9455 264.68 13.8862C262.792 15.5875 260.815 17.3694 258.5 16.9333C257.01 16.7503 255.656 15.6819 254.41 14.7002C253.961 14.3461 253.527 14.003 253.105 13.7165C252.805 13.5426 252.492 13.3401 252.169 13.1308C250.788 12.2359 249.217 11.2175 247.602 11.8079C246.29 12.3236 244.986 13.0522 243.682 13.7809C242.704 14.3275 241.726 14.8736 240.745 15.3302L240.466 15.4646C238.743 16.3019 237.135 17.082 235.211 16.8461C233.339 16.5916 231.283 15.5294 229.536 14.4547C228.875 14.0063 228.236 13.444 227.603 12.8859C226.711 12.1005 225.828 11.3237 224.904 10.8829C223.644 10.1533 222.073 11.7031 220.876 12.884C220.568 13.188 220.285 13.4673 220.038 13.677C218.524 14.713 216.848 15.5923 214.982 15.5008C212.254 15.4951 210.041 14.0544 207.819 12.6085C206.755 11.9151 205.688 11.2208 204.561 10.6828C201.214 9.08389 196.92 9.18492 194.79 12.6143C194.413 14.1912 192.335 15.4317 190.473 14.0282C189.357 13.005 188.203 12.0228 187.05 11.0411C185.895 10.058 184.74 9.07484 183.622 8.04975L183.143 7.57605L181.776 8.59684C180.564 9.6124 179.508 10.6232 178.452 11.634C178.174 11.888 177.9 12.1601 177.627 12.4332C176.263 13.7914 174.882 15.1672 172.792 14.4185C171.87 14.0377 171.043 13.1957 170.329 12.468C170.191 12.3278 170.058 12.1915 169.928 12.0638C169.191 11.4395 168.519 10.7423 167.825 10.0213C167.47 9.65291 167.109 9.27833 166.731 8.90423C166.576 8.75173 166.405 8.56587 166.227 8.37334C165.854 7.96874 165.454 7.53554 165.132 7.3249C164.693 7.06661 164.687 6.84548 164.611 6.81689C164.551 6.79401 164.446 6.89409 164.042 7.19575C163.276 7.68804 162.6 8.51345 161.946 9.31216C161.69 9.62574 161.437 9.93503 161.183 10.2186L160.997 10.4092C159.27 12.1801 157.781 13.7084 155.203 12.6876C150.803 10.8696 146.695 8.39049 142.732 5.58116C142.136 6.41467 141.389 7.41593 140.793 8.24943C140.565 8.58922 140.338 8.95045 140.106 9.31979C139.43 10.3963 138.711 11.5396 137.813 12.417C135.617 14.5615 133.177 12.8015 131.084 11.2913C130.876 11.1417 130.672 10.9944 130.472 10.8538C129.76 10.3873 129.086 9.91978 128.413 9.4518C127.739 8.98381 127.066 8.51583 126.354 8.04928C126.111 7.8901 125.783 7.62704 125.41 7.32681C124.324 6.45327 122.85 5.26711 121.93 5.41723C121.529 5.53589 121.009 6.0725 120.57 6.52666C120.334 6.77019 120.121 6.98988 119.963 7.10854C119.662 7.44357 119.322 7.73951 118.981 8.03498C118.641 8.33092 118.3 8.62687 118 8.96237C117.318 9.55521 116.675 10.1466 116.032 10.738C115.391 11.3275 114.749 11.917 114.07 12.508C113.168 13.514 111.923 13.3896 111.129 12.7629C111.124 12.6 110.969 12.6047 110.969 12.6047C109.859 11.8246 108.711 11.0454 107.562 10.2662C106.414 9.48754 105.266 8.70884 104.157 7.92871C103.842 7.77573 102.727 6.83261 102.417 6.84262C102.417 6.84262 102.122 7.34063 101.966 7.3454C101.239 7.58844 100.385 8.35713 99.6272 9.04005C99.264 9.36697 98.9227 9.67435 98.6276 9.89452C98.3352 10.1323 98.0386 10.3854 97.7364 10.6432C96.3157 11.8546 94.774 13.169 92.9919 13.493C90.9858 13.8819 88.9411 12.9679 87.2018 11.8818C86.5956 11.553 85.9659 11.1503 85.3178 10.7361C82.9302 9.2097 80.2908 7.52172 77.6421 8.7584C76.6071 9.25498 75.5844 10.1643 74.5344 11.0974C72.6347 12.7858 70.6456 14.5539 68.3332 14.1016C66.8442 13.9086 65.4968 12.8306 64.2581 11.8394C63.8118 11.4824 63.3796 11.1364 62.96 10.8476C62.6609 10.6718 62.3497 10.4669 62.0282 10.2553C60.6526 9.35077 59.0886 8.32187 57.4704 8.90089C56.1549 9.40795 54.8456 10.1271 53.5364 10.8467C52.5549 11.3862 51.5735 11.9256 50.5893 12.3755L50.3108 12.508C48.5812 13.3324 46.9685 14.1016 45.0459 13.8528C43.1756 13.585 41.1261 12.5085 39.3867 11.4224C38.7289 10.9692 38.0944 10.403 37.4646 9.84067C36.5777 9.0491 35.7 8.26563 34.7792 7.81814C33.5232 7.07995 31.9422 8.61877 30.7382 9.79063C30.428 10.0928 30.1428 10.3701 29.8946 10.5784C28.373 11.6039 26.6915 12.4713 24.826 12.3664C22.0976 12.3421 19.8941 10.8862 17.6826 9.42463C16.6225 8.72409 15.5605 8.02211 14.438 7.47645C10.9737 5.79228 6.47707 5.93287 4.41724 9.74583C2.9487 12.5623 -1.15509 10.2462 0.313448 7.42975C2.6689 3.11877 7.26749 1.18203 11.7834 1.6929C14.2739 1.94071 16.4737 2.84999 18.528 4.08953C19.1295 4.43265 19.7173 4.84202 20.3094 5.25472C21.5822 6.1416 22.8749 7.04183 24.3663 7.32919C26.0681 7.7824 27.3459 6.57575 28.6133 5.3791C28.9769 5.03598 29.3396 4.69333 29.7113 4.39119C31.2232 3.04014 33.2149 2.16327 35.245 2.58836C36.7733 2.88287 37.9436 3.90558 39.1058 4.92113C39.6054 5.35766 40.1035 5.79276 40.6279 6.16829L40.8799 6.34223C42.4569 7.43261 44.6874 8.97476 46.4518 8.91948C47.4487 8.77174 48.5901 8.11647 49.551 7.56461C49.9305 7.34682 50.282 7.14524 50.5852 6.99751L53.7979 5.43009L54.0912 5.27617C55.9665 4.29111 57.7241 3.36801 59.7969 3.61297C61.9821 4.03329 63.8814 5.2776 65.7806 6.5219C66.2545 6.83261 66.6897 7.14429 67.1249 7.45596C67.5618 7.76906 67.9987 8.08168 68.4745 8.39335C68.6362 8.50725 68.7712 8.60781 68.887 8.69406C69.566 9.20065 69.5885 9.2178 70.495 8.49295C71.0338 8.09074 71.5632 7.66993 72.0912 7.25056C74.6882 5.18705 77.2527 3.14927 80.7439 3.44617C83.3086 3.67587 85.4058 4.96831 87.5184 6.2698C88.7385 7.02133 89.9637 7.77621 91.2869 8.3314C92.3868 8.78604 93.007 8.7665 93.9181 8.08645C94.674 7.41068 95.5851 6.73015 96.4961 6.0501C96.9064 5.71651 97.3248 5.34288 97.7524 4.96116C99.0624 3.79215 100.458 2.54595 101.967 2.13038C103.765 1.66669 105.283 2.68415 106.747 3.66539C107.038 3.86078 107.328 4.05474 107.617 4.23536C109.516 5.47966 111.255 6.56574 113 7.81528C114.057 6.88742 115.075 5.96051 116.093 5.0336C117.115 4.10382 118.137 3.17405 119.198 2.24333C122.076 -0.128517 124.741 0.765988 127.435 2.63744C128.431 3.22266 129.367 3.8746 130.28 4.51081C130.815 4.88348 131.342 5.25043 131.868 5.59499C132.24 5.86996 132.612 6.17258 132.989 6.47853C133.898 7.21672 134.831 7.97446 135.831 8.40431L135.982 8.23704C136.127 7.90631 136.277 7.73856 136.427 7.57081L138.216 5.07029C138.737 4.32066 139.259 3.61201 139.781 2.90337C140.303 2.19424 140.825 1.48512 141.346 0.735489C141.947 0.0644901 143.333 -0.304845 144.128 0.32231C146.507 2.04079 148.886 3.75879 151.41 5.14654L154.724 6.99846C154.934 7.10044 155.161 7.18384 155.388 7.26724C155.841 7.43451 156.294 7.60131 156.614 7.91727C157.068 7.90297 157.278 8.07072 157.179 8.29566L157.394 8.05595C158.048 7.43785 158.648 6.73111 159.247 6.02437C160.447 4.61041 161.647 3.19645 163.282 2.49352C165.729 1.27639 167.633 2.6832 169.391 4.42121C170.128 5.04456 170.799 5.74129 171.493 6.46137C171.848 6.83023 172.21 7.20576 172.589 7.58034C172.743 7.73284 172.93 7.88391 173.122 8.0407C173.529 8.37095 173.964 8.72456 174.188 9.16014C174.343 9.15537 174.348 9.31788 174.503 9.31312C176.146 7.14333 178.724 5.10699 180.851 3.57341C183.434 1.70005 185.014 2.62839 187.242 4.51414C188.359 5.53875 189.513 6.52094 190.668 7.50314C191.091 7.86342 191.514 8.2237 191.936 8.58636Z" fill="#F1C527"/>
</svg>
