<svg width="24" height="16" viewBox="0 0 24 16" fill="none" xmlns="http://www.w3.org/2000/svg">
<path d="M24 0H0V16H24V0Z" fill="#FF0000"/>
<path d="M18 0H6V16H18V0Z" fill="#F5F5F5"/>
<path d="M12.0003 2.99756L11.1523 4.58156C11.0563 4.75223 10.8856 4.73623 10.7096 4.64023L10.0963 4.32023L10.5549 6.75223C10.6509 7.19489 10.3416 7.19489 10.1869 7.00289L9.11493 5.80289L8.93894 6.41089C8.9176 6.49089 8.83227 6.57623 8.69894 6.55489L7.34427 6.26689L7.7016 7.56289C7.77627 7.85089 7.83494 7.96823 7.62694 8.04823L7.1416 8.27756L9.4776 10.1762C9.56827 10.2456 9.61627 10.3789 9.58427 10.4962L9.3816 11.1682C10.1869 11.0776 10.9069 10.9336 11.7123 10.8482C11.7816 10.8429 11.9043 10.9602 11.9043 11.0402L11.7976 13.4989H12.1869L12.1229 11.0456C12.1229 10.9656 12.2296 10.8429 12.2989 10.8482C13.1043 10.9336 13.8243 11.0722 14.6296 11.1682L14.4269 10.4962C14.3949 10.3789 14.4429 10.2509 14.5336 10.1762L16.8696 8.27756L16.3843 8.04823C16.1709 7.97356 16.2296 7.85089 16.3096 7.56289L16.6669 6.26689L15.3123 6.55489C15.1789 6.57623 15.0936 6.49089 15.0723 6.41089L14.8963 5.80289L13.8136 7.00822C13.6589 7.20023 13.3496 7.20023 13.4456 6.75756L13.9043 4.32556L13.2909 4.64556C13.1203 4.74156 12.9443 4.75756 12.8483 4.58689L12.0003 2.99756Z" fill="#FF0000"/>
</svg>
