<svg width="24" height="16" viewBox="0 0 24 16" fill="none" xmlns="http://www.w3.org/2000/svg">
<path d="M0 0H24V16H0V0Z" fill="#00008B"/>
<path d="M6.36757 9.17334L6.70891 10.24L7.75957 9.84001L7.13557 10.7787L8.10091 11.3493L6.98624 11.4453L7.14091 12.5547L6.36757 11.744L5.59424 12.5547L5.74891 11.4453L4.62891 11.3493L5.59424 10.7787L4.97557 9.84001L6.02091 10.24L6.36757 9.17334Z" fill="#F5F5F5"/>
<path d="M18.2349 11.0933L18.4002 11.5999L18.8962 11.4133L18.6029 11.8559L19.0615 12.1279L18.5282 12.1759L18.6029 12.7039L18.2349 12.3199L17.8669 12.7039L17.9415 12.1759L17.4082 12.1279L17.8669 11.8559L17.5735 11.4133L18.0695 11.5999L18.2349 11.0933Z" fill="#F5F5F5"/>
<path d="M15.269 6.39453L15.429 6.90653L15.9304 6.71453L15.6371 7.1572L16.0957 7.43453L15.5624 7.4772L15.6371 8.0052L15.269 7.6212L14.901 8.0052L14.9704 7.4772L14.4424 7.43453L14.901 7.1572L14.6024 6.71453L15.1037 6.90653L15.269 6.39453Z" fill="#F5F5F5"/>
<path d="M18.2349 3.18408L18.4002 3.69075L18.8962 3.49875L18.6029 3.94675L19.0615 4.21875L18.5282 4.26675L18.6029 4.79475L18.2349 4.40542L17.8669 4.79475L17.9415 4.26675L17.4082 4.21875L17.8669 3.94675L17.5735 3.49875L18.0695 3.69075L18.2349 3.18408Z" fill="#F5F5F5"/>
<path d="M20.8692 5.60547L21.0345 6.11214L21.5359 5.92547L21.2372 6.36814L21.6959 6.64014L21.1679 6.68814L21.2372 7.21614L20.8692 6.8268L20.5065 7.21614L20.5759 6.68814L20.0479 6.64014L20.5065 6.36814L20.2079 5.92547L20.7092 6.11214L20.8692 5.60547Z" fill="#F5F5F5"/>
<path d="M19.4239 7.98389L19.5519 8.30389L19.8932 8.32522L19.6319 8.54922L19.7119 8.87989L19.4239 8.69855L19.1306 8.87989L19.2106 8.54922L18.9492 8.32522L19.2906 8.30389L19.4239 7.98389Z" fill="#F5F5F5"/>
<path d="M0 5.3335V7.16816L2.752 5.3335H0Z" fill="#00008B"/>
<path d="M10.7517 0H7.33301V2.27733L10.7517 0Z" fill="#00008B"/>
<path d="M1.24805 7.99999H4.66671V5.72266L1.24805 7.99999Z" fill="#00008B"/>
<path d="M0 0.832031V2.6667H2.752L0 0.832031Z" fill="#00008B"/>
<path d="M4.66671 0H1.24805L4.66671 2.27733V0Z" fill="#00008B"/>
<path d="M12 7.16816V5.3335H9.24805L12 7.16816Z" fill="#00008B"/>
<path d="M12 2.6667V0.832031L9.24805 2.6667H12Z" fill="#00008B"/>
<path d="M7.33301 7.99999H10.7517L7.33301 5.72266V7.99999Z" fill="#00008B"/>
<path d="M4.66667 2.66667V2.27733L1.248 0H0L4 2.66667H4.66667Z" fill="#F5F5F5"/>
<path d="M3.168 2.66669L0 0.554688V0.832021L2.752 2.66669H3.168Z" fill="#F5F5F5"/>
<path d="M7.33301 5.3335V5.72283L10.7517 8.00016H11.9997L7.99967 5.3335H7.33301Z" fill="#F5F5F5"/>
<path d="M4.6667 5.44531L0.832031 7.99998H1.24803L4.6667 5.72265V5.44531Z" fill="#F5F5F5"/>
<path d="M2.752 5.3335L0 7.16816V8.00016L4 5.3335H2.752Z" fill="#F5F5F5"/>
<path d="M8.83203 5.3335L12 7.4455V7.16816L9.24803 5.3335H8.83203Z" fill="#F5F5F5"/>
<path d="M9.248 2.66667L12 0.832V0L8 2.66667H9.248Z" fill="#F5F5F5"/>
<path d="M7.33301 2.55467L11.1677 0H10.7517L7.33301 2.27733V2.55467Z" fill="#F5F5F5"/>
<path d="M4 2.66667L0 0V0.554667L3.168 2.66667H4Z" fill="#CF142B"/>
<path d="M8.832 5.3335H8L12 8.00016V7.4455L8.832 5.3335Z" fill="#CF142B"/>
<path d="M4.66667 5.3335H4L0 8.00016H0.832L4.66667 5.4455V5.3335Z" fill="#CF142B"/>
<path d="M7.33301 2.66667H7.99967L11.9997 0H11.1677L7.33301 2.55467V2.66667Z" fill="#CF142B"/>
<path d="M6.7998 3.2H11.9998V2.66667H9.2478H7.9998H7.33314V2.55467V2.27733V0H6.7998V3.2Z" fill="#F5F5F5"/>
<path d="M7.33314 5.33314H7.9998H8.8318H9.2478H11.9998V4.7998H6.7998V7.9998H7.33314V5.72247V5.33314Z" fill="#F5F5F5"/>
<path d="M5.2 4.7998H0V5.33314H2.752H4H4.66667V5.44514V5.72247V7.9998H5.2V4.7998Z" fill="#F5F5F5"/>
<path d="M5.2 3.2V0H4.66667V2.27733V2.66667H4H3.168H2.752H0V3.2H5.2Z" fill="#F5F5F5"/>
<path d="M6.8 4.8H12V4V3.2H6.8V0H6H5.2V3.2H0V4V4.8H5.2V8H6H6.8V4.8Z" fill="#CF142B"/>
</svg>
