<svg width="24" height="16" viewBox="0 0 24 16" fill="none" xmlns="http://www.w3.org/2000/svg">
<path d="M0 10.6665V14.3358L5.49867 10.6665H0Z" fill="#00247D"/>
<path d="M21.499 0H14.667V4.55467L21.499 0Z" fill="#00247D"/>
<path d="M2.49609 16H9.33343V11.4453L2.49609 16Z" fill="#00247D"/>
<path d="M0 1.66406V5.3334H5.49867L0 1.66406Z" fill="#00247D"/>
<path d="M9.33343 0H2.49609L9.33343 4.55467V0Z" fill="#00247D"/>
<path d="M24.0001 14.3358V10.6665H18.4961L24.0001 14.3358Z" fill="#00247D"/>
<path d="M24.0001 5.3334V1.66406L18.4961 5.3334H24.0001Z" fill="#00247D"/>
<path d="M14.667 16H21.499L14.667 11.4453V16Z" fill="#00247D"/>
<path d="M9.33333 5.33333V4.55467L2.496 0H0L8 5.33333H9.33333Z" fill="#F5F5F5"/>
<path d="M6.33066 5.33337L0 1.10938V1.66404L5.49867 5.33337H6.33066Z" fill="#F5F5F5"/>
<path d="M14.667 10.6665V11.4452L21.499 15.9998H24.0003L16.0003 10.6665H14.667Z" fill="#F5F5F5"/>
<path d="M9.3334 10.8853L1.66406 15.9999H2.49606L9.3334 11.4453V10.8853Z" fill="#F5F5F5"/>
<path d="M5.49867 10.6665L0 14.3358V15.9998L8 10.6665H5.49867Z" fill="#F5F5F5"/>
<path d="M17.6641 10.6665L24.0001 14.8905V14.3358L18.4961 10.6665H17.6641Z" fill="#F5F5F5"/>
<path d="M18.496 5.33333L24 1.664V0L16 5.33333H18.496Z" fill="#F5F5F5"/>
<path d="M14.667 5.11467L22.331 0H21.499L14.667 4.55467V5.11467Z" fill="#F5F5F5"/>
<path d="M8 5.33333L0 0V1.10933L6.33066 5.33333H8Z" fill="#CF142B"/>
<path d="M17.664 10.6665H16L24 15.9998V14.8905L17.664 10.6665Z" fill="#CF142B"/>
<path d="M9.33333 10.6665H8L0 15.9998H1.664L9.33333 10.8852V10.6665Z" fill="#CF142B"/>
<path d="M14.667 5.33333H16.0003L24.0003 0H22.331L14.667 5.11467V5.33333Z" fill="#CF142B"/>
<path d="M13.5996 6.4H23.9996V5.33333H18.4956H15.9996H14.6663V5.11467V4.55467V0H13.5996V6.4Z" fill="#F5F5F5"/>
<path d="M14.6663 10.6668H15.9996H17.6636H18.4956H23.9996V9.6001H13.5996V16.0001H14.6663V11.4454V10.6668Z" fill="#F5F5F5"/>
<path d="M10.4 9.6001H0V10.6668H5.49867H8H9.33333V10.8854V11.4454V16.0001H10.4V9.6001Z" fill="#F5F5F5"/>
<path d="M10.4 6.4V0H9.33333V4.55467V5.33333H8H6.33066H5.49867H0V6.4H10.4Z" fill="#F5F5F5"/>
<path d="M13.6 9.6H24V8V6.4H13.6V0H12H10.4V6.4H0V8V9.6H10.4V16H12H13.6V9.6Z" fill="#CF142B"/>
</svg>
