<svg width="24" height="16" viewBox="0 0 24 16" fill="none" xmlns="http://www.w3.org/2000/svg">
<mask id="mask0" mask-type="alpha" maskUnits="userSpaceOnUse" x="0" y="0" width="24" height="16">
<rect width="24" height="16" rx="1" fill="black"/>
</mask>
<g mask="url(#mask0)">
<path d="M24.2744 -0.0629883H-0.0429688V16.0628H24.2744V-0.0629883Z" fill="#B50900"/>
<path d="M24.2577 14.7386H-0.0429688V13.6372H24.2577V14.7386ZM24.2577 12.2601H-0.0429688V11.1587H24.2577V12.2601ZM24.2577 9.78153H-0.0429688V8.68013H24.2577V9.78153ZM24.2577 7.30353H-0.0429688V6.20214H24.2577V7.30353ZM24.2577 4.82499H-0.0429688V3.7236H24.2577V4.82499ZM24.2577 2.34646H-0.0429688V1.24561H24.2577V2.34646Z" fill="white"/>
<path d="M11.6618 -0.0629883H-0.0429688V8.67719H11.6618V-0.0629883Z" fill="#2B1D73"/>
<path d="M0.674351 0.308594L0.562666 0.650738H0.201172L0.493604 0.862363L0.381919 1.20451L0.674351 0.992882L0.966784 1.20451L0.855098 0.862363L1.14753 0.650738H0.786037L0.674351 0.308594Z" fill="white"/>
<path d="M0.674351 2.04297L0.562666 2.38511H0.201172L0.493604 2.59674L0.381919 2.93888L0.674351 2.72725L0.966784 2.93888L0.855098 2.59674L1.14753 2.38511H0.786037L0.674351 2.04297Z" fill="white"/>
<path d="M0.674351 3.77881L0.562666 4.12095H0.201172L0.493604 4.33258L0.381919 4.67472L0.674351 4.4631L0.966784 4.67472L0.855098 4.33258L1.14753 4.12095H0.786037L0.674351 3.77881Z" fill="white"/>
<path d="M0.674351 5.51318L0.562666 5.85533H0.201172L0.493604 6.06695L0.381919 6.40909L0.674351 6.19747L0.966784 6.40909L0.855098 6.06695L1.14753 5.85533H0.786037L0.674351 5.51318Z" fill="white"/>
<path d="M0.786037 7.5897L0.674351 7.24756L0.562666 7.5897H0.201172L0.493604 7.80133L0.381919 8.14401L0.674351 7.93238L0.966784 8.14401L0.855098 7.80133L1.14753 7.5897H0.786037Z" fill="white"/>
<path d="M1.69877 1.17578L1.58708 1.51792H1.22559L1.51802 1.72955L1.40633 2.07223L1.69877 1.86061L1.9912 2.07223L1.87951 1.72955L2.17195 1.51792H1.81045L1.69877 1.17578Z" fill="white"/>
<path d="M1.69877 2.91211L1.58708 3.25425H1.22559L1.51802 3.46588L1.40633 3.80802L1.69877 3.5964L1.9912 3.80802L1.87951 3.46588L2.17195 3.25425H1.81045L1.69877 2.91211Z" fill="white"/>
<path d="M1.69877 4.646L1.58708 4.98814H1.22559L1.51802 5.19976L1.40633 5.54244L1.69877 5.33082L1.9912 5.54244L1.87951 5.19976L2.17195 4.98814H1.81045L1.69877 4.646Z" fill="white"/>
<path d="M1.81045 6.72252L1.69877 6.38037L1.58708 6.72252H1.22559L1.51802 6.93414L1.40633 7.27629L1.69877 7.06466L1.9912 7.27629L1.87951 6.93414L2.17195 6.72252H1.81045Z" fill="white"/>
<path d="M2.72611 0.308594L2.61442 0.650738H2.25293L2.54536 0.862363L2.43368 1.20451L2.72611 0.992882L3.01854 1.20451L2.90685 0.862363L3.19929 0.650738H2.83779L2.72611 0.308594Z" fill="white"/>
<path d="M2.72611 2.04248L2.61442 2.38462H2.25293L2.54536 2.59625L2.43368 2.93839L2.72611 2.72677L3.01854 2.93839L2.90685 2.59625L3.19929 2.38462H2.83779L2.72611 2.04248Z" fill="white"/>
<path d="M2.72611 3.77881L2.61442 4.12095H2.25293L2.54536 4.33258L2.43368 4.67472L2.72611 4.4631L3.01854 4.67472L2.90685 4.33258L3.19929 4.12095H2.83779L2.72611 3.77881Z" fill="white"/>
<path d="M2.72611 5.51318L2.61442 5.85533H2.25293L2.54536 6.06695L2.43368 6.40909L2.72611 6.19747L3.01854 6.40909L2.90685 6.06695L3.19929 5.85533H2.83779L2.72611 5.51318Z" fill="white"/>
<path d="M2.83779 7.5897L2.72611 7.24756L2.61442 7.5897H2.25293L2.54536 7.80133L2.43368 8.14401L2.72611 7.93238L3.01854 8.14401L2.90685 7.80133L3.19929 7.5897H2.83779Z" fill="white"/>
<path d="M3.75053 1.1748L3.63884 1.51695H3.27734L3.56978 1.72857L3.45809 2.07125L3.75053 1.85963L4.04296 2.07125L3.93127 1.72857L4.22371 1.51695H3.86221L3.75053 1.1748Z" fill="white"/>
<path d="M3.75053 2.91113L3.63884 3.25328H3.27734L3.56978 3.4649L3.45809 3.80704L3.75053 3.59542L4.04296 3.80704L3.93127 3.4649L4.22371 3.25328H3.86221L3.75053 2.91113Z" fill="white"/>
<path d="M3.75053 4.646L3.63884 4.98814H3.27734L3.56978 5.19976L3.45809 5.54244L3.75053 5.33082L4.04296 5.54244L3.93127 5.19976L4.22371 4.98814H3.86221L3.75053 4.646Z" fill="white"/>
<path d="M3.86221 6.72252L3.75053 6.38037L3.63884 6.72252H3.27734L3.56978 6.93414L3.45809 7.27629L3.75053 7.06466L4.04296 7.27629L3.93127 6.93414L4.22371 6.72252H3.86221Z" fill="white"/>
<path d="M4.77689 0.308594L4.6652 0.650738H4.30371L4.59614 0.862363L4.48446 1.20451L4.77689 0.992882L5.06932 1.20451L4.95764 0.862363L5.25007 0.650738H4.88858L4.77689 0.308594Z" fill="white"/>
<path d="M4.77591 2.04248L4.66423 2.38462H4.30273L4.59517 2.59625L4.48348 2.93839L4.77591 2.72677L5.06835 2.93839L4.95666 2.59625L5.24909 2.38462H4.8876L4.77591 2.04248Z" fill="white"/>
<path d="M4.77591 3.77881L4.66423 4.12095H4.30273L4.59517 4.33258L4.48348 4.67472L4.77591 4.4631L5.06835 4.67472L4.95666 4.33258L5.24909 4.12095H4.8876L4.77591 3.77881Z" fill="white"/>
<path d="M4.77591 5.51318L4.66423 5.85533H4.30273L4.59517 6.06695L4.48348 6.40909L4.77591 6.19747L5.06835 6.40909L4.95666 6.06695L5.24909 5.85533H4.8876L4.77591 5.51318Z" fill="white"/>
<path d="M4.8876 7.5897L4.77591 7.24756L4.66423 7.5897H4.30273L4.59517 7.80133L4.48348 8.14401L4.77591 7.93238L5.06835 8.14401L4.95666 7.80133L5.24909 7.5897H4.8876Z" fill="white"/>
<path d="M5.80326 1.17529L5.69157 1.51744H5.33008L5.62251 1.72906L5.51083 2.07174L5.80326 1.86012L6.09569 2.07174L5.984 1.72906L6.27644 1.51744H5.91494L5.80326 1.17529Z" fill="white"/>
<path d="M5.80326 2.91113L5.69157 3.25328H5.33008L5.62251 3.4649L5.51083 3.80704L5.80326 3.59542L6.09569 3.80704L5.984 3.4649L6.27644 3.25328H5.91494L5.80326 2.91113Z" fill="white"/>
<path d="M5.80326 4.646L5.69157 4.98814H5.33008L5.62251 5.19976L5.51083 5.54244L5.80326 5.33082L6.09569 5.54244L5.984 5.19976L6.27644 4.98814H5.91494L5.80326 4.646Z" fill="white"/>
<path d="M5.91494 6.723L5.80326 6.38086L5.69157 6.723H5.33008L5.62251 6.93463L5.51083 7.27677L5.80326 7.06515L6.09569 7.27677L5.984 6.93463L6.27644 6.723H5.91494Z" fill="white"/>
<path d="M6.82865 0.308594L6.71696 0.650738H6.35547L6.6479 0.862363L6.53622 1.20451L6.82865 0.992882L7.12108 1.20451L7.00939 0.862363L7.30183 0.650738H6.94033L6.82865 0.308594Z" fill="white"/>
<path d="M6.82865 2.04248L6.71696 2.38462H6.35547L6.6479 2.59625L6.53622 2.93839L6.82865 2.72677L7.12108 2.93839L7.00939 2.59625L7.30183 2.38462H6.94033L6.82865 2.04248Z" fill="white"/>
<path d="M6.82865 3.77881L6.71696 4.12095H6.35547L6.6479 4.33258L6.53622 4.67472L6.82865 4.4631L7.12108 4.67472L7.00939 4.33258L7.30183 4.12095H6.94033L6.82865 3.77881Z" fill="white"/>
<path d="M6.82865 5.51318L6.71696 5.85533H6.35547L6.6479 6.06695L6.53622 6.40909L6.82865 6.19747L7.12108 6.40909L7.00939 6.06695L7.30183 5.85533H6.94033L6.82865 5.51318Z" fill="white"/>
<path d="M6.94033 7.5897L6.82865 7.24756L6.71696 7.5897H6.35547L6.6479 7.80133L6.53622 8.14401L6.82865 7.93238L7.12108 8.14401L7.00939 7.80133L7.30183 7.5897H6.94033Z" fill="white"/>
<path d="M7.85404 1.17529L7.74235 1.51744H7.38086L7.67329 1.72906L7.56161 2.07174L7.85404 1.86012L8.14647 2.07174L8.03479 1.72906L8.32722 1.51744H7.96573L7.85404 1.17529Z" fill="white"/>
<path d="M7.85404 2.91113L7.74235 3.25328H7.38086L7.67329 3.4649L7.56161 3.80704L7.85404 3.59542L8.14647 3.80704L8.03479 3.4649L8.32722 3.25328H7.96573L7.85404 2.91113Z" fill="white"/>
<path d="M7.85404 4.646L7.74235 4.98814H7.38086L7.67329 5.19976L7.56161 5.54244L7.85404 5.33082L8.14647 5.54244L8.03479 5.19976L8.32722 4.98814H7.96573L7.85404 4.646Z" fill="white"/>
<path d="M7.96573 6.723L7.85404 6.38086L7.74235 6.723H7.38086L7.67329 6.93463L7.56161 7.27677L7.85404 7.06515L8.14647 7.27677L8.03479 6.93463L8.32722 6.723H7.96573Z" fill="white"/>
<path d="M8.88041 0.308594L8.76872 0.650738H8.40723L8.7002 0.862363L8.58851 1.20451L8.88041 0.992882L9.17284 1.20451L9.06115 0.862363L9.35358 0.650738H8.99209L8.88041 0.308594Z" fill="white"/>
<path d="M8.87943 2.04248L8.76774 2.38462H8.40625L8.69922 2.59625L8.58754 2.93839L8.87943 2.72677L9.17186 2.93839L9.06018 2.59625L9.35261 2.38462H8.99111L8.87943 2.04248Z" fill="white"/>
<path d="M8.87943 3.77881L8.76774 4.12095H8.40625L8.69922 4.33258L8.58754 4.67472L8.87943 4.4631L9.17186 4.67472L9.06018 4.33258L9.35261 4.12095H8.99111L8.87943 3.77881Z" fill="white"/>
<path d="M8.87943 5.51318L8.76828 5.85533H8.40625L8.69922 6.06695L8.58754 6.40909L8.87943 6.19747L9.17186 6.40909L9.06018 6.06695L9.35261 5.85533H8.99111L8.87943 5.51318Z" fill="white"/>
<path d="M8.99111 7.5897L8.87943 7.24756L8.76774 7.5897H8.40625L8.69922 7.80133L8.58754 8.14401L8.87943 7.93238L9.17186 8.14401L9.06018 7.80133L9.35261 7.5897H8.99111Z" fill="white"/>
<path d="M9.9058 1.17529L9.79411 1.51744H9.43262L9.72505 1.72906L9.61336 2.07174L9.9058 1.86012L10.1977 2.07174L10.086 1.72906L10.379 1.51744H10.0175L9.9058 1.17529Z" fill="white"/>
<path d="M9.9058 2.91113L9.79411 3.25328H9.43262L9.72505 3.4649L9.61336 3.80704L9.9058 3.59542L10.1977 3.80704L10.086 3.4649L10.379 3.25328H10.0175L9.9058 2.91113Z" fill="white"/>
<path d="M9.9058 4.646L9.79411 4.98814H9.43262L9.72505 5.19976L9.61336 5.54244L9.9058 5.33082L10.1977 5.54244L10.086 5.19976L10.379 4.98814H10.0175L9.9058 4.646Z" fill="white"/>
<path d="M10.0175 6.723L9.9058 6.38086L9.79411 6.723H9.43262L9.72505 6.93463L9.61336 7.27677L9.9058 7.06515L10.1977 7.27677L10.086 6.93463L10.379 6.723H10.0175Z" fill="white"/>
<path d="M10.6388 1.20451L10.9312 0.992882L11.2236 1.20451L11.1119 0.862363L11.4044 0.650738H11.0429L10.9312 0.308594L10.8195 0.650738H10.458L10.7504 0.862363L10.6388 1.20451Z" fill="white"/>
<path d="M10.9322 2.04248L10.8205 2.38462H10.459L10.7514 2.59625L10.6397 2.93839L10.9322 2.72677L11.2246 2.93839L11.1129 2.59625L11.4053 2.38462H11.0438L10.9322 2.04248Z" fill="white"/>
<path d="M10.9322 3.77881L10.8205 4.12095H10.459L10.7514 4.33258L10.6397 4.67472L10.9322 4.4631L11.2246 4.67472L11.1129 4.33258L11.4053 4.12095H11.0438L10.9322 3.77881Z" fill="white"/>
<path d="M10.9322 5.51318L10.8205 5.85533H10.459L10.7514 6.06695L10.6397 6.40909L10.9322 6.19747L11.2246 6.40909L11.1129 6.06695L11.4053 5.85533H11.0438L10.9322 5.51318Z" fill="white"/>
<path d="M11.0438 7.5897L10.9322 7.24756L10.8205 7.5897H10.459L10.7514 7.80133L10.6397 8.14401L10.9322 7.93238L11.2246 8.14401L11.1129 7.80133L11.4053 7.5897H11.0438Z" fill="white"/>
</g>
</svg>
