<svg width="23" height="24" viewBox="0 0 23 24" fill="none" xmlns="http://www.w3.org/2000/svg">
<path d="M13.8335 19.6384C13.9962 19.1181 14.1824 18.5829 14.3294 18.038C14.7091 16.8241 15.0731 15.5856 15.3744 14.3523C15.9929 11.9105 16.3528 9.42563 16.3759 6.87843C16.3812 6.1118 15.604 5.46346 14.8838 5.47257C14.8212 5.47788 14.7351 5.49816 14.6882 5.52811C14.4531 5.47012 14.2104 5.45174 13.9756 5.49761C10.165 6.19724 6.33867 6.87223 2.50461 7.58683C1.90992 7.68919 1.50509 8.39878 1.55398 8.99199C1.62131 10.4407 2.81474 11.4823 3.69508 12.5504L6.40677 15.8138C7.3735 16.9655 8.35597 18.1419 9.29927 19.3085C10.1481 20.3274 11.2585 22.324 12.759 21.4696C13.4702 21.0847 13.5931 20.347 13.8335 19.6384Z" fill="#F1C527"/>
</svg>
