<svg width="73" height="62" viewBox="0 0 73 62" fill="none" xmlns="http://www.w3.org/2000/svg">
<path d="M66.4638 41.3551C65.1493 39.6083 63.8407 37.7502 62.4091 35.9972C59.3417 31.9215 56.1573 27.8394 52.8438 23.9738C46.3338 16.249 39.0791 9.26578 30.8336 3.23441C28.3483 1.42436 24.4185 2.44063 22.764 4.80876C22.6348 5.02519 22.4997 5.35302 22.4876 5.57578C21.749 6.20609 21.1215 6.95412 20.7221 7.82619C14.0911 21.8781 7.34314 35.9236 0.706198 50.0869C-0.350894 52.2639 1.01449 55.2422 3.06165 56.47C7.93936 59.6382 14.1238 58.1853 19.6626 57.8146L36.6362 56.6101C42.6493 56.1533 48.7795 55.7029 54.7865 55.3575C60.0912 54.9741 69.1931 56.0249 69.9178 49.1381C70.3267 45.9206 68.2106 43.7954 66.4638 41.3551Z" fill="#F4F4F4"/>
</svg>
