<svg width="32" height="29" viewBox="0 0 32 29" fill="none" xmlns="http://www.w3.org/2000/svg">
<path d="M28.3826 15.252C27.7024 14.7449 27.0123 14.1956 26.2877 13.6989C24.7006 12.5157 23.0691 11.3429 21.4131 10.2648C18.1455 8.09816 14.6815 6.28903 10.9523 4.94252C9.82916 4.5396 8.47644 5.34697 8.11865 6.40952C8.09418 6.50422 8.07962 6.64106 8.09944 6.72534C7.89314 7.0407 7.74105 7.38778 7.68745 7.75617C6.7513 13.7133 5.77085 19.6809 4.8446 25.6802C4.68847 26.6063 5.52202 27.5666 6.41846 27.8005C8.58087 28.4481 10.7257 27.2321 12.7481 26.4896L18.9383 24.1886C21.128 23.3623 23.362 22.5256 25.5616 21.7414C27.4954 21.0197 31 20.4178 30.5184 17.7737C30.3195 16.5308 29.2995 15.9702 28.3826 15.252Z" fill="#F4F4F4"/>
</svg>
