<svg width="23" height="22" viewBox="0 0 23 22" fill="none" xmlns="http://www.w3.org/2000/svg">
<path d="M17.7967 16.3797C17.6739 15.8491 17.5638 15.2937 17.415 14.7499C17.1284 13.5118 16.8159 12.2605 16.452 11.0454C15.7504 8.62856 14.8042 6.3053 13.5363 4.09864C13.1533 3.43531 12.1557 3.26956 11.5397 3.64158C11.4884 3.67781 11.4245 3.7388 11.3992 3.7883C11.1673 3.85718 10.9488 3.96409 10.7698 4.12229C7.83977 6.6518 4.88375 9.16803 1.94113 11.7223C1.48041 12.1112 1.49032 12.9273 1.83238 13.4138C2.62286 14.6282 4.17789 14.9223 5.47655 15.3977L9.46321 16.8388C10.8786 17.3425 12.3199 17.8595 13.7227 18.3879C14.9693 18.8367 16.9356 19.9958 17.7967 18.501C18.2149 17.8096 17.9479 17.1119 17.7967 16.3797Z" fill="#E9E9E9"/>
</svg>
