<svg width="21" height="19" viewBox="0 0 21 19" fill="none" xmlns="http://www.w3.org/2000/svg">
<path d="M18.4345 10.0532C18.0051 9.71808 17.57 9.35582 17.1121 9.0268C16.1103 8.24497 15.08 7.46919 14.0326 6.75383C11.9663 5.31707 9.76895 4.10695 7.39488 3.18994C6.6798 2.91545 5.80025 3.41438 5.55558 4.09119C5.53853 4.15162 5.52724 4.23923 5.53877 4.2936C5.4019 4.49306 5.29938 4.71364 5.25976 4.94928C4.57451 8.75897 3.86068 12.5747 3.18118 16.4116C3.06785 17.0037 3.58916 17.6318 4.16113 17.7946C5.53966 18.2409 6.9333 17.4909 8.24171 17.0431L12.2469 15.6543C13.6638 15.155 15.1093 14.6497 16.532 14.1777C17.7833 13.742 20.0409 13.4054 19.7693 11.7018C19.6593 10.9013 19.0127 10.5271 18.4345 10.0532Z" fill="#E9E9E9"/>
</svg>
