<svg width="30" height="28" viewBox="0 0 30 28" fill="none" xmlns="http://www.w3.org/2000/svg">
<path d="M22.3228 20.9805C22.1759 20.2896 22.0459 19.567 21.8655 18.8583C21.5226 17.2464 21.1463 15.6167 20.7027 14.0327C19.8489 10.8826 18.6758 7.84824 17.0828 4.95761C16.6016 4.08864 15.3119 3.85063 14.5045 4.31874C14.4372 4.36453 14.3529 4.44213 14.319 4.50574C14.0167 4.58968 13.731 4.72324 13.4951 4.92423C9.63735 8.13627 5.74617 11.3305 1.87148 14.5743C1.26509 15.0679 1.25904 16.1264 1.69131 16.7651C2.68816 18.358 4.69768 18.7755 6.37058 19.4219L11.5065 21.3828C13.3301 22.0687 15.1871 22.7724 16.9937 23.4901C18.5997 24.1009 21.1225 25.6494 22.2736 23.731C22.8319 22.8443 22.5018 21.9334 22.3228 20.9805Z" fill="#59C69F"/>
</svg>
