<svg width="45" height="42" viewBox="0 0 45 42" fill="none" xmlns="http://www.w3.org/2000/svg">
<path d="M37.1191 30.0155C36.6376 28.9329 36.1728 27.7922 35.6301 26.6919C34.5065 24.1657 33.3219 21.6219 32.0426 19.1767C29.5452 14.3039 26.5642 9.73213 22.944 5.54236C21.8518 4.28367 19.6525 4.34178 18.4902 5.39099C18.3956 5.48957 18.2843 5.64625 18.2508 5.76244C17.784 6.00538 17.3614 6.32402 17.0442 6.73595C11.8306 13.3499 6.55594 19.9461 1.32556 26.6181C0.502103 27.6392 0.860486 29.3785 1.79215 30.2763C3.98244 32.5437 7.42571 32.5296 10.3962 33.0084L19.5075 34.4396C22.739 34.9307 26.0315 35.4394 29.2463 35.9887C32.0946 36.4323 36.7738 38.0958 37.9954 34.5468C38.6032 32.8973 37.7444 31.5172 37.1191 30.0155Z" fill="#F4F4F4"/>
</svg>
