<svg width="63" height="61" viewBox="0 0 63 61" fill="none" xmlns="http://www.w3.org/2000/svg">
<path d="M52.7635 24.092C51.3076 23.6398 49.8097 23.1222 48.2851 22.7143C44.8881 21.6593 41.4223 20.6485 37.9717 19.8127C31.1392 18.0971 24.188 17.1047 17.0643 17.0547C14.9204 17.0441 13.1116 19.2213 13.1412 21.2356C13.1564 21.4107 13.2136 21.6512 13.2976 21.7822C13.1368 22.4399 13.0868 23.1189 13.2164 23.7751C15.1947 34.4279 17.1042 45.1249 19.1246 55.8432C19.4142 57.5057 21.4009 58.6338 23.0596 58.4937C27.1108 58.2972 30.0169 54.9537 32.999 52.4856L42.1099 44.8835C45.3253 42.1733 48.6095 39.419 51.8669 36.7744C54.7114 34.3946 60.2888 31.2779 57.8908 27.0865C56.8102 25.0997 54.7466 24.7603 52.7635 24.092Z" fill="#F1C527"/>
</svg>
