<svg width="23" height="22" viewBox="0 0 23 22" fill="none" xmlns="http://www.w3.org/2000/svg">
<path d="M19.0199 9.08902C18.5158 8.88276 17.9989 8.65189 17.469 8.4592C16.2929 7.97793 15.0909 7.51022 13.8889 7.1053C11.5107 6.2819 9.06773 5.71217 6.53403 5.47247C5.77133 5.40192 5.0598 6.12044 5.00758 6.83822C5.00754 6.901 5.02041 6.9884 5.04623 7.03761C4.9685 7.26668 4.92955 7.50678 4.95524 7.74436C5.32747 11.5972 5.67383 15.4637 6.05897 19.3412C6.11027 19.9419 6.7822 20.4053 7.37688 20.4071C8.82477 20.4633 9.96319 19.3639 11.1014 18.5784L14.5807 16.1567C15.8094 15.2923 17.0641 14.4144 18.3057 13.5747C19.3922 12.8163 21.4742 11.8808 20.7514 10.3145C20.4287 9.57372 19.7048 9.38864 19.0199 9.08902Z" fill="#E9E9E9"/>
</svg>
