<svg width="120" height="12" viewBox="0 0 120 12" fill="none" xmlns="http://www.w3.org/2000/svg">
<path d="M96.5166 6.5774C97.7468 4.43263 99.5963 3.46304 101.457 3.78799C102.646 3.98733 103.785 4.68241 104.821 5.63684C105.089 5.88412 105.357 6.16894 105.629 6.45753L105.629 6.45767C106.303 7.17287 106.998 7.91103 107.765 8.15732C108.647 8.43181 109.294 7.486 109.918 6.57494L109.918 6.57416C110.099 6.30977 110.278 6.04831 110.46 5.82049C111.239 4.84736 112.228 4.15084 113.232 4.40033C114.025 4.59449 114.621 5.38928 115.218 6.18442C115.446 6.48891 115.674 6.79345 115.914 7.06435C116.154 7.56444 116.835 8.56463 117.632 8.56463C118.43 8.56463 118.629 8.34451 118.629 8.23446C118.795 7.9995 119.227 7.68346 119.626 8.299C120.125 9.06843 120.125 9.95761 119.626 10.5206C119.128 11.0836 118.131 11.5874 117.134 11.5874C116.336 11.5874 115.636 11.2047 115.385 11.0134C115.03 10.6735 114.693 10.2175 114.355 9.7614C113.942 9.20319 113.529 8.64484 113.083 8.299C112.417 7.78879 111.67 8.93071 111.082 9.83004C110.906 10.0987 110.745 10.3458 110.604 10.5206C109.869 11.4276 109.018 12.0015 108.083 12C106.749 11.9879 105.648 10.8866 104.55 9.78779L104.55 9.78772C103.985 9.22274 103.421 8.65843 102.826 8.24316C101.106 7.03083 98.7931 7.1202 97.8045 10.1021C97.4752 11.0988 96.8575 11.2561 96.359 10.924C96.1674 10.873 95.974 10.7382 95.7907 10.4981C95.216 9.74149 94.6414 8.98797 94.0668 8.23446C93.4909 7.47925 92.915 6.72404 92.3389 5.96566C92.2952 5.90621 92.2495 5.84688 92.2039 5.78755L92.2023 5.78554L92.2018 5.78487C92.1556 5.72493 92.1095 5.66499 92.0653 5.60493C91.9076 5.80209 91.6707 6.07871 91.5233 6.2509C91.4514 6.3348 91.4008 6.39393 91.3909 6.40699C90.8161 7.13933 90.2659 7.92056 89.7402 8.75071C89.6314 8.9221 89.5242 9.09997 89.417 9.27784L89.4161 9.2794C88.7242 10.4276 88.0325 11.5754 86.9256 10.9818C86.4406 10.7123 86.0492 10.0877 85.6834 9.50401L85.6832 9.50375C85.6202 9.40307 85.5578 9.30359 85.4959 9.20737L83.8856 6.72518C83.811 6.6135 83.7271 6.46949 83.6384 6.31728L83.6382 6.31679C83.4581 6.0076 83.2584 5.66472 83.0767 5.49063C82.8777 5.30257 82.8667 5.16266 82.8317 5.14355C82.8009 5.12668 82.7514 5.20392 82.5374 5.42521C82.1854 5.79585 81.8567 6.40949 81.5449 6.99178L81.5446 6.99232C81.3918 7.27745 81.2432 7.55503 81.0977 7.79287C81.0535 7.8658 81.0096 7.93861 80.966 8.01102C80.1438 9.3751 79.4072 10.5972 78.1373 9.79368C75.9299 8.41148 73.8343 6.49159 71.8437 4.40064C71.6806 4.7523 71.5195 5.10385 71.3584 5.45539L71.3552 5.46244C71.1952 5.81161 71.0351 6.1608 70.8732 6.51011C70.7222 6.83779 70.5742 7.19345 70.4239 7.55459L70.4238 7.5548C70.1023 8.3274 69.7704 9.12509 69.3759 9.72753C68.2897 11.4013 67.1026 10.121 66.076 9.01394C65.9375 8.8646 65.802 8.71841 65.67 8.58305C64.9908 7.88289 64.3038 7.18324 63.6168 6.48359C63.5128 6.37686 63.3673 6.19997 63.1981 5.99412L63.198 5.99407C62.6524 5.33051 61.8595 4.3663 61.4102 4.48266C61.1889 4.54352 60.8986 5.04288 60.6704 5.43545C60.5872 5.5786 60.5122 5.70753 60.4518 5.79586C60.2898 6.02751 60.1279 6.26231 59.9659 6.4971C59.804 6.7319 59.6421 6.96669 59.48 7.19834C59.1562 7.66793 58.8322 8.13438 58.5082 8.60082C58.1843 9.06726 57.8603 9.5337 57.5364 10.0033C57.0619 10.6912 56.4756 10.6162 56.0442 10.1775C56.0125 10.1543 55.9889 10.1432 55.9569 10.1075C55.3818 9.5267 54.8067 8.94279 54.2316 8.35887C53.6565 7.77495 53.0814 7.19104 52.5064 6.61027C52.4747 6.57693 52.4204 6.51196 52.3536 6.43199L52.3523 6.43033L52.3522 6.43024C52.1332 6.16791 51.7811 5.74603 51.644 5.74541C51.6331 5.74615 51.5892 5.81609 51.5411 5.89292C51.4869 5.97942 51.4273 6.07463 51.4029 6.08961C51.0198 6.33364 50.5895 6.95078 50.2053 7.50187L50.2052 7.50196L50.2052 7.50201C50.035 7.746 49.8739 7.97704 49.73 8.15701C49.5485 8.37872 49.366 8.61889 49.1808 8.86278L49.1807 8.86287C48.4849 9.77885 47.7495 10.747 46.8751 10.9842C45.8378 11.2799 44.8306 10.5508 43.9314 9.7768C43.6446 9.53127 43.3466 9.23734 43.0395 8.93454L43.0395 8.93451C41.8218 7.73369 40.4626 6.39344 39.1045 7.38047C38.559 7.78168 38.0354 8.50164 37.5024 9.23448L37.5023 9.23453C36.5612 10.5286 35.5908 11.8628 34.4191 11.5531C33.7498 11.38 33.1258 10.6355 32.5313 9.92605L32.5312 9.92596C32.2621 9.6048 31.999 9.29085 31.7404 9.04036C31.6264 8.92992 31.5094 8.81111 31.3899 8.68967L31.3899 8.68964C30.6391 7.9272 29.7869 7.06167 28.9374 7.52069C28.1395 7.94738 27.358 8.61914 26.587 9.28198C26.2129 9.60355 25.8412 9.92302 25.4713 10.2114L25.3733 10.2878C24.5057 10.9653 23.6675 11.6199 22.6706 11.3936C21.6677 11.1693 20.6503 10.3399 19.7888 9.51291C19.4338 9.17306 19.0965 8.71718 18.7592 8.26122L18.759 8.26094L18.7589 8.26087C18.3459 7.70268 17.9329 7.14436 17.4871 6.79854C16.8209 6.28834 16.074 7.43022 15.4858 8.32955L15.4857 8.32961L15.4856 8.3298C15.3099 8.59839 15.1484 8.84534 15.0074 9.02016C14.2731 9.92717 13.4218 10.501 12.4865 10.4995C11.1532 10.4874 10.0522 9.38613 8.95358 8.28734L8.95357 8.28733L8.95337 8.28713C8.38854 7.72219 7.82437 7.15791 7.22961 6.74269C5.50943 5.53036 3.19691 5.61974 2.20833 8.60162C1.49613 10.7572 -0.564727 8.98652 0.147471 6.83097C1.25959 3.47479 3.55179 1.88424 5.8605 2.28752C7.04987 2.48687 8.18876 3.18195 9.22474 4.13637C9.49276 4.38363 9.76104 4.66847 10.0328 4.95703L10.0329 4.9571L10.0329 4.95713C10.7066 5.67237 11.402 6.41056 12.1686 6.65686C13.0508 6.93133 13.6979 5.9856 14.3213 5.07459L14.3213 5.0745C14.5024 4.80982 14.6815 4.54807 14.8638 4.32002C15.6432 3.3469 16.6319 2.65038 17.6355 2.89986C18.4291 3.09403 19.0252 3.88884 19.6215 4.68401C19.8499 4.9885 20.0783 5.29302 20.3178 5.56388C21.0548 6.3991 22.2719 7.75823 23.2206 7.67041C23.687 7.62142 24.2521 7.10414 24.7433 6.65447L24.7434 6.65438C24.9318 6.48194 25.1093 6.31946 25.2662 6.19713C25.7866 5.79666 26.3144 5.38306 26.8345 4.96997C26.9311 4.89414 27.0276 4.81702 27.1242 4.73985L27.1242 4.7398C27.9757 4.05938 28.8317 3.37536 29.8088 3.54907C30.8304 3.73068 31.8015 4.6728 32.6758 5.521L32.6759 5.52111C32.7326 5.57611 32.7889 5.63072 32.8448 5.68469C33.3234 6.14557 33.7793 6.63318 34.2205 7.15963C34.504 7.47779 34.618 7.65424 34.7376 7.66551C34.8472 7.67584 34.9616 7.54736 35.2157 7.26198L35.2432 7.23108C35.5493 6.88417 35.847 6.51771 36.143 6.15324L36.1431 6.15314C37.4031 4.60208 38.6336 3.08726 40.3545 3.27026C41.6755 3.41215 42.7589 4.42267 43.8511 5.44136L43.8512 5.44148C44.4451 5.99536 45.0416 6.55167 45.6802 6.97206C46.2187 7.32796 46.5003 7.37252 46.9853 6.79759C47.3079 6.42127 47.6219 6.02581 47.9365 5.62953C48.0582 5.47622 48.18 5.3228 48.3025 5.17033C48.5236 4.8976 48.7493 4.5863 48.9807 4.26706L48.9808 4.26688C49.6209 3.38387 50.3049 2.44025 51.0577 2.0846C52.0145 1.62114 52.8213 2.47035 53.5895 3.27901C53.6935 3.38845 53.7968 3.49714 53.8996 3.60173C54.3468 4.05203 54.7941 4.50549 55.2414 4.95894C55.6887 5.4124 56.1359 5.86585 56.5832 6.31616C56.7699 6.04407 56.9564 5.77114 57.1429 5.49816L57.1589 5.47471L57.1591 5.4744C57.9825 4.26919 58.8066 3.06299 59.6578 1.92146C61.0323 0.088399 62.3741 0.795358 63.7559 2.19412C64.4907 2.94111 65.2337 3.70022 65.9688 4.4598C66.1949 4.6863 66.4305 4.95828 66.672 5.23704L66.6721 5.23722C67.0873 5.71652 67.5199 6.21587 67.9513 6.53866C67.9702 6.51216 67.9833 6.48922 67.9973 6.46463L67.9974 6.46449C68.0114 6.43991 68.0263 6.41371 68.0489 6.38071C68.0859 6.30257 68.1229 6.22127 68.1599 6.13995C68.197 6.05855 68.234 5.97714 68.2711 5.89888L68.4195 5.57275C68.6643 5.03428 68.9057 4.50335 69.1525 3.97207C69.4116 3.41253 69.6688 2.8531 69.926 2.29367L69.9321 2.28042C70.1878 1.72444 70.4434 1.16847 70.7009 0.612375C70.9902 -0.00015531 71.7258 -0.200168 72.1102 0.229036C73.3105 1.53876 74.5399 2.75818 75.8132 3.86109C76.3781 4.34151 76.9426 4.80934 77.5143 5.25144C77.6036 5.31859 77.7089 5.38211 77.8185 5.4482L77.8186 5.44824C78.0498 5.58767 78.3 5.73854 78.4586 5.95935C78.7368 5.99208 78.8335 6.11115 78.7444 6.31683C78.7952 6.23275 78.8461 6.15165 78.8969 6.07056L78.8977 6.06928C79.2191 5.59827 79.5203 5.05584 79.8239 4.50904C80.4236 3.42897 81.0328 2.33193 81.8257 1.73475C83.0735 0.793895 84.032 1.76602 84.9378 3.14568L86.5481 5.62788C86.6209 5.7367 86.7057 5.85268 86.7939 5.97331L86.794 5.97338C86.9999 6.25491 87.2243 6.56181 87.357 6.8624C87.4059 6.90235 87.4439 6.943 87.4784 6.97987C87.4943 6.99693 87.5095 7.01317 87.5246 7.02814C87.5243 7.01551 87.5321 7.015 87.5321 7.015C88.3485 5.30713 89.6372 3.79535 90.7138 2.53748C91.9876 1.05196 92.8302 1.74135 93.9405 3.1959C94.5121 3.94853 95.0837 4.69807 95.6553 5.4476L95.6664 5.46214L95.7253 5.53939C95.9891 5.88528 96.2529 6.23117 96.5166 6.5774Z" fill="#F7C300"/>
</svg>
