<svg width="400" height="145" viewBox="0 0 400 145" fill="none" xmlns="http://www.w3.org/2000/svg">
<path d="M245.382 78.2896C244.702 77.7825 244.012 77.2332 243.287 76.7365C241.7 75.5533 240.069 74.3805 238.413 73.3024C235.145 71.1358 231.681 69.3266 227.952 67.9801C226.829 67.5772 225.476 68.3846 225.118 69.4471C225.094 69.5418 225.079 69.6787 225.099 69.7629C224.893 70.0783 224.741 70.4254 224.687 70.7938C223.751 76.7509 222.77 82.7185 221.844 88.7178C221.688 89.6439 222.522 90.6042 223.418 90.838C225.58 91.4857 227.725 90.2697 229.748 89.5272L235.938 87.2262C238.128 86.3999 240.361 85.5632 242.561 84.779C244.495 84.0573 248 83.4554 247.518 80.8113C247.319 79.5684 246.299 79.0078 245.382 78.2896Z" fill="#EAEAEA"/>
<path d="M201.119 53.0536C200.638 51.971 200.173 50.8302 199.63 49.73C198.507 47.2038 197.322 44.66 196.043 42.2148C193.545 37.342 190.564 32.7702 186.944 28.5805C185.852 27.3218 183.652 27.3799 182.49 28.4291C182.396 28.5277 182.284 28.6843 182.251 28.8005C181.784 29.0435 181.361 29.3621 181.044 29.774C175.831 36.3879 170.556 42.9842 165.326 49.6562C164.502 50.6773 164.86 52.4165 165.792 53.3144C167.982 55.5818 171.426 55.5677 174.396 56.0465L183.508 57.4776C186.739 57.9688 190.032 58.4775 193.246 59.0268C196.095 59.4704 200.774 61.1339 201.995 57.5849C202.603 55.9354 201.744 54.5553 201.119 53.0536Z" fill="#EAEAEA"/>
<path d="M135.763 32.13C134.308 31.6779 132.81 31.1603 131.285 30.7523C127.888 29.6974 124.422 28.6865 120.972 27.8508C114.139 26.1352 107.188 25.1428 100.064 25.0928C97.9204 25.0822 96.1116 27.2594 96.1412 29.2737C96.1564 29.4488 96.2136 29.6893 96.2976 29.8203C96.1368 30.478 96.0868 31.157 96.2164 31.8132C98.1947 42.466 100.104 53.163 102.125 63.8813C102.414 65.5438 104.401 66.6719 106.06 66.5318C110.111 66.3353 113.017 62.9918 115.999 60.5237L125.11 52.9216C128.325 50.2114 131.609 47.4571 134.867 44.8124C137.711 42.4327 143.289 39.3159 140.891 35.1246C139.81 33.1378 137.747 32.7984 135.763 32.13Z" fill="#F1C527"/>
<path d="M66.4641 40.3929C65.1495 38.6462 63.841 36.7881 62.4093 35.035C59.342 30.9593 56.1576 26.8773 52.844 23.0117C46.334 15.2868 39.0794 8.30362 30.8339 2.27225C28.3485 0.462201 24.4187 1.47848 22.7642 3.8466C22.6351 4.06304 22.4999 4.39086 22.4879 4.61362C21.7493 5.24394 21.1217 5.99196 20.7223 6.86404C14.0914 20.9159 7.34338 34.9615 0.706442 49.1247C-0.35065 51.3018 1.01474 54.28 3.06189 55.5078C7.93961 58.6761 14.124 57.2232 19.6628 56.8525L36.6364 55.6479C42.6495 55.1911 48.7797 54.7407 54.7868 54.3953C60.0914 54.0119 69.1934 55.0627 69.9181 48.1759C70.3269 44.9585 68.2108 42.8333 66.4641 40.3929Z" fill="#EAEAEA"/>
<path d="M316.02 103.127C315.516 102.92 314.999 102.689 314.469 102.497C313.293 102.016 312.091 101.548 310.889 101.143C308.511 100.319 306.068 99.7498 303.535 99.5101C302.772 99.4395 302.06 100.158 302.008 100.876C302.008 100.939 302.021 101.026 302.047 101.075C301.969 101.304 301.93 101.544 301.956 101.782C302.328 105.635 302.674 109.501 303.059 113.379C303.111 113.979 303.783 114.443 304.377 114.445C305.825 114.501 306.964 113.402 308.102 112.616L311.581 110.194C312.81 109.33 314.065 108.452 315.306 107.612C316.393 106.854 318.475 105.918 317.752 104.352C317.429 103.611 316.705 103.426 316.02 103.127Z" fill="#E9E9E9"/>
<path d="M350.434 102.091C350.005 101.756 349.57 101.393 349.112 101.064C348.11 100.283 347.08 99.5068 346.033 98.7914C343.966 97.3547 341.769 96.1445 339.395 95.2275C338.68 94.953 337.8 95.452 337.556 96.1288C337.539 96.1892 337.527 96.2768 337.539 96.3312C337.402 96.5307 337.299 96.7512 337.26 96.9869C336.575 100.797 335.861 104.612 335.181 108.449C335.068 109.041 335.589 109.669 336.161 109.832C337.54 110.278 338.933 109.529 340.242 109.081L344.247 107.692C345.664 107.193 347.109 106.687 348.532 106.215C349.783 105.78 352.041 105.443 351.769 103.739C351.659 102.939 351.013 102.565 350.434 102.091Z" fill="#E9E9E9"/>
<path d="M380.797 117.417C380.674 116.887 380.564 116.331 380.415 115.787C380.128 114.549 379.816 113.298 379.452 112.083C378.75 109.666 377.804 107.343 376.536 105.136C376.153 104.473 375.156 104.307 374.54 104.679C374.488 104.715 374.424 104.776 374.399 104.826C374.167 104.895 373.949 105.002 373.77 105.16C370.84 107.689 367.884 110.206 364.941 112.76C364.48 113.149 364.49 113.965 364.832 114.451C365.623 115.666 367.178 115.96 368.477 116.435L372.463 117.876C373.879 118.38 375.32 118.897 376.723 119.426C377.969 119.874 379.936 121.033 380.797 119.539C381.215 118.847 380.948 118.149 380.797 117.417Z" fill="#E9E9E9"/>
<path d="M278.323 108.018C278.176 107.327 278.046 106.605 277.866 105.896C277.523 104.284 277.147 102.654 276.703 101.07C275.849 97.9202 274.676 94.8858 273.083 91.9952C272.602 91.1262 271.312 90.8882 270.505 91.3563C270.438 91.4021 270.353 91.4797 270.319 91.5433C270.017 91.6273 269.731 91.7608 269.496 91.9618C265.638 95.1739 261.747 98.3681 257.872 101.612C257.266 102.106 257.26 103.164 257.692 103.803C258.689 105.396 260.698 105.813 262.371 106.459L267.507 108.42C269.331 109.106 271.188 109.81 272.994 110.528C274.6 111.139 277.123 112.687 278.274 110.769C278.832 109.882 278.502 108.971 278.323 108.018Z" fill="#59C69F"/>
<path d="M390.833 140.676C390.996 140.156 391.182 139.621 391.329 139.076C391.709 137.862 392.073 136.623 392.374 135.39C392.992 132.948 393.352 130.463 393.375 127.916C393.381 127.149 392.604 126.501 391.883 126.51C391.821 126.515 391.735 126.536 391.688 126.566C391.453 126.508 391.21 126.489 390.975 126.535C387.165 127.235 383.338 127.91 379.504 128.624C378.909 128.727 378.505 129.436 378.553 130.03C378.621 131.478 379.814 132.52 380.695 133.588L383.406 136.851C384.373 138.003 385.355 139.179 386.299 140.346C387.148 141.365 388.258 143.362 389.759 142.507C390.47 142.122 390.593 141.385 390.833 140.676Z" fill="#F1C527"/>
</svg>
