<svg width="417" height="204" viewBox="0 0 417 204" fill="none" xmlns="http://www.w3.org/2000/svg">
<path d="M164.408 88.7639C165.004 89.3674 165.604 90.014 166.246 90.6138C167.637 92.022 169.074 93.4264 170.549 94.7409C173.455 97.3736 176.608 99.6823 180.092 101.573C181.142 102.14 182.601 101.545 183.114 100.549C183.153 100.459 183.188 100.325 183.181 100.239C183.432 99.9584 183.634 99.638 183.743 99.2819C185.563 93.5328 187.428 87.7801 189.244 81.9879C189.538 81.0956 188.858 80.0211 188.007 79.6553C185.966 78.6903 183.663 79.5706 181.552 80.001L175.087 81.3465C172.798 81.8347 170.463 82.3265 168.171 82.7716C166.151 83.1947 162.595 83.2637 162.675 85.95C162.685 87.2087 163.609 87.9161 164.408 88.7639Z" fill="#EAEAEA"/>
<path d="M204.38 120.36C204.694 121.502 204.982 122.7 205.353 123.869C206.085 126.536 206.874 129.228 207.772 131.838C209.509 137.03 211.77 141.998 214.72 146.684C215.611 148.092 217.794 148.365 219.101 147.502C219.209 147.419 219.343 147.281 219.393 147.171C219.891 147.001 220.357 146.749 220.732 146.39C226.88 140.633 233.085 134.904 239.258 129.093C240.225 128.207 240.132 126.434 239.346 125.406C237.521 122.835 234.114 122.332 231.25 121.413L222.456 118.63C219.335 117.659 216.156 116.662 213.061 115.636C210.311 114.77 205.935 112.423 204.194 115.748C203.346 117.288 203.987 118.781 204.38 120.36Z" fill="#EAEAEA"/>
<path d="M265.853 150.859C267.224 151.524 268.628 152.261 270.074 152.893C273.274 154.446 276.549 155.966 279.835 157.31C286.332 160.032 293.055 162.057 300.091 163.176C302.209 163.508 304.324 161.627 304.597 159.632C304.608 159.456 304.588 159.21 304.525 159.068C304.782 158.442 304.934 157.778 304.904 157.11C304.548 146.28 304.266 135.418 303.878 124.518C303.841 122.831 302.046 121.417 300.385 121.307C296.35 120.893 292.975 123.762 289.656 125.754L279.507 131.902C275.921 134.099 272.261 136.329 268.643 138.455C265.474 140.38 259.492 142.624 261.233 147.128C262.003 149.255 263.993 149.9 265.853 150.859Z" fill="#F1C527"/>
<path d="M335.608 153.094C336.645 155.018 337.66 157.052 338.812 159C341.233 163.49 343.768 168.004 346.464 172.323C351.74 180.938 357.864 188.931 365.111 196.132C367.296 198.295 371.334 197.88 373.326 195.787C373.486 195.592 373.669 195.289 373.714 195.07C374.539 194.558 375.271 193.913 375.797 193.11C384.463 180.213 393.243 167.34 401.931 154.334C403.303 152.34 402.4 149.191 400.561 147.669C396.214 143.805 389.882 144.313 384.35 143.848L367.388 142.49C361.374 142.039 355.246 141.564 349.255 141.003C343.953 140.586 335.112 138.181 333.362 144.881C332.474 148 334.247 150.419 335.608 153.094Z" fill="#EAEAEA"/>
<path d="M98.299 53.603C98.7664 53.8826 99.2428 54.1885 99.7378 54.4586C100.828 55.111 101.946 55.7538 103.074 56.3346C105.302 57.5058 107.631 58.4358 110.1 59.0532C110.844 59.2375 111.655 58.6339 111.815 57.9321C111.824 57.87 111.824 57.7817 111.806 57.7292C111.918 57.5144 111.992 57.2828 112.002 57.0441C112.213 53.179 112.451 49.3044 112.652 45.413C112.692 44.8114 112.097 44.2524 111.509 44.1613C110.086 43.8883 108.796 44.8044 107.552 45.41L103.749 47.2819C102.404 47.952 101.032 48.6316 99.6785 49.2755C98.4905 49.8621 96.2916 50.4744 96.7711 52.1315C96.9789 52.9123 97.6668 53.204 98.299 53.603Z" fill="#E9E9E9"/>
<path d="M64.1195 49.4599C64.4937 49.8556 64.8694 50.2791 65.2728 50.6731C66.1458 51.5965 67.048 52.5182 67.9762 53.3827C69.8033 55.1134 71.794 56.6397 74.0035 57.9027C74.6693 58.2815 75.6138 57.9203 75.9573 57.2879C75.9832 57.2307 76.0075 57.1458 76.0043 57.0903C76.1695 56.9136 76.304 56.7109 76.3786 56.4839C77.628 52.8203 78.9067 49.155 80.1545 45.4636C80.3555 44.8952 79.9344 44.196 79.3933 43.9492C78.0974 43.3009 76.607 43.8332 75.2462 44.0795L71.0779 44.8512C69.6021 45.1321 68.0971 45.4146 66.6196 45.6677C65.3171 45.9106 63.0346 45.9044 63.0473 47.6295C63.0359 48.4374 63.619 48.9045 64.1195 49.4599Z" fill="#E9E9E9"/>
<path d="M36.4025 29.7485C36.4443 30.2916 36.4698 30.8571 36.5353 31.4172C36.6327 32.6842 36.7538 33.9683 36.9311 35.2242C37.2619 37.719 37.8486 40.158 38.7708 42.53C39.0499 43.2434 40.0112 43.557 40.6762 43.2817C40.7323 43.2536 40.8047 43.2029 40.8371 43.1577C41.0767 43.1244 41.3087 43.0515 41.5095 42.922C44.7861 40.8611 48.0864 38.8172 51.3791 36.7337C51.893 36.4184 52.0058 35.61 51.7406 35.0777C51.1414 33.7584 49.6482 33.2341 48.4356 32.5692L44.7105 30.5458C43.3868 29.8353 42.0394 29.1078 40.7319 28.3748C39.5668 27.7439 37.7968 26.3027 36.7211 27.6513C36.2038 28.272 36.363 29.002 36.4025 29.7485Z" fill="#E9E9E9"/>
<path d="M136.304 54.4266C136.345 55.1316 136.365 55.8656 136.437 56.5933C136.534 58.2384 136.661 59.9062 136.862 61.5388C137.233 64.7814 137.938 67.9575 139.079 71.0545C139.424 71.9859 140.663 72.4148 141.532 72.0733C141.605 72.0381 141.7 71.974 141.743 71.9162C142.055 71.8786 142.357 71.7895 142.621 71.6262C146.917 69.0298 151.244 66.456 155.561 63.8306C156.235 63.4337 156.4 62.3881 156.068 61.6918C155.322 59.9672 153.398 59.2528 151.841 58.3625L147.058 55.6527C145.358 54.7008 143.628 53.7263 141.949 52.7455C140.453 51.9005 138.191 49.9907 136.765 51.7146C136.08 52.5074 136.27 53.4576 136.304 54.4266Z" fill="#59C69F"/>
<path d="M29.9716 5.24686C29.7326 5.73678 29.4682 6.23798 29.241 6.75462C28.6834 7.89776 28.1376 9.06762 27.6545 10.2416C26.6764 12.563 25.9475 14.9656 25.5422 17.4805C25.4219 18.2376 26.0929 18.9953 26.8064 19.0944C26.8691 19.0986 26.9572 19.0914 27.0081 19.0689C27.2317 19.1615 27.469 19.2161 27.708 19.206C31.5804 19.0864 35.4648 18.9936 39.3626 18.8627C39.966 18.8508 40.4727 18.2101 40.5135 17.6162C40.6644 16.1738 39.6409 14.9649 38.9309 13.7766L36.7399 10.1432C35.9571 8.85935 35.1623 7.54883 34.4049 6.25374C33.7186 5.11898 32.9206 2.97828 31.3088 3.59773C30.5479 3.87153 30.3157 4.58235 29.9716 5.24686Z" fill="#F1C527"/>
</svg>
