<svg width="342" height="14" viewBox="0 0 342 14" fill="none" xmlns="http://www.w3.org/2000/svg">
<path d="M170.68 7.0299C172.855 4.73759 176.126 3.70128 179.416 4.04859C181.519 4.26165 183.533 5.00455 185.365 6.02463C185.839 6.28893 186.313 6.59335 186.794 6.90179C187.985 7.66625 189.215 8.45527 190.571 8.71852C192.131 9.01189 193.275 8.00101 194.378 7.02727C194.698 6.74441 195.015 6.46466 195.337 6.22092C196.715 5.18085 198.464 4.43641 200.238 4.70306C201.642 4.91058 202.696 5.76004 203.75 6.60989C204.154 6.93533 204.558 7.26082 204.982 7.55035C206.285 8.44303 208.437 9.89566 210.115 9.8018C210.94 9.74944 211.939 9.1965 212.808 8.71587C213.141 8.53156 213.455 8.35791 213.732 8.22716C214.653 7.79914 215.586 7.35709 216.506 6.91558C216.677 6.83454 216.847 6.75211 217.018 6.66962C218.524 5.94238 220.038 5.21126 221.766 5.39692C223.572 5.59103 225.29 6.59805 226.836 7.50467C226.936 7.56345 227.036 7.62179 227.134 7.67947C227.981 8.17205 228.787 8.69321 229.567 9.25588C230.069 9.59593 230.27 9.78452 230.482 9.79656C230.682 9.80799 230.892 9.66038 231.376 9.33224C231.917 8.96144 232.443 8.56973 232.967 8.18015C235.195 6.52238 237.371 4.90334 240.414 5.09893C242.751 5.25059 244.666 6.33063 246.598 7.41939C247.648 8.01143 248.703 8.60606 249.833 9.05541C250.785 9.43579 251.283 9.48341 252.141 8.86894C252.711 8.4667 253.266 8.044 253.823 7.62048C254.038 7.45666 254.253 7.29269 254.47 7.12972C254.861 6.83815 255.26 6.50532 255.669 6.16405C256.801 5.22032 258.011 4.21182 259.342 3.8317C261.034 3.33636 262.461 4.244 263.819 5.10829C264.003 5.22525 264.186 5.34142 264.368 5.4532C265.158 5.93413 265.948 6.41843 266.739 6.90273C267.53 7.38773 268.322 7.87274 269.113 8.35438C269.453 8.05546 269.792 7.75559 270.131 7.45566C271.587 6.16721 273.045 4.87773 274.55 3.65734C276.981 1.69817 279.354 2.45377 281.797 3.94876C283.097 4.74714 284.411 5.55847 285.711 6.37031C286.111 6.61239 286.527 6.90305 286.954 7.20097C287.688 7.71333 288.454 8.24715 289.217 8.59219C289.283 8.53554 289.309 8.49403 289.389 8.42337C289.456 8.33876 289.522 8.25066 289.588 8.16263C289.653 8.07677 289.717 7.99095 289.782 7.9084L290.046 7.55791C290.478 6.9831 290.905 6.41625 291.341 5.84903C291.799 5.25099 292.254 4.65307 292.709 4.05516C293.164 3.45621 293.62 2.85727 294.079 2.25819C294.591 1.60352 295.891 1.38975 296.571 1.84848C298.694 3.24832 300.868 4.55162 303.12 5.73041C304.118 6.24389 305.117 6.7439 306.128 7.21641C306.286 7.2882 306.472 7.3561 306.666 7.42675C307.075 7.57577 307.517 7.73702 307.798 7.97303C308.29 8.008 308.461 8.13524 308.303 8.35506C308.393 8.26475 308.484 8.17765 308.574 8.09052C309.143 7.5871 309.675 7.00736 310.212 6.42294C311.273 5.26856 312.35 4.09604 313.752 3.45779C315.959 2.4522 317.654 3.49121 319.256 4.96579L322.103 7.61875C322.232 7.73506 322.382 7.85901 322.538 7.98795C322.902 8.28887 323.299 8.61691 323.534 8.9382C323.62 8.98093 323.687 9.02441 323.748 9.06378C323.776 9.08199 323.803 9.09934 323.83 9.11534C323.829 9.10185 323.843 9.10131 323.843 9.10131C325.287 7.27593 327.566 5.66015 329.47 4.31574C331.722 2.72803 333.212 3.46484 335.176 5.01945C336.193 5.82906 337.211 6.63534 338.228 7.44161C339.245 8.24786 340.263 9.0541 341.28 9.86374C343.343 11.4954 340.525 14.4686 338.448 12.8241C337.431 12.0154 336.415 11.21 335.399 10.4047C334.381 9.59749 333.362 8.79033 332.344 7.97977C332.265 7.91545 332.184 7.85127 332.102 7.78708C332.02 7.72284 331.938 7.65859 331.86 7.59422C331.581 7.80489 331.162 8.10041 330.901 8.28445C330.774 8.37425 330.685 8.4375 330.667 8.45146C329.651 9.23418 328.678 10.0692 327.748 10.9564C327.555 11.1401 327.365 11.3308 327.175 11.5215C325.951 12.7487 324.728 13.9754 322.771 13.341C321.913 13.0529 321.221 12.3852 320.574 11.7612C320.462 11.6536 320.352 11.5473 320.242 11.4445L317.395 8.79154C317.263 8.67205 317.114 8.51793 316.957 8.35506C316.639 8.02459 316.286 7.65813 315.964 7.47206C315.612 7.27106 315.593 7.12153 315.531 7.1011C315.477 7.08307 315.389 7.16563 315.011 7.40214C314.388 7.79828 313.807 8.45414 313.255 9.07648C312.985 9.38142 312.722 9.67833 312.465 9.93268C312.386 10.0106 312.309 10.0885 312.232 10.1658C310.778 11.6238 309.475 12.9299 307.229 12.0711C303.326 10.5939 299.62 8.54188 296.1 6.30708C295.812 6.68294 295.527 7.05866 295.242 7.43439C294.957 7.81009 294.672 8.18582 294.384 8.56168C294.117 8.9119 293.855 9.29203 293.589 9.67804C293.021 10.5039 292.434 11.3565 291.736 12.0004C289.815 13.7893 287.716 12.421 285.9 11.2378C285.656 11.0781 285.416 10.9219 285.182 10.7772C283.981 10.0289 282.766 9.28112 281.552 8.53333C281.368 8.41926 281.11 8.23017 280.811 8.01015C279.846 7.30095 278.444 6.27038 277.649 6.39474C277.258 6.45979 276.745 6.9935 276.341 7.41308C276.194 7.56608 276.061 7.70389 275.955 7.79829C275.668 8.04588 275.382 8.29682 275.095 8.54777C274.809 8.79872 274.523 9.04967 274.236 9.29726C273.663 9.79915 273.09 10.2977 272.518 10.7962C271.945 11.2948 271.372 11.7933 270.799 12.2952C269.96 13.0304 268.923 12.9502 268.16 12.4813C268.146 12.4749 268.132 12.4694 268.119 12.4641C268.082 12.4487 268.048 12.4349 268.006 12.4065C266.989 11.7858 265.972 11.1617 264.955 10.5376C263.938 9.91354 262.921 9.28945 261.904 8.66872C261.847 8.63288 261.751 8.56276 261.631 8.47647C261.244 8.19606 260.621 7.74503 260.379 7.74437C260.359 7.74516 260.282 7.81994 260.197 7.90205C260.101 7.99447 259.996 8.09623 259.952 8.11225C259.275 8.37308 258.514 9.0327 257.835 9.62173C257.534 9.88255 257.249 10.1295 256.994 10.3219C256.673 10.5588 256.351 10.8155 256.023 11.0762C254.792 12.0552 253.492 13.0901 251.945 13.3435C250.111 13.6596 248.33 12.8804 246.74 12.0531C246.233 11.7907 245.706 11.4765 245.163 11.1529C243.009 9.86945 240.606 8.43697 238.204 9.49191C237.239 9.92072 236.313 10.6902 235.371 11.4735C233.706 12.8565 231.99 14.2826 229.918 13.9516C228.735 13.7666 227.631 12.9708 226.58 12.2125C226.104 11.8693 225.639 11.5337 225.181 11.266C224.98 11.148 224.773 11.021 224.562 10.8912C223.234 10.0763 221.727 9.15118 220.225 9.64178C218.814 10.0978 217.432 10.8158 216.068 11.5242C215.407 11.8679 214.749 12.2094 214.095 12.5176L213.922 12.5993C212.388 13.3234 210.905 14.023 209.142 13.7811C207.369 13.5414 205.57 12.655 204.046 11.7711C203.418 11.4078 202.822 10.9204 202.225 10.433C201.495 9.83634 200.764 9.23958 199.976 8.86995C198.798 8.32463 197.477 9.54511 196.437 10.5063C196.126 10.7935 195.84 11.0575 195.591 11.2444C194.292 12.2138 192.787 12.8271 191.133 12.8256C188.775 12.8126 186.828 11.6355 184.885 10.4612C183.886 9.85729 182.889 9.25412 181.837 8.81026C178.795 7.51452 174.705 7.61005 172.957 10.7971C172.375 11.8624 171.282 12.0305 170.401 11.6755C170.062 11.6211 169.72 11.4769 169.396 11.2204C168.38 10.4117 167.363 9.60632 166.347 8.80096C165.329 7.9938 164.31 7.18664 163.292 6.37608C163.214 6.31182 163.132 6.2477 163.05 6.18357C162.968 6.11927 162.886 6.05496 162.808 5.99053C162.529 6.20126 162.11 6.4969 161.849 6.68095C161.722 6.77062 161.633 6.83381 161.615 6.84777C160.599 7.6305 159.626 8.46547 158.696 9.35273C158.503 9.53645 158.313 9.72714 158.123 9.9178C156.899 11.145 155.676 12.3717 153.719 11.7373C152.861 11.4492 152.169 10.7815 151.522 10.1576C151.41 10.05 151.3 9.94365 151.191 9.84081L148.343 7.18785C148.211 7.06836 148.062 6.91424 147.905 6.75137C147.587 6.4209 147.234 6.05444 146.913 5.86837C146.561 5.66737 146.541 5.51784 146.479 5.49741C146.425 5.47938 146.337 5.56194 145.959 5.79845C145.336 6.19459 144.755 6.85045 144.204 7.47279C143.933 7.77774 143.67 8.07464 143.413 8.32899C143.335 8.40694 143.257 8.48476 143.18 8.56216C141.726 10.0201 140.423 11.3262 138.178 10.4675C134.274 8.99017 130.568 6.93819 127.048 4.70339C126.76 5.07925 126.475 5.45498 126.19 5.8307C125.905 6.2064 125.62 6.58213 125.332 6.95799C125.065 7.30821 124.803 7.68834 124.537 8.07432C123.969 8.90014 123.382 9.75281 122.684 10.3968C120.763 12.1856 118.664 10.8173 116.849 9.63407C116.604 9.47446 116.364 9.31821 116.131 9.17354C114.929 8.42521 113.715 7.67743 112.5 6.92964C112.316 6.81557 112.059 6.62651 111.759 6.40649C110.794 5.69729 109.392 4.66669 108.598 4.79105C108.206 4.8561 107.693 5.38981 107.289 5.80939C107.142 5.96239 107.01 6.10019 106.903 6.1946C106.616 6.44219 106.33 6.69314 106.044 6.94408C105.757 7.19503 105.471 7.44598 105.184 7.69357C104.611 8.19547 104.039 8.694 103.466 9.19253C102.893 9.69106 102.32 10.1896 101.747 10.6915C100.908 11.4267 99.8712 11.3466 99.1084 10.8776C99.0523 10.8529 99.0105 10.8411 98.9538 10.8028C97.937 10.1821 96.92 9.55802 95.903 8.93394C94.886 8.30985 93.869 7.68576 92.8521 7.06503C92.7956 7.02916 92.6987 6.95901 92.5795 6.87272C92.1923 6.59234 91.5695 6.14134 91.3271 6.14068C91.3077 6.14147 91.2302 6.21622 91.1451 6.29833C91.0493 6.39078 90.9438 6.49254 90.9006 6.50856C90.2232 6.76939 89.4622 7.42904 88.7827 8.01807C88.4818 8.27886 88.1969 8.52582 87.9423 8.71819C87.6213 8.95515 87.2987 9.21185 86.9711 9.47251C85.7406 10.4515 84.44 11.4864 82.8937 11.7399C81.0594 12.0559 79.2782 11.2767 77.6881 10.4494C77.181 10.187 76.6539 9.87284 76.1109 9.54921C73.9574 8.26576 71.554 6.83328 69.1522 7.88822C68.1876 8.31703 67.2616 9.08652 66.319 9.86978C64.6547 11.2529 62.9387 12.6789 60.8667 12.3479C59.6829 12.1629 58.5795 11.3671 57.5281 10.6088C57.0522 10.2656 56.5869 9.93003 56.1296 9.66231C55.9281 9.54428 55.7212 9.41729 55.5097 9.28749C54.1822 8.47258 52.6751 7.54749 51.1728 8.03809C49.7617 8.49414 48.3798 9.21211 47.0163 9.92056C46.3547 10.2642 45.6975 10.6057 45.0434 10.9139L44.8701 10.9956C43.3358 11.7197 41.8534 12.4193 40.0906 12.1774C38.317 11.9377 36.5178 11.0513 34.9944 10.1674C34.3665 9.80406 33.77 9.3167 33.1733 8.82927C32.443 8.23265 31.7125 7.63589 30.9242 7.26626C29.7459 6.72094 28.4251 7.94145 27.3849 8.90266C27.0741 9.18981 26.7884 9.45382 26.539 9.64072C25.2405 10.6101 23.735 11.2234 22.0811 11.2219C19.7233 11.2089 17.7762 10.0319 15.8335 8.85747C14.8345 8.2536 13.8367 7.6504 12.7848 7.20657C9.74286 5.91083 5.6534 6.00636 3.9052 9.19339C2.64575 11.4972 -0.998661 9.60477 0.260787 7.30092C2.22745 3.71385 6.28096 2.01387 10.3637 2.4449C12.467 2.65796 14.481 3.40086 16.313 4.42094C16.787 4.68524 17.2615 4.98969 17.7421 5.29813C18.9335 6.06259 20.1632 6.85158 21.5189 7.11483C23.079 7.4082 24.2234 6.39732 25.3258 5.42361C25.646 5.14072 25.9628 4.86097 26.2851 4.61723C27.6635 3.57716 29.4119 2.83271 31.1865 3.09937C32.5899 3.30689 33.644 4.15638 34.6986 5.00626C35.1024 5.33169 35.5063 5.65716 35.9299 5.94666C37.2332 6.83934 39.3855 8.29197 41.0632 8.19811C41.888 8.14575 42.8874 7.59281 43.7562 7.11218C44.0893 6.92788 44.4032 6.75422 44.6806 6.62347C45.6009 6.19545 46.5343 5.7534 47.454 5.31189C47.6249 5.23084 47.7955 5.14842 47.9663 5.06593C49.4721 4.33869 50.9858 3.60757 52.7137 3.79323C54.5205 3.98734 56.2378 4.99436 57.784 5.90095C57.8842 5.95973 57.9838 6.0181 58.0826 6.07578C58.929 6.56836 59.7352 7.08952 60.5154 7.65219C61.0168 7.99224 61.2183 8.18083 61.4298 8.19287C61.6305 8.2043 61.8402 8.05669 62.3239 7.72855C62.8652 7.35775 63.3917 6.96604 63.9153 6.57646C66.1434 4.91869 68.3196 3.29965 71.3626 3.49524C73.6987 3.6469 75.6147 4.72694 77.5461 5.8157C78.5964 6.40774 79.6512 7.00237 80.7807 7.45172C81.7329 7.8321 82.2309 7.87972 83.0887 7.26525C83.659 6.86304 84.2143 6.44037 84.7707 6.01682C84.9859 5.85297 85.2014 5.689 85.4179 5.52604C85.809 5.23449 86.2081 4.90169 86.6174 4.56042C87.7494 3.61667 88.959 2.60813 90.2902 2.22801C91.9822 1.73267 93.4089 2.64031 94.7675 3.5046C94.9514 3.62156 95.134 3.73773 95.3159 3.84951C96.1067 4.3308 96.8977 4.81545 97.6886 5.3001C98.4796 5.78475 99.2706 6.2694 100.061 6.75069C100.401 6.45156 100.74 6.15147 101.08 5.85136C102.536 4.56312 103.993 3.27382 105.499 2.05365C107.929 0.0944806 110.302 0.850077 112.746 2.34507C114.045 3.14345 115.359 3.95478 116.659 4.76662C117.059 5.0087 117.475 5.29939 117.902 5.59734C118.637 6.10967 119.402 6.64346 120.165 6.9885C120.198 6.96018 120.221 6.93566 120.246 6.90938C120.271 6.88307 120.297 6.85503 120.337 6.81968C120.403 6.73616 120.468 6.64928 120.534 6.56236C120.599 6.47536 120.665 6.38835 120.73 6.30471C120.818 6.18814 120.906 6.07197 120.993 5.95613C121.426 5.38062 121.853 4.81317 122.289 4.24534C122.747 3.6473 123.202 3.04938 123.657 2.45147C124.113 1.85252 124.568 1.25358 125.027 0.654504C125.539 -0.000165999 126.84 -0.213939 127.519 0.244793C129.642 1.64463 131.816 2.94793 134.068 4.12672C135.067 4.6402 136.065 5.14021 137.076 5.61272C137.234 5.68451 137.42 5.75241 137.614 5.82306C138.023 5.97208 138.465 6.13333 138.746 6.36934C139.238 6.40431 139.409 6.53158 139.251 6.75141C139.341 6.66155 139.431 6.57487 139.521 6.48819L139.522 6.48683C140.091 5.98341 140.623 5.40367 141.16 4.81925C142.221 3.66487 143.298 2.49235 144.7 1.8541C146.907 0.848512 148.602 1.88752 150.204 3.3621L153.051 6.01506C153.18 6.13137 153.33 6.25532 153.486 6.38426C153.85 6.68518 154.247 7.01322 154.482 7.33451C154.568 7.37721 154.635 7.42066 154.696 7.46006C154.725 7.4783 154.751 7.49565 154.778 7.51165C154.778 7.49816 154.791 7.49762 154.791 7.49762C156.235 5.67224 158.514 4.05646 160.418 2.71205C162.67 1.12434 164.16 1.86115 166.124 3.41576C167.141 4.22537 168.159 5.03165 169.176 5.83792C169.677 6.23513 170.178 6.63231 170.68 7.0299Z" fill="#F1C527"/>
</svg>
