<svg width="210" height="15" viewBox="0 0 210 15" fill="none" xmlns="http://www.w3.org/2000/svg">
<path d="M209.183 10.7507C206.776 8.65161 204.207 6.7243 201.8 4.6252C199.398 2.69292 197.696 1.74169 194.912 3.66125C192.619 5.23224 189.841 7.31862 188.07 9.54199C187.903 9.54696 187.898 9.38014 187.731 9.38511C187.376 8.72776 186.524 8.25215 186.007 7.76659C184.801 6.63363 183.762 5.4957 182.561 4.52956C180.666 2.74919 178.614 1.30743 175.976 2.55473C173.334 3.6352 171.746 6.35407 169.63 8.25374C169.469 8.42553 169.307 8.59732 169.145 8.76912C169.636 8.42056 169.458 8.09188 168.79 8.11177C168.273 7.62621 167.432 7.48424 166.753 7.17048C165.563 6.53799 164.372 5.90549 163.181 5.273C160.461 3.85113 157.897 2.09064 155.333 0.330157C154.477 -0.312279 152.983 0.0661037 152.336 0.753278C151.213 2.28948 150.084 3.65885 148.961 5.19505C148.319 6.04905 147.676 6.90305 147.034 7.75704C146.872 7.92884 146.71 8.10063 146.553 8.43925C146.392 8.61104 146.392 8.61104 146.392 8.61104C144.867 7.98849 143.488 6.69367 142.12 5.7325C140.585 4.77631 139.045 3.65329 137.342 2.70206C134.439 0.784691 131.567 -0.13174 128.465 2.29822C126.182 4.20286 124.067 6.10253 121.785 8.00717C119.905 6.72727 118.03 5.61419 115.983 4.33926C114.109 3.22618 112.218 1.61264 109.894 2.1827C107.738 2.74779 105.795 4.80931 103.998 6.19857C103.016 6.89568 102.034 7.5928 101.219 8.28494C100.238 8.98206 99.5691 9.00194 98.3838 8.53627C94.4882 6.98237 91.3814 3.90222 87.0209 3.53099C82.4933 3.16474 79.4118 6.26199 75.9752 8.7019C74.8314 9.57081 74.9933 9.39901 73.7976 8.5997C72.7741 7.96223 71.9177 7.31979 70.8943 6.68233C68.8473 5.4074 66.8004 4.13247 64.4452 3.70159C62.0953 3.43754 60.1211 4.49812 57.9799 5.56368C56.8257 6.09894 55.6715 6.63421 54.5173 7.16947C53.3631 7.70474 51.5613 8.92717 50.0625 9.13873C48.0572 9.19838 45.4933 7.4379 43.7858 6.31985C41.906 5.03995 40.3396 3.08281 37.9844 2.65194C35.7964 2.21609 33.6499 3.11482 32.0204 4.49911C30.2237 5.88837 28.6202 8.10678 26.2599 7.50908C23.9047 7.0782 22.0093 5.29783 19.9676 4.18972C17.7535 2.91976 15.3827 1.98842 12.6986 1.73431C7.83153 1.21117 2.87537 3.19535 0.336767 7.61227C-1.24596 10.498 3.17693 12.8711 4.75966 9.98537C6.97964 6.07886 11.8259 5.9347 15.5595 7.66039C19.2932 9.38608 22.4052 12.6331 26.7553 12.6706C28.7658 12.7778 30.578 11.889 32.218 10.8384C33.5237 9.79767 35.78 7.05892 37.4823 8.01014C39.1795 8.79455 40.7406 10.5849 42.4482 11.7029C44.3228 12.816 46.5316 13.9191 48.5474 14.1931C50.7302 14.4621 52.5424 13.5734 54.5218 12.6796C56.9973 11.6041 59.4572 10.0281 61.9378 9.11945C64.0895 8.38754 66.152 10.1629 67.8543 11.1142C69.5618 12.2322 71.4625 14.1794 73.6453 14.4484C77.5149 15.1682 80.5444 10.4027 83.6779 8.97371C87.3076 7.36294 90.9209 10.595 93.9809 12.1738C95.8556 13.2868 98.0592 14.2232 100.221 13.8249C102.55 13.4216 104.499 11.5269 106.295 10.1377C107.277 9.44057 108.734 7.89443 109.894 7.52599C110.061 7.52102 110.379 7.01061 110.379 7.01061C110.714 7.00067 111.915 7.96681 112.254 8.12369C114.646 9.72232 117.204 11.316 119.596 12.9146C119.596 12.9146 119.763 12.9096 119.768 13.0765C120.624 13.7189 121.967 13.846 122.938 12.8152C124.406 11.6027 125.706 10.3952 127.174 9.18269C127.821 8.49551 128.641 7.97019 129.289 7.28302C129.78 6.93446 130.746 5.73688 131.409 5.55017C132.741 5.34358 135.154 7.60951 136.177 8.24697C137.712 9.20317 139.08 10.1643 140.615 11.1205C143.007 12.7192 145.926 15.137 148.527 12.722C149.827 11.5144 150.778 9.81638 151.739 8.45197C152.382 7.59798 153.186 6.57219 153.828 5.71819C158.1 8.59672 162.528 11.1366 167.269 12.9993C170.147 14.0826 171.766 12.3647 173.714 10.47C174.685 9.43919 175.647 8.07479 176.796 7.3727C177.777 6.67558 177.119 7.02911 177.97 7.50473C178.482 7.82346 179.177 8.63769 179.694 9.12324C180.9 10.2562 181.939 11.3941 183.14 12.3603C184.001 13.1695 185.04 14.3075 186.226 14.7731C188.931 15.6945 190.534 13.4761 192.326 11.9201C193.464 10.8843 194.603 9.8486 195.909 8.80789C195.909 8.80789 196.89 8.11078 197.381 7.76222C197.554 7.92407 197.726 8.08592 197.898 8.24778C200.306 10.3469 202.875 12.2742 205.282 14.3733C208.19 16.4575 211.59 12.8498 209.183 10.7507Z" fill="#F1C527"/>
</svg>
