<svg width="496" height="253" viewBox="0 0 496 253" fill="none" xmlns="http://www.w3.org/2000/svg">
<path d="M336.391 53.9872C336.733 55.0343 337.694 54.9946 338.1 54.9391C338.942 54.8042 339.784 54.6773 340.627 54.5504C341.024 54.4949 341.453 54.4314 341.684 54.4076C342.089 54.3521 342.494 54.3045 342.899 54.2569C344.552 54.0586 346.261 53.8841 347.985 53.7413C348.693 53.6858 349.4 53.1702 349.368 52.4087C349.352 52.0041 349.146 51.5916 348.844 51.3219C348.693 51.1871 348.454 51.0364 348.136 51.0364C348.113 51.0364 348.081 51.0364 348.057 51.0364C344.529 51.3299 340.905 51.7741 337.305 52.3611C337.027 52.4087 336.765 52.607 336.582 52.9084C336.359 53.2495 336.288 53.6778 336.391 53.9872Z" fill="#59C69F"/>
<path d="M288.504 25.8831C288.854 26.1132 289.33 26.2004 289.688 26.1052C290.737 25.8197 290.665 24.725 290.618 24.3998C289.871 19.1169 289.577 13.5881 289.744 7.96411C289.76 7.36125 289.466 7.0519 289.211 6.89325C288.989 6.7584 288.719 6.68701 288.44 6.68701C288.186 6.68701 287.924 6.75047 287.701 6.86945C287.407 7.0281 287.058 7.34539 287.042 7.9879C286.875 13.5881 287.209 19.3866 288.027 25.2168C288.083 25.55 288.313 25.7641 288.504 25.8831Z" fill="#59C69F"/>
<path d="M240.157 35.0764C240.435 35.481 240.801 35.6 241.055 35.6237C241.492 35.6634 241.961 35.4889 242.311 35.1478L243.463 34.0214L243.725 34.426C243.868 34.6481 244.003 34.886 244.131 35.1161C244.234 35.3065 244.337 35.4889 244.44 35.6555C245.036 36.5994 245.736 37.2657 246.57 37.702C247.452 38.1621 248.446 38.2811 249.232 38.0114C249.669 37.8606 250.067 37.6147 250.385 37.2816L250.83 36.8295L251.155 37.7258C251.553 38.8443 251.902 39.812 253.071 40.0341C253.73 40.161 254.509 39.8675 255.065 39.2885C255.089 39.2647 255.208 39.1219 255.327 38.987L255.717 38.519L255.995 39.0584C256.066 39.2012 256.106 39.2726 256.138 39.3519C256.241 39.5661 256.353 39.8279 256.464 40.0976C257.012 41.3984 257.592 42.739 258.983 42.6993C260.683 42.6517 262.456 40.867 263.131 40.0976C263.536 39.6454 263.505 39.2091 263.409 38.9236C263.25 38.4476 262.781 38.0431 262.273 37.932C261.955 37.8686 261.486 37.8844 261.065 38.3683C260.811 38.6539 260.278 39.2488 259.714 39.6295L259.325 39.8913L258.856 38.8443C258.752 38.6142 258.657 38.3921 258.554 38.1621C258.196 37.4164 257.759 36.6549 257.012 36.2028C256.265 35.7507 255.455 35.6475 254.716 35.9172C254.501 35.9966 254.294 36.1156 254.056 36.3059L253.627 36.647L253.436 36.1393C253.086 35.2033 252.745 34.4894 252.212 34.0452C251.799 33.6962 251.322 33.5455 250.782 33.6169C250.067 33.7121 249.328 34.1801 248.859 34.8464C248.771 34.9654 248.732 35.0526 248.7 35.1081C248.509 35.481 248.239 35.4572 248.001 35.3699L247.85 35.3223C247.285 35.1557 246.92 34.545 246.65 34.0928L246.554 33.9342C245.799 32.7126 245.124 31.7211 243.924 30.9913C243.415 30.6819 242.732 30.9754 242.319 31.38L241.46 32.2129L240.157 30.3012C239.664 29.5794 238.886 29.6269 238.337 29.9998C237.773 30.3805 237.439 31.1024 237.948 31.848L240.157 35.0764Z" fill="#59C69F"/>
<path d="M110.642 82.0039C110.983 82.0197 111.317 82.0277 111.643 82.0435C114.615 82.218 117.587 82.3767 120.559 82.5195C132.583 83.0985 144.884 83.4713 157.122 83.6062C157.13 83.6062 157.138 83.6062 157.138 83.6062C158.004 83.6062 158.393 82.9478 158.401 82.2974C158.409 81.6152 158.012 80.9251 157.106 80.9092C146.004 80.7823 134.855 80.4729 123.968 79.9811C121.187 79.8542 118.398 79.7194 115.616 79.5687C114.273 79.4973 112.93 79.4259 111.587 79.3465C111.285 79.3307 110.96 79.3228 110.634 79.3228C109.736 79.3069 108.814 79.291 107.98 79.0372C106.772 78.6644 106.804 77.649 106.827 76.832C106.835 76.6892 106.835 76.5465 106.835 76.4037L106.796 64.1562C106.796 63.2678 106.112 62.8633 105.437 62.8633C105.437 62.8633 105.437 62.8633 105.429 62.8633C104.761 62.8633 104.086 63.2599 104.094 64.1483L104.118 73.0563C104.118 73.5322 104.094 74.0557 104.07 74.5951C103.975 76.594 103.871 78.8627 105.023 80.2667C106.343 81.8531 108.623 81.9325 110.642 82.0039Z" fill="#59C69F"/>
<path d="M303.857 224.952C301.823 222.984 299.002 221.834 295.235 221.438C294.957 221.414 294.647 221.533 294.385 221.779C294.091 222.056 293.916 222.437 293.924 222.77C293.956 223.54 294.48 224.047 295.315 224.135C296.26 224.23 297.754 224.523 299.113 225.039L299.089 225.182L299.145 225.047L299.503 225.205V225.213C299.622 225.269 299.741 225.324 299.852 225.388C300.13 225.531 300.401 225.681 300.663 225.848C300.806 225.935 300.949 226.03 301.092 226.133L301.545 226.49C301.688 226.609 301.807 226.728 301.934 226.847C302.141 227.046 302.34 227.252 302.522 227.474L302.594 227.561C302.618 227.593 302.65 227.633 302.673 227.664L302.681 227.656C302.761 227.775 302.848 227.886 302.92 228.005C303.095 228.267 303.253 228.545 303.389 228.823L303.611 229.362C304.088 230.79 304.032 232.114 303.929 233.582C303.905 233.883 304.04 234.209 304.302 234.47C304.573 234.748 304.954 234.907 305.264 234.899C306.035 234.867 306.575 234.327 306.631 233.526C306.734 232.114 306.782 230.282 306.202 228.616C305.725 227.244 304.914 225.975 303.857 224.952Z" fill="#59C69F"/>
<path d="M4.46686 7.15491C4.85625 6.81383 5.24564 6.4886 5.64297 6.17131L6.0403 5.86989C6.24692 5.71917 6.45353 5.56846 6.66809 5.41775C8.321 4.25963 10.1328 3.26017 12.04 2.45107C12.2864 2.34795 12.4851 2.09412 12.5884 1.7689C12.7076 1.37228 12.6758 0.928076 12.493 0.642514C12.1592 0.150713 11.7381 0 11.3487 0C11.0547 0 10.7765 0.0872551 10.5779 0.17451C6.75551 1.78476 3.23513 4.28343 0.398162 7.38495C-0.0627455 7.89262 -0.181946 8.78103 0.374322 9.2887C0.660402 9.55046 1.06568 9.70117 1.46302 9.68531C1.69347 9.67738 2.01928 9.60599 2.28947 9.31249C2.98878 8.53513 3.72782 7.81329 4.46686 7.15491Z" fill="#59C69F"/>
<path d="M348.51 119.143C348.486 118.881 348.415 118.611 348.319 118.342C348.152 117.104 347.27 115.938 345.681 115.843C329.438 114.883 313.179 114.272 296.904 114.05C292.708 113.995 288.505 113.963 284.309 113.955C280.502 113.947 276.299 113.479 272.548 114.098C267.724 114.891 267.239 121.824 270.402 124.838C272.397 126.742 275.528 126.425 278.071 126.536C282.282 126.726 286.494 126.901 290.706 127.075C298.867 127.416 307.028 127.733 315.19 128.035C323.271 128.328 331.417 128.9 339.507 128.852C342.105 128.836 345.268 128.884 347.072 126.742C348.717 124.775 348.748 121.538 348.51 119.143Z" fill="#59C69F"/>
<path d="M342.645 139.243C342.001 148.23 341.707 157.234 341.762 166.245C341.786 169.814 347.349 169.822 347.325 166.245C347.27 157.234 347.564 148.23 348.207 139.243C348.462 135.674 342.899 135.69 342.645 139.243Z" fill="#59C69F"/>
<path d="M347.787 239.142C347.699 236.231 348.717 231.876 347.445 229.203C346.396 226.998 343.654 226.72 341.453 226.633C337.996 226.498 332.72 226.3 329.446 227.537C328.603 227.855 327.65 228.489 327.507 229.473C327.102 232.114 327.57 234.899 327.523 237.572C327.467 241.149 327.141 244.703 326.585 248.241C326.251 250.374 328.119 251.763 329.748 251.715C330.089 251.945 330.511 252.143 331.059 252.294C333.499 252.952 336.709 252.294 339.236 252.191C341.485 252.096 344.203 252.373 346.356 251.628C347.207 251.334 348.152 250.652 348.295 249.692C348.82 246.329 347.89 242.553 347.787 239.142Z" fill="#59C69F"/>
<path d="M419.839 208.698C419.887 207.167 418.528 205.962 417.058 205.922C411.694 205.787 406.338 205.652 400.974 205.517C399.392 205.478 398.296 206.826 398.192 208.294C397.724 214.83 397.684 221.358 397.573 227.91C397.453 234.962 396.706 241.998 397.136 249.05C397.271 251.295 399.551 252.128 401.149 251.533C401.347 251.58 401.57 251.62 401.8 251.628C404.216 251.715 406.616 251.469 409.032 251.62C411.209 251.755 413.474 252.35 415.659 251.937C420.205 251.088 419.386 247.106 419.362 243.386C419.299 231.813 419.466 220.256 419.839 208.698Z" fill="#59C69F"/>
<path d="M456.553 152.49C455.678 144.407 446.778 138.03 438.879 142.004C433.881 144.518 432.339 149.547 433.618 154.093C432.681 160.47 435.2 167.53 442.853 167.974C446.659 168.196 450.585 165.951 453.302 163.445C456.386 160.605 456.982 156.504 456.553 152.49Z" fill="#59C69F"/>
<path d="M97.8794 202.63C96.3616 201.861 94.6133 201.9 93.1829 202.654C92.7618 202.678 92.3247 202.781 91.9115 202.963C89.893 203.852 88.709 206.057 88.2798 208.143C87.7474 210.776 89.0586 212.641 91.4506 213.585C93.4929 214.394 95.9007 214.687 97.8953 213.577C99.8264 212.506 100.979 210.332 101.002 208.151C101.034 205.89 99.9376 203.669 97.8794 202.63Z" fill="#59C69F"/>
<path d="M101.01 186.052C100.08 182.434 95.1377 179.309 92.102 181.657C91.4345 181.498 90.7272 181.554 90.163 181.974C86.1817 184.901 88.4386 191.676 92.4596 193.492C97.2674 195.666 102.306 191.112 101.01 186.052Z" fill="#59C69F"/>
<path d="M100.493 165.975C99.6906 163.016 97.251 160.502 93.9769 161.271C91.0049 161.969 88.7957 164.071 88.5176 167.157C88.4063 168.362 89.3679 169.417 90.4884 169.782C91.6009 171.361 93.5081 172.368 95.4789 172.265C98.7132 172.099 101.391 169.275 100.493 165.975Z" fill="#59C69F"/>
<path d="M100.581 143.931C99.8424 141.797 97.7604 140.195 95.583 140.044C94.7406 139.553 93.6678 139.537 92.7381 140.005C86.8257 142.963 90.9501 153.68 97.2915 151.316C100.049 150.285 101.527 146.644 100.581 143.931Z" fill="#59C69F"/>
<path d="M102.131 122.689C100.351 118.294 95.0507 116.176 91.3078 119.698C89.6072 121.3 88.6695 123.609 88.9159 125.933C89.1622 128.209 90.8072 130.367 93.1594 130.47C93.9223 131.184 94.9236 131.692 96.1474 131.819C101.337 132.374 103.887 127.028 102.131 122.689Z" fill="#59C69F"/>
<path d="M44.4622 168.609C44.3032 167.506 44.0172 166.324 43.151 165.547C42.1974 164.698 40.9736 164.373 39.718 164.523C38.9551 164.611 38.3114 164.777 37.7552 165.34C37.3817 165.713 37.0877 166.268 36.9844 166.824C36.9605 166.871 36.9208 166.903 36.8969 166.951C36.4042 167.966 36.1738 168.862 36.0308 169.973C35.9513 170.6 36.3963 171.52 36.8493 171.932C37.4055 172.44 38.0572 172.717 38.8121 172.749C39.7339 172.781 40.6796 172.86 41.6014 172.836C42.706 172.813 43.6596 172.281 44.2238 171.329C44.7403 170.465 44.6052 169.545 44.4622 168.609Z" fill="#59C69F"/>
<path d="M73.1019 182.3C71.9973 181.268 70.7338 181.34 69.367 181.617C69.1604 181.657 68.9617 181.681 68.7551 181.689C64.3208 180.808 58.2734 181.522 55.5239 181.49L38.7882 181.316C36.8253 181.292 34.3857 180.983 32.6215 181.657C31.0958 181.371 29.1965 182.244 29.0058 184.259C28.7436 187.019 28.2429 191.485 31.9063 191.993C34.0996 192.294 36.7697 191.668 39.0186 191.62C41.5298 191.564 44.0409 191.549 46.5521 191.509C52.075 191.43 57.5979 191.327 63.1209 191.477C66.0453 191.557 72.0371 192.691 73.4118 189.145C73.8886 187.924 74.0555 186.892 73.984 186.012C74.0237 185.917 74.0555 185.822 74.0794 185.718C74.3734 184.402 74.0873 183.212 73.1019 182.3Z" fill="#59C69F"/>
<path d="M334.373 63.5454C334.063 59.9045 332.489 55.8749 331.504 52.3529C330.9 50.1874 330.439 48.601 328.214 47.657C324.988 46.2768 321.046 45.8643 317.661 44.8331C313.958 43.6988 310.302 42.4138 306.718 40.9701C302.912 39.4392 299.177 37.71 295.529 35.8221C292.955 34.4894 290.07 32.1494 287.003 32.6254C284.341 33.0378 281.67 35.1716 279.366 36.4804C277.133 37.7496 273.716 38.9791 272.834 41.6761C271.864 44.6428 274.137 48.3392 275.226 50.9727C276.632 54.3757 278.126 57.7469 279.739 61.0546C283.188 68.1223 287.17 74.9044 291.564 81.4247C292.486 82.797 293.98 83.1222 295.458 82.448C301.648 79.6241 308.26 78.0059 314.745 76.0308C317.868 75.0789 320.959 74.0239 323.971 72.7548C326.212 71.8029 329.931 70.621 331.361 68.4793C331.456 68.3285 331.528 68.1858 331.599 68.035C333.61 66.988 334.571 65.9013 334.373 63.5454Z" fill="#59C69F"/>
<path d="M50.7076 214.584C47.9898 209.531 42.0139 209.531 36.9201 209.761C35.2274 209.84 34.3453 211.133 34.2579 212.45C32.4858 213.91 32.5891 216.496 32.4858 218.606C32.2871 222.595 30.7852 230.924 36.2843 231.845C40.7424 232.59 46.2256 230.901 49.2056 227.482C52.2015 224.039 52.869 218.613 50.7076 214.584Z" fill="#59C69F"/>
<path d="M37.2299 97.7336C33.6539 97.7336 33.646 103.286 37.2299 103.286C40.8059 103.286 40.8139 97.7336 37.2299 97.7336Z" fill="#59C69F"/>
<path d="M38.2631 111.083C34.6871 111.083 34.6792 116.636 38.2631 116.636C41.8391 116.636 41.8471 111.083 38.2631 111.083Z" fill="#59C69F"/>
<path d="M37.4369 122.467C33.8609 122.467 33.853 128.019 37.4369 128.019C41.0129 128.019 41.0209 122.467 37.4369 122.467Z" fill="#59C69F"/>
<path d="M46.1148 57.406C44.8115 55.1057 40.0833 54.5266 37.8264 55.3674C37.2066 55.5975 36.7298 55.9703 36.3642 56.4303C35.2437 56.6842 34.2663 57.5409 34.2345 59.0242C34.1709 61.6895 34.1153 64.3626 34.0517 67.0279C33.9961 69.3044 36.4119 70.2563 38.2396 69.4234C40.7349 68.297 44.8274 69.5821 45.9479 66.1633C46.4009 64.791 46.3532 63.1569 46.4327 61.7291C46.5201 60.3727 46.8141 58.6355 46.1148 57.406Z" fill="#59C69F"/>
<path d="M67.7213 59.04C67.4431 55.3039 63.2155 55.1928 60.2832 55.2325C59.5918 55.2404 58.9005 55.5418 58.376 56.0098C56.8184 55.7163 55.0145 56.5889 55.0463 58.6275C55.0702 60.2695 55.094 61.9114 55.1258 63.5614C55.1576 65.2509 55.2609 66.9881 56.588 68.2176C57.8912 69.4154 59.5044 69.0346 61.0858 68.8284C62.5321 68.638 64.3201 68.7015 65.6154 67.9479C67.1014 67.0754 67.3398 65.4413 67.4988 63.8945C67.6577 62.316 67.8405 60.6264 67.7213 59.04Z" fill="#59C69F"/>
<path d="M86.9927 64.8066C86.9052 64.061 86.7145 63.3867 86.7543 62.6332C86.8019 61.7844 86.937 60.9515 86.7066 60.1028C85.6974 56.4222 80.2459 56.7315 77.3295 57.7072C75.6925 56.8267 73.1098 57.5962 73.0939 60.0314C73.0701 62.9266 72.9509 67.567 75.5415 69.5342C76.9957 70.6368 78.7996 69.9309 80.4605 69.9309C82.2882 69.9309 84.1636 70.3116 85.6497 68.9234C86.794 67.8605 87.1675 66.3217 86.9927 64.8066Z" fill="#59C69F"/>
<path d="M30.555 28.9608C30.4119 26.3907 28.918 23.6858 26.2161 23.1782C25.9777 23.1306 25.7393 23.1147 25.5088 23.1068C24.7221 22.4167 23.5857 22.139 22.4017 22.7974C17.443 25.5658 14.7967 32.4669 20.1448 36.3695C25.4691 40.2564 30.857 34.4023 30.555 28.9608Z" fill="#59C69F"/>
<path d="M285.596 183.283L285.826 183.609C285.667 183.775 285.556 183.981 285.461 184.291C285.27 184.933 285.238 185.592 285.206 186.29L285.159 186.861C285.095 206.549 285.008 220.057 284.904 228.077L284.896 228.481L282.6 228.418C276.544 228.251 270.481 228.077 264.426 227.942C255.39 227.736 245.831 227.545 236.008 227.379C231.511 227.3 227.013 227.236 222.507 227.165L215.824 227.07C215.45 227.062 215.077 227.054 214.695 227.046C213.948 227.022 213.178 227.006 212.431 227.03C212.002 227.038 211.58 227.006 211.167 226.974C210.635 226.935 210.126 226.895 209.633 226.943C208.902 227.022 208.29 227.323 207.941 227.775C207.798 227.958 207.694 228.172 207.575 228.402C207.488 228.577 207.392 228.751 207.289 228.918C206.725 229.814 205.716 230.472 204.46 230.766C202.807 231.147 201.019 231.083 199.287 231.02C198.611 230.996 197.952 230.972 197.308 230.972L170.432 231.067C169.733 231.067 169.042 231.075 168.342 231.083C166.88 231.099 165.362 231.115 163.876 231.083C162.963 231.059 162.001 230.988 161.151 230.623C160.292 230.25 159.696 229.568 159.553 228.799C159.506 228.521 159.514 228.243 159.522 227.982C159.53 227.585 159.545 227.244 159.363 227.03C158.973 226.562 157.575 226.538 156.82 226.522C156.645 226.522 156.486 226.514 156.351 226.506C155.397 226.459 154.428 226.467 153.482 226.475C153.013 226.475 152.544 226.483 152.076 226.475L144.971 226.427C140.235 226.395 135.499 226.364 130.755 226.34L117.396 226.26C105.723 226.189 93.3973 226.284 79.7211 226.546C79.1092 226.554 79.0059 226.554 78.5291 216.765C78.2986 211.879 77.9728 205.184 77.5039 204.391C77.4006 204.209 77.2337 203.995 77.0589 203.971C76.8603 203.947 76.606 204.201 76.4868 204.351C74.667 206.572 74.9054 210.658 75.0961 213.934C75.1517 214.917 75.2073 215.853 75.2073 216.67V217.575C75.2073 218.78 75.2073 220.954 75.2073 222.818C75.1994 226.641 75.1994 226.641 74.7862 226.649L73.7849 226.673C73.6021 226.887 73.4591 227.157 73.3717 227.482L73.3001 228.093C73.3001 228.093 73.3081 228.228 73.324 228.291C73.3399 228.355 73.3558 228.418 73.3796 228.481C73.4432 228.632 73.4909 228.719 73.5465 228.807L73.5147 228.846L73.5783 228.894L73.6021 228.878L73.6736 228.957C73.6895 228.973 73.7054 228.989 73.7213 228.997L73.7531 229.021C73.9041 229.124 73.9915 229.164 74.0869 229.211L74.214 229.259C74.3809 229.314 74.4762 229.33 74.5796 229.354L74.6431 229.37C85.9274 229.005 98.205 228.862 112.175 228.934C126.781 229.013 141.387 229.1 155.993 229.203L156.82 229.211L156.891 229.521C157.209 230.94 158.25 232.225 159.688 232.955C161.492 233.867 163.63 233.836 165.696 233.804C166.022 233.796 166.34 233.796 166.658 233.796L200.828 233.677C203.061 233.677 205.366 233.669 207.313 232.614C208.465 231.988 209.347 231.067 209.864 229.957L209.975 229.727H210.229C223.333 229.893 234.046 230.052 243.939 230.234L247.682 230.306C255.041 230.457 262.391 230.599 269.75 230.782C274.097 230.885 278.452 230.996 282.798 231.115C284.976 231.178 287.145 231.234 289.323 231.297C289.855 231.313 290.396 231.305 290.928 231.305C292.501 231.289 294.13 231.282 295.704 231.781C296.061 231.892 296.427 232.043 296.697 232.352C297.007 232.709 297.087 233.169 297.118 233.614C297.174 234.335 297.166 235.065 297.095 235.787C296.991 236.779 296.769 237.754 296.435 238.69C296.332 238.984 296.189 239.285 295.91 239.484C295.664 239.658 295.378 239.69 295.171 239.721C291.476 240.229 287.924 240.531 284.324 240.642C280.55 240.761 276.664 240.848 272.436 240.895C264.545 240.999 256.614 240.975 249.232 240.935C234.626 240.856 220.02 240.769 205.414 240.665C181.375 240.499 149.652 240.229 117.476 239.634C101.201 239.634 85.2043 239.079 73.0617 238.587C73.0061 238.627 72.9584 238.674 72.9187 238.722C72.8869 238.762 72.7995 238.936 72.7677 239.119C72.7598 239.158 72.7598 239.182 72.7598 239.269C72.7598 239.325 72.7598 239.372 72.7677 239.46C72.7757 239.507 72.7995 239.595 72.8472 239.69C72.8551 239.698 72.879 239.737 72.9028 239.785C72.9743 239.896 72.9743 239.904 73.1412 240.055L73.3001 240.182C73.3876 240.237 73.4829 240.301 73.5703 240.348C73.7293 240.443 73.9597 240.546 74.071 240.586C75.557 241.165 77.0748 241.268 78.68 241.379L79.3158 241.427C79.4111 241.435 79.4827 241.459 79.5462 241.475L80.1581 241.49C84.8944 241.617 89.6385 241.736 94.3747 241.847C103.513 242.062 112.819 242.252 122.816 242.426C133.027 242.601 143.914 242.76 156.097 242.91C186.032 243.267 216.849 243.442 244.035 243.6H244.289C253.412 243.656 262.844 243.711 272.118 243.6C277.212 243.537 281.853 243.434 286.287 243.275C286.978 243.251 287.749 243.259 288.576 243.267C291.659 243.299 295.497 243.339 297.635 241.594C297.834 241.427 298.016 241.252 298.167 241.07C298.755 240.356 299.057 239.412 299.288 238.579C299.781 236.81 300.265 234.51 299.622 232.416C299.463 231.908 299.248 231.448 298.986 231.059C297.675 229.124 295.164 228.791 292.867 228.719C292.04 228.696 291.214 228.672 290.395 228.656C289.656 228.64 288.917 228.616 288.178 228.6L287.781 228.592L287.789 228.196C287.988 219.581 288.123 204.645 288.21 183.791C288.186 183.751 288.162 183.704 288.139 183.664C288.115 183.632 288.091 183.601 288.075 183.561C288.027 183.505 287.972 183.45 287.916 183.394C287.892 183.378 287.868 183.363 287.845 183.347C287.733 183.315 287.654 183.299 287.574 183.283C287.543 183.283 287.511 183.283 287.487 183.275L287.368 183.267C287.257 183.26 287.145 183.267 287.042 183.275C286.859 183.291 286.756 183.307 286.549 183.355C286.446 183.378 286.343 183.402 286.247 183.442L286.128 183.482C286.041 183.513 285.977 183.545 285.914 183.585L285.596 183.283Z" fill="#1E1E1E"/>
<path d="M117.396 89.2858C114.893 89.2699 112.66 89.262 110.61 89.262C101.407 89.262 95.9956 89.4047 86.8569 89.6427C84.5762 89.7062 82.073 89.7696 79.2281 89.841C78.5685 89.8569 76.3514 90.0314 75.668 91.6258C75.4534 92.1334 75.4296 92.7363 75.4057 93.3154C75.3024 96.2265 75.3263 99.2011 75.3422 102.081C75.3501 103.437 75.3581 104.793 75.3581 106.142C75.3422 115.954 75.3263 125.758 75.3104 135.563C75.3024 138.783 75.3104 142.012 75.3104 145.232C75.3104 151.871 75.3183 158.741 75.2627 165.491C75.2627 165.578 75.2627 165.682 75.2865 165.729C75.3104 165.777 75.3978 165.848 75.4296 165.864C76.0415 166.332 76.8759 166.491 77.6149 166.284C77.6388 166.276 77.6546 166.276 77.6705 166.269C77.6626 166.261 77.6626 166.229 77.6626 166.213C77.6467 154.092 77.6785 141.813 77.7659 129.724C77.8374 119.746 77.9248 110.679 78.0361 101.993C78.044 101.137 78.052 100.288 78.052 99.4311C78.0599 97.4322 78.0679 95.3698 78.1712 93.3471C78.1791 93.2281 78.1871 92.9901 78.3778 92.8077C78.5526 92.6332 78.7831 92.6253 78.9023 92.6173C94.1917 91.951 97.3624 91.8638 112.175 91.9351C126.781 92.0145 141.387 92.1017 155.993 92.2048L156.819 92.2128L156.891 92.5221C157.209 93.942 158.25 95.227 159.688 95.9568C161.484 96.869 163.622 96.8373 165.688 96.8056C166.014 96.7976 166.332 96.7976 166.65 96.7976L200.82 96.6786C203.053 96.6786 205.358 96.6707 207.305 95.6157C208.457 94.9891 209.339 94.0689 209.856 92.9584L209.967 92.7284H210.221C223.325 92.8949 234.037 93.0536 243.931 93.236L248.024 93.3154C255.263 93.4581 262.502 93.6089 269.742 93.7834C270.497 93.7992 270.934 93.8151 271.18 93.8548C271.45 93.8072 271.76 93.831 272.038 93.8627C272.15 93.8706 272.253 93.8865 272.34 93.8865C272.785 93.8944 273.222 93.9182 273.667 93.942C274.113 93.9658 274.565 94.0372 274.995 94.1007C275.368 94.1562 275.734 94.2117 276.107 94.2434C276.997 94.3148 277.935 94.3069 278.841 94.291C280.565 94.2752 282.345 94.2514 284.038 94.7828C284.396 94.8939 284.769 95.0446 285.031 95.354C285.341 95.7109 285.413 96.171 285.452 96.6073C285.532 97.575 285.492 98.5745 285.452 99.5343C285.437 100.01 285.421 100.486 285.413 100.954L285.373 105.539C285.373 105.801 285.365 106.094 285.476 106.3C285.603 106.538 285.921 106.697 286.287 106.721C286.748 106.729 287.193 106.57 287.519 106.261C288.107 105.698 288.146 104.762 288.13 103.849C288.122 102.826 288.107 101.795 288.091 100.772V100.581C288.075 99.2408 288.051 97.9002 288.003 96.5597C288.003 96.4486 288.003 96.3296 288.003 96.2106C288.003 95.9251 288.003 95.6236 287.94 95.4095C287.781 94.9018 287.566 94.4417 287.304 94.0531C285.993 92.1176 283.474 91.7844 281.185 91.713C276.647 91.5782 274.804 91.4513 273.024 91.3323C271.133 91.2054 269.352 91.0785 264.418 90.9674C255.295 90.7612 245.735 90.5708 236 90.4042L235.388 90.3963C226.432 90.2456 217.167 90.0869 208.052 90.1187C204.881 90.1266 201.71 90.1583 198.54 90.19C192.468 90.2456 186.19 90.309 180.016 90.2138L179.181 90.198C174.588 90.1186 170.138 89.9521 165.203 89.7696C160.825 89.6031 156.239 89.5079 151.201 89.4761L117.396 89.2858ZM181.152 93.5137C181.279 93.2757 181.47 93.0774 181.724 92.887L181.875 92.776C182.312 92.4587 182.853 92.0541 183.584 92.2524C183.854 92.3238 184.045 92.4587 184.196 92.5856C184.323 92.6887 184.442 92.8315 184.545 92.9981C184.641 93.1567 184.712 93.3312 184.752 93.5057C184.8 93.712 184.816 93.8944 184.8 94.0531C184.792 94.18 184.776 94.3148 184.736 94.4338C184.704 94.5369 184.665 94.64 184.625 94.7352C184.418 95.1953 184.053 95.4888 183.775 95.6633C183.457 95.8616 183.083 95.9727 182.75 95.9727C182.718 95.9727 182.686 95.9727 182.654 95.9727C182.511 95.9647 182.32 95.9409 182.13 95.8696C181.899 95.7823 181.732 95.6792 181.542 95.5285C181.295 95.3222 181.105 95.0208 181.017 94.6956C180.969 94.5131 180.946 94.3386 180.954 94.18C180.977 93.942 181.049 93.712 181.152 93.5137Z" fill="#1E1E1E"/>
<path d="M92.5786 131.739C93.9772 132.072 95.3361 131.842 96.4089 131.081C97.4102 130.375 98.3241 129.367 99.0552 128.17C100.501 125.798 100.589 123.006 99.2856 120.872C97.7042 118.27 94.4779 117.088 91.6091 118.056C90.9893 118.262 90.441 118.929 90.6237 119.642L90.8224 120.396L90.0993 120.118C89.9165 120.047 89.7019 120.007 89.5032 120.007C89.1854 120.007 88.8834 120.111 88.6847 120.364C87.2146 122.213 86.8173 124.568 87.5881 126.837C88.4384 129.312 90.3535 131.2 92.5786 131.739ZM89.9006 124.053C89.9483 123.402 90.139 122.792 90.5284 122.316C91.0131 121.721 90.9019 121.015 90.8383 120.317C91.1403 120.61 91.5932 120.69 92.0144 120.658C92.4356 120.626 92.8409 120.507 93.2541 120.452C94.2792 120.325 95.3441 120.626 96.1467 121.284C96.9413 121.935 97.4499 122.926 97.5215 123.95C97.6407 125.639 96.6235 127.21 95.4235 128.408C95.1454 128.685 94.8514 128.955 94.4938 129.09C93.9454 129.304 93.3177 129.185 92.7693 128.947C92.0859 128.654 91.474 128.186 91.0211 127.599C91.0687 127.551 91.1244 127.495 91.1721 127.448C91.1403 127.551 90.9813 127.488 90.9098 127.4C90.2423 126.567 89.8211 125.243 89.9006 124.053Z" fill="#1E1E1E"/>
<path d="M99.1587 162.731C97.5773 160.129 94.343 158.947 91.4822 159.915C90.8623 160.121 90.314 160.787 90.4968 161.501L90.6954 162.255L89.9723 161.977C89.7895 161.906 89.575 161.858 89.3684 161.858C89.0664 161.858 88.7644 161.953 88.5578 162.215C87.0877 164.063 86.6903 166.419 87.4611 168.688C88.3194 171.194 90.2345 173.082 92.4596 173.614C93.8582 173.947 95.2171 173.717 96.2899 172.955C97.2912 172.249 98.2051 171.242 98.9362 170.044C100.367 167.665 100.454 164.864 99.1587 162.731ZM97.3707 166.562C97.2117 167.926 96.3694 169.18 95.4317 170.131C95.2807 170.282 95.1297 170.433 94.9708 170.568C94.8834 170.631 94.8277 170.679 94.8118 170.687C94.4622 170.909 94.1523 171.06 93.7231 171.06C93.302 171.06 92.8887 170.948 92.5152 170.774C91.2676 170.195 90.3696 168.997 89.9803 167.688C89.861 167.3 89.7895 166.903 89.7736 166.498C89.7498 165.864 89.8769 165.229 90.1471 164.65C90.2822 164.349 90.4968 164.103 90.6557 163.817C90.7988 163.564 90.8464 163.191 90.8067 162.905L90.6954 162.199L91.355 162.485C91.6332 162.604 91.9033 162.62 92.1656 162.532C92.3881 162.461 92.6106 162.397 92.8411 162.342C93.9933 162.048 95.3602 162.524 96.2104 163.326C97.0369 164.103 97.4819 165.253 97.4024 166.379C97.3866 166.443 97.3786 166.498 97.3707 166.562Z" fill="#1E1E1E"/>
<path d="M92.8016 139.656C91.562 139.656 90.3143 139.957 89.1859 140.568C88.8442 140.75 88.5979 141.139 88.5422 141.583L88.5184 141.79L88.3356 141.885C87.4774 142.329 86.786 143.249 86.5238 144.272C86.2059 145.502 86.4125 146.874 87.0959 148.135C88.6455 150.983 92.0467 151.649 93.938 151.792C96.2505 151.959 99.2305 151.213 100.001 148.484C100.661 146.152 99.6994 143.201 97.7286 141.472C96.3459 140.274 94.5817 139.656 92.8016 139.656ZM96.7273 148.564C96.028 149.151 94.979 149.182 94.0493 149.103C92.7858 148.992 91.4904 148.73 90.4812 147.969C89.7899 147.453 89.2654 146.66 89.1303 145.803C89.0747 145.43 89.0508 144.955 89.2654 144.637C89.5117 144.264 89.9806 144.241 90.3064 143.971C90.6719 143.677 90.9024 143.209 90.8627 142.741C92.1182 142.17 93.6202 142.186 94.8598 142.789C96.0995 143.384 97.0452 144.558 97.371 145.891C97.5855 146.763 97.5061 147.77 96.8862 148.421C96.8306 148.469 96.7829 148.516 96.7273 148.564Z" fill="#1E1E1E"/>
<path d="M97.0762 147.35L97.1874 147.382L97.2033 147.374L97.0762 147.35Z" fill="#1E1E1E"/>
<path d="M94.1203 181.562C93.3495 181.308 92.4753 181.149 91.6091 181.149C89.9801 181.149 88.359 181.721 87.4451 183.323C86.2451 185.433 86.4676 188.526 87.9696 190.676C89.7496 193.214 92.9919 194.396 96.0354 193.611C96.4089 193.516 96.7427 193.199 96.9016 192.778L96.9732 192.588L97.1718 192.54C98.1095 192.31 98.9996 191.588 99.5002 190.652C100.104 189.534 100.231 188.154 99.8737 186.765C99.0631 183.624 95.9242 182.157 94.1203 181.562ZM97.3466 188.717C97.3308 188.836 97.299 188.955 97.2672 189.066C97.1559 189.423 96.9255 189.78 96.5679 189.875C96.4089 189.915 96.2341 189.899 96.0672 189.915C95.4394 189.986 95.1375 190.549 94.9388 191.081C93.4766 191.366 91.8952 190.89 90.8224 189.867C89.7496 188.836 89.2172 187.281 89.4397 185.814C89.4715 185.599 89.5192 185.385 89.6066 185.187C89.7099 184.957 89.8529 184.743 90.0039 184.536C90.3536 184.053 90.7588 183.838 91.3628 183.807C92.1336 183.767 92.8886 183.973 93.6197 184.227C94.6766 184.6 95.7096 185.123 96.4566 185.956C97.1082 186.71 97.5056 187.749 97.3466 188.717Z" fill="#1E1E1E"/>
<path d="M87.9144 204.954C87.7078 205.256 87.5171 205.573 87.3422 205.914C86.9687 206.612 86.6111 207.326 86.4681 208.095C86.2059 209.515 86.7224 211.038 87.7237 212.077C89.3368 213.751 91.8877 214.005 94.089 213.704C95.6465 213.497 97.1723 212.855 98.2769 211.744C99.3814 210.634 100.025 209.023 99.7947 207.469C99.7152 206.913 99.5245 206.382 99.4291 205.827C99.2305 204.645 99.1748 203.677 98.3007 202.765C96.9657 201.186 94.9631 200.822 93.0241 201.337C90.7831 201.948 89.1302 203.138 87.9144 204.954ZM95.6942 204.153C96.2663 205.763 97.8557 208.143 97.061 209.729C95.4717 212.109 89.1143 212.109 88.9475 208.5C88.9077 208.119 88.9395 207.731 89.0508 207.358C89.7898 204.716 93.7711 202.456 95.3604 203.994L95.6942 204.153Z" fill="#1E1E1E"/>
<path d="M187.002 123.791C162.462 123.014 137.581 122.768 113.058 123.053C112.343 123.061 111.985 123.442 111.81 123.759C111.524 124.267 111.532 124.965 111.818 125.457C111.993 125.758 112.351 126.091 113.05 126.099C119.646 126.02 126.265 125.98 132.901 125.98C150.948 125.98 169.074 126.266 187.034 126.837C188.067 126.853 188.456 126.099 188.48 125.433C188.496 124.664 188.051 123.823 187.002 123.791Z" fill="#1E1E1E"/>
<path d="M112.136 146.787H161.445C162.454 146.787 162.907 146.025 162.907 145.264C162.907 144.51 162.454 143.741 161.445 143.741H112.136C111.127 143.741 110.674 144.502 110.674 145.264C110.674 146.025 111.127 146.787 112.136 146.787Z" fill="#1E1E1E"/>
<path d="M172.165 146.12H233.45C234.928 146.12 235.604 145.327 235.604 144.597C235.604 143.868 234.928 143.074 233.45 143.074H172.165C170.687 143.074 170.012 143.868 170.012 144.597C170.02 145.327 170.687 146.12 172.165 146.12Z" fill="#1E1E1E"/>
<path d="M144.176 162.802C133.623 162.802 122.982 163.254 112.493 164.143C111.69 164.214 111.333 164.737 111.19 165.039C110.927 165.594 110.959 166.268 111.269 166.713C111.515 167.07 111.913 167.236 112.429 167.189C123.96 166.213 135.665 165.761 147.244 165.856C147.252 165.856 147.252 165.856 147.26 165.856C148.245 165.856 148.69 165.11 148.698 164.365C148.706 163.627 148.253 162.818 147.236 162.81C146.218 162.802 145.193 162.802 144.176 162.802Z" fill="#1E1E1E"/>
<path d="M252.633 163.548C252.689 162.786 252.45 161.961 251.918 161.929C248.413 161.691 244.885 161.573 241.349 161.573C237.423 161.573 233.498 161.723 229.588 162.017C228.968 162.064 228.586 163.127 228.658 164.039C228.674 164.214 228.753 165.134 229.31 165.055C236.772 164.492 244.329 164.46 251.759 164.968C252.26 165.007 252.585 164.277 252.633 163.548Z" fill="#1E1E1E"/>
<path d="M162.573 162.461C161.62 162.461 161.175 163.183 161.159 163.913C161.143 164.666 161.596 165.491 162.629 165.507C179.762 165.848 197.133 165.737 214.258 165.19C214.981 165.166 215.347 164.769 215.522 164.436C215.808 163.905 215.792 163.222 215.49 162.739C215.315 162.453 214.958 162.128 214.282 162.144C197.141 162.691 179.754 162.802 162.605 162.461C162.597 162.461 162.581 162.461 162.573 162.461Z" fill="#1E1E1E"/>
<path d="M190.387 188.201C191.078 188.201 191.428 187.844 191.603 187.551C191.897 187.059 191.897 186.361 191.61 185.853C191.436 185.544 191.07 185.163 190.363 185.163L110.125 184.529C110.117 184.529 110.117 184.529 110.109 184.529C109.418 184.529 109.068 184.886 108.893 185.179C108.599 185.679 108.592 186.369 108.886 186.877C109.06 187.186 109.426 187.567 110.133 187.567H110.451L190.371 188.201C190.371 188.201 190.379 188.201 190.387 188.201Z" fill="#1E1E1E"/>
<path d="M107.836 206.866C107.844 207.611 108.289 208.357 109.274 208.357C109.282 208.357 109.282 208.357 109.29 208.357L132.193 208.159C133.21 208.151 133.663 207.35 133.655 206.604C133.647 205.858 133.194 205.081 132.201 205.113L109.298 205.311C108.281 205.319 107.828 206.12 107.836 206.866Z" fill="#1E1E1E"/>
<path d="M224.97 126.028C224.962 125.282 224.485 124.513 223.516 124.537L200.614 124.735C199.596 124.743 199.144 125.544 199.151 126.29C199.159 127.035 199.604 127.781 200.59 127.781C200.598 127.781 200.598 127.781 200.606 127.781L223.508 127.583C224.525 127.575 224.978 126.774 224.97 126.028Z" fill="#1E1E1E"/>
<path d="M144.352 208.222C164.33 208.682 184.57 208.524 204.524 207.746C205.311 207.715 205.676 207.231 205.827 206.945C206.113 206.406 206.105 205.732 205.803 205.256C205.557 204.875 205.144 204.669 204.635 204.7C184.673 205.478 164.409 205.636 144.415 205.176C144.399 205.176 144.384 205.176 144.368 205.176C143.692 205.176 143.343 205.525 143.16 205.819C142.858 206.311 142.842 207.009 143.12 207.516C143.295 207.834 143.645 208.207 144.352 208.222Z" fill="#1E1E1E"/>
<path d="M238.893 185.647C238.861 185.139 238.686 184.6 238.392 184.6C238.384 184.6 238.384 184.6 238.376 184.6C227.331 185.385 216.142 185.552 205.12 185.1H205.112C204.778 185.1 204.476 185.758 204.444 186.583C204.412 187.432 204.667 188.13 205.016 188.146C216.007 188.598 227.164 188.431 238.178 187.646C238.607 187.606 238.964 186.623 238.893 185.647Z" fill="#1E1E1E"/>
<path d="M274.431 50.3065C274.757 51.3298 275.091 52.3927 275.488 53.4001C276.513 56.0019 277.848 58.5481 279.143 61.0071C279.541 61.7607 279.938 62.5143 280.328 63.2758C282.847 68.1938 285.374 73.1118 287.901 78.0298L290.69 83.3603V83.4793C290.682 83.9949 291.032 84.5343 291.493 84.7405C291.747 84.8516 292.136 84.8992 292.55 84.5025C296.523 80.6871 301.784 79.1165 306.877 77.5856C308.141 77.2048 309.444 76.8162 310.7 76.3958C317.144 74.2461 322.834 70.3752 328.341 66.6311C328.969 66.2028 329.605 65.7744 330.233 65.3461L330.32 65.2985C330.582 65.2033 330.789 65.0526 330.932 64.8384L330.996 64.767C331.52 64.2832 331.25 63.7438 331.107 63.5375L331.051 63.4582L331.035 63.363C330.384 58.6909 329.835 53.9236 329.414 49.1801L329.406 49.0929L329.438 49.0056C329.557 48.6804 329.557 48.3314 329.422 48.0617C329.303 47.8078 329.08 47.6333 328.77 47.5223C314.951 42.8184 301.06 37.7735 287.48 32.5461C287.09 32.3954 286.74 32.4509 286.431 32.7048L286.303 32.8079L286.144 32.792C286.089 32.7841 286.033 32.7841 285.978 32.7841C285.016 32.7841 284.094 33.4821 283.276 34.1088L283.085 34.2595C281.909 35.1479 280.733 36.076 279.588 37.0041C277.34 38.8444 275.099 40.8274 272.937 42.8978L272.802 43.0723L272.707 43.104C272.341 43.2309 272.063 43.4768 271.968 43.7624C271.88 44.0083 271.92 44.27 272.095 44.5556C273.183 46.3642 273.819 48.371 274.431 50.3065ZM326.164 65.2192C320.339 69.1457 315.007 72.5565 308.673 74.5713C307.99 74.7855 307.307 74.9997 306.623 75.2138C303.889 76.0626 301.068 76.9431 298.422 78.0695L296.586 78.8468L315.301 59.7459L315.547 59.849C319.807 61.6576 323.065 63.1013 326.108 64.5291L326.744 64.8226L326.164 65.2192ZM327.292 51.5598C327.69 55.6687 328.087 59.0955 328.516 62.3477L328.612 63.0695L327.952 62.7602C324.9 61.3165 321.634 59.8649 317.677 58.1832L317.017 57.9056L327.229 50.8935L327.292 51.5598ZM314.403 45.5233L314.474 45.0474L314.927 45.214C318.011 46.3166 321.317 47.4747 325.028 48.7597L325.775 49.0135L315.245 56.2398L315.118 55.6687C314.459 52.6703 313.855 49.1246 314.403 45.5233ZM296.261 75.8008L296.872 74.0875C297.842 71.3826 298.661 68.5507 299.447 65.8141C300.456 62.2922 301.505 58.6592 302.912 55.1928L303.055 54.8358L303.421 54.9707C306.416 56.105 309.444 57.3028 312.408 58.5323L312.949 58.7544L296.261 75.8008ZM312.607 55.4387L312.766 56.1684L310.533 55.2642C308.53 54.4551 306.456 53.6143 304.406 52.8369L303.746 52.591L309.19 48.2917C309.762 47.8316 310.334 47.3795 310.922 46.9432C310.97 46.9115 311.018 46.8718 311.073 46.8401L311.836 46.2928L311.788 47.1257C311.645 49.5212 311.9 52.1626 312.607 55.4387ZM301.521 40.3277C304.239 41.3351 306.957 42.3187 309.683 43.3023L311.351 43.9051L310.612 44.3335C309.468 44.9919 308.403 45.8565 307.37 46.6814C307.108 46.8956 306.846 47.1019 306.583 47.3081L302.213 50.7428L301.521 45.4995C301.275 43.6275 301.108 42.1125 300.989 40.7243L300.933 40.0977L301.521 40.3277ZM300.806 54.0347L300.655 54.4154C299.312 57.7232 298.319 61.2451 297.349 64.656C296.284 68.4159 295.188 72.2948 293.614 75.9277L293.122 77.0621L292.859 75.8564C291.302 68.7252 291.04 61.261 290.785 54.0505C290.754 53.059 290.714 52.0675 290.674 51.0839L290.65 50.5127L291.199 50.6952C294.624 51.8454 297.476 52.8131 300.417 53.8998L300.806 54.0347ZM298.605 40.6371L298.676 41.4541C298.827 43.0564 299.01 44.6984 299.241 46.4673L299.845 51.068L299.241 50.9173C297.047 50.132 294.496 49.2198 291.969 48.379L291.413 48.1965L291.787 47.7523C293.591 45.6027 295.625 43.4609 298.001 41.2002L298.605 40.6371ZM288.433 35.4573C290.11 36.0998 291.795 36.7264 293.487 37.3452C294.52 37.7259 295.545 38.1067 296.578 38.4953L297.174 38.7174L296.714 39.1537C294.751 41.0019 292.836 42.9929 291.016 45.0712L290.499 45.6661L290.332 44.8967C289.967 43.2309 289.482 41.5493 289.013 39.9311C288.64 38.6223 288.25 37.2738 287.917 35.9253L287.734 35.1876L288.433 35.4573ZM276.807 42.636C277.944 41.5889 279.128 40.5022 280.335 39.4948C281.313 38.6857 282.314 37.8766 283.323 37.0913C283.84 36.6947 284.356 36.2981 284.873 35.9094L285.358 35.5445L285.501 36.1315C285.835 37.4959 286.256 38.884 286.661 40.2246C287.289 42.287 287.933 44.4207 288.298 46.5704L288.409 47.2129L287.789 47.0146C284.746 46.0469 280.733 44.7936 276.608 43.6434L275.925 43.453L276.807 42.636ZM276.084 45.9675C279.93 47.0463 283.824 48.2282 287.996 49.5847L288.258 49.6719L288.266 49.9495C288.322 51.3536 288.37 52.7655 288.417 54.1775C288.664 61.4434 288.918 68.9553 290.467 76.1023L291.103 79.0531L289.72 76.364C287.313 71.676 284.905 66.9881 282.497 62.2922C282.108 61.5386 281.71 60.785 281.313 60.0315C280.057 57.6359 278.754 55.1611 277.729 52.6148C277.292 51.5281 276.926 50.4096 276.569 49.3229C276.267 48.3869 275.949 47.4191 275.591 46.4911L275.305 45.7534L276.084 45.9675Z" fill="#1E1E1E"/>
<path d="M32.6129 15.7377C32.5414 14.6827 32.2951 13.8577 31.8421 13.2152C31.0554 12.0968 29.5534 11.4384 27.7098 11.4067C26.5734 11.3987 25.4212 11.5098 24.3325 11.6208L24.1418 11.6367C23.6888 11.6843 23.2358 11.7319 22.7829 11.7636C21.5114 11.8588 21.281 13.0883 21.13 14.5716C21.0902 14.9762 21.0505 15.3411 20.971 15.6028C20.9392 15.7218 20.8359 16.0074 20.6055 16.1105C20.526 16.1581 20.383 16.166 20.2082 16.1264C19.7711 16.0312 19.4373 15.698 19.0797 15.3411C18.7698 15.0317 18.4519 14.7065 18.0308 14.532C17.3394 14.2305 16.4573 14.3733 15.615 14.9286C14.5898 15.6028 13.827 16.4278 13.2151 17.1417C12.9846 17.4114 12.7303 17.6652 12.484 17.9191C11.9516 18.4584 11.4191 18.9899 11.0536 19.6721C10.5688 20.5843 10.2986 21.9407 11.0059 23.0195C11.1013 23.1702 11.2125 23.313 11.3317 23.4558C11.6496 23.8603 11.9516 24.2411 11.8403 24.6536C11.7211 25.074 11.1887 25.2723 10.7198 25.2881C10.545 25.2881 10.3622 25.2881 10.1874 25.2723C9.80595 25.2564 9.43245 25.2326 9.07485 25.3437C8.39939 25.534 7.83517 26.129 7.57293 26.9381C7.34248 27.6361 7.35042 28.3976 7.35837 29.0718L7.3981 33.0618C7.40605 33.7281 7.414 34.5451 7.8749 35.1797C8.61395 36.195 10.1477 36.2109 10.9741 36.2109C11.2761 36.2109 11.5145 36.2268 11.6973 36.3457C11.8324 36.4409 11.9118 36.5758 11.9357 36.7582C11.9833 37.0755 11.8403 37.4959 11.594 37.7973C11.4748 37.9401 11.3476 38.067 11.2125 38.194C10.839 38.5588 10.5053 38.892 10.3543 39.3521C10.0523 40.2484 10.5927 41.1606 11.0933 41.8666C11.7211 42.7392 12.3966 43.5879 13.1038 44.3891C13.8429 45.222 14.6693 46.0628 15.7103 46.5149C16.9103 47.0305 18.2135 46.8957 19.032 46.1738C19.1354 46.0866 19.2387 45.9835 19.334 45.8803C19.6439 45.563 19.8982 45.3489 20.1843 45.3013L20.224 45.2933H20.2638C20.7406 45.3013 21.0584 45.8962 21.1061 46.4594C21.122 46.6101 21.13 46.7608 21.13 46.9115C21.1459 47.4033 21.1697 47.9031 21.4478 48.3314C21.9803 49.1484 23.1802 49.204 23.7603 49.2357L29.0608 49.4895C29.2038 49.4975 29.3707 49.5054 29.5455 49.5054C30.658 49.5054 31.3732 49.2119 31.7388 48.617C32.0249 48.149 32.0169 47.6016 32.0169 47.0781V46.7529C32.0249 46.4118 32.0964 45.6027 32.6606 45.3885C33.1533 45.1982 33.6063 45.571 34.1307 46.0073C34.6314 46.4277 35.1876 46.8798 35.8393 46.8005C36.1651 46.7608 36.4273 46.6022 36.7214 46.4118C38.4219 45.3092 40.0272 44.04 41.5053 42.6598C42.7926 41.4462 43.2535 40.2643 42.7926 39.3283C42.6098 38.9555 42.2761 38.6302 41.9821 38.3447C41.5212 37.8925 41.1159 37.5038 41.251 37.0041C41.3702 36.552 41.9264 36.3219 42.4112 36.2585C42.5701 36.2347 42.737 36.2268 42.8959 36.2188C43.3012 36.195 43.7303 36.1633 44.1197 35.9888C44.9064 35.6239 45.3912 34.7276 45.5501 33.3077C45.7249 31.8005 45.6932 30.2775 45.6693 28.7942C45.6534 28.0644 45.5819 27.4616 45.4309 26.9539C45.1687 26.0576 44.7078 25.5182 44.0244 25.2961C43.6429 25.1771 43.2535 25.193 42.88 25.2088C42.6416 25.2167 42.4589 25.2247 42.2761 25.2088C41.7754 25.1771 41.2271 24.8915 41.2112 24.4394C41.1953 24.0824 41.5053 23.8048 41.8311 23.5113C41.9423 23.4082 42.0536 23.3051 42.1569 23.2019C43.0469 22.2659 42.9992 20.8223 42.5542 19.8069C42.0933 18.7361 41.2112 17.8953 40.3292 17.1496C39.3676 16.3326 38.3504 15.5632 37.3094 14.8651C37.0074 14.6589 36.6975 14.4685 36.3479 14.413C35.5452 14.2861 34.9095 14.8175 34.2897 15.3331C33.8367 15.7059 33.4871 15.9836 33.1295 16.1026L32.6447 16.2612L32.6129 15.7377ZM33.9559 18.6409C34.1864 18.514 34.4407 18.2443 34.7108 17.9508C35.3307 17.2845 35.5691 17.0862 35.8075 17.0544L35.8949 17.0386L35.9823 17.0624C37.7465 17.6018 39.6457 19.569 40.2258 21.441C40.3212 21.7424 40.1146 22.02 39.4789 22.6546C38.9623 23.1702 38.4378 23.7017 38.4855 24.3521C38.5094 24.6536 38.6286 24.9233 38.7478 25.1771C38.7954 25.2881 38.8431 25.3754 38.8749 25.4706C38.9067 25.5578 38.9385 25.653 38.9703 25.7482C39.0815 26.0972 39.1848 26.4145 39.4073 26.6684C39.8206 27.1443 40.4404 27.2077 41.0444 27.2633C41.3781 27.295 41.6721 27.3267 41.9344 27.414C42.7926 27.6837 43.2376 28.4055 43.2933 29.6192L43.3092 29.9206C43.4363 31.8402 43.3727 33.1332 43.1423 33.5456L43.0628 33.6884L42.9039 33.736C42.7767 33.7757 42.6416 33.7677 42.3635 33.7439C41.3543 33.6726 40.345 34.0374 39.5901 34.7355C39.1054 35.1797 38.2312 36.2902 38.3663 37.3055C38.4458 37.8846 38.8431 38.3447 39.2325 38.7809C39.6855 39.3045 40.1225 39.7963 39.9477 40.4071C39.8523 40.7402 39.6139 41.0654 39.2087 41.4303C38.8113 41.7793 38.3822 42.0808 37.9293 42.406C37.3094 42.8423 36.6737 43.2865 36.173 43.8497L35.9267 44.1273L35.6327 43.8893C34.7983 43.223 33.4473 42.5805 33.1374 42.5805C32.7003 42.5884 32.303 42.755 31.9136 42.9216L31.5878 43.0564C30.8011 43.3579 29.9985 43.81 29.9031 44.9126C29.8872 45.1426 29.8872 45.3727 29.8952 45.6027C29.9031 45.8169 29.9031 46.0231 29.8952 46.2214C29.8713 46.4911 29.8157 46.6815 29.7124 46.8005C29.5217 47.0305 29.1402 47.0543 28.7985 47.0543C28.7906 47.0543 28.7826 47.0543 28.7747 47.0543C27.1536 47.0305 25.5483 46.9353 23.9749 46.7608L23.6173 46.7212V46.3642C23.6173 44.754 22.7114 43.3658 21.2492 42.7471C20.6532 42.4853 20.1128 42.4219 19.636 42.5567C19.191 42.6836 18.8334 43.0802 18.4996 43.461C18.1182 43.8893 17.7685 44.2859 17.3394 44.2859C17.2281 44.3097 17.0772 44.2304 16.9103 44.1432C15.464 43.3737 14.2402 42.2474 13.3661 40.8671C13.1912 40.5895 13.0244 40.2881 13.0085 39.9867C12.9846 39.5107 13.3502 39.1855 13.7396 38.8365C13.8985 38.6937 14.0495 38.5588 14.1766 38.4081C14.9316 37.5356 14.7249 36.9407 14.4071 36.0522L14.3038 35.8301C14.2005 35.5287 14.0972 35.2273 13.8985 34.9655C13.5727 34.5292 13.0244 34.2437 12.2694 34.1247C12.1184 34.1009 11.9595 34.0771 11.8006 34.0612C11.3556 34.0057 10.8867 33.9581 10.5132 33.7281C10.1318 33.506 9.83773 33.0856 9.66291 32.5541C9.15432 30.9597 9.35299 28.9767 10.1477 27.7392C10.4894 27.1998 11.1966 27.176 11.9436 27.1443C13.1356 27.0967 14.1448 26.9539 14.423 25.7085C14.566 25.3278 14.6375 24.9946 14.6455 24.6694C14.6773 23.662 14.2005 22.6388 13.1753 21.552L12.9449 21.3061L13.1515 21.0364C13.827 20.1639 16.2904 17.7366 16.7672 17.4272C16.9897 17.3083 17.1805 17.2131 17.3871 17.2369C17.8957 17.2686 18.2612 17.5859 18.6903 17.9587C19.1512 18.3553 19.6678 18.8075 20.4386 18.8233C21.5273 18.8154 22.6001 18.1174 23.0928 17.0941C23.1325 16.991 23.5219 15.4997 23.5934 14.5161L23.6173 14.1671L23.9669 14.1512C24.4278 14.1274 24.9046 14.0878 25.3655 14.0481C26.9708 13.8974 28.5522 13.7546 29.1879 14.3813C29.6568 14.9127 29.8872 15.5552 30.1336 16.2374C30.5786 17.4669 31.0315 18.7361 32.7957 18.8471C33.2169 18.9185 33.5745 18.8471 33.9559 18.6409Z" fill="#1E1E1E"/>
<path d="M27.8848 22.8213C27.551 22.7816 27.2093 22.7578 26.8756 22.7578C24.8094 22.7578 22.7115 23.551 21.1063 24.9709C19.3898 26.4939 18.4521 28.5166 18.468 30.6742C18.4918 31.2057 18.5713 31.7292 18.6984 32.221C19.2706 34.8149 21.4241 37.1073 24.0545 37.9402C24.5869 38.1306 25.1273 38.2654 25.6677 38.3447C27.9722 38.6858 30.3006 38.0433 31.9853 36.5996C32.3111 36.2982 32.6131 35.9571 32.8594 35.5922C33.1058 35.2353 33.3044 34.8625 33.4792 34.4341C34.5679 31.3961 34.5997 26.8588 31.1191 24.1063C30.6343 23.7493 30.1178 23.4638 29.5615 23.2417C29.0291 23.0354 28.4649 22.8927 27.8848 22.8213ZM31.4131 30.6266C31.429 31.1264 31.3972 31.6023 31.3098 32.11C31.2144 33.2126 30.4357 34.3707 29.2755 35.0846C28.902 35.3146 28.5126 35.4891 28.1073 35.6081C27.6384 35.7509 27.1696 35.8143 26.7087 35.8143C24.4439 35.8143 22.3618 34.2358 21.297 32.3797C20.3672 30.6742 20.7407 28.596 22.2506 27.0888C23.4664 25.9704 25.0717 25.312 26.5577 25.312C27.8609 25.312 29.0053 25.7959 29.8556 26.716C30.8251 27.8424 31.3336 29.1195 31.4131 30.6266Z" fill="#1E1E1E"/>
<path d="M28.5606 134.714C28.2666 123.442 27.9726 114.939 27.6865 106.713C27.4004 98.4793 27.1064 89.96 26.8124 78.6803L26.3117 59.2383C26.2958 58.6037 25.9462 58.2785 25.6601 58.1278C25.4376 58.0088 25.1753 57.9453 24.921 57.9453C24.6429 57.9453 24.3727 58.0088 24.1582 58.1436C23.9039 58.3023 23.6019 58.6116 23.6178 59.2145C23.9118 70.6766 24.2138 79.3704 24.5078 87.7865C24.8018 96.2027 25.1038 104.896 25.3978 116.359L25.8985 135.801C25.9064 136.173 26.0415 136.483 26.2879 136.721L26.3753 136.8L26.3991 136.919C26.4627 137.213 26.709 137.911 27.6229 137.839C40.9416 137.316 54.435 136.871 67.7219 136.522C68.6357 136.499 69.041 135.761 69.0172 135.087C69.0013 134.492 68.6357 133.786 67.7378 133.833C55.0946 134.167 42.0541 134.595 28.9739 135.103L28.5686 135.118L28.5606 134.714Z" fill="#1E1E1E"/>
<path d="M53.5764 28.0724C61.1257 27.5171 68.9532 27.1839 76.8363 27.0888L77.2734 27.0808L77.2257 27.6044C77.1065 31.6022 77.1939 35.6556 77.4879 39.6614C77.5356 40.3595 78.0521 41.0892 78.815 41.0416C81.4851 40.8751 84.2029 40.7878 86.9524 40.7878C89.1934 40.7878 91.4582 40.8433 93.7309 40.9544L93.866 40.9623L94.2793 41.3113L94.3587 41.5414C94.8037 54.5979 94.8435 67.7813 94.4859 80.7348C94.462 81.4883 94.7084 82.0594 95.1693 82.345C95.5269 82.5671 95.9719 82.575 96.3454 82.3688C96.854 82.0912 97.156 81.4883 97.1798 80.7189C97.442 71.3667 97.4897 61.8163 97.3308 52.3451C97.3149 51.5202 97.3149 50.6952 97.3069 49.8623C97.299 47.5937 97.291 45.2457 97.0526 42.9771C96.997 42.4932 96.9414 42.0014 96.8619 41.5255C96.6315 40.0184 96.1706 39.0903 95.2885 38.3209C94.7799 37.8767 94.2157 37.5038 93.6276 37.1152C92.9283 36.6551 92.2052 36.1791 91.5853 35.5763C89.7417 33.7757 88.0014 32.1258 86.269 30.5314C85.7604 30.0634 85.2518 29.5557 84.7432 29.0322C83.5274 27.8027 82.2718 26.5414 80.8812 25.7403C78.0045 24.0904 74.1583 24.2966 70.765 24.479C70.1134 24.5108 69.4697 24.5504 68.8578 24.5663C64.1613 24.7249 59.4251 24.9708 54.7763 25.2961L53.6479 25.3754C52.7181 25.4468 52.289 26.2321 52.3446 26.9698C52.3685 27.5409 52.7102 28.1279 53.5764 28.0724ZM79.9037 28.3897L80.5553 29.0004C83.4718 31.7291 86.5948 34.561 89.8291 37.4166L90.6397 38.1305L89.5589 38.1067C86.5471 38.0512 83.4877 38.0988 80.4838 38.2495L80.0865 38.2733L80.0626 37.8767C79.8958 35.029 79.8322 32.1416 79.8799 29.2781L79.9037 28.3897Z" fill="#1E1E1E"/>
<path d="M42.554 56.1447L37.7144 55.9543C36.9992 55.9543 36.7449 56.462 36.7211 56.8983C36.7052 57.3346 36.9595 58.0009 37.7303 58.0326L41.5765 58.1833C41.7752 58.1912 41.9739 58.1992 42.1646 58.1992C42.5778 58.2071 42.9831 58.223 43.3884 58.2547L43.6347 58.2706C43.8413 58.2706 43.9844 58.3975 44.0559 58.6513C44.1671 59.0162 44.1989 59.4287 44.2307 59.7936C44.2466 59.976 44.2625 60.1109 44.2784 60.2457C44.3579 60.8644 44.4294 61.4752 44.493 62.0939C44.5645 62.7444 44.6281 63.4028 44.6916 64.0532L44.8188 65.4651L44.5406 65.5762C44.2387 65.6952 43.8572 65.8142 43.5632 65.9014L43.3168 65.9728C42.554 66.2028 41.8149 66.3774 41.1156 66.4726C39.7249 66.6709 38.2787 66.6471 36.9436 66.4091C36.7847 66.3774 36.6337 66.3536 36.4827 66.3218L36.2364 66.2663L36.1807 66.0204C36.1489 65.8776 36.1251 65.7348 36.1013 65.5921L36.0854 65.4889C35.9423 64.7116 35.839 63.9104 35.7754 63.1251C35.6404 61.5069 35.6404 59.8332 35.7913 58.1437C35.8072 57.9136 35.7278 57.6836 35.545 57.4853C35.3304 57.2552 35.0364 57.1125 34.7503 57.1125C34.1782 57.1125 33.7649 57.5329 33.7093 58.1675C33.4709 60.9041 33.6219 63.6645 34.1543 66.3774C34.2576 66.893 34.4086 67.4244 34.8616 67.829C35.3304 68.2414 36.0059 68.3525 36.6655 68.4556C38.0244 68.6698 39.2481 68.7174 40.4481 68.6222C41.7672 68.5111 43.0149 68.2652 44.1592 67.8924L44.3976 67.8131C45.7803 67.3689 46.9167 66.9088 46.9326 65.7348C46.9405 65.3144 46.8849 64.8702 46.8293 64.4419C46.8054 64.2515 46.7816 64.0611 46.7657 63.8787C46.6942 63.1489 46.6227 62.4271 46.5353 61.7052C46.4637 61.0548 46.3843 60.4044 46.3048 59.7539C46.2889 59.5953 46.2651 59.4366 46.2492 59.278C46.2015 58.7862 46.1459 58.2706 45.979 57.8184C45.4148 56.2558 43.8254 56.1923 42.554 56.1447Z" fill="#1E1E1E"/>
<path d="M65.87 57.6043C66.1005 57.3981 66.2435 57.0887 66.2435 56.8111C66.2435 56.2399 65.8223 55.8275 65.1866 55.7719C64.3442 55.7005 63.5019 55.6609 62.6516 55.6609C60.7523 55.6609 58.8451 55.8433 56.9618 56.2082C56.4452 56.3113 55.9128 56.4621 55.5075 56.9142C55.0943 57.3743 54.983 58.0564 54.8797 58.7148C54.6652 60.0554 54.6175 61.2928 54.7128 62.4906C54.8241 63.8073 55.0704 65.0527 55.4439 66.195L55.5234 66.4409C55.9684 67.8131 56.4293 68.9554 57.6054 68.9713C58.0743 68.9713 58.5193 68.9157 58.9087 68.8681C59.0994 68.8443 59.2901 68.8205 59.4729 68.8047C60.1961 68.7333 60.9272 68.6619 61.6503 68.5746C62.3019 68.5032 62.9536 68.4239 63.6052 68.3446L64.082 68.2891C64.5906 68.2336 65.0912 68.186 65.5442 68.0194C67.0938 67.4641 67.1574 65.8777 67.205 64.6006L67.3958 59.7698C67.4037 59.4922 67.3322 59.2621 67.1733 59.0876C67.0064 58.9052 66.7441 58.7941 66.4581 58.7783H66.4183C65.8938 58.7783 65.3376 59.0956 65.3137 59.7777L65.1627 63.617C65.1548 63.8153 65.1469 64.0136 65.1469 64.2119C65.131 64.664 65.123 65.0527 65.0912 65.4335L65.0356 66.076H64.7654C64.7416 66.0839 64.7257 66.0918 64.7018 66.0998C64.3442 66.2029 63.9628 66.2426 63.5893 66.2743C63.4065 66.2901 63.2555 66.306 63.1046 66.3219C62.4927 66.3933 61.8728 66.4726 61.253 66.536C60.6013 66.6074 59.9418 66.6709 59.2504 66.7423L57.8756 66.8692L57.7644 66.5916C57.6452 66.2822 57.526 65.9015 57.4386 65.6L57.367 65.37C57.1366 64.6164 56.9697 63.8708 56.8664 63.1648C56.6677 61.7687 56.6916 60.333 56.93 59.0083C56.9538 58.8497 56.9856 58.691 57.0174 58.5403L57.073 58.2944L57.3194 58.2389C57.4942 58.1992 57.669 58.1675 57.8518 58.1358C58.6306 57.993 59.4252 57.8899 60.2199 57.8264C61.8251 57.6916 63.5019 57.6916 65.2025 57.8423C65.4409 57.8661 65.6713 57.7867 65.87 57.6043Z" fill="#1E1E1E"/>
<path d="M86.8651 65.7666L86.873 65.6872C87.024 63.1569 86.8651 60.6503 86.3962 58.2468C86.2929 57.7312 86.1419 57.1997 85.689 56.7952C85.2201 56.3748 84.5446 56.2716 83.8851 56.1685C82.9712 56.0257 82.113 55.9543 81.2786 55.9543C80.8812 55.9543 80.4918 55.9702 80.1024 56.0019C78.7833 56.113 77.5357 56.3589 76.3913 56.7317L76.1529 56.811C74.7702 57.2552 73.6338 57.7153 73.6179 58.8893C73.61 59.3176 73.6656 59.7618 73.7213 60.1902C73.753 60.4202 73.7689 60.5868 73.7848 60.7534C73.8563 61.4752 73.9358 62.205 74.0153 62.9268C74.0868 63.5773 74.1663 64.2277 74.2457 64.8782C74.2616 65.0368 74.2775 65.1954 74.3014 65.3541C74.349 65.8538 74.4047 66.3615 74.5715 66.8136C75.1278 68.3604 76.7172 68.4239 77.9966 68.4715L82.8361 68.6618C83.0189 68.6539 83.154 68.6381 83.2811 68.5825L83.5036 68.5349C83.7341 68.5111 83.9566 68.4953 84.1711 68.4794C84.7433 68.4477 85.3234 68.408 85.84 68.1701C86.5393 67.8369 87.0399 66.9881 87.0002 66.1949C86.9922 66.068 86.9684 65.949 86.9286 65.838L86.8651 65.7666ZM84.7671 66.0997L84.7433 66.4646H84.3698C84.195 66.4725 84.0043 66.4884 83.8135 66.5043C83.6228 66.5201 83.4321 66.5519 83.2493 66.5836L82.9394 66.6312L82.852 66.5995L78.378 66.417C77.9648 66.4091 77.5516 66.3932 77.1383 66.3615L77.0271 66.3536C76.9556 66.3536 76.8523 66.3456 76.8364 66.3377C76.6774 66.3139 76.5503 66.2108 76.4788 65.9649C76.3754 65.6 76.3357 65.2113 76.3039 64.8306C76.288 64.664 76.2721 64.5133 76.2562 64.3705C76.1768 63.7518 76.1132 63.141 76.0417 62.5223C75.9702 61.8718 75.9066 61.2134 75.843 60.563L75.7159 59.1511L75.994 59.04C76.296 58.921 76.6774 58.802 76.9794 58.7148L77.2257 58.6434C77.9727 58.4134 78.7197 58.2468 79.427 58.1437C80.8256 57.9453 82.2639 57.9691 83.599 58.2071C83.75 58.2309 83.9089 58.2626 84.0599 58.2944L84.3062 58.3499L84.3619 58.5958C84.3937 58.7544 84.4254 58.9131 84.4652 59.1193C84.6082 59.8967 84.7115 60.6978 84.783 61.4911C84.8864 62.9744 84.8863 64.5212 84.7671 66.0997Z" fill="#1E1E1E"/>
<path d="M33.9877 76.9589C48.5142 76.1894 63.2394 76.1339 77.7659 76.7764C78.6401 76.7923 79.0056 76.1577 79.0295 75.5787C79.0612 74.8885 78.6639 74.1271 77.7262 74.0795C71.0987 73.786 64.4235 73.6353 57.7483 73.6353C49.8254 73.6353 41.8946 73.8415 34.0274 74.254C33.1215 74.3016 32.6844 75.0551 32.7242 75.777C32.756 76.3639 33.1136 77.0065 33.9877 76.9589Z" fill="#1E1E1E"/>
<path d="M58.5672 84.2647C58.8135 83.8046 58.8056 83.1859 58.5434 82.7575C58.3924 82.5116 58.0745 82.2102 57.4785 82.234C49.8497 82.4878 42.1255 82.464 34.5126 82.1626C34.4888 82.1626 34.4649 82.1626 34.449 82.1626C33.5987 82.1626 33.265 82.813 33.2491 83.3842C33.2252 84.0743 33.6146 84.8278 34.5523 84.8596C42.1573 85.161 49.8576 85.1769 57.4547 84.931C58.0825 84.9072 58.4083 84.5581 58.5672 84.2647Z" fill="#1E1E1E"/>
<path d="M41.6645 99.7959C41.3546 98.3046 39.9639 96.9562 38.5017 96.7261C38.0726 96.6627 37.7468 96.6627 37.421 96.853C37.3336 96.9006 37.2461 96.98 37.1428 97.091L36.8011 97.44L36.523 97.0355C36.4992 96.9958 36.4753 96.9562 36.4515 96.9165C36.4356 96.8848 36.4117 96.853 36.4038 96.8372C36.1177 96.5754 35.776 96.4485 35.4422 96.4485C35.1005 96.4485 34.7588 96.5754 34.4728 96.8372C33.3761 97.8366 33.1854 99.4707 33.1377 100.78C33.0662 102.866 34.9575 103.929 36.0939 104.381C36.8329 104.674 37.6435 104.754 38.5017 104.611C39.1216 104.508 39.7414 104.198 40.393 103.659C41.4658 102.778 41.9665 101.255 41.6645 99.7959ZM39.0024 101.065H38.9944C38.9865 101.089 38.9785 101.121 38.9706 101.144H38.9785C38.9149 101.263 38.8593 101.351 38.8037 101.438L38.764 101.485L38.756 101.478L38.7481 101.485L38.756 101.493L38.6686 101.581C38.6448 101.604 38.5891 101.652 38.5335 101.7C38.4382 101.803 38.3031 101.89 38.16 101.922H38.1521C38.1123 101.93 38.0726 101.938 38.0408 101.946L37.9375 101.961C37.866 101.961 37.7945 101.969 37.7229 101.969C37.6673 101.969 37.6196 101.961 37.564 101.961C37.5561 101.961 37.5561 101.961 37.5481 101.961C37.5163 101.969 37.421 102.009 37.5481 101.953C37.4369 102.001 37.3336 102.025 37.2144 101.993C37.119 101.969 37.0475 101.906 36.9919 101.835C36.9839 101.835 36.9839 101.834 36.976 101.827L36.8885 101.795C36.7614 101.731 36.6899 101.7 36.6263 101.66C36.4833 101.581 36.3482 101.501 36.2131 101.406L36.1257 101.335L35.8475 101.065V100.906C35.8396 100.621 35.8555 100.327 35.8873 100.034C35.9429 99.7007 36.0065 99.4072 36.0939 99.1137L36.2608 98.8282C36.3005 98.7885 36.3243 98.7568 36.3482 98.733L36.3879 98.6933L36.7137 98.3681L36.9839 98.7409C37.2064 99.0423 37.4607 99.2407 37.6832 99.2724C37.8421 99.2962 37.9931 99.3279 38.1521 99.3755L38.2236 99.4072C38.2554 99.4231 38.3031 99.4548 38.3587 99.4945C38.3905 99.5183 38.4302 99.55 38.462 99.5659L38.5494 99.6293C38.5653 99.6452 38.5732 99.6531 38.5891 99.669C38.6289 99.6928 38.6686 99.7166 38.7004 99.7483C38.7242 99.78 38.7481 99.8038 38.764 99.8356C38.764 99.8356 38.764 99.8356 38.764 99.8435C38.9388 100.074 39.0659 100.343 39.05 100.637C39.0421 100.74 39.0262 100.835 38.9944 100.93C39.0183 101.002 39.0103 101.033 39.0024 101.065Z" fill="#1E1E1E"/>
<path d="M41.6645 125.298C41.3546 123.807 39.9639 122.458 38.5017 122.228C38.0726 122.165 37.7468 122.165 37.421 122.355C37.3336 122.403 37.2461 122.482 37.1428 122.593L36.8011 122.95L36.523 122.546C36.4992 122.506 36.4753 122.466 36.4515 122.427C36.4356 122.395 36.4117 122.363 36.4038 122.347C36.1177 122.086 35.776 121.959 35.4422 121.959C35.1005 121.959 34.7588 122.086 34.4728 122.347C33.3761 123.347 33.1854 124.981 33.1377 126.29C33.0662 128.376 34.9575 129.439 36.0939 129.891C36.8329 130.185 37.6435 130.264 38.5017 130.121C39.1216 130.018 39.7414 129.709 40.393 129.169C41.4658 128.281 41.9665 126.758 41.6645 125.298ZM39.05 126.496C39.0262 126.552 38.9944 126.599 38.9706 126.655C38.9706 126.655 38.9706 126.663 38.9626 126.663C38.9388 126.702 38.9149 126.75 38.8911 126.789C38.8593 126.845 38.8275 126.901 38.7957 126.948L38.756 126.996L38.7322 126.98L38.7242 126.988L38.7481 127.004L38.6607 127.091C38.6368 127.115 38.5812 127.162 38.5256 127.218L38.4302 127.281C38.3666 127.321 38.2951 127.369 38.2633 127.384L38.1521 127.432C38.1123 127.44 38.0726 127.448 38.0408 127.456L37.9375 127.472C37.866 127.472 37.7945 127.48 37.7229 127.48C37.6276 127.48 37.5322 127.48 37.4369 127.472L37.3256 127.456C37.2779 127.448 37.2303 127.44 37.1905 127.424C37.119 127.408 37.0554 127.384 36.9839 127.361L36.8965 127.329C36.7693 127.265 36.6978 127.234 36.6343 127.194C36.4912 127.115 36.3561 127.035 36.221 126.94L36.1336 126.869L35.8555 126.599V126.44C35.8475 126.155 35.8634 125.861 35.8952 125.568C35.9508 125.235 36.0144 124.941 36.1018 124.648L36.2687 124.362C36.3084 124.323 36.3323 124.291 36.3561 124.267L36.3959 124.227L36.7217 123.902L36.9919 124.275C37.2144 124.576 37.4687 124.775 37.6912 124.806C37.8501 124.83 38.0011 124.862 38.16 124.91L38.2315 124.941C38.2633 124.957 38.311 124.989 38.3666 125.029C38.3984 125.052 38.4381 125.084 38.4699 125.1L38.5573 125.163C38.5971 125.203 38.6368 125.235 38.6686 125.267L38.8116 125.441C38.8196 125.449 38.8196 125.457 38.8275 125.457C39.0818 125.735 39.1851 126.139 39.05 126.496Z" fill="#1E1E1E"/>
<path d="M42.2839 112.384C41.8548 111.71 41.2667 111.139 40.5197 110.679C40.1224 110.433 39.7807 110.274 39.4708 110.203C38.8191 110.044 38.2311 110.179 37.6669 110.616L37.3808 110.838L37.1344 110.576C37.0391 110.473 36.9517 110.401 36.8722 110.362C36.6259 110.235 36.3795 110.163 36.1491 110.163C36.0378 110.163 35.9345 110.179 35.8391 110.211C35.5054 110.322 35.267 110.505 34.9888 110.869C34.6074 111.377 34.1385 112.067 33.9319 112.845C33.6935 113.725 33.8127 114.645 34.2577 115.359C34.9412 116.454 36.3398 117.35 37.9927 117.755C39.0257 118.008 39.8522 118.032 40.5197 117.826C41.2826 117.588 41.9183 117.096 42.3554 116.39C43.0944 115.216 43.0627 113.606 42.2839 112.384ZM40.178 114.582L40.0429 115.018L39.884 115.192L39.6774 115.256C39.6059 115.256 39.5343 115.264 39.4708 115.264C39.3992 115.264 39.3357 115.264 39.2641 115.256C38.9224 115.2 38.5251 115.121 38.1357 114.986L37.8973 114.899C37.7066 114.804 37.5159 114.709 37.3411 114.605C37.2298 114.542 37.1265 114.471 37.0232 114.407L36.8881 114.312C36.8245 114.256 36.7689 114.201 36.7133 114.145L36.5384 113.907V113.725L36.5702 113.551C36.5782 113.503 36.5941 113.455 36.61 113.4L36.753 113.114C36.8166 113.003 36.8881 112.9 36.9676 112.789L37.3093 112.297L37.651 112.591C38.0006 112.892 38.4059 113.003 38.8191 112.924L38.9622 112.892L39.0893 112.964C39.1688 113.003 39.2085 113.027 39.2483 113.051L39.4628 113.194C39.5741 113.289 39.6376 113.352 39.6933 113.408L39.9555 113.725C40.0032 113.788 40.0509 113.868 40.0668 113.9L40.2019 114.312C40.178 114.399 40.178 114.487 40.178 114.582Z" fill="#1E1E1E"/>
<path d="M48.1969 125.378C54.1172 124.807 60.117 124.775 66.0452 125.298C66.3313 125.322 66.6253 125.211 66.8716 124.981C67.1736 124.703 67.3564 124.307 67.3564 123.95C67.3564 123.101 66.6571 122.665 65.9737 122.601C63.1764 122.355 60.3633 122.229 57.5502 122.229C54.451 122.229 51.3518 122.379 48.2764 122.673C47.5851 122.736 46.8857 123.18 46.8857 124.021C46.8857 124.386 47.0765 124.791 47.3784 125.068C47.6327 125.298 47.9188 125.409 48.1969 125.378Z" fill="#1E1E1E"/>
<path d="M66.3308 112.765C66.5772 112.305 66.5692 111.686 66.2991 111.258C66.1401 111.012 65.8302 110.711 65.2342 110.734L47.6959 111.321C46.7661 111.353 46.3688 112.099 46.3926 112.781C46.4085 113.368 46.7502 114.042 47.6641 114.011L65.2024 113.431C65.8461 113.408 66.1719 113.059 66.3308 112.765Z" fill="#1E1E1E"/>
<path d="M67.507 98.8044C60.5298 99.0424 53.4573 98.8361 46.4881 98.2015C46.4404 98.1936 46.3927 98.1936 46.345 98.1936C45.9715 98.1936 45.6695 98.3364 45.4788 98.6061C45.2007 98.9948 45.1689 99.5897 45.3994 100.089C45.5265 100.359 45.8444 100.835 46.5596 100.899C53.4811 101.525 60.5219 101.731 67.4752 101.493C68.405 101.462 68.8023 100.716 68.7785 100.034C68.7626 99.4469 68.4368 98.7568 67.507 98.8044Z" fill="#1E1E1E"/>
<path d="M350.131 118.31L349.98 118.262C349.781 118.159 349.575 118.096 349.344 118.096L268.797 115.351L268.733 115.327C268.598 115.272 268.407 115.216 268.185 115.216C267.914 115.216 267.605 115.296 267.287 115.557C265.07 117.437 265.276 120.634 265.459 123.458C265.483 123.791 265.499 124.116 265.515 124.426L266.158 136.8C266.262 138.72 266.349 140.647 266.444 142.567C266.738 148.738 267.04 155.124 267.644 161.374C268.129 166.443 268.804 170.893 269.71 174.954C269.806 175.375 270.028 175.668 270.37 175.811C270.775 175.978 271.308 175.914 271.729 175.644L271.816 175.589H271.928C292.303 174.875 312.845 174.439 332.99 174.272C338.767 174.224 344.656 174.201 350.504 174.201C350.941 174.201 351.291 174.034 351.521 173.733C351.784 173.376 351.871 172.852 351.736 172.392L351.625 172.011L352.006 171.9C352.284 171.821 352.944 171.535 352.968 170.655C353.421 153.696 352.904 136.53 351.45 119.627C351.386 118.754 350.695 118.373 350.131 118.31ZM268.439 128.146C268.399 127.448 268.359 126.742 268.32 126.044C268.232 124.568 268.153 123.093 268.097 121.61C268.065 120.579 268.018 119.294 268.582 118.27L268.701 118.056L268.948 118.064L348.828 120.793L348.859 121.142C349.13 124.418 349.368 127.852 349.598 131.636L349.63 132.128L349.137 132.049L349.042 131.668H349.026L348.994 132.025C328.103 130.185 306.972 129.058 286.168 128.669C280.597 128.566 274.757 128.495 268.836 128.519H268.463L268.439 128.146ZM350.274 171.004L350.369 171.48H349.884C329.501 171.496 308.951 171.781 288.798 172.337C283.72 172.479 278.356 172.646 272.396 172.852L272.063 172.86L271.999 172.527C270.585 165.499 270.044 158.273 269.671 151.499C269.369 146.065 269.091 140.631 268.812 135.198L268.606 131.247H269.027C269.091 131.247 269.162 131.247 269.234 131.247C289.927 131.247 310.771 131.953 331.194 133.357C337.043 133.754 343.058 134.23 349.074 134.761C349.153 134.769 349.241 134.761 349.328 134.746L349.773 134.658L349.797 135.11C350.417 147.001 350.568 158.963 350.258 170.671C350.242 170.782 350.258 170.885 350.274 171.004Z" fill="#1E1E1E"/>
<path d="M273.557 124.767C273.835 124.711 274.018 124.505 274.113 124.338C274.32 124.005 274.407 123.537 274.312 123.18C274.304 123.148 274.296 123.109 274.28 123.077C274.137 122.665 273.811 122.339 273.39 122.205C273.223 122.149 273.024 122.125 272.826 122.125C272.563 122.125 272.325 122.173 272.254 122.284C272.19 122.371 272.158 122.522 272.134 122.657C272.079 122.974 272.031 123.291 272.007 123.609C271.975 123.902 271.967 124.196 272.095 124.386C272.325 124.719 273.08 124.87 273.557 124.767Z" fill="#1E1E1E"/>
<path d="M277.212 124.394C277.347 124.537 277.474 124.624 277.633 124.672C277.744 124.727 277.816 124.751 277.887 124.775C278.594 124.775 279.055 124.672 279.278 124.45C279.524 124.196 279.532 123.72 279.516 122.966C279.508 122.966 279.484 122.895 279.445 122.823L279.286 122.522C279.151 122.379 278.96 122.205 278.849 122.133L278.809 122.141L278.682 122.078C278.61 122.038 278.531 122.014 278.451 121.991C278.372 121.975 278.284 121.967 278.197 121.967L277.768 122.022C277.585 122.078 277.394 122.189 277.22 122.363L276.981 122.681C276.886 122.847 276.822 123.077 276.822 123.323V123.434C276.814 123.625 276.854 123.775 276.926 123.926C277.005 124.156 277.085 124.283 277.212 124.394Z" fill="#1E1E1E"/>
<path d="M283.299 124.854H283.307C283.807 124.854 284.419 124.608 284.634 123.934C284.681 123.799 284.697 123.648 284.697 123.498C284.689 123.069 284.499 122.657 284.181 122.395C283.911 122.173 283.553 122.054 283.211 122.054C282.941 122.054 282.679 122.125 282.472 122.276C281.9 122.704 281.67 123.315 281.876 123.902C282.123 124.6 282.79 124.854 283.299 124.854Z" fill="#1E1E1E"/>
<path d="M347.365 144.375C347.254 144.32 347.079 144.264 346.865 144.241L346.499 144.201L346.507 143.836C346.547 142.131 346.499 140.608 346.372 139.18C346.308 138.506 345.855 137.784 345.005 137.784C344.639 137.784 344.234 137.974 343.956 138.276C343.726 138.529 343.614 138.823 343.646 139.108C343.781 140.616 343.829 142.202 343.789 143.963L343.781 144.296L343.296 144.375C343.161 144.399 343.018 144.423 342.883 144.447C342.613 144.502 342.263 144.772 342.097 145.066C341.922 145.367 341.858 145.803 341.953 146.097C342.025 146.319 342.2 146.723 342.573 146.922C342.772 147.025 342.987 147.08 343.225 147.088L343.638 147.104L343.606 147.517C343.463 149.365 343.257 151.237 343.058 153.053C342.581 157.424 342.081 161.945 342.43 166.395C342.486 167.109 342.947 167.427 343.217 167.554C343.718 167.791 344.322 167.76 344.727 167.49C345.045 167.268 345.196 166.911 345.164 166.459C344.806 161.93 345.307 157.368 345.792 152.966C345.99 151.118 346.205 149.198 346.348 147.318L346.38 146.922L346.777 146.953C347.063 146.977 347.476 146.763 347.691 146.557C347.937 146.311 348.104 145.914 348.088 145.613C348.08 145.375 348.017 144.931 347.699 144.645L347.365 144.375Z" fill="#1E1E1E"/>
<path d="M281.185 148.564C281.407 148.54 281.638 148.516 281.876 148.5C283.06 148.397 284.292 148.294 285.055 147.501C285.834 146.7 285.873 145.462 285.913 144.264L285.929 143.899C285.993 142.353 286.04 140.846 285.921 139.346C285.834 138.283 285.42 136.935 283.919 136.562C283.33 136.419 282.687 136.419 282.067 136.419L273.898 136.411C273.636 136.411 273.429 136.499 273.278 136.665C273.111 136.856 273.024 137.141 273.055 137.427L273.071 137.593L272.968 137.72C272.849 137.863 272.785 138.045 272.777 138.252C272.714 139.854 272.698 141.433 272.745 142.956C272.769 143.63 272.793 144.304 272.841 144.97C272.857 145.169 272.865 145.375 272.873 145.589C272.896 146.192 272.92 146.819 273.063 147.366C273.389 148.627 274.692 148.762 276.353 148.81L276.576 148.817C278.181 148.881 279.81 148.722 281.185 148.564ZM276.083 147.009C275.781 146.993 275.479 146.969 275.177 146.938L274.772 146.89L274.796 146.715L274.748 146.557C274.684 145.66 274.541 142.94 274.533 142.646C274.502 141.361 274.51 140.036 274.565 138.585L274.581 138.204L281.566 138.212C281.678 138.212 281.781 138.204 281.916 138.196C282.663 138.149 283.688 138.085 283.998 138.72C284.189 139.108 284.173 139.584 284.165 140.005C284.165 140.124 284.157 140.227 284.165 140.33C284.181 140.965 284.189 141.607 284.181 142.25V142.9C284.181 143.812 284.181 144.756 284.03 145.589L283.64 145.518L284.022 145.66C283.966 145.954 283.911 146.295 283.394 146.47C282.989 146.612 282.552 146.644 282.131 146.684C281.995 146.692 281.86 146.708 281.733 146.723C280.597 146.858 279.254 147.001 277.911 147.033C277.672 147.041 277.442 147.041 277.212 147.041C276.814 147.041 276.449 147.033 276.083 147.009Z" fill="#1E1E1E"/>
<path d="M293.384 148.088H293.654L301.545 148.096C301.807 148.096 302.014 148.008 302.165 147.842C302.332 147.652 302.419 147.366 302.387 147.08L302.372 146.914L302.475 146.787C302.594 146.644 302.658 146.462 302.666 146.255C302.729 144.669 302.745 143.082 302.697 141.552C302.674 140.877 302.65 140.203 302.602 139.537C302.586 139.338 302.578 139.132 302.57 138.918C302.546 138.315 302.523 137.689 302.38 137.141C302.054 135.88 300.75 135.745 299.09 135.698L298.867 135.69C297.254 135.642 295.625 135.793 294.242 135.943C294.02 135.967 293.789 135.991 293.551 136.007C292.367 136.11 291.135 136.213 290.372 137.006C289.593 137.808 289.554 139.045 289.514 140.243L289.498 140.608C289.434 142.154 289.387 143.662 289.506 145.153C289.593 146.216 290.007 147.564 291.508 147.937C292.112 148.088 292.756 148.08 293.384 148.088ZM291.27 144.502C291.27 144.391 291.278 144.28 291.27 144.177C291.254 143.543 291.246 142.9 291.254 142.258V141.607C291.254 140.695 291.254 139.751 291.405 138.918L291.795 138.989L291.413 138.847C291.469 138.537 291.524 138.212 292.041 138.038C292.454 137.895 292.883 137.863 293.304 137.823C293.44 137.815 293.575 137.8 293.702 137.784C294.838 137.649 296.181 137.506 297.524 137.474C298.176 137.459 298.764 137.466 299.336 137.49C299.638 137.506 299.94 137.53 300.242 137.562L300.647 137.609L300.623 137.784L300.671 137.942C300.735 138.839 300.878 141.56 300.886 141.853C300.917 143.138 300.909 144.463 300.854 145.914L300.838 146.295L293.853 146.287C293.741 146.263 293.638 146.295 293.495 146.303C293.289 146.319 293.058 146.327 292.828 146.327C292.232 146.327 291.636 146.232 291.413 145.779C291.254 145.399 291.262 144.923 291.27 144.502Z" fill="#1E1E1E"/>
<path d="M325.98 149.738C326.568 149.88 327.22 149.88 327.84 149.88H328.11L336.001 149.888C336.263 149.888 336.47 149.801 336.621 149.634C336.788 149.444 336.875 149.158 336.843 148.873L336.828 148.706L336.931 148.579C337.05 148.437 337.114 148.254 337.122 148.048C337.193 146.446 337.201 144.867 337.153 143.344C337.13 142.67 337.106 142.004 337.058 141.329C337.042 141.131 337.034 140.917 337.026 140.711C337.002 140.108 336.979 139.481 336.835 138.942C336.51 137.68 335.206 137.546 333.546 137.498L333.323 137.49C331.702 137.435 330.081 137.593 328.698 137.744C328.476 137.768 328.245 137.792 328.015 137.807C326.823 137.911 325.599 138.014 324.836 138.807C324.057 139.608 324.017 140.845 323.978 142.043L323.962 142.408C323.898 143.955 323.851 145.462 323.97 146.961C324.057 148.016 324.47 149.365 325.98 149.738ZM325.718 143.408C325.718 142.495 325.718 141.551 325.869 140.719L326.258 140.79L325.877 140.647C325.933 140.354 325.988 140.013 326.505 139.838C326.918 139.695 327.347 139.664 327.768 139.624C327.903 139.616 328.038 139.6 328.166 139.584C329.366 139.441 330.661 139.307 331.988 139.275C332.64 139.259 333.236 139.267 333.8 139.299C334.102 139.315 334.404 139.338 334.706 139.37L335.119 139.41L335.095 139.584L335.143 139.743C335.206 140.639 335.349 143.36 335.357 143.653C335.389 144.939 335.381 146.263 335.326 147.715L335.31 148.096L328.325 148.088C328.237 148.088 328.11 148.096 327.975 148.103C327.768 148.119 327.538 148.127 327.307 148.127C326.711 148.127 326.115 148.032 325.893 147.58C325.702 147.191 325.718 146.715 325.726 146.295C325.726 146.184 325.734 146.073 325.726 145.97C325.71 145.335 325.702 144.693 325.71 144.05L325.718 143.408Z" fill="#1E1E1E"/>
<path d="M310.556 148.944L310.779 148.952C311.693 148.984 312.702 148.944 313.854 148.849C314.108 148.825 314.371 148.802 314.625 148.778L314.689 148.77L314.752 148.786C316.262 149.127 317.47 148.921 318.344 148.183C320.172 146.62 320.347 143.003 320.172 140.243C320.164 139.981 320.148 139.735 320.132 139.489C320.076 138.767 319.886 138.164 319.576 137.704C319.48 137.562 319.369 137.427 319.25 137.316C316.691 136.189 313.6 136.459 310.604 136.713C310.056 136.76 309.515 136.808 308.983 136.84C308.752 136.959 308.53 137.094 308.323 137.252C306.782 138.434 306.249 140.639 306.941 143.011L306.956 143.106C306.964 143.439 306.98 143.78 306.996 144.114C307.012 144.447 307.028 144.788 307.052 145.121C307.068 145.319 307.076 145.526 307.084 145.74C307.107 146.343 307.131 146.969 307.274 147.517C307.592 148.762 308.895 148.897 310.556 148.944ZM308.578 139.402C308.633 139.1 308.721 138.839 308.84 138.601L308.951 138.379L311.534 138.394C312.297 138.609 313.282 138.442 314.22 138.283C315.634 138.045 317.231 137.776 317.764 139.156C318.638 140.1 318.423 141.52 318.217 142.892C318.098 143.685 317.978 144.51 318.066 145.216C318.05 145.581 318.018 145.843 317.986 146.081L317.963 146.216L317.859 146.311C316.866 147.223 315.563 147.168 314.41 147.104C313.934 147.08 313.481 147.057 313.107 147.112L312.98 147.12C312.694 147.136 312.4 147.144 312.114 147.152C311.883 147.16 311.653 147.16 311.422 147.16C311.033 147.16 310.66 147.152 310.302 147.128C310 147.112 309.698 147.088 309.396 147.057L309.007 147.017L309.023 146.874L308.967 146.676C308.935 146.239 308.88 145.335 308.84 144.502L308.784 143.384C308.792 142.94 308.729 142.44 308.657 141.924C308.538 141.083 308.427 140.203 308.578 139.402Z" fill="#1E1E1E"/>
<path d="M285.771 155.179C285.183 155.036 284.539 155.036 283.919 155.036H283.649L275.758 155.028C275.496 155.028 275.289 155.116 275.138 155.282C274.971 155.473 274.884 155.758 274.916 156.044L274.932 156.21L274.828 156.337C274.709 156.48 274.646 156.662 274.638 156.877C274.574 158.471 274.558 160.057 274.606 161.58C274.63 162.255 274.654 162.921 274.701 163.595C274.717 163.793 274.725 164.008 274.733 164.214C274.757 164.817 274.781 165.443 274.924 165.983C275.25 167.244 276.553 167.379 278.214 167.426L278.436 167.434C280.057 167.482 281.678 167.331 283.061 167.181C283.284 167.157 283.514 167.133 283.752 167.117C284.937 167.014 286.168 166.911 286.931 166.118C287.71 165.316 287.758 164.024 287.789 162.881L287.805 162.516C287.869 160.97 287.917 159.462 287.797 157.963C287.694 156.9 287.281 155.552 285.771 155.179ZM286.033 161.501C286.033 162.413 286.033 163.365 285.882 164.19L285.493 164.119L285.874 164.262C285.819 164.555 285.763 164.896 285.246 165.071C284.841 165.205 284.412 165.245 283.991 165.285C283.856 165.293 283.721 165.309 283.586 165.324C282.386 165.467 281.09 165.602 279.763 165.634C279.533 165.642 279.302 165.642 279.072 165.642C278.682 165.642 278.309 165.634 277.951 165.61C277.649 165.594 277.347 165.57 277.045 165.539L276.632 165.499L276.656 165.324L276.608 165.166C276.545 164.285 276.402 161.557 276.394 161.255C276.362 159.97 276.37 158.645 276.426 157.194L276.442 156.813L283.427 156.821C283.514 156.781 283.641 156.813 283.784 156.805C284.531 156.758 285.556 156.694 285.866 157.329C286.057 157.717 286.041 158.193 286.033 158.614C286.033 158.725 286.025 158.836 286.033 158.939C286.049 159.581 286.057 160.216 286.049 160.859L286.033 161.501Z" fill="#1E1E1E"/>
<path d="M335.112 155.179C334.524 155.036 333.88 155.036 333.26 155.036H332.99L325.099 155.028C324.837 155.028 324.63 155.116 324.479 155.282C324.312 155.473 324.225 155.758 324.257 156.044L324.272 156.21L324.169 156.337C324.05 156.48 323.986 156.662 323.978 156.877C323.915 158.463 323.899 160.049 323.947 161.58C323.971 162.255 323.994 162.921 324.042 163.595C324.058 163.793 324.066 164 324.074 164.214C324.098 164.817 324.121 165.443 324.265 165.991C324.59 167.252 325.894 167.387 327.554 167.434L327.777 167.442C329.398 167.49 331.019 167.339 332.402 167.189C332.624 167.165 332.855 167.141 333.093 167.125C334.277 167.022 335.509 166.919 336.272 166.126C337.051 165.324 337.09 164.087 337.13 162.889L337.146 162.524C337.21 160.978 337.257 159.47 337.138 157.971C337.027 156.9 336.614 155.552 335.112 155.179ZM335.366 161.509C335.366 162.421 335.366 163.365 335.215 164.19L334.826 164.119L335.207 164.261C335.152 164.555 335.096 164.896 334.579 165.071C334.174 165.213 333.745 165.245 333.324 165.285C333.189 165.293 333.054 165.309 332.918 165.324C331.719 165.467 330.423 165.602 329.096 165.634C328.866 165.642 328.635 165.642 328.405 165.642C328.015 165.642 327.642 165.634 327.284 165.61C326.982 165.594 326.68 165.57 326.378 165.539L325.965 165.499L325.989 165.324L325.941 165.166C325.878 164.269 325.735 161.549 325.727 161.255C325.695 159.97 325.703 158.645 325.759 157.194L325.774 156.813L332.76 156.821C332.855 156.821 332.974 156.813 333.109 156.805C333.856 156.758 334.881 156.694 335.191 157.329C335.382 157.717 335.366 158.185 335.358 158.606C335.358 158.725 335.35 158.828 335.358 158.931C335.374 159.566 335.382 160.208 335.374 160.851L335.366 161.509Z" fill="#1E1E1E"/>
<path d="M304.548 158.86C304.532 158.661 304.525 158.455 304.517 158.241C304.493 157.638 304.469 157.012 304.326 156.464C304 155.203 302.697 155.068 301.036 155.021L300.813 155.013C299.2 154.965 297.571 155.116 296.188 155.266C295.966 155.29 295.735 155.314 295.497 155.33C294.313 155.433 293.081 155.536 292.318 156.329C291.54 157.131 291.492 158.423 291.46 159.566L291.444 159.923C291.381 161.469 291.333 162.985 291.452 164.476C291.54 165.539 291.953 166.887 293.455 167.26C294.043 167.403 294.687 167.411 295.298 167.403H295.577L303.46 167.411C303.73 167.411 303.936 167.323 304.087 167.157C304.254 166.967 304.342 166.681 304.31 166.395L304.294 166.229L304.397 166.102C304.517 165.959 304.58 165.777 304.588 165.563C304.652 163.96 304.668 162.382 304.62 160.859C304.62 160.2 304.588 159.534 304.548 158.86ZM302.824 165.253L302.808 165.634L295.815 165.626C295.728 165.626 295.6 165.634 295.465 165.642C295.259 165.658 295.028 165.666 294.798 165.666C294.202 165.666 293.606 165.57 293.383 165.118C293.193 164.73 293.208 164.254 293.216 163.833C293.216 163.722 293.224 163.611 293.216 163.508C293.2 162.873 293.193 162.231 293.2 161.596V160.954C293.2 160.034 293.2 159.09 293.351 158.257L293.741 158.328L293.359 158.186C293.415 157.892 293.471 157.559 293.987 157.376C294.392 157.242 294.83 157.202 295.243 157.162C295.378 157.154 295.513 157.138 295.64 157.123C296.776 156.988 298.119 156.845 299.462 156.813C300.09 156.797 300.702 156.805 301.274 156.829C301.576 156.845 301.878 156.869 302.18 156.9L302.586 156.94L302.562 157.115L302.609 157.273C302.673 158.146 302.816 160.875 302.824 161.184C302.88 162.469 302.872 163.802 302.824 165.253Z" fill="#1E1E1E"/>
<path d="M321.117 158.233C321.062 157.511 320.871 156.908 320.561 156.44C320.466 156.298 320.354 156.163 320.235 156.052C317.676 154.925 314.585 155.187 311.589 155.449C311.041 155.496 310.501 155.544 309.968 155.584C309.738 155.695 309.515 155.837 309.309 155.996C307.767 157.178 307.235 159.383 307.926 161.755L307.942 161.85C307.95 162.183 307.966 162.524 307.982 162.858C307.997 163.191 308.013 163.532 308.037 163.865C308.053 164.063 308.061 164.269 308.069 164.484C308.093 165.087 308.117 165.713 308.26 166.26C308.585 167.522 309.889 167.657 311.55 167.704L311.772 167.712C312.686 167.744 313.695 167.704 314.847 167.609L315.682 167.53L315.745 167.546C317.255 167.887 318.463 167.68 319.337 166.943C321.165 165.388 321.34 161.763 321.165 159.002C321.157 158.725 321.141 158.479 321.117 158.233ZM319.194 161.636C319.075 162.429 318.956 163.254 319.043 163.96C319.027 164.325 318.996 164.587 318.964 164.825L318.94 164.96L318.837 165.055C317.843 165.967 316.54 165.911 315.388 165.848C314.911 165.824 314.458 165.8 314.085 165.856L313.957 165.864C313.671 165.88 313.377 165.888 313.091 165.896C312.861 165.904 312.63 165.904 312.4 165.904C312.01 165.904 311.637 165.896 311.279 165.872C310.977 165.856 310.675 165.832 310.373 165.8L309.984 165.761L310 165.618L309.944 165.42C309.913 164.983 309.857 164.079 309.817 163.246L309.762 162.128C309.77 161.676 309.706 161.184 309.634 160.66C309.523 159.812 309.412 158.931 309.563 158.13C309.619 157.836 309.706 157.567 309.825 157.329L309.936 157.107L312.519 157.122C313.282 157.337 314.267 157.17 315.205 157.011C316.62 156.773 318.217 156.504 318.749 157.884C319.615 158.852 319.401 160.264 319.194 161.636Z" fill="#1E1E1E"/>
<path d="M75.1758 182.561C74.9532 180.57 74.3255 180.555 72.2275 180.507L71.6315 180.491L71.3852 179.936C71.1388 179.095 71.123 178.357 71.1071 177.643C71.0832 176.581 71.0594 175.74 70.3998 174.954C69.3429 173.701 67.3721 173.209 65.3934 172.868C62.7313 172.4 59.9579 172.392 57.2798 172.384C55.4441 172.376 53.5528 172.368 51.6695 172.218L51.5423 172.21C49.6351 172.059 47.7756 171.916 45.9399 171.821C45.63 170.06 45.3837 168.267 45.0102 166.514C44.9069 166.054 44.6843 165.634 44.2791 165.372C43.8499 165.103 43.3652 165.103 42.8804 165.118C42.0222 165.142 41.164 165.206 40.3057 165.261C39.4634 165.325 38.629 165.38 37.7866 165.444C37.2224 165.483 36.6264 165.475 36.1893 165.896C35.8397 166.229 35.7443 166.649 35.6728 167.101L34.8146 172.4C33.9086 172.694 33.1537 173.17 32.6451 174.026C32.0571 175.018 32.0173 176.105 31.9855 177.255C31.9617 178.032 31.9379 178.841 31.7472 179.682L31.6041 180.325L29.8161 180.404C29.4585 180.42 29.093 180.436 28.7354 180.451C27.8851 180.499 27.5513 181.181 27.5195 181.752L27.5036 181.84L27.4242 182.109C27.3288 182.284 27.2891 182.474 27.2891 182.657V190.224C27.2891 190.803 27.7738 191.374 28.3301 191.454L28.7274 191.509L28.942 191.842C29.1327 192.144 29.4426 192.278 29.8558 192.247L30.9684 192.175L31.167 192.826C35.7841 207.945 34.9099 223.714 34.0676 238.976C34.0358 239.515 34.2662 239.872 34.751 240.031L34.8384 240.07L35.1006 240.245C35.2834 240.427 35.5139 240.586 35.7761 240.697C39.0025 242.038 42.8804 241.776 46.6233 241.522L46.7584 241.514C47.4895 241.467 48.2047 241.419 48.8961 241.387C53.5608 241.165 58.3765 240.792 63.2081 240.285C63.7564 240.229 64.2093 239.959 64.4159 239.571L64.4636 239.499L64.6623 239.285C64.8053 239.182 64.9802 239.008 65.0199 238.77C67.3801 223.429 69.1442 207.905 70.2488 192.628C70.2568 192.524 70.2568 192.421 70.2409 192.334L70.1058 191.327L71.1229 191.35C71.7428 191.366 72.0448 191.382 72.3706 191.398C72.6328 191.406 72.9189 191.422 73.4195 191.438C73.801 191.446 74.0632 191.342 74.2539 191.136C74.4844 190.882 74.5956 190.486 74.548 190.073L74.5082 189.772L74.6751 189.51C74.7387 189.407 74.7784 189.32 74.7864 189.248C75.0963 187.353 75.43 184.894 75.1758 182.561ZM37.588 170.044C37.6674 169.56 37.7469 169.069 37.8264 168.585C37.8661 168.331 37.8899 168.069 37.9297 167.807C38.1283 167.792 38.327 167.776 38.5257 167.768C39.0263 167.728 39.5349 167.696 40.0355 167.657C40.9335 167.593 41.8315 167.53 42.7374 167.498C42.7771 167.649 42.8248 167.807 42.8407 167.918L43.103 169.394C43.238 170.171 43.3731 170.941 43.5082 171.718C41.4898 171.678 39.4872 171.718 37.4449 171.916C37.3893 171.924 37.3337 171.932 37.278 171.932C37.3813 171.306 37.4847 170.679 37.588 170.044ZM34.3298 179.222C34.3696 178.825 34.3854 178.397 34.3934 177.881C34.3934 177.786 34.3854 177.675 34.3854 177.556C34.3537 176.858 34.3219 176.049 34.7192 175.414C35.1881 174.661 36.0384 174.566 36.5469 174.51L36.7456 174.486C37.731 174.359 38.7402 174.296 39.6382 174.248C43.3414 174.034 47.0286 174.336 50.6046 174.621L51.8125 174.716C53.6085 174.859 55.4521 174.859 57.2242 174.867C59.0917 174.867 61.0148 174.875 62.9538 175.034C63.8756 175.113 64.7259 175.24 65.5364 175.43C65.6318 175.454 65.7669 175.478 65.9099 175.502C66.9589 175.7 67.8728 175.906 68.3575 176.438C68.7707 176.882 68.7389 177.517 68.7151 178.08C68.7072 178.183 68.7072 178.286 68.7072 178.373C68.7072 178.738 68.723 179.095 68.7548 179.452L68.8502 180.42L66.1086 180.348C63.359 180.277 60.6095 180.206 57.852 180.15C51.6774 180.015 43.5321 179.896 35.2198 180.158L34.2424 180.19L34.3298 179.222ZM67.8092 192.39C67.7695 192.516 67.7456 192.628 67.7377 192.739C66.6649 207.58 64.9802 222.524 62.7471 237.167L62.6438 237.826L61.9763 237.889C57.5023 238.333 53.4177 238.651 49.4921 238.841C47.0604 238.96 44.8274 239.047 42.6897 239.087C42.3798 239.095 42.0619 239.095 41.7282 239.095C40.4885 239.095 38.8594 239.031 37.2383 238.547L36.5867 238.357L36.6264 237.683C36.8012 234.542 36.9522 231.472 37.0555 228.45C42.2368 228.941 47.4498 226.958 50.7556 222.842C52.3926 220.795 53.5926 218.352 54.0058 215.75C54.4905 212.664 53.3462 210.19 51.1212 208.095C48.8007 205.914 45.8366 204.558 42.6103 205.049C41.1004 205.287 41.7441 207.58 43.246 207.342C46.0353 206.914 48.7213 208.778 50.4298 210.808C52.4721 213.236 51.8046 216.361 50.4536 218.979C47.9266 223.873 42.5864 226.72 37.135 226.078C37.437 214.441 36.9125 203.582 33.8292 193.032L33.5272 191.993L34.608 191.929C45.2803 191.311 56.1832 191.081 67.0145 191.247L68.1906 191.263L67.8092 192.39ZM72.4421 188.162L72.3149 188.899L71.568 188.876C57.709 188.487 44.7241 188.741 30.6982 189.685L29.7764 189.748V182.887L30.5949 182.847C36.8807 182.538 43.8261 182.435 51.8205 182.538C55.468 182.585 59.0917 182.673 63.4067 182.776L71.5839 182.974C71.7031 182.95 71.8381 182.942 71.9971 182.95L72.7759 182.958L72.8394 183.751C72.9507 185.227 72.6567 186.924 72.4421 188.162Z" fill="#1E1E1E"/>
<path d="M251.195 57.4851C251.004 57.8104 250.941 58.199 251.036 58.5401C251.227 59.2461 251.966 59.6586 252.705 59.4761C256.845 58.4687 261.049 57.8024 265.205 57.4851C265.888 57.4296 266.588 56.9537 266.588 56.1366C266.588 55.7797 266.405 55.3831 266.111 55.1134C265.857 54.8833 265.563 54.7644 265.269 54.7881C260.755 55.1292 256.281 55.8352 251.966 56.8823C251.656 56.9616 251.378 57.1758 251.195 57.4851Z" fill="#1E1E1E"/>
<path d="M272.913 30.7139C273.144 30.9995 273.493 31.055 273.684 31.0709C274.089 31.1026 274.534 30.9439 274.797 30.6822C275.416 30.0555 275.17 29.2464 274.765 28.7467C271.705 24.9233 268.868 20.7272 266.333 16.2772C266.166 15.9837 265.88 15.7695 265.523 15.6743C265.404 15.6426 265.276 15.6267 265.149 15.6267C264.911 15.6267 264.68 15.6822 264.482 15.8012C263.854 16.1661 263.639 17.0149 263.997 17.6494C266.556 22.1153 269.552 26.5098 272.913 30.7139Z" fill="#1E1E1E"/>
<path d="M306.837 31.9672C307.91 32.2131 308.378 31.3643 308.529 30.9915C308.672 30.6266 308.823 30.2697 308.966 29.9048L309.308 29.0878C309.626 28.35 309.96 27.6123 310.302 26.8746C310.961 25.4548 311.676 24.027 312.423 22.615C312.606 22.2739 312.646 21.8456 312.527 21.4728C312.455 21.2507 312.304 20.9492 311.954 20.7668C311.74 20.6557 311.494 20.5923 311.239 20.5923C310.786 20.5923 310.333 20.7906 310.103 21.2269C308.585 24.0904 307.163 27.1602 305.891 30.3569C305.788 30.6187 305.828 30.9439 305.986 31.2533C306.185 31.6181 306.519 31.8958 306.837 31.9672Z" fill="#1E1E1E"/>
<path d="M323.565 75.9752C323.398 75.7611 322.937 75.6104 322.643 75.6104C322.302 75.6104 321.904 75.769 321.698 75.9911C321.539 76.1656 321.269 76.5226 321.292 76.935C321.308 77.292 321.428 77.5776 321.722 77.9345C323.692 80.4014 325.925 82.6701 328.365 84.6849C328.723 84.9863 329.009 85.1053 329.35 85.1053C329.692 85.1053 330.089 84.9466 330.296 84.7245C330.566 84.431 330.717 83.9789 330.693 83.5744C330.678 83.3602 330.606 83.0508 330.336 82.8287C327.841 80.7901 325.576 78.4818 323.565 75.9752Z" fill="#1E1E1E"/>
<path d="M338.171 67.7495C337.774 67.7495 337.384 67.9082 337.106 68.3048C336.9 68.6062 336.828 69.0345 336.915 69.4312C336.987 69.7564 337.17 70.0181 337.416 70.1609C342.009 72.7706 346.571 75.5866 350.981 78.5215C351.593 78.934 352.459 78.7754 352.864 78.1884C353.063 77.9028 353.143 77.5221 353.071 77.1572C353.007 76.8002 352.809 76.5067 352.531 76.3164C348.136 73.3973 343.591 70.5893 339.005 67.9875C338.767 67.8368 338.465 67.7495 338.171 67.7495Z" fill="#1E1E1E"/>
<path d="M326.06 38.2891C326.664 38.0036 327.141 37.3214 326.759 36.4964C326.513 35.9729 326.243 35.3542 326.131 34.7593L326.044 34.2992L327.196 34.2833C327.443 34.2833 327.689 34.2833 327.935 34.2675C328.77 34.2357 329.636 34.1326 330.343 33.6329C331.05 33.1252 331.472 32.4193 331.511 31.6419C331.519 31.4119 331.495 31.1739 331.416 30.8804L331.273 30.3569L331.821 30.3807C332.822 30.4283 333.609 30.3965 334.237 30.0872C334.722 29.8492 335.048 29.4605 335.199 28.937C335.397 28.2389 335.254 27.3823 334.825 26.6842C334.746 26.5573 334.69 26.4859 334.65 26.4383C334.38 26.1131 334.507 25.891 334.682 25.6927L334.785 25.5658C335.159 25.1136 335.874 25.0184 336.391 24.9471L336.581 24.9233C338.004 24.7091 339.188 24.487 340.324 23.6779C340.817 23.3289 340.809 22.5912 340.602 22.0597L340.173 20.9492L342.446 20.505C343.05 20.386 343.296 20.0132 343.4 19.7276C343.566 19.2437 343.447 18.6409 343.105 18.2522C342.899 18.0142 342.517 17.7525 341.898 17.8715L338.067 18.6171C337.583 18.7123 337.336 18.9978 337.209 19.2279C336.994 19.6166 336.979 20.1163 337.153 20.5684L337.734 22.0756L337.249 22.1549C336.987 22.2025 336.716 22.2263 336.454 22.258C336.24 22.2818 336.025 22.3056 335.834 22.3294C334.73 22.5039 333.84 22.8767 333.109 23.4716C332.338 24.0983 331.837 24.9629 331.774 25.7958C331.734 26.2559 331.813 26.7159 331.988 27.1364L332.234 27.7233L331.281 27.6678C330.089 27.5885 329.064 27.525 328.396 28.5086C328.023 29.0639 327.983 29.8968 328.293 30.6345C328.309 30.6742 328.388 30.8328 328.468 30.9914L328.746 31.5308L328.142 31.5705C327.983 31.5864 327.903 31.5864 327.816 31.5864C327.578 31.5943 327.292 31.5943 326.998 31.5943C326.878 31.5943 326.759 31.5943 326.64 31.5943C325.345 31.5943 324.081 31.6895 323.612 32.8793C322.984 34.4579 323.93 36.782 324.367 37.7101C324.709 38.4954 325.472 38.5668 326.06 38.2891Z" fill="#1E1E1E"/>
<path d="M95.3683 247.852C66.4185 246.868 37.0635 246.773 8.12167 247.582C7.2078 247.606 6.51644 247.939 6.21447 248.487C6.02375 248.836 6.03169 249.216 6.23831 249.542C6.54028 250.033 7.2237 250.319 8.09783 250.279C21.1065 249.914 34.2027 249.74 47.2988 249.74C63.367 249.74 79.4352 250.01 95.3921 250.557C96.7431 250.604 97.3867 249.954 97.4026 249.327C97.4265 248.621 96.7351 247.9 95.3683 247.852Z" fill="#1E1E1E"/>
<path d="M33.4797 6.34581C33.6943 5.68743 33.5115 4.84661 32.6215 4.56105C30.0626 3.73609 27.4164 3.33154 24.7781 3.33154C20.6458 3.33154 16.5453 4.32308 12.8978 6.28235C7.653 9.09038 3.52072 13.8418 1.25592 19.6482C0.882424 20.608 1.6612 20.9967 1.90755 21.0919C2.60685 21.3616 3.53661 21.1712 3.88627 20.2828C8.17748 9.24902 20.4948 3.49019 31.9381 7.16283C32.7883 7.44046 33.3049 6.90107 33.4797 6.34581Z" fill="#1E1E1E"/>
<path d="M353.826 114.915C353.874 115.042 353.905 115.105 353.913 115.137C354.009 115.438 354.064 115.74 354.112 116.017L354.319 117.715L354.581 119.928C354.66 120.571 355.058 121.324 355.932 121.324C356.297 121.324 356.726 121.118 356.997 120.809C357.148 120.642 357.322 120.364 357.283 120.023C357.219 119.531 357.172 119.032 357.116 118.54C356.997 117.421 356.87 116.255 356.679 115.137C356.393 113.439 355.455 112.242 354.033 111.766C352.944 111.401 351.664 111.44 350.425 111.48C350.051 111.488 349.678 111.504 349.32 111.504L344.083 111.512C343.352 111.512 342.732 112.131 342.732 112.86C342.732 113.209 342.875 113.55 343.138 113.804C343.4 114.066 343.734 114.209 344.083 114.209H348.51C348.923 114.209 349.36 114.201 349.813 114.185C350.711 114.161 351.633 114.137 352.411 114.201V114.193L352.61 114.217L352.554 113.955L353.301 114.368C353.365 114.399 353.476 114.463 353.532 114.502L353.452 114.645L353.5 114.637L353.516 114.732L353.667 114.637C353.707 114.701 353.747 114.772 353.786 114.836L353.826 114.915Z" fill="#1E1E1E"/>
<path d="M352.658 114.566L352.674 114.534L352.666 114.51L352.658 114.566Z" fill="#1E1E1E"/>
<path d="M494.848 250.62L457.792 250.485C458.348 234.867 458.094 219.216 457.013 203.621C456.735 199.56 456.386 195.499 455.996 191.445C457.84 191.366 459.684 191.287 461.527 191.215C462.147 191.192 462.751 190.684 462.719 190.026C462.719 189.962 462.703 189.899 462.695 189.843C462.759 189.431 462.608 188.994 462.123 188.725C458.889 186.98 455.782 185.02 452.818 182.847C450.163 180.903 447.438 178.817 445.26 176.319C445.213 175.668 444.68 175.065 444.029 175.153C443.528 175.041 443.003 175.39 442.773 175.898C436.718 180.142 430.861 184.671 425.243 189.486C424.742 189.914 424.774 190.462 425.052 190.874C425.052 190.898 425.044 190.922 425.044 190.946C425.076 191.588 425.568 192.136 426.236 192.136C427.341 192.136 428.445 192.136 429.55 192.136C430.082 192.136 430.607 192.136 431.139 192.136H431.934C431.997 192.136 432.061 192.143 432.132 192.143C431.536 207.191 431.131 222.254 430.932 237.31C430.877 241.649 430.837 245.988 430.805 250.327C430.805 250.343 430.813 250.366 430.813 250.382L417.224 250.335C416.557 242.569 415.905 234.795 415.81 226.998C415.762 223.048 415.858 219.097 416.175 215.163C416.334 213.14 416.565 211.125 416.843 209.111C417.042 207.707 417.224 206.207 416.589 204.883C415.881 203.407 414.411 202.923 412.893 202.693C411.018 202.408 409.127 202.178 407.235 201.995C405.257 201.805 403.278 201.678 401.291 201.599C400.393 201.567 399.495 201.543 398.605 201.535C397.723 201.527 396.738 201.416 395.88 201.662C394.131 202.154 393.988 204.034 393.782 205.549C393.527 207.429 393.424 209.317 393.376 211.205C393.281 215.203 393.249 219.2 393.194 223.198C393.059 232.209 392.923 241.22 392.788 250.232C387.496 250.216 382.203 250.192 376.903 250.176C376.895 250.16 376.895 250.152 376.887 250.136C375.822 247.852 376.299 245.171 376.577 242.767C376.903 239.975 377.173 237.175 377.38 234.367C377.594 231.559 377.753 228.751 377.849 225.943C377.896 224.571 377.936 223.198 377.96 221.826C377.976 220.763 377.992 219.549 376.982 218.899C376.092 218.32 374.845 218.518 373.836 218.51C372.405 218.51 370.975 218.51 369.544 218.502C366.684 218.502 363.823 218.494 360.962 218.494C359.921 218.494 358.53 218.249 357.6 218.796C356.432 219.478 356.623 220.953 356.591 222.104C356.512 224.928 356.424 227.751 356.345 230.575L355.781 249.882C355.781 249.954 355.789 250.025 355.797 250.097C351.879 250.081 347.961 250.065 344.051 250.049C343.4 245.107 344.457 248.003 344.473 243.045C344.48 240.467 344.322 237.897 343.996 235.343C343.749 233.423 343.622 231.083 341.31 230.655C338.822 230.203 336.192 230.139 333.673 229.996C331.059 229.846 328.428 229.758 325.806 229.75C324.82 229.742 323.763 229.695 322.881 230.218C321.896 230.805 321.681 231.852 321.65 232.915C321.562 235.557 321.594 238.206 321.586 240.848C321.57 246.535 321.618 244.29 321.729 249.978C318.503 249.962 315.268 249.954 312.042 249.938C294.901 249.875 277.752 249.811 260.611 249.748C259.078 249.74 259.078 252.119 260.611 252.127C291.158 252.238 321.705 252.357 352.252 252.468C382.64 252.579 413.036 252.698 443.425 252.81C460.566 252.873 477.715 252.936 494.856 253C496.381 253.008 496.381 250.628 494.848 250.62ZM341.667 250.049C335.811 250.025 329.954 250.001 324.105 249.986C324.018 245.488 323.97 248.915 323.962 244.409C323.962 242.093 323.962 239.785 323.986 237.468C323.994 236.342 324.002 235.224 324.018 234.097C324.026 233.637 323.899 232.907 324.058 232.479C324.232 232.011 324.757 232.13 325.21 232.13C329.867 232.114 334.523 232.36 339.156 232.812C339.673 232.86 340.213 232.876 340.722 232.971C341.143 233.05 341.183 233.106 341.302 233.502C341.628 234.565 341.667 235.787 341.779 236.889C342.009 239.134 342.104 241.387 342.073 243.64C342.009 248.431 341.159 245.266 341.667 250.049ZM375.576 221.834C375.568 222.421 375.552 223.008 375.536 223.603C375.504 224.975 375.457 226.347 375.393 227.72C375.282 230.266 375.123 232.812 374.916 235.358C374.686 238.19 374.384 241.014 374.066 243.838C373.82 246.004 373.748 248.129 374.384 250.176C368.964 250.152 363.545 250.136 358.125 250.113C358.141 250.041 358.149 249.97 358.157 249.89C358.308 244.639 358.467 239.38 358.618 234.129C358.689 231.567 358.769 229.005 358.84 226.443C358.88 225.197 358.912 223.944 358.951 222.699C358.967 222.12 358.896 221.445 358.991 220.866C358.999 220.866 358.999 220.866 359.007 220.874C359.277 220.993 359.857 220.874 360.175 220.874C362.774 220.874 365.38 220.882 367.979 220.882C369.211 220.882 370.45 220.882 371.682 220.89C372.27 220.89 372.85 220.89 373.438 220.89C373.732 220.89 375.425 220.684 375.647 220.898C375.52 220.771 375.576 221.652 375.576 221.834ZM403.206 250.279C400.528 250.271 397.842 250.255 395.164 250.247C395.276 242.886 395.387 235.517 395.49 228.156C395.546 224.46 395.601 220.763 395.657 217.067C395.713 213.418 395.617 209.713 396.086 206.088C396.142 205.644 396.15 204.304 396.484 203.994C396.841 203.661 398.494 203.915 398.987 203.923C400.783 203.947 402.571 204.018 404.359 204.137C406.147 204.256 407.935 204.423 409.715 204.637C410.629 204.748 411.535 204.867 412.441 205.01C413.044 205.105 413.855 205.16 414.276 205.652C415.095 206.588 414.515 208.547 414.372 209.618C414.133 211.395 413.942 213.172 413.791 214.957C413.489 218.629 413.378 222.326 413.402 226.014C413.45 234.129 414.133 242.228 414.825 250.311C410.962 250.311 407.084 250.295 403.206 250.279ZM455.408 250.477L433.173 250.398C433.173 250.374 433.181 250.358 433.181 250.335C433.269 234.946 433.563 219.557 434.071 204.177C434.214 199.838 434.373 195.499 434.548 191.168C434.58 190.39 433.984 190.01 433.372 190.026C433.046 189.859 432.673 189.764 432.323 189.764C431.664 189.756 430.996 189.764 430.336 189.764C429.764 189.764 429.184 189.764 428.612 189.764C433.475 185.687 438.506 181.816 443.695 178.159C445.912 180.665 448.677 182.752 451.347 184.719C453.422 186.25 455.575 187.67 457.792 188.994C456.807 189.034 455.821 189.074 454.836 189.121C454.717 189.129 454.606 189.153 454.486 189.193C453.922 189.224 453.429 189.597 453.501 190.327C455.051 205.969 455.79 221.683 455.686 237.397C455.662 241.752 455.567 246.115 455.408 250.477Z" fill="#1E1E1E"/>
<path d="M457.53 148.072C455.949 143.503 451.515 139.973 446.222 139.077C440.389 138.085 433.953 140.409 428.581 145.454C428.12 145.883 428.104 146.525 428.541 146.993C428.962 147.437 429.725 147.588 430.281 147.072C434.382 143.225 439.221 141.115 443.822 141.203C448.129 141.258 452.285 143.511 454.399 146.922C456.704 150.65 456.148 155.83 453.04 159.51C449.957 163.159 444.617 165.666 440.373 163.413C438.291 162.302 436.424 160.319 435.121 157.829C433.73 155.171 433.698 152.347 435.025 150.261C435.359 149.738 435.216 149.111 434.692 148.77C434.175 148.445 433.388 148.484 432.983 149.127C429.868 154.005 432.816 160.66 437.449 164.285C439.46 165.856 441.653 166.665 443.87 166.665C444.267 166.665 444.665 166.641 445.054 166.586C447.756 166.229 450.537 164.944 452.889 162.953C457.419 159.114 459.287 153.141 457.53 148.072Z" fill="#1E1E1E"/>
<path d="M442.694 157.242C443.155 157.662 443.735 158.178 444.403 158.178C444.419 158.178 444.434 158.178 444.45 158.178C445.269 158.146 445.777 157.432 446.191 156.853C446.278 156.726 446.366 156.615 446.445 156.512L453.073 148.238C453.557 147.636 453.335 146.874 452.85 146.485C452.357 146.097 451.745 146.16 451.356 146.652L444.729 154.925C444.657 155.013 444.57 155.14 444.482 155.274C444.419 155.37 444.347 155.473 444.276 155.568C444.18 155.489 444.085 155.393 443.997 155.314C443.87 155.195 443.759 155.092 443.664 155.013L439.81 151.967C439.206 151.483 438.435 151.705 438.045 152.197C437.656 152.688 437.728 153.299 438.212 153.68L442.36 156.964C442.464 157.035 442.575 157.138 442.694 157.242Z" fill="#1E1E1E"/>
</svg>
