<svg width="491" height="248" viewBox="0 0 491 248" fill="none" xmlns="http://www.w3.org/2000/svg">
<path d="M266.471 97.1322C266.046 93.8762 265.885 90.8212 266.817 87.5411C267.925 83.6742 270.012 80.1931 271.699 76.5754C274.509 70.5699 275.946 63.9937 276.067 57.337C276.179 51.1306 266.544 51.1226 266.431 57.337C266.311 64.0821 264.44 70.6584 260.875 76.3583C260.369 77.1703 259.823 77.9662 259.245 78.746C249.473 86.1262 253.487 98.9893 258.128 107.969C258.401 108.741 258.658 109.521 258.891 110.309C259.59 112.664 260.072 115.084 260.224 117.504C260.337 118.123 260.433 118.742 260.521 119.369C260.786 121.234 260.955 123.124 260.995 125.021C261.196 133.679 259.044 142.081 254.901 149.662C251.922 155.112 260.24 159.984 263.219 154.534C268.374 145.103 270.647 134.532 270.301 123.831C270.028 115.454 267.933 107.302 266.728 99.0455C266.64 98.3863 266.552 97.7512 266.471 97.1322Z" fill="#F7C300"/>
<path d="M46.741 79.2444C46.4358 79.1882 46.1227 79.1399 45.8176 79.0837C46.6687 77.2105 46.1628 74.8147 43.5853 74.3886C40.6063 73.8902 37.6273 73.4721 34.6323 73.1023C36.5192 72.9898 38.4142 72.8853 40.3012 72.821C43.6977 72.7004 45.4642 67.8044 42.1239 66.0759C31.1394 60.4001 18.9504 59.4996 6.79356 59.3067C2.1444 59.2343 2.13637 66.4698 6.79356 66.5422C11.3223 66.6145 15.8992 66.7512 20.4038 67.2657C20.0665 67.314 19.7293 67.3461 19.392 67.3943C13.2494 68.2465 7.28336 69.2997 1.74292 72.2341C-1.40469 73.8982 0.0245803 79.1078 3.56565 78.9791C6.35996 78.8746 9.15427 78.8425 11.9486 78.8586C9.66816 79.2846 7.51622 79.9841 5.66941 81.1498C1.74292 83.6259 5.37231 89.8967 9.31486 87.3964C11.6836 85.9011 14.5421 85.9654 17.2562 85.7483C20.2673 85.5072 23.2864 85.2821 26.3056 85.1534C32.5125 84.8962 38.6953 85.0569 44.8138 86.2307C49.3586 87.0909 51.3098 80.1207 46.741 79.2444Z" fill="#F7C300"/>
<path d="M393.236 115.623C393.316 114.771 393.083 114.023 392.417 113.42C392.168 113.195 391.895 113.01 391.622 112.825C391.581 112.801 391.252 112.52 391.493 112.737C391.389 112.64 391.276 112.552 391.172 112.447C391.068 112.351 390.979 112.238 390.875 112.134C390.851 112.11 390.843 112.102 390.827 112.086C390.819 112.07 390.803 112.045 390.77 112.013C390.385 111.507 390 111.113 389.333 111.024C388.394 110.896 387.583 111.547 386.956 112.174C385.993 113.131 385.214 114.321 384.387 115.398C383.624 116.387 382.773 117.36 382.066 118.397C381.601 119.08 381.304 119.972 381.633 120.728C382.355 122.36 385.029 121.677 386.346 121.532C386.274 122.256 386.443 123.116 387.133 123.486C387.88 123.879 388.9 123.703 389.333 122.907C389.397 122.794 389.454 122.682 389.526 122.577C390.048 121.765 390.787 121.074 391.381 120.31C392.087 119.385 392.722 118.413 393.356 117.44C393.709 116.893 393.621 116.129 393.236 115.623Z" fill="#F7C300"/>
<path d="M134.834 140.481C134.208 139.789 133.589 139.09 132.987 138.375C132.409 137.683 131.839 136.976 131.285 136.268C131.221 136.188 131.164 136.107 131.1 136.027C130.956 135.834 130.811 135.641 130.667 135.448C130.378 135.062 130.097 134.668 129.815 134.274C129.045 133.189 127.688 132.94 126.66 133.864C125.552 134.869 123.946 135.906 124.163 137.603C123.825 137.683 123.512 137.844 123.263 138.117C122.549 138.897 122.444 140.191 123.263 140.963C124.147 141.791 125.038 142.611 125.921 143.439C127.045 144.485 128.547 146.494 130.153 146.615C130.201 146.615 130.249 146.623 130.281 146.591C130.321 146.567 130.329 146.518 130.345 146.478C130.426 146.189 130.418 145.891 130.434 145.594C130.45 145.296 130.498 144.991 130.659 144.75C131.004 144.235 131.55 144.412 132.016 144.613C132.032 144.621 132.056 144.629 132.072 144.629L133.895 145.248C134.93 145.594 136.079 144.846 136.368 143.841C136.785 142.378 135.717 141.454 134.834 140.481Z" fill="#F7C300"/>
<path d="M377.16 229.574C377.2 226.47 377.24 223.367 377.28 220.256C377.313 217.924 377.851 214.974 376.325 212.972C373.86 209.74 367.878 209.596 364.168 209.338C358.499 208.961 352.782 208.928 347.097 208.88C335.55 208.8 324.012 208.912 312.465 208.944C308.836 208.96 305.206 208.96 301.569 208.969C299.313 208.977 297.048 208.985 294.8 208.985H294.712C294.696 208.792 294.68 208.599 294.664 208.406C294.294 204.201 294.037 182.873 293.483 178.684C293.066 175.508 292.536 171.923 290.729 169.206C288.955 166.536 286.144 165.901 283.117 165.934C282.186 165.942 281.254 165.966 280.323 165.99C279.865 166.279 279.319 166.368 278.757 166.392C277.882 166.424 276.998 166.448 276.123 166.48C274.236 166.545 272.341 166.585 270.454 166.4C270.422 166.4 270.39 166.384 270.358 166.368C252.99 166.971 235.622 167.557 218.254 168.16C216.134 168.233 214.014 168.305 211.902 168.378C211.436 168.418 210.971 168.466 210.505 168.498C209.429 168.587 208.345 168.651 207.269 168.683C206.522 168.699 205.768 168.731 205.037 168.611H204.941C201.6 168.723 197.28 168.177 194.277 169.913C191.756 171.368 190.913 174.174 190.768 176.923C190.559 180.782 191.154 184.746 191.378 188.597C191.764 195.382 192.069 202.183 192.286 208.985H192.238C189.981 208.985 187.717 208.977 185.461 208.969C181.831 208.952 178.202 208.952 174.572 208.944C163.034 208.912 151.487 208.8 139.949 208.88C134.256 208.928 128.547 208.952 122.87 209.338C119.16 209.596 113.178 209.74 110.721 212.972C109.195 214.974 109.725 217.924 109.757 220.256C109.806 223.359 109.838 226.462 109.886 229.574C109.974 236.11 110.054 235.153 110.143 241.697C110.167 243.755 113.146 243.924 113.628 242.203V236.327C113.523 228.311 113.411 227.789 113.306 219.765C113.266 216.968 112.865 214.813 116.101 213.865C118.59 213.133 121.208 212.924 123.785 212.771C128.507 212.514 133.244 212.434 137.965 212.393C147.962 212.289 157.975 212.385 167.98 212.409C176.869 212.442 185.758 212.442 194.647 212.482C194.871 212.482 195.12 212.482 195.321 212.377C195.578 212.241 195.723 211.943 195.771 211.573C195.819 211.292 195.803 210.962 195.747 210.641V210.625C195.642 206.959 195.586 203.076 195.417 199.45C195.257 195.832 195.072 192.214 194.863 188.597C194.647 184.762 194.004 180.766 194.253 176.923C194.374 175.082 194.799 173.338 196.718 172.622C198.139 172.1 199.962 172.277 201.48 172.22C205.76 172.076 210.031 171.931 214.303 171.778C230.089 171.24 245.876 170.693 261.654 170.154C265.596 170.018 269.539 169.881 273.489 169.752C277.119 169.624 280.981 169.117 284.611 169.455C288.682 169.825 289.316 174.536 289.862 177.856C290.472 181.643 290.657 202.625 290.994 206.444C291.09 207.57 291.131 210.086 291.235 211.22V211.236C291.243 211.742 291.371 212.184 291.701 212.369C291.909 212.474 292.15 212.474 292.383 212.474C301.272 212.434 310.153 212.434 319.042 212.401C329.046 212.377 339.051 212.273 349.056 212.385C353.786 212.434 358.515 212.506 363.237 212.763C365.822 212.908 368.432 213.125 370.921 213.857C374.165 214.805 373.755 216.952 373.715 219.757C373.611 227.773 373.507 228.295 373.402 236.319V240.097C340.762 241.834 308.089 243.064 275.409 243.779C241.989 244.503 208.554 244.696 175.135 244.342C156.377 244.149 137.62 243.779 118.863 243.241C116.623 243.176 116.631 246.657 118.863 246.722C152.274 247.678 185.71 248.096 219.137 247.976C252.564 247.855 285.992 247.196 319.395 245.998C338.144 245.323 356.885 244.479 375.618 243.474C377.264 243.385 377.698 241.464 376.911 240.515C376.999 235.249 377.08 235.684 377.16 229.574Z" fill="#1E1E1E"/>
<path d="M241.307 192.841C239.741 192.552 238.175 192.351 236.617 192.222C236.425 190.944 236.344 189.65 236.385 188.339C236.457 185.912 232.683 185.461 232.611 187.913C232.57 189.328 232.643 190.711 232.811 192.07C231.703 192.07 230.587 192.118 229.471 192.206C229.246 190.944 229.062 189.666 228.949 188.372C228.732 185.936 224.982 186.531 225.199 188.966C225.312 190.205 225.48 191.435 225.689 192.649C225.32 192.705 224.95 192.753 224.581 192.825C222.18 193.26 222.758 197.014 225.175 196.58C225.617 196.499 226.05 196.435 226.492 196.371C226.637 196.934 226.781 197.504 226.95 198.059C226.661 198.123 226.364 198.188 226.074 198.26C223.73 198.855 224.292 202.625 226.669 202.014C227.175 201.886 227.688 201.765 228.194 201.661C228.363 202.095 228.532 202.529 228.716 202.963C229.672 205.214 233.149 203.687 232.193 201.428C232.145 201.315 232.105 201.202 232.057 201.082C233.197 200.961 234.345 200.881 235.493 200.825C235.83 201.5 236.192 202.167 236.593 202.818C237.83 204.852 240.656 202.634 239.637 200.608C241.523 200.029 241.724 196.885 239.492 196.926C238.946 196.934 238.408 196.95 237.862 196.958C237.758 196.684 237.661 196.411 237.565 196.138C238.673 196.258 239.773 196.411 240.889 196.62C243.282 197.062 243.699 193.284 241.307 192.841ZM230.716 197.408C230.571 196.926 230.443 196.443 230.306 195.961C231.39 195.896 232.474 195.872 233.558 195.888C233.671 196.298 233.799 196.716 233.927 197.118C232.86 197.191 231.784 197.279 230.716 197.408Z" fill="#1E1E1E"/>
<path d="M258.619 201.532C257.711 201.395 256.82 201.315 255.921 201.283C256.121 199.008 256.322 196.733 256.523 194.457C256.667 192.817 256.451 190.373 256.916 188.645C257.029 188.363 257.133 188.074 257.237 187.793C258.072 185.453 254.845 184.223 253.72 186.362C253.568 186.651 253.455 186.965 253.359 187.294C252.444 189.666 251.336 191.909 249.946 194.063C248.758 195.896 251.055 197.946 252.5 196.869C252.371 198.356 252.235 199.852 252.106 201.339C252.106 201.379 252.106 201.411 252.106 201.452C250.637 201.629 249.176 201.926 247.722 202.344C245.378 203.027 246.879 206.525 249.2 205.849C252.139 204.989 255.158 204.86 258.177 205.319C260.586 205.672 261.035 201.894 258.619 201.532Z" fill="#1E1E1E"/>
<path d="M286.096 175.637C285.518 174.11 284.458 173 282.764 172.847C282.169 172.791 281.559 172.896 280.965 172.96C280.315 173.024 279.664 173.081 279.014 173.145C278.468 173.193 277.994 173.338 277.593 173.732C277.247 174.077 276.982 174.656 277.006 175.155C277.055 176.16 277.898 177.269 279.014 177.165C280.098 177.06 281.19 176.899 282.274 176.859C282.274 176.867 282.282 176.867 282.282 176.875C282.314 176.964 282.338 177.044 282.362 177.132C282.483 177.567 282.547 178.017 282.611 178.459C282.611 178.483 282.619 178.499 282.619 178.523C282.651 178.668 282.659 178.837 282.675 178.981C282.707 179.255 282.732 179.528 282.756 179.793C282.844 180.935 282.86 182.085 282.812 183.226C282.764 184.279 283.767 185.284 284.819 185.236C285.943 185.188 286.778 184.352 286.827 183.226C286.883 181.916 286.851 180.605 286.722 179.303C286.61 178.113 286.53 176.779 286.096 175.637Z" fill="#1E1E1E"/>
<path d="M349.514 215.038C340.497 215.336 331.471 215.416 322.446 215.271C321.362 215.255 320.495 216.365 320.559 217.394C320.623 218.543 321.587 219.267 322.679 219.283C331.704 219.42 340.729 219.347 349.747 219.05C352.332 218.97 352.099 214.95 349.514 215.038Z" fill="#F7C300"/>
<path d="M121.906 215.641C120.678 215.545 119.417 215.657 118.221 215.955C117.418 216.156 116.735 216.566 116.302 217.281C115.908 217.924 115.884 218.752 115.868 219.492C115.804 221.823 116.414 224.123 116.318 226.454C116.278 227.395 117.177 228.295 118.116 228.255C119.128 228.207 119.875 227.459 119.915 226.454C120.003 224.46 119.57 222.499 119.481 220.505C119.465 220.127 119.465 219.741 119.481 219.363C119.65 219.331 119.819 219.299 119.995 219.267C120.003 219.267 120.003 219.267 120.003 219.267C120.14 219.259 120.276 219.243 120.413 219.235C120.911 219.203 121.408 219.211 121.898 219.251C122.838 219.323 123.737 218.366 123.697 217.45C123.657 216.405 122.91 215.713 121.906 215.641Z" fill="#F7C300"/>
<path d="M260.924 90.2264C260.836 90.0897 260.755 89.9611 260.691 89.8164C260.635 89.6958 260.603 89.5671 260.619 89.4385C260.643 89.3018 260.731 89.1812 260.828 89.0848C261.293 88.5944 261.855 88.1844 262.345 87.7181C262.98 87.1071 263.59 86.472 264.176 85.8208C265.348 84.5103 266.432 83.1115 267.404 81.6483C269.355 78.7139 270.889 75.5062 271.949 72.1377C273.009 68.7772 273.587 65.272 273.627 61.7508C273.627 61.5015 273.627 61.2604 273.627 61.0111C273.595 58.1411 273.185 55.2549 272.013 52.618C270.977 50.3026 268.52 46.7572 265.573 48.4053C264.256 49.1449 263.606 50.5197 263.076 51.8623C262.458 53.43 261.896 55.0218 261.382 56.6216C261.052 57.6265 260.755 58.6395 260.474 59.6605C260.33 60.167 260.193 60.6815 260.065 61.188C259.8 62.1929 259.687 63.2461 259.471 64.2671C259.23 65.3926 258.949 66.5181 258.611 67.6195C257.929 69.8545 257.005 72.0573 255.584 73.9224C254.934 74.7746 254.195 75.5705 253.328 76.2056C252.421 76.8809 251.288 77.3553 250.253 77.8055C250.405 77.3874 250.622 76.9935 250.815 76.5915C251.762 74.6701 252.372 72.5799 252.533 70.4414C252.694 68.3029 252.388 66.1242 251.577 64.1465C251.345 63.5837 250.999 62.9727 250.405 62.8361C249.899 62.7155 249.361 63.0129 249.056 63.431C248.743 63.849 248.623 64.3796 248.534 64.8942C248.181 67.0085 248.35 69.1711 248.237 71.3096C248.093 74.0109 247.338 76.6156 245.266 78.4727C244.616 79.0516 243.877 79.5259 243.09 79.8877C242.416 80.1771 241.701 80.362 240.97 80.5067C240.24 80.6434 239.501 80.7399 238.778 80.8363C236.128 81.2061 233.479 81.9538 230.813 81.2705C226.421 80.153 222.823 76.2378 222.189 71.7196C221.402 66.1242 224.758 60.6011 229.673 58.0687C231.367 57.2004 233.214 56.71 235.093 57.1683C237.477 57.7552 239.782 59.0495 241.388 60.9388C241.765 61.389 242.143 61.8794 242.424 62.3939C242.689 62.8843 242.841 63.3667 243.331 63.6883C243.765 63.9777 244.335 64.0581 244.817 63.8651C245.459 63.5998 245.836 62.8924 245.901 62.201C246.125 59.8856 244.568 58.133 242.994 56.6779C242.456 56.1794 241.91 55.681 241.316 55.2469C235.687 51.2352 227.802 53.5907 223.345 58.2375C220.471 61.2362 218.664 65.2801 218.463 69.4445C218.287 73.1426 219.595 76.7603 221.892 79.5983C220.174 80.153 218.72 81.1338 217.46 82.3638C217.042 82.7738 216.641 83.216 216.263 83.6742C214.456 85.6198 213.501 88.2004 212.505 90.7007C212.256 91.3278 211.999 91.9468 211.734 92.5498C209.342 98.9813 202.918 100.589 196.149 100.332C195.755 100.412 195.37 100.525 195.001 100.686C194.631 100.846 194.27 101.055 193.933 101.313C191.893 102.888 191.949 105.67 193.363 107.656C194.993 109.947 198.052 110.815 200.678 111.33C208.217 112.793 216.448 111.933 222.823 107.64C224.02 106.836 224.847 105.871 225.778 104.826C227.007 106.482 227.191 109.593 227.079 111.595C226.902 114.602 225.305 116.885 223.522 119.176C221.579 121.677 219.965 124.265 219.347 127.417C218.198 133.221 219.957 140.521 225.674 143.303C228.532 144.693 231.784 145.007 234.924 144.959C236.658 144.935 238.385 144.758 240.095 144.484C241.661 144.235 243.291 143.93 244.696 143.134C247.747 141.397 248.647 136.614 244.953 135.022C243.219 134.274 241.332 133.808 239.533 133.237C238.61 132.94 237.686 132.65 236.763 132.353C239.284 130.005 241.886 127.746 244.552 125.576C249.12 129.652 248.767 137.136 248.366 142.684C248.069 146.832 247.611 151.213 248.663 155.297C249.506 158.561 252.437 161.914 256.074 160.169C257.752 159.365 258.844 157.653 259.824 156.142C260.852 154.542 261.751 152.853 262.514 151.117C264.072 147.555 265.164 143.833 265.822 140.006C267.251 131.758 267.059 123.276 266.649 114.94C266.456 110.976 266.103 107.005 265.364 103.097C264.626 99.1984 263.509 95.3153 261.775 91.7378C261.615 91.4082 261.47 91.0705 261.301 90.7489C261.173 90.5881 261.044 90.4113 260.924 90.2264ZM262.779 135.456C262.032 142.515 260.049 150.024 255.673 155.748C255.343 156.182 254.918 156.753 254.396 156.954C253.978 157.114 253.745 157.01 253.505 156.817C252.461 155.965 252.132 154.453 251.931 153.191C251.312 149.332 251.826 145.345 252.083 141.478C252.549 134.371 251.834 126.211 245.515 121.741C245.081 121.435 244.535 121.419 244.038 121.596C243.716 121.677 243.403 121.837 243.122 122.054C239.244 125.15 235.518 128.43 231.953 131.879C230.933 132.867 231.479 134.524 232.756 134.934L241.781 137.812C242.335 137.989 243.058 138.093 243.556 138.407C243.749 138.527 243.781 138.583 243.773 138.801C243.708 139.757 242.576 140.183 241.797 140.416C238.931 141.261 235.791 141.429 232.82 141.285C230.468 141.172 227.874 140.754 225.987 139.235C222.133 136.123 221.868 129.756 223.731 125.519C224.855 122.955 226.886 120.977 228.404 118.67C229.97 116.29 230.757 113.525 230.741 110.679C230.7 103.982 226.75 98.4185 222.872 93.3055C222.574 92.9115 222.181 92.6141 221.747 92.4774C221.314 92.3407 220.84 92.3729 220.374 92.6462C219.78 94.1657 219.78 94.9696 220.712 96.465C221.667 97.9924 223.763 99.4878 223.321 101.522C223.145 102.35 222.55 103.009 221.932 103.588C219.098 106.225 215.364 107.784 211.534 108.315C207.704 108.846 203.785 108.412 200.043 107.423C198.686 107.061 197.289 106.603 196.293 105.606C196.117 105.429 195.956 105.236 195.908 104.995C195.82 104.569 196.149 104.143 196.55 103.974C197.94 103.363 199.955 103.966 201.44 103.853C203.151 103.717 204.845 103.298 206.427 102.615C209.815 101.152 211.686 98.8125 213.678 95.854C214.007 95.3636 214.312 94.8732 214.609 94.3667C216.078 91.8503 217.187 89.125 218.592 86.4961C218.817 86.1986 219.057 85.9012 219.322 85.6117C220.615 84.1727 222.293 82.9427 224.237 82.7819C224.534 82.7578 224.807 82.6693 225.056 82.5487C225.409 82.3719 226.822 83.634 227.167 83.827C228.709 84.6792 230.548 85.0168 232.29 85.0811C233.993 85.1455 235.695 84.9525 237.381 84.7355C239.236 84.4943 241.099 84.2129 242.897 83.6823C243.797 83.417 244.688 83.0874 245.531 82.6613C246.278 82.2915 247.057 81.4956 247.884 81.383C248.558 81.2865 249.281 81.5197 249.98 81.4312C251.481 81.2463 252.918 80.6997 254.211 79.9198C256.821 78.3522 258.892 75.868 260.193 73.1346C261.438 70.5137 262.177 67.724 262.867 64.9183C263.598 61.9437 264.409 59.0013 265.404 56.099C265.854 54.7967 266.248 53.3415 266.93 52.1437C266.93 52.1437 267.051 51.9587 267.155 51.814C267.364 52.0472 267.589 52.2803 267.781 52.5376C269.211 54.4751 269.757 56.9593 269.925 59.3148C270.278 64.3394 269.339 69.4686 267.38 74.1073C265.959 77.4678 263.983 80.5791 261.558 83.3044C260.803 84.1486 260.009 84.9606 259.173 85.7323C258.764 86.1102 258.346 86.488 257.921 86.8418C257.503 87.1875 257.03 87.4528 256.749 87.9432C256.492 88.3853 256.435 88.916 256.508 89.4224C256.58 89.9289 256.765 90.4032 256.973 90.8695C257.198 91.368 257.455 91.8584 257.784 92.3086C257.953 92.5337 258.138 92.7507 258.29 92.9919C258.427 93.209 258.539 93.4421 258.652 93.6833C260.378 97.4377 261.446 101.433 262.088 105.509C262.434 107.704 262.666 109.907 262.819 112.126C263.357 119.819 263.598 127.746 262.779 135.456Z" fill="#1E1E1E"/>
<path d="M322.005 60.1026C321.202 59.8051 319.997 60.2071 319.772 61.1236C315.693 77.323 306.146 91.8905 293.034 102.197C289.34 105.099 285.39 107.632 281.206 109.77C279.223 110.783 280.652 113.959 282.651 112.938C298.133 105.019 310.651 91.8824 318.078 76.1734C320.174 71.7356 321.828 67.1049 323.032 62.3456C323.249 61.4291 322.952 60.4563 322.005 60.1026Z" fill="#1E1E1E"/>
<path d="M335.382 60.2474C331.56 62.4824 328.589 65.8911 327.007 70.0394C326.686 70.8916 327.135 71.985 328.027 72.2744C328.926 72.5638 329.914 72.1618 330.259 71.2534C330.419 70.8273 330.596 70.4092 330.789 69.9912C330.837 69.8867 330.885 69.7822 330.941 69.6857C330.965 69.6374 330.982 69.6133 330.99 69.5812C330.998 69.5731 330.998 69.5651 331.006 69.549C331.11 69.348 331.222 69.147 331.343 68.9541C331.825 68.1502 332.371 67.3784 332.973 66.6548C333.109 66.494 333.246 66.3413 333.382 66.1805C333.406 66.1564 333.439 66.1242 333.463 66.0921C333.543 66.0117 333.623 65.9313 333.704 65.8509C334.025 65.5293 334.362 65.2238 334.707 64.9264C335.077 64.6128 335.454 64.3154 335.847 64.034C336.032 63.9053 336.225 63.7767 336.41 63.6481C336.426 63.64 336.426 63.64 336.434 63.632C336.442 63.632 336.442 63.632 336.45 63.624C336.57 63.5516 336.691 63.4793 336.819 63.4069C337.598 62.9487 338.136 62 337.678 61.0996C337.285 60.3358 336.217 59.749 335.382 60.2474Z" fill="#1E1E1E"/>
<path d="M190.11 73.432C188.865 72.226 188.111 70.6342 187.38 69.0826C186.705 67.6516 186.111 66.1884 185.605 64.6851C184.537 61.5577 183.783 58.3098 183.429 55.0217C182.715 48.3811 183.421 41.6843 185.573 35.3573C186.296 33.2349 182.94 32.3184 182.225 34.4327C179.912 41.2502 179.166 48.6062 180.041 55.7613C180.482 59.3549 181.269 62.9003 182.498 66.309C183.678 69.6052 185.1 73.3998 187.653 75.892C189.251 77.4597 191.716 74.9996 190.11 73.432Z" fill="#1E1E1E"/>
<path d="M176.291 44.6028C175.817 41.2905 175.624 37.6326 175.705 34.1676C175.729 33.2592 174.886 32.3829 173.97 32.4311C173.007 32.4713 172.252 33.1948 172.236 34.1676C172.147 37.9703 172.404 41.7649 172.95 45.5273C173.079 46.4277 174.275 47.0066 175.086 46.7413C176.066 46.4197 176.435 45.5675 176.291 44.6028Z" fill="#1E1E1E"/>
<path d="M191.475 61.1799C191.363 60.794 191.282 60.4001 191.218 60.0062C191.13 59.2424 191.13 58.4787 191.218 57.7149C191.25 57.5461 191.258 57.3693 191.218 57.2004C191.21 56.9673 191.138 56.7502 191.009 56.5573C190.801 56.1955 190.383 55.8498 189.974 55.7614C189.532 55.6569 189.026 55.681 188.633 55.9382C188.279 56.1633 187.894 56.5412 187.838 56.9753C187.717 57.8355 187.637 58.6877 187.693 59.556C187.749 60.4162 187.886 61.2764 188.127 62.1045C188.247 62.5306 188.544 62.9164 188.922 63.1416C189.291 63.3586 189.845 63.4551 190.263 63.3184C191.146 63.029 191.748 62.1125 191.475 61.1799Z" fill="#F7C300"/>
<path d="M334.282 35.2851C332.804 35.269 331.335 35.1565 329.865 34.9314C328.468 34.7143 326.999 34.4651 325.658 33.9908C324.534 33.5888 324.108 32.3105 323.634 31.2975C323.008 29.9469 322.478 28.5561 322.029 27.1331C321.868 26.6266 321.33 26.2809 320.808 26.3131C320.238 26.3453 319.861 26.7633 319.692 27.2778C319.234 28.6767 318.769 30.0756 318.311 31.4664C317.958 32.5437 317.62 33.7415 316.857 34.6178C316.103 35.4861 314.962 35.6951 313.862 35.7433C312.393 35.7996 310.924 35.5906 309.462 35.8077C308.434 35.9604 308.033 37.0297 308.643 37.8175C308.691 38.2114 308.94 38.5571 309.302 38.7903C310.305 39.4334 311.301 40.0927 312.273 40.7841C312.77 41.1378 313.26 41.4996 313.75 41.8613C313.991 42.0463 314.24 42.2312 314.481 42.4161C314.601 42.5125 314.722 42.601 314.842 42.6974C314.874 42.7216 314.914 42.7618 314.946 42.802C314.946 42.8341 314.946 42.8582 314.938 42.8904C314.914 43.0512 314.89 43.2039 314.866 43.3647C314.818 43.6783 314.77 43.9918 314.722 44.3134C314.625 44.9404 314.521 45.5756 314.408 46.2026C314.184 47.497 313.943 48.7913 313.686 50.0857C313.485 51.0826 314.673 51.9991 315.549 51.3479C316.673 50.5198 317.797 49.6757 318.937 48.8556C319.467 48.4778 320.013 48.0919 320.599 47.8025C321.105 47.5452 321.218 47.6738 321.739 47.915C324.349 49.0807 326.959 50.2465 329.568 51.4122C330.524 51.8383 331.616 50.97 331.271 49.9329C330.869 48.7109 330.524 47.4648 330.275 46.2026C330.146 45.5595 330.026 44.9083 329.97 44.2571C329.922 43.6702 330.219 43.3004 330.532 42.818C331.881 40.8082 333.487 38.9752 335.261 37.3271C336.104 36.5312 335.237 35.2931 334.282 35.2851Z" fill="#F7C300"/>
<path d="M333.077 35.1322C332.748 34.8749 332.347 34.7141 331.921 34.682L324.534 34.0629C323.442 32.8088 322.558 31.016 321.699 29.2795C321.539 28.9499 321.378 28.6283 321.185 28.2504L320.8 27.5671C320.382 26.8355 319.604 26.4174 318.768 26.4657C317.933 26.5139 317.211 27.0284 316.882 27.8002L314.264 34.0308C313.758 35.2447 311.735 35.4779 309.775 35.6949C308.956 35.7914 308.177 35.8718 307.455 36.0326L306.684 36.1934C305.865 36.3622 305.223 36.9732 305.006 37.7852C304.797 38.5972 305.062 39.4413 305.696 39.996L311.341 44.8599C311.221 45.8246 311.164 46.7572 311.108 47.6978C311.012 49.2414 310.924 50.6965 310.554 52.1355C310.538 52.1838 310.53 52.2401 310.522 52.3044C310.474 52.7305 310.554 53.1566 310.739 53.5264C311.012 54.073 311.51 54.4831 312.096 54.6519C312.337 54.7242 312.578 54.7484 312.827 54.7323C313.18 54.7082 313.517 54.6036 313.83 54.4187L320.214 50.5518L322.093 51.3959C322.165 51.4281 322.245 51.4522 322.326 51.4683C322.872 51.5808 323.578 51.9506 324.277 52.3124C325.554 52.9797 327.224 53.8479 328.605 53.2209C328.886 53.0922 329.151 52.9073 329.392 52.642C330.46 51.8622 329.994 50.3106 329.552 48.8072C329.464 48.5178 329.384 48.2364 329.319 47.9952L328.348 43.8469L328.822 43.3243C328.99 43.1394 329.183 42.9224 329.392 42.6892C329.432 42.649 329.464 42.6008 329.488 42.5606C329.93 41.8933 330.508 41.2823 331.118 40.6392C332.138 39.5539 333.19 38.4364 333.784 36.9008C333.888 36.6355 333.888 36.3381 333.784 36.0647C333.623 35.703 333.39 35.3814 333.077 35.1322ZM313.654 45.0609C313.686 44.7152 313.638 44.3534 313.509 44.0318C313.381 43.7022 313.172 43.4047 312.899 43.1716L307.415 38.4283L307.92 38.3238C308.531 38.1872 309.253 38.1068 310.016 38.0183C312.521 37.7369 315.356 37.4154 316.384 34.9312L318.889 28.9659L319.106 29.3518C319.266 29.6654 319.427 29.9869 319.588 30.3085C320.567 32.2862 321.571 34.3282 322.976 35.8396C323.04 35.912 323.121 35.9763 323.209 36.0326C323.506 36.2255 323.851 36.3381 324.197 36.3702L331.134 36.9491C330.676 37.6807 330.05 38.3479 329.392 39.0474C328.757 39.7227 328.099 40.4221 327.585 41.1859C327.392 41.4029 327.216 41.5959 327.063 41.7647L326.533 42.3435C326.051 42.8741 325.859 43.6138 326.019 44.3212L327.015 48.566C327.087 48.8555 327.184 49.169 327.28 49.4825C327.384 49.8202 327.625 50.6402 327.673 51.0261C327.336 51.2432 326.621 50.9296 325.305 50.2463C324.51 49.8282 323.683 49.3941 322.928 49.2333L321.065 48.3972C320.487 48.1319 319.828 48.14 319.258 48.4053C319.178 48.4374 319.106 48.4776 319.033 48.5258L312.883 52.2481C313.22 50.7528 313.308 49.2735 313.397 47.8264C313.477 46.934 313.533 46.0095 313.654 45.0609Z" fill="#1E1E1E"/>
<path d="M325.385 40.213C325.433 40.213 325.489 40.213 325.537 40.213C325.682 40.205 325.826 40.1648 325.955 40.1085C326.34 39.9317 326.621 39.5538 326.653 39.1036C326.702 38.4765 326.244 37.9459 325.618 37.8977C324.437 37.8092 323.393 37.6967 322.534 37.2143C321.787 36.7963 321.177 36.1371 320.816 35.3653C320.535 34.7703 319.844 34.5211 319.242 34.7945C319.242 34.7945 319.234 34.7945 319.234 34.8025C318.953 34.9311 318.744 35.1562 318.64 35.4376C318.535 35.719 318.551 36.0245 318.68 36.3059C319.242 37.5038 320.125 38.4926 321.233 39.1599C322.534 39.9397 323.996 40.1085 325.385 40.213Z" fill="#1E1E1E"/>
<path d="M191.853 22.2771C190.985 21.0793 190.207 19.8251 189.516 18.5067C188.858 17.2525 188.191 15.918 187.782 14.5593C187.436 13.4177 188.215 12.3083 188.745 11.3355C189.46 10.0251 190.263 8.77092 191.146 7.57305C191.459 7.14696 191.419 6.50381 191.082 6.10183C190.712 5.65967 190.158 5.60339 189.644 5.77222C188.247 6.23046 186.85 6.68871 185.453 7.13892C184.377 7.49265 183.213 7.93482 182.056 7.83835C180.908 7.74188 180.065 6.94597 179.375 6.08576C178.451 4.93612 177.761 3.62569 176.717 2.57253C175.986 1.8329 174.886 2.14644 174.613 3.10313C174.324 3.37647 174.195 3.78648 174.22 4.20453C174.3 5.39437 174.356 6.5842 174.372 7.78207C174.38 8.39307 174.388 9.00407 174.38 9.61506C174.38 9.92056 174.372 10.2261 174.364 10.5316C174.364 10.6843 174.356 10.8371 174.356 10.9898C174.356 11.03 174.348 11.0863 174.34 11.1345C174.316 11.1506 174.292 11.1667 174.268 11.1827C174.123 11.2551 173.987 11.3355 173.842 11.4079C173.561 11.5526 173.28 11.7053 172.991 11.85C172.429 12.1394 171.859 12.4289 171.289 12.7183C170.116 13.3052 168.928 13.876 167.74 14.4387C166.816 14.8728 166.784 16.3682 167.828 16.6897C169.161 17.1078 170.51 17.5098 171.835 17.9439C172.453 18.1449 173.087 18.3619 173.674 18.6594C174.179 18.9167 174.139 19.0855 174.26 19.6402C174.87 22.4379 175.48 25.2276 176.09 28.0253C176.315 29.0463 177.656 29.4161 178.291 28.5157C179.037 27.4626 179.832 26.4496 180.699 25.501C181.141 25.0186 181.599 24.5362 182.089 24.1021C182.53 23.7162 183.004 23.7323 183.574 23.7082C185.991 23.6036 188.424 23.8127 190.793 24.2629C191.933 24.488 192.407 23.0489 191.853 22.2771Z" fill="#F7C300"/>
<path d="M191.249 21.2161C191.258 20.798 191.145 20.38 190.928 20.0102L187.05 13.6831C187.411 12.0592 188.327 10.2825 189.218 8.56202C189.387 8.24045 189.555 7.91083 189.74 7.54102L190.061 6.82551C190.398 6.05373 190.278 5.17743 189.74 4.53428C189.202 3.89112 188.359 3.60974 187.548 3.81073L180.98 5.39449C179.703 5.70803 178.314 4.2127 176.981 2.7656C176.419 2.15461 175.889 1.58381 175.335 1.0934L174.749 0.570842C174.13 0.00808318 173.255 -0.144666 172.468 0.168872C171.689 0.482409 171.167 1.19792 171.103 2.03402L170.541 9.47048C169.698 9.9448 168.911 10.4513 168.116 10.9658C166.823 11.8019 165.603 12.5978 164.222 13.1445C164.174 13.1606 164.125 13.1847 164.069 13.2168C163.7 13.4339 163.403 13.7474 163.21 14.1173C162.937 14.6639 162.897 15.3071 163.114 15.8779C163.202 16.111 163.322 16.3281 163.483 16.513C163.708 16.7783 163.997 16.9954 164.326 17.132L171.216 19.986L171.649 21.9959C171.665 22.0763 171.689 22.1486 171.729 22.229C171.962 22.7355 172.083 23.5314 172.203 24.3032C172.42 25.7262 172.709 27.5913 174.034 28.331C174.299 28.4757 174.612 28.5802 174.965 28.6284C176.226 29.0223 177.198 27.736 178.145 26.4819C178.322 26.2407 178.506 25.9995 178.659 25.8146L181.421 22.5747L182.128 22.6471C182.377 22.6712 182.666 22.7034 182.979 22.7275C183.035 22.7355 183.091 22.7355 183.14 22.7275C183.943 22.6953 184.77 22.7918 185.653 22.8963C187.13 23.0732 188.648 23.2581 190.238 22.824C190.519 22.7516 190.752 22.5747 190.912 22.3255C191.121 22.0039 191.241 21.618 191.249 21.2161ZM171.754 11.4401C172.051 11.2633 172.308 11.014 172.492 10.7166C172.685 10.4191 172.797 10.0734 172.821 9.7197L173.384 2.48422L173.769 2.82992C174.243 3.23993 174.733 3.77053 175.254 4.34133C176.965 6.1904 178.908 8.28868 181.51 7.65357L187.797 6.14216L187.62 6.54413C187.46 6.85767 187.299 7.17924 187.13 7.50082C186.119 9.4544 185.075 11.4803 184.689 13.5143C184.681 13.6108 184.681 13.7073 184.681 13.8118C184.705 14.1655 184.818 14.5112 185.002 14.8087L188.648 20.7498C187.789 20.8141 186.881 20.7096 185.926 20.589C185.01 20.4764 184.055 20.3639 183.14 20.4041C182.851 20.38 182.586 20.3478 182.369 20.3237L181.59 20.2433C180.875 20.1709 180.169 20.4523 179.695 20.999L176.868 24.3193C176.676 24.5524 176.483 24.8097 176.282 25.075C176.073 25.3564 175.56 26.0397 175.279 26.3131C174.909 26.1684 174.733 25.4126 174.5 23.9414C174.363 23.0491 174.219 22.1326 173.905 21.4251L173.48 19.4233C173.351 18.8042 172.95 18.2736 172.404 17.9681C172.332 17.9279 172.251 17.8877 172.179 17.8556L165.539 15.1061C166.944 14.4871 168.18 13.6831 169.401 12.8953C170.14 12.4129 170.918 11.9064 171.754 11.4401Z" fill="#1E1E1E"/>
<path d="M182.609 18.0245C182.641 18.0647 182.665 18.1049 182.697 18.1451C182.794 18.2577 182.906 18.3541 183.027 18.4184C183.396 18.6275 183.87 18.6275 184.255 18.3863C184.785 18.0486 184.946 17.3733 184.608 16.8347C183.982 15.8298 183.452 14.9213 183.332 13.9485C183.227 13.0963 183.396 12.212 183.806 11.4643C184.119 10.8855 183.91 10.178 183.332 9.85646C183.332 9.85646 183.324 9.85646 183.324 9.84842C183.051 9.70371 182.746 9.66352 182.465 9.75195C182.176 9.83235 181.943 10.0333 181.79 10.2986C181.164 11.4563 180.891 12.7587 181.011 14.053C181.14 15.5725 181.87 16.8427 182.609 18.0245Z" fill="#1E1E1E"/>
<path d="M75.9125 87.7503C75.6395 87.4609 75.3424 87.1956 75.0373 86.9383C74.427 86.4801 73.7686 86.0942 73.07 85.7887C72.9095 85.7244 72.7569 85.652 72.6284 85.5314C72.4357 85.4028 72.2831 85.242 72.1788 85.033C71.978 84.6712 71.8897 84.1406 72.0182 83.7387C72.1547 83.3045 72.4277 82.8865 72.8452 82.6774C73.2146 82.4925 73.7365 82.3478 74.138 82.5167C74.9409 82.8463 75.7118 83.2 76.4264 83.6904C77.133 84.1728 77.8075 84.7275 78.3937 85.3465C78.6988 85.6681 78.8835 86.1103 78.8835 86.5525C78.8835 86.9785 78.6908 87.5011 78.3616 87.7905C77.663 88.4015 76.579 88.4578 75.9125 87.7503Z" fill="#F7C300"/>
<path d="M295.057 93.2492C294.254 92.7346 293.21 92.8794 292.632 93.6672C292.167 94.3104 291.669 94.9374 291.155 95.5404C291.05 95.661 290.946 95.7816 290.842 95.9022C290.802 95.9504 290.777 95.9745 290.761 95.9906C290.713 96.0469 290.665 96.0951 290.609 96.1514C290.352 96.4247 290.095 96.682 289.83 96.9473C288.73 98.0246 287.541 98.9974 286.281 99.8817C285.534 100.404 285.47 101.683 286.064 102.334C286.747 103.081 287.71 103.114 288.513 102.551C291.203 100.678 293.556 98.3301 295.483 95.6851C296.013 94.9374 295.836 93.7557 295.057 93.2492Z" fill="#F7C300"/>
<path d="M43.409 204.233C43.2966 203.381 43.955 202.296 44.8945 202.272C61.572 201.862 77.8721 195.752 90.8079 185.212C94.4533 182.246 97.7856 178.941 100.789 175.332C102.218 173.619 104.988 175.718 103.551 177.438C92.4218 190.807 76.8684 200.141 59.9179 203.928C55.1322 204.997 50.2582 205.592 45.3521 205.713C44.4207 205.745 43.5375 205.238 43.409 204.233Z" fill="#1E1E1E"/>
<path d="M40.5896 217.33C43.6087 214.09 47.5834 211.935 51.9756 211.308C52.8749 211.18 53.8465 211.871 53.9348 212.795C54.0232 213.736 53.4049 214.612 52.4494 214.757C51.9997 214.821 51.55 214.902 51.1084 214.998C50.996 215.022 50.8836 215.046 50.7792 215.079C50.731 215.087 50.6989 215.095 50.6668 215.103C50.6588 215.103 50.6507 215.111 50.6347 215.111C50.4179 215.175 50.2011 215.239 49.9843 215.312C49.093 215.601 48.2258 215.963 47.3907 216.397C47.206 216.494 47.0213 216.59 46.8447 216.695C46.8206 216.711 46.7804 216.735 46.7403 216.759C46.6439 216.815 46.5476 216.879 46.4512 216.936C46.0658 217.177 45.6884 217.442 45.3271 217.716C44.9417 218.005 44.5643 218.31 44.2029 218.632C44.0343 218.785 43.8737 218.946 43.7051 219.098C43.6971 219.106 43.689 219.114 43.681 219.122C43.673 219.131 43.673 219.131 43.673 219.131C43.5766 219.235 43.4803 219.34 43.3759 219.444C42.7576 220.111 41.7138 220.417 40.9429 219.774C40.2604 219.211 39.9231 218.037 40.5896 217.33Z" fill="#1E1E1E"/>
<path d="M16.5169 210.753C16.8301 209.306 17.0469 207.843 17.1432 206.364C17.2396 204.949 17.3199 203.462 17.1512 202.047C17.0067 200.857 15.8585 200.157 14.9752 199.482C13.7949 198.574 12.5583 197.746 11.2735 196.998C10.8159 196.733 10.5991 196.122 10.7436 195.623C10.9042 195.068 11.386 194.795 11.9239 194.747C13.3853 194.602 14.8467 194.466 16.3081 194.321C17.4403 194.208 18.6769 194.152 19.6966 193.597C20.7084 193.051 21.166 191.981 21.4551 190.92C21.8405 189.497 21.953 188.018 22.4909 186.635C22.8683 185.662 24.0005 185.51 24.6268 186.281C24.9962 186.41 25.2852 186.732 25.4298 187.134C25.8313 188.259 26.2649 189.369 26.7226 190.47C26.9554 191.033 27.1963 191.595 27.4452 192.15C27.5657 192.432 27.6941 192.705 27.8226 192.986C27.8868 193.123 27.9511 193.26 28.0153 193.404C28.0314 193.436 28.0635 193.485 28.0876 193.533C28.1197 193.541 28.1438 193.541 28.1759 193.541C28.3365 193.549 28.4971 193.565 28.6497 193.573C28.9708 193.597 29.284 193.621 29.6052 193.637C30.2395 193.678 30.8739 193.718 31.5162 193.75C32.8251 193.814 34.1419 193.871 35.4508 193.903C36.4705 193.927 37.0968 195.286 36.2698 196.001C35.2099 196.918 34.1419 197.826 33.0981 198.759C32.6083 199.193 32.1185 199.643 31.7009 200.149C31.3396 200.592 31.444 200.72 31.5564 201.283C32.1185 204.089 32.6725 206.894 33.2346 209.7C33.4433 210.729 32.3594 211.597 31.4199 211.035C30.3198 210.367 29.1796 209.765 28.0073 209.242C27.4131 208.977 26.8028 208.719 26.1765 208.518C25.6145 208.342 25.1889 208.551 24.6509 208.752C22.3946 209.62 20.2507 210.794 18.2593 212.16C17.3279 212.803 16.3162 211.686 16.5169 210.753Z" fill="#F7C300"/>
<path d="M17.401 210.424C17.6419 210.585 17.931 210.649 18.22 210.609C19.85 210.368 21.1749 209.588 22.4516 208.832C23.2225 208.382 23.9371 207.956 24.6839 207.666C24.724 207.65 24.7802 207.626 24.8284 207.602C25.1014 207.449 25.3584 207.304 25.5752 207.184L26.1934 206.83L30.0236 208.695C30.2404 208.808 30.4973 208.953 30.7623 209.105C32.1273 209.877 33.5325 210.665 34.5362 209.797C34.8494 209.612 35.0903 209.395 35.275 209.154C36.1903 207.948 35.7086 206.123 35.3472 204.732C35.1465 203.976 34.9457 203.204 34.9538 202.642C34.9538 202.553 34.9457 202.473 34.9297 202.392L34.5202 200.375L39.6912 194.996C39.9402 194.739 40.1248 194.425 40.2212 194.088C40.2935 193.846 40.3176 193.605 40.3015 193.356C40.2694 192.745 39.9803 192.174 39.5066 191.78C39.1774 191.515 38.7839 191.346 38.3583 191.298C38.2941 191.29 38.2379 191.29 38.1897 191.29C36.7042 191.338 35.2669 191.105 33.7493 190.856C32.8179 190.703 31.8945 190.55 30.9309 190.454L27.438 183.87C27.0446 183.13 26.2818 182.688 25.4387 182.712C24.5955 182.736 23.8568 183.234 23.5115 183.998L23.1904 184.714C22.8772 185.381 22.6203 186.121 22.3472 186.9C21.6969 188.766 21.0304 190.687 19.7296 190.92L13.0811 192.102C12.254 192.247 11.5956 192.842 11.3627 193.645C11.1299 194.449 11.3707 195.31 11.989 195.872L12.5672 196.403C12.8883 196.668 13.1694 196.901 13.4585 197.135C14.96 198.357 16.5097 199.611 17.4893 200.953L16.4696 208.309C16.4134 208.735 16.4776 209.162 16.6542 209.539C16.8068 209.901 17.0718 210.207 17.401 210.424ZM33.3398 193.147C34.7691 193.38 36.2224 193.621 37.7561 193.621L32.7777 198.807C32.7215 198.871 32.6653 198.935 32.6171 199C32.2398 199.498 32.0872 200.141 32.2157 200.768L32.6252 202.77C32.6171 203.542 32.858 204.442 33.0829 205.319C33.4603 206.758 33.6048 207.522 33.3238 207.803C32.9544 207.666 32.2157 207.248 31.9025 207.071C31.6134 206.911 31.3324 206.75 31.0674 206.613L27.149 204.708C26.4986 204.394 25.7358 204.418 25.1094 204.772L24.4269 205.158C24.2342 205.271 24.0014 205.399 23.7524 205.536C22.8933 205.865 22.0662 206.356 21.2713 206.822C20.4442 207.313 19.6573 207.779 18.8383 208.06L19.8019 201.154C19.85 200.809 19.8099 200.447 19.6975 200.109C19.6654 200.013 19.6172 199.924 19.561 199.844C18.3967 198.14 16.6302 196.7 14.9198 195.31C14.6388 195.085 14.3658 194.859 14.0928 194.634L13.7636 194.337L20.1311 193.203C22.7728 192.745 23.7123 190.044 24.5393 187.664C24.7883 186.933 25.0291 186.249 25.2941 185.678L25.5109 185.204L28.9235 191.603C29.0921 191.917 29.333 192.182 29.6221 192.383C29.9112 192.576 30.2484 192.705 30.5937 192.745C31.5412 192.858 32.4566 193.002 33.3398 193.147Z" fill="#1E1E1E"/>
<path d="M23.2789 203.148C23.2708 203.196 23.2628 203.244 23.2468 203.293C23.2066 203.437 23.1424 203.566 23.054 203.679C22.7971 204.016 22.3635 204.209 21.9138 204.145C21.2875 204.048 20.878 203.494 20.9663 202.867C21.143 201.701 21.2634 200.656 20.9824 199.707C20.7415 198.887 20.2276 198.139 19.5612 197.617C19.0392 197.215 18.9509 196.483 19.3524 195.953L19.3604 195.945C19.5451 195.703 19.8181 195.543 20.1152 195.511C20.4123 195.47 20.7094 195.559 20.9503 195.744C21.9941 196.556 22.757 197.633 23.1665 198.871C23.6482 200.31 23.4876 201.765 23.2789 203.148Z" fill="#1E1E1E"/>
<path d="M457.304 188.999C457.416 188.147 456.758 187.061 455.818 187.037C439.141 186.627 422.841 180.517 409.905 169.977C406.259 167.011 402.927 163.707 399.924 160.097C398.495 158.385 395.724 160.483 397.162 162.203C408.291 175.573 423.844 184.907 440.795 188.693C445.58 189.762 450.454 190.357 455.361 190.478C456.284 190.51 457.167 189.996 457.304 188.999Z" fill="#1E1E1E"/>
<path d="M460.114 202.087C457.095 198.847 453.121 196.692 448.728 196.065C447.829 195.937 446.857 196.628 446.769 197.553C446.681 198.493 447.299 199.369 448.255 199.514C448.704 199.578 449.154 199.659 449.596 199.755C449.708 199.779 449.82 199.804 449.925 199.836C449.973 199.844 450.005 199.852 450.037 199.86C450.045 199.86 450.053 199.868 450.069 199.868C450.286 199.932 450.503 199.997 450.72 200.069C451.611 200.358 452.478 200.72 453.313 201.154C453.498 201.251 453.683 201.347 453.859 201.452C453.883 201.468 453.923 201.492 453.964 201.516C454.06 201.572 454.156 201.637 454.253 201.693C454.638 201.934 455.016 202.199 455.377 202.473C455.762 202.762 456.14 203.068 456.501 203.389C456.67 203.542 456.83 203.703 456.999 203.855C457.007 203.863 457.015 203.872 457.023 203.88C457.031 203.888 457.031 203.888 457.031 203.888C457.127 203.992 457.224 204.097 457.328 204.201C457.946 204.868 458.99 205.174 459.761 204.531C460.452 203.976 460.781 202.802 460.114 202.087Z" fill="#1E1E1E"/>
<path d="M484.187 195.519C483.874 194.072 483.657 192.608 483.561 191.129C483.464 189.714 483.384 188.227 483.553 186.812C483.697 185.622 484.845 184.923 485.729 184.247C486.909 183.339 488.145 182.511 489.43 181.763C489.888 181.498 490.105 180.887 489.96 180.389C489.8 179.834 489.318 179.56 488.78 179.512C487.318 179.368 485.857 179.231 484.396 179.086C483.263 178.974 482.027 178.917 481.007 178.363C479.995 177.816 479.538 176.747 479.249 175.685C478.863 174.263 478.751 172.783 478.213 171.4C477.835 170.428 476.703 170.275 476.077 171.047C475.708 171.175 475.419 171.497 475.274 171.899C474.873 173.024 474.439 174.134 473.981 175.235C473.748 175.798 473.507 176.361 473.259 176.916C473.138 177.197 473.01 177.47 472.881 177.752C472.817 177.888 472.753 178.025 472.688 178.17C472.672 178.202 472.64 178.25 472.616 178.298C472.584 178.306 472.56 178.306 472.528 178.306C472.367 178.314 472.207 178.33 472.054 178.339C471.733 178.363 471.42 178.387 471.099 178.403C470.464 178.443 469.83 178.483 469.188 178.515C467.879 178.58 466.562 178.636 465.253 178.668C464.233 178.692 463.607 180.051 464.434 180.766C465.494 181.683 466.562 182.591 467.606 183.524C468.095 183.958 468.585 184.408 469.003 184.915C469.364 185.357 469.26 185.486 469.147 186.048C468.585 188.854 468.031 191.66 467.469 194.466C467.26 195.495 468.344 196.363 469.284 195.8C470.384 195.133 471.524 194.53 472.696 194.007C473.291 193.742 473.901 193.485 474.527 193.284C475.089 193.107 475.515 193.316 476.053 193.517C478.309 194.385 480.453 195.559 482.444 196.926C483.384 197.569 484.388 196.451 484.187 195.519Z" fill="#F7C300"/>
<path d="M484.066 194.305C484.243 193.927 484.307 193.501 484.251 193.075L483.231 185.719C484.219 184.376 485.761 183.122 487.262 181.9C487.543 181.667 487.832 181.442 488.153 181.168L488.732 180.638C489.35 180.067 489.591 179.215 489.358 178.411C489.125 177.607 488.467 177.012 487.64 176.867L480.991 175.685C479.69 175.46 479.024 173.531 478.373 171.666C478.1 170.886 477.843 170.146 477.53 169.479L477.209 168.764C476.864 168 476.125 167.509 475.282 167.477C474.439 167.453 473.676 167.895 473.283 168.635L469.79 175.219C468.826 175.316 467.903 175.468 466.971 175.621C465.454 175.87 464.016 176.104 462.531 176.055C462.475 176.055 462.427 176.055 462.362 176.063C461.937 176.112 461.543 176.28 461.214 176.546C460.74 176.932 460.451 177.51 460.419 178.121C460.403 178.371 460.435 178.62 460.499 178.853C460.596 179.191 460.78 179.504 461.029 179.761L466.2 185.14L465.791 187.158C465.775 187.238 465.767 187.319 465.767 187.407C465.775 187.97 465.574 188.742 465.373 189.497C465.004 190.888 464.522 192.713 465.446 193.919C465.63 194.16 465.871 194.377 466.184 194.562C467.18 195.43 468.593 194.642 469.958 193.871C470.223 193.726 470.48 193.573 470.697 193.461L474.527 191.596L475.145 191.949C475.362 192.07 475.611 192.215 475.892 192.367C475.94 192.391 475.997 192.424 476.037 192.432C476.783 192.721 477.506 193.147 478.269 193.597C479.546 194.353 480.871 195.133 482.501 195.374C482.782 195.414 483.079 195.35 483.32 195.189C483.633 194.972 483.898 194.667 484.066 194.305ZM470.119 177.527C470.464 177.486 470.801 177.358 471.09 177.165C471.388 176.964 471.628 176.698 471.789 176.385L475.202 169.986L475.418 170.46C475.683 171.031 475.924 171.714 476.173 172.446C477 174.825 477.94 177.527 480.581 177.985L486.949 179.118L486.62 179.416C486.347 179.641 486.066 179.866 485.793 180.091C484.082 181.482 482.316 182.913 481.152 184.625C481.095 184.706 481.047 184.794 481.015 184.891C480.895 185.22 480.863 185.582 480.911 185.936L481.874 192.842C481.055 192.56 480.268 192.094 479.441 191.604C478.646 191.129 477.819 190.647 476.96 190.317C476.703 190.181 476.478 190.044 476.286 189.939L475.603 189.553C474.977 189.2 474.214 189.176 473.564 189.489L469.645 191.395C469.38 191.531 469.091 191.692 468.81 191.853C468.505 192.022 467.758 192.448 467.389 192.584C467.108 192.303 467.244 191.539 467.63 190.1C467.863 189.232 468.095 188.331 468.087 187.552L468.497 185.55C468.625 184.931 468.473 184.288 468.095 183.781C468.047 183.717 467.991 183.653 467.935 183.588L462.948 178.403C464.482 178.403 465.943 178.162 467.365 177.928C468.256 177.768 469.171 177.623 470.119 177.527Z" fill="#1E1E1E"/>
<path d="M477.426 187.914C477.434 187.962 477.442 188.01 477.458 188.058C477.498 188.203 477.562 188.332 477.65 188.444C477.907 188.782 478.341 188.975 478.791 188.91C479.417 188.814 479.826 188.259 479.738 187.632C479.561 186.467 479.441 185.421 479.722 184.473C479.963 183.653 480.477 182.905 481.143 182.382C481.665 181.981 481.754 181.249 481.352 180.718L481.344 180.71C481.159 180.469 480.886 180.308 480.589 180.276C480.292 180.236 479.995 180.324 479.754 180.509C478.71 181.321 477.947 182.399 477.538 183.637C477.064 185.076 477.225 186.531 477.426 187.914Z" fill="#1E1E1E"/>
<path d="M81.6376 185.228C81.3164 184.328 81.6858 183.339 82.5851 182.953C83.3158 182.64 84.0304 182.294 84.729 181.916C84.8655 181.844 85.01 181.763 85.1465 181.691C85.2027 181.659 85.2349 181.643 85.2509 181.627C85.3152 181.586 85.3794 181.554 85.4436 181.514C85.7648 181.321 86.078 181.128 86.3911 180.927C87.6839 180.091 88.8964 179.142 90.0286 178.105C90.703 177.494 91.9637 177.711 92.4615 178.435C93.0397 179.263 92.855 180.212 92.1323 180.871C89.7154 183.082 86.905 184.866 83.9019 186.169C83.0749 186.531 81.9507 186.097 81.6376 185.228Z" fill="#F7C300"/>
<path d="M225.248 149.887C224.71 149.605 224.188 149.308 223.682 148.978C223.449 148.826 223.224 148.673 222.999 148.512C222.887 148.432 222.774 148.351 222.67 148.263C222.654 148.247 222.654 148.247 222.646 148.247C222.63 148.239 222.614 148.223 222.574 148.183C221.666 147.427 220.815 146.607 220.052 145.698C219.964 145.594 219.876 145.489 219.787 145.377C219.755 145.337 219.747 145.329 219.731 145.312C219.731 145.312 219.731 145.304 219.707 145.272C219.531 145.031 219.354 144.782 219.185 144.533C218.864 144.05 218.559 143.56 218.286 143.053C218.141 142.788 218.005 142.515 217.876 142.249C217.828 142.153 217.78 142.048 217.74 141.952C217.732 141.944 217.652 141.759 217.619 141.687C217.403 141.156 217.21 140.609 217.049 140.055C216.784 139.178 215.813 138.535 214.897 138.833C214.014 139.122 213.396 140.047 213.677 140.987C215.203 146.068 218.776 150.474 223.489 152.918C224.3 153.344 225.424 153.151 225.882 152.291C226.299 151.479 226.115 150.337 225.248 149.887Z" fill="#F7C300"/>
<path d="M233.068 238.039C233.02 238.031 232.907 237.999 232.923 238.015C232.859 237.983 232.795 237.951 232.739 237.91C232.715 237.886 232.578 237.782 232.554 237.766C232.466 237.685 232.385 237.605 232.305 237.525C231.96 237.187 231.639 236.825 231.261 236.52C230.185 235.651 228.796 235.378 227.592 236.198C226.757 236.761 226.355 238.079 225.223 237.967C223.986 237.846 223.071 236.648 222.308 235.796C221.61 235.016 220.381 235.314 219.859 236.11C219.088 237.299 217.402 239.961 215.66 238.722C214.182 237.669 213.034 235.571 210.842 236.102C210.312 236.23 209.814 236.504 209.413 236.873C209.051 237.211 208.851 237.701 208.489 238.023C207.975 238.481 207.14 237.798 206.691 237.444C205.711 236.672 204.804 235.82 203.583 235.442C202.274 235.048 201.014 235.402 199.978 236.246C199.633 236.528 199.327 236.873 198.982 237.155C198.902 237.219 198.806 237.275 198.741 237.324C198.749 237.324 198.685 237.34 198.637 237.348C198.46 237.299 198.252 237.171 198.131 237.074C197.794 236.817 197.497 236.504 197.184 236.222C195.698 234.904 193.916 234.18 192.037 235.201C191.298 235.603 190.68 236.214 190.093 236.801C189.555 237.348 189.154 237.782 188.64 238.063C188.616 238.079 188.608 238.079 188.6 238.087C188.56 238.103 188.52 238.111 188.488 238.111C188.479 238.111 188.479 238.111 188.479 238.111C188.223 237.983 188.062 237.91 187.853 237.637C187.13 236.68 186.681 235.684 185.669 234.96C184.425 234.068 182.803 234.092 181.67 235.153C180.883 235.885 180.281 236.512 179.181 236.737C177.19 237.147 175.335 235.796 174.837 233.883C174.596 232.974 173.376 232.363 172.549 232.95C170.919 234.108 169.578 235.555 168.646 237.332C167.715 239.108 170.405 240.684 171.336 238.907C171.738 238.152 172.228 237.46 172.798 236.833C173.673 238.144 174.966 239.157 176.491 239.639C178.828 240.379 181.534 239.663 183.284 237.975C183.461 237.806 183.63 237.629 183.79 237.444C184.168 237.637 184.408 238.007 184.625 238.353C185.244 239.35 185.894 240.379 186.994 240.893C188.977 241.826 190.712 240.612 192.077 239.245C192.358 238.964 192.631 238.682 192.92 238.417C193.249 238.111 193.257 238.079 193.691 237.862C193.699 237.862 193.691 237.862 193.699 237.862C193.747 237.846 193.795 237.83 193.851 237.814C193.859 237.83 194.172 237.83 194.092 237.814C194.132 237.822 194.197 237.854 194.309 237.918C194.429 237.983 194.71 238.184 194.718 238.192C195.449 238.771 196.067 239.51 196.886 239.969C197.906 240.539 199.087 240.62 200.155 240.105C200.636 239.872 201.054 239.51 201.439 239.149C201.664 238.94 201.953 238.562 202.218 238.449C203.061 238.079 204.218 239.414 204.796 239.872C205.791 240.652 206.98 241.319 208.281 241.311C209.782 241.295 210.545 240.371 211.412 239.317C211.428 239.301 211.484 239.237 211.541 239.181C211.854 239.414 212.111 239.631 212.448 239.961C213.323 240.821 214.222 241.705 215.459 242.003C217.972 242.614 219.924 241.126 221.401 239.301C222.116 239.961 222.919 240.515 223.858 240.829C225.352 241.327 227.07 241.094 228.258 240.025C228.467 239.84 228.636 239.615 228.812 239.398C228.877 239.317 229.15 239.06 229.286 238.891C229.334 238.931 229.382 238.98 229.39 238.988C230.25 239.816 231.037 240.781 232.265 241.046C234.192 241.472 235.035 238.457 233.068 238.039Z" fill="#F7C300"/>
<path d="M233.438 65.9313C233.815 66.0358 233.807 66.7272 233.887 67.0487C234.016 67.5391 234.16 68.0215 234.377 68.4798C234.722 69.2033 235.236 69.8706 235.935 70.2565C236.874 70.771 238.023 70.7388 239.074 70.5539C240.255 70.3529 241.475 69.9349 242.23 69.0023C242.736 68.3672 242.977 67.5552 243.097 66.7513C243.105 66.6789 243.121 66.6066 243.129 66.5342C243.218 65.8509 243.234 65.1595 243.105 64.4761C243.097 64.4359 243.089 64.3957 243.081 64.3555C243.089 64.3475 243.097 64.3395 243.105 64.3314C243.121 64.3234 243.137 64.2993 243.145 64.2993C243.178 64.2751 243.21 64.251 243.234 64.2269C243.242 64.2189 243.25 64.2189 243.258 64.2108C243.29 64.1947 243.314 64.1787 243.346 64.1626C243.418 64.1304 243.499 64.0983 243.579 64.0742C243.587 64.0742 243.587 64.0742 243.587 64.0742C243.595 64.0742 243.595 64.0742 243.611 64.0661C243.659 64.0581 243.7 64.05 243.748 64.042C243.956 64.0018 244.173 63.9857 244.382 63.9616C244.382 63.5998 244.374 63.2381 244.366 62.8763C243.796 62.9004 243.226 62.8039 242.656 62.8602C241.837 62.9406 241.018 63.0371 240.207 63.1496C238.609 63.3747 237.019 63.6641 235.453 64.0179C233.927 64.3636 232.41 64.7655 230.876 65.055C229.367 65.3363 227.833 65.3605 226.323 65.6177C225.761 65.7142 224.814 65.8026 224.019 66.076C223.746 66.1162 223.513 66.2207 223.256 66.3574C222.975 66.5021 222.686 66.5905 222.365 66.6387C222.044 66.687 221.714 66.703 221.393 66.7111C221.361 66.7111 221.329 66.7111 221.297 66.7111C221.361 67.1452 221.449 67.5633 221.57 67.9813C221.763 67.9813 221.955 68.0054 222.18 68.0456C222.236 68.0537 222.293 68.0697 222.349 68.0778C222.357 68.0778 222.381 68.0858 222.405 68.0939C222.461 68.1341 222.517 68.1743 222.582 68.2064C222.598 68.2145 222.606 68.2225 222.622 68.2386C222.662 68.319 222.694 68.3994 222.734 68.4798C222.766 68.5521 222.798 68.6164 222.822 68.6888C222.991 69.4284 223.312 70.1198 223.706 70.763C224.412 71.9447 225.368 72.8773 226.789 73.0542C227.64 73.1587 228.507 73.014 229.327 72.7648C230.33 72.4593 231.334 71.9769 231.928 71.1086C232.394 70.4253 232.554 69.5731 232.53 68.7531C232.514 68.2305 232.426 67.716 232.322 67.2095C232.233 66.7754 231.992 66.3011 232.482 65.9956C232.755 65.8267 233.116 65.8428 233.438 65.9313Z" fill="#1E1E1E"/>
<path d="M400.301 120.937C400.293 120.696 400.229 120.471 400.069 120.286C392.44 111.756 383.929 104.062 374.631 97.3895C374.526 97.3172 374.422 97.2609 374.31 97.2207C373.892 97.0278 373.402 97.0519 372.993 97.4136C372.792 97.5584 372.631 97.7433 372.527 97.9523C363.863 108.58 355.954 119.82 348.848 131.549C348.47 132.168 348.896 133.044 349.498 133.326C349.635 133.39 349.771 133.422 349.908 133.438C358.17 139.902 366.208 146.639 374.004 153.649C374.687 154.268 375.498 153.963 375.915 153.376C376.076 153.263 376.221 153.119 376.333 152.918C379.93 146.607 384.025 140.593 388.53 134.909C388.667 135.336 388.827 135.746 389.036 136.148C389.221 136.493 389.622 136.783 389.999 136.887C390.216 136.952 390.425 136.968 390.642 136.919C390.859 136.911 391.051 136.847 391.236 136.726C391.581 136.501 391.878 136.172 391.975 135.762C392.071 135.328 392.023 134.918 391.814 134.524C391.774 134.451 391.742 134.371 391.702 134.29C391.573 133.961 391.485 133.615 391.421 133.269C391.413 133.189 391.405 133.109 391.397 133.02C391.381 132.61 391.236 132.216 390.955 131.911C391.87 130.817 392.802 129.74 393.749 128.671C393.918 130.086 394.239 131.485 394.737 132.819C394.89 133.221 395.098 133.559 395.476 133.784C395.821 133.985 396.327 134.073 396.712 133.945C397.483 133.696 398.15 132.811 397.836 131.967C397.419 130.85 397.13 129.7 396.953 128.526C396.889 127.996 396.849 127.473 396.833 126.934C396.825 126.516 396.64 126.106 396.359 125.809C397.547 124.531 398.752 123.276 399.988 122.038C400.334 121.693 400.398 121.291 400.301 120.937ZM391.975 115.615C392.424 116.065 392.866 116.523 393.308 116.974C392.192 118.332 391.067 119.691 389.951 121.05C389.959 120.921 389.975 120.792 389.983 120.664C390.016 120.125 390.056 119.61 389.895 119.088C389.855 118.943 389.767 118.823 389.662 118.718C389.461 118.421 389.14 118.204 388.771 118.284C387.591 118.525 386.434 118.839 385.294 119.209C386.659 117.183 388.225 115.301 389.943 113.565C390.698 114.168 391.389 114.851 391.975 115.615ZM374.591 150.602C367.235 144.034 359.68 137.707 351.915 131.621C358.596 120.704 366.007 110.237 374.069 100.292C377.802 103.025 381.408 105.935 384.893 108.99C385.431 109.296 385.864 109.762 386.298 110.196C386.683 110.598 387.189 110.904 387.526 111.354C387.839 111.643 388.153 111.941 388.466 112.23C385.961 114.763 383.801 117.609 382.034 120.712C381.769 121.186 382.058 121.829 382.516 122.046C382.813 122.191 383.118 122.151 383.375 122.014C383.471 122.014 383.568 121.998 383.672 121.958C384.547 121.588 385.439 121.259 386.346 120.969C386.804 120.824 387.261 120.696 387.719 120.575C387.815 120.551 387.912 120.527 388.008 120.503C388.008 120.503 388.008 120.503 388.008 120.511C387.976 120.929 387.936 121.339 387.88 121.749C387.767 122.577 387.607 123.389 387.398 124.193C387.269 124.699 387.703 125.286 388.209 125.359C388.386 125.383 388.546 125.351 388.691 125.302C388.915 125.286 389.148 125.182 389.333 124.949C391.124 122.77 392.922 120.599 394.713 118.421C395.548 119.297 396.375 120.181 397.186 121.074C388.442 129.909 380.854 139.854 374.591 150.602Z" fill="#1E1E1E"/>
<path d="M364.321 119.9C363.566 119.458 362.626 119.474 362.064 120.229C361.591 120.865 361.631 122.046 362.394 122.489C368.488 126.066 374.189 130.271 379.408 135.046C380.051 135.633 381.183 135.368 381.665 134.716C382.227 133.961 381.986 133.044 381.336 132.457C376.116 127.682 370.415 123.477 364.321 119.9Z" fill="#1E1E1E"/>
<path d="M361.655 124.531C359.928 123.405 357.985 125.978 359.727 127.119C365.605 130.962 371.089 135.368 376.116 140.28C376.742 140.891 377.898 140.585 378.372 139.95C378.95 139.178 378.669 138.302 378.043 137.691C373.025 132.779 367.54 128.373 361.655 124.531Z" fill="#1E1E1E"/>
<path d="M358.17 129.21C356.444 128.084 354.501 130.657 356.243 131.798C362.121 135.641 367.605 140.047 372.632 144.959C373.258 145.57 374.414 145.264 374.888 144.629C375.466 143.857 375.185 142.981 374.559 142.37C369.532 137.45 364.048 133.052 358.17 129.21Z" fill="#1E1E1E"/>
<path d="M412.09 136.132C411.359 130.898 410.387 125.704 409.151 120.567C408.011 115.824 406.774 110.976 404.261 106.747C404.116 106.498 403.932 106.329 403.739 106.201C403.635 105.405 403 104.73 402.157 104.746C399.17 104.794 396.199 105.718 393.75 107.439C393.068 107.921 392.674 108.87 393.172 109.642C393.614 110.325 394.633 110.735 395.372 110.22C395.91 109.843 396.464 109.505 397.05 109.208C397.203 109.127 397.363 109.055 397.524 108.982C397.588 108.95 397.66 108.918 397.725 108.894C397.733 108.894 397.733 108.894 397.741 108.886C398.03 108.773 398.311 108.669 398.6 108.572C399.218 108.371 399.861 108.211 400.503 108.098C400.623 108.074 400.744 108.058 400.864 108.042C400.961 108.034 401.081 108.026 401.113 108.018C401.185 108.01 401.258 108.01 401.33 108.01C401.37 108.13 401.418 108.251 401.491 108.371C403.932 112.472 405.056 117.199 406.148 121.805C407.208 126.259 408.059 130.761 408.741 135.287C406.597 135.778 404.421 136.075 402.269 136.534C400.142 136.992 398.038 137.579 395.982 138.302C391.847 139.749 387.888 141.695 384.219 144.091C382.493 145.216 384.098 148.006 385.841 146.864C389.382 144.557 393.172 142.66 397.171 141.285C399.122 140.618 401.113 140.063 403.129 139.637C405.401 139.154 407.706 138.857 409.962 138.31C410.114 138.27 410.251 138.214 410.371 138.149C410.58 138.174 410.789 138.166 410.974 138.117C411.897 137.852 412.21 136.992 412.09 136.132Z" fill="#1E1E1E"/>
<path d="M116.029 144.758C117.37 146.092 118.687 147.467 119.971 148.85C119.666 149.18 119.465 149.622 119.457 150.072C119.441 150.651 119.393 151.222 119.321 151.8C119.128 153.079 118.807 154.325 118.357 155.539C118.012 156.455 118.743 157.42 119.578 157.685C119.995 157.822 120.549 157.725 120.919 157.508C121.328 157.267 121.561 156.897 121.722 156.463C122.26 155.016 122.613 153.497 122.79 151.961C123.817 153.119 124.829 154.293 125.825 155.482C125.52 155.812 125.359 156.238 125.343 156.688C125.343 156.777 125.327 156.865 125.319 156.954C125.255 157.332 125.15 157.701 125.014 158.063C124.974 158.144 124.942 158.232 124.893 158.312C124.669 158.738 124.612 159.189 124.717 159.655C124.821 160.097 125.142 160.459 125.52 160.7C125.721 160.829 125.937 160.893 126.17 160.909C126.403 160.957 126.636 160.949 126.869 160.877C127.278 160.764 127.712 160.451 127.913 160.073C128.145 159.639 128.322 159.189 128.467 158.73C133.365 164.913 137.813 171.441 141.724 178.298C141.844 178.515 142.005 178.676 142.173 178.797C142.623 179.432 143.506 179.762 144.245 179.094C152.724 171.473 161.46 164.149 170.438 157.123C170.582 157.106 170.735 157.074 170.879 157.002C171.538 156.696 171.987 155.74 171.586 155.072C163.861 142.322 155.262 130.118 145.843 118.557C145.73 118.332 145.554 118.131 145.337 117.971C144.895 117.577 144.357 117.552 143.908 117.762C143.787 117.81 143.675 117.866 143.562 117.946C133.453 125.198 124.211 133.559 115.916 142.836C115.74 143.037 115.667 143.287 115.659 143.544C115.563 143.938 115.635 144.372 116.029 144.758ZM126.917 135.537C128.788 137.426 130.49 139.468 131.968 141.671C130.731 141.269 129.47 140.931 128.194 140.666C127.8 140.585 127.447 140.819 127.23 141.14C127.118 141.253 127.021 141.389 126.973 141.542C126.796 142.113 126.837 142.668 126.877 143.255C126.885 143.391 126.901 143.536 126.917 143.673C125.696 142.193 124.484 140.722 123.263 139.243C123.745 138.752 124.227 138.254 124.709 137.764C125.359 136.936 126.106 136.196 126.917 135.537ZM119.048 143.697C119.931 142.724 120.83 141.759 121.738 140.811C123.689 143.174 125.64 145.538 127.591 147.909C127.8 148.159 128.041 148.271 128.29 148.287C128.451 148.343 128.627 148.376 128.82 148.352C129.374 148.279 129.848 147.644 129.703 147.089C129.478 146.213 129.302 145.329 129.181 144.428C129.125 143.978 129.077 143.528 129.045 143.078C129.045 143.078 129.045 143.078 129.045 143.07C129.149 143.094 129.254 143.118 129.366 143.15C129.864 143.279 130.362 143.423 130.859 143.576C131.847 143.89 132.819 144.243 133.766 144.653C133.871 144.702 133.975 144.718 134.087 144.718C134.368 144.862 134.69 144.911 135.019 144.758C135.517 144.525 135.838 143.817 135.549 143.311C133.63 139.942 131.277 136.847 128.555 134.098C128.892 133.784 129.229 133.463 129.575 133.141C129.936 132.659 130.482 132.313 130.908 131.887C131.373 131.404 131.847 130.906 132.433 130.576C136.215 127.256 140.134 124.097 144.197 121.122C152.957 131.935 161.011 143.303 168.278 155.177C159.846 161.785 151.624 168.667 143.635 175.806C136.809 164.109 128.563 153.304 119.048 143.697Z" fill="#1E1E1E"/>
<path d="M154.78 142.426C155.599 141.944 156.619 141.96 157.229 142.78C157.751 143.472 157.695 144.75 156.876 145.232C150.251 149.123 144.053 153.69 138.384 158.875C137.685 159.518 136.457 159.229 135.935 158.521C135.324 157.701 135.589 156.704 136.288 156.069C141.957 150.884 148.148 146.31 154.78 142.426Z" fill="#1E1E1E"/>
<path d="M157.67 147.459C159.549 146.229 161.661 149.035 159.766 150.273C153.375 154.445 147.417 159.237 141.956 164.575C141.282 165.242 140.013 164.905 139.507 164.221C138.881 163.377 139.186 162.428 139.861 161.769C145.313 156.415 151.279 151.632 157.67 147.459Z" fill="#1E1E1E"/>
<path d="M161.46 152.54C163.339 151.31 165.451 154.116 163.556 155.354C157.165 159.526 151.207 164.318 145.746 169.656C145.072 170.323 143.803 169.986 143.297 169.302C142.671 168.458 142.976 167.51 143.651 166.85C149.111 161.504 155.069 156.713 161.46 152.54Z" fill="#1E1E1E"/>
<path d="M102.861 160.057C103.655 154.373 104.715 148.721 106.056 143.142C107.293 137.981 108.634 132.723 111.372 128.124C111.533 127.859 111.725 127.666 111.942 127.529C112.054 126.669 112.745 125.929 113.668 125.946C116.912 126.002 120.148 127.007 122.806 128.872C123.553 129.394 123.97 130.424 123.432 131.26C122.959 131.999 121.843 132.449 121.048 131.887C120.469 131.477 119.859 131.107 119.225 130.785C119.056 130.697 118.888 130.616 118.711 130.536C118.639 130.504 118.566 130.472 118.494 130.44C118.486 130.44 118.486 130.44 118.478 130.432C118.165 130.311 117.86 130.19 117.547 130.094C116.872 129.877 116.182 129.7 115.475 129.579C115.347 129.555 115.21 129.531 115.082 129.515C114.977 129.507 114.849 129.491 114.817 129.491C114.736 129.483 114.656 129.483 114.576 129.475C114.536 129.604 114.479 129.74 114.399 129.869C111.749 134.331 110.529 139.46 109.332 144.468C108.184 149.308 107.253 154.196 106.514 159.116C108.843 159.647 111.211 159.976 113.548 160.475C115.86 160.973 118.149 161.608 120.381 162.396C124.878 163.972 129.174 166.078 133.164 168.683C135.035 169.905 133.293 172.936 131.406 171.698C127.56 169.19 123.44 167.123 119.096 165.636C116.977 164.913 114.817 164.31 112.625 163.843C110.159 163.313 107.654 162.991 105.197 162.404C105.029 162.364 104.884 162.3 104.747 162.227C104.523 162.26 104.29 162.244 104.089 162.187C103.069 161.93 102.724 160.997 102.861 160.057Z" fill="#1E1E1E"/>
<path d="M23.35 71.9206C21.7441 71.6231 20.1381 71.4221 18.5322 71.2855C18.3395 69.975 18.2512 68.6405 18.2913 67.2979C18.3636 64.8057 14.4933 64.3475 14.421 66.8558C14.3809 68.3109 14.4532 69.7258 14.6298 71.1166C13.4896 71.1166 12.3494 71.1729 11.2092 71.2533C10.9763 69.959 10.7916 68.6485 10.6712 67.314C10.4383 64.8298 6.59215 65.4408 6.80895 67.933C6.92137 69.2033 7.09802 70.4654 7.31482 71.7116C6.93743 71.7678 6.552 71.8241 6.17461 71.8884C3.70952 72.3306 4.30371 76.1895 6.78486 75.7474C7.23452 75.667 7.68418 75.6026 8.13384 75.5383C8.2864 76.1172 8.43094 76.696 8.60759 77.2748C8.31049 77.3392 8.00537 77.4035 7.70827 77.4758C5.29938 78.0868 5.87751 81.9538 8.31852 81.3347C8.84045 81.1981 9.36237 81.0855 9.8843 80.973C10.061 81.4232 10.2296 81.8653 10.4223 82.3075C11.4019 84.6229 14.9671 83.0471 13.9874 80.7318C13.9393 80.6112 13.8991 80.4986 13.8509 80.3781C15.0233 80.2575 16.2036 80.169 17.384 80.1128C17.7292 80.8041 18.1066 81.4875 18.5161 82.1628C19.7848 84.2531 22.6835 81.9779 21.6397 79.8957C23.5748 79.3008 23.7836 76.077 21.4951 76.1172C20.9411 76.1252 20.379 76.1413 19.825 76.1493C19.7206 75.8679 19.6162 75.5866 19.5199 75.3052C20.652 75.4258 21.7922 75.5866 22.9244 75.7956C25.3735 76.2538 25.8071 72.3788 23.35 71.9206ZM12.4779 76.6076C12.3253 76.1172 12.1968 75.6187 12.0603 75.1203C13.1764 75.056 14.2845 75.0238 15.4007 75.0479C15.5211 75.474 15.6415 75.8921 15.7861 76.3101C14.678 76.3825 13.5779 76.4789 12.4779 76.6076Z" fill="#1E1E1E"/>
<path d="M41.1127 80.8444C40.1893 80.7077 39.2659 80.6193 38.3425 80.5871C38.5513 78.2557 38.752 75.9162 38.9608 73.5848C39.1053 71.9045 38.8805 69.3962 39.3623 67.6195C39.4747 67.3301 39.5871 67.0407 39.6915 66.7432C40.5507 64.3394 37.2344 63.0773 36.0782 65.272C35.9256 65.5695 35.8052 65.891 35.7088 66.2287C34.7693 68.6646 33.6372 70.9639 32.2079 73.1748C30.9874 75.056 33.3481 77.1623 34.8336 76.0529C34.6971 77.5804 34.5606 79.1079 34.4321 80.6434C34.4321 80.6836 34.4321 80.7157 34.4321 80.7559C32.9225 80.9328 31.421 81.2383 29.9355 81.6724C27.5266 82.3719 29.0683 85.9655 31.4531 85.266C34.4722 84.3897 37.5717 84.2531 40.6631 84.7194C43.1442 85.0892 43.6019 81.2142 41.1127 80.8444Z" fill="#1E1E1E"/>
<path d="M303.817 190.438C308.764 189.763 313.79 188.902 318.19 186.547C322.591 184.183 326.308 180.035 326.927 175.075C327.537 170.114 324.221 164.623 319.282 163.924C318.03 163.747 316.705 163.884 315.605 164.511C313.798 165.548 312.923 167.775 313.027 169.857C313.14 171.939 314.079 173.885 315.195 175.645C318.865 181.442 326.043 186.064 332.427 183.564C337.751 181.474 340.24 175.501 342.183 170.114C343.347 166.89 344.504 163.667 345.668 160.443C346.583 157.902 347.523 155.306 349.185 153.175C350.847 151.045 353.376 149.405 356.074 149.517" stroke="#1E1E1E" stroke-width="3.9" stroke-miterlimit="10" stroke-linecap="round" stroke-linejoin="round" stroke-dasharray="8 8"/>
<path d="M129.277 117.424C121.288 115.937 114.061 110.759 110.095 103.66C107.525 99.0698 106.393 93.0885 109.244 88.6588C111.516 85.1295 116.205 83.3688 120.236 84.5185C124.267 85.6681 127.318 89.6557 127.382 93.8522C127.407 95.1868 127.134 96.5696 126.371 97.671C125.817 98.4669 125.03 99.0779 124.227 99.6165C117.056 104.448 107.059 104.673 99.6802 100.179C92.7105 95.9345 88.5512 88.3453 82.537 82.8382C74.8767 75.8198 64.0528 72.4111 53.7588 73.7778" stroke="#1E1E1E" stroke-width="3.9" stroke-miterlimit="10" stroke-linecap="round" stroke-linejoin="round" stroke-dasharray="8 8"/>
<path d="M378.317 92.4774C377.289 91.7298 376.253 90.9982 375.185 90.3068C374.679 89.9772 374.157 89.6717 373.547 89.5993C372.849 89.5109 372.198 89.744 371.612 90.1138C369.605 91.376 367.902 93.0643 366.513 94.9777C366.128 95.5083 366.425 96.3203 366.947 96.6258C367.557 96.9795 368.208 96.7222 368.593 96.1916C369.669 94.7124 371.026 93.402 372.544 92.381C372.76 92.2362 373.057 91.9629 373.306 91.9951C373.459 92.0111 373.619 92.1639 373.748 92.2362C373.989 92.389 374.222 92.5417 374.455 92.7025C375.354 93.2974 376.237 93.9245 377.104 94.5596C377.626 94.9455 378.445 94.6481 378.75 94.1255C379.104 93.5145 378.839 92.8633 378.317 92.4774Z" fill="#F7C300"/>
<path d="M415.453 119.466C415.22 118.879 414.634 118.405 413.967 118.622C413.397 118.807 412.875 119.474 413.124 120.109C413.566 121.218 413.935 122.36 414.224 123.518C414.361 124.072 414.481 124.635 414.586 125.206C414.642 125.511 414.69 125.817 414.738 126.122C414.746 126.179 414.754 126.211 414.754 126.235C414.754 126.259 414.762 126.283 414.762 126.323C414.786 126.5 414.802 126.677 414.827 126.854C414.891 127.481 415.332 128.092 416.031 128.06C416.625 128.036 417.308 127.529 417.235 126.854C416.97 124.322 416.392 121.837 415.453 119.466Z" fill="#F7C300"/>
<path d="M105.035 135.44C104.489 135.151 103.686 135.271 103.389 135.874C102.257 138.141 101.422 140.545 100.94 143.037C100.82 143.656 101.117 144.372 101.783 144.525C102.378 144.661 103.14 144.348 103.269 143.68C103.494 142.507 103.791 141.349 104.176 140.223C104.578 139.026 104.923 138.206 105.477 137.096C105.742 136.525 105.63 135.762 105.035 135.44Z" fill="#F7C300"/>
<path d="M168.727 142.748C167.515 140.818 166.294 138.881 165.082 136.951C164.745 136.421 163.99 136.156 163.436 136.517C162.906 136.863 162.641 137.595 163.002 138.165C164.215 140.095 165.435 142.032 166.648 143.962C166.985 144.492 167.74 144.758 168.294 144.396C168.832 144.058 169.089 143.319 168.727 142.748Z" fill="#F7C300"/>
<path d="M167.811 2.74948C167.145 2.78164 166.623 3.28008 166.607 3.95539C166.591 4.65482 166.567 5.34621 166.55 6.04564C166.542 6.3029 166.534 6.5682 166.526 6.82546C166.486 6.84154 166.446 6.86566 166.406 6.88174C165.137 7.46862 163.869 8.04746 162.6 8.63433C162.022 8.89963 161.837 9.77593 162.166 10.2824C162.552 10.8773 163.202 10.9979 163.812 10.7165C164.519 10.3869 165.234 10.0653 165.94 9.73573C166.607 9.43024 167.313 9.16494 167.948 8.80316C168.397 8.55394 168.718 8.14393 168.855 7.64549C168.967 7.22744 168.935 6.76115 168.951 6.32702C168.975 5.53916 169 4.74326 169.016 3.95539C169.032 3.32832 168.445 2.72536 167.811 2.74948Z" fill="#F7C300"/>
<path d="M421.933 169.873C421.178 169.672 420.432 169.439 419.701 169.157C419.548 169.101 419.388 169.037 419.235 168.972C419.235 168.972 418.898 168.828 418.858 168.812C418.505 168.651 418.151 168.482 417.806 168.305C417.115 167.943 416.433 167.549 415.782 167.123C415.453 166.906 415.132 166.681 414.819 166.456C414.739 166.4 414.658 166.344 414.586 166.279C414.706 166.376 414.698 166.368 414.554 166.255C414.401 166.135 414.249 166.014 414.096 165.885C413.47 165.363 412.49 165.226 411.88 165.885C411.35 166.464 411.206 167.541 411.88 168.104C414.578 170.347 417.702 172.003 421.098 172.904C421.885 173.113 422.832 172.638 423.025 171.81C423.21 170.982 422.776 170.098 421.933 169.873Z" fill="#F7C300"/>
</svg>
