<svg width="96" height="116" viewBox="0 0 96 116" fill="none" xmlns="http://www.w3.org/2000/svg">
<path d="M9.93893 113.889C14.8318 116.078 14.8318 116.078 19.5207 114.194C20.2853 114.194 21.0498 114.194 21.8652 114.194C37.3592 114.194 64.117 114.194 80.8342 114.194C81.3439 114.194 81.8026 114.194 82.2613 114.194C91.2825 116.078 96.3792 110.987 95.7166 100.602C95.7166 100.144 95.7166 99.6861 95.7166 99.177C95.7166 80.4439 95.7166 48.3228 95.7166 27.8589C95.7166 27.1462 95.7166 26.4845 95.7166 25.7718C95.7676 25.2118 95.8695 24.6519 95.9715 23.9901C96.4302 14.1654 91.3334 9.0749 80.2226 9.024C79.611 9.024 78.9994 9.024 78.3368 9.024C73.8517 9.0749 68.6021 8.97309 64.8815 8.82038C64.3209 8.82038 63.7602 8.82038 63.1996 8.82038C53.6178 8.82038 43.2714 8.82038 34.3012 8.82038C32.0077 8.82038 29.7651 8.82038 27.6755 8.82038C27.3187 8.92219 26.86 8.92219 26.3503 8.9731C25.7897 9.024 25.1781 9.024 24.5155 9.07491C19.9285 9.17672 4.63835 4.0862 9.78603 20.6304C9.73506 21.1903 9.68409 21.6994 9.68409 22.1575C9.68409 23.7865 9.68409 25.5173 9.68409 27.3499C9.68409 49.3409 9.68409 85.2799 9.68409 103.249C9.68409 104.115 9.68409 104.878 9.68409 105.642C9.68409 105.896 9.68409 110.987 9.88796 113.125C9.88796 113.634 9.93893 113.889 9.93893 113.889Z" fill="#F1C527"/>
<path d="M91.2312 50.9188C91.2312 47.3554 90.7215 44.3011 90.7215 40.7378C90.7215 36.6653 90.2118 32.5929 90.2118 28.5205C89.7022 20.3757 89.7022 11.7218 88.6828 3.577C88.1731 0.0136448 84.6054 0.0136453 79.5087 0.522697C78.4894 0.522697 77.9797 0.522697 76.9604 0.522697L12.2321 1.03175C11.2128 1.03175 11.2128 2.5589 11.2128 2.5589C11.2128 2.5589 11.2128 2.81343 11.3147 3.06795H11.1618C10.1934 3.06795 10.1934 4.08606 10.1934 4.59511C10.1934 5.10416 10.1934 5.61321 11.2128 5.61321L81.0377 5.10416C81.5474 5.10416 81.5474 5.10416 82.0571 5.10416C82.5668 5.10416 83.5861 5.10416 84.0958 5.10416C84.6054 5.10416 85.1151 5.61321 85.1151 6.12226C85.1151 7.14036 85.1151 8.15847 85.1151 9.68562C85.1151 10.1947 85.1151 10.7037 85.1151 11.2128L87.6635 62.627C88.1731 70.2627 88.6828 77.8985 88.6828 85.5343C88.6828 90.1157 88.6828 94.1881 88.6828 98.2606C88.6828 98.2606 88.6828 98.7696 88.6828 99.2787C88.6828 100.246 88.6319 101.009 88.479 101.671C88.377 101.722 88.2751 101.824 88.1731 101.824C87.1538 102.333 85.6248 102.333 84.6054 102.333C84.0958 102.333 84.0958 102.333 83.5861 102.333L80.0184 102.842C61.6702 104.369 43.3221 104.878 25.4836 105.387C20.8965 105.387 16.3095 105.387 11.7224 105.387C11.2128 105.387 11.2128 105.387 10.7031 105.387C10.1934 105.387 9.68376 105.387 9.17408 105.387H7.64507C7.1354 105.387 6.62573 104.878 6.62573 104.369C6.62573 104.369 6.62573 104.369 6.62573 103.86C6.11606 101.824 6.11606 100.297 6.11606 98.7696C6.11606 97.7515 6.11606 97.2425 6.11606 96.2244C6.11606 87.5705 5.60638 78.4076 5.09671 69.7537C4.07737 49.3916 3.5677 28.5205 3.5677 7.64941C3.5677 6.63131 2.03869 6.63131 2.03869 6.63131C2.03869 6.12226 1.01934 6.63131 1.01934 7.64941C1.01934 8.00575 1.01934 8.31118 1.01934 8.66752C0.509671 8.66752 0 8.66752 0 9.68562C0 35.6472 1.01934 61.0998 2.03869 86.0433C2.54836 92.1519 2.54836 98.7696 3.05803 104.878V105.387C3.05803 106.914 3.05803 108.442 4.07737 109.46C5.09671 110.478 7.1354 110.478 8.66441 110.478C9.17408 110.478 9.68376 110.478 9.68376 110.478C22.4255 110.478 35.1673 109.969 47.3994 109.969C62.6896 109.46 74.412 108.442 85.1151 107.933C86.6441 107.933 88.6828 107.423 89.1925 106.405C89.6512 105.947 89.906 105.235 90.0589 104.471C90.1099 104.42 90.1609 104.42 90.2118 104.369C91.2312 103.351 91.2312 101.315 91.2312 99.7877V98.7696C91.7408 93.1701 91.7408 87.0614 92.7602 77.8985C92.2505 68.7356 91.7408 59.5727 91.2312 50.9188Z" fill="#1E1E1E"/>
<path d="M68.2975 21.9032C68.2975 20.8851 67.2781 20.3761 65.7491 20.3761C65.2395 20.3761 64.7298 20.376 64.2201 20.8851C64.2201 20.8851 63.2008 21.3942 63.2008 21.9032C63.2008 21.9032 62.6911 22.4123 62.1814 22.4123C61.6718 22.4123 60.6524 21.9032 59.6331 20.8851C59.1234 20.376 58.6137 20.3761 58.6137 19.867C57.5944 19.3579 56.575 19.3579 55.5557 19.3579C55.5557 19.3579 55.046 19.3579 55.046 19.867C54.5364 20.3761 54.0267 20.3761 53.517 20.3761C52.4977 20.3761 51.988 19.867 50.9687 19.3579H50.459C49.4396 18.8489 48.4203 18.3398 46.8913 18.3398C45.8719 18.3398 44.8526 18.8489 43.8333 19.867C43.8333 20.3761 43.3236 20.376 42.8139 20.8851C42.3042 20.8851 42.3042 20.8851 41.7946 20.8851C41.2849 20.8851 40.7752 20.3761 40.2656 19.867L39.7559 19.3579C38.7365 18.8489 37.7172 18.3398 36.6979 18.8489C36.1882 18.8489 35.6785 19.3579 35.1688 19.867C34.6592 20.3761 34.1495 20.376 33.6398 20.8851C33.1302 20.8851 32.6205 21.3942 32.1108 20.8851C32.1108 20.8851 31.6012 20.8851 31.6012 20.3761C31.0915 20.3761 31.0915 19.867 30.5818 19.867C30.0721 19.867 29.5625 19.3579 29.0528 19.3579C28.0335 19.3579 27.0141 19.3579 25.9948 19.867C25.4851 19.867 25.4851 20.3761 24.9754 20.3761C24.4658 20.8851 23.4464 21.3942 22.9367 21.9032C22.4271 21.9032 21.9174 21.9032 21.4077 21.3942L20.8981 20.3761C20.3884 19.867 20.3884 19.3579 19.8787 19.3579C19.369 18.8489 18.8594 18.8489 18.3497 18.8489C16.8207 18.8489 15.2917 20.8851 14.2723 22.4123L13.7627 23.4304C13.253 23.9394 13.7627 24.9575 13.7627 25.4666C14.2723 25.4666 14.782 25.9756 15.2917 25.4666C15.2917 25.4666 15.8013 24.9575 16.311 24.4485C16.8207 23.9394 17.3304 23.4304 17.84 22.9213C17.84 22.4123 18.3497 22.4123 18.8594 22.4123C19.369 22.4123 19.8787 22.4123 19.8787 22.9213C20.3884 23.9394 20.8981 24.4485 21.9174 24.9575C23.4464 25.4666 24.9754 24.9575 27.0141 23.4304L27.5238 22.9213C29.0528 21.9032 29.5625 21.9032 31.0915 22.9213C32.1108 23.4304 33.1302 23.9394 33.6398 23.4304C34.1495 23.4304 34.1495 22.9213 34.6592 22.4123C35.1688 21.9032 35.6785 21.3942 36.6979 20.8851C37.7172 20.376 38.7365 21.3942 39.2462 21.9032C39.7559 21.9032 39.7559 22.4123 40.2656 22.4123C41.2849 22.9213 42.3042 23.4304 42.8139 23.4304C43.3236 23.4304 43.8333 22.9213 44.3429 22.4123C44.8526 21.9032 45.3623 21.9032 45.3623 21.3942C46.3816 20.3761 46.8913 20.8851 47.401 20.8851C47.9106 20.8851 48.4203 21.3942 48.93 21.3942C48.93 21.3942 49.4396 21.3942 49.4396 21.9032C50.459 22.4123 51.4783 22.9213 52.4977 22.9213C53.0073 22.9213 53.517 22.4123 54.0267 22.4123C54.5364 21.9032 55.5557 21.9032 56.0654 21.9032C57.0847 21.9032 58.1041 22.4123 58.6137 23.4304C59.1234 23.4304 59.1234 23.9394 59.6331 23.9394C60.6524 24.4485 61.6718 24.4485 62.1814 24.4485C62.1814 24.4485 62.6911 23.9394 63.2008 23.9394C64.2201 23.4304 65.7491 22.4123 66.7685 23.4304C67.2781 23.9394 67.2781 23.9394 67.7878 23.9394C68.2975 23.9394 68.8072 23.4304 68.8072 22.9213C68.8072 22.4123 68.8072 21.9032 68.2975 21.9032Z" fill="#1E1E1E"/>
<path d="M16.8192 38.7011C16.8192 38.1921 17.3289 37.683 18.3482 37.174C18.8579 36.6649 19.8773 37.174 20.8966 37.683C22.4256 38.7011 23.9546 38.7011 24.974 38.1921C25.4836 37.683 25.9933 37.683 26.503 37.174C26.503 37.174 26.503 37.174 27.0127 36.6649C27.0127 36.1559 27.5223 36.1559 28.032 36.1559C29.0513 36.1559 29.561 36.6649 31.09 37.174C31.09 37.174 31.5997 37.174 31.5997 37.683C32.619 38.1921 34.1481 38.7011 35.1674 38.1921C35.6771 38.1921 36.1867 37.683 36.6964 37.683C36.6964 37.683 36.6964 37.683 37.2061 37.174L37.7158 36.6649C38.2254 36.1559 38.7351 36.1559 39.2448 36.6649C39.2448 36.6649 39.2448 36.6649 39.7544 37.174C39.7544 37.174 40.7738 37.683 41.2835 37.683C41.7931 37.683 42.3028 37.683 43.3221 37.683C43.8318 37.683 44.3415 37.174 44.8512 36.6649C44.8512 36.1559 45.3608 36.1559 45.3608 36.1559C45.8705 36.1559 45.8705 36.1559 46.3802 36.1559C46.8898 36.1559 46.8898 36.6649 47.3995 36.6649C47.9092 36.6649 48.4189 37.174 48.4189 36.6649C48.9285 36.6649 48.9285 35.6468 49.4382 35.1378C49.4382 34.6287 49.4382 34.6287 48.9285 34.1197C46.8898 33.1016 45.3608 32.5925 44.3415 33.6106L43.8318 34.1197C43.8318 34.6287 43.3221 34.6287 42.8125 34.6287C42.3028 34.6287 42.3028 34.6287 41.7931 34.1197C41.7931 34.1197 40.2641 33.1016 39.7544 33.1016C38.7351 33.1016 38.2254 33.1016 37.7158 33.6106C37.2061 33.6106 37.2061 34.1197 36.6964 34.1197C36.6964 34.1197 36.1867 34.1197 36.1867 34.6287C36.1867 35.1378 35.6771 35.1378 35.1674 35.1378C34.6577 35.1378 34.6577 35.1378 34.1481 35.1378C33.6384 35.1378 33.1287 34.6287 32.619 34.6287C32.1094 34.6287 32.1094 34.1197 31.5997 34.1197C30.0707 33.6106 28.5417 33.1016 27.5223 34.1197C27.0127 34.6287 26.503 35.1378 25.9933 35.6468L25.4836 36.1559C24.974 36.6649 24.4643 36.6649 23.9546 36.6649C23.9546 36.6649 23.9546 36.6649 23.445 36.1559C22.4256 35.6468 21.4063 35.1378 20.3869 35.1378C19.8773 35.1378 19.3676 35.1378 18.3482 35.6468C16.8192 36.1559 15.7999 37.174 15.2902 38.7011C14.7805 39.7192 15.2902 39.7192 15.7999 40.2283C15.2902 39.7192 16.3096 39.7192 16.8192 38.7011Z" fill="#1E1E1E"/>
<path d="M75.4322 46.8465C73.3936 49.3917 71.3549 48.3736 69.8259 47.8646C69.3162 47.3555 68.2968 47.3555 67.7872 47.3555C67.2775 47.3555 66.2581 47.3555 65.7485 47.8646C65.7485 47.8646 65.2388 48.3736 64.7291 48.3736C64.2195 48.8827 63.7098 49.3917 63.2001 49.3917C62.6904 49.3917 62.1808 48.8827 61.6711 48.3736C61.1614 47.8646 60.6518 47.8646 60.6518 47.3555C60.1421 47.3555 59.6324 46.8465 59.1228 47.3555C58.6131 47.3555 58.1034 47.8646 57.5937 48.3736C56.0647 49.9008 55.0454 49.9008 54.026 48.3736L53.5164 47.8646C51.9874 46.3374 50.968 46.8465 50.4583 46.8465C49.9487 46.8465 49.439 47.3555 48.9293 47.8646C48.4197 48.3736 47.91 48.8827 47.91 49.3917C47.4003 49.3917 46.8906 49.9008 46.8906 49.3917C46.8906 49.3917 46.381 49.3917 46.381 48.8827C45.8713 48.8827 45.8713 48.3736 45.3616 48.3736C44.3423 47.8646 43.3229 47.3555 42.3036 47.3555C41.7939 47.3555 41.2843 47.8646 40.2649 47.8646C38.7359 48.3736 36.1875 49.9008 34.1489 46.8465C33.6392 46.3374 32.6198 46.3374 32.1102 46.3374C31.0908 46.8465 30.5812 47.8646 30.0715 48.8827C29.5618 49.3917 29.5618 49.9008 29.0521 50.4098C28.5425 50.9189 28.0328 51.4279 27.0135 51.4279C25.9941 51.4279 25.4844 50.9189 24.9748 50.4098C24.4651 49.3917 23.9554 48.8827 22.9361 48.8827C22.4264 48.8827 22.4264 48.3736 21.4071 48.3736C19.8781 48.3736 17.8394 49.3917 15.291 54.9913C15.291 55.5003 15.291 56.0094 15.291 56.5184C15.8007 57.0275 16.3104 57.5365 16.82 57.0275C16.82 57.0275 17.3297 57.0275 17.8394 56.5184C18.349 55.5003 18.8587 54.9913 19.3684 53.9732C19.3684 53.4641 19.8781 52.9551 19.8781 52.9551C19.8781 52.9551 19.8781 52.446 20.3877 52.446C20.3877 51.937 20.8974 51.4279 21.4071 51.4279C22.4264 51.4279 22.4264 51.937 22.9361 52.446C23.9554 53.9732 24.9748 54.4822 25.9941 54.9913C27.5231 55.5003 29.0521 54.4822 29.5618 53.9732C30.0715 53.4641 30.5812 52.9551 31.0908 51.937C31.6005 51.4279 31.6005 50.9189 32.1102 50.4098C32.1102 49.9008 32.6198 49.9008 33.1295 49.9008C33.6392 49.9008 33.6392 49.9008 34.1489 50.4098C35.1682 51.4279 36.6972 51.937 37.7166 51.937C38.7359 51.937 39.7552 51.937 40.7746 51.4279C41.2843 51.4279 41.2843 50.9189 41.2843 50.9189C42.3036 50.4098 43.3229 49.9008 44.852 50.9189C46.8906 52.446 48.4197 52.446 49.9487 51.4279C50.4583 51.4279 50.4583 50.9189 50.968 50.4098C50.968 49.9008 51.4777 49.9008 51.9874 49.9008C52.497 49.9008 53.0067 49.9008 53.0067 50.4098C53.5164 50.9189 54.026 51.4279 54.5357 51.4279C56.0647 51.937 58.6131 51.937 59.6324 50.4098C59.6324 49.9008 60.1421 49.9008 60.6518 49.3917C61.1614 49.3917 61.6711 49.3917 61.6711 49.9008C62.1808 50.4098 62.1808 50.4098 62.6905 50.9189C63.7098 51.4279 64.2195 51.4279 65.2388 51.4279C65.7485 51.4279 65.7485 50.9189 66.2582 50.9189C66.7678 50.4098 67.2775 49.9008 68.2968 49.9008C69.3162 49.9008 70.3355 50.4098 70.8452 50.4098C71.3549 50.4098 71.8645 50.9189 71.8645 50.9189C73.9032 51.4279 76.4516 50.4098 77.9806 48.8827C78.4903 48.3736 78.4903 47.8646 78.4903 47.8646C77.4709 46.8465 76.9613 46.3374 76.4516 46.3374C76.4516 46.3374 75.9419 46.3374 75.4322 46.8465Z" fill="#1E1E1E"/>
<path d="M55.5546 67.2086C56.0643 66.6996 56.574 66.6996 57.0837 66.1905C57.5933 66.1905 58.103 66.1905 58.103 66.6996C58.103 66.6996 58.103 66.6996 58.6127 66.6996C60.6514 67.2086 62.69 66.6996 64.7287 65.6815C65.7481 65.1724 65.2384 64.1543 64.7287 63.6453C64.2191 63.1362 63.7094 63.1362 63.1997 63.6453C62.1804 64.1543 61.161 65.1724 59.1223 64.6634C58.6127 64.6634 58.103 64.6634 58.103 64.1543C57.5933 64.1543 57.0837 63.6453 56.574 63.6453C56.0643 63.6453 55.5546 64.1543 55.045 64.6634L54.5353 65.1724C54.0256 65.6815 53.516 65.6815 53.0063 65.1724L52.4966 64.6634C50.9676 63.1362 49.4386 63.1362 47.3999 63.6453H46.8902C46.3806 64.1543 45.3612 64.1543 44.3419 64.1543C43.8322 64.1543 43.3225 63.6453 42.8129 63.6453C42.3032 63.6453 41.7935 63.1362 41.7935 63.1362C40.2645 63.1362 39.2452 63.6453 37.7161 65.6815L37.2065 66.1905C36.6968 66.6996 35.6775 68.2267 34.6581 67.7177C34.1484 67.7177 33.6388 67.2086 33.1291 66.6996L32.6194 66.1905C31.0904 65.6815 30.0711 66.1905 28.5421 67.2086L28.0324 67.7177C25.9937 68.7358 22.9357 70.263 19.8776 69.2449H19.368C19.368 69.2449 18.8583 69.2448 18.8583 69.7539C18.3486 70.2629 18.3486 70.772 18.3486 71.2811C18.3486 71.7901 18.8583 71.7901 19.368 72.2992C21.4067 72.8082 23.955 72.8082 25.9937 71.7901C27.013 71.2811 28.0324 70.772 29.0517 70.2629C29.5614 69.7539 30.0711 69.7539 30.5807 69.2449C31.0904 68.7358 31.6001 68.7358 32.1098 69.2449L32.6194 69.7539C32.6194 70.2629 33.1291 70.772 34.1484 70.772C35.1678 71.2811 36.1871 70.772 37.2065 70.772C37.7161 70.263 38.7355 69.7539 39.2452 68.7358C39.2452 68.7358 39.2452 68.2267 39.7548 68.2267C40.2645 67.7177 40.7742 66.1905 42.8129 66.6996C43.3225 66.6996 43.8322 66.6996 44.3419 67.2086C44.8515 67.2086 45.3612 67.2086 45.8709 67.7177C46.3806 67.7177 46.8902 67.7177 47.9096 67.2086C48.4192 67.2086 48.9289 66.6996 49.4386 66.6996C49.4386 66.1905 49.9483 66.6996 50.9676 67.2086C53.0063 68.7358 54.0256 68.7358 55.5546 67.2086Z" fill="#1E1E1E"/>
<path d="M38.2269 81.4612C37.2075 80.9522 36.1882 80.9522 35.1689 80.9522C34.6592 80.9522 33.6398 81.4612 32.6205 81.9703C32.1108 82.4793 32.1108 82.9884 31.6012 82.9884C31.6012 83.4974 31.0915 83.4974 30.5818 83.4974C30.0721 83.4974 29.5625 83.4974 29.5625 82.9884C29.0528 82.4793 29.0528 82.4793 28.5431 81.9703C28.0335 80.9522 27.0141 80.4431 25.9948 79.9341C24.9754 79.9341 24.4658 79.9341 23.4464 80.9522C22.4271 81.4612 21.4077 81.9703 20.3884 81.9703C19.8787 81.9703 18.8594 81.9703 18.8594 82.9884C18.8594 83.4974 18.8594 84.0065 18.8594 84.0065L19.369 84.5156C20.8981 84.5156 21.9174 84.5156 22.9367 84.5156C23.4464 84.5156 23.9561 84.0065 24.4658 84.0065C24.4658 84.0065 24.9754 84.0065 25.4851 84.0065C25.9948 84.0065 26.5044 84.0065 26.5044 84.5156C27.0141 85.5337 27.5238 86.0427 28.5431 86.5518C29.5625 87.0608 30.5818 87.5699 31.6012 87.0608C32.6205 86.5518 33.1302 86.0427 33.6398 85.0246L34.1495 84.5156C34.6592 84.0065 35.1689 84.0065 35.6785 84.0065C36.6979 84.0065 36.6979 84.5156 37.2075 84.5156C37.7172 84.5156 38.7366 85.0246 39.2462 85.0246C40.2656 85.0246 41.2849 85.0246 42.3043 84.0065C42.8139 84.0065 42.8139 83.4974 42.8139 83.4974C42.8139 82.9884 42.8139 82.9884 42.3043 82.4793C41.7946 80.9522 41.2849 80.9522 40.7752 81.4612C40.2656 81.9703 39.7559 81.9703 39.7559 81.9703C39.2462 81.9703 38.7366 81.4612 38.2269 81.4612Z" fill="#1E1E1E"/>
<path d="M67.2771 95.2062C70.8448 96.7334 75.9415 96.2243 79.5092 94.1881C83.0769 91.6429 84.0963 87.5704 83.0769 83.498C82.0576 79.9347 78.9996 75.8623 74.9222 75.3532C70.3351 74.3351 66.2578 76.8804 64.7288 81.4618C64.7288 81.9709 64.7288 81.9709 64.7288 82.4799C64.7288 82.989 65.2384 82.989 65.7481 82.989C66.2578 82.989 67.2771 82.4799 67.2771 81.9709V81.4618V80.9528C67.2771 80.4437 67.7868 80.4437 67.7868 79.9347C67.7868 79.4256 68.2965 79.4256 68.2965 79.4256C68.2965 79.4256 68.2965 79.4256 68.8061 78.9166L69.3158 78.4075C70.8448 77.3894 71.8642 76.8804 73.3932 76.8804C74.4125 76.8804 75.9415 77.3894 76.9609 78.4075C77.9802 79.4256 78.9996 80.4437 80.0189 82.4799C80.5286 84.0071 81.0382 85.5342 81.0382 86.5523C81.0382 87.0614 81.0383 88.0795 80.5286 88.5885C80.5286 89.0976 80.0189 90.1157 79.5092 90.6247C78.4899 91.6428 77.4706 92.661 75.4319 93.17C73.9029 93.6791 72.3738 93.6791 70.3352 93.6791C68.8061 93.6791 67.2771 92.661 66.2578 91.6429C65.7481 91.1338 65.2384 90.6248 64.7288 89.6066V89.0976C64.7288 88.5885 64.7288 88.5885 64.7288 88.5885V88.0795C64.7288 88.0795 65.2384 86.5523 64.2191 86.0433H63.7094H63.1997C63.1997 86.0433 62.6901 86.0433 62.6901 86.5523C61.6707 88.5885 62.1804 90.1157 62.6901 91.1338C63.1998 92.661 64.7288 94.6972 67.2771 95.2062Z" fill="#1E1E1E"/>
</svg>
