<svg width="96" height="113" viewBox="0 0 96 113" fill="none" xmlns="http://www.w3.org/2000/svg">
<path d="M95.9762 19.2758C96.3611 11.8913 92.0841 8.0799 82.7602 8.00049C82.247 8.00049 81.7338 8.00049 81.1777 8.00049C77.414 8.04019 73.0087 7.96079 69.8864 7.84169C69.416 7.84169 68.9455 7.84169 68.475 7.84169C60.4342 7.84169 51.7519 7.84169 44.2244 7.84169C42.2997 7.84169 40.4178 7.84169 38.6642 7.84169C38.4076 7.88139 38.0227 7.88139 37.5522 7.92109C37.0817 7.96079 36.5685 8.00049 36.0125 8.00049C32.6336 8.0799 22.2833 5.10227 22.7965 12.9235C17.6641 12.3677 10.1366 11.8516 13.5582 22.174C13.5154 22.6107 13.5154 23.0474 13.5154 23.4048C13.5154 24.6752 13.5154 26.0251 13.5154 27.4543C13.5154 28.0499 13.5154 28.6454 13.5154 29.2409C8.89624 29.0424 4.14875 30.1143 7.01435 38.7296C6.97158 39.1663 6.97158 39.603 6.97158 39.9604C6.97158 41.2308 6.97158 42.5807 6.97158 44.0099C6.97158 61.1611 6.97158 89.1905 6.97158 103.205C6.97158 103.88 6.97158 104.476 6.97158 105.071C6.97158 105.27 6.97158 109.24 7.14266 110.907C7.14266 111.265 7.14266 111.463 7.14266 111.463C11.2486 113.17 11.2486 113.17 15.1834 111.701C15.825 111.701 16.4665 111.701 17.1509 111.701C30.153 111.701 52.6073 111.701 66.6359 111.701C67.0636 111.701 67.4485 111.701 67.8335 111.701C75.4038 113.17 79.6808 109.2 79.1248 101.101C79.1248 100.744 79.1248 100.386 79.1248 99.9893C79.1248 98.5204 79.1248 96.8926 79.1248 95.2648C83.0169 94.5899 85.3264 91.7711 85.6686 87.126C92.4263 87.8803 96.2756 84.1087 95.7196 76.7638C95.7196 76.4065 95.7196 76.0492 95.7196 75.6919C95.7196 61.5978 95.7196 37.4592 95.7196 22.0946C95.7196 21.5785 95.7196 21.0624 95.7196 20.5462C95.8051 20.2286 95.8907 19.7522 95.9762 19.2758Z" fill="#59C69F"/>
<path d="M76.1736 53.1016C76.1736 49.9254 75.7459 46.7493 75.7459 43.5732C75.3182 37.2209 75.3182 30.4716 74.4628 24.1193C74.0351 21.3402 71.0412 21.3402 66.7642 21.7372C65.9088 21.7372 65.4811 21.7372 64.6256 21.7372L10.3076 22.1343C9.4522 22.1343 9.45219 23.3253 9.45219 23.3253C9.45219 23.3253 9.45219 23.5238 9.53773 23.7223H9.40942C8.55402 23.7223 8.55402 24.5164 8.55402 24.9134C8.55402 25.3104 8.55402 25.7074 9.40942 25.7074L68.0045 25.3104C68.4322 25.3104 68.4322 25.3104 68.8599 25.3104C69.2876 25.3104 70.143 25.3104 70.5707 25.3104C70.9984 25.3104 71.4261 25.7074 71.4261 26.1044C71.4261 26.8985 71.4261 27.6925 71.4261 28.8835C71.4261 29.2806 71.4261 29.6776 71.4261 30.0746L73.5646 70.1733C73.9923 76.1286 74.42 82.0838 74.42 88.0391C74.42 91.6122 74.42 94.7884 74.42 97.9645C74.42 97.9645 74.42 98.3615 74.42 98.7585C74.42 99.5129 74.3772 100.108 74.2489 100.625C74.1634 100.664 74.0778 100.744 73.9923 100.744C73.1369 101.141 71.8538 101.141 70.9984 101.141C70.5707 101.141 70.5707 101.141 70.143 101.141L67.1491 101.538C51.7518 102.729 36.3546 103.126 21.3851 103.523C17.5357 103.523 13.6864 103.523 9.83712 103.523C9.40942 103.523 9.40942 103.523 8.98172 103.523C8.55402 103.523 8.12632 103.523 7.69862 103.523H6.41552C5.98782 103.523 5.56011 103.126 5.56011 102.729C5.56011 102.729 5.56011 102.729 5.56011 102.332C5.13241 100.744 5.13241 99.5526 5.13241 98.3615C5.13241 97.5675 5.13241 97.1705 5.13241 96.3764C5.13241 89.6271 4.70471 82.4808 4.27701 75.7315C3.42161 59.8509 2.9939 43.5732 2.9939 27.2955C2.9939 26.5014 1.7108 26.5014 1.7108 26.5014C1.7108 26.1044 0.855397 26.5014 0.855397 27.2955C0.855397 27.5734 0.855397 27.8116 0.855397 28.0895C0.427696 28.0895 0 28.0895 0 28.8835C0 49.1314 0.855401 68.9823 1.7108 88.4361C2.1385 93.2003 2.1385 98.3615 2.5662 103.126V103.523C2.5662 104.714 2.5662 105.905 3.42161 106.699C4.27701 107.493 5.98781 107.493 7.27092 107.493C7.69862 107.493 8.12632 107.493 8.12632 107.493C18.8189 107.493 29.5114 107.096 39.7762 107.096C52.6072 106.699 62.4444 105.905 71.4261 105.508C72.7092 105.508 74.42 105.111 74.8477 104.317C75.2326 103.959 75.4465 103.404 75.5748 102.808C75.6176 102.768 75.6603 102.768 75.7031 102.729C76.5585 101.935 76.5585 100.347 76.5585 99.1556V98.3615C76.9862 93.9943 76.9862 89.2301 77.8416 82.0838C77.4139 74.9375 76.9862 67.7912 76.5585 61.0419C76.6013 58.2628 76.1736 55.8807 76.1736 53.1016Z" fill="#1E1E1E"/>
<path d="M57.3545 38.4119C57.3545 37.6179 56.4991 37.2209 55.216 37.2209C54.7883 37.2209 54.3606 37.2209 53.9329 37.6179C53.9329 37.6179 53.0775 38.0149 53.0775 38.4119C53.0775 38.4119 52.6498 38.8089 52.2221 38.8089C51.7944 38.8089 50.939 38.4119 50.0836 37.6179C49.6559 37.2209 49.2282 37.2209 49.2282 36.8239C48.3728 36.4268 47.5174 36.4268 46.662 36.4268C46.662 36.4268 46.2343 36.4268 46.2343 36.8239C45.8066 37.2209 45.3789 37.2209 44.9512 37.2209C44.0958 37.2209 43.6681 36.8239 42.8127 36.4268H42.385C41.5296 36.0298 40.6742 35.6328 39.3911 35.6328C38.5357 35.6328 37.6803 36.0298 36.8249 36.8239C36.8249 37.2209 36.3972 37.2209 35.9695 37.6179C35.5418 37.6179 35.5417 37.6179 35.114 37.6179C34.6863 37.6179 34.2586 37.2209 33.8309 36.8239L33.4032 36.4268C32.5478 36.0298 31.6924 35.6328 30.837 36.0298C30.4093 36.0298 29.9816 36.4268 29.5539 36.8239C29.1262 37.2209 28.6985 37.2209 28.2708 37.6179C27.8431 37.6179 27.4154 38.0149 26.9877 37.6179C26.9877 37.6179 26.56 37.6179 26.56 37.2209C26.1323 37.2209 26.1323 36.8239 25.7046 36.8239C25.2769 36.8239 24.8492 36.4268 24.4215 36.4268C23.5661 36.4268 22.7107 36.4268 21.8553 36.8239C21.4276 36.8239 21.4276 37.2209 20.9999 37.2209C20.5722 37.6179 19.7168 38.0149 19.2891 38.4119C18.8614 38.4119 18.4337 38.4119 18.006 38.0149L17.5783 37.2209C17.1506 36.8239 17.1506 36.4268 16.7229 36.4268C16.2952 36.0298 15.8675 36.0298 15.4398 36.0298C14.1567 36.0298 12.8736 37.6179 12.0182 38.8089L11.5905 39.603C11.1628 40 11.5905 40.794 11.5905 41.1911C12.0182 41.1911 12.4459 41.5881 12.8736 41.1911C12.8736 41.1911 13.3013 40.794 13.729 40.397C14.1567 40 14.5844 39.603 15.0121 39.206C15.0121 38.809 15.4398 38.8089 15.8675 38.8089C16.2952 38.8089 16.7229 38.809 16.7229 39.206C17.1506 40 17.5783 40.397 18.4337 40.794C19.7168 41.1911 20.9999 40.794 22.7107 39.603L23.1384 39.206C24.4215 38.4119 24.8492 38.4119 26.1323 39.206C26.9877 39.603 27.8431 40 28.2708 39.603C28.6985 39.603 28.6985 39.206 29.1262 38.8089C29.5539 38.4119 29.9816 38.0149 30.837 37.6179C31.6924 37.2209 32.5478 38.0149 32.9755 38.4119C33.4032 38.4119 33.4032 38.8089 33.8309 38.8089C34.6863 39.206 35.5418 39.603 35.9695 39.603C36.3972 39.603 36.8249 39.206 37.2526 38.8089C37.6803 38.4119 38.108 38.4119 38.108 38.0149C38.9634 37.2209 39.3911 37.6179 39.8188 37.6179C40.2465 37.6179 40.6742 38.0149 41.1019 38.0149C41.1019 38.0149 41.5296 38.0149 41.5296 38.4119C42.385 38.8089 43.2404 39.206 44.0958 39.206C44.5235 39.206 44.9512 38.8089 45.3789 38.8089C45.8066 38.4119 46.662 38.4119 47.0897 38.4119C47.9451 38.4119 48.8005 38.8089 49.2282 39.603C49.6559 39.603 49.6559 40 50.0836 40C50.939 40.397 51.7944 40.397 52.2221 40.397C52.2221 40.397 52.6498 40 53.0775 40C53.9329 39.603 55.216 38.8089 56.0714 39.603C56.4991 40 56.4991 40 56.9268 40C57.3545 40 57.7822 39.603 57.7822 39.206C57.7822 38.809 57.7822 38.4119 57.3545 38.4119Z" fill="#1E1E1E"/>
<path d="M16.9368 73.0724C16.9368 72.6754 17.3645 72.2784 18.2199 71.8814C18.6476 71.4844 19.503 71.8814 20.3584 72.2784C21.6415 73.0724 22.9246 73.0724 23.78 72.6754C24.2077 72.2784 24.6355 72.2784 25.0632 71.8814C25.0632 71.8814 25.0631 71.8814 25.4908 71.4844C25.4908 71.0873 25.9186 71.0873 26.3463 71.0873C27.2017 71.0873 27.6293 71.4844 28.9125 71.8814C28.9125 71.8814 29.3402 71.8814 29.3402 72.2784C30.1956 72.6754 31.4787 73.0724 32.3341 72.6754C32.7618 72.6754 33.1895 72.2784 33.6172 72.2784C33.6172 72.2784 33.6172 72.2784 34.0449 71.8814L34.4726 71.4844C34.9003 71.0873 35.328 71.0873 35.7557 71.4844C35.7557 71.4844 35.7557 71.4844 36.1834 71.8814C36.1834 71.8814 37.0388 72.2784 37.4665 72.2784C37.8942 72.2784 38.3219 72.2784 39.1773 72.2784C39.605 72.2784 40.0327 71.8814 40.4604 71.4844C40.4604 71.0873 40.8881 71.0873 40.8881 71.0873C41.3158 71.0873 41.3158 71.0873 41.7435 71.0873C42.1712 71.0873 42.1712 71.4844 42.5989 71.4844C43.0266 71.4844 43.4543 71.8814 43.4543 71.4844C43.882 71.4844 43.882 70.6903 44.3097 70.2933C44.3097 69.8963 44.3097 69.8963 43.882 69.4993C42.1712 68.7052 40.8881 68.3082 40.0327 69.1022L39.605 69.4993C39.605 69.8963 39.1773 69.8963 38.7496 69.8963C38.3219 69.8963 38.3219 69.8963 37.8942 69.4993C37.8942 69.4993 36.6111 68.7052 36.1834 68.7052C35.328 68.7052 34.9003 68.7052 34.4726 69.1022C34.0449 69.1022 34.0449 69.4993 33.6172 69.4993C33.6172 69.4993 33.1895 69.4993 33.1895 69.8963C33.1895 70.2933 32.7618 70.2933 32.3341 70.2933C31.9064 70.2933 31.9064 70.2933 31.4787 70.2933C31.051 70.2933 30.6233 69.8963 30.1956 69.8963C29.7679 69.8963 29.7679 69.4993 29.3402 69.4993C28.0571 69.1023 26.7739 68.7052 25.9185 69.4993C25.4908 69.8963 25.0631 70.2933 24.6354 70.6903L24.2077 71.0873C23.78 71.4844 23.3523 71.4844 22.9246 71.4844C22.9246 71.4844 22.9246 71.4844 22.4969 71.0873C21.6415 70.6903 20.7861 70.2933 19.9307 70.2933C19.503 70.2933 19.0753 70.2933 18.2199 70.6903C16.9368 71.0873 16.0814 71.8814 15.6537 73.0724C15.226 73.8665 15.6537 73.8665 16.0814 74.2635C15.6537 73.8665 16.5091 73.8665 16.9368 73.0724Z" fill="#1E1E1E"/>
<path d="M63.3418 57.8658C61.631 59.8509 59.9202 59.0568 58.6371 58.6598C58.2094 58.2628 57.354 58.2628 56.9263 58.2628C56.4986 58.2628 55.6432 58.2628 55.2155 58.6598C55.2155 58.6598 54.7878 59.0568 54.3601 59.0568C53.9324 59.4538 53.5047 59.8509 53.077 59.8509C52.6493 59.8509 52.2216 59.4538 51.7939 59.0568C51.3662 58.6598 50.9385 58.6598 50.9385 58.2628C50.5108 58.2628 50.0831 57.8658 49.6554 58.2628C49.2277 58.2628 48.7999 58.6598 48.3722 59.0568C47.0891 60.2479 46.2338 60.2479 45.3783 59.0568L44.9506 58.6598C43.6675 57.4688 42.8121 57.8658 42.3844 57.8658C41.9567 57.8658 41.529 58.2628 41.1013 58.6598C40.6736 59.0568 40.2459 59.4538 40.2459 59.8509C39.8182 59.8509 39.3905 60.2479 39.3905 59.8509C39.3905 59.8509 38.9628 59.8509 38.9628 59.4538C38.5351 59.4538 38.5351 59.0568 38.1074 59.0568C37.252 58.6598 36.3966 58.2628 35.5412 58.2628C35.1135 58.2628 34.6858 58.6598 33.8304 58.6598C32.5473 59.0568 30.4088 60.2479 28.698 57.8658C28.2703 57.4688 27.4149 57.4688 26.9872 57.4688C26.1318 57.8658 25.7041 58.6598 25.2764 59.4538C24.8487 59.8509 24.8487 60.2479 24.421 60.6449C23.9933 61.0419 23.5656 61.4389 22.7102 61.4389C21.8548 61.4389 21.4271 61.0419 20.9994 60.6449C20.5717 59.8509 20.144 59.4538 19.2886 59.4538C18.8609 59.4538 18.8609 59.0568 18.0055 59.0568C16.7224 59.0568 15.0116 59.8509 12.873 64.218C12.873 64.6151 12.873 65.0121 12.873 65.4091C13.3007 65.8061 13.7285 66.2031 14.1562 65.8061C14.1562 65.8061 14.5839 65.8061 15.0116 65.4091C15.4393 64.6151 15.867 64.218 16.2947 63.424C16.2947 63.027 16.7224 62.63 16.7224 62.63C16.7224 62.63 16.7224 62.233 17.1501 62.233C17.1501 61.8359 17.5778 61.4389 18.0055 61.4389C18.8609 61.4389 18.8609 61.8359 19.2886 62.233C20.144 63.424 20.9994 63.821 21.8548 64.218C23.1379 64.6151 24.421 63.821 24.8487 63.424C25.2764 63.027 25.7041 62.63 26.1318 61.8359C26.5595 61.4389 26.5595 61.0419 26.9872 60.6449C26.9872 60.2479 27.4149 60.2479 27.8426 60.2479C28.2703 60.2479 28.2703 60.2479 28.698 60.6449C29.5534 61.4389 30.8365 61.8359 31.6919 61.8359C32.5473 61.8359 33.4027 61.8359 34.2581 61.4389C34.6858 61.4389 34.6858 61.0419 34.6858 61.0419C35.5412 60.6449 36.3966 60.2479 37.6797 61.0419C39.3905 62.233 40.6736 62.233 41.9567 61.4389C42.3844 61.4389 42.3844 61.0419 42.8121 60.6449C42.8121 60.2479 43.2398 60.2479 43.6675 60.2479C44.0952 60.2479 44.5229 60.2479 44.5229 60.6449C44.9506 61.0419 45.3783 61.4389 45.806 61.4389C47.0891 61.8359 49.2277 61.8359 50.0831 60.6449C50.0831 60.2479 50.5108 60.2479 50.9385 59.8509C51.3662 59.8509 51.7939 59.8509 51.7939 60.2479C52.2216 60.6449 52.2216 60.6449 52.6493 61.0419C53.5047 61.4389 53.9324 61.4389 54.7878 61.4389C55.2155 61.4389 55.2155 61.0419 55.6432 61.0419C56.0709 60.6449 56.4986 60.2479 57.354 60.2479C58.2094 60.2479 59.0648 60.6449 59.4925 60.6449C59.9202 60.6449 60.3479 61.0419 60.3479 61.0419C62.0587 61.4389 64.1972 60.6449 65.4803 59.4538C65.908 59.0568 65.908 58.6598 65.908 58.6598C65.0526 57.8658 64.6249 57.4688 64.1972 57.4688C64.1972 57.4687 63.7695 57.4688 63.3418 57.8658Z" fill="#1E1E1E"/>
<path d="M28.9568 48.2179C28.1014 47.8209 27.2459 47.8209 26.3905 47.8209C25.9628 47.8209 25.1074 48.2179 24.252 48.6149C23.8243 49.0119 23.8243 49.409 23.3966 49.409C23.3966 49.806 22.9689 49.806 22.5412 49.806C22.1135 49.806 21.6858 49.806 21.6858 49.409C21.2581 49.0119 21.2581 49.0119 20.8304 48.6149C20.4027 47.8209 19.5473 47.4239 18.6919 47.0269C17.8365 47.0269 17.4088 47.0269 16.5534 47.8209C15.698 48.2179 14.8426 48.6149 13.9872 48.6149C13.5595 48.6149 12.7041 48.6149 12.7041 49.409C12.7041 49.806 12.7041 50.203 12.7041 50.203L13.1318 50.6C14.4149 50.6 15.2703 50.6 16.1257 50.6C16.5534 50.6 16.9811 50.203 17.4088 50.203C17.4088 50.203 17.8365 50.203 18.2642 50.203C18.6919 50.203 19.1196 50.203 19.1196 50.6C19.5473 51.394 19.975 51.7911 20.8304 52.1881C21.6858 52.5851 22.5412 52.9821 23.3966 52.5851C24.252 52.1881 24.6797 51.7911 25.1074 50.997L25.5351 50.6C25.9628 50.203 26.3905 50.203 26.8182 50.203C27.6737 50.203 27.6736 50.6 28.1013 50.6C28.5291 50.6 29.3844 50.997 29.8121 50.997C30.6675 50.997 31.523 50.997 32.3784 50.203C32.8061 50.203 32.8061 49.806 32.8061 49.806C32.8061 49.409 32.8061 49.409 32.3784 49.0119C31.9507 47.8209 31.523 47.8209 31.0953 48.2179C30.6676 48.6149 30.2399 48.6149 30.2399 48.6149C29.8122 48.6149 29.3845 48.2179 28.9568 48.2179Z" fill="#1E1E1E"/>
<path d="M54.3609 90.4215V90.0245C54.3609 90.0245 54.7886 88.8335 53.9332 88.4364H53.5055H53.0778C53.0778 88.4364 52.6501 88.4364 52.6501 88.8335C51.7947 90.4215 52.2224 91.6126 52.6501 92.4066C53.0778 93.5977 54.3609 95.1857 56.4994 95.5827C59.4933 96.7738 63.7704 96.3768 66.7643 94.7887C69.7582 92.8036 70.6136 89.6275 69.7582 86.4514C68.9028 83.6722 66.3366 80.4961 62.915 80.0991C59.0656 79.3051 55.644 81.2901 54.3609 84.8633C54.3609 85.2603 54.3609 85.2603 54.3609 85.6573C54.3609 86.0543 54.7886 86.0543 55.2163 86.0543C55.644 86.0543 56.4994 85.6573 56.4994 85.2603V84.8633V84.4663C56.4994 84.0693 56.9271 84.0693 56.9271 83.6722C56.9271 83.2752 57.3548 83.2752 57.3548 83.2752C57.3548 83.2752 57.3548 83.2752 57.7825 82.8782L58.2102 82.4812C59.4933 81.6872 60.3487 81.2901 61.6319 81.2901C62.4873 81.2901 63.7704 81.6872 64.6258 82.4812C65.4812 83.2752 66.3366 84.0693 67.192 85.6573C67.6197 86.8484 68.0474 88.0394 68.0474 88.8335C68.0474 89.2305 68.0474 90.0245 67.6197 90.4215C67.6197 90.8185 67.192 91.6126 66.7643 92.0096C65.9089 92.8036 65.0535 93.5977 63.3426 93.9947C62.0595 94.3917 60.7764 94.3917 59.0656 94.3917C57.7825 94.3917 56.4994 93.5977 55.644 92.8036C55.2163 92.4066 54.7886 92.0096 54.3609 91.2156V90.8185C54.3609 90.4215 54.3609 90.4215 54.3609 90.4215Z" fill="#1E1E1E"/>
<path d="M83.104 30.0347C82.9756 25.8661 82.8901 21.7371 82.8901 17.5684C82.7618 15.4642 83.275 11.8911 80.5377 11.0176C79.554 10.7 78.442 10.7 77.4155 10.7397C57.9551 11.2558 38.4947 11.8117 19.0771 12.3278C16.8958 12.4072 14.629 12.4469 12.576 13.2409C10.523 14.035 8.72669 15.6627 8.51284 17.6875C8.4273 18.4021 8.59838 19.1962 9.19716 19.5932C9.79594 20.0299 10.908 19.752 10.9935 19.0771C11.0363 18.7595 10.908 18.4418 10.9507 18.1639C11.079 17.6081 11.8489 17.4493 12.4905 17.4096C18.7777 16.9332 25.1077 16.3774 31.3949 16.0597C37.8532 15.7421 44.3114 15.5039 50.7697 15.3054C51.3685 15.3054 52.01 15.2657 52.6516 15.2657C56.4154 15.1466 60.1364 15.0672 63.9002 14.9481C63.9002 14.9481 74.9348 14.9481 75.4481 14.9481C76.5173 14.9481 79.1263 14.5511 79.7679 15.3848C80.9227 16.9729 80.1528 21.221 80.1956 23.0472C80.4094 29.598 80.6233 36.1885 81.051 42.7393C82.0347 58.4214 82.2485 74.1433 82.3341 89.8652C82.3341 90.9371 82.9329 92.4061 84.0021 92.0488C84.5581 91.8503 84.772 91.215 84.8575 90.6592C85.4563 87.1655 85.4135 83.5923 85.328 80.0589C84.9003 63.3445 83.6172 46.6697 83.104 30.0347Z" fill="#1E1E1E"/>
<path d="M91.4424 19.8322C91.0147 15.068 91.0147 9.90678 90.587 5.14258V4.74556C90.587 3.55451 90.587 2.36346 89.7316 1.56942C88.8762 0.775391 87.1654 0.775391 85.8823 0.775391C85.4546 0.775391 85.0269 0.775391 85.0269 0.775391C74.3343 0.775391 63.6418 1.17241 53.377 1.17241C40.5459 1.56942 30.7088 2.36346 21.7271 2.76048C20.4867 2.80018 19.5458 3.15749 18.7332 3.79272C18.6904 3.91182 18.6049 4.07063 18.5621 4.18974C18.4338 4.54705 18.3482 4.86467 18.2627 5.22198C18.2627 5.30138 18.2627 5.34109 18.2627 5.42049C18.2627 5.49989 18.3055 5.81751 18.3055 5.93661C18.3055 6.01602 18.3482 6.09542 18.3482 6.17482C18.391 6.25423 18.4765 6.45273 18.5193 6.57184C18.5193 6.61154 18.5193 6.61154 18.5193 6.61154C18.5193 6.65124 18.5621 6.69094 18.5621 6.69094C18.6049 6.77035 18.6904 6.84975 18.7332 6.92915C18.7332 6.92915 18.7332 6.96886 18.7759 6.96886C18.7759 6.96886 18.8615 7.04826 18.9042 7.08796C18.947 7.08796 18.947 7.12766 18.9898 7.12766C19.0753 7.16736 19.1609 7.20707 19.2464 7.24677C19.3319 7.28647 19.4175 7.28647 19.503 7.32617C20.4012 6.92915 21.8554 7.04826 22.6253 7.00856C23.78 6.92915 24.8921 6.81005 26.0469 6.69094C41.4441 5.49989 56.8414 5.10288 71.8109 4.70586H83.3588C83.7865 4.70586 83.7865 4.70586 84.2142 4.70586H86.7804C87.2081 4.70586 87.6358 5.10288 87.6358 5.49989C87.6358 5.49989 87.6358 5.49989 87.6358 5.89691C88.0635 7.48498 88.0635 8.67603 88.0635 9.86708V11.8522C88.0635 18.6015 88.4912 25.7478 88.919 32.497C89.7744 48.3777 90.202 64.6554 90.202 80.9331C90.202 81.7272 91.4852 81.7272 91.4852 81.7272C91.4852 82.1242 92.3406 81.7272 92.3406 80.9331C92.3406 80.6552 92.3406 80.417 92.3406 80.1391C92.7683 80.1391 93.196 80.1391 93.196 79.3451C93.1532 59.1369 92.2978 39.286 91.4424 19.8322Z" fill="#1E1E1E"/>
</svg>
