<svg width="365" height="330" viewBox="0 0 365 330" fill="none" xmlns="http://www.w3.org/2000/svg">
<path fill-rule="evenodd" clip-rule="evenodd" d="M338.129 240.895C337.298 241.149 336.328 241.535 335.535 242.233C334.616 243.044 334.129 244.093 333.812 244.931C333.069 246.79 332.479 249.35 333.714 251.633L333.717 251.637C334.713 253.463 336.637 254.58 338.533 255.058C340.452 255.541 342.409 255.436 344.189 255.134L344.198 255.132L344.207 255.131C345.075 254.972 346.184 254.727 347.158 254.086C348.068 253.5 348.696 252.684 349.109 251.86C350.854 248.514 349.879 245.098 347.583 242.909C345.313 240.744 341.744 239.736 338.129 240.895ZM345.511 245.076C346.969 246.466 347.502 248.465 346.444 250.484L346.438 250.497L346.431 250.51C346.202 250.97 345.897 251.333 345.528 251.57L345.519 251.576L345.511 251.581C345.082 251.865 344.499 252.031 343.676 252.181C342.121 252.445 340.625 252.495 339.267 252.152C337.884 251.804 336.822 251.064 336.353 250.206C335.776 249.138 335.942 247.679 336.603 246.03L336.608 246.016L336.613 246.003C336.881 245.294 337.156 244.801 337.52 244.48C337.837 244.201 338.326 243.967 339.016 243.757L339.027 243.754L339.038 243.75C341.598 242.926 344.027 243.661 345.511 245.076Z" fill="#F1C527"/>
<path d="M144.61 1.52896C106.986 7.4025 74.508 43.4766 49.0772 72.6012C23.628 102.059 5.40085 124.41 1.06039 148.556C-3.28006 172.702 6.61667 198.328 14.2437 228.837C21.8707 259.346 27.0712 294.562 47.6849 313.114C68.1234 331.823 103.975 333.868 131.135 321.55C158.451 309.408 177.251 282.745 201.15 257.209C224.893 231.497 253.734 206.911 265.694 171.504C277.654 136.097 272.872 90.3794 249.026 55.1024C225.161 20.1584 182.391 -4.16857 144.61 1.52896Z" fill="white"/>
<path d="M348.011 209.069C348.058 208.515 348.09 207.935 348.16 207.366C348.27 206.072 348.404 204.763 348.593 203.489C348.947 200.957 349.553 198.511 350.491 196.172C350.775 195.468 351.73 195.253 352.385 195.612C352.44 195.647 352.511 195.707 352.543 195.757C352.779 195.818 353.008 195.92 353.206 196.075C356.427 198.566 359.671 201.041 362.908 203.557C363.413 203.939 363.516 204.784 363.248 205.303C362.641 206.594 361.157 206.967 359.95 207.515L356.242 209.181C354.924 209.764 353.583 210.362 352.281 210.97C351.122 211.489 349.354 212.775 348.304 211.265C347.799 210.567 347.964 209.834 348.011 209.069ZM355.144 206.441C356.146 205.987 357.124 205.547 358.126 205.092C358.584 204.874 359.057 204.682 359.515 204.464C357.194 202.668 354.873 200.872 352.528 199.091C352.04 200.623 351.662 202.225 351.426 203.843C351.253 204.932 351.143 206.016 351.033 207.1C350.993 207.51 350.954 207.92 350.891 208.344C351.278 208.171 351.664 207.998 352.051 207.825L355.144 206.441Z" fill="#1E1E1E"/>
<path d="M204.084 186.968C202.833 191.704 201.558 196.509 200.238 201.222C198.667 206.929 197.026 212.612 195.363 218.365C192.105 229.663 188.71 241.377 186.146 252.903C185.08 257.776 189.962 259.302 196.948 260.981C198.382 261.298 199.654 261.639 200.765 262.004L289.085 290.234C290.682 290.758 291.231 289.325 291.345 288.978C291.482 288.562 291.754 287.269 290.296 286.79L195.08 256.374C194.664 256.237 194.178 256.077 193.669 255.987C192.744 255.76 191.749 255.51 190.87 255.145L189.504 254.62L189.66 253.211C189.839 251.734 190.479 250.023 190.981 248.498C191.232 247.736 191.46 247.042 191.62 246.557L210.992 175.332C213.769 165.029 216.66 154.379 219.852 143.981C221.722 137.835 223.64 132.243 225.536 126.95C225.627 126.673 225.764 126.257 225.901 125.841C226.539 123.669 226.995 122.052 228.031 121.24L228.675 120.453L230.015 120.355C231.701 120.14 233.414 120.78 234.941 121.281C235.427 121.44 235.913 121.6 236.26 121.714L241.58 123.077C266.725 129.412 292.058 136.577 316.839 144.252C323.179 146.257 329.519 148.262 335.905 150.359C336.252 150.473 336.669 150.609 337.062 150.815C337.757 151.043 338.497 151.363 339.006 151.454L342.269 152.525L341.883 154.165C341.791 154.442 341.77 154.742 341.679 155.25C340.858 157.746 340.335 160.033 339.721 162.366C339.403 163.567 339.153 164.791 338.835 165.993C335.488 178.26 332.142 190.527 328.657 202.749C320.775 230.427 312.089 259.147 303.009 287.661C302.507 289.186 303.942 289.734 304.289 289.848C304.591 290.101 305.978 290.326 306.48 288.801C317.682 253.609 328.258 218.212 337.798 183.627C340.212 174.894 342.556 166.139 344.9 157.383L345.15 156.39C345.765 154.287 346.288 152.231 345.357 150.62C344.333 148.824 341.858 148.165 339.475 147.459C338.92 147.277 338.341 147.164 337.855 147.005C320.709 141.375 303.171 136.001 285.866 131.087C264.766 125.082 248.573 120.763 233.306 117.134C230.947 116.59 228.588 116.046 226.789 117.068C224.899 118.138 224.008 120.61 223.14 123.014L222.637 124.308C219.825 131.681 217.177 139.723 214.329 149.542C210.775 161.972 207.361 174.678 204.084 186.968Z" fill="#1E1E1E"/>
<path d="M222.729 124.262L223.232 122.967C224.101 120.564 224.992 118.091 226.882 117.022C228.68 115.999 231.04 116.543 233.399 117.087C248.665 120.717 264.882 124.966 285.958 131.041C303.333 135.977 320.802 141.328 337.948 146.958C338.434 147.117 338.989 147.3 339.568 147.413C342.02 148.141 344.473 148.869 345.45 150.573C346.381 152.185 345.812 154.149 345.243 156.343L344.993 157.336C342.649 166.092 340.304 174.848 337.891 183.581C328.236 218.281 317.682 253.609 306.48 288.801C305.978 290.326 304.591 290.101 304.289 289.848C303.942 289.734 302.577 289.209 303.009 287.661C312.089 259.147 320.753 230.497 328.748 202.472C332.234 190.25 335.65 178.005 338.927 165.715C339.245 164.514 339.564 163.313 339.813 162.088C340.335 159.802 340.949 157.468 341.771 154.973C341.838 154.534 341.953 154.187 341.974 153.887C342.248 153.055 341.713 152.112 340.811 151.815L339.075 151.246C338.567 151.155 337.803 150.905 337.131 150.607C336.715 150.471 336.321 150.264 335.974 150.15C329.657 148.076 323.317 146.072 316.908 144.044C292.127 136.369 266.863 129.227 241.649 122.869L236.329 121.506C235.982 121.392 235.496 121.232 235.01 121.073C233.483 120.571 231.747 120.002 230.084 120.147C229.436 120.011 228.491 120.546 228.1 121.032C227.133 121.867 226.608 123.461 225.97 125.633C225.81 126.118 225.766 126.488 225.605 126.742C223.639 132.012 221.791 137.627 219.921 143.773C216.729 154.17 213.838 164.821 211.061 175.124L191.689 246.349C191.506 246.904 191.301 247.528 191.05 248.29C190.548 249.815 189.93 251.456 189.729 253.003C189.617 253.811 190.105 254.663 190.846 254.983C191.726 255.349 192.721 255.599 193.646 255.825C194.132 255.985 194.64 256.075 195.057 256.212L290.296 286.79C291.754 287.269 291.459 288.632 291.345 288.978C291.254 289.255 290.705 290.689 289.085 290.234L200.765 262.004C199.654 261.639 198.359 261.368 196.948 260.981C189.962 259.302 185.103 257.707 186.146 252.903C188.733 241.307 192.105 229.663 195.363 218.365C197.003 212.682 198.667 206.929 200.238 201.222C201.489 196.487 202.833 191.704 204.084 186.968C207.361 174.678 210.776 161.972 214.399 149.565C217.27 139.676 219.917 131.635 222.729 124.262Z" fill="#1E1E1E"/>
<path d="M190.868 255.144C190.058 254.801 189.616 254.041 189.751 253.164L189.595 254.572L190.868 255.144Z" fill="#1E1E1E"/>
<path d="M228.055 121.171C228.446 120.685 229.461 120.173 230.039 120.286L228.699 120.384L228.055 121.171Z" fill="#1E1E1E"/>
<path d="M340.811 151.815C341.713 152.112 342.179 153.032 342.021 153.979L342.407 152.339L340.811 151.815Z" fill="#1E1E1E"/>
<path d="M240.251 140.724C241.098 140.951 241.818 141.37 242.429 141.911C242.673 142.128 243.261 143.04 243.59 143.506C243.867 143.883 244.478 144.424 244.883 144.608C245.942 144.891 247.208 144.399 249.153 143.635C249.831 143.363 250.67 143.059 251.06 143.012C252.802 142.723 254.252 142.96 255.409 143.722C255.531 143.831 255.827 144.137 256.001 144.334C256.453 144.908 257.097 145.609 257.995 145.925C259.087 146.369 260.405 145.966 261.474 145.648C261.724 145.563 261.954 145.549 262.133 145.446C263.805 145.138 265.764 144.604 267.26 145.231C268.813 145.647 269.715 146.795 270.786 148.441C270.847 149.062 271.227 149.617 271.754 149.909C272.21 150.182 272.813 150.193 273.331 149.953C274.324 149.917 275.2 149.472 275.968 149.148C276.236 148.993 276.575 148.857 276.825 148.773C278.694 148.291 280.13 148.298 281.344 148.849C282.205 149.306 282.585 149.861 283.102 150.755C283.534 151.399 283.967 152.044 284.54 152.726C285.01 153.23 285.716 153.419 286.375 153.217C286.446 153.236 286.945 153.067 287.034 153.016C287.553 152.777 288.141 152.557 288.711 152.407C289.281 152.257 290.043 152.234 290.768 152.353C292.095 152.481 293.252 153.244 294.456 154.397C294.733 154.774 295.062 155.239 295.391 155.705C296.03 156.707 296.721 157.799 297.737 158.524C298.296 158.976 299.129 158.972 299.756 158.611C299.756 158.611 299.845 158.559 299.954 158.437C300.043 158.385 300.133 158.334 300.152 158.263L301.339 157.221C301.843 156.752 302.418 156.301 302.866 156.043C303.831 155.546 304.632 155.383 305.337 155.571L305.408 155.59C307.365 156.19 308.995 159.421 310.178 161.777L310.916 163.259C311.62 164.581 310.701 165.468 310.004 165.81C309.557 166.068 308.469 166.457 307.816 165.225C307.628 164.797 307.299 164.331 306.989 163.795C306.505 163.061 305.97 162.238 305.627 161.542C305.387 161.024 304.898 160.591 304.334 160.44C303.769 160.289 303.129 160.42 302.714 160.838C301.437 161.931 300.452 162.499 299.421 162.676C296.808 163.111 295.243 161.332 293.09 158.64L292.639 158.066C291.06 156.057 290.213 155.831 287.628 156.725C285.97 157.264 284.605 157.276 283.462 156.744C282.954 156.381 282.625 155.916 282.16 155.111C281.695 154.307 281.127 153.324 280.162 152.688C278.883 151.817 277.437 152.412 275.992 153.007C275.511 153.106 275.083 153.293 274.673 153.41C273.124 153.827 271.881 153.947 270.86 153.523C269.943 153.277 269.491 152.703 268.885 151.861C268.434 151.287 267.983 150.713 267.442 150.191C266.596 148.831 265.693 148.816 264.949 148.768C263.833 148.696 263.014 148.93 262.355 149.132C262.105 149.216 261.856 149.3 261.625 149.314C260.184 149.609 258.602 149.865 257.191 149.488C256.697 149.355 256.015 148.795 255.474 148.273C254.618 147.515 253.814 146.846 252.685 146.544C251.325 146.256 249.79 146.903 248.344 147.498C247.755 147.718 247.237 147.957 246.827 148.074C245.316 148.35 244.111 148.33 243.038 147.816C242.775 147.67 242.112 147.039 241.764 146.644C240.579 145.42 238.802 143.585 236.885 144.81C236.24 145.241 235.816 145.128 235.482 144.963C234.885 144.652 234.401 143.918 234.378 143.157C234.337 142.466 234.629 141.94 235.256 141.578C236.763 140.471 238.614 140.059 240.251 140.724Z" fill="#1E1E1E"/>
<path d="M271.57 179.232C271.482 178.151 270.965 177.257 270.213 176.678C269.268 175.972 267.87 175.825 266.41 176.189C263.67 176.816 262.041 176.683 260.838 175.529C260.175 174.899 259.71 174.094 259.296 173.379C259.296 173.379 259.109 172.951 259.038 172.932C258.935 172.754 258.78 172.486 258.728 172.396C258.559 171.898 258.211 171.502 257.807 171.319C256.664 170.786 255.242 171.01 253.391 171.421C252.982 171.539 252.662 171.604 252.412 171.688C250.67 171.978 248.825 172.088 247.315 171.231C246.647 170.901 246.035 170.36 245.551 169.626C245.448 169.447 245.274 169.249 245.171 169.071L244.912 168.624C244.429 167.89 243.53 167.574 242.692 167.878C242.602 167.93 242.442 167.963 242.353 168.014C242.174 168.118 241.976 168.291 241.778 168.465C241.618 168.498 240.266 168.741 239.363 168.725C238.44 168.781 237.593 168.554 236.873 168.135C236.154 167.716 235.477 166.855 235.397 166.304C235.389 165.773 235.182 165.416 234.745 165.072C234.326 164.658 233.794 164.667 233.243 164.746C232.763 164.844 232.283 164.942 231.713 165.092C231.125 165.312 230.56 165.161 230.212 164.766C229.671 164.243 229.456 163.355 229.645 162.65C229.796 162.086 230.192 161.739 230.851 161.537C233.879 160.685 236.213 161.008 237.553 162.499C237.849 162.805 238.127 163.182 238.295 163.68C238.535 164.198 238.972 164.541 239.447 164.744C239.871 164.857 240.563 164.816 241.01 164.558C241.477 164.229 243.219 163.94 243.892 163.969C245.097 163.989 246.188 164.432 246.955 165.242C247.251 165.548 247.631 166.103 247.89 166.55C247.942 166.639 248.219 167.015 248.27 167.105C248.383 167.815 248.928 168.036 249.653 168.155C250.096 168.198 250.609 168.259 251.159 168.18C251.922 168.157 252.581 167.956 253.292 167.844C253.843 167.765 254.323 167.667 254.784 167.639C257.308 167.257 259.252 167.626 260.526 168.798C261.33 169.466 261.776 170.341 262.241 171.145L262.584 171.841C262.978 172.627 263.769 173.065 264.64 172.92C264.8 172.888 265.03 172.874 265.44 172.757C266.9 172.392 268.425 172.347 269.836 172.724C270.684 172.951 271.563 173.338 272.245 173.898C273.981 175.042 275.028 177.06 275.218 179.453C275.287 180.605 274.43 180.98 273.738 181.021C273.046 181.063 271.616 180.755 271.57 179.232Z" fill="#1E1E1E"/>
<path d="M226.295 179.298C226.596 179.303 227.019 179.416 227.362 180.113C229.334 184.04 232.639 183.564 234.753 183.299C235.784 183.122 236.796 183.015 237.733 183.19C238.811 183.403 239.46 183.803 240.245 184.542C240.489 184.758 240.851 185.384 241.18 185.85C241.993 187.049 242.289 187.355 243.047 187.634C243.823 187.841 244.271 187.583 245.556 187.021C246.164 186.73 246.861 186.388 247.271 186.271C247.892 186.21 248.815 186.155 249.746 186.631C250.536 187.069 251.194 188.001 251.608 188.716C253.228 191.416 254.358 191.718 256.755 190.395L257.273 190.156C259.831 188.801 261.115 189.371 262.06 190.077C262.742 190.637 263.207 191.442 263.724 192.335C264.081 193.262 264.405 194.029 264.856 194.603C265.274 195.017 265.891 195.257 266.531 195.126C266.762 195.112 267.011 195.028 267.209 194.854C267.35 194.892 267.529 194.789 267.6 194.808C268.099 194.639 268.598 194.471 269.078 194.373C271.056 193.769 272.356 193.436 273.922 194.082C274.68 194.36 275.484 195.029 276.218 195.678C278.122 197.321 281.319 200.066 284.906 196.568C285.806 195.751 286.916 196.124 287.598 196.684C288.891 197.785 289.365 199.121 289.904 200.776C290.209 201.613 290.495 202.521 290.993 203.485C291.491 204.449 291.97 205.484 293.189 205.735C294.389 206.056 295.322 205.399 296.184 204.723C297.493 203.789 298.407 203.203 299.368 203.006C299.848 202.908 300.559 202.796 301.477 203.042C303.382 203.552 305.95 205.825 307.756 214.317C307.869 215.027 307.717 215.591 307.213 216.06C306.619 216.581 305.64 216.848 305.113 216.556C304.831 216.48 304.445 216.226 304.281 215.427C304.019 214.148 303.597 212.902 303.175 211.655C302.973 210.997 302.772 210.339 302.57 209.68C302.505 209.361 302.439 209.041 302.355 208.792C302.205 208.223 302.008 207.264 300.987 206.839C299.736 206.429 299.123 207.02 298.369 207.574C296.395 209.01 294.996 209.996 293.259 209.984C290.99 209.981 289.528 208.382 288.87 207.45C288.264 206.608 287.894 205.451 287.542 204.224C287.289 203.476 287.106 202.747 286.834 202.07C286.646 201.642 286.298 201.247 285.823 201.044C285.348 200.841 284.887 200.869 284.387 201.038C282.513 201.82 280.63 202.072 278.865 201.6C277.524 201.241 276.259 200.6 275.158 199.626C274.792 199.301 274.495 198.995 274.251 198.779C272.906 197.588 271.904 197.093 269.389 198.007C265.806 199.239 263.773 198.921 262.071 196.804C261.672 196.319 261.272 195.835 261.103 195.336C260.934 194.838 260.413 194.245 259.867 194.023C259.392 193.82 258.719 193.791 258.182 194.101C257.428 194.655 256.34 195.044 255.398 195.169C253.195 195.486 249.459 194.185 249.001 191.947C248.94 191.326 248.649 190.719 248.122 190.427C247.595 190.135 246.922 190.106 246.385 190.416C245.867 190.655 245.33 190.964 244.761 191.114C243.371 191.498 242.237 191.497 241.113 190.894C240.708 190.71 240.276 190.065 239.825 189.491C239.218 188.649 238.561 187.718 237.559 187.223C236.293 186.582 234.782 186.857 233.412 187.171C232.771 187.302 232.131 187.432 231.759 187.409C228.643 187.179 225.77 185.201 224.295 182.238C223.952 181.542 224.033 180.959 224.415 180.382C224.835 179.663 225.621 179.269 226.295 179.298Z" fill="#1E1E1E"/>
<path d="M221.299 200.947C221.403 201.126 221.596 201.253 221.788 201.38C222.033 201.596 222.386 201.691 222.668 201.766C223.482 201.833 224.335 201.759 225.116 201.666C226.59 201.531 228.044 201.467 229.385 201.826C230.354 202.161 231.672 202.891 232.409 204.373C232.7 204.98 232.902 205.638 233.084 206.367C233.234 206.936 233.634 207.42 234.179 207.642C234.725 207.863 235.328 207.874 235.794 207.545C236.331 207.235 236.868 206.926 237.353 206.527C238.574 205.645 239.935 204.8 241.229 204.769C242.505 204.808 243.097 205.42 244.296 206.874C245.443 208.238 246.882 209.077 248.28 209.224C249.236 209.329 250.308 209.842 250.288 211.046C250.316 211.506 250.004 212.103 249.589 212.521C249.392 212.695 249.104 212.92 248.662 212.877C246.61 212.63 245.076 212.144 243.796 211.273C243.096 210.783 242.466 210.312 242.014 209.738C241.789 209.451 241.384 209.268 241.031 209.173C240.467 209.022 239.916 209.101 239.449 209.43C238.3 210.331 237.136 211.002 236.227 211.287C234.64 211.845 233.012 211.711 231.714 210.911C230.75 210.275 230.059 209.183 229.557 207.387L229.29 206.409C229.056 205.591 228.214 205.063 227.362 205.138C226.246 205.066 225.535 205.178 224.843 205.219C223.761 205.307 222.767 205.344 221.812 205.239C220.221 204.965 219.083 204.131 218.238 202.772C217.96 202.395 218.022 201.883 218.098 201.601C218.23 201.108 218.593 200.6 218.97 200.324C219.917 199.897 220.848 200.373 221.299 200.947Z" fill="#1E1E1E"/>
<path d="M211.654 244.838C208.729 240.564 207.888 234.006 209.809 229.555C211.881 224.601 216.855 221.788 222.336 222.334C227.185 222.758 233.006 225.365 235.085 230.035C237.501 235.295 235.535 241.294 230.526 244.249C230.11 244.478 229.7 244.438 229.416 244.37C228.976 244.203 228.585 243.959 228.356 243.544C227.897 242.713 228.343 241.742 229.047 241.313L229.688 240.898C229.688 240.898 230.026 240.62 230.089 240.606C230.476 240.25 230.75 239.986 231.009 239.659C231.332 239.318 231.415 239.098 231.577 238.928L231.822 238.537L232.052 238.083C232.978 235.999 232.959 234.466 232.492 232.435C232.063 230.862 230.827 229.274 229.391 228.267C227.719 227.114 226.009 226.37 223.819 225.87C221.976 225.425 220.045 225.467 218.216 225.954C217.326 226.158 216.607 226.524 215.726 227.06C215.086 227.474 214.2 228.279 213.759 228.982C212.653 230.573 212.129 232.364 212.024 234.527C211.954 236.548 212.294 238.609 213.124 240.758C213.875 242.858 215.189 244.495 216.894 245.507C217.832 246.093 218.649 246.441 219.895 246.622C219.959 246.608 220.369 246.647 220.433 246.633C220.78 246.687 221.049 246.692 221.303 246.633C221.367 246.619 221.494 246.589 221.558 246.575C221.812 246.517 222.066 246.458 222.355 246.258C222.355 246.258 222.355 246.258 222.418 246.244C222.643 246.058 223.925 245.229 224.887 246.211C225.058 246.373 225.195 246.676 225.268 246.993C225.312 247.183 225.307 247.452 225.287 247.657C225.267 247.862 225.213 248.209 224.925 248.409C222.87 249.95 220.606 250.002 219.076 249.751C216.27 249.192 213.377 247.383 211.654 244.838Z" fill="#1E1E1E"/>
<path d="M197.953 105.282C198.297 104.842 198.642 104.373 199.016 103.934C199.82 102.908 200.654 101.883 201.516 100.916C203.212 98.9817 205.079 97.2529 207.177 95.7878C207.81 95.3482 208.758 95.6706 209.132 96.3152C209.16 96.3738 209.189 96.4617 209.189 96.5203C209.361 96.6961 209.505 96.9012 209.591 97.1357C211.028 100.916 212.494 104.696 213.931 108.505C214.161 109.091 213.787 109.853 213.27 110.146C212.034 110.907 210.54 110.439 209.189 110.263L205.051 109.706C203.585 109.501 202.091 109.296 200.625 109.12C199.332 108.944 197.09 109.091 197.004 107.274C196.947 106.424 197.493 105.897 197.953 105.282ZM205.597 106.835C206.718 106.981 207.81 107.128 208.93 107.274C209.448 107.333 209.965 107.421 210.482 107.479C209.448 104.754 208.413 102.029 207.35 99.304C206.085 100.33 204.878 101.472 203.786 102.703C203.039 103.523 202.349 104.373 201.66 105.223C201.401 105.545 201.142 105.868 200.855 106.19C201.286 106.249 201.717 106.307 202.148 106.366L205.597 106.835Z" fill="#F1C527"/>
<path d="M259.32 75.0517C259.864 75.2425 260.438 75.4334 260.982 75.6242C262.25 76.0876 263.489 76.5511 264.727 77.069C267.144 78.0777 269.44 79.2772 271.524 80.7765C272.158 81.24 272.128 82.1941 271.615 82.7121C271.584 82.7666 271.524 82.7938 271.464 82.8211C271.343 83.0119 271.192 83.2028 270.98 83.3391C267.688 85.6835 264.425 88.028 261.133 90.3724C260.619 90.7541 259.773 90.5905 259.29 90.2361C258.172 89.3365 258.142 87.8371 257.9 86.5831L257.175 82.6575C256.904 81.2672 256.662 79.8769 256.39 78.4866C256.179 77.2871 255.333 75.2698 257.085 74.6973C257.9 74.452 258.595 74.7791 259.32 75.0517ZM260.166 82.4122C260.347 83.4481 260.559 84.484 260.74 85.5199C260.83 86.0106 260.921 86.5013 261.012 86.992C263.368 85.3019 265.754 83.6117 268.11 81.9215C266.691 81.0491 265.211 80.2586 263.67 79.6043C262.643 79.1681 261.586 78.7592 260.528 78.3776C260.136 78.2412 259.743 78.0777 259.32 77.9141C259.411 78.323 259.471 78.7319 259.562 79.1409L260.166 82.4122Z" fill="#1E1E1E"/>
<path d="M226.113 312.79C226.622 312.992 227.16 313.195 227.67 313.398C228.86 313.89 230.021 314.383 231.182 314.933C233.447 316.005 235.6 317.279 237.554 318.872C238.148 319.365 238.12 320.379 237.639 320.929C237.61 320.987 237.554 321.016 237.497 321.045C237.384 321.247 237.242 321.45 237.044 321.595C233.957 324.086 230.899 326.577 227.812 329.068C227.33 329.473 226.537 329.3 226.084 328.923C225.036 327.967 225.008 326.374 224.782 325.042L224.102 320.871C223.847 319.394 223.62 317.916 223.366 316.439C223.167 315.165 222.374 313.021 224.017 312.413C224.782 312.152 225.433 312.5 226.113 312.79ZM226.906 320.61C227.075 321.711 227.274 322.812 227.444 323.912C227.529 324.434 227.614 324.955 227.698 325.476C229.907 323.68 232.145 321.885 234.354 320.089C233.023 319.162 231.635 318.322 230.191 317.627C229.228 317.163 228.237 316.729 227.245 316.323C226.877 316.179 226.509 316.005 226.113 315.831C226.198 316.265 226.254 316.7 226.339 317.134L226.906 320.61Z" fill="#59C69F"/>
<path fill-rule="evenodd" clip-rule="evenodd" d="M158.719 260.464C155.95 260.82 153.031 262.378 151.773 264.946C150.421 267.691 150.909 271.021 152.713 273.383C153.092 273.888 153.617 274.444 154.325 274.831L154.338 274.838L154.351 274.844C155.454 275.418 156.699 275.379 157.461 275.354L157.465 275.354C158.6 275.314 159.974 275.206 161.256 274.656L161.259 274.655C162.821 273.983 163.964 272.778 164.82 271.687C165.573 270.737 166.33 269.603 166.728 268.26C167.126 266.915 167.151 265.288 166.37 263.864C164.762 260.915 161.514 260.105 158.719 260.464ZM159.102 263.436C161.187 263.168 162.935 263.828 163.736 265.298L163.738 265.302L163.738 265.302C164.036 265.845 164.089 266.605 163.851 267.411C163.612 268.218 163.124 268.999 162.465 269.832L162.461 269.837L162.461 269.837C161.712 270.791 160.946 271.527 160.072 271.903C159.334 272.219 158.439 272.321 157.361 272.359C156.53 272.387 156.06 272.349 155.75 272.194C155.551 272.082 155.335 271.882 155.11 271.582L155.106 271.576L155.101 271.57C153.918 270.024 153.661 267.9 154.466 266.267L154.468 266.263C155.149 264.87 156.992 263.707 159.102 263.436Z" fill="#1E1E1E"/>
</svg>
