<svg width="355" height="344" viewBox="0 0 355 344" fill="none" xmlns="http://www.w3.org/2000/svg">
<path fill-rule="evenodd" clip-rule="evenodd" d="M11.1593 216.38C11.9344 216.614 12.8515 216.973 13.6045 217.628C14.4801 218.39 14.9408 219.374 15.2387 220.149C15.9319 221.863 16.4994 224.262 15.3219 226.41L15.3194 226.415C14.3725 228.128 12.553 229.164 10.7788 229.606C8.98042 230.053 7.14928 229.955 5.49031 229.676L5.48161 229.675L5.47293 229.673C4.66569 229.528 3.61977 229.301 2.69745 228.702C1.83359 228.152 1.23688 227.388 0.844365 226.616C-0.809006 223.486 0.121462 220.288 2.28648 218.25C4.42292 216.239 7.77283 215.309 11.1593 216.38ZM4.34416 220.43C3.02442 221.673 2.55396 223.439 3.50204 225.226L3.50889 225.239L3.51548 225.252C3.72003 225.656 3.98893 225.972 4.31191 226.176L4.32078 226.182L4.32957 226.188C4.70899 226.435 5.23369 226.585 5.99646 226.723C7.43448 226.964 8.80923 227.007 10.0541 226.698C11.3245 226.382 12.2782 225.715 12.6916 224.969C13.1956 224.047 13.0618 222.762 12.4527 221.26L12.4472 221.247L12.442 221.233C12.1957 220.59 11.9497 220.162 11.6339 219.887C11.3569 219.646 10.9193 219.437 10.2825 219.245L10.2718 219.242L10.2611 219.239C7.91322 218.493 5.69312 219.16 4.34416 220.43Z" fill="#F1C527"/>
<path d="M206.717 2.17287C244.383 8.24376 288.813 27.4432 314.272 57.5463C339.75 87.9938 346.08 129.183 350.425 154.14C354.771 179.097 358.061 208.03 350.425 239.565C342.79 271.099 324.386 305.052 303.749 324.227C283.288 343.565 223.466 350.193 196.276 337.461C168.929 324.911 133.971 309.913 110.046 283.518C86.2772 256.942 70.2832 190.736 58.3097 154.14C46.3362 117.544 68.9291 73.2418 92.8014 36.7794C116.692 0.661369 168.894 -3.71609 206.717 2.17287Z" fill="white"/>
<path d="M32.7863 212.812C34.0736 217.538 35.376 222.336 36.5918 227.077C38.0884 232.803 39.5135 238.544 40.9535 244.357C43.7887 255.768 46.7134 267.608 50.2638 278.869C51.7807 283.622 56.773 282.506 63.6634 280.472C65.0641 280.031 66.3366 279.691 67.4811 279.452L158.103 259.8C159.748 259.456 159.506 257.941 159.431 257.584C159.342 257.156 158.929 255.9 157.427 256.213L59.7388 277.414C59.3096 277.504 58.8089 277.608 58.3231 277.784C57.4082 278.05 56.4218 278.33 55.477 278.453L54.0315 278.68L53.4615 277.382C52.8765 276.013 52.5743 274.212 52.2455 272.641C52.0811 271.855 51.9318 271.141 51.8272 270.641L32.9427 199.286C30.1886 188.976 27.3597 178.309 24.9185 167.711C23.4604 161.454 22.3215 155.654 21.3139 150.123C21.2541 149.838 21.1645 149.409 21.0749 148.98C20.5401 146.781 20.1247 145.153 20.6159 143.932L20.7792 142.929L21.8907 142.175C23.2433 141.148 25.0465 140.846 26.6201 140.518C27.1209 140.413 27.6216 140.309 27.9793 140.234L33.2693 138.758C58.2173 131.689 83.7438 125.245 109.047 119.519C115.542 118.089 122.036 116.66 128.616 115.287C128.974 115.212 129.403 115.123 129.847 115.104C130.563 114.955 131.365 114.862 131.85 114.687L135.212 113.985L135.699 115.598C135.759 115.884 135.89 116.155 136.066 116.64C136.604 119.211 137.297 121.452 137.933 123.78C138.259 124.979 138.656 126.164 138.981 127.363C142.225 139.658 145.469 151.953 148.57 164.278C155.603 192.183 162.46 221.392 168.873 250.62C169.202 252.191 170.719 251.949 171.077 251.874C171.464 251.943 172.779 251.445 172.45 249.873C164.531 213.803 155.967 177.868 146.913 143.153C144.631 134.385 142.277 125.632 139.923 116.879L139.643 115.894C139.123 113.766 138.546 111.724 136.933 110.793C135.147 109.749 132.674 110.415 130.256 110.993C129.684 111.113 129.127 111.304 128.626 111.408C110.958 115.094 93.0791 119.197 75.6322 123.583C54.3526 128.917 38.1666 133.263 23.1282 137.742C20.8125 138.449 18.4968 139.156 17.4516 140.94C16.3497 142.81 16.8162 145.396 17.2677 147.911L17.48 149.283C18.7363 157.072 20.4699 165.359 22.9197 175.284C26.0655 187.823 29.4707 200.532 32.7863 212.812Z" fill="#1E1E1E"/>
<path d="M17.537 149.196L17.3246 147.824C16.8731 145.309 16.4066 142.723 17.5084 140.853C18.5537 139.069 20.8694 138.362 23.1851 137.656C38.2235 133.176 54.3945 128.759 75.6891 123.496C93.2076 119.095 111.015 115.007 128.683 111.321C129.184 111.217 129.756 111.097 130.313 110.907C132.802 110.313 135.291 109.719 136.99 110.706C138.603 111.637 139.093 113.622 139.7 115.807L139.98 116.792C142.334 125.545 144.688 134.298 146.97 143.066C155.983 177.939 164.531 213.803 172.45 249.873C172.779 251.445 171.464 251.943 171.077 251.874C170.719 251.949 169.273 252.176 168.873 250.62C162.46 221.392 155.618 192.254 148.511 163.991C145.41 151.667 142.238 139.357 138.922 127.077C138.596 125.878 138.271 124.678 137.874 123.494C137.181 121.253 136.545 118.925 136.007 116.354C135.846 115.94 135.771 115.583 135.64 115.312C135.46 114.455 134.524 113.905 133.594 114.099L131.806 114.472C131.32 114.648 130.533 114.812 129.803 114.89C129.374 114.979 128.93 114.997 128.572 115.072C122.063 116.43 115.569 117.86 109.003 119.304C83.6993 125.03 58.2443 131.459 33.2248 138.543L27.9347 140.019C27.5771 140.094 27.0763 140.199 26.5756 140.303C25.0019 140.631 23.2137 141.004 21.8461 141.961C21.2173 142.166 20.6664 143.101 20.5713 143.718C20.1517 144.923 20.4955 146.566 21.0303 148.766C21.1349 149.266 21.2811 149.608 21.2693 149.909C22.2054 155.454 23.4159 161.24 24.874 167.496C27.3153 178.094 30.144 188.761 32.8981 199.071L51.7826 270.426C51.9022 270.998 52.0366 271.641 52.201 272.426C52.5297 273.998 52.817 275.727 53.4169 277.167C53.7243 277.923 54.5741 278.417 55.3759 278.324C56.3207 278.202 57.3071 277.921 58.2221 277.656C58.7228 277.551 59.2085 277.376 59.6377 277.286L157.427 256.213C158.929 255.9 159.356 257.227 159.431 257.584C159.491 257.87 159.733 259.385 158.103 259.8L67.4811 279.452C66.3366 279.691 65.079 280.102 63.6634 280.472C56.773 282.506 51.7658 283.551 50.2638 278.869C46.6984 267.536 43.7887 255.768 40.9535 244.357C39.5285 238.616 38.0884 232.803 36.5918 227.077C35.3045 222.351 34.0736 217.538 32.7863 212.812C29.4707 200.532 26.0659 187.823 22.9916 175.269C20.5269 165.272 18.7933 156.986 17.537 149.196Z" fill="#1E1E1E"/>
<path d="M55.4754 278.453C54.6021 278.56 53.8388 278.123 53.5164 277.296L54.0865 278.593L55.4754 278.453Z" fill="#1E1E1E"/>
<path d="M20.6021 143.861C20.6971 143.245 21.3196 142.295 21.8769 142.104L20.7653 142.858L20.6021 143.861Z" fill="#1E1E1E"/>
<path d="M133.594 114.099C134.524 113.905 135.389 114.47 135.726 115.368L135.239 113.755L133.594 114.099Z" fill="#1E1E1E"/>
<path d="M40.9536 154.705C41.8007 154.478 42.6339 154.482 43.4344 154.645C43.7545 154.711 44.72 155.208 45.2381 155.447C45.6666 155.634 46.467 155.798 46.9095 155.755C47.9682 155.472 48.819 154.413 50.1209 152.78C50.5721 152.206 51.1455 151.524 51.4606 151.289C52.8243 150.168 54.1983 149.65 55.5823 149.733C55.7424 149.765 56.1518 149.882 56.4014 149.967C57.0795 150.238 57.9884 150.524 58.925 150.349C60.0921 150.188 61.0324 149.181 61.7987 148.371C61.9727 148.174 62.1655 148.047 62.2688 147.868C63.562 146.766 64.9911 145.326 66.6007 145.122C68.1536 144.707 69.5099 145.25 71.262 146.141C71.625 146.649 72.2326 146.939 72.8351 146.929C73.367 146.938 73.8939 146.646 74.2228 146.18C75.0647 145.653 75.6004 144.829 76.1033 144.166C76.2583 143.898 76.4839 143.611 76.6579 143.413C78.0354 142.062 79.2819 141.351 80.6092 141.223C81.5835 141.188 82.1911 141.479 83.0861 141.995C83.7831 142.338 84.4803 142.68 85.3185 142.984C85.9777 143.186 86.6835 142.997 87.1536 142.493C87.2242 142.474 87.5721 142.079 87.6238 141.99C87.9527 141.524 88.3522 141.039 88.7707 140.625C89.1891 140.211 89.8381 139.811 90.525 139.551C91.7388 139 93.123 139.083 94.7427 139.481C95.1713 139.668 95.6892 139.907 96.2073 140.146C97.2624 140.695 98.407 141.295 99.6498 141.416C100.361 141.528 101.08 141.109 101.442 140.483C101.442 140.483 101.494 140.394 101.527 140.234C101.578 140.145 101.63 140.055 101.611 139.985L102.117 138.489C102.319 137.831 102.591 137.154 102.85 136.707C103.437 135.794 104.048 135.253 104.754 135.064L104.825 135.045C106.82 134.587 109.849 136.572 112.054 138.021L113.434 138.936C114.706 139.729 114.354 140.957 113.922 141.601C113.664 142.048 112.916 142.928 111.734 142.187C111.357 141.91 110.839 141.671 110.302 141.361C109.515 140.967 108.639 140.522 107.994 140.09C107.528 139.761 106.887 139.631 106.323 139.782C105.758 139.933 105.269 140.366 105.119 140.935C104.561 142.52 103.992 143.503 103.188 144.171C101.143 145.852 98.8964 145.093 95.6846 143.837L95.0064 143.565C92.6328 142.614 91.7858 142.84 89.9949 144.906C88.8291 146.2 87.6532 146.893 86.3965 147.002C85.7751 146.942 85.2569 146.703 84.4514 146.238C83.646 145.774 82.6617 145.206 81.5083 145.137C79.9642 145.021 79.0101 146.259 78.0561 147.496C77.6893 147.821 77.4119 148.198 77.1157 148.503C75.9827 149.638 74.9669 150.363 73.8703 150.505C72.9527 150.751 72.2746 150.479 71.3279 150.052C70.6498 149.78 69.9715 149.508 69.2417 149.326C67.8287 148.571 67.0385 149.009 66.3705 149.339C65.3685 149.834 64.7759 150.445 64.3058 150.949C64.1319 151.147 63.9581 151.344 63.7653 151.471C62.665 152.446 61.4236 153.458 60.0119 153.836C59.5178 153.968 58.6467 153.823 57.9169 153.641C56.7963 153.412 55.7652 153.234 54.6359 153.536C53.3137 153.966 52.308 155.293 51.3539 156.53C50.9544 157.015 50.6253 157.48 50.3291 157.786C49.1582 158.78 48.1046 159.364 46.9185 159.454C46.6172 159.46 45.7273 159.244 45.2282 159.076C43.5895 158.608 41.1316 157.905 40.0844 159.923C39.7416 160.619 39.3181 160.733 38.9463 160.757C38.2732 160.786 37.4866 160.392 37.0857 159.744C36.7038 159.166 36.6937 158.564 37.0554 157.939C37.8065 156.227 39.2029 154.946 40.9536 154.705Z" fill="#1E1E1E"/>
<path d="M87.3577 172.415C86.74 171.523 85.8448 171.007 84.9032 170.881C83.731 170.742 82.4468 171.312 81.3654 172.357C79.3059 174.268 77.8287 174.965 76.209 174.567C75.3191 174.352 74.5136 173.888 73.7976 173.475C73.7976 173.475 73.4207 173.198 73.3501 173.217C73.1711 173.114 72.9028 172.959 72.8133 172.907C72.4174 172.56 71.9182 172.391 71.4757 172.434C70.2191 172.544 69.0998 173.448 67.7033 174.728C67.4071 175.034 67.1627 175.25 66.9888 175.448C65.6251 176.568 64.0823 177.586 62.3454 177.597C61.6017 177.645 60.8014 177.481 60.0148 177.088C59.8358 176.984 59.5862 176.9 59.4073 176.797L58.9597 176.539C58.1732 176.145 57.2367 176.32 56.6632 177.002C56.6116 177.092 56.4892 177.2 56.4375 177.289C56.3342 177.468 56.2499 177.717 56.1654 177.967C56.0432 178.075 54.9945 178.96 54.2043 179.398C53.4329 179.906 52.5859 180.133 51.7527 180.129C50.9195 180.126 49.9023 179.718 49.5581 179.281C49.2846 178.826 48.9266 178.619 48.3758 178.54C47.806 178.39 47.3497 178.663 46.9124 179.007C46.5456 179.332 46.179 179.657 45.7605 180.071C45.361 180.555 44.7963 180.706 44.2971 180.538C43.5673 180.355 42.9357 179.693 42.7466 178.988C42.5953 178.425 42.764 177.926 43.2342 177.423C45.4297 175.173 47.6128 174.287 49.5199 174.91C49.9296 175.027 50.3582 175.214 50.7541 175.562C51.2205 175.89 51.7712 175.969 52.2842 175.908C52.7077 175.794 53.2863 175.413 53.5447 174.966C53.7841 174.449 55.1478 173.328 55.7453 173.017C56.799 172.433 57.966 172.272 59.0349 172.59C59.4446 172.707 60.0523 172.998 60.4998 173.256C60.5893 173.308 61.0178 173.495 61.1073 173.547C61.5599 174.106 62.1434 174.025 62.8303 173.766C63.2349 173.582 63.7101 173.379 64.1475 173.035C64.7966 172.635 65.2667 172.131 65.8263 171.68C66.2637 171.336 66.6305 171.011 67.0161 170.757C69.0101 169.166 70.878 168.515 72.5683 168.893C73.5993 169.071 74.4237 169.606 75.2292 170.07L75.8747 170.502C76.6096 170.985 77.5132 170.97 78.1951 170.41C78.3174 170.301 78.5102 170.174 78.8064 169.868C79.8878 168.824 81.186 168.023 82.5977 167.645C83.4447 167.418 84.4001 167.314 85.2711 167.459C87.3471 167.583 89.2644 168.808 90.6271 170.785C91.2637 171.748 90.7092 172.501 90.1306 172.882C89.5521 173.264 88.1595 173.712 87.3577 172.415Z" fill="#1E1E1E"/>
<path d="M48.1806 195.079C48.444 194.933 48.8675 194.82 49.5128 195.252C53.1873 197.668 55.8115 195.606 57.5092 194.321C58.3133 193.652 59.1363 193.054 60.0349 192.738C61.0748 192.384 61.8374 192.407 62.8874 192.655C63.2075 192.72 63.834 193.081 64.3521 193.321C65.6567 193.954 66.0664 194.071 66.8617 193.933C67.6381 193.726 67.8966 193.279 68.7284 192.15C69.109 191.594 69.5412 190.95 69.8374 190.644C70.3454 190.282 71.1167 189.773 72.1616 189.72C73.0654 189.705 74.1014 190.183 74.8174 190.596C77.5729 192.125 78.7023 191.823 80.1164 189.48L80.4453 189.014C81.9816 186.563 83.3795 186.416 84.5518 186.556C85.4228 186.7 86.2281 187.165 87.1231 187.681C87.8958 188.305 88.5602 188.807 89.2383 189.079C89.808 189.229 90.4623 189.129 90.9513 188.696C91.1442 188.569 91.3181 188.371 91.4025 188.122C91.5437 188.084 91.647 187.906 91.7176 187.887C92.0654 187.492 92.4133 187.096 92.7801 186.771C94.1904 185.261 95.1496 184.324 96.8297 184.101C97.6251 183.964 98.6561 184.141 99.6166 184.338C102.088 184.81 106.232 185.59 107.586 180.77C107.957 179.613 109.105 179.381 109.976 179.526C111.647 179.834 112.726 180.754 114.022 181.918C114.705 182.491 115.408 183.134 116.321 183.721C117.235 184.307 118.168 184.964 119.349 184.573C120.549 184.252 121.028 183.217 121.436 182.201C122.103 180.738 122.601 179.774 123.334 179.125C123.701 178.8 124.261 178.348 125.178 178.102C127.084 177.592 130.446 178.279 136.262 184.731C136.715 185.29 136.866 185.854 136.664 186.512C136.411 187.26 135.696 187.98 135.094 187.99C134.812 188.066 134.35 188.038 133.808 187.428C132.941 186.451 131.951 185.582 130.962 184.714C130.458 184.244 129.953 183.775 129.449 183.306C129.232 183.061 129.016 182.817 128.818 182.644C128.403 182.226 127.752 181.493 126.656 181.635C125.366 181.905 125.132 182.723 124.756 183.579C123.766 185.808 123.048 187.36 121.538 188.218C119.572 189.348 117.504 188.693 116.468 188.215C115.521 187.788 114.621 186.971 113.702 186.084C113.109 185.563 112.586 185.023 112.011 184.572C111.634 184.295 111.135 184.127 110.622 184.188C110.109 184.25 109.723 184.504 109.375 184.9C108.144 186.513 106.639 187.672 104.874 188.144C103.533 188.503 102.116 188.579 100.676 188.285C100.195 188.187 99.7858 188.07 99.4656 188.004C97.7047 187.645 96.5891 187.716 94.8688 189.763C92.3821 192.62 90.4626 193.36 87.929 192.376C87.3403 192.156 86.7517 191.935 86.3559 191.588C85.96 191.241 85.2114 190.988 84.6278 191.068C84.1148 191.13 83.5173 191.441 83.2073 191.977C82.8318 192.833 82.0844 193.713 81.3319 194.292C79.5825 195.667 75.6954 196.405 74.1776 194.696C73.8146 194.188 73.2587 193.808 72.6562 193.818C72.0537 193.828 71.4562 194.139 71.1461 194.676C70.8172 195.141 70.5072 195.678 70.0888 196.092C69.078 197.118 68.0947 197.683 66.8191 197.722C66.3767 197.765 65.6798 197.423 65.0016 197.151C64.055 196.724 63.0187 196.246 61.9032 196.318C60.4865 196.395 59.3156 197.388 58.2859 198.343C57.7969 198.777 57.3078 199.21 56.9738 199.375C54.1605 200.732 50.6817 200.454 47.9212 198.624C47.2758 198.192 47.0539 197.647 47.0955 196.956C47.0992 196.124 47.5831 195.39 48.1806 195.079Z" fill="#1E1E1E"/>
<path d="M54.694 216.322C54.873 216.425 55.1035 216.439 55.3341 216.453C55.6543 216.518 56.0072 216.424 56.2896 216.348C57.0282 215.999 57.729 215.51 58.3592 215.039C59.5679 214.186 60.7955 213.405 62.1366 213.046C63.1437 212.852 64.65 212.827 66.0303 213.742C66.5862 214.122 67.0904 214.591 67.6136 215.131C68.0283 215.549 68.6169 215.769 69.2005 215.689C69.7841 215.608 70.3109 215.316 70.5503 214.799C70.8603 214.262 71.1704 213.726 71.3909 213.138C72.0059 211.765 72.7621 210.354 73.8675 209.68C74.9917 209.077 75.8111 209.311 77.5771 209.972C79.2535 210.581 80.9199 210.588 82.2042 210.018C83.084 209.632 84.2701 209.541 84.855 210.593C85.1096 210.978 85.1386 211.65 84.9887 212.219C84.9042 212.469 84.7683 212.807 84.3637 212.991C82.463 213.802 80.8912 214.147 79.3471 214.031C78.495 213.957 77.7135 213.864 77.0353 213.592C76.6962 213.456 76.2538 213.499 75.9009 213.593C75.3362 213.745 74.8989 214.088 74.6595 214.606C74.115 215.96 73.4434 217.122 72.7993 217.823C71.7041 219.098 70.2269 219.796 68.7017 219.751C67.5484 219.681 66.4038 219.081 65.0701 217.776L64.349 217.062C63.7364 216.471 62.7433 216.434 62.0425 216.924C61.0405 217.419 60.4809 217.871 59.9024 218.252C59.0088 218.869 58.1667 219.397 57.2869 219.783C55.7719 220.34 54.369 220.186 52.956 219.431C52.5274 219.243 52.3245 218.769 52.2488 218.487C52.1164 217.994 52.1769 217.373 52.3647 216.945C52.9709 216.103 54.0158 216.05 54.694 216.322Z" fill="#1E1E1E"/>
<path d="M68.3163 259.149C63.643 256.908 59.6319 251.648 59.0662 246.835C58.3804 241.51 61.2801 236.59 66.2997 234.326C70.7119 232.272 77.0581 231.624 81.1963 234.629C85.9222 237.979 87.2235 244.155 84.365 249.215C84.1197 249.621 83.7444 249.792 83.4645 249.874C83.0003 249.95 82.5394 249.933 82.1328 249.688C81.3197 249.198 81.2193 248.135 81.6145 247.411L81.9619 246.732C81.9619 246.732 82.1151 246.323 82.1629 246.279C82.3193 245.777 82.4247 245.412 82.4856 245C82.5943 244.543 82.5565 244.311 82.6109 244.082L82.6273 243.622L82.5995 243.114C82.3578 240.847 81.5743 239.528 80.1521 238.003C78.9933 236.855 77.1284 236.097 75.3802 235.942C73.3553 235.777 71.5015 235.988 69.3548 236.648C67.5356 237.182 65.8843 238.183 64.5441 239.518C63.8756 240.139 63.436 240.815 62.942 241.719C62.5946 242.398 62.2306 243.537 62.2008 244.366C62.0392 246.296 62.4818 248.109 63.4743 250.034C64.4256 251.82 65.7522 253.434 67.5464 254.881C69.2484 256.325 71.2058 257.086 73.1895 257.111C74.2957 257.151 75.1764 257.044 76.347 256.579C76.3947 256.535 76.7702 256.364 76.8179 256.319C77.1455 256.193 77.3809 256.063 77.5719 255.885C77.6197 255.841 77.715 255.752 77.7627 255.708C77.9537 255.53 78.1449 255.353 78.2947 255.036C78.2947 255.036 78.2947 255.036 78.3424 254.991C78.4445 254.718 79.1395 253.36 80.4646 253.731C80.6934 253.785 80.9635 253.979 81.1857 254.217C81.319 254.36 81.449 254.595 81.5346 254.783C81.6201 254.97 81.7467 255.297 81.5968 255.615C80.589 257.975 78.6547 259.15 77.2043 259.698C74.4944 260.615 71.0834 260.493 68.3163 259.149Z" fill="#1E1E1E"/>
<path d="M146.437 288.344C146.052 287.846 145.667 287.315 145.249 286.817C144.35 285.654 143.418 284.492 142.455 283.396C140.56 281.204 138.472 279.245 136.127 277.585C135.421 277.086 134.361 277.452 133.943 278.182C133.911 278.249 133.879 278.348 133.879 278.415C133.686 278.614 133.526 278.846 133.429 279.112C131.823 283.396 130.185 287.68 128.579 291.997C128.322 292.661 128.74 293.525 129.318 293.857C130.699 294.72 132.369 294.189 133.879 293.99L138.504 293.359C140.142 293.126 141.812 292.894 143.45 292.694C144.896 292.495 147.401 292.661 147.497 290.602C147.562 289.639 146.951 289.042 146.437 288.344ZM137.894 290.104C136.641 290.27 135.421 290.436 134.168 290.602C133.59 290.669 133.012 290.768 132.434 290.835C133.59 287.746 134.746 284.658 135.935 281.57C137.348 282.732 138.697 284.027 139.917 285.422C140.752 286.352 141.523 287.315 142.294 288.278C142.583 288.643 142.872 289.008 143.193 289.374C142.712 289.44 142.23 289.506 141.748 289.573L137.894 290.104Z" fill="#59C69F"/>
<path d="M66.1443 86.2226C65.4306 86.4969 64.6774 86.7712 63.9637 87.0456C62.2985 87.7117 60.673 88.3779 59.0474 89.1225C55.8757 90.5725 52.8625 92.2967 50.1268 94.452C49.2942 95.1182 49.3338 96.4898 50.0078 97.2344C50.0475 97.3127 50.1268 97.3519 50.2061 97.3911C50.3647 97.6654 50.5629 97.9397 50.8404 98.1357C55.162 101.506 59.4439 104.876 63.7655 108.246C64.4395 108.795 65.5496 108.56 66.184 108.05C67.6509 106.757 67.6905 104.602 68.0077 102.799L68.9593 97.156C69.3161 95.1574 69.6333 93.1588 69.9901 91.1603C70.2676 89.436 71.3778 86.5361 69.0782 85.7132C68.0077 85.3605 67.0958 85.8307 66.1443 86.2226ZM65.0342 96.8033C64.7963 98.2924 64.5188 99.7816 64.2809 101.271C64.1619 101.976 64.043 102.681 63.9241 103.387C60.8316 100.957 57.6994 98.5276 54.6069 96.0979C56.4704 94.8439 58.4131 93.7075 60.4351 92.767C61.7831 92.14 63.1708 91.5521 64.5584 91.0035C65.0738 90.8076 65.5892 90.5725 66.1443 90.3373C66.0254 90.9251 65.9461 91.513 65.8271 92.1008L65.0342 96.8033Z" fill="#1E1E1E"/>
<path d="M184.767 283.872C184.155 284.098 183.509 284.325 182.898 284.551C181.47 285.102 180.077 285.652 178.684 286.267C175.965 287.465 173.382 288.889 171.038 290.67C170.324 291.22 170.358 292.353 170.936 292.968C170.97 293.033 171.038 293.065 171.105 293.098C171.241 293.324 171.411 293.551 171.649 293.713C175.353 296.497 179.024 299.281 182.728 302.065C183.306 302.518 184.257 302.324 184.801 301.903C186.058 300.835 186.092 299.054 186.364 297.565L187.18 292.904C187.486 291.253 187.757 289.602 188.063 287.951C188.301 286.526 189.253 284.131 187.282 283.451C186.364 283.159 185.582 283.548 184.767 283.872ZM183.815 292.612C183.611 293.842 183.374 295.073 183.17 296.303C183.068 296.885 182.966 297.468 182.864 298.051C180.213 296.044 177.528 294.037 174.878 292.03C176.475 290.994 178.14 290.055 179.873 289.278C181.029 288.76 182.218 288.274 183.407 287.821C183.849 287.659 184.291 287.465 184.767 287.271C184.665 287.756 184.597 288.242 184.495 288.728L183.815 292.612Z" fill="#1E1E1E"/>
</svg>
