<svg width="273" height="77" viewBox="0 0 273 77" fill="none" xmlns="http://www.w3.org/2000/svg">
<path d="M15.8865 45.3956C16.2097 45.105 16.2097 44.6337 15.8865 44.3431C15.5634 44.0525 15.0395 44.0525 14.7164 44.3431L8.1978 50.2063L1.54336 44.2209C1.22023 43.9303 0.696333 43.9303 0.373206 44.2209C0.0500771 44.5115 0.0500773 44.9828 0.373206 45.2734L7.47686 51.6628C7.49984 51.6835 7.52383 51.7027 7.54869 51.7204C7.5684 51.7428 7.58974 51.7644 7.61272 51.785C7.93585 52.0757 8.45974 52.0757 8.78287 51.785L15.8865 45.3956Z" fill="#1E1E1E" fill-opacity="0.6"/>
<path fill-rule="evenodd" clip-rule="evenodd" d="M26.728 48.4352C26.9232 48.2399 26.9232 47.9233 26.728 47.7281C26.5327 47.5328 26.2161 47.5328 26.0209 47.7281L22.0818 51.6671L18.0606 47.646C17.8653 47.4507 17.5487 47.4507 17.3535 47.646C17.1582 47.8412 17.1582 48.1578 17.3535 48.3531L21.6461 52.6457C21.66 52.6596 21.6745 52.6725 21.6895 52.6844C21.7014 52.6994 21.7143 52.7139 21.7282 52.7278C21.9235 52.9231 22.2401 52.9231 22.4353 52.7278L26.728 48.4352Z" fill="#1E1E1E"/>
<path fill-rule="evenodd" clip-rule="evenodd" d="M36.729 47.4352C36.9242 47.2399 36.9242 46.9233 36.729 46.7281C36.5337 46.5328 36.2171 46.5328 36.0219 46.7281L32.0828 50.6671L28.0616 46.646C27.8663 46.4507 27.5497 46.4507 27.3545 46.646C27.1592 46.8412 27.1592 47.1578 27.3545 47.3531L31.6471 51.6457C31.661 51.6596 31.6755 51.6725 31.6905 51.6844C31.7024 51.6994 31.7153 51.7139 31.7292 51.7278C31.9245 51.9231 32.241 51.9231 32.4363 51.7278L36.729 47.4352Z" fill="white"/>
<g clip-path="url(#clip0)">
<path d="M67.7571 47.4751C63.5004 50.8989 58.5341 53.3512 53.4742 52.9588C48.4382 52.5653 43.3323 49.3261 40.4855 44.6427C37.6395 39.982 37.0754 33.8534 39.6423 30.0254C42.2091 26.1975 47.9058 24.6474 53.697 23.0704C59.4644 21.4944 65.2804 19.9391 69.5233 21.9629C73.7433 24.0104 76.3911 29.6598 75.9528 34.6703C75.5144 39.6807 71.991 44.075 67.7571 47.4751Z" fill="#59C69F"/>
<path fill-rule="evenodd" clip-rule="evenodd" d="M88.1469 31.3276C88.1796 31.3792 88.2124 31.4309 88.2517 31.4752C88.4613 31.8 88.4613 32.2134 88.3565 32.6269C88.2779 32.9812 88.0158 33.3356 87.7538 33.5127C87.4917 33.6899 87.02 33.808 86.7318 33.6604C85.4477 33.0698 84.1637 32.4201 82.8796 31.7705C82.5652 31.6229 82.3817 31.239 82.2769 30.8846C82.1721 30.5007 82.2507 30.0873 82.4079 29.733C82.5652 29.4081 82.8796 29.1424 83.1941 29.0538C83.561 28.9357 83.8754 29.0243 84.2161 29.2014C85.1333 29.6739 86.0242 30.1169 86.9414 30.5598C87.0331 30.6041 87.1183 30.641 87.2035 30.6779C87.2886 30.7148 87.3738 30.7517 87.4655 30.796C87.6752 30.8846 87.8848 31.0027 88.042 31.1799C88.0813 31.2242 88.1141 31.2759 88.1469 31.3276ZM45.3744 37.1596C61.6451 33.8237 78.2689 33.5788 94.6211 36.3945C95.762 36.5781 95.9521 38.6593 94.9471 39.2102C93.1135 40.1437 91.2868 41.0848 89.46 42.0259C87.6333 42.967 85.8067 43.9081 83.9732 44.8415C82.3977 45.6679 81.0396 43.0358 82.615 42.2095C84.8696 41.0159 87.1513 39.8529 89.433 38.6899C75.0365 36.7006 60.3956 37.1903 46.1078 40.1283C44.3965 40.465 43.6631 37.5269 45.3744 37.1596Z" fill="#1E1E1E"/>
</g>
<g clip-path="url(#clip1)">
<path d="M125.757 47.4751C121.5 50.8989 116.534 53.3512 111.474 52.9588C106.438 52.5653 101.332 49.3261 98.4855 44.6427C95.6395 39.982 95.0754 33.8534 97.6423 30.0254C100.209 26.1975 105.906 24.6474 111.697 23.0704C117.464 21.4944 123.28 19.9391 127.523 21.9629C131.743 24.0104 134.391 29.6598 133.953 34.6703C133.514 39.6807 129.991 44.075 125.757 47.4751Z" fill="#F1C527"/>
<path fill-rule="evenodd" clip-rule="evenodd" d="M146.147 31.3276C146.18 31.3792 146.212 31.4309 146.252 31.4752C146.461 31.8 146.461 32.2134 146.356 32.6269C146.278 32.9812 146.016 33.3356 145.754 33.5127C145.492 33.6899 145.02 33.808 144.732 33.6604C143.448 33.0698 142.164 32.4201 140.88 31.7705C140.565 31.6229 140.382 31.239 140.277 30.8846C140.172 30.5007 140.251 30.0873 140.408 29.733C140.565 29.4081 140.88 29.1424 141.194 29.0538C141.561 28.9357 141.875 29.0243 142.216 29.2014C143.133 29.6739 144.024 30.1169 144.941 30.5598C145.033 30.6041 145.118 30.641 145.203 30.6779C145.289 30.7148 145.374 30.7517 145.465 30.796C145.675 30.8846 145.885 31.0027 146.042 31.1799C146.081 31.2242 146.114 31.2759 146.147 31.3276ZM103.374 37.1596C119.645 33.8237 136.269 33.5788 152.621 36.3945C153.762 36.5781 153.952 38.6593 152.947 39.2102C151.114 40.1437 149.287 41.0848 147.46 42.0259C145.633 42.967 143.807 43.9081 141.973 44.8415C140.398 45.6679 139.04 43.0358 140.615 42.2095C142.87 41.0159 145.151 39.8529 147.433 38.6899C133.036 36.7006 118.396 37.1903 104.108 40.1283C102.397 40.465 101.663 37.5269 103.374 37.1596Z" fill="#1E1E1E"/>
</g>
<path d="M184.186 26.3156C182.258 20.5966 177.373 16.0722 171.207 16.1592C171.212 14.9218 170.187 13.6663 168.705 14.2049C164.202 15.8438 160.921 20.1208 160.272 24.9111C159.568 30.0974 161.508 35.6979 165.235 39.3476C169.13 43.2035 175.463 42.9889 179.92 40.2334C182.037 38.931 183.72 36.8684 184.511 34.4852C185.404 31.8407 185.077 28.934 184.186 26.3156ZM178.7 36.3187C175.978 38.5403 171.173 39.3329 168.333 36.9075C165.513 34.5006 163.938 30.4889 163.973 26.7951C164.012 23.1795 166.095 19.6601 169.365 18.1721C169.461 19.1483 170.118 20.0916 171.359 20.0581C175.196 19.9703 178.382 22.67 179.941 26.0739C181.521 29.5158 181.885 33.7164 178.7 36.3187Z" fill="#1E1E1E"/>
<path d="M207.696 35.8454C207.557 35.8131 207.397 35.7616 207.257 35.7091C207.237 35.7102 207.237 35.7102 207.237 35.7102C207.237 35.7102 207.237 35.7102 207.218 35.7114C206.957 35.6051 206.716 35.4976 206.473 35.37C206.231 35.2424 205.987 35.0945 205.763 34.9455C205.742 34.9265 205.641 34.8716 205.599 34.8335C205.537 34.7764 205.374 34.6643 205.353 34.6453C204.921 34.2856 204.507 33.9046 204.131 33.501C204.067 33.4237 204.005 33.3665 203.942 33.2892C203.921 33.2701 203.836 33.1535 203.793 33.0952C203.624 32.8822 203.454 32.649 203.283 32.4158C202.062 30.6229 201.355 28.5972 200.775 26.4018C202.336 24.9725 203.396 23.0053 204.037 20.9206C204.878 18.2366 204.982 14.6837 203.371 12.2651C201.801 9.88463 198.83 8.64034 196.195 8.12617C193.161 7.49353 189.948 7.80371 187.104 9.06504C186.131 9.48701 185.526 10.5359 185.884 11.6295C186.003 11.9874 186.257 12.2968 186.565 12.5422C186.549 12.6039 186.533 12.6656 186.537 12.7262C186.435 15.0021 186.842 17.2482 187.15 19.5C187.488 21.9122 187.767 24.3279 187.97 26.7683C188.412 31.6267 188.601 36.5 188.575 41.3859C188.571 43.9803 192.474 43.7513 192.478 41.1568C192.492 37.0621 192.329 32.9574 192.03 28.881C193.778 28.9608 195.572 28.8352 197.228 28.353C197.895 30.7053 198.794 33.0035 200.222 34.9667C201.905 37.2797 204.164 39.0523 206.872 39.8256C207.867 40.0915 209.016 39.3147 209.19 38.2709C209.377 37.1249 208.75 36.1281 207.696 35.8454ZM191.671 24.7676C191.485 22.9342 191.298 21.1008 191.054 19.2709C190.745 17.0191 190.34 14.7932 190.44 12.4971C190.453 12.395 190.428 12.2952 190.423 12.2144C192.218 11.7645 194.056 11.7174 195.903 12.1562C197.035 12.4141 198.236 12.8705 199.176 13.5247C200.116 14.1991 200.538 15.0458 200.646 16.215C200.872 18.7149 200.046 21.6615 198.188 23.3717C197.315 24.1728 196.158 24.4839 195.031 24.6311C193.906 24.8188 192.79 24.8235 191.671 24.7676Z" fill="#1E1E1E"/>
<path d="M168.476 47.6394C168.024 47.5512 167.57 47.4439 167.133 47.2974C167.019 47.2658 166.906 47.2342 166.809 47.1825C166.771 47.1656 166.734 47.1678 166.714 47.1498C166.714 47.1498 166.696 47.1509 166.694 47.1318C166.485 47.0485 166.256 46.9663 166.045 46.8639C165.166 46.4946 164.322 46.0851 163.494 45.6363C162.725 45.2414 161.972 44.7883 161.254 44.3139C161.234 44.2959 161.236 44.315 161.234 44.2959C161.156 44.2241 161.059 44.1723 160.981 44.1004C160.786 43.9588 160.59 43.7981 160.413 43.6364C160.059 43.3319 159.723 43.0073 159.424 42.6615C158.765 41.9158 157.395 42.0728 156.805 42.8152C156.11 43.6785 156.246 44.7226 156.963 45.5031C158.319 47.0113 160.08 48.1131 161.849 49.0422C163.733 50.022 165.688 50.9402 167.763 51.3541C168.725 51.5463 169.807 50.9281 169.969 49.8856C170.079 48.9035 169.495 47.8474 168.476 47.6394Z" fill="#F1C527"/>
<path d="M210.14 8.7942C208.521 5.78158 206.308 2.80375 203.152 1.56942C202.672 1.38655 202.251 1.27698 201.757 1.45945C201.351 1.59841 200.922 1.96889 200.731 2.40212C200.541 2.85448 200.465 3.39609 200.638 3.8847C200.789 4.31702 201.107 4.81631 201.532 4.98322C201.864 5.11718 202.198 5.27025 202.514 5.44349C202.682 5.52959 202.831 5.61674 202.982 5.723C203.057 5.77614 203.246 5.91853 203.301 5.93448C203.812 6.34571 204.287 6.75904 204.748 7.24989C204.864 7.37738 204.962 7.50593 205.077 7.63342C205.136 7.70673 205.194 7.78004 205.234 7.83528C205.468 8.14762 205.704 8.47907 205.922 8.81158C206.358 9.4766 206.76 10.1819 207.145 10.9075C207.611 11.7817 208.906 12.0318 209.648 11.4512C210.493 10.8069 210.646 9.7237 210.14 8.7942Z" fill="#59C69F"/>
<path d="M32.9525 21.5105C31.2741 21.3899 29.6177 21.1488 27.9779 20.7814C26.4043 20.4312 24.7589 20.0293 23.2737 19.3749C22.0259 18.8237 21.6284 17.2852 21.1701 16.0681C20.5517 14.432 20.0438 12.7556 19.6352 11.0563C19.4916 10.4478 18.9008 10 18.3045 10C17.653 10 17.2003 10.4593 16.9739 11.0563C16.3555 12.6695 15.7371 14.277 15.1243 15.8902C14.6495 17.1359 14.1912 18.5195 13.2636 19.4954C12.3471 20.4656 11.044 20.6321 9.79071 20.6034C8.11776 20.569 6.47242 20.213 4.79394 20.368C3.61791 20.4771 3.09339 21.7057 3.72833 22.6759C3.75594 23.1409 4.01544 23.5714 4.40745 23.8642C5.50067 24.6909 6.57732 25.5406 7.63189 26.4247C8.17297 26.8782 8.70302 27.3317 9.23306 27.7967C9.49809 28.0264 9.75759 28.2617 10.0226 28.4971C10.1551 28.6177 10.2821 28.7325 10.4146 28.8531C10.4477 28.8818 10.4864 28.9334 10.5306 28.9794C10.525 29.0138 10.525 29.0482 10.514 29.0827C10.4754 29.2664 10.4367 29.4501 10.4036 29.6338C10.3263 30.0012 10.249 30.3686 10.1717 30.7361C10.0171 31.4709 9.85697 32.2 9.69133 32.9348C9.34901 34.4447 8.99013 35.9488 8.61468 37.4472C8.32205 38.6126 9.60299 39.7665 10.641 39.0661C11.9771 38.1705 13.3023 37.252 14.6495 36.3794C15.2789 35.9718 15.9249 35.5584 16.6095 35.2541C17.2058 34.9901 17.3162 35.1508 17.896 35.4608C20.7726 37.0166 23.6492 38.5724 26.5313 40.1281C27.5858 40.6965 28.8778 39.755 28.5576 38.5092C28.1821 37.0453 27.8785 35.5527 27.6852 34.0485C27.5858 33.285 27.492 32.5043 27.4754 31.735C27.4589 31.0403 27.8177 30.6212 28.2097 30.0873C29.8717 27.814 31.8207 25.7702 33.9409 23.9618C34.9347 23.1007 34.0292 21.5851 32.9525 21.5105Z" fill="#F1C527"/>
<path d="M8.23377 42C8.01291 42 7.79207 41.9599 7.57673 41.8795C7.05221 41.6843 6.62155 41.271 6.4007 40.7428C6.25162 40.3754 6.20193 39.9735 6.26819 39.5774C6.27371 39.5372 6.28475 39.497 6.29579 39.4568C6.83688 37.7403 7.03565 36.0123 7.25098 34.181C7.37797 33.0902 7.51048 31.9592 7.72029 30.8053C7.72581 30.7709 7.72029 30.7077 7.70372 30.6561C7.68716 30.6044 7.65955 30.5527 7.6209 30.5125L1.49779 24.3066C0.951182 23.7555 0.757936 22.9403 0.995352 22.1825C1.23277 21.4247 1.84563 20.8851 2.60205 20.776L3.47993 20.644C4.28052 20.5119 5.15841 20.466 6.08598 20.4143C8.46014 20.288 10.9171 20.156 11.7011 18.4854L15.0912 11.338C15.428 10.6261 16.1127 10.1841 16.8746 10.1841C17.6365 10.1841 18.3212 10.6261 18.658 11.338L19.05 12.1647C19.2322 12.5953 19.3923 12.9914 19.5524 13.3818C20.4469 15.5805 21.3689 17.8482 22.6112 19.4728C22.6388 19.4843 22.6664 19.49 22.694 19.4958L31.1527 20.776C31.5391 20.8334 31.8925 21.0056 32.1796 21.264C32.4502 21.5108 32.6489 21.8323 32.7593 22.1883C32.8201 22.3892 32.809 22.6131 32.7207 22.8025C31.9864 24.4789 30.7551 25.6902 29.557 26.8556C28.8116 27.5904 28.1049 28.2793 27.5252 29.0658C27.5031 29.0945 27.481 29.1232 27.4534 29.152C27.1994 29.416 26.962 29.6572 26.7632 29.8581L26.1283 30.5011C26.051 30.5814 26.0123 30.6962 26.0344 30.8111L26.8626 35.8458C26.9178 36.1443 27.0006 36.4945 27.0779 36.8447C27.4589 38.5383 27.8233 40.1457 26.8516 40.7945C25.267 42.3273 23.2351 41.0528 21.5898 40.0309C20.8058 39.543 19.9996 39.0377 19.3205 38.8483C19.2653 38.8311 19.2101 38.8081 19.1549 38.7794L17.0181 37.614C16.9188 37.5623 16.8028 37.5623 16.709 37.614L9.14478 41.7474C8.86872 41.9197 8.54848 42 8.23377 42ZM7.89697 39.9161C7.89145 39.9678 7.90249 40.0194 7.91905 40.0654C7.9577 40.1515 8.035 40.2261 8.12334 40.2606C8.21168 40.295 8.30002 40.2835 8.38284 40.2376L15.947 36.1042C16.5267 35.7884 17.2169 35.7884 17.7966 36.1042L19.8506 37.2236C20.7229 37.4877 21.6008 38.0388 22.4511 38.567C24.0909 39.5946 25.1344 40.1687 25.7694 39.5085C25.786 39.4913 25.8025 39.4741 25.8246 39.4568C25.8798 39.0492 25.6258 37.9355 25.4712 37.2523C25.3884 36.8792 25.3056 36.5118 25.2394 36.1731L24.4056 31.1153C24.2952 30.4436 24.5105 29.7605 24.9798 29.284L25.6148 28.641C25.797 28.4573 26.0123 28.2334 26.2497 27.9923C26.9013 27.1082 27.6798 26.3504 28.4251 25.6156C29.4355 24.6281 30.3907 23.6866 31.0146 22.5155C30.987 22.4983 30.9539 22.4925 30.9152 22.4868L22.4566 21.2066C22.1419 21.1606 21.8327 21.0286 21.5732 20.8334C21.518 20.7875 21.4628 20.7416 21.4186 20.6842C19.9776 18.8643 18.9837 16.4244 18.0285 14.0592C17.8684 13.6688 17.7083 13.2784 17.5537 12.8938L17.1783 12.1073C17.0954 11.9408 16.9574 11.9121 16.8801 11.9121C16.8028 11.9121 16.6593 11.9351 16.582 12.1073L13.1919 19.2374C11.9827 21.8151 8.89632 21.9816 6.17433 22.1309C5.29092 22.1768 4.4572 22.2227 3.72839 22.3433L2.83946 22.4753C2.66278 22.504 2.59101 22.636 2.56892 22.7107C2.54683 22.7853 2.52475 22.9346 2.65174 23.0666L8.77485 29.2725C9.00675 29.5079 9.17791 29.7949 9.27729 30.1164C9.37667 30.4322 9.39876 30.7709 9.34907 31.0981C9.14478 32.2176 9.01779 33.3198 8.89632 34.3819C8.68651 36.196 8.47118 38.0618 7.89697 39.9161Z" fill="#1E1E1E"/>
<path d="M24.0462 23.5427C22.6604 23.3475 21.4291 23.1294 20.4022 22.4462C19.4967 21.8434 18.7844 20.9421 18.3869 19.903C18.2102 19.4437 17.7188 19.2313 17.2716 19.415C16.852 19.5872 16.6642 20.0465 16.8244 20.4828C17.3378 21.8319 18.2102 22.9801 19.3476 23.7896C20.6782 24.7425 22.2463 25.0239 23.7425 25.2363C23.7812 25.242 23.8198 25.242 23.8585 25.242C24.2781 25.242 24.648 24.909 24.7088 24.4612C24.775 24.002 24.4879 23.6059 24.0462 23.5427Z" fill="#1E1E1E"/>
<g clip-path="url(#clip2)">
<path d="M245.501 23.482C250.708 21.1683 256.372 20.073 261.372 21.9639C266.348 23.8489 270.635 28.7141 272.258 34.4195C273.887 40.101 272.822 46.6405 269.211 49.8698C265.601 53.099 259.441 53.0419 253.178 52.985C246.939 52.9341 240.657 52.8475 236.916 49.4993C233.205 46.133 232.04 39.4813 233.818 34.3984C235.596 29.3156 240.323 25.7776 245.501 23.482Z" fill="#F1C527"/>
<path fill-rule="evenodd" clip-rule="evenodd" d="M220.455 42.6725C220.422 42.6209 220.389 42.5692 220.35 42.5249C220.14 42.2001 220.14 41.7867 220.245 41.3732C220.323 41.0189 220.586 40.6645 220.848 40.4874C221.11 40.3102 221.581 40.1921 221.87 40.3397C223.154 40.9303 224.438 41.58 225.722 42.2296C226.036 42.3773 226.22 42.7611 226.325 43.1155C226.429 43.4994 226.351 43.9128 226.193 44.2671C226.036 44.592 225.722 44.8577 225.407 44.9463C225.04 45.0644 224.726 44.9759 224.385 44.7987C223.468 44.3262 222.577 43.8833 221.66 43.4403C221.568 43.396 221.483 43.3591 221.398 43.3222C221.313 43.2853 221.228 43.2484 221.136 43.2041C220.926 43.1155 220.717 42.9974 220.559 42.8202C220.52 42.7759 220.487 42.7242 220.455 42.6725ZM263.227 36.8405C246.956 40.1764 230.332 40.4213 213.98 37.6056C212.839 37.422 212.649 35.3408 213.654 34.7899C215.488 33.8564 217.315 32.9153 219.141 31.9742C220.968 31.0331 222.795 30.092 224.628 29.1586C226.204 28.3322 227.562 30.9643 225.986 31.7906C223.732 32.9842 221.45 34.1472 219.168 35.3102C233.565 37.2995 248.206 36.8099 262.494 33.8718C264.205 33.5351 264.938 36.4732 263.227 36.8405Z" fill="#1E1E1E"/>
</g>
<path d="M13.2085 53.2051C12.4386 52.7551 11.6487 53.0951 11.1587 53.7451C10.1989 55.0051 9.21898 56.2651 8.21911 57.4951C7.70917 58.1252 7.19923 58.7552 6.6793 59.3652C6.40933 59.6952 6.13936 60.0152 5.8694 60.3352C5.8294 60.3752 5.79941 60.4252 5.75941 60.4652C5.71942 60.4352 5.68942 60.4052 5.64943 60.3652C5.24948 60.0452 4.86952 59.6952 4.50957 59.3252C3.82965 58.6252 3.30972 57.9552 2.79978 57.1251C2.36983 56.4351 1.44995 56.1651 0.740033 56.5851C0.0501186 56.9851 -0.219848 57.9451 0.2001 58.6352C0.990002 59.8952 1.93988 61.0752 3.03975 62.0752C3.59968 62.5852 4.2096 63.0652 4.83953 63.4852C5.74941 64.0952 6.73929 63.9052 7.4392 63.0952C9.63893 60.5652 11.7187 57.9251 13.7384 55.2551C14.2384 54.6051 13.8484 53.5751 13.2085 53.2051Z" fill="#1E1E1E"/>
<path fill-rule="evenodd" clip-rule="evenodd" d="M17.5156 53H34.4844C36.4227 53 38 54.5773 38 56.5156V73.4844C38 75.4227 36.4227 77 34.4844 77H17.5156C15.5773 77 14 75.4227 14 73.4844V56.5156C14 54.5773 15.5773 53 17.5156 53ZM22.3513 70.6168C22.981 70.7161 23.6069 70.7656 24.215 70.7656C24.9188 70.7656 25.5988 70.6991 26.232 70.5666C27.5229 70.2963 28.6094 69.7678 29.4615 68.9959C30.15 68.372 30.6691 67.5985 31.0041 66.6971C31.3582 65.7443 31.5064 64.6452 31.4447 63.4303C31.4285 63.1106 31.5155 62.8057 31.6897 62.5716C32.3857 61.6367 32.4366 61.5597 32.4774 61.4977L32.478 61.4968C32.488 61.4816 32.4957 61.47 32.5242 61.4308L33.0312 60.7337L32.1734 60.7727C32.1362 60.7744 32.1005 60.7768 32.066 60.7798L32.5899 59.2746L31.7865 59.553C31.5709 59.6278 31.3981 59.6932 31.2457 59.7509L31.2406 59.7528L31.2405 59.7529C30.9852 59.8495 30.7963 59.9211 30.5399 59.9881C30.0149 59.5133 29.3538 59.2389 28.6256 59.1939C27.9393 59.1514 27.2468 59.3225 26.6759 59.6755C26.1617 59.9935 25.7749 60.4396 25.5574 60.9656C25.3706 61.4174 25.3142 61.9214 25.3895 62.4437C23.5455 62.1863 21.9919 61.307 20.7653 59.8247L20.3774 59.3561L20.0874 59.8916C19.7211 60.5682 19.5994 61.342 19.7448 62.0703C19.8044 62.3689 19.9059 62.6539 20.0464 62.9207L19.7134 62.7909L19.674 63.3503C19.6339 63.9187 19.822 64.5819 20.1772 65.1247C20.2771 65.2774 20.406 65.4453 20.5692 65.6108L20.3971 65.5844L20.6069 66.2252C20.8828 67.0675 21.4558 67.7191 22.1993 68.0813C21.4568 68.3982 20.8569 68.6006 19.8708 68.9267L18.9688 69.2251L19.8019 69.6834C20.1196 69.8582 21.2423 70.4417 22.3513 70.6168Z" fill="white"/>
<path d="M58.4844 53H41.5156C39.5773 53 38 54.5773 38 56.5156V73.4844C38 75.4227 39.5773 77 41.5156 77H48.5938V68.5156H45.7812V64.2969H48.5938V61.4375C48.5938 59.1111 50.4861 57.2188 52.8125 57.2188H57.0781V61.4375H52.8125V64.2969H57.0781L56.375 68.5156H52.8125V77H58.4844C60.4227 77 62 75.4227 62 73.4844V56.5156C62 54.5773 60.4227 53 58.4844 53Z" fill="white"/>
<path d="M81.9844 53H65.0156C63.0773 53 61.5 54.5773 61.5 56.5156V73.4844C61.5 75.4227 63.0773 77 65.0156 77H81.9844C83.9227 77 85.5 75.4227 85.5 73.4844V56.5156C85.5 54.5773 83.9227 53 81.9844 53ZM73.5469 71.2812C70.0574 71.2812 67.2188 68.4426 67.2188 64.9531C67.2188 61.4637 70.0574 58.625 73.5469 58.625C77.0363 58.625 79.875 61.4637 79.875 64.9531C79.875 68.4426 77.0363 71.2812 73.5469 71.2812ZM80.5781 60.0312C79.415 60.0312 78.4688 59.085 78.4688 57.9219C78.4688 56.7588 79.415 55.8125 80.5781 55.8125C81.7412 55.8125 82.6875 56.7588 82.6875 57.9219C82.6875 59.085 81.7412 60.0312 80.5781 60.0312Z" fill="white"/>
<path d="M80.5781 57.2188C80.1901 57.2188 79.875 57.5339 79.875 57.9219C79.875 58.3099 80.1901 58.625 80.5781 58.625C80.9661 58.625 81.2812 58.3099 81.2812 57.9219C81.2812 57.5339 80.9661 57.2188 80.5781 57.2188Z" fill="white"/>
<path d="M73.5464 60.8647C71.2923 60.8647 69.458 62.699 69.458 64.9531C69.458 67.2072 71.2923 69.0415 73.5464 69.0415C75.8004 69.0415 77.6347 67.2072 77.6347 64.9531C77.6347 62.699 75.8004 60.8647 73.5464 60.8647Z" fill="white"/>
<path d="M105.484 53H88.5156C86.5773 53 85 54.5773 85 56.5156V73.4844C85 75.4227 86.5773 77 88.5156 77H105.484C107.423 77 109 75.4227 109 73.4844V56.5156C109 54.5773 107.423 53 105.484 53ZM93.4844 72.0312H90.6719V62.1875H93.4844V72.0312ZM93.4844 60.7812H90.6719V57.9688H93.4844V60.7812ZM103.328 72.0312H100.516V66.4062C100.516 65.631 99.8846 65 99.1094 65C98.3341 65 97.7031 65.631 97.7031 66.4062V72.0312H94.8906V62.1875H97.7031V62.7176C98.4399 62.4885 98.9186 62.1875 99.8125 62.1875C101.72 62.1895 103.328 63.9006 103.328 65.9229V72.0312Z" fill="white"/>
<g clip-path="url(#clip3)">
<path d="M109 63.6665V67.3358L114.499 63.6665H109Z" fill="#00247D"/>
<path d="M130.499 53H123.667V57.5547L130.499 53Z" fill="#00247D"/>
<path d="M111.496 69H118.333V64.4453L111.496 69Z" fill="#00247D"/>
<path d="M109 54.6641V58.3334H114.499L109 54.6641Z" fill="#00247D"/>
<path d="M118.333 53H111.496L118.333 57.5547V53Z" fill="#00247D"/>
<path d="M133 67.3358V63.6665H127.496L133 67.3358Z" fill="#00247D"/>
<path d="M133 58.3334V54.6641L127.496 58.3334H133Z" fill="#00247D"/>
<path d="M123.667 69H130.499L123.667 64.4453V69Z" fill="#00247D"/>
<path d="M118.333 58.3333V57.5547L111.496 53H109L117 58.3333H118.333Z" fill="#F5F5F5"/>
<path d="M115.331 58.3334L109 54.1094V54.664L114.499 58.3334H115.331Z" fill="#F5F5F5"/>
<path d="M123.667 63.6665V64.4452L130.499 68.9998H133L125 63.6665H123.667Z" fill="#F5F5F5"/>
<path d="M118.333 63.8853L110.664 68.9999H111.496L118.333 64.4453V63.8853Z" fill="#F5F5F5"/>
<path d="M114.499 63.6665L109 67.3358V68.9998L117 63.6665H114.499Z" fill="#F5F5F5"/>
<path d="M126.664 63.6665L133 67.8905V67.3358L127.496 63.6665H126.664Z" fill="#F5F5F5"/>
<path d="M127.496 58.3333L133 54.664V53L125 58.3333H127.496Z" fill="#F5F5F5"/>
<path d="M123.667 58.1147L131.331 53H130.499L123.667 57.5547V58.1147Z" fill="#F5F5F5"/>
<path d="M117 58.3333L109 53V54.1093L115.331 58.3333H117Z" fill="#CF142B"/>
<path d="M126.664 63.6665H125L133 68.9998V67.8905L126.664 63.6665Z" fill="#CF142B"/>
<path d="M118.333 63.6665H117L109 68.9998H110.664L118.333 63.8852V63.6665Z" fill="#CF142B"/>
<path d="M123.667 58.3333H125L133 53H131.331L123.667 58.1147V58.3333Z" fill="#CF142B"/>
<path d="M122.6 59.4H133V58.3333H127.496H125H123.666V58.1147V57.5547V53H122.6V59.4Z" fill="#F5F5F5"/>
<path d="M123.666 63.6668H125H126.664H127.496H133V62.6001H122.6V69.0001H123.666V64.4454V63.6668Z" fill="#F5F5F5"/>
<path d="M119.4 62.6001H109V63.6668H114.499H117H118.333V63.8854V64.4454V69.0001H119.4V62.6001Z" fill="#F5F5F5"/>
<path d="M119.4 59.4V53H118.333V57.5547V58.3333H117H115.331H114.499H109V59.4H119.4Z" fill="#F5F5F5"/>
<path d="M122.6 62.6H133V61V59.4H122.6V53H121H119.4V59.4H109V61V62.6H119.4V69H121H122.6V62.6Z" fill="#CF142B"/>
</g>
<mask id="mask0" mask-type="alpha" maskUnits="userSpaceOnUse" x="133" y="53" width="24" height="16">
<path d="M156 53H134C133.448 53 133 53.4477 133 54V68C133 68.5523 133.448 69 134 69H156C156.552 69 157 68.5523 157 68V54C157 53.4477 156.552 53 156 53Z" fill="black"/>
</mask>
<g mask="url(#mask0)">
<path d="M157.274 52.937H132.957V69.0628H157.274V52.937Z" fill="#B50900"/>
<path d="M157.258 67.7386H132.957V66.6372H157.258V67.7386ZM157.258 65.2601H132.957V64.1587H157.258V65.2601ZM157.258 62.7815H132.957V61.6801H157.258V62.7815ZM157.258 60.3035H132.957V59.2021H157.258V60.3035ZM157.258 57.825H132.957V56.7236H157.258V57.825ZM157.258 55.3465H132.957V54.2456H157.258V55.3465Z" fill="white"/>
<path d="M144.662 52.937H132.957V61.6772H144.662V52.937Z" fill="#2B1D73"/>
<path d="M133.674 53.3086L133.563 53.6507H133.201L133.494 53.8624L133.382 54.2045L133.674 53.9929L133.967 54.2045L133.855 53.8624L134.148 53.6507H133.786L133.674 53.3086Z" fill="white"/>
<path d="M133.674 55.043L133.563 55.3851H133.201L133.494 55.5967L133.382 55.9389L133.674 55.7272L133.967 55.9389L133.855 55.5967L134.148 55.3851H133.786L133.674 55.043Z" fill="white"/>
<path d="M133.674 56.7788L133.563 57.1209H133.201L133.494 57.3326L133.382 57.6747L133.674 57.4631L133.967 57.6747L133.855 57.3326L134.148 57.1209H133.786L133.674 56.7788Z" fill="white"/>
<path d="M133.674 58.5132L133.563 58.8553H133.201L133.494 59.067L133.382 59.4091L133.674 59.1975L133.967 59.4091L133.855 59.067L134.148 58.8553H133.786L133.674 58.5132Z" fill="white"/>
<path d="M133.786 60.5897L133.674 60.2476L133.563 60.5897H133.201L133.494 60.8013L133.382 61.144L133.674 60.9324L133.967 61.144L133.855 60.8013L134.148 60.5897H133.786Z" fill="white"/>
<path d="M134.699 54.1758L134.587 54.5179H134.226L134.518 54.7296L134.406 55.0722L134.699 54.8606L134.991 55.0722L134.88 54.7296L135.172 54.5179H134.81L134.699 54.1758Z" fill="white"/>
<path d="M134.699 55.9121L134.587 56.2542H134.226L134.518 56.4659L134.406 56.808L134.699 56.5964L134.991 56.808L134.88 56.4659L135.172 56.2542H134.81L134.699 55.9121Z" fill="white"/>
<path d="M134.699 57.646L134.587 57.9881H134.226L134.518 58.1998L134.406 58.5424L134.699 58.3308L134.991 58.5424L134.88 58.1998L135.172 57.9881H134.81L134.699 57.646Z" fill="white"/>
<path d="M134.81 59.7225L134.699 59.3804L134.587 59.7225H134.226L134.518 59.9341L134.406 60.2763L134.699 60.0647L134.991 60.2763L134.88 59.9341L135.172 59.7225H134.81Z" fill="white"/>
<path d="M135.726 53.3086L135.614 53.6507H135.253L135.545 53.8624L135.434 54.2045L135.726 53.9929L136.019 54.2045L135.907 53.8624L136.199 53.6507H135.838L135.726 53.3086Z" fill="white"/>
<path d="M135.726 55.0425L135.614 55.3846H135.253L135.545 55.5963L135.434 55.9384L135.726 55.7268L136.019 55.9384L135.907 55.5963L136.199 55.3846H135.838L135.726 55.0425Z" fill="white"/>
<path d="M135.726 56.7788L135.614 57.1209H135.253L135.545 57.3326L135.434 57.6747L135.726 57.4631L136.019 57.6747L135.907 57.3326L136.199 57.1209H135.838L135.726 56.7788Z" fill="white"/>
<path d="M135.726 58.5132L135.614 58.8553H135.253L135.545 59.067L135.434 59.4091L135.726 59.1975L136.019 59.4091L135.907 59.067L136.199 58.8553H135.838L135.726 58.5132Z" fill="white"/>
<path d="M135.838 60.5897L135.726 60.2476L135.614 60.5897H135.253L135.545 60.8013L135.434 61.144L135.726 60.9324L136.019 61.144L135.907 60.8013L136.199 60.5897H135.838Z" fill="white"/>
<path d="M136.751 54.1748L136.639 54.517H136.277L136.57 54.7286L136.458 55.0713L136.751 54.8596L137.043 55.0713L136.931 54.7286L137.224 54.517H136.862L136.751 54.1748Z" fill="white"/>
<path d="M136.751 55.9111L136.639 56.2533H136.277L136.57 56.4649L136.458 56.807L136.751 56.5954L137.043 56.807L136.931 56.4649L137.224 56.2533H136.862L136.751 55.9111Z" fill="white"/>
<path d="M136.751 57.646L136.639 57.9881H136.277L136.57 58.1998L136.458 58.5424L136.751 58.3308L137.043 58.5424L136.931 58.1998L137.224 57.9881H136.862L136.751 57.646Z" fill="white"/>
<path d="M136.862 59.7225L136.751 59.3804L136.639 59.7225H136.277L136.57 59.9341L136.458 60.2763L136.751 60.0647L137.043 60.2763L136.931 59.9341L137.224 59.7225H136.862Z" fill="white"/>
<path d="M137.777 53.3086L137.665 53.6507H137.304L137.596 53.8624L137.484 54.2045L137.777 53.9929L138.069 54.2045L137.958 53.8624L138.25 53.6507H137.889L137.777 53.3086Z" fill="white"/>
<path d="M137.776 55.0425L137.664 55.3846H137.303L137.595 55.5963L137.483 55.9384L137.776 55.7268L138.068 55.9384L137.957 55.5963L138.249 55.3846H137.888L137.776 55.0425Z" fill="white"/>
<path d="M137.776 56.7788L137.664 57.1209H137.303L137.595 57.3326L137.483 57.6747L137.776 57.4631L138.068 57.6747L137.957 57.3326L138.249 57.1209H137.888L137.776 56.7788Z" fill="white"/>
<path d="M137.776 58.5132L137.664 58.8553H137.303L137.595 59.067L137.483 59.4091L137.776 59.1975L138.068 59.4091L137.957 59.067L138.249 58.8553H137.888L137.776 58.5132Z" fill="white"/>
<path d="M137.888 60.5897L137.776 60.2476L137.664 60.5897H137.303L137.595 60.8013L137.483 61.144L137.776 60.9324L138.068 61.144L137.957 60.8013L138.249 60.5897H137.888Z" fill="white"/>
<path d="M138.803 54.1753L138.692 54.5174H138.33L138.623 54.7291L138.511 55.0717L138.803 54.8601L139.096 55.0717L138.984 54.7291L139.276 54.5174H138.915L138.803 54.1753Z" fill="white"/>
<path d="M138.803 55.9111L138.692 56.2533H138.33L138.623 56.4649L138.511 56.807L138.803 56.5954L139.096 56.807L138.984 56.4649L139.276 56.2533H138.915L138.803 55.9111Z" fill="white"/>
<path d="M138.803 57.646L138.692 57.9881H138.33L138.623 58.1998L138.511 58.5424L138.803 58.3308L139.096 58.5424L138.984 58.1998L139.276 57.9881H138.915L138.803 57.646Z" fill="white"/>
<path d="M138.915 59.723L138.803 59.3809L138.692 59.723H138.33L138.623 59.9346L138.511 60.2768L138.803 60.0651L139.096 60.2768L138.984 59.9346L139.276 59.723H138.915Z" fill="white"/>
<path d="M139.829 53.3086L139.717 53.6507H139.355L139.648 53.8624L139.536 54.2045L139.829 53.9929L140.121 54.2045L140.009 53.8624L140.302 53.6507H139.94L139.829 53.3086Z" fill="white"/>
<path d="M139.829 55.0425L139.717 55.3846H139.355L139.648 55.5963L139.536 55.9384L139.829 55.7268L140.121 55.9384L140.009 55.5963L140.302 55.3846H139.94L139.829 55.0425Z" fill="white"/>
<path d="M139.829 56.7788L139.717 57.1209H139.355L139.648 57.3326L139.536 57.6747L139.829 57.4631L140.121 57.6747L140.009 57.3326L140.302 57.1209H139.94L139.829 56.7788Z" fill="white"/>
<path d="M139.829 58.5132L139.717 58.8553H139.355L139.648 59.067L139.536 59.4091L139.829 59.1975L140.121 59.4091L140.009 59.067L140.302 58.8553H139.94L139.829 58.5132Z" fill="white"/>
<path d="M139.94 60.5897L139.829 60.2476L139.717 60.5897H139.355L139.648 60.8013L139.536 61.144L139.829 60.9324L140.121 61.144L140.009 60.8013L140.302 60.5897H139.94Z" fill="white"/>
<path d="M140.854 54.1753L140.742 54.5174H140.381L140.673 54.7291L140.562 55.0717L140.854 54.8601L141.146 55.0717L141.035 54.7291L141.327 54.5174H140.966L140.854 54.1753Z" fill="white"/>
<path d="M140.854 55.9111L140.742 56.2533H140.381L140.673 56.4649L140.562 56.807L140.854 56.5954L141.146 56.807L141.035 56.4649L141.327 56.2533H140.966L140.854 55.9111Z" fill="white"/>
<path d="M140.854 57.646L140.742 57.9881H140.381L140.673 58.1998L140.562 58.5424L140.854 58.3308L141.146 58.5424L141.035 58.1998L141.327 57.9881H140.966L140.854 57.646Z" fill="white"/>
<path d="M140.966 59.723L140.854 59.3809L140.742 59.723H140.381L140.673 59.9346L140.562 60.2768L140.854 60.0651L141.146 60.2768L141.035 59.9346L141.327 59.723H140.966Z" fill="white"/>
<path d="M141.88 53.3086L141.769 53.6507H141.407L141.7 53.8624L141.589 54.2045L141.88 53.9929L142.173 54.2045L142.061 53.8624L142.354 53.6507H141.992L141.88 53.3086Z" fill="white"/>
<path d="M141.879 55.0425L141.768 55.3846H141.406L141.699 55.5963L141.588 55.9384L141.879 55.7268L142.172 55.9384L142.06 55.5963L142.353 55.3846H141.991L141.879 55.0425Z" fill="white"/>
<path d="M141.879 56.7788L141.768 57.1209H141.406L141.699 57.3326L141.588 57.6747L141.879 57.4631L142.172 57.6747L142.06 57.3326L142.353 57.1209H141.991L141.879 56.7788Z" fill="white"/>
<path d="M141.879 58.5132L141.768 58.8553H141.406L141.699 59.067L141.588 59.4091L141.879 59.1975L142.172 59.4091L142.06 59.067L142.353 58.8553H141.991L141.879 58.5132Z" fill="white"/>
<path d="M141.991 60.5897L141.879 60.2476L141.768 60.5897H141.406L141.699 60.8013L141.588 61.144L141.879 60.9324L142.172 61.144L142.06 60.8013L142.353 60.5897H141.991Z" fill="white"/>
<path d="M142.906 54.1753L142.794 54.5174H142.433L142.725 54.7291L142.613 55.0717L142.906 54.8601L143.198 55.0717L143.086 54.7291L143.379 54.5174H143.017L142.906 54.1753Z" fill="white"/>
<path d="M142.906 55.9111L142.794 56.2533H142.433L142.725 56.4649L142.613 56.807L142.906 56.5954L143.198 56.807L143.086 56.4649L143.379 56.2533H143.017L142.906 55.9111Z" fill="white"/>
<path d="M142.906 57.646L142.794 57.9881H142.433L142.725 58.1998L142.613 58.5424L142.906 58.3308L143.198 58.5424L143.086 58.1998L143.379 57.9881H143.017L142.906 57.646Z" fill="white"/>
<path d="M143.017 59.723L142.906 59.3809L142.794 59.723H142.433L142.725 59.9346L142.613 60.2768L142.906 60.0651L143.198 60.2768L143.086 59.9346L143.379 59.723H143.017Z" fill="white"/>
<path d="M143.639 54.2045L143.931 53.9929L144.224 54.2045L144.112 53.8624L144.404 53.6507H144.043L143.931 53.3086L143.82 53.6507H143.458L143.75 53.8624L143.639 54.2045Z" fill="white"/>
<path d="M143.932 55.0425L143.82 55.3846H143.459L143.751 55.5963L143.64 55.9384L143.932 55.7268L144.225 55.9384L144.113 55.5963L144.405 55.3846H144.044L143.932 55.0425Z" fill="white"/>
<path d="M143.932 56.7788L143.82 57.1209H143.459L143.751 57.3326L143.64 57.6747L143.932 57.4631L144.225 57.6747L144.113 57.3326L144.405 57.1209H144.044L143.932 56.7788Z" fill="white"/>
<path d="M143.932 58.5132L143.82 58.8553H143.459L143.751 59.067L143.64 59.4091L143.932 59.1975L144.225 59.4091L144.113 59.067L144.405 58.8553H144.044L143.932 58.5132Z" fill="white"/>
<path d="M144.044 60.5897L143.932 60.2476L143.82 60.5897H143.459L143.751 60.8013L143.64 61.144L143.932 60.9324L144.225 61.144L144.113 60.8013L144.405 60.5897H144.044Z" fill="white"/>
</g>
<path d="M181 53H157V69H181V53Z" fill="#FF0000"/>
<path d="M175 53H163V69H175V53Z" fill="#F5F5F5"/>
<path d="M169 55.9976L168.152 57.5816C168.056 57.7522 167.886 57.7362 167.71 57.6402L167.096 57.3202L167.555 59.7522C167.651 60.1949 167.342 60.1949 167.187 60.0029L166.115 58.8029L165.939 59.4109C165.918 59.4909 165.832 59.5762 165.699 59.5549L164.344 59.2669L164.702 60.5629C164.776 60.8509 164.835 60.9682 164.627 61.0482L164.142 61.2776L166.478 63.1762C166.568 63.2456 166.616 63.3789 166.584 63.4962L166.382 64.1682C167.187 64.0776 167.907 63.9336 168.712 63.8482C168.782 63.8429 168.904 63.9602 168.904 64.0402L168.798 66.4989H169.187L169.123 64.0456C169.123 63.9656 169.23 63.8429 169.299 63.8482C170.104 63.9336 170.824 64.0722 171.63 64.1682L171.427 63.4962C171.395 63.3789 171.443 63.2509 171.534 63.1762L173.87 61.2776L173.384 61.0482C173.171 60.9736 173.23 60.8509 173.31 60.5629L173.667 59.2669L172.312 59.5549C172.179 59.5762 172.094 59.4909 172.072 59.4109L171.896 58.8029L170.814 60.0082C170.659 60.2002 170.35 60.2002 170.446 59.7576L170.904 57.3256L170.291 57.6456C170.12 57.7416 169.944 57.7576 169.848 57.5869L169 55.9976Z" fill="#FF0000"/>
<path d="M181 53H205V69H181V53Z" fill="#00008B"/>
<path d="M187.368 62.1733L187.709 63.24L188.76 62.84L188.136 63.7787L189.101 64.3493L187.986 64.4453L188.141 65.5547L187.368 64.744L186.594 65.5547L186.749 64.4453L185.629 64.3493L186.594 63.7787L185.976 62.84L187.021 63.24L187.368 62.1733Z" fill="#F5F5F5"/>
<path d="M199.235 64.0933L199.4 64.5999L199.896 64.4133L199.603 64.8559L200.062 65.1279L199.528 65.1759L199.603 65.7039L199.235 65.3199L198.867 65.7039L198.942 65.1759L198.408 65.1279L198.867 64.8559L198.574 64.4133L199.07 64.5999L199.235 64.0933Z" fill="#F5F5F5"/>
<path d="M196.269 59.3945L196.429 59.9065L196.93 59.7145L196.637 60.1572L197.096 60.4345L196.562 60.4772L196.637 61.0052L196.269 60.6212L195.901 61.0052L195.97 60.4772L195.442 60.4345L195.901 60.1572L195.602 59.7145L196.104 59.9065L196.269 59.3945Z" fill="#F5F5F5"/>
<path d="M199.235 56.1841L199.4 56.6908L199.896 56.4988L199.603 56.9468L200.062 57.2188L199.528 57.2668L199.603 57.7948L199.235 57.4054L198.867 57.7948L198.942 57.2668L198.408 57.2188L198.867 56.9468L198.574 56.4988L199.07 56.6908L199.235 56.1841Z" fill="#F5F5F5"/>
<path d="M201.869 58.6055L202.034 59.1121L202.536 58.9255L202.237 59.3681L202.696 59.6401L202.168 59.6881L202.237 60.2161L201.869 59.8268L201.506 60.2161L201.576 59.6881L201.048 59.6401L201.506 59.3681L201.208 58.9255L201.709 59.1121L201.869 58.6055Z" fill="#F5F5F5"/>
<path d="M200.424 60.9839L200.552 61.3039L200.893 61.3252L200.632 61.5492L200.712 61.8799L200.424 61.6985L200.131 61.8799L200.211 61.5492L199.949 61.3252L200.291 61.3039L200.424 60.9839Z" fill="#F5F5F5"/>
<path d="M181 58.3335V60.1682L183.752 58.3335H181Z" fill="#00008B"/>
<path d="M191.752 53H188.333V55.2773L191.752 53Z" fill="#00008B"/>
<path d="M182.248 61H185.667V58.7227L182.248 61Z" fill="#00008B"/>
<path d="M181 53.832V55.6667H183.752L181 53.832Z" fill="#00008B"/>
<path d="M185.667 53H182.248L185.667 55.2773V53Z" fill="#00008B"/>
<path d="M193 60.1682V58.3335H190.248L193 60.1682Z" fill="#00008B"/>
<path d="M193 55.6667V53.832L190.248 55.6667H193Z" fill="#00008B"/>
<path d="M188.333 61H191.752L188.333 58.7227V61Z" fill="#00008B"/>
<path d="M185.667 55.6667V55.2773L182.248 53H181L185 55.6667H185.667Z" fill="#F5F5F5"/>
<path d="M184.168 55.6667L181 53.5547V53.832L183.752 55.6667H184.168Z" fill="#F5F5F5"/>
<path d="M188.333 58.3335V58.7228L191.752 61.0002H193L189 58.3335H188.333Z" fill="#F5F5F5"/>
<path d="M185.667 58.4453L181.832 61H182.248L185.667 58.7227V58.4453Z" fill="#F5F5F5"/>
<path d="M183.752 58.3335L181 60.1682V61.0002L185 58.3335H183.752Z" fill="#F5F5F5"/>
<path d="M189.832 58.3335L193 60.4455V60.1682L190.248 58.3335H189.832Z" fill="#F5F5F5"/>
<path d="M190.248 55.6667L193 53.832V53L189 55.6667H190.248Z" fill="#F5F5F5"/>
<path d="M188.333 55.5547L192.168 53H191.752L188.333 55.2773V55.5547Z" fill="#F5F5F5"/>
<path d="M185 55.6667L181 53V53.5547L184.168 55.6667H185Z" fill="#CF142B"/>
<path d="M189.832 58.3335H189L193 61.0002V60.4455L189.832 58.3335Z" fill="#CF142B"/>
<path d="M185.667 58.3335H185L181 61.0002H181.832L185.667 58.4455V58.3335Z" fill="#CF142B"/>
<path d="M188.333 55.6667H189L193 53H192.168L188.333 55.5547V55.6667Z" fill="#CF142B"/>
<path d="M187.8 56.2H193V55.6667H190.248H189H188.333V55.5547V55.2773V53H187.8V56.2Z" fill="#F5F5F5"/>
<path d="M188.333 58.3331H189H189.832H190.248H193V57.7998H187.8V60.9998H188.333V58.7225V58.3331Z" fill="#F5F5F5"/>
<path d="M186.2 57.7998H181V58.3331H183.752H185H185.667V58.4451V58.7225V60.9998H186.2V57.7998Z" fill="#F5F5F5"/>
<path d="M186.2 56.2V53H185.667V55.2773V55.6667H185H184.168H183.752H181V56.2H186.2Z" fill="#F5F5F5"/>
<path d="M187.8 57.8H193V57V56.2H187.8V53H187H186.2V56.2H181V57V57.8H186.2V61H187H187.8V57.8Z" fill="#CF142B"/>
<path d="M229 53H205V69H229V53Z" fill="#2E3192"/>
<path d="M216.222 56.1626L216.856 55.6773L217.507 56.1306L217.246 55.3786L217.875 54.8986L217.08 54.9146L216.819 54.168L216.59 54.9306L215.795 54.9466L216.451 55.4L216.222 56.1626Z" fill="white"/>
<path d="M217.08 67L216.819 66.248L216.59 67.0107L215.795 67.032L216.451 67.48L216.222 68.2427L216.856 67.7627L217.507 68.216L217.246 67.464L217.875 66.984L217.08 67Z" fill="white"/>
<path d="M210.264 62.0881L210.909 61.6294L211.549 62.1041L211.309 61.3414L211.96 60.8827L211.165 60.8721L210.931 60.1147L210.675 60.8667L209.88 60.8561L210.515 61.3307L210.264 62.0881Z" fill="white"/>
<path d="M223.629 62.1041L223.395 61.3414L224.045 60.8827L223.251 60.8721L223.011 60.1147L222.755 60.8667L221.96 60.8561L222.6 61.3307L222.344 62.0881L222.995 61.6294L223.629 62.1041Z" fill="white"/>
<path d="M218.888 56.4876L219.677 56.3969L220.008 57.1169L220.168 56.3383L220.957 56.2476L220.264 55.8583L220.424 55.0796L219.837 55.6183L219.144 55.2236L219.474 55.9489L218.888 56.4876Z" fill="white"/>
<path d="M214.69 66.0721L213.896 66.1095L213.618 65.3628L213.405 66.1308L212.61 66.1628L213.277 66.6055L213.064 67.3681L213.688 66.8721L214.349 67.3095L214.072 66.5681L214.69 66.0721Z" fill="white"/>
<path d="M211.064 59.0372L211.704 58.5626L212.349 59.0266L212.099 58.2692L212.739 57.7999L211.944 57.8052L211.688 57.0532L211.448 57.8106L210.653 57.8159L211.304 58.2799L211.064 59.0372Z" fill="white"/>
<path d="M221.688 64.4557L221.448 65.2184L222.088 64.7437L222.733 65.2024L222.482 64.4504L223.122 63.9757L222.322 63.9864L222.072 63.229L221.832 63.9864L221.037 63.9971L221.688 64.4557Z" fill="white"/>
<path d="M221.688 57.9868L221.037 58.4455L221.832 58.4561L222.066 59.2188L222.328 58.4615L223.122 58.4775L222.482 57.9975L222.744 57.2455L222.093 57.7041L221.453 57.2241L221.688 57.9868Z" fill="white"/>
<path d="M211.944 64.2586L212.562 63.7573L211.768 63.7999L211.48 63.0586L211.277 63.8266L210.482 63.8693L211.149 64.3013L210.946 65.0693L211.565 64.5679L212.232 64.9999L211.944 64.2586Z" fill="white"/>
<path d="M213.293 56.856L213.928 56.376L214.579 56.8293L214.317 56.0773L214.952 55.5973L214.157 55.6133L213.896 54.8613L213.667 55.624L212.872 55.64L213.523 56.0933L213.293 56.856Z" fill="white"/>
<path d="M220.157 66.1041L219.901 65.3521L219.667 66.1094L218.872 66.1253L219.523 66.5841L219.293 67.3414L219.928 66.8614L220.579 67.3201L220.317 66.5681L220.952 66.0881L220.157 66.1041Z" fill="white"/>
<g clip-path="url(#clip4)">
<path d="M253 53H229V69H253V53Z" fill="#00A99D"/>
<path d="M234.478 61.784C234.478 61.2507 234.478 60.712 234.478 60.1787C234.51 60.0134 234.531 59.8427 234.568 59.6774C235.043 57.464 236.302 55.8747 238.371 54.9467C239.128 54.6054 239.928 54.4187 240.771 54.4454C241.123 54.456 241.48 54.424 241.827 54.4667C243.336 54.6534 244.643 55.2827 245.688 56.392C247.187 57.976 247.747 59.8747 247.438 62.0187C247.192 63.7254 246.376 65.1281 245.011 66.1841C243.395 67.4321 241.56 67.8161 239.566 67.4054C237.075 66.8934 235.086 64.8881 234.584 62.392C234.547 62.1894 234.515 61.9867 234.478 61.784ZM237.384 60.6854C237.448 59.672 237.699 58.712 238.04 57.768C237.512 57.5334 237.006 57.2827 236.542 56.9574C235.603 58.0294 235.134 59.272 235.064 60.6854C235.838 60.6854 236.606 60.6854 237.384 60.6854ZM243.928 57.7734C244.27 58.7227 244.52 59.6827 244.584 60.6854C245.363 60.6854 246.136 60.6854 246.91 60.6854C246.835 59.272 246.366 58.024 245.427 56.9627C244.958 57.2934 244.451 57.5387 243.928 57.7734ZM238.014 64.2001C237.87 63.7094 237.72 63.2348 237.598 62.7547C237.47 62.2747 237.406 61.7787 237.384 61.2774C236.606 61.2774 235.838 61.2774 235.059 61.2774C235.128 62.6907 235.603 63.9388 236.542 65.0054C237.011 64.6694 237.512 64.4241 238.014 64.2001ZM245.427 65.0054C245.923 64.4508 246.296 63.8268 246.547 63.1334C246.766 62.536 246.883 61.9174 246.91 61.2774C246.131 61.2774 245.363 61.2774 244.584 61.2774C244.542 62.2907 244.28 63.2508 243.928 64.1948C244.451 64.4241 244.958 64.6748 245.427 65.0054ZM243.406 63.9974C243.731 63.1121 243.955 62.216 244.003 61.2774C243.091 61.2774 242.184 61.2774 241.278 61.2774C241.278 62.008 241.278 62.728 241.278 63.4588C242.019 63.5121 242.718 63.7148 243.406 63.9974ZM243.395 57.9707C242.712 58.2534 242.014 58.456 241.278 58.5094C241.278 59.2454 241.278 59.9654 241.278 60.6854C242.19 60.6854 243.096 60.6854 243.998 60.6854C243.992 59.9547 243.656 58.424 243.395 57.9707ZM237.96 61.2774C238.008 62.2214 238.232 63.1174 238.558 64.0028C239.246 63.7201 239.944 63.5174 240.686 63.4588C240.686 62.728 240.686 62.0027 240.686 61.2774C239.779 61.2774 238.878 61.2774 237.96 61.2774ZM237.96 60.6854C238.878 60.6854 239.779 60.6854 240.686 60.6854C240.686 59.96 240.686 59.2347 240.686 58.5094C239.944 58.456 239.246 58.2534 238.558 57.9707C238.227 58.8454 238.003 59.7414 237.96 60.6854ZM243.224 57.4854C243.219 57.464 243.219 57.4534 243.214 57.448C242.867 56.616 242.419 55.8427 241.896 55.112C241.88 55.096 241.864 55.0694 241.843 55.0694C241.656 55.0427 241.464 55.0214 241.272 55C241.272 55.9867 241.272 56.9414 241.272 57.912C241.95 57.864 242.595 57.7094 243.224 57.4854ZM241.278 64.0668C241.278 65.0268 241.278 65.9867 241.278 66.9627C241.448 66.9467 241.608 66.9254 241.768 66.9147C241.838 66.9094 241.886 66.8774 241.923 66.8241C242.44 66.1094 242.856 65.3361 243.187 64.5201C243.192 64.5041 243.198 64.4827 243.203 64.4614C242.771 64.2748 241.603 64.0348 241.278 64.0668ZM240.691 54.9947C240.515 55.0107 240.35 55.032 240.184 55.0427C240.12 55.048 240.078 55.0747 240.046 55.128C239.763 55.5867 239.464 56.04 239.192 56.5094C239.016 56.8134 238.878 57.144 238.723 57.464C239.075 57.6507 240.387 57.9334 240.686 57.8907C240.691 56.936 240.691 55.9814 240.691 54.9947ZM240.686 66.9681C240.686 65.9814 240.686 65.0268 240.686 64.0561C240.019 64.0988 239.379 64.2374 238.76 64.4561C238.76 64.4721 238.755 64.4721 238.755 64.4774C239.091 65.3254 239.523 66.1254 240.067 66.8561C240.083 66.8721 240.104 66.8988 240.12 66.8988C240.307 66.9254 240.494 66.9468 240.686 66.9681ZM243.731 64.6854C243.571 65.0374 243.427 65.3841 243.251 65.7148C243.075 66.0508 242.867 66.3654 242.67 66.7014C243.566 66.4827 244.339 66.0401 245.022 65.4108C244.611 65.1121 244.184 64.8774 243.731 64.6854ZM236.947 65.4161C237.63 66.0401 238.403 66.4828 239.326 66.7068C238.862 66.0721 238.515 65.3948 238.248 64.6854C237.95 64.7761 237.176 65.2134 236.947 65.4161ZM238.232 57.2667C238.52 56.552 238.872 55.88 239.326 55.2347C238.408 55.48 237.63 55.9227 236.942 56.552C237.352 56.8454 237.779 57.0747 238.232 57.2667ZM242.638 55.24C243.096 55.88 243.448 56.5574 243.736 57.272C244.195 57.0747 244.622 56.8454 245.022 56.5574C244.334 55.9227 243.555 55.48 242.638 55.24Z" fill="white"/>
</g>
<defs>
<clipPath id="clip0">
<rect width="58" height="32" fill="white" transform="translate(38 21)"/>
</clipPath>
<clipPath id="clip1">
<rect width="58" height="32" fill="white" transform="translate(96 21)"/>
</clipPath>
<clipPath id="clip2">
<rect width="60" height="32" fill="white" transform="translate(213 21)"/>
</clipPath>
<clipPath id="clip3">
<rect width="24" height="16" fill="white" transform="translate(109 53)"/>
</clipPath>
<clipPath id="clip4">
<rect width="24" height="16" fill="white" transform="translate(229 53)"/>
</clipPath>
</defs>
</svg>
