<svg width="180" height="14" viewBox="0 0 180 14" fill="none" xmlns="http://www.w3.org/2000/svg">
<path d="M0.787658 3.68409C2.83922 5.50334 5.02876 7.17369 7.08032 8.99293C9.12744 10.6676 10.5783 11.492 12.9508 9.82836C14.9048 8.46682 17.2729 6.65861 18.782 4.73166C18.9244 4.72735 18.9288 4.87193 19.0712 4.86763C19.3738 5.43733 20.0992 5.84954 20.5398 6.27036C21.5678 7.25227 22.4534 8.23849 23.4769 9.07582C25.0924 10.6188 26.8413 11.8684 29.0891 10.7874C31.3413 9.85094 32.6947 7.49456 34.4975 5.84816C34.6355 5.69927 34.7735 5.55038 34.9115 5.40149C34.493 5.70358 34.6443 5.98843 35.214 5.9712C35.6546 6.39202 36.3712 6.51506 36.9497 6.78699C37.9644 7.33516 38.9791 7.88333 39.9938 8.43149C42.3125 9.66379 44.4976 11.1896 46.6827 12.7153C47.4126 13.2721 48.6855 12.9442 49.2375 12.3486C50.1946 11.0172 51.1561 9.83043 52.1132 8.49905C52.6608 7.75891 53.2083 7.01877 53.7559 6.27863C53.8939 6.12974 54.0319 5.98085 54.1654 5.68738C54.3034 5.53849 54.3034 5.53849 54.3034 5.53849C55.603 6.07804 56.7778 7.20023 57.9438 8.03325C59.2522 8.86196 60.5651 9.83526 62.0159 10.6597C64.4903 12.3214 66.9381 13.1157 69.5822 11.0097C71.5274 9.35895 73.3301 7.71255 75.2754 6.06185C76.8775 7.17111 78.4752 8.13578 80.2197 9.24074C81.8174 10.2054 83.4284 11.6038 85.4091 11.1098C87.2473 10.62 88.9032 8.83336 90.4344 7.62932C91.2713 7.02515 92.1081 6.42097 92.8025 5.82111C93.6393 5.21693 94.209 5.1997 95.2193 5.60329C98.5394 6.95001 101.187 9.61951 104.904 9.94124C108.762 10.2587 111.389 7.57435 114.318 5.45974C115.292 4.70668 115.154 4.85557 116.174 5.54832C117.046 6.10079 117.776 6.65758 118.648 7.21005C120.392 8.31501 122.137 9.41996 124.144 9.79339C126.147 10.0222 127.83 9.10305 129.655 8.17956C130.638 7.71566 131.622 7.25176 132.606 6.78786C133.589 6.32396 135.125 5.2645 136.402 5.08114C138.111 5.02945 140.297 6.55522 141.752 7.5242C143.354 8.63347 144.689 10.3297 146.696 10.7031C148.561 11.0808 150.39 10.3019 151.779 9.10219C153.31 7.89815 154.677 5.97552 156.689 6.49353C158.696 6.86696 160.311 8.40996 162.051 9.37033C163.938 10.471 165.959 11.2781 168.247 11.4984C172.395 11.9518 176.619 10.2321 178.782 6.40409C180.131 3.90313 176.362 1.84642 175.013 4.34738C173.121 7.73307 168.99 7.858 165.808 6.36239C162.626 4.86677 159.974 2.05269 156.266 2.02012C154.553 1.92724 153.008 2.69754 151.611 3.60811C150.498 4.51006 148.575 6.88367 147.124 6.05926C145.678 5.37944 144.347 3.82782 142.892 2.85883C141.294 1.89415 139.412 0.93809 137.694 0.700625C135.833 0.467469 134.289 1.23777 132.602 2.01237C130.492 2.94448 128.395 4.31033 126.281 5.09786C124.447 5.73219 122.69 4.19349 121.239 3.36909C119.784 2.4001 118.164 0.712516 116.303 0.479359C113.005 -0.14446 110.423 3.98567 107.753 5.22417C104.659 6.62018 101.58 3.81903 98.9717 2.45076C97.374 1.48608 95.4959 0.674603 93.6533 1.01977C91.6682 1.36925 90.0078 3.01134 88.4766 4.21538C87.6397 4.81955 86.3978 6.15955 85.4097 6.47887C85.2673 6.48318 84.9957 6.92554 84.9957 6.92554C84.7109 6.93416 83.6873 6.09683 83.398 5.96086C81.3597 4.57537 79.1791 3.19417 77.1408 1.80868C77.1408 1.80868 76.9984 1.81298 76.994 1.6684C76.2641 1.11162 75.1203 1.0015 74.2923 1.89484C73.0415 2.94568 71.9331 3.99221 70.6823 5.04306C70.1303 5.63861 69.4315 6.0939 68.8795 6.68946C68.4611 6.99154 67.6376 8.02946 67.0723 8.19127C65.9373 8.37032 63.8813 6.4065 63.0091 5.85402C61.7007 5.02531 60.5347 4.19228 59.2263 3.36357C57.188 1.97807 54.7003 -0.117407 52.4835 1.97566C51.3752 3.02219 50.5649 4.49385 49.7458 5.67635C49.1983 6.41649 48.5127 7.30552 47.9652 8.04566C44.3248 5.5509 40.5509 3.34961 36.5098 1.73526C34.0575 0.796433 32.6776 2.28533 31.0172 3.92742C30.1893 4.82075 29.3702 6.00325 28.3909 6.61173C27.5541 7.21591 28.1149 6.90951 27.3895 6.49731C26.9534 6.22107 26.3615 5.5154 25.9209 5.09458C24.893 4.11267 24.0074 3.12645 22.9838 2.28912C22.2496 1.58775 21.364 0.601533 20.3537 0.197946C18.0483 -0.600611 16.6817 1.32203 15.1549 2.67065C14.1845 3.56829 13.2141 4.46593 12.1013 5.36789C12.1013 5.36789 11.2644 5.97206 10.846 6.27415C10.6992 6.13387 10.5523 5.9936 10.4055 5.85333C8.35391 4.03409 6.16437 2.36373 4.11281 0.544492C1.63399 -1.26183 -1.26389 1.86485 0.787658 3.68409Z" fill="white"/>
</svg>
