<svg width="240" height="298" viewBox="0 0 240 298" fill="none" xmlns="http://www.w3.org/2000/svg">
<path d="M105.23 156.548C104.506 157.114 103.752 157.621 102.979 158.059L102.969 158.069C102.969 158.069 102.969 158.069 102.959 158.069C100.619 159.401 98.0804 160.196 95.4031 160.872C90.7326 162.055 89.0271 154.619 93.6876 153.436C95.8593 152.889 98.2689 152.402 100.074 150.98C101.194 150.095 102.592 149.737 103.852 150.165H103.862C104.407 150.344 104.913 150.672 105.359 151.159C106.658 152.561 106.826 155.295 105.23 156.548Z" fill="#F1C527"/>
<path d="M67.9461 49.7606C67.8469 46.957 67.0933 44.1335 64.6738 41.8667C62.1155 39.4707 58.6547 39.242 56.4831 36.3787C54.6586 33.9728 50.6128 34.2312 48.5899 36.1501C46.2002 38.4069 46.5274 41.648 48.3619 44.0639C49.5816 45.6745 51.1384 47.0663 52.8836 48.1003C53.9248 48.7167 55.9774 49.0945 56.9393 49.9098C56.85 50.5858 56.85 53.131 56.8699 53.2403C57.1574 54.493 57.911 55.6761 58.9522 56.4516C58.6151 59.3745 61.5998 61.9992 64.3168 62.1185C67.6288 62.2577 69.6517 59.7523 70.1276 56.7598C70.5739 53.8865 69.5723 51.6595 67.9461 49.7606Z" fill="#F1C527"/>
<path d="M88.0252 99.7689V99.7788C87.9062 100.236 87.7773 100.684 87.6385 101.141C87.4203 101.002 87.1922 100.872 86.9741 100.733C85.9924 100.137 85.0107 99.5303 84.0191 98.9437C82.9581 98.3174 81.8772 97.7209 80.7468 97.2238C79.7651 96.7863 78.7338 96.4085 77.6629 96.2793C76.8101 96.1798 75.8978 96.2793 75.1739 96.7863C74.3311 97.3729 73.9146 98.3571 73.7262 99.3315C73.5873 100.017 73.5179 100.773 73.8055 101.429C74.0534 102.016 74.5988 102.374 75.1938 102.523C75.997 102.732 76.7506 102.622 77.5538 102.553C77.9405 102.513 78.357 102.513 78.6941 102.751C79.061 103.02 79.3783 103.418 79.6659 103.766C80.3204 104.541 80.8955 105.376 81.4607 106.211C81.9169 106.887 82.4028 107.544 82.8192 108.239C83.2456 108.955 83.6423 109.741 84.148 110.447C84.1282 110.496 84.1182 110.556 84.0984 110.606C83.3349 113.131 82.7201 115.706 81.0244 116.849C80.9451 116.899 80.8757 116.949 80.7964 116.988C80.6476 117.078 80.489 117.157 80.3204 117.217C79.656 117.476 78.8429 117.545 77.8513 117.376C77.3753 117.287 76.8993 117.167 76.4432 117.008C70.4539 114.96 64.7323 111.799 59.6453 108.07C57.206 106.281 56.1648 103.08 57.8604 100.355C58.3364 99.59 59.0404 98.9537 59.8436 98.4963C59.9527 98.2577 60.0717 98.0291 60.2006 97.8103C60.27 97.6811 60.3593 97.5518 60.4386 97.4226C60.5477 97.2635 60.6667 97.1144 60.7956 96.9653C60.8452 96.8857 60.9146 96.8161 60.984 96.7366C61.0732 96.6372 61.1625 96.5477 61.2517 96.4582C61.3013 96.4085 61.3509 96.3588 61.4005 96.319C61.5492 96.1798 61.698 96.0506 61.8566 95.9313C61.9855 95.8319 62.1243 95.7325 62.2632 95.6529C62.4615 95.5137 62.6697 95.3944 62.8879 95.295C62.8978 95.295 62.8978 95.2851 62.9077 95.2851C63.0565 95.2155 63.2151 95.1558 63.3738 95.0962C63.4333 95.0663 63.4928 95.0365 63.5523 95.0166C63.5721 95.0067 63.5919 94.9968 63.6118 94.9968C66.9931 93.8832 70.3745 92.7797 73.7658 91.6662C76.6514 90.7217 79.9138 89.121 83.0176 89.3596C83.5927 89.3994 84.148 89.5088 84.6735 89.6778C84.852 89.7474 85.0305 89.8269 85.1991 89.9164C85.3478 89.986 85.4966 90.0655 85.6354 90.1451C85.8238 90.2544 86.0023 90.3638 86.1709 90.4831C86.2998 90.5825 86.4089 90.672 86.5179 90.7615C86.6468 90.8708 86.7658 90.9802 86.8848 91.0896C86.9939 91.1989 87.103 91.3182 87.2022 91.4375C87.4203 91.6861 87.5988 91.9446 87.7575 92.2229C87.8169 92.3422 87.8864 92.4615 87.9459 92.5908C88.0153 92.73 88.0748 92.8692 88.1243 93.0084C88.2632 93.3464 88.3623 93.7142 88.4417 94.0821V94.092C88.7788 95.8021 88.5408 97.7805 88.0252 99.7689Z" fill="#F1C527"/>
<path d="M205.135 184.097C204.133 184.743 202.943 185.141 201.803 185.23C195.348 185.767 189.606 188.7 184.579 192.647C181.247 195.252 177.935 197.866 174.573 200.412C174.554 200.431 174.534 200.441 174.514 200.461C172.243 202.181 169.943 203.871 167.602 205.512C162.654 208.972 157.567 212.243 152.361 215.305C150.16 216.597 147.81 217.989 145.38 219.222H145.37C142.177 220.852 138.826 222.214 135.474 222.771C134.373 222.95 133.342 222.95 132.37 222.801H132.36C128.801 222.244 126.103 219.669 124.14 216.537C124.14 216.528 124.13 216.528 124.13 216.518C124.12 216.518 124.12 216.508 124.12 216.508C123.247 215.126 122.514 213.624 121.919 212.153C119.737 206.784 118.329 200.889 117.585 195.142C117.417 193.86 117.298 192.577 117.248 191.325V191.315C117.248 191.305 117.248 191.305 117.248 191.295C117.228 190.489 117.218 189.684 117.248 188.899C117.288 187.686 117.407 186.483 117.605 185.29C118.428 186.016 119.003 187.069 119.509 188.024C120.164 189.247 120.749 190.539 121.601 191.653C122.881 193.303 124.239 194.904 125.558 196.524C126.877 198.135 128.136 199.785 129.564 201.296C132.311 204.209 135.306 206.914 138.32 209.538C139.748 210.791 141.206 212.014 142.762 213.107C144.061 214.022 145.589 214.877 147.205 215.016C148.553 215.126 149.803 214.489 150.834 213.684C151.766 212.948 152.5 211.984 153.045 210.93C154.186 208.713 154.602 206.208 155.019 203.772C155.227 202.569 155.435 201.356 155.743 200.163C155.872 199.646 156.03 199.139 156.219 198.642C156.516 197.866 156.645 197.061 156.754 196.246C157.012 194.267 157.379 192.329 157.775 190.37C158.083 188.899 158.39 187.398 158.46 185.886V185.876C158.489 185.429 158.489 184.972 158.46 184.524C158.37 182.904 157.974 181.303 157.508 179.732V179.722C157.418 179.394 157.319 179.066 157.22 178.738C156.665 176.879 156.01 175.05 155.534 173.171C155.118 171.56 154.662 169.741 155.068 168.08C155.078 168.011 155.098 167.951 155.118 167.881C155.515 166.499 156.447 165.366 157.339 164.272C158.202 163.219 159.094 162.145 159.63 160.882C159.947 160.156 160.185 159.331 160.205 158.516V158.506C160.225 158.049 160.175 157.601 160.046 157.174C159.64 155.881 158.539 155.325 157.28 155.116C155.604 154.838 153.878 155.096 152.203 155.275C150.785 155.424 149.267 155.444 147.899 155.852C147.294 156.031 146.699 156.309 146.332 156.836C145.965 157.363 145.856 158.039 145.817 158.665C145.777 159.391 145.836 160.127 145.886 160.852C145.936 161.678 145.946 162.503 146.025 163.328C146.213 165.456 146.57 167.553 146.818 169.671C147.046 171.699 147.046 173.737 146.917 175.765C146.848 176.76 146.759 177.754 146.65 178.738C146.57 179.514 146.431 180.289 146.412 181.064C146.362 182.228 146.392 183.391 146.213 184.544C146.154 184.922 146.084 185.499 145.777 185.757C145.42 186.055 145.043 185.707 144.805 185.439C144.428 185.011 144.151 184.494 143.873 183.997C143.566 183.451 143.238 182.924 142.901 182.387C141.82 180.697 140.759 178.987 139.807 177.217C138.816 175.388 137.993 173.499 137.219 171.57C136.436 169.621 135.653 167.663 134.919 165.694C134.205 163.765 133.531 161.817 132.936 159.848C132.698 159.073 132.489 158.297 132.291 157.522C132.291 157.512 132.281 157.512 132.281 157.502C132.281 157.502 132.281 157.502 132.281 157.492C131.964 156.299 131.676 155.096 131.359 153.893C130.962 152.402 130.447 150.93 129.673 149.578C128.989 148.385 128.096 147.331 127.105 146.387C126.123 145.224 124.963 144.17 123.852 143.086C122.553 141.814 121.314 140.471 120.471 138.811C119.658 137.22 119.717 135.331 120.411 133.761C121.006 132.418 122.067 131.305 123.456 130.808C123.952 130.629 124.487 130.529 125.062 130.529C125.042 130.092 124.943 129.525 124.933 129.426C124.556 127.089 123.604 124.773 122.9 122.536C121.235 117.177 119.559 111.828 117.893 106.48C117.754 106.042 117.694 105.595 117.694 105.157C117.714 105.177 117.734 105.207 117.754 105.227C117.982 105.456 118.359 105.108 118.131 104.879C118.002 104.74 117.873 104.611 117.744 104.471C117.784 104.263 117.823 104.064 117.873 103.865C117.873 103.855 117.883 103.845 117.883 103.835C117.863 103.815 117.843 103.785 117.823 103.766V103.756C115.781 101.191 113.887 98.4665 112.181 95.5236C111.527 94.4002 110.912 93.237 110.307 92.0638C109.841 90.8111 109.405 89.5386 108.978 88.266C108.433 86.6455 107.897 85.0349 107.362 83.4143C106.906 82.0224 106.43 80.6405 105.805 79.3182C105.795 79.3083 105.785 79.2884 105.775 79.2685C105.646 78.9702 105.508 78.6919 105.349 78.4035C105.101 77.9562 104.843 77.5187 104.565 77.0912C104.556 77.0813 104.556 77.0713 104.546 77.0614C103.187 74.9537 101.452 73.0647 99.6273 71.3944C97.8523 69.7838 95.8591 68.2826 93.6875 67.2089C93.7767 67.179 93.8561 67.1592 93.9354 67.1393H93.9453C93.985 67.1194 94.0246 67.1095 94.0643 67.0995C94.1833 67.0697 94.3023 67.0399 94.4213 67.02C100.48 65.6182 106.529 68.0838 110.912 72.2992C111.1 72.4781 111.289 72.667 111.457 72.8559C111.467 72.8659 111.467 72.8659 111.477 72.8758C115.652 77.1807 117.992 82.9967 120.858 88.1666C122.077 90.3638 123.357 92.4913 124.775 94.5294C124.775 94.5394 124.775 94.5394 124.784 94.5493C126.321 96.7863 128.017 98.9238 129.921 100.932C133.382 104.581 137.239 107.792 141.156 110.914C145.827 114.632 150.378 118.321 154.612 122.357C158.073 125.648 161.325 129.167 164.241 133.124C170.785 142.002 176.626 151.437 185.62 158.108C193.84 164.193 204.074 167.782 207.475 178.38C208.278 180.876 207.019 182.914 205.135 184.097Z" fill="#F1C527"/>
<path d="M205.305 184.345C205.275 184.325 205.255 184.295 205.225 184.276C205.215 184.266 205.205 184.256 205.195 184.246C205.186 184.196 205.166 184.146 205.146 184.097C204.65 182.317 203.599 180.617 202.657 179.076C201.368 176.988 199.87 175.01 198.244 173.17C195.012 169.502 191.273 166.34 187.475 163.278C183.39 159.987 179.195 156.816 175.427 153.157C171.778 149.608 168.555 145.621 165.69 141.416C162.516 136.753 159.74 131.852 157.072 126.89C157.043 126.771 157.003 126.642 156.944 126.503C156.279 125.041 155.506 123.669 154.623 122.357C151.351 117.406 146.73 113.459 142.02 109.84C135.852 105.118 129.744 100.584 124.786 94.5293C124.587 94.3106 124.399 94.0819 124.23 93.8632C121.85 90.8508 119.808 87.5998 118.023 84.1996C116.357 81.0182 114.86 77.7274 112.856 74.7348C112.42 74.0886 111.974 73.4623 111.468 72.8558C107.591 68.0141 102.306 65.0414 96.0487 63.9876C87.2233 62.5062 78.4674 64.9818 70.0684 67.4772C68.8983 65.4987 67.9563 63.4606 67.3316 61.3529C66.5581 58.778 66.2408 56.0837 66.5184 53.2303C66.7465 50.8443 67.1927 48.4482 66.3895 46.1119C65.6756 44.0141 64.2179 42.7018 62.1752 41.8965C60.0333 41.0613 57.7625 40.4847 56.0768 38.8045C54.4604 37.1939 53.449 35.6827 50.9997 35.4242C50.6031 35.3845 50.1767 35.3447 49.7503 35.3447C48.1042 35.3049 46.349 35.6032 45.2087 36.7863C43.7808 38.2677 43.8105 40.604 44.4352 42.4333C45.2384 44.7598 46.9936 46.609 49.0165 47.9511C50.137 48.6968 51.3567 49.2734 52.5764 49.8302C53.4688 50.2378 55.0257 50.6156 55.9677 51.2519C55.6107 53.121 53.8754 55.1591 55.2835 56.9089C55.9181 57.6943 56.8998 57.8235 57.8418 57.7738C57.9013 57.7738 57.9707 57.7639 58.0402 57.7639C57.0386 59.1458 56.6222 60.9851 58.06 62.3272C58.9524 63.1624 60.3308 63.3214 61.4811 63.57C62.5917 63.8185 63.7122 64.0373 64.8327 64.2361C65.5367 66.0356 66.449 67.7655 67.4704 69.4358C67.4605 69.4755 67.4605 69.5054 67.4605 69.5451C67.3216 72.0604 65.6756 74.0787 64.4361 76.1665C63.3552 77.9958 62.6611 79.9643 62.0264 81.9726C60.2217 79.5269 58.2583 77.2104 56.1263 75.043C56.0768 74.9436 56.0272 74.8343 55.9479 74.7249C55.8685 74.6155 55.7892 74.5062 55.7099 74.3869C56.0173 73.9494 56.1263 73.3728 55.8189 72.7464C54.9959 71.1259 55.8586 68.9884 55.7297 67.2485C55.571 65.0911 54.391 63.7887 52.7846 62.4863C51.1286 61.1441 49.9189 59.5435 49.423 57.4258C48.8578 54.9702 49.7007 52.7332 50.2957 50.367C50.7915 48.3488 47.7076 47.3745 47.2018 49.4027C46.597 51.8385 45.7937 54.1549 46.0516 56.6901C46.2796 58.9569 47.1523 61.1143 48.5603 62.8939C50.0081 64.7233 52.626 65.5882 52.5169 68.2129C52.4871 68.7299 52.4475 69.2369 52.4078 69.734C47.6183 62.9834 42.8288 56.2328 38.0393 49.4723C35.0546 45.2668 32.0698 41.0614 29.0851 36.846C27.7067 34.8973 26.0111 33.1376 24.9501 30.9702C24.8112 30.6919 24.7021 30.4135 24.5534 30.1451C24.1964 29.4988 23.7899 28.8725 23.4428 28.2263C22.7685 27.063 22.1041 25.8899 21.4298 24.7267C20.0912 22.3903 18.7525 20.0539 17.4138 17.7076C16.1049 15.411 14.7959 13.1045 13.4672 10.8079C12.4954 9.11776 11.3848 7.16914 9.21316 7.11943C6.80354 7.06972 4.12619 8.25281 2.86684 10.3804C1.49842 12.7068 2.26196 16.1567 5.03847 17.0216C5.70285 17.2304 6.43665 17.2702 7.01178 17.6679C7.59683 18.0655 7.90423 18.7615 8.14222 19.4375C9.55031 23.3447 9.31232 27.4905 10.4725 31.4773C11.1766 33.8832 12.069 36.2097 13.0804 38.5063C13.1697 38.7051 13.2589 38.894 13.3383 39.0928C13.606 39.6894 13.8638 40.2859 14.1216 40.8923C14.6373 42.0953 15.143 43.2983 15.6785 44.4913C15.9065 45.0083 16.1346 45.5253 16.3726 46.0423C18.8715 51.4507 22.4611 56.1533 25.4161 61.2933C31.108 71.2253 35.005 82.0422 38.793 92.8094L38.6046 92.8591C45.0798 107.742 52.4475 122.218 60.1027 136.534C64.4658 144.687 68.7595 152.919 73.9654 160.574C74.3125 161.101 74.8282 161.32 75.3339 161.32C76.3453 163.397 77.446 165.416 78.6459 167.374C78.6558 167.494 78.6855 167.613 78.7252 167.742C83.6634 182.814 89.8313 197.429 97.1791 211.477C100.729 218.257 104.229 225.147 108.335 231.619C112.242 237.763 117.2 242.963 121.781 248.58C124.329 251.692 126.412 255.003 128.336 258.522C130.23 261.972 132.193 265.422 135.128 268.116C135.465 268.425 135.842 268.554 136.209 268.564C136.784 269.439 137.607 270.274 138.252 271.039C140.215 273.405 142.357 275.712 144.122 278.247C145.957 280.882 146.77 283.825 147.414 286.936C147.712 288.398 147.979 289.879 148.336 291.331C148.664 292.643 148.971 294.294 149.784 295.407C151.619 297.893 154.048 295.785 155.03 293.777C157.35 288.994 158.887 283.437 156.368 278.406C154.901 275.463 152.719 272.918 151.182 269.995C149.824 267.401 148.743 264.686 147.9 261.893C148.009 261.535 147.989 261.127 147.751 260.7C147.622 260.471 147.494 260.232 147.365 259.994C147.345 259.914 147.325 259.835 147.305 259.755C147.206 259.377 147.018 259.089 146.77 258.89C141.078 248.451 135.396 238.002 129.704 227.553C129.387 226.966 129.059 226.37 128.742 225.783C132.907 226.748 137.468 224.948 141.465 223.805C146.958 222.234 152.442 220.385 157.489 217.681C162.834 214.827 167.346 210.801 171.947 206.904C176.528 203.016 181.129 199.149 185.562 195.073C190.45 190.569 195.845 187.258 202.488 186.503C202.706 186.791 203.014 187.03 203.331 187.099C204.075 187.288 204.68 187.189 205.235 186.632C205.81 186.075 205.989 184.922 205.305 184.345ZM61.5703 60.2792C60.7274 60.0804 60.3903 59.971 60.9753 59.285C61.4216 58.7581 61.9471 58.4698 62.2942 57.8434C62.8098 56.889 62.7701 55.6164 62.0066 54.7912C61.2034 53.9163 60.0333 53.966 58.9822 54.2245C58.774 54.2742 58.4963 54.3438 58.2682 54.4234L58.4765 53.8567C58.9029 52.7432 59.5573 51.4209 59.2202 50.1881C58.9128 49.0646 57.7625 48.6371 56.8106 48.1898C55.4322 47.5435 54.0142 46.9868 52.6557 46.3008C50.3552 45.1475 47.301 43.1293 47.2514 40.1964C47.2316 38.6156 48.4909 38.6057 49.78 38.6156C51.5154 38.6256 52.1599 39.2619 53.2507 40.5046C55.0157 42.5129 57.3659 43.6264 59.835 44.5112C60.9158 44.899 62.1653 45.1773 62.8693 46.1715C63.7221 47.3646 63.6924 48.9851 63.5833 50.377C63.3354 53.7274 62.9883 56.8393 63.6329 60.1798C63.6725 60.3687 63.7122 60.5576 63.7518 60.7465C63.028 60.5973 62.2942 60.4482 61.5703 60.2792ZM15.2322 35.1856C13.5267 30.7515 12.2971 26.1384 11.7021 21.4259C11.4641 19.5767 11.2757 17.6182 10.1849 16.0274C9.65939 15.252 8.89585 14.6256 8.00339 14.3174C7.14069 14.0192 5.93092 14.3075 5.58386 13.3133C5.21696 12.3091 6.02017 11.484 6.82338 11.0366C7.24977 10.798 7.76541 10.6289 8.2513 10.5494C9.32224 10.3705 9.40157 10.5494 9.92712 11.4342C10.8592 12.9852 21.0233 31.7258 21.648 31.7258C21.0927 31.9346 20.5175 32.0937 20.0317 32.3223C19.169 32.7001 18.3261 33.1177 17.513 33.6049C16.7197 34.092 15.966 34.6189 15.2322 35.1856ZM64.5947 138.035C60.658 130.728 56.7808 123.381 53.0523 115.964C49.2842 108.478 45.7243 100.892 42.3429 93.2269C38.4062 81.9925 34.4398 70.6686 28.5595 60.2792C25.6442 55.1193 22.005 50.4068 19.4664 45.0282C18.2963 42.5626 17.275 40.0373 16.1743 37.5419C18.4153 37.0945 20.6564 35.8915 22.5603 34.9868C22.8577 34.8476 23.1651 34.6786 23.4527 34.4897C24.008 35.2751 24.5732 36.0506 25.1186 36.8161C28.2323 41.2005 31.336 45.5849 34.4497 49.9694C40.558 58.5891 46.6763 67.2187 52.7945 75.8384C52.8243 76.1466 52.9631 76.4648 53.2507 76.7431C55.9379 79.4076 58.3872 82.2907 60.539 85.4026C60.8762 85.8997 61.3621 86.1184 61.8479 86.1383C62.6611 86.7149 63.9898 86.6056 64.3666 85.3728C65.3186 82.3007 66.2011 79.4275 67.9166 76.6934C69.0966 74.8044 70.2072 72.8956 70.5741 70.7083C78.1401 69.396 86.4598 67.9842 93.8572 70.5692C97.8336 71.9511 99.8961 75.7489 101.949 79.169C104.18 82.8773 106.084 86.7547 107.958 90.652C111.845 98.7149 115.921 106.728 119.242 115.04C120.859 119.066 122.465 123.282 123.298 127.557C123.496 128.571 123.655 129.744 123.467 130.808C123.387 131.295 123.229 131.762 122.971 132.18C122.396 133.114 121.454 133.581 120.422 133.76C119.51 133.91 118.548 133.84 117.705 133.671C110.09 132.19 105.271 125.28 100.164 120.08C98.845 118.728 96.2767 117.366 97.1791 115.179C97.4468 114.523 97.9129 113.956 98.369 113.409L99.787 111.689C100.531 110.804 103.565 111.997 104.418 112.325C106.094 112.962 107.651 113.876 109.078 114.95C109.733 115.427 110.358 115.944 111.091 116.292C111.964 116.72 113.243 116.948 114.007 116.193C114.453 115.755 114.602 115.06 114.374 114.483C114.066 113.717 113.372 113.688 112.718 113.409C111.538 112.922 110.725 112.127 109.733 111.381C108.751 110.635 107.621 110.108 106.471 109.701C104.874 109.124 103.228 108.746 101.641 108.16C96.6337 106.311 92.5978 102.553 88.0364 99.7787V99.7687C87.4514 99.4108 86.8564 99.0728 86.2515 98.7547C86.2515 98.7547 87.848 96.0703 87.9968 95.6925C88.205 95.1756 88.3637 94.6387 88.4529 94.0919V94.0819C88.562 93.4755 88.5719 92.8491 88.4926 92.2327C88.205 90.1449 86.7771 88.5045 84.7344 88.0173C82.7511 87.5501 80.6886 88.1665 78.8442 88.8723C76.147 89.9162 73.4796 91.0297 70.7923 92.1134C68.4124 93.0778 66.0028 94.0024 63.6229 94.9966C63.6031 94.9966 63.5833 95.0065 63.5634 95.0165C63.5039 95.0364 63.4444 95.0662 63.3849 95.096C63.2263 95.1557 63.0676 95.2153 62.9189 95.2849C62.909 95.2849 62.909 95.2949 62.8991 95.2949C62.7503 95.3545 62.6016 95.4241 62.4528 95.4838C60.2812 96.4183 58.1294 97.7108 56.8998 99.8085C54.2324 104.382 57.6534 108.269 61.6298 110.367C67.1828 113.29 72.9342 116.332 78.9632 118.112C79.7366 118.34 80.8274 117.923 80.996 117.048C81.0059 116.978 81.0257 116.919 81.0357 116.849C81.5315 114.264 82.2057 111.719 83.0387 109.224C83.3858 109.691 83.7428 110.148 84.1096 110.606C85.1707 111.938 86.2912 113.23 87.4613 114.473C88.8595 115.964 90.3072 117.704 92.1219 118.688C93.0937 119.215 94.1745 119.504 95.1562 120.011C96.1379 120.528 97.0006 121.333 97.8137 122.089C99.668 123.818 101.215 125.827 102.97 127.646C105.866 130.649 108.969 133.562 112.767 135.381C113.57 135.759 114.403 136.097 115.256 136.375C116.218 136.683 117.249 136.902 118.3 136.992C118.32 137.121 118.36 137.24 118.419 137.369C118.598 137.767 118.776 138.165 118.955 138.552L119.074 138.811C119.064 138.831 119.054 138.851 119.054 138.871C118.31 139.268 117.249 139.885 117.061 139.984C115.127 141.008 113.194 142.012 111.25 142.987C107.442 144.905 103.605 146.745 99.7275 148.504C92.0128 152.014 84.1493 155.205 76.1767 158.088C71.893 151.656 68.2538 144.836 64.5947 138.035ZM72.8648 103.069C74.1935 104.481 75.79 104.601 77.5353 104.054C79.0425 103.586 80.0143 104.829 80.8175 106.042C80.7183 106.171 80.639 106.321 80.5696 106.49C79.6077 109.104 78.8343 111.759 78.2393 114.473C73.668 112.922 69.3941 110.635 65.0806 108.488C63.1569 107.533 60.2316 106.42 59.359 104.253C58.4368 101.916 60.7076 99.9875 62.5222 99.033C64.8922 97.7804 67.4902 96.9154 69.9693 95.9212C72.6268 94.8475 75.2843 93.7837 77.9418 92.7099C79.6474 92.0239 82.0273 90.6917 83.951 91.159C86.8068 91.845 84.6154 95.4142 83.5742 96.9353L81.2439 95.4142C79.4887 94.2708 77.8228 92.8193 75.6611 93.8533C72.3392 95.444 69.9792 99.9974 72.8648 103.069ZM80.4208 101.161C79.6176 100.723 78.6855 100.514 77.7732 100.644C76.8907 100.763 75.9685 101.548 75.2248 100.842C74.4712 100.127 74.7984 99.0529 75.3041 98.3073C75.5719 97.9195 75.9487 97.5417 76.3354 97.2534C77.1882 96.6271 77.3369 96.7464 78.1798 97.2833C80.52 98.8044 82.8503 100.335 85.1905 101.857L97.2882 109.75C96.9014 110.178 96.4651 110.576 96.1379 110.983C95.5528 111.699 95.0075 112.435 94.5117 113.22C94.0357 113.986 93.6093 114.781 93.2226 115.596C89.7916 112.494 86.6978 109.025 84.1096 105.187C83.0883 103.686 82.0669 102.065 80.4208 101.161ZM100.759 155.732C100.362 156.219 99.2218 156.577 98.6467 156.836C97.9625 157.134 97.2584 157.392 96.5445 157.631C95.8801 157.85 95.2157 158.049 94.5414 158.247C93.9564 158.417 93.5399 158.715 93.173 158.446C92.4789 157.919 92.0921 156.537 91.8541 155.444C94.5513 154.33 97.2386 153.167 99.906 151.974C99.9953 152.302 100.174 152.62 100.501 152.879C101.245 153.475 101.294 155.066 100.759 155.732ZM78.5963 160.624C82.0372 159.361 85.4582 158.049 88.8495 156.677C89.3751 158.586 90.2973 160.852 91.9136 161.628C93.0242 162.155 94.1646 161.737 95.2752 161.409C96.5643 161.031 97.8435 160.634 99.0929 160.136C100.412 159.619 101.919 159.053 102.97 158.069C102.98 158.069 102.98 158.069 102.98 158.069L102.99 158.059C103.575 157.512 104.001 156.846 104.18 156.011C104.606 154.032 104.13 152.074 102.792 150.662C103.04 150.552 103.287 150.433 103.535 150.324C103.644 150.274 103.753 150.214 103.863 150.165H103.872C108.087 148.206 112.262 146.148 116.397 144.001C117.497 143.424 118.598 142.837 119.699 142.251C119.778 142.211 119.867 142.171 119.956 142.122C121.037 144.925 122.396 147.58 124.082 150.075C121.265 152.809 119.689 156.885 117.824 160.226C115.673 164.093 113.313 168.07 109.644 170.675C109.634 170.675 109.634 170.675 109.624 170.685C109.326 170.506 108.969 170.416 108.563 170.456C102.167 171.162 95.7313 171.47 89.2958 171.371C87.9571 171.351 85.8152 171.729 84.8137 170.695C83.7923 169.631 83.009 168.199 82.2057 166.967C80.8869 164.919 79.6871 162.801 78.5963 160.624ZM151.609 167.394C151.886 168.637 152.154 169.88 152.432 171.122C152.749 172.564 153.066 173.996 153.374 175.437C152.442 175.218 151.5 175.02 150.548 174.851C150.042 174.761 149.526 174.672 149.011 174.592C148.019 174.433 147.87 174.652 147.722 173.658C147.315 171.013 147.404 168.17 147.355 165.495C147.335 164.143 147.335 162.781 147.355 161.419C147.355 160.683 147.375 159.958 147.394 159.222C147.384 159.093 147.394 157.84 147.265 157.84C147.702 157.432 150.786 157.353 151.301 157.293C152.68 157.134 154.068 157.005 155.456 156.915C155.982 156.876 156.517 156.826 157.043 156.806C156.23 157.482 155.188 158.426 155.04 158.536C153.413 159.789 150.964 161.071 150.875 163.397C150.825 164.72 151.331 166.131 151.609 167.394ZM150.28 199.527C148.138 192.448 147.404 185.101 148.098 177.734C148.366 177.764 148.634 177.793 148.882 177.833C150.29 178.062 151.678 178.35 153.066 178.678C155.972 184.584 155.922 191.275 154.901 197.638C154.405 200.68 153.741 203.752 152.809 206.685C151.946 209.379 150.439 212.362 147.444 213.078C144.548 213.764 141.732 210.761 139.68 209.081C137.369 207.212 135.158 205.213 133.046 203.126C128.722 198.86 124.766 194.188 121.315 189.177C118.221 184.683 115.514 179.921 113.213 174.97L112.589 172.455C115.455 170.059 117.626 167.036 119.53 163.785C120.73 161.727 121.85 159.619 123.001 157.532C123.834 156.011 124.637 154.191 125.837 152.829C129.773 158.247 131.221 164.809 134.295 170.745C137.667 177.257 142 183.321 144.41 190.3C144.558 190.738 144.836 191.036 145.153 191.225C145.58 194.277 146.234 197.3 147.127 200.262C147.732 202.251 150.885 201.535 150.28 199.527ZM149.973 274.41C151.212 276.418 152.818 278.277 153.761 280.454C154.703 282.612 154.603 285.067 154.048 287.314C153.78 288.378 153.423 289.422 153.007 290.436C152.779 290.983 152.541 291.53 152.283 292.067C152.224 292.176 152.144 292.295 152.075 292.424C151.569 290.466 150.607 286.4 150.498 285.912C150.012 283.546 149.407 281.18 148.336 279.003C147.256 276.826 145.679 274.927 144.132 273.067C143.16 271.884 142.169 270.701 141.187 269.518C140.731 268.971 140.275 268.425 139.818 267.868C139.64 267.659 139.442 267.331 139.223 267.162C138.767 266.814 138.757 267.033 138.886 266.665C139.075 266.178 140.106 265.531 140.493 265.173C141.028 264.666 141.564 264.169 142.099 263.672C142.873 262.956 143.646 262.231 144.42 261.505C145.669 266.038 147.513 270.403 149.973 274.41ZM134.573 243.271L142.873 258.512C140.681 260.531 138.351 262.479 136.318 264.637C136.298 264.657 136.288 264.666 136.278 264.686C132.094 260.163 129.902 253.989 126.253 249.058C121.969 243.281 116.724 238.29 112.678 232.345C108.444 226.121 105.013 219.341 101.493 212.7C97.8534 205.86 94.4323 198.92 91.3286 191.822C88.8 186.035 86.4796 180.17 84.3576 174.224C85.2698 174.532 86.2813 174.552 87.2828 174.582C94.5612 174.771 101.84 174.433 109.078 173.648C109.416 174.433 109.773 175.228 110.13 176.014C112.886 187.189 115.583 198.393 118.459 209.538C120.026 215.633 122.475 221.051 125.47 226.559C128.504 232.126 131.538 237.694 134.573 243.271ZM188.249 188.6C183.588 191.951 179.533 196.226 175.15 199.934C174.961 200.093 174.773 200.252 174.584 200.411C174.565 200.431 174.545 200.441 174.525 200.461C170.201 204.17 165.957 208.047 161.376 211.427C156.696 214.887 151.311 217.253 145.818 219.082C145.679 219.132 145.53 219.172 145.391 219.222H145.381C142.535 220.156 139.66 220.971 136.764 221.747C135.406 222.115 133.889 222.602 132.381 222.801H132.371C131.023 222.98 129.674 222.92 128.464 222.334C127.909 222.055 127.354 222.125 126.918 222.363C125.926 220.454 124.984 218.516 124.151 216.537C124.151 216.527 124.141 216.527 124.141 216.517C124.131 216.517 124.131 216.508 124.131 216.508C123.377 214.718 122.713 212.889 122.188 210.98C120.482 204.885 119.094 198.691 117.567 192.547C117.467 192.14 117.358 191.732 117.259 191.324V191.315C117.259 191.305 117.259 191.305 117.259 191.295C116.932 189.992 116.615 188.69 116.287 187.387C116.605 187.894 116.932 188.402 117.259 188.899C121.434 195.301 126.342 201.227 131.876 206.496C134.355 208.862 136.973 211.099 139.68 213.197C142.139 215.106 144.667 216.955 147.94 216.299C154.921 214.897 156.487 206.357 157.638 200.521C158.59 195.699 159.085 190.718 158.471 185.886V185.876C158.243 184.017 157.846 182.178 157.241 180.378C157.38 180.189 157.479 179.981 157.519 179.732V179.722C157.548 179.523 157.548 179.315 157.499 179.096C156.904 176.402 156.309 173.707 155.724 171.013C155.506 170.029 155.298 169.054 155.079 168.08C155 167.712 154.911 167.334 154.831 166.967C154.613 165.962 153.77 164.074 154.326 163.209C154.901 162.324 156.438 161.538 157.261 160.902C158.203 160.166 159.274 159.49 160.117 158.635C160.156 158.595 160.186 158.556 160.216 158.516V158.506C161.436 157.174 161.733 155.066 159.948 154.012C158.183 152.968 155.357 153.664 153.443 153.833C152.184 153.953 150.915 154.082 149.655 154.241C148.445 154.4 147.027 154.41 145.907 154.927C143.755 155.921 144.152 158.675 144.122 160.653C144.082 163.477 144.112 166.31 144.231 169.134C144.301 170.695 144.39 172.266 144.509 173.827C144.568 174.711 144.568 175.676 145.034 176.421C144.985 176.561 144.945 176.7 144.935 176.859C144.727 178.808 144.618 180.756 144.598 182.715C142.278 178.131 139.511 173.777 137.141 169.194C135.366 165.784 134.166 162.214 132.768 158.645C132.619 158.267 132.471 157.89 132.302 157.522C132.302 157.512 132.292 157.512 132.292 157.502C132.292 157.502 132.292 157.502 132.292 157.492C131.132 154.837 129.635 152.362 127.83 150.095C127.8 149.886 127.711 149.658 127.542 149.429C126.114 147.431 124.875 145.313 123.863 143.086C123.378 142.042 122.941 140.968 122.564 139.875C122.783 138.881 122.237 137.737 121.722 136.743C123.457 136.306 124.984 135.301 125.926 133.522C127.76 130.032 126.283 125.707 125.212 122.228C123.268 115.915 120.67 109.85 117.884 103.865C117.874 103.835 117.854 103.805 117.834 103.765V103.755C116.297 100.465 114.701 97.2037 113.134 93.9328C111.012 89.5285 108.969 85.0646 106.609 80.7796C106.352 80.3024 106.084 79.8152 105.816 79.3181C105.806 79.3082 105.796 79.2883 105.786 79.2684C105.4 78.5526 104.993 77.8268 104.577 77.0911C104.567 77.0811 104.567 77.0712 104.557 77.0613C102.901 74.1483 100.977 71.2551 98.4285 69.3363C97.1097 68.3421 95.5925 67.6363 93.9564 67.1392H93.9464C93.649 67.0497 93.3515 66.9602 93.0441 66.8807C93.1631 66.8807 93.2721 66.8906 93.3911 66.9006C93.7382 66.9304 94.0853 66.9702 94.4323 67.0199C100.997 67.8649 106.639 71.0563 110.298 76.7332C112.152 79.6064 113.59 82.7183 115.177 85.7406C116.863 88.9718 118.806 92.0438 121.008 94.9568C125.509 100.922 131.082 105.644 137.022 110.108C143.438 114.94 150.111 119.921 153.741 127.278C153.76 127.477 153.82 127.686 153.929 127.885C158.659 136.723 163.796 145.492 170.628 152.879C177.569 160.375 186.414 165.714 193.594 172.952C195.527 174.89 197.352 176.958 198.909 179.225C199.761 180.488 200.753 181.909 201.437 183.401C196.687 184.067 192.185 185.777 188.249 188.6Z" fill="black"/>
<path d="M21.6478 31.7257C21.0925 31.9345 20.5174 32.0936 20.0315 32.3222C19.1688 32.7 18.3259 33.1176 17.5128 33.6047C16.7195 34.0919 15.9659 34.6188 15.2321 35.1855C13.5265 30.7514 12.2969 26.1383 11.7019 21.4258C11.4639 19.5766 11.2755 17.618 10.1847 16.0273C9.65916 15.2518 8.89562 14.6255 8.00316 14.3173C7.14045 14.019 5.93068 14.3074 5.58361 13.3132C5.21671 12.309 6.01992 11.4838 6.82314 11.0364C7.24953 10.7978 7.76517 10.6288 8.25107 10.5493C9.32201 10.3703 9.40134 10.5493 9.9269 11.4341C10.859 12.9851 21.0231 31.7257 21.6478 31.7257Z" fill="white"/>
<path d="M132.372 222.801C131.023 222.98 129.675 222.92 128.465 222.333C127.91 222.055 127.354 222.125 126.918 222.363C125.926 220.454 124.984 218.516 124.151 216.537C126.115 219.669 128.812 222.244 132.372 222.801Z" fill="white"/>
<path d="M174.525 200.461C170.202 204.17 165.958 208.047 161.376 211.427C156.696 214.887 151.312 217.253 145.818 219.083C145.679 219.132 145.53 219.172 145.392 219.222C147.821 217.989 150.171 216.597 152.373 215.305C157.579 212.242 162.666 208.972 167.614 205.512C169.954 203.871 172.254 202.181 174.525 200.461Z" fill="white"/>
<path d="M97.2883 109.75C96.9016 110.178 96.4653 110.576 96.138 110.983C95.553 111.699 95.0076 112.435 94.5118 113.22C94.0358 113.986 93.6094 114.781 93.2227 115.596C89.7917 112.494 86.6978 109.025 84.1097 105.187C83.0883 103.686 82.0669 102.065 80.4208 101.161C79.6176 100.723 78.6855 100.514 77.7732 100.644C76.8907 100.763 75.9685 101.548 75.2247 100.842C74.4711 100.127 74.7983 99.0529 75.3041 98.3072C75.5718 97.9195 75.9486 97.5417 76.3354 97.2534C77.1882 96.6271 77.3369 96.7464 78.1798 97.2832C80.52 98.8043 82.8503 100.335 85.1905 101.857L97.2883 109.75Z" fill="white"/>
<path d="M142.872 258.512C140.681 260.531 138.351 262.479 136.318 264.637C136.298 264.657 136.288 264.667 136.278 264.686C132.094 260.163 129.902 253.989 126.253 249.058C121.969 243.281 116.724 238.29 112.678 232.345C108.444 226.121 105.013 219.341 101.492 212.7C97.8533 205.86 94.4322 198.92 91.3285 191.822C88.7998 186.035 86.4795 180.17 84.3574 174.224C85.2697 174.533 86.2811 174.552 87.2827 174.582C94.5611 174.771 101.84 174.433 109.078 173.648C109.415 174.433 109.772 175.228 110.129 176.014C112.886 187.189 115.583 198.393 118.459 209.538C120.026 215.633 122.475 221.051 125.47 226.559C128.504 232.126 131.538 237.694 134.573 243.271L142.872 258.512Z" fill="white"/>
<path d="M154.901 197.638C154.405 200.68 153.741 203.752 152.809 206.685C151.946 209.379 150.439 212.362 147.444 213.078C144.549 213.764 141.732 210.761 139.68 209.081C137.369 207.212 135.158 205.213 133.046 203.126C128.722 198.86 124.766 194.188 121.315 189.177C118.221 184.683 115.514 179.921 113.214 174.97L112.589 172.455C115.455 170.059 117.626 167.036 119.53 163.785C120.73 161.727 121.851 159.619 123.001 157.532C123.834 156.011 124.637 154.191 125.837 152.829C129.774 158.247 131.221 164.809 134.295 170.745C137.667 177.257 142 183.321 144.41 190.3C144.558 190.738 144.836 191.036 145.153 191.225C145.58 194.277 146.234 197.3 147.127 200.262C147.732 202.251 150.885 201.535 150.28 199.527C148.138 192.448 147.404 185.101 148.099 177.734C148.366 177.764 148.634 177.793 148.882 177.833C150.29 178.062 151.678 178.35 153.066 178.678C155.972 184.584 155.922 191.275 154.901 197.638Z" fill="white"/>
<path d="M124.08 150.075C121.264 152.809 119.687 156.885 117.823 160.226C115.671 164.093 113.311 168.07 109.642 170.675C109.632 170.675 109.632 170.675 109.622 170.685C109.325 170.506 108.968 170.416 108.561 170.456C102.165 171.162 95.7298 171.47 89.2942 171.371C87.9555 171.351 85.8137 171.729 84.8121 170.695C83.7908 169.631 83.0074 168.199 82.2042 166.967C80.8853 164.919 79.6855 162.801 78.5947 160.624C82.0356 159.361 85.4567 158.049 88.848 156.677C89.3735 158.585 90.2957 160.852 91.9121 161.628C93.0227 162.155 94.163 161.737 95.2736 161.409C96.5627 161.031 97.8419 160.634 99.0913 160.136C100.41 159.619 101.917 159.053 102.969 158.069C102.978 158.069 102.978 158.069 102.978 158.069L102.988 158.059C103.762 157.621 104.515 157.114 105.239 156.547C106.836 155.295 106.667 152.561 105.368 151.159C104.922 150.672 104.416 150.344 103.871 150.165C108.085 148.206 112.26 146.148 116.395 144.001C117.496 143.424 118.596 142.837 119.697 142.251C119.776 142.211 119.866 142.171 119.955 142.122C121.036 144.925 122.394 147.58 124.08 150.075Z" fill="white"/>
<path d="M123.466 130.808C122.077 131.305 121.016 132.418 120.421 133.76C119.509 133.91 118.547 133.84 117.704 133.671C110.089 132.19 105.27 125.28 100.163 120.08C98.844 118.728 96.2757 117.366 97.1781 115.179C97.4458 114.523 97.9119 113.956 98.368 113.409L99.786 111.689C100.53 110.804 103.564 111.997 104.417 112.326C106.093 112.962 107.649 113.876 109.077 114.95C109.732 115.427 110.357 115.944 111.09 116.292C111.963 116.72 113.242 116.949 114.006 116.193C114.452 115.756 114.601 115.06 114.373 114.483C114.065 113.717 113.371 113.688 112.717 113.409C111.537 112.922 110.724 112.127 109.732 111.381C108.75 110.635 107.62 110.108 106.469 109.701C104.873 109.124 103.227 108.746 101.64 108.16C96.6327 106.311 92.5968 102.553 88.0354 99.7787V99.7688C88.5511 97.7804 88.789 95.8019 88.4519 94.0919V94.082C88.561 93.4755 88.5709 92.8492 88.4916 92.2328C88.204 90.145 86.7761 88.5045 84.7334 88.0174C82.7501 87.5501 80.6876 88.1665 78.8432 88.8724C76.146 89.9163 73.4786 91.0298 70.7913 92.1135C68.4114 93.0778 66.0018 94.0024 63.622 94.9966C63.6021 94.9966 63.5823 95.0066 63.5625 95.0165C63.503 95.0364 63.4435 95.0662 63.384 95.0961C63.2253 95.1458 63.0666 95.2054 62.9179 95.285C62.908 95.285 62.908 95.2949 62.8981 95.2949C62.7493 95.3545 62.6006 95.4241 62.4518 95.4838C60.2802 96.4183 58.1284 97.7108 56.8988 99.8086C54.2314 104.382 57.6525 108.269 61.6288 110.367C67.1818 113.29 72.9332 116.332 78.9622 118.112C79.7356 118.34 80.8264 117.923 80.995 117.048C81.0049 116.978 81.0247 116.919 81.0347 116.849C82.7303 115.706 83.3451 113.131 84.1086 110.606C85.1697 111.938 86.2902 113.23 87.4603 114.473C88.8585 115.964 90.3062 117.704 92.1209 118.688C93.0926 119.215 94.1735 119.504 95.1552 120.011C96.1369 120.528 96.9996 121.333 97.8127 122.089C99.667 123.818 101.214 125.827 102.969 127.646C105.865 130.649 108.968 133.562 112.766 135.381C113.569 135.759 114.402 136.097 115.255 136.375C116.217 136.683 117.248 136.902 118.299 136.992C118.319 137.121 118.359 137.24 118.418 137.369C118.597 137.767 118.775 138.165 118.954 138.552L119.073 138.811C119.063 138.831 119.053 138.851 119.053 138.871C118.309 139.268 117.248 139.885 117.06 139.984C115.126 141.008 113.193 142.012 111.249 142.987C107.441 144.905 103.604 146.745 99.7265 148.504C92.0118 152.014 84.1483 155.205 76.1758 158.088C71.892 151.656 68.2528 144.836 64.5937 138.035C60.657 130.728 56.7798 123.381 53.0514 115.964C49.2832 108.478 45.7234 100.892 42.342 93.227C38.4053 81.9925 34.4388 70.6686 28.5586 60.2792C25.6432 55.1194 22.004 50.4069 19.4655 45.0282C18.2954 42.5626 17.274 40.0374 16.1733 37.5419C18.4144 37.0945 20.6554 35.8916 22.5593 34.9868C22.8568 34.8477 23.1642 34.6786 23.4518 34.4897C24.0071 35.2752 24.5723 36.0506 25.1177 36.8162C28.2313 41.2006 31.3351 45.585 34.4487 49.9694C40.5571 58.5891 46.6753 67.2187 52.7936 75.8384C52.8233 76.1466 52.9621 76.4648 53.2497 76.7432C55.937 79.4076 58.3862 82.2908 60.538 85.4026C60.8752 85.8997 61.3611 86.1185 61.847 86.1383C62.6601 86.715 63.9888 86.6056 64.3657 85.3728C65.3176 82.3007 66.2001 79.4275 67.9156 76.6935C69.0956 74.8045 70.2062 72.8956 70.5731 70.7084C78.1391 69.396 86.4588 67.9843 93.8562 70.5692C97.8326 71.9511 99.8951 75.749 101.948 79.169C104.179 82.8774 106.083 86.7547 107.957 90.652C111.844 98.7149 115.92 106.728 119.241 115.04C120.858 119.066 122.464 123.282 123.297 127.557C123.495 128.571 123.654 129.744 123.466 130.808Z" fill="white"/>
<path d="M176.77 93.9757C176.163 94.2013 175.523 94.4268 174.916 94.6524C173.501 95.2002 172.119 95.748 170.738 96.3603C168.042 97.5526 165.481 98.9704 163.156 100.743C162.448 101.291 162.482 102.418 163.054 103.031C163.088 103.095 163.156 103.127 163.223 103.16C163.358 103.385 163.526 103.611 163.762 103.772C167.435 106.543 171.075 109.314 174.748 112.086C175.321 112.537 176.264 112.343 176.803 111.924C178.05 110.861 178.084 109.089 178.354 107.606L179.162 102.966C179.466 101.323 179.735 99.6793 180.038 98.0359C180.274 96.6181 181.218 94.2335 179.263 93.5568C178.354 93.2668 177.578 93.6535 176.77 93.9757ZM175.826 102.676C175.624 103.901 175.388 105.125 175.186 106.35C175.085 106.93 174.984 107.51 174.883 108.09C172.254 106.092 169.592 104.094 166.963 102.096C168.547 101.065 170.199 100.13 171.917 99.3571C173.063 98.8415 174.242 98.3582 175.422 97.907C175.86 97.7459 176.298 97.5526 176.77 97.3592C176.669 97.8426 176.601 98.3259 176.5 98.8093L175.826 102.676Z" fill="#1E1E1E"/>
<path d="M238.914 249.546C238.532 249.05 238.15 248.521 237.736 248.026C236.844 246.869 235.921 245.712 234.965 244.621C233.086 242.439 231.016 240.489 228.691 238.836C227.99 238.34 226.939 238.704 226.525 239.431C226.493 239.497 226.461 239.596 226.461 239.662C226.27 239.861 226.111 240.092 226.015 240.356C224.423 244.621 222.799 248.885 221.206 253.182C220.951 253.843 221.365 254.703 221.939 255.033C223.308 255.893 224.964 255.364 226.461 255.166L231.048 254.538C232.672 254.306 234.328 254.075 235.952 253.876C237.386 253.678 239.87 253.843 239.965 251.794C240.029 250.835 239.424 250.24 238.914 249.546ZM230.442 251.298C229.2 251.463 227.99 251.629 226.748 251.794C226.175 251.86 225.601 251.959 225.028 252.025C226.175 248.951 227.321 245.877 228.5 242.803C229.901 243.96 231.239 245.249 232.449 246.637C233.277 247.563 234.041 248.521 234.806 249.48C235.092 249.844 235.379 250.207 235.698 250.571C235.22 250.637 234.742 250.703 234.264 250.769L230.442 251.298Z" fill="#F1C527"/>
<path fill-rule="evenodd" clip-rule="evenodd" d="M134.024 47.2706C134.793 47.5537 135.702 47.9872 136.449 48.7792C137.317 49.7 137.774 50.8896 138.069 51.8263C138.756 53.8985 139.319 56.7977 138.151 59.3944L138.149 59.3998C137.21 61.4713 135.406 62.7236 133.647 63.2567C131.864 63.7972 130.048 63.6792 128.403 63.3425L128.395 63.3407L128.386 63.3389C127.586 63.1632 126.549 62.8884 125.634 62.1644C124.778 61.5004 124.186 60.5759 123.797 59.6433C122.158 55.8595 123.08 51.9946 125.227 49.5311C127.345 47.1001 130.667 45.9759 134.024 47.2706ZM127.267 52.1666C125.959 53.6683 125.492 55.8027 126.432 57.9632L126.439 57.9788L126.445 57.9946C126.648 58.4835 126.915 58.8648 127.235 59.1118L127.244 59.1186L127.253 59.1255C127.629 59.4248 128.149 59.6062 128.905 59.7727C130.331 60.0637 131.694 60.1164 132.928 59.7423C134.188 59.3605 135.134 58.5546 135.543 57.6526C136.043 56.5381 135.91 54.9849 135.307 53.1698L135.301 53.1535L135.296 53.137C135.052 52.3601 134.808 51.8421 134.495 51.5099C134.22 51.2186 133.786 50.966 133.155 50.7342L133.144 50.7303L133.134 50.7262C130.806 49.825 128.605 50.6317 127.267 52.1666Z" fill="#1E1E1E"/>
<path fill-rule="evenodd" clip-rule="evenodd" d="M219.303 280.907C220.071 281.19 220.981 281.624 221.727 282.416C222.595 283.337 223.052 284.526 223.347 285.463C224.035 287.535 224.597 290.434 223.43 293.031L223.427 293.037C222.489 295.108 220.685 296.36 218.925 296.893C217.142 297.434 215.327 297.316 213.682 296.979L213.673 296.977L213.665 296.976C212.864 296.8 211.827 296.525 210.913 295.801C210.056 295.137 209.465 294.213 209.076 293.28C207.436 289.496 208.359 285.631 210.506 283.168C212.624 280.737 215.945 279.613 219.303 280.907ZM212.546 285.803C211.237 287.305 210.771 289.439 211.711 291.6L211.718 291.616L211.724 291.631C211.927 292.12 212.193 292.501 212.514 292.749L212.522 292.755L212.531 292.762C212.907 293.062 213.428 293.243 214.184 293.409C215.61 293.7 216.973 293.753 218.207 293.379C219.467 292.997 220.412 292.191 220.822 291.289C221.322 290.175 221.189 288.622 220.585 286.807L220.58 286.79L220.575 286.774C220.33 285.997 220.086 285.479 219.773 285.147C219.499 284.855 219.065 284.603 218.433 284.371L218.423 284.367L218.412 284.363C216.084 283.462 213.883 284.268 212.546 285.803Z" fill="#1E1E1E"/>
<path d="M139.391 99.7888C135.444 96.6969 131.865 93.1575 128.741 89.2305C128.315 88.6936 127.393 88.7831 126.946 89.2305C126.421 89.7574 126.52 90.4931 126.946 91.0299C130.07 94.957 133.64 98.4964 137.596 101.588C138.132 102.006 138.866 102.115 139.391 101.588C139.827 101.151 139.936 100.216 139.391 99.7888Z" fill="#F1C527"/>
<path d="M63.7907 151.716C61.3414 147.013 58.902 142.301 56.4527 137.598C55.699 136.147 53.5075 137.429 54.2612 138.881C56.7105 143.583 59.1499 148.296 61.5992 152.998C62.3529 154.45 64.5444 153.167 63.7907 151.716Z" fill="#F1C527"/>
<path d="M21.0339 13.8104C20.2704 11.822 19.3779 9.88335 18.3367 8.03415C17.355 6.30424 16.2742 4.50475 14.757 3.18246C11.9012 0.716854 8.07353 0.120336 4.42439 0.00103233C2.78822 -0.0586195 2.78822 2.48653 4.42439 2.54618C7.40915 2.6456 10.8005 3.02339 13.1109 5.13109C14.4199 6.32413 15.3321 7.89496 16.1948 9.42602C17.1071 11.0565 17.9103 12.7466 18.5846 14.4964C18.8325 15.1327 19.4374 15.5801 20.1415 15.3813C20.7563 15.2123 21.2818 14.4567 21.0339 13.8104Z" fill="white"/>
<path d="M202.319 191.503C202.12 190.788 201.436 190.499 200.762 190.619C197.757 191.126 194.842 192.209 192.224 193.77C190.925 194.556 189.676 195.46 188.545 196.474C187.375 197.518 186.493 198.731 186.334 200.332C186.264 201.018 186.968 201.605 187.603 201.605C188.347 201.605 188.803 201.018 188.872 200.332C188.981 199.308 190.092 198.473 190.816 197.866C191.817 197.031 192.918 196.296 194.059 195.649C196.349 194.357 198.848 193.512 201.436 193.074C202.11 192.955 202.487 192.12 202.319 191.503Z" fill="black"/>
<path d="M111.379 241.273C110.754 240.746 110.15 240.199 109.584 239.613C109.297 239.314 109.009 238.996 108.741 238.678C108.613 238.529 108.484 238.38 108.355 238.221C108.285 238.131 108.216 238.052 108.146 237.962C108.127 237.942 108.117 237.922 108.097 237.893C108.097 237.883 108.087 237.873 108.067 237.853C107.066 236.53 106.223 235.099 105.548 233.588C105.271 232.981 104.349 232.782 103.813 233.13C103.188 233.538 103.059 234.224 103.357 234.87C104.775 238.022 106.937 240.855 109.594 243.072C110.1 243.5 110.893 243.609 111.389 243.072C111.806 242.605 111.925 241.73 111.379 241.273Z" fill="black"/>
</svg>
