<svg width="135" height="11" viewBox="0 0 135 11" fill="none" xmlns="http://www.w3.org/2000/svg">
<path d="M132.804 2.61954C115.827 0.561525 98.7121 0.352722 81.6366 0.611216C64.5214 0.879653 47.4061 1.61537 30.281 1.42647C20.7119 1.32705 11.1429 0.919436 1.6135 0.00476356C0.929288 -0.0648311 0.344238 0.641056 0.344238 1.27735C0.344238 2.02301 0.929288 2.48034 1.6135 2.54994C18.6395 4.20032 35.7745 4.16053 52.86 3.80262C69.9653 3.4447 87.0805 2.7786 104.186 3.19617C113.745 3.42483 123.294 4.01143 132.794 5.16471C133.478 5.24425 134.063 4.51848 134.063 3.89212C134.073 3.13652 133.488 2.70902 132.804 2.61954Z" fill="black"/>
<path d="M46.1376 7.48145H22.2994C20.6632 7.48145 20.6632 10.0266 22.2994 10.0266H46.1376C47.7738 10.0266 47.7738 7.48145 46.1376 7.48145Z" fill="black"/>
</svg>
