<svg width="230" height="17" viewBox="0 0 230 17" fill="none" xmlns="http://www.w3.org/2000/svg">
<path d="M0.895537 4.81586C3.53194 7.19485 6.34567 9.37914 8.98207 11.7581C11.6128 13.948 13.4772 15.0261 16.526 12.8506C19.0372 11.0701 22.0803 8.70557 24.0196 6.18575C24.2026 6.18011 24.2083 6.36918 24.3913 6.36355C24.7802 7.10854 25.7124 7.64757 26.2785 8.19787C27.5996 9.48189 28.7376 10.7716 30.053 11.8665C32.1289 13.8843 34.3765 15.5183 37.265 14.1047C40.1593 12.8801 41.8985 9.79873 44.2152 7.64577C44.3925 7.45107 44.5698 7.25637 44.7472 7.06167C44.2095 7.4567 44.4039 7.8292 45.136 7.80667C45.7022 8.35696 46.623 8.51786 47.3665 8.87346C48.6705 9.59029 49.9744 10.3071 51.2784 11.0239C54.2581 12.6354 57.0661 14.6306 59.8742 16.6258C60.8121 17.3539 62.4479 16.9251 63.1573 16.1463C64.3872 14.4053 65.6228 12.8533 66.8528 11.1123C67.5564 10.1444 68.2601 9.17655 68.9637 8.20869C69.141 8.01399 69.3183 7.81929 69.49 7.43552C69.6673 7.24082 69.6673 7.24082 69.6673 7.24082C71.3374 7.94638 72.8471 9.41384 74.3455 10.5032C76.0269 11.5869 77.714 12.8596 79.5784 13.9377C82.7582 16.1107 85.9039 17.1493 89.3017 14.3954C91.8014 12.2368 94.1181 10.0838 96.6179 7.9252C98.6767 9.37576 100.73 10.6373 102.972 12.0822C105.025 13.3437 107.095 15.1724 109.64 14.5263C112.003 13.8858 114.131 11.5495 116.098 9.97496C117.174 9.18489 118.249 8.39483 119.142 7.6104C120.217 6.82033 120.949 6.7978 122.247 7.32556C126.514 9.08664 129.917 12.5775 134.692 12.9982C139.651 13.4133 143.026 9.90307 146.79 7.13784C148.043 6.15308 147.865 6.34778 149.175 7.25367C150.296 7.97613 151.234 8.70423 152.355 9.42669C154.597 10.8716 156.839 12.3165 159.418 12.8049C161.992 13.1041 164.154 11.9021 166.499 10.6945C167.763 10.0879 169.027 9.48123 170.292 8.87459C171.556 8.26796 173.529 6.88253 175.171 6.64276C177.367 6.57516 180.175 8.57038 182.045 9.8375C184.104 11.2881 185.82 13.5061 188.399 13.9945C190.795 14.4884 193.146 13.4699 194.931 11.901C196.899 10.3265 198.655 7.81231 201.24 8.4897C203.82 8.97803 205.896 10.9958 208.132 12.2516C210.557 13.6909 213.153 14.7465 216.093 15.0344C221.424 15.6273 226.852 13.3786 229.632 8.37275C231.366 5.10229 226.521 2.41278 224.788 5.68324C222.357 10.1106 217.049 10.274 212.96 8.31821C208.87 6.36243 205.462 2.68252 200.698 2.63993C198.496 2.51847 196.511 3.52577 194.715 4.7165C193.285 5.89596 190.813 8.99989 188.949 7.92183C187.09 7.03283 185.38 5.00381 183.51 3.73669C181.457 2.4752 179.038 1.22497 176.83 0.914447C174.439 0.609552 172.454 1.61685 170.287 2.62979C167.575 3.84869 164.881 5.63478 162.164 6.66462C159.808 7.49412 157.549 5.482 155.684 4.40394C153.814 3.13682 151.733 0.929996 149.342 0.625101C145.104 -0.190655 141.786 5.21023 138.354 6.8298C134.378 8.65533 130.421 4.99232 127.069 3.20307C125.016 1.94157 122.603 0.880417 120.235 1.33179C117.684 1.78879 115.55 3.93612 113.582 5.51061C112.507 6.30068 110.911 8.05297 109.641 8.47054C109.458 8.47618 109.109 9.05464 109.109 9.05464C108.743 9.06591 107.428 7.97095 107.056 7.79315C104.437 5.98136 101.634 4.17521 99.0151 2.36342C99.0151 2.36342 98.8321 2.36906 98.8264 2.17999C97.8885 1.45189 96.4185 1.3079 95.3546 2.47609C93.7472 3.85026 92.3228 5.21879 90.7154 6.59295C90.0061 7.37175 89.108 7.96712 88.3987 8.74592C87.861 9.14095 86.8027 10.4982 86.0763 10.7098C84.6178 10.9439 81.9757 8.3759 80.8548 7.65343C79.1733 6.56974 77.675 5.48042 75.9936 4.39672C73.3742 2.58494 70.1774 -0.155279 67.3286 2.58178C65.9043 3.95031 64.8631 5.87477 63.8105 7.4211C63.1068 8.38896 62.2259 9.55153 61.5222 10.5194C56.8441 7.25705 51.9942 4.37847 46.8012 2.26742C43.6498 1.03973 41.8765 2.98673 39.7428 5.13405C38.6788 6.30225 37.6262 7.84858 36.3678 8.64428C35.2924 9.43435 36.0131 9.03368 35.0809 8.49465C34.5204 8.13342 33.7599 7.21063 33.1937 6.66033C31.8726 5.3763 30.7346 4.08664 29.4193 2.99169C28.4757 2.07452 27.3376 0.784865 26.0394 0.257104C23.0768 -0.787154 21.3205 1.72704 19.3585 3.4906C18.1114 4.66443 16.8644 5.83826 15.4344 7.01773C15.4344 7.01773 14.359 7.80779 13.8213 8.20283C13.6326 8.01939 13.4439 7.83596 13.2551 7.65253C10.6187 5.27354 7.80501 3.08926 5.16859 0.710272C1.98311 -1.65181 -1.74088 2.43688 0.895537 4.81586Z" fill="#1E1E1E"/>
</svg>
