<svg width="266" height="249" viewBox="0 0 266 249" fill="none" xmlns="http://www.w3.org/2000/svg">
<path d="M145.114 33.8719C175.854 37.5916 204.904 48.492 221.728 71.897C238.46 95.204 242.874 130.918 232.622 163.071C222.467 195.124 197.457 223.62 171.13 228.879C144.802 234.138 117.06 216.262 88.8522 198.094C60.7365 180.024 32.5335 161.657 25.9139 134.821C19.4835 107.983 34.7337 72.5749 58.4795 53.1417C82.2252 33.7086 114.564 30.1495 145.114 33.8719Z" fill="#F5F5F5"/>
<path d="M97.2893 119.782C97.6117 118.208 97.6401 116.653 97.5169 115.052C97.4031 113.599 97.2135 112.137 97.2798 110.675C97.2893 110.517 97.2988 110.359 97.3083 110.21C97.3083 110.154 97.3083 110.126 97.3083 110.089C97.3083 110.07 97.3178 110.052 97.3178 110.014C97.3937 109.418 97.5169 108.934 97.3178 108.338C96.9006 107.109 95.8102 106.607 94.6344 106.281C93.0889 105.843 91.4391 105.797 89.8367 105.862C88.4523 105.918 86.9542 105.955 85.769 106.756C84.9725 107.286 84.4036 108.04 84.214 108.981C84.0338 109.865 84.2235 110.759 84.3373 111.644C84.3941 112.137 84.4415 112.64 84.4984 113.143C84.4226 114.242 84.47 115.34 84.5838 116.458C84.6596 117.165 84.7355 117.863 84.7545 118.571C84.7639 118.925 84.7734 119.269 84.7545 119.623C84.745 119.782 84.7355 119.93 84.7165 120.089C84.7544 119.651 84.6596 120.359 84.6501 120.387C84.3182 121.942 85.3328 123.227 86.9352 123.329C88.879 123.459 90.8322 123.59 92.776 123.72C93.1079 123.739 93.4682 123.655 93.7905 123.497C94.606 123.86 95.5636 123.878 96.3222 123.301C97.3841 122.5 97.8203 121.234 97.1661 120.126C97.2229 120.014 97.2704 119.903 97.2893 119.782Z" fill="#F1C527"/>
<path d="M116.111 137.603C115.703 136.299 114.897 135.117 113.797 134.288C113.048 133.72 112.242 133.376 111.294 133.301C110.346 133.227 109.35 133.646 108.686 134.307C108.667 134.325 108.658 134.344 108.639 134.362C108.487 134.372 108.326 134.4 108.174 134.446C107.558 134.642 107.131 134.996 106.762 135.517C105.159 137.742 105.567 141.178 107.7 142.947C108.354 143.487 108.971 143.85 109.767 144.139C110.374 144.362 111.076 144.474 111.721 144.437C112.697 144.381 113.541 144.083 114.309 143.506C114.887 143.068 115.39 142.509 115.712 141.867C116.357 140.526 116.556 139.027 116.111 137.603Z" fill="#59C69F"/>
<path d="M136.847 152.426C136.506 151.578 136.06 150.871 135.321 150.312C135.074 150.126 134.809 149.977 134.543 149.856C134.439 149.623 134.297 149.409 134.107 149.241C133.671 148.841 133.054 148.506 132.429 148.562C131.831 148.608 131.243 148.543 130.646 148.543C129.783 148.552 128.968 148.72 128.19 149.092C126.721 149.791 125.801 151.504 125.943 153.087C126.076 154.567 126.806 155.945 127.991 156.886C129.205 157.845 130.551 158.375 132.097 158.496C133.756 158.636 135.577 158.068 136.487 156.634C136.923 155.945 137.084 155.116 137.141 154.316C137.17 153.701 137.084 153.012 136.847 152.426Z" fill="#F1C527"/>
<path d="M167.474 140.517C167.341 139.269 166.848 138.087 166.127 137.044C165.369 135.945 164.392 135.014 163.055 134.632C162.164 134.381 161.187 134.437 160.305 134.735C159.376 134.418 158.4 134.409 157.47 134.875C156.655 135.294 156.048 136.104 155.877 136.988C155.015 138.366 154.683 140.061 154.948 141.662C155.308 143.841 157.148 145.75 159.31 146.327C160.571 146.662 161.946 146.532 163.15 146.057C164.259 145.619 165.35 145.051 166.146 144.148C167.018 143.143 167.616 141.876 167.474 140.517Z" fill="#59C69F"/>
<path d="M187.451 147.975C186.162 146.774 184.455 146.346 182.72 146.653C181.886 146.802 181.118 147.267 180.501 147.817C179.999 148.264 179.638 148.85 179.373 149.465C179.088 149.884 178.832 150.331 178.643 150.815C178.102 152.221 178.32 153.766 178.965 155.098C180.406 158.077 185.214 158.897 187.451 156.345C188.504 155.144 189.168 153.627 189.158 152.035C189.168 150.535 188.561 148.999 187.451 147.975Z" fill="#F1C527"/>
<path d="M92.9369 154.94C92.7188 152.565 91.1733 150.471 89.0493 149.335C88.1296 148.841 87.0866 148.506 86.0436 148.515C85.5411 148.245 84.9627 148.143 84.3938 148.357C82.0898 149.204 79.9468 150.862 79.5012 153.385C79.2547 154.809 79.4918 156.187 80.2598 157.426C80.8951 158.459 81.7579 159.297 82.7724 159.977C84.792 161.336 87.3995 161.504 89.5898 160.461C91.6568 159.483 93.1455 157.221 92.9369 154.94Z" fill="#F1C527"/>
<path d="M196.981 170.042C192.903 171.234 188.75 172.202 184.55 172.9C182.691 173.208 180.691 173.282 178.88 173.804C178.036 174.046 177.239 174.409 176.547 174.939C175.874 175.452 175.391 176.457 174.622 176.792C174.025 177.044 173.21 176.988 172.584 177.034C171.408 177.118 170.232 177.193 169.057 177.267C166.942 177.398 164.828 177.519 162.704 177.621C158.314 177.835 153.924 177.984 149.524 178.096C140.735 178.31 131.936 178.347 123.136 178.329C114.518 178.31 105.861 178.431 97.2512 178.003C92.6241 177.779 87.9496 177.398 83.4268 176.364C81.3219 175.88 79.1979 175.284 77.2447 174.362C76.0689 173.813 74.4665 173.021 74.6088 171.643C74.7415 170.396 73.4236 169.316 72.2383 169.316C70.8445 169.316 70.0006 170.386 69.8679 171.643C69.4222 175.833 73.8787 178.096 77.2068 179.371C81.1891 180.898 85.4275 181.578 89.6563 182.062C98.6451 183.086 107.748 182.919 116.774 182.965C135.14 183.049 153.535 183.012 171.873 181.736C174.253 181.569 176.794 181.513 178.51 179.651C179.117 178.99 179.411 178.487 180.312 178.254C181.373 177.975 182.483 177.9 183.564 177.742C188.532 177.025 193.434 175.945 198.251 174.539C201.162 173.673 199.92 169.176 196.981 170.042Z" fill="#F1C527"/>
<path d="M174.111 196.14C173.75 194.865 172.451 194.259 171.19 194.511C156.342 197.509 141.123 193.691 126.171 195.628C124.9 195.796 123.8 196.578 123.8 197.956C123.8 199.082 124.891 200.451 126.171 200.284C141.56 198.291 157.138 202.09 172.451 198.999C173.703 198.747 174.433 197.295 174.111 196.14Z" fill="#59C69F"/>
<path d="M117.248 169.185C117.229 169.176 117.182 169.167 117.106 169.139C117.106 169.139 117.106 169.139 117.115 169.139C117.153 169.157 117.201 169.176 117.248 169.185Z" fill="#1E1E1E"/>
<path d="M210.795 169.707C208.567 169.474 206.519 169.828 204.357 170.293C203.409 170.498 202.281 170.163 201.314 170.107C200.555 170.06 199.797 170.07 199.047 170.088C198.924 169.856 198.772 169.632 198.611 169.418C196.876 167.146 194.221 165.787 191.453 165.023C190.77 164.939 190.106 164.735 189.433 164.567C189.006 164.465 188.58 164.381 188.143 164.362C187.859 164.353 187.593 164.334 187.328 164.278C183.886 163.925 180.406 164.064 176.945 164.12C169.379 164.232 161.822 164.353 154.256 164.465C153.326 164.362 152.255 165.098 152.539 166.271C152.814 167.407 151.762 168.329 150.795 168.729C149.562 169.241 148.13 169.343 146.812 169.446C143.513 169.697 140.185 169.697 136.885 169.762C130.921 169.884 124.947 169.884 118.993 169.483C118.983 169.474 118.974 169.465 118.964 169.465C118.633 169.288 118.301 169.26 117.94 169.306C118.007 169.297 118.064 169.288 118.13 169.278C117.969 169.297 117.808 169.297 117.646 169.297C117.514 169.269 117.381 169.232 117.258 169.204C117.305 169.222 117.22 169.213 117.144 169.176C117.134 169.176 117.125 169.167 117.125 169.167C117.106 169.167 117.087 169.157 117.078 169.148C117.096 169.148 117.106 169.157 117.125 169.157C117.068 169.129 117.011 169.101 116.964 169.073C116.85 169.008 116.736 168.943 116.632 168.869C116.613 168.85 116.584 168.841 116.556 168.822C116.547 168.822 116.556 168.822 116.547 168.813C116.452 168.729 116.347 168.645 116.253 168.561C116.054 168.375 115.854 168.189 115.674 167.984C115.665 167.975 115.655 167.956 115.636 167.947C115.627 167.938 115.627 167.938 115.617 167.91C115.551 167.816 115.494 167.714 115.437 167.612C115.323 167.407 115.229 167.193 115.134 166.969C114.887 166.42 114.612 165.926 114.195 165.479C113.844 165.098 113.256 164.986 112.744 165.116C104.704 165.237 96.6728 165.358 88.6322 165.479C88.6227 165.479 88.6038 165.479 88.5943 165.479C87.1057 165.573 85.617 165.647 84.1284 165.684C82.9526 165.712 81.7674 165.759 80.6012 165.675C79.6815 165.61 78.7427 165.507 77.8514 165.265C77.5006 165.172 77.0834 165.042 76.7421 164.828C75.6801 164.595 74.6561 164.139 73.7648 163.468C70.8065 161.215 70.0195 157.249 69.773 153.785C69.4411 149.167 69.5833 144.493 69.5359 139.865L69.242 109.437C69.2041 105.415 68.9481 101.206 70.3324 97.3517C71.7167 93.5063 75.1018 91.5231 78.8945 90.3592C83.5026 88.9439 88.2909 87.9384 92.9939 86.8862C97.9718 85.7782 102.988 84.8192 108.051 84.2233C113.114 83.6274 118.206 83.3388 123.298 83.1712C125.175 83.106 127.043 83.0595 128.92 83.0129V80.1079C118.301 80.3407 107.757 80.9645 97.3176 83.0036C92.0078 84.0371 86.7548 85.322 81.5114 86.6255C77.3963 87.6497 72.9114 88.8788 70.029 92.1562C67.1086 95.4709 66.3975 99.9029 66.2648 104.149C66.113 109.158 66.3121 114.204 66.3595 119.214C66.4638 129.828 66.4544 140.452 66.6725 151.066C66.7578 155.051 67.0801 159.39 69.2989 162.854C70.3039 164.427 71.6883 165.694 73.2717 166.569C70.9961 167.314 68.9007 168.627 67.8482 170.815C67.6965 171.14 67.5827 171.466 67.4879 171.792C63.5624 171.774 59.637 171.606 55.721 171.271C55.0099 171.206 54.3936 171.913 54.3936 172.574C54.3936 173.329 55.0004 173.813 55.721 173.878C59.618 174.213 63.5245 174.39 67.4405 174.399C67.6491 175.172 68.0568 175.917 68.6731 176.597C69.9721 178.012 71.7926 179.092 73.5183 179.911C77.0929 181.615 80.9994 182.36 84.9249 182.705C89.1443 183.077 93.3921 182.993 97.6304 183.012C102.57 183.03 107.51 183.049 112.45 183.068L142.1 183.179C146.983 183.198 151.857 183.217 156.74 183.235C161.452 183.254 166.212 183.468 170.915 183.198C173.153 183.068 175.39 182.751 177.505 181.997C178.263 181.727 178.557 181.057 178.51 180.423C178.624 180.442 178.756 180.451 178.889 180.442C183.393 180.07 187.821 179.12 192.04 177.518C194.032 176.764 196.269 175.964 198.023 174.744C198.839 174.176 199.294 173.459 199.465 172.677C200.043 172.667 200.621 172.677 201.19 172.705C202.29 172.761 203.447 173.068 204.537 172.9C205.552 172.751 206.519 172.397 207.543 172.295C208.624 172.183 209.714 172.193 210.795 172.304C211.507 172.379 212.123 171.653 212.123 171.001C212.123 170.247 211.507 169.781 210.795 169.707ZM196.43 172.286C195.871 172.863 194.695 173.217 193.975 173.552C192.979 174.018 191.955 174.446 190.922 174.828C188.978 175.554 186.987 176.14 184.967 176.597C182.957 177.053 180.928 177.36 178.88 177.528C177.922 177.602 177.448 178.394 177.457 179.129C177.23 179.083 176.983 179.092 176.708 179.194C172.688 180.628 168.345 180.368 164.145 180.349C159.508 180.33 154.881 180.312 150.245 180.293C140.981 180.256 131.717 180.219 122.454 180.181C113.247 180.144 104.05 180.107 94.8428 180.07C87.6177 180.042 79.6056 180.293 73.2338 176.42C71.9917 175.666 69.8299 174.437 70.247 172.733C70.5599 171.466 71.6219 170.517 72.7502 169.921C75.5 168.459 78.9039 168.533 81.9381 168.487L109.72 168.068C110.601 168.059 111.474 168.04 112.356 168.031C112.479 168.282 112.583 168.543 112.706 168.794C113.01 169.446 113.474 169.995 114.005 170.498C114.536 170.992 115.124 171.466 115.798 171.755C115.854 171.783 115.921 171.802 115.978 171.829C116.205 172.053 116.518 172.211 116.916 172.248C124.416 172.882 131.945 172.807 139.455 172.63C142.991 172.546 146.67 172.667 150.15 171.96C152.644 171.457 155.062 169.8 155.479 167.388C158.627 167.342 161.765 167.295 164.913 167.249C169.54 167.174 174.177 167.109 178.804 167.034C182.397 166.979 186.076 166.811 189.604 167.584C191.178 167.928 192.704 168.44 194.07 169.297C194.724 169.679 197.274 171.42 196.43 172.286Z" fill="#1E1E1E"/>
<path d="M201.579 101.663C201.551 99.4373 201.409 97.1468 200.755 95.0053C199.427 90.6292 195.938 87.8918 191.984 85.8154C187.613 83.525 182.976 81.3742 178.103 80.3406C178.074 80.3313 178.036 80.3313 178.008 80.322V83.376C179.942 83.8136 181.848 84.4002 183.725 85.1637C185.897 86.0389 188.011 87.0631 190.088 88.1339C191.87 89.0556 193.662 90.0519 195.132 91.4206C198.384 94.4466 198.612 98.739 198.612 102.882C198.602 113.003 198.289 123.133 197.929 133.254C197.749 138.254 197.768 143.32 197.284 148.301C196.896 152.36 195.407 156.234 192.667 159.344C192.382 159.66 192.088 159.967 191.794 160.265C191.718 160.377 191.643 160.498 191.567 160.61C191.187 161.141 190.78 161.681 191.14 162.332C191.282 162.593 191.51 162.798 191.813 162.844C192.202 162.9 192.581 162.723 192.932 162.593C193.349 162.444 193.767 162.286 194.136 162.072C195.815 160.349 197.208 158.357 198.213 156.187C200.299 151.671 200.385 146.83 200.565 141.96C200.973 131.215 201.361 120.471 201.513 109.726C201.561 107.016 201.617 104.335 201.579 101.663Z" fill="#1E1E1E"/>
<path d="M99.2043 145.359C99.0526 144.809 98.3604 144.325 97.763 144.558C94.4255 145.852 91.2206 147.444 88.177 149.325C87.8072 148.915 87.3426 148.562 86.7737 148.301C85.5316 147.724 84.1093 147.509 82.7534 147.379C81.3406 147.249 79.852 147.463 78.828 148.496C78.4582 148.869 78.4297 149.306 78.5814 149.679C78.2401 149.651 77.8987 149.772 77.6143 149.995C75.6231 151.597 76.5239 154.781 77.5195 156.671C78.7142 158.934 80.9898 160.414 83.6352 159.995C86.3755 159.567 88.2908 157.221 89.0683 154.735C89.4096 153.636 89.4855 152.454 89.2389 151.373C92.1404 149.567 95.1935 148.012 98.3889 146.774C98.9767 146.541 99.3844 146.001 99.2043 145.359ZM86.9918 153.459C86.6504 155.107 85.6454 156.876 83.9861 157.528C82.3742 158.161 80.8666 157.528 79.9563 156.196C79.4253 155.424 79.084 154.576 78.8849 153.664C78.7142 152.891 78.6857 152.09 79.2736 151.616C79.6149 151.336 79.6813 150.852 79.5391 150.442C79.852 150.498 80.1934 150.414 80.4873 150.116C80.9803 149.614 81.6819 149.595 82.4595 149.651C83.3033 149.707 84.1757 149.846 85.0195 150.089C85.7402 150.293 86.4134 150.61 86.7926 151.271C87.1435 151.913 87.1435 152.742 86.9918 153.459Z" fill="#1E1E1E"/>
<path d="M121.705 146.951C121.913 147.025 121.553 146.848 121.505 146.82C121.382 146.737 121.268 146.653 121.155 146.569C120.918 146.401 120.671 146.243 120.415 146.104C119.837 145.787 119.249 145.498 118.661 145.2C117.485 144.595 116.3 143.999 115.124 143.394C115.191 143.208 115.247 143.012 115.285 142.807C115.56 141.392 115.646 139.809 115.371 138.394C114.878 135.806 112.583 133.692 109.976 133.217C107.159 132.705 102.959 133.813 102.343 137.016C102.257 137.435 102.381 137.863 102.675 138.152C102.542 138.282 102.428 138.459 102.371 138.692C101.755 141.253 102.845 143.934 104.988 145.47C107.197 147.063 110.298 147.184 112.744 146.038C113.152 145.852 113.512 145.601 113.835 145.321C115.096 145.964 116.347 146.606 117.608 147.249C118.187 147.547 118.784 147.826 119.353 148.152C119.95 148.496 120.443 148.934 121.098 149.167C121.676 149.372 122.406 148.934 122.539 148.366C122.672 147.714 122.321 147.174 121.705 146.951ZM113.114 141.429C113.048 142.342 112.896 143.217 112.081 143.766C110.62 144.744 108.411 144.744 106.875 143.934C105.206 143.059 104.173 141.141 104.618 139.297C104.732 138.813 104.552 138.422 104.249 138.171C104.419 138.031 104.543 137.845 104.59 137.621C104.941 135.806 107.434 135.247 109.018 135.387C110.715 135.536 112.355 136.662 112.915 138.273C113.275 139.288 113.199 140.377 113.114 141.429Z" fill="#1E1E1E"/>
<path d="M149.676 147.044C149.325 146.457 148.661 146.392 148.073 146.634C144.717 148.04 141.36 149.437 138.013 150.843C137.634 149.744 136.98 148.748 135.87 148.236C135.396 148.012 134.96 148.124 134.657 148.384C134.581 148.059 134.353 147.779 134.04 147.584C131.86 146.252 129.072 148.114 127.574 149.651C125.772 151.494 125.09 154.083 126.351 156.41C127.65 158.813 130.532 159.846 133.168 159.762C135.747 159.688 138.317 158.273 138.63 155.554C138.724 154.735 138.668 153.906 138.535 153.086C138.592 153.068 138.649 153.049 138.696 153.031L149.259 148.617C149.837 148.375 149.96 147.528 149.676 147.044ZM135.757 156.513C135.254 157.053 134.458 157.323 133.718 157.416C132.021 157.63 129.992 157.276 128.825 155.936C127.697 154.641 127.82 153.031 128.806 151.764C129.385 151.019 130.087 150.433 130.902 149.949C131.594 149.539 132.353 149.25 132.997 149.651C133.377 149.884 133.86 149.781 134.211 149.52C134.259 149.828 134.448 150.116 134.827 150.293C135.472 150.591 135.709 151.234 135.918 151.969C136.136 152.77 136.278 153.627 136.326 154.483C136.373 155.219 136.278 155.954 135.757 156.513Z" fill="#1E1E1E"/>
<path d="M186.427 147.239C186.275 147.146 186.133 147.053 185.991 146.96C185.924 146.923 185.868 146.876 185.801 146.839C185.773 146.82 185.744 146.802 185.716 146.783C185.412 146.615 185.071 146.513 184.739 146.392C184.502 146.308 184.275 146.206 184.056 146.094C183.08 145.796 182.046 145.731 181.07 146.169C180.586 146.383 180.397 146.783 180.406 147.183C180.103 147.034 179.733 147.025 179.382 147.137C176.936 147.928 176.613 151.215 176.85 153.338C177.144 155.88 178.718 158.049 181.345 158.599C184.056 159.157 186.711 157.649 188.342 155.61C189.935 153.617 190.485 150.768 188.551 148.794C188.048 148.273 187.46 147.845 186.835 147.453C186.702 147.388 186.56 147.323 186.427 147.239ZM187.479 151.56C187.584 152.286 187.28 153.059 186.873 153.673C185.953 155.098 184.369 156.392 182.577 156.411C180.842 156.429 179.666 155.303 179.306 153.748C179.097 152.835 179.088 151.932 179.23 151.001C179.353 150.219 179.619 149.465 180.34 149.232C180.766 149.092 180.994 148.664 181.022 148.236C181.297 148.394 181.648 148.44 182.027 148.264C182.672 147.975 183.326 148.198 184.037 148.524C184.806 148.869 185.564 149.316 186.266 149.837C186.863 150.265 187.375 150.805 187.479 151.56Z" fill="#1E1E1E"/>
<path d="M171.379 146.951C171.588 147.025 171.228 146.848 171.18 146.82C171.057 146.737 170.943 146.653 170.829 146.569C170.592 146.401 170.346 146.243 170.09 146.104C169.511 145.787 168.924 145.498 168.336 145.2C167.16 144.595 165.975 143.999 164.799 143.394C164.865 143.208 164.922 143.012 164.96 142.807C165.235 141.392 165.32 139.809 165.046 138.394C164.552 135.806 162.258 133.692 159.65 133.217C156.834 132.705 152.634 133.813 152.018 137.016C151.932 137.435 152.055 137.863 152.349 138.152C152.217 138.282 152.103 138.459 152.046 138.692C151.43 141.253 152.52 143.934 154.663 145.47C156.872 147.063 159.973 147.184 162.419 146.038C162.827 145.852 163.187 145.601 163.509 145.321C164.771 145.964 166.022 146.606 167.283 147.249C167.862 147.547 168.459 147.826 169.028 148.152C169.625 148.496 170.118 148.934 170.772 149.167C171.351 149.372 172.081 148.934 172.214 148.366C172.346 147.714 171.996 147.174 171.379 146.951ZM162.789 141.429C162.722 142.342 162.571 143.217 161.755 143.766C160.295 144.744 158.086 144.744 156.55 143.934C154.881 143.059 153.848 141.141 154.293 139.297C154.407 138.813 154.227 138.422 153.923 138.171C154.094 138.031 154.217 137.845 154.265 137.621C154.616 135.806 157.109 135.247 158.693 135.387C160.39 135.536 162.03 136.662 162.59 138.273C162.95 139.288 162.865 140.377 162.789 141.429Z" fill="#1E1E1E"/>
<path d="M98.996 114.921C98.996 113.906 98.9865 112.901 98.977 111.886C98.9676 110.936 99.1003 109.81 98.6262 108.934C97.678 107.165 95.5162 107.594 93.8663 107.761C91.6761 107.985 89.4952 108.227 87.3144 108.488C85.456 108.711 82.2607 108.525 82.0805 111.011C82.0615 111.234 82.1184 111.439 82.2227 111.635C81.9951 111.867 81.8435 112.193 81.853 112.612C81.9004 114.605 81.9667 116.607 82.071 118.599C82.1184 119.502 82.1658 120.415 82.2322 121.318C82.3081 122.407 82.583 123.478 83.7777 123.86C84.6975 124.158 85.8353 124.167 86.7929 124.279C87.798 124.391 88.8031 124.493 89.8176 124.558C91.7803 124.679 93.7431 124.633 95.6868 124.344C96.6919 124.195 97.6306 123.878 98.2564 123.031C98.7779 122.324 98.9106 121.476 98.9486 120.62C99.0149 118.73 98.996 116.821 98.996 114.921ZM95.9997 118.776C95.9903 119.363 95.9902 119.949 95.9713 120.527C95.9618 120.694 95.9713 120.871 95.9429 121.039C95.9239 121.122 95.8575 121.271 95.8386 121.337C95.7627 121.346 95.5636 121.42 95.5067 121.439C95.2601 121.495 95.0042 121.532 94.7481 121.56C94.1129 121.644 93.4776 121.681 92.8328 121.7C91.458 121.746 90.0831 121.681 88.7178 121.56C87.9877 121.495 87.2481 121.42 86.518 121.337C86.1577 121.29 85.5887 121.318 85.1431 121.234C85.0767 120.797 85.1242 120.154 85.1052 119.838C85.0578 119.018 85.0199 118.208 84.9819 117.389C84.9061 115.806 84.8587 114.214 84.8208 112.631C84.8113 112.379 84.7543 112.165 84.6595 111.988C84.7259 111.905 84.7923 111.821 84.8397 111.728C84.8397 111.728 84.8397 111.728 84.8492 111.728C85.0767 111.728 85.3233 111.663 85.5508 111.635C86.1861 111.551 86.8214 111.476 87.4567 111.402C88.7272 111.253 89.9978 111.104 91.2778 110.964C92.5105 110.834 93.7336 110.704 94.9662 110.582C95.0421 110.573 95.611 110.517 95.9713 110.499C95.9713 110.75 95.9997 111.141 95.9997 111.206C96.0282 113.72 96.0282 116.253 95.9997 118.776Z" fill="#1E1E1E"/>
<path d="M126.114 119.977C118.756 120.024 111.389 120.07 104.031 120.117C102.115 120.126 102.115 123.05 104.031 123.031C111.389 122.984 118.756 122.938 126.114 122.891C128.029 122.882 128.029 119.968 126.114 119.977Z" fill="#1E1E1E"/>
<path d="M116.385 114.782C112.27 115.014 108.155 115.089 104.04 114.986C102.125 114.94 102.125 117.864 104.04 117.901C108.155 117.994 112.28 117.929 116.385 117.696C117.182 117.649 117.874 117.063 117.874 116.234C117.864 115.48 117.182 114.735 116.385 114.782Z" fill="#1E1E1E"/>
<path d="M187.243 123.329C187.176 118.692 186.958 114.055 186.598 109.428C186.541 108.646 185.963 107.966 185.109 107.966C184.351 107.966 183.564 108.636 183.621 109.428C183.962 113.851 184.171 118.283 184.247 122.715C183.422 122.742 182.597 122.761 181.772 122.78C181.705 119.996 181.677 117.212 181.715 114.428C181.724 113.664 181.023 112.938 180.226 112.966C179.411 113.003 178.757 113.608 178.738 114.428C178.7 117.221 178.728 120.014 178.795 122.817C178.112 122.817 177.429 122.817 176.746 122.817C176.623 116.858 176.491 110.899 176.367 104.949C176.329 103.078 173.352 103.069 173.399 104.949C173.523 110.899 173.655 116.858 173.779 122.808C172.925 122.808 172.063 122.798 171.209 122.798C171.257 122.659 171.294 122.519 171.304 122.361C171.569 118.776 170.555 115.229 170.953 111.644C171.038 110.862 170.214 110.182 169.464 110.182C168.592 110.182 168.061 110.852 167.976 111.644C167.587 115.229 168.592 118.776 168.327 122.361C168.317 122.51 168.346 122.659 168.393 122.798C167.71 122.798 167.028 122.808 166.345 122.817C166.402 122.575 166.402 122.342 166.336 122.1C166.326 122.053 166.326 122.016 166.317 121.97C166.203 121.076 166.184 120.173 166.25 119.279C166.279 118.925 166.061 118.487 165.814 118.245C165.558 117.994 165.131 117.798 164.762 117.817C164.373 117.836 163.975 117.957 163.709 118.245C163.434 118.543 163.311 118.869 163.273 119.279C163.169 120.489 163.263 121.681 163.463 122.873V122.882C161.898 122.929 160.334 122.994 158.769 123.115C156.873 123.255 156.863 126.169 158.769 126.029C167.824 125.377 176.898 125.973 185.963 125.582C187.271 125.517 187.688 124.176 187.243 123.329Z" fill="#1E1E1E"/>
<path d="M196.412 108.013C196.175 104.27 195.643 100.424 193.747 97.1005C191.832 93.7392 188.636 91.2346 184.948 89.9869C183.592 89.5307 183.004 91.6443 184.36 92.1005C187.461 93.1433 190.125 95.2848 191.756 98.0874C193.586 101.225 194.003 104.94 194.212 108.488C194.686 116.756 194.61 125.07 194.098 133.338C193.804 138.013 193.358 142.677 192.761 147.323C192.581 148.72 194.809 148.701 194.989 147.323C196.108 138.571 196.705 129.744 196.743 120.927C196.762 116.616 196.687 112.305 196.412 108.013Z" fill="#1E1E1E"/>
<path d="M125.222 86.0854C114.565 88.0593 104.173 87.3331 94.0368 89.456C92.899 89.6515 91.7802 89.8657 90.6613 90.1171C85.086 91.374 79.7668 93.5342 75.0638 97.4354C74.3147 98.1524 73.6321 98.9438 73.0632 99.8376C72.4943 100.731 72.0202 101.737 71.6883 102.873C71.603 103.273 71.5366 103.683 71.4892 104.102C71.2332 106.16 71.347 108.311 71.347 110.331C71.3375 113.757 71.3754 117.193 71.4607 120.62C71.6504 128.32 72.0676 136.02 72.7123 143.692C72.8261 145.089 75.0543 145.098 74.9405 143.692C74.3906 137.09 74.0019 130.48 73.7838 123.869C73.6795 120.62 73.6131 117.37 73.5846 114.121C73.5657 111.532 73.4709 108.897 73.5846 106.299C73.6036 105.778 73.6416 105.257 73.6795 104.744C73.689 103.422 73.9165 102.277 74.3243 101.281C74.732 100.285 75.3198 99.4373 76.031 98.711C80.6296 95.1822 85.892 93.3759 91.3914 92.3424C92.4913 92.1375 93.6007 91.9606 94.7196 91.793C104.903 90.2474 115.304 89.5118 125.839 88.1152C127.232 87.9011 126.607 85.862 125.222 86.0854Z" fill="#1E1E1E"/>
<path d="M66.5299 178.71C63.3819 178.738 60.2339 178.636 57.0955 178.422C56.3843 178.375 55.7681 179.055 55.7681 179.725C55.7681 180.47 56.3749 180.973 57.0955 181.029C60.2339 181.252 63.3819 181.345 66.5299 181.317C67.241 181.308 67.8573 180.721 67.8573 180.014C67.8478 179.316 67.241 178.71 66.5299 178.71Z" fill="#1E1E1E"/>
<path d="M166.004 186.885C159.234 187.835 152.359 187.434 145.551 187.285C138.582 187.127 131.623 187.202 124.653 187.379C110.867 187.714 97.09 188.412 83.3035 188.347C75.481 188.31 67.6586 188.021 59.8646 187.295C58.1674 187.137 58.1768 189.734 59.8646 189.893C87.8074 192.481 115.826 189.362 143.807 189.846C151.449 189.976 159.101 190.461 166.705 189.39C168.383 189.157 167.672 186.652 166.004 186.885Z" fill="#1E1E1E"/>
<path d="M182.094 192.826C177.4 193.421 172.659 193.459 167.928 193.487C163.168 193.515 158.418 193.552 153.658 193.58L125.127 193.766C119.713 193.803 114.299 193.831 108.885 193.868C107.178 193.878 107.282 196.475 108.989 196.466L166.05 196.103C171.436 196.066 176.841 196.103 182.188 195.423C183.876 195.209 183.781 192.611 182.094 192.826Z" fill="#1E1E1E"/>
<path d="M161.765 199.092C156.076 198.933 150.387 198.915 144.698 199.008C142.868 199.036 142.868 201.829 144.698 201.801C150.387 201.699 156.076 201.727 161.765 201.885C163.595 201.932 163.595 199.138 161.765 199.092Z" fill="#1E1E1E"/>
<path d="M211.724 175.693C209.771 175.749 207.808 175.805 205.855 175.861C204.291 175.908 202.641 175.833 201.247 176.634C199.986 177.36 199.076 178.552 197.919 179.409C196.658 180.349 195.217 181.094 193.747 181.662C187.233 184.166 180.027 183.822 173.409 185.963C171.797 186.485 172.489 188.999 174.11 188.468C180.624 186.364 187.679 186.662 194.117 184.297C197.056 183.217 199.427 181.652 201.712 179.567C203.001 178.394 204.395 178.505 206.064 178.459C207.951 178.403 209.838 178.356 211.724 178.301C213.422 178.245 213.431 175.647 211.724 175.693Z" fill="#1E1E1E"/>
<path d="M58.0718 69.5884C58.0562 69.573 58.0484 69.5653 58.0327 69.5576C58.0484 69.5653 58.0562 69.573 58.0718 69.5884Z" fill="#1E1E1E"/>
<path d="M67.6747 82.5847C63.6049 80.4635 60.3334 77.128 58.1967 73.1622C59.2533 73.7002 60.4117 74.0384 61.6013 74.0922C62.3683 74.1306 63.1744 73.6772 63.2449 72.8548C63.3075 72.1324 62.8066 71.2793 61.9848 71.2409C61.6483 71.2255 61.3195 71.1871 60.9908 71.1256C60.9126 71.1102 60.8265 71.0948 60.7482 71.0718C60.7091 71.0641 60.6934 71.0641 60.67 71.0564C60.5447 71.0257 60.396 70.9642 60.2942 70.9334C59.9812 70.8258 59.676 70.6875 59.3785 70.5415C59.3707 70.5338 59.3472 70.5261 59.3316 70.5184C59.3864 70.5415 59.1985 70.4416 59.1907 70.4339C59.0498 70.3493 58.9089 70.2571 58.7759 70.1572C58.6428 70.065 58.5098 69.9574 58.3846 69.8575C58.2828 69.7729 58.1811 69.6653 58.0715 69.5808C58.1263 69.6346 58.1654 69.6884 58.0637 69.5885C58.0559 69.5808 58.0402 69.5654 58.0324 69.5577C58.0246 69.55 58.0167 69.5424 58.0089 69.5347C58.0167 69.5347 58.0246 69.55 58.0324 69.55C57.9776 69.4886 57.915 69.4348 57.8602 69.3733C57.7584 69.2657 57.6645 69.1504 57.5706 69.0351C57.4689 68.9045 57.3671 68.7738 57.2732 68.6432C57.2262 68.574 57.1871 68.5125 57.1402 68.4433C56.9836 68.1513 56.8349 67.8592 56.7097 67.5441C56.5532 67.1445 56.1853 66.8524 55.7627 66.7295C55.4731 66.2299 54.9643 65.8764 54.3304 65.984C53.6182 66.1069 52.8668 66.814 53.0625 67.5902C53.2347 68.2743 53.3677 68.9659 53.446 69.673C53.4851 70.0265 53.5164 70.3724 53.5399 70.7259C53.5477 70.9027 53.5556 71.0795 53.5634 71.2562C53.5634 71.2947 53.5634 71.5406 53.5712 71.6098C53.5712 71.6866 53.5634 71.9095 53.5634 71.9479C53.5556 72.1247 53.5477 72.3015 53.5399 72.4782C53.5164 72.8318 53.4852 73.1776 53.4382 73.5311C53.3443 74.2305 53.2112 74.9222 53.0312 75.6062C52.8434 76.3364 53.5634 77.1587 54.2913 77.2202C55.16 77.2971 55.7314 76.7668 55.9349 75.9828C55.9897 75.783 56.0288 75.5755 56.0679 75.3757C58.5333 79.5412 62.1883 82.969 66.5555 85.2439C67.2521 85.6051 68.1834 85.1286 68.4652 84.46C68.7939 83.6837 68.3713 82.9459 67.6747 82.5847Z" fill="#1E1E1E"/>
<path d="M77.2304 48.7753C77.9146 47.2082 75.3115 46.2173 74.4543 47.8074C69.4605 57.1253 70.4121 68.9013 76.6563 77.4279C77.7573 78.9335 80.0694 77.1591 78.9684 75.6535C75.0835 70.3454 73.5656 63.6931 74.4464 57.325C74.7532 58.3927 75.1463 59.4298 75.6575 60.4207C76.0114 61.112 76.8136 61.5038 77.5843 61.1889C78.2763 60.9046 78.7325 60.0059 78.3707 59.3069C76.6878 56.0345 76.2867 52.378 77.2225 48.7983C77.2304 48.7906 77.2304 48.783 77.2304 48.7753Z" fill="#1E1E1E"/>
<path d="M70.3236 53.0966C69.9476 52.9845 69.5226 52.9495 69.1548 53.1036C68.7871 53.2507 68.4847 53.4889 68.3295 53.8182C68.2314 54.0354 68.1006 54.2526 67.9699 54.4558C67.7083 54.8201 67.4141 55.1564 67.079 55.4716C66.9973 55.5347 66.9238 55.6047 66.842 55.6678C66.5397 55.892 66.3272 56.1792 66.2699 56.5225C66.2209 56.8448 66.3272 57.2512 66.5805 57.5034C66.8339 57.7556 67.1853 57.9658 67.5775 57.9938C67.978 58.0218 68.4112 57.9588 68.7217 57.7276C69.7842 56.9289 70.6341 55.941 71.149 54.8131C71.2961 54.4978 71.2961 54.1265 71.1408 53.8112C71.0101 53.503 70.6832 53.2017 70.3236 53.0966Z" fill="#1E1E1E"/>
<path d="M97.9035 69.1368C97.5323 68.8451 97.1864 68.5226 96.8742 68.177C96.8489 68.1463 96.8236 68.1156 96.7898 68.0849C96.7898 68.0772 96.7899 68.0772 96.7814 68.0772C96.7055 67.9851 96.638 67.8929 96.562 67.7931C96.4186 67.6012 96.292 67.4092 96.1655 67.2019C96.0474 67.0099 95.9461 66.818 95.8449 66.6183C95.8364 66.6106 95.828 66.5876 95.8196 66.5646C95.8112 66.5415 95.7943 66.5108 95.7943 66.5031C95.7521 66.3957 95.7015 66.2882 95.6593 66.1807C95.5327 65.8505 95.4399 65.5126 95.364 65.1671C95.364 65.1518 95.364 65.1441 95.364 65.1287C95.3555 64.9521 95.3049 64.7909 95.2206 64.645C95.2121 64.6219 95.1953 64.6066 95.1868 64.5912C95.1615 64.5528 95.1362 64.5068 95.1024 64.4684C95.094 64.453 95.0771 64.4377 95.0603 64.4223C94.8325 64.1689 94.5034 64 94.1153 64C94.0816 64 94.0563 64.0077 94.0225 64.0077C93.9888 64.0077 93.9635 64.0154 93.9297 64.0154C93.896 64.023 93.8706 64.023 93.8369 64.0307C93.8116 64.0384 93.7779 64.0384 93.7526 64.0461C93.7357 64.0537 93.7188 64.0614 93.7019 64.0691C93.5923 64.1075 93.4826 64.1612 93.3813 64.2227C93.3307 64.2534 93.2885 64.2841 93.2464 64.3225C93.1704 64.3839 93.1029 64.4607 93.0523 64.5375C93.027 64.5682 93.0101 64.5989 92.9932 64.6373C92.9679 64.6911 92.9511 64.7448 92.9342 64.8062C92.7739 65.0366 92.6136 65.2593 92.4364 65.4819C92.3183 65.6432 92.1917 65.7967 92.0652 65.9503C92.0399 65.981 92.023 66.0041 91.9977 66.0348C91.9977 66.0348 91.9977 66.0348 91.9892 66.0424C91.9133 66.1269 91.8458 66.2037 91.7699 66.2882C91.4999 66.5876 91.2046 66.864 90.884 67.1251C90.8081 67.1865 90.7322 67.248 90.6478 67.3017C90.6562 67.294 90.5719 67.3554 90.5465 67.3708C90.3609 67.4937 90.1669 67.6012 89.9728 67.701C89.5172 67.9313 89.3316 68.5302 89.6185 68.9372C89.9137 69.3518 90.4959 69.5131 90.9768 69.2597C91.5843 68.9449 92.1242 68.5533 92.6051 68.1079C92.1664 70.2809 91.1624 72.3617 89.6101 74.074C89.1798 74.5424 89.1038 75.2104 89.6101 75.6711C90.0488 76.0704 90.9346 76.1472 91.3649 75.6711C93.0101 73.8513 94.1997 71.7321 94.8241 69.4747C95.2121 69.9277 95.6424 70.3577 96.1149 70.7263C96.6042 71.1178 97.3973 71.1946 97.8698 70.7263C98.3338 70.3116 98.4266 69.5515 97.9035 69.1368Z" fill="#1E1E1E"/>
</svg>
