<svg width="287" height="272" viewBox="0 0 287 272" fill="none" xmlns="http://www.w3.org/2000/svg">
<path d="M169.987 221.972C200.821 212.052 228.809 195.432 242.357 169.037C255.827 142.757 254.777 106.816 239.294 77.3607C223.926 47.984 193.931 25.1274 166.208 25.3379C138.485 25.5484 112.919 48.7468 86.9219 72.326C61.0039 95.7903 35.043 119.564 32.4569 147.243C30.0646 174.887 51.1619 206.516 78.4536 220.739C105.745 234.961 139.346 231.857 169.987 221.972Z" fill="#F5F5F5"/>
<path d="M107.903 176.81C106.558 176.364 104.952 176.32 103.553 176.159C102.046 175.981 100.53 175.847 99.0143 175.749C97.4983 175.651 95.9823 175.589 94.4573 175.571C93.0315 175.553 91.3441 175.366 90.0898 176.168C87.5631 177.773 88.276 181.393 88.3211 183.881C88.3753 186.966 88.3572 190.051 88.276 193.127C88.0865 200.1 87.527 207.064 86.6247 213.974C86.4622 215.213 87.7887 216.15 88.8806 216.203C94.9807 216.506 101.081 216.408 107.172 215.927C108.39 215.829 109.428 214.973 109.428 213.698C109.428 213.172 109.193 212.628 108.832 212.209C109.166 206.386 109.446 200.564 109.653 194.741C109.762 191.629 109.852 188.517 109.924 185.406C109.96 183.845 109.987 182.294 110.014 180.733C110.041 179.066 109.717 177.416 107.903 176.81Z" fill="#F1C527"/>
<path d="M141.453 179.628C141.435 178.683 140.768 177.693 139.793 177.479C137.212 176.899 134.641 176.32 132.06 175.749C129.488 175.169 126.88 174.59 124.227 174.741C122.91 174.813 122.116 175.713 121.971 176.971C120.591 189.32 119.544 201.705 118.813 214.108C118.732 215.508 119.769 216.212 120.861 216.248C121.024 216.382 121.195 216.497 121.385 216.596C122.919 217.362 125.265 216.908 126.925 216.872C130.544 216.801 134.171 216.72 137.79 216.649C139.098 216.622 139.928 215.641 140.046 214.42C141.156 202.855 141.625 191.246 141.453 179.628Z" fill="#59C69F"/>
<path d="M168.813 156.445C167.956 155.633 166.828 155.473 165.7 155.321C163.201 154.974 160.692 154.67 158.174 154.448C155.711 154.225 153.247 154.073 150.784 153.984C149.692 153.948 148.447 153.761 147.373 154.046C146.082 154.394 145.261 155.446 145.036 156.703C144.837 157.809 145.036 158.977 145.108 160.092C145.198 161.411 145.279 162.731 145.352 164.051C145.496 166.547 145.613 169.044 145.722 171.54C146.055 179.708 146.173 187.875 146.082 196.052C145.658 198.076 145.379 200.136 145.243 202.195C144.927 206.992 145.343 211.807 145.758 216.587C145.875 217.933 147.12 219.244 148.609 218.735C149.539 218.414 150.143 217.888 150.45 217.122C154.429 216.087 158.662 217.452 162.722 216.952C163.904 216.81 164.987 216.346 165.619 215.285C166.269 214.188 166.251 212.726 166.413 211.504C166.738 209.025 167.045 206.556 167.324 204.068C168.434 194.224 169.192 184.336 169.58 174.429C169.779 169.516 169.896 164.595 169.896 159.682C169.905 158.46 169.752 157.336 168.813 156.445Z" fill="#F1C527"/>
<path d="M202.355 136.24C196.057 137.408 189.677 137.97 183.27 137.961C182.521 137.961 181.971 138.264 181.601 138.701C180.473 138.701 179.318 139.423 179.263 140.85C179.047 145.879 178.83 150.899 178.614 155.928C178.397 160.885 178.271 165.834 177.549 170.747C176.105 180.591 176.132 190.604 175.753 200.528C175.537 206.253 175.329 211.977 175.113 217.701C175.049 219.485 177.053 220.358 178.505 219.627C181.348 218.201 185.12 218.727 188.197 218.745C192.005 218.771 195.822 218.825 199.63 218.985C200.794 219.03 201.958 217.924 201.886 216.756C201.272 206.627 200.794 196.364 201.39 186.226C201.688 181.126 202.419 176.061 203.032 170.988C203.646 165.941 204.007 160.912 204.052 155.839C204.097 150.212 203.989 144.533 205.126 138.995C205.487 137.239 204.097 135.919 202.355 136.24Z" fill="#59C69F"/>
<path d="M225.88 215.704C225.51 214.946 224.237 214.848 223.498 214.795C222.541 214.732 211.559 214.705 210.603 214.705C210.566 214.705 210.539 214.696 210.512 214.688C208.68 214.786 206.849 214.902 205.017 214.991C207.354 195.241 208.067 175.312 207.101 155.455C206.822 149.758 206.406 144.069 205.856 138.389C205.847 138.318 205.829 138.255 205.82 138.193C206.145 137.435 205.757 136.294 204.638 136.178C202.598 135.964 200.586 136.249 198.565 136.517C196.562 136.784 194.549 136.989 192.528 137.132C188.467 137.408 184.388 137.399 180.319 137.15C179.326 137.087 178.893 137.916 179.01 138.665C178.306 138.63 177.575 139.049 177.557 139.941C177.151 159.485 176.249 179.03 174.859 198.531C174.471 203.997 174.038 209.462 173.569 214.919C173.524 215.437 173.749 215.802 174.083 216.007C172.044 216.025 169.996 216.043 167.956 216.034C167.676 216.034 167.397 216.025 167.117 216.025C167.216 215.08 167.306 214.135 167.397 213.198C167.487 212.253 167.577 211.308 167.658 210.372C169.283 196.23 169.409 182.856 169.689 168.973C169.698 167.751 169.698 166.538 169.698 165.317C169.698 163.025 169.923 160.564 169.589 158.3C169.229 155.874 167.009 155.464 164.915 155.009C162.506 154.492 160.078 154.082 157.633 153.761C155.242 153.449 152.823 153.235 150.414 153.128C148.474 153.039 146.101 152.852 145.306 155.027C144.991 155.892 145.063 156.811 145.117 157.702C145.189 158.942 145.27 160.19 145.361 161.429C145.451 162.669 145.55 163.917 145.649 165.156C145.83 166.244 145.839 175.33 145.803 176.436C145.406 190.016 144.955 193.324 144.025 205.842C143.944 206.903 143.872 207.964 143.836 209.026C143.754 211.148 143.799 213.279 144.016 215.41C142.572 215.356 141.128 215.294 139.676 215.24C139.793 215.062 139.874 214.857 139.901 214.607C140.307 210.363 140.605 206.11 140.786 201.848C140.831 200.787 140.867 199.717 140.894 198.656C141.372 191.505 139.64 183.462 140.434 176.284C140.379 175.491 140.307 174.679 140.055 173.939C139.811 173.199 139.387 172.548 138.629 172.093C137.122 171.193 134.974 171.3 133.278 171.13C128.351 170.649 123.424 170.167 118.497 169.677C118.055 169.632 117.513 169.945 117.306 170.328C115.69 173.449 115.185 176.864 115.05 180.323C114.905 183.997 114.959 187.679 114.932 191.362C114.878 199.084 114.824 206.805 114.77 214.527C113.362 214.518 111.955 214.5 110.547 214.5C110.06 208.615 109.572 202.73 109.076 196.846C108.823 193.76 108.562 190.684 108.309 187.599C108.101 185.138 107.876 182.552 105.34 181.313C103.084 180.216 100.115 180.35 97.6699 180.386C94.7642 180.43 91.8496 180.76 89.0071 181.34C87.843 181.581 86.336 181.741 85.3976 182.526C84.3237 183.426 84.3508 185.103 84.1433 186.369C83.665 189.356 83.2589 192.352 82.9341 195.357C82.2032 202.026 81.8512 208.722 81.8602 215.428C78.5305 215.454 70.6437 215.321 67.3229 215.044C65.5723 214.893 65.5543 217.576 67.2959 217.719C77.5017 218.575 92.2647 217.603 102.462 217.282C112.694 216.961 122.927 217.247 133.151 217.639C143.384 218.031 153.617 218.531 163.859 218.655C174.119 218.78 184.388 218.548 194.639 218.129C201.57 217.844 218.516 217.568 225.438 217.166C225.88 216.819 226.178 216.301 225.88 215.704ZM106.54 214.527C99.231 214.643 91.9037 215.231 84.5764 215.401C84.5764 210.176 84.7839 204.942 85.2261 199.735C85.4607 196.988 85.7585 194.242 86.1195 191.505C86.2819 190.256 86.4624 189.008 86.6519 187.76C86.7511 187.118 86.8594 186.467 86.9587 185.825C87.067 185.201 86.9948 184.675 87.5903 184.416C88.7003 183.935 90.1802 183.819 91.3623 183.622C92.7971 183.382 94.2318 183.23 95.6847 183.141C98.0399 182.998 100.657 182.856 102.985 183.355C103.996 183.569 104.835 183.97 105.187 184.978C105.584 186.128 105.539 187.474 105.638 188.678C105.863 191.398 106.089 194.108 106.315 196.828L107.786 214.527C107.379 214.527 106.955 214.527 106.54 214.527ZM138.06 201.161C137.889 205.646 137.582 210.113 137.149 214.581C137.131 214.795 137.149 214.982 137.212 215.142C130.643 214.884 124.064 214.643 117.495 214.554C117.549 207.126 117.603 199.699 117.649 192.28C117.676 188.696 117.658 185.111 117.73 181.536C117.793 178.451 118.037 175.303 119.3 172.45C122.973 172.807 126.645 173.172 130.318 173.529C132.285 173.725 134.288 173.814 136.238 174.109C136.941 174.216 137.375 174.376 137.555 175.089C137.772 175.954 137.726 176.926 137.781 177.8C138.268 185.575 138.358 193.377 138.06 201.161ZM166.675 186.253C166.594 194.42 165.61 202.436 164.951 210.033C164.861 211.023 164.762 212.021 164.671 213.011C164.572 214.01 164.482 215 164.374 215.998C158.49 215.927 152.616 215.749 146.732 215.526C146.615 214.42 146.552 213.323 146.534 212.227C146.507 211.13 146.525 210.033 146.57 208.936C146.732 194.242 148.681 179.102 148.366 165.21C148.302 164.104 148.221 162.999 148.113 161.893C148.032 160.796 147.95 159.699 147.887 158.603C147.851 158.059 147.445 156.311 147.896 155.856C148.302 155.437 150.071 155.785 150.594 155.812C151.767 155.865 152.932 155.946 154.105 156.053C156.388 156.258 158.671 156.552 160.927 156.953C162.009 157.14 163.083 157.354 164.157 157.586C164.933 157.756 166.648 157.809 166.891 158.647C167.171 159.61 166.945 160.975 166.954 161.973C166.964 163.159 166.964 164.336 166.964 165.522C166.801 172.138 166.747 177.488 166.756 183.97C166.729 184.719 166.702 185.486 166.675 186.253ZM203.835 198.825C203.438 204.273 202.905 209.712 202.265 215.133C193.394 215.57 184.515 215.891 175.626 215.998C175.978 215.793 176.249 215.445 176.294 214.937C177.964 195.455 179.146 175.928 179.831 156.391C180.021 150.917 180.174 145.433 180.292 139.958C180.292 139.905 180.283 139.86 180.283 139.816C180.292 139.816 180.292 139.816 180.301 139.816C184.37 140.074 188.44 140.074 192.51 139.798C194.477 139.664 196.444 139.468 198.402 139.209C200 139.004 201.57 138.772 203.167 138.772C205.053 158.736 205.297 178.834 203.835 198.825Z" fill="#1E1E1E"/>
<path d="M171.394 117.203C164.04 127.386 154.917 136.347 144.575 143.57C139.387 147.199 133.891 150.409 128.161 153.137C121.872 156.133 115.302 158.442 108.625 160.44C100.314 162.918 91.9126 165.103 83.5476 167.394C81.8691 167.858 82.582 170.435 84.2695 169.971C98.8158 165.986 113.786 162.615 127.557 156.365C139.269 151.05 150.071 143.748 159.383 134.947C162.731 131.791 165.844 128.411 168.786 124.881C167.83 127.743 166.864 130.605 165.908 133.467C165.357 135.108 167.974 135.803 168.515 134.18C170.302 128.866 172.08 123.552 173.867 118.238C174.381 116.704 172.233 116.035 171.394 117.203Z" fill="#1E1E1E"/>
<path d="M164.644 122.464C164.256 121.876 163.426 121.581 162.794 121.983C162.217 122.348 161.621 122.678 160.999 122.972C160.845 123.044 160.701 123.106 160.548 123.177C160.502 123.195 160.331 123.267 160.313 123.267C159.997 123.391 159.672 123.498 159.347 123.605C158.716 123.802 158.075 123.962 157.425 124.069C157.263 124.096 157.109 124.123 156.947 124.149C156.902 124.158 156.73 124.176 156.703 124.176C156.342 124.212 155.972 124.238 155.612 124.247C154.908 124.274 154.222 124.845 154.258 125.585C154.294 126.289 154.854 126.949 155.612 126.922C158.634 126.806 161.612 125.915 164.166 124.301C164.753 123.917 165.05 123.088 164.644 122.464Z" fill="#1E1E1E"/>
<path d="M127.999 148.812C127.755 148.375 127.069 148.099 126.609 148.411C123.974 150.203 121.095 151.621 118.045 152.566C117.522 152.727 117.161 153.235 117.296 153.788C117.423 154.296 118 154.688 118.533 154.528C121.754 153.529 124.813 152.076 127.584 150.186C128.044 149.873 128.287 149.33 127.999 148.812Z" fill="#F1C527"/>
</svg>
