<svg width="225" height="196" viewBox="0 0 225 196" fill="none" xmlns="http://www.w3.org/2000/svg">
<path d="M132.501 4.46033C100.818 -2.80904 68.2486 -2.38363 43.3023 14.7457C18.4819 31.811 1.41037 65.5162 0.0901642 100.926C-1.29002 136.202 13.267 173.253 37.3962 187.821C61.5254 202.388 95.2868 194.607 129.612 186.703C163.811 178.863 198.202 170.761 214.291 146.611C230.195 122.39 227.737 81.9857 211.203 54.3367C194.669 26.6877 163.998 11.6596 132.501 4.46033Z" fill="#F5F5F5"/>
<path d="M161.834 93.5596C161.204 90.6728 159.558 87.7133 156.797 86.5059C153.532 85.0716 149.7 84.8174 146.184 84.89C143.512 84.9445 140.796 85.3712 138.403 86.5695C133.627 88.3488 130.326 93.9772 133.564 98.6978C134.275 99.7327 135.219 100.532 136.371 101.022C137.792 101.63 138.772 101.939 139.591 103.355C140.481 104.898 141.884 110.454 144.591 109.165C145.842 108.566 146.085 106.514 146.516 105.343C146.723 104.798 146.516 104.944 147.11 104.898C147.398 104.871 147.686 104.844 147.982 104.807C148.972 104.698 149.952 104.562 150.942 104.417C153.838 103.972 157.247 103.546 159.576 101.576C161.87 99.6147 162.455 96.4192 161.834 93.5596Z" fill="#59C69F"/>
<path d="M137.936 64.7548C137.189 63.1298 136.407 61.4231 135.048 60.2157C132.557 58.0097 129.148 57.6557 125.973 57.5013C122.15 57.3198 118.292 57.2018 114.505 57.8554C110.808 58.4999 107.345 60.1794 104.287 62.3581C101.508 64.3372 99.8799 67.224 99.763 70.6828C99.5021 78.1177 105.609 82.7203 111.816 85.3984C112.382 85.9885 112.958 86.5876 113.561 87.1323C113.65 87.214 113.749 87.2775 113.848 87.332C114.379 88.2943 116.043 88.4668 116.313 87.1141C116.367 86.86 116.412 86.6058 116.466 86.3516C116.682 86.0974 116.799 85.7706 116.817 85.4256C116.951 85.4165 117.104 85.3893 117.095 85.3893C118.175 85.3893 119.344 85.117 120.414 84.9808C122.492 84.7266 124.561 84.4906 126.639 84.2091C130.191 83.7371 133.465 82.7022 135.786 79.7881C137.873 77.1645 139.303 73.4879 139.348 70.1108C139.375 68.1954 138.718 66.4614 137.936 64.7548Z" fill="#F1C527"/>
<path d="M89.7698 75.3402C88.1777 72.7075 85.2545 71.8088 82.4392 71.1824C76.386 69.8479 69.3523 68.9038 63.9735 72.7983C59.6742 75.9212 56.742 81.9672 58.28 87.3233C59.3414 91.0362 62.8222 92.2164 66.1232 93.2876C69.6581 94.4405 73.2828 95.1668 76.9616 95.6207C77.4923 95.6842 77.978 95.4664 78.3737 95.1123C79.642 95.2394 80.9552 94.6312 81.9356 93.8414C82.3673 93.4964 82.5562 92.9608 82.5742 92.4161C83.8514 91.944 85.1466 91.4811 86.3339 90.8093C88.8793 89.3659 90.4533 86.942 90.8851 84.037C91.3078 81.2319 91.2808 77.8457 89.7698 75.3402Z" fill="#59C69F"/>
<path d="M138.322 148.6C135.588 148.41 132.89 148.028 130.218 147.447C127.655 146.894 124.975 146.258 122.555 145.223C120.522 144.352 119.875 141.919 119.128 139.994C118.121 137.407 117.293 134.756 116.628 132.069C116.394 131.107 115.431 130.399 114.46 130.399C113.399 130.399 112.661 131.125 112.292 132.069C111.285 134.62 110.278 137.162 109.279 139.713C108.506 141.683 107.759 143.871 106.248 145.414C104.755 146.948 102.632 147.211 100.591 147.166C97.8652 147.111 95.1848 146.549 92.4505 146.794C90.5347 146.966 89.6802 148.909 90.7146 150.443C90.7595 151.178 91.1823 151.859 91.8209 152.322C93.6018 153.63 95.3557 154.973 97.0737 156.371C97.9551 157.088 98.8186 157.805 99.6821 158.541C100.114 158.904 100.537 159.276 100.968 159.648C101.184 159.839 101.391 160.021 101.607 160.211C101.661 160.257 101.724 160.338 101.796 160.411C101.787 160.465 101.787 160.52 101.769 160.574C101.706 160.865 101.643 161.155 101.589 161.446C101.463 162.027 101.337 162.608 101.211 163.189C100.959 164.351 100.698 165.504 100.429 166.666C99.8709 169.053 99.2863 171.432 98.6747 173.801C98.198 175.644 100.285 177.469 101.976 176.361C104.152 174.945 106.311 173.492 108.506 172.113C109.531 171.468 110.583 170.814 111.699 170.333C112.67 169.916 112.85 170.17 113.794 170.66C118.481 173.12 123.167 175.58 127.862 178.041C129.58 178.939 131.684 177.451 131.163 175.481C130.551 173.166 130.056 170.805 129.742 168.427C129.58 167.219 129.427 165.985 129.4 164.768C129.373 163.67 129.958 163.007 130.596 162.163C133.303 158.568 136.479 155.336 139.932 152.477C141.551 151.115 140.076 148.718 138.322 148.6Z" fill="#F1C527"/>
<path d="M98.054 181C97.6943 181 97.3345 180.936 96.9837 180.809C96.1292 180.501 95.4277 179.847 95.0679 179.012C94.825 178.431 94.7441 177.795 94.852 177.169C94.861 177.105 94.879 177.042 94.897 176.978C95.7784 174.264 96.1022 171.531 96.453 168.635C96.6599 166.911 96.8758 165.122 97.2176 163.298C97.2265 163.243 97.2176 163.143 97.1906 163.062C97.1636 162.98 97.1186 162.898 97.0557 162.835L87.0808 153.021C86.1903 152.15 85.8755 150.861 86.2623 149.662C86.649 148.464 87.6474 147.611 88.8797 147.438L90.3098 147.229C91.614 147.02 93.0441 146.948 94.5552 146.866C98.4228 146.666 102.425 146.458 103.703 143.816L109.225 132.514C109.774 131.388 110.889 130.689 112.13 130.689C113.372 130.689 114.487 131.388 115.036 132.514L115.674 133.821C115.971 134.502 116.232 135.128 116.493 135.745C117.95 139.222 119.452 142.808 121.476 145.377C121.521 145.395 121.566 145.405 121.611 145.414L135.39 147.438C136.02 147.529 136.595 147.801 137.063 148.21C137.504 148.6 137.828 149.108 138.008 149.671C138.107 149.989 138.089 150.343 137.945 150.643C136.748 153.293 134.743 155.209 132.791 157.052C131.577 158.214 130.425 159.303 129.481 160.547C129.445 160.592 129.409 160.638 129.364 160.683C128.95 161.101 128.563 161.482 128.24 161.8L127.205 162.816C127.079 162.943 127.016 163.125 127.052 163.307L128.401 171.268C128.491 171.74 128.626 172.294 128.752 172.848C129.373 175.526 129.967 178.068 128.383 179.093C125.802 181.517 122.492 179.502 119.812 177.886C118.535 177.114 117.221 176.316 116.115 176.016C116.025 175.989 115.935 175.952 115.845 175.907L112.364 174.064C112.202 173.982 112.014 173.982 111.861 174.064L99.5381 180.6C99.0884 180.873 98.5667 181 98.054 181ZM97.5054 177.704C97.4964 177.786 97.5144 177.868 97.5414 177.941C97.6043 178.077 97.7302 178.195 97.8742 178.249C98.0181 178.304 98.162 178.285 98.2969 178.213L110.619 171.677C111.564 171.177 112.688 171.177 113.633 171.677L116.978 173.447C118.4 173.864 119.83 174.736 121.215 175.571C123.886 177.196 125.586 178.104 126.621 177.06C126.648 177.033 126.675 177.005 126.711 176.978C126.8 176.334 126.387 174.573 126.135 173.492C126 172.902 125.865 172.321 125.757 171.786L124.399 163.788C124.219 162.726 124.57 161.645 125.334 160.892L126.369 159.875C126.666 159.585 127.016 159.231 127.403 158.849C128.464 157.451 129.733 156.253 130.947 155.091C132.593 153.529 134.149 152.041 135.165 150.189C135.12 150.162 135.066 150.152 135.003 150.143L121.224 148.119C120.711 148.046 120.207 147.838 119.785 147.529C119.695 147.456 119.605 147.384 119.533 147.293C117.185 144.415 115.566 140.557 114.01 136.817C113.749 136.199 113.489 135.582 113.237 134.974L112.625 133.73C112.49 133.467 112.265 133.421 112.139 133.421C112.014 133.421 111.78 133.458 111.654 133.73L106.131 145.005C104.161 149.081 99.1334 149.344 94.6991 149.581C93.26 149.653 91.9018 149.726 90.7145 149.916L89.2664 150.125C88.9786 150.171 88.8617 150.379 88.8257 150.497C88.7897 150.615 88.7537 150.851 88.9606 151.06L98.9355 160.874C99.3133 161.246 99.5921 161.7 99.754 162.208C99.9159 162.707 99.9519 163.243 99.8709 163.761C99.5381 165.531 99.3313 167.274 99.1334 168.953C98.7916 171.822 98.4408 174.772 97.5054 177.704Z" fill="#1E1E1E"/>
<path d="M190.643 149.926C190.382 150.007 190.068 150.171 189.735 150.343C189.168 150.634 188.521 150.97 187.837 151.033C186.992 151.106 186.119 150.697 185.426 150.371C185.256 150.289 185.103 150.216 184.95 150.153C183.25 149.436 181.559 148.791 179.724 148.736C178.555 148.709 177.403 148.909 176.18 149.127C175.344 149.281 174.471 149.435 173.59 149.508C172.681 149.581 171.71 149.617 170.747 149.363C170.028 149.172 169.47 148.818 168.922 148.473C168.688 148.328 168.463 148.183 168.211 148.056C166.619 147.211 165.297 147.456 163.552 148.165L163.174 148.319C162.365 148.655 161.447 149.036 160.485 149.145C159.36 149.272 158.308 148.927 157.463 148.646L156.887 148.455C155.394 147.947 153.982 147.475 152.48 147.584C150.51 147.729 148.648 148.646 146.768 149.653C145.959 150.089 146.273 150.824 146.39 151.042C146.606 151.451 147.182 152.023 147.982 151.596L148.18 151.487C149.862 150.579 151.778 149.554 153.928 149.935C154.836 150.098 155.682 150.389 156.5 150.679C157.436 151.006 158.326 151.315 159.253 151.415C161.051 151.614 162.742 150.924 164.388 150.271L164.622 150.171C165.225 149.917 165.971 149.608 166.898 149.944C167.447 150.144 167.914 150.443 168.364 150.734C168.742 150.979 169.101 151.206 169.461 151.342C170.783 151.859 172.366 151.977 174.453 151.696C174.993 151.623 175.533 151.523 176.081 151.424C177.179 151.224 178.303 151.015 179.454 151.015C179.877 151.015 180.309 151.042 180.74 151.115C181.982 151.306 183.106 151.805 184.185 152.277C184.833 152.567 185.453 152.831 186.083 153.04C187.028 153.348 187.882 153.403 188.629 153.212C189.033 153.103 189.447 152.912 189.87 152.713C190.293 152.513 190.733 152.304 191.219 152.159C191.633 152.032 191.885 151.778 191.965 151.396C192.073 150.942 191.921 150.416 191.606 150.116C191.345 149.871 191.039 149.808 190.643 149.926Z" fill="#1E1E1E"/>
<path d="M182.89 161.909C182.629 161.736 182.216 161.591 181.694 161.854C179.931 162.744 177.961 162.962 175.973 162.49C175.344 162.336 174.732 162.154 174.121 161.963C172.951 161.609 171.845 161.273 170.676 161.201C169.47 161.128 168.292 161.419 167.042 161.718C166.457 161.863 165.864 162 165.261 162.109C163.471 162.435 161.951 161.936 160.485 161.464C160.197 161.373 159.9 161.273 159.603 161.183C157.903 160.674 156.23 160.638 154.342 161.083C154.027 161.155 153.721 161.228 153.415 161.31C151.832 161.7 150.186 162.109 148.351 161.963C147.398 161.891 146.516 161.609 145.662 161.346C144.771 161.065 143.917 160.801 143.081 160.801C142.973 160.801 142.865 160.801 142.766 160.82C141.174 160.956 139.869 161.963 138.394 163.434C138.107 163.725 138.008 164.024 138.098 164.351C138.205 164.778 138.592 165.159 139.033 165.286C139.411 165.386 139.753 165.286 140.067 164.986L140.283 164.768C140.868 164.178 141.587 163.434 142.514 163.189C143.359 162.962 144.151 163.271 144.78 163.525C144.96 163.597 145.131 163.661 145.293 163.715C147.074 164.26 149.071 164.442 150.915 164.206C151.679 164.106 152.444 163.897 153.262 163.679C154.369 163.38 155.52 163.062 156.716 163.035C158.002 163.007 159.136 163.407 160.251 163.788C160.8 163.979 161.321 164.16 161.843 164.278C163.462 164.66 165.054 164.351 166.745 164.024C168.607 163.661 170.523 163.289 172.573 163.861C172.933 163.961 173.293 164.069 173.653 164.178C175.074 164.605 176.423 164.995 177.862 165.032C179.526 165.077 181.253 164.632 183.016 163.734C183.349 163.57 183.511 163.343 183.529 163.053C183.556 162.644 183.286 162.163 182.89 161.909Z" fill="#59C69F"/>
<path d="M170.396 174.99C168.391 175.517 166.745 174.9 165.153 174.31C164.028 173.892 162.976 173.493 161.834 173.52C160.853 173.538 159.945 173.928 158.991 174.337C158.677 174.473 158.362 174.609 158.029 174.736C156.635 175.272 155.07 175.49 153.244 175.39C151.346 175.29 149.538 174.809 147.802 174.346C146.732 174.055 145.626 173.765 144.528 173.574C143.764 173.438 143.089 173.375 142.478 173.375C141.686 173.375 141.002 173.493 140.364 173.719C139.572 174.001 138.88 174.5 138.151 175.018C137.683 175.354 137.198 175.699 136.667 175.998C136.316 176.198 136.136 176.488 136.127 176.842C136.127 177.287 136.397 177.768 136.784 177.995C137.108 178.186 137.459 178.177 137.818 177.968C138.178 177.759 138.538 177.487 138.916 177.196C139.662 176.624 140.499 175.98 141.533 175.744C142.909 175.435 144.303 175.817 145.527 176.161L145.922 176.27C148.603 176.988 151.634 177.814 154.575 177.714C156.095 177.668 157.471 177.405 158.668 176.933C158.919 176.833 159.18 176.715 159.432 176.588C160.368 176.152 161.429 175.644 162.67 175.916C163.444 176.08 164.145 176.379 164.829 176.679C165.458 176.951 166.052 177.205 166.664 177.333C168.085 177.632 169.551 177.596 171.017 177.205C171.413 177.106 171.656 176.888 171.746 176.543C171.863 176.116 171.728 175.58 171.404 175.254C171.152 174.972 170.81 174.891 170.396 174.99Z" fill="#1E1E1E"/>
<path d="M136.73 62.7577C135.165 59.1627 132.215 55.6223 129.364 53.6523C125.991 51.3192 122.105 51.3828 118.364 51.637C114.649 51.8821 110.934 52.5629 107.345 53.7885C103.775 55.005 99.862 56.6572 96.9388 59.5894C94.2854 62.2493 93.0622 66.516 93.5839 70.6919C94.1955 75.585 97.3436 78.6534 100.878 80.233C102.129 80.7868 103.496 81.0137 104.773 81.4949C106.293 82.0759 107.471 83.4467 108.479 84.6995C109.09 85.462 109.657 86.2427 110.278 86.9962C110.583 87.3684 110.934 87.7134 111.24 88.0947C111.501 88.4215 111.726 88.7846 112.068 89.0479C113.003 89.7469 113.983 88.948 114.334 88.013C114.658 87.1596 114.982 86.2972 115.297 85.4439C115.476 84.9536 115.638 84.3273 115.881 83.837C116.493 83.7826 117.203 83.9551 117.77 83.9551C118.697 83.9551 119.632 83.9097 120.558 83.8098C122.591 83.5919 124.615 83.1743 126.585 82.5116C129.904 81.386 133.654 79.7337 135.786 76.157C137.918 72.5711 138.457 66.7248 136.73 62.7577ZM135.561 71.981C134.977 73.951 133.762 75.2038 132.323 76.1751C128.689 78.6444 124.273 79.8154 120.172 80.1059C118.939 80.1967 117.707 80.1876 116.466 80.1241C115.44 80.0696 114.406 80.0152 113.48 80.696C112.535 81.386 111.897 82.6841 111.375 84.0821C109.801 81.2861 107.894 79.0166 105.088 77.8727C102.066 76.6381 98.5129 76.393 96.2822 73.1703C94.4204 70.4922 94.6722 66.162 96.5341 63.5838C98.8816 60.3338 103.172 58.7905 106.419 57.5922C110.26 56.167 114.217 55.3408 118.211 55.0322C121.719 54.7599 125.73 54.2969 128.914 56.4938C130.398 57.5196 131.658 58.8995 132.836 60.4246C133.969 61.8952 135.426 63.6473 135.939 65.6263C136.443 67.56 136.119 70.1019 135.561 71.981Z" fill="#1E1E1E"/>
<path d="M123.32 70.1562C122.717 70.1835 122.366 70.6101 122.303 71.1821C122.303 71.2274 122.294 71.2638 122.285 71.3092C122.285 71.3182 122.285 71.3182 122.276 71.3455C122.249 71.4544 122.24 71.5724 122.213 71.6814C122.168 71.872 122.123 72.0626 122.06 72.2442C122.033 72.335 121.997 72.4258 121.961 72.5165C121.916 72.6255 121.916 72.6346 121.952 72.5347C121.934 72.5801 121.916 72.6255 121.889 72.6618C121.8 72.8524 121.692 73.0249 121.575 73.1974C121.548 73.2337 121.548 73.2337 121.548 73.2519C121.539 73.2609 121.539 73.2609 121.503 73.2973C121.44 73.3699 121.377 73.4425 121.305 73.5061C121.287 73.5242 121.17 73.6241 121.134 73.6604C121.089 73.6876 120.972 73.7693 120.945 73.7875C120.864 73.8329 120.792 73.8783 120.711 73.9146C120.693 73.9236 120.684 73.9327 120.675 73.9327C120.666 73.9327 120.648 73.9418 120.63 73.9509C120.549 73.9781 120.459 74.0054 120.378 74.0235C120.351 74.0326 120.19 74.0598 120.145 74.0689C120.091 74.0689 120.01 74.078 119.992 74.078C119.911 74.078 119.839 74.0689 119.758 74.0689C119.803 74.0598 119.461 73.969 119.488 73.9963C119.425 73.969 119.371 73.9327 119.308 73.9055C119.272 73.8873 119.236 73.8601 119.2 73.8329C119.137 73.7602 119.056 73.6876 118.993 73.6241C118.975 73.6059 118.966 73.6059 118.957 73.5968C118.948 73.5878 118.957 73.5878 118.939 73.5605C118.84 73.4153 118.75 73.27 118.678 73.1157C118.669 73.0975 118.598 72.9432 118.58 72.8978C118.562 72.8343 118.517 72.7163 118.508 72.6981C118.382 72.335 118.283 71.9537 118.193 71.5815C118.067 71.064 117.455 70.7009 116.943 70.8643C116.403 71.0368 116.097 71.5633 116.232 72.1262C116.475 73.1339 116.79 74.1143 117.446 74.9404C118.157 75.8391 119.317 76.2386 120.432 76.0933C121.593 75.939 122.555 75.3035 123.248 74.3594C123.922 73.4425 124.201 72.3168 124.318 71.2002C124.399 70.6464 123.832 70.1381 123.32 70.1562Z" fill="#1E1E1E"/>
<path d="M117.248 63.5383C115.944 63.5383 115.935 65.59 117.248 65.59C118.552 65.59 118.552 63.5383 117.248 63.5383Z" fill="#1E1E1E"/>
<path d="M123.805 64.2373C122.501 64.2373 122.492 66.289 123.805 66.289C125.109 66.289 125.118 64.2373 123.805 64.2373Z" fill="#1E1E1E"/>
<path d="M87.7282 107.767C87.7372 107.767 87.7642 107.776 87.7822 107.776C87.7912 107.776 87.8091 107.776 87.8091 107.776C87.8721 107.776 87.9261 107.785 87.989 107.785C88.097 107.785 88.2049 107.785 88.3038 107.776C88.3218 107.776 88.3578 107.767 88.3758 107.767C88.3938 107.767 88.4118 107.758 88.4298 107.758C88.4837 107.749 88.5377 107.74 88.5827 107.722C88.6456 107.703 88.6996 107.685 88.7626 107.667C88.7716 107.667 88.8255 107.64 88.8435 107.64C88.9424 107.594 89.0414 107.54 89.1313 107.476C89.1493 107.467 89.1853 107.431 89.1943 107.422C89.2393 107.386 89.2752 107.34 89.3112 107.295C89.3112 107.295 89.3112 107.295 89.3202 107.286C89.3292 107.268 89.3472 107.24 89.3562 107.222C89.3652 107.213 89.3832 107.159 89.3922 107.15C89.4282 107.05 89.4641 106.932 89.4731 106.823C89.5361 106.296 89.2752 105.679 88.8795 105.352C88.6186 105.143 88.3128 104.971 88.034 104.78C87.8361 104.671 87.6472 104.571 87.4404 104.472C85.1108 103.391 82.3405 102.611 79.7591 102.801C77.1237 103.001 74.7851 104.299 72.8873 106.115C69.0826 109.737 67.1308 114.975 66.4202 120.113C66.0155 123.036 65.9435 125.987 66.0335 128.937C66.1234 131.869 66.3753 134.811 67.1398 137.643C67.6435 139.486 70.4767 138.696 69.9731 136.853C69.1905 133.975 69.0017 131.025 68.9477 128.056C68.8937 125.206 68.9657 122.328 69.4694 119.514C70.2609 115.093 72.0868 110.518 75.6306 107.613C77.4025 106.16 79.4802 105.516 81.7558 105.833C83.4648 106.069 85.3357 106.596 86.8917 107.504C87.1795 107.613 87.4494 107.712 87.7282 107.767Z" fill="#1E1E1E"/>
<path d="M61.5186 88.4489C63.1646 91.2086 66.0608 92.4886 68.6242 93.3601C70.1443 93.8776 71.7094 94.1953 73.2744 94.3678C73.994 94.4404 74.7045 94.4767 75.4241 94.4767C75.8558 94.4767 76.4045 94.3405 76.8812 94.3859C77.0701 94.7672 77.187 95.2484 77.3309 95.6296C77.5828 96.2923 77.8256 96.955 78.0775 97.6177C78.3473 98.3349 79.1118 98.9522 79.8314 98.4166C80.1012 98.2169 80.2721 97.9355 80.47 97.6813C80.7039 97.3908 80.9737 97.1275 81.2165 96.837C81.6933 96.256 82.134 95.6478 82.6017 95.0577C83.3752 94.0954 84.2837 93.0333 85.4619 92.5885C86.4513 92.2163 87.5037 92.0438 88.4661 91.6171C91.2004 90.4006 93.6289 88.0313 94.0967 84.2548C94.5014 81.032 93.557 77.7367 91.5062 75.685C89.2486 73.4246 86.2265 72.1536 83.4742 71.2095C80.7039 70.2654 77.8346 69.7389 74.9654 69.5482C72.0781 69.3576 69.074 69.3031 66.4746 71.1006C64.2709 72.6257 61.9953 75.3491 60.79 78.127C59.4499 81.1591 59.8636 85.68 61.5186 88.4489ZM61.3927 80.3058C61.7884 78.7716 62.9127 77.4189 63.7852 76.2842C64.6937 75.1131 65.6651 74.0419 66.8074 73.2521C69.2629 71.5545 72.366 71.9085 75.0733 72.1173C78.1584 72.3534 81.2076 72.9979 84.1757 74.0964C86.6852 75.0223 89.9952 76.2116 91.8031 78.7262C93.2422 80.7143 93.4311 84.055 91.992 86.1249C90.265 88.6123 87.5307 88.8029 85.1921 89.7561C83.0244 90.6458 81.5583 92.3978 80.3441 94.5493C79.9393 93.4781 79.4536 92.4705 78.7161 91.9348C77.9965 91.4083 77.205 91.4537 76.4135 91.49C75.4601 91.5354 74.5066 91.5445 73.5532 91.4719C70.3872 91.2449 66.9873 90.3462 64.172 88.4398C63.0656 87.6863 62.1212 86.724 61.6715 85.1989C61.2578 83.7736 61.0059 81.8128 61.3927 80.3058Z" fill="#1E1E1E"/>
<path d="M71.1334 83.819C71.5921 83.8371 71.871 84.1639 71.9159 84.6088C71.9159 84.6451 71.9249 84.6723 71.9249 84.7086C71.9249 84.7086 71.9249 84.7177 71.9249 84.7359C71.9429 84.8176 71.9519 84.9083 71.9699 84.99C72.0059 85.1353 72.0419 85.2805 72.0868 85.4258C72.1138 85.4984 72.1318 85.571 72.1588 85.6346C72.1948 85.7254 72.1948 85.7254 72.1678 85.6528C72.1858 85.6891 72.1948 85.7163 72.2128 85.7526C72.2847 85.8979 72.3657 86.034 72.4556 86.1611C72.4736 86.1884 72.4736 86.1884 72.4826 86.1974C72.4916 86.2065 72.4916 86.2065 72.5186 86.2337C72.5635 86.2882 72.6175 86.3427 72.6715 86.3972C72.6805 86.4062 72.7794 86.4879 72.8064 86.5152C72.8424 86.5424 72.9323 86.606 72.9503 86.615C73.0133 86.6513 73.0672 86.6786 73.1302 86.7149C73.1482 86.724 73.1482 86.724 73.1572 86.733C73.1662 86.733 73.1752 86.7421 73.1932 86.7421C73.2561 86.7603 73.3191 86.7875 73.391 86.8057C73.409 86.8147 73.5349 86.8329 73.5709 86.842C73.6159 86.842 73.6789 86.842 73.6879 86.842C73.7508 86.842 73.8048 86.842 73.8677 86.8329C73.8318 86.8238 74.1016 86.7512 74.0746 86.7784C74.1196 86.7603 74.1646 86.733 74.2095 86.7058C74.2365 86.6877 74.2635 86.6695 74.2905 86.6513C74.3445 86.5969 74.3984 86.5424 74.4524 86.4879C74.4704 86.4698 74.4704 86.4698 74.4794 86.4698C74.4884 86.4607 74.4794 86.4607 74.4974 86.4425C74.5693 86.3336 74.6413 86.2156 74.7042 86.0976C74.7132 86.0794 74.7672 85.9614 74.7762 85.9342C74.7942 85.8888 74.8302 85.798 74.8302 85.7798C74.9291 85.4984 75.001 85.2079 75.073 84.9174C75.1719 84.518 75.6397 84.2366 76.0354 84.3637C76.4492 84.4998 76.692 84.9083 76.5841 85.335C76.3952 86.1157 76.1523 86.8692 75.6487 87.5047C75.1 88.1946 74.2005 88.5124 73.3461 88.3943C72.4466 88.2763 71.7091 87.7861 71.1784 87.0599C70.6567 86.3518 70.4408 85.4803 70.3509 84.6178C70.3059 84.1912 70.7377 83.8008 71.1334 83.819Z" fill="#1E1E1E"/>
<path d="M75.82 78.708C76.8274 78.708 76.8274 80.2876 75.82 80.2876C74.8126 80.2876 74.8126 78.708 75.82 78.708Z" fill="#1E1E1E"/>
<path d="M70.7555 79.2437C71.7629 79.2437 71.7629 80.8232 70.7555 80.8232C69.7482 80.8323 69.7482 79.2437 70.7555 79.2437Z" fill="#1E1E1E"/>
<path d="M136.038 115.629C136.029 115.629 136.002 115.638 135.984 115.638C135.975 115.638 135.957 115.638 135.957 115.638C135.903 115.638 135.849 115.647 135.795 115.647C135.696 115.647 135.606 115.647 135.507 115.638C135.489 115.638 135.453 115.629 135.444 115.629C135.426 115.629 135.408 115.619 135.39 115.619C135.345 115.61 135.3 115.601 135.246 115.592C135.192 115.574 135.138 115.565 135.085 115.547C135.076 115.547 135.022 115.529 135.013 115.52C134.923 115.483 134.833 115.429 134.752 115.374C134.743 115.365 134.707 115.338 134.698 115.329C134.662 115.293 134.626 115.256 134.59 115.211C134.59 115.211 134.59 115.211 134.581 115.202C134.572 115.184 134.554 115.166 134.545 115.147C134.536 115.138 134.518 115.093 134.509 115.084C134.473 114.993 134.446 114.884 134.437 114.784C134.383 114.312 134.617 113.749 134.977 113.459C135.21 113.268 135.489 113.114 135.741 112.941C135.921 112.851 136.092 112.751 136.281 112.66C138.395 111.68 140.895 110.971 143.234 111.153C145.617 111.335 147.731 112.515 149.449 114.149C152.885 117.426 154.657 122.165 155.295 126.813C155.664 129.464 155.727 132.123 155.646 134.801C155.565 137.452 155.34 140.112 154.639 142.681C154.189 144.352 151.616 143.634 152.075 141.964C152.786 139.368 152.948 136.69 153.002 134.003C153.056 131.424 152.984 128.819 152.534 126.277C151.814 122.274 150.159 118.134 146.957 115.51C145.347 114.194 143.476 113.613 141.417 113.904C139.87 114.122 138.179 114.594 136.775 115.411C136.533 115.492 136.29 115.583 136.038 115.629Z" fill="#1E1E1E"/>
<path d="M160.467 88.694C159.37 86.1794 157.31 83.7011 155.313 82.3212C152.956 80.6871 150.231 80.7325 147.614 80.9141C145.014 81.0866 142.415 81.5586 139.905 82.4211C137.405 83.2744 134.671 84.4273 132.629 86.479C130.776 88.34 129.922 91.3267 130.281 94.2498C130.704 97.6723 132.908 99.8238 135.39 100.922C136.263 101.313 137.225 101.467 138.116 101.803C139.177 102.211 140.004 103.165 140.706 104.045C141.129 104.581 141.533 105.125 141.965 105.652C142.181 105.915 142.424 106.151 142.64 106.414C142.829 106.641 142.982 106.896 143.224 107.086C143.872 107.576 144.565 107.014 144.807 106.369C145.032 105.77 145.257 105.171 145.482 104.572C145.608 104.227 145.716 103.791 145.887 103.446C146.319 103.41 146.813 103.528 147.209 103.528C147.857 103.528 148.513 103.5 149.161 103.428C150.582 103.273 152.003 102.983 153.379 102.52C155.7 101.739 158.326 100.577 159.819 98.0717C161.294 95.5571 161.672 91.4628 160.467 88.694ZM159.648 95.1395C159.235 96.5194 158.389 97.3909 157.382 98.0717C154.836 99.7966 151.751 100.614 148.882 100.822C148.018 100.886 147.155 100.877 146.292 100.831C145.572 100.795 144.852 100.759 144.205 101.231C143.539 101.712 143.099 102.62 142.73 103.6C141.623 101.639 140.301 100.06 138.331 99.2519C136.218 98.3894 133.735 98.217 132.17 95.9656C130.866 94.0864 131.046 91.0634 132.341 89.2569C133.987 86.9783 136.982 85.907 139.258 85.0628C141.938 84.0642 144.709 83.4832 147.506 83.2744C149.961 83.0838 152.768 82.7569 154.998 84.3002C156.033 85.0174 156.914 85.9887 157.742 87.0509C158.533 88.0767 159.549 89.3023 159.909 90.6912C160.269 92.0529 160.035 93.8322 159.648 95.1395Z" fill="#1E1E1E"/>
<path d="M151.086 93.8683C150.663 93.8865 150.42 94.1861 150.375 94.5855C150.375 94.6127 150.366 94.64 150.366 94.6763C150.366 94.6763 150.366 94.6854 150.366 94.7035C150.348 94.7852 150.339 94.8578 150.321 94.9395C150.294 95.0757 150.258 95.2028 150.213 95.3299C150.195 95.3935 150.168 95.457 150.15 95.5205C150.123 95.6022 150.114 95.6023 150.141 95.5387C150.123 95.5659 150.114 95.6023 150.096 95.6295C150.033 95.7566 149.961 95.8837 149.88 96.0017C149.862 96.0289 149.862 96.0289 149.862 96.038C149.854 96.0471 149.854 96.0471 149.836 96.0652C149.791 96.1106 149.746 96.1651 149.701 96.2105C149.692 96.2196 149.611 96.2922 149.584 96.3194C149.548 96.3376 149.467 96.4011 149.458 96.4102C149.404 96.4465 149.35 96.4737 149.296 96.501C149.287 96.5101 149.278 96.5101 149.269 96.5191C149.26 96.5191 149.251 96.5282 149.233 96.5282C149.17 96.5464 149.116 96.5645 149.053 96.5827C149.035 96.5827 148.918 96.6099 148.891 96.6099C148.855 96.6099 148.801 96.6099 148.783 96.6099C148.729 96.6099 148.675 96.6099 148.621 96.6008C148.657 96.5918 148.414 96.5282 148.432 96.5464C148.387 96.5282 148.351 96.501 148.306 96.4828C148.279 96.4647 148.261 96.4465 148.234 96.4374C148.19 96.392 148.136 96.3376 148.091 96.2922C148.073 96.274 148.073 96.274 148.073 96.274C148.073 96.265 148.073 96.265 148.055 96.2468C147.992 96.1469 147.929 96.0471 147.866 95.9381C147.857 95.92 147.812 95.8201 147.794 95.7929C147.776 95.7475 147.749 95.6658 147.74 95.6567C147.65 95.4025 147.587 95.1393 147.524 94.876C147.434 94.5129 147.011 94.2587 146.651 94.3767C146.274 94.4947 146.058 94.8669 146.157 95.2573C146.328 95.9654 146.553 96.6553 147.002 97.2272C147.506 97.8536 148.315 98.135 149.089 98.0352C149.907 97.9262 150.573 97.4814 151.059 96.8278C151.526 96.1832 151.724 95.3935 151.805 94.6127C151.832 94.2133 151.446 93.8502 151.086 93.8683Z" fill="#1E1E1E"/>
<path d="M146.831 89.2385C145.914 89.2385 145.914 90.6729 146.831 90.6729C147.749 90.6729 147.749 89.2385 146.831 89.2385Z" fill="#1E1E1E"/>
<path d="M151.427 89.7288C150.51 89.7288 150.51 91.1631 151.427 91.1631C152.336 91.1631 152.336 89.7288 151.427 89.7288Z" fill="#1E1E1E"/>
<path d="M160.62 81.6674L160.854 81.4949C161.258 81.2044 161.699 80.9321 162.149 80.696C162.356 80.5871 162.518 80.3874 162.581 80.1423C162.644 79.8881 162.608 79.6339 162.482 79.4251C162.221 79.0166 161.717 78.8804 161.285 79.1074C160.251 79.6339 159.307 80.3238 158.479 81.159C158.308 81.3315 158.209 81.5766 158.218 81.8308C158.227 82.0759 158.317 82.3029 158.497 82.4572C158.677 82.6206 158.902 82.7023 159.127 82.7023C159.352 82.7023 159.586 82.6115 159.756 82.439C159.936 82.2575 160.125 82.085 160.314 81.9216C160.404 81.849 160.503 81.7673 160.62 81.6674Z" fill="#1E1E1E"/>
<path d="M162.815 83.3653C162.617 83.1746 162.365 83.0839 162.14 83.1202C161.618 83.1837 161.169 83.3017 160.755 83.4742C160.602 83.5378 160.404 83.6376 160.269 83.8737C160.143 84.0915 160.116 84.3639 160.188 84.5908C160.26 84.8269 160.413 85.0175 160.611 85.1264C160.755 85.2081 160.908 85.2444 161.061 85.2444C161.16 85.2444 161.25 85.2263 161.339 85.19C161.663 85.0629 161.996 84.9721 162.338 84.9176C162.5 84.8904 162.68 84.8268 162.833 84.6634C163.003 84.491 163.102 84.2368 163.093 84.0007C163.075 83.7466 162.976 83.5196 162.815 83.3653Z" fill="#1E1E1E"/>
<path d="M158.902 77.6185C158.902 77.3553 158.803 77.1102 158.623 76.9377C158.272 76.6109 157.759 76.6018 157.391 76.9286C156.734 77.5005 156.086 78.1088 155.493 78.7442C155.322 78.9258 155.232 79.1709 155.241 79.416C155.25 79.652 155.349 79.8699 155.52 80.0333C155.7 80.1967 155.924 80.2784 156.149 80.2784C156.383 80.2784 156.617 80.1876 156.788 80.0061C157.373 79.3888 157.984 78.7987 158.623 78.254C158.785 78.1088 158.893 77.8727 158.902 77.6185Z" fill="#1E1E1E"/>
<path d="M57.6237 85.6528C57.5428 85.1717 57.129 84.8721 56.6523 84.9538C56.1936 85.0264 55.7709 85.4622 55.8608 86.0432C56.3555 89.0571 58.0645 91.8532 60.5379 93.7142C60.6998 93.8322 60.8707 93.8958 61.0506 93.8958C61.3025 93.8958 61.5453 93.7777 61.7162 93.5417C61.9951 93.1604 62.0041 92.5613 61.5363 92.2072C59.4856 90.6549 58.0555 88.2673 57.6237 85.6528Z" fill="#1E1E1E"/>
<path d="M134.905 53.0715C134.662 52.8446 134.347 52.7719 134.041 52.8627C133.726 52.9626 133.465 53.2259 133.393 53.5527C133.321 53.8522 133.42 54.1609 133.654 54.3788C134.896 55.5589 135.876 57.0023 136.497 58.5547C136.649 58.9451 136.982 59.172 137.342 59.172C137.423 59.172 137.504 59.1629 137.585 59.1357C137.828 59.0722 138.044 58.8815 138.161 58.6455C138.268 58.4276 138.277 58.1825 138.196 57.9737C137.45 56.0855 136.335 54.4332 134.905 53.0715Z" fill="#1E1E1E"/>
<path d="M123.814 151.814C121.557 151.505 119.551 151.16 117.878 150.08C116.403 149.127 115.243 147.702 114.595 146.058C114.307 145.332 113.507 144.996 112.778 145.287C112.095 145.559 111.789 146.285 112.05 146.975C112.886 149.109 114.307 150.924 116.16 152.204C118.328 153.711 120.882 154.156 123.32 154.492C123.383 154.501 123.446 154.501 123.509 154.501C124.192 154.501 124.795 153.975 124.894 153.266C125.002 152.54 124.534 151.914 123.814 151.814Z" fill="#1E1E1E"/>
<path d="M33.3566 149.926C33.6175 150.007 33.9323 150.171 34.2651 150.343C34.8317 150.634 35.4793 150.97 36.1629 151.033C37.0084 151.106 37.8809 150.697 38.5734 150.371C38.7443 150.289 38.8972 150.216 39.0501 150.153C40.7501 149.436 42.4411 148.791 44.2759 148.736C45.4452 148.709 46.5965 148.909 47.8198 149.127C48.6563 149.281 49.5287 149.435 50.4102 149.508C51.3186 149.581 52.29 149.617 53.2524 149.363C53.972 149.172 54.5297 148.818 55.0783 148.473C55.3122 148.328 55.5371 148.183 55.7889 148.056C57.3809 147.211 58.7031 147.456 60.448 148.165L60.8258 148.319C61.6353 148.655 62.5528 149.036 63.5152 149.145C64.6395 149.272 65.6918 148.927 66.5373 148.646L67.113 148.455C68.6061 147.947 70.0182 147.475 71.5203 147.584C73.4901 147.729 75.3519 148.646 77.2318 149.653C78.0413 150.089 77.7265 150.824 77.6095 151.042C77.3937 151.451 76.818 152.023 76.0175 151.596L75.8196 151.487C74.1377 150.579 72.2218 149.554 70.0722 149.935C69.1637 150.098 68.3182 150.389 67.4997 150.679C66.5643 151.006 65.6738 151.315 64.7474 151.415C62.9485 151.614 61.2576 150.924 59.6116 150.271L59.3777 150.171C58.7751 149.917 58.0285 149.608 57.1021 149.944C56.5534 150.144 56.0857 150.443 55.636 150.734C55.2582 150.979 54.8984 151.206 54.5387 151.342C53.2165 151.859 51.6334 151.977 49.5467 151.696C49.007 151.623 48.4674 151.523 47.9187 151.424C46.8214 151.224 45.6971 151.015 44.5458 151.015C44.123 151.015 43.6913 151.042 43.2596 151.115C42.0183 151.306 40.894 151.805 39.8147 152.277C39.1671 152.567 38.5464 152.831 37.9168 153.04C36.9724 153.348 36.1179 153.403 35.3714 153.212C34.9666 153.103 34.5529 152.912 34.1301 152.713C33.7074 152.513 33.2667 152.304 32.781 152.159C32.3672 152.032 32.1154 151.778 32.0344 151.396C31.9265 150.942 32.0794 150.416 32.3942 150.116C32.664 149.871 32.9699 149.808 33.3566 149.926Z" fill="#1E1E1E"/>
<path d="M41.119 161.909C41.3798 161.736 41.7936 161.591 42.3152 161.854C44.0782 162.744 46.048 162.962 48.0357 162.49C48.6654 162.336 49.277 162.154 49.8886 161.963C51.0579 161.609 52.1642 161.273 53.3335 161.201C54.5388 161.128 55.717 161.419 56.9673 161.718C57.5519 161.863 58.1456 162 58.7482 162.109C60.5381 162.435 62.0582 161.936 63.5243 161.464C63.8121 161.373 64.1089 161.273 64.4057 161.183C66.1057 160.674 67.7787 160.638 69.6675 161.083C69.9823 161.155 70.2881 161.228 70.5939 161.31C72.177 161.7 73.823 162.109 75.6578 161.963C76.6113 161.891 77.4927 161.609 78.3472 161.346C79.2377 161.065 80.0921 160.801 80.9286 160.801C81.0366 160.801 81.1445 160.801 81.2434 160.82C82.8355 160.956 84.1397 161.963 85.6148 163.434C85.9026 163.725 86.0015 164.024 85.9116 164.351C85.8036 164.778 85.4169 165.159 84.9761 165.286C84.5984 165.386 84.2566 165.286 83.9418 164.986L83.7259 164.768C83.1413 164.178 82.4217 163.434 81.4953 163.189C80.6498 162.962 79.8583 163.271 79.2287 163.525C79.0488 163.597 78.8779 163.661 78.716 163.715C76.9351 164.26 74.9383 164.442 73.0944 164.206C72.3299 164.106 71.5654 163.897 70.7469 163.679C69.6405 163.38 68.4892 163.062 67.293 163.035C66.0068 163.007 64.8734 163.407 63.7581 163.788C63.2095 163.979 62.6878 164.16 62.1661 164.278C60.5471 164.66 58.9551 164.351 57.2641 164.024C55.4022 163.661 53.4864 163.289 51.4357 163.861C51.0759 163.961 50.7161 164.069 50.3563 164.178C48.9352 164.605 47.586 164.995 46.1469 165.032C44.4829 165.077 42.756 164.632 40.9931 163.734C40.6603 163.57 40.4984 163.343 40.4804 163.053C40.4534 162.644 40.7232 162.163 41.119 161.909Z" fill="#59C69F"/>
<path d="M53.6119 174.99C55.6177 175.517 57.2637 174.9 58.8557 174.31C59.98 173.892 61.0324 173.493 62.1747 173.52C63.1551 173.538 64.0635 173.928 65.0169 174.337C65.3317 174.473 65.6465 174.609 65.9793 174.736C67.3735 175.272 68.9385 175.49 70.7644 175.39C72.6623 175.29 74.4701 174.809 76.2061 174.346C77.2764 174.055 78.3828 173.765 79.4801 173.574C80.2446 173.438 80.9192 173.375 81.5308 173.375C82.3223 173.375 83.0059 173.493 83.6445 173.719C84.436 174.001 85.1286 174.5 85.8572 175.018C86.3249 175.354 86.8106 175.699 87.3413 175.998C87.6921 176.198 87.8719 176.488 87.8809 176.842C87.8809 177.287 87.6111 177.768 87.2243 177.995C86.9005 178.186 86.5498 178.177 86.19 177.968C85.8302 177.759 85.4704 177.487 85.0926 177.196C84.3461 176.624 83.5096 175.98 82.4752 175.744C81.0991 175.435 79.7049 175.817 78.4817 176.161L78.0859 176.27C75.4056 176.988 72.3744 177.814 69.4332 177.714C67.9132 177.668 66.537 177.405 65.3407 176.933C65.0889 176.833 64.828 176.715 64.5762 176.588C63.6408 176.152 62.5794 175.644 61.3382 175.916C60.5647 176.08 59.8631 176.379 59.1795 176.679C58.5499 176.951 57.9562 177.205 57.3446 177.333C55.9235 177.632 54.4574 177.596 52.9913 177.205C52.5955 177.106 52.3527 176.888 52.2627 176.543C52.1458 176.116 52.2807 175.58 52.6045 175.254C52.8564 174.972 53.1982 174.891 53.6119 174.99Z" fill="#1E1E1E"/>
<path d="M131.037 127.757C130.938 131.062 130.668 135.392 129.535 139.577C129.265 140.557 128.347 140.358 128.167 140.312C127.988 140.258 127.088 139.958 127.358 138.969C128.5 134.765 128.734 130.535 128.815 126.586C128.878 123.291 128.86 118.942 128.078 114.594C127.142 109.383 124.849 102.202 119.236 97.5997C116.556 95.4028 113.39 94.4859 110.08 94.9398C107.912 95.2393 103.846 96.1108 100.887 98.571C95.5534 103.001 95.1307 110.99 94.8249 116.818C94.4471 123.908 94.0244 131.933 94.555 139.731C94.609 140.548 94.0154 140.703 93.6556 140.73C93.2149 140.757 92.3514 140.566 92.2794 139.604C92.0006 135.492 91.9646 130.998 92.1625 125.469L92.2255 123.618C92.3604 119.669 92.4953 115.583 92.963 111.634C93.9974 102.847 97.1814 97.3364 102.722 94.7673C105.906 93.2876 109.108 92.5068 111.878 92.5068C112.229 92.5068 112.571 92.5159 112.904 92.5431C116.034 92.7792 119.128 94.2861 121.853 96.8825C127.637 102.402 129.759 110.155 130.515 115.701C131.01 119.296 131.181 123.236 131.037 127.757Z" fill="#1E1E1E"/>
</svg>
