<svg width="35" height="46" viewBox="0 0 35 46" fill="none" xmlns="http://www.w3.org/2000/svg">
<path d="M31.4983 7.5197C29.1777 5.06861 25.9397 3.96108 22.6657 3.64334C20.9657 3.47994 19.2478 3.57072 17.5568 3.77952C15.7039 4.00647 13.8421 4.29697 12.1331 5.06861C12.1331 5.06861 12.1241 5.06861 12.1241 5.07769C11.2427 4.46945 10.0824 4.62378 9.26388 5.34095C4.59573 9.46241 1.91537 17.0608 4.50579 23.0342C5.80999 26.0481 8.64326 27.664 11.6474 28.5355C13.1855 28.9804 14.8045 29.3616 16.4415 29.6249C16.4955 29.7066 16.5494 29.7883 16.5944 29.87C16.7473 30.1151 16.8732 30.3784 17.0351 30.6235C18.0425 32.2031 19.4367 32.548 21.1906 32.5208C23.826 32.4845 26.7222 31.7492 29.1147 30.6144C30.338 30.0334 31.3724 29.0167 31.7771 27.6822C31.975 27.0104 31.957 26.3205 32.0559 25.6305C32.0559 25.6487 32.0739 25.5761 32.1099 25.4036C32.1279 25.3673 32.1549 25.3219 32.1998 25.2492C32.3258 25.0404 32.4697 24.8407 32.5866 24.6229C33.0273 23.824 33.1802 22.9888 33.1802 22.1445C33.7469 20.5105 34.0347 18.7402 34.2326 16.9791C34.6374 13.5203 33.9358 10.0888 31.4983 7.5197Z" fill="#F1C527"/>
<path d="M26.4077 3.08034C19.7698 -1.16821 9.89382 -0.677995 5.54948 6.60265C4.95584 7.59216 6.55687 8.39104 7.14151 7.4106C10.6494 1.53706 18.5195 1.00146 24.1321 3.8429C29.3309 6.47556 32.8658 11.9678 32.0832 17.9412C31.9123 19.2666 31.5436 20.5648 30.9679 21.7722C30.3563 23.0431 29.286 23.9782 28.6653 25.2037C28.1796 26.1569 28.3685 27.1646 28.5934 28.1632C28.7373 28.7986 28.9712 29.4795 28.5034 30.0423C27.9997 30.6415 26.8215 30.8231 26.1289 31.0318C24.4739 31.5402 22.8279 32.0486 21.1729 32.557C19.7788 32.9927 17.2873 34.182 16.0461 32.8384C15.1556 31.8761 15.4974 30.4055 14.1572 29.7064C12.943 29.071 11.3869 29.1164 10.1007 28.5898C7.08754 27.3461 4.56908 24.9223 3.35483 21.8539C2.70722 20.2198 2.4104 18.4677 2.46437 16.7157C2.51834 15.0453 2.81516 12.9029 4.02941 11.6773C4.83892 10.8603 3.49874 9.67105 2.68923 10.4881C0.368654 12.8393 0.368652 17.3057 1.02525 20.3197C1.73582 23.606 3.66963 26.5654 6.37698 28.5354C7.67218 29.4795 9.08432 30.1967 10.6134 30.6778C11.3509 30.9048 12.0975 31.0046 12.844 31.1771C13.8874 31.4131 13.8244 32.4934 14.2382 33.3195C16.0281 36.9054 21.128 34.4634 23.8083 33.6373C25.5353 33.1017 27.667 32.7748 29.205 31.7672C30.4822 30.932 30.7251 29.5975 30.4283 28.1722C30.2843 27.4823 29.9605 26.7016 30.2754 26.0117C30.5902 25.3217 31.2917 24.7226 31.7145 24.0871C32.5869 22.7708 33.1986 21.3001 33.5763 19.7568C35.1414 13.1661 31.9483 6.62081 26.4077 3.08034Z" fill="#1E1E1E"/>
<path d="M31.6246 33.3829C30.7521 32.82 29.7178 33.3284 28.8633 33.6643C27.622 34.1545 26.3538 34.563 25.0676 34.9352C23.6465 35.3438 22.2164 35.7069 20.7772 36.0609C19.536 36.3696 18.2768 36.6964 17.0085 36.3333C15.9022 36.0155 15.5424 37.7767 16.6398 38.0944C18.8794 38.739 21.3889 37.7676 23.5565 37.2048C24.8517 36.8689 26.138 36.5058 27.4062 36.0882C27.9908 35.8975 28.5755 35.6887 29.1601 35.4618C29.4479 35.3528 29.7358 35.2257 30.0236 35.1168C29.9066 35.1985 29.7897 35.2711 29.6728 35.3347C29.1331 35.6887 28.5665 35.9974 27.9818 36.2697C26.8215 36.8053 25.6163 37.2411 24.429 37.695C23.4216 38.0853 22.0185 38.4485 21.218 39.211C20.4624 39.9373 20.6513 41.0267 21.6407 41.3807C22.783 41.7892 24.1142 41.6258 25.2835 41.4806C26.7856 41.2899 28.2786 41.0811 29.7807 40.8814C30.914 40.7271 30.8241 38.9296 29.6818 39.0839C28.3596 39.2564 27.0284 39.438 25.7062 39.6105C25.1755 39.6831 24.6449 39.7557 24.1142 39.8011C24.0692 39.8011 24.0332 39.8011 23.9883 39.8011C24.5279 39.5742 25.0766 39.3654 25.6163 39.1566C26.7586 38.7208 27.9009 38.2851 28.9982 37.7495C29.9786 37.2683 31.1569 36.7146 31.8495 35.8249C32.4791 35.0623 32.5061 33.9457 31.6246 33.3829Z" fill="#1E1E1E"/>
<path d="M29.9965 41.6897C29.142 41.7533 28.2965 42.0347 27.595 42.5159C26.9384 42.9698 26.3177 43.7051 26.4167 44.5675C26.4707 45.0305 26.8574 45.4662 27.3521 45.4209C27.8018 45.3755 28.2516 44.976 28.1976 44.4767C28.1976 44.4586 28.1976 44.4313 28.1886 44.4132C28.1886 44.4041 28.1886 44.4041 28.1886 44.395C28.1976 44.3769 28.2066 44.3678 28.2156 44.3496C28.2516 44.3042 28.2965 44.2498 28.3325 44.2044C28.3325 44.2044 28.3505 44.1862 28.3685 44.1681C28.4315 44.1227 28.4854 44.0773 28.5484 44.0319C28.6743 43.9411 28.8182 43.8685 28.9531 43.7959C29.205 43.6869 29.4658 43.5962 29.7357 43.5326C29.8526 43.5144 29.9695 43.4963 30.0864 43.4872C30.5542 43.4509 30.9769 43.0333 30.9319 42.5431C30.887 42.062 30.5002 41.6534 29.9965 41.6897Z" fill="#1E1E1E"/>
<path d="M16.145 21.3911C14.2832 18.9945 11.9716 17.0154 9.3272 15.5539C8.31982 15.0001 7.52831 16.6069 8.52669 17.1607C10.8922 18.4679 12.997 20.2473 14.6609 22.3897C16.3249 24.523 17.854 27.1739 18.2318 29.8973C18.3937 31.0411 20.1746 30.9503 20.0127 29.7974C19.5809 26.7563 18.0069 23.7968 16.145 21.3911Z" fill="#1E1E1E"/>
<path d="M24.5098 8.45455C22.3061 14.664 22.0543 21.3999 23.8442 27.7546C24.159 28.8712 25.85 28.2993 25.5352 27.1827C23.8802 21.3273 24.0691 14.9999 26.1018 9.25343C26.4886 8.18221 24.8966 7.36518 24.5098 8.45455Z" fill="#1E1E1E"/>
<path d="M20.0394 9.55331C20.2372 10.0254 20.1653 10.5882 20.0124 11.0694C19.8775 11.496 19.6346 11.5959 19.2029 11.605C19.041 11.605 18.8881 11.5868 18.7262 11.5596C18.7531 10.4611 18.1955 9.27189 17.0622 9.05401C16.3876 8.92692 15.776 9.35359 15.6141 10.0072C15.4432 10.7062 15.785 11.5233 16.2257 12.0589C16.3156 12.1678 16.4236 12.2677 16.5225 12.3675C16.3966 12.4765 16.2617 12.5763 16.1088 12.6399C15.9379 12.7125 15.758 12.7306 15.5781 12.7216C15.5961 12.6308 15.6231 12.54 15.641 12.4401C15.8119 11.2237 15.0384 9.10848 13.4644 9.53515C12.0433 9.91644 12.0972 11.7956 12.6909 12.8214C12.7988 13.0121 12.9337 13.1755 13.0686 13.3298C12.8348 13.4841 12.5649 13.6021 12.3131 13.5114C11.8454 13.357 11.3507 12.767 11.1348 12.3494C10.9099 11.9227 10.2623 11.8501 9.89357 12.1043C9.46183 12.3948 9.42585 12.9213 9.65071 13.357C10.2893 14.5826 11.7824 15.6447 13.1766 15.2362C13.7252 15.0819 14.2379 14.7551 14.6517 14.3284C15.8929 14.6824 17.296 14.3284 18.1055 13.2572C18.8521 13.4751 19.6526 13.466 20.3542 13.1664C21.7933 12.5491 22.288 10.334 21.7123 8.96323C21.2896 7.92833 19.5986 8.49117 20.0394 9.55331Z" fill="#1E1E1E"/>
</svg>
