<svg width="51" height="55" viewBox="0 0 51 55" fill="none" xmlns="http://www.w3.org/2000/svg">
<path d="M28.4579 44.5748C27.8795 44.1651 27.5571 43.2899 27.301 42.6381C26.8175 41.4463 26.3434 40.2545 25.9262 39.0348C25.5185 37.8709 25.1582 36.6978 24.9022 35.4967C24.6462 34.3142 24.7031 32.9734 24.0583 31.9213C23.3472 30.7574 22.2094 30.2826 20.9957 29.7612C19.7062 29.2118 18.4261 28.6718 17.1366 28.1224C14.5671 27.0331 11.988 25.9344 9.41844 24.845C9.34259 24.8078 9.24781 24.7891 9.16247 24.7612C8.90646 24.5378 8.60302 24.3608 8.24271 24.2584C7.06697 23.9419 5.59728 24.6495 5.32231 25.8878C4.15605 31.2788 5.72058 36.9492 9.5038 41.0273C11.5329 43.2154 14.1973 44.6213 16.928 45.7852C20.0665 47.1073 23.2903 48.1502 26.6279 48.8299C29.3302 49.3792 30.6481 46.1018 28.4579 44.5748Z" fill="#F1C527"/>
<path d="M10.3732 24.4656C11.1215 24.2543 12.0605 24.5695 12.7712 24.7909C14.082 25.1828 15.3859 25.5827 16.6713 26.049C17.9047 26.4859 19.1114 26.9688 20.2654 27.5579C21.4042 28.1346 24.9328 30.0723 26.2473 30.2354C27.6999 30.4175 27.3204 29.043 28.6178 28.3732C29.9924 27.6585 30.4494 26.6904 31.824 25.9757C34.559 24.5479 37.3084 23.1184 40.0434 21.6907C40.1283 21.6519 40.2118 21.5848 40.2959 21.5319C40.6611 21.4666 41.0231 21.3303 41.366 21.0964C42.4707 20.3214 42.9614 18.6139 42.161 17.5541C38.6544 12.9662 33.8326 9.28582 26.7215 8.35469C23.4905 8.59326 20.6254 7.77257 17.7138 9.28577C14.3801 11.0353 8.73641 16.7345 6.36597 19.9934C3.97074 21.894 7.55909 25.282 10.3732 24.4656Z" fill="#59C69F"/>
<path d="M48.9469 27.8964C47.3919 23.2502 44.6896 18.7717 40.6977 15.5967C38.5549 13.8928 36.1275 12.6637 33.539 11.6395C30.8177 10.5595 27.6793 9.05111 24.683 9.99151C22.7961 10.5874 23.6021 13.4086 25.5079 12.8034C27.6698 12.1237 30.1824 13.4552 32.1452 14.228C34.1743 15.0287 36.1844 15.9598 37.9386 17.2354C39.3608 18.2689 40.6029 19.4979 41.7028 20.8387C36.0043 23.0081 30.704 25.9783 25.8872 29.6747C22.9099 27.766 19.3448 26.7232 16.0641 25.5035C12.8877 24.321 9.71132 23.0361 6.3927 22.3005C7.57792 20.3918 9.01916 18.6227 10.6121 16.984C12.2809 15.2708 14.0919 13.6786 15.9598 12.1703C17.5432 10.8854 19.7525 8.80903 22.0755 9.11629C22.9099 9.22802 23.7443 8.92076 23.9909 8.1014C24.19 7.42171 23.7443 6.41613 22.9004 6.3044C20.1697 5.94128 17.8941 6.99341 15.7796 8.5297C13.7884 9.9822 11.9016 11.5837 10.119 13.2503C6.59181 16.5464 3.51971 20.3173 1.69921 24.6934C-0.083362 28.9857 -0.576428 33.9671 1.09236 38.3711C2.64737 42.4493 5.74793 45.7081 9.46478 48.1941C13.3713 50.8105 18.0458 52.6633 22.7298 53.6037C27.7551 54.6186 32.9891 54.451 37.7299 52.4957C42.5277 50.5218 45.761 46.6112 48.1125 42.3469C49.3072 40.1867 50.0942 37.9242 50.2079 35.4754C50.3217 32.9056 49.7528 30.3172 48.9469 27.8964ZM13.779 47.2909C10.4793 45.5405 7.41671 43.2128 5.42554 40.1495C3.25421 36.8069 2.72327 32.8311 3.56715 29.023C3.88005 27.617 4.36358 26.2763 4.95145 24.9727C8.39334 25.6617 11.6646 26.9653 14.9358 28.1943C18.0553 29.3582 21.4213 30.3358 24.2658 32.1235C24.2658 32.1421 24.2658 32.1514 24.2658 32.1701C25.2235 38.9204 28.1155 45.1774 31.3013 51.1736C25.3373 51.8626 18.9086 50.0097 13.779 47.2909ZM46.4627 38.6132C45.7705 40.5778 44.5758 42.4213 43.3621 44.1346C42.1674 45.8198 40.7262 47.4027 38.9247 48.5479C37.4834 49.4697 35.9379 50.1308 34.3449 50.5777C31.2349 44.7863 28.3809 38.7901 27.281 32.2818C32.0124 28.5388 37.3601 25.5407 43.0492 23.4364C43.1819 23.3899 43.3052 23.3247 43.419 23.2502C44.0164 24.2186 44.5568 25.2241 45.0119 26.2483C46.7092 30.0751 47.8944 34.5536 46.4627 38.6132Z" fill="#1E1E1E"/>
</svg>
