<svg width="44" height="74" viewBox="0 0 44 74" fill="none" xmlns="http://www.w3.org/2000/svg">
<path d="M30.9259 61.377C32.1893 58.6842 32.099 55.1265 29.5994 53.1114C28.4173 52.1573 26.9826 51.551 25.5027 51.2032C23.8603 50.8198 21.9924 50.588 20.4313 51.3548C19.0597 52.0236 18.1483 53.3967 17.7783 54.8412C17.3903 56.3391 17.2008 58.2829 17.6339 59.7898C18.058 61.2521 19.0416 62.5272 19.9169 63.7577C20.8013 65.006 21.6946 66.2454 22.3624 67.6274C22.3804 67.6631 22.4075 67.6898 22.4255 67.7166C22.7504 68.5547 23.7069 69.2146 24.5732 69.1789C25.9178 69.1165 26.6758 68.1981 26.8292 66.9498C26.784 67.3243 26.8472 66.9498 26.8743 66.8874C26.9104 66.7804 26.9465 66.6734 26.9825 66.5753C27.0096 66.5218 27.0638 66.4237 27.0728 66.3969C27.154 66.2721 27.2262 66.1384 27.3074 66.0135C27.3706 65.9065 27.4428 65.8085 27.5149 65.7104C27.551 65.6658 27.6142 65.5855 27.6232 65.5677C27.8578 65.3002 28.1015 65.0327 28.3451 64.7652C29.04 64.0252 29.7348 63.2762 30.3033 62.4291C30.4838 62.2151 30.6281 61.9744 30.7274 61.7069C30.7996 61.5999 30.8718 61.4929 30.9259 61.377Z" fill="#F1C527"/>
<path d="M36.2046 33.4149C35.7534 33.0136 35.3113 32.7194 34.6796 32.6748C34.1201 32.6391 33.4253 32.8353 33.0192 33.2276C32.2161 33.9944 31.8913 35.537 32.8297 36.3751C32.8478 36.393 33.0012 36.5267 33.1095 36.6426C33.1456 36.705 33.1816 36.7675 33.2087 36.8299C33.2538 36.9101 33.2899 36.9993 33.326 37.0884C33.3621 37.2133 33.3982 37.3916 33.4072 37.4005C33.5877 38.1495 33.7863 38.9966 33.7682 39.7723C33.7682 39.8169 33.7682 39.8615 33.7682 39.8882C33.7772 40.1201 33.7772 40.3608 33.7772 40.5926C33.7682 41.0028 33.7501 41.413 33.714 41.8231C33.678 42.2333 33.6238 42.6345 33.5607 43.0447C33.5336 43.1962 33.5065 43.3567 33.4794 43.5083C33.4434 43.6421 33.4073 43.8026 33.3892 43.8472C33.1004 44.9796 33.5516 46.317 34.7879 46.6826C35.8707 47.0036 37.3507 46.5132 37.6575 45.3005C38.1899 43.1784 38.3703 41.083 38.1989 38.9074C38.0364 37.035 37.6845 34.7345 36.2046 33.4149Z" fill="#59C69F"/>
<path d="M15.2154 43.2497C15.1162 42.8663 15.0259 42.474 14.9447 42.0727C14.7462 40.869 14.6379 39.6385 14.6379 38.3813C14.656 37.7928 14.6921 37.1954 14.7552 36.6069C14.8996 35.3051 14.2138 33.9676 13.2212 33.9141C12.2376 33.8695 11.272 34.8058 11.1277 36.1967C10.7847 39.3532 11.0194 42.5007 11.7864 45.3986C12.1022 46.6023 13.2844 47.1819 14.1687 46.5666C15.1162 45.9246 15.5583 44.5337 15.2154 43.2497Z" fill="#59C69F"/>
<path d="M27.0637 15.8138C26.3147 14.1732 24.2753 13.1924 22.5337 13.9146C22.254 14.0305 22.0194 14.1554 21.8479 14.405C21.4779 14.4496 21.135 14.6636 20.8824 15.0024C19.9529 16.2953 19.3303 17.7755 19.592 19.3715C19.7093 20.1027 20.0522 20.7892 20.5575 21.3331C21.1531 21.9573 21.9652 22.2783 22.8135 22.3674C24.3655 22.5369 25.7552 21.6987 26.6215 20.4771C27.569 19.1397 27.7404 17.294 27.0637 15.8138ZM24.8258 18.4888C24.8167 18.5066 24.7897 18.5958 24.7716 18.6582C24.7626 18.6849 24.7446 18.7117 24.7446 18.7295C24.7085 18.7919 24.6814 18.8633 24.6363 18.9257C24.5731 19.0327 24.5099 19.1308 24.4468 19.2288C24.4377 19.2467 24.4377 19.2467 24.4287 19.2556C24.4017 19.2823 24.3746 19.3091 24.3655 19.318C24.2843 19.4072 24.2031 19.4874 24.1129 19.5677C24.1039 19.5766 24.0948 19.5855 24.0858 19.5944C24.0497 19.6212 24.0046 19.639 23.9775 19.6568C23.8963 19.7103 23.8151 19.746 23.7339 19.7906C23.6888 19.7995 23.6256 19.8262 23.5985 19.8352C23.5715 19.8441 23.4812 19.8797 23.391 19.8976C23.382 19.8976 23.3729 19.8976 23.3278 19.8976C23.2556 19.8976 23.1834 19.9065 23.1112 19.8976C23.0661 19.8976 23.03 19.8976 22.9849 19.8887C22.8856 19.8619 22.7774 19.8441 22.6781 19.8084C22.6691 19.8084 22.6601 19.7995 22.651 19.7995C22.642 19.7906 22.642 19.7906 22.624 19.7817C22.5788 19.7549 22.5247 19.7192 22.4796 19.6925C22.4706 19.6925 22.4705 19.6925 22.4705 19.6836C22.4705 19.6836 22.4705 19.6836 22.4615 19.6747C22.4254 19.6301 22.3803 19.5944 22.3352 19.5498C22.3262 19.5409 22.3172 19.532 22.3081 19.532C22.263 19.4696 22.2269 19.3983 22.1998 19.3537C22.1998 19.3448 22.1908 19.3358 22.1818 19.3358C22.2359 19.4072 22.1638 19.3091 22.1457 19.2556C22.1006 19.1308 22.0735 19.0148 22.0464 18.89C22.0464 18.8365 22.0374 18.7652 22.0284 18.7295C22.0194 18.6047 22.0284 18.4888 22.0374 18.3639C22.0555 18.2926 22.0825 18.1232 22.0825 18.1054C22.1186 17.9716 22.1547 17.8468 22.1998 17.722C22.2179 17.6774 22.2359 17.5793 22.272 17.5347C22.1186 17.7755 22.2811 17.5169 22.3081 17.4634C22.3713 17.3296 22.4435 17.1959 22.5247 17.0621C22.66 16.8214 22.8135 16.5985 22.9759 16.3756C23.0481 16.3666 23.1203 16.3488 23.2015 16.3221C23.3278 16.2686 23.4451 16.2418 23.5715 16.1972C23.5985 16.1883 23.6076 16.1883 23.6166 16.1794C23.6527 16.1794 23.6888 16.1794 23.7158 16.1794C23.779 16.1794 23.8422 16.1794 23.9144 16.1794C23.9234 16.1794 23.9234 16.1794 23.9234 16.1794C23.9775 16.1883 24.0497 16.2151 24.0587 16.2151C24.1129 16.2329 24.3204 16.3488 24.167 16.2418C24.0046 16.1348 24.2843 16.3131 24.3204 16.3399C24.3295 16.3488 24.3655 16.3666 24.3926 16.3845C24.4016 16.3934 24.4016 16.4023 24.4107 16.4112C24.4468 16.4469 24.528 16.5093 24.5911 16.5717C24.5911 16.5806 24.6002 16.5896 24.6182 16.6163C24.6543 16.6787 24.6994 16.7411 24.7355 16.8036C24.7626 16.8481 24.7806 16.8927 24.8077 16.9373C24.8438 17.0621 24.8889 17.178 24.916 17.3029C24.916 17.3207 24.925 17.3475 24.9341 17.3831C24.9341 17.4188 24.9431 17.4634 24.9431 17.4812C24.9521 17.6328 24.9431 17.7933 24.9431 17.9449C24.9431 17.9538 24.9431 17.9627 24.9431 17.9805C24.934 18.034 24.925 18.0786 24.916 18.1232C24.8979 18.2391 24.8619 18.3639 24.8258 18.4888Z" fill="#1E1E1E"/>
<path d="M35.3743 30.7844C35.3202 30.6596 35.2299 30.5615 35.1036 30.4723L34.8419 30.294L34.878 29.973C36.1233 19.291 32.595 8.70714 25.2135 0.940874C24.7984 0.503966 24.4996 0 24.0675 0H23.8058H23.5712C22.9996 0 22.7771 0.174055 22.2898 0.789294C15.1249 9.83954 11.4162 20.2183 11.8403 30.0176L11.8493 30.1513L11.7952 30.2672C9.34973 35.4388 8.49246 39.9773 9.19632 44.1413C9.31363 44.8546 9.81896 47.2442 11.3169 48.1983C11.9125 48.5817 12.5802 48.662 13.3653 48.4658C14.5925 48.1448 15.0257 47.0213 15.4769 45.8265L16.3973 43.4101L16.8395 43.4904C17.1643 43.5439 17.5072 43.5796 17.8411 43.6063C18.0667 43.6241 18.2833 43.6509 18.4998 43.6776C19.303 43.7757 20.097 43.8738 20.9002 43.963C24.4916 44.3464 27.4785 44.3285 30.312 43.9184C30.3481 43.9095 30.3751 43.9006 30.4112 43.8916L30.8354 43.749L31.079 44.1235C31.4399 44.7387 31.6745 45.4164 31.9092 46.0762C32.1438 46.736 32.3604 47.3512 32.6852 47.8951C33.0011 48.4212 33.5064 48.7333 34.0839 48.7333C34.6614 48.6887 35.2029 48.4212 35.5277 47.8862C36.0601 47.0124 36.3489 45.8265 36.6106 44.7744L36.6376 44.6674C37.7476 40.0754 37.3144 35.2694 35.3743 30.7844ZM12.6434 46.4061L12.0208 45.3985C11.8583 44.9884 11.7681 44.605 11.6869 44.2394L11.6688 44.1502C11.4793 43.2942 11.3801 42.3937 11.3711 41.4039C11.353 40.0486 11.5154 38.622 11.8583 37.1508L12.3456 35.0019L12.9051 37.1329C13.1848 38.1851 13.4646 39.1124 13.7804 39.9862C13.7894 40.0219 13.8075 40.0486 13.8255 40.0754L13.9158 40.334C14.0241 40.6906 14.1774 41.0829 14.3579 41.4574L14.4572 41.6625L12.6434 46.4061ZM28.8591 41.4396L28.7238 41.6982L28.435 41.7249C27.5958 41.8052 26.7295 41.8408 25.8001 41.8408C24.627 41.8408 23.3546 41.7784 21.9289 41.6536C20.6204 41.5377 19.321 41.3772 18.2201 41.2345C18.1208 41.2256 18.0216 41.2078 17.9133 41.181C17.7509 41.1543 17.5794 41.1186 17.4531 41.1275C17.3628 41.1275 17.2726 41.1275 17.1824 41.1097L17.0109 41.074L16.8936 40.9492C16.6229 40.6728 16.3341 39.8881 16.271 39.6563C16.2439 39.576 16.2168 39.5047 16.1807 39.4423C15.161 36.5979 14.5564 33.6377 14.3579 30.5793L14.3489 30.4812L14.385 30.3831C14.4933 30.0622 14.4752 29.7322 14.3489 29.4469L14.3038 29.2418C14.0962 20.5393 17.2906 11.3732 23.3095 3.42858L23.7065 2.9025L24.1487 3.39291C33.4883 13.8252 35.3833 29.1081 28.8591 41.4396ZM34.499 43.0178C34.49 43.0713 34.4719 43.1337 34.4629 43.1872L34.138 44.7655L33.4161 43.3834C33.0011 42.5185 32.5499 41.8765 31.9904 41.3683L31.7016 41.1097L31.8641 40.753C32.5228 39.3175 33.0732 37.8819 33.5154 36.4731L34.2102 34.2351L34.5622 36.5534C34.7246 37.5966 34.8058 38.5239 34.8058 39.3888C34.8148 40.6906 34.7156 41.8765 34.499 43.0178Z" fill="#1E1E1E"/>
<path d="M30.0417 54.2169L29.9966 54.0653C29.1484 50.9178 25.8998 49.8032 23.328 49.8032C23.2919 49.8032 23.2649 49.8032 23.2288 49.8032C20.3412 49.83 16.6595 51.007 14.954 54.2169C13.2304 57.4803 14.7284 61.0202 16.2353 63.7397C16.9933 65.1039 17.8686 66.4414 18.7169 67.7254C19.7456 69.2947 20.8194 70.9175 21.6857 72.6295C22.0015 73.2447 22.5249 73.2358 22.8137 73.1823C23.3371 73.0753 23.9146 72.6116 23.9507 71.9607C24.1402 68.9559 25.1599 66.1115 27.0819 63.2671L27.2083 63.0799C28.9228 60.5387 30.5471 58.1491 30.5019 55.1442C30.4929 54.7965 30.3756 54.5111 30.141 54.3061L30.0417 54.2169ZM28.0114 55.804C27.8129 57.9886 26.5495 59.8075 25.3313 61.5552C24.8892 62.1882 24.4741 62.7856 24.1131 63.392C23.4002 64.5779 22.8227 65.8797 22.3896 67.2617L22.0467 68.3585L20.8736 66.5662C20.4585 65.9421 20.0524 65.309 19.6463 64.6759L19.3666 64.239C18.0942 62.2507 16.506 59.7719 16.5692 57.3287C16.6414 54.636 19.0869 52.9151 21.4872 52.3979C22.6242 52.1572 25.1689 51.9699 26.6578 53.031C27.2714 53.4679 27.6414 54.0742 27.7226 54.7965C27.7497 55.0461 27.8309 55.278 27.9482 55.483L28.0385 55.6346L28.0114 55.804Z" fill="#1E1E1E"/>
<path d="M7.112 30.0711C6.32693 29.8928 5.73136 30.3118 5.4426 31.0073C4.41388 33.5039 3.89954 36.1967 3.89954 38.8895C3.89954 39.585 4.52218 40.2626 5.2531 40.227C5.98403 40.1913 6.60667 39.6385 6.60667 38.8895C6.60667 38.2297 6.63375 37.5788 6.69691 36.9279C6.71496 36.7852 6.72397 36.6515 6.74202 36.5088C6.75105 36.4464 6.75105 36.4196 6.75105 36.4018C6.75105 36.3929 6.76007 36.3661 6.76909 36.3037C6.82324 35.9827 6.87738 35.6528 6.94055 35.3318C7.19321 34.0924 7.5632 32.8798 8.05048 31.7117C8.3212 31.0697 7.76171 30.2227 7.112 30.0711Z" fill="#1E1E1E"/>
<path d="M3.75545 28.8227C3.74643 28.6444 3.69229 28.475 3.59303 28.3234L3.38548 28.0559C3.21402 27.8865 3.0155 27.7795 2.7899 27.7082C2.67259 27.6903 2.54627 27.6725 2.42896 27.6636C2.18532 27.6636 1.95971 27.726 1.74314 27.8419C1.58071 27.9667 1.40024 28.0826 1.26488 28.2342C1.1566 28.3501 1.06637 28.4839 0.967109 28.6087C0.940038 28.6444 0.91297 28.689 0.885899 28.7336C0.858827 28.7781 0.840764 28.8227 0.813693 28.8584C0.741503 29.001 0.687368 29.1437 0.624201 29.2953C0.588106 29.3934 0.561038 29.4825 0.54299 29.5895C0.488848 29.7679 0.479825 29.9462 0.51592 30.1245C0.524944 30.3029 0.57908 30.4723 0.678342 30.6238C0.759556 30.7754 0.87685 30.9092 1.03025 30.9983C1.15659 31.1143 1.31 31.1945 1.49048 31.2391C1.60779 31.2569 1.73411 31.2748 1.85142 31.2837C2.09506 31.2837 2.32067 31.2213 2.53724 31.1053C2.62748 31.034 2.7177 30.9627 2.80794 30.9003C2.97939 30.7308 3.08769 30.5347 3.15988 30.3118C3.16891 30.2494 3.19597 30.1959 3.20499 30.1424C3.21401 30.1334 3.22305 30.1156 3.22305 30.1067C3.26817 30.0621 3.30426 30.0175 3.35841 29.9729C3.32231 29.9997 3.29522 30.0264 3.25913 30.0443C3.26815 30.0264 3.27718 30.0086 3.2862 29.9997C3.35839 29.9373 3.43961 29.8927 3.48472 29.8214C3.60203 29.6965 3.68327 29.545 3.72838 29.3666C3.79155 29.1705 3.80057 28.9921 3.75545 28.8227Z" fill="#F1C527"/>
<path d="M38.3071 10.5259C38.0725 9.8661 37.3686 9.35786 36.6377 9.58968C35.9789 9.80368 35.4465 10.5259 35.6902 11.2392C36.6286 13.9053 37.0618 16.4643 37.0437 19.2462C37.0437 19.9417 37.6664 20.6194 38.3973 20.5837C39.1373 20.5481 39.7509 19.9952 39.7509 19.2462C39.7779 16.286 39.2907 13.3168 38.3071 10.5259Z" fill="#1E1E1E"/>
<path d="M43.6944 12.675C43.6402 12.5055 43.55 12.3629 43.4146 12.247C43.2883 12.1132 43.1439 12.0241 42.9815 11.9706C42.8191 11.8903 42.6476 11.8457 42.4581 11.8546C42.3408 11.8725 42.2145 11.8903 42.0972 11.8992C41.8716 11.9616 41.673 12.0776 41.5016 12.247L41.2941 12.5145C41.1677 12.7195 41.1136 12.9514 41.1136 13.1921V13.5399C41.1045 13.7271 41.1497 13.8965 41.2309 14.057C41.285 14.2264 41.3753 14.3691 41.5106 14.485C41.6369 14.6188 41.7813 14.7079 41.9438 14.7614C42.1062 14.8417 42.2776 14.8862 42.4671 14.8773C42.5844 14.8595 42.7108 14.8417 42.8281 14.8327C43.0537 14.7703 43.2522 14.6544 43.4237 14.485L43.6312 14.2175C43.7575 14.0124 43.8117 13.7806 43.8117 13.5399V13.1921C43.8207 13.0049 43.7846 12.8355 43.6944 12.675Z" fill="#F1C527"/>
</svg>
