<svg width="189" height="15" viewBox="0 0 189 15" fill="none" xmlns="http://www.w3.org/2000/svg">
<path d="M188.265 10.7507C186.098 8.65161 183.786 6.7243 181.62 4.6252C179.458 2.69292 177.926 1.74169 175.421 3.66125C173.357 5.23224 170.857 7.31862 169.263 9.54199C169.113 9.54696 169.108 9.38014 168.957 9.38511C168.638 8.72776 167.872 8.25215 167.407 7.76659C166.321 6.63363 165.386 5.4957 164.305 4.52956C162.599 2.74919 160.752 1.30743 158.379 2.55473C156 3.6352 154.571 6.35407 152.667 8.25374C152.522 8.42553 152.376 8.59732 152.23 8.76912C152.672 8.42056 152.512 8.09188 151.911 8.11177C151.446 7.62621 150.689 7.48424 150.078 7.17048C149.006 6.53799 147.935 5.90549 146.863 5.273C144.415 3.85113 142.107 2.09064 139.8 0.330157C139.029 -0.312279 137.685 0.0661037 137.102 0.753278C136.091 2.28948 135.076 3.65885 134.065 5.19505C133.487 6.04905 132.909 6.90305 132.331 7.75704C132.185 7.92884 132.039 8.10063 131.898 8.43925C131.752 8.61104 131.752 8.61104 131.752 8.61104C130.38 7.98849 129.139 6.69367 127.908 5.7325C126.526 4.77631 125.14 3.65329 123.608 2.70206C120.995 0.784691 118.41 -0.13174 115.618 2.29822C113.564 4.20286 111.66 6.10253 109.606 8.00717C107.914 6.72727 106.227 5.61419 104.385 4.33926C102.698 3.22618 100.997 1.61264 98.905 2.1827C96.9638 2.74779 95.2151 4.80931 93.5982 6.19857C92.7145 6.89568 91.8308 7.5928 91.0975 8.28494C90.2138 8.98206 89.6122 9.00194 88.5454 8.53627C85.0394 6.98237 82.2433 3.90222 78.3188 3.53099C74.244 3.16474 71.4706 6.26199 68.3777 8.7019C67.3483 9.57081 67.494 9.39901 66.4178 8.5997C65.4967 7.96223 64.726 7.31979 63.8048 6.68233C61.9626 5.4074 60.1204 4.13247 58.0007 3.70159C55.8857 3.43754 54.109 4.49812 52.1819 5.56368C51.1431 6.09894 50.1044 6.63421 49.0656 7.16947C48.0268 7.70474 46.4052 8.92717 45.0563 9.13873C43.2514 9.19838 40.944 7.4379 39.4072 6.31985C37.7154 5.03995 36.3056 3.08281 34.186 2.65194C32.2167 2.21609 30.2849 3.11482 28.8183 4.49911C27.2014 5.88837 25.7582 8.10678 23.6339 7.50908C21.5142 7.0782 19.8084 5.29783 17.9708 4.18972C15.9782 2.91976 13.8445 1.98842 11.4287 1.73431C7.04838 1.21117 2.58784 3.19535 0.30309 7.61227C-1.12137 10.498 2.85924 12.8711 4.28369 9.98537C6.28167 6.07886 10.6433 5.9347 14.0036 7.66039C17.3639 9.38608 20.1646 12.6331 24.0797 12.6706C25.8892 12.7778 27.5202 11.889 28.9962 10.8384C30.1713 9.79767 32.202 7.05892 33.7341 8.01014C35.2615 8.79455 36.6666 10.5849 38.2033 11.7029C39.8905 12.816 41.8785 13.9191 43.6926 14.1931C45.6572 14.4621 47.2882 13.5734 49.0696 12.6796C51.2975 11.6041 53.5114 10.0281 55.744 9.11945C57.6805 8.38754 59.5368 10.1629 61.0689 11.1142C62.6057 12.2322 64.3162 14.1794 66.2808 14.4484C69.7634 15.1682 72.49 10.4027 75.3101 8.97371C78.5768 7.36294 81.8288 10.595 84.5828 12.1738C86.27 13.2868 88.2533 14.2232 90.1991 13.8249C92.2954 13.4216 94.0487 11.5269 95.6657 10.1377C96.5494 9.44057 97.8609 7.89443 98.9043 7.52599C99.0547 7.52102 99.3415 7.01061 99.3415 7.01061C99.6423 7.00067 100.723 7.96681 101.029 8.12369C103.181 9.72232 105.484 11.316 107.636 12.9146C107.636 12.9146 107.787 12.9096 107.791 13.0765C108.562 13.7189 109.77 13.846 110.644 12.8152C111.965 11.6027 113.136 10.3952 114.456 9.18269C115.039 8.49551 115.777 7.97019 116.36 7.28302C116.802 6.93446 117.672 5.73688 118.269 5.55017C119.467 5.34358 121.638 7.60951 122.559 8.24697C123.941 9.20317 125.172 10.1643 126.554 11.1205C128.706 12.7192 131.333 15.137 133.674 12.722C134.845 11.5144 135.7 9.81638 136.565 8.45197C137.143 7.59798 137.867 6.57219 138.446 5.71819C142.29 8.59672 146.275 11.1366 150.542 12.9993C153.132 14.0826 154.589 12.3647 156.343 10.47C157.217 9.43919 158.082 8.07479 159.116 7.3727C160 6.67558 159.407 7.02911 160.173 7.50473C160.634 7.82346 161.259 8.63769 161.724 9.12324C162.81 10.2562 163.745 11.3941 164.826 12.3603C165.601 13.1695 166.536 14.3075 167.603 14.7731C170.038 15.6945 171.481 13.4761 173.093 11.9201C174.118 10.8843 175.143 9.8486 176.318 8.80789C176.318 8.80789 177.201 8.11078 177.643 7.76222C177.798 7.92407 177.953 8.08592 178.109 8.24778C180.275 10.3469 182.587 12.2742 184.754 14.3733C187.371 16.4575 190.431 12.8498 188.265 10.7507Z" fill="#59C69F"/>
</svg>
