<svg width="161" height="161" viewBox="0 0 161 161" fill="none" xmlns="http://www.w3.org/2000/svg">
<path d="M42.19 109.13C42.64 104.95 38.88 102.62 35.78 104.27C35.58 103.79 35.35 103.32 35.06 102.87C32.94 99.61 28.02 100.1 26.87 103.96C26.8 104.18 26.74 104.4 26.67 104.62C26.65 104.7 26.63 104.78 26.61 104.86C24.58 104.49 22.42 105.39 21.86 108.05C21.28 110.78 18.57 111.68 18.88 114.89C19.03 116.46 19.62 117.68 20.77 118.76C20.86 118.84 20.95 118.9 21.04 118.98C20.27 121.37 21.05 124.58 23.93 125.11C25.2 125.34 26.27 125.49 27.55 125.17C27.58 125.16 27.62 125.15 27.65 125.15C28.46 126.4 29.55 127.27 31.64 127.23C32.91 127.21 34.24 126.58 35.21 125.72C36.43 126.16 37.82 126.12 38.9 125.38C41.31 123.72 42.36 120.91 41.42 118.23C42.64 117.76 43.56 116.78 44.34 115.65C45.85 113.46 44.54 110.06 42.19 109.13ZM35.43 115.23C35.27 115.78 34.96 116.26 34.6 116.69C34.01 117.41 32.99 117.88 32.06 117.82C31.15 117.75 30.27 117.37 29.66 116.67C29.03 115.95 28.61 114.99 28.69 114.01C28.74 113.33 28.96 112.7 29.3 112.14C29.39 111.63 29.57 111.14 29.81 110.72C30.41 109.68 31.65 109.02 32.83 109.42C33.74 109.72 34.43 110.45 34.85 111.3C35.27 112.15 35.52 113.05 35.57 114C35.58 114.41 35.54 114.84 35.43 115.23Z" fill="#F7C300"/>
<path d="M146.16 84.17C146.1 83.87 146.02 83.58 145.94 83.28C145.12 70.88 125.05 63.54 118.35 75.08C110.74 88.19 122.18 103.52 136.68 98C142.28 95.87 147.4 90.73 146.16 84.17Z" fill="#F7C300"/>
<path d="M122.29 124.78C121.78 124.66 121.34 124.78 121 125.06C120.76 125.17 120.54 125.37 120.37 125.66C117.18 131.19 113.12 136.36 107.94 140.09C102.03 144.35 94.8599 146.41 87.6799 146.92C85.7699 147.06 85.7599 150.09 87.6799 149.95C95.3599 149.4 103.11 147.28 109.45 142.71C113.05 140.11 116.16 136.92 118.84 133.39C118.82 133.74 118.79 134.1 118.78 134.45C118.77 135.24 119.47 136 120.27 135.97C121.08 135.93 121.76 135.3 121.76 134.45C121.77 132.95 121.87 131.92 122.14 130.59C122.41 129.24 122.81 127.92 123.32 126.64C123.63 125.91 123.01 124.95 122.29 124.78Z" fill="#59C69F"/>
<path d="M115.9 130.39C115.89 130.19 115.83 130 115.72 129.83C115.51 129.51 115.21 129.22 114.83 129.13C114.43 129.04 114.04 129.08 113.68 129.28C112.89 129.73 112.14 130.28 111.45 130.87C111.3 131.01 111.2 131.17 111.14 131.36C111.05 131.54 111 131.74 111.01 131.94C111 132.15 111.05 132.34 111.14 132.52C111.2 132.71 111.3 132.87 111.45 133.01C111.73 133.28 112.11 133.47 112.51 133.45C112.64 133.43 112.77 133.41 112.91 133.4C113.16 133.33 113.38 133.2 113.57 133.01C113.64 132.95 113.71 132.9 113.78 132.84C114.23 132.49 114.7 132.17 115.2 131.89C115.37 131.79 115.51 131.66 115.62 131.5C115.75 131.35 115.84 131.18 115.89 130.98C115.93 130.8 115.94 130.6 115.9 130.39Z" fill="#59C69F"/>
<path d="M88.2499 24.42C88.4799 24.79 88.7999 24.97 89.1499 25.01C89.3499 25.09 89.5899 25.1 89.8599 25.03C94.8299 23.72 100.08 23.12 105.18 23.99C110.99 24.99 116.28 28 120.7 31.89C121.87 32.93 123.6 31.19 122.42 30.15C117.69 25.98 112.03 22.68 105.8 21.6C102.26 20.99 98.6599 21.01 95.1199 21.47C95.3299 21.28 95.5499 21.1 95.7499 20.89C96.1999 20.44 96.2299 19.6 95.7499 19.15C95.2599 18.7 94.5199 18.66 94.0299 19.15C93.1799 20 92.5299 20.54 91.6299 21.14C90.7099 21.76 89.7299 22.28 88.7099 22.72C88.1199 22.99 87.9299 23.9 88.2499 24.42Z" fill="#59C69F"/>
<path d="M95.1101 24.92C95.0001 25.04 94.9301 25.1801 94.8901 25.3501C94.8301 25.6601 94.8401 26.0001 95.0101 26.2701C95.1901 26.5501 95.4401 26.7601 95.7601 26.85C96.4701 27.0601 97.2101 27.17 97.9401 27.24C98.1001 27.25 98.2501 27.21 98.3901 27.14C98.5501 27.09 98.6801 27 98.7901 26.88C98.9101 26.76 99.0001 26.63 99.0501 26.47C99.1201 26.33 99.1501 26.17 99.1501 26.01C99.1401 25.69 99.0301 25.36 98.7901 25.14C98.7001 25.07 98.6201 25.0101 98.5301 24.9401C98.3401 24.8301 98.1401 24.7801 97.9301 24.7801C97.8601 24.7701 97.7901 24.76 97.7101 24.76C97.2501 24.7 96.8001 24.6 96.3601 24.48C96.2101 24.43 96.0501 24.43 95.9001 24.46C95.7401 24.47 95.5901 24.5101 95.4501 24.6001C95.3101 24.6701 95.1901 24.78 95.1101 24.92Z" fill="#59C69F"/>
<path d="M44.4499 85.03C43.9099 82.35 43.7999 79.56 44.1699 76.84C44.2799 76.03 43.9799 75.2101 43.1299 74.9801C42.4299 74.7901 41.3999 75.2201 41.2899 76.0401C41.1299 77.2001 41.0599 78.3601 41.0399 79.5101C38.9799 75.3601 37.9299 70.7201 38.1699 66.0401C38.2699 64.0901 35.2799 64.1001 35.1799 66.0401C34.7899 73.4801 37.4599 80.6901 41.9499 86.5C42.9499 87.8 44.7099 86.35 44.4499 85.03Z" fill="#59C69F"/>
<path d="M38.18 81.49C37.72 80.86 37.26 80.24 36.79 79.61C36.7 79.43 36.57 79.29 36.41 79.18C36.27 79.05 36.1 78.96 35.9 78.91C35.7 78.85 35.5 78.84 35.3 78.88C35.1 78.89 34.92 78.95 34.74 79.06C34.42 79.27 34.14 79.58 34.05 79.97C34.03 80.1 34.01 80.24 34 80.37C34 80.64 34.07 80.9 34.2 81.14C34.66 81.77 35.12 82.39 35.59 83.02C35.68 83.2 35.81 83.34 35.97 83.45C36.11 83.58 36.28 83.67 36.48 83.72C36.68 83.78 36.88 83.79 37.08 83.75C37.28 83.74 37.46 83.68 37.64 83.57C37.96 83.36 38.24 83.05 38.33 82.66C38.35 82.53 38.37 82.39 38.38 82.26C38.39 81.98 38.32 81.73 38.18 81.49Z" fill="#59C69F"/>
<path d="M65.85 3.24003C48.95 1.94003 32.05 0.70003 15.1 1.06003C9.33996 1.18003 9.31996 10.28 15.1 10.15C32.06 9.80003 48.96 11.03 65.85 12.33C71.61 12.78 71.58 3.68003 65.85 3.24003Z" fill="#F7C300"/>
<path d="M26.84 148.83L26.83 148.79C26.51 148.11 26.21 147.41 25.92 146.7C25.64 146.03 25.37 145.35 25.09 144.64C25.53 144.4 25.84 144.15 26.02 143.9C26.24 143.6 26.27 143.24 26.12 142.83C25.98 142.49 25.72 142.29 25.34 142.24C25.01 142.19 24.71 142.17 24.4 142.2C24.34 142.22 24.28 142.24 24.23 142.25C24.21 142.25 24.19 142.26 24.17 142.26C23.75 141.07 23.33 139.85 22.92 138.61C22.5 137.35 22.14 136.11 21.82 134.91C21.63 134.47 21.48 134.15 21.35 133.93C21.22 133.7 21.11 133.52 21.01 133.4C20.9 133.25 20.79 133.17 20.67 133.13C20.58 133.1 20.49 133.09 20.4 133.09C20.21 133.08 20.03 133.13 19.85 133.21C19.71 133.27 19.58 133.34 19.47 133.42C19.35 133.39 19.21 133.39 19.07 133.42C18.88 133.46 18.71 133.6 18.57 133.83C17.87 135.01 17.18 136.35 16.51 137.81C15.84 139.27 15.22 140.79 14.66 142.33C14.09 143.88 13.59 145.45 13.17 146.99C12.74 148.54 12.43 150.04 12.23 151.44C12.17 151.88 12.28 152.26 12.54 152.55C12.73 152.77 12.98 152.87 13.29 152.87C13.42 152.87 13.55 152.85 13.7 152.81C13.95 152.75 14.18 152.55 14.4 152.2C14.59 151.88 14.75 151.5 14.87 151.1V151.09C15.08 150.25 15.31 149.39 15.56 148.53C15.8 147.71 16.04 146.88 16.29 146.04C17.35 146 18.45 145.92 19.56 145.79C20.64 145.67 21.66 145.52 22.61 145.35C22.92 146.12 23.24 146.87 23.57 147.61C23.91 148.38 24.28 149.17 24.68 149.95C24.75 150.1 24.85 150.26 24.98 150.45C25.11 150.63 25.26 150.81 25.43 150.97C25.6 151.13 25.78 151.27 25.96 151.37C26.18 151.49 26.39 151.5 26.61 151.41C26.79 151.32 26.92 151.14 26.98 150.88C27.03 150.66 27.05 150.41 27.04 150.15C27.03 149.9 27 149.64 26.96 149.39L26.84 148.83ZM21.63 142.88C20.05 143.18 18.54 143.35 17.13 143.39C17.86 141.22 18.72 139.02 19.68 136.84C20.25 138.92 20.9 140.95 21.63 142.88Z" fill="#1E1E1E"/>
<path d="M38.4599 133.63C37.5499 133.17 36.5699 132.91 35.5199 132.84C34.4899 132.78 33.4399 132.86 32.4199 133.08C31.3999 133.31 30.5199 133.6 29.8099 133.95C29.2699 134.25 28.7499 134.63 28.2699 135.06C27.7699 135.51 27.4799 136.04 27.4299 136.63C27.4299 136.8 27.4799 136.97 27.5899 137.14C27.6999 137.31 27.8599 137.44 28.0799 137.52C28.2899 137.6 28.5399 137.62 28.8199 137.57C29.0999 137.52 29.3999 137.37 29.7099 137.13C30.7299 136.47 31.8099 136 32.9199 135.72C34.0199 135.45 35.2799 135.47 36.6699 135.8C37.2599 135.96 37.6899 136.2 37.9699 136.5C38.2499 136.81 38.3999 137.13 38.4399 137.5C38.4999 137.98 38.4299 138.45 38.2299 138.9C38.0299 139.36 37.7299 139.81 37.3599 140.24C36.9899 140.67 36.5499 141.07 36.0499 141.43C35.6099 141.75 35.1599 142.04 34.6899 142.3C34.6499 141.78 34.5999 141.27 34.5499 140.79C34.4899 140.23 34.4199 139.71 34.3499 139.22C34.2799 139 34.1699 138.76 34.0299 138.52C33.8799 138.27 33.7099 138.05 33.5299 137.85C33.3299 137.65 33.1299 137.49 32.9199 137.39C32.6799 137.27 32.4599 137.26 32.2199 137.36C32.0399 137.49 31.9099 137.63 31.8199 137.78C31.7499 137.91 31.6899 138.02 31.6399 138.13C31.5799 138.27 31.5599 138.39 31.5599 138.53C31.8599 140.61 32.0899 142.74 32.2199 144.85C32.3499 146.95 32.3999 149.04 32.3599 151.06C32.3599 151.3 32.5099 151.57 32.8299 151.88C33.1399 152.19 33.5199 152.36 33.9399 152.39C33.9699 152.39 33.9999 152.39 34.0299 152.39C34.2999 152.39 34.5199 152.26 34.6599 152.01C34.7999 151.77 34.8799 151.51 34.9099 151.23V151.22C34.9399 150.37 34.9499 149.45 34.9499 148.48C34.9499 147.54 34.9299 146.55 34.8899 145.55C35.6599 145.01 36.4599 144.44 37.2499 143.85C38.1099 143.21 38.8699 142.49 39.5099 141.72C40.1499 140.94 40.5999 140.06 40.8499 139.11C41.1099 138.15 41.0099 137.05 40.5699 135.84C40.0999 134.84 39.3899 134.09 38.4599 133.63Z" fill="#1E1E1E"/>
<path d="M47.9301 146.64C47.7501 145.32 47.6001 143.97 47.4901 142.57C47.3801 141.18 47.3101 139.79 47.2701 138.41C47.2401 137.03 47.2401 135.74 47.2801 134.53C47.2901 133.99 47.1701 133.59 46.9301 133.35C46.6901 133.1 46.3801 132.98 45.9901 132.98C45.6601 132.98 45.4101 133.09 45.2301 133.31C45.0501 133.54 44.9001 133.81 44.7801 134.12C44.6601 134.44 44.5701 134.76 44.5301 135.09C44.4801 135.42 44.4601 135.7 44.4601 135.91C44.4201 137.15 44.4201 138.44 44.4501 139.77C44.4901 141.1 44.5601 142.41 44.6701 143.7C44.7801 144.99 44.9301 146.22 45.1101 147.4C45.3001 148.58 45.5001 149.63 45.7401 150.54C46.1801 151.24 46.7301 151.81 47.3901 152.23C47.6901 152.23 47.9201 152.15 48.0801 151.99C48.2501 151.83 48.3701 151.63 48.4601 151.4C48.5501 151.17 48.6001 150.95 48.6001 150.72C48.6001 150.49 48.5901 150.32 48.5601 150.2C48.3201 149.15 48.1101 147.96 47.9301 146.64Z" fill="#1E1E1E"/>
<path d="M156.45 70.02C156.42 68.48 156.31 66.94 156.08 65.42C155.87 63.98 155.68 62.47 155.04 61.12C153.78 58.46 150.69 57.75 147.63 57.47C143.94 57.13 140.21 57.01 136.5 57.03C129.04 57.07 121.61 57.71 114.21 58.45C112.36 58.64 110.51 58.83 108.66 59.03C107.73 59.13 106.92 59.64 106.92 60.51C106.92 60.6 106.93 60.7 106.96 60.79C106.64 60.96 106.38 61.24 106.27 61.65C104.63 67.75 105.13 74.01 105.53 80.2C105.95 86.54 106.42 92.88 106.96 99.22C107.23 102.45 107.52 105.68 107.83 108.9C107.95 110.2 107.75 112 108.57 113.14C109.43 114.34 111.57 114.45 113.03 114.67C120.04 115.69 127.14 115.18 134.2 115.02C137.73 114.94 141.27 114.97 144.78 115.34C147.6 115.64 150.72 116.01 153.13 114.4C155.56 112.78 155.82 110.05 155.69 107.61C155.52 104.48 155.27 101.35 155.11 98.22C154.81 91.92 155.26 85.75 155.91 79.48C156.24 76.34 156.52 73.18 156.45 70.02ZM152.92 73.41C152.73 77.6 152.14 81.76 151.78 85.93C151.41 90.21 151.44 94.49 151.66 98.77C151.77 100.83 151.91 102.88 152.04 104.94C152.15 106.69 152.53 108.65 152.08 110.39C151.14 113.96 145.55 112.39 142.56 112.18C137.26 111.82 131.94 112.14 126.64 112.28C123.93 112.35 121.22 112.37 118.51 112.23C117.19 112.16 115.86 112.06 114.56 111.89C113.72 111.78 112.4 111.73 111.51 111.42C111.39 110.99 111.45 110.38 111.42 110C111.34 109.15 111.26 108.3 111.18 107.44C111.03 105.8 110.88 104.15 110.73 102.51C110.44 99.22 110.17 95.93 109.91 92.64C109.4 86.17 108.82 79.68 108.63 73.19C108.53 69.58 108.68 65.97 109.63 62.45C109.68 62.25 109.69 62.07 109.66 61.9C119.35 60.88 129.09 59.9 138.87 60.01C141.37 60.04 143.87 60.14 146.36 60.33C147.96 60.45 150.37 60.46 151.46 61.65C152.07 62.31 152.2 63.26 152.36 64.06C152.58 65.1 152.72 66.14 152.82 67.19C153.01 69.26 153.02 71.33 152.92 73.41Z" fill="#1E1E1E"/>
<path d="M137.98 74.25C134.96 72.82 131.58 72.31 128.27 72.55C125.09 72.78 121.37 73.4 119.15 75.97C116.96 78.5 116.43 81.97 116.11 85.21C115.76 88.76 116.11 92.46 118.22 95.42C120.32 98.37 123.44 100.36 126.82 101.49C130.27 102.64 134.39 102.87 137.48 100.67C139.13 99.49 137.56 96.71 135.89 97.9C131.92 100.72 125.74 98.43 122.46 95.44C120.55 93.7 119.37 91.46 119.18 88.84C118.99 86.24 119.3 83.41 120.05 80.91C120.81 78.36 122.41 76.91 124.95 76.27C127.41 75.65 130.09 75.49 132.6 75.89C137.23 76.64 141.43 79.57 142.31 84.48C142.51 85.62 142.48 86.81 142.16 87.93C141.87 88.96 141.25 90.39 140.15 90.75C139.02 91.12 137.81 89.4 137.29 88.59C137.08 88.27 136.9 87.93 136.74 87.58C136.64 86.48 136.35 85.37 135.95 84.34C135.97 84.23 135.97 84.12 135.96 84.01C135.64 81.21 133.28 79.05 130.44 79.15C127.69 79.25 125.41 81.49 124.7 84.1C123.24 89.49 129.08 98.18 134.68 93.33C135.17 92.9 135.56 92.43 135.87 91.92C136.36 92.44 136.9 92.91 137.51 93.3C140.84 95.4 143.96 92.39 145.05 89.29C147.11 83.38 143.31 76.78 137.98 74.25ZM132.3 91.17C130.41 92.47 128.71 89.99 128.07 88.45C127.3 86.59 127.38 84.21 129.09 82.92C130.21 82.07 132.58 82.28 132.78 84.04C132.78 84.08 132.79 84.12 132.8 84.15C132.76 84.29 132.74 84.45 132.75 84.61C132.85 85.89 133.15 87.2 133.64 88.44C133.62 89.51 133.26 90.51 132.3 91.17Z" fill="#1E1E1E"/>
<path d="M83.33 52.6901C72.01 52.6201 60.7 52.2001 49.41 51.4301C46.85 51.2601 46.86 55.3001 49.41 55.4701C59.83 56.1801 70.28 56.5801 80.72 56.6901C80.7 56.9301 80.69 57.1701 80.66 57.4101C80.59 57.8701 80.5 58.3201 80.39 58.7801C60.77 58.2401 41.15 57.7001 21.52 57.1601C18.62 57.0801 15.72 57.0001 12.82 56.9201C11.41 56.8801 10 56.8401 8.6 56.8001C7.94 56.7801 7.27 56.7601 6.61 56.7501C6.3 56.7401 5.9 56.7801 5.56 56.7201C5.4 56.1801 5.39 55.5301 5.32 55.0001C5.28 54.6901 5.25 54.3701 5.21 54.0601C5.27 54.0101 5.33 53.9701 5.39 53.9201C15.49 53.5701 25.56 54.0301 35.61 55.1701C36.68 55.2901 37.6 54.1501 37.6 53.1501C37.6 51.9601 36.68 51.2501 35.61 51.1301C24.92 49.9101 14.19 49.4601 3.44 49.9501C3.23 49.9601 3.03999 50.0001 2.86999 50.0601C1.91 50.1301 0.889995 51.0201 0.999995 52.0701C1.15 53.4901 1.32 54.9101 1.52 56.3301C1.71 57.6701 1.86 58.9701 2.90999 59.9001C3.80999 60.7001 4.99 60.7401 6.12 60.7801C7.60999 60.8201 9.1 60.8601 10.59 60.9001L28 61.3801C39.51 61.7001 51.03 62.0101 62.54 62.3301L80.37 62.8201C80.61 63.0401 80.89 63.2201 81.18 63.2901C81.69 63.4101 82.26 63.3801 82.71 63.0901C82.93 62.9401 83.11 62.7701 83.25 62.5801C83.9 62.1601 84.17 61.3401 84.06 60.5601C84.48 59.1201 84.7 57.6201 84.75 56.1201C85.74 55.0001 85.27 52.7001 83.33 52.6901Z" fill="#1E1E1E"/>
<path d="M2.88994 8.51004C3.77994 21.23 3.87994 34 3.16994 46.73C3.02994 49.33 7.00994 49.32 7.14994 46.73C7.85994 33.98 7.75994 21.2 6.86994 8.46004C25.6299 7.12004 44.5799 7.30004 63.2699 9.37004C68.7599 9.98004 74.2099 10.88 79.5499 12.29C79.5799 12.3 79.6099 12.3 79.6399 12.3C78.7599 17.88 78.6299 23.53 78.5899 29.18C78.5499 35.62 78.5099 42.06 78.4599 48.5C78.4399 51.1 82.4299 51.1 82.4399 48.5C82.4799 42.22 82.5199 35.94 82.5599 29.66C82.5999 23.67 82.6499 17.63 83.7399 11.72C84.0099 10.25 82.8499 9.28004 81.7299 9.20004C81.4999 8.83004 81.1399 8.53004 80.5999 8.38004C70.9899 5.83004 61.0199 4.92004 51.1399 4.27004C41.1199 3.62004 31.0499 3.43004 20.9899 3.70004C15.2599 3.86004 9.53994 4.17004 3.83994 4.63004C1.65994 4.81004 1.33994 7.78004 2.88994 8.51004Z" fill="#1E1E1E"/>
<path d="M12.34 14.55C14.9 14.55 14.91 10.51 12.34 10.51C9.78001 10.51 9.77001 14.55 12.34 14.55Z" fill="#1E1E1E"/>
<path d="M18.31 10.03C18.07 9.9 17.82 9.85 17.54 9.86C17.36 9.88 17.19 9.91 17.01 9.93C16.67 10.03 16.38 10.2 16.13 10.45C16.03 10.59 15.92 10.72 15.82 10.86C15.64 11.18 15.55 11.52 15.55 11.88V12.14C15.54 12.42 15.6 12.68 15.72 12.92C15.8 13.17 15.94 13.39 16.13 13.57C16.31 13.77 16.52 13.91 16.77 13.99C17.01 14.12 17.26 14.17 17.54 14.16C17.72 14.14 17.89 14.11 18.07 14.09C18.41 13.99 18.7 13.82 18.95 13.57C19.05 13.43 19.16 13.3 19.26 13.16C19.44 12.84 19.53 12.5 19.53 12.14V11.88C19.54 11.6 19.48 11.34 19.36 11.1C19.28 10.85 19.14 10.63 18.95 10.45C18.77 10.25 18.55 10.11 18.31 10.03Z" fill="#1E1E1E"/>
<path d="M23.12 14.03C25.68 14.03 25.69 9.99001 23.12 9.99001C20.56 9.98001 20.56 14.03 23.12 14.03Z" fill="#1E1E1E"/>
<path d="M86.58 3.55005C85.04 3.37005 83.84 3.34005 82.39 3.06005C80.82 2.76005 79.29 2.33005 77.78 1.80005C76.92 1.50005 75.85 2.14005 75.65 3.03005C75.43 4.01005 75.94 4.87005 76.86 5.19005C79.61 6.16005 82.48 6.75005 85.38 6.98005C85.65 7.00005 85.93 7.01005 86.2 7.03005C86.2 7.26005 86.2 7.49005 86.2 7.71005C86.2 9.21005 86.19 10.7001 86.19 12.2001C86.19 13.1201 86.99 14.0001 87.92 13.9601C88.86 13.9201 89.65 13.1901 89.65 12.2001C89.66 10.5301 89.66 8.86005 89.67 7.19005C89.67 6.28005 89.57 5.45005 89.01 4.71005C88.41 3.93005 87.5 3.66005 86.58 3.55005Z" fill="#1E1E1E"/>
<path d="M26.2399 67.53C27.3099 67.61 28.2299 66.54 28.2299 65.51C28.2299 64.35 27.3199 63.57 26.2399 63.49C20.4299 63.06 14.6099 63.06 8.79994 63.46C7.72994 63.53 6.80994 64.3401 6.80994 65.4801C6.80994 66.5201 7.71994 67.58 8.79994 67.5C14.6099 67.09 20.4299 67.1 26.2399 67.53Z" fill="#1E1E1E"/>
<path d="M45.1999 112.99C45.1899 112.43 45.1299 111.97 45.0199 111.57C44.7999 110.8 44.3799 110.31 43.7699 110.12C43.4299 110.01 43.0999 110.03 42.8199 110.04C42.6799 110.04 42.5599 110.05 42.4499 110.04C42.2299 110.03 42.0899 109.92 42.0699 109.88C42.0699 109.81 42.2699 109.63 42.3699 109.53C42.4599 109.45 42.5399 109.37 42.6199 109.29C43.3699 108.49 43.34 107.27 42.9699 106.43C42.6099 105.6 41.9599 104.96 41.2999 104.39C40.6199 103.8 39.8899 103.24 39.15 102.73C38.91 102.56 38.6399 102.4 38.3199 102.34C37.5899 102.21 37.0199 102.69 36.5599 103.09C36.35 103.26 36.1799 103.41 36.0199 103.5C35.9499 102.75 35.7499 102.15 35.4199 101.67C34.7999 100.77 33.6199 100.23 32.2 100.21C31.38 100.22 30.5599 100.28 29.79 100.36L29.6599 100.37C29.3399 100.4 29.0299 100.44 28.7199 100.46C27.4299 100.56 27.29 101.92 27.1899 102.82C27.16 103.08 27.1399 103.32 27.0899 103.49C27.0799 103.54 27.0599 103.58 27.03 103.58C26.84 103.54 26.65 103.35 26.4399 103.13C26.21 102.89 25.9499 102.63 25.5799 102.47C24.9699 102.2 24.2099 102.32 23.5099 102.78C22.7499 103.28 22.1899 103.9 21.7399 104.43C21.5799 104.61 21.4199 104.79 21.2399 104.96C20.8599 105.36 20.4599 105.76 20.1799 106.3C19.7799 107.05 19.5699 108.18 20.1699 109.1C20.2399 109.22 20.3299 109.33 20.4199 109.44C20.5499 109.61 20.7299 109.84 20.6999 109.93C20.6899 109.98 20.53 110.08 20.29 110.09C20.18 110.09 20.0599 110.09 19.9199 110.08C19.6499 110.07 19.34 110.05 19.03 110.14C18.4299 110.31 17.9299 110.84 17.7099 111.54C17.5299 112.1 17.53 112.68 17.54 113.19L17.5699 116.03C17.5799 116.53 17.5799 117.22 17.9799 117.77C18.6199 118.66 19.8699 118.67 20.4699 118.67C20.5399 118.67 20.7199 118.67 20.7499 118.71C20.7599 118.81 20.7099 119 20.5999 119.14C20.5299 119.22 20.4499 119.3 20.3599 119.39C20.0799 119.67 19.7999 119.95 19.6599 120.37C19.3899 121.18 19.8199 121.95 20.2299 122.52C20.6699 123.15 21.1599 123.76 21.6599 124.35C22.2099 124.98 22.8199 125.61 23.6299 125.97C24.6099 126.4 25.6899 126.28 26.37 125.66C26.45 125.59 26.53 125.51 26.61 125.43C26.7299 125.3 26.8899 125.15 26.9699 125.13C27.0199 125.14 27.1499 125.32 27.1699 125.59C27.1799 125.69 27.1799 125.79 27.1899 125.89C27.2 126.27 27.2199 126.71 27.4699 127.11C27.9499 127.87 28.9699 127.92 29.4099 127.94L33.15 128.12C33.25 128.12 33.36 128.13 33.49 128.13C34.42 128.13 35.0299 127.86 35.3699 127.3C35.6299 126.87 35.6299 126.4 35.6199 125.99V125.77C35.6199 125.46 35.7099 125.21 35.8199 125.17C35.9499 125.11 36.2099 125.33 36.4499 125.54C36.82 125.85 37.3299 126.29 37.9499 126.19C38.2599 126.15 38.5 126.01 38.74 125.85C39.95 125.05 41.09 124.13 42.15 123.13C43.5599 121.79 43.3699 120.77 43.1399 120.28C42.9799 119.95 42.7099 119.68 42.49 119.47C42.2199 119.21 42.0499 119.03 42.08 118.91C42.1 118.82 42.2899 118.71 42.5499 118.68C42.6599 118.67 42.7599 118.66 42.8699 118.65C43.1799 118.63 43.5299 118.61 43.8699 118.45C44.5599 118.13 44.9699 117.38 45.0999 116.22C45.2399 115.16 45.2199 114.06 45.1999 112.99ZM39.2899 119.13C39.3599 119.66 39.69 120.05 39.99 120.4C40.2899 120.75 40.4699 120.97 40.4099 121.18C40.3599 121.34 40.2299 121.52 40.0099 121.72C39.7499 121.96 39.4599 122.16 39.15 122.38C38.75 122.67 38.2999 122.99 37.9199 123.39C37.3499 122.95 36.3799 122.44 35.9999 122.44C35.6199 122.45 35.2899 122.59 34.9999 122.71L34.7799 122.8C34.4099 122.94 33.4399 123.32 33.3399 124.47C33.3299 124.64 33.33 124.81 33.33 125.01C33.33 125.15 33.34 125.28 33.33 125.41C33.32 125.54 33.2999 125.58 33.2999 125.58C33.2799 125.59 33.21 125.62 32.95 125.62C31.88 125.61 30.7899 125.54 29.7299 125.43C29.6899 124.17 28.9699 123.08 27.8299 122.59C27.3299 122.37 26.86 122.32 26.4399 122.44C26.0099 122.56 25.72 122.9 25.45 123.2C25.27 123.4 25.06 123.65 24.95 123.66C24.92 123.65 24.8499 123.61 24.8199 123.6C23.8699 123.09 23.0599 122.33 22.4799 121.41C22.3899 121.27 22.3 121.1 22.29 120.98C22.28 120.84 22.4299 120.7 22.6699 120.48C22.7899 120.37 22.9099 120.26 23.0099 120.14C23.6899 119.34 23.4799 118.72 23.2499 118.07L23.1899 117.9C23.11 117.67 23.0299 117.41 22.8499 117.17C22.5599 116.77 22.09 116.52 21.4499 116.41C21.35 116.39 21.2599 116.38 21.0999 116.36C20.8299 116.33 20.5499 116.3 20.3599 116.18C20.1799 116.07 20.0299 115.85 19.9399 115.57C19.6199 114.56 19.7499 113.26 20.2299 112.48C20.3499 112.29 20.6599 112.27 21.1699 112.25C21.8599 112.22 23.0099 112.18 23.2699 110.97C23.38 110.66 23.4399 110.38 23.45 110.1C23.48 109.29 23.1299 108.5 22.3799 107.67C22.9199 107 24.4899 105.44 24.7299 105.29C24.7699 105.27 24.91 105.21 24.95 105.21C25.16 105.22 25.34 105.38 25.62 105.63C25.95 105.93 26.41 106.33 27.11 106.35C28.03 106.34 28.9199 105.75 29.3499 104.84C29.3899 104.72 29.6399 103.73 29.7099 103.01C29.9799 102.99 30.2699 102.97 30.61 102.94C31.5199 102.85 32.66 102.75 32.95 103.04C33.2299 103.36 33.3699 103.76 33.5399 104.23C33.8599 105.13 34.2599 106.26 35.7199 106.35C36.09 106.41 36.4399 106.35 36.7799 106.16C36.9999 106.04 37.2099 105.81 37.4099 105.59C37.6599 105.32 37.8299 105.15 37.9499 105.09C39.0399 105.46 40.2499 106.74 40.5999 107.88C40.5799 107.95 40.4399 108.11 40.1799 108.38C39.7999 108.77 39.3199 109.26 39.3699 109.9C39.3899 110.19 39.4999 110.43 39.5899 110.63C39.6199 110.7 39.6499 110.76 39.6699 110.82L39.7299 111C39.8099 111.27 39.8999 111.55 40.1199 111.8C40.5099 112.26 41.0699 112.31 41.5199 112.36C41.7199 112.38 41.9 112.4 42.0599 112.45C42.35 112.54 42.6999 112.77 42.74 113.66L42.7499 113.88C42.8499 115.48 42.7499 116.03 42.6999 116.18C42.65 116.18 42.5699 116.17 42.5099 116.17C41.6899 116.11 40.8799 116.41 40.2699 116.98C39.8499 117.34 39.1699 118.24 39.2899 119.13Z" fill="#1E1E1E"/>
<path d="M34.8399 109.34C34.4799 109.07 34.0799 108.84 33.6599 108.68C33.2599 108.52 32.8299 108.41 32.3899 108.35C30.6099 108.12 28.6999 108.74 27.3199 109.98C26.0299 111.14 25.3299 112.69 25.3399 114.36C25.3599 114.77 25.4199 115.16 25.5099 115.53C25.9399 117.51 27.5599 119.26 29.5199 119.89C29.9099 120.03 30.3199 120.14 30.7299 120.2C31.0399 120.25 31.3499 120.27 31.6599 120.27C33.0699 120.27 34.4299 119.78 35.4799 118.86C35.7299 118.63 35.96 118.36 36.15 118.07C36.34 117.79 36.49 117.5 36.63 117.16C37.44 114.86 37.4599 111.44 34.8399 109.34ZM33.0999 117.14C32.8699 117.28 32.63 117.39 32.37 117.47C32.09 117.56 31.7999 117.6 31.5099 117.6C29.9999 117.6 28.6899 116.47 28.0699 115.36C27.4999 114.31 27.7399 113.02 28.6599 112.08C29.4299 111.35 30.4599 110.92 31.4099 110.92C32.2099 110.92 32.9099 111.22 33.4199 111.78C34.0399 112.51 34.3599 113.34 34.4099 114.32C34.4199 114.64 34.4 114.96 34.3399 115.32C34.2899 115.99 33.7999 116.7 33.0999 117.14Z" fill="#1E1E1E"/>
<path d="M61.19 92.23C61.18 91.69 60.9601 91.28 60.6501 91C60.5601 90.33 60.1101 89.68 59.43 89.56C56.01 88.97 52.5601 88.66 49.09 88.73C45.7401 88.79 42.43 89.12 39.07 89.09C32.04 89.03 25 88.96 17.96 88.9C13.92 88.86 9.88005 88.83 5.84005 88.79C4.70005 88.78 4.16005 89.71 4.22005 90.61C4.22005 90.67 4.21005 90.73 4.21005 90.8C4.58005 99.45 4.42005 108.13 3.73005 116.76C3.38005 121.06 3.05005 125.33 3.05005 129.65C3.05005 133.96 3.09005 138.27 3.14005 142.57C3.19005 147.54 3.27005 152.51 3.38005 157.48C3.39005 158.02 3.61005 158.43 3.92005 158.71C4.01005 159.38 4.46005 160.03 5.14005 160.15C8.56005 160.74 12.01 161.05 15.48 160.98C18.83 160.92 22.14 160.59 25.5 160.62C32.5401 160.68 39.57 160.75 46.6101 160.81C50.6501 160.85 54.69 160.88 58.73 160.92C59.87 160.93 60.41 160 60.35 159.1C60.35 159.04 60.3601 158.98 60.3601 158.91C59.9901 150.26 60.1501 141.58 60.84 132.95C61.19 128.65 61.5201 124.38 61.5201 120.06C61.5201 115.75 61.48 111.44 61.43 107.14C61.37 102.17 61.29 97.2 61.19 92.23ZM56.91 157.48C48.59 157.41 40.2701 157.33 31.9501 157.26C27.57 157.22 23.19 157.09 18.82 157.4C14.77 157.69 10.74 157.6 6.74005 156.97C6.57005 148.41 6.46005 139.86 6.43005 131.3C6.40005 122.7 7.48005 114.18 7.71005 105.59C7.83005 101.14 7.80005 96.69 7.64005 92.25C15.96 92.32 24.2801 92.4 32.6 92.47C36.98 92.51 41.3601 92.64 45.73 92.33C49.78 92.04 53.8101 92.13 57.8101 92.76C57.98 101.32 58.09 109.87 58.12 118.43C58.15 127.03 57.07 135.55 56.84 144.14C56.7201 148.58 56.75 153.03 56.91 157.48Z" fill="#1E1E1E"/>
<path d="M106.65 121.95C99.2301 131.18 88.0101 136.29 76.4901 135.91C77.2901 135.36 78.0701 134.76 78.8501 134.21C79.4901 133.76 79.8501 132.86 79.3901 132.14C78.9801 131.49 78.0301 131.11 77.3501 131.6C76.0701 132.5 74.8101 133.54 73.4201 134.25C73.3401 134.29 73.2501 134.33 73.1601 134.37C73.1501 134.37 73.1501 134.37 73.1401 134.38C72.9701 134.45 72.8001 134.5 72.6301 134.55C72.3001 134.65 71.9601 134.72 71.6201 134.77C71.5501 134.78 71.2401 134.81 71.2001 134.82C71.0501 134.83 70.8901 134.84 70.7401 134.85C70.3301 134.88 69.9101 134.89 69.5001 134.9C68.8901 134.92 68.3101 135.32 68.0901 135.89C67.7001 136.68 67.8901 137.75 68.9701 137.99C83.6801 141.28 99.2201 135.95 108.76 124.08C109.97 122.6 107.87 120.44 106.65 121.95Z" fill="#1E1E1E"/>
<path d="M77.3099 141.16C76.6099 140.53 75.8599 139.96 75.0799 139.45C74.9099 139.34 74.7199 139.28 74.5199 139.27C74.3199 139.22 74.1199 139.23 73.9199 139.3C73.7299 139.35 73.5599 139.44 73.4099 139.57C73.2499 139.68 73.1199 139.82 73.0299 140C72.8499 140.35 72.7499 140.78 72.8799 141.17C72.9999 141.55 73.2299 141.86 73.5699 142.08C73.9099 142.3 74.2499 142.55 74.5699 142.8C74.7799 142.97 74.9899 143.14 75.1999 143.32C75.3399 143.47 75.4999 143.57 75.6799 143.63C75.8599 143.72 76.0499 143.77 76.2599 143.76C76.4699 143.77 76.6599 143.72 76.8399 143.63C77.0299 143.57 77.1899 143.46 77.3199 143.32C77.5799 143.03 77.7799 142.65 77.7599 142.25C77.7299 141.84 77.5999 141.42 77.3099 141.16Z" fill="#1E1E1E"/>
<path d="M95.64 35.17C105.13 34.2 114.48 37.81 120.89 44.75C120.12 44.6 119.33 44.49 118.57 44.35C117.95 44.24 117.23 44.54 117.09 45.23C116.96 45.84 117.29 46.61 117.96 46.74C119.21 46.97 120.52 47.11 121.72 47.51C121.79 47.53 121.87 47.56 121.94 47.59C121.95 47.59 121.94 47.59 121.95 47.6C122.08 47.66 122.21 47.73 122.34 47.8C122.58 47.94 122.82 48.09 123.04 48.26C123.08 48.3 123.28 48.46 123.31 48.48C123.41 48.56 123.5 48.65 123.6 48.73C123.85 48.96 124.1 49.19 124.34 49.43C124.7 49.77 125.26 49.88 125.71 49.68C126.38 49.46 126.88 48.73 126.39 47.96C119.79 37.49 107.83 31.48 95.63 32.73C94.1 32.86 94.09 35.33 95.64 35.17Z" fill="#1E1E1E"/>
<path d="M123.4 41.26C123.45 42.03 123.55 42.8 123.71 43.55C123.75 43.71 123.82 43.86 123.93 43.98C124.02 44.12 124.14 44.23 124.29 44.31C124.43 44.4 124.58 44.44 124.74 44.45C124.89 44.48 125.05 44.48 125.2 44.43C125.5 44.33 125.8 44.14 125.95 43.85C126.1 43.56 126.14 43.25 126.07 42.93C126 42.6 125.95 42.27 125.9 41.93C125.87 41.71 125.85 41.49 125.84 41.26C125.85 41.1 125.81 40.94 125.74 40.8C125.69 40.64 125.61 40.5 125.48 40.39C125.37 40.27 125.23 40.18 125.08 40.13C124.94 40.06 124.79 40.02 124.63 40.03C124.32 40.04 123.99 40.15 123.77 40.39C123.54 40.62 123.38 40.94 123.4 41.26Z" fill="#1E1E1E"/>
<path d="M57.11 83.2301C54.22 80.2601 52.09 76.6201 50.88 72.6701C51.13 72.9901 51.37 73.3201 51.64 73.6301C52.16 74.2301 53.23 74.2101 53.75 73.6301C54.33 72.9901 54.3 72.1201 53.75 71.4901C53.54 71.2501 53.34 71.0101 53.14 70.7601C53.09 70.7001 53.04 70.6401 52.99 70.5701C52.99 70.5701 52.91 70.4701 52.87 70.4201C52.85 70.3901 52.83 70.3701 52.82 70.3601C52.77 70.3001 52.73 70.2301 52.68 70.1701C52.3 69.6401 51.93 69.1001 51.59 68.5401C51.26 68.0001 50.95 67.4401 50.67 66.8801C50.52 66.5801 50.37 66.2701 50.23 65.9701C50.16 65.8301 50.1 65.6801 50.04 65.5301C50.03 65.5201 50.02 65.4701 50 65.4401C49.98 65.3801 49.94 65.2901 49.94 65.2901C49.79 64.9101 49.62 64.6001 49.25 64.3801C48.93 64.1901 48.46 64.1101 48.1 64.2301C47.77 64.3401 47.44 64.5901 47.23 64.9101C46.92 65.1501 46.72 65.5301 46.74 66.0601C46.79 67.3901 46.94 68.7101 47.16 70.0201C47.05 69.9301 46.94 69.8601 46.81 69.8201C46.63 69.7301 46.44 69.6801 46.23 69.6901C46.1 69.7101 45.97 69.7301 45.83 69.7401C45.58 69.8101 45.36 69.9401 45.17 70.1301C45.09 70.2301 45.01 70.3301 44.94 70.4401C44.8 70.6801 44.74 70.9301 44.74 71.2101V72.0001C44.73 72.2101 44.78 72.4001 44.87 72.5801C44.93 72.7701 45.03 72.9301 45.18 73.0701C45.32 73.2201 45.48 73.3201 45.66 73.3801C45.84 73.4701 46.03 73.5201 46.24 73.5101C46.37 73.4901 46.5 73.4701 46.64 73.4601C46.89 73.3901 47.11 73.2601 47.3 73.0701L47.53 72.7601C47.6 72.6401 47.65 72.5101 47.68 72.3801C48.95 77.2601 51.45 81.7701 54.98 85.4001C56.35 86.7701 58.46 84.6201 57.11 83.2301Z" fill="#1E1E1E"/>
<path d="M102.26 101.12C101.75 101.03 101.24 100.93 100.72 100.84C101.1 100.63 101.49 100.44 101.91 100.31C102.86 100.01 103.26 98.96 102.8 98.08C102.33 97.17 101.52 96.61 100.56 96.32C100.53 96.31 100.5 96.31 100.48 96.3C101.06 95.9 101.65 95.49 102.23 95.09C103.07 94.51 103.32 92.99 102.23 92.47C101.47 92.11 100.71 91.75 99.9501 91.38C100.61 91.01 101.28 90.66 101.97 90.33C102.97 89.86 102.93 88.19 101.97 87.71C100.89 87.17 99.7901 86.69 98.6601 86.28C99.4201 85.58 100.24 84.96 101.17 84.44C102.19 83.87 102.08 82.42 101.17 81.82C100.69 81.51 100.2 81.24 99.6901 81C100.29 80.55 100.89 80.08 101.47 79.6C102.2 78.99 101.96 77.64 101.17 77.22C100.37 76.79 99.5501 76.4 98.7201 76.02C99.0001 75.87 99.2901 75.72 99.5701 75.58C101.28 74.69 99.7701 72.07 98.0601 72.96L94.4301 74.86C93.1901 75.51 93.6701 77.21 94.7901 77.63C95.7501 77.99 96.6801 78.39 97.6001 78.82C96.9801 79.27 96.3401 79.71 95.6901 80.12C94.6501 80.79 94.7501 82.58 96.0501 82.89C96.5401 83.01 97.0001 83.16 97.4501 83.33C96.5101 84.09 95.6401 84.94 94.9001 85.92C94.2301 86.79 94.3801 88.12 95.5601 88.45C96.3001 88.66 97.0301 88.9 97.7501 89.16C97.1701 89.5 96.5901 89.85 96.0301 90.23C95.1801 90.81 94.9501 92.33 96.0301 92.85C96.8501 93.24 97.6601 93.63 98.4801 94.01C97.6801 94.56 96.8801 95.11 96.0801 95.66C95.1301 96.32 95.1101 97.62 96.0801 98.28C96.7101 98.7 97.3801 98.89 98.1001 98.99C97.4001 99.56 96.7701 100.21 96.2301 101C95.7001 101.76 96.2201 103.06 97.1201 103.23C98.5701 103.49 100.01 103.76 101.46 104.02C103.35 104.39 104.15 101.46 102.26 101.12Z" fill="#59C69F"/>
<path d="M66.12 102.88C66.12 102.38 66.13 101.87 66.13 101.37C66.13 101.12 66.14 100.87 66.14 100.61C66.14 100.51 66.14 100.41 66.14 100.31C67.17 98.96 65.19 97.07 63.86 98.36C62.96 99.23 63.14 100.59 63.13 101.74C63.12 102.87 63.12 104.01 63.13 105.14C63.14 107.45 63.19 109.76 63.27 112.07C63.34 114.02 66.32 114.02 66.26 112.07C66.19 110.01 66.14 107.96 66.12 105.9C66.12 104.9 66.11 103.89 66.12 102.88Z" fill="#1E1E1E"/>
<path d="M76.1699 45.2C76.1599 44.06 76.1999 42.92 76.2799 41.78C76.3399 40.99 75.5499 40.23 74.7899 40.26C73.9299 40.3 73.3599 40.93 73.2999 41.78C73.2199 42.83 73.1799 43.89 73.1799 44.94C73.1799 45.45 73.1899 45.95 73.2199 46.46C73.2199 46.55 73.2299 46.65 73.2399 46.75C73.0399 46.74 72.8499 46.71 72.6599 46.69C72.6399 46.69 72.6399 46.69 72.6299 46.69C72.4299 46.66 72.2199 46.63 72.0199 46.61C71.0799 46.49 70.1399 46.44 69.2199 46.73C68.4799 46.97 67.9199 47.8 68.1799 48.59C68.4199 49.35 69.2199 49.9 70.0199 49.65C70.1499 49.61 70.2899 49.58 70.4299 49.54C70.4399 49.54 70.4399 49.54 70.4399 49.54C70.6699 49.53 70.8899 49.52 71.1199 49.54C71.3499 49.55 71.5799 49.58 71.8099 49.61C71.8299 49.61 71.8299 49.61 71.8399 49.61C72.0799 49.64 72.3199 49.68 72.5599 49.71C73.0199 49.77 73.4799 49.82 73.9399 49.8C74.7099 49.76 75.6299 49.63 76.0499 48.88C76.4099 48.24 76.2699 47.54 76.2299 46.85C76.1899 46.3 76.1799 45.75 76.1699 45.2Z" fill="#1E1E1E"/>
<path d="M160.93 57.78C160.66 56.99 160.07 56.38 159.54 55.76C159.13 55.28 158.71 54.81 158.26 54.37C157.23 53.37 156.07 52.56 154.71 52.09C153.97 51.83 153.04 52.39 152.87 53.15C152.68 53.99 153.12 54.74 153.91 55.01C153.97 55.03 154.04 55.06 154.1 55.08C154.17 55.11 154.19 55.11 154.19 55.11C154.26 55.14 154.32 55.18 154.37 55.21C154.61 55.33 154.84 55.47 155.07 55.63C155.18 55.7 155.29 55.78 155.39 55.86C155.38 55.85 155.38 55.85 155.36 55.83C155.4 55.87 155.45 55.9 155.49 55.93C155.71 56.12 155.93 56.31 156.14 56.51C156.54 56.9 156.92 57.31 157.28 57.74C157.46 57.95 157.64 58.17 157.82 58.38C157.91 58.49 158 58.6 158.08 58.7V58.69C158.08 58.7 158.09 58.7 158.09 58.71C158.1 58.72 158.1 58.72 158.1 58.72C158.4 59.39 159.12 59.88 159.87 59.63C160.61 59.41 161.21 58.58 160.93 57.78Z" fill="#1E1E1E"/>
<path d="M155.42 55.86L155.41 55.85C155.68 56.09 155.5 55.92 155.42 55.86Z" fill="#1E1E1E"/>
<path d="M158.1 58.72C158.1 58.71 158.1 58.72 158.1 58.72C158.16 58.9 158.14 58.8 158.1 58.72Z" fill="#1E1E1E"/>
</svg>
