<svg width="101" height="43" viewBox="0 0 101 43" fill="none" xmlns="http://www.w3.org/2000/svg">
<path d="M96.7526 25.6737L93.5395 25.8339C93.6251 23.462 91.6801 20.7456 88.6693 21.2825C60.2727 26.3067 31.2382 21.7072 2.77162 26.3227C-0.659313 26.8756 -0.83047 32.036 1.84581 33.6467C2.84941 34.2476 3.92304 34.7444 5.03556 35.1691C4.92664 35.1852 4.81773 35.2012 4.70881 35.2172C-0.223639 36.0265 1.86915 43.7431 6.77826 42.9418C36.9642 38.0058 67.9515 41.235 97.7873 33.5425C101.981 32.4607 101.187 25.4493 96.7526 25.6737Z" fill="#F7C300"/>
<path d="M29.0136 3.70968C28.4223 5.27223 27.7454 6.90689 26.9674 8.59765C26.1895 10.2964 25.2637 11.9792 24.19 13.6459C23.8866 14.1267 23.5443 14.3671 23.1553 14.3671C22.9141 14.3671 22.7119 14.311 22.5485 14.1988C22.3851 14.0866 22.2451 13.9344 22.1206 13.742C21.5915 12.9087 21.117 12.0192 20.6969 11.0817C20.269 10.1442 19.8566 9.07844 19.4521 7.8925C18.8686 8.95824 18.2151 10.032 17.4915 11.1138C16.7758 12.1955 15.99 13.2052 15.142 14.1427C14.9786 14.327 14.8153 14.4552 14.6441 14.5193C14.473 14.5834 14.3329 14.5994 14.2318 14.5834C13.8039 14.5193 13.4694 14.2469 13.2282 13.7741C12.4813 12.3398 11.9756 10.7532 11.7111 9.02234C11.4466 7.29152 11.3065 5.52063 11.2832 3.70968C11.2832 3.5414 11.3454 3.37313 11.4621 3.21287C11.5866 3.04459 11.7656 2.97248 12.0067 2.99651C12.3724 3.02055 12.6525 3.15678 12.8547 3.42121C13.057 3.68564 13.1815 3.99815 13.2204 4.37476C13.2593 4.89561 13.3138 5.48057 13.376 6.13764C13.4382 6.79471 13.516 7.46781 13.6172 8.15693C13.7183 8.84606 13.8506 9.51114 14.0139 10.1602C14.1773 10.8093 14.3796 11.3702 14.6208 11.851C14.9242 11.4583 15.2509 11.0176 15.5933 10.5368C15.9356 10.056 16.2779 9.55922 16.6124 9.03837C16.947 8.51752 17.2659 7.98866 17.5693 7.45979C17.8728 6.93093 18.1451 6.40207 18.3862 5.88122C18.5496 5.52865 18.7519 5.29627 18.9931 5.1921C19.2342 5.08793 19.4287 5.03184 19.5688 5.03184C20.1756 5.03184 20.5879 5.33633 20.8136 5.93731C21.1559 6.81074 21.506 7.74025 21.8638 8.71785C22.2139 9.69544 22.6107 10.625 23.0308 11.4984C23.3965 10.9134 23.7699 10.2564 24.1511 9.52717C24.5323 8.79798 24.9136 8.05276 25.2714 7.29152C25.6371 6.53028 25.9872 5.76904 26.3217 4.99177C26.6563 4.22252 26.9519 3.49333 27.2164 2.8042C27.3175 2.5558 27.4887 2.34746 27.7299 2.17918C27.9711 2.01091 28.2433 2.01892 28.5312 2.21123C28.7568 2.35547 28.9124 2.59586 28.998 2.91638C29.0914 3.23691 29.0991 3.50134 29.0136 3.70968Z" fill="#1E1E1E"/>
<path d="M38.7302 4.20628C38.808 4.79123 38.878 5.40824 38.9247 6.06531C38.9713 6.72238 39.018 7.38747 39.0491 8.05255C39.0803 8.71764 39.0958 9.3667 39.0958 9.99171C39.0958 10.6167 39.088 11.1776 39.0647 11.6825C39.7104 12.1392 40.0994 12.5479 40.2317 12.9005C40.3639 13.253 40.3795 13.5655 40.2784 13.838C40.1539 14.2146 39.9361 14.4069 39.6249 14.4149C39.3137 14.4229 38.948 14.3188 38.5512 14.0864C38.2712 14.2947 37.9444 14.5191 37.5787 14.7595C37.2131 14.9999 36.8319 15.2323 36.4273 15.4486C36.0228 15.665 35.6182 15.8573 35.2137 16.0256C34.8091 16.1938 34.4357 16.306 34.0934 16.3701C33.4476 16.4743 32.8641 16.3461 32.3507 15.9935C31.8372 15.6409 31.4871 15.1121 31.3004 14.3989C31.1759 13.9181 31.1448 13.4213 31.207 12.9165C31.2693 12.4037 31.4171 11.9149 31.666 11.4501C31.9072 10.9773 32.234 10.5606 32.6541 10.184C33.0664 9.80742 33.5565 9.51895 34.1245 9.31061C34.2645 9.2465 34.459 9.19842 34.7157 9.15034C34.9725 9.11028 35.2292 9.09425 35.5015 9.10227C35.7738 9.11028 36.0539 9.16637 36.334 9.27054C36.614 9.37471 36.8786 9.551 37.1197 9.7994C37.1197 9.44683 37.112 9.05419 37.1042 8.62949C37.0964 8.2048 37.0808 7.7721 37.0575 7.33138C37.0342 6.89066 37.0108 6.48199 36.9797 6.09736C36.9486 5.71274 36.9175 5.3842 36.8708 5.11176C36.8319 4.79925 36.7152 4.60693 36.5207 4.53482C36.3262 4.4627 36.0928 4.47872 35.8049 4.58289C35.3226 4.75117 34.7546 5.07169 34.1089 5.55248C33.4632 6.03326 32.8408 6.5461 32.2573 7.08297C32.0784 7.26727 31.8683 7.35542 31.6349 7.33138C31.4015 7.30734 31.207 7.21919 31.0436 7.05092C30.8803 6.88265 30.7869 6.69033 30.7713 6.47398C30.748 6.25763 30.8336 6.01723 31.0125 5.76883C31.3548 5.39221 31.7438 5.00759 32.1639 4.61495C32.5918 4.22231 33.0353 3.86172 33.5021 3.53318C33.9689 3.21266 34.4435 2.94823 34.9258 2.73989C35.4082 2.53155 35.8983 2.41937 36.3806 2.39533C37.0886 2.37129 37.6332 2.53956 38.0222 2.87611C38.4112 3.22067 38.6446 3.6694 38.7302 4.20628ZM35.2059 10.9292C34.9414 10.9933 34.6613 11.1216 34.3734 11.3219C34.0778 11.5222 33.8133 11.7626 33.5877 12.0431C33.3543 12.3235 33.1831 12.636 33.0742 12.9806C32.9653 13.3252 32.9575 13.6617 33.0586 13.9983C33.0975 14.1265 33.1831 14.2146 33.3154 14.2787C33.4476 14.3428 33.5954 14.3508 33.7588 14.3108C34.2412 14.2066 34.7935 14.0063 35.4159 13.7018C36.0306 13.3973 36.5207 13.0687 36.8863 12.7162C36.8863 12.588 36.8241 12.4277 36.7074 12.2354C36.5829 12.035 36.4429 11.8427 36.2795 11.6424C36.1161 11.4421 35.9372 11.2738 35.7505 11.1296C35.5482 10.9693 35.3693 10.9052 35.2059 10.9292Z" fill="#1E1E1E"/>
<path d="M48.922 7.39596C49.3032 7.37192 49.6922 7.46808 50.0734 7.67642C50.4546 7.88476 50.6491 8.20528 50.6491 8.646C50.6102 8.99858 50.4235 9.22294 50.089 9.3191C49.7544 9.41526 49.4899 9.46333 49.2877 9.46333C48.8831 9.46333 48.4474 9.47135 47.9806 9.49539C47.5138 9.51943 47.0393 9.55148 46.5569 9.59154C46.518 10.2807 46.4791 10.9217 46.448 11.5307C46.4169 12.1397 46.3935 12.6686 46.3702 13.1413C46.3469 13.6141 46.3391 13.9907 46.3391 14.2792C46.3391 14.5677 46.3469 14.7279 46.3702 14.752C46.8137 14.6718 47.296 14.5276 47.8095 14.3273C48.323 14.1269 48.8442 13.9106 49.3577 13.6702C49.8711 13.4298 50.3768 13.1814 50.8748 12.917C51.3727 12.6606 51.8395 12.4121 52.2829 12.1798C52.4852 12.0756 52.6719 12.0435 52.8431 12.0836C53.0142 12.1237 53.1231 12.2198 53.162 12.3641C53.2009 12.5964 53.1698 12.8769 53.0687 13.2054C52.9675 13.542 52.7886 13.8385 52.5241 14.1109C52.2207 14.3593 51.8239 14.6478 51.326 14.9683C50.8281 15.2888 50.299 15.6013 49.7311 15.8898C49.1632 16.1783 48.5952 16.4347 48.0195 16.6591C47.4438 16.8754 46.9304 17.0116 46.4869 17.0517C45.8178 17.1158 45.3121 16.9235 44.9698 16.4908C44.6275 16.0501 44.433 15.5052 44.3941 14.8321C44.3552 14.167 44.3474 13.3978 44.3786 12.5163C44.4097 11.6429 44.4408 10.7134 44.4875 9.73578C44.1063 9.77584 43.7328 9.81591 43.3827 9.84796C43.0249 9.88002 42.6903 9.91207 42.3636 9.96014C42.099 9.96014 41.8112 9.89604 41.5 9.77584C41.1888 9.65565 41.0332 9.41526 41.0332 9.05467C41.0332 8.92646 41.0799 8.7662 41.1888 8.55786C41.2899 8.34952 41.5156 8.19727 41.8579 8.08509C42.6903 7.94085 43.6083 7.81264 44.6197 7.70847C44.682 6.73088 44.752 5.78534 44.8298 4.86383C44.9076 3.95034 44.9854 3.11698 45.0398 2.36376C45.0632 2.11535 45.1332 1.89098 45.2499 1.70668C45.3744 1.52238 45.4989 1.42623 45.6467 1.42623C45.989 1.40219 46.3157 1.49033 46.6347 1.69066C46.9459 1.89098 47.1015 2.11535 47.1015 2.36376C47.0237 3.06891 46.9459 3.87823 46.8759 4.76768C46.8059 5.66514 46.7359 6.57863 46.6814 7.51616C47.086 7.47609 47.4749 7.45205 47.8484 7.43603C48.2218 7.43603 48.5797 7.42 48.922 7.39596Z" fill="#1E1E1E"/>
<path d="M61.3932 7.74057C61.2532 7.8207 61.082 7.85275 60.8798 7.8207C60.6775 7.78865 60.5063 7.66044 60.3663 7.42806C60.0395 6.98734 59.6505 6.77099 59.1837 6.77099C58.7559 6.77099 58.3824 6.86715 58.0479 7.06747C57.7134 7.2678 57.4177 7.52422 57.1688 7.85275C56.912 8.17328 56.7097 8.53386 56.5464 8.93452C56.383 9.32716 56.2741 9.72781 56.2118 10.1205C56.1107 10.8496 56.2352 11.4666 56.5775 11.9635C56.9198 12.4603 57.4566 12.7167 58.1879 12.7167C58.7714 12.7407 59.4405 12.6205 60.1796 12.3561C60.9187 12.0997 61.6111 11.7551 62.2568 11.3384C62.5369 11.2102 62.8014 11.1381 63.0426 11.1221C63.2837 11.098 63.486 11.2263 63.6494 11.4987C63.8517 11.8352 63.805 12.1718 63.4938 12.5164C63.1904 12.8609 62.7858 13.1654 62.2801 13.4379C61.7745 13.7263 61.2454 13.9827 60.6853 14.2071C60.1251 14.4235 59.565 14.5837 59.0048 14.6799C58.4369 14.776 57.8767 14.776 57.3244 14.6959C56.7642 14.6158 56.2507 14.4155 55.7606 14.1029C54.9904 13.5581 54.5236 12.7888 54.368 11.7872C54.2046 10.7855 54.2746 9.75185 54.5781 8.69412C54.7025 8.30148 54.8737 7.90083 55.0915 7.49216C55.3171 7.0835 55.5817 6.7149 55.8929 6.38636C56.2041 6.04981 56.5542 5.76935 56.9431 5.52896C57.3244 5.28857 57.7523 5.12831 58.219 5.04818C58.9659 4.91997 59.6894 5.0001 60.3741 5.28056C61.0587 5.56101 61.5177 6.07385 61.7433 6.82708C61.7822 6.99535 61.7822 7.16363 61.7433 7.33992C61.6889 7.50018 61.58 7.6364 61.3932 7.74057Z" fill="#1E1E1E"/>
<path d="M67.5236 1.93089C67.5236 2.4277 67.5158 2.99663 67.508 3.62165C67.5002 4.24667 67.5002 4.89573 67.508 5.56081C67.5158 6.2259 67.5314 6.91502 67.5391 7.62017C67.5469 8.32532 67.5625 9.00643 67.5858 9.65549C67.7881 9.23881 68.0293 8.83014 68.3171 8.42148C68.5972 8.01281 68.9162 7.65222 69.2741 7.33971C69.6242 7.0272 70.0054 6.7788 70.3944 6.58648C70.7911 6.40218 71.219 6.30603 71.6858 6.30603C72.1915 6.30603 72.6427 6.4743 73.0395 6.80284C73.4363 7.13939 73.7786 7.58011 74.0742 8.13301C74.3699 8.68591 74.6188 9.30292 74.8211 9.97601C75.0234 10.6571 75.1868 11.3382 75.319 12.0354C75.4513 12.7325 75.5446 13.3976 75.6069 14.0386C75.6691 14.6717 75.7158 15.2246 75.7625 15.6813C75.7625 16.0179 75.6847 16.2823 75.5213 16.4906C75.3579 16.699 75.1634 16.8031 74.9456 16.8031C74.7822 16.8031 74.5877 16.691 74.3543 16.4746C74.1209 16.2583 73.9575 15.9938 73.8564 15.6813C73.7942 15.4329 73.7319 15.0643 73.6775 14.5835C73.6152 14.1027 73.5452 13.5899 73.4674 13.037C73.3896 12.4841 73.2885 11.9312 73.164 11.3623C73.0395 10.8014 72.8917 10.2965 72.7205 9.84781C72.5494 9.39907 72.3393 9.05451 72.0982 8.79809C71.857 8.54969 71.5691 8.45353 71.2501 8.51764C70.7445 8.62181 70.301 8.99041 69.9276 9.61543C69.5541 10.2404 69.2274 10.9456 68.9551 11.7389C68.6828 12.5322 68.4572 13.3335 68.286 14.1428C68.1149 14.9521 67.9904 15.6092 67.9048 16.114C67.827 16.4906 67.7181 16.7471 67.5858 16.8833C67.4536 17.0195 67.3057 17.0836 67.1424 17.0836C66.979 17.0836 66.8312 17.0035 66.6989 16.8352C66.5667 16.6669 66.4422 16.4666 66.3333 16.2262C66.2243 15.9858 66.1232 15.7374 66.0454 15.473C65.9676 15.2166 65.9131 14.9922 65.8898 14.7999C65.7887 13.6781 65.7109 12.5963 65.6486 11.5626C65.5864 10.5289 65.5397 9.49523 65.5086 8.45353C65.4775 7.41183 65.4619 6.34609 65.4619 5.2483C65.4619 4.15051 65.4853 2.9806 65.5242 1.73056C65.5242 0.688866 65.8898 0.216095 66.6133 0.320265C66.8545 0.36033 67.0724 0.544631 67.2513 0.865154C67.438 1.2017 67.5236 1.55428 67.5236 1.93089Z" fill="#1E1E1E"/>
<path d="M91.4392 4.66331C91.5169 5.24827 91.587 5.86527 91.6336 6.52234C91.6803 7.17941 91.727 7.8445 91.7581 8.50958C91.7892 9.17467 91.8048 9.82373 91.8048 10.4487C91.8048 11.0738 91.797 11.6347 91.7737 12.1395C92.4194 12.5962 92.8084 13.0049 92.9407 13.3575C93.0729 13.7101 93.0885 14.0226 92.9873 14.295C92.8629 14.6716 92.645 14.8639 92.3338 14.872C92.0226 14.88 91.657 14.7758 91.2602 14.5434C90.9801 14.7518 90.6534 14.9761 90.2877 15.2165C89.9221 15.4569 89.5409 15.6893 89.1363 15.9056C88.7318 16.122 88.3272 16.3143 87.9226 16.4826C87.5181 16.6509 87.1447 16.763 86.8023 16.8271C86.1566 16.9313 85.5731 16.8031 85.0596 16.4505C84.5462 16.098 84.1961 15.5691 84.0094 14.8559C83.8849 14.3752 83.8538 13.8783 83.916 13.3735C83.9782 12.8607 84.1261 12.3719 84.375 11.9071C84.624 11.4424 84.9429 11.0177 85.3631 10.6411C85.7754 10.2644 86.2655 9.97598 86.8335 9.76764C86.9735 9.70353 87.168 9.65545 87.4247 9.60737C87.6815 9.56731 87.9382 9.55128 88.2105 9.5593C88.4828 9.56731 88.7629 9.6234 89.0429 9.72757C89.323 9.83174 89.5875 10.008 89.8287 10.2564C89.8287 9.90386 89.8209 9.51122 89.8132 9.08652C89.8054 8.66183 89.7898 8.22913 89.7665 7.78841C89.7431 7.34769 89.7198 6.93902 89.6887 6.5544C89.6576 6.16977 89.6264 5.84123 89.5798 5.56879C89.5409 5.25628 89.4242 5.06396 89.2297 4.99185C89.0352 4.91973 88.8018 4.93575 88.5139 5.03992C88.0316 5.2082 87.4636 5.52872 86.8179 6.00951C86.1722 6.49029 85.5498 7.00313 84.9663 7.54C84.7874 7.7243 84.5773 7.81245 84.3439 7.78841C84.1105 7.76437 83.916 7.67622 83.7526 7.50795C83.5893 7.33968 83.4959 7.14736 83.4803 6.93101C83.457 6.71466 83.5426 6.47426 83.7215 6.22586C84.0638 5.84925 84.4528 5.46462 84.8729 5.07198C85.3008 4.67934 85.7443 4.31875 86.2111 3.99021C86.6779 3.66969 87.1524 3.40526 87.6348 3.19692C88.1171 2.98858 88.6073 2.8764 89.0896 2.85236C89.7976 2.82832 90.3422 2.99659 90.7312 3.33314C91.1202 3.6777 91.3536 4.11842 91.4392 4.66331ZM87.9149 11.3783C87.6503 11.4424 87.3703 11.5706 87.0824 11.7709C86.7868 11.9712 86.5223 12.2116 86.2966 12.4921C86.0633 12.7725 85.8921 13.085 85.7832 13.4296C85.6743 13.7742 85.6665 14.1107 85.7676 14.4473C85.8065 14.5755 85.8921 14.6636 86.0244 14.7277C86.1566 14.7918 86.3044 14.7998 86.4678 14.7598C86.9502 14.6556 87.5025 14.4553 88.1249 14.1508C88.7395 13.8463 89.2297 13.5178 89.5953 13.1652C89.5953 13.037 89.5331 12.8767 89.4164 12.6844C89.2919 12.4841 89.1519 12.2918 88.9885 12.0914C88.8251 11.8911 88.6462 11.7228 88.4595 11.5786C88.2572 11.4263 88.0782 11.3622 87.9149 11.3783Z" fill="#1E1E1E"/>
<path d="M17.8102 28.8867C18.1914 28.8626 18.5804 28.9588 18.9616 29.1671C19.3428 29.3755 19.5373 29.696 19.5373 30.1367C19.4984 30.4893 19.3117 30.7137 18.9772 30.8098C18.6426 30.906 18.3781 30.9541 18.1758 30.9541C17.7713 30.9541 17.3356 30.9621 16.8688 30.9861C16.402 31.0101 15.9275 31.0422 15.4451 31.0823C15.4062 31.7714 15.3673 32.4124 15.3362 33.0214C15.3051 33.6304 15.2817 34.1593 15.2584 34.6321C15.235 35.1048 15.2273 35.4814 15.2273 35.7699C15.2273 36.0584 15.235 36.2186 15.2584 36.2427C15.7018 36.1626 16.1842 36.0183 16.6977 35.818C17.2111 35.6177 17.7324 35.4013 18.2459 35.1609C18.7593 34.9205 19.265 34.6721 19.7629 34.4077C20.2609 34.1513 20.7276 33.9029 21.1711 33.6705C21.3734 33.5663 21.5601 33.5343 21.7312 33.5743C21.9024 33.6144 22.0113 33.7106 22.0502 33.8548C22.0891 34.0872 22.058 34.3676 21.9569 34.6962C21.8557 35.0327 21.6768 35.3292 21.4123 35.6016C21.1089 35.85 20.7121 36.1385 20.2142 36.459C19.7163 36.7796 19.1872 37.0921 18.6193 37.3805C18.0514 37.669 17.4834 37.9254 16.9077 38.1498C16.332 38.3661 15.8185 38.5024 15.3751 38.5424C14.706 38.6065 14.2003 38.4142 13.858 37.9815C13.5157 37.5408 13.3212 36.9959 13.2823 36.3228C13.2434 35.6577 13.2356 34.8885 13.2667 34.007C13.2979 33.1336 13.329 32.2041 13.3757 31.2265C12.9944 31.2666 12.621 31.3066 12.2709 31.3387C11.913 31.3707 11.5785 31.4028 11.2517 31.4509C10.9872 31.4509 10.6994 31.3868 10.3882 31.2666C10.077 31.1384 9.92139 30.906 9.92139 30.5454C9.92139 30.4172 9.96807 30.2569 10.077 30.0486C10.1781 29.8402 10.4037 29.688 10.7461 29.5758C11.5785 29.4316 12.4965 29.3034 13.5079 29.1992C13.5702 28.2216 13.6402 27.2761 13.718 26.3546C13.7958 25.4411 13.8736 24.6077 13.928 23.8545C13.9514 23.6061 14.0214 23.3817 14.1381 23.1974C14.2626 23.0131 14.387 22.9169 14.5349 22.9169C14.8772 22.8929 15.2039 22.9811 15.5229 23.1814C15.8341 23.3817 15.9897 23.6061 15.9897 23.8545C15.9119 24.5596 15.8341 25.3689 15.7641 26.2584C15.6941 27.1559 15.624 28.0694 15.5696 29.0069C15.9741 28.9668 16.3631 28.9428 16.7366 28.9268C17.1022 28.9187 17.4601 28.9027 17.8102 28.8867Z" fill="#1E1E1E"/>
<path d="M25.9086 28.0053C25.7841 28.5662 25.6674 29.1912 25.5429 29.8643C25.4185 30.5454 25.3329 31.1945 25.2862 31.8195C25.2318 32.4445 25.2318 33.0054 25.2862 33.5103C25.3329 34.0071 25.4651 34.3677 25.6674 34.576C26.0097 34.6401 26.4065 34.4879 26.85 34.1193C27.2934 33.7587 27.7291 33.2939 28.157 32.725C28.5849 32.1641 28.9661 31.5551 29.3084 30.898C29.6507 30.2409 29.8919 29.664 30.0397 29.1672C30.1175 28.9188 30.1953 28.6544 30.2498 28.3819C30.312 28.1095 30.3431 27.829 30.3431 27.5405C30.3431 27.3723 30.4521 27.212 30.6621 27.0597C30.8722 26.8995 31.0511 26.8113 31.1911 26.7953C31.2923 26.7713 31.409 26.7953 31.5412 26.8594C31.6735 26.9235 31.7902 27.0117 31.9069 27.1239C32.0158 27.236 32.117 27.3723 32.2103 27.5325C32.3037 27.6928 32.3503 27.853 32.3503 28.0133C32.3892 28.6383 32.4515 29.3274 32.5293 30.0727C32.6071 30.8259 32.7082 31.5711 32.8171 32.3243C32.9261 33.0776 33.0428 33.8068 33.1672 34.5119C33.2917 35.2171 33.4084 35.8581 33.5329 36.419C33.5951 36.6514 33.5329 36.9078 33.3539 37.2043C33.175 37.4928 32.9727 37.6771 32.7471 37.7332C32.5682 37.7732 32.3737 37.7572 32.187 37.6691C31.9925 37.5889 31.8447 37.4206 31.7435 37.1722C31.6424 36.8838 31.549 36.5232 31.4557 36.0905C31.3623 35.6658 31.2845 35.2171 31.2145 34.7443C31.1445 34.2715 31.0744 33.8308 31.02 33.3981C30.9577 32.9734 30.9188 32.6128 30.8955 32.3163C30.5921 32.8772 30.2342 33.4462 29.8219 34.0231C29.4096 34.6 28.9583 35.1209 28.4837 35.5857C28.0092 36.0584 27.5113 36.419 26.9978 36.6834C26.4843 36.9479 25.9475 37.044 25.4029 36.9799C24.5938 36.8758 23.9792 36.0905 23.5513 34.6321C23.3879 34.0471 23.3101 33.4061 23.3257 32.6929C23.3335 31.9878 23.3879 31.2826 23.4813 30.5855C23.5746 29.8884 23.6836 29.2233 23.8158 28.5983C23.9481 27.9732 24.0648 27.4604 24.1659 27.0678C24.2048 26.8995 24.2904 26.7472 24.4071 26.611C24.5316 26.4748 24.6716 26.4267 24.835 26.4668C25.1384 26.5309 25.4185 26.7152 25.6674 27.0277C25.9008 27.3562 25.9864 27.6768 25.9086 28.0053Z" fill="#1E1E1E"/>
<path d="M42.6281 28.8867C43.0093 28.8626 43.3983 28.9588 43.7795 29.1671C44.1607 29.3755 44.3552 29.696 44.3552 30.1367C44.3163 30.4893 44.1296 30.7137 43.795 30.8098C43.4605 30.906 43.196 30.9541 42.9937 30.9541C42.5892 30.9541 42.1535 30.9621 41.6867 30.9861C41.2199 31.0101 40.7453 31.0422 40.263 31.0823C40.2241 31.7714 40.1852 32.4124 40.1541 33.0214C40.1229 33.6304 40.0996 34.1593 40.0763 34.6321C40.0529 35.1048 40.0451 35.4814 40.0451 35.7699C40.0451 36.0584 40.0529 36.2186 40.0763 36.2427C40.5197 36.1626 41.0021 36.0183 41.5155 35.818C42.029 35.6177 42.5503 35.4013 43.0637 35.1609C43.5772 34.9205 44.0829 34.6721 44.5808 34.4077C45.0787 34.1513 45.5455 33.9029 45.989 33.6705C46.1912 33.5663 46.378 33.5343 46.5491 33.5743C46.7203 33.6144 46.8292 33.7106 46.8681 33.8548C46.907 34.0872 46.8759 34.3676 46.7747 34.6962C46.6736 35.0327 46.4947 35.3292 46.2301 35.6016C45.9267 35.85 45.53 36.1385 45.032 36.459C44.5341 36.7796 44.0051 37.0921 43.4372 37.3805C42.8692 37.669 42.3013 37.9254 41.7256 38.1498C41.1499 38.3661 40.6364 38.5024 40.193 38.5424C39.5239 38.6065 39.0182 38.4142 38.6759 37.9815C38.3336 37.5408 38.1391 36.9959 38.1002 36.3228C38.0613 35.6577 38.0535 34.8885 38.0846 34.007C38.1157 33.1336 38.1468 32.2041 38.1935 31.2265C37.8123 31.2666 37.4389 31.3066 37.0888 31.3387C36.7309 31.3707 36.3964 31.4028 36.0696 31.4509C35.8051 31.4509 35.5172 31.3868 35.206 31.2666C34.8949 31.1464 34.7393 30.906 34.7393 30.5454C34.7393 30.4172 34.7859 30.2569 34.8949 30.0486C34.996 29.8402 35.2216 29.688 35.5639 29.5758C36.3964 29.4316 37.3144 29.3034 38.3258 29.1992C38.388 28.2216 38.458 27.2761 38.5358 26.3546C38.6136 25.4411 38.6914 24.6077 38.7459 23.8545C38.7692 23.6061 38.8393 23.3817 38.956 23.1974C39.0804 23.0131 39.2049 22.9169 39.3527 22.9169C39.695 22.8929 40.0218 22.9811 40.3408 23.1814C40.652 23.3817 40.8076 23.6061 40.8076 23.8545C40.7298 24.5596 40.652 25.3689 40.5819 26.2584C40.5119 27.1559 40.4419 28.0694 40.3875 29.0069C40.792 28.9668 41.181 28.9428 41.5544 28.9268C41.9279 28.9187 42.2857 28.9027 42.6281 28.8867Z" fill="#1E1E1E"/>
<path d="M55.1072 26.3548C55.714 26.5872 56.2275 26.9318 56.6398 27.3885C57.0521 27.8453 57.3711 28.3661 57.5967 28.935C57.8223 29.512 57.9468 30.0969 57.9779 30.6979C58.0091 31.2989 57.939 31.8678 57.7834 32.3887C57.5578 32.9736 57.2777 33.5426 56.9354 34.1115C56.5931 34.6724 56.1963 35.1772 55.7529 35.6099C55.3094 36.0506 54.8037 36.4032 54.2358 36.6757C53.6679 36.9481 53.0377 37.0843 52.3531 37.0843C51.5206 37.0843 50.8282 36.884 50.2603 36.4914C49.6924 36.0987 49.2489 35.5859 48.9222 34.9609C48.5954 34.3358 48.3931 33.6307 48.2998 32.8374C48.2064 32.0441 48.222 31.2508 48.3464 30.4655C48.4242 29.8806 48.5643 29.3117 48.7588 28.7588C48.9533 28.2059 49.2022 27.7171 49.5056 27.2924C49.8091 26.8677 50.1592 26.5151 50.5559 26.2427C50.9527 25.9702 51.4039 25.834 51.9096 25.834C52.1897 25.834 52.5476 25.8901 52.9755 26.0023C53.4034 26.1144 53.7924 26.2827 54.158 26.483C54.3992 26.2266 54.7182 26.1866 55.1072 26.3548ZM53.948 28.6305C53.7223 28.4863 53.4656 28.294 53.1777 28.0536C52.8821 27.8132 52.6254 27.693 52.4075 27.693C52.1664 27.693 51.9252 27.8052 51.6918 28.0376C51.4584 28.27 51.2561 28.5344 51.085 28.8309C50.9138 29.1354 50.766 29.4399 50.6415 29.7524C50.517 30.0649 50.4392 30.3133 50.4003 30.5056C50.3381 30.8181 50.2992 31.1947 50.2759 31.6274C50.2525 32.0682 50.2836 32.5009 50.3692 32.9256C50.447 33.3502 50.6104 33.7349 50.836 34.0794C51.0694 34.424 51.4195 34.6644 51.8863 34.8166C52.1664 34.8968 52.5009 34.8968 52.8899 34.8006C53.2711 34.7045 53.6523 34.5362 54.0258 34.2878C54.3992 34.0394 54.7571 33.7028 55.0916 33.2861C55.4261 32.8695 55.6829 32.3887 55.8618 31.8518C56.0641 31.2508 56.0719 30.6178 55.8774 29.9607C55.6829 29.3036 55.2939 28.8309 54.7104 28.5424C54.5703 28.6466 54.4303 28.7027 54.2825 28.7027C54.1425 28.6947 54.0335 28.6786 53.948 28.6305Z" fill="#1E1E1E"/>
<path d="M69.4601 26.4748C69.0945 26.6831 68.7133 26.8995 68.3243 27.1319C67.9275 27.3642 67.5385 27.6287 67.1417 27.9252C66.745 28.2297 66.3715 28.5822 66.0214 28.9909C65.6636 29.3996 65.3524 29.8803 65.0645 30.4413C64.66 31.2346 64.3877 32.0439 64.2476 32.8612C64.1076 33.6866 64.0142 34.4959 63.9753 35.2812C63.9753 35.6578 63.8897 36.0344 63.7186 36.419C63.5474 36.8036 63.3063 36.9959 63.0028 36.9959C62.6216 36.9959 62.3104 36.7956 62.077 36.387C61.8436 35.9783 61.688 35.5937 61.6102 35.217C61.2679 33.7346 60.9801 32.2762 60.7622 30.8259C60.5366 29.3755 60.3499 27.9332 60.1865 26.4988C60.1865 26.2104 60.2721 26.018 60.4433 25.9379C60.6144 25.8578 60.8089 25.8257 61.0345 25.8418C61.2757 25.8658 61.5091 25.9219 61.7347 26.0261C61.9603 26.1302 62.0848 26.2985 62.1315 26.5229C62.2093 27.2921 62.3104 28.1014 62.4349 28.9428C62.5594 29.7842 62.6761 30.5134 62.8006 31.1144C62.8784 30.4092 63.104 29.7201 63.4696 29.055C63.8353 28.3899 64.2865 27.7809 64.8233 27.244C65.3601 26.6992 65.967 26.2424 66.6438 25.8658C67.3207 25.4892 68.0131 25.2408 68.7211 25.1126C69.0245 25.0725 69.2734 25.0725 69.4835 25.1126C69.6858 25.1526 69.8258 25.2247 69.9114 25.3289C69.9892 25.4331 70.0047 25.6014 69.9581 25.8257C69.8803 26.0821 69.7169 26.2905 69.4601 26.4748Z" fill="#1E1E1E"/>
<path d="M76.377 24.5117C76.3381 24.72 76.1981 24.8322 75.9491 24.8562C75.7079 24.8803 75.5057 24.8883 75.3423 24.8883C74.8366 24.9123 74.3153 24.9604 73.7785 25.0485C73.2417 25.1287 72.6816 25.2569 72.0981 25.4252C71.8569 25.5053 71.5924 25.4812 71.3123 25.329C71.0322 25.1848 70.8533 24.8883 70.7988 24.4556C70.7988 24.2873 70.8611 24.1511 70.9778 24.0469C71.1022 23.9427 71.2423 23.8466 71.4057 23.7664C71.6702 23.6382 71.9814 23.5341 72.347 23.4379C72.7127 23.3418 73.0783 23.2776 73.4518 23.2376C73.8252 23.1975 74.1831 23.1815 74.5254 23.1895C74.8677 23.1975 75.1556 23.2376 75.3734 23.3017C75.7002 23.4059 75.9569 23.5661 76.1436 23.7745C76.3459 23.9668 76.4159 24.2152 76.377 24.5117ZM75.6768 34.9206C75.8169 35.2572 75.8946 35.6178 75.9024 36.0024C75.9102 36.387 75.8091 36.6515 75.5835 36.7957C75.3034 36.98 74.9922 36.972 74.6732 36.7636C74.3465 36.5553 74.1053 36.2748 73.9419 35.9223C73.7163 35.4816 73.5451 34.9447 73.4284 34.3116C73.3039 33.6786 73.2184 33.0456 73.1561 32.4206C73.0939 31.7955 73.0628 31.2106 73.0472 30.6737C73.0394 30.1288 73.0317 29.7282 73.0317 29.4557C73.055 29.1673 73.1328 28.8948 73.2728 28.6464C73.4129 28.398 73.5996 28.2538 73.8174 28.2057C74.1831 28.2297 74.4709 28.398 74.6966 28.7185C74.9222 29.039 75.0233 29.4397 75 29.9205C75 30.2971 75.0077 30.7138 75.0311 31.1705C75.0544 31.6273 75.0933 32.084 75.1556 32.5488C75.2178 33.0055 75.2878 33.4542 75.3656 33.8789C75.459 34.2956 75.5601 34.6482 75.6768 34.9206Z" fill="#1E1E1E"/>
<path d="M86.2111 25.6975C86.2889 26.2824 86.3589 26.8995 86.4056 27.5565C86.4523 28.2136 86.499 28.8787 86.5301 29.5438C86.5612 30.2088 86.5768 30.8579 86.5768 31.4829C86.5768 32.1079 86.569 32.6689 86.5457 33.1737C87.1914 33.6304 87.5804 34.0391 87.7126 34.3917C87.8449 34.7442 87.8605 35.0568 87.7593 35.3292C87.6348 35.7058 87.417 35.8981 87.1058 35.9061C86.7946 35.9142 86.429 35.81 86.0322 35.5776C85.7521 35.7859 85.4254 36.0103 85.0597 36.2507C84.694 36.4911 84.3128 36.7235 83.9083 36.9398C83.5037 37.1562 83.0992 37.3485 82.6946 37.5168C82.2901 37.685 81.9166 37.7972 81.5743 37.8613C80.9286 37.9655 80.3451 37.8373 79.8316 37.4847C79.3181 37.1321 78.9681 36.6033 78.7813 35.8901C78.6569 35.4093 78.6257 34.9125 78.688 34.4077C78.7502 33.8949 78.898 33.4061 79.147 32.9413C79.3882 32.4685 79.7149 32.0519 80.135 31.6752C80.5474 31.2986 81.0375 31.0102 81.6054 30.8018C81.7455 30.7377 81.94 30.6896 82.1967 30.6416C82.4534 30.6015 82.7102 30.5855 82.9825 30.5935C83.2548 30.6015 83.5348 30.6576 83.8149 30.7618C84.095 30.8659 84.3595 31.0422 84.6007 31.2906C84.6007 30.938 84.5929 30.5454 84.5851 30.1207C84.5774 29.696 84.5618 29.2633 84.5385 28.8226C84.5151 28.3819 84.4918 27.9732 84.4606 27.5886C84.4295 27.2039 84.3984 26.8754 84.3517 26.603C84.3128 26.2905 84.1961 26.0981 84.0016 26.026C83.8071 25.9539 83.5737 25.9699 83.2859 26.0741C82.8035 26.2424 82.2356 26.5629 81.5899 27.0437C80.9441 27.5245 80.3218 28.0373 79.7383 28.5742C79.5593 28.7585 79.3493 28.8466 79.1159 28.8226C78.8825 28.7985 78.688 28.7104 78.5246 28.5421C78.3612 28.3739 78.2679 28.1815 78.2523 27.9652C78.229 27.7488 78.3145 27.5084 78.4935 27.26C78.8358 26.8834 79.2248 26.4988 79.6449 26.1062C80.0728 25.7135 80.5162 25.3529 80.983 25.0244C81.4498 24.7039 81.9244 24.4394 82.4068 24.2311C82.8891 24.0228 83.3792 23.9106 83.8616 23.8865C84.5696 23.8625 85.1142 24.0308 85.5032 24.3673C85.8999 24.7119 86.1333 25.1526 86.2111 25.6975ZM82.6868 32.4124C82.4223 32.4765 82.1422 32.6048 81.8544 32.8051C81.5588 33.0054 81.2942 33.2458 81.0686 33.5263C80.8352 33.8067 80.6641 34.1192 80.5552 34.4638C80.4462 34.8084 80.4384 35.1449 80.5396 35.4814C80.5785 35.6097 80.6641 35.6978 80.7963 35.7619C80.9286 35.826 81.0764 35.834 81.2398 35.794C81.7221 35.6898 82.2745 35.4895 82.8969 35.185C83.5115 34.8805 84.0016 34.5519 84.3673 34.1994C84.3673 34.0711 84.3051 33.9109 84.1884 33.7186C84.0639 33.5182 83.9238 33.3259 83.7605 33.1256C83.5971 32.9253 83.4181 32.757 83.2314 32.6128C83.0292 32.4605 82.8502 32.3964 82.6868 32.4124Z" fill="#1E1E1E"/>
<path d="M92.0688 22.6286C92.17 24.8963 92.3411 27.2522 92.5823 29.6801C92.8235 32.1081 93.088 34.4239 93.3681 36.6355C93.4303 37.549 93.1891 38.0218 92.6368 38.0458C92.5123 38.0458 92.3956 37.9977 92.2711 37.9016C92.1466 37.8054 92.0377 37.6852 91.9366 37.541C91.8354 37.3967 91.7421 37.2365 91.6487 37.0682C91.5554 36.8999 91.5009 36.7557 91.4853 36.6275C91.322 35.5617 91.1741 34.4399 91.0263 33.254C90.8863 32.068 90.754 30.8741 90.6451 29.6721C90.5362 28.4702 90.4351 27.3003 90.3573 26.1544C90.2795 25.0085 90.225 23.9588 90.2017 22.9972C90.2406 22.5004 90.3106 22.0757 90.4117 21.7312C90.5129 21.3866 90.7229 21.2264 91.0497 21.2504C91.392 21.2744 91.6409 21.4107 91.7965 21.6751C91.9599 21.9395 92.0455 22.26 92.0688 22.6286Z" fill="#1E1E1E"/>
</svg>
