<svg width="162" height="160" viewBox="0 0 162 160" fill="none" xmlns="http://www.w3.org/2000/svg">
<path d="M110.17 83.54C108.49 73.68 99.8 65.64 89.53 69.4C88.36 69.83 87.29 70.39 86.31 71.04C84.85 70.45 83.13 70.5 81.36 71.59C72.86 76.85 66.08 87.48 71.62 97.51C76.1 105.62 87.57 108.48 96.04 106.19C105.9 103.53 111.86 93.5 110.17 83.54Z" fill="#F7C300"/>
<path d="M159.54 142.98C156.43 135.37 150.72 128.14 141.65 130.23C133.62 132.08 128.84 140.71 131.31 148.72C133.67 156.39 144.17 159.6 150.99 156.43C154.92 154.6 157.3 151.32 158 147.69C159.53 146.83 160.43 145.16 159.54 142.98ZM145.51 148.73C142.29 148.95 139.56 146.95 139.91 143.63C140.19 140.98 141.67 138.73 144.64 138.78C145.86 138.8 146.94 139.47 147.86 140.42C147.76 141.53 148.06 142.7 148.92 143.76C150.84 146.13 147.69 148.58 145.51 148.73Z" fill="#59C69F"/>
<path d="M34.58 6.78001C26.62 1.13001 18.1 3.80001 10.65 8.91001C2.92004 14.21 2.53004 23.82 5.67004 32.04C7.14004 35.89 9.31004 38.67 12 40.54C16.25 44.44 21.76 46.6 27.87 45.57C37.16 44 43.81 38.46 44.95 28.91C45.95 20.49 41.49 11.68 34.58 6.78001ZM17.39 33.24C16.5 32.31 15.7 31.22 14.99 29.98C14.24 28.68 13.58 27.37 13.22 26.04C13.13 25.65 13.05 25.24 12.98 24.82C12.84 23.58 13 22.32 13.63 21C14.92 18.33 18.46 14.95 21.48 14.72C24.4 14.49 30.59 17.49 32.41 21.17C32.18 21.73 32.07 22.38 32.12 23.13C32.17 23.89 32.24 24.68 32.29 25.48C31.91 26.53 31.95 27.55 32.26 28.45C32.19 29.12 32.07 29.77 31.86 30.39C31.66 31 31.36 31.54 31 32.04C29.52 33.45 27.38 34.3 24.62 34.53C21.55 34.78 19.19 34.4 17.39 33.24Z" fill="#59C69F"/>
<path d="M153.97 53.64C148.62 34.35 134.63 19.2 116.21 11.65C109.07 8.71999 105.96 20.32 113.02 23.22C127.44 29.14 138.26 41.92 142.4 56.83C144.46 64.26 156.05 61.11 153.97 53.64Z" fill="#F7C300"/>
<path d="M46.14 20.85C46.12 19.94 46.03 19.18 45.84 18.54C45.48 17.29 44.79 16.49 43.8 16.17C43.24 15.99 42.7 16.02 42.25 16.04C42.02 16.05 41.83 16.06 41.65 16.04C41.29 16.02 41.05 15.84 41.04 15.78C41.04 15.67 41.36 15.37 41.54 15.21C41.68 15.08 41.82 14.95 41.95 14.82C43.17 13.51 43.12 11.53 42.53 10.15C41.95 8.79 40.88 7.74 39.81 6.82C38.69 5.86 37.51 4.95 36.3 4.12C35.9 3.85 35.47 3.58 34.94 3.49C33.74 3.29 32.82 4.07 32.07 4.71C31.73 4.99 31.44 5.23 31.2 5.38C31.09 4.16 30.77 3.18 30.23 2.4C29.18 0.91 27.26 0.04 24.94 0C23.6 0.01 22.26 0.12 21 0.25L20.78 0.27C20.26 0.32 19.75 0.38 19.25 0.42C17.14 0.58 16.91 2.8 16.76 4.27C16.72 4.7 16.68 5.08 16.6 5.36C16.58 5.45 16.55 5.51 16.5 5.5C16.18 5.43 15.88 5.12 15.53 4.77C15.15 4.38 14.72 3.95 14.13 3.69C13.13 3.25 11.9 3.44 10.75 4.2C9.52004 5.03 8.60004 6.03 7.86004 6.9C7.61004 7.2 7.33004 7.48 7.05004 7.77C6.42004 8.42 5.77004 9.09 5.31004 9.96C4.66004 11.18 4.32004 13.03 5.29004 14.53C5.41004 14.72 5.55004 14.9 5.70004 15.09C5.91004 15.36 6.20004 15.74 6.16004 15.89C6.14004 15.97 5.88004 16.13 5.49004 16.14C5.30004 16.15 5.11004 16.14 4.89004 16.13C4.45004 16.11 3.94004 16.08 3.43004 16.23C2.45004 16.52 1.64004 17.37 1.27004 18.51C0.970042 19.43 0.980042 20.37 0.990042 21.21L1.03004 25.85C1.04004 26.67 1.05004 27.79 1.70004 28.7C2.74004 30.16 4.78004 30.17 5.76004 30.17C5.87004 30.17 6.17004 30.17 6.23004 30.24C6.25004 30.4 6.16004 30.72 5.98004 30.94C5.87004 31.08 5.74004 31.21 5.59004 31.35C5.14004 31.8 4.67004 32.27 4.45004 32.95C4.01004 34.27 4.72004 35.52 5.38004 36.47C6.11004 37.5 6.89004 38.5 7.72004 39.46C8.61004 40.49 9.62004 41.52 10.94 42.1C12.54 42.8 14.3 42.6 15.42 41.6C15.55 41.48 15.68 41.35 15.81 41.22C16.01 41.01 16.27 40.76 16.39 40.73C16.47 40.75 16.68 41.03 16.72 41.48C16.73 41.64 16.74 41.81 16.75 41.97C16.77 42.59 16.8 43.3 17.21 43.95C18 45.18 19.66 45.27 20.37 45.3L26.47 45.6C26.64 45.61 26.82 45.62 27.03 45.62C28.54 45.62 29.55 45.18 30.1 44.27C30.53 43.57 30.52 42.8 30.51 42.13V41.76C30.51 41.26 30.65 40.85 30.83 40.78C31.04 40.69 31.46 41.05 31.86 41.39C32.46 41.9 33.29 42.61 34.31 42.45C34.81 42.39 35.21 42.15 35.59 41.9C37.56 40.59 39.43 39.1 41.15 37.46C43.44 35.27 43.14 33.61 42.76 32.81C42.5 32.27 42.06 31.84 41.71 31.49C41.28 31.06 41 30.77 41.05 30.57C41.09 30.43 41.39 30.24 41.82 30.19C41.99 30.17 42.17 30.16 42.34 30.14C42.84 30.11 43.41 30.07 43.97 29.81C45.09 29.28 45.77 28.06 45.98 26.17C46.2 24.39 46.17 22.59 46.14 20.85ZM36.48 30.87C36.59 31.74 37.14 32.38 37.62 32.94C38.11 33.51 38.4 33.87 38.3 34.21C38.22 34.47 38.01 34.76 37.64 35.1C37.21 35.49 36.74 35.82 36.24 36.18C35.58 36.65 34.85 37.17 34.24 37.82C33.3 37.1 31.72 36.26 31.11 36.26C30.48 36.27 29.95 36.5 29.48 36.7L29.13 36.85C28.53 37.08 26.94 37.69 26.79 39.57C26.77 39.85 26.77 40.13 26.78 40.45C26.79 40.67 26.79 40.89 26.78 41.1C26.77 41.31 26.73 41.38 26.73 41.38C26.7 41.4 26.59 41.45 26.15 41.45C24.4 41.43 22.63 41.32 20.9 41.14C20.83 39.08 19.66 37.31 17.8 36.5C16.98 36.14 16.22 36.06 15.52 36.25C14.83 36.45 14.34 37 13.9 37.5C13.61 37.83 13.26 38.24 13.08 38.25C13.04 38.24 12.91 38.17 12.87 38.15C11.32 37.31 10 36.07 9.05004 34.58C8.90004 34.34 8.75004 34.08 8.74004 33.88C8.73004 33.65 8.97004 33.42 9.36004 33.06C9.56004 32.88 9.75004 32.7 9.91004 32.51C11.02 31.2 10.67 30.19 10.3 29.12L10.2 28.84C10.07 28.47 9.93004 28.05 9.64004 27.65C9.18004 27 8.41004 26.58 7.38004 26.41C7.22004 26.38 7.06004 26.36 6.81004 26.33C6.37004 26.28 5.91004 26.23 5.60004 26.04C5.31004 25.86 5.06004 25.5 4.92004 25.05C4.40004 23.39 4.60004 21.27 5.40004 20C5.59004 19.69 6.11004 19.65 6.93004 19.62C8.05004 19.58 9.93004 19.5 10.35 17.52C10.54 17.02 10.63 16.56 10.64 16.1C10.68 14.78 10.11 13.48 8.90004 12.13C9.78004 11.04 12.35 8.49 12.73 8.24C12.79 8.2 13.03 8.1 13.09 8.1C13.43 8.12 13.73 8.37 14.19 8.78C14.74 9.26 15.48 9.93 16.62 9.95C18.12 9.94 19.57 8.98 20.27 7.49C20.33 7.3 20.75 5.69 20.86 4.5C21.3 4.47 21.77 4.43 22.32 4.38C23.81 4.24 25.66 4.07 26.14 4.55C26.59 5.07 26.83 5.73 27.1 6.49C27.62 7.97 28.27 9.81 30.66 9.96C31.26 10.06 31.83 9.96 32.4 9.65C32.76 9.45 33.1 9.08 33.43 8.72C33.83 8.28 34.1 8 34.3 7.9C36.08 8.5 38.05 10.6 38.63 12.46C38.6 12.57 38.36 12.84 37.94 13.28C37.31 13.92 36.54 14.71 36.61 15.77C36.64 16.25 36.82 16.64 36.97 16.96C37.02 17.07 37.06 17.17 37.1 17.26L37.2 17.55C37.34 17.99 37.48 18.45 37.83 18.86C38.47 19.61 39.39 19.7 40.12 19.78C40.45 19.82 40.75 19.84 41.01 19.92C41.49 20.07 42.05 20.44 42.12 21.89L42.14 22.24C42.31 24.86 42.14 25.75 42.06 26C41.97 26 41.84 25.99 41.76 25.98C40.43 25.88 39.1 26.37 38.1 27.31C37.4 27.95 36.29 29.42 36.48 30.87Z" fill="#1E1E1E"/>
<path d="M29.2201 14.89C28.6201 14.45 27.9801 14.08 27.2901 13.81C26.6401 13.55 25.9401 13.37 25.2201 13.27C22.3101 12.89 19.2001 13.9 16.9501 15.93C14.8401 17.83 13.6901 20.36 13.7101 23.09C13.7401 23.75 13.8401 24.4 13.9901 25C14.6901 28.23 17.3301 31.1 20.5401 32.13C21.1801 32.36 21.8501 32.53 22.5101 32.63C23.0201 32.71 23.5301 32.75 24.0301 32.75C26.3401 32.75 28.5501 31.95 30.2701 30.44C30.6801 30.06 31.0501 29.62 31.3701 29.15C31.6801 28.69 31.9301 28.21 32.1501 27.66C33.4701 23.91 33.5001 18.33 29.2201 14.89ZM26.3801 27.63C26.0101 27.86 25.6101 28.04 25.2001 28.16C24.7401 28.3 24.2601 28.37 23.7901 28.37C21.3301 28.37 19.1901 26.53 18.1701 24.72C17.2501 23 17.6301 20.89 19.1301 19.37C20.3901 18.19 22.0701 17.48 23.6201 17.48C24.9301 17.48 26.0701 17.97 26.9001 18.88C27.9101 20.07 28.4401 21.43 28.5201 23.03C28.5401 23.56 28.5001 24.07 28.4001 24.66C28.3201 25.75 27.5201 26.91 26.3801 27.63Z" fill="#1E1E1E"/>
<path d="M160.98 142.48C160.97 141.84 160.9 141.3 160.77 140.85C160.52 139.96 160.03 139.4 159.33 139.17C158.94 139.04 158.56 139.06 158.23 139.08C158.06 139.08 157.93 139.09 157.81 139.08C157.56 139.06 157.39 138.94 157.38 138.9C157.38 138.82 157.61 138.61 157.73 138.5C157.83 138.41 157.93 138.32 158.02 138.22C158.88 137.29 158.85 135.89 158.43 134.92C158.02 133.96 157.26 133.22 156.51 132.57C155.72 131.89 154.89 131.25 154.03 130.66C153.75 130.47 153.44 130.28 153.07 130.21C152.22 130.07 151.57 130.62 151.04 131.07C150.8 131.27 150.6 131.44 150.42 131.54C150.34 130.68 150.11 129.99 149.73 129.43C149.01 128.39 147.66 127.77 146.01 127.74C145.06 127.75 144.12 127.83 143.23 127.92L143.08 127.94C142.72 127.98 142.35 128.02 142 128.04C140.51 128.16 140.34 129.72 140.24 130.76C140.21 131.06 140.18 131.33 140.13 131.53C140.11 131.59 140.09 131.64 140.06 131.63C139.84 131.58 139.62 131.36 139.38 131.11C139.11 130.84 138.81 130.53 138.39 130.34C137.68 130.03 136.81 130.16 136 130.7C135.13 131.28 134.48 131.99 133.96 132.61C133.78 132.82 133.58 133.02 133.38 133.23C132.94 133.69 132.48 134.16 132.15 134.78C131.69 135.65 131.45 136.95 132.13 138.01C132.22 138.14 132.32 138.27 132.42 138.41C132.57 138.6 132.78 138.87 132.75 138.98C132.74 139.04 132.55 139.15 132.28 139.16C132.15 139.17 132.01 139.16 131.86 139.15C131.55 139.14 131.19 139.12 130.83 139.22C130.13 139.42 129.57 140.03 129.31 140.83C129.1 141.48 129.11 142.14 129.11 142.74L129.14 146.02C129.15 146.6 129.15 147.39 129.61 148.03C130.34 149.06 131.79 149.07 132.48 149.07C132.56 149.07 132.77 149.07 132.81 149.12C132.83 149.23 132.76 149.46 132.63 149.61C132.55 149.71 132.46 149.8 132.36 149.9C132.04 150.22 131.71 150.55 131.55 151.03C131.24 151.96 131.74 152.85 132.21 153.52C132.72 154.25 133.28 154.96 133.86 155.63C134.49 156.36 135.2 157.09 136.14 157.5C137.27 158 138.52 157.85 139.31 157.15C139.4 157.07 139.49 156.97 139.58 156.88C139.72 156.73 139.9 156.56 139.99 156.54C140.04 156.55 140.19 156.75 140.22 157.07C140.23 157.18 140.23 157.3 140.24 157.42C140.26 157.86 140.27 158.36 140.57 158.82C141.13 159.69 142.3 159.75 142.81 159.77L147.13 159.98C147.25 159.99 147.38 159.99 147.52 159.99C148.59 159.99 149.3 159.68 149.69 159.03C149.99 158.53 149.99 157.99 149.98 157.52V157.26C149.98 156.91 150.08 156.62 150.21 156.57C150.36 156.51 150.65 156.76 150.94 157C151.36 157.36 151.95 157.86 152.68 157.75C153.04 157.71 153.31 157.54 153.59 157.36C154.99 156.43 156.31 155.38 157.52 154.22C159.14 152.67 158.93 151.5 158.66 150.93C158.48 150.55 158.16 150.24 157.91 149.99C157.6 149.69 157.41 149.48 157.44 149.34C157.47 149.24 157.68 149.11 157.99 149.07C158.11 149.06 158.24 149.05 158.36 149.04C158.71 149.02 159.12 148.99 159.51 148.81C160.3 148.44 160.78 147.57 160.93 146.24C161.03 144.99 161.01 143.72 160.98 142.48ZM154.16 149.57C154.24 150.19 154.63 150.64 154.97 151.03C155.31 151.43 155.52 151.69 155.45 151.93C155.4 152.12 155.24 152.32 154.98 152.56C154.68 152.84 154.34 153.07 153.99 153.33C153.53 153.66 153 154.03 152.57 154.49C151.91 153.98 150.79 153.39 150.35 153.39C149.91 153.4 149.53 153.56 149.2 153.7L148.95 153.8C148.53 153.96 147.4 154.4 147.29 155.73C147.27 155.93 147.28 156.12 147.28 156.35C147.28 156.51 147.29 156.66 147.28 156.81C147.27 156.96 147.24 157.01 147.24 157.01C147.22 157.02 147.14 157.06 146.83 157.06C145.59 157.04 144.34 156.97 143.11 156.84C143.06 155.38 142.23 154.13 140.92 153.56C140.34 153.31 139.8 153.25 139.31 153.38C138.82 153.52 138.47 153.91 138.17 154.26C137.97 154.49 137.72 154.78 137.59 154.79C137.56 154.78 137.47 154.73 137.44 154.72C136.34 154.13 135.41 153.25 134.74 152.19C134.64 152.02 134.53 151.83 134.52 151.69C134.51 151.53 134.68 151.37 134.96 151.11C135.1 150.98 135.24 150.85 135.35 150.72C136.14 149.79 135.89 149.08 135.63 148.33L135.56 148.13C135.47 147.87 135.37 147.57 135.17 147.29C134.83 146.83 134.29 146.54 133.56 146.42C133.45 146.4 133.34 146.39 133.16 146.37C132.85 146.33 132.52 146.3 132.3 146.16C132.09 146.04 131.92 145.78 131.82 145.46C131.45 144.29 131.6 142.79 132.16 141.89C132.3 141.67 132.66 141.64 133.24 141.62C134.03 141.59 135.36 141.54 135.66 140.14C135.79 139.78 135.86 139.46 135.87 139.14C135.9 138.21 135.5 137.29 134.64 136.33C135.26 135.56 137.08 133.76 137.35 133.58C137.39 133.55 137.56 133.48 137.6 133.48C137.84 133.49 138.05 133.67 138.38 133.96C138.77 134.3 139.29 134.77 140.1 134.79C141.16 134.78 142.19 134.1 142.68 133.05C142.72 132.92 143.02 131.77 143.1 130.94C143.41 130.92 143.74 130.89 144.14 130.86C145.19 130.76 146.5 130.64 146.84 130.98C147.16 131.35 147.33 131.81 147.52 132.35C147.89 133.39 148.35 134.7 150.03 134.8C150.45 134.87 150.86 134.8 151.26 134.58C151.51 134.44 151.75 134.18 151.99 133.92C152.28 133.61 152.47 133.42 152.61 133.34C153.87 133.77 155.26 135.25 155.67 136.56C155.65 136.64 155.48 136.83 155.18 137.14C154.74 137.59 154.19 138.15 154.24 138.9C154.26 139.24 154.39 139.52 154.49 139.74C154.53 139.82 154.56 139.89 154.58 139.95L154.65 140.16C154.75 140.47 154.85 140.8 155.1 141.09C155.55 141.62 156.2 141.68 156.72 141.74C156.96 141.77 157.16 141.78 157.35 141.84C157.69 141.95 158.08 142.21 158.13 143.23L158.14 143.48C158.26 145.33 158.14 145.96 158.08 146.14C158.02 146.14 157.93 146.13 157.86 146.13C156.92 146.06 155.98 146.4 155.27 147.07C154.81 147.5 154.02 148.54 154.16 149.57Z" fill="#1E1E1E"/>
<path d="M149.02 138.27C148.6 137.96 148.14 137.7 147.66 137.5C147.2 137.31 146.71 137.19 146.19 137.12C144.13 136.85 141.93 137.57 140.34 139C138.85 140.34 138.04 142.13 138.05 144.06C138.07 144.53 138.14 144.99 138.25 145.41C138.75 147.69 140.61 149.72 142.88 150.45C143.33 150.62 143.8 150.73 144.27 150.81C144.63 150.86 144.99 150.89 145.34 150.89C146.97 150.89 148.54 150.32 149.76 149.26C150.05 148.99 150.31 148.68 150.54 148.35C150.76 148.03 150.94 147.69 151.09 147.29C152.03 144.65 152.05 140.7 149.02 138.27ZM147.02 147.28C146.76 147.45 146.48 147.57 146.18 147.66C145.85 147.76 145.52 147.81 145.18 147.81C143.44 147.81 141.93 146.51 141.21 145.23C140.56 144.01 140.83 142.52 141.89 141.45C142.78 140.61 143.97 140.11 145.06 140.11C145.98 140.11 146.79 140.46 147.38 141.1C148.09 141.94 148.47 142.9 148.53 144.04C148.54 144.41 148.52 144.78 148.45 145.2C148.38 145.95 147.82 146.77 147.02 147.28Z" fill="#1E1E1E"/>
<path d="M141.55 79.86C141.54 79.71 141.56 79.57 141.6 79.44C141.55 77.42 141.34 75.75 140.94 74.37C139.97 71.01 138.22 70.45 137.64 70.26C136.73 69.97 135.69 70.02 134.68 70.07L134.32 70.08C133.73 70.1 133.23 70.11 132.73 70.07C130.96 69.95 128.92 69.02 128.36 67.2L128.23 66.79L128.22 66.36C128.17 64.65 129.35 63.56 130.5 62.5C130.85 62.18 131.16 61.9 131.43 61.6C133.66 59.2 133.48 55.31 132.36 52.72C131.08 49.73 128.57 47.3 126.05 45.12C123.2 42.66 120.2 40.35 117.12 38.24C116.34 37.71 115.57 37.21 114.8 37.09C113.2 36.82 111.78 37.9 109.8 39.58C108.86 40.37 107.95 41.13 107.05 41.65L102.83 44.08L102.38 39.23C102.13 36.58 101.48 34.51 100.36 32.9C98.2701 29.87 94.1601 28.08 89.0801 27.99C85.5101 28.02 81.8901 28.35 79.1301 28.63L78.3501 28.71C77.0401 28.84 75.7501 28.98 74.4601 29.08C72.2001 29.25 71.3401 30.96 70.7801 36.39L70.7601 36.56C70.6401 37.73 70.5301 38.83 70.2601 39.78C69.6801 41.85 67.9901 42.6 66.5701 42.41L66.3001 42.36C64.5801 41.97 63.3901 40.77 62.2501 39.6C61.3501 38.68 60.5301 37.84 59.5201 37.4C57.9101 36.69 55.7601 37.09 53.6401 38.5C50.7301 40.44 48.5101 42.87 46.7301 44.98C45.9601 45.88 45.1501 46.71 44.4401 47.44C42.8701 49.06 41.4101 50.56 40.4201 52.45C39.1301 54.89 38.4101 58.49 40.2201 61.29C40.4901 61.71 40.8101 62.12 41.1301 62.53C42.2001 63.91 43.4101 65.47 42.9001 67.36C42.4001 69.32 40.1901 70.28 38.2201 70.34C37.7301 70.36 37.1801 70.34 36.5601 70.31L36.4101 70.3C35.4501 70.25 34.4601 70.21 33.6301 70.45C32.0401 70.91 30.7101 72.39 30.0601 74.4C29.4401 76.32 29.4601 78.43 29.4801 80.47L29.6001 92.65C29.6201 94.48 29.6501 96.75 30.7701 98.33C32.5601 100.85 36.6801 100.87 38.8901 100.89C39.7501 100.89 41.3701 100.89 42.4601 102.15L43.0601 102.84L43.1901 103.75C43.4201 105.3 42.6801 107.01 41.8501 108.02C41.4801 108.48 41.0801 108.88 40.6601 109.31C39.6201 110.35 38.7501 111.23 38.3901 112.31C37.8201 114.01 38.4301 115.93 40.4201 118.75C42.2801 121.38 44.2801 123.93 46.3601 126.34C48.4601 128.77 50.8101 131.19 53.6901 132.44C56.7201 133.77 60.1001 133.46 62.1101 131.66C62.4101 131.39 62.6801 131.11 62.9601 130.83C64.0901 129.66 64.9501 128.93 66.0301 128.68L66.7101 128.52L67.3901 128.67C69.4201 129.11 70.5201 131.37 70.7101 133.42C70.7501 133.88 70.7701 134.34 70.7901 134.8C70.8401 136.3 70.8901 137.53 71.5201 138.52C72.7201 140.39 75.9501 140.55 77.3201 140.61L93.4601 141.4C93.8201 141.42 94.2101 141.44 94.6401 141.44C98.3501 141.44 99.4901 140.28 100.01 139.4C100.67 138.31 100.66 136.92 100.64 135.45V134.47C100.67 131.65 101.7 129.66 103.47 128.97C105.68 128.01 107.66 129.68 109.25 131.02L109.39 131.14C110.57 132.14 112.01 133.37 113.28 133.19C113.98 133.1 114.53 132.8 115.41 132.22C120.43 128.89 125.19 125.09 129.55 120.93C132.95 117.69 134.21 114.65 133.11 112.36C132.67 111.44 131.77 110.55 130.97 109.77C129.47 108.29 127.79 106.63 128.4 104.33C128.93 102.27 131.15 101.27 133.05 101.02C133.59 100.95 134.1 100.92 134.61 100.88C135.77 100.8 136.84 100.73 137.78 100.3C139.66 99.42 140.84 97.04 141.27 93.24C141.75 88.99 141.7 84.63 141.63 80.39C141.6 80.19 141.57 80.03 141.55 79.86ZM137.01 93.99L136.32 96.24L133.97 96.2C133.71 96.2 133.31 96.17 133.03 96.15C130.39 95.97 127.76 96.92 125.77 98.79C124.34 100.12 122.2 103.1 122.51 105.45V105.46C122.69 106.82 123.7 107.99 124.77 109.24C126.25 110.96 127.92 112.91 127.2 115.47C126.82 116.78 125.98 117.98 124.56 119.27C123.32 120.4 122.03 121.31 120.67 122.28C119 123.47 117.2 124.75 115.81 126.23L113.88 128.31L111.63 126.59C109.4 124.88 106.24 123.32 105.27 123.15C104.28 123.2 103.31 123.61 102.28 124.05L101.32 124.45C99.2101 125.26 97.3001 126.35 97.0801 128.96C97.0801 129.02 97.0801 129.09 97.0701 129.15C96.9201 129.82 96.8501 130.5 96.7801 131.2C96.7701 131.27 96.7601 131.41 96.7501 131.44C96.7401 131.54 96.7201 131.63 96.7001 131.73C96.6501 132.01 96.5901 132.29 96.5201 132.57C96.3801 133.13 96.2101 133.67 96.0001 134.2C95.9901 134.24 95.9801 134.26 95.9701 134.27C95.9201 134.38 95.8701 134.5 95.8101 134.61C95.7101 134.83 95.5901 135.05 95.4501 135.25C95.4301 135.26 95.3401 135.35 95.3001 135.4C95.2901 135.41 95.3001 135.4 95.3001 135.41C95.0801 135.54 94.8701 135.68 94.6501 135.81C94.1801 136.08 93.7001 136.32 93.2101 136.55C93.0901 136.61 92.9601 136.66 92.8401 136.72C92.8201 136.73 92.7801 136.74 92.7401 136.76C92.5801 136.76 92.4301 136.78 92.2601 136.78C87.5001 136.72 82.7701 136.44 78.1401 135.94L75.4401 135.65L75.3501 132.93C75.2101 128.69 72.8801 125.17 69.1001 123.53C67.6201 122.88 66.3101 122.71 65.2001 123.02C64.2901 123.28 63.3701 124.33 62.4801 125.34C61.1901 126.83 59.9501 128.25 58.1601 128.36L57.6001 128.4L57.0601 128.24C56.8201 128.17 56.5101 128.05 55.8901 127.7C51.4001 125.28 47.5401 121.66 44.7701 117.26C44.1301 116.23 43.5401 115.12 43.4901 113.88C43.4001 111.79 44.8601 110.47 46.1401 109.3C46.6001 108.88 47.0101 108.49 47.3001 108.15C49.0701 106.07 48.6801 104.97 47.7601 102.31L47.5001 101.56C47.2101 100.7 46.9401 99.92 46.4701 99.26C45.7201 98.25 44.3901 97.57 42.5101 97.26C42.1401 97.2 41.7601 97.15 41.1601 97.08C39.7501 96.92 38.1301 96.73 36.7301 95.87C35.3201 95.02 34.2001 93.48 33.5901 91.53C31.9601 86.31 32.6101 79.8 35.1901 75.7C36.6001 73.44 39.3301 73.33 41.7301 73.23C45.5001 73.08 47.2601 72.61 47.7801 70.2L47.9001 69.78C48.2701 68.77 48.4501 67.92 48.4801 67.04C48.5701 64.41 47.3301 61.73 44.7101 58.82L42.9301 56.84L44.6001 54.77C46.8301 52 53.8801 44.9 55.3801 43.91L55.5801 43.79C56.0101 43.55 57.1101 43.02 58.1301 43.04C60.2401 43.17 61.6401 44.41 62.9901 45.61C64.2301 46.71 65.5201 47.85 67.3501 47.89C69.9501 47.86 72.6101 46.08 73.9401 43.42C74.1801 42.56 75.0501 38.99 75.2901 36.43L75.5401 33.75L78.2201 33.59C79.3401 33.53 80.5001 33.42 81.8901 33.29C88.1201 32.7 92.3201 32.47 94.4701 34.63L94.6101 34.78C96.1901 36.58 96.9201 38.65 97.7001 40.84C99.2001 45.08 100.31 47.66 104.29 47.9L104.62 47.94C105.5 48.09 106.28 47.94 107.15 47.47C107.65 47.19 108.43 46.34 109.05 45.66C110.36 44.23 111.25 43.36 112.19 42.86L113.38 42.23L114.66 42.66C120.19 44.54 126.17 50.81 128 56.64L128.29 57.55L128.02 58.47C127.75 59.37 127.18 60.14 125.45 61.91C124.18 63.2 122.75 64.65 122.85 66.03C122.9 66.72 123.21 67.41 123.51 68.08C123.67 68.44 123.8 68.74 123.92 69.03L124.22 69.92C124.55 70.97 124.79 71.73 125.29 72.32C126.09 73.25 127.37 73.45 129.24 73.64L129.46 73.66C130.35 73.75 131.27 73.85 132.21 74.15C135.37 75.17 137.07 77.86 137.28 82.14L137.33 83.03C137.69 88.43 137.58 92.13 137.01 93.99Z" fill="#1E1E1E"/>
<path d="M98.45 66.43C97.12 65.44 95.67 64.63 94.14 64.01C92.71 63.43 91.16 63.02 89.54 62.8L89.46 62.79C88.52 62.67 87.58 62.61 86.63 62.61C80.75 62.61 74.8 64.9 70.26 68.99C65.4 73.36 62.76 79.2 62.8 85.43C62.87 86.84 63.08 88.31 63.43 89.68C65.07 97.21 71.12 103.79 78.53 106.17C80.13 106.75 81.67 107.14 83.22 107.38C89.76 108.38 96.3 106.52 101.06 102.37C101.91 101.58 102.72 100.63 103.41 99.6C104.09 98.6 104.63 97.56 105.13 96.33C108.21 87.49 108.31 74.38 98.45 66.43ZM101.32 90C100.94 93.79 98.37 97.61 94.58 100H94.57C93.35 100.77 92.04 101.36 90.68 101.75C89.22 102.2 87.67 102.43 86.1 102.43C78.38 102.43 71.77 96.82 68.64 91.27C65.52 85.47 66.72 78.52 71.66 73.5L71.75 73.41C75.63 69.77 80.83 67.6 85.66 67.6C89.93 67.6 93.8 69.26 96.58 72.29L96.67 72.39C99.76 76.06 101.4 80.23 101.66 85.14C101.71 86.78 101.6 88.31 101.32 90Z" fill="#1E1E1E"/>
<path d="M154.16 66.25C150.73 45.35 137.23 26.84 118.37 17.2C113.1 14.51 107.5 12.49 101.71 11.24C98.57 10.57 97.23 15.38 100.38 16.06C119.89 20.25 136.36 33.51 144.6 51.68C146.89 56.72 148.43 62.11 149.33 67.57C149.55 68.9 151.2 69.65 152.41 69.32C153.83 68.93 154.37 67.58 154.16 66.25Z" fill="#1E1E1E"/>
<path d="M147.98 24.93C143.1 17.55 135.77 11.87 127.47 8.86C124.44 7.76 122.7 12.45 125.73 13.55C133.3 16.3 139.71 21.44 144.16 28.15C144.91 29.28 146.73 29.26 147.68 28.46C148.8 27.5 148.73 26.06 147.98 24.93Z" fill="#1E1E1E"/>
<path d="M74.1501 146.44C73.0201 146.46 71.8801 146.48 70.7501 146.43C70.2701 146.41 69.7901 146.37 69.3201 146.31C69.2101 146.29 69.0201 146.27 68.9601 146.25C68.6701 146.2 68.3701 146.14 68.0801 146.06C67.0701 145.81 66.1201 145.39 65.1401 145.02C64.9301 144.94 64.7301 144.87 64.5201 144.8C64.4801 144.42 64.3501 144.04 64.1401 143.7C63.8701 142.57 63.3901 141.49 62.5801 140.63C61.1501 139.11 59.0901 138.77 57.1901 139.55C56.8201 139.7 56.2801 140.09 55.8801 140.14C55.8501 140.14 55.8401 140.15 55.8301 140.15C55.8101 140.13 55.7601 140.11 55.6501 140.07C54.8101 139.79 53.8601 138.75 53.1901 138.21C51.5701 136.91 49.9901 135.57 48.4501 134.18C45.2501 131.31 42.2201 128.26 39.3601 125.05C38.0401 123.57 36.6901 122.07 35.5201 120.47C34.4501 119.02 33.2201 117.23 33.2601 115.34C33.3001 113.48 34.5501 111.91 34.4901 109.99C34.4201 107.82 32.9401 106.31 31.0001 105.58C29.6801 105.08 28.1601 105.11 26.9401 104.35C25.6301 103.53 24.7501 102.12 24.2701 100.67C23.6201 98.7 23.4601 96.66 23.3401 94.6C23.2001 92.27 23.1401 89.94 23.1701 87.61C23.2101 83.09 23.5401 78.57 24.2101 74.1C24.5201 72.02 24.7601 69.79 25.5401 67.82C26.1501 66.27 26.7401 65.88 28.2801 65.61C31.0001 65.14 32.4401 62.68 31.6501 60.06C31.3601 59.11 30.7501 58.23 30.6501 57.22C30.5601 56.3 30.9201 55.53 31.4301 54.8C32.2001 53.69 31.6301 52.02 30.5301 51.38C29.2801 50.65 27.8901 51.17 27.1101 52.28C25.8501 54.08 25.4501 56.27 25.8001 58.41C25.9401 59.28 26.3101 60.02 26.6301 60.82C26.3601 60.87 26.1201 60.92 26.0601 60.93C22.4201 61.78 20.7501 65.56 20.0701 68.88C18.2201 77.91 17.6701 87.49 18.5101 96.67C18.8901 100.81 19.9401 105.14 23.3501 107.86C24.8701 109.07 26.5001 109.58 28.3601 110.01C28.6901 110.09 29.0801 110.26 29.4201 110.29C29.3601 110.28 29.4401 110.34 29.5101 110.37C29.4001 110.84 29.2401 111.29 29.0701 111.74C27.4201 116.15 29.0301 120.12 31.7701 123.69C34.3701 127.08 37.2701 130.26 40.2801 133.28C43.6801 136.69 47.2901 139.89 51.0901 142.85C52.1001 143.64 53.1001 144.52 54.3301 144.92C55.7001 145.37 57.0001 145.1 58.2801 144.53C58.5201 144.42 58.7901 144.26 59.0501 144.17C59.2901 144.55 59.4201 145.19 59.4601 145.67C59.4601 145.7 59.4701 145.74 59.4701 145.77C59.4701 145.78 59.4701 145.79 59.4701 145.79C59.4901 146.22 59.6101 146.58 59.7801 146.89C60.1801 147.79 60.8901 148.56 61.7401 149.01C62.4101 149.36 63.1401 149.57 63.8401 149.84C64.4601 150.08 65.0701 150.34 65.7001 150.56C68.4101 151.5 71.3501 151.48 74.1801 151.43C75.4901 151.41 76.7401 150.3 76.6801 148.93C76.5901 147.61 75.5501 146.41 74.1501 146.44Z" fill="#1E1E1E"/>
<path d="M17.78 120.13C17.09 119.06 15.51 118.44 14.36 119.23C12.19 120.73 9.88005 122 7.46005 123.04C7.28005 123.11 7.11005 123.19 6.93005 123.26C6.30005 123.51 5.79005 123.81 5.44005 124.41C5.13005 124.95 4.99005 125.74 5.19005 126.34C5.39005 126.94 5.76005 127.53 6.34005 127.83C6.90005 128.12 7.65005 128.32 8.27005 128.08C11.31 126.88 14.2 125.41 16.89 123.55C17.43 123.17 17.86 122.71 18.04 122.06C18.2 121.45 18.12 120.66 17.78 120.13Z" fill="#F7C300"/>
<path d="M26.8 132.05C25.79 131.12 24.27 131.08 23.26 132.05C22.44 132.84 21.6 133.61 20.73 134.35C20.3 134.72 19.86 135.09 19.42 135.44C19.19 135.63 18.96 135.81 18.72 135.99C18.6 136.09 18.46 136.18 18.34 136.28C16.49 137.67 14.55 138.94 12.55 140.09C11.42 140.74 10.92 142.38 11.65 143.51C12.39 144.65 13.86 145.11 15.07 144.41C19.32 141.96 23.27 138.98 26.79 135.57C27.74 134.67 27.78 132.95 26.8 132.05Z" fill="#F7C300"/>
<path d="M38.16 141C38 140.42 37.55 139.79 37.01 139.51C35.8 138.87 34.31 139.21 33.59 140.41C32.41 142.36 31.22 144.31 30.04 146.26C29.71 146.81 29.62 147.57 29.79 148.19C29.95 148.77 30.4 149.4 30.94 149.68C32.15 150.32 33.64 149.98 34.36 148.78C35.54 146.83 36.72 144.88 37.91 142.93C38.24 142.38 38.33 141.62 38.16 141Z" fill="#F7C300"/>
<path d="M134 85.78C133.97 85.57 133.94 85.36 133.91 85.14C133.85 84.93 133.74 84.71 133.66 84.53C133.56 84.29 133.52 84.16 133.44 84.01C133.44 84.04 132.85 83.17 132.64 82.95C132.49 82.8 132.23 82.62 132.12 82.54C131.97 82.42 131.77 82.26 131.59 82.14C131.52 82.1 131.45 82.06 131.38 82.03C131.03 81.87 130.56 81.6 130.12 81.52C129.72 81.47 129.32 81.41 128.92 81.36C128.7 81.36 128.49 81.39 128.28 81.44C128.06 81.45 127.85 81.48 127.64 81.53C127.28 81.68 126.92 81.83 126.57 81.98C126.38 82.07 126.22 82.19 126.08 82.35C125.91 82.46 125.75 82.58 125.6 82.72C125.37 83.02 125.13 83.33 124.9 83.63C124.81 83.81 124.73 84 124.66 84.19C124.55 84.37 124.47 84.56 124.43 84.76C124.38 85.16 124.32 85.56 124.27 85.96C124.27 86.17 124.3 86.38 124.35 86.59C124.36 86.8 124.39 87.01 124.44 87.22C124.59 87.58 124.74 87.94 124.89 88.29C124.97 88.47 125.09 88.63 125.25 88.77C125.37 88.93 125.49 89.09 125.62 89.25C125.63 89.25 125.63 89.26 125.64 89.26C125.74 89.39 125.81 89.49 125.93 89.61C125.95 89.63 126.57 90.15 126.9 90.35C127.99 91.04 129.4 91.16 130.63 90.85C131.06 90.74 131.47 90.56 131.85 90.34C132.15 90.11 132.46 89.87 132.76 89.64C133.2 89.23 133.51 88.75 133.69 88.19C133.95 87.56 134.11 87.2 134.08 86.42C134.08 86.2 134.06 85.99 134 85.78Z" fill="#59C69F"/>
<path d="M133.4 83.93C133.42 83.96 133.43 83.99 133.45 84.02C133.45 84.01 133.43 83.98 133.4 83.93Z" fill="#59C69F"/>
<path d="M119.52 55.62C119.52 55.21 119.42 54.84 119.21 54.48C119.1 54.1 118.91 53.77 118.63 53.49C118.53 53.34 118.41 53.22 118.29 53.09C118.06 52.8 117.8 52.53 117.48 52.33C117.12 52 116.7 51.78 116.23 51.63C116.2 51.61 116.17 51.59 116.15 51.58C115.63 51.25 115.08 51.07 114.48 51.05C113.88 50.92 113.28 50.94 112.69 51.13C112.1 51.27 111.59 51.54 111.16 51.94C110.67 52.26 110.28 52.68 110 53.2C109.45 54.24 109.17 55.51 109.55 56.67C109.89 57.72 110.53 58.68 111.49 59.27C111.51 59.29 111.52 59.31 111.54 59.33C111.7 59.47 111.87 59.6 112.05 59.73C112.63 60.18 112.43 60.06 113.1 60.34C113.79 60.63 113.55 60.57 114.3 60.67C114.54 60.7 114.77 60.75 115 60.76C115.21 60.75 115.42 60.72 115.63 60.68C115.86 60.68 116.08 60.65 116.29 60.58C116.65 60.43 117.01 60.28 117.36 60.13L118.27 59.43C118.5 59.13 118.74 58.82 118.97 58.52C119.3 58 119.48 57.45 119.5 56.85C119.63 56.42 119.63 56.02 119.52 55.62Z" fill="#59C69F"/>
<path d="M90.7301 44.3C90.7301 43.89 90.6301 43.52 90.4201 43.16C90.2401 42.6 89.9301 42.12 89.4901 41.71C89.1801 41.43 88.8401 41.2 88.4801 40.99C88.3601 40.9 88.2501 40.81 88.1201 40.73C87.6001 40.4 87.0501 40.22 86.4501 40.2C85.8501 40.07 85.2501 40.09 84.6601 40.28C84.5201 40.33 84.3801 40.39 84.2401 40.45C83.9301 40.51 83.6201 40.62 83.3301 40.77C82.7701 40.95 82.2901 41.26 81.8801 41.7C81.4401 42.11 81.1301 42.59 80.9501 43.15C80.6701 43.69 80.5401 44.26 80.5601 44.88C80.6101 46.04 80.9901 47.25 81.8801 48.06C82.7601 48.87 83.8401 49.37 85.0601 49.38C85.3701 49.38 85.6801 49.38 85.9901 49.38C86.4801 49.39 86.9501 49.33 87.5101 49.22C88.1001 49.08 88.6101 48.81 89.0401 48.41C89.5301 48.09 89.9201 47.67 90.2001 47.15C90.3501 46.79 90.5001 46.43 90.6501 46.07C90.8401 45.5 90.8701 44.9 90.7301 44.3Z" fill="#59C69F"/>
<path d="M63.74 56.6C63.56 56.04 63.25 55.56 62.81 55.15C62.51 54.92 62.2 54.68 61.9 54.45C61.44 54.19 60.96 54.01 60.46 53.92C60.41 53.9 60.36 53.88 60.31 53.86C59.91 53.81 59.51 53.75 59.11 53.7C58.3 53.7 57.54 53.91 56.84 54.31L55.93 55.01C55.37 55.57 54.99 56.23 54.77 57C54.65 57.33 54.63 57.68 54.59 58.03C54.54 58.38 54.47 58.72 54.5 59.07C54.55 59.47 54.61 59.87 54.66 60.27C54.81 60.63 54.96 60.99 55.11 61.35C55.34 61.65 55.58 61.96 55.81 62.26C56.22 62.7 56.7 63.01 57.26 63.19C57.61 63.39 57.99 63.5 58.4 63.5C58.8 63.61 59.2 63.61 59.6 63.5C60.01 63.5 60.38 63.4 60.74 63.19C61.3 63.01 61.78 62.7 62.19 62.26L62.82 61.52C63.26 61.11 63.57 60.63 63.75 60.07C64.03 59.53 64.16 58.96 64.14 58.34C64.16 57.71 64.03 57.13 63.74 56.6Z" fill="#59C69F"/>
<path d="M53.1 84.66C53.1 84.44 53.07 84.23 53.01 84.02C52.86 83.66 52.71 83.3 52.56 82.95C52.55 82.92 52.53 82.89 52.51 82.87C52.28 82.57 52.04 82.26 51.81 81.96C51.79 81.93 51.77 81.91 51.74 81.89C51.61 81.79 51.48 81.69 51.35 81.59C51.34 81.58 51.33 81.57 51.32 81.56C50.66 80.92 50.03 80.62 49.18 80.31C48.28 79.98 47.23 80.05 46.32 80.27C45.73 80.41 45.22 80.68 44.79 81.08C44.3 81.4 43.91 81.82 43.63 82.34C43.3 82.86 43.12 83.41 43.1 84.01C42.97 84.61 42.99 85.21 43.18 85.8C43.33 86.16 43.48 86.52 43.63 86.88C43.71 87.02 43.83 87.13 43.92 87.26C44.02 87.52 44.12 87.78 44.26 88.03C44.66 88.71 45.2 89.24 45.87 89.64C46.39 89.97 46.94 90.15 47.54 90.17C48.14 90.3 48.74 90.28 49.33 90.09C49.91 89.93 50.43 89.66 50.89 89.3C51.22 89.11 51.52 88.88 51.79 88.6C52.05 88.28 52.34 87.97 52.54 87.61C52.92 86.96 53.19 86.06 53.16 85.3C53.17 85.09 53.15 84.87 53.1 84.66Z" fill="#59C69F"/>
<path d="M62.83 111.61C62.28 110.68 61.21 109.79 60.14 109.54C58.99 109.28 57.7 109.33 56.67 109.99C56.46 110.13 56.26 110.28 56.08 110.44C56.04 110.45 56 110.45 55.96 110.46C55.84 110.49 55.72 110.52 55.59 110.55C54.88 110.73 54.12 111.19 53.6 111.71C52.9 112.41 52.49 113.32 52.36 114.29C52.25 115.11 52.34 115.86 52.67 116.62C53.01 117.43 53.67 118.41 54.51 118.77C55.54 119.21 56.25 119.53 57.41 119.52C58.49 119.5 59.36 119.24 60.31 118.77C61.77 118.04 62.83 116.62 63.28 115.07C63.61 113.97 63.41 112.6 62.83 111.61Z" fill="#59C69F"/>
<path d="M90.2701 125.81C89.9601 125.01 89.8501 124.73 89.5201 124.29C89.3501 124 89.1501 123.73 88.9001 123.49C88.4901 123.05 88.0101 122.74 87.4501 122.56C86.9101 122.28 86.3401 122.15 85.7201 122.17C85.6701 122.18 85.6301 122.18 85.5801 122.19C85.3801 122.2 85.1801 122.22 84.9901 122.26C84.9401 122.26 84.8901 122.28 84.8401 122.29C84.7301 122.3 84.6301 122.32 84.5201 122.33C84.4901 122.34 84.4701 122.35 84.4401 122.36C84.0501 122.44 83.6601 122.57 83.3101 122.8C82.7901 123.08 82.3601 123.47 82.0501 123.96C81.6501 124.39 81.3801 124.9 81.2401 125.49L81.0801 126.69C81.0801 127.5 81.2901 128.26 81.6901 128.96C81.7701 129.06 81.8501 129.17 81.9301 129.27C81.9401 129.29 81.9601 129.31 81.9701 129.34C82.0001 129.38 82.4701 130.11 82.7801 130.36L83.6901 131.06C84.0501 131.21 84.4101 131.36 84.7601 131.51L85.9601 131.67C86.5801 131.69 87.1601 131.56 87.6901 131.28C88.0701 131.17 88.4001 130.98 88.6801 130.7C89.0201 130.5 89.2901 130.23 89.4901 129.89C89.7701 129.61 89.9601 129.28 90.0701 128.9C90.3501 128.36 90.4801 127.79 90.4601 127.17C90.4201 126.73 90.4301 126.24 90.2701 125.81Z" fill="#F7C300"/>
<path d="M118.24 114.1C118.21 113.5 118.03 112.94 117.71 112.43C117.64 112.26 117.54 112.1 117.43 111.95C117.38 111.85 117.35 111.74 117.28 111.64C117 111.12 116.61 110.69 116.12 110.38C115.69 109.98 115.18 109.71 114.59 109.57C114.19 109.52 113.79 109.46 113.39 109.41C112.86 109.41 112.35 109.51 111.87 109.68C111.75 109.7 111.63 109.72 111.51 109.74C110.92 109.88 110.41 110.15 109.98 110.55C109.49 110.87 109.1 111.29 108.82 111.81C108.49 112.33 108.31 112.88 108.29 113.48C108.16 114.08 108.18 114.68 108.37 115.27C108.52 115.63 108.67 115.99 108.82 116.34C109.22 117.02 109.76 117.55 110.43 117.95L110.91 118.15C111.42 118.53 111.99 118.83 112.62 119.02C113.02 119.07 113.42 119.13 113.82 119.18C114.22 119.13 114.62 119.07 115.02 119.02C115.38 118.87 115.74 118.72 116.09 118.57C116.61 118.29 117.04 117.9 117.35 117.41C117.63 117.13 117.82 116.8 117.93 116.42C118.13 116.07 118.24 115.69 118.24 115.28C118.35 114.89 118.35 114.5 118.24 114.1Z" fill="#59C69F"/>
</svg>
