<svg width="160" height="162" viewBox="0 0 160 162" fill="none" xmlns="http://www.w3.org/2000/svg">
<path d="M140.902 146.388C97.9961 145.785 54.9299 146.127 12.1043 143.034C6.95397 142.662 6.98403 150.696 12.1043 151.068C54.9299 154.161 97.986 153.819 140.902 154.422C146.062 154.492 146.062 146.458 140.902 146.388Z" fill="#59C69F"/>
<path d="M103.387 98.4943C100.912 85.2782 84.9499 71.3389 71.0922 77.7863C65.6413 80.3171 64.2184 84.3542 64.0381 89.1546C63.7375 89.3957 63.4569 89.6869 63.2064 90.0384C55.1303 101.397 61.513 117.636 75.4208 119.865C88.7375 121.984 106.413 114.623 103.387 98.4943Z" fill="#F7C300"/>
<path d="M75.8718 46.0414C58.3568 45.8807 40.8417 46.1318 23.3367 46.7645C18.1964 46.9553 18.1664 54.9895 23.3367 54.7986C40.8417 54.1559 58.3568 53.9149 75.8718 54.0756C81.0321 54.1157 81.0321 46.0816 75.8718 46.0414Z" fill="#F7C300"/>
<path d="M39.0081 59.0065C36.433 59.0065 36.4229 63.0236 39.0081 63.0236C41.5933 63.0236 41.5933 59.0065 39.0081 59.0065Z" fill="#59C69F"/>
<path d="M27.5051 59.0065C24.9299 59.0065 24.9199 63.0236 27.5051 63.0236C30.0902 63.0236 30.0902 59.0065 27.5051 59.0065Z" fill="#59C69F"/>
<path d="M15.7515 59.5287C13.1764 59.5287 13.1664 63.5458 15.7515 63.5458C18.3267 63.5458 18.3267 59.5287 15.7515 59.5287Z" fill="#59C69F"/>
<path d="M132.595 8.14036C132.475 6.96536 132.515 5.54935 131.854 4.52499C131.112 3.37008 129.729 3.00855 128.527 2.5265C127.315 2.04445 126.102 1.55236 124.89 1.07031C124.198 0.789115 123.287 1.37159 123.136 2.07458C122.946 2.89808 123.387 3.54081 124.138 3.83205C125.18 4.2438 126.212 4.66559 127.255 5.07734C127.776 5.28824 128.297 5.48909 128.818 5.69999C128.798 5.68994 129.188 5.86067 129.098 5.81046C129.008 5.77029 129.329 5.94101 129.329 5.93097C129.349 5.94101 129.379 5.9611 129.409 5.98118C129.419 5.99122 129.429 6.00127 129.439 6.01131C129.439 6.01131 129.449 6.0314 129.469 6.07157C129.469 6.08161 129.469 6.08161 129.469 6.08161C129.469 6.09165 129.469 6.10169 129.479 6.11174C129.509 6.23225 129.539 6.34272 129.559 6.45319C129.569 6.48332 129.569 6.51344 129.579 6.53353C129.599 6.66408 129.609 6.7846 129.619 6.91515C129.679 7.4675 129.739 8.01985 129.79 8.57219C129.9 9.70702 130 10.8519 130.09 11.9867C130.15 12.7299 130.701 13.4529 131.523 13.4228C132.244 13.3927 133.016 12.7901 132.956 11.9867C132.836 10.7314 132.725 9.43586 132.595 8.14036Z" fill="#F7C300"/>
<path d="M153.287 139.941C152.856 138.966 152.154 138.545 151.162 138.253C150.581 138.083 150 137.942 149.409 137.801C129.329 137.611 109.038 136.857 89.0581 135.542C88.1462 135.492 87.6553 135.933 87.5851 136.888C87.535 137.591 87.8356 138.956 89.3286 139.047C108.537 140.312 128.337 141.055 148.186 141.266C148.737 141.266 149.268 141.497 149.639 141.899C150.01 142.29 150.2 142.823 150.15 143.355L150.12 143.807C150.1 144.108 150.08 144.42 150.04 144.721C149.89 145.675 149.709 146.569 149.499 147.432C149.279 148.316 148.447 148.899 147.505 148.909L8.55707 145.233C8.38673 145.223 8.20637 145.233 8.02601 145.233C7.51498 145.243 6.93382 145.253 6.33262 145.163C5.5711 145.052 4.94985 144.53 4.72941 143.817C4.45887 142.953 4.37871 142.06 4.29855 141.266C4.26849 140.965 4.23843 140.664 4.20837 140.392C4.15827 140.031 4.11819 139.679 4.07811 139.318L3.99795 138.645C3.91779 137.972 4.19835 137.299 4.75947 136.888L4.87971 136.797C4.91979 136.767 4.95987 136.737 4.99995 136.707C5.34064 136.416 5.78152 136.245 6.24244 136.235C24.7595 135.612 43.998 136.385 63.4468 138.524C63.7675 138.565 64.0881 138.334 64.2384 138.203C64.6693 137.832 64.9799 137.239 64.9799 136.767C64.9799 135.371 63.5971 135.07 62.9959 134.999C47.9559 133.342 33.0961 132.509 18.6472 132.509C13.2765 132.509 7.96589 132.619 2.7254 132.85C2.56508 132.86 2.39474 132.891 2.18432 132.961C2.03402 133.011 1.8737 133.041 1.71338 133.051C1.24244 133.081 0.691337 133.373 0.350655 133.774C0.190335 133.965 -4.59142e-05 134.256 0.0300142 134.588C0.300555 137.129 0.621197 139.71 1.00196 142.26L1.04204 142.511C1.39274 144.932 1.6733 146.468 2.97591 147.583C4.06809 148.517 5.58112 148.627 7.76549 148.688C9.53903 148.738 11.3126 148.788 13.0761 148.828L146.994 152.383C147.535 152.293 148.066 152.183 148.627 152.052C149.269 151.901 149.91 151.741 150.531 151.54C150.902 151.419 151.383 151.208 151.693 150.917C151.994 150.646 152.244 150.305 152.505 149.943C152.515 149.853 152.525 149.762 152.555 149.682C153.277 147.272 153.697 144.711 153.788 142.07C153.798 141.889 153.848 141.718 153.898 141.547C153.677 141.005 153.497 140.443 153.287 139.941Z" fill="#1E1E1E"/>
<path d="M90.2205 52.9006C90.2405 52.8905 90.2706 52.8805 90.2906 52.8604C90.6914 52.6294 90.982 52.2779 91.2425 51.9063C91.4129 51.6653 91.5732 51.4042 91.6233 51.113C91.974 49.3354 88.9079 49.5764 87.8658 49.5162C86.463 49.4359 85.0602 49.3656 83.6574 49.2953C80.8517 49.1547 78.0361 49.0341 75.2205 48.9337C69.5892 48.7228 63.9479 48.5923 58.3167 48.5421C50.7816 48.4718 43.2365 48.532 35.7014 48.7329C25.1503 49.004 14.3187 49.5764 3.50705 50.41C2.20445 50.5104 1.87379 51.5549 1.79363 51.9967C1.66337 52.6897 1.83371 53.5433 2.42489 53.8044C3.07619 54.1057 3.51707 54.7183 3.56717 55.4112C5.24052 78.5898 5.42088 102.07 4.08822 125.178C4.03812 125.961 4.36878 126.262 4.61928 126.423C5.15034 126.765 6.01206 126.775 6.66337 126.463C7.25455 126.172 7.57519 125.67 7.61527 124.967C8.93791 101.979 8.75755 78.64 7.09423 55.592C7.01407 54.5275 7.84573 53.6136 8.93791 53.5333C20.1804 52.76 31.4329 52.2679 42.7054 52.067C53.7275 51.8762 64.7596 51.9666 75.7816 52.3683C78.2766 52.4587 80.7816 52.5692 83.2766 52.6897C84.9099 52.77 86.493 52.8102 88.1063 53.0713C88.8077 53.2019 89.5792 53.232 90.2205 52.9006Z" fill="#1E1E1E"/>
<path d="M151.593 59.589C151.222 59.127 150.571 58.7956 149.95 58.7555C149.309 58.7153 148.717 58.3738 148.387 57.8315C148.186 57.5202 147.886 57.3193 147.445 57.1988C144.108 56.3452 140.752 55.6221 137.385 54.9392C137.265 54.9191 137.144 54.889 137.024 54.9191C136.894 54.9493 136.784 55.0497 136.703 55.1501C136.162 55.7828 136.102 56.7268 136.483 57.4499C137.375 59.1471 139.81 58.9965 141.443 59.358C143.076 59.7196 144.729 60.292 146.383 60.533C146.453 60.5431 146.513 60.5531 146.583 60.5732C147.605 60.7941 148.267 61.7482 148.106 62.7524C146.433 73.0361 146.232 83.4203 146.162 93.1818C146.112 100.714 146.062 108.246 146.012 115.778L145.932 128.331C145.922 128.974 146.152 129.416 146.633 129.687C147.224 130.018 148.096 130.028 148.697 129.687C149.198 129.416 149.439 128.954 149.449 128.301L149.679 94.0253C149.76 83.2194 149.83 72.0419 151.934 61.0552C152.024 60.4928 151.914 60.0007 151.593 59.589Z" fill="#1E1E1E"/>
<path d="M15.6514 65.4238C13.1063 65.4238 11.974 63.4956 11.974 61.5775C11.974 59.6593 13.1163 57.7211 15.6514 57.7211C18.1864 57.7211 19.3287 59.6493 19.3287 61.5674C19.3387 63.4956 18.1964 65.4238 15.6514 65.4238ZM15.6514 60.5832C15.3207 60.5832 14.8197 60.5832 14.8197 61.5775C14.8197 62.5717 15.3007 62.5717 15.6514 62.5717C15.982 62.5717 16.483 62.5717 16.483 61.5775C16.483 60.5832 16.0021 60.5832 15.6514 60.5832Z" fill="#1E1E1E"/>
<path d="M27.0842 65.3133H26.9639C26.5731 65.3033 26.2124 65.2129 25.8717 65.0321C25.7916 64.992 25.7214 64.9618 25.6613 64.9418C25.2204 64.8012 24.8697 64.5702 24.5591 64.2388C24.1483 63.8572 23.9078 63.4956 23.7575 63.0638C23.7274 62.9834 23.7074 62.9232 23.6673 62.8629C23.4369 62.4411 23.3467 61.9892 23.3667 61.4067V60.8042C23.3667 60.1614 23.507 59.579 23.7976 59.0166L23.9379 58.7956L24.6693 57.9018C25.0601 57.5604 25.491 57.3093 25.982 57.1486L26.2525 57.0884L27.3447 56.9478H27.4549C27.8557 56.9578 28.2164 57.0482 28.5671 57.229C28.6373 57.2591 28.7074 57.2892 28.7775 57.3194C29.2084 57.46 29.5691 57.6809 29.8797 58.0224L29.9499 58.0926C30.2906 58.404 30.5311 58.7655 30.6814 59.1973C30.7014 59.2676 30.7315 59.3279 30.7615 59.3882C30.992 59.82 31.0922 60.2719 31.0721 60.8443V61.4569C31.0721 62.0997 30.9319 62.6822 30.6413 63.2445L30.501 63.4655L29.7595 64.3693C29.3687 64.7108 28.9379 64.9518 28.4569 65.1225L28.1864 65.1828L27.0842 65.3133ZM26.5832 62.2403C26.7435 62.2905 26.9038 62.3608 27.0641 62.4411L27.6453 62.3608C27.6954 62.3307 27.7555 62.3106 27.8056 62.2704L28.1663 61.8185C28.2064 61.708 28.2264 61.5975 28.2264 61.4569V60.8042C28.2264 60.754 28.2264 60.7138 28.2264 60.6837C28.1363 60.5129 28.0661 60.3422 28.006 60.1715C27.9559 60.1213 27.9058 60.0711 27.8557 60.0208C27.6854 59.9606 27.525 59.9003 27.3747 59.82L26.7936 59.9003C26.7435 59.9305 26.6934 59.9505 26.6433 59.9907L26.2826 60.4426C26.2325 60.5531 26.2124 60.6736 26.2124 60.8042V61.4569C26.2124 61.5072 26.2124 61.5473 26.2124 61.5674C26.3026 61.7381 26.3727 61.9089 26.4329 62.0796C26.483 62.1298 26.5331 62.18 26.5832 62.2403Z" fill="#1E1E1E"/>
<path d="M38.7775 64.9719C36.2324 64.9719 35.1001 63.0437 35.1001 61.1255C35.1001 60.0911 35.4508 59.1069 36.052 58.404C36.7133 57.6508 37.6352 57.2691 38.7775 57.2691C41.3225 57.2691 42.4548 59.1973 42.4548 61.1155C42.4548 63.0336 41.3225 64.9719 38.7775 64.9719ZM38.7775 60.1313C38.3366 60.1313 38.2264 60.2518 38.1963 60.292C38.0861 60.4225 37.9458 60.7238 37.9458 61.1255C37.9458 62.1198 38.4268 62.1198 38.7775 62.1198C39.1081 62.1198 39.6091 62.1198 39.6091 61.1255C39.6091 60.1313 39.1282 60.1313 38.7775 60.1313Z" fill="#1E1E1E"/>
<path d="M157.515 51.9968C156.854 51.0829 155.812 50.5707 154.028 50.2795C153.056 50.1288 152.154 50.0083 151.273 49.8878C149.549 49.6568 147.926 49.4359 146.072 49.004C143.136 48.3211 140.18 47.3872 137.285 46.2523C137.184 46.2122 137.074 46.1921 136.944 46.182C136.673 46.172 136.393 46.2323 136.112 46.3729C135.641 46.5938 135.281 46.9754 135.17 47.3671C134.82 48.6124 135.571 49.3957 136.393 49.7271C141.273 51.6453 146.493 52.9508 151.904 53.6036C152.184 53.6337 152.475 53.6638 152.756 53.694L153.447 53.7743C154.209 53.8647 154.78 54.5074 154.75 55.2405L154.309 64.6505C154.289 65.1225 154.499 65.6347 154.89 66.0264C155.03 66.177 155.361 66.5084 155.852 66.5084C155.882 66.5084 155.912 66.5084 155.942 66.5084C156.834 66.5084 157.816 65.9159 157.866 64.8012L158.046 61.0653C158.136 59.2777 158.217 57.4801 158.307 55.6925C158.387 53.9149 158.176 52.9106 157.515 51.9968Z" fill="#1E1E1E"/>
<path d="M10.9319 159.192C10.9319 159.654 11.1924 160.197 11.5932 160.558C11.7736 160.719 12.1243 160.98 12.5451 160.95C17.9159 160.588 23.3167 160.407 28.7175 160.407C34.3888 160.407 40.0501 160.608 45.6814 161C46.1022 161.02 46.4529 160.769 46.6233 160.608C47.0341 160.247 47.2946 159.704 47.2946 159.243C47.2946 158.118 46.3427 157.555 45.3908 157.485C34.5992 156.722 23.6373 156.702 12.8257 157.435C11.8938 157.495 10.9319 158.118 10.9319 159.192Z" fill="#1E1E1E"/>
<path d="M126.403 127.889C126.493 128.15 126.703 128.401 126.944 128.522C127.144 128.622 127.274 128.592 127.355 128.572C127.585 128.502 127.816 128.442 128.046 128.391L128.226 128.351C128.246 128.341 128.276 128.341 128.297 128.331C128.437 128.301 128.577 128.281 128.727 128.281C128.938 128.271 129.198 128.261 129.489 128.261C129.699 128.261 129.92 128.261 130.14 128.281C130.581 128.301 131.022 128.351 131.453 128.401L132.986 128.602C133.727 128.693 134.519 128.783 135.25 128.753C136.593 128.693 137.335 128.472 137.585 128.05C137.836 127.628 137.796 127.036 137.715 126.102C137.695 125.871 137.675 125.64 137.665 125.409C137.605 124.384 137.575 123.36 137.565 122.336C137.535 120.257 137.615 118.108 137.786 115.949C137.796 115.878 137.735 115.708 137.555 115.527C137.365 115.336 137.164 115.205 137.044 115.256C136.483 115.276 136.172 115.607 136.122 116.24C135.972 118.138 135.902 120.026 135.912 121.834C135.912 122.727 135.942 123.621 135.982 124.525C135.992 124.646 136.002 124.756 136.012 124.866C136.062 125.429 135.862 126.031 135.451 126.433C135.04 126.835 134.459 127.086 133.888 127.046C133.487 127.016 133.096 126.975 132.695 126.925L131.463 126.765C130.1 126.594 128.507 126.473 127.064 126.915C126.673 127.046 126.283 127.518 126.403 127.889Z" fill="#1E1E1E"/>
<path d="M134.93 129.787C134.259 129.787 133.577 129.707 132.886 129.617L131.343 129.416C130.942 129.376 130.521 129.325 130.1 129.305C129.589 129.275 129.118 129.295 128.788 129.305C128.667 129.305 128.597 129.315 128.517 129.325L128.297 129.376C128.086 129.426 127.876 129.476 127.665 129.546C127.265 129.667 126.874 129.627 126.493 129.436C126.002 129.185 125.601 128.733 125.431 128.201C125.301 127.799 125.341 127.367 125.551 126.955C125.802 126.473 126.273 126.072 126.784 125.911C128.397 125.409 130.13 125.529 131.613 125.72L132.856 125.881C133.216 125.921 133.607 125.961 133.988 125.991C134.239 126.021 134.539 125.891 134.75 125.67C134.93 125.489 135.03 125.208 135.01 124.937C135 124.776 134.98 124.666 134.98 124.535C134.94 123.631 134.91 122.717 134.91 121.813C134.9 119.966 134.97 118.058 135.12 116.129C135.21 115.035 135.882 114.312 136.884 114.211C137.245 114.131 137.736 114.211 138.297 114.764C138.667 115.135 138.858 115.587 138.828 115.999C138.657 118.128 138.587 120.237 138.607 122.285C138.617 123.3 138.657 124.324 138.707 125.318C138.717 125.539 138.738 125.76 138.758 125.991C138.838 126.965 138.908 127.819 138.487 128.542C137.926 129.506 136.563 129.697 135.311 129.757C135.18 129.777 135.06 129.787 134.93 129.787ZM136.734 126.433C136.593 126.704 136.413 126.955 136.192 127.166C135.982 127.377 135.742 127.558 135.481 127.698C136.523 127.628 136.764 127.457 136.774 127.447C136.804 127.367 136.764 126.865 136.734 126.433Z" fill="#1E1E1E"/>
<path d="M85.3007 75.6874C76.6033 71.3791 63.7276 71.3289 56.9841 79.7447C56.6133 80.2066 56.5232 80.6786 56.7236 81.1506C56.9741 81.7431 57.6354 82.2252 58.3168 82.3156C58.9079 82.3859 59.4089 82.175 59.8097 81.6728C64.8298 75.4062 74.3789 75.1551 81.1224 77.5754C88.7977 80.3271 94.6093 86.7645 96.3027 94.3768C97.445 99.4986 96.954 103.536 94.8298 106.358C91.7236 110.495 86.8438 113.056 84.2085 114.211C76.2025 117.726 67.4851 116.822 61.9941 111.911C58.8278 109.079 56.944 105.002 56.8438 100.724C56.7436 96.4456 58.427 92.308 61.453 89.3455C62.0843 88.7329 62.5051 87.7587 61.8037 86.895C61.5332 86.5536 60.9821 86.3126 60.451 86.2824C60.421 86.2824 60.3809 86.2824 60.3408 86.2824C60.0903 86.2824 59.7296 86.3327 59.4891 86.5737C52.6955 93.2119 51.4931 103.174 56.5733 110.807C61.3729 117.997 71.3729 121.321 80.8919 118.881C86.0823 117.555 90.9621 114.874 95.0102 111.128C98.6975 107.724 100.381 103.817 100.301 98.8458C100.18 89.2249 94.2887 80.1464 85.3007 75.6874Z" fill="#1E1E1E"/>
<path d="M89.6895 89.1747C88.4671 88.4918 87.5051 89.5463 87.2446 89.8878C85.431 92.2076 83.4771 94.6279 81.443 97.0683C80.431 98.2734 79.429 99.4584 78.417 100.633C77.8759 101.256 77.3448 101.869 76.8037 102.481C76.7436 102.562 76.6334 102.682 76.5232 102.793L75.7516 103.536L74.6394 102.682C73.9079 102.1 73.1664 101.447 72.3147 100.623C70.942 99.2676 69.8799 97.952 68.7676 96.2247C68.427 95.6824 67.8157 95.3811 67.2145 95.3811C66.924 95.3811 66.6434 95.4514 66.3929 95.592C66.0021 95.813 65.7015 96.2147 65.5913 96.6666C65.4811 97.0984 65.5412 97.5202 65.7516 97.8516C67.2947 100.262 69.0983 102.371 71.1224 104.138C72.2346 105.102 73.3769 105.976 74.5392 106.719C76.2025 107.794 77.465 106.84 78.0562 106.177C81.924 101.849 85.8518 97.1286 90.4109 91.3239C90.6314 91.0527 90.6113 90.6912 90.5612 90.4401C90.441 89.9279 90.0903 89.4057 89.6895 89.1747Z" fill="#1E1E1E"/>
<path d="M132.134 58.6048C131.924 57.5102 131.723 56.4256 131.523 55.3309C129.97 46.6641 128.888 37.9169 128.277 29.1396C127.966 24.7811 127.776 20.4125 127.695 16.0339C127.655 13.8848 127.645 11.7256 127.655 9.57646C127.665 8.67262 127.675 7.74869 127.154 6.95532C126.533 6.02135 125.431 5.86067 124.379 5.6799C114.369 3.93247 104.178 3.83205 94.1182 5.27819C93.2264 5.40875 92.7354 6.49336 92.9559 7.2566C93.0561 7.61814 93.2665 7.88929 93.527 8.07006C92.8557 8.21065 92.2745 8.70275 92.3046 9.57646C92.7555 25.464 93.9278 41.3415 95.8016 57.1286C95.8617 57.6508 96.1022 58.1228 96.493 58.414C96.3326 58.655 96.2425 58.9362 96.2725 59.2275C96.6232 62.5717 97.6453 66.4381 101.673 67.0407C103.788 67.362 106.062 67.0005 108.186 66.88C110.461 66.7494 112.725 66.6189 115 66.4783C119.429 66.2172 124.008 66.177 128.297 64.992C130.17 64.4697 132.345 63.7668 132.545 61.5875C132.625 60.6033 132.325 59.579 132.134 58.6048ZM111.112 7.4675C112.735 7.4675 112.735 9.89782 111.112 9.89782C109.489 9.89782 109.489 7.4675 111.112 7.4675ZM129.279 61.2561C129.228 61.3465 128.687 61.5072 128.507 61.5674C127.545 61.8988 126.543 62.1499 125.541 62.3407C123.727 62.6922 121.884 62.8529 120.04 62.9734C115.471 63.2747 110.902 63.5056 106.333 63.7768C104.739 63.8672 102.084 64.5099 100.852 63.2044C99.8998 62.1901 99.7294 60.523 99.5992 59.2174C99.5491 58.6952 99.2986 58.2232 98.9078 57.932C99.0681 57.6909 99.1683 57.4097 99.1282 57.1085C97.2445 41.3113 96.0821 25.4439 95.6312 9.55637C95.6112 9.01407 95.3707 8.61236 95.02 8.35125C97.4549 7.99976 99.9098 7.75873 102.375 7.60809C102.164 9.19484 103.397 10.5807 105 11.2134C106.743 11.8963 108.677 12.2177 110.551 12.298C112.465 12.3884 114.439 12.1675 116.283 11.6553C117.174 11.4143 118.046 11.0829 118.667 10.3799C119.238 9.73714 119.469 8.91364 119.319 8.12027C120.12 8.2207 120.922 8.33117 121.713 8.45168C122.174 8.52198 122.635 8.60232 123.096 8.67262C123.297 8.70275 123.487 8.74292 123.687 8.77304C123.657 8.763 124.088 8.85339 124.329 8.87347C124.309 9.01407 124.329 9.21492 124.329 9.34548C124.329 9.8677 124.319 10.3899 124.319 10.9121C124.319 11.8863 124.319 12.8705 124.329 13.8446C124.369 17.7612 124.499 21.6779 124.719 25.5845C125.16 33.3475 125.972 41.1004 127.114 48.7931C127.685 52.6696 128.367 56.526 129.108 60.3824C129.148 60.5832 129.319 61.1858 129.279 61.2561Z" fill="#1E1E1E"/>
<path d="M119.399 58.6952C116.193 58.5747 112.986 58.7053 109.8 59.0869C108.938 59.1873 108.096 59.7497 108.136 60.6937C108.176 61.477 108.878 62.411 109.8 62.3005C112.986 61.9189 116.193 61.7884 119.399 61.9089C120.271 61.939 121.102 61.1456 121.062 60.302C121.022 59.4082 120.331 58.7253 119.399 58.6952Z" fill="#1E1E1E"/>
<path d="M102.976 22.1097C103.327 21.6478 103.487 21.1055 103.437 20.533C103.407 20.1715 103.297 19.81 103.146 19.4785C103.066 19.3078 102.986 19.1471 102.886 18.9865C102.715 18.7354 102.445 18.5446 102.164 18.414C101.984 18.3236 101.884 18.3136 101.723 18.2935C101.703 18.2935 101.683 18.2935 101.663 18.2835C101.433 18.0525 101.132 17.8717 100.802 17.8315C100.671 17.8215 100.531 17.8215 100.401 17.8115C100.12 17.8315 99.8597 17.932 99.6293 18.0826C99.3587 18.2433 99.0782 18.3939 98.8076 18.5546C98.6874 18.6249 98.5571 18.6852 98.4369 18.7655C98.006 19.0467 97.7255 19.4886 97.6353 19.9807C97.6152 20.1012 97.6152 20.282 97.6152 20.4025C97.6152 20.4426 97.6253 20.4728 97.6253 20.5129C97.6553 20.6837 97.6954 20.8644 97.7455 21.0251C97.8257 21.2762 97.9659 21.5072 98.1062 21.7382C98.2465 21.9792 98.4369 22.1901 98.6273 22.3909C98.7976 22.5717 98.9679 22.7726 99.1583 22.9332C99.2986 23.0437 99.4589 23.1441 99.6192 23.2144C99.8597 23.3149 100.09 23.3651 100.341 23.3751C100.651 23.3852 100.942 23.345 101.242 23.2345C101.513 23.1341 101.764 23.0035 102.004 22.8629C102.365 22.6721 102.745 22.4211 102.976 22.1097Z" fill="#59C69F"/>
<path d="M110 19.6091C109.81 19.0668 109.449 18.6249 108.938 18.3337C108.617 18.1529 108.247 18.0224 107.886 17.9521C107.695 17.9119 107.515 17.8818 107.325 17.8818C107.014 17.8717 106.693 17.9721 106.423 18.1228C106.243 18.2132 106.172 18.2835 106.072 18.3939C106.062 18.404 106.042 18.4241 106.032 18.4442C105.701 18.4944 105.381 18.6149 105.15 18.8659C105.07 18.9664 104.99 19.0668 104.91 19.1773C104.77 19.4183 104.699 19.6694 104.699 19.9405C104.669 20.2518 104.649 20.5531 104.619 20.8644C104.609 21.005 104.589 21.1356 104.589 21.2762C104.579 21.7783 104.78 22.2604 105.15 22.6119C105.241 22.7023 105.391 22.8027 105.501 22.873C105.531 22.8931 105.561 22.9131 105.601 22.9232C105.762 23.0035 105.932 23.0738 106.112 23.124C106.373 23.2044 106.653 23.2345 106.924 23.2546C107.204 23.2847 107.495 23.2546 107.776 23.2245C108.026 23.1943 108.297 23.1743 108.547 23.114C108.727 23.0738 108.898 23.0035 109.058 22.9131C109.289 22.7826 109.449 22.632 109.609 22.4311C109.8 22.1901 109.93 21.939 110.01 21.6377C110.08 21.3766 110.11 21.0954 110.13 20.8243C110.13 20.4226 110.13 19.9807 110 19.6091Z" fill="#F7C300"/>
<path d="M111.593 19.1873C111.273 19.6694 111.152 20.2217 111.242 20.7941C111.293 21.1456 111.433 21.5072 111.613 21.8285C111.703 21.9892 111.794 22.1499 111.914 22.3005C112.104 22.5416 112.385 22.7123 112.675 22.8228C112.866 22.8931 112.966 22.9031 113.126 22.9131C113.146 22.9131 113.166 22.9131 113.186 22.9131C113.437 23.124 113.737 23.2847 114.078 23.3048C114.208 23.3048 114.349 23.2948 114.479 23.2948C114.76 23.2546 115.01 23.1441 115.23 22.9734C115.491 22.7926 115.751 22.6219 116.012 22.4411C116.132 22.3608 116.252 22.2905 116.363 22.2001C116.774 21.8888 117.024 21.4369 117.074 20.9347C117.084 20.8142 117.074 20.6334 117.064 20.5129C117.064 20.4728 117.054 20.4426 117.044 20.4025C117.004 20.2317 116.944 20.061 116.884 19.8903C116.784 19.6493 116.623 19.4183 116.473 19.2074C116.313 18.9764 116.112 18.7856 115.902 18.5948C115.721 18.4241 115.531 18.2332 115.331 18.0826C115.19 17.9822 115.02 17.8918 114.85 17.8315C114.599 17.7412 114.369 17.7211 114.118 17.7211C113.808 17.7311 113.517 17.7914 113.226 17.9219C112.966 18.0324 112.725 18.1931 112.495 18.3538C112.164 18.5747 111.814 18.8559 111.593 19.1873Z" fill="#59C69F"/>
<path d="M123.407 19.6091C123.216 19.0668 122.856 18.6249 122.345 18.3337C122.024 18.1529 121.653 18.0224 121.293 17.9521C121.102 17.9119 120.922 17.8818 120.731 17.8818C120.421 17.8717 120.1 17.9721 119.83 18.1228C119.649 18.2132 119.579 18.2835 119.479 18.3939C119.469 18.404 119.449 18.4241 119.439 18.4442C119.108 18.4944 118.788 18.6149 118.557 18.8659C118.477 18.9664 118.397 19.0668 118.317 19.1773C118.176 19.4183 118.106 19.6694 118.106 19.9405C118.076 20.2518 118.056 20.5531 118.026 20.8644C118.016 21.005 117.996 21.1356 117.996 21.2762C117.986 21.7783 118.186 22.2604 118.557 22.6119C118.647 22.7023 118.798 22.8027 118.908 22.873C118.938 22.8931 118.968 22.9131 119.008 22.9232C119.168 23.0035 119.339 23.0738 119.519 23.124C119.78 23.2044 120.06 23.2345 120.331 23.2546C120.611 23.2847 120.902 23.2546 121.182 23.2245C121.433 23.1943 121.703 23.1743 121.954 23.114C122.134 23.0738 122.305 23.0035 122.465 22.9131C122.695 22.7826 122.856 22.632 123.016 22.4311C123.206 22.1901 123.337 21.939 123.417 21.6377C123.487 21.3766 123.517 21.0954 123.537 20.8243C123.537 20.4226 123.537 19.9807 123.407 19.6091Z" fill="#59C69F"/>
<path d="M118.697 26.0264C118.347 26.4883 118.186 27.0306 118.237 27.6031C118.267 27.9646 118.377 28.3261 118.527 28.6575C118.607 28.8283 118.687 28.9889 118.788 29.1496C118.958 29.4007 119.229 29.5915 119.509 29.7221C119.689 29.8124 119.79 29.8225 119.95 29.8426C119.97 29.8426 119.99 29.8426 120.01 29.8526C120.241 30.0836 120.541 30.2644 120.872 30.3045C121.002 30.3146 121.142 30.3146 121.273 30.3246C121.553 30.3045 121.814 30.2041 122.044 30.0535C122.315 29.8928 122.595 29.7421 122.866 29.5815C122.986 29.5112 123.116 29.4509 123.237 29.3706C123.667 29.0894 123.948 28.6475 124.038 28.1554C124.058 28.0349 124.058 27.8541 124.058 27.7336C124.058 27.6934 124.048 27.6633 124.048 27.6231C124.018 27.4524 123.978 27.2716 123.928 27.111C123.848 26.8599 123.707 26.6289 123.567 26.3979C123.427 26.1569 123.237 25.946 123.046 25.7452C122.876 25.5644 122.705 25.3635 122.515 25.2029C122.375 25.0924 122.214 24.992 122.054 24.9217C121.814 24.8212 121.583 24.771 121.333 24.761C121.022 24.7509 120.732 24.7911 120.431 24.9016C120.16 25.002 119.91 25.1326 119.669 25.2732C119.309 25.4539 118.938 25.705 118.697 26.0264Z" fill="#F7C300"/>
<path d="M111.683 28.517C111.874 29.0593 112.235 29.5011 112.746 29.7924C113.066 29.9731 113.437 30.1037 113.798 30.174C113.988 30.2142 114.168 30.2443 114.359 30.2443C114.669 30.2543 114.99 30.1539 115.261 30.0033C115.441 29.9129 115.511 29.8426 115.611 29.7321C115.621 29.7221 115.641 29.702 115.651 29.6819C115.982 29.6317 116.303 29.5112 116.533 29.2601C116.613 29.1597 116.694 29.0593 116.774 28.9488C116.914 28.7078 116.984 28.4567 116.984 28.1855C117.014 27.8742 117.034 27.5729 117.064 27.2616C117.074 27.121 117.094 26.9905 117.094 26.8499C117.104 26.3477 116.904 25.8657 116.533 25.5142C116.443 25.4238 116.293 25.3234 116.182 25.2531C116.152 25.233 116.122 25.2129 116.082 25.2029C115.922 25.1225 115.752 25.0522 115.571 25.002C115.311 24.9217 115.03 24.8915 114.76 24.8715C114.479 24.8413 114.188 24.8715 113.908 24.9016C113.657 24.9317 113.387 24.9518 113.136 25.0121C112.956 25.0522 112.786 25.1225 112.625 25.2129C112.395 25.3435 112.235 25.4941 112.074 25.695C111.884 25.936 111.754 26.187 111.673 26.4883C111.603 26.7494 111.573 27.0306 111.553 27.3018C111.553 27.7135 111.553 28.1554 111.683 28.517Z" fill="#59C69F"/>
<path d="M110.09 28.9488C110.411 28.4667 110.531 27.9144 110.441 27.342C110.391 26.9905 110.25 26.6289 110.07 26.3076C109.98 26.1469 109.89 25.9862 109.769 25.8356C109.579 25.5945 109.299 25.4238 109.008 25.3133C108.818 25.243 108.717 25.233 108.557 25.223C108.537 25.223 108.517 25.223 108.497 25.223C108.246 25.0121 107.946 24.8514 107.605 24.8313C107.475 24.8313 107.335 24.8413 107.204 24.8413C106.924 24.8815 106.673 24.992 106.453 25.1627C106.192 25.3435 105.932 25.5142 105.671 25.695C105.551 25.7753 105.431 25.8456 105.321 25.936C104.91 26.2473 104.659 26.6992 104.609 27.2014C104.599 27.3219 104.609 27.5027 104.619 27.6232C104.619 27.6633 104.629 27.6935 104.639 27.7336C104.679 27.9044 104.739 28.0751 104.8 28.2458C104.9 28.4868 105.06 28.7178 105.21 28.9287C105.371 29.1597 105.571 29.3505 105.781 29.5413C105.962 29.712 106.152 29.9029 106.353 30.0535C106.493 30.1539 106.663 30.2443 106.834 30.3046C107.084 30.3949 107.315 30.415 107.565 30.415C107.876 30.405 108.166 30.3447 108.457 30.2142C108.717 30.1037 108.958 29.943 109.188 29.7823C109.519 29.5514 109.87 29.2802 110.09 28.9488Z" fill="#F7C300"/>
<path d="M98.2765 28.517C98.4669 29.0593 98.8276 29.5011 99.3386 29.7924C99.6593 29.9731 100.03 30.1037 100.391 30.174C100.581 30.2142 100.761 30.2443 100.952 30.2443C101.262 30.2543 101.583 30.1539 101.854 30.0033C102.034 29.9129 102.104 29.8426 102.204 29.7321C102.214 29.7221 102.234 29.702 102.244 29.6819C102.575 29.6317 102.896 29.5112 103.126 29.2601C103.206 29.1597 103.287 29.0593 103.367 28.9488C103.507 28.7078 103.577 28.4567 103.577 28.1855C103.607 27.8742 103.627 27.5729 103.657 27.2616C103.667 27.121 103.687 26.9905 103.687 26.8499C103.697 26.3477 103.497 25.8657 103.126 25.5142C103.036 25.4238 102.886 25.3234 102.775 25.2531C102.745 25.233 102.715 25.2129 102.675 25.2029C102.515 25.1225 102.345 25.0522 102.164 25.002C101.904 24.9217 101.623 24.8915 101.353 24.8715C101.072 24.8413 100.782 24.8715 100.501 24.9016C100.25 24.9317 99.9799 24.9518 99.7294 25.0121C99.549 25.0522 99.3787 25.1225 99.2184 25.2129C98.9879 25.3435 98.8276 25.4941 98.6673 25.695C98.4769 25.936 98.3466 26.187 98.2665 26.4883C98.1963 26.7494 98.1663 27.0306 98.1462 27.3018C98.1462 27.7135 98.1462 28.1554 98.2765 28.517Z" fill="#F7C300"/>
<path d="M103.707 35.7778C104.058 35.3159 104.218 34.7736 104.168 34.2011C104.138 33.8396 104.028 33.478 103.878 33.1466C103.798 32.9759 103.717 32.8152 103.617 32.6545C103.447 32.4035 103.176 32.2127 102.896 32.0821C102.715 31.9917 102.615 31.9817 102.455 31.9616C102.435 31.9616 102.415 31.9616 102.395 31.9516C102.164 31.7206 101.864 31.5398 101.533 31.4996C101.403 31.4896 101.263 31.4896 101.132 31.4796C100.852 31.4996 100.591 31.6001 100.361 31.7507C100.09 31.9114 99.8096 32.062 99.5391 32.2227C99.4188 32.293 99.2886 32.3533 99.1683 32.4336C98.7375 32.7148 98.4569 33.1567 98.3667 33.6488C98.3467 33.7693 98.3467 33.9501 98.3467 34.0706C98.3467 34.1107 98.3567 34.1409 98.3567 34.181C98.3868 34.3518 98.4268 34.5325 98.4769 34.6932C98.5571 34.9443 98.6974 35.1753 98.8377 35.4062C98.9779 35.6473 99.1683 35.8582 99.3587 36.059C99.529 36.2398 99.6994 36.4406 99.8898 36.6013C100.03 36.7118 100.19 36.8122 100.351 36.8825C100.591 36.9829 100.822 37.0332 101.072 37.0432C101.383 37.0532 101.673 37.0131 101.974 36.9026C102.244 36.8022 102.495 36.6716 102.735 36.531C103.096 36.3402 103.467 36.0891 103.707 35.7778Z" fill="#F7C300"/>
<path d="M110.731 33.2772C110.541 32.7349 110.18 32.293 109.669 32.0018C109.349 31.821 108.978 31.6905 108.617 31.6202C108.427 31.58 108.247 31.5499 108.056 31.5499C107.746 31.5398 107.425 31.6402 107.154 31.7909C106.974 31.8813 106.904 31.9516 106.804 32.062C106.794 32.0721 106.774 32.0922 106.764 32.1122C106.433 32.1625 106.112 32.283 105.882 32.534C105.802 32.6345 105.721 32.7349 105.641 32.8454C105.501 33.0864 105.431 33.3375 105.431 33.6086C105.401 33.9199 105.381 34.2212 105.351 34.5325C105.341 34.6731 105.321 34.8037 105.321 34.9443C105.311 35.4464 105.511 35.9285 105.882 36.28C105.972 36.3703 106.122 36.4708 106.232 36.5411C106.263 36.5612 106.293 36.5812 106.333 36.5913C106.493 36.6716 106.663 36.7419 106.844 36.7921C107.104 36.8725 107.385 36.9026 107.655 36.9227C107.936 36.9528 108.226 36.9227 108.507 36.8926C108.758 36.8624 109.028 36.8423 109.279 36.7821C109.459 36.7419 109.629 36.6716 109.79 36.5812C110.02 36.4507 110.18 36.3 110.341 36.0992C110.531 35.8582 110.661 35.6071 110.742 35.3058C110.812 35.0447 110.842 34.7635 110.862 34.4924C110.852 34.0907 110.852 33.6488 110.731 33.2772Z" fill="#59C69F"/>
<path d="M112.325 32.8454C112.004 33.3274 111.884 33.8797 111.974 34.4522C112.024 34.8037 112.164 35.1652 112.345 35.4866C112.435 35.6473 112.525 35.8079 112.645 35.9586C112.836 36.1996 113.116 36.3703 113.407 36.4808C113.597 36.5511 113.697 36.5611 113.858 36.5712C113.878 36.5712 113.898 36.5712 113.918 36.5712C114.168 36.7821 114.469 36.9428 114.81 36.9629C114.94 36.9629 115.08 36.9528 115.21 36.9528C115.491 36.9126 115.741 36.8022 115.962 36.6314C116.222 36.4507 116.483 36.2799 116.743 36.0992C116.864 36.0188 116.984 35.9485 117.094 35.8582C117.505 35.5468 117.755 35.0949 117.806 34.5928C117.816 34.4723 117.806 34.2915 117.796 34.171C117.796 34.1308 117.786 34.1007 117.776 34.0605C117.735 33.8898 117.675 33.7191 117.615 33.5483C117.515 33.3073 117.355 33.0763 117.204 32.8654C117.044 32.6345 116.844 32.4436 116.633 32.2528C116.453 32.0821 116.262 31.8913 116.062 31.7407C115.922 31.6402 115.751 31.5498 115.581 31.4896C115.331 31.3992 115.1 31.3791 114.85 31.3791C114.539 31.3892 114.248 31.4494 113.958 31.58C113.697 31.6904 113.457 31.8511 113.226 32.0118C112.886 32.2428 112.535 32.524 112.325 32.8454Z" fill="#F7C300"/>
<path d="M124.138 33.2772C123.948 32.7349 123.587 32.293 123.076 32.0018C122.755 31.821 122.385 31.6905 122.024 31.6202C121.834 31.58 121.653 31.5499 121.463 31.5499C121.152 31.5398 120.832 31.6402 120.561 31.7909C120.381 31.8813 120.311 31.9516 120.21 32.062C120.2 32.0721 120.18 32.0922 120.17 32.1122C119.84 32.1625 119.519 32.283 119.289 32.534C119.208 32.6345 119.128 32.7349 119.048 32.8454C118.908 33.0864 118.838 33.3375 118.838 33.6086C118.808 33.9199 118.788 34.2212 118.757 34.5325C118.747 34.6731 118.727 34.8037 118.727 34.9443C118.717 35.4464 118.918 35.9285 119.289 36.28C119.379 36.3703 119.529 36.4708 119.639 36.5411C119.669 36.5612 119.699 36.5812 119.739 36.5913C119.9 36.6716 120.07 36.7419 120.25 36.7921C120.511 36.8725 120.792 36.9026 121.062 36.9227C121.343 36.9528 121.633 36.9227 121.914 36.8926C122.164 36.8624 122.435 36.8423 122.685 36.7821C122.866 36.7419 123.036 36.6716 123.196 36.5812C123.427 36.4507 123.587 36.3 123.747 36.0992C123.938 35.8582 124.068 35.6071 124.148 35.3058C124.218 35.0447 124.248 34.7635 124.268 34.4924C124.258 34.0907 124.268 33.6488 124.138 33.2772Z" fill="#59C69F"/>
<path d="M110.812 42.6169C111.132 42.1348 111.252 41.5825 111.162 41.0101C111.112 40.6586 110.972 40.297 110.791 39.9757C110.701 39.815 110.611 39.6543 110.491 39.5037C110.301 39.2626 110.02 39.0919 109.729 38.9814C109.539 38.9111 109.439 38.9011 109.278 38.8911C109.258 38.8911 109.238 38.8911 109.218 38.8911C108.968 38.6802 108.667 38.5195 108.327 38.4994C108.196 38.4994 108.056 38.5094 107.926 38.5094C107.645 38.5496 107.395 38.6601 107.174 38.8308C106.914 39.0116 106.653 39.1823 106.393 39.3631C106.272 39.4434 106.152 39.5137 106.042 39.6041C105.631 39.9154 105.381 40.3673 105.331 40.8695C105.321 40.99 105.331 41.1707 105.341 41.2913C105.341 41.3314 105.351 41.3616 105.361 41.4017C105.401 41.5724 105.461 41.7432 105.521 41.9139C105.621 42.1549 105.781 42.3859 105.932 42.5968C106.092 42.8278 106.292 43.0186 106.503 43.2094C106.683 43.3801 106.874 43.5709 107.074 43.7216C107.214 43.822 107.385 43.9124 107.555 43.9727C107.806 44.063 108.036 44.0831 108.286 44.0831C108.597 44.0731 108.888 44.0128 109.178 43.8823C109.439 43.7718 109.679 43.6111 109.91 43.4504C110.25 43.2195 110.601 42.9483 110.812 42.6169Z" fill="#F7C300"/>
<path d="M98.9979 42.185C99.1883 42.7273 99.549 43.1692 100.06 43.4605C100.381 43.6412 100.751 43.7718 101.112 43.8421C101.303 43.8823 101.483 43.9124 101.673 43.9124C101.984 43.9224 102.305 43.822 102.575 43.6714C102.755 43.581 102.826 43.5107 102.926 43.4002C102.936 43.3902 102.956 43.3701 102.966 43.35C103.297 43.2998 103.617 43.1793 103.848 42.9282C103.928 42.8278 104.008 42.7273 104.088 42.6169C104.228 42.3759 104.299 42.1248 104.299 41.8536C104.329 41.5423 104.349 41.241 104.379 40.9297C104.389 40.7891 104.409 40.6586 104.409 40.518C104.419 40.0158 104.218 39.5338 103.848 39.1823C103.757 39.0919 103.607 38.9915 103.497 38.9212C103.467 38.9011 103.437 38.881 103.397 38.871C103.236 38.7906 103.066 38.7203 102.886 38.6701C102.625 38.5898 102.345 38.5596 102.074 38.5395C101.794 38.5094 101.503 38.5395 101.222 38.5697C100.972 38.5998 100.701 38.6199 100.451 38.6801C100.27 38.7203 100.1 38.7906 99.9398 38.881C99.7094 39.0116 99.549 39.1622 99.3887 39.363C99.1983 39.6041 99.0681 39.8551 98.9879 40.1564C98.9178 40.4175 98.8877 40.6987 98.8677 40.9699C98.8777 41.3816 98.8677 41.8135 98.9979 42.185Z" fill="#59C69F"/>
<path d="M157.706 74.4321C156.553 74.9543 155.351 75.2656 154.108 75.4363C152.966 75.597 152.695 77.244 153.447 77.957C153.928 78.409 154.439 78.8006 154.96 79.1722C154.399 79.4132 153.838 79.6241 153.247 79.8049C151.954 80.1966 151.834 81.8335 152.886 82.5566C153.567 83.0286 154.259 83.5006 154.94 83.9626C155.01 84.0128 155.07 84.063 155.14 84.1232C153.978 84.5852 152.956 85.2681 152.074 86.1619C151.343 86.9051 151.603 87.9696 152.375 88.532L155.381 90.7113C154.299 91.595 153.207 92.4788 152.124 93.3625C151.613 93.7743 151.583 94.658 151.894 95.1903C152.625 96.4456 153.577 97.5403 154.72 98.4039C153.948 98.886 153.427 99.6392 153.427 100.583C153.427 101.678 154.138 102.783 154.629 103.717C154.91 104.249 155.211 104.771 155.521 105.293C154.659 105.464 153.798 105.645 152.946 105.856C152.034 106.087 151.523 107.262 152.044 108.065C152.605 108.929 153.176 109.792 153.738 110.666C153.918 110.937 154.469 111.61 154.83 112.162C154.569 112.243 154.299 112.313 154.118 112.383C153.567 112.594 153.016 112.815 152.465 113.026C151.523 113.388 151.102 114.302 151.563 115.235C152.816 117.746 154.339 120.066 156.072 122.265C157.275 123.782 159.389 121.643 158.196 120.136C157.014 118.63 155.962 117.033 155.03 115.356C156.533 114.864 158.156 114.151 158.156 112.665C158.166 111.57 157.295 110.626 156.724 109.742C156.413 109.26 156.092 108.778 155.782 108.296C156.653 108.115 157.525 107.955 158.407 107.834C159.339 107.693 159.81 106.358 159.309 105.625C158.718 104.771 158.156 103.887 157.645 102.983C157.425 102.592 157.215 102.2 157.014 101.808C156.884 101.547 156.744 101.276 156.623 101.005C156.613 100.925 156.593 100.884 156.583 100.824C156.623 100.804 156.673 100.784 156.714 100.764C156.984 100.643 157.275 100.553 157.535 100.412C158.106 100.111 158.607 99.6894 158.868 99.0868C159.158 98.414 159.148 97.3696 158.327 97.0281C157.064 96.4958 156.022 95.7426 155.19 94.7183C156.423 93.714 157.655 92.7198 158.878 91.7155C159.699 91.0527 159.279 89.8576 158.577 89.3454C157.605 88.6425 156.633 87.9294 155.651 87.2264C156.022 87.0356 156.413 86.8649 156.854 86.7143C157.796 86.3829 158.597 85.8506 158.808 84.8062C159.078 83.4805 158.096 82.4361 156.924 81.5825C157.585 81.2611 158.237 80.9096 158.858 80.5179C160.03 79.7748 159.679 78.2382 158.497 77.7662C158.327 77.6959 158.166 77.6156 158.006 77.5353C158.407 77.3846 158.808 77.2239 159.198 77.0432C160.982 76.2297 159.449 73.6387 157.706 74.4321Z" fill="#59C69F"/>
</svg>
