<svg width="159" height="160" viewBox="0 0 159 160" fill="none" xmlns="http://www.w3.org/2000/svg">
<path d="M108.996 92.2083C106.656 85.5283 96.9863 88.4383 99.3563 95.2083C105.116 111.678 108.246 128.868 108.536 146.578C108.656 153.838 118.656 153.858 118.536 146.578C118.226 127.918 115.066 109.578 108.996 92.2083Z" fill="#F7C300"/>
<path d="M141.506 106.949C136.606 102.299 129.496 110.249 134.436 114.939C143.006 123.069 145.576 137.179 144.366 149.209C143.636 156.419 153.646 156.359 154.366 149.209C155.846 134.519 151.876 116.779 141.506 106.949Z" fill="#59C69F"/>
<path d="M20.1063 112.298C16.2663 123.818 15.8263 136.118 18.5163 148.018C20.1063 155.058 29.7563 152.068 28.1563 145.018C25.8663 134.908 26.4963 125.048 29.7463 115.298C32.0163 108.488 22.3563 105.548 20.1063 112.298Z" fill="#59C69F"/>
<path d="M84.0064 0.10851C81.9364 0.70851 79.8664 1.35851 77.9464 2.35851C77.0264 2.83851 76.1764 3.42851 75.3764 4.07851C75.1464 4.26851 74.9364 4.47851 74.7164 4.68851C74.4864 4.49851 74.2464 4.31851 74.0164 4.12851C73.1764 3.44851 72.3364 2.76851 71.4864 2.09851C69.5064 0.53851 66.9064 0.71851 65.5864 3.02851C64.5964 4.75851 63.9464 6.74851 63.0564 8.54851C62.6164 9.42851 62.1664 10.2985 61.7064 11.1685C61.4664 11.6185 61.2164 12.1685 60.9264 12.6685C60.4564 12.5885 59.9764 12.5285 59.4964 12.4785C58.6064 12.3885 57.7064 12.3885 56.8064 12.3785C54.9564 12.3485 53.1164 12.3185 51.2664 12.2885C48.8764 12.2485 47.9064 14.4085 48.3264 16.2185C47.5764 17.5785 47.6764 19.3985 49.4064 20.3985C51.1764 21.4185 53.0364 22.3885 54.6764 23.6185C56.4264 24.9285 57.8364 25.9285 60.0564 24.7785C63.6764 22.8985 66.9164 20.2385 70.3964 18.1185C73.6764 16.1185 77.7264 15.4385 81.3064 14.0785C83.4764 13.2585 84.8964 11.9585 85.7664 9.80851C86.5464 7.89851 87.1964 5.93851 87.8964 4.00851C88.7164 1.69851 86.1864 -0.52149 84.0064 0.10851Z" fill="#F7C300"/>
<path d="M157.236 75.2187C156.056 71.0487 153.356 66.8687 149.166 65.3387C144.216 63.5287 138.536 63.4987 133.346 63.9187C129.406 64.2387 125.436 65.0987 122.006 67.0687C115.106 70.0987 110.726 78.6287 115.926 85.2487C117.076 86.7087 118.536 87.7887 120.286 88.4087C122.446 89.1787 123.916 89.5287 125.246 91.5287C126.706 93.7087 129.266 101.719 133.136 99.5887C134.936 98.6087 135.106 95.5787 135.636 93.8187C135.886 92.9987 135.606 93.2387 136.466 93.1187C136.896 93.0587 137.316 92.9787 137.746 92.9087C139.196 92.6587 140.636 92.3787 142.076 92.0687C146.316 91.1487 151.306 90.2387 154.576 87.1387C157.826 84.0887 158.406 79.3487 157.236 75.2187Z" fill="#F7C300"/>
<path d="M119.386 35.1986C118.136 32.8786 116.836 30.4586 114.716 28.8186C110.846 25.8186 105.776 25.5986 101.076 25.6586C95.4163 25.7386 89.7063 25.8986 84.1663 27.1986C78.7563 28.4686 73.7863 31.2386 69.4663 34.6986C65.5363 37.8486 63.3863 42.2086 63.5163 47.2786C63.7963 58.1886 73.2163 64.3786 82.6263 67.7486C83.5163 68.5686 84.4163 69.3786 85.3563 70.1286C85.5063 70.2486 85.6563 70.3286 85.8063 70.3986C86.6763 71.7686 89.1463 71.8686 89.4263 69.8586C89.4763 69.4786 89.5263 69.0986 89.5863 68.7186C89.8763 68.3386 90.0363 67.8386 90.0263 67.3286C90.2263 67.2986 90.4463 67.2586 90.4263 67.2586C92.0263 67.1686 93.7163 66.6586 95.2963 66.3686C98.3363 65.8086 101.386 65.2786 104.416 64.6886C109.626 63.6786 114.366 61.8786 117.536 57.4086C120.386 53.3886 122.166 47.8686 121.946 42.9186C121.816 40.1086 120.696 37.6286 119.386 35.1986Z" fill="#59C69F"/>
<path d="M49.1763 54.9785C46.5963 51.2585 42.1863 50.2085 37.9763 49.5485C28.9163 48.1385 18.4463 47.3785 10.8463 53.5685C4.75626 58.5085 0.966264 67.6285 3.70626 75.3385C5.60626 80.6785 10.8463 82.0985 15.8163 83.3785C21.1363 84.7485 26.5563 85.4985 32.0363 85.8285C32.8263 85.8785 33.5263 85.5085 34.0763 84.9585C35.9663 85.0285 37.8463 84.0185 39.2163 82.7885C39.8263 82.2385 40.0563 81.4485 40.0363 80.6485C40.0363 80.6485 40.0363 80.6485 40.0463 80.6485C41.8863 79.8485 43.7663 79.0585 45.4663 77.9685C49.1063 75.6285 51.2163 71.9385 51.5963 67.6485C51.9563 63.4685 51.6263 58.5085 49.1763 54.9785Z" fill="#F7C300"/>
<path d="M117.437 32.3887C114.806 27.2587 110.136 22.3487 105.746 19.7187C100.556 16.5987 94.8265 17.0487 89.3165 17.7487C83.8565 18.4387 78.4165 19.7587 73.2265 21.8787C68.0665 23.9787 62.4165 26.7487 58.3665 31.2887C54.6865 35.4187 53.2565 41.7787 54.3965 47.8387C55.7265 54.9487 60.6565 59.1587 66.0165 61.1487C67.9165 61.8487 69.9465 62.0487 71.8765 62.6487C74.1765 63.3587 76.0365 65.2687 77.6265 67.0087C78.5965 68.0687 79.5065 69.1687 80.4865 70.2187C80.9765 70.7387 81.5265 71.2087 82.0065 71.7387C82.4265 72.1987 82.7865 72.7087 83.3165 73.0587C84.7565 73.9987 86.1365 72.7387 86.5765 71.3487C86.9765 70.0687 87.3765 68.7787 87.7765 67.4987C88.0065 66.7687 88.1765 65.8387 88.4965 65.0887C89.3965 64.9587 90.4665 65.1387 91.2965 65.0987C92.6665 65.0187 94.0465 64.8687 95.4065 64.6387C98.3865 64.1387 101.347 63.3487 104.197 62.1987C108.997 60.2587 114.396 57.4987 117.227 52.0787C120.047 46.6387 120.337 38.0287 117.437 32.3887ZM116.517 45.9787C115.827 48.9187 114.136 50.8487 112.106 52.4087C106.956 56.3387 100.536 58.4487 94.5065 59.2387C92.6965 59.4787 90.8665 59.5787 89.0365 59.5987C87.5165 59.6087 85.9865 59.6287 84.6765 60.6987C83.3365 61.7987 82.5065 63.7587 81.8665 65.8387C79.2865 61.8887 76.2865 58.7387 72.0365 57.3087C67.4565 55.7687 62.1965 55.7287 58.6165 51.2087C55.6365 47.4487 55.6165 41.0987 58.1365 37.1587C61.3165 32.1887 67.5165 29.5587 72.2065 27.5087C77.7465 25.0787 83.5265 23.5187 89.3965 22.7087C94.5465 21.9987 100.446 20.9587 105.346 23.8987C107.626 25.2687 109.617 27.1787 111.477 29.2987C113.277 31.3487 115.587 33.7787 116.517 36.6387C117.427 39.4387 117.177 43.1887 116.517 45.9787Z" fill="#1E1E1E"/>
<path d="M98.2765 44.4086C97.3965 44.4986 96.9065 45.1586 96.8665 45.9986C96.8665 46.0586 96.8565 46.1186 96.8565 46.1786C96.8565 46.1886 96.8565 46.1886 96.8465 46.2286C96.8165 46.3886 96.8065 46.5586 96.7865 46.7186C96.7465 46.9986 96.6865 47.2786 96.6165 47.5586C96.5765 47.6986 96.5365 47.8286 96.4965 47.9686C96.4365 48.1386 96.4365 48.1486 96.4865 47.9986C96.4565 48.0686 96.4365 48.1286 96.4065 48.1986C96.2865 48.4786 96.1465 48.7486 95.9965 49.0086C95.9665 49.0586 95.9665 49.0686 95.9565 49.0886C95.9465 49.1086 95.9365 49.1086 95.8965 49.1586C95.8065 49.2686 95.7265 49.3786 95.6265 49.4786C95.6065 49.4986 95.4365 49.6686 95.3865 49.7186C95.3165 49.7686 95.1465 49.8986 95.1265 49.9186C95.0165 49.9886 94.9065 50.0586 94.7865 50.1286C94.7565 50.1386 94.7465 50.1486 94.7365 50.1586C94.7165 50.1686 94.6965 50.1686 94.6665 50.1886C94.5465 50.2386 94.4265 50.2886 94.2965 50.3186C94.2565 50.3286 94.0165 50.3786 93.9565 50.3986C93.8765 50.4086 93.7565 50.4186 93.7365 50.4186C93.6165 50.4286 93.5065 50.4286 93.3865 50.4186C93.4565 50.3986 92.9365 50.2986 92.9765 50.3386C92.8865 50.2986 92.7965 50.2586 92.7065 50.2186C92.6465 50.1886 92.5965 50.1586 92.5465 50.1286C92.4465 50.0286 92.3265 49.9386 92.2165 49.8386C92.1765 49.8086 92.1765 49.8086 92.1665 49.7986C92.1565 49.7786 92.1565 49.7786 92.1365 49.7486C91.9865 49.5486 91.8365 49.3386 91.7065 49.1186C91.6865 49.0886 91.5765 48.8686 91.5465 48.8186C91.5065 48.7286 91.4365 48.5586 91.4265 48.5386C91.2065 48.0086 91.0265 47.4686 90.8665 46.9286C90.6365 46.1786 89.6965 45.6986 88.9565 45.9886C88.1765 46.2886 87.7665 47.0886 88.0165 47.8986C88.4665 49.3486 89.0165 50.7686 90.0565 51.9086C91.1865 53.1586 92.9365 53.6486 94.5665 53.3286C96.2765 52.9986 97.6265 51.9886 98.5665 50.5386C99.4865 49.1386 99.7965 47.4586 99.8765 45.8086C99.9065 45.0286 99.0265 44.3286 98.2765 44.4086Z" fill="#1E1E1E"/>
<path d="M88.7161 35.2584C86.7861 35.3784 86.9661 38.3784 88.8961 38.2584C90.8261 38.1384 90.6561 35.1384 88.7161 35.2584Z" fill="#1E1E1E"/>
<path d="M98.4661 35.6988C96.5361 35.8188 96.7161 38.8188 98.6461 38.6988C100.586 38.5888 100.406 35.5888 98.4661 35.6988Z" fill="#1E1E1E"/>
<path d="M49.0165 105.799C49.0265 105.799 49.0765 105.809 49.1065 105.809C49.1265 105.809 49.1465 105.809 49.1465 105.809C49.2365 105.809 49.3265 105.809 49.4165 105.809C49.5765 105.799 49.7265 105.789 49.8865 105.759C49.9165 105.759 49.9665 105.739 49.9865 105.739C50.0165 105.729 50.0465 105.729 50.0665 105.719C50.1465 105.699 50.2165 105.669 50.2965 105.649C50.3865 105.619 50.4665 105.579 50.5565 105.549C50.5765 105.539 50.6465 105.499 50.6765 105.489C50.8165 105.409 50.9565 105.309 51.0865 105.189C51.1065 105.169 51.1565 105.119 51.1765 105.099C51.2365 105.029 51.2865 104.959 51.3465 104.879C51.3465 104.869 51.3465 104.879 51.3565 104.859C51.3765 104.819 51.3965 104.789 51.4065 104.749C51.4165 104.729 51.4465 104.649 51.4565 104.619C51.5065 104.449 51.5365 104.249 51.5465 104.069C51.5865 103.199 51.1565 102.189 50.5465 101.699C50.1465 101.369 49.6765 101.129 49.2465 100.839C48.9465 100.689 48.6565 100.529 48.3465 100.389C44.8065 98.8388 40.6465 97.8188 36.8465 98.4088C32.9665 99.0088 29.6365 101.389 26.9865 104.579C21.6965 110.959 19.2565 119.809 18.6665 128.369C18.3265 133.249 18.4765 138.129 18.8765 142.989C19.2665 147.819 19.8965 152.659 21.2865 157.269C22.1865 160.259 26.3065 158.679 25.4065 155.679C23.9965 151.009 23.4665 146.139 23.1165 141.239C22.7765 136.529 22.6365 131.759 23.1365 127.069C23.9165 119.679 26.2165 111.939 31.1865 106.779C33.6865 104.189 36.6865 102.929 40.0765 103.219C42.6265 103.439 45.4265 104.119 47.8065 105.459C48.1965 105.589 48.5965 105.729 49.0165 105.799Z" fill="#1E1E1E"/>
<path d="M8.58652 76.6787C11.2565 80.5687 15.6465 82.1887 19.5065 83.2287C21.7965 83.8487 24.1365 84.1787 26.4665 84.2787C27.5265 84.3287 28.5965 84.3187 29.6565 84.2487C30.2965 84.2087 31.0965 83.9687 31.7965 83.9787C32.1065 84.5287 32.3265 85.2187 32.5665 85.7587C32.9965 86.7087 33.4165 87.6487 33.8465 88.5987C34.3065 89.6287 35.4865 90.4587 36.4965 89.6087C36.8765 89.2887 37.0965 88.8587 37.3765 88.4787C37.6965 88.0287 38.0765 87.6187 38.3965 87.1787C39.0465 86.2887 39.6465 85.3587 40.2865 84.4587C41.3465 82.9787 42.5965 81.3487 44.2865 80.5887C45.7065 79.9487 47.2465 79.6087 48.6365 78.8987C52.5665 76.8787 55.9465 73.1887 56.3065 67.6187C56.6165 62.8687 54.9365 58.1287 51.7265 55.2987C48.1965 52.1887 43.6165 50.5987 39.4665 49.4587C35.2965 48.3187 31.0065 47.8087 26.7565 47.7887C22.4665 47.7587 18.0365 47.9487 14.3465 50.8187C11.2265 53.2387 8.10652 57.4387 6.56652 61.6087C4.89652 66.1987 5.90652 72.7687 8.58652 76.6787ZM7.68652 64.7787C8.13652 62.4987 9.67652 60.4187 10.8665 58.6887C12.0965 56.8887 13.4465 55.2487 15.0665 53.9787C18.5465 51.2687 23.1565 51.5187 27.1765 51.5887C31.7465 51.6587 36.3165 52.3287 40.7865 53.6687C44.5765 54.8087 49.5665 56.2487 52.4665 59.7587C54.7665 62.5387 55.3365 67.4087 53.4065 70.5687C51.0765 74.3587 47.0565 74.8787 43.6865 76.4887C40.5665 77.9787 38.5565 80.6687 36.9465 83.9387C36.2565 82.3987 35.4465 80.9787 34.3165 80.2587C33.2065 79.5587 32.0365 79.6887 30.8665 79.8187C29.4665 79.9787 28.0565 80.0687 26.6465 80.0487C21.9565 79.9987 16.8365 78.9787 12.5265 76.4487C10.8265 75.4487 9.34652 74.1187 8.54652 71.9287C7.79652 69.8587 7.24652 67.0087 7.68652 64.7787Z" fill="#1E1E1E"/>
<path d="M22.3863 69.0485C23.0663 69.0385 23.5063 69.4985 23.6163 70.1385C23.6263 70.1885 23.6363 70.2285 23.6363 70.2785C23.6363 70.2885 23.6363 70.2885 23.6463 70.3185C23.6863 70.4385 23.7063 70.5685 23.7363 70.6885C23.7963 70.8985 23.8663 71.1085 23.9463 71.3085C23.9863 71.4085 24.0263 71.5085 24.0763 71.6085C24.1363 71.7285 24.1363 71.7385 24.0863 71.6285C24.1163 71.6785 24.1363 71.7285 24.1663 71.7685C24.2863 71.9685 24.4163 72.1685 24.5563 72.3485C24.5863 72.3885 24.5863 72.3885 24.5963 72.3985C24.6063 72.4085 24.6163 72.4085 24.6463 72.4485C24.7263 72.5285 24.7963 72.5985 24.8863 72.6685C24.9063 72.6885 25.0463 72.7985 25.0963 72.8285C25.1463 72.8585 25.2963 72.9485 25.3163 72.9585C25.4063 73.0085 25.4963 73.0485 25.5963 73.0885C25.6163 73.0985 25.6263 73.0985 25.6363 73.1085C25.6563 73.1085 25.6663 73.1185 25.6963 73.1185C25.7963 73.1385 25.8963 73.1685 25.9963 73.1885C26.0263 73.1985 26.2163 73.2085 26.2663 73.2185C26.3263 73.2185 26.4163 73.2185 26.4363 73.2185C26.5263 73.2185 26.6163 73.1985 26.7063 73.1885C26.6463 73.1785 27.0463 73.0485 27.0163 73.0885C27.0863 73.0485 27.1463 73.0085 27.2163 72.9685C27.2563 72.9385 27.2963 72.9085 27.3363 72.8785C27.4063 72.7985 27.4863 72.7085 27.5663 72.6285C27.5863 72.5985 27.5963 72.6085 27.5963 72.5985C27.6063 72.5885 27.5963 72.5885 27.6163 72.5585C27.7163 72.3885 27.8063 72.2185 27.8863 72.0385C27.8963 72.0185 27.9663 71.8385 27.9863 71.7885C28.0063 71.7185 28.0463 71.5785 28.0563 71.5585C28.1763 71.1385 28.2563 70.6985 28.3363 70.2685C28.4463 69.6685 29.1163 69.2185 29.7163 69.3685C30.3363 69.5285 30.7263 70.1085 30.6163 70.7485C30.4063 71.9085 30.1163 73.0385 29.4263 74.0085C28.6763 75.0685 27.3763 75.6085 26.0963 75.5185C24.7563 75.4185 23.6263 74.7785 22.7663 73.7585C21.9363 72.7685 21.5363 71.5185 21.3263 70.2585C21.1963 69.6685 21.8063 69.0485 22.3863 69.0485Z" fill="#1E1E1E"/>
<path d="M28.8664 61.1485C30.3564 61.0585 30.4964 63.3785 29.0064 63.4685C27.5164 63.5485 27.3764 61.2385 28.8664 61.1485Z" fill="#1E1E1E"/>
<path d="M21.4362 62.3883C22.9262 62.2983 23.0662 64.6183 21.5762 64.7083C20.0862 64.7983 19.9362 62.4783 21.4362 62.3883Z" fill="#1E1E1E"/>
<path d="M121.076 113.928C121.066 113.928 121.026 113.938 120.996 113.948C120.976 113.948 120.956 113.958 120.956 113.958C120.876 113.968 120.796 113.978 120.716 113.988C120.576 113.998 120.436 114.008 120.286 113.998C120.266 113.998 120.206 113.998 120.196 113.988C120.166 113.988 120.146 113.978 120.116 113.978C120.046 113.968 119.976 113.958 119.906 113.938C119.826 113.918 119.746 113.898 119.666 113.878C119.646 113.868 119.576 113.848 119.556 113.838C119.416 113.778 119.286 113.708 119.156 113.618C119.136 113.598 119.086 113.558 119.066 113.548C119.006 113.488 118.946 113.438 118.896 113.368C118.896 113.358 118.896 113.368 118.886 113.348C118.866 113.318 118.846 113.288 118.826 113.258C118.816 113.238 118.776 113.168 118.766 113.148C118.706 112.998 118.656 112.828 118.626 112.668C118.506 111.888 118.796 110.938 119.296 110.418C119.626 110.078 120.016 109.808 120.386 109.488C120.636 109.318 120.886 109.138 121.156 108.978C124.186 107.148 127.826 105.728 131.296 105.788C134.836 105.848 138.066 107.578 140.746 110.118C146.116 115.198 149.156 122.848 150.506 130.458C151.276 134.798 151.616 139.198 151.726 143.618C151.836 148.008 151.736 152.428 150.936 156.738C150.416 159.538 146.566 158.618 147.086 155.818C147.896 151.448 147.916 147.008 147.756 142.568C147.606 138.298 147.276 133.998 146.376 129.838C144.966 123.298 142.156 116.628 137.186 112.598C134.696 110.578 131.876 109.808 128.856 110.488C126.586 110.998 124.136 111.948 122.126 113.448C121.796 113.648 121.446 113.818 121.076 113.928Z" fill="#1E1E1E"/>
<path d="M154.786 68.2287C152.946 64.6387 149.676 61.2087 146.606 59.3587C142.976 57.1787 138.966 57.4887 135.106 57.9787C131.286 58.4687 127.486 59.3887 123.846 60.8687C120.236 62.3387 116.286 64.2787 113.446 67.4587C110.866 70.3487 109.866 74.7987 110.666 79.0387C111.596 84.0187 115.046 86.9587 118.796 88.3487C120.126 88.8387 121.546 88.9787 122.896 89.3987C124.506 89.8987 125.806 91.2286 126.926 92.4487C127.606 93.1887 128.246 93.9587 128.926 94.6887C129.266 95.0587 129.646 95.3787 129.986 95.7487C130.276 96.0687 130.526 96.4286 130.906 96.6687C131.916 97.3287 132.886 96.4487 133.186 95.4687C133.466 94.5687 133.746 93.6687 134.026 92.7787C134.186 92.2687 134.306 91.6186 134.526 91.0886C135.156 90.9986 135.906 91.1287 136.486 91.0987C137.446 91.0487 138.406 90.9387 139.356 90.7787C141.446 90.4287 143.516 89.8787 145.506 89.0687C148.866 87.7187 152.646 85.7787 154.626 81.9887C156.616 78.1987 156.816 72.1787 154.786 68.2287ZM154.146 77.7387C153.666 79.7987 152.486 81.1487 151.056 82.2387C147.446 84.9887 142.966 86.4687 138.746 87.0187C137.476 87.1887 136.206 87.2586 134.926 87.2687C133.856 87.2787 132.786 87.2887 131.876 88.0387C130.946 88.8087 130.356 90.1787 129.906 91.6387C128.106 88.8687 125.996 86.6687 123.026 85.6687C119.826 84.5887 116.146 84.5587 113.636 81.3987C111.546 78.7687 111.536 74.3287 113.306 71.5687C115.536 68.0887 119.866 66.2487 123.156 64.8187C127.036 63.1187 131.076 62.0287 135.176 61.4587C138.786 60.9587 142.906 60.2287 146.336 62.2887C147.936 63.2487 149.326 64.5787 150.626 66.0687C151.886 67.4987 153.496 69.2087 154.156 71.2087C154.776 73.1587 154.606 75.7787 154.146 77.7387Z" fill="#1E1E1E"/>
<path d="M141.386 76.6383C140.766 76.7083 140.426 77.1583 140.396 77.7483C140.396 77.7883 140.396 77.8383 140.386 77.8783C140.386 77.8883 140.386 77.8883 140.386 77.9083C140.366 78.0183 140.356 78.1383 140.346 78.2583C140.316 78.4583 140.276 78.6483 140.226 78.8383C140.206 78.9383 140.176 79.0283 140.146 79.1283C140.106 79.2483 140.106 79.2583 140.136 79.1483C140.116 79.1983 140.096 79.2383 140.076 79.2883C139.996 79.4883 139.896 79.6683 139.786 79.8583C139.766 79.8983 139.766 79.8983 139.756 79.9083C139.746 79.9183 139.746 79.9183 139.716 79.9583C139.656 80.0383 139.596 80.1083 139.526 80.1883C139.506 80.2083 139.396 80.3183 139.356 80.3583C139.306 80.3883 139.196 80.4883 139.176 80.4983C139.096 80.5483 139.016 80.5983 138.946 80.6483C138.926 80.6583 138.916 80.6683 138.906 80.6683C138.896 80.6683 138.876 80.6783 138.856 80.6883C138.766 80.7183 138.686 80.7583 138.596 80.7783C138.576 80.7883 138.406 80.8283 138.356 80.8383C138.296 80.8483 138.216 80.8483 138.196 80.8583C138.116 80.8683 138.036 80.8583 137.956 80.8583C138.006 80.8483 137.636 80.7683 137.666 80.7983C137.606 80.7683 137.536 80.7483 137.476 80.7083C137.436 80.6883 137.396 80.6683 137.366 80.6383C137.296 80.5683 137.216 80.4983 137.136 80.4383C137.116 80.4183 137.106 80.4183 137.106 80.4183C137.096 80.4083 137.096 80.4083 137.086 80.3883C136.976 80.2483 136.876 80.0983 136.786 79.9483C136.776 79.9283 136.696 79.7783 136.676 79.7383C136.646 79.6783 136.596 79.5583 136.586 79.5383C136.436 79.1683 136.306 78.7883 136.196 78.4083C136.036 77.8783 135.376 77.5483 134.856 77.7483C134.316 77.9583 134.026 78.5183 134.196 79.0883C134.516 80.1083 134.896 81.0983 135.626 81.8883C136.416 82.7583 137.646 83.1083 138.786 82.8783C139.976 82.6483 140.926 81.9383 141.586 80.9283C142.226 79.9483 142.446 78.7783 142.496 77.6183C142.516 77.0683 141.906 76.5783 141.386 76.6383Z" fill="#1E1E1E"/>
<path d="M134.697 70.2386C133.347 70.3186 133.467 72.4186 134.827 72.3386C136.167 72.2586 136.047 70.1586 134.697 70.2386Z" fill="#1E1E1E"/>
<path d="M141.516 70.5486C140.166 70.6286 140.286 72.7286 141.646 72.6486C142.996 72.5686 142.866 70.4686 141.516 70.5486Z" fill="#1E1E1E"/>
<path d="M154.387 57.9385L154.717 57.6585C155.287 57.1885 155.907 56.7585 156.567 56.3785C156.867 56.1985 157.087 55.8885 157.157 55.5285C157.237 55.1585 157.157 54.7785 156.947 54.4885C156.527 53.9185 155.767 53.7585 155.157 54.1285C153.677 54.9885 152.347 56.0885 151.187 57.3885C150.947 57.6585 150.827 58.0185 150.857 58.3885C150.887 58.7485 151.047 59.0685 151.317 59.2885C151.597 59.5185 151.937 59.6185 152.267 59.5985C152.607 59.5785 152.937 59.4285 153.177 59.1585C153.427 58.8785 153.687 58.6085 153.957 58.3485C154.087 58.2085 154.227 58.0885 154.387 57.9385Z" fill="#1E1E1E"/>
<path d="M157.777 60.2185C157.467 59.9585 157.097 59.8485 156.757 59.9185C155.997 60.0585 155.337 60.2685 154.747 60.5585C154.517 60.6685 154.237 60.8385 154.057 61.1885C153.887 61.5185 153.867 61.9185 153.997 62.2485C154.127 62.5885 154.367 62.8585 154.667 62.9885C154.887 63.0885 155.127 63.1385 155.337 63.1185C155.477 63.1085 155.617 63.0785 155.747 63.0185C156.207 62.7985 156.697 62.6385 157.197 62.5385C157.427 62.4785 157.687 62.3785 157.907 62.1285C158.147 61.8585 158.277 61.4785 158.237 61.1385C158.207 60.7485 158.037 60.4285 157.777 60.2185Z" fill="#1E1E1E"/>
<path d="M151.486 52.1584C151.466 51.7684 151.296 51.4184 151.016 51.1884C150.466 50.7384 149.716 50.7784 149.196 51.2784C148.266 52.1684 147.376 53.1184 146.546 54.0984C146.316 54.3784 146.196 54.7384 146.226 55.1084C146.256 55.4584 146.416 55.7684 146.686 55.9884C146.966 56.2184 147.306 56.3184 147.636 56.2984C147.986 56.2784 148.316 56.1284 148.546 55.8484C149.356 54.8984 150.216 53.9784 151.106 53.1184C151.366 52.8784 151.506 52.5284 151.486 52.1584Z" fill="#1E1E1E"/>
<path d="M2.59653 72.9385C2.43653 72.2385 1.80653 71.8485 1.10653 72.0085C0.426534 72.1585 -0.153466 72.8285 0.0365344 73.6685C1.03653 78.0385 3.79653 81.9785 7.62653 84.4785C7.87653 84.6385 8.13653 84.7085 8.39653 84.6885C8.76653 84.6685 9.10653 84.4685 9.34653 84.1185C9.72653 83.5385 9.68653 82.6485 8.96653 82.1785C5.78653 80.0885 3.46653 76.7285 2.59653 72.9385Z" fill="#1E1E1E"/>
<path d="M113.877 18.3685C113.497 18.0585 113.027 17.9785 112.587 18.1385C112.127 18.3085 111.777 18.7285 111.687 19.1985C111.607 19.6485 111.777 20.0785 112.137 20.3885C114.077 22.0085 115.657 24.0285 116.707 26.2485C116.967 26.7985 117.477 27.1085 118.017 27.0785C118.137 27.0685 118.257 27.0485 118.367 27.0085C118.717 26.8885 119.027 26.5985 119.177 26.2385C119.317 25.9085 119.317 25.5585 119.167 25.2485C117.897 22.5485 116.117 20.2285 113.877 18.3685Z" fill="#1E1E1E"/>
<path d="M114.756 134.468C114.896 139.938 114.886 147.128 113.576 154.158C113.266 155.808 111.886 155.568 111.616 155.508C111.346 155.438 109.986 155.028 110.296 153.368C111.606 146.308 111.576 139.288 111.346 132.758C111.156 127.298 110.736 120.118 109.206 113.008C107.366 104.488 103.346 92.8483 94.6464 85.8083C90.4964 82.4483 85.7364 81.2483 80.8864 82.3383C77.7164 83.0583 71.7764 84.9083 67.6264 89.2683C60.1364 97.1283 60.2264 110.378 60.2864 120.038C60.3564 131.788 60.4464 145.108 61.9064 157.948C62.0564 159.288 61.1964 159.618 60.6664 159.688C60.0164 159.778 58.7164 159.548 58.5364 157.968C57.7664 151.198 57.3164 143.778 57.1164 134.608L57.0464 131.538C56.8964 124.998 56.7364 118.238 57.0764 111.658C57.8264 97.0383 62.0564 87.5983 69.9964 82.7983C74.5664 80.0383 79.2364 78.4183 83.3164 78.1383C83.8364 78.0983 84.3464 78.0883 84.8364 78.0983C89.4864 78.1783 94.1864 80.3483 98.4364 84.3683C107.466 92.9083 111.286 105.518 112.896 114.598C113.966 120.488 114.566 126.988 114.756 134.468Z" fill="#1E1E1E"/>
<path d="M87.7763 0.868384C84.5563 1.13838 81.8163 2.53838 79.1063 4.21838C78.2063 4.77838 76.1163 6.61838 75.0063 6.41838C74.3263 6.28838 73.2363 5.15838 72.6863 4.74838C71.8863 4.13838 71.1063 3.50838 70.3263 2.87838C69.4263 2.13838 67.9763 2.09838 67.3563 3.25838C66.1163 5.54838 64.8863 7.84838 63.6463 10.1384C63.0263 11.2884 62.4163 12.4384 61.7963 13.5784C61.7563 13.6584 61.7063 13.7384 61.6563 13.8184C61.6263 13.8184 61.6163 13.8184 61.5863 13.8184C61.2163 13.5984 60.2663 13.6884 59.8563 13.6384C54.8763 13.0184 50.0063 11.8684 45.0163 13.0784C43.2763 13.4984 43.3563 15.6284 44.5663 16.5384C48.3463 19.3984 52.2563 22.0784 56.2863 24.5884C56.6163 25.7584 58.2663 26.6584 59.5463 25.6284C67.3263 19.3584 76.6463 15.2484 86.4763 13.5484C87.7563 13.3284 88.0563 12.1784 87.6963 11.2284C88.1563 8.52838 88.7863 5.87838 89.5963 3.26838C89.9463 2.15838 88.9963 0.768384 87.7763 0.868384ZM62.1463 17.6084C64.6463 17.4584 65.4863 14.7184 66.4963 12.8384L69.5863 7.10838C70.5863 7.90838 71.6063 8.68838 72.6663 9.38838C74.5163 10.6184 76.1463 10.3784 78.0163 9.32838C80.3463 8.02838 82.5963 6.22838 85.1263 5.27838C84.7063 6.89838 84.3363 8.53838 84.0563 10.1884C74.8263 12.0184 66.1663 15.9684 58.6463 21.6084C55.9163 19.9284 53.2463 18.1484 50.6363 16.3084C51.8063 16.3384 52.9763 16.4584 54.1463 16.6084C56.7163 16.9484 59.5463 17.7584 62.1463 17.6084Z" fill="#1E1E1E"/>
</svg>
