<svg width="53" height="48" viewBox="0 0 53 48" fill="none" xmlns="http://www.w3.org/2000/svg">
<path d="M45.8222 26.0656C45.8067 23.7819 45.3476 21.4661 44.3285 19.1984C42.4691 11.4017 36.2452 6.59388 29.2433 4.18996C20.6854 2.58734 12.1276 4.18996 5.90364 11.4017C1.23571 17.0109 -0.320263 24.2226 2.0137 31.4344C5.90364 41.8514 15.2395 49.0631 26.9093 47.4605C37.0232 45.8659 46.359 37.0516 45.8222 26.0656ZM35.4439 25.0239C35.1327 25.1521 34.7904 25.2243 34.448 25.2643C34.4247 25.2643 34.4091 25.2723 34.3858 25.2723C33.5689 25.3925 32.6664 25.7852 31.8807 26.0576C30.9471 26.3862 30.0213 26.7548 29.1188 27.1794C27.9052 27.7484 26.7226 28.4055 25.5945 29.1346C24.5209 29.8318 23.5017 30.8174 22.148 30.7533C21.6657 30.7292 21.1444 30.5369 20.9188 30.0962C20.8099 29.8799 20.7866 29.6314 20.771 29.383C20.6232 27.2836 20.8177 25.2002 20.7632 23.1008C20.7165 21.1696 20.5065 19.2145 19.9074 17.3715C19.783 16.9788 19.6274 16.5862 19.6429 16.1775C19.674 15.3682 20.5532 14.8714 21.2689 14.9996C21.7513 15.0877 22.1714 15.3602 22.5915 15.6166C26.3181 17.9083 30.4025 19.3026 34.5647 20.4966C35.0082 20.6248 35.4672 20.753 35.8251 21.0655C36.5953 21.7466 36.8676 23.4854 36.2763 24.3508C36.0585 24.6794 35.7628 24.8877 35.4439 25.0239Z" fill="#F7C300"/>
<path d="M46.3435 13.9503C42.438 4.47886 32.0207 -0.913938 22.2881 0.127761C20.8099 0.288022 20.7944 2.69194 22.2881 2.53168C29.998 1.70634 38.2369 5.09586 42.6092 11.8509C46.8492 18.3976 46.7947 27.6927 42.1424 34.015C37.3266 40.5537 28.4809 42.3566 20.9966 40.8983C16.8655 40.0889 12.6177 38.4142 9.76249 35.1128C7.28071 32.2441 6.02815 28.3338 6.04371 24.5195C6.06705 15.1923 14.1348 8.06871 22.8949 7.76421C24.3965 7.70812 24.3965 5.3042 22.8949 5.36029C14.2204 5.66479 5.73251 11.907 4.05206 20.9537C3.25073 25.2648 3.89645 29.8402 5.9659 33.7025C8.22207 37.9094 12.0809 40.6018 16.4221 42.1403C24.6843 45.0651 34.8448 44.2878 41.59 38.1418C48.0784 32.2201 49.6655 22.0195 46.3435 13.9503Z" fill="#1E1E1E"/>
<path d="M37.9565 23.2856C37.8943 22.8128 37.5831 22.3321 37.1163 22.2679C31.0635 21.4025 25.2442 19.3672 19.9461 16.2261C18.6935 15.4809 17.5654 17.3639 18.6313 18.1973C20.0861 23.0612 20.7163 28.1095 21.3153 33.1497C21.3931 33.7907 21.7977 34.3517 22.4823 34.3517C22.8324 34.3517 23.2214 34.1433 23.447 33.8308C27.4692 29.8323 32.495 27.188 37.4275 24.5998C38.0032 24.3033 38.1199 23.7584 37.9565 23.2856ZM23.3537 30.6897C22.9024 27.0277 22.3734 23.3657 21.4865 19.7919C25.2753 21.7311 29.2897 23.1574 33.4286 24.0388C29.8888 25.954 26.4112 28.0293 23.3537 30.6897Z" fill="#1E1E1E"/>
<path d="M50.6615 19.0145C50.7237 23.5178 50.1791 27.9811 49.0277 32.3242C48.6309 33.8226 50.8793 34.4556 51.2761 32.9652C52.482 28.4298 53.0577 23.7181 52.9954 19.0145C52.9721 17.4679 50.6381 17.4599 50.6615 19.0145Z" fill="#1E1E1E"/>
<path d="M0.232027 29.9365C0.877758 33.262 2.26257 36.371 4.262 39.0714C4.64322 39.5843 5.45233 39.5923 5.91134 39.1916C6.40926 38.7429 6.40925 38.0137 6.02804 37.4929C4.28534 35.145 3.09502 32.3966 2.52709 29.4958C2.23146 27.9653 -0.0558282 28.4141 0.232027 29.9365Z" fill="#1E1E1E"/>
</svg>
