<svg width="161" height="161" viewBox="0 0 161 161" fill="none" xmlns="http://www.w3.org/2000/svg">
<path d="M121.326 50.3289C119.965 47.1455 118.38 43.3525 115.298 41.4448C111.632 39.1758 108.562 42.0769 105.56 44.075C103.929 45.1587 103.738 46.9536 104.334 48.3646C104.458 48.9404 104.795 49.5161 105.413 50.0241C110.047 53.8509 112.408 61.4481 114.399 66.9117C114.961 68.4583 116.76 70.0274 118.548 69.2823C121.618 67.9954 124.092 67.4874 124.396 63.5929C124.745 59.0549 123.069 54.404 121.326 50.3289Z" fill="#F7C300"/>
<path d="M110.059 3.19937C106.955 1.51738 102.895 1.86733 99.4989 2.04794C93.9773 2.34145 88.8043 1.96892 83.339 1.05455C81.1911 0.693318 79.6729 2.18341 79.2343 3.83153C79.2231 3.85411 79.2118 3.8654 79.2118 3.88798C77.4013 9.45323 76.7266 16.7569 79.8753 22.0287C82.8329 26.9618 89.0855 26.2167 94.0448 26.4763C98.9479 26.736 104.357 27.6052 107.495 22.8979C109.046 20.5612 109.294 17.8632 109.642 15.1427C110.036 12.0383 111.442 9.1823 111.734 6.12311C111.835 4.99425 111.014 3.71865 110.059 3.19937Z" fill="#59C69F"/>
<path d="M42.106 47.1932C41.7719 46.692 41.1036 46.207 40.4446 46.0776C39.73 45.9402 38.9318 45.9645 38.3007 46.3202C37.6881 46.6597 37.224 47.1447 37.0199 47.7672C36.8992 48.1552 36.7693 48.5513 36.6486 48.9394C36.4537 49.5457 36.5651 50.2651 36.927 50.8068C37.2612 51.308 37.9294 51.793 38.5884 51.9224C39.303 52.0598 40.1012 52.0355 40.7324 51.6798C41.3449 51.3403 41.809 50.8553 42.0132 50.2328C42.1338 49.8448 42.2638 49.4487 42.3844 49.0606C42.5793 48.4624 42.468 47.7349 42.106 47.1932Z" fill="#59C69F"/>
<path d="M47.6226 24.0381C45.5647 20.0307 42.4609 16.8248 38.4574 14.7702C33.5881 12.2642 29.5959 10.0178 27.538 4.5654C26.0198 0.524104 19.4861 2.27383 21.0267 6.37157C22.7023 10.8305 25.2776 14.5783 29.1461 17.4118C33.9255 20.9112 38.8623 21.7691 41.7861 27.4586C43.7878 31.3305 49.6131 27.8988 47.6226 24.0381Z" fill="#F7C300"/>
<path d="M24.9738 84.3751C18.159 90.279 11.4678 94.7041 3.22481 98.3729C-0.733646 100.134 2.69626 105.97 6.63222 104.22C15.46 100.292 22.4548 95.4717 29.7419 89.1614C33.0481 86.3167 28.2575 81.5416 24.9738 84.3751Z" fill="#59C69F"/>
<path d="M139.611 155.843C135.923 148.043 130.885 141.066 124.689 135.083C121.562 132.058 116.783 136.844 119.92 139.87C125.734 145.491 130.334 151.948 133.786 159.263C135.653 163.192 141.467 159.76 139.611 155.843Z" fill="#F7C300"/>
<path d="M136.148 122.135C136.924 119.742 138.195 117.236 137.88 114.651C137.621 112.506 136.395 110.474 135.113 108.792C133.921 107.234 132.538 105.778 130.784 104.864C130.087 104.503 129.344 104.266 128.658 104.311C126.072 107.957 124.216 112.405 121.371 115.791C120.831 116.435 120.134 117.078 119.459 117.744C116.94 117.157 113.904 119.81 115.647 122.677C117.84 126.289 119.527 131.008 124.43 130.444C129.041 129.913 133.145 126.346 136.069 122.892C136.047 122.666 136.058 122.417 136.148 122.135ZM127.14 123.704C127.118 123.908 127.095 124.167 127.039 124.37C127.005 124.472 126.96 124.574 126.915 124.675C126.926 124.653 126.938 124.619 126.949 124.596C126.893 124.732 126.837 124.867 126.78 125.003C126.837 124.901 126.87 124.788 126.915 124.675C126.825 124.89 126.747 125.115 126.623 125.319C126.6 125.364 126.567 125.409 126.533 125.454C126.42 125.601 126.308 125.759 126.184 125.894C126.151 125.928 126.117 125.962 126.083 125.985C125.948 126.098 125.802 126.222 125.656 126.312C125.622 126.335 125.588 126.346 125.555 126.368C125.397 126.448 125.228 126.527 125.06 126.572C124.958 126.594 124.846 126.606 124.745 126.617C124.644 126.628 124.531 126.651 124.43 126.651C124.329 126.651 124.216 126.628 124.115 126.617C124.014 126.606 123.901 126.594 123.8 126.572C123.766 126.56 123.733 126.549 123.699 126.538C123.542 126.481 123.373 126.414 123.215 126.335C123.148 126.301 123.092 126.267 123.036 126.222C122.878 126.109 122.687 125.973 122.541 125.827C122.383 125.669 122.26 125.488 122.136 125.319C121.99 125.127 121.911 124.924 121.81 124.709C121.72 124.483 121.63 124.269 121.596 124.032C121.562 123.806 121.517 123.58 121.517 123.343C121.517 123.117 121.562 122.88 121.596 122.655C121.607 122.576 121.63 122.485 121.664 122.418C121.742 122.203 121.821 121.989 121.933 121.797C122.046 121.605 122.192 121.424 122.338 121.243C122.406 121.176 122.473 121.108 122.541 121.04C122.754 120.826 123.002 120.679 123.294 120.6C123.44 120.577 123.598 120.555 123.744 120.544C123.879 120.532 124.014 120.555 124.138 120.589C124.194 120.589 124.25 120.589 124.318 120.6C124.509 120.623 124.745 120.634 124.936 120.702C125.138 120.758 125.33 120.848 125.51 120.939C125.566 120.961 125.622 120.995 125.678 121.04C125.847 121.153 126.016 121.289 126.173 121.424C126.218 121.469 126.274 121.514 126.308 121.56C126.443 121.718 126.578 121.887 126.69 122.056C126.724 122.113 126.758 122.18 126.792 122.237C126.881 122.429 126.971 122.621 127.028 122.835C127.084 123.05 127.106 123.275 127.118 123.49C127.151 123.558 127.151 123.637 127.14 123.704Z" fill="#59C69F"/>
<path d="M92.3013 80.1646C92.2672 80.1421 92.2786 80.1421 92.3013 80.1646V80.1646Z" fill="#1E1E1E"/>
<path d="M158.943 118.264C158.751 117.767 158.054 117.214 157.593 117.135C157.571 117.135 157.537 117.123 157.514 117.112C157.537 117.112 157.559 117.123 157.582 117.123C157.571 117.112 157.559 117.112 157.537 117.101C157.098 117.011 156.738 116.796 156.48 116.469C154.962 115.554 153.455 114.64 151.925 113.748C149.924 112.574 147.911 111.265 145.763 110.362C144.2 109.707 142.569 109.481 141.152 110.316C140.241 108.713 138.667 107.257 137.655 106.072C136.092 104.232 134.09 100.947 131.413 100.699C130.986 100.665 130.604 100.71 130.255 100.811C130.21 100.766 130.176 100.732 130.131 100.699C125.993 97.6055 121.675 94.3883 118.762 90.0309C116.142 86.1138 115.242 81.35 112.678 77.3991C111.779 76.0219 110.103 73.4142 108.124 73.8545C105.74 74.385 106.842 78.0764 107.157 79.6455C107.303 80.3679 107.472 81.0791 107.573 81.8016C107.64 82.2418 107.674 82.6708 107.696 83.1111C107.809 83.5626 107.629 83.6416 107.168 83.3368C106.617 83.2465 105.863 82.5015 105.402 82.1967C104.941 81.8919 104.491 81.5758 104.042 81.271C103.367 80.7969 102.681 80.3228 102.017 79.8374C102.085 79.7584 102.164 79.6793 102.231 79.589C102.501 79.2729 102.771 78.9682 103.018 78.6295C103.569 77.8732 103.67 76.8346 103.131 76.0331C102.636 75.2994 101.882 74.9043 101.05 74.6672C100.735 74.5769 100.409 74.5318 100.072 74.4866C104.604 71.8451 109.215 69.3503 113.949 67.0813C114.669 67.9167 115.591 68.436 116.862 68.2215C118.312 67.9731 119.774 67.2055 121.101 66.5733C122.574 65.8735 123.991 65.0494 125.352 64.1576C125.701 63.9318 125.858 63.6157 125.903 63.2884C126.387 63.0626 126.78 62.5772 126.679 61.9112C126.668 61.866 126.668 61.8322 126.657 61.787C135.372 56.7975 144.076 51.7515 152.825 46.8184C154.399 45.9266 155.985 45.0687 157.571 44.1995C157.953 43.9963 158.38 43.7028 158.38 43.2738C158.392 42.4272 156.997 42.1337 156.379 42.2014C155.648 42.2917 155.007 42.8223 154.388 43.1722C153.623 43.5899 152.87 44.0076 152.105 44.4365C143.412 49.3132 134.787 54.314 126.15 59.2697C125.386 56.2895 124.115 53.4448 122.608 50.7581C120.798 47.5296 118.785 44.1769 116.288 41.4338C115.242 40.2823 113.915 39.1309 112.442 38.352C113.949 36.8619 115.445 35.3492 117.064 34.0059C118.773 32.5835 120.753 31.5224 122.676 30.4161C126.791 28.0568 130.952 25.7427 134.9 23.0899C141.231 18.8454 146.629 13.7768 150.61 7.22948C151.127 6.38284 151.7 5.54749 151.835 4.53152C151.858 4.38477 151.858 4.22673 151.757 4.12513C151.7 4.0574 151.611 4.03483 151.532 4.01225C149.474 3.49298 148.687 5.75068 147.843 7.1166C146.865 8.69699 145.763 10.1871 144.548 11.5981C142.13 14.4203 139.319 16.8925 136.339 19.105C135.023 20.0871 133.663 21.0128 132.291 21.8933C128.456 24.3655 124.452 26.578 120.505 28.8583C118.717 29.8856 116.963 30.9467 115.377 32.2675C113.465 33.8592 111.734 35.6766 109.946 37.4038C109.934 37.415 109.923 37.4376 109.912 37.4489C108.945 37.2909 107.955 37.3473 106.965 37.7198C105.346 38.3181 103.85 39.605 102.568 40.7452C102.287 40.9935 102.029 41.2531 101.781 41.5241C102.062 37.2457 102.074 32.9335 103.243 28.8019C103.401 28.7454 103.536 28.6551 103.682 28.5761C105.087 28.4632 105.953 27.3795 106.527 26.1152C107.235 24.5687 107.933 22.8528 107.55 21.1144C107.46 20.7193 107.314 20.3693 107.134 20.042C107.696 17.8181 108.292 15.6056 108.978 13.4156C109.529 11.6659 110.035 9.89358 110.688 8.16643C111.003 7.33108 111.351 6.49573 111.756 5.69424C111.88 5.45718 112.341 4.88147 112.285 4.61054C112.206 4.2606 111.565 4.11385 111.273 4.03483C110.935 3.93323 110.575 3.84292 110.249 3.96709C109.923 4.09127 109.709 4.38477 109.529 4.68956C108.843 5.86357 108.529 7.19562 108.113 8.48251C107.696 9.74683 107.213 10.9886 106.808 12.2529C106.19 14.1945 105.638 16.1587 105.121 18.1342C103.299 17.107 100.87 16.678 99.1385 16.2716C95.2925 15.3798 91.3566 14.9847 87.4206 14.8154C84.1819 14.6799 80.7295 14.4654 77.7269 15.7975C77.7269 15.7185 77.7156 15.6394 77.7156 15.5604C77.6931 13.9687 77.8169 12.3883 78.053 10.8192C78.2442 9.61137 78.4691 8.41478 78.7165 7.21819C78.8627 6.47315 79.2113 5.70553 79.2226 4.93791C79.2226 4.63312 79.1438 4.30575 78.9302 4.07998C78.7727 3.91065 78.5591 3.82034 78.3342 3.75261C78.0867 3.68488 77.8168 3.65102 77.5582 3.67359C77.412 3.68488 77.2546 3.71875 77.1646 3.83163C77.0971 3.91065 77.0859 4.02354 77.0746 4.12513C76.8947 5.44589 76.4449 6.65377 76.1525 7.95195C75.8376 9.38559 75.5677 10.8192 75.4328 12.2755C75.1629 15.1428 75.2866 18.0552 75.8151 20.8886C76.175 22.819 76.7148 24.6364 78.4016 25.754C78.1655 26.0136 78.0193 26.3748 78.1092 26.8264C78.9414 30.7322 78.4466 34.7171 77.6032 38.5778C77.2208 40.3388 76.7935 42.0998 76.3212 43.8382C75.9276 45.2832 75.4215 46.6829 74.4544 47.8231C68.0557 44.0076 61.9943 39.684 56.3153 34.8525C54.3248 33.1593 52.3681 31.2515 49.849 30.3936C49.0506 30.1226 48.2409 30.0098 47.42 30.021C47.4312 29.8743 47.4312 29.705 47.375 29.5244C46.4079 26.3974 44.7323 23.5076 42.382 21.2273C39.7617 18.6874 36.3881 17.186 33.4979 15.0073C31.2938 13.3479 29.2921 11.4288 27.5153 9.31786C26.5032 8.10999 25.6148 6.80052 24.7713 5.46847C24.0404 4.29446 23.4556 2.89468 22.5335 1.85614C22.2973 1.58521 22.0162 1.33686 21.6676 1.23527C21.2177 1.08852 20.6555 1.22398 20.3181 1.58521C20.2169 1.68681 20.1382 1.82227 20.1269 1.95773C20.1044 2.11577 20.1831 2.25124 20.2506 2.3867C22.7921 7.3085 25.8959 11.8465 30.1692 15.425C32.8682 17.7278 35.9607 19.3195 38.8171 21.3853C41.8084 23.5414 43.9563 26.6458 45.0472 30.1678C45.0697 30.2581 45.1259 30.3146 45.1596 30.3823C44.5861 30.5629 44.0463 30.8225 43.5178 31.1273C43.4728 30.6081 42.9105 30.1114 42.3932 30.1565L39.8067 30.3484C39.8292 30.0662 39.8292 29.7163 39.8067 29.6034C39.728 29.1293 39.5481 28.7567 39.1545 28.4632C38.4685 27.9665 37.5913 28.1359 36.7704 28.4294C36.6917 27.6053 36.5005 26.7925 35.9045 26.3184C35.0048 25.5959 34.0152 25.9572 33.0481 26.2733C32.8232 26.341 32.7107 26.341 32.6658 26.3636C32.6545 26.1942 32.677 25.9798 32.6658 25.8556C32.587 25.3476 32.4296 24.9525 32.0135 24.6251C31.3275 24.0833 30.4166 24.2752 29.5507 24.5461C29.5845 24.1962 29.6744 23.8462 29.6969 23.4285C29.7194 22.977 29.5957 22.5255 29.2471 22.2094C28.7635 21.7578 28.0663 21.8143 27.4815 21.9949C27.1779 22.0852 26.8743 22.232 26.5819 22.3561C26.4694 22.4013 26.3907 22.469 26.3345 22.5255C26.3682 22.469 26.402 22.39 26.4582 22.2658C26.8968 21.216 26.908 19.9855 25.761 19.4098C25.2549 19.1502 24.6476 19.1389 24.1079 19.2744C23.9279 19.3195 23.3207 19.6807 23.1632 19.6582C22.3873 19.5904 22.972 18.7325 23.1632 18.3487C23.5231 17.6037 23.0958 16.6441 22.1961 16.6554C21.6451 16.6554 21.1053 16.7119 20.5767 16.8135C20.543 16.0233 20.3968 15.2331 19.8008 14.7589C19.3847 14.4203 18.8899 14.3187 18.3614 14.3526C18.2376 14.3638 18.0577 14.3638 17.889 14.3977C18.024 13.6978 17.5742 12.8963 16.9894 12.569C16.5396 12.3093 16.011 12.2416 15.505 12.3093C15.2576 12.3432 15.0214 12.4448 14.7965 12.5577C14.7965 11.4627 14.5941 10.3903 13.3233 10.3C13.1434 10.2887 12.5361 10.3903 11.9626 10.5144C12.1088 10.1645 12.1875 9.83714 12.1763 9.45333C12.165 8.69699 11.479 8.2003 10.7593 8.36963C10.6581 8.3922 9.87092 8.56153 9.26366 8.74215C9.37612 8.47122 9.48857 8.21159 9.57854 7.96324C9.82594 7.27464 9.18494 6.5183 8.49896 6.52959C7.64429 6.55217 6.8571 6.7215 6.0924 7.015C6.0924 6.77794 6.12614 6.52959 6.22735 6.24738C6.50849 5.40074 5.63133 4.6557 4.84414 4.85889C4.21438 5.01693 3.64086 5.2427 3.06733 5.55878C1.90904 6.20223 2.7637 7.87293 3.89951 7.61329C3.97823 8.14386 4.15816 8.66313 4.45054 9.15982C4.74293 9.6791 5.47389 9.89358 5.99119 9.56621C6.24984 9.39688 6.50849 9.27271 6.76714 9.15982C6.6097 9.83714 6.64344 10.4919 7.26194 10.9208C7.77924 11.2821 8.49896 11.2482 9.24117 11.1015C9.22992 11.1353 9.21868 11.1805 9.21868 11.2143C9.18494 11.7449 9.33113 12.2303 9.71348 12.6141C10.1296 13.0318 10.6356 13.0882 11.1979 13.0318C11.6252 12.9979 12.0526 12.8512 12.4574 12.7609C12.4799 12.7609 12.4911 12.7496 12.5136 12.7496C12.5136 13.1785 12.5024 13.6188 12.5024 14.0478C12.4911 14.6799 13.0197 15.1428 13.627 15.1766C14.0993 15.1992 14.4591 15.1202 14.8977 14.9508C15.0102 14.9057 15.1114 14.8492 15.2238 14.7928C15.1339 15.2782 15.2688 15.8088 15.5837 16.17C16.0223 16.6893 16.742 16.8586 17.3942 16.8135C17.4505 16.8135 18.1252 16.678 18.3164 16.5312C18.3726 16.9602 18.3614 18.0891 18.3614 18.2471C18.3951 18.9244 19.0586 19.5904 19.7895 19.3308C20.0594 19.2292 20.3293 19.1728 20.588 19.105C20.4868 19.8275 20.5992 20.55 21.1278 21.1934C21.8587 22.0852 23.2307 22.2094 24.254 21.7014C24.2428 21.7353 24.2316 21.7578 24.2203 21.7917C24.1416 22.0401 24.0741 22.2884 24.0516 22.5593C24.0179 23.1125 24.1866 23.6656 24.5802 24.072C25.0187 24.5122 25.6822 24.7041 26.2895 24.6929C26.5931 24.6816 26.8968 24.5687 27.2004 24.4445C27.2004 24.5122 27.1891 24.5913 27.1891 24.659C27.1891 25.246 27.3129 25.7878 27.5378 26.3297C27.7739 26.8828 28.28 27.3118 28.921 27.1199C29.382 26.9844 29.9556 26.7361 30.5066 26.6119C30.5516 26.9731 30.5966 27.4924 30.7315 27.7182C31.0127 28.2036 31.4962 28.5084 32.036 28.61C32.6658 28.7342 33.228 28.5648 33.8128 28.3729C33.914 28.3278 34.0265 28.2826 34.1277 28.2487C34.4763 28.023 34.5888 28.1133 34.4763 28.531C34.6562 28.9035 34.5888 29.6147 34.6337 30.0098C34.7012 30.6871 35.2972 31.3531 36.0619 31.0935C36.5005 30.9467 37.1078 30.8225 37.5126 30.5968C37.5351 30.5968 37.5351 30.5968 37.5576 30.5855C37.4676 31.0257 37.6813 31.6805 37.895 31.9965C38.4797 32.8658 39.818 32.7529 41.01 32.5723C40.9425 32.8432 40.8526 33.1028 40.7738 33.3625C40.3577 33.8479 39.9754 34.3559 39.6155 34.8977C39.3794 34.7735 39.1095 34.7284 38.8396 34.83L37.6476 35.2702C37.6251 35.0332 37.5688 34.7735 37.5351 34.6832C37.3664 34.2091 37.0403 33.814 36.5567 33.6334C35.9045 33.385 35.1398 33.6221 34.4201 33.9495C34.3414 33.2157 34.1389 32.5158 33.5542 32.1884C32.8907 31.8159 31.9011 32.0981 30.9902 32.4368C30.9902 32.1884 30.9789 31.9514 30.889 31.703C30.6978 31.1725 30.2929 30.7548 29.8094 30.4952C29.2246 30.1904 28.6398 30.1452 28.0663 30.2581C28.0888 29.942 28.1225 29.6372 28.1225 29.3212C28.145 28.4068 27.1667 27.9891 26.4357 28.3503C26.0983 28.5197 25.761 28.6777 25.4236 28.847C25.3786 28.1133 25.2212 27.4021 24.7376 27.0183C24.0966 26.5216 23.3094 26.7361 22.5785 27.1312C22.511 26.1942 22.2973 25.2686 21.5551 24.9299C20.8016 24.58 19.8458 25.0089 19.0136 25.5508C19.0024 25.3927 18.9799 25.246 18.9236 25.1218C18.71 24.6025 18.3276 24.23 17.8103 24.0268C17.0006 23.7108 16.3821 23.9591 15.7636 24.2413C15.7524 23.8575 15.7074 23.4624 15.5837 23.0673C15.2688 22.0626 14.0993 22.0401 13.5257 22.7964C13.3683 22.9657 13.2109 23.1576 13.0759 23.3495C12.9072 23.6204 12.9072 23.5189 13.0647 23.0334C13.0647 22.6948 13.1321 22.4126 13.0534 22.0852C12.9297 21.5434 12.5811 21.0241 12.0751 20.787C11.4116 20.4709 10.7706 20.6967 10.1858 21.0918C10.0284 20.4371 9.75847 19.8501 9.1512 19.5904C8.6564 19.376 8.20657 19.4324 7.71177 19.613C7.38564 19.7372 7.1045 19.9404 6.78963 20.0871C6.31731 20.3355 6.38479 20.4032 6.26108 20.1774C6.12614 19.9178 6.38479 19.1728 6.23859 18.8002C6.06991 18.3374 5.75503 17.9762 5.29396 17.7843C4.52926 17.4682 3.80954 17.8294 3.20228 18.3374C2.33637 17.3327 0.525827 18.4164 1.34676 19.5679C1.72911 20.1097 2.11146 20.4935 2.62875 20.8886C2.99986 21.1821 3.68584 21.0467 3.98947 20.708C4.00072 20.6967 4.00072 20.6967 4.01196 20.6854C3.98947 20.8999 3.98947 21.1031 4.0457 21.2499C4.22563 21.7578 4.60798 22.1416 5.09154 22.3674C5.55261 22.5819 6.05866 22.6383 6.55347 22.5593C6.84586 22.5142 7.50935 22.1078 8.0154 21.8933C8.12785 22.4464 8.19533 23.0109 8.28529 23.5527C8.44273 24.4671 9.57854 24.5348 10.1633 24.0494C10.242 23.9817 10.4782 23.8236 10.7031 23.6543C10.7031 23.6995 10.7143 23.7446 10.7143 23.7898C10.7593 24.5122 11.1304 25.1444 11.7714 25.4718C12.2887 25.7314 12.7835 25.7653 13.2334 25.6524C13.1546 26.3071 13.5482 27.007 14.3017 26.9619C14.774 26.928 15.1676 26.8603 15.6062 26.6796C15.8536 26.578 16.4833 26.1039 16.697 26.1717C16.8769 26.2168 16.9332 27.6166 17.2368 28.0456C17.5742 28.5197 18.2264 28.8132 18.7774 28.4519C19.0923 28.2487 19.7558 27.6956 20.3406 27.3682C20.3968 28.0004 20.3518 28.7793 20.3743 29.1405C20.4418 29.9759 21.2852 30.5742 22.0612 30.1114C22.1961 30.0323 22.7584 29.6147 23.197 29.3212C23.2082 29.8066 23.1745 30.3597 23.1857 30.6532C23.2419 31.545 24.0854 32.0191 24.8726 31.624C25.1425 31.4886 25.4123 31.3531 25.6822 31.2289C25.6485 31.4434 25.6373 31.6466 25.5923 31.8611C25.4236 32.7303 26.3682 33.7463 27.2454 33.1367C27.4928 32.9561 27.8077 32.6513 28.1113 32.6061C28.6286 32.5271 28.5499 32.6964 28.5724 33.1593C28.5949 33.7576 28.5499 34.1075 28.831 34.6719C29.0447 35.1009 29.6519 35.338 30.1018 35.1912C30.7428 34.988 31.485 34.6493 32.1934 34.4574C32.2047 34.9203 32.1934 35.5863 32.2047 35.7443C32.2834 36.6474 33.0931 37.0764 33.8915 36.7152C34.2401 36.5571 34.8474 36.3878 35.151 36.1507C35.2185 36.1169 35.286 36.083 35.3647 36.0604C35.4097 36.4555 35.5896 36.9409 35.7471 37.1667C36.2531 37.8892 36.9503 37.9005 37.6701 37.6973C37.6813 37.844 37.715 37.9795 37.7713 38.0924C37.2315 39.1986 36.7029 40.3049 36.1856 41.4225C35.9832 41.05 35.6796 40.7226 35.2185 40.5194C34.1727 40.0453 32.9244 40.6323 31.8448 41.2419C31.5974 40.4742 31.2488 39.7066 30.5966 39.447C30.0455 39.2325 29.4383 39.4244 28.8535 39.7179C28.7635 39.3228 28.6623 38.9164 28.5274 38.5213C28.3137 37.9117 27.4928 37.3699 26.8743 37.844C26.6831 37.9908 26.4919 38.1375 26.3007 38.2843C26.0421 37.3699 25.6485 36.4894 24.8163 36.2636C24.2091 36.1056 23.6018 36.3878 23.0395 36.8167C22.8483 36.2523 22.5447 35.7782 21.9487 35.6202C21.4539 35.4847 20.9703 35.6653 20.5205 35.9588C20.3743 35.2702 20.1044 34.6268 19.5084 34.2317C19.171 34.0059 18.7212 34.0511 18.3726 34.2317C18.024 34.4123 17.7091 34.6719 17.383 34.9316C17.0906 34.3784 16.6295 33.9156 15.9435 33.6672C15.325 33.4415 14.7178 33.4753 14.1892 33.6898C14.0543 33.3173 13.9193 32.9561 13.7956 32.5835C13.5707 31.974 12.7723 31.4321 12.1425 31.9062C11.9626 32.0417 11.8052 32.1772 11.6477 32.3126C11.6252 32.2675 11.614 32.2336 11.5915 32.211C11.2766 31.7482 10.8156 31.466 10.2758 31.3757C9.92715 31.3192 9.57854 31.3644 9.26366 31.466C9.1737 31.0596 8.97127 30.6758 8.63391 30.4387C7.79049 29.8517 7.00329 30.3033 6.32856 30.9016C6.2161 30.6984 6.11489 30.5065 6.02493 30.2807C5.73254 29.5469 4.76542 29.0954 4.14691 29.784C3.59588 30.3936 3.01111 30.7887 2.25765 31.116C0.930669 31.6805 2.07772 33.6334 3.39346 33.069C3.83203 32.8771 4.23688 32.6513 4.60798 32.3916C4.83289 32.7529 5.0803 33.1028 5.36144 33.4528C5.75503 33.9269 6.54222 33.8366 6.94707 33.4528C7.04828 33.9833 7.34066 34.322 7.79049 34.6155C8.34152 34.9654 8.97127 34.6832 9.33113 34.2091C9.43234 34.0849 9.53355 33.9608 9.63476 33.8366C9.73598 33.4302 9.7922 33.3737 9.80345 33.656C9.87092 33.7237 9.88217 34.2881 9.9159 34.3897C10.0733 34.8525 10.3545 35.1686 10.7706 35.417C11.3104 35.7331 11.9851 35.5299 12.3112 35.0106C12.3112 35.0106 12.3112 35.0106 12.3225 34.9993C12.4349 35.3041 12.5474 35.6202 12.6598 35.925C13.0534 37.0199 14.4141 36.9635 14.8302 35.925C15.1339 35.1573 15.6849 36.5684 15.6399 36.8506C15.4825 37.9456 16.6295 38.7471 17.5179 37.9456C17.8216 37.6747 18.1477 37.336 18.4738 37.0199C18.5525 37.4828 18.62 37.9456 18.6987 38.3859C18.8674 39.3002 19.992 39.368 20.5767 38.8826C20.7342 38.7471 20.9478 38.5326 21.1728 38.3294C21.2402 38.7584 21.274 39.2325 21.3077 39.4357C21.4539 40.2598 22.6459 40.5307 23.1857 39.9324C23.4331 39.6615 23.8155 39.1648 24.2203 38.8148C24.3777 39.3905 24.5352 40.2823 24.6027 40.5194C24.7826 41.1403 25.6597 41.6595 26.2558 41.1967C26.4469 41.05 26.6494 40.8919 26.8405 40.7452C26.8855 40.9935 26.9417 41.2306 26.9642 41.4789C27.0542 42.3368 27.8526 42.8787 28.6511 42.4497L29.7644 41.8627C29.9218 42.3256 30.0343 42.9013 30.1355 43.1835C30.3941 43.906 31.1026 44.1995 31.7886 43.8608L33.4979 43.0255C34.2289 42.6642 34.4651 42.461 34.2626 43.4996C34.1614 44.0076 34.3863 44.4139 34.7237 44.651C34.4201 45.3057 34.1164 45.9605 33.8128 46.6152C33.2955 47.7102 32.7332 48.8052 32.5196 49.9792C25.3786 45.4412 17.7766 41.637 9.85968 38.6229C8.00415 37.9117 6.15987 37.2909 4.27061 36.7152C3.87702 36.591 3.47217 36.4781 3.06733 36.4781C2.69623 36.4781 2.33637 36.591 2.02149 36.7716C1.65039 36.9861 1.30177 37.3586 1.358 37.7876C1.39174 38.0585 1.58291 38.273 1.80783 38.4197C3.48342 39.4808 5.82251 39.7179 7.66678 40.3952C9.63476 41.1177 11.5803 41.8966 13.5033 42.7094C17.3605 44.3575 21.139 46.1975 24.8051 48.2182C27.0092 49.4373 29.1796 50.7242 31.305 52.0789C31.7774 52.3724 32.2272 52.2933 32.5645 52.0337C32.7895 53.061 33.2843 54.0431 33.8578 54.8897C35.3647 57.1248 37.6363 58.6827 40.234 59.3487C40.7401 59.4841 41.3474 59.2697 41.606 58.7843C42.0783 57.9263 42.5506 57.0571 43.0342 56.1992C48.9157 58.2537 54.0324 62.1595 56.6526 67.9393C56.99 68.6843 57.3049 69.4068 57.6422 70.1292C56.0791 70.705 54.6509 71.5629 53.234 72.4547C51.2323 73.7077 49.253 75.0059 47.2963 76.3379C43.619 78.844 40.0316 81.4968 36.5342 84.2512C35.8595 83.7319 35.0836 83.3368 34.2401 83.1901C32.4633 82.8853 31.0576 83.8335 29.6744 84.8156C22.5672 89.8616 15.3475 94.7608 7.88045 99.2424C6.6097 100.01 5.31645 100.766 4.03445 101.5C3.12356 102.019 1.29053 102.595 1.04312 103.747C0.941914 104.187 1.03188 104.661 1.17807 105.09C1.22305 105.214 1.26804 105.338 1.36925 105.417C1.61665 105.632 1.98776 105.474 2.2689 105.316C9.17369 101.387 15.9435 97.233 22.5222 92.7628C25.2662 90.9002 27.9876 88.9924 30.6978 87.0733C32.1597 86.0348 33.5654 84.9059 35.2073 86.2831C36.4893 87.3555 37.029 89.1391 37.715 90.6066C39.2332 93.8465 41.1787 96.8718 43.4728 99.6262C44.9684 101.421 50.0852 105.316 47.4987 107.946C47.3413 108.104 47.2626 108.262 47.2063 108.431C40.1778 114.087 33.6104 120.296 27.0317 126.47C24.7938 128.57 22.556 130.681 20.3181 132.781C16.6408 136.246 12.9522 139.701 9.27491 143.155C6.96956 145.322 4.65296 147.49 2.31388 149.634C1.65039 150.244 1.54918 151.463 2.71872 151.644C3.41595 151.757 4.24812 150.955 4.70919 150.549C4.70919 150.357 5.65382 149.702 5.82251 149.544C6.26108 149.149 6.69966 148.754 7.13824 148.359C7.92543 147.659 8.72387 146.97 9.49982 146.27C11.1979 144.724 12.8398 143.132 14.5154 141.563C17.8553 138.425 21.1952 135.275 24.5464 132.137L28.7523 128.175C35.3872 121.944 41.9996 115.69 49.0956 109.989C49.3542 109.786 49.4667 109.549 49.5004 109.312C50.6362 107.935 50.7599 106.241 50.2764 104.638C52.3231 103.239 53.9424 101.365 55.8879 99.8181C58.2495 97.9442 61.2183 97.0072 64.1197 96.3638C65.3792 96.0816 66.65 95.8558 67.932 95.6752C67.336 99.4343 67.4597 103.261 66.7512 106.998C66.1102 110.429 64.9744 113.816 65.1431 117.327C64.5808 117.507 64.041 117.722 63.5237 117.993C59.0254 120.397 58.7893 126.154 58.4182 130.625C57.8896 137.059 57.4398 143.493 56.8663 149.928C56.7313 151.418 56.5739 152.897 56.394 154.387C56.304 155.155 56.1916 155.922 56.1016 156.678C56.0454 157.164 55.7642 157.977 56.0791 158.394C56.2478 158.609 56.5402 158.688 56.8101 158.722C57.1587 158.767 57.5073 158.767 57.8559 158.733C57.9684 158.722 58.0808 158.699 58.1708 158.631C58.2945 158.53 58.317 158.36 58.3395 158.202C58.7443 155.042 59.1042 151.881 59.3853 148.709C59.6664 145.492 60.1725 142.15 60.1725 138.922C60.3974 136.054 60.6448 133.198 60.881 130.331C61.0722 128.073 61.1846 125.759 61.9493 123.603C62.7702 121.278 64.5021 120.081 66.5713 119.483C66.7849 119.483 66.9761 119.426 67.1448 119.336C69.6301 118.76 72.4977 118.93 74.8593 119.02C77.9855 119.144 81.1006 119.55 84.1481 120.239C85.3851 120.521 86.9933 120.724 88.0054 121.571C89.1187 122.485 88.6014 124.45 88.9837 125.748C89.0625 125.996 89.1974 126.166 89.3436 126.301C89.5348 130.038 89.4448 133.797 89.681 137.533C89.9396 141.744 90.4007 145.932 91.0642 150.097C91.3116 151.655 91.5927 153.213 91.9076 154.771C92.0988 155.719 92.1325 158.067 93.2233 158.439C93.6844 158.598 94.2129 158.473 94.6178 158.18C94.7077 158.112 94.7977 158.033 94.8427 157.932C94.8877 157.83 94.8877 157.717 94.8877 157.604C94.8539 156.396 94.4603 155.177 94.2242 154.003C93.9543 152.682 93.7069 151.35 93.4932 150.018C92.8072 145.796 92.3462 141.529 92.0875 137.251C91.8289 132.939 92.0313 128.604 91.6489 124.292C91.6152 123.863 91.3903 123.558 91.0979 123.366C91.0754 122.632 91.0417 121.898 90.738 121.21C90.3332 120.307 89.6022 119.641 88.7476 119.178C88.9725 116.096 89.2761 112.992 90.187 110.023C90.9855 107.449 92.3012 105.067 93.9993 102.979C96.1247 104.548 97.5529 106.614 99.3634 108.544C101.478 110.802 103.94 112.766 106.246 114.821C108.619 116.932 110.991 119.042 113.364 121.142C113.409 121.187 113.465 121.199 113.51 121.232C114.882 124.145 116.479 126.944 118.357 129.552C118.796 130.162 119.257 130.771 119.853 131.2C118.222 134.248 121.157 137.691 122.912 140.028C125.487 143.448 128.152 146.812 130.547 150.368C131.65 152.005 132.695 153.698 133.629 155.448C134.27 156.622 134.967 159.388 136.744 159.128C136.935 159.106 137.126 159.038 137.272 158.925C138.138 158.281 137.081 156.825 136.755 156.159C136.125 154.872 135.439 153.608 134.697 152.378C132.538 148.777 130.019 145.424 127.489 142.082C126.218 140.412 124.936 138.752 123.688 137.059C122.676 135.682 121.034 133.593 122.259 131.923C122.271 131.911 122.271 131.889 122.282 131.878C123.103 131.866 123.924 131.72 124.689 131.561C130.368 130.331 134.765 126.019 137.812 121.266C138.577 120.07 139.274 118.817 139.938 117.552C140.612 116.243 141.534 114.798 141.816 113.33C141.861 113.105 141.872 112.879 141.872 112.653C141.984 112.597 142.108 112.552 142.22 112.45C143.739 111.118 147.135 113.726 148.45 114.482C150.418 115.599 152.375 116.751 154.321 117.925C154.962 118.309 155.603 118.693 156.232 119.076C156.693 119.359 157.166 119.957 157.739 119.979C158.414 120.002 159.089 119.009 159.01 118.388C158.988 118.388 158.976 118.331 158.943 118.264ZM100.87 76.9927C100.904 77.0152 100.938 77.0265 100.972 77.0378C101.017 77.0604 101.062 77.0943 101.118 77.1281C101.14 77.1507 101.163 77.1733 101.185 77.1959L101.196 77.2071C101.196 77.2184 101.208 77.2184 101.208 77.2297C101.163 77.2975 101.118 77.3765 101.073 77.4555C101.062 77.4668 101.05 77.4894 101.039 77.5006C100.983 77.5684 100.915 77.6474 100.859 77.7151C100.735 77.8619 100.612 78.0086 100.477 78.1554C100.421 78.2231 100.364 78.2796 100.308 78.3473C100.297 78.3586 100.274 78.3699 100.263 78.3924C100.241 78.4037 100.207 78.415 100.184 78.4376C99.4984 77.8732 98.8574 77.2862 98.2389 76.6427C98.3738 76.6992 98.52 76.733 98.6662 76.7105C99.0373 76.6766 99.4197 76.6766 99.7908 76.7217C100.173 76.7782 100.522 76.8685 100.87 76.9927ZM104.683 42.1224C105.841 41.1516 107.247 39.8534 108.832 39.8195C111.88 39.7518 114.478 42.8335 116.097 45.0687C119.729 50.1034 123.193 55.7815 124.216 62.0015C124.182 62.0241 124.149 62.0354 124.115 62.0579C122.923 62.8481 121.686 63.5593 120.404 64.2028C119.785 64.5188 119.156 64.8123 118.515 65.0833C117.941 65.3203 116.918 65.9299 116.288 65.8622C115.377 65.7606 114.77 63.7061 114.421 63.0287C113.758 61.7419 113.061 60.4775 112.33 59.2245C109.451 54.3253 106.043 49.7421 102.22 45.5541C102.197 45.5315 102.175 45.5202 102.152 45.5089C102.568 44.0753 103.569 43.048 104.683 42.1224ZM102.074 49.0987C105.751 53.377 108.978 58.0053 111.666 62.9723C111.981 63.5706 112.296 64.2931 112.656 65.0155C106.437 68.007 100.364 71.3145 94.4828 74.9494C91.5477 76.7669 88.6464 78.6634 85.8125 80.6502C84.4293 81.6097 83.0686 82.5918 81.7078 83.5852C80.9881 84.1157 80.2796 84.6689 79.5374 85.1656C79.3687 85.2785 78.8627 85.6284 78.3679 85.9219C79.0314 85.1091 80.1559 84.1722 80.4708 83.8448C81.4042 82.8514 82.1464 81.8242 82.6525 80.5486C82.9786 79.7245 82.1689 79.0923 81.4829 79.002C79.4924 78.7424 77.6707 79.5777 76.085 80.7179C76.0176 80.7743 75.9276 80.8308 75.8376 80.9098C76.1975 80.5824 76.5461 80.2438 76.861 79.8825C77.8618 78.7085 78.1542 76.8346 76.771 75.8074C75.0954 74.5769 72.9475 76.5637 71.553 77.3765C70.5972 77.9409 69.6076 78.4827 68.5842 78.9004C68.3705 78.9907 67.6846 79.2617 66.9986 79.4874C67.1335 79.3971 67.2347 79.3294 67.2685 79.2955C67.6958 78.9682 68.1344 78.6408 68.573 78.3247C69.5963 77.591 70.6534 76.8798 71.7217 76.2138C73.2624 75.2542 75.2304 74.4415 75.624 72.466C75.7364 71.9128 75.5452 71.3936 75.0617 71.0888C73.6785 70.197 72.1153 70.4566 70.7546 71.2468C69.9674 71.7096 69.2702 72.3079 68.4493 72.7369C68.1569 72.8949 67.6621 73.1546 67.156 73.3578C69.079 71.879 73.7909 68.9665 74.2857 68.6166C75.5677 67.7022 76.8272 66.7427 78.053 65.7493C79.2563 64.7785 80.4933 63.8867 80.9544 62.3627C81.1343 61.7757 80.7407 60.9742 80.111 60.8613C78.2779 60.5453 76.4674 60.1615 74.6568 59.7099C74.4094 59.6422 71.9691 59.1116 71.9691 58.9649C71.9691 58.6827 73.5098 58.3892 73.7797 58.3214C75.6802 57.9037 77.6144 57.5425 79.5487 57.3619C81.5841 57.17 83.6196 57.2829 85.655 57.1587C91.9638 56.7975 97.9127 53.8512 102.074 49.0987ZM92.4136 80.2663C92.3687 80.2212 92.3124 80.176 92.2674 80.1422C92.2 80.0857 92.1438 80.018 92.0763 79.9616C92.065 79.939 92.0425 79.9277 92.0313 79.9051C91.9751 79.7922 91.8963 79.6906 91.8401 79.5777C92.1775 79.352 92.5261 79.1375 92.8635 78.9117C92.9197 79.002 92.9759 79.0923 93.0322 79.1826C93.2233 79.5213 93.392 79.8825 93.5607 80.2438C93.6282 80.4018 93.7406 80.5824 93.7856 80.7518C93.6956 80.4131 93.7969 80.7856 93.8193 80.8533C93.8193 80.8646 93.8306 80.8759 93.8306 80.8872C93.7631 80.8646 93.6956 80.8533 93.6282 80.8308C93.4595 80.7743 93.302 80.7179 93.1334 80.6502C93.0546 80.6163 92.9759 80.5711 92.8972 80.5373C92.7398 80.4583 92.5823 80.3679 92.4361 80.2663C92.4024 80.2438 92.3349 80.1873 92.3012 80.1535C92.3237 80.1873 92.3462 80.2099 92.4136 80.2663ZM89.0512 84.7705C88.9388 84.7027 88.8375 84.635 88.7363 84.5673C88.5789 84.4544 88.4215 84.3415 88.264 84.2286C88.1853 84.1722 88.1178 84.1157 88.0391 84.0593C88.0166 84.0367 87.9829 84.0141 87.9604 83.9916C87.5555 83.6642 87.1957 83.2691 86.7908 82.9417C87.0495 82.7611 87.3194 82.5579 87.578 82.3773C87.6343 82.445 87.6792 82.5015 87.7355 82.5692C87.7692 82.6031 87.8029 82.6595 87.8029 82.6595C88.0166 82.953 88.219 83.2465 88.4102 83.5626C88.6014 83.8674 88.7813 84.1835 88.9388 84.5108C88.9725 84.6011 89.0175 84.6915 89.0512 84.7705ZM82.0452 86.4638C83.2935 87.0846 84.4742 87.8071 85.5426 88.6989C85.9474 89.0262 88.1403 90.6518 87.9379 91.2614C87.9491 91.2275 84.6879 89.2407 84.3843 89.0601C83.4284 88.4957 82.3151 87.8635 81.1793 88.3376C81.1231 88.3602 81.0781 88.3941 81.0219 88.4167C80.9994 88.4167 80.9881 88.3941 80.9656 88.3941C80.4483 88.3151 79.931 88.2022 79.4025 88.1119C80.2571 87.6603 81.0443 87.0733 81.5954 86.6669C81.7078 86.5766 81.8315 86.4976 81.944 86.4073C82.0002 86.4186 82.0115 86.4525 82.0452 86.4638ZM75.444 87.3781C75.0504 87.2991 74.6681 87.2201 74.2857 87.1185C74.252 87.1072 74.2408 87.1072 74.2408 87.1072C74.2295 87.1072 74.2408 87.1072 74.2295 87.0959C74.1395 87.0508 74.0046 87.0169 74.1395 87.0508C74.1508 87.0508 74.1395 87.0508 74.1508 87.0508C74.1395 87.0508 74.1395 87.0395 74.1395 87.0395C74.1283 87.0169 74.0946 86.9379 74.0721 86.8927C74.0608 86.8476 74.0496 86.7911 74.0383 86.7911C74.0158 86.7798 74.0158 86.7798 74.0158 86.7798C74.0158 86.7685 74.0158 86.7685 74.0158 86.7347C74.0158 86.6557 74.0158 86.5879 74.0158 86.5202C74.0158 86.475 74.0158 86.475 74.0158 86.4525C74.0158 86.4525 74.0271 86.4412 74.0383 86.3847C74.1395 85.9332 74.2745 85.6848 74.4657 85.2897C74.5331 85.1543 74.5781 85.0075 74.5894 84.8608C74.7243 84.7705 74.8593 84.6802 74.9717 84.6011C76.3099 83.6642 77.5919 82.4224 79.0876 81.8016C78.2442 82.7724 77.2096 83.6303 76.4336 84.635C75.8714 85.3575 75.2641 86.4525 75.444 87.3781ZM64.9406 69.8132C64.9069 69.7116 64.8732 69.6213 64.8394 69.5197C64.8057 69.4181 64.7832 69.3278 64.7607 69.2262C64.7495 69.1923 64.7495 69.1471 64.7382 69.1133C64.7382 69.102 64.7382 69.1133 64.7382 69.0907C64.7382 68.9778 64.7382 68.8536 64.7382 68.7407C64.7382 68.7069 64.7382 68.7182 64.727 68.7069C64.727 68.6956 64.7382 68.6956 64.7382 68.673C64.7607 68.594 64.7832 68.515 64.8057 68.436C64.8169 68.4247 64.8169 68.4247 64.8394 68.3908C64.8394 68.3795 64.8394 68.3795 64.8507 68.3795C65.0531 68.4134 65.2555 68.5037 65.4354 68.5714C65.4917 68.594 65.5591 68.6166 65.6154 68.6504C65.6266 68.6504 65.7503 68.7069 65.7841 68.7295C65.9977 68.8311 66.2114 68.9326 66.4138 69.0342C66.7962 69.2374 67.1785 69.4519 67.5384 69.689C67.6171 69.7454 67.6958 69.8019 67.7858 69.847C67.0998 70.276 66.4363 70.7388 65.8403 71.2468C65.6604 71.0097 65.4804 70.7727 65.323 70.5243C65.1993 70.3211 65.0756 70.118 64.9744 69.9035C64.9519 69.847 64.8507 69.5648 64.9406 69.8132ZM78.0418 19.7033C77.963 19.2292 77.9181 18.7438 77.8618 18.2584C80.2122 16.9038 82.9673 16.9715 85.5988 17.0392C88.5676 17.1182 91.5477 17.2876 94.4941 17.7165C97.2718 18.1229 100.027 18.7438 102.681 19.6582C103.333 19.8839 103.985 20.1097 104.491 20.4709C104.469 20.5838 104.435 20.6854 104.413 20.7983C103.963 22.6835 103.929 26.4087 101.545 26.7474C99.0485 27.1086 96.2372 26.9054 93.7294 26.7248C91.0192 26.5329 88.5789 25.7653 85.9812 25.0654C83.9007 24.5122 80.707 24.9864 79.1551 23.2818C78.3566 22.4126 78.2329 20.8435 78.0418 19.7033ZM79.931 39.2325C80.8307 35.0783 81.3142 30.8338 80.5158 26.6345C81.9215 26.9619 83.4172 26.9731 84.8341 27.3005C87.0832 27.8198 89.1861 28.6326 91.4915 28.9373C94.0218 29.276 96.5745 29.3099 99.1273 29.2534C99.6108 29.2421 100.106 29.2534 100.6 29.2421C99.1385 35.4283 99.9932 41.9305 98.3963 48.1053C98.2838 48.5343 98.4075 48.8842 98.6325 49.1438C96.3833 51.2096 93.7406 52.8013 90.8055 53.7609C89.4673 54.2011 88.1066 54.4156 86.7459 54.5623C86.6446 54.4043 86.5097 54.2575 86.2848 54.1559C82.9786 52.5868 79.7511 50.8823 76.5798 49.0648C78.6603 46.3443 79.2338 42.4497 79.931 39.2325ZM39.9866 56.7297C38.2323 56.0863 36.7142 54.9574 35.7133 53.3319C34.8587 51.9547 34.645 50.7129 35.286 49.189C35.8258 47.9021 36.4668 46.6604 37.0628 45.4073C38.2098 42.9803 39.2782 40.5081 40.5264 38.1375C41.0325 37.178 41.6285 36.2072 42.3257 35.338C42.4044 35.2702 42.4719 35.1799 42.5282 35.0783C43.3828 34.0736 44.4174 33.227 45.6882 32.7642C48.1622 31.8611 50.4226 33.1141 52.3231 34.6381C53.3014 35.417 54.2461 36.2297 55.1907 37.0312C48.3871 42.0659 44.0238 49.4035 39.9866 56.7297ZM56.1128 62.3966C53.0878 58.502 48.8482 55.7702 44.2487 54.0882C47.6337 48.2069 51.4796 42.5288 57.08 38.6003C57.3611 38.8374 57.6422 39.0745 57.9234 39.3115C61.7919 42.3933 65.8178 45.2832 69.9899 47.9473C73.9259 50.4533 77.9855 52.7336 82.1464 54.822C80.8082 54.8671 79.47 54.9349 78.1205 55.1155C76.1188 55.3864 73.9034 55.6122 71.9916 56.3008C70.7209 56.7636 69.4051 57.8134 69.5063 59.3261C69.6301 61.0307 71.3394 61.3355 72.6776 61.708C74.3869 62.1821 76.1075 62.5546 77.8393 62.8933C77.0409 63.7173 75.8601 64.4285 75.1629 64.9704C73.9596 65.896 72.7338 66.7765 71.4743 67.6232C71.0245 67.928 70.5409 68.2215 70.0461 68.5037C69.1802 67.8264 68.2693 67.2168 67.2797 66.7427C66.1552 66.2008 64.7495 65.5235 63.5687 66.2911C62.4104 67.0362 62.1742 68.5037 62.3991 69.7793C62.6128 70.9307 63.31 71.9128 63.996 72.8272C64.086 72.9514 64.1872 73.053 64.2884 73.1433C63.8048 74.2608 63.951 75.5139 64.9631 75.9202C64.9631 75.988 64.9631 76.0444 64.9519 76.1122C62.7365 74.6672 61.1171 72.1725 60.0713 69.8583C58.8905 67.2507 57.8784 64.6769 56.1128 62.3966ZM62.9052 94.2077C60.195 94.8624 57.3836 95.7881 55.0895 97.4362C52.9641 98.9602 51.2997 101.026 49.1743 102.527C49.1181 102.437 49.0618 102.347 48.9944 102.256C46.9477 99.5472 44.4399 97.312 42.5619 94.4335C41.6173 92.9772 40.7626 91.4646 39.9979 89.9068C39.3906 88.6424 38.8846 87.2878 38.1199 86.1025C41.4936 83.4497 44.946 80.9098 48.4996 78.494C50.2764 77.2749 52.0869 76.1009 53.9087 74.9382C55.4493 73.9673 56.99 72.974 58.7106 72.3869C59.554 73.9561 60.5549 75.4236 61.9718 76.6992C62.5453 77.2071 63.3887 78.1102 64.2771 78.5618C63.7598 79.002 63.2988 79.51 63.2313 80.2212C62.8265 84.7479 71.8454 80.0067 73.2174 79.1826C73.6672 78.9117 74.1058 78.6295 74.5556 78.3586C75.6577 77.7264 74.9492 78.3247 74.4769 78.7875C73.5773 79.668 72.6101 80.4921 71.688 81.35C70.6984 82.2644 68.2244 84.0932 69.8212 85.651C70.316 86.1364 70.9683 86.238 71.643 86.1364C71.5868 86.5428 71.5643 86.9492 71.6543 87.3668C71.8904 88.4957 72.7788 89.2407 73.8696 89.5004C75.8039 89.9632 77.7719 90.2906 79.7286 90.6066C79.7848 90.9227 79.9085 91.2614 80.066 91.6C74.3982 92.774 68.5505 92.8418 62.9052 94.2077ZM87.9267 109.131C86.9595 112.089 86.6109 115.193 86.3635 118.286C84.3843 117.688 82.2251 117.417 80.2571 117.146C77.2208 116.728 74.162 116.548 71.1032 116.638C69.9224 116.672 68.7079 116.728 67.5046 116.875C67.4821 113.624 68.5617 110.497 69.124 107.28C69.7875 103.487 69.6301 99.6149 70.3048 95.8332C70.3273 95.6752 70.316 95.5285 70.2935 95.393C74.0608 94.9302 77.8393 94.6141 81.5504 93.8013C83.3497 95.9123 85.9249 97.9216 86.7571 98.5425C88.3877 99.7617 90.1758 100.699 91.9188 101.726C90.187 103.95 88.8038 106.422 87.9267 109.131ZM103.94 109.605C102.197 108.047 100.623 106.433 99.1498 104.627C97.8453 103.024 96.3946 101.692 94.6628 100.552C92.9647 99.4343 91.1429 98.5312 89.4336 97.4362C87.4656 96.1719 85.7787 94.5802 84.1594 92.8982C83.7883 92.5144 83.4284 92.1306 83.0686 91.7468C82.9224 91.5888 82.7199 91.4194 82.5962 91.2388C82.3938 90.934 82.1127 90.8776 82.5063 90.8437C83.2485 90.7647 84.7666 92.1645 85.3739 92.5709C86.6784 93.4401 88.4889 94.3996 89.7822 92.9772C92.4024 90.1212 86.9033 86.3622 84.1369 84.8269C84.2943 84.714 84.4518 84.6011 84.6092 84.4883C84.7441 84.6011 84.8903 84.7027 85.0703 84.7366C85.0815 84.7366 85.1152 84.7479 85.149 84.7592C85.194 84.793 85.239 84.8156 85.2839 84.8382C85.2952 84.8495 85.3177 84.8721 85.3289 84.8834C85.4189 84.9624 85.4976 85.0414 85.5763 85.1317C85.9362 85.4929 86.3185 85.809 86.7234 86.1138C87.4318 86.6557 88.219 87.2765 89.1187 87.4233C89.7035 87.5136 90.2657 87.4797 90.7943 87.1749C91.3791 86.8363 91.7052 86.1702 91.7277 85.5042C91.7502 84.9398 91.5365 84.4318 91.3116 83.9351C91.1429 83.5513 90.9517 83.1788 90.7493 82.8063C90.4007 82.1854 89.9846 81.6097 89.546 81.0452C89.6247 81.0001 89.6922 80.9549 89.7709 80.8985C90.4906 82.1967 91.9413 82.9192 93.3133 83.303C93.8306 83.4384 94.4041 83.54 94.9214 83.3481C95.5624 83.1111 96.0122 82.6144 96.2147 81.9596C96.5295 80.9437 96.0347 79.939 95.6299 79.0359C95.405 78.5392 95.1576 78.0651 94.8764 77.6248C95.0788 77.5006 95.2813 77.3539 95.4837 77.2297C95.5174 77.2975 95.5399 77.3652 95.5961 77.4329C97.373 79.5552 99.6333 81.1694 101.882 82.7611C103.074 83.5965 104.267 84.4883 105.515 85.222C106.392 85.73 107.46 86.2267 108.495 85.8655C110.823 85.0414 110.024 81.8693 109.687 80.0857C109.552 79.3633 109.383 78.6521 109.26 77.9296C109.203 77.6135 109.17 77.2975 109.136 76.9814C109.721 77.7264 110.429 78.3924 110.924 79.2278C113.465 83.5061 114.478 88.4392 117.503 92.4693C120.449 96.3864 124.329 99.4004 128.22 102.313C127.635 103.103 127.174 104.051 126.746 104.921C123.901 110.599 119.504 115.351 114.129 118.693C110.733 115.645 107.337 112.631 103.94 109.605ZM138.948 114.121C138.386 115.34 137.767 116.536 137.115 117.71C134.765 121.966 131.683 125.996 127.219 128.164C125.982 128.762 124.655 129.191 123.294 129.394C122.676 129.484 121.933 129.631 121.36 129.349C120.764 129.044 120.359 128.277 119.977 127.735C118.38 125.432 116.997 122.993 115.793 120.465C119.313 118.218 122.462 115.43 125.026 112.134C126.398 110.373 127.624 108.51 128.647 106.523C129.086 105.666 129.423 104.706 129.974 103.905C130.862 102.629 131.863 103.25 132.774 104.164C134.663 106.083 136.361 108.251 138.06 110.339C138.453 110.824 138.914 111.31 139.207 111.874C139.623 112.664 139.285 113.387 138.948 114.121Z" fill="#1E1E1E" stroke="#1E1E1E" stroke-width="0.4"/>
<path d="M41.1562 48.2407C40.504 47.6649 39.5818 47.473 38.8059 47.9246C38.6822 47.9923 38.581 48.0939 38.4797 48.1842C38.4348 48.2068 38.3898 48.2068 38.3448 48.2294C37.7375 48.5793 37.4676 49.234 37.254 49.8662C37.0291 50.5435 37.0291 51.266 37.3552 51.8981C37.6701 52.5303 38.356 52.9254 39.042 52.9706C39.3906 52.9931 39.773 52.8802 40.0541 52.6771C40.2116 52.5642 40.3465 52.4626 40.4702 52.3045C40.5264 52.2255 40.5827 52.1578 40.6389 52.0788C40.7851 51.8981 40.9538 51.7401 41.1 51.5595C41.3699 51.2208 41.5948 50.9048 41.7185 50.4758C41.9321 49.7195 41.7635 48.7825 41.1562 48.2407Z" fill="#1E1E1E"/>
<path d="M122.44 124.1C122.451 124.111 122.451 124.111 122.462 124.123C122.474 124.134 122.497 124.145 122.508 124.156C122.44 124.089 122.417 124.077 122.44 124.1Z" fill="#1E1E1E"/>
<path d="M124.655 120.081C124.104 119.697 123.362 119.471 122.687 119.516C121.81 119.562 121.068 119.945 120.584 120.69C120.438 120.916 120.415 121.198 120.449 121.469C119.685 122.474 119.572 123.885 120.123 125.025C120.764 126.335 122.293 126.944 123.677 126.719C124.97 126.504 126.083 125.319 126.319 124.032C126.601 122.474 125.926 120.973 124.655 120.081ZM123.722 124.009C123.665 124.066 123.609 124.122 123.542 124.179C123.497 124.201 123.463 124.235 123.418 124.258C123.396 124.269 123.384 124.28 123.362 124.28C123.317 124.292 123.272 124.303 123.227 124.314C123.114 124.325 123.013 124.325 122.901 124.314C122.878 124.303 122.845 124.303 122.822 124.292C122.788 124.28 122.766 124.269 122.732 124.269C122.665 124.224 122.575 124.19 122.518 124.156C122.507 124.156 122.507 124.145 122.507 124.145C122.53 124.167 122.541 124.179 122.575 124.212C122.541 124.179 122.496 124.145 122.462 124.122C122.462 124.122 122.462 124.122 122.451 124.111C122.44 124.1 122.44 124.1 122.428 124.088C122.406 124.066 122.372 124.043 122.35 124.009C122.338 123.998 122.338 123.987 122.327 123.975C122.305 123.942 122.282 123.896 122.26 123.863C122.271 123.885 122.271 123.896 122.282 123.919C122.282 123.93 122.282 123.93 122.293 123.953C122.282 123.908 122.26 123.863 122.249 123.817C122.226 123.772 122.226 123.75 122.237 123.772C122.226 123.738 122.226 123.716 122.215 123.682C122.204 123.569 122.204 123.456 122.215 123.332C122.226 123.287 122.226 123.242 122.237 123.197C122.249 123.174 122.26 123.14 122.26 123.118C122.282 123.072 122.35 122.993 122.383 122.914C122.327 122.982 122.26 123.038 122.383 122.903L122.395 122.892C122.406 122.88 122.417 122.847 122.417 122.847C122.417 122.858 122.406 122.869 122.395 122.892C122.428 122.858 122.462 122.824 122.507 122.79C122.732 122.576 122.845 122.271 122.856 121.955C122.878 121.955 122.912 121.955 122.934 121.955C122.968 121.966 122.991 121.966 123.024 121.977C123.024 121.966 123.092 121.977 123.137 122.011L123.148 122.023C123.171 122.034 123.193 122.045 123.216 122.045C123.182 122.034 123.182 122.034 123.159 122.034C123.238 122.079 123.306 122.124 123.373 122.169C123.429 122.214 123.486 122.271 123.531 122.327C123.564 122.361 123.598 122.406 123.632 122.451C123.71 122.564 123.767 122.666 123.834 122.79C123.845 122.835 123.868 122.88 123.879 122.926C123.902 122.993 123.913 123.072 123.924 123.14C123.935 123.253 123.935 123.377 123.924 123.49C123.913 123.524 123.913 123.569 123.902 123.603C123.89 123.648 123.879 123.682 123.868 123.727C123.823 123.806 123.789 123.885 123.744 123.953C123.744 123.964 123.733 123.964 123.733 123.975C123.755 123.953 123.767 123.942 123.8 123.908C123.778 123.93 123.755 123.975 123.722 124.009Z" fill="#1E1E1E"/>
<path d="M123.756 123.964C123.642 124.077 123.699 124.032 123.756 123.964V123.964Z" fill="#1E1E1E"/>
<path d="M122.248 123.829C122.26 123.84 122.26 123.851 122.26 123.863C122.26 123.863 122.26 123.874 122.271 123.874C122.26 123.818 122.248 123.795 122.237 123.784C122.237 123.795 122.237 123.806 122.248 123.829Z" fill="#1E1E1E"/>
<path d="M122.406 122.903C122.406 122.914 122.395 122.914 122.395 122.925C122.395 122.914 122.406 122.914 122.406 122.903Z" fill="#1E1E1E"/>
<path d="M123.161 122.023C123.127 122.011 123.104 122 123.07 121.989C123.058 121.989 123.036 121.989 123.024 121.978C123.024 121.978 123.07 122 123.172 122.023C123.172 122.023 123.172 122.023 123.161 122.023Z" fill="#1E1E1E"/>
<path d="M70.8222 126.527C70.7435 126.301 70.6535 126.064 70.5298 125.861C70.3949 125.658 70.2487 125.443 70.0575 125.274C69.9113 125.15 69.7651 125.025 69.6077 124.924C69.439 124.822 69.2141 124.743 69.0567 124.676C68.8093 124.574 68.5281 124.551 68.2695 124.529C67.7522 124.484 67.1674 124.653 66.7288 124.913C66.6389 124.958 66.5826 125.048 66.5039 125.116C66.234 125.296 66.0203 125.511 65.8404 125.782C65.7167 125.974 65.6155 126.188 65.5705 126.414C65.5255 126.64 65.4806 126.877 65.5031 127.103C65.548 127.554 65.6043 127.791 65.8067 128.198C66.0204 128.627 66.4252 128.988 66.83 129.225C66.92 129.281 67.0212 129.326 67.1224 129.372C67.3698 129.473 67.6172 129.586 67.8646 129.665C68.4944 129.857 69.2141 129.834 69.7876 129.473C70.125 129.259 70.3499 129.022 70.5636 128.694C70.6985 128.48 70.811 128.231 70.856 127.983C70.9009 127.746 70.9459 127.498 70.9347 127.261C70.9234 127.035 70.9009 126.764 70.8222 126.527Z" fill="#F7C300"/>
<path d="M79.3465 131.11C79.234 130.873 79.0654 130.658 78.8967 130.466C78.7167 130.252 78.4806 130.071 78.2332 129.936C77.6484 129.608 76.9062 129.473 76.254 129.676C75.613 129.879 75.0169 130.319 74.7133 130.94C74.5221 131.335 74.3984 131.697 74.3984 132.148C74.3984 132.566 74.5109 132.983 74.7246 133.345C74.7808 133.446 74.8595 133.548 74.9495 133.638C75.1519 134.259 75.5005 134.88 76.074 135.219C76.6925 135.569 77.446 135.535 78.042 135.162C78.2782 135.015 78.5143 134.835 78.7055 134.643C79.0991 134.248 79.4252 133.706 79.5602 133.164C79.6276 132.904 79.6726 132.622 79.6501 132.351C79.6389 131.855 79.5489 131.539 79.3465 131.11Z" fill="#F7C300"/>
<path d="M71.3508 140.106C71.3283 139.993 71.2946 139.881 71.2608 139.768C71.1821 139.542 71.0921 139.305 70.9572 139.09C70.721 138.684 70.3724 138.323 69.9788 138.086C69.6977 137.928 69.3603 137.803 69.023 137.77C68.9555 137.747 68.8993 137.713 68.8318 137.691C68.4382 137.589 68.0783 137.612 67.6735 137.691C67.5498 137.657 67.4261 137.645 67.3024 137.645C66.8863 137.668 66.3915 137.803 66.1103 138.142C65.8967 138.402 65.7617 138.594 65.638 138.887C65.5031 139.215 65.4693 139.395 65.4244 139.779C65.3906 140.118 65.4581 140.479 65.5481 140.795C65.7055 141.325 65.9754 141.856 66.3015 142.319C66.7513 142.951 67.3361 143.594 68.1458 143.741C68.3707 143.786 68.6069 143.832 68.8318 143.809C69.2029 143.775 69.4053 143.73 69.7314 143.594C69.8889 143.527 70.0351 143.47 70.17 143.369C70.3612 143.222 70.5636 143.086 70.7098 142.906C71.0134 142.522 71.2721 142.127 71.362 141.63C71.4633 141.088 71.452 140.659 71.3508 140.106Z" fill="#F7C300"/>
<path d="M87.9718 139.429C87.8705 139.226 87.7131 139.046 87.5669 138.865C87.4994 138.786 87.4207 138.707 87.342 138.639C87.2633 138.571 87.1846 138.526 87.1171 138.47C86.9821 138.255 86.8247 138.063 86.6785 137.86C86.5211 137.691 86.3412 137.578 86.1387 137.51C85.9363 137.409 85.7226 137.352 85.4865 137.364H85.4752C85.0929 137.307 84.6768 137.341 84.3394 137.555C84.227 137.646 84.1145 137.736 84.0021 137.815C83.7884 138.03 83.6535 138.278 83.5635 138.56C83.4735 138.797 83.406 139.034 83.3498 139.283C83.2711 139.644 83.2149 140.005 83.2036 140.366C83.1924 140.682 83.2374 140.998 83.3048 141.315C83.3611 141.619 83.4848 141.924 83.6422 142.184C84.0808 142.929 84.913 143.471 85.8014 143.437C86.2399 143.414 86.7123 143.313 87.0834 143.064C87.2633 142.94 87.4545 142.805 87.6007 142.647C87.7244 142.522 87.8256 142.376 87.9268 142.24C87.9605 142.195 87.9943 142.15 88.0167 142.105C88.118 141.913 88.2079 141.71 88.2641 141.495C88.3091 141.315 88.3204 141.134 88.3429 140.953C88.3541 140.897 88.3541 140.84 88.3541 140.773C88.3091 140.287 88.1854 139.87 87.9718 139.429Z" fill="#F7C300"/>
<path d="M87.8818 124.054C87.8593 123.952 87.803 123.851 87.7693 123.772C87.7243 123.67 87.6906 123.58 87.6344 123.49C87.4207 123.151 87.1845 122.948 86.8697 122.722C86.701 122.598 86.5098 122.496 86.3299 122.406C86.2399 122.361 86.1499 122.327 86.0487 122.282C85.8576 122.158 85.6664 122.067 85.4077 121.966C85.1716 121.875 84.9129 121.864 84.6655 121.83C84.5418 121.819 84.4181 121.808 84.2944 121.808C84.092 121.808 83.8783 121.853 83.6872 121.932C83.4173 121.943 83.1474 122 82.9112 122.146C82.5513 122.383 82.2365 122.722 82.1353 123.162C82.079 123.388 82.0565 123.625 82.0341 123.851C82.0228 123.952 82.0341 124.054 82.0341 124.144C82.0565 124.37 82.079 124.596 82.1353 124.81C82.1915 125.036 82.2927 125.251 82.3939 125.465C82.5289 125.759 82.7425 126.03 82.9562 126.244C83.1811 126.458 83.4398 126.662 83.7209 126.797C83.9121 126.887 84.1257 126.989 84.3282 127.045C84.5531 127.113 84.8005 127.136 85.0254 127.158C85.1153 127.17 85.2053 127.17 85.3065 127.17C85.5314 127.158 85.7788 127.136 86.0037 127.068C86.2062 127.012 86.4086 126.921 86.5885 126.82C86.7797 126.718 86.9596 126.56 87.1283 126.425C87.1958 126.368 87.252 126.312 87.297 126.244C87.4319 126.075 87.5781 125.905 87.6681 125.713C87.7468 125.533 87.848 125.341 87.8818 125.138C87.9605 124.731 87.9717 124.449 87.8818 124.054Z" fill="#F7C300"/>
<path d="M81.371 150.628C81.3372 150.391 81.2248 150.165 81.1236 149.962C80.9211 149.555 80.5163 149.183 80.134 148.946C79.9765 148.844 79.7966 148.788 79.6167 148.731C79.1893 148.325 78.5821 148.065 78.0085 148.099C77.6149 148.122 77.2213 148.201 76.8727 148.415C76.7153 148.517 76.5579 148.63 76.4229 148.776C76.153 149.07 76.063 149.273 75.9169 149.646C75.8944 149.713 75.8944 149.781 75.8831 149.838C75.7482 150.131 75.6807 150.402 75.647 150.763C75.6245 151.034 75.6695 151.305 75.7369 151.565C75.7932 151.802 75.9056 152.039 76.0068 152.253C76.1193 152.502 76.2992 152.705 76.4679 152.919C76.5354 153.01 76.6141 153.089 76.704 153.156C76.9065 153.326 77.1089 153.495 77.3563 153.608C77.5137 153.676 77.7049 153.766 77.8848 153.822C78.0085 153.856 78.1435 153.868 78.2672 153.89C78.6383 153.935 78.8857 153.924 79.268 153.845C79.7629 153.755 80.2352 153.45 80.595 153.111C80.9436 152.784 81.2585 152.287 81.3597 151.813C81.4609 151.339 81.4497 151.091 81.371 150.628Z" fill="#F7C300"/>
<path d="M66.9087 154.951C66.785 154.455 66.5151 154.014 66.1777 153.642C66.009 153.45 65.7954 153.303 65.5929 153.156C65.3793 153.01 65.1206 152.908 64.8845 152.829C64.4009 152.648 63.8274 152.671 63.3326 152.784C63.2988 152.795 63.2763 152.807 63.2539 152.818C63.0852 152.818 62.9165 152.84 62.7478 152.908C62.4217 153.032 62.1743 153.156 61.9156 153.394C61.7807 153.518 61.6682 153.676 61.567 153.834C61.4658 153.992 61.3983 154.229 61.3533 154.443C61.3309 154.5 61.2859 154.556 61.2634 154.613C61.1847 154.793 61.1172 154.951 61.0947 155.132C61.061 155.313 61.0272 155.538 61.016 155.73C61.0047 156.238 61.2634 156.667 61.5895 157.017C61.702 157.13 61.8257 157.243 61.9494 157.345C62.0168 157.435 62.0843 157.525 62.1518 157.615C62.4554 157.988 62.9052 158.236 63.3551 158.383C63.8274 158.53 64.3559 158.507 64.817 158.394C65.0532 158.338 65.2781 158.225 65.4917 158.123C65.7054 158.022 65.9078 157.841 66.0765 157.694C66.8637 157.04 67.1448 155.922 66.9087 154.951Z" fill="#F7C300"/>
<path d="M89.9624 155.234C89.6813 154.805 89.3439 154.432 88.9166 154.15C88.3543 153.789 87.6234 153.665 86.9824 153.834C86.5888 153.936 86.3076 154.139 85.9927 154.387C85.8016 154.545 85.6329 154.76 85.5092 154.985C85.318 155.347 85.2168 155.674 85.2168 156.08C85.2168 156.216 85.2393 156.34 85.273 156.475C85.2168 157.153 85.3068 157.83 85.6329 158.462C86.0827 159.32 87.0836 159.93 88.0507 159.918C89.2652 159.907 90.2661 158.993 90.5697 157.841C90.8059 156.938 90.5922 155.911 89.9624 155.234Z" fill="#F7C300"/>
<path d="M118.678 39.2748C119.015 39.8054 119.656 39.9747 120.219 39.6812C121.062 39.2297 121.872 38.7217 122.648 38.1573C122.895 37.9766 123.086 37.7847 123.165 37.4799C123.244 37.209 123.21 36.8478 123.052 36.6107C122.895 36.3737 122.67 36.1592 122.378 36.0914C122.097 36.0237 121.748 36.035 121.512 36.2043C120.736 36.7688 119.926 37.2767 119.083 37.7283C118.835 37.8638 118.633 38.1347 118.566 38.4056C118.487 38.6765 118.521 39.0378 118.678 39.2748Z" fill="#1E1E1E"/>
<path d="M126.448 42.9663C126.797 43.5082 127.415 43.6549 127.989 43.3727C129.203 42.7744 130.328 42.0181 131.385 41.1602C131.599 40.9908 131.711 40.6183 131.711 40.3587C131.711 40.0765 131.587 39.7491 131.385 39.5572C131.171 39.3653 130.89 39.2185 130.587 39.2298C130.272 39.2411 130.036 39.3653 129.788 39.5572C129.743 39.591 129.698 39.6249 129.653 39.6701C128.776 40.3474 127.843 40.9344 126.842 41.4198C126.594 41.544 126.392 41.8375 126.325 42.0971C126.268 42.368 126.302 42.718 126.448 42.9663Z" fill="#1E1E1E"/>
<path d="M128.09 53.5891C128.135 53.7246 128.214 53.8488 128.326 53.9503C128.54 54.1423 128.821 54.289 129.125 54.2777C129.428 54.2664 129.698 54.1648 129.923 53.9504C130.339 53.5327 130.755 53.1263 131.183 52.7086C131.295 52.607 131.374 52.4828 131.419 52.3474C131.486 52.2119 131.52 52.0652 131.52 51.9071C131.531 51.7491 131.498 51.6023 131.419 51.4669C131.374 51.3314 131.295 51.2072 131.183 51.1056C130.969 50.9137 130.688 50.767 130.384 50.7783C130.081 50.7896 129.811 50.8912 129.586 51.1056C129.17 51.5233 128.754 51.9297 128.326 52.3474C128.214 52.449 128.135 52.5731 128.09 52.7086C128.023 52.8441 127.989 52.9908 127.989 53.1489C127.978 53.3069 128.011 53.4536 128.09 53.5891Z" fill="#1E1E1E"/>
<path d="M136.907 46.906C136.974 47.1656 137.177 47.4478 137.424 47.5833C137.683 47.7188 137.997 47.7865 138.29 47.6962C138.571 47.6059 138.796 47.4366 138.965 47.1769C139.088 46.9737 139.234 46.7818 139.381 46.5899C139.718 46.1722 140.078 45.7658 140.471 45.4159C140.674 45.224 140.798 44.8966 140.798 44.6144C140.798 44.3322 140.674 44.0048 140.471 43.8129C140.258 43.621 139.977 43.4743 139.673 43.4856C139.369 43.4968 139.111 43.6097 138.875 43.8129C138.155 44.4564 137.536 45.224 137.019 46.0368C136.873 46.2738 136.828 46.6351 136.907 46.906Z" fill="#1E1E1E"/>
<path d="M131.036 30.6392C131.07 30.7859 131.138 30.9101 131.239 31.023C131.318 31.1471 131.419 31.2374 131.554 31.3165C131.644 31.3503 131.734 31.3955 131.824 31.4293C132.026 31.4858 132.217 31.4858 132.42 31.4293C132.51 31.3955 132.6 31.3503 132.69 31.3165C132.858 31.2149 132.993 31.0794 133.094 30.9101C133.241 30.594 133.387 30.2779 133.533 29.9506C133.612 29.8264 133.657 29.6796 133.668 29.5329C133.702 29.3861 133.69 29.2281 133.645 29.0813C133.612 28.9346 133.544 28.8104 133.443 28.6975C133.364 28.5733 133.263 28.483 133.128 28.404C133.038 28.3702 132.948 28.325 132.858 28.2911C132.656 28.2347 132.465 28.2347 132.262 28.2911C132.172 28.325 132.082 28.3702 131.992 28.404C131.824 28.5056 131.689 28.6411 131.587 28.8104C131.441 29.1265 131.295 29.4426 131.149 29.7699C131.07 29.8941 131.025 30.0409 131.014 30.1876C130.991 30.3344 130.991 30.4811 131.036 30.6392Z" fill="#1E1E1E"/>
<path d="M138.436 33.3484C138.503 33.608 138.706 33.8902 138.953 34.0257C139.212 34.1611 139.527 34.2289 139.819 34.1386C139.909 34.1047 139.999 34.0595 140.089 34.0257C140.258 33.9241 140.393 33.7886 140.494 33.6193C140.932 32.9758 141.371 32.3437 141.81 31.7002C141.888 31.5761 141.933 31.4293 141.944 31.2826C141.978 31.1358 141.967 30.9778 141.922 30.831C141.855 30.5714 141.652 30.2892 141.405 30.1537C141.146 30.0183 140.831 29.9505 140.539 30.0408C140.449 30.0747 140.359 30.1198 140.269 30.1537C140.1 30.2553 139.965 30.3908 139.864 30.5601C139.425 31.2035 138.987 31.8357 138.548 32.4791C138.47 32.6033 138.425 32.7501 138.413 32.8968C138.391 33.0549 138.391 33.2016 138.436 33.3484Z" fill="#1E1E1E"/>
<path d="M146.657 41.589C146.87 41.7809 147.152 41.9277 147.455 41.9164C147.736 41.9051 148.062 41.8148 148.254 41.589C148.703 41.0585 149.21 40.5843 149.749 40.1554C149.783 40.1328 149.828 40.0989 149.862 40.0651C149.997 39.9973 150.098 39.8957 150.177 39.7716C150.278 39.6587 150.345 39.5345 150.379 39.3878C150.458 39.1168 150.424 38.7556 150.267 38.5185C150.109 38.2815 149.884 38.067 149.592 37.9993C149.311 37.9315 148.962 37.9428 148.726 38.1121C147.973 38.6653 147.275 39.2749 146.668 39.986C146.556 40.0876 146.477 40.2118 146.432 40.3473C146.364 40.4827 146.331 40.6295 146.331 40.7875C146.331 41.0697 146.454 41.3971 146.657 41.589Z" fill="#1E1E1E"/>
<path d="M146.42 30.3119C146.859 30.7183 147.578 30.7747 148.006 30.3119C148.309 29.9845 148.636 29.691 148.984 29.4201C149.535 29.0137 150.109 28.6638 150.738 28.3815C150.975 28.2687 151.188 27.9526 151.256 27.7042C151.334 27.4333 151.301 27.0721 151.143 26.835C150.986 26.598 150.761 26.3835 150.469 26.3157C150.367 26.3045 150.266 26.2932 150.165 26.2706C149.963 26.2706 149.771 26.327 149.603 26.4286C148.411 26.9592 147.309 27.7494 146.42 28.7089C146.015 29.1379 145.959 29.8829 146.42 30.3119Z" fill="#1E1E1E"/>
<path d="M139.741 22.5909C139.898 22.828 140.123 23.0425 140.415 23.1102C140.696 23.1779 141.034 23.1666 141.281 22.9973C142.192 22.3426 143.058 21.6201 143.845 20.8186C144.048 20.6154 144.171 20.3106 144.171 20.0171C144.171 19.7349 144.048 19.4075 143.845 19.2156C143.632 19.0237 143.35 18.877 143.047 18.8883C142.754 18.8996 142.462 19.0012 142.248 19.2156C141.709 19.7688 141.124 20.2881 140.517 20.7622C140.393 20.8525 140.269 20.9541 140.145 21.0444C139.898 21.2137 139.707 21.4169 139.628 21.7217C139.549 21.9926 139.583 22.3539 139.741 22.5909Z" fill="#1E1E1E"/>
<path d="M150.975 13.6725C151.189 13.8644 151.47 14.0112 151.774 13.9999C152.077 13.9886 152.347 13.887 152.572 13.6725C153.112 13.1307 153.652 12.6001 154.191 12.0583C154.394 11.8551 154.518 11.5503 154.518 11.2568C154.518 10.9745 154.394 10.6472 154.191 10.4553C153.978 10.2634 153.697 10.1166 153.393 10.1279C153.089 10.1392 152.819 10.2408 152.595 10.4553C152.055 10.9971 151.515 11.5277 150.975 12.0695C150.773 12.2727 150.649 12.5775 150.649 12.871C150.649 13.1532 150.773 13.4806 150.975 13.6725Z" fill="#1E1E1E"/>
<path d="M151.065 20.4006C151.11 20.5361 151.189 20.6603 151.301 20.7619C151.515 20.9538 151.796 21.1005 152.1 21.0892C152.201 21.0779 152.302 21.0667 152.403 21.0441C152.595 20.9876 152.763 20.8973 152.898 20.7506L154.057 19.7798C154.169 19.6782 154.248 19.554 154.293 19.4185C154.36 19.2831 154.394 19.1363 154.394 18.9783C154.405 18.8202 154.371 18.6735 154.293 18.538C154.248 18.4026 154.169 18.2784 154.057 18.1768C153.843 17.9849 153.562 17.8381 153.258 17.8494C153.157 17.8607 153.056 17.872 152.954 17.8946C152.763 17.951 152.595 18.0413 152.46 18.1881C152.077 18.5154 151.684 18.8315 151.301 19.1589C151.189 19.2605 151.11 19.3847 151.065 19.5201C150.998 19.6556 150.964 19.8023 150.964 19.9604C150.953 20.1297 150.986 20.2765 151.065 20.4006Z" fill="#1E1E1E"/>
<path d="M150.649 34.7823C150.806 35.0194 151.031 35.2339 151.324 35.3016C151.605 35.3693 151.942 35.358 152.189 35.1887C153.033 34.6243 153.932 34.1502 154.866 33.7438C154.843 33.7551 154.832 33.7551 154.81 33.7663C155.08 33.6535 155.304 33.5293 155.462 33.2584C155.608 33.0213 155.664 32.6601 155.574 32.3891C155.484 32.1182 155.316 31.8473 155.057 31.7118C154.81 31.5764 154.461 31.4861 154.191 31.5989C153.089 32.0505 152.043 32.581 151.042 33.2358C150.795 33.3938 150.604 33.6196 150.525 33.9131C150.458 34.184 150.491 34.5453 150.649 34.7823Z" fill="#1E1E1E"/>
<path d="M154.067 40.3021C154.225 40.5392 154.45 40.7537 154.742 40.8214C155.034 40.8892 155.349 40.8666 155.608 40.7085C156.361 40.257 157.104 39.7942 157.846 39.32C158.093 39.162 158.284 38.9249 158.363 38.6427C158.442 38.3718 158.408 38.0106 158.251 37.7735C158.093 37.5365 157.868 37.322 157.576 37.2542C157.284 37.1865 156.969 37.2091 156.71 37.3671C155.968 37.8412 155.226 38.3041 154.472 38.7556C154.225 38.9024 154.034 39.1507 153.955 39.4329C153.876 39.7039 153.91 40.0651 154.067 40.3021Z" fill="#1E1E1E"/>
<path d="M156.598 6.60605C156.733 6.84311 157.003 7.06888 157.273 7.12532C157.565 7.19305 157.88 7.18176 158.139 7.01244C158.386 6.8544 158.578 6.62863 158.656 6.33512C158.836 5.70297 159.005 5.05952 159.185 4.42736C159.264 4.14515 159.219 3.80648 159.072 3.55814C158.937 3.32108 158.668 3.09531 158.398 3.03886C158.105 2.97113 157.79 2.98243 157.532 3.15176C157.284 3.3098 157.093 3.53557 157.014 3.82907C156.834 4.46123 156.666 5.10467 156.486 5.73682C156.407 6.01904 156.452 6.3577 156.598 6.60605Z" fill="#1E1E1E"/>
<path d="M156.384 23.674C156.598 23.8659 156.879 24.0126 157.183 24.0013C157.486 23.9901 157.756 23.8885 157.981 23.674C158.802 22.8725 159.533 22.0146 160.219 21.1002C160.388 20.8857 160.399 20.4793 160.332 20.231C160.264 19.9713 160.062 19.6891 159.814 19.5537C159.556 19.4182 159.241 19.3505 158.948 19.4408C158.858 19.4746 158.768 19.5198 158.678 19.5537C158.51 19.6553 158.386 19.7907 158.285 19.9488C158.296 19.9375 158.307 19.9149 158.319 19.9036C157.723 20.6712 157.082 21.3937 156.384 22.071C156.182 22.2742 156.058 22.579 156.058 22.8725C156.058 23.1547 156.182 23.4821 156.384 23.674Z" fill="#1E1E1E"/>
<path d="M19.1556 9.76283C18.8603 10.6767 19.1996 11.6201 20.1196 11.9154C20.5159 12.0376 20.8969 12.0197 21.3273 11.9643L21.5529 11.9353V12.1626C21.5529 12.1983 21.5486 12.2346 21.546 12.2572L21.5459 12.2579L21.5453 12.2633C21.544 12.2736 21.5431 12.2813 21.5424 12.2885C21.5419 12.2938 21.5417 12.2967 21.5417 12.2978C21.5416 12.2986 21.5416 12.2986 21.5416 12.2981C21.5416 12.5402 21.6195 12.7953 21.7556 13.0002L21.7591 13.0055L21.7591 13.0056C21.9804 13.3629 22.3852 13.5888 22.8123 13.6831C22.9678 13.7165 23.2037 13.7562 23.3772 13.7465L23.577 13.7354L23.588 13.9352C23.6075 14.2876 23.831 14.7476 24.0147 15.0189C24.5514 15.8003 25.4436 16.2724 26.3836 16.2411C26.9755 16.2178 27.2821 15.7543 27.2845 15.2674C27.2857 15.0249 27.2089 14.7948 27.0658 14.6312C26.927 14.4723 26.7145 14.3626 26.4092 14.3719C26.172 14.3814 25.9774 14.3361 25.8222 14.2322C25.6674 14.1285 25.5748 13.9817 25.513 13.832C25.4525 13.6855 25.4158 13.5211 25.3829 13.3722L25.3802 13.3598C25.347 13.2095 25.3164 13.0708 25.2697 12.9425C25.0963 12.4719 24.7556 12.1062 24.2843 11.9584L24.2807 11.9572L24.2807 11.9572C24.1362 11.9088 23.9763 11.8877 23.8031 11.8768L23.6089 11.8647L23.6158 11.6701C23.6258 11.3875 23.5655 11.1108 23.4194 10.866C23.1175 10.3679 22.5079 10.1137 21.9029 10.0707C21.71 10.0607 21.5127 10.0809 21.3055 10.1138L20.9846 10.1646L21.0837 9.85523C21.1782 9.56012 21.2172 9.27486 21.1773 8.98417C21.0882 8.34936 20.6334 7.87135 20.013 7.64301L20.0126 7.64285C19.6819 7.52027 19.3571 7.50028 19.0101 7.50851C18.9066 7.51097 18.7981 7.51623 18.6863 7.52165C18.4354 7.53383 18.1674 7.54683 17.8997 7.53079C17.8842 7.52988 17.8716 7.52754 17.8694 7.52712L17.8691 7.52706C17.862 7.52581 17.8546 7.5243 17.8479 7.52288C17.8344 7.52 17.8173 7.5161 17.7991 7.51187C17.7901 7.50978 17.7805 7.50756 17.7706 7.50524C17.7391 7.49791 17.7034 7.48959 17.6657 7.48119L17.3724 7.41576L17.546 7.17044C17.8263 6.77444 18.0108 6.17838 17.9713 5.725C17.9411 5.44475 17.8403 5.21567 17.6869 5.05485C17.5351 4.8957 17.3203 4.79101 17.0356 4.77648L17.0337 4.77638L17.0337 4.77637C16.8499 4.76519 16.6658 4.75679 16.4787 4.74831L16.4652 4.7477C16.2848 4.73954 16.1015 4.73124 15.9154 4.7203H15.9153H15.9152H15.915H15.9149H15.9148H15.9146H15.9145H15.9144H15.9142H15.9141H15.914H15.9138H15.9137H15.9136H15.9134H15.9133H15.9132H15.9131H15.9129H15.9128H15.9127H15.9125H15.9124H15.9123H15.9121H15.912H15.9119H15.9117H15.9116H15.9115H15.9113H15.9112H15.9111H15.9109H15.9108H15.9107H15.9105H15.9104H15.9103H15.9101H15.91H15.9099H15.9097H15.9096H15.9095H15.9093H15.9092H15.9091H15.9089H15.9088H15.9086H15.9085H15.9084H15.9082H15.9081H15.908H15.9078H15.9077H15.9076H15.9074H15.9073H15.9072H15.907H15.9069H15.9068H15.9066H15.9065H15.9064H15.9062H15.9061H15.906H15.9058H15.9057H15.9056H15.9054H15.9053H15.9051H15.905H15.9049H15.9047H15.9046H15.9045H15.9043H15.9042H15.9041H15.9039H15.9038H15.9037H15.9035H15.9034H15.9032H15.9031H15.903H15.9028H15.9027H15.9026H15.9024H15.9023H15.9022H15.902H15.9019H15.9017H15.9016H15.9015H15.9013H15.9012H15.9011H15.9009H15.9008H15.9006H15.9005H15.9004H15.9002H15.9001H15.9H15.8998H15.8997H15.8995H15.8994H15.8993H15.8991H15.899H15.8988H15.8987H15.8986H15.8984H15.8983H15.8981H15.898H15.8979H15.8977H15.8976H15.8975H15.8973H15.8972H15.897H15.8969H15.8968H15.8966H15.8965H15.8963H15.8962H15.896H15.8959H15.8958H15.8956H15.8955H15.8953H15.8952H15.8951H15.8949H15.8948H15.8946H15.8945H15.8944H15.8942H15.8941H15.8939H15.8938H15.8936H15.8935H15.8934H15.8932H15.8931H15.8929H15.8928H15.8926H15.8925H15.8924H15.8922H15.8921H15.8919H15.8918H15.8916H15.8915H15.8914H15.8912H15.8911H15.8909H15.8908H15.8906H15.8905H15.8903H15.8902H15.8901H15.8899H15.8898H15.8896H15.8895H15.8893H15.8892H15.889H15.8889H15.8887H15.8886H15.8885H15.8883H15.8882H15.888H15.8879H15.8877H15.8876H15.8874H15.8873H15.8871H15.887H15.8868H15.8867H15.8865H15.8864H15.8862H15.8861H15.886H15.8858H15.8857H15.8855H15.8854H15.8852H15.8851H15.8849H15.8848H15.8846H15.8845H15.8843H15.8842H15.884H15.8839H15.8837H15.8836H15.8834H15.8833H15.8831H15.883H15.8828H15.8827H15.8825H15.8824H15.8822H15.882H15.8819H15.8817H15.8816H15.8814H15.8813H15.8811H15.881H15.8808H15.8807H15.8805H15.8804H15.8802H15.8801H15.8799H15.8798H15.8796H15.8794H15.8793H15.8791H15.879H15.8788H15.8787H15.8785H15.8784H15.8782H15.878H15.8779H15.8777H15.8776H15.8774H15.8773H15.8771H15.877H15.8768H15.8766H15.8765H15.8763H15.8762H15.876H15.8759H15.8757H15.8755H15.8754H15.8752H15.8751H15.8749H15.8747H15.8746H15.8744H15.8743H15.8741H15.8739H15.8738H15.8736H15.8735H15.8733H15.8731H15.873H15.8728H15.8727H15.8725H15.8723H15.8722H15.872H15.8718H15.8717H15.8715H15.8714H15.8712H15.871H15.8709H15.8707H15.8705H15.8704H15.8702H15.8701H15.8699H15.8697H15.8696H15.8694H15.8692H15.8691H15.8689H15.8687H15.8686H15.8684H15.8682H15.8681H15.8679H15.8677H15.8676H15.8674H15.8672H15.8671H15.8669H15.8667H15.8666H15.8664H15.8662H15.8661H15.8659H15.8657H15.8656H15.8654H15.8652H15.865H15.8649H15.8647H15.8645H15.8644H15.8642H15.864H15.8639H15.8637H15.8635H15.8633H15.8632H15.863H15.8628H15.8626H15.8625H15.8623H15.8621H15.862H15.8618H15.8616H15.8614H15.8613H15.8611H15.8609H15.8607H15.8606H15.8604H15.8602H15.86H15.8599H15.8597H15.8595H15.8593H15.8592H15.859H15.8588H15.8586H15.8584H15.8583H15.8581H15.8579H15.8577H15.8576H15.8574H15.8572H15.857H15.8568H15.8567H15.8565H15.8563H15.8561H15.8559H15.8558H15.8556H15.8554H15.8552H15.855H15.8549H15.8547H15.8545H15.8543H15.8541H15.8539H15.8538H15.8536H15.8534H15.8532H15.853H15.8528H15.8527H15.8525H15.8523H15.8521H15.8519H15.8517H15.8515H15.8514H15.8512H15.851H15.8508H15.8506H15.8504H15.8502H15.85H15.8499H15.8497H15.8495H15.8493H15.8491H15.8489H15.8487H15.8485H15.8483H15.8481H15.848H15.8478H15.8476H15.8474H15.8472H15.847H15.8468H15.8466H15.8464H15.8462H15.846H15.8458H15.8457H15.8455H15.8453H15.8451H15.8449H15.8447H15.8445H15.8443H15.8441H15.8439H15.8437H15.8435H15.8433H15.8431H15.8429H15.8427H15.8425H15.5866L15.6485 4.47197C15.6575 4.43567 15.6701 4.40275 15.6792 4.37994C15.6832 4.37001 15.6862 4.36246 15.6887 4.35644C15.6918 4.34866 15.694 4.34342 15.6957 4.33888C15.7403 4.16008 15.7875 3.9788 15.8344 3.7987L15.8345 3.7982C15.8824 3.61458 15.9299 3.43219 15.9746 3.2528L15.9752 3.25027C16.0537 2.95187 15.9966 2.70946 15.8726 2.5259C15.7456 2.33802 15.5403 2.20035 15.3086 2.1365C15.0769 2.07262 14.833 2.08645 14.6329 2.1828C14.4379 2.27667 14.2703 2.45522 14.1918 2.75321C14.1387 2.95953 14.0661 3.18663 13.9919 3.41844C13.9734 3.47648 13.9547 3.53483 13.9363 3.59321C13.8427 3.88899 13.752 4.19173 13.6909 4.48985C13.5673 5.09378 13.5765 5.62837 13.8766 6.02522L13.8773 6.02614C14.1859 6.43909 14.6741 6.50973 15.2528 6.54416C15.2971 6.54443 15.3402 6.54752 15.3762 6.5501L15.3789 6.5503C15.4195 6.55321 15.4517 6.55543 15.4827 6.55543H15.765L15.6713 6.82177C15.5467 7.1763 15.5083 7.54153 15.5975 7.90162C15.8377 8.78162 16.7163 9.2699 17.6159 9.3559L17.6206 9.35635L17.6206 9.3564C17.8378 9.38236 18.0533 9.37499 18.2789 9.36101C18.3193 9.35851 18.3602 9.35577 18.4017 9.353C18.5858 9.34068 18.7791 9.32774 18.9713 9.33241M19.1556 9.76283C19.1566 9.7595 19.1577 9.75617 19.1588 9.75283L19.0138 9.70522V9.53241L18.969 9.52497L18.9738 9.33247C18.973 9.33245 18.9721 9.33243 18.9713 9.33241M19.1556 9.76283C19.1764 9.71451 19.1992 9.63691 19.2111 9.56517L19.2497 9.33241H19.0138H19.0137H19.0137H19.0136H19.0135H19.0135H19.0134H19.0133H19.0132H19.0132H19.0131H19.013H19.013H19.0129H19.0128H19.0128H19.0127H19.0126H19.0126H19.0125H19.0124H19.0123H19.0123H19.0122H19.0121H19.0121H19.012H19.0119H19.0118H19.0118H19.0117H19.0116H19.0115H19.0115H19.0114H19.0113H19.0113H19.0112H19.0111H19.011H19.011H19.0109H19.0108H19.0107H19.0106H19.0106H19.0105H19.0104H19.0103H19.0103H19.0102H19.0101H19.01H19.01H19.0099H19.0098H19.0097H19.0096H19.0096H19.0095H19.0094H19.0093H19.0092H19.0092H19.0091H19.009H19.0089H19.0088H19.0088H19.0087H19.0086H19.0085H19.0084H19.0084H19.0083H19.0082H19.0081H19.008H19.0079H19.0079H19.0078H19.0077H19.0076H19.0075H19.0074H19.0074H19.0073H19.0072H19.0071H19.007H19.0069H19.0068H19.0068H19.0067H19.0066H19.0065H19.0064H19.0063H19.0062H19.0062H19.0061H19.006H19.0059H19.0058H19.0057H19.0056H19.0056H19.0055H19.0054H19.0053H19.0052H19.0051H19.005H19.0049H19.0048H19.0048H19.0047H19.0046H19.0045H19.0044H19.0043H19.0042H19.0041H19.004H19.004H19.0039H19.0038H19.0037H19.0036H19.0035H19.0034H19.0033H19.0032H19.0031H19.003H19.003H19.0029H19.0028H19.0027H19.0026H19.0025H19.0024H19.0023H19.0022H19.0021H19.002H19.0019H19.0018H19.0018H19.0017H19.0016H19.0015H19.0014H19.0013H19.0012H19.0011H19.001H19.0009H19.0008H19.0007H19.0006H19.0005H19.0004H19.0003H19.0003H19.0002H19.0001H19H18.9999H18.9998H18.9997H18.9996H18.9995H18.9994H18.9993H18.9992H18.9991H18.999H18.9989H18.9988H18.9987H18.9986H18.9985H18.9984H18.9983H18.9982H18.9982H18.9981H18.998H18.9979H18.9978H18.9977H18.9976H18.9975H18.9974H18.9973H18.9972H18.9971H18.997H18.9969H18.9968H18.9967H18.9966H18.9965H18.9964H18.9963H18.9962H18.9961H18.996H18.9959H18.9958H18.9957H18.9956H18.9955H18.9954H18.9953H18.9952H18.9951H18.995H18.9949H18.9948H18.9947H18.9946H18.9945H18.9944H18.9944H18.9943H18.9942H18.9941H18.994H18.9939H18.9938H18.9937H18.9936H18.9935H18.9934H18.9933H18.9932H18.9931H18.993H18.9929H18.9928H18.9927H18.9926H18.9925H18.9924H18.9923H18.9922H18.9921H18.992H18.9919H18.9918H18.9917H18.9916H18.9915H18.9914H18.9913H18.9912H18.9911H18.991H18.9909H18.9908H18.9907H18.9906H18.9905H18.9904H18.9903H18.9902H18.9901H18.99H18.9899H18.9898H18.9897H18.9896H18.9895H18.9894H18.9893H18.9892H18.9891H18.989H18.9889H18.9888H18.9887H18.9886H18.9885H18.9884H18.9883H18.9882H18.9881H18.988H18.9879H18.9878H18.9877H18.9876H18.9875H18.9874H18.9873H18.9873H18.9872H18.9871H18.987H18.9869H18.9868H18.9867H18.9866H18.9865H18.9864H18.9863H18.9862H18.9861H18.986H18.9859H18.9858H18.9857H18.9856H18.9855H18.9854H18.9853H18.9852H18.9851H18.985H18.9849H18.9848H18.9847H18.9846H18.9845H18.9844H18.9843H18.9842H18.9841H18.984H18.9839H18.9839H18.9838H18.9837H18.9836H18.9835H18.9834H18.9833H18.9832H18.9831H18.983H18.9829H18.9828H18.9827H18.9826H18.9825H18.9824H18.9823H18.9822H18.9821H18.982H18.982H18.9819H18.9818H18.9817H18.9816H18.9815H18.9814H18.9813H18.9812H18.9811H18.981H18.9809H18.9808H18.9807H18.9806H18.9805H18.9805H18.9804H18.9803H18.9802H18.9801H18.98H18.9799H18.9798H18.9797H18.9796H18.9795H18.9794H18.9794H18.9793H18.9792H18.9791H18.979H18.9789H18.9788H18.9787H18.9786H18.9785H18.9785H18.9784H18.9783H18.9782H18.9781H18.978H18.9779H18.9778H18.9777H18.9776H18.9776H18.9775H18.9774H18.9773H18.9772H18.9771H18.977H18.9769H18.9769H18.9768H18.9767H18.9766H18.9765H18.9764H18.9763H18.9762H18.9762H18.9761H18.976H18.9759H18.9758H18.9757H18.9757H18.9756H18.9755H18.9754H18.9753H18.9752H18.9751H18.9751H18.975H18.9749H18.9748H18.9747H18.9746H18.9746H18.9745H18.9744H18.9743H18.9742H18.9741H18.9741H18.974H18.9739H18.9738H18.9737H18.9737H18.9736H18.9735H18.9734H18.9733H18.9733H18.9732H18.9731H18.973H18.9729H18.9729H18.9728H18.9727H18.9726H18.9726H18.9725H18.9724H18.9723H18.9722H18.9722H18.9721H18.972H18.9719H18.9719H18.9718H18.9717H18.9716H18.9716H18.9715H18.9714H18.9713H18.9713M19.1556 9.76283L18.9688 9.52494M18.9713 9.33241H18.9713H18.9712H18.9711H18.971H18.971H18.9709H18.9708H18.9707H18.9707H18.9706H18.9705H18.9705H18.9704H18.9703H18.9702H18.9702H18.9701H18.97H18.97H18.9699H18.9698H18.9697H18.9697H18.9696H18.9695H18.9695H18.9694H18.9693H18.9693H18.9692H18.9691H18.9691H18.969H18.9689H18.9689H18.9688V9.52494M18.9688 9.52494L18.8165 9.49965C18.8147 9.51036 18.8125 9.52138 18.81 9.53224C18.6799 9.5349 18.5496 9.54359 18.4185 9.55234C18.1494 9.5703 17.8771 9.58848 17.5968 9.55499C16.6522 9.46468 15.6738 8.94541 15.4039 7.95201C15.32 7.61499 15.3366 7.27797 15.4217 6.95383L18.9688 9.52494ZM21.3754 8.9567C21.2741 8.23423 20.7569 7.70367 20.0821 7.45532L21.3754 8.9567Z" fill="#1E1E1E" stroke="#1E1E1E" stroke-width="0.4"/>
<path d="M101.242 21.5769C101.141 21.3624 100.983 21.1705 100.826 21.0124C100.669 20.8544 100.477 20.7076 100.275 20.6061C99.9376 20.4367 99.6564 20.369 99.2966 20.3351C99.2179 20.3238 99.1392 20.3238 99.0604 20.3351C98.8805 20.3577 98.7006 20.369 98.5431 20.4254C98.217 20.5383 97.9021 20.7076 97.6772 20.9786C97.621 21.0463 97.5873 21.1253 97.5423 21.1931C96.8113 21.7236 96.4177 22.6831 96.6876 23.5862C96.8563 24.1507 97.2162 24.6022 97.6997 24.9183C98.1608 25.2231 98.7456 25.3134 99.2853 25.2456C99.8364 25.1666 100.354 24.9296 100.759 24.5458C100.938 24.3764 101.085 24.1732 101.208 23.9587C101.321 23.7443 101.422 23.5072 101.478 23.2701C101.523 23.0331 101.568 22.7847 101.534 22.5477C101.478 22.1752 101.4 21.9042 101.242 21.5769Z" fill="#1E1E1E"/>
</svg>
