<svg width="53" height="48" viewBox="0 0 53 48" fill="none" xmlns="http://www.w3.org/2000/svg">
<path d="M45.2583 25.8204C45.243 23.5605 44.7892 21.2689 43.7818 19.0249C41.9439 11.3094 35.7916 6.55167 28.8704 4.17281C20.4111 2.5869 11.9518 4.17281 5.79961 11.3094C1.18545 16.8601 -0.352603 23.9967 1.95448 31.1332C5.79961 41.4417 15.0279 48.5782 26.5634 46.9923C36.5606 45.4144 45.789 36.6919 45.2583 25.8204ZM34.9996 24.7897C34.6919 24.9165 34.3535 24.9878 34.0152 25.0275C33.9921 25.0275 33.9767 25.0354 33.9537 25.0354C33.1462 25.1544 32.2541 25.5429 31.4774 25.8125C30.5546 26.1376 29.6394 26.5024 28.7474 26.9226C27.5477 27.4856 26.3788 28.1359 25.2636 28.8575C24.2024 29.5473 23.195 30.5226 21.8569 30.4593C21.3801 30.4354 20.8648 30.2451 20.6418 29.809C20.5342 29.5949 20.5111 29.3491 20.4957 29.1033C20.3496 27.0257 20.5418 24.9641 20.488 22.8865C20.4419 20.9755 20.2343 19.0407 19.642 17.2169C19.519 16.8283 19.3652 16.4398 19.3806 16.0354C19.4114 15.2345 20.2804 14.7429 20.9878 14.8698C21.4647 14.957 21.8799 15.2266 22.2952 15.4803C25.9789 17.7482 30.0163 19.1279 34.1305 20.3095C34.5689 20.4363 35.0226 20.5632 35.3764 20.8724C36.1377 21.5464 36.4068 23.2672 35.8224 24.1235C35.607 24.4486 35.3148 24.6548 34.9996 24.7897Z" fill="#D1AA1E"/>
<path d="M45.7744 13.8313C41.9139 4.45854 31.6166 -0.878042 21.996 0.152796C20.5349 0.311387 20.5195 2.69025 21.996 2.53166C29.6171 1.71492 37.7611 5.06911 42.083 11.7537C46.2742 18.2322 46.2204 27.4304 41.6216 33.6869C36.8613 40.1573 28.1175 41.9415 20.7195 40.4983C16.6359 39.6974 12.437 38.0401 9.61475 34.7732C7.16155 31.9344 5.92342 28.0648 5.9388 24.2903C5.96187 15.0603 13.9367 8.01097 22.5959 7.70965C24.0802 7.65415 24.0802 5.27528 22.5959 5.33079C14.0213 5.63211 5.63119 11.8092 3.97009 20.7617C3.178 25.0277 3.81628 29.5555 5.86189 33.3776C8.09207 37.5406 11.9065 40.2049 16.1976 41.7274C24.3647 44.6217 34.4082 43.8525 41.0756 37.7705C47.4893 31.9106 49.0581 21.8163 45.7744 13.8313Z" fill="#1E1E1E"/>
<path d="M37.4834 23.0691C37.4219 22.6013 37.1143 22.1255 36.6529 22.0621C30.6698 21.2057 24.9175 19.1916 19.6804 16.0832C18.4423 15.3457 17.3272 17.2092 18.3808 18.0339C19.8189 22.8471 20.4417 27.8427 21.0339 32.8304C21.1108 33.4648 21.5107 34.0198 22.1875 34.0198C22.5335 34.0198 22.918 33.8137 23.1411 33.5044C27.117 29.5475 32.0848 26.9308 36.9604 24.3696C37.5295 24.0762 37.6449 23.537 37.4834 23.0691ZM23.0488 30.396C22.6027 26.7722 22.0798 23.1484 21.2031 19.6119C24.9483 21.5308 28.9164 22.9423 33.0076 23.8145C29.5086 25.7097 26.0711 27.7634 23.0488 30.396Z" fill="#1E1E1E"/>
<path d="M50.042 18.8427C50.1036 23.2991 49.5653 27.7158 48.4271 32.0136C48.0349 33.4965 50.2574 34.1229 50.6496 32.648C51.8416 28.1599 52.4106 23.4973 52.3491 18.8427C52.3261 17.3123 50.0189 17.3043 50.042 18.8427Z" fill="#1E1E1E"/>
<path d="M0.193654 29.6506C0.831942 32.9414 2.20081 36.018 4.1772 38.6903C4.55403 39.1978 5.35382 39.2057 5.80755 38.8092C6.29972 38.3652 6.29972 37.6436 5.92289 37.1282C4.20028 34.8048 3.02367 32.085 2.46228 29.2144C2.17004 27.6999 -0.0908862 28.144 0.193654 29.6506Z" fill="#1E1E1E"/>
</svg>
