<svg width="161" height="162" viewBox="0 0 161 162" fill="none" xmlns="http://www.w3.org/2000/svg">
<path d="M53.2596 58.46C53.1189 57.41 52.7671 56.47 52.2646 55.69C52.1942 53.36 50.7569 51.16 47.9226 51.3C38.3642 51.78 28.8359 51.35 19.368 49.81C16.1819 49.29 14.0611 51.1 13.639 54.43C12.9857 59.7 12.9857 64.88 13.7295 70.14C14.2823 74.05 14.7547 77.99 18.2222 80.11C22.1923 82.54 27.66 82.17 32.0824 82.06C36.6053 81.95 41.8719 82.53 46.2541 81.17C49.6413 80.11 51.762 77.54 52.4656 73.9C53.34 69.38 53.8827 63 53.2596 58.46Z" fill="#F7C300"/>
<path d="M97.8454 54.96C97.0414 50.85 93.9155 50.13 90.448 49.75C85.5532 49.22 80.6082 49.13 75.6933 49.51C72.9795 49.72 70.0849 49.74 68.3059 51.63C66.1449 51.76 64.0343 53.29 63.9438 56.23C63.8232 60.1 63.7026 63.96 63.582 67.83C63.4815 71.02 62.9186 74.52 63.7026 77.64C64.0845 79.16 65.361 80.67 66.8585 80.99C71.2307 81.92 76.3164 80.82 80.7589 80.54C84.93 80.27 90.9103 81.08 94.8 79.26C98.2173 77.66 98.1972 74.32 98.167 70.86C98.1067 65.79 98.8103 59.93 97.8454 54.96Z" fill="#59C69F"/>
<path d="M145.004 57.02C144.351 52 140.642 50.93 136.461 50.22C131.385 49.35 126.249 49.1 121.103 49.07C116.238 49.04 111.364 48.7 107.032 51.39C105.464 52.36 104.228 54.86 104.951 56.8C105.082 57.15 105.202 57.49 105.323 57.83C105.263 58.16 105.202 58.49 105.162 58.82C104.479 64.51 104.459 70.38 104.107 76.1C103.916 79.22 107.152 81.54 109.836 80.72C110.449 80.53 111.072 80.38 111.695 80.21C113.314 80.36 114.942 80.47 116.57 80.37C118.48 80.26 120.631 79.2 122.43 79.21C125.143 79.22 126.943 80.65 129.837 79.38C130.561 79.06 131.224 78.68 131.837 78.24C133.878 78.4 135.918 78.65 137.968 79.04C141.124 79.64 143.315 77.69 143.697 74.42C144.3 69.04 145.708 62.44 145.004 57.02Z" fill="#F7C300"/>
<path d="M143.878 92.76C144.3 90.09 143.014 86.93 139.999 86.83C135.003 86.66 130.018 86.48 125.023 86.31C121.183 86.18 116.359 85.07 112.701 86.82C109.896 88.16 108.489 91.11 108.348 94.56C108.117 100.23 108.409 105.73 107.715 111.39C107.333 114.44 108.74 117.42 111.675 117.46C118.711 117.56 125.535 115.16 132.571 114.97C138.421 114.81 144.059 115.63 144.743 107.01C145.024 103.44 145.959 96.45 143.878 92.76Z" fill="#59C69F"/>
<path d="M94.4281 89.51C93.815 87.22 91.8651 85.46 89.1313 86.47C79.5427 90.03 69.4918 85.03 59.8731 89.69C58.0137 90.59 57.3805 93.18 57.7926 95.1C58.6871 99.26 59.059 103.36 58.8178 107.63C58.667 110.34 58.1243 112.83 59.7023 115.19C63.1899 120.4 72.5372 117.3 77.4823 117.14C81.2514 117.02 85.0204 117.08 88.7895 117.2C91.1515 117.28 93.6039 117.42 95.3729 115.4C97.1921 113.32 96.9709 110.12 97.2122 107.49C97.6243 103.02 98.0363 98.55 98.4585 94.08C98.7198 91.3 96.6493 89.75 94.4281 89.51Z" fill="#F7C300"/>
<path d="M49.8122 89.76C49.1589 88.35 47.8824 87.29 45.9627 87.27C39.6809 87.22 33.4092 87.17 27.1274 87.12C23.3683 87.09 17.5991 85.85 14.8753 89.5C12.2018 93.07 13.7697 100.11 13.8904 104.24C14.011 108.36 12.8853 115.25 16.8956 117.76C20.4938 120.02 26.8962 118.94 30.9065 119.09C33.8012 119.19 36.7461 119.46 39.6407 119.4C40.7162 119.37 41.7313 119.37 42.7665 119.03C43.7113 118.71 44.445 118.12 44.043 118.03C45.2391 117.96 46.3246 118.25 47.5608 117.25C49.1488 115.97 49.4906 114.04 49.8524 112.09C50.9882 105.95 51.3198 99.58 51.36 93.34C51.3701 91.77 50.7469 90.56 49.8122 89.76Z" fill="#59C69F"/>
<path d="M156.854 19.75C153.236 21.43 149.577 22.42 145.889 22.98C145.487 24.95 144.069 26.7 141.647 26.84C124.199 27.78 106.791 29.39 89.4429 31.67C86.6688 32.04 85.2416 30.01 85.1512 27.72C84.4577 27.79 83.7541 27.88 83.0606 27.94C80.6383 28.79 78.2261 29.69 75.834 30.67C73.3012 31.71 71.4317 30.24 70.7181 28.17C69.8336 28.1 68.9491 28.02 68.0647 27.9C63.8232 27.37 61.6421 21.62 65.7831 18.97C68.2054 17.4 70.7181 16.16 73.3012 15.12C71.291 13.52 70.6075 10.39 71.8438 8.02C73.4519 4.97 76.9999 4.59 79.8745 3.97C84.337 3.02 88.7896 2.06 93.2421 1.11C96.7197 0.359999 98.9611 3.51 98.9008 6.35C101.775 6.3 104.65 6.25 107.524 6.2L123.817 5.93C129.305 5.38 134.772 5.16 140.13 5.66C142.642 5.91 144.09 7.77 144.421 9.79C147.808 10.01 151.185 10.34 154.573 10.79C158.382 11.32 161.488 17.59 156.854 19.75Z" fill="#59C69F"/>
<path d="M159.759 138.55C159.628 138.12 159.457 137.73 159.246 137.4C158.201 135.76 156.291 135.48 154.572 135.42L151.688 135.34C151.839 126.31 151.788 117.27 151.819 108.24C151.859 93.54 151.889 78.84 151.909 64.14C151.919 58.26 151.959 52.38 152.16 46.5C152.291 42.87 152.271 37.26 148.22 35.94C144.682 34.79 140.933 35.04 137.285 35.24C133.506 35.45 129.817 34.98 126.048 34.99C122.581 35 119.113 34.89 115.645 34.83L114.962 34.81C108.911 34.7 102.65 34.6 96.4885 34.61C94.3175 34.62 92.1465 34.64 89.9654 34.66H89.5031C85.4928 34.7 81.3518 34.74 77.2913 34.67L76.7184 34.66C73.7433 34.61 70.8487 34.5 67.16 34.35C64.1045 34.23 60.9586 34.16 57.5413 34.14L34.374 33.99C24.9664 33.93 21.0968 34.04 13.5486 34.25L8.21155 34.4C7.6688 34.41 5.83954 34.58 5.24654 36.08C5.04552 36.58 5.02542 37.11 5.01537 37.54C4.94501 39.55 4.95506 41.61 4.96511 43.6V43.95C4.97517 44.93 4.97516 45.92 4.97516 46.9L4.95506 75.35C4.98522 95.99 4.90481 116.49 4.83445 133.83C4.83445 133.87 4.83445 133.93 4.83445 133.99C4.73394 134 4.54298 133.98 4.40227 133.96C3.21626 133.81 2.18102 134.14 1.41715 134.89C0.462319 135.82 -0.0502761 137.39 0.0100292 139.2C0.0502327 140.32 0.140691 141.45 0.271352 142.55C0.331657 143.08 0.422115 143.7 0.743744 144.24C1.20608 145.01 2.09056 145.49 3.22631 145.61C3.80926 145.67 4.38216 145.72 4.96511 145.76C5.61842 145.81 6.27173 145.86 6.92504 145.94C7.51804 146.01 8.12109 146.02 8.69399 145.98L8.82465 145.99C12.0711 146.08 15.3175 146.17 18.564 146.25C24.9262 146.41 31.2984 146.55 38.0526 146.67C46.224 146.82 53.4707 146.93 60.8581 147.02C80.8292 147.27 101.433 147.4 119.626 147.51L121.284 147.52C124.721 147.54 128.43 147.57 132.209 147.57C134.913 147.57 137.647 147.56 140.351 147.52C143.919 147.47 147.105 147.4 150.08 147.28C150.542 147.26 151.045 147.27 151.618 147.27C153.708 147.3 156.573 147.34 158.221 145.9C158.382 145.75 158.533 145.6 158.653 145.44C159.136 144.83 159.357 144.06 159.538 143.39C159.899 142.03 160.251 140.24 159.759 138.55ZM77.7134 37.4C77.8139 37.21 77.9848 37.02 78.2562 36.81L78.4471 36.65C79.1406 36.11 79.5226 35.87 79.995 36.01C80.1558 36.06 80.2965 36.16 80.4573 36.29C80.5377 36.36 80.6181 36.46 80.6885 36.59C80.7689 36.73 80.8292 36.88 80.8593 37.03C80.9096 37.27 80.9096 37.42 80.8995 37.53C80.8895 37.7 80.8694 37.79 80.8292 37.95C80.8191 37.98 80.8091 38.04 80.7387 38.19C80.588 38.54 80.3166 38.85 79.9347 39.1C79.6331 39.29 79.3014 39.4 78.9597 39.4C78.7888 39.39 78.6481 39.36 78.5175 39.31C78.3064 39.23 78.1858 39.16 78.0149 39C77.834 38.84 77.6732 38.56 77.6029 38.28C77.5626 38.15 77.5526 38.03 77.5526 37.97C77.5828 37.75 77.633 37.57 77.7134 37.4ZM7.70901 105.91C7.71906 105.37 7.71906 104.98 7.71906 104.77L7.72911 95.28C7.73916 85.05 7.74921 74.48 7.81957 64.07C7.87987 56.6 7.94018 50.01 8.02058 43.91C8.03063 43.51 8.03063 43.1 8.03063 42.69L8.04068 42.02C8.04068 40.62 8.04068 39.17 8.11104 37.71C18.4735 37.23 20.6646 37.17 30.8059 37.22C40.8066 37.27 50.8172 37.34 60.8179 37.41H60.9184C61.23 38.52 62.024 39.5 63.0793 40.07C64.4462 40.8 65.984 40.78 67.4615 40.76L91.5736 40.67C93.1616 40.66 94.81 40.66 96.2573 39.82C97.0915 39.34 97.7448 38.65 98.167 37.8C106.248 37.91 114.329 38.1 122.42 38.27C130.179 38.43 137.999 38.23 145.758 38.6C146.542 38.64 147.818 38.64 148.321 39.43C148.944 40.28 148.823 41.86 148.874 42.85C148.954 44.56 149.004 46.27 149.014 47.99C149.024 51.42 148.884 54.84 148.602 58.26C148.582 58.48 148.612 58.67 148.653 58.85C148.431 62.03 148.653 65.24 148.653 68.43C148.642 72.21 148.642 75.98 148.642 79.76C148.642 82.87 148.642 85.98 148.632 89.08L148.622 97.32C148.602 108.3 148.592 119.29 148.552 130.27V131.34C148.552 132.64 148.542 133.95 148.532 135.25L145.396 135.16C141.969 135.06 138.541 134.96 135.124 134.88C128.772 134.73 122.219 134.59 115.655 134.47C112.57 134.42 109.484 134.37 106.409 134.32L101.072 134.23C100.549 134.21 100.006 134.19 99.4736 134.21C99.2122 134.22 98.9409 134.2 98.6595 134.17C98.2876 134.14 97.9056 134.11 97.5136 134.16C96.8603 134.24 96.2874 134.54 95.9357 135.01C95.8251 135.17 95.7346 135.35 95.6241 135.57C95.5738 135.67 95.5336 135.77 95.4633 135.88C95.1618 136.39 94.6089 136.76 93.9054 136.94C92.84 137.2 91.664 137.15 90.5283 137.11C90.0559 137.09 89.5835 137.07 89.1413 137.08L70.7281 137.14L69.3008 137.16C68.356 137.17 67.2806 137.18 66.2655 137.15C65.7026 137.13 65.1096 137.09 64.6171 136.87C64.2151 136.68 63.9336 136.36 63.8733 136C63.8532 135.87 63.8532 135.72 63.8532 135.56C63.8633 135.23 63.8834 134.78 63.612 134.44C63.2401 133.95 62.4662 133.85 61.441 133.84L61.1194 133.83C60.6571 133.81 60.1947 133.8 59.7324 133.8C59.5314 133.8 59.3303 133.8 59.1293 133.8H58.8077C58.5966 133.8 58.3856 133.8 58.1644 133.8L53.2697 133.76C50.0232 133.74 46.7768 133.72 43.5304 133.7L34.384 133.64C26.4036 133.59 18.0212 133.66 8.7543 133.85C8.32211 133.03 7.50799 128.55 7.70901 105.91ZM156.874 141.13C156.804 141.8 156.663 142.46 156.462 143.08C156.442 143.15 156.382 143.31 156.301 143.37C156.261 143.4 156.14 143.42 156.08 143.43C153.527 143.8 151.115 144.02 148.713 144.1C146.27 144.18 143.677 144.24 140.582 144.29C135.255 144.36 129.797 144.35 124.701 144.32C114.701 144.26 104.69 144.2 94.6793 144.12C78.2863 144 56.6267 143.81 34.4343 143.38C29.248 143.38 23.6397 143.29 17.2674 143.1C16.0814 143.07 14.8954 143.04 13.6993 143.01C10.2418 142.93 6.68382 142.85 3.13585 142.56C2.92479 141.31 2.96499 139.99 3.01524 138.71C3.02529 138.38 3.0454 138.07 3.13585 137.86C3.25646 137.6 3.54794 137.38 3.90977 137.28C4.63344 137.08 5.50786 137.09 6.36219 137.11C6.73407 137.12 7.0959 137.12 7.43763 137.11C8.66384 137.08 9.9001 137.04 11.1263 137.01C13.6993 136.95 16.2824 136.91 18.8554 136.89C22.6949 136.85 26.7152 136.84 30.7959 136.87C40.7965 136.93 50.8072 136.99 60.8078 137.07H60.9083C61.2199 138.18 62.0139 139.16 63.0693 139.73C64.4362 140.47 66.0343 140.44 67.4716 140.42C67.6826 140.41 67.8937 140.41 68.1048 140.41H68.1249L91.5635 140.32C93.1516 140.31 94.7999 140.31 96.2472 139.46C97.0815 138.98 97.7348 138.29 98.1569 137.45C106.469 137.56 113.746 137.67 121.033 137.82L123.716 137.87C128.712 137.98 133.717 138.09 138.712 138.21C141.687 138.28 144.662 138.37 147.647 138.45L152.1 138.58C152.482 138.6 152.854 138.59 153.276 138.59C154.291 138.59 155.346 138.58 156.321 138.91C156.532 138.98 156.653 139.05 156.723 139.13C156.804 139.23 156.844 139.39 156.864 139.68C156.924 140.15 156.914 140.64 156.874 141.13Z" fill="#1E1E1E"/>
<path d="M53.541 53.17C53.5209 52.16 53.6214 50.99 53.0184 50.13C52.3751 49.21 51.3298 49.11 50.3348 49.02C49.1086 48.9 47.8723 48.83 46.6461 48.81C44.0228 48.75 41.4096 48.91 38.8064 49.25C38.4948 49.29 38.2436 49.42 38.0425 49.59C33.3789 49.45 28.7153 49.45 24.0417 49.6C21.7501 49.67 19.4384 49.72 17.1568 49.93C15.1366 50.11 14.1918 51.28 14.0913 53.4C13.8601 58.24 13.8501 63.11 13.7295 67.96L13.5385 75.49C13.4882 77.47 13.1767 79.71 14.7144 81.18C15.8803 82.29 17.5588 82.45 19.0464 82.45C21.4184 82.46 23.8004 82.38 26.1725 82.3C30.7657 82.15 35.359 81.89 39.9422 81.53C42.3142 81.34 44.6761 81.13 47.0481 80.89C48.1537 80.78 49.2593 80.67 50.3549 80.53C51.2393 80.42 52.0736 80.2 52.5862 79.36C53.0686 78.57 53.0787 77.65 53.1289 76.74C53.1993 75.49 53.2596 74.24 53.3098 72.98C53.4204 70.48 53.4907 67.97 53.541 65.46C53.5913 62.79 53.6013 60.11 53.5812 57.44C53.5913 56.01 53.5712 54.59 53.541 53.17ZM50.7167 63.45C50.6665 67.63 50.5358 71.81 50.3147 75.98C50.2946 76.37 50.1438 77.06 50.2242 77.45C50.1539 77.45 50.0533 77.47 49.8925 77.53C49.2191 77.4 48.2341 77.71 47.5306 77.79C45.4802 78 43.4298 78.2 41.3794 78.37C37.4294 78.7 33.4794 78.95 29.5194 79.13C27.6198 79.21 25.7202 79.28 23.8205 79.33C21.9511 79.38 20.0113 79.56 18.1418 79.38C17.6895 79.34 16.996 79.29 16.6543 78.93C16.1316 78.39 16.3829 77.19 16.403 76.5C16.4532 74.49 16.5035 72.48 16.5538 70.47C16.6543 66.29 16.7648 62.1 16.8653 57.92C16.8955 56.75 16.9256 55.58 16.9558 54.4C16.9658 54.16 16.8553 53.23 16.996 53.04C17.0865 52.92 17.8403 52.93 18.1217 52.92C20.3329 52.79 22.5541 52.69 24.7653 52.63C29.1978 52.5 33.6302 52.51 38.0626 52.65C38.4747 52.66 38.7863 52.52 39.0175 52.29C40.7864 52.07 42.5554 51.92 44.3344 51.88C45.2591 51.86 46.1838 51.86 47.1084 51.89C48.1336 51.92 49.3297 52.22 50.3348 52.09C50.4152 52.1 50.5056 52.11 50.586 52.12C50.5961 52.2 50.6162 52.31 50.6463 52.45C50.576 52.9 50.6665 53.49 50.6765 53.95C50.6966 54.95 50.7067 55.96 50.7167 56.96C50.7469 59.1 50.7469 61.28 50.7167 63.45Z" fill="#1E1E1E"/>
<path d="M59.0792 78.06C59.0993 79.07 58.9988 80.24 59.6019 81.1C60.2451 82.02 61.2904 82.12 62.2854 82.21C63.5116 82.33 64.7479 82.4 65.9741 82.42C68.5974 82.48 71.2106 82.32 73.8138 81.98C74.1254 81.94 74.3766 81.81 74.5777 81.64C79.2413 81.78 83.9049 81.78 88.5785 81.63C90.8701 81.56 93.1819 81.51 95.4634 81.3C97.4836 81.12 98.4284 79.95 98.5289 77.83C98.7601 72.99 98.7701 68.12 98.8907 63.27L99.0817 55.74C99.132 53.76 99.4435 51.52 97.9058 50.05C96.7399 48.94 95.0614 48.78 93.5738 48.78C91.2018 48.77 88.8198 48.85 86.4478 48.93C81.8545 49.08 77.2612 49.34 72.678 49.7C70.306 49.89 67.9441 50.1 65.5721 50.34C64.4665 50.45 63.3609 50.56 62.2653 50.7C61.3809 50.81 60.5466 51.03 60.034 51.87C59.5516 52.66 59.5415 53.58 59.4913 54.49C59.4209 55.74 59.3606 56.99 59.3104 58.25C59.1998 60.75 59.1295 63.26 59.0792 65.77C59.029 68.44 59.0189 71.12 59.039 73.79C59.0189 75.22 59.0491 76.64 59.0792 78.06ZM61.8935 67.78C61.9437 63.6 62.0744 59.42 62.2955 55.25C62.3156 54.86 62.4664 54.17 62.3859 53.78C62.4563 53.78 62.5568 53.76 62.7176 53.7C63.391 53.83 64.376 53.52 65.0796 53.44C67.13 53.23 69.1803 53.03 71.2307 52.86C75.1807 52.53 79.1307 52.28 83.0908 52.1C84.9904 52.02 86.89 51.95 88.7896 51.9C90.6591 51.85 92.5989 51.67 94.4684 51.85C94.9206 51.89 95.6142 51.94 95.9559 52.3C96.4785 52.84 96.2273 54.04 96.2072 54.73C96.1569 56.74 96.1067 58.75 96.0564 60.76C95.9559 64.94 95.8453 69.13 95.7448 73.31C95.7147 74.48 95.6845 75.65 95.6544 76.83C95.6443 77.07 95.7549 78 95.6142 78.19C95.5237 78.31 94.7699 78.3 94.4885 78.31C92.2773 78.44 90.056 78.54 87.8448 78.6C83.4124 78.73 78.9799 78.72 74.5475 78.58C74.1354 78.57 73.8238 78.71 73.5927 78.94C71.8237 79.16 70.0548 79.31 68.2758 79.35C67.3511 79.37 66.4264 79.37 65.5017 79.34C64.4765 79.31 63.2805 79.01 62.2754 79.14C62.195 79.13 62.1045 79.12 62.0241 79.11C62.0141 79.03 61.994 78.92 61.9638 78.78C62.0342 78.33 61.9437 77.74 61.9337 77.28C61.9136 76.28 61.9035 75.27 61.8935 74.27C61.8734 72.13 61.8734 69.96 61.8935 67.78Z" fill="#1E1E1E"/>
<path d="M142.622 53.17C142.602 52.16 142.702 50.99 142.099 50.13C141.456 49.21 140.411 49.11 139.416 49.02C138.19 48.9 136.953 48.83 135.727 48.81C133.104 48.75 130.491 48.91 127.887 49.25C127.576 49.29 127.325 49.42 127.123 49.59C122.46 49.45 117.796 49.45 113.123 49.6C110.831 49.67 108.519 49.72 106.238 49.93C104.218 50.11 103.273 51.28 103.172 53.4C102.941 58.24 102.931 63.11 102.81 67.96L102.619 75.49C102.569 77.47 102.258 79.71 103.795 81.18C104.961 82.29 106.64 82.45 108.127 82.45C110.499 82.46 112.881 82.38 115.253 82.3C119.847 82.15 124.44 81.89 129.023 81.53C131.395 81.34 133.757 81.13 136.129 80.89C137.235 80.78 138.34 80.67 139.436 80.53C140.32 80.42 141.155 80.2 141.667 79.36C142.15 78.57 142.16 77.65 142.21 76.74C142.28 75.49 142.341 74.24 142.391 72.98C142.501 70.48 142.572 67.97 142.622 65.46C142.672 62.79 142.682 60.11 142.662 57.44C142.682 56.01 142.652 54.59 142.622 53.17ZM139.798 63.45C139.747 67.63 139.617 71.81 139.396 75.98C139.376 76.37 139.225 77.06 139.305 77.45C139.235 77.45 139.134 77.47 138.973 77.53C138.3 77.4 137.315 77.71 136.612 77.79C134.561 78 132.511 78.2 130.46 78.37C126.51 78.7 122.56 78.95 118.6 79.13C116.701 79.21 114.801 79.28 112.901 79.33C111.032 79.38 109.092 79.56 107.223 79.38C106.77 79.34 106.077 79.29 105.735 78.93C105.213 78.39 105.464 77.19 105.484 76.5C105.534 74.49 105.584 72.48 105.635 70.47C105.735 66.29 105.846 62.1 105.946 57.92C105.976 56.75 106.007 55.58 106.037 54.4C106.047 54.16 105.936 53.23 106.077 53.04C106.167 52.92 106.921 52.93 107.203 52.92C109.414 52.79 111.635 52.69 113.846 52.63C118.279 52.5 122.711 52.51 127.144 52.65C127.556 52.66 127.867 52.52 128.098 52.29C129.867 52.07 131.636 51.92 133.415 51.88C134.34 51.86 135.265 51.86 136.189 51.89C137.215 51.92 138.411 52.22 139.416 52.09C139.496 52.1 139.587 52.11 139.667 52.12C139.677 52.2 139.697 52.31 139.727 52.45C139.657 52.9 139.747 53.49 139.757 53.95C139.778 54.95 139.788 55.96 139.798 56.96C139.828 59.1 139.828 61.28 139.798 63.45Z" fill="#1E1E1E"/>
<path d="M53.541 89.91C53.5209 88.9 53.6214 87.73 53.0184 86.87C52.3751 85.95 51.3298 85.85 50.3348 85.76C49.1086 85.64 47.8723 85.57 46.6461 85.55C44.0228 85.49 41.4096 85.65 38.8064 85.99C38.4948 86.03 38.2436 86.16 38.0425 86.33C33.3789 86.19 28.7153 86.19 24.0417 86.34C21.7501 86.41 19.4384 86.46 17.1568 86.67C15.1366 86.85 14.1918 88.02 14.0913 90.14C13.8601 94.98 13.8501 99.85 13.7295 104.7L13.5385 112.23C13.4882 114.21 13.1767 116.45 14.7144 117.92C15.8803 119.03 17.5588 119.19 19.0464 119.19C21.4184 119.2 23.8004 119.12 26.1725 119.04C30.7657 118.89 35.359 118.63 39.9422 118.27C42.3142 118.08 44.6761 117.87 47.0481 117.63C48.1537 117.52 49.2593 117.41 50.3549 117.27C51.2393 117.16 52.0736 116.94 52.5862 116.1C53.0686 115.31 53.0787 114.39 53.1289 113.48C53.1993 112.23 53.2596 110.98 53.3098 109.72C53.4204 107.22 53.4907 104.71 53.541 102.2C53.5913 99.53 53.6013 96.85 53.5812 94.18C53.5913 92.75 53.5712 91.33 53.541 89.91ZM50.7167 100.19C50.6665 104.37 50.5358 108.55 50.3147 112.72C50.2946 113.11 50.1438 113.8 50.2242 114.19C50.1539 114.19 50.0533 114.21 49.8925 114.27C49.2191 114.14 48.2341 114.45 47.5306 114.53C45.4802 114.74 43.4298 114.94 41.3794 115.11C37.4294 115.44 33.4794 115.69 29.5194 115.87C27.6198 115.95 25.7202 116.02 23.8205 116.07C21.9511 116.12 20.0113 116.3 18.1418 116.12C17.6895 116.08 16.996 116.03 16.6543 115.67C16.1316 115.13 16.3829 113.93 16.403 113.24C16.4532 111.23 16.5035 109.22 16.5538 107.21C16.6543 103.03 16.7648 98.84 16.8653 94.66C16.8955 93.49 16.9256 92.32 16.9558 91.14C16.9658 90.9 16.8553 89.97 16.996 89.78C17.0865 89.66 17.8403 89.67 18.1217 89.66C20.3329 89.53 22.5541 89.43 24.7653 89.37C29.1978 89.24 33.6302 89.25 38.0626 89.39C38.4747 89.4 38.7863 89.26 39.0175 89.03C40.7864 88.81 42.5554 88.66 44.3344 88.62C45.2591 88.6 46.1838 88.6 47.1084 88.63C48.1336 88.66 49.3297 88.96 50.3348 88.83C50.4152 88.84 50.5056 88.85 50.586 88.86C50.5961 88.94 50.6162 89.05 50.6463 89.19C50.576 89.64 50.6665 90.23 50.6765 90.69C50.6966 91.69 50.7067 92.7 50.7167 93.7C50.7469 95.84 50.7469 98.01 50.7167 100.19Z" fill="#1E1E1E"/>
<path d="M59.0792 114.8C59.0993 115.81 58.9988 116.98 59.6019 117.84C60.2451 118.76 61.2904 118.86 62.2854 118.95C63.5116 119.07 64.7479 119.14 65.9741 119.16C68.5974 119.22 71.2106 119.06 73.8138 118.72C74.1254 118.68 74.3766 118.55 74.5777 118.38C79.2413 118.52 83.9049 118.52 88.5785 118.37C90.8701 118.3 93.1819 118.25 95.4634 118.04C97.4836 117.86 98.4284 116.69 98.5289 114.57C98.7601 109.73 98.7701 104.86 98.8907 100.01L99.0817 92.48C99.132 90.5 99.4435 88.26 97.9058 86.79C96.7399 85.68 95.0614 85.52 93.5738 85.52C91.2018 85.51 88.8198 85.59 86.4478 85.67C81.8545 85.82 77.2612 86.08 72.678 86.44C70.306 86.63 67.9441 86.84 65.5721 87.08C64.4665 87.19 63.3609 87.3 62.2653 87.44C61.3809 87.55 60.5466 87.77 60.034 88.61C59.5516 89.4 59.5415 90.32 59.4913 91.23C59.4209 92.48 59.3606 93.73 59.3104 94.99C59.1998 97.49 59.1295 100 59.0792 102.51C59.029 105.18 59.0189 107.86 59.039 110.53C59.0189 111.96 59.0491 113.38 59.0792 114.8ZM61.8935 104.52C61.9437 100.34 62.0744 96.16 62.2955 91.99C62.3156 91.6 62.4664 90.91 62.3859 90.52C62.4563 90.52 62.5568 90.5 62.7176 90.44C63.391 90.57 64.376 90.26 65.0796 90.18C67.13 89.97 69.1803 89.77 71.2307 89.6C75.1807 89.27 79.1307 89.02 83.0908 88.84C84.9904 88.76 86.89 88.69 88.7896 88.64C90.6591 88.59 92.5989 88.41 94.4684 88.59C94.9206 88.63 95.6142 88.68 95.9559 89.04C96.4785 89.58 96.2273 90.78 96.2072 91.47C96.1569 93.48 96.1067 95.49 96.0564 97.5C95.9559 101.68 95.8453 105.87 95.7448 110.05C95.7147 111.22 95.6845 112.39 95.6544 113.57C95.6443 113.81 95.7549 114.74 95.6142 114.93C95.5237 115.05 94.7699 115.04 94.4885 115.05C92.2773 115.18 90.056 115.28 87.8448 115.34C83.4124 115.47 78.9799 115.46 74.5475 115.32C74.1354 115.31 73.8238 115.45 73.5927 115.68C71.8237 115.9 70.0548 116.05 68.2758 116.09C67.3511 116.11 66.4264 116.11 65.5017 116.08C64.4765 116.05 63.2805 115.75 62.2754 115.88C62.195 115.87 62.1045 115.86 62.0241 115.85C62.0141 115.77 61.994 115.66 61.9638 115.52C62.0342 115.07 61.9437 114.48 61.9337 114.02C61.9136 113.02 61.9035 112.01 61.8935 111.01C61.8734 108.87 61.8734 106.69 61.8935 104.52Z" fill="#1E1E1E"/>
<path d="M142.622 89.91C142.602 88.9 142.702 87.73 142.099 86.87C141.456 85.95 140.411 85.85 139.416 85.76C138.19 85.64 136.953 85.57 135.727 85.55C133.104 85.49 130.491 85.65 127.887 85.99C127.576 86.03 127.325 86.16 127.123 86.33C122.46 86.19 117.796 86.19 113.123 86.34C110.831 86.41 108.519 86.46 106.238 86.67C104.218 86.85 103.273 88.02 103.172 90.14C102.941 94.98 102.931 99.85 102.81 104.7L102.619 112.23C102.569 114.21 102.258 116.45 103.795 117.92C104.961 119.03 106.64 119.19 108.127 119.19C110.499 119.2 112.881 119.12 115.253 119.04C119.847 118.89 124.44 118.63 129.023 118.27C131.395 118.08 133.757 117.87 136.129 117.63C137.235 117.52 138.34 117.41 139.436 117.27C140.32 117.16 141.155 116.94 141.667 116.1C142.15 115.31 142.16 114.39 142.21 113.48C142.28 112.23 142.341 110.98 142.391 109.72C142.501 107.22 142.572 104.71 142.622 102.2C142.672 99.53 142.682 96.85 142.662 94.18C142.682 92.75 142.652 91.33 142.622 89.91ZM139.798 100.19C139.747 104.37 139.617 108.55 139.396 112.72C139.376 113.11 139.225 113.8 139.305 114.19C139.235 114.19 139.134 114.21 138.973 114.27C138.3 114.14 137.315 114.45 136.612 114.53C134.561 114.74 132.511 114.94 130.46 115.11C126.51 115.44 122.56 115.69 118.6 115.87C116.701 115.95 114.801 116.02 112.901 116.07C111.032 116.12 109.092 116.3 107.223 116.12C106.77 116.08 106.077 116.03 105.735 115.67C105.213 115.13 105.464 113.93 105.484 113.24C105.534 111.23 105.584 109.22 105.635 107.21C105.735 103.03 105.846 98.84 105.946 94.66C105.976 93.49 106.007 92.32 106.037 91.14C106.047 90.9 105.936 89.97 106.077 89.78C106.167 89.66 106.921 89.67 107.203 89.66C109.414 89.53 111.635 89.43 113.846 89.37C118.279 89.24 122.711 89.25 127.144 89.39C127.556 89.4 127.867 89.26 128.098 89.03C129.867 88.81 131.636 88.66 133.415 88.62C134.34 88.6 135.265 88.6 136.189 88.63C137.215 88.66 138.411 88.96 139.416 88.83C139.496 88.84 139.587 88.85 139.667 88.86C139.677 88.94 139.697 89.05 139.727 89.19C139.657 89.64 139.747 90.23 139.757 90.69C139.778 91.69 139.788 92.7 139.798 93.7C139.828 95.84 139.828 98.01 139.798 100.19Z" fill="#1E1E1E"/>
<path d="M42.9273 59.47C42.1634 59 41.3493 59.34 40.8668 60.04C39.4999 62.02 38.133 64 36.7661 65.97C36.0927 66.94 35.4293 67.91 34.7559 68.88C34.4242 69.36 34.0825 69.85 33.7508 70.33C33.6704 70.45 33.59 70.57 33.5096 70.7C33.2784 70.49 33.0473 70.28 32.8261 70.07C32.3738 69.64 31.9316 69.2 31.5095 68.75C30.5948 67.78 29.7305 66.76 28.9163 65.69C28.4037 65.02 27.3182 65.13 26.7856 65.69C26.1624 66.35 26.273 67.28 26.7856 67.95C28.0017 69.55 29.3385 71.05 30.7959 72.42C31.5095 73.09 32.3839 74.11 33.3387 74.34C34.6152 74.64 35.2987 73.5 35.9419 72.56C38.4546 68.93 40.9674 65.29 43.47 61.66C43.9525 60.96 43.5806 59.87 42.9273 59.47Z" fill="#1E1E1E"/>
<path d="M87.1411 59.47C86.3773 59 85.5632 59.34 85.0807 60.04C83.7138 62.02 82.3469 64 80.9799 65.97C80.3065 66.94 79.6432 67.91 78.9698 68.88C78.6381 69.36 78.2964 69.85 77.9647 70.33C77.8843 70.45 77.8039 70.57 77.7235 70.7C77.4923 70.49 77.2611 70.28 77.04 70.07C76.5877 69.64 76.1455 69.2 75.7233 68.75C74.8087 67.78 73.9443 66.76 73.1302 65.69C72.6176 65.02 71.5321 65.13 70.9994 65.69C70.3763 66.35 70.4868 67.28 70.9994 67.95C72.2156 69.55 73.5523 71.05 75.0097 72.42C75.7233 73.09 76.5978 74.11 77.5526 74.34C78.8291 74.64 79.5125 73.5 80.1558 72.56C82.6685 68.93 85.1812 65.29 87.6839 61.66C88.1663 60.96 87.7944 59.87 87.1411 59.47Z" fill="#1E1E1E"/>
<path d="M131.355 59.47C130.591 59 129.777 59.34 129.295 60.04C127.928 62.02 126.561 64 125.194 65.97C124.52 66.94 123.857 67.91 123.184 68.88C122.852 69.36 122.51 69.85 122.179 70.33C122.098 70.45 122.018 70.57 121.937 70.7C121.706 70.49 121.475 70.28 121.254 70.07C120.802 69.64 120.359 69.2 119.937 68.75C119.023 67.78 118.158 66.76 117.344 65.69C116.831 65.02 115.746 65.13 115.213 65.69C114.59 66.35 114.701 67.28 115.213 67.95C116.429 69.55 117.766 71.05 119.224 72.42C119.937 73.09 120.812 74.11 121.766 74.34C123.043 74.64 123.726 73.5 124.37 72.56C126.882 68.93 129.395 65.29 131.898 61.66C132.38 60.96 132.008 59.87 131.355 59.47Z" fill="#1E1E1E"/>
<path d="M42.9273 95.03C42.1634 94.56 41.3493 94.9 40.8668 95.6C39.4999 97.58 38.133 99.56 36.7661 101.53C36.0927 102.5 35.4293 103.47 34.7559 104.44C34.4242 104.92 34.0825 105.41 33.7508 105.89C33.6704 106.01 33.59 106.13 33.5096 106.26C33.2784 106.05 33.0473 105.84 32.8261 105.63C32.3738 105.2 31.9316 104.76 31.5095 104.31C30.5948 103.34 29.7305 102.32 28.9163 101.25C28.4037 100.58 27.3182 100.69 26.7856 101.25C26.1624 101.91 26.273 102.84 26.7856 103.51C28.0017 105.11 29.3385 106.61 30.7959 107.98C31.5095 108.65 32.3839 109.67 33.3387 109.9C34.6152 110.2 35.2987 109.06 35.9419 108.12C38.4546 104.49 40.9674 100.85 43.47 97.22C43.9525 96.52 43.5806 95.43 42.9273 95.03Z" fill="#1E1E1E"/>
<path d="M87.1411 95.03C86.3773 94.56 85.5632 94.9 85.0807 95.6C83.7138 97.58 82.3469 99.56 80.9799 101.53C80.3065 102.5 79.6432 103.47 78.9698 104.44C78.6381 104.92 78.2964 105.41 77.9647 105.89C77.8843 106.01 77.8039 106.13 77.7235 106.26C77.4923 106.05 77.2611 105.84 77.04 105.63C76.5877 105.2 76.1455 104.76 75.7233 104.31C74.8087 103.34 73.9443 102.32 73.1302 101.25C72.6176 100.58 71.5321 100.69 70.9994 101.25C70.3763 101.91 70.4868 102.84 70.9994 103.51C72.2156 105.11 73.5523 106.61 75.0097 107.98C75.7233 108.65 76.5978 109.67 77.5526 109.9C78.8291 110.2 79.5125 109.06 80.1558 108.12C82.6685 104.49 85.1812 100.85 87.6839 97.22C88.1663 96.52 87.7944 95.43 87.1411 95.03Z" fill="#1E1E1E"/>
<path d="M131.355 95.03C130.591 94.56 129.777 94.9 129.295 95.6C127.928 97.58 126.561 99.56 125.194 101.53C124.52 102.5 123.857 103.47 123.184 104.44C122.852 104.92 122.51 105.41 122.179 105.89C122.098 106.01 122.018 106.13 121.937 106.26C121.706 106.05 121.475 105.84 121.254 105.63C120.802 105.2 120.359 104.76 119.937 104.31C119.023 103.34 118.158 102.32 117.344 101.25C116.831 100.58 115.746 100.69 115.213 101.25C114.59 101.91 114.701 102.84 115.213 103.51C116.429 105.11 117.766 106.61 119.224 107.98C119.937 108.65 120.812 109.67 121.766 109.9C123.043 110.2 123.726 109.06 124.37 108.12C126.882 104.49 129.395 100.85 131.898 97.22C132.38 96.52 132.008 95.43 131.355 95.03Z" fill="#1E1E1E"/>
<path d="M141.929 150.56C121.807 151.34 101.665 151.52 81.5428 151.1C75.8842 150.98 70.2356 150.81 64.5769 150.6C62.6371 150.53 62.5969 153.72 64.5367 153.8C84.6586 154.56 104.801 154.73 124.922 154.29C130.581 154.17 136.23 153.99 141.888 153.77C143.818 153.68 143.868 150.48 141.929 150.56Z" fill="#F7C300"/>
<path d="M73.4718 157.8C63.6823 157.39 53.9028 156.93 44.1132 156.42C42.1734 156.32 42.1834 159.52 44.1132 159.62C53.8927 160.13 63.6823 160.59 73.4718 161C75.4116 161.08 75.4116 157.88 73.4718 157.8Z" fill="#1E1E1E"/>
<path d="M78.6282 27.27C78.4874 27.78 78.3065 28.24 78.0754 28.64C77.8442 29.04 77.613 29.28 77.3517 29.34C76.8089 29.49 76.4069 29.4 76.1154 29.07C75.834 28.74 75.7234 28.32 75.7737 27.81C76.0049 26.01 76.3667 24.11 76.8793 22.11C77.3919 20.11 77.9849 18.12 78.6684 16.12C79.3518 14.12 80.0956 12.19 80.8997 10.31C81.7037 8.43001 82.5379 6.73001 83.3822 5.20001C83.5229 4.96001 83.6837 4.82001 83.8747 4.77001C84.0556 4.73001 84.2164 4.73001 84.3672 4.79001C84.5079 4.67001 84.6788 4.57001 84.8798 4.48001C85.0808 4.39001 85.2718 4.35001 85.4728 4.35001C85.5532 4.35001 85.6537 4.37001 85.7542 4.39001C85.8547 4.42001 85.9552 4.51001 86.0759 4.66001C86.1864 4.81001 86.3271 5.03001 86.4779 5.31001C86.6387 5.60001 86.8297 6.01001 87.0508 6.55001C87.4428 8.08001 87.9051 9.66001 88.4278 11.28C88.9504 12.9 89.4932 14.52 90.0661 16.15C90.1465 16.12 90.2269 16.1 90.2972 16.08C90.3676 16.06 90.448 16.04 90.5284 16.01C90.84 15.98 91.1918 15.99 91.5938 16.05C91.9858 16.11 92.2571 16.32 92.3979 16.68C92.5687 17.13 92.5386 17.52 92.3175 17.85C92.0863 18.18 91.6843 18.51 91.0812 18.84C91.4531 19.8 91.8149 20.74 92.1868 21.66C92.5587 22.58 92.9406 23.47 93.3326 24.34C93.3627 24.49 93.4029 24.72 93.4633 25.04C93.5236 25.35 93.5537 25.67 93.5738 25.99C93.5839 26.3 93.5638 26.6 93.5135 26.87C93.4532 27.14 93.3426 27.32 93.1718 27.41C92.9708 27.5 92.7697 27.49 92.5587 27.37C92.3476 27.25 92.1365 27.09 91.9456 26.9C91.7446 26.7 91.5737 26.5 91.4129 26.27C91.2521 26.05 91.1314 25.84 91.051 25.66C90.5686 24.67 90.1063 23.67 89.6741 22.66C89.2318 21.65 88.8197 20.64 88.4177 19.62C87.2317 19.86 85.9351 20.07 84.528 20.25C83.1309 20.43 81.7439 20.55 80.3871 20.61C80.0755 21.75 79.774 22.87 79.4724 23.97C79.1609 25.05 78.8794 26.16 78.6282 27.27ZM84.6687 8.34001C83.3621 11.43 82.2264 14.53 81.2715 17.62C83.1712 17.56 85.1914 17.3 87.3523 16.85C86.3171 14.13 85.4326 11.29 84.6687 8.34001Z" fill="#1E1E1E"/>
<path d="M110.761 10.33C110.871 10.87 110.992 11.51 111.103 12.24C111.213 12.98 111.294 13.74 111.334 14.54C111.374 15.34 111.384 16.15 111.354 17C111.324 17.84 111.243 18.65 111.103 19.43C110.932 20.33 110.59 21.16 110.087 21.91C109.575 22.66 108.952 23.34 108.218 23.94C107.514 24.54 106.72 25.03 105.856 25.41C104.992 25.79 104.127 26.06 103.263 26.22C102.399 26.39 101.544 26.42 100.71 26.31C99.8758 26.21 99.132 25.96 98.4787 25.57C97.745 25.12 97.152 24.53 96.6896 23.81C96.2373 23.09 96.0363 22.2 96.0966 21.15C96.1569 20.13 96.2373 19.19 96.3479 18.33C96.4585 17.47 96.6092 16.66 96.7901 15.87C96.9711 15.09 97.1821 14.3 97.4033 13.5C97.6344 12.7 97.8756 11.87 98.1269 11C98.2676 10.61 98.5189 10.38 98.8908 10.32C99.0315 10.29 99.2024 10.29 99.4034 10.32C99.4938 10.32 99.6144 10.37 99.7652 10.48C99.926 10.59 100.067 10.73 100.207 10.91C100.348 11.09 100.469 11.3 100.569 11.54C100.67 11.78 100.68 12.05 100.589 12.35C100.338 13.31 100.077 14.29 99.8255 15.28C99.5742 16.27 99.3531 17.22 99.1622 18.12C98.9812 19.02 98.8606 19.83 98.8204 20.53C98.7802 21.24 98.8405 21.78 99.0114 22.18C99.3833 22.75 99.8858 23.12 100.519 23.28C101.152 23.45 101.826 23.47 102.539 23.35C103.243 23.23 103.936 23.03 104.6 22.74C105.263 22.45 105.836 22.15 106.318 21.82C107.082 21.28 107.645 20.6 107.997 19.79C108.349 18.98 108.57 18.09 108.66 17.13C108.741 16.17 108.741 15.16 108.64 14.11C108.54 13.06 108.409 12.02 108.238 11C108.178 10.73 108.198 10.38 108.278 9.96001C108.359 9.54001 108.59 9.21001 108.962 8.97001C109.354 8.73001 109.716 8.76001 110.047 9.06001C110.379 9.37001 110.62 9.79001 110.761 10.33Z" fill="#1E1E1E"/>
<path d="M132.179 9.29001C129.264 9.14001 126.46 9.38001 123.767 10.01C121.073 10.64 118.409 11.5 115.776 12.58C115.093 12.85 114.58 12.82 114.228 12.49C113.876 12.16 113.696 11.83 113.696 11.5C113.897 10.93 114.248 10.46 114.761 10.1C120.57 7.10001 126.38 5.99001 132.189 6.77001C132.471 6.86001 132.702 7.08001 132.893 7.42001C133.074 7.77001 133.144 8.06001 133.084 8.30001C133.023 8.60001 132.943 8.85001 132.832 9.04001C132.702 9.24001 132.491 9.32001 132.179 9.29001ZM126.149 25.02C126.149 25.35 126.038 25.64 125.827 25.9C125.616 26.16 125.355 26.31 125.043 26.37C124.48 26.46 124.108 26.36 123.937 26.06C123.767 25.76 123.666 25.41 123.636 25.02C123.606 22.92 123.576 20.82 123.525 18.73C123.485 16.64 123.395 14.55 123.254 12.45C123.254 12.33 123.244 12.19 123.214 12.02C123.184 11.86 123.184 11.69 123.214 11.53C123.244 11.37 123.304 11.22 123.405 11.1C123.505 10.98 123.666 10.89 123.897 10.83C124.551 10.71 125.013 10.82 125.304 11.17C125.586 11.52 125.726 11.85 125.726 12.18C125.958 14.34 126.098 16.49 126.149 18.62C126.199 20.75 126.199 22.88 126.149 25.02Z" fill="#1E1E1E"/>
<path d="M150.623 17.72C150.452 18.56 150.15 19.36 149.708 20.13C149.266 20.9 148.763 21.61 148.2 22.27C147.638 22.93 147.014 23.5 146.351 23.98C145.688 24.46 145.014 24.83 144.331 25.11C143.085 25.59 141.848 25.75 140.612 25.58C139.376 25.42 138.28 24.82 137.315 23.8C136.662 22.96 136.2 22.01 135.938 20.96C135.667 19.91 135.536 18.84 135.556 17.74C135.567 16.64 135.707 15.59 135.979 14.56C136.25 13.54 136.592 12.62 137.024 11.81C137.536 10.85 138.14 10.05 138.853 9.42C139.557 8.79 140.341 8.41 141.195 8.29C141.426 8.23 141.607 8.29 141.748 8.47C141.889 8.65 141.959 8.86 141.959 9.1C142.24 8.8 142.683 8.57 143.276 8.42C143.869 8.27 144.532 8.26 145.276 8.38C146.633 8.56 147.708 9 148.502 9.69C149.296 10.38 149.879 11.19 150.261 12.1C150.643 13.02 150.844 13.98 150.854 14.98C150.874 16 150.794 16.9 150.623 17.72ZM141.356 11.5C140.793 11.77 140.311 12.17 139.929 12.69C139.547 13.22 139.235 13.81 138.994 14.47C138.753 15.13 138.602 15.84 138.532 16.61C138.461 17.38 138.451 18.12 138.511 18.84C138.592 19.89 138.893 20.76 139.406 21.43C139.919 22.11 140.713 22.44 141.788 22.44C142.411 22.44 143.024 22.31 143.637 22.06C144.25 21.81 144.803 21.47 145.316 21.05C145.828 20.63 146.291 20.13 146.713 19.54C147.135 18.96 147.477 18.35 147.738 17.72C147.879 17.39 147.989 16.98 148.08 16.48C148.17 15.98 148.19 15.47 148.16 14.95C148.13 14.43 148.02 13.92 147.819 13.44C147.618 12.96 147.306 12.55 146.884 12.22C146.291 11.77 145.577 11.5 144.753 11.41C143.929 11.32 143.064 11.52 142.16 12C141.989 12.12 141.798 12.14 141.587 12.07C141.386 11.99 141.306 11.8 141.356 11.5Z" fill="#1E1E1E"/>
</svg>
