<svg width="163" height="161" viewBox="0 0 163 161" fill="none" xmlns="http://www.w3.org/2000/svg">
<path d="M80.5499 149.25C64.9899 150.16 49.3599 149.05 33.8099 148.37C31.2699 148.26 31.2699 152.33 33.8099 152.44C49.3599 153.12 64.9899 154.23 80.5499 153.32C83.0799 153.17 83.0999 149.1 80.5499 149.25Z" fill="#59C69F"/>
<path d="M73.1299 65.94C63.8999 65.51 54.2899 66.35 45.0799 67.15C40.5199 67.54 36.0099 68.3 31.4699 68.78C27.2099 69.23 22.8499 68.86 18.6499 69.74C14.5199 70.61 14.2999 77.73 18.6499 78.43C20.0799 78.66 22.6699 79.3 24.8299 79.37C23.3999 81.83 23.7699 85.72 27.1599 86.34C33.5999 87.52 40.4399 87.53 46.9599 87.11C53.1399 86.71 58.8399 84.84 64.8799 83.69C68.4399 83.01 68.7899 79.27 67.1299 76.9C67.4399 76.81 67.7399 76.72 68.0499 76.64C70.5599 75.97 73.2499 75.99 75.3699 74.33C78.7699 71.69 77.8599 66.16 73.1299 65.94Z" fill="#59C69F"/>
<path d="M114.45 60.35C113.98 60.34 113.52 60.31 113.06 60.28C112.87 60.26 112.76 60.25 112.68 60.24C112.51 60.21 112.34 60.18 112.17 60.15C111.95 60.1 111.72 59.97 111.63 59.92C111.59 59.89 111.56 59.86 111.52 59.83C111.28 59.63 111.05 59.43 110.81 59.23C109.04 57.71 106.24 57.34 104.52 59.23C103 60.9 102.62 63.98 104.52 65.6C106.01 66.88 107.42 68.16 109.34 68.73C110.96 69.21 112.77 69.32 114.45 69.37C116.78 69.43 119 67.26 118.89 64.87C118.79 62.36 116.94 60.41 114.45 60.35Z" fill="#F7C300"/>
<path d="M108.33 128.12C105.12 127.94 101.82 128.23 98.5999 128.29C98.2299 128.3 97.8699 128.3 97.4999 128.31C98.4999 127.48 99.4899 126.63 100.44 125.74C103.36 123.01 106.88 119.8 105.16 115.39C103.18 110.32 97.5099 110.77 93.0599 110.9C86.8499 111.08 80.6299 111.43 74.4199 111.2C68.4299 110.98 62.5299 109.84 56.5599 109.49C52.4399 109.25 45.3799 107 45.3799 111.2C47 125.74 36.39 118.2 39.5 120.5C40.24 121.05 39.09 141.79 40 142.14C36.22 142.2 36.28 142.13 32.5 142.14C23.87 142.15 42 116 8.1799 122.1C3.6399 121.96 2.7199 127.6 5.3899 130.02C5.0199 130.34 4.6999 130.7 4.4699 131.1C-0.0800962 138.99 7.4499 145.01 14.6299 145.91C25.8999 147.32 37.4199 146.74 48.7199 146.24C59.7499 145.75 70.5699 144.72 81.5099 143.3C86.9599 142.59 92.4399 142.02 97.9399 142.14C103.14 142.25 108.11 142.77 113.19 141.31C115.27 140.71 116.2 138.98 116.45 136.97C117.11 131.74 113.13 128.39 108.33 128.12Z" fill="#F7C300"/>
<path d="M161.84 29.62C161.54 23.85 152.65 23.82 152.95 29.62C153.83 46.59 149.36 64.16 152.06 80.96C152.98 86.67 161.54 84.25 160.63 78.57C159.34 70.56 160.69 61.7 161.24 53.67C161.79 45.65 162.26 37.65 161.84 29.62Z" fill="#59C69F"/>
<path d="M109.95 26.98C90.97 25.78 71.93 28.22 52.99 26.88C47.28 26.48 47.31 35.49 52.99 35.89C71.93 37.23 90.97 34.78 109.95 35.99C115.66 36.35 115.64 27.34 109.95 26.98Z" fill="#F7C300"/>
<path d="M101.92 102.16C102.87 100.66 103.32 98.85 102.98 96.68C102.08 90.9 94.28 87.06 89.64 84.99C85.78 83.27 77.82 80.61 75.35 85.78C74.35 87.88 74.75 89.55 75.74 90.99C75.32 91.03 74.91 91.11 74.47 91.3C72.2 92.25 71.07 94.71 70.87 97.06C70.67 99.41 71.41 101.7 72.83 103.55C73.09 103.89 73.38 104.22 73.68 104.53C72.61 105.38 71.8 106.43 71.26 107.72C69.85 111.13 70.73 114.94 73.04 117.69C76.04 121.28 81.33 123.81 86.17 123.59C92.47 127.15 98.98 121.53 98.93 115.47C102.13 114.5 104.85 112.68 105.12 108.84C105.32 106.12 103.93 103.86 101.92 102.16Z" fill="#59C69F"/>
<path d="M118.59 78.71C118.39 72.69 118.09 66.67 117.73 60.66C117.65 59.42 116.67 58.8 115.73 58.8C115.43 58.35 114.95 58.02 114.26 58.01C86.36 57.59 58.45 57.61 30.54 58.09C22.65 58.22 14.75 58.4 6.85995 58.6C6.06995 57.99 5.05995 57.8 4.08995 58.13C3.28995 58.41 2.74995 59.11 2.71995 60C2.56995 65.52 2.72995 71.04 2.66995 76.56C2.60995 82.06 2.35995 87.56 2.07995 93.05C1.50995 103.94 0.779953 114.84 1.05995 125.75C1.21995 131.94 1.72995 138.11 2.70995 144.22C2.85995 145.16 3.90995 145.72 4.77995 145.61C5.23995 145.72 5.70995 145.74 6.19995 145.75C7.28995 145.77 8.36995 145.77 9.45995 145.77C13.18 145.8 16.91 145.82 20.63 145.85C28.23 145.9 35.84 145.96 43.44 146.01C51.04 146.06 58.65 146.12 66.25 146.17C73.81 146.22 81.38 146.4 88.93 146.14C97.27 145.85 105.68 144.04 114.02 144.9C114.35 144.93 114.66 144.83 114.93 144.66C115.77 144.46 116.27 143.68 116.37 142.78C118.83 121.52 119.3 100.08 118.59 78.71ZM114.44 69.23C114.27 69.23 114.1 69.25 113.93 69.32C112.52 69.85 110.74 69.52 109.3 69.26C107.66 68.96 106.04 68.48 104.58 67.63C102.39 66.35 100.72 64.19 100.42 61.74C104.96 61.79 109.5 61.82 114.04 61.88C114.19 64.32 114.32 66.77 114.44 69.23ZM79.9 116.04C79.98 117.14 80.05 118.24 80.12 119.35C77.48 118.08 74.9799 116.35 73.13 114.12C72.03 112.8 71.72 111.32 72.94 109.96C73.84 108.96 75.13 108.63 76.42 108.58C77 108.64 77.58 108.68 78.18 108.64C80.74 108.47 80.7 104.82 78.18 104.57C77.72 104.52 77.25 104.51 76.78 104.52C73.69 104.09 71.03 101.62 71.41 98.11C71.8 94.61 75.53 92.57 78.48 94.48C80.35 95.69 82.59 92.81 80.87 91.29C79.89 90.42 78.31 89.13 78.15 87.69C77.99 86.17 80.06 85.61 81.14 85.34C84.31 84.54 88.02 85.15 91 86.45C93.54 87.56 96.03 89.48 96.97 92.26C98.08 95.57 94.87 96.73 92.37 97.49C90.59 98.03 90.39 100.99 92.37 101.41C94.16 101.8 96.01 102.23 97.65 103.1C98.95 103.79 100.76 105.08 100.92 106.75C101.09 108.47 98.95 110.05 97.63 110.65C96.09 111.34 94.42 111.41 92.82 110.9C90.92 110.3 89.52 112.89 90.9 114.3C92.55 115.98 92.2999 118.9 90.74 120.57C89.1199 122.3 86.68 122.52 84.51 121.98C84.44 121.72 84.33 121.48 84.16 121.27C84.07 119.53 83.96 117.78 83.85 116.04C83.67 113.44 79.72 113.42 79.9 116.04ZM114.26 124.8C113.91 130.19 113.43 135.58 112.84 140.95C106.24 140.48 99.67 141.65 93.09 142.07C90.0499 142.26 87.01 142.34 83.96 142.37C83.97 142.18 83.97 141.98 83.92 141.76C83.0499 137.61 83.9699 133.33 84.2 129.16C84.2599 128.14 84.28 127.12 84.28 126.11C87.77 126.77 91.65 125.81 93.96 122.94C95.68 120.8 96.32 117.87 95.73 115.24C97.07 115.12 98.38 114.75 99.62 114.15C102.08 112.95 104.52 110.45 104.82 107.56C105.14 104.56 103.1 101.92 100.82 100.31C100.08 99.79 99.29 99.36 98.46 99C99.5499 98.15 100.44 97.07 100.9 95.63C102.04 92 99.71 87.92 97.1 85.62C94.53 83.34 91.27 81.93 87.94 81.34C84.2 80.68 79.64 80.62 76.45 83.07C74.66 84.45 73.79 86.68 74.36 88.94C74.44 89.25 74.54 89.54 74.66 89.83C71.18 90.46 68.11 93.3 67.54 97.22C67 100.89 68.5 104.2 71.02 106.31C70.7999 106.47 70.59 106.64 70.39 106.83C68.25 108.85 67.55 111.96 68.76 114.68C69.88 117.18 72.26 119.07 74.39 120.62C76.22 121.95 78.21 123.02 80.29 123.86C80.34 125.8 80.3299 127.74 80.2 129.68C79.92 133.96 79.22 138.15 80.01 142.41C77.28 142.41 74.55 142.38 71.82 142.36C57.7 142.26 43.58 142.16 29.46 142.06C25.43 142.03 21.39 142 17.36 141.97C15.34 141.96 13.33 141.94 11.31 141.93C10.38 141.92 9.44995 141.92 8.51995 141.91C8.04995 141.91 7.58995 141.9 7.11995 141.9C7.01995 141.9 6.83995 141.91 6.64995 141.92C6.62995 141.89 6.61995 141.85 6.60995 141.82C6.44995 141.54 6.24995 141.34 6.02995 141.19C3.08995 120.39 6.01995 99.31 6.39995 78.44C6.49995 73.11 6.36995 67.78 6.43995 62.44C6.52995 62.45 6.60995 62.46 6.69995 62.46C34.6 61.73 62.51 61.45 90.41 61.62C92.42 61.63 94.43 61.67 96.44 61.68C96.7 65.57 99.14 69 102.36 70.99C104.15 72.1 106.2 72.8 108.26 73.17C110.25 73.53 112.63 73.94 114.63 73.34C115.34 90.49 115.38 107.67 114.26 124.8Z" fill="#1E1E1E"/>
<path d="M131.38 126.4C129.61 118.97 131.58 111.85 130.62 104.85C130.57 103.38 130.51 101.9 130.46 100.43C130.06 90.11 129.66 79.72 131.11 68.91C131.17 67.43 131.23 65.95 131.28 64.47C131.44 60.02 131.55 55.54 131.53 51.02C131.53 49.79 131.53 48.57 131.53 47.34C131.53 46.64 131.23 46.15 130.8 45.84C130.54 45.24 130 44.79 129.17 44.81C113.51 45.18 97.93 44.21 82.29 43.48C78.36 43.3 74.43 43.15 70.49 43.08C66.74 43.02 62.81 42.77 59.12 43.31C55.25 43.88 51.21 43.89 47.3 44.12C43.31 44.36 39.32 44.55 35.33 44.63C30.38 44.73 25.43 44.67 20.49 44.33C18.66 44.2 16.39 44.28 15.58 45.97C15.27 46.62 15.26 47.37 15.26 48.09C15.26 49.35 15.26 50.61 15.26 51.87C15.26 53 15.28 54.21 15.91 55.13C16.54 56.05 18.02 56.44 18.73 55.57C19.15 55.06 19.15 54.33 19.14 53.66C19.1 51.85 19.06 50.04 19.02 48.24C34.93 48.82 50.65 47.6 66.5 46.79C68.49 46.69 70.5 46.53 72.49 46.53C73.77 46.49 75.04 46.46 76.3 46.51C85.16 47.76 94.05 48.77 103.07 48.13C104.27 48.26 105.47 48.36 106.66 48.45C112.65 48.89 118.67 48.87 124.68 48.75C125.71 48.73 126.74 48.71 127.77 48.68C127.74 53.28 127.65 57.81 127.54 62.3C127.51 63.8 127.47 65.29 127.43 66.78C125.65 85.38 126.64 102.67 126.78 120.55C126.78 122.14 126.88 123.73 127.22 125.28C127.44 126.3 128.24 127.93 127.85 128.98C127.5 129.91 126.12 129.86 125.34 129.79C123.82 129.65 122.37 129.2 120.83 129.31C118.43 129.47 118.42 133.33 120.83 133.17C123.5 132.99 126.03 134.28 128.65 133.15C130.03 132.56 130.86 131.56 131.28 130.36C131.7 129.17 131.69 127.78 131.38 126.4Z" fill="#1E1E1E"/>
<path d="M145.61 111.75C145.32 110.47 144.93 109.26 144.84 107.94C144.73 106.35 144.8 104.76 144.84 103.17C144.92 99.97 145 96.78 145.07 93.58C145.36 80.64 145.56 67.69 145.66 54.75C145.72 47.4 145.75 40.05 145.75 32.69C145.75 31.99 145.45 31.5 145.02 31.19C144.76 30.59 144.22 30.14 143.39 30.16C110.84 30.48 79.23 27.43 47.1 30.04C44.86 30.05 42.63 30.03 40.4 29.97C38.17 29.91 35.94 29.8 33.71 29.64C31.77 29.5 29.84 30.06 29.51 32.32C29.35 33.41 29.5 34.59 29.54 35.69C29.59 36.97 29.63 38.25 29.68 39.53C29.77 42.01 33.52 42.02 33.43 39.53C33.36 37.53 33.28 35.53 33.22 33.53V33.52C33.5 33.53 33.84 33.51 33.95 33.52C34.93 33.59 35.91 33.65 36.9 33.7C40.76 33.9 44.62 33.93 48.49 33.91C80.23 32.53 110.85 34.56 142.46 34.56C142.46 40.66 143.45 45.75 141.94 51.72C141.92 54.66 141.89 57.61 141.87 60.55C141.84 63.49 141.81 66.44 141.77 69.38C141.69 75.53 141.58 81.68 141.46 87.84C141.34 93.87 141.07 99.9 141.05 105.93C141.04 107.52 141.14 109.11 141.48 110.66C141.7 111.68 142.5 113.31 142.11 114.36C141.76 115.29 140.38 115.24 139.6 115.17C138.08 115.03 136.63 114.58 135.09 114.69C132.69 114.85 132.68 118.71 135.09 118.55C137.76 118.37 140.29 119.66 142.91 118.53C145.65 117.34 146.22 114.51 145.61 111.75Z" fill="#1E1E1E"/>
<path d="M159.84 97.1C159.55 95.82 159.16 94.61 159.07 93.29C158.96 91.7 159.03 90.11 159.07 88.52C159.11 86.92 159.15 85.32 159.19 83.73C159.2 80.79 159.18 77.89 159.15 75.01C159.12 72.14 159.08 69.29 159.04 66.46C159 63.63 158.97 60.82 158.96 58.02C158.95 55.22 158.96 52.43 159.01 49.63C159.11 44.04 159.37 38.44 159.92 32.76C159.94 31.53 159.95 30.3 159.96 29.07C159.98 25.39 159.98 21.72 159.98 18.04C159.98 17.34 159.68 16.85 159.25 16.54C158.99 15.94 158.45 15.49 157.62 15.51C122.7 17.26 89.1099 16.24 54.6299 15.32C52.3999 15.26 50.1699 15.15 47.9399 14.99C45.9999 14.85 44.0699 15.41 43.7399 17.67C43.5799 18.76 43.7299 19.94 43.7699 21.04C43.8199 22.32 43.8599 23.6 43.9099 24.88C43.9999 27.36 47.7499 27.37 47.6599 24.88C47.5899 22.88 47.5099 20.88 47.4499 18.88V18.87C47.7299 18.88 48.0699 18.86 48.1799 18.87C49.1599 18.94 50.1399 19 51.1299 19.05C54.9899 19.25 58.8499 19.3 62.6999 19.39C94.0699 20.32 124.69 21.33 156.24 19.41C156.24 22.35 156.23 25.3 156.22 28.24C156.22 29.34 156.21 30.45 156.2 31.55C156.21 34.42 156.17 37.27 156.1 40.1C156.06 41.51 156.01 42.92 155.96 44.33C154.32 56.93 156.29 70.15 155.44 82.23C155.41 83.23 155.38 84.24 155.36 85.25C155.31 87.26 155.28 89.27 155.27 91.28C155.26 92.87 155.36 94.46 155.7 96.01C155.92 97.03 156.72 98.66 156.33 99.71C155.98 100.64 154.6 100.59 153.82 100.52C152.3 100.38 150.85 99.93 149.31 100.04C146.91 100.2 146.9 104.06 149.31 103.9C151.98 103.72 154.51 105.01 157.13 103.88C159.88 102.69 160.45 99.86 159.84 97.1Z" fill="#1E1E1E"/>
<path d="M43.2499 116.42C42.1099 113.79 40.8599 111.19 39.6599 108.58C39.3499 107.91 38.4199 107.74 37.8399 108.09C37.1699 108.49 37.0499 109.3 37.3599 109.97C38.4799 112.41 39.6299 114.85 40.7299 117.3C41.1199 118.18 41.4999 119.09 41.8299 120.01C41.3199 119.12 40.8299 118.22 40.3699 117.3C40.1099 116.78 39.6799 116.59 39.2599 116.61C38.5199 116.46 37.6199 116.88 37.5799 117.9C37.3799 123.79 38.8399 129.69 38.8399 135.57C38.7799 135.36 38.7199 135.15 38.6699 134.94C38.1099 132.92 37.5499 130.9 36.9899 128.88C36.6599 127.69 34.6099 127.47 34.4199 128.88C34.1199 131.18 33.7599 133.47 33.3299 135.75C33.1299 136.83 32.9099 137.92 32.6699 139C32.5999 139.34 32.5199 139.69 32.4399 140.03C32.3699 139.74 32.3099 139.46 32.2599 139.17C32.0599 138.09 31.9299 137.01 31.8499 135.91C31.6699 133.64 31.5999 131.36 31.5499 129.09C31.4499 124.37 31.5599 119.65 31.8699 114.95C31.9599 113.52 30.2199 113.25 29.4999 114.15C29.4299 114.2 29.3699 114.25 29.2999 114.32C28.1199 115.52 27.0399 116.8 26.0299 118.16C26.9499 114.81 28.1999 111.56 29.7999 108.47C30.6099 106.91 28.3099 105.52 27.4999 107.08C24.9699 111.98 23.1899 117.26 22.2899 122.73C22.1299 123.73 22.8699 124.71 23.9299 124.42C25.7299 123.92 26.5399 122.12 27.5299 120.67C27.9899 119.99 28.4899 119.34 28.9999 118.7C28.7799 123.86 28.7899 129.03 29.0699 134.18C29.2299 137.1 29.4599 140.16 30.4899 142.91C31.0199 144.31 32.5499 145.11 33.7799 143.98C34.7699 143.07 34.8899 141.33 35.1699 140.07C35.4999 138.57 35.7899 137.06 36.0699 135.55C36.1699 135.91 36.2699 136.28 36.3699 136.64C36.9199 138.61 37.2699 140.87 39.0599 142.06C39.7399 142.51 40.8599 142.09 41.0199 141.24C42.1199 135.1 40.8499 129.02 40.3899 122.9C41.2899 124.18 42.3999 125.25 43.8599 125.72C44.6299 125.97 45.6299 125.28 45.5499 124.4C45.2699 121.58 44.3699 118.98 43.2499 116.42Z" fill="#1E1E1E"/>
<path d="M32.83 98.63C32.82 98.66 32.82 98.68 32.83 98.63V98.63Z" fill="#1E1E1E"/>
<path d="M32.83 98.63C32.84 98.61 32.85 98.58 32.86 98.56C32.87 98.55 32.87 98.54 32.88 98.53C32.87 98.54 32.87 98.54 32.85 98.56C32.85 98.59 32.84 98.62 32.83 98.63Z" fill="#1E1E1E"/>
<path d="M32.93 98.48C32.92 98.49 32.9 98.51 32.89 98.52C32.89 98.52 32.89 98.53 32.88 98.53C32.91 98.5 32.93 98.49 32.93 98.48Z" fill="#1E1E1E"/>
<path d="M38.77 98.86C38.13 97.91 37.22 97.13 36.29 96.48C35.26 95.75 34.04 95.35 32.79 95.6C31.61 95.83 30.7 96.65 30.29 97.8C30.28 97.84 30.27 97.88 30.26 97.92C30.06 98.08 29.91 98.3 29.87 98.58C29.55 100.7 29.45 103.17 30.47 105.12C31.62 107.31 34.18 107.71 36.25 106.77C38.14 105.92 39.46 104.03 39.57 101.9C39.64 100.86 39.35 99.73 38.77 98.86ZM36.75 102.69C36.75 102.7 36.75 102.7 36.74 102.71C36.74 102.72 36.74 102.72 36.73 102.73C36.65 102.9 36.55 103.06 36.45 103.23C36.44 103.25 36.41 103.29 36.39 103.32C36.35 103.37 36.31 103.41 36.27 103.46C36.17 103.57 36.07 103.68 35.96 103.78C35.95 103.79 35.88 103.85 35.85 103.88C35.82 103.9 35.8 103.92 35.79 103.92C35.63 104.03 35.48 104.13 35.31 104.22C35.24 104.26 35.16 104.3 35.09 104.33C35.08 104.33 35.07 104.33 35.06 104.34C34.91 104.39 34.76 104.44 34.61 104.48C34.54 104.5 34.47 104.51 34.4 104.52C34.36 104.52 34.3 104.53 34.29 104.53C34.2 104.53 34.11 104.54 34.02 104.54C34 104.54 33.85 104.52 33.79 104.52C33.74 104.51 33.66 104.49 33.64 104.49C33.59 104.48 33.54 104.46 33.49 104.44C33.46 104.43 33.41 104.41 33.4 104.4C33.34 104.36 33.28 104.33 33.22 104.29C33.27 104.31 33.02 104.1 32.98 104.06C32.98 104.06 32.96 104.04 32.95 104.02C32.92 103.97 32.85 103.86 32.84 103.84C32.8 103.77 32.76 103.69 32.72 103.62C32.71 103.6 32.7 103.58 32.69 103.57C32.69 103.56 32.69 103.56 32.68 103.54C32.62 103.36 32.56 103.18 32.51 102.99C32.46 102.8 32.44 102.61 32.4 102.42C32.4 102.41 32.4 102.41 32.4 102.41C32.39 102.29 32.38 102.17 32.37 102.06C32.3 101.16 32.33 100.07 32.44 99.31C32.45 99.26 32.45 99.21 32.45 99.16C32.62 99 32.75 98.8 32.84 98.55C32.84 98.55 32.84 98.55 32.83 98.56L32.84 98.55C32.84 98.54 32.85 98.53 32.85 98.53C32.85 98.54 32.85 98.54 32.84 98.55C32.85 98.54 32.86 98.53 32.87 98.52C32.89 98.49 32.91 98.48 32.91 98.48C32.92 98.47 32.94 98.45 32.95 98.44C32.96 98.44 32.96 98.44 32.97 98.43C33.01 98.41 33.08 98.38 33.11 98.35C33.18 98.34 33.25 98.31 33.32 98.29C33.35 98.28 33.39 98.28 33.43 98.28C33.41 98.28 33.39 98.28 33.36 98.28C33.39 98.28 33.42 98.28 33.45 98.28C33.48 98.28 33.49 98.28 33.49 98.28C33.58 98.28 33.66 98.27 33.75 98.28C33.76 98.28 33.76 98.29 33.77 98.29C33.86 98.33 33.96 98.34 34.04 98.37C34.05 98.37 34.17 98.42 34.22 98.44C34.26 98.46 34.32 98.49 34.31 98.49C34.5 98.59 34.69 98.71 34.87 98.83C35.35 99.16 35.99 99.68 36.44 100.25C36.45 100.26 36.45 100.26 36.45 100.26C36.5 100.34 36.55 100.41 36.6 100.49C36.64 100.56 36.68 100.63 36.71 100.7C36.72 100.73 36.74 100.77 36.74 100.78C36.8 100.95 36.84 101.13 36.88 101.31C36.88 101.31 36.89 101.36 36.89 101.39C36.89 101.45 36.9 101.61 36.9 101.63C36.9 101.67 36.88 101.97 36.89 102.01C36.87 102.17 36.83 102.33 36.78 102.49C36.79 102.56 36.77 102.62 36.75 102.69Z" fill="#1E1E1E"/>
<path d="M78.53 66.51C75.8 63.58 71.31 64.2 67.74 64.23C63.25 64.26 58.75 64.32 54.26 64.42C45.28 64.61 36.3 64.89 27.33 65.35C22.49 65.6 17.78 66.23 13.27 68.17C12.61 68.45 12.08 68.97 11.9 69.62C10.85 70.37 10.18 71.62 10.14 73.07C10.07 75.47 11.9 77.22 13.96 77.96C17 79.05 20.1 77.96 23.17 77.54C22.68 78.06 22.31 78.67 22.28 79.46C22.18 81.72 24.26 82.66 26.1 82.94C30.75 83.64 35.43 84.07 40.13 84.14C44.73 84.21 49.32 83.93 53.87 83.3C56.24 82.97 58.6 82.57 60.94 82.04C63.06 81.56 65.28 81.01 67.19 79.92C69.33 78.7 69.88 75.94 67.99 74.16C67.6 73.8 67.16 73.54 66.7 73.35C70.61 72.44 74.74 72.21 78.12 69.69C79.16 68.94 79.47 67.53 78.53 66.51ZM59.62 71.79C58.88 72.24 58.46 73.22 58.71 74.09C59.27 76.02 60.96 77.01 62.84 77.11C63.08 77.12 63.32 77.11 63.57 77.1C63.52 77.12 63.46 77.15 63.41 77.17C59.47 78.53 55.17 79.15 51.04 79.59C46.78 80.04 42.5 80.18 38.22 80.03C36 79.95 33.78 79.8 31.57 79.57C30.47 79.46 29.36 79.33 28.26 79.18C27.99 79.14 27.72 79.1 27.46 79.06C27.49 79.04 27.52 79.01 27.55 78.99C28.24 78.41 28.93 77.82 29.61 77.24C30.81 76.22 30.04 74.25 28.74 73.84C25.47 72.8 22.27 73.76 19 74.21C17.73 74.38 16.21 74.56 14.99 74.04C14.78 73.95 14.16 73.65 14.07 73.37C13.95 72.96 14.34 72.92 13.95 72.94C14.91 72.88 15.5 72.25 15.74 71.51C22.98 68.85 30.98 69.2 38.57 68.92C46.98 68.61 55.39 68.41 63.8 68.32C66.17 68.29 68.54 68.28 70.91 68.27C71.13 68.27 71.35 68.27 71.58 68.26C70.43 68.57 69.26 68.8 68.08 69.02C65.15 69.59 62.22 70.2 59.62 71.79Z" fill="#1E1E1E"/>
<path d="M68.5899 156.52C63.8699 156.87 59.1499 157 54.4199 156.9C53.3499 156.88 52.4399 157.85 52.4399 158.93C52.4399 160.05 53.3399 160.94 54.4199 160.96C59.1499 161.06 63.8799 160.94 68.5899 160.58C69.6499 160.5 70.5699 159.7 70.5699 158.55C70.5599 157.52 69.6599 156.44 68.5899 156.52Z" fill="#1E1E1E"/>
<path d="M160.28 7.61998C158.02 6.25998 156.27 4.36998 155.02 1.99998C154.03 0.119982 151.47 1.12998 151.34 3.02998C151.3 3.67998 151.14 4.28998 150.93 4.88998C149.53 3.26998 147.69 2.19998 145.4 2.93998C143.81 3.44998 143.02 4.75998 142.43 6.25998C142.41 6.31998 142.37 6.39998 142.33 6.46998C142.32 6.45998 142.3 6.43998 142.29 6.42998C141.95 6.05998 141.64 5.66998 141.31 5.28998C140.17 3.95998 138.92 2.07998 136.93 2.52998C135.65 2.80998 134.64 4.11998 134.48 5.44998C134.51 5.19998 134.46 5.45998 134.42 5.64998C133.91 5.55998 133.5 5.15998 133.13 4.82998C131.82 3.64998 130.55 2.64998 128.73 2.60998C127.96 2.58998 126.94 3.24998 126.83 4.09998C126.74 4.78998 126.7 5.60998 126.39 6.24998C126.3 6.42998 126.07 6.59998 126 6.75998C125.99 6.78998 125.98 6.79998 125.97 6.81998C125.06 5.90998 124.67 4.64998 123.53 3.89998C121.2 2.35998 118.49 4.01998 117.91 6.59998C117.45 6.24998 116.67 5.90998 116.31 5.63998C115.17 4.77998 114.26 3.45998 113.02 2.78998C111.55 1.98998 109.78 2.43998 109.01 3.98998C108.84 4.31998 108.72 4.68998 108.62 5.06998C107.87 4.16998 106.91 3.43998 105.79 3.10998C104.52 2.73998 103.14 2.91998 102.11 3.79998C101.28 4.50998 100.96 5.39998 100.55 6.35998C100.18 6.00998 99.5599 5.55998 99.4299 5.45998C98.3099 4.59998 96.9299 4.05998 95.5099 4.06998C93.8499 4.08998 92.3999 4.87998 91.4499 6.09998C90.9799 5.75998 90.4999 5.42998 90.0299 5.08998C89.1599 4.46998 88.2899 3.67998 87.1699 3.65998C85.7799 3.63998 84.8099 4.78998 84.0299 6.07998C83.2099 5.18998 82.3599 4.30998 81.4799 3.47998C80.7299 2.77998 79.4199 2.61998 78.6899 3.47998C78.0699 4.19998 77.5399 4.95998 77.0699 5.73998C76.7399 5.36998 76.4199 4.99998 76.0999 4.63998C75.3299 3.76998 74.4099 3.03998 73.1999 3.05998C71.7699 3.08998 70.7899 4.23998 70.0199 5.55998C69.6499 5.09998 69.2499 4.68998 68.8099 4.37998C67.5399 3.47998 65.9399 3.63998 64.8499 4.76998C64.3899 5.24998 64.0799 5.87998 63.8499 6.49998C63.8199 6.58998 63.7199 6.82998 63.6199 7.07998C63.4599 6.91998 63.2899 6.74998 63.1299 6.58998C62.4899 5.94998 61.8599 5.30998 61.2199 4.66998C59.3999 2.83998 56.5999 5.70998 58.4299 7.54998C60.1699 9.29998 62.7599 13.09 65.5699 11.36C66.5299 10.77 66.9799 9.75998 67.3099 8.71998C67.7299 9.28998 68.1499 9.84998 68.5699 10.42C69.4299 11.58 71.1799 11.88 71.9799 10.42C72.3499 9.74998 72.7199 9.07998 73.0899 8.40998C73.1999 8.20998 73.3099 8.01998 73.4099 7.81998C73.7299 8.14998 74.1199 8.46998 74.2699 8.64998L76.0799 10.72C77.1699 11.96 78.8799 11.14 79.3799 9.81998C79.6299 9.17998 79.9299 8.56998 80.2799 7.97998C81.2099 8.93998 82.1199 9.91998 82.9699 10.95C83.8299 11.98 85.4499 11.57 86.0699 10.54C86.4299 9.93998 86.7899 9.34998 87.1599 8.74998C87.2399 8.60998 87.3599 8.39998 87.4899 8.17998C87.8799 8.45998 88.2499 8.75998 88.6199 9.02998C89.4999 9.64998 90.3699 10.28 91.2499 10.9C92.5699 11.84 94.1399 10.56 94.2199 9.13998C94.2499 8.59998 94.8099 8.20998 95.2899 8.12998C96.2299 7.96998 97.0499 8.65998 97.6699 9.26998C99.2899 10.86 101.6 11.65 103.25 9.60998C103.78 8.94998 103.98 8.16998 104.32 7.40998C104.58 6.81998 104.5 6.81998 104.99 7.14998C105.73 7.64998 106.12 8.41998 106.6 9.16998C107.25 10.19 107.96 11.01 108.9 11.75C109.85 12.5 111.62 11.74 111.8 10.53C111.93 9.64998 112.06 8.76998 112.19 7.88998C112.21 7.77998 112.22 7.60998 112.24 7.41998C112.27 7.44998 112.29 7.46998 112.32 7.49998C112.85 7.98998 113.41 8.43998 113.97 8.87998C115.01 9.67998 116.26 10.67 117.55 10.99C119.7 11.53 121.21 9.76998 121.79 7.85998C122.01 8.24998 122.34 8.63998 122.57 8.96998C123.35 10.05 124.44 10.86 125.8 10.87C128.05 10.89 129.38 9.30998 130.08 7.39998C130.45 7.73998 130.79 8.11998 131.1 8.35998C132.03 9.11998 133.16 9.64998 134.36 9.70998C135.52 9.76998 136.59 9.34998 137.35 8.43998C137.61 8.12998 137.8 7.77998 137.95 7.40998C138.3 7.84998 138.64 8.31998 138.82 8.52998C139.39 9.18998 139.94 9.88998 140.67 10.38C142.2 11.41 144.1 11.02 145.18 9.54998C145.61 8.95998 145.83 8.26998 146.11 7.59998C146.28 7.17998 146.37 6.82998 146.64 6.77998C147.95 6.53998 148.81 8.72998 149.26 9.62998C149.83 10.76 151.53 10.98 152.36 10.04C153.04 9.26998 153.59 8.44998 154.04 7.57998C155.26 8.96998 156.68 10.16 158.27 11.12C160.49 12.46 162.48 8.94998 160.28 7.61998Z" fill="#59C69F"/>
</svg>
