<svg width="158" height="160" viewBox="0 0 158 160" fill="none" xmlns="http://www.w3.org/2000/svg">
<path d="M33.33 71.46C32.56 70.93 31.58 70.89 30.69 70.79C29.76 70.69 28.83 70.67 27.9 70.71C24.43 70.84 20.99 71.63 17.53 71.5C17.16 70.84 16.45 70.37 15.77 70.37C14.6 70.37 13.88 71.37 13.77 72.55C13.59 74.55 13.49 76.55 13.5 78.55C13.5 79.51 13.46 80.55 13.92 81.41C14.48 82.46 15.52 82.81 16.55 82.94C20.15 83.37 23.72 83.86 27.27 84.66C28.13 84.85 29.03 85.13 29.9 84.84C30.94 84.49 31.46 83.59 31.93 82.6C32.71 80.94 33.46 79.23 33.93 77.43C34.4 75.65 35.06 72.65 33.33 71.46Z" fill="#F7C300"/>
<path d="M87.81 79.98C87.7 78.9 87.59 77.81 87.48 76.73C87.36 75.55 87.3199 74.34 86.8399 73.25C86.3699 72.18 85.36 71.43 84.31 71.2C83.35 70.99 82.35 71 81.38 70.99C80.44 70.98 79.5 70.99 78.56 71.06C77.41 71.14 76.3 71.42 75.43 72.31C75.14 72.61 74.91 72.97 74.71 73.35C73.9 74.38 73.5 75.79 73.29 77.21C73.13 78.29 72.96 79.37 72.8 80.46C72.64 81.55 72.43 82.7 72.81 83.78C73.64 86.14 76.27 86.64 78.31 86.98C80.33 87.32 82.47 87.48 84.49 87.04C86.63 86.58 87.71 84.61 87.91 82.4C87.99 81.59 87.9 80.78 87.81 79.98Z" fill="#59C69F"/>
<path d="M68.17 85.92C67.32 85.37 66.46 85.53 65.55 85.81C65.22 85.91 64.88 86.01 64.54 86.09C64.14 86.19 63.81 86.25 63.59 86.26C62.15 86.33 60.88 85.81 59.3 86.04C58.77 86.12 58.25 86.28 57.8 86.56C57.69 86.5 57.58 86.45 57.46 86.43C56.36 86.16 55.35 86.79 55 87.95C53.91 91.53 53.36 95.31 53.34 99.08C53.34 99.98 53.96 101 54.81 101.18C57.81 101.84 60.87 102.24 63.93 102.33C64.6 102.35 65.29 102.41 65.95 102.34C67.16 102.23 68.13 101.41 68.3 100.05C68.39 99.29 68.39 98.52 68.41 97.75C68.42 97.38 68.43 97.01 68.45 96.64C68.46 96.48 68.47 96.31 68.48 96.15C68.48 96.15 68.52 95.73 68.53 95.68C68.74 94.08 69.11 92.52 69.3 90.91C69.5 89.27 69.71 86.92 68.17 85.92Z" fill="#F7C300"/>
<path d="M119.67 114.46C119.72 113.83 119.78 113.21 119.83 112.58C120.02 110.4 120.21 108.23 120.4 106.05C120.52 104.72 119.02 103.46 117.87 103.95C117.1 104.27 116.32 104.56 115.52 104.78C115.08 104.9 114.65 105 114.2 105.09C113.79 105.17 113.62 105.2 113.4 105.23C111.86 105.4 110.05 105.15 108.66 106.05C107.8 106.61 107.18 107.51 107.04 108.6C106.99 108.99 106.99 109.39 107.01 109.78C106.45 112.67 106.41 115.62 106.81 118.56C106.84 118.81 106.95 119.04 107.08 119.25C107.07 119.48 107.08 119.71 107.15 119.94C107.49 121.1 108.52 121.74 109.61 121.46C109.61 121.46 109.97 121.38 110 121.37C110.05 121.36 110.11 121.36 110.16 121.35C110.99 121.75 111.88 121.62 112.84 121.48H112.85C113.12 121.51 113.39 121.54 113.65 121.58C114.34 121.66 115.04 121.72 115.73 121.69C116.21 121.67 116.7 121.6 117.18 121.51C117.31 121.49 117.44 121.45 117.57 121.42C117.9 121.5 118.23 121.49 118.51 121.39C119.42 121.07 119.87 120.29 119.98 119.29C120.09 118.21 120.21 117.14 120.32 116.06C120.39 115.43 120.09 114.86 119.67 114.46Z" fill="#F7C300"/>
<path d="M141.47 77.28C141.13 75.45 140.93 73.35 139.21 72.42C137.46 71.48 135.07 71.75 133.18 71.84C131.21 71.93 129.25 72.07 127.29 71.85C126.94 71.42 126.45 71.14 125.85 71.14C124.84 71.14 123.76 72.14 123.85 73.32C124.15 77.17 124.46 81.01 124.71 84.86C124.8 86.22 125.12 87.49 126.44 87.95C127.3 88.25 128.29 88.29 129.19 88.39C130.92 88.59 132.66 88.67 134.4 88.64C135.22 88.62 136.05 88.58 136.87 88.51C137.81 88.43 138.85 88.41 139.75 88.12C141.71 87.49 142.28 84.8 142.27 82.85C142.27 80.98 141.82 79.11 141.47 77.28Z" fill="#F7C300"/>
<path d="M50.83 104.61C50.79 103.52 49.94 102.31 48.83 102.43C45.34 102.81 41.83 102.93 38.33 102.75C38.3 102.75 38.27 102.75 38.24 102.75C37.43 101.38 35.1 101.21 34.58 103.26C33.17 108.8 33.46 114.57 33.82 120.23C33.92 121.78 35.01 122.54 36.35 122.33C38.6 121.98 40.91 121.89 43.18 122.01C44.3 122.07 45.42 122.17 46.54 122.35C47.34 122.48 48.12 122.62 48.86 122.14C49.45 121.76 49.88 121.09 50.04 120.37C50.31 119.1 50.38 117.72 50.5 116.42C50.62 115.15 50.71 113.87 50.78 112.59C50.92 109.94 50.93 107.27 50.83 104.61Z" fill="#59C69F"/>
<path d="M105.64 106.2C105.35 104.84 104.21 104.11 102.98 104.17C101.06 104.26 99.1201 104.56 97.2101 104.75C95.3901 104.93 93.5801 105.11 91.7601 105.29C91.5001 105.15 91.2101 105.07 90.9301 105.07C89.7901 105.07 89.0001 106.07 88.9301 107.25C88.8101 109.2 88.7001 111.16 88.5801 113.11C88.4701 115.01 88.23 116.96 88.24 118.87C88.25 120.22 88.9301 121.32 90.0801 121.79C90.9301 122.13 91.9401 122.18 92.8301 122.3C94.5501 122.53 96.2801 122.63 98.0001 122.6C99.9001 122.57 102.38 122.77 103.28 120.52C103.61 119.7 103.76 118.77 103.95 117.9C104.16 116.94 104.35 115.97 104.54 115C104.88 113.15 105.18 111.29 105.42 109.42C105.54 108.42 105.85 107.2 105.64 106.2Z" fill="#59C69F"/>
<path d="M88.19 29.86C75.85 29.61 63.51 29.64 51.17 30C45.33 30.17 39.49 30.41 33.65 30.71C27.79 31.02 21.56 30.81 15.9 32.68C9.75995 34.71 12.38 45.25 18.56 43.2C23.88 41.44 30.06 41.8 35.59 41.52C41.43 41.23 47.27 41.01 53.11 40.85C64.8 40.54 76.49 40.53 88.17 40.76C94.6199 40.9 94.62 29.99 88.19 29.86Z" fill="#59C69F"/>
<path d="M1.9 14.69L1.88 14.63L1.89 14.58L1.9 14.69Z" fill="#1E1E1E"/>
<path d="M1.86003 90.31C1.82003 93.39 1.80003 96.46 1.79003 99.54C1.78003 102.61 1.79003 105.69 1.80003 108.76C1.82003 111.83 1.85003 114.9 1.90003 117.97C1.92003 119.5 1.95003 121.03 1.98003 122.57L2.03003 124.87C2.03003 125.02 2.03003 125.18 2.03003 125.33C2.02003 125.89 2.02003 126.52 2.22003 127.09C2.50003 127.88 2.97003 128.01 3.22003 128.02C4.09003 128.02 4.72003 126.89 4.90003 126.44C5.30003 125.48 5.49003 124.3 5.46003 122.95C4.95003 101.12 5.22003 78.99 6.24003 57.17C6.28003 56.28 6.35003 55.51 6.73003 54.98C7.23003 54.29 8.21003 54.14 9.16003 54.04C56.15 49.46 103.91 47.13 151.09 47.13C151.63 47.13 152.25 47.06 152.53 47.35C152.76 47.59 152.77 48.11 152.77 48.58C152.32 75.25 150.58 102.2 147.6 128.66C147.5 129.59 147.33 130.61 146.71 131.03C146.32 131.3 145.75 131.28 145.26 131.27L11.42 128.65C11.03 128.64 10.63 128.63 10.24 128.61C9.35003 128.57 8.43003 128.53 7.52003 128.6C6.47003 128.68 5.56003 129.31 4.89003 129.85C4.78003 129.94 4.68003 130.03 4.58003 130.13C4.42003 130.3 4.31003 130.47 4.24003 130.66C4.02003 131.26 4.25003 132.02 4.77003 132.42C5.29003 132.82 5.89003 132.8 6.38003 132.78L6.66003 132.77L12.12 132.78C14.88 132.79 17.64 132.8 20.4 132.81C23.18 132.82 25.95 132.84 28.73 132.86C31.51 132.88 34.29 132.9 37.07 132.92C40.39 132.95 43.7 132.98 47.02 133.02C52.52 133.09 58.03 133.16 63.53 133.25C69.06 133.34 74.58 133.44 80.11 133.56C85.65 133.68 91.19 133.8 96.73 133.94C102.28 134.08 107.83 134.23 113.38 134.4C118.93 134.57 124.48 134.74 130.03 134.94C132.8 135.04 135.58 135.13 138.35 135.24L142.51 135.39C142.94 135.41 143.37 135.44 143.81 135.47C144.43 135.52 145.07 135.57 145.71 135.57C145.94 135.57 146.17 135.56 146.39 135.55C147.48 135.48 148.42 135.17 149.17 134.62C149.34 134.5 149.52 134.35 149.66 134.1C149.78 133.88 149.82 133.66 149.85 133.5C150.47 130.13 150.91 127.51 151.28 125.03C152.07 119.7 152.72 114.11 153.25 107.94C154.32 95.48 154.87 82.78 155.39 70.49L155.46 68.79C155.6 65.51 155.74 62.24 155.9 58.96L157.06 34.28C157.09 33.7 157.12 33.1 157.15 32.5L157.16 32.33C157.47 26.89 157.83 20.74 154.15 17.26C153.8 16.93 153.42 16.77 153.02 16.77C152.72 16.77 152.47 16.86 152.31 16.93L152.21 17C152.13 17.04 152.05 17.06 151.96 17.06L7.85003 22.54C7.54003 22.55 7.29003 22.63 7.04003 22.78C7.00003 22.81 6.96003 22.83 6.92003 22.84L6.65003 22.94C6.60003 22.96 6.56003 22.97 6.51003 22.97C5.73003 23.07 4.88003 23.61 4.78003 24.83L4.70003 25.84C4.47003 28.89 4.25003 31.95 4.04003 35C3.83003 38.06 3.64003 41.12 3.47003 44.19C3.29003 47.26 3.13003 50.33 2.98003 53.39C2.83003 56.46 2.70003 59.53 2.57003 62.61C2.45003 65.68 2.34003 68.76 2.25003 71.84C2.16003 74.92 2.08003 78 2.02003 81.08C1.95003 84.15 1.90003 87.23 1.86003 90.31ZM6.65003 48.69C7.06003 41.08 7.49003 34.23 7.97003 27.75L8.02003 27.05C8.05003 26.64 8.35003 26.31 8.73003 26.3L152.07 20.85C152.38 20.82 152.6 20.99 152.74 21.27L152.95 21.69C154.06 23.92 153.98 26.61 153.91 28.77C153.82 31.6 153.68 34.33 153.51 37.62L153.45 38.69C153.4 39.73 153.35 40.77 153.3 41.81L153.27 42.56C153.25 42.99 152.93 43.33 152.54 43.33H151.86C150.7 43.33 149.53 43.32 148.34 43.32C140.04 43.32 131.02 43.42 120.88 43.63C83.69 44.4 45.9 46.64 8.53003 50.31L8.42003 50.33L7.46003 50.51C7.24003 50.54 7.02003 50.48 6.85003 50.31C6.68003 50.14 6.60003 49.9 6.61003 49.65L6.65003 48.69Z" fill="#1E1E1E"/>
<path d="M61.27 137.91C80.77 138.21 100.27 138.51 119.77 138.81C122.34 138.85 122.35 143.3 119.77 143.26C100.27 142.96 80.77 142.66 61.27 142.36C58.7 142.32 58.69 137.87 61.27 137.91Z" fill="#1E1E1E"/>
<path d="M81.4999 147.52C98.1599 146.82 114.83 146.71 131.5 147.18C136.23 147.32 140.95 147.5 145.67 147.73C148.23 147.85 148.25 152.31 145.67 152.18C129.02 151.38 112.34 151.15 95.6799 151.52C90.9499 151.62 86.2299 151.78 81.5099 151.97C78.9199 152.08 78.9299 147.63 81.4999 147.52Z" fill="#F7C300"/>
<path d="M112.21 154.71C116.98 154.74 121.74 155 126.48 155.51C127.56 155.62 128.48 156.45 128.48 157.74C128.48 158.86 127.56 160.08 126.48 159.97C121.73 159.47 116.97 159.2 112.21 159.17C111.13 159.16 110.21 158.15 110.21 156.94C110.21 155.73 111.12 154.71 112.21 154.71Z" fill="#1E1E1E"/>
<path d="M8.20006 16.86C9.96006 16.06 11.4401 14.83 12.5101 13.07C12.6001 12.94 12.6701 12.79 12.7501 12.65C12.8501 12.81 12.9401 12.94 12.9201 12.92C13.4301 13.74 13.9701 14.54 14.7901 15C16.3701 15.9 18.2501 15.34 19.5701 14.15C20.3201 13.47 20.8501 12.59 21.3801 11.72C21.7801 12.35 22.1701 12.98 22.5701 13.6C23.2901 14.72 24.3401 15.67 25.6601 15.19C26.8901 14.75 27.5001 13.34 28.1401 12.21L29.0401 10.63C29.4001 11.12 29.7701 11.61 30.1301 12.1C30.9001 13.13 31.7101 14.3 33.0501 14.25C34.3801 14.2 35.1701 13.11 35.9101 12.04C36.3101 11.47 36.7101 10.9 37.1101 10.33C37.5101 10.89 37.9101 11.45 38.3201 12C39.1101 13.06 40.1001 13.92 41.4101 13.54C42.6201 13.18 43.3501 11.99 44.0901 10.95C44.3901 10.52 44.6801 10.08 44.9701 9.64C45.5101 10.33 46.0501 11.02 46.6001 11.7C47.5401 12.85 48.6901 13.62 50.1301 13.39C51.4501 13.18 52.4701 12.12 53.2101 10.95C53.6201 10.3 54.2201 8.35 54.9801 8.11C55.0001 8.1 55.0101 8.1 55.0201 8.09C55.0301 8.1 55.0401 8.11 55.0701 8.12C55.1801 8.18 55.2801 8.37 55.3501 8.46C55.7601 8.98 56.0501 9.6 56.4701 10.12C57.3601 11.22 58.5701 12.01 59.9401 11.77C61.3401 11.53 62.1401 10.23 62.9301 9.06C63.3101 8.49 63.6801 7.91 64.0401 7.33C65.4901 9.3 67.0601 11.16 68.7501 12.88C69.6401 13.79 70.9501 13.38 71.5301 12.31C72.59 10.32 73.6601 8.34 74.7201 6.35C75.6401 7.19 76.5701 8.04 77.4901 8.88C78.8 10.08 80.1001 11.62 81.9301 10.81C83.2801 10.21 84.4901 8.59 85.3901 7.37C85.7601 6.88 86.1001 6.36 86.4201 5.83C87.5001 7.76 88.59 9.68 89.7001 11.58C90.9601 13.72 93.9301 11.54 92.6701 9.39C91.0301 6.59 89.4201 3.76 87.8601 0.899999C87.1601 -0.370001 85.3601 -0.220001 84.7801 1.09C83.91 3.06 82.6001 5.51 80.8901 6.87C80.8301 6.81 80.76 6.75 80.7001 6.7L79.8601 5.9C79.4101 5.49 78.9501 5.07 78.5001 4.66C77.4801 3.73 76.4601 2.79 75.4301 1.86C74.5001 1.01 73.2501 1.31 72.6501 2.43C71.6201 4.36 70.5801 6.29 69.5501 8.22C68.0601 6.54 66.6801 4.75 65.4101 2.84C64.5701 1.57 63.0601 1.75 62.3301 3.03C61.6401 4.25 60.9101 5.43 60.1301 6.57C59.8701 6.96 59.6001 7.34 59.3201 7.71C59.3201 7.7 59.3201 7.7 59.3201 7.7C59.2701 7.53 58.9601 7.25 58.8501 7.09C57.6601 5.27 56.1701 3.47 53.9201 4.28C52.9601 4.62 52.1701 5.43 51.5901 6.32C51.0201 7.2 50.6601 8.31 49.9801 9.09C49.7401 9.36 49.7301 9.46 49.5301 9.37C49.1301 9.2 48.7101 8.4 48.4201 8.04C47.6201 7.02 46.8101 6 45.9901 4.97C45.1501 3.91 43.7701 4.61 43.2101 5.54C42.7201 6.36 42.2001 7.17 41.6601 7.95C41.4101 8.31 41.1401 8.77 40.8301 9.17L40.7401 9.05C40.5101 8.73 40.2901 8.42 40.0601 8.1C39.5601 7.41 39.0701 6.71 38.5701 6.02C37.9001 5.09 36.5101 4.7 35.7501 5.79C35.1801 6.64 34.5901 7.48 34.0001 8.32C33.7501 8.68 33.5001 9.04 33.2401 9.4C33.2101 9.45 33.0901 9.58 32.9701 9.74C32.6601 9.32 32.3601 8.91 32.0501 8.49C31.4801 7.72 30.9101 6.95 30.3401 6.18C29.4501 4.98 28.0201 5.04 27.2601 6.37C26.7201 7.31 26.1901 8.25 25.6501 9.2C25.4201 9.6 25.1901 10.01 24.9601 10.41C24.9401 10.44 24.9201 10.47 24.9101 10.51C24.7301 10.18 24.5501 9.85 24.4301 9.66C23.9301 8.88 23.4401 8.09 22.9401 7.31C22.2401 6.21 20.9501 6.18 20.1201 7.08C19.0401 8.25 18.5101 10.04 17.3401 11.08C16.9901 11.39 16.6201 11.64 16.2601 11.34C15.7001 10.88 15.4001 9.9 14.8601 9.37C13.5001 8.03 11.4601 7.94 10.2901 9.59C9.79006 10.3 9.49006 11.1 8.91006 11.75C8.38006 12.34 7.75006 12.8 7.05006 13.11C4.94006 14.05 6.07006 17.83 8.20006 16.86Z" fill="#1E1E1E"/>
<path d="M11.8 120.93C11.92 122.46 13.25 123.13 14.38 122.96C14.75 123.6 15.45 123.99 16.22 124.05C31.92 125.26 47.74 124.78 63.47 124.72L111.01 124.56C119.89 124.53 128.77 124.5 137.65 124.47C138.68 124.47 139.3 123.84 139.54 123.06C139.78 123.15 140.03 123.21 140.27 123.2C141.52 123.18 142.22 122.16 142.34 120.98C143.95 104.85 145.54 88.65 144.67 72.43C144.58 70.8 143.12 70.15 141.95 70.44C139.71 69.33 137.25 69.15 134.78 69.12C131.83 69.09 128.88 69.07 125.94 69.05C120.59 69.01 115.25 68.97 109.9 68.93C109.5 68.6 109.01 68.39 108.52 68.4C108 68.41 107.57 68.6 107.24 68.91C102.08 68.87 96.92 68.83 91.76 68.79C91.4 68.55 90.98 68.41 90.58 68.41C90.15 68.42 89.78 68.55 89.48 68.77L71.88 68.64L56.1 68.51C55.48 68.16 54.67 68.16 54 68.49C48.02 68.44 42.04 68.4 36.07 68.35C30.06 68.3 24.05 68.26 18.04 68.21C15.72 68.19 11.95 67.37 10.57 69.91C9.91996 71.11 10.11 72.72 10.1 74.04C10.09 75.67 10.08 77.29 10.08 78.92C10.09 92.95 10.67 106.96 11.8 120.93ZM30.04 120.32C25.41 120.22 20.78 120.04 16.16 119.68C16.08 119.67 16 119.69 15.92 119.69C15.47 114.02 15.12 108.34 14.85 102.66C20.33 102.92 25.8 103.18 31.28 103.44C30.84 109.06 30.43 114.67 30.04 120.29C30.04 120.3 30.04 120.31 30.04 120.32ZM14.79 98.3C14.75 98.3 14.71 98.31 14.67 98.31C14.64 97.52 14.6 96.74 14.58 95.95C14.46 92.46 14.39 88.96 14.34 85.47C20.45 85.89 26.55 86.3 32.66 86.71C32.3 90.84 31.96 94.97 31.63 99.1C26.01 98.83 20.4 98.56 14.79 98.3ZM42.55 120.42C39.77 120.42 36.99 120.41 34.22 120.38C34.23 120.33 34.24 120.28 34.25 120.22C34.63 114.69 35.04 109.16 35.47 103.64C40.09 103.86 44.7 104.08 49.32 104.3C49.19 105.53 49.08 106.77 49.04 108.02C48.91 112.16 49.26 116.28 49.62 120.4C47.26 120.4 44.9 120.41 42.55 120.42ZM49.91 99.98C47.46 99.86 45.02 99.73 42.57 99.62C40.31 99.51 38.06 99.41 35.8 99.3C36.13 95.2 36.47 91.09 36.82 86.99C41.78 87.32 46.74 87.64 51.71 87.95C51.44 90.54 51.1 93.12 50.64 95.69C50.39 97.12 50.14 98.55 49.91 99.98ZM66.81 108.4C66.7299 110.54 66.69 112.69 66.66 114.83C66.63 116.71 66.59 118.53 66.12 120.35C62.02 120.36 57.93 120.37 53.83 120.39C53.47 116.26 53.11 112.11 53.24 107.95C53.28 106.79 53.37 105.64 53.5 104.5C56.87 104.66 60.24 104.82 63.6 104.98C64.72 105.03 65.84 105.09 66.97 105.15C66.91 106.23 66.85 107.31 66.81 108.4ZM67.19 100.84C62.83 100.63 58.47 100.41 54.11 100.19C54.36 98.72 54.63 97.25 54.88 95.77C55.3 93.26 55.63 90.73 55.89 88.2C59.99 88.45 64.09 88.69 68.19 88.92C67.94 91.31 67.7 93.7 67.51 96.1C67.39 97.67 67.29 99.26 67.19 100.84ZM84.5 120.29C79.82 120.31 75.13 120.32 70.45 120.33C71.1399 116.87 70.86 113.15 70.96 109.66C71 108.22 71.07 106.78 71.14 105.34C75.97 105.58 80.81 105.82 85.64 106.02C85.27 110.78 84.89 115.53 84.5 120.29ZM71.38 101.03C71.46 99.72 71.53 98.4 71.63 97.09C71.83 94.44 72.09 91.79 72.37 89.15C77.23 89.42 82.09 89.67 86.94 89.9C86.62 93.82 86.31 97.74 85.99 101.67C81.13 101.48 76.25 101.26 71.38 101.03ZM102.91 120.23C98.17 120.25 93.4399 120.26 88.7 120.27C89.0799 115.57 89.46 110.87 89.83 106.17C94.52 106.32 99.2 106.41 103.89 106.38C103.57 111 103.24 115.62 102.91 120.23ZM91.23 101.87C90.88 101.86 90.53 101.84 90.18 101.83C90.49 97.91 90.81 94 91.12 90.08C95.75 90.29 100.38 90.47 105.01 90.64C104.74 94.43 104.47 98.22 104.2 102.02C99.89 102.05 95.56 102.02 91.23 101.87ZM119.6 120.17C115.43 120.19 111.27 120.2 107.1 120.22C107.43 115.59 107.76 110.96 108.09 106.34C109.42 106.31 110.74 106.29 112.07 106.24C114.79 106.14 117.51 106.03 120.23 105.95C120.05 110.69 119.84 115.43 119.6 120.17ZM115.11 101.75C112.87 101.84 110.64 101.9 108.41 101.95C108.68 98.23 108.94 94.51 109.21 90.78C109.98 90.81 110.75 90.84 111.52 90.86C114.6 90.95 117.68 91.02 120.77 91.09C120.66 94.58 120.55 98.07 120.42 101.56C118.64 101.62 116.88 101.69 115.11 101.75ZM138.23 120.2C138.04 120.14 137.83 120.1 137.6 120.1C133 120.12 128.41 120.13 123.81 120.15C124.05 115.38 124.26 110.62 124.45 105.85C129.44 105.78 134.43 105.89 139.41 106.48C139.45 106.48 139.48 106.48 139.52 106.48C139.12 111.06 138.68 115.63 138.23 120.2ZM139.85 102.23C139.68 102.18 139.51 102.14 139.33 102.12C134.44 101.54 129.52 101.42 124.61 101.48C124.74 98.06 124.85 94.63 124.96 91.21C129.69 91.3 134.42 91.37 139.15 91.41C139.74 91.41 140.18 91.21 140.51 90.89C140.36 94.67 140.14 98.45 139.85 102.23ZM127.82 73.42C130.08 73.44 132.35 73.45 134.61 73.47C136.62 73.49 138.66 73.49 140.46 74.53C140.49 74.55 140.51 74.55 140.54 74.57C140.72 78.96 140.73 83.35 140.61 87.73C140.27 87.32 139.76 87.04 139.08 87.04C134.42 87.01 129.75 86.93 125.09 86.84C125.2 82.83 125.31 78.83 125.39 74.82C125.4 74.2 125.2 73.74 124.9 73.4C125.88 73.4 126.85 73.41 127.82 73.42ZM110.46 73.29C111.55 73.3 112.64 73.31 113.72 73.31C116.42 73.33 119.12 73.35 121.82 73.37C121.46 73.73 121.21 74.23 121.2 74.89C121.12 78.84 121.02 82.79 120.9 86.74C117.11 86.65 113.31 86.55 109.52 86.42C109.83 82.05 110.14 77.67 110.46 73.29ZM92.49 73.15C97.08 73.18 101.67 73.22 106.26 73.25C105.95 77.59 105.64 81.94 105.33 86.28C100.71 86.12 96.09 85.94 91.47 85.73L92.49 73.15ZM88.3 73.12C87.97 77.26 87.63 81.41 87.3 85.55C82.49 85.32 77.67 85.08 72.86 84.82C73.34 80.88 73.91 76.94 74.56 73.02C79.13 73.05 83.72 73.08 88.3 73.12ZM56.91 72.88C59.13 72.9 61.35 72.91 63.56 72.93C65.81 72.95 68.06 72.96 70.32 72.98C69.7 76.84 69.15 80.7 68.68 84.58C64.55 84.35 60.42 84.11 56.29 83.86C56.57 80.21 56.75 76.54 56.91 72.88ZM38.22 72.74C43.05 72.78 47.88 72.81 52.71 72.85C52.56 76.44 52.38 80.03 52.1 83.61C48.1 83.36 44.1 83.11 40.1 82.84C39.13 82.78 38.17 82.71 37.2 82.64C37.47 79.58 37.74 76.52 38.03 73.47C38.05 73.21 38.01 72.96 37.92 72.73C38.02 72.74 38.12 72.74 38.22 72.74ZM14.27 72.56C14.33 72.56 14.38 72.56 14.44 72.56C14.96 72.56 15.49 72.57 16.01 72.57C17.06 72.58 18.1 72.59 19.15 72.59C21.33 72.61 23.5 72.62 25.68 72.64L34.03 72.7C33.93 72.96 33.86 73.25 33.84 73.54C33.56 76.48 33.31 79.42 33.04 82.36C26.79 81.94 20.54 81.52 14.29 81.1C14.28 79.9 14.27 78.7 14.27 77.51C14.27 76.43 14.28 75.34 14.28 74.26C14.29 73.72 14.25 73.13 14.27 72.56Z" fill="#1E1E1E"/>
<path d="M140.26 56.82C135.26 56.27 130.23 56 125.2 56.02C124.12 56.02 123.13 56.74 123.02 57.99C122.93 59.08 123.74 60.37 124.83 60.36C129.86 60.34 134.88 60.61 139.89 61.16C142.45 61.45 142.82 57.11 140.26 56.82Z" fill="#1E1E1E"/>
<path d="M144.48 28.75C143.7 27.93 142.69 27.18 141.55 26.95C140.21 26.68 138.7 26.97 137.76 28.03C137.59 28.22 137.46 28.42 137.36 28.64C136.1 29.61 135.3 31.3 135.42 32.87C135.51 34.02 135.92 35.01 136.69 35.87C137.31 36.55 138.19 37.05 139.07 37.28C141.1 37.83 143.15 36.99 144.43 35.36C145.2 34.38 145.93 33.23 145.96 31.93C145.99 30.68 145.32 29.62 144.48 28.75ZM141 33.19C140.89 33.27 140.77 33.34 140.64 33.4C140.59 33.41 140.54 33.43 140.49 33.44C140.42 33.44 140.35 33.44 140.27 33.44C140.17 33.42 140.07 33.39 139.97 33.36C139.88 33.31 139.79 33.26 139.7 33.2C139.64 33.15 139.59 33.09 139.54 33.04C139.51 33 139.49 32.95 139.46 32.91C139.45 32.86 139.43 32.81 139.42 32.76C139.42 32.68 139.42 32.61 139.42 32.53C139.44 32.43 139.47 32.33 139.5 32.23C139.55 32.14 139.6 32.05 139.65 31.96C139.7 31.9 139.76 31.84 139.82 31.79C139.91 31.74 139.99 31.67 140.09 31.63C140.37 31.5 140.62 31.21 140.79 30.91C140.92 30.98 141.05 31.06 141.18 31.14C141.41 31.34 141.63 31.56 141.83 31.79C141.85 31.83 141.87 31.87 141.9 31.9C141.9 31.91 141.89 31.93 141.89 31.94C141.75 32.21 141.59 32.48 141.41 32.73C141.3 32.9 141.15 33.05 141 33.19Z" fill="#1E1E1E"/>
</svg>
