<svg width="161" height="161" viewBox="0 0 161 161" fill="none" xmlns="http://www.w3.org/2000/svg">
<path d="M75.4 76.5201C75.28 75.1901 75.23 72.1001 73.87 71.4001C73.81 71.3701 73.75 71.3501 73.69 71.3301C65.16 70.9501 56.62 71.6801 48.09 71.7801C38.84 71.9001 29.5 70.3201 20.3 71.7601C19.15 71.3201 17.51 71.9201 17.39 73.5801C17.23 75.9201 17.14 78.2601 17.15 80.6101C17.16 81.7801 17.18 82.9601 17.23 84.1301C17.28 85.2101 17.25 86.3601 17.98 87.2301C19.02 88.4601 20.91 88.3501 22.58 88.2401C23.18 88.3001 23.8 88.2501 24.41 88.1801C26.67 88.2101 28.93 88.3401 31.19 88.4901C35.74 88.8001 40.3 89.2001 44.86 89.0501C47.23 88.9701 49.56 88.6501 51.92 88.4201C54.18 88.2001 56.37 88.2901 58.63 88.4701C63.78 88.8801 68.8 87.5701 73.93 87.7401C74.21 87.7501 74.46 87.6901 74.7 87.5801C75.23 83.9001 75.74 80.2201 75.4 76.5201Z" fill="#59C69F"/>
<path d="M88.24 116.7L87.94 111.57C87.89 110.71 87.84 109.86 87.79 109C87.72 107.87 87.57 106.77 86.51 106.14C85.52 105.55 84.37 105.89 83.32 106.09C82.41 106.26 81.5 106.43 80.59 106.6C78.92 106.91 77.24 107.22 75.57 107.53C75.28 107.35 74.95 107.23 74.57 107.25C73.56 107.3 72.47 108.15 72.57 109.29C72.86 112.69 73.14 116.09 73.45 119.49C73.56 120.66 73.84 121.68 75 122.18C75.85 122.55 76.95 122.45 77.86 122.49C79.53 122.57 81.2 122.64 82.87 122.72C84.45 122.79 86.31 123.09 87.55 121.83C88.84 120.51 88.34 118.36 88.24 116.7Z" fill="#F7C300"/>
<path d="M111.04 115.9L110.74 110.77C110.69 109.91 110.64 109.06 110.59 108.2C110.52 107.07 110.37 105.97 109.31 105.34C108.32 104.75 107.17 105.09 106.12 105.29C105.21 105.46 104.3 105.63 103.39 105.8C101.72 106.11 100.04 106.42 98.37 106.73C98.08 106.55 97.75 106.43 97.37 106.45C96.36 106.5 95.27 107.35 95.37 108.49C95.66 111.89 95.94 115.29 96.25 118.69C96.36 119.86 96.64 120.88 97.8 121.38C98.65 121.75 99.75 121.65 100.66 121.69C102.33 121.77 104 121.84 105.67 121.92C107.25 121.99 109.11 122.29 110.35 121.03C111.63 119.71 111.14 117.56 111.04 115.9Z" fill="#F7C300"/>
<path d="M44.31 112.58L44.61 117.71C44.66 118.57 44.71 119.42 44.76 120.28C44.83 121.41 44.98 122.51 46.04 123.14C47.03 123.73 48.18 123.39 49.23 123.19C50.14 123.02 51.05 122.85 51.96 122.68C53.63 122.37 55.31 122.06 56.98 121.75C57.27 121.93 57.6 122.05 57.98 122.03C58.99 121.98 60.08 121.13 59.98 119.99C59.69 116.59 59.41 113.19 59.1 109.79C58.99 108.62 58.71 107.6 57.55 107.1C56.7 106.73 55.6 106.83 54.69 106.79C53.02 106.71 51.35 106.64 49.68 106.56C48.1 106.49 46.24 106.19 45 107.45C43.71 108.77 44.21 110.92 44.31 112.58Z" fill="#F7C300"/>
<path d="M20.83 111.9L21.13 117.03C21.18 117.89 21.23 118.74 21.28 119.6C21.35 120.73 21.5 121.83 22.56 122.46C23.55 123.05 24.7 122.71 25.75 122.51C26.66 122.34 27.57 122.17 28.48 122C30.15 121.69 31.83 121.38 33.5 121.07C33.79 121.25 34.12 121.37 34.5 121.35C35.51 121.3 36.6 120.45 36.5 119.31C36.21 115.91 35.93 112.51 35.62 109.11C35.51 107.94 35.23 106.92 34.07 106.42C33.22 106.05 32.12 106.15 31.21 106.11C29.54 106.03 27.87 105.96 26.2 105.88C24.62 105.81 22.76 105.51 21.52 106.77C20.23 108.1 20.73 110.24 20.83 111.9Z" fill="#F7C300"/>
<path d="M149.15 36.15C149.1 35.67 148.98 35.18 148.81 34.69C148.51 32.43 146.94 30.3 144.08 30.13C115.02 28.37 85.9301 27.26 56.82 26.86C49.3101 26.76 41.8 26.7 34.28 26.69C27.48 26.68 19.95 25.83 13.24 26.95C4.61005 28.39 3.74005 41.07 9.40005 46.58C12.97 50.05 18.5601 49.47 23.1201 49.68C30.66 50.02 38.19 50.35 45.73 50.67C60.33 51.29 74.93 51.87 89.54 52.42C104 52.96 118.57 54 133.05 53.91C137.69 53.88 143.36 53.97 146.58 50.05C149.53 46.45 149.57 40.53 149.15 36.15Z" fill="#F7C300"/>
<path d="M138.66 72.88C137.51 89.31 136.99 105.76 137.09 122.23C137.13 128.76 147.08 128.77 147.04 122.23C146.94 105.76 147.46 89.31 148.61 72.88C149.07 66.37 139.12 66.4 138.66 72.88Z" fill="#59C69F"/>
<path d="M156.58 27.7801L156.6 27.7201L156.59 27.6801L156.58 27.7801Z" fill="#1E1E1E"/>
<path d="M35.09 121.21C35.18 119.06 35.19 116.92 35.13 114.85C35.1 113.94 35.06 113.04 35.01 112.13C34.99 111.86 34.98 111.59 34.97 111.31C34.94 110.47 34.91 109.6 34.71 108.82C34.15 106.62 31.8 106.55 29.92 106.5L29.63 106.49C27.51 106.42 25.42 106.62 23.49 106.84C23.2 106.87 22.91 106.9 22.6 106.93C20.95 107.08 19.24 107.23 18.1 108.42C16.94 109.64 16.88 111.4 16.83 113.1L16.81 113.58C16.73 115.66 16.67 117.7 16.82 119.75C16.99 122.01 18.06 123.5 19.83 123.94C20.64 124.15 21.53 124.14 22.4 124.15H22.75L33.12 124.16C33.61 124.16 34.02 123.99 34.31 123.66C34.63 123.3 34.78 122.78 34.73 122.24V122.23V122.22C34.95 121.95 35.08 121.61 35.09 121.21ZM20.12 115.84V114.96C20.12 113.77 20.12 112.54 20.31 111.48L20.34 111.29C20.4 110.95 20.45 110.79 20.83 110.65C21.32 110.48 21.85 110.43 22.37 110.39C22.55 110.37 22.73 110.36 22.9 110.34C24.47 110.15 26.16 109.97 27.88 109.92C28.19 109.91 28.5 109.91 28.79 109.91C29.3 109.91 29.77 109.92 30.23 109.95C30.62 109.97 31.01 110 31.4 110.04L31.5 110.05L31.52 110.13C31.61 111.39 31.79 114.92 31.8 115.3C31.84 117.01 31.83 118.78 31.76 120.71V120.73L23.06 120.72C22.95 120.72 22.81 120.73 22.64 120.74L22.52 120.75C22.27 120.77 21.99 120.78 21.72 120.78C20.92 120.78 20.46 120.63 20.31 120.33C20.12 119.93 20.13 119.36 20.14 118.86V118.75C20.14 118.62 20.14 118.5 20.14 118.39C20.11 117.54 20.11 116.69 20.12 115.84Z" fill="#1E1E1E"/>
<path d="M41.6201 109.45C41.5301 111.6 41.5201 113.74 41.5801 115.81C41.6101 116.72 41.6501 117.62 41.7001 118.53C41.7201 118.8 41.7301 119.07 41.7401 119.35C41.7701 120.19 41.8001 121.06 42.0001 121.84C42.5601 124.04 44.9101 124.11 46.7901 124.16L47.0801 124.17C49.2001 124.24 51.2901 124.04 53.2201 123.82C53.5101 123.79 53.8001 123.76 54.1101 123.73C55.7601 123.58 57.4701 123.43 58.6101 122.24C59.7701 121.02 59.8301 119.26 59.8801 117.56L59.9001 117.08C59.9801 115 60.0401 112.96 59.8901 110.91C59.7201 108.65 58.6501 107.16 56.8801 106.72C56.0701 106.51 55.1801 106.52 54.3101 106.51H53.9601L43.5901 106.5C43.1001 106.5 42.6901 106.67 42.4001 107C42.0801 107.36 41.9301 107.88 41.9801 108.42V108.43V108.44C41.7601 108.71 41.6401 109.05 41.6201 109.45ZM56.6001 114.82V115.7C56.6001 116.89 56.6001 118.12 56.4101 119.18L56.3801 119.37C56.3201 119.71 56.2701 119.87 55.8901 120.01C55.4001 120.18 54.8701 120.23 54.3501 120.27C54.1701 120.29 53.9901 120.3 53.8201 120.32C52.2501 120.51 50.5601 120.69 48.8401 120.74C48.5301 120.75 48.2201 120.75 47.9301 120.75C47.4201 120.75 46.9501 120.74 46.4901 120.71C46.1001 120.69 45.7101 120.66 45.3201 120.62L45.2201 120.61L45.2001 120.53C45.1101 119.27 44.9301 115.74 44.9201 115.36C44.8801 113.65 44.8901 111.88 44.9601 109.95V109.93L53.6601 109.94C53.7701 109.94 53.9101 109.93 54.0801 109.92L54.2001 109.91C54.4501 109.89 54.7301 109.88 55.0001 109.88C55.8001 109.88 56.2601 110.03 56.4101 110.33C56.6001 110.73 56.5901 111.3 56.5801 111.8V111.91C56.5801 112.04 56.5801 112.16 56.5801 112.27C56.6001 113.11 56.6101 113.96 56.6001 114.82Z" fill="#1E1E1E"/>
<path d="M86.79 121.21C86.88 119.06 86.89 116.92 86.83 114.85C86.8 113.94 86.76 113.04 86.71 112.13C86.69 111.86 86.68 111.59 86.67 111.31C86.64 110.47 86.61 109.6 86.41 108.82C85.85 106.62 83.5 106.55 81.62 106.5L81.33 106.49C79.21 106.42 77.12 106.62 75.19 106.84C74.9 106.87 74.61 106.9 74.3 106.93C72.65 107.08 70.94 107.23 69.8 108.42C68.64 109.64 68.58 111.4 68.53 113.1L68.51 113.58C68.43 115.66 68.37 117.7 68.52 119.75C68.69 122.01 69.76 123.5 71.53 123.94C72.34 124.15 73.23 124.14 74.1 124.15H74.45L84.82 124.16C85.31 124.16 85.72 123.99 86.01 123.66C86.33 123.3 86.48 122.78 86.43 122.24V122.23V122.22C86.65 121.95 86.78 121.61 86.79 121.21ZM71.82 115.84V114.96C71.82 113.77 71.82 112.54 72.01 111.48L72.04 111.29C72.1 110.95 72.15 110.79 72.53 110.65C73.02 110.48 73.55 110.43 74.07 110.39C74.25 110.37 74.43 110.36 74.6 110.34C76.17 110.15 77.86 109.97 79.58 109.92C79.89 109.91 80.2 109.91 80.49 109.91C81 109.91 81.47 109.92 81.93 109.95C82.32 109.97 82.71 110 83.1 110.04L83.2 110.05L83.22 110.13C83.31 111.39 83.49 114.92 83.5 115.3C83.54 117.01 83.53 118.78 83.46 120.71V120.73L74.76 120.72C74.65 120.72 74.51 120.73 74.34 120.74L74.22 120.75C73.97 120.77 73.69 120.78 73.42 120.78C72.62 120.78 72.16 120.63 72.01 120.33C71.82 119.93 71.83 119.36 71.84 118.86V118.75C71.84 118.62 71.84 118.5 71.84 118.39C71.81 117.54 71.81 116.69 71.82 115.84Z" fill="#1E1E1E"/>
<path d="M93.32 109.45C93.23 111.6 93.22 113.74 93.28 115.81C93.31 116.72 93.35 117.62 93.4 118.53C93.42 118.8 93.43 119.07 93.44 119.35C93.47 120.19 93.5 121.06 93.7 121.84C94.26 124.04 96.61 124.11 98.49 124.16L98.78 124.17C100.9 124.24 102.99 124.04 104.92 123.82C105.21 123.79 105.5 123.76 105.81 123.73C107.46 123.58 109.17 123.43 110.31 122.24C111.47 121.02 111.53 119.26 111.58 117.56L111.6 117.08C111.68 115 111.74 112.96 111.59 110.91C111.42 108.65 110.35 107.16 108.58 106.72C107.77 106.51 106.88 106.52 106.01 106.51H105.66L95.29 106.5C94.8 106.5 94.39 106.67 94.1 107C93.78 107.36 93.63 107.88 93.68 108.42V108.43V108.44C93.46 108.71 93.34 109.05 93.32 109.45ZM108.3 114.82V115.7C108.3 116.89 108.3 118.12 108.11 119.18L108.08 119.37C108.02 119.71 107.97 119.87 107.59 120.01C107.1 120.18 106.57 120.23 106.05 120.27C105.87 120.29 105.69 120.3 105.52 120.32C103.95 120.51 102.26 120.69 100.54 120.74C100.23 120.75 99.92 120.75 99.63 120.75C99.12 120.75 98.65 120.74 98.19 120.71C97.8 120.69 97.41 120.66 97.02 120.62L96.92 120.61L96.9 120.53C96.81 119.27 96.63 115.74 96.62 115.36C96.58 113.65 96.59 111.88 96.66 109.95V109.93L105.36 109.94C105.47 109.94 105.61 109.93 105.78 109.92L105.9 109.91C106.15 109.89 106.43 109.88 106.7 109.88C107.5 109.88 107.96 110.03 108.11 110.33C108.3 110.73 108.29 111.3 108.28 111.8V111.91C108.28 112.04 108.28 112.16 108.28 112.27C108.3 113.11 108.31 113.96 108.3 114.82Z" fill="#1E1E1E"/>
<path d="M156.46 88.63C156.39 85.81 156.32 82.99 156.22 80.17C156.13 77.35 156.02 74.53 155.9 71.71C155.78 68.89 155.64 66.08 155.49 63.26C155.34 60.45 155.18 57.63 155 54.82C154.82 52.01 154.63 49.21 154.43 46.4C154.22 43.6 154.01 40.8 153.77 38L153.69 37.08C153.6 35.96 152.74 35.46 151.96 35.37C151.91 35.37 151.86 35.35 151.82 35.34L151.55 35.25C151.51 35.24 151.47 35.22 151.42 35.19C151.17 35.05 150.92 34.98 150.61 34.97L6.52001 29.95C6.43001 29.95 6.35001 29.93 6.27001 29.9L6.16001 29.85C6.00001 29.78 5.75001 29.7 5.45001 29.7C5.05001 29.7 4.67001 29.85 4.32001 30.15C0.640007 33.34 0.990007 38.98 1.31001 43.97L1.32001 44.12C1.35001 44.67 1.39001 45.22 1.41001 45.75L2.57001 68.37C2.72001 71.37 2.87001 74.37 3.01001 77.38L3.08001 78.94C3.61001 90.2 4.15001 101.84 5.22001 113.26C5.75001 118.91 6.40001 124.03 7.19001 128.92C7.56001 131.2 8.00001 133.59 8.62001 136.68C8.65001 136.83 8.69001 137.03 8.81001 137.23C8.94001 137.45 9.13001 137.6 9.30001 137.71C10.05 138.21 10.98 138.49 12.08 138.56C12.31 138.57 12.53 138.58 12.76 138.58C13.4 138.58 14.04 138.54 14.66 138.49C15.09 138.46 15.53 138.43 15.96 138.41L20.12 138.27C22.89 138.18 25.67 138.09 28.44 138C33.99 137.82 39.54 137.66 45.09 137.51C50.64 137.36 56.19 137.22 61.74 137.09C67.28 136.96 72.82 136.84 78.36 136.74C83.89 136.63 89.41 136.54 94.94 136.46C100.44 136.38 105.95 136.31 111.45 136.25C114.77 136.21 118.08 136.18 121.4 136.16C124.18 136.14 126.96 136.12 129.74 136.1C132.52 136.08 135.29 136.07 138.07 136.06C140.83 136.05 143.59 136.04 146.35 136.04L151.81 136.03L152.09 136.04C152.58 136.05 153.19 136.07 153.7 135.71C154.22 135.34 154.45 134.65 154.23 134.09C154.16 133.92 154.05 133.76 153.89 133.6C153.8 133.51 153.69 133.42 153.58 133.35C152.91 132.85 152 132.27 150.95 132.2C150.05 132.14 149.13 132.18 148.23 132.21C147.83 132.23 147.44 132.24 147.05 132.25L13.21 134.66C12.72 134.67 12.16 134.68 11.76 134.44C11.14 134.06 10.98 133.12 10.87 132.27C7.90001 107.99 6.16001 83.3 5.71001 58.85C5.70001 58.42 5.71001 57.94 5.95001 57.73C6.23001 57.46 6.84001 57.52 7.39001 57.53C54.57 57.53 102.33 59.66 149.32 63.86C150.27 63.95 151.24 64.08 151.75 64.72C152.14 65.21 152.2 65.92 152.24 66.73C153.26 86.73 153.53 107.01 153.02 127.02C152.99 128.26 153.18 129.33 153.58 130.22C153.77 130.63 154.39 131.67 155.26 131.66C155.51 131.65 155.98 131.53 156.26 130.81C156.46 130.28 156.46 129.7 156.45 129.19C156.45 129.04 156.45 128.9 156.45 128.76L156.5 126.65C156.53 125.24 156.56 123.84 156.58 122.44C156.63 119.63 156.66 116.81 156.68 114C156.7 111.18 156.7 108.37 156.69 105.55C156.68 102.73 156.66 99.91 156.62 97.09C156.58 94.27 156.52 91.45 156.46 88.63ZM151.87 59.85C151.88 60.08 151.8 60.3 151.63 60.45C151.46 60.6 151.23 60.66 151.02 60.63L150.06 60.46L149.95 60.44C112.59 57.08 74.79 55.02 37.6 54.31C27.46 54.12 18.43 54.03 10.14 54.03C8.95001 54.03 7.78001 54.03 6.62001 54.04H5.93001C5.54001 54.04 5.22001 53.73 5.20001 53.33L5.17001 52.64C5.12001 51.69 5.07001 50.73 5.02001 49.78L4.96001 48.8C4.79001 45.79 4.65001 43.28 4.56001 40.69C4.49001 38.71 4.41001 36.25 5.52001 34.2L5.73001 33.81C5.87001 33.56 6.09001 33.4 6.40001 33.43L149.74 38.43C150.11 38.44 150.42 38.74 150.45 39.12L150.5 39.76C150.98 45.7 151.41 51.98 151.82 58.95L151.87 59.85Z" fill="#1E1E1E"/>
<path d="M144.52 87.57L144.57 86.84C144.59 86.64 144.68 86.46 144.83 86.33C144.98 86.2 145.17 86.14 145.37 86.16L146.17 86.22C146.43 86.2 146.9 85.95 147.14 85.7C147.43 85.41 147.65 84.88 147.64 84.54C147.63 84.3 147.57 83.71 147.18 83.29L146.76 82.96L146.61 82.88C146.53 82.85 146.36 82.81 146.12 82.78L145.47 82.71C145.09 82.67 144.81 82.34 144.81 81.95L144.82 81.28C144.89 78.19 144.81 75.43 144.58 72.84C144.49 71.91 143.92 70.97 142.87 70.97C142.41 70.97 141.89 71.23 141.53 71.63C141.26 71.93 141.13 72.27 141.16 72.57C141.41 75.35 141.49 78.28 141.41 81.53L141.4 82.13C141.39 82.49 141.13 82.79 140.78 82.85L139.92 82.99C139.63 83.04 139.42 83.07 139.17 83.13C138.92 83.2 138.5 83.54 138.29 83.89C138.05 84.3 138.01 84.87 138.1 85.17C138.26 85.68 138.54 86.07 138.85 86.24C139.11 86.38 139.38 86.45 139.7 86.46L140.44 86.49C140.64 86.5 140.83 86.59 140.96 86.74C141.09 86.89 141.16 87.09 141.14 87.29L141.08 88.04C140.82 91.44 140.44 94.99 140.1 98.18C139.25 106.13 138.37 114.35 138.98 122.43C139.05 123.31 139.56 123.73 139.97 123.94C140.27 124.09 140.61 124.16 140.93 124.16C141.3 124.16 141.66 124.07 141.93 123.88C142.28 123.63 142.44 123.24 142.39 122.66C141.75 114.31 142.65 105.96 143.52 97.83C143.9 94.47 144.27 90.99 144.52 87.57Z" fill="#1E1E1E"/>
<path d="M160.67 40.13L160.61 39.56C160.39 37.52 160.17 35.41 159.83 33.39C159.35 30.53 157.89 28.6 155.59 27.81C153.78 27.18 151.56 27.25 149.42 27.32L149.15 27.33C148.55 27.35 147.96 27.37 147.39 27.37L138.02 27.38C137.11 27.38 136.34 28.17 136.34 29.09C136.34 29.54 136.51 29.95 136.84 30.29C137.16 30.62 137.58 30.8 138.01 30.8L145.93 30.79C146.65 30.79 147.42 30.77 148.24 30.75C149.45 30.72 150.95 30.68 152.26 30.73L152.4 30.8L152.45 30.75C152.62 30.77 152.79 30.78 153.01 30.8L153.26 30.82C153.42 30.86 153.57 30.89 153.72 30.95C154.12 31.09 154.51 31.15 154.85 31.19C154.97 31.25 155.13 31.35 155.25 31.43C155.29 31.47 155.33 31.51 155.38 31.55C155.46 31.63 155.54 31.71 155.68 31.87C155.71 31.9 155.73 31.93 155.76 31.96C155.83 32.05 155.89 32.14 155.95 32.23C155.99 32.28 156.02 32.34 156.05 32.4L156.14 32.58C156.24 32.84 156.29 32.98 156.31 33.04C156.49 33.65 156.6 34.22 156.68 34.73L157.53 41.93C157.64 42.84 158.14 43.82 159.22 43.82C159.66 43.82 160.23 43.53 160.58 43.13C160.75 42.93 160.95 42.63 160.91 42.28C160.83 41.56 160.75 40.85 160.67 40.13Z" fill="#1E1E1E"/>
<path d="M71.66 72.93C71.62 72.85 71.58 72.78 71.51 72.72C71.39 72.6 71.24 72.54 71.08 72.49C70.45 72.28 69.76 72.27 69.13 72.47C68.94 72.53 68.75 72.61 68.61 72.75C68.33 73.03 68.3 73.47 68.34 73.87C68.54 75.75 68.41 77.73 68.34 79.62L19.64 79.61C19.53 79.61 19.39 79.62 19.22 79.63L19.1 79.64C18.85 79.66 18.57 79.67 18.3 79.67C17.5 79.67 17.04 79.52 16.89 79.22C16.7 78.82 16.71 78.25 16.72 77.75V77.64C16.72 77.51 16.72 77.39 16.72 77.28C16.7 76.43 16.69 75.58 16.7 74.72V73.84C16.7 72.65 16.7 71.42 16.89 70.36L16.92 70.17C16.98 69.83 17.03 69.67 17.41 69.53C17.9 69.36 18.43 69.31 18.95 69.27C19.13 69.25 19.31 69.24 19.48 69.22C21.05 69.03 62.74 68.85 64.46 68.8C64.77 68.79 65.08 68.79 65.37 68.79C65.88 68.79 66.35 68.8 66.81 68.83C67.79 68.89 68.88 69.05 69.73 68.44C69.78 68.4 69.83 68.36 69.86 68.31C69.89 68.26 69.89 68.2 69.9 68.14C69.94 67.75 69.98 67.35 70.02 66.96C70.03 66.86 70.04 66.76 70.03 66.67C70.02 66.48 69.94 66.3 69.83 66.15C69.53 65.77 69.03 65.64 68.55 65.56C66.53 65.23 64.42 65.36 62.37 65.37C60.72 65.37 59.07 65.38 57.42 65.38C55.36 65.39 53.29 65.39 51.23 65.4C48.94 65.41 46.65 65.42 44.36 65.44C42.04 65.45 39.72 65.47 37.39 65.49C35.23 65.51 33.06 65.52 30.9 65.54C29.09 65.56 27.27 65.58 25.46 65.6C24.19 65.62 22.92 65.64 21.64 65.67C21.12 65.68 20.59 65.67 20.07 65.73C19.78 65.76 19.49 65.79 19.18 65.82C17.53 65.97 15.82 66.12 14.68 67.31C13.52 68.53 13.46 70.29 13.41 71.99L13.39 72.47C13.31 74.55 13.25 76.59 13.4 78.64C13.57 80.9 14.64 82.39 16.41 82.83C17.22 83.04 18.11 83.03 18.98 83.04H19.33L69.7 83.05C70.19 83.05 70.6 82.88 70.89 82.55C71.21 82.19 71.36 81.67 71.31 81.11C71.54 80.83 71.66 80.49 71.68 80.09C71.73 78.79 71.75 77.48 71.75 76.18C71.75 75.52 71.75 74.85 71.73 74.19C71.75 73.81 71.83 73.3 71.66 72.93Z" fill="#1E1E1E"/>
<path d="M137.11 140.71C117.61 140.99 98.1101 141.26 78.6101 141.54C76.0401 141.58 76.0301 145.66 78.6101 145.62C98.1101 145.34 117.61 145.07 137.11 144.79C139.68 144.76 139.69 140.68 137.11 140.71Z" fill="#1E1E1E"/>
<path d="M98.3601 149.53C81.7001 148.89 65.0301 148.78 48.3601 149.22C43.6301 149.34 38.9101 149.51 34.1901 149.72C31.6301 149.83 31.6101 153.91 34.1901 153.8C50.8401 153.06 67.5201 152.85 84.1801 153.19C88.9101 153.29 93.6301 153.43 98.3501 153.61C100.93 153.7 100.93 149.62 98.3601 149.53Z" fill="#1E1E1E"/>
<path d="M76.27 156.11C71.5 156.13 66.74 156.38 62 156.84C60.92 156.94 60 157.7 60 158.88C60 159.9 60.92 161.02 62 160.92C66.75 160.46 71.51 160.22 76.27 160.19C77.35 160.18 78.27 159.26 78.27 158.15C78.27 157.05 77.35 156.11 76.27 156.11Z" fill="#1E1E1E"/>
<path d="M72.1801 45.04C71.6701 44.86 71.1901 44.59 70.7901 44.22C70.3501 43.81 70.1001 43.3 69.7101 42.85C68.8001 41.8 67.3301 41.95 66.4001 42.89C66.0301 43.26 65.8501 43.93 65.4601 44.25C65.2101 44.46 64.9301 44.31 64.6701 44.12C63.7801 43.48 63.3401 42.32 62.5101 41.59C61.8801 41.03 60.9401 41.1 60.4801 41.86C60.1501 42.4 59.8201 42.94 59.4901 43.48C59.4101 43.61 59.3001 43.83 59.1801 44.06C59.1701 44.04 59.1501 44.02 59.1401 44C58.9601 43.74 58.7801 43.48 58.6001 43.23C58.1801 42.63 57.7501 42.03 57.3301 41.43C56.7301 40.58 55.7001 40.6 55.1001 41.43C54.7201 41.96 54.3301 42.5 53.9501 43.03C53.7401 43.32 53.5401 43.61 53.3301 43.89C53.2301 43.79 53.1501 43.71 53.1201 43.68C52.9201 43.45 52.7301 43.22 52.5301 43C52.0701 42.47 51.6201 41.94 51.1601 41.4C50.5701 40.71 49.5801 41.02 49.1301 41.67C48.8001 42.15 48.4701 42.63 48.1301 43.11C47.9801 43.33 47.8301 43.55 47.6801 43.76L47.6201 43.84C47.3901 43.58 47.1701 43.29 46.9801 43.06C46.5601 42.56 46.1601 42.05 45.7701 41.53C45.3301 40.93 44.3101 40.53 43.7401 41.26C43.1901 41.97 42.6401 42.68 42.0901 43.39C41.9001 43.64 41.6301 44.19 41.3401 44.32C41.2001 44.39 41.1901 44.32 41.0001 44.15C40.4801 43.66 40.1801 42.94 39.7301 42.38C39.2801 41.82 38.6701 41.31 37.9701 41.13C36.3201 40.69 35.3101 41.94 34.5201 43.19C34.4501 43.3 34.2401 43.5 34.2001 43.62C34.2001 43.62 34.2001 43.62 34.2001 43.63C33.9801 43.4 33.7801 43.15 33.5701 42.91C32.9601 42.18 32.4001 41.43 31.8501 40.65C31.2801 39.84 30.1801 39.77 29.6201 40.65C28.7801 41.97 27.8501 43.21 26.8301 44.38C26.0101 43.14 25.1901 41.91 24.3701 40.67C23.8901 39.95 22.9801 39.8 22.3401 40.4C21.6401 41.06 20.9301 41.72 20.2301 42.38C19.9201 42.67 19.6101 42.97 19.2901 43.26L18.7001 43.81C18.6601 43.85 18.6101 43.89 18.5701 43.93C17.2901 43.09 16.2501 41.53 15.5501 40.26C15.0901 39.42 13.7801 39.39 13.3201 40.26C12.3001 42.22 11.2501 44.16 10.1601 46.08C9.33008 47.55 11.5601 48.88 12.3901 47.41C13.1201 46.11 13.8401 44.79 14.5501 43.47C14.8101 43.81 15.0701 44.13 15.3501 44.45C16.0501 45.22 16.9801 46.24 17.9801 46.58C19.3301 47.04 20.2101 45.97 21.1101 45.12C21.7401 44.52 22.3801 43.93 23.0201 43.33C23.8601 44.6 24.7101 45.87 25.5501 47.15C26.0101 47.84 26.9701 48.06 27.5801 47.42C28.7301 46.21 29.8001 44.92 30.7701 43.55C31.0501 43.92 31.3401 44.29 31.6401 44.65C32.2501 45.39 32.8901 46.22 33.9001 46.32C34.9001 46.42 35.7401 45.86 36.3401 45.09C36.6201 44.73 36.8101 44.31 37.0801 43.94C37.1301 43.87 37.1901 43.74 37.2701 43.7C37.2801 43.69 37.2901 43.69 37.3001 43.68C37.3101 43.68 37.3201 43.69 37.3301 43.69C37.8901 43.82 38.4001 45.08 38.7201 45.5C39.3001 46.25 40.0701 46.9 41.0401 46.99C42.0901 47.08 42.8901 46.53 43.5301 45.73C43.9001 45.26 44.2701 44.78 44.6301 44.3C44.8501 44.58 45.0801 44.86 45.3101 45.13C45.8801 45.79 46.4601 46.55 47.3401 46.74C48.3001 46.94 48.9901 46.33 49.5201 45.6C49.7901 45.22 50.0601 44.83 50.3301 44.45C50.6401 44.81 50.9501 45.17 51.2601 45.54C51.8401 46.22 52.4501 46.91 53.4101 46.89C54.3801 46.87 54.9201 46.06 55.4401 45.35C55.6801 45.01 55.9301 44.67 56.1701 44.33L56.8801 45.34C57.3901 46.06 57.8801 46.97 58.7801 47.21C59.7501 47.47 60.4701 46.8 60.9501 46.03C61.2201 45.6 61.4801 45.17 61.7401 44.73C62.1501 45.29 62.5701 45.84 63.1401 46.26C64.1401 46.99 65.5201 47.29 66.6301 46.63C67.2001 46.29 67.5701 45.74 67.9101 45.17C67.9001 45.19 67.9601 45.09 68.0201 44.99C68.0801 45.08 68.1401 45.17 68.2101 45.26C69.0401 46.38 70.1601 47.14 71.4601 47.59C73.0701 48.13 73.7401 45.58 72.1801 45.04Z" fill="#1E1E1E"/>
<path d="M13.8301 17.6301C12.1601 15.9501 10.5501 14.2101 9.00005 12.4101C8.24005 11.5201 7.49005 10.6201 6.76005 9.71007C6.41005 9.26007 6.06005 8.82007 5.71005 8.37007C5.61005 8.23007 5.50005 8.10007 5.40005 7.97007C5.38005 7.94007 5.36005 7.92007 5.34005 7.89007C5.14005 7.63007 4.95005 7.36007 4.75005 7.10007C4.12005 6.25007 3.00005 5.72007 2.02005 6.37007C1.19005 6.91007 0.620053 8.24007 1.30005 9.16007C4.27005 13.1801 7.49005 16.9801 11.0001 20.5201C11.7501 21.2701 13.0901 21.3401 13.8301 20.5201C14.5601 19.7001 14.6201 18.4301 13.8301 17.6301Z" fill="#59C69F"/>
<path d="M27.63 14.5C24.9 10.59 22.57 6.40004 20.68 2.00004C20.26 1.02004 18.78 0.720038 17.94 1.27004C16.94 1.93004 16.77 3.01004 17.22 4.06004C19.11 8.46004 21.44 12.64 24.17 16.55C24.78 17.42 25.94 17.92 26.91 17.28C27.75 16.73 28.28 15.43 27.63 14.5Z" fill="#59C69F"/>
<path d="M41.6701 4.83003C41.7401 3.76003 40.7001 2.74003 39.6701 2.79003C38.5301 2.84003 37.7401 3.69003 37.6701 4.83003C37.4601 8.08003 37.4001 11.35 37.4901 14.61C37.5201 15.68 38.3901 16.7 39.4901 16.65C40.5501 16.6 41.5201 15.75 41.4901 14.61C41.4001 11.35 41.4601 8.09003 41.6701 4.83003Z" fill="#59C69F"/>
</svg>
