<svg width="387" height="284" viewBox="0 0 387 284" fill="none" xmlns="http://www.w3.org/2000/svg">
<path d="M96.2526 264.015C143.804 288.578 201.678 284.372 247.47 280.359C293.466 276.087 327.088 272.001 345.31 255.601C363.532 239.201 365.77 210.471 373.334 179.512C380.898 148.552 393.878 115.63 379.64 84.3296C365.693 53.0377 324.529 23.3683 285.819 12.2572C247.019 0.879522 210.381 8.05204 168.342 10.3201C126.392 12.8548 79.0413 10.4851 45.7231 30.1646C12.405 49.844 -6.76686 91.0475 2.20576 138.579C11.381 185.851 48.6115 239.185 96.2526 264.015Z" fill="#F5F5F5"/>
<path d="M159.884 77.1292C156.576 72.8283 150.921 68.9052 146.345 66.0293C143.372 64.1579 139.079 61.5482 135.06 60.8271C135.231 58.7582 134.032 56.7151 131.41 57.007C120.913 58.183 113.346 69.0253 119.85 78.7173C121.247 80.7948 123.209 82.4774 124.452 84.6407C126.123 87.5422 126.14 91.0533 126.482 94.2897C126.954 98.7794 128.265 103.132 133.132 104.308C143.603 106.849 154.409 101.99 158.736 92.1264C160.715 87.6367 163.243 81.4901 159.884 77.1292Z" fill="#F7C300"/>
<path d="M199.875 19.312C194.888 12.3671 186.096 5.37066 178.024 2.49483C170.252 -0.277983 156.945 0.417367 152.986 8.85599C151.521 7.89452 149.824 7.27643 147.768 7.22492C142.026 7.0704 137.253 11.0794 135.017 16.1443C132.326 22.2393 132.224 29.5963 133.192 36.0862C133.672 39.3054 134.323 42.8852 135.934 45.7782C137.613 48.7999 140.664 50.1048 142.909 52.56C144.314 54.0966 146.945 53.985 148.359 52.56C150.972 49.9245 154.34 48.3535 157.142 45.9499C159.447 43.9754 161.204 41.5031 162.755 38.9105C165.625 34.0946 167.759 28.8838 168.427 23.3553C174.554 28.4975 181.915 31.6823 189.987 32.7039C193.928 33.2018 199.892 34.4208 202.36 30.3088C204.562 26.6089 202.077 22.3767 199.875 19.312Z" fill="#F7C300"/>
<path d="M167.707 114.42C167.75 114.438 167.785 114.463 167.827 114.489C168.59 114.867 169.395 115.056 170.227 114.97C170.235 114.978 170.244 114.978 170.244 114.987C170.544 114.875 170.835 114.755 171.135 114.618C171.846 114.3 172.258 114.077 172.583 113.416C172.892 112.789 172.969 112.249 172.943 111.579C172.892 110.326 172.506 108.841 171.512 108.016C170.484 107.167 168.907 106.566 167.596 106.609C166.876 106.634 166.473 106.171 166.371 105.63C166.114 105.767 165.865 105.939 165.668 106.179C164.768 107.27 164.177 108.497 164.074 109.776C163.937 110.171 163.869 110.592 163.894 111.004C163.869 111.244 163.869 111.485 163.929 111.733C163.997 112.197 164.151 112.601 164.374 113.013C164.845 113.905 165.951 114.549 166.962 114.498C167.142 114.489 167.527 114.463 167.707 114.42Z" fill="#59C69F"/>
<path d="M193.149 100.47C192.618 101.295 192.078 102.11 191.478 102.883C191.221 103.226 190.887 103.776 190.552 104.196C189.627 104.359 188.787 104.909 188.059 105.853C187.408 106.711 187.605 108.008 188.059 108.883C188.393 109.527 188.556 110.137 188.693 110.849C189.164 113.261 192.121 113.493 193.706 112.171C194.434 111.562 194.768 110.635 195.368 109.914C196.191 108.935 196.936 107.965 197.176 106.677C197.27 106.179 197.245 105.673 197.142 105.201C197.545 104.634 197.947 104.067 198.324 103.484C200.432 100.247 195.24 97.2341 193.149 100.47Z" fill="#59C69F"/>
<path d="M128.342 166.829C127.417 165.662 126.123 165.447 124.795 165.576C123.758 165.327 122.704 165.181 121.633 165.095C121.264 165.069 120.913 165.138 120.587 165.267C120.142 165.026 119.653 164.872 119.182 164.872C117.417 164.872 116.354 166.254 116.183 167.877C116.071 168.958 116.226 169.997 116.371 171.07C116.414 171.405 116.466 171.731 116.483 172.066C116.217 172.495 116.054 173.002 116.063 173.577C116.063 173.748 116.071 173.92 116.071 174.092C116.106 176.744 119.045 177.766 120.887 176.418C121.624 176.358 122.361 176.289 123.089 176.212C124.435 176.066 125.626 175.577 126.937 175.362C128.196 175.165 129.165 173.671 129.139 172.461C129.088 170.744 129.473 168.254 128.342 166.829Z" fill="#59C69F"/>
<path d="M102.189 162.202C102.892 160.683 102.498 158.545 100.424 157.884C98.8819 157.386 97.7594 156.888 96.414 156.116C95.0516 155.326 93.2778 155.369 92.1039 156.476C90.3472 158.133 88.4364 162.64 89.1476 165.052C89.6703 166.829 91.5812 167.499 93.0722 168.246C93.8776 168.649 94.7602 169.233 95.6771 169.654C95.7971 169.885 95.9342 170.1 96.097 170.297C96.1398 170.426 96.1741 170.512 96.1741 170.521C96.4312 170.967 96.8339 171.31 97.2538 171.602C98.2306 172.263 99.3874 172.306 100.459 171.834C101.504 171.371 102.284 170.366 102.438 169.224C102.558 168.34 102.267 167.808 102.001 167.216C102.686 165.559 102.935 163.859 102.189 162.202Z" fill="#59C69F"/>
<path d="M302.531 130.25C298.709 123.872 290.791 126.147 284.793 126.799C276.087 127.744 267.338 127.692 258.624 126.842C254.236 126.413 254.262 133.281 258.624 133.71C265.153 134.345 271.708 134.551 278.255 134.199C281.528 134.019 284.793 133.701 288.041 133.281C291.323 132.851 296.233 131.126 297.055 135.847C297.561 138.732 296.781 142.492 296.627 145.402C296.455 148.681 296.301 151.969 296.113 155.249C295.727 162.013 295.041 168.632 292.779 175.053C291.305 179.225 297.929 181.028 299.386 176.882C302.111 169.156 302.659 161.026 303.088 152.905C303.319 148.458 303.568 144.011 303.782 139.565C303.953 136.414 304.219 133.066 302.531 130.25Z" fill="#F7C300"/>
<path d="M301.288 134.955C300.817 132.491 299.797 130.422 298.255 128.8C298.169 128.714 298.083 128.637 297.981 128.576C297.818 128.276 297.552 128.044 297.227 127.915C294.356 126.765 291.245 126.791 288.855 126.945C287.184 127.057 285.513 127.194 283.851 127.34C282.497 127.46 281.134 127.581 279.772 127.675C273.876 128.096 267.801 128.405 261.177 128.619C248.504 129.023 235.77 128.997 223.902 128.911C220.895 128.885 217.878 128.86 214.871 128.834C211.606 128.808 208.341 128.774 205.085 128.757C202 128.731 198.915 128.722 195.839 128.714C194.245 128.714 192.652 128.714 191.049 128.714C190.629 128.705 190.192 128.705 189.764 128.697C188.718 128.679 187.639 128.654 186.593 128.774C185.171 128.937 184.168 129.787 183.783 131.169C183.5 132.182 183.363 133.264 183.226 134.311C183.166 134.775 183.106 135.238 183.037 135.693L176.568 176.719C174.863 174.993 172.352 174.272 170.064 173.809C165.754 172.924 161.555 172.426 157.588 172.323C153.312 172.212 149.173 172.555 145.266 173.345C142.009 174.006 138.873 175.148 135.84 176.247C135.12 176.504 134.4 176.77 133.672 177.028C132.652 177.388 131.778 177.68 130.964 177.921C130.201 168.581 131.204 161.387 134.109 155.309C134.512 154.476 134.049 153.643 133.372 153.317C132.669 152.982 131.941 153.231 131.607 153.927C130.021 157.24 128.959 160.846 128.385 164.855C128.102 164.477 127.648 164.211 127.074 164.305C123.166 164.906 118.942 163.747 115.232 162.64C111.358 161.481 107.554 160.047 103.775 158.605C100.082 157.197 96.4313 155.669 92.9095 153.875C91.2043 153.008 89.5162 152.09 87.8967 151.068C86.4143 150.132 85.0775 149.059 84.272 147.462C84.2635 147.445 84.2463 147.428 84.2378 147.411C84.3149 147.291 84.3749 147.171 84.452 147.05C87.0312 142.896 90.3131 139.238 93.1837 136.208C95.703 133.547 98.3079 130.894 100.836 128.327C101.847 127.297 102.849 126.276 103.861 125.246L104.632 124.456C107.879 121.125 111.238 117.683 114.786 114.575C119.036 110.841 123.68 107.664 128.573 105.115C128.693 105.055 128.805 104.978 128.89 104.892C130.03 105.827 131.401 106.548 132.892 106.969C135.951 107.845 139.387 107.579 143.398 106.171C146.765 104.986 149.55 103.75 151.915 102.402L156.671 108.36C157.742 109.716 158.847 111.124 160.167 112.309C163.192 115.039 167.039 115.725 170.758 116.395L172.832 116.773C173.406 116.884 173.997 116.987 174.588 117.09C174.614 117.099 174.64 117.099 174.665 117.107C175.754 117.305 176.851 117.485 177.956 117.623C180.15 117.889 182.463 117.811 185.017 117.382C188.384 116.816 192.609 115.725 195.488 112.309C197.981 109.347 199.233 105.656 200.372 101.801C205.633 103.029 210.543 104.608 214.974 106.506C221.786 109.416 227.433 113.193 231.76 117.734C234.297 120.395 236.379 123.357 237.964 126.533C238.35 127.315 239.164 127.418 239.763 127.126C240.415 126.799 240.877 125.993 240.458 125.143C234.913 113.991 223.38 105.527 207.09 100.677C202.677 99.3632 198.35 98.3502 194.228 97.6549C194.168 97.5862 194.1 97.5175 194.023 97.4488C191.735 94.3412 191.135 90.2292 190.689 86.8383C192.043 86.246 193.397 85.4305 194.802 84.3402C196.61 82.9409 198.427 81.224 200.518 78.932C202.686 76.554 204.057 74.5796 204.974 72.5279C206.927 68.1154 206.216 63.4883 205.531 59.0244C205.325 57.6766 205.111 56.2773 204.974 54.9209C204.288 48.0189 204.537 41.0826 205.711 34.3008C205.719 34.2665 205.719 34.2321 205.728 34.1978C207.99 32.6612 209.438 29.9742 209.627 26.9524C209.832 23.6646 208.478 20.1363 205.599 16.4535C203.508 13.7751 200.749 11.3028 197.416 9.1223C194.674 7.32813 191.572 5.73999 187.656 4.12609C183.106 2.24607 179.241 1.08716 175.488 0.486238C170.475 -0.32071 165.814 -0.123265 161.658 1.07857C156.474 2.5637 153.372 4.8987 152.164 8.21234C151.898 8.94203 152.224 9.63738 152.96 9.9035C153.663 10.161 154.58 9.9035 154.897 9.03646C155.711 6.80447 158.076 5.13049 162.146 3.91148C165.428 2.92425 169.07 2.62379 172.969 3.01868C176.328 3.36207 179.961 4.25486 184.057 5.76574C187.51 7.03626 190.544 8.41837 193.32 9.98076C196.473 11.7492 199.035 13.6378 201.169 15.7582C203.963 18.531 205.685 21.1922 206.43 23.8877C207.15 26.4889 206.799 29.9055 204.4 31.6825C203.046 32.6869 201.298 32.8844 199.772 32.9359C198.084 33.0046 196.242 32.9788 194.16 32.8844C186.328 32.4981 178.753 29.5621 172.832 24.6174C172.309 24.1796 171.692 24.2054 171.221 24.4372C170.809 24.2397 170.312 24.2397 169.893 24.4457C169.413 24.6775 169.139 25.1325 169.147 25.6905C169.173 30.4034 167.425 35.2451 163.654 40.9281C161.084 44.7912 157.485 49.5813 152.386 52.3971C150.047 53.6848 147.493 54.5346 144.811 54.9209C144.169 53.2469 143.012 51.7017 141.29 50.2166C140.561 49.5899 139.799 49.0148 138.959 48.3881C138.745 48.2336 138.53 48.0619 138.316 47.8902C137.982 47.6241 137.648 47.3494 137.296 47.109C137.416 46.903 137.476 46.6626 137.476 46.4051L137.485 42.233C137.494 39.6833 137.502 37.1337 137.511 34.5841C137.528 31.0215 137.545 26.9868 138.248 23.0894C138.83 19.853 139.833 17.415 141.307 15.638C143.192 13.3545 145.908 12.4359 148.753 13.1313C152.438 14.0241 155.171 16.9514 157.57 19.9818C157.87 20.3595 158.29 20.5484 158.727 20.4797C159.224 20.411 159.67 20.0247 159.876 19.5182C160.081 19.0117 159.995 18.4709 159.661 18.0417C157.459 15.2603 154.7 12.2299 150.87 10.7963C147.356 9.48286 143.629 9.95501 140.904 12.0754C135.437 16.3333 134.837 24.1024 134.692 31.6911C134.623 35.1421 134.623 38.6532 134.623 42.0441C134.623 43.5035 134.623 44.9543 134.623 46.4136C134.623 46.4651 134.623 46.5252 134.632 46.5767C133.106 47.109 131.829 48.8259 131.452 49.3753C130.356 50.972 129.859 52.9293 130.03 54.9467C129.704 54.9553 129.379 54.9896 129.062 55.0411C127.185 55.3587 125.617 56.4318 124.46 57.3332C123.158 58.3462 121.821 59.4707 120.776 60.8614C118.856 63.4282 118.076 67.3256 118.693 71.2831C119.293 75.129 121.735 78.2709 125.06 79.4985C125.24 79.5672 125.429 79.5844 125.583 79.593C125.634 79.8247 125.737 80.0394 125.908 80.254C126.902 81.5073 128.033 82.9238 128.196 84.5119C128.342 85.894 127.785 87.3191 127.245 88.684C127.091 89.0617 126.945 89.4395 126.817 89.8086C125.728 92.8819 124.649 96.8994 125.994 100.728C126.243 101.424 126.585 102.102 127.005 102.754C122.447 105.141 118.076 108.094 114.032 111.519C110.056 114.884 106.354 118.67 102.781 122.335L102.455 122.67C101.376 123.778 100.296 124.877 99.2162 125.975C96.5427 128.697 93.775 131.512 91.1015 134.337C88.0852 137.53 84.6319 141.393 81.8985 145.857C80.8273 147.608 79.3021 150.278 78.4623 153.12C77.5969 156.056 77.9996 158.537 79.602 160.099C79.6705 160.168 79.7562 160.236 79.8505 160.288C81.8642 162.357 84.3063 164.752 87.1084 166.846C88.1195 167.602 89.1906 168.297 90.3817 168.975C90.3731 172.083 90.3817 175.388 90.5188 178.71C90.6645 182.29 90.8701 185.501 91.7955 188.583C92.7981 191.931 94.6404 194.557 97.2625 196.394C99.7475 198.137 102.901 199.227 106.903 199.708C110.407 200.129 113.972 199.957 117.425 199.777L117.776 199.76C121.564 199.571 125.249 199.322 128.762 198.36C130.716 197.82 132.635 197.15 134.443 196.489C134.606 197.21 135.017 197.897 135.6 198.403C136.825 199.476 138.496 199.519 139.644 199.459L140.664 199.408C141.898 199.339 143.175 199.279 144.434 199.253C148.205 199.184 152.044 199.33 155.762 199.476C158.47 199.579 161.264 199.691 164.023 199.708C167.759 199.734 171.444 199.485 175.008 199.236C176.405 199.142 177.853 199.219 179.25 199.305C181.212 199.416 183.243 199.536 185.231 199.167C185.557 199.227 185.882 199.279 186.208 199.322C190.424 199.82 194.725 200 199.044 200C204.408 200 209.807 199.725 215.094 199.459L217.459 199.339C219.335 199.245 221.212 199.15 223.088 199.047C231.666 198.592 240.535 198.12 249.266 198.309C250.963 198.343 252.66 198.378 254.356 198.412L257.535 198.472C265.941 198.635 274.476 198.42 282.719 198.197L285.513 198.129C287.929 198.094 290.671 198.043 291.88 195.339C292.325 194.343 292.617 193.27 292.899 192.231C292.985 191.913 293.071 191.596 293.165 191.278C293.593 189.793 294.013 188.299 294.407 186.806C295.958 181.011 297.295 175.07 298.383 169.164C299.463 163.284 300.32 157.275 300.928 151.317C301.263 148.098 301.502 145.145 301.674 142.295C301.708 140.088 301.777 137.513 301.288 134.955ZM162.643 107.767C162.343 108.48 162.069 109.193 161.786 109.905C160.707 108.866 159.747 107.682 158.83 106.514L154.297 100.84C155.463 99.9985 156.534 99.0284 157.476 97.9553C159.421 100.316 161.324 102.385 163.286 104.274C163.483 104.462 163.706 104.668 163.92 104.866C163.792 105.106 163.68 105.347 163.569 105.596C163.252 106.317 162.943 107.038 162.643 107.767ZM173.74 114.026L173.012 113.888C172.446 113.785 171.863 113.691 171.281 113.596C168.71 113.176 166.079 112.738 163.894 111.502C164.263 110.566 164.623 109.63 165.017 108.703C165.034 108.66 165.188 108.3 165.128 108.428C165.188 108.283 165.257 108.128 165.317 107.982C165.445 107.682 165.574 107.381 165.702 107.081C165.797 106.875 165.882 106.66 165.985 106.454C166.311 106.66 166.654 106.849 167.013 107.012C168.504 107.699 170.073 107.974 171.401 108.145C172.206 108.248 173.072 108.36 173.989 108.463C173.997 110.326 173.92 112.18 173.74 114.026ZM179.096 114.85C178.153 114.772 177.202 114.635 176.259 114.472C176.456 112.558 176.559 110.626 176.559 108.695C179.558 108.883 182.832 108.772 185.848 107.776C186.508 109.622 187.27 111.442 188.136 113.202C188.204 113.339 188.307 113.45 188.419 113.545C187.459 113.888 186.405 114.172 185.214 114.395C182.857 114.858 180.912 114.996 179.096 114.85ZM193.997 100.488C195.102 100.677 196.268 100.9 197.527 101.157C196.61 104.265 195.685 107.046 194.006 109.476C193.097 110.789 191.949 111.828 190.484 112.644C190.501 112.403 190.467 112.154 190.347 111.914C190.141 111.485 189.935 111.055 189.738 110.618C189.635 110.403 189.541 110.18 189.447 109.965C189.395 109.854 189.353 109.751 189.301 109.639C189.275 109.579 189.121 109.227 189.25 109.527C188.873 108.652 188.539 107.759 188.221 106.858C188.213 106.832 188.204 106.815 188.196 106.789C188.659 106.54 189.104 106.274 189.541 105.973C191.658 104.505 193.2 102.617 193.997 100.488ZM191.521 98.8739C190.235 103.398 185.325 105.432 181.469 105.802C178.616 106.076 175.839 105.802 172.515 105.424C171.178 105.269 169.867 105.098 168.65 104.626C167.365 104.128 166.285 103.192 165.394 102.342C163.329 100.376 161.315 98.1785 159.25 95.6375C159.618 95.0709 159.944 94.5301 160.227 93.9893C161.632 91.3109 162.635 88.1432 163.209 84.5892C163.243 84.3831 163.277 84.1685 163.32 83.9453C163.423 83.3787 163.534 82.7521 163.577 82.1254C165.899 82.9753 168.324 83.6878 170.304 84.263L173.106 85.0871C175.111 85.6794 177.108 86.2717 179.121 86.8383C181.846 87.6109 184.785 88.2462 187.81 87.6968C187.844 87.6882 187.87 87.6882 187.904 87.6796C188.427 91.5255 189.19 95.5173 191.521 98.8739ZM145.248 57.6852C150.647 56.861 155.617 54.3372 159.636 50.3625C161.444 48.5769 163.209 46.4222 165.197 43.5807C167.185 40.7307 168.676 38.121 169.755 35.6057C170.929 32.8586 171.632 30.1373 171.846 27.5019C177.673 32.0431 184.563 34.8245 191.82 35.5542C193.988 35.7688 196.156 35.8203 198.17 35.7945C199.678 35.7945 201.161 35.7602 202.574 35.4512C201.889 40.0181 201.598 44.5765 201.692 49.0405C201.452 48.3881 200.792 48.0275 200.021 48.1391C199.815 48.1821 199.344 47.9073 199.061 47.7442C198.941 47.6756 198.83 47.6069 198.736 47.5554L192.892 44.5851C192.18 44.2246 191.349 44.4478 190.964 45.1088C190.766 45.4436 190.724 45.8728 190.835 46.2591C190.946 46.6283 191.178 46.9201 191.495 47.0832L196.55 49.65C197.022 49.8904 197.502 50.1307 197.973 50.3711C198.598 50.6887 199.284 50.9635 200.107 50.9635C200.295 50.9635 200.492 50.9463 200.689 50.9205C201.032 50.869 201.332 50.663 201.529 50.3454C201.615 50.208 201.675 50.0621 201.718 49.9076C201.735 50.3539 201.743 50.7918 201.769 51.2296C201.915 54.0281 202.215 56.861 202.694 59.9086L202.814 60.664C203.234 63.2823 203.671 65.9864 203.183 68.5704C202.292 73.2833 198.624 76.9918 194.948 80.3913C193.423 81.7992 191.366 83.5247 188.95 84.4089C186.739 85.2158 184.357 85.2244 181.229 84.4432C179.01 83.8852 176.765 83.2071 174.597 82.5546C173.671 82.2713 172.755 81.9966 171.829 81.7305L171.058 81.5073C168.23 80.6832 165.3 79.8247 162.532 78.683C162.48 78.6658 162.429 78.6487 162.378 78.6315C162.146 78.4169 161.906 78.228 161.658 78.0306C161.504 77.9104 161.349 77.7902 161.204 77.6614C160.621 77.1635 160.055 76.6055 159.481 75.9617C158.196 74.5195 157.091 72.8884 156.02 71.3089C155.051 69.8752 154.049 68.3901 152.909 67.0423C151.726 65.6431 150.261 64.1665 147.862 64.364C146.962 64.4326 146.328 64.3382 145.797 63.6085C145.248 62.8531 145.086 61.7972 144.957 60.9473C144.923 60.7241 144.837 60.5267 144.7 60.355C145.06 59.5308 145.248 58.6209 145.248 57.6852ZM133.997 50.56C134.237 50.2595 134.503 49.9848 134.811 49.7359C134.957 49.6157 135.12 49.5041 135.326 49.3753C135.36 49.3581 135.394 49.341 135.42 49.3238C135.42 49.3238 135.42 49.3238 135.428 49.3238C135.471 49.3667 135.514 49.4011 135.548 49.4182L137.519 50.8862C139.173 52.1224 140.621 53.2813 141.555 54.8265C141.787 55.2128 141.984 55.642 142.129 56.0884C141.984 56.5863 142.086 57.11 142.395 57.462C142.429 58.2002 142.292 58.8698 141.975 59.4536C141.752 59.8656 141.735 60.3206 141.924 60.7155C140.938 61.3422 139.884 61.574 138.967 61.3679C137.853 61.119 137.117 60.1833 136.345 59.0759L136.174 58.8355C135.454 57.8053 134.709 56.7494 133.646 55.9597C133.372 55.7536 133.063 55.5734 132.729 55.4188C132.789 55.2042 132.806 54.9639 132.772 54.7235C132.575 53.3328 133.038 51.7618 133.997 50.56ZM130.039 89.0188C130.724 87.1731 131.281 85.1901 130.741 83.1298C130.244 81.2154 128.976 79.6273 127.871 78.228C127.571 77.8503 127.228 77.7473 126.988 77.7301C126.894 77.7215 126.791 77.7215 126.697 77.7387C126.594 77.3095 126.294 76.9146 125.788 76.7257C123.629 75.9274 122.095 74.013 121.47 71.326C120.664 67.8664 121.564 63.909 123.646 61.7027C126.62 58.5608 129.036 57.2989 131.033 57.8397C132.344 58.1917 133.158 59.3849 134.015 60.6554C134.554 61.4538 135.111 62.2779 135.823 62.8788C137.699 64.4841 140.218 64.7245 142.643 63.557C143.02 64.6644 143.552 65.5143 144.28 66.141C144.914 66.6904 145.634 67.0509 146.371 67.1883C146.808 67.2655 147.245 67.2312 147.665 67.1969C148.153 67.1539 148.616 67.1196 148.993 67.2655C149.473 67.4544 149.91 67.9437 150.287 68.3815L150.415 68.5275C150.93 69.1026 151.444 69.7379 151.966 70.459C152.575 71.2917 153.175 72.1673 153.749 73.0172C154.032 73.4378 154.314 73.8499 154.606 74.2705C155.42 75.4466 156.397 76.8116 157.519 78.0563C158.05 78.6487 158.59 79.1809 159.139 79.6531C159.293 79.7904 159.49 79.9278 159.687 80.0651C160.107 80.357 160.57 80.7004 160.698 81.0609C160.844 81.4816 160.707 82.1941 160.604 82.7607C160.57 82.9495 160.535 83.1298 160.51 83.2843C160.398 84.0483 160.261 84.821 160.107 85.5764C159.781 87.1645 159.353 88.6668 158.847 90.0404C157.725 93.0707 156.105 95.5517 154.032 97.4231C151.495 99.698 148.239 101.08 145.077 102.419C141.932 103.75 138.548 104.935 135.206 104.531C132.112 104.153 129.687 102.505 128.719 100.119C127.271 96.4788 128.745 92.5213 130.039 89.0188ZM116.774 172.916C116.774 172.049 116.8 171.182 116.86 170.315C116.962 168.829 117.177 167.361 117.468 165.911C120.818 166.743 124.315 167.31 127.742 166.778C127.905 166.752 128.033 166.7 128.153 166.64C128.076 167.379 128.016 168.126 127.965 168.881C127.845 169.087 127.776 169.302 127.751 169.533L127.725 169.817C127.725 169.834 127.708 169.928 127.691 170.014L127.674 170.117C127.639 170.34 127.596 170.555 127.545 170.77C127.442 171.225 127.314 171.671 127.168 172.1C126.928 172.804 126.594 173.491 126.165 174.203C126.148 174.212 126.131 174.221 126.105 174.229C125.369 174.555 124.572 174.839 123.732 175.07C121.555 175.68 119.216 175.86 116.997 175.611C116.808 175.594 116.62 175.56 116.44 175.534C116.748 174.701 116.774 173.8 116.774 172.916ZM128.153 178.616C127.811 178.685 127.468 178.753 127.125 178.805C126.44 178.916 125.703 178.985 124.889 179.019C124.889 179.011 124.889 179.002 124.88 178.994C124.854 178.779 124.854 178.556 124.88 178.324C124.914 178.118 124.974 177.903 125.034 177.732C125.043 177.706 125.06 177.68 125.077 177.654C125.908 177.397 126.705 177.096 127.459 176.77C127.605 176.702 127.742 176.616 127.854 176.513C127.896 176.487 127.948 176.461 127.991 176.435C128.033 177.165 128.085 177.895 128.153 178.616ZM103.869 161.447C107.519 162.88 111.238 164.177 114.992 165.241C114.683 166.786 114.452 168.349 114.323 169.92C114.255 170.787 114.212 171.662 114.203 172.538C114.195 173.345 114.238 174.118 113.955 174.89C113.938 174.924 113.938 174.967 113.929 175.002C112.369 174.573 110.827 173.997 109.319 173.431C108.736 173.216 108.154 172.993 107.579 172.787C106.585 172.426 105.591 172.074 104.597 171.714C103.878 171.456 103.166 171.19 102.447 170.933C103.346 167.859 103.826 164.657 103.869 161.447ZM86.997 163.155C85.2061 161.661 83.5694 160.03 82.3355 158.777L81.6842 158.107C81.6157 158.039 81.53 157.97 81.4443 157.91C80.5617 156.94 80.5446 155.395 81.4015 153.068C81.7699 152.064 82.2326 151.025 82.7811 149.943C84.2206 151.901 86.3886 153.214 88.4794 154.407C89.0364 154.725 89.6019 155.025 90.1675 155.335C89.5591 158.15 88.6508 160.889 87.4425 163.507C87.2883 163.387 87.1426 163.275 86.997 163.155ZM89.5334 165.087C90.8273 162.357 91.8298 159.498 92.5153 156.545C94.1434 157.352 95.7972 158.107 97.4682 158.82C98.7535 159.369 100.047 159.91 101.35 160.434C101.324 160.545 101.298 160.657 101.307 160.786C101.324 163.928 100.887 167.027 100.013 170.04C99.3362 169.791 98.6592 169.551 97.9823 169.302C95.6173 168.417 93.7578 167.585 92.1383 166.692C91.2557 166.22 90.3902 165.679 89.5334 165.087ZM133.081 193.811C129.884 194.961 126.44 196.111 122.669 196.506C119.353 196.849 115.746 197.038 111.941 197.055C111.855 197.055 111.77 197.055 111.684 197.055C102.987 197.055 97.5967 194.678 95.2317 189.802C93.8092 186.866 93.535 183.518 93.338 179.766C93.1751 176.581 93.1494 173.396 93.1494 170.4C94.0492 170.821 94.9832 171.216 95.9943 171.611C98.385 172.538 100.844 173.414 103.218 174.255C104.195 174.598 105.163 174.942 106.131 175.294C106.748 175.517 107.365 175.749 107.991 175.98C110.621 176.968 113.346 177.981 116.174 178.384C118.085 178.65 120.047 178.633 122.01 178.341C121.992 178.573 122.001 178.796 122.01 179.028C121.298 179.002 120.579 178.968 119.867 178.934C118.976 178.873 118.488 179.56 118.453 180.238C118.419 180.959 118.882 181.749 119.833 181.792C121.898 181.895 124.032 181.998 126.131 181.792C127.914 181.62 129.747 181.251 131.727 180.659C133.5 180.127 135.248 179.483 136.945 178.848C138.805 178.161 140.733 177.448 142.661 176.899C149.636 174.924 157.485 174.615 165.985 175.972L166.088 175.989C167.982 176.289 169.935 176.598 171.752 177.182C173.646 177.792 174.785 178.624 175.231 179.723C175.368 180.067 175.617 180.333 175.925 180.487L175.642 182.29C175.574 182.719 175.497 183.149 175.428 183.586C175.248 184.608 175.068 185.664 174.965 186.72C171.581 185.561 168.085 185.02 164.554 185.097C160.895 185.174 157.408 186.05 154.186 186.977C147.151 189.012 140.039 191.312 133.081 193.811ZM175.043 189.982L170.484 190.214C165.874 190.445 161.255 190.677 156.645 190.926C154.631 191.038 152.138 191.175 149.524 191.355C149.85 191.252 150.176 191.158 150.501 191.055C151.092 190.875 151.675 190.694 152.266 190.514C155.548 189.492 158.942 188.445 162.352 188.093C163.295 187.999 164.237 187.947 165.18 187.947C168.247 187.947 171.289 188.462 174.263 189.484C174.511 189.57 174.76 189.587 174.991 189.535C175.008 189.69 175.025 189.836 175.043 189.982ZM176.276 196.266C174.863 196.309 173.44 196.42 172.061 196.523C170.57 196.635 169.036 196.755 167.519 196.789C163.586 196.875 159.576 196.721 155.702 196.575C153.663 196.497 151.615 196.42 149.576 196.369C148.402 196.343 147.296 196.326 146.251 196.326C144.169 196.326 142.318 196.377 140.561 196.48C140.381 196.489 140.193 196.506 139.987 196.532C139.062 196.618 137.913 196.729 137.348 196.163C137.176 195.991 137.125 195.862 137.142 195.811C137.194 195.648 137.665 195.399 138.325 195.287C140.698 194.875 143.183 194.686 145.583 194.506L147.082 194.394C149.67 194.188 152.429 194.008 156.037 193.811C160.707 193.553 165.377 193.321 170.047 193.089L175.934 192.789C176.611 194.128 177.622 195.33 178.899 196.343C178.033 196.283 177.15 196.24 176.276 196.266ZM298.658 143.325L298.64 143.574C298.246 149.403 297.612 155.232 296.772 160.897C295.924 166.615 294.844 172.366 293.559 177.972C292.916 180.788 292.205 183.655 291.443 186.479C291.066 187.861 290.68 189.244 290.277 190.626C290.183 190.96 290.089 191.312 290.003 191.673C289.763 192.626 289.523 193.613 289.069 194.369C288.589 195.158 287.535 195.184 286.515 195.201L281.777 195.321C278.795 195.399 275.813 195.476 272.831 195.545C264.219 195.733 255.462 195.802 246.996 195.879C234.605 195.982 221.803 196.094 209.181 196.558L208.358 196.592C203.834 196.755 199.155 196.935 194.58 196.738C193.491 196.686 192.42 196.729 191.383 196.772C189.575 196.841 187.87 196.918 186.079 196.523L185.899 196.48C185.659 196.326 185.368 196.257 185.077 196.266C183.38 195.776 178.213 193.896 177.785 189.166C177.665 187.836 177.887 186.471 178.093 185.14L186.276 133.238C186.293 133.118 186.311 132.98 186.328 132.826C186.362 132.474 186.422 131.89 186.585 131.71C186.73 131.547 187.262 131.564 187.579 131.581C187.699 131.59 187.793 131.59 187.904 131.59L190.209 131.581C193.234 131.572 196.259 131.581 199.284 131.59C204.485 131.615 209.687 131.658 214.888 131.701L217.287 131.718C230.038 131.83 241.546 131.907 253.285 131.684C259.729 131.564 265.607 131.358 271.263 131.066C274.682 130.886 278.144 130.62 281.494 130.353C283.962 130.156 286.438 129.967 288.906 129.804C291.066 129.667 293.585 129.641 295.993 130.508C296.053 130.62 296.13 130.723 296.224 130.817C299.292 134.028 298.94 139.178 298.658 143.325Z" fill="#1E1E1E"/>
<path d="M167.219 50.0794C167.442 49.8562 167.931 49.7961 168.359 49.7446L168.642 49.7103C169.49 49.5901 170.347 49.3669 171.195 49.0407C172.849 48.414 174.366 47.5384 175.9 46.6198C176.345 46.3537 176.594 45.9159 176.585 45.4266C176.577 44.8943 176.277 44.3792 175.814 44.1217C175.394 43.8813 174.897 43.8985 174.452 44.156L174.289 44.2505C172.901 45.0832 171.461 45.9416 169.927 46.4567C169.113 46.7314 168.291 46.8774 167.596 46.9718C166.92 47.0748 165.934 47.298 165.189 48.0534C164.546 48.7059 164.734 49.5815 165.231 50.0708C165.497 50.3369 165.866 50.5 166.243 50.5C166.585 50.5086 166.928 50.3799 167.219 50.0794Z" fill="#1E1E1E"/>
<path d="M175.882 52.6719C175.12 52.6719 174.554 53.2299 174.46 54.054C174.203 56.3289 173.672 57.8999 171.898 58.166C171.05 58.2948 170.158 58.0458 169.464 57.4964C168.779 56.947 168.342 56.1486 168.273 55.3073C168.205 54.5004 167.605 53.9081 166.851 53.9081C166.457 53.9081 166.062 54.0883 165.78 54.3974C165.523 54.6807 165.394 55.024 165.428 55.376C165.565 57.0672 166.397 58.6467 167.699 59.7112C168.762 60.5868 170.056 61.0504 171.392 61.0504C171.615 61.0504 171.846 61.0332 172.078 61.0075C173.817 60.8014 175.3 59.8829 176.148 58.4836C176.979 57.1187 177.159 55.4704 177.305 54.1484C177.339 53.805 177.228 53.4617 176.979 53.1784C176.696 52.8693 176.277 52.6719 175.882 52.6719Z" fill="#1E1E1E"/>
<path d="M195.223 60.2433C195.66 60.415 196.105 60.4665 196.525 60.4665C196.971 60.4665 197.382 60.3979 197.708 60.3378C199.241 60.0287 200.415 59.3162 201.187 58.226C201.949 57.1443 202.223 55.745 201.941 54.3973C201.864 54.0453 201.649 53.7448 201.315 53.5474C200.972 53.3414 200.544 53.2727 200.175 53.3757C199.439 53.5817 199.002 54.32 199.181 55.1785C199.19 55.2128 199.19 55.2385 199.19 55.2557C199.199 55.3158 199.199 55.3845 199.199 55.4446C199.199 55.5218 199.199 55.5991 199.19 55.6935L199.164 55.8223C199.079 56.2172 199.053 56.2859 198.83 56.6207L198.779 56.6979C198.719 56.7752 198.65 56.8439 198.582 56.9125C198.53 56.964 198.479 57.007 198.479 57.0156C198.462 57.0241 198.393 57.0671 198.316 57.1271C197.999 57.3246 197.699 57.419 197.245 57.522C196.851 57.6165 196.542 57.6508 196.217 57.5735C196.208 57.5735 196.208 57.5735 196.199 57.565L196.174 57.5564C196.097 57.5135 196.02 57.4791 196.02 57.4791C196.002 57.462 195.942 57.4104 195.848 57.3332C195.78 57.2645 195.703 57.1958 195.643 57.1271C195.394 56.8524 195.248 56.6464 195.026 56.2429C194.888 55.9854 194.888 55.8996 194.966 55.6849C195.094 55.3587 195.068 54.9982 194.897 54.6634C194.709 54.2857 194.366 53.9938 193.98 53.8908C193.252 53.6933 192.532 54.0882 192.241 54.8522C191.624 56.4318 192.601 58.0028 193.526 59.0501C194.014 59.5909 194.589 59.9944 195.223 60.2433Z" fill="#1E1E1E"/>
<path d="M179.849 67.0251C179.344 66.9907 178.933 67.2053 178.676 67.5916C178.538 67.7376 178.436 67.9179 178.367 68.1153C177.69 70.0983 178.804 72.6394 180.209 74.279C181.58 75.8843 183.637 76.8716 185.848 77.0003C185.993 77.0089 186.13 77.0089 186.276 77.0089C188.367 77.0089 190.432 76.1247 191.872 74.5966C193.337 73.0428 194.005 71.0512 193.765 68.9738C193.74 68.7677 193.688 68.5703 193.594 68.39C193.568 68.0295 193.423 67.7032 193.183 67.4715C192.926 67.2225 192.574 67.1109 192.197 67.1109C188.101 67.2397 183.954 67.2053 179.849 67.0251ZM181.092 69.9266C184.357 70.0468 187.664 70.0726 190.938 70.0039C190.852 71.0684 190.406 72.047 189.652 72.7939C188.727 73.7039 187.484 74.1932 186.096 74.1502C184.674 74.1073 183.363 73.5064 182.403 72.4333C181.846 71.8324 181.255 70.8366 181.092 69.9266Z" fill="#1E1E1E"/>
<path d="M306.738 134.242C305.804 131.143 304.305 128.233 302.282 125.709C301.271 124.456 300.063 123.52 298.555 122.953C296.952 122.353 295.264 121.949 293.628 121.46C292.042 120.988 291.357 123.469 292.942 123.941C294.442 124.387 295.967 124.791 297.458 125.288C298.726 125.709 299.634 126.49 300.466 127.52C302.197 129.692 303.465 132.259 304.262 134.912C304.733 136.508 307.218 135.839 306.738 134.242Z" fill="#1E1E1E"/>
<path d="M214.434 23.3383C213.046 18.1876 210.424 13.4489 206.825 9.5172C205.702 8.29819 203.886 10.1181 205.008 11.3371C208.307 14.9426 210.689 19.3036 211.957 24.0165C212.386 25.6218 214.871 24.9437 214.434 23.3383Z" fill="#1E1E1E"/>
<path d="M124.563 83.9969C124.212 83.3187 123.655 82.7693 123.029 82.34C122.369 81.8936 121.615 81.679 120.835 81.6018C120.167 81.5331 119.524 82.2456 119.55 82.8895C119.584 83.6191 120.081 84.057 120.758 84.16C120.724 84.16 120.707 84.16 120.75 84.1686C120.81 84.1857 120.87 84.1943 120.938 84.2029C121.058 84.2286 121.17 84.2716 121.281 84.3059C121.324 84.3231 121.358 84.3402 121.401 84.366C121.512 84.4261 121.624 84.4862 121.727 84.5634C121.769 84.5892 121.804 84.6235 121.847 84.6493C121.821 84.6321 121.812 84.6235 121.787 84.6149C121.881 84.7008 121.975 84.7866 122.052 84.8811C122.069 84.8982 122.086 84.924 122.104 84.9412C122.069 84.8897 122.061 84.8553 122.138 84.9669C122.138 84.9755 122.146 84.9755 122.146 84.9841C122.155 84.9927 122.172 85.0098 122.181 85.0184C122.172 85.0098 122.164 85.0013 122.155 84.9927C122.224 85.0871 122.284 85.1901 122.335 85.2931C122.352 85.3189 122.369 85.3532 122.378 85.3876C122.421 85.5163 122.463 85.6451 122.489 85.7739C122.489 85.791 122.506 85.8683 122.515 85.9026V85.9112C122.523 86.0486 122.523 86.1773 122.515 86.3147C122.515 86.3576 122.506 86.4005 122.506 86.452C122.506 86.452 122.506 86.452 122.506 86.4606C122.472 86.5894 122.446 86.7267 122.404 86.8555C122.395 86.8899 122.378 86.9328 122.361 86.9671C122.284 87.0959 122.224 87.2247 122.146 87.3448C121.778 87.9114 122.018 88.7956 122.609 89.1047C123.252 89.4481 123.972 89.242 124.366 88.6411C125.274 87.2676 125.317 85.4391 124.563 83.9969Z" fill="#1E1E1E"/>
<path d="M121.795 84.6148C121.735 84.5548 121.624 84.5032 121.795 84.6148V84.6148Z" fill="#1E1E1E"/>
<path d="M122.112 84.9412C122.129 84.9583 122.138 84.9755 122.155 84.9927C122.155 84.9927 122.155 84.9841 122.147 84.9841C122.147 84.9669 122.129 84.9583 122.112 84.9412Z" fill="#1E1E1E"/>
<path d="M199.652 191.295C197.741 191.536 195.831 191.458 193.928 191.244C192.035 191.021 190.072 190.789 188.23 190.291C186.713 189.879 185.514 189.158 184.931 187.63C184.28 185.921 184.502 184.016 184.665 182.247C184.725 181.552 184.031 180.959 183.38 180.959C182.634 180.959 182.155 181.552 182.095 182.247C181.906 184.307 181.743 186.471 182.497 188.437C183.226 190.351 184.554 191.673 186.448 192.411C188.444 193.192 190.689 193.39 192.806 193.673C195.085 193.982 197.364 194.163 199.652 193.871C200.338 193.785 200.938 193.338 200.938 192.583C200.938 191.956 200.346 191.209 199.652 191.295Z" fill="#1E1E1E"/>
<path d="M246.156 152.484C244.091 151.343 241.931 150.673 239.883 151.137C238.975 150.321 237.647 150.038 236.37 150.973C230.843 155.017 225.873 164.305 231.991 169.92C237.064 174.572 246.276 176.89 251.134 170.847C256.147 164.614 252.514 156.013 246.156 152.484Z" fill="#59C69F"/>
<path d="M244.991 168.426C245.333 169.01 245.582 169.662 245.71 170.332C245.753 170.564 245.805 170.821 245.993 170.967C246.456 171.319 247.407 170.727 247.681 170.349C247.938 170.006 248.067 169.594 248.187 169.19C248.761 167.276 249.172 165.284 249.181 163.275C249.189 161.481 249.018 159.404 247.81 157.987C246.25 156.15 243.328 155.274 240.972 155.489C239.464 155.626 237.964 156.305 236.936 157.438C235.736 158.76 235.299 160.623 234.708 162.262C234.168 163.773 233.345 165.275 233.482 166.932C233.534 167.55 235.093 171.293 235.925 170.22C236.053 170.057 236.096 169.842 236.139 169.636C236.362 168.632 236.807 167.662 237.518 166.924C238.821 165.567 240.8 165.404 242.463 166.143C243.542 166.606 244.408 167.43 244.991 168.426ZM241.366 163.593C241.169 163.498 240.98 163.387 240.8 163.258C240.286 162.88 239.875 162.34 239.789 161.704C239.746 161.37 239.798 161.026 239.858 160.691C239.969 160.09 240.132 159.489 240.466 158.983C240.963 158.228 241.863 157.824 242.754 157.979C243.491 158.099 244.091 158.657 244.528 159.232C244.956 159.799 245.239 160.391 245.299 161.103C245.402 162.391 244.434 163.584 243.191 163.825C242.583 163.953 241.94 163.85 241.366 163.593Z" fill="#1E1E1E"/>
<path d="M226.679 104.617C222.814 102.299 218.752 100.333 214.554 98.7021C213.902 98.4531 213.14 98.9768 212.968 99.6035C212.771 100.333 213.217 100.934 213.868 101.192C217.861 102.745 221.709 104.651 225.376 106.849C226.807 107.69 228.101 105.467 226.679 104.617Z" fill="#F7C300"/>
<path d="M111.65 105.432C110.244 104.883 108.839 104.333 107.434 103.784C106.534 103.432 105.48 104.102 105.6 105.123C105.788 106.72 106.088 108.351 106.234 109.974C105.257 109.699 104.323 109.209 103.526 108.634C102.721 108.059 101.573 108.42 101.401 109.45C101.187 110.729 101.136 112.034 101.213 113.321C99.9359 112.849 98.7106 112.24 97.5709 111.502C96.8254 111.012 95.5229 111.218 95.4458 112.317C95.3344 114.094 95.4458 115.837 95.7886 117.562C94.5118 117.365 93.2607 117.073 92.0354 116.661C91.1614 116.36 90.0388 116.936 90.2016 118C90.3302 118.85 90.4673 119.691 90.5958 120.541C90.6558 120.927 90.81 121.451 90.8786 121.94C90.8015 121.932 90.7329 121.932 90.6558 121.923C90.2359 121.889 89.816 121.855 89.3962 121.82C88.5564 121.752 87.7167 121.691 86.8769 121.623C86.2257 121.571 85.4288 121.975 85.3859 122.722C85.2831 124.619 85.7715 126.439 86.9455 127.95C87.9737 129.28 90.0988 127.761 89.0705 126.422C88.5907 125.795 88.2394 125.091 88.0765 124.335C88.7021 124.387 89.3276 124.43 89.9531 124.481C90.9129 124.559 91.984 124.756 92.8152 124.129C93.7749 123.4 93.5092 122.224 93.3464 121.202C93.2693 120.687 93.1836 120.181 93.1065 119.665C94.4775 120.017 95.8743 120.266 97.2967 120.369C98.3078 120.447 99.0105 119.588 98.7106 118.61C98.3335 117.356 98.1193 116.06 98.0422 114.755C99.4732 115.485 100.964 116.051 102.541 116.463C103.329 116.669 104.178 115.802 104.032 115.03C103.835 113.948 103.766 112.884 103.8 111.811C104.22 112.008 104.649 112.197 105.103 112.343C106.106 112.66 107.716 113.253 108.531 112.257C109.302 111.321 108.779 109.699 108.65 108.617C108.582 108.076 108.522 107.535 108.453 106.995C109.165 107.269 109.876 107.553 110.587 107.827C112.147 108.437 113.218 106.05 111.65 105.432Z" fill="#F7C300"/>
<path d="M357.689 192.111C356.995 190.772 356.301 189.424 355.607 188.085C355.161 187.226 353.936 187.029 353.353 187.879C352.445 189.201 351.588 190.626 350.628 191.939C350.08 191.089 349.694 190.102 349.471 189.141C349.248 188.179 348.152 187.69 347.338 188.351C346.335 189.175 345.435 190.111 344.638 191.132C343.996 189.93 343.473 188.66 343.104 187.355C342.865 186.497 341.751 185.784 340.971 186.565C339.711 187.819 338.649 189.209 337.766 190.729C336.943 189.741 336.189 188.686 335.547 187.561C335.084 186.754 333.867 186.445 333.293 187.355C332.83 188.076 332.376 188.806 331.913 189.527C331.708 189.853 331.476 190.351 331.211 190.763C331.159 190.712 331.108 190.66 331.057 190.6C330.765 190.299 330.465 189.99 330.174 189.69C329.591 189.08 329 188.48 328.409 187.87C327.955 187.398 327.089 187.175 326.566 187.707C325.238 189.063 324.407 190.754 324.287 192.66C324.176 194.343 326.781 194.6 326.884 192.918C326.935 192.128 327.141 191.364 327.518 190.694C327.955 191.141 328.392 191.596 328.829 192.042C329.497 192.729 330.174 193.596 331.202 193.673C332.402 193.759 332.976 192.695 333.533 191.828C333.807 191.39 334.09 190.952 334.364 190.514C335.161 191.682 336.044 192.798 337.046 193.819C337.758 194.549 338.846 194.36 339.274 193.433C339.814 192.24 340.508 191.124 341.314 190.093C341.905 191.587 342.65 193.004 343.559 194.36C344.013 195.038 345.221 194.944 345.624 194.274C346.189 193.338 346.841 192.489 347.577 191.699C347.757 192.128 347.963 192.549 348.203 192.952C348.743 193.853 349.565 195.364 350.834 195.158C352.025 194.961 352.702 193.407 353.319 192.506C353.627 192.059 353.936 191.613 354.244 191.158C354.595 191.836 354.947 192.514 355.298 193.192C356.086 194.695 358.46 193.613 357.689 192.111Z" fill="#59C69F"/>
<path d="M315.949 38.6875C315.264 34.0947 314.03 29.6651 311.622 26.6433C306.901 20.72 300.405 23.9649 295.898 25.038C283.079 28.0769 270.269 31.1073 257.45 34.1462C254.296 34.8931 251.143 35.6399 247.998 36.3868C246.798 36.6701 245.205 36.713 243.808 37.2109C241.82 35.9833 239.618 37.1079 239.952 41.2972C240.723 50.8003 242.771 60.3635 246.404 68.9995C247.664 71.9955 249.378 76.4767 251.468 78.2623C252.051 78.992 252.72 79.507 253.362 79.6959C260.8 81.9021 267.681 79.61 274.545 77.876L284.776 75.292C288.52 74.9057 292.325 74.837 296.147 74.7426C302.051 74.5967 308.426 74.4851 313.687 71.2659C313.756 71.2229 313.807 71.1714 313.876 71.1285C314.399 71.0512 314.921 70.9654 315.444 70.8538C318.469 70.2357 320.2 67.1539 319.977 61.9001C319.66 54.4315 318.426 46.053 315.949 38.6875Z" fill="#59C69F"/>
<path d="M312.548 37.8978C311.665 35.1335 310.654 32.4294 309.532 29.8369C308.529 27.5105 307.381 24.5144 305.907 22.8405C304.279 20.9776 302.368 21.6214 300.731 21.7674C298.735 21.9477 296.738 22.1451 294.742 22.3597C290.86 22.7718 293.396 21.9477 289.532 22.4713C274.082 24.5574 271.597 24.9265 256.49 28.7295C254.605 29.2016 252.72 29.6909 250.835 30.1974C249.901 30.4464 249.789 31.9744 250.175 33.1419C250.458 33.2707 250.766 33.4166 251.057 33.4596C251.777 33.5626 252.711 33.0647 253.379 32.8758C255.693 32.232 258.041 31.7684 260.38 31.2705C264.613 30.3605 268.855 29.4677 273.122 28.7466C277.304 28.0341 281.528 27.5877 285.71 26.8666C289.892 26.1455 294.048 25.2527 298.298 24.9437C300.389 24.7892 302.642 24.7376 304.262 25.9051C304.382 25.9481 304.493 26.0082 304.596 26.1026C304.699 26.197 304.802 26.3258 304.904 26.4717C305.187 26.7722 305.436 27.1156 305.658 27.519C305.77 27.7251 305.796 27.9225 305.77 28.1028C305.907 28.4033 306.035 28.6865 306.147 28.9355C308.358 33.5626 310.208 38.6618 311.562 43.8726C312.256 46.551 312.839 49.2723 313.302 52.0022C313.696 54.363 314.347 57.462 314.099 59.7197C313.867 61.8315 312.282 62.9475 311.202 63.7287C310.594 64.1665 309.969 64.5271 309.317 64.8361C308.932 65.128 308.529 65.4027 308.092 65.6173C306.772 66.2612 305.333 66.6045 303.927 67.008C298.52 68.5618 292.916 68.7679 287.355 69.3602C285.693 69.5405 284.039 69.7293 282.385 69.901C275.47 71.1544 268.564 72.4936 261.597 73.4722C257.99 73.9873 254.356 74.3822 250.689 74.571C249.386 74.6397 247.99 74.7599 246.644 74.0645C245.17 73.3091 244.374 71.5149 243.834 69.2829C242.48 63.6171 241.383 57.7624 240.389 52.028C239.875 49.0577 239.412 46.0789 239.052 43.1C238.941 42.1471 238.727 40.9882 238.701 39.9752C238.692 39.9495 238.684 39.9323 238.684 39.9066C238.478 38.6876 239.095 37.769 240.243 37.3827C241.075 37.108 241.991 37.0822 242.848 36.902C244.048 36.653 245.273 36.241 246.104 35.4168C246.104 35.2108 246.087 35.0134 246.045 34.8159C245.796 33.5626 245.051 32.9016 244.331 32.9273C242.454 32.996 240.612 33.3222 238.847 33.966C237.167 34.5756 235.933 35.7431 236.002 38.8764C236.062 41.8982 236.67 45.2719 237.133 48.328C237.613 51.4871 238.178 54.6462 238.787 57.7968C239.395 60.9473 240.046 64.0893 240.706 67.2312C241.28 69.9611 241.863 72.8884 243.225 75.129C245.539 78.9491 248.667 79.0178 251.4 78.8633C251.443 78.8547 251.494 78.8461 251.537 78.8375C253.585 78.3826 255.573 77.6872 257.638 77.2837C262.934 76.245 268.289 75.5239 273.636 74.7942C278.966 74.0731 284.279 73.2747 289.592 72.3648C294.665 71.4977 299.712 70.5449 304.767 69.5748C307.895 68.9739 311.365 68.3815 314.073 66.5874C314.964 65.7461 315.778 64.7074 316.292 63.3167C317.149 60.9731 316.755 57.9599 316.395 55.1012C315.658 49.2809 314.33 43.4692 312.548 37.8978Z" fill="#1E1E1E"/>
<path d="M258.95 38.1207C258.941 38.9277 258.958 39.8205 259.001 40.7905C259.044 41.7692 259.078 42.7478 259.121 43.7436C259.164 44.7394 259.207 45.7095 259.258 46.6452C259.301 47.5809 259.352 48.405 259.404 49.1175C260.149 48.8772 260.989 48.6025 261.897 48.2934C262.814 47.9844 263.74 47.6668 264.682 47.3491C265.625 47.0229 266.559 46.731 267.476 46.4563C268.392 46.1816 269.232 45.9584 269.986 45.7867C270.055 45.7782 270.132 45.7867 270.235 45.8211C270.432 45.8898 270.535 46.0185 270.569 46.2245C270.612 46.5164 270.578 46.7482 270.492 46.9113C270.398 47.0744 270.278 47.2032 270.132 47.3062C269.986 47.4092 269.832 47.5036 269.669 47.5895C269.506 47.6839 269.369 47.8041 269.249 47.9586C268.572 48.2333 267.835 48.5338 267.021 48.8514C266.216 49.1691 265.385 49.4867 264.528 49.8129C263.671 50.1391 262.823 50.4567 261.966 50.783C261.109 51.1092 260.312 51.4182 259.575 51.7273C258.898 52.002 258.35 51.9504 257.93 51.5727C257.51 51.195 257.27 50.5082 257.201 49.5296C257.064 47.6839 256.953 45.8211 256.867 43.9582C256.773 42.0954 256.722 40.2239 256.696 38.3611C256.687 37.9662 256.773 37.64 256.953 37.3567C257.133 37.082 257.381 36.8931 257.69 36.8073C258.204 36.6699 258.53 36.7558 258.675 37.0734C258.83 37.3825 258.915 37.7344 258.95 38.1207Z" fill="#1E1E1E"/>
<path d="M275.916 46.7826C275.95 46.8685 275.976 46.9972 276.001 47.1689C276.027 47.3406 276.01 47.5123 275.967 47.6926C275.924 47.8729 275.847 48.036 275.736 48.1733C275.624 48.3107 275.461 48.4051 275.239 48.4309C274.699 48.1819 274.228 47.8213 273.816 47.3406C273.542 46.6882 273.276 45.9242 273.011 45.0657C272.745 44.1987 272.505 43.2973 272.282 42.3444C272.06 41.3915 271.871 40.4215 271.7 39.4342C271.528 38.447 271.391 37.4855 271.297 36.5498C271.28 36.3953 271.263 36.1893 271.263 35.9317C271.263 35.6742 271.288 35.4252 271.348 35.1763C271.408 34.9273 271.494 34.7041 271.605 34.5153C271.717 34.3264 271.897 34.2148 272.145 34.1805C272.437 34.1376 272.685 34.1977 272.891 34.3522C273.096 34.5067 273.225 34.79 273.285 35.202C273.388 36.112 273.525 37.0735 273.696 38.1036C273.868 39.1252 274.073 40.1553 274.305 41.1855C274.536 42.2156 274.793 43.2114 275.067 44.1729C275.35 45.143 275.633 46.01 275.916 46.7826Z" fill="#1E1E1E"/>
<path d="M289.506 35.5024C289.017 37.6658 288.435 39.7003 287.758 41.6146C287.081 43.529 286.301 45.2888 285.418 46.9113C285.161 47.4092 284.81 47.6668 284.347 47.6753C283.979 47.6753 283.679 47.5723 283.439 47.3491C283.199 47.1259 283.011 46.9113 282.865 46.6967C282.514 46.1645 282.119 45.4949 281.682 44.6793C281.237 43.8638 280.808 43.0397 280.397 42.207C279.986 41.3743 279.617 40.6188 279.3 39.9407C278.975 39.2625 278.752 38.7989 278.632 38.5585C278.478 38.4641 278.298 38.3268 278.092 38.1465C277.886 37.9662 277.706 37.7688 277.561 37.5456C277.415 37.3224 277.329 37.0992 277.295 36.876C277.261 36.6528 277.338 36.4296 277.518 36.2235C277.792 36.0519 278.066 35.966 278.349 35.9746C278.623 35.9832 278.889 36.0519 279.137 36.1806C279.386 36.3094 279.617 36.4725 279.823 36.6785C280.037 36.8846 280.208 37.0734 280.354 37.2623C280.603 37.7602 280.885 38.3268 281.202 38.962C281.52 39.5973 281.845 40.2583 282.179 40.9365C282.514 41.6146 282.839 42.2842 283.156 42.9281C283.473 43.5805 283.773 44.1557 284.047 44.6708C284.382 44.0956 284.724 43.4002 285.058 42.5847C285.393 41.7692 285.727 40.9107 286.061 40.0093C286.387 39.1165 286.695 38.198 286.986 37.2709C287.278 36.3437 287.535 35.4767 287.775 34.6612C287.869 34.3264 288.023 34.0259 288.238 33.7684C288.452 33.5108 288.692 33.3821 288.949 33.3992C289.283 33.4679 289.489 33.6911 289.574 34.0774C289.66 34.4551 289.634 34.9273 289.506 35.5024Z" fill="#1E1E1E"/>
<path d="M302.343 37.5627C302.463 37.7774 302.403 38.0091 302.163 38.2581C301.923 38.507 301.511 38.7131 300.929 38.859C299.935 39.1337 298.906 39.417 297.87 39.7089C296.824 40.0008 295.762 40.3012 294.682 40.6103C294.793 41.7692 294.948 42.9281 295.153 44.0698C295.676 44.0012 296.293 43.8638 297.013 43.6578C297.732 43.4603 298.469 43.2286 299.215 42.9624C299.96 42.6963 300.68 42.4388 301.366 42.1727C302.051 41.9065 302.642 41.6833 303.122 41.5031C303.362 41.4 303.611 41.3142 303.885 41.2455C304.151 41.1768 304.391 41.1425 304.613 41.1425C304.836 41.1511 305.016 41.2112 305.17 41.3228C305.325 41.443 305.419 41.6232 305.453 41.8722C305.462 41.9409 305.393 42.0525 305.256 42.207C305.119 42.3615 304.939 42.5332 304.716 42.7135C304.502 42.8938 304.271 43.0654 304.022 43.22C303.782 43.3831 303.559 43.5033 303.362 43.6063C302.025 44.2501 300.697 44.8253 299.386 45.3404C298.075 45.8554 296.781 46.2074 295.496 46.4048C294.75 46.525 294.159 46.4048 293.722 46.0443C293.285 45.6752 292.994 45.1 292.865 44.3102C292.668 43.2114 292.523 42.0868 292.411 40.9536C292 40.782 291.76 40.4901 291.709 40.078C291.691 39.6402 291.863 39.3226 292.197 39.1166C292.154 38.4555 292.094 37.7859 292.034 37.1163C291.966 36.4468 291.914 35.7772 291.871 35.1161C291.614 35.1076 291.383 35.0131 291.16 34.8329C290.937 34.6526 290.817 34.438 290.783 34.189C290.757 33.983 290.775 33.7941 290.843 33.6138C290.912 33.4336 291.066 33.2791 291.297 33.1503C291.691 33.0043 292.171 32.8327 292.745 32.6438C293.319 32.4549 293.911 32.2661 294.519 32.0944C295.128 31.9227 295.719 31.7596 296.284 31.6136C296.85 31.4677 297.338 31.3561 297.741 31.2788C298.212 31.1672 298.675 31.1501 299.129 31.2273C299.592 31.3046 300.037 31.5106 300.474 31.8368C300.603 32.1459 300.577 32.3863 300.38 32.5751C300.183 32.764 299.926 32.9013 299.592 32.9958C299.258 33.0902 298.864 33.1932 298.392 33.3134C297.93 33.4336 297.441 33.5623 296.944 33.6997C296.447 33.837 295.942 33.9658 295.445 34.0946C294.948 34.2234 294.476 34.3435 294.031 34.4809C294.039 34.5238 294.048 34.5753 294.065 34.6268C294.082 34.6783 294.099 34.7298 294.099 34.7814C294.134 35.3737 294.176 35.966 294.236 36.5584C294.296 37.1507 294.348 37.743 294.408 38.3354C295.333 38.0521 296.284 37.7774 297.261 37.5198C298.238 37.2623 299.018 37.0734 299.6 36.9447C300.072 36.8331 300.543 36.8331 301.014 36.9275C301.486 37.0133 301.931 37.2279 302.343 37.5627Z" fill="#1E1E1E"/>
<path d="M247.167 58.2344C246.85 58.4147 246.559 58.4662 246.293 58.389C246.028 58.3117 245.83 58.1915 245.693 58.0198C245.505 57.8138 245.428 57.582 245.462 57.3245C245.496 57.0669 245.659 56.8266 245.95 56.6034C246.43 56.2428 247.056 55.908 247.818 55.6076C248.581 55.3071 249.421 55.144 250.338 55.1097C251.255 55.0753 252.12 55.2127 252.926 55.5045C253.74 55.7964 254.451 56.2171 255.059 56.7579C255.676 57.2987 256.173 57.934 256.559 58.6808C256.944 59.4191 257.184 60.2261 257.279 61.0845C257.356 61.9945 257.304 62.9216 257.124 63.8745C256.944 64.8188 256.636 65.7288 256.216 66.5872C255.796 67.4543 255.256 68.2526 254.614 68.9995C253.962 69.7463 253.225 70.3558 252.394 70.8366C251.803 71.0769 251.349 71.1628 251.015 71.0941C250.68 71.0254 250.449 70.9138 250.312 70.7765C250.252 70.6735 250.209 70.5189 250.201 70.3215C250.183 70.1241 250.278 69.9094 250.475 69.6777C249.909 67.5229 249.455 65.4197 249.121 63.3766C248.787 61.3335 248.504 59.4706 248.281 57.7709C247.904 57.8911 247.527 58.0456 247.167 58.2344ZM250.8 57.2901C250.663 57.2901 250.518 57.2901 250.372 57.2987C250.226 57.3073 250.081 57.3245 249.944 57.3416C250.106 57.5048 250.243 57.7108 250.372 57.9597C250.501 58.2087 250.578 58.4576 250.612 58.7066C250.8 60.0887 251.015 61.5653 251.263 63.1448C251.512 64.7244 251.846 66.4155 252.274 68.2269C253.174 67.3684 253.902 66.3383 254.459 65.145C255.025 63.9518 255.248 62.7413 255.128 61.5137C254.999 60.3806 254.579 59.4191 253.877 58.6207C253.174 57.831 252.146 57.3846 250.8 57.2901Z" fill="#1E1E1E"/>
<path d="M269.866 60.2434C269.986 60.458 269.926 60.6898 269.686 60.9387C269.446 61.1877 269.035 61.3937 268.452 61.5396C267.458 61.8143 266.43 62.0976 265.393 62.3895C264.348 62.6814 263.285 62.9818 262.205 63.2909C262.317 64.4498 262.471 65.6087 262.677 66.7505C263.199 66.6818 263.816 66.5444 264.536 66.347C265.256 66.1495 265.993 65.9178 266.738 65.6516C267.484 65.3855 268.204 65.128 268.889 64.8619C269.575 64.5957 270.166 64.3725 270.646 64.1923C270.886 64.0893 271.134 64.0034 271.408 63.9347C271.674 63.8661 271.914 63.8317 272.137 63.8317C272.359 63.8403 272.539 63.9004 272.694 64.012C272.848 64.1236 272.942 64.3125 272.976 64.5614C272.985 64.6301 272.916 64.7417 272.779 64.8962C272.642 65.0507 272.462 65.2224 272.248 65.4027C272.034 65.583 271.803 65.7547 271.554 65.9092C271.314 66.0723 271.091 66.1925 270.894 66.2955C269.557 66.9393 268.229 67.5145 266.918 68.0296C265.607 68.5446 264.313 68.8966 263.028 69.0941C262.282 69.2142 261.691 69.094 261.254 68.7335C260.817 68.3644 260.526 67.7892 260.397 66.9994C260.2 65.9006 260.055 64.776 259.943 63.6429C259.532 63.4712 259.292 63.1793 259.24 62.7672C259.232 62.3294 259.395 62.0118 259.729 61.8058C259.686 61.1447 259.626 60.4752 259.566 59.8056C259.498 59.136 259.446 58.4664 259.403 57.8054C259.146 57.7968 258.915 57.7023 258.692 57.5221C258.469 57.3418 258.349 57.1272 258.315 56.8782C258.289 56.6722 258.306 56.4833 258.375 56.3031C258.444 56.1228 258.598 55.9683 258.829 55.8395C259.223 55.6936 259.703 55.5219 260.277 55.333C260.851 55.1441 261.443 54.9553 262.051 54.7836C262.659 54.6119 263.251 54.4488 263.816 54.3029C264.382 54.1569 264.87 54.0453 265.273 53.9681C265.744 53.8565 266.207 53.8393 266.661 53.9166C267.124 53.9938 267.569 54.1998 268.006 54.5261C268.135 54.8351 268.109 55.0755 267.921 55.2643C267.724 55.4532 267.467 55.5905 267.132 55.685C266.798 55.7794 266.404 55.8824 265.933 56.0026C265.47 56.1228 264.982 56.2515 264.485 56.3889C263.988 56.5263 263.482 56.655 262.985 56.7838C262.488 56.9126 262.017 57.0327 261.571 57.1615C261.58 57.2044 261.588 57.2559 261.606 57.316C261.623 57.3675 261.64 57.4191 261.64 57.4706C261.674 58.0629 261.717 58.6552 261.777 59.2476C261.837 59.8399 261.888 60.4322 261.948 61.0246C262.874 60.7413 263.825 60.4666 264.802 60.209C265.779 59.9515 266.558 59.7626 267.141 59.6339C267.612 59.5223 268.084 59.5223 268.555 59.6167C269.009 59.6854 269.446 59.9086 269.866 60.2434Z" fill="#1E1E1E"/>
<path d="M292.18 67.0679C291.931 67.1023 291.648 66.9478 291.34 66.5958C291.031 66.2438 290.834 65.8919 290.766 65.5313C290.406 64.2436 289.977 62.7413 289.48 61.0244C288.983 59.3075 288.358 57.273 287.604 54.938C287.098 56.3201 286.61 57.685 286.121 59.0414C285.641 60.3977 285.153 61.7541 284.673 63.1105C284.373 63.9603 284.005 64.4067 283.576 64.4668C282.942 64.5527 282.402 64.2951 281.957 63.6856C281.006 62.6383 280.046 61.6683 279.061 60.7755C278.075 59.8827 277.064 58.9985 276.027 58.1314C276.19 59.6509 276.404 61.136 276.678 62.5868C276.953 64.0376 277.287 65.4369 277.681 66.7932C277.758 67.0336 277.758 67.2568 277.681 67.4628C277.604 67.6689 277.518 67.8062 277.407 67.8663C277.107 68.0208 276.781 67.9951 276.43 67.789C276.079 67.583 275.847 67.3341 275.744 67.0508C275.427 66.261 275.162 65.3768 274.939 64.3981C274.716 63.4109 274.519 62.4151 274.348 61.4021C274.176 60.3892 274.022 59.3848 273.885 58.389C273.748 57.3931 273.636 56.4832 273.551 55.6676C273.431 54.7663 273.662 54.2684 274.245 54.1911C274.605 54.1396 274.93 54.234 275.213 54.4572C275.496 54.6804 275.684 55.0324 275.77 55.5045C277.055 56.4832 278.281 57.4962 279.446 58.5521C280.612 59.608 281.751 60.681 282.865 61.7713C283.465 60.2432 284.065 58.6637 284.673 57.0498C285.282 55.4359 286.001 53.8477 286.824 52.2853C286.833 52.0278 286.927 51.7617 287.09 51.4698C287.261 51.1865 287.458 50.9805 287.698 50.8517C287.938 50.7315 288.212 50.7916 288.521 51.0492C288.829 51.3067 289.06 51.6243 289.198 51.9935C289.892 54.2254 290.534 56.466 291.126 58.7152C291.717 60.9643 292.3 63.2135 292.882 65.4626C292.985 65.8833 292.951 66.2524 292.788 66.5615C292.634 66.8619 292.428 67.0336 292.18 67.0679Z" fill="#1E1E1E"/>
<path d="M306.626 56.5348C306.575 57.1872 306.412 57.8225 306.147 58.4492C305.872 59.0758 305.547 59.6682 305.161 60.2262C304.776 60.7842 304.347 61.2821 303.859 61.7199C303.379 62.1577 302.882 62.5097 302.368 62.7844C301.425 63.2823 300.448 63.5312 299.454 63.5398C298.452 63.5484 297.518 63.2222 296.644 62.5526C296.035 61.986 295.573 61.325 295.255 60.561C294.938 59.7969 294.724 59.0072 294.621 58.1745C294.519 57.3503 294.527 56.5348 294.639 55.7364C294.75 54.9381 294.93 54.2084 295.187 53.556C295.495 52.7748 295.898 52.1138 296.404 51.5558C296.901 51.0064 297.483 50.6372 298.152 50.4569C298.323 50.3883 298.477 50.414 298.614 50.5342C298.743 50.6544 298.82 50.8089 298.846 50.9892C299.043 50.7316 299.369 50.517 299.831 50.3368C300.294 50.1565 300.817 50.0792 301.417 50.0878C302.522 50.0792 303.422 50.2852 304.124 50.7231C304.827 51.1609 305.375 51.7017 305.778 52.3455C306.172 52.998 306.429 53.6933 306.549 54.4573C306.644 55.2128 306.678 55.9081 306.626 56.5348ZM298.606 52.852C298.177 53.1182 297.843 53.4701 297.595 53.9079C297.346 54.3457 297.158 54.8265 297.029 55.3501C296.901 55.8738 296.849 56.4318 296.875 57.0155C296.892 57.5993 296.969 58.1573 297.089 58.6981C297.261 59.4793 297.586 60.0974 298.066 60.5524C298.537 61.0074 299.206 61.1791 300.071 61.0589C300.568 60.9902 301.048 60.8271 301.502 60.5695C301.965 60.312 302.376 59.9944 302.736 59.6252C303.096 59.2561 303.422 58.8269 303.704 58.3376C303.987 57.8482 304.193 57.3589 304.33 56.8524C304.407 56.5863 304.458 56.2687 304.476 55.8824C304.493 55.4961 304.467 55.1098 304.39 54.7149C304.313 54.32 304.176 53.9594 303.961 53.6161C303.756 53.2727 303.464 53.0066 303.096 52.8005C302.573 52.5258 301.982 52.397 301.322 52.4228C300.654 52.44 299.986 52.6803 299.317 53.1439C299.197 53.2555 299.043 53.2898 298.863 53.2555C298.674 53.2212 298.589 53.0838 298.606 52.852Z" fill="#1E1E1E"/>
<path d="M94.1862 196.395C87.8709 196.317 81.5556 196.231 75.2403 196.154C73.5866 196.137 73.5866 198.712 75.2403 198.73C81.5556 198.807 87.8709 198.893 94.1862 198.97C95.84 198.987 95.84 196.412 94.1862 196.395Z" fill="#1E1E1E"/>
<path d="M360.774 195.905C352.625 196.721 344.433 196.291 336.267 196.034C328.135 195.776 320.037 196.205 311.905 196.205C307.338 196.205 302.762 195.999 298.246 195.235C296.627 194.961 295.933 197.442 297.561 197.716C305.607 199.081 313.739 198.789 321.862 198.575C330.174 198.352 338.443 198.772 346.746 198.927C351.425 199.013 356.104 198.944 360.765 198.48C362.402 198.317 362.419 195.742 360.774 195.905Z" fill="#1E1E1E"/>
</svg>
