<svg width="121" height="13" viewBox="0 0 121 13" fill="none" xmlns="http://www.w3.org/2000/svg">
<path d="M0.470618 3.68272C1.8576 5.50194 3.33786 7.17228 4.72484 8.9915C6.10883 10.6661 7.08968 11.4905 8.69363 9.82693C10.0147 8.4654 11.6157 6.6572 12.6359 4.73028C12.7322 4.72597 12.7352 4.87055 12.8314 4.86624C13.036 5.43594 13.5264 5.84814 13.8243 6.26896C14.5193 7.25086 15.118 8.23707 15.81 9.07439C16.9021 10.6174 18.0845 11.8669 19.6041 10.7859C21.1268 9.8495 22.0417 7.49315 23.2605 5.84676C23.3538 5.69788 23.4471 5.54899 23.5404 5.4001C23.2575 5.70219 23.3598 5.98704 23.745 5.9698C24.0428 6.39062 24.5272 6.51366 24.9184 6.78559C25.6044 7.33375 26.2904 7.88191 26.9764 8.43007C28.544 9.66236 30.0212 11.1881 31.4985 12.7139C31.9919 13.2706 32.8525 12.9427 33.2257 12.3472C33.8728 11.0158 34.5228 9.829 35.1699 8.49762C35.54 7.75749 35.9102 7.01736 36.2804 6.27723C36.3737 6.12834 36.467 5.97946 36.5573 5.68599C36.6506 5.5371 36.6506 5.5371 36.6506 5.5371C37.5291 6.07665 38.3234 7.19882 39.1117 8.03183C39.9963 8.86054 40.8838 9.83382 41.8647 10.6582C43.5375 12.3199 45.1924 13.1142 46.9799 11.0082C48.295 9.35752 49.5138 7.71114 50.8289 6.06045C51.912 7.1697 52.9922 8.13437 54.1716 9.23931C55.2517 10.204 56.3409 11.6024 57.6799 11.1083C58.9227 10.6186 60.0422 8.83194 61.0774 7.62791C61.6431 7.02374 62.2089 6.41957 62.6783 5.81971C63.2441 5.21555 63.6292 5.19832 64.3122 5.6019C66.5568 6.94861 68.3469 9.61808 70.8594 9.93981C73.4682 10.2572 75.2437 7.57294 77.2238 5.45835C77.8828 4.7053 77.7896 4.85419 78.4786 5.54693C79.0683 6.0994 79.5617 6.65618 80.1514 7.20865C81.3308 8.31359 82.5102 9.41853 83.8673 9.79195C85.2213 10.0208 86.3588 9.10163 87.5925 8.17814C88.2576 7.71425 88.9226 7.25035 89.5876 6.78646C90.2527 6.32256 91.2909 5.26311 92.1545 5.07976C93.3099 5.02806 94.7872 6.55382 95.771 7.5228C96.8542 8.63204 97.7567 10.3282 99.1137 10.7017C100.374 11.0794 101.611 10.3005 102.55 9.10077C103.585 7.89674 104.509 5.97412 105.869 6.49213C107.226 6.86555 108.318 8.40854 109.495 9.3689C110.771 10.4695 112.137 11.2767 113.683 11.4969C116.488 11.9503 119.343 10.2307 120.806 6.40269C121.718 3.90176 119.169 1.84507 118.258 4.34601C116.978 7.73165 114.186 7.85659 112.035 6.36099C109.883 4.86539 108.09 2.05134 105.584 2.01877C104.425 1.92589 103.381 2.69618 102.436 3.60674C101.684 4.50868 100.384 6.88227 99.403 6.05787C98.4252 5.37805 97.5256 3.82645 96.5418 2.85747C95.4616 1.8928 94.1889 0.936749 93.0275 0.699287C91.7697 0.466132 90.7255 1.23642 89.5851 2.01102C88.1587 2.94312 86.7414 4.30895 85.312 5.09647C84.0722 5.7308 82.8838 4.19212 81.903 3.36772C80.9191 2.39874 79.824 0.711177 78.5663 0.478022C76.3367 -0.145791 74.5911 3.9843 72.7856 5.22279C70.6942 6.61878 68.6122 3.81766 66.8491 2.4494C65.7689 1.48474 64.4992 0.673263 63.2535 1.01843C61.9114 1.3679 60.7889 3.00997 59.7537 4.214C59.188 4.81817 58.3483 6.15816 57.6803 6.47747C57.584 6.48178 57.4004 6.92414 57.4004 6.92414C57.2079 6.93275 56.5159 6.09543 56.3203 5.95947C54.9423 4.57399 53.468 3.19281 52.09 1.80732C52.09 1.80732 51.9938 1.81163 51.9908 1.66705C51.4973 1.11027 50.724 1.00016 50.1643 1.89349C49.3187 2.94432 48.5693 3.99084 47.7237 5.04167C47.3505 5.63722 46.8781 6.0925 46.5049 6.68805C46.222 6.99014 45.6653 8.02804 45.2831 8.18986C44.5158 8.3689 43.1258 6.4051 42.5361 5.85263C41.6515 5.02392 40.8633 4.19091 39.9787 3.3622C38.6007 1.97672 36.9189 -0.11874 35.4202 1.97431C34.6709 3.02083 34.1231 4.49247 33.5693 5.67496C33.1992 6.41509 32.7357 7.30411 32.3655 8.04424C29.9044 5.54951 27.353 3.34824 24.621 1.73391C22.9631 0.795091 22.0302 2.28397 20.9077 3.92604C20.3479 4.81937 19.7941 6.00186 19.1321 6.61033C18.5664 7.2145 18.9455 6.90811 18.4551 6.49591C18.1602 6.21967 17.7601 5.51401 17.4623 5.09319C16.7673 4.11129 16.1686 3.12508 15.4766 2.28776C14.9802 1.5864 14.3815 0.600192 13.6985 0.196609C12.1399 -0.601939 11.2159 1.32068 10.1837 2.66928C9.52769 3.56692 8.87164 4.46455 8.11931 5.3665C8.11931 5.3665 7.55357 5.97066 7.2707 6.27275C7.17142 6.13248 7.07213 5.9922 6.97285 5.85193C5.58587 4.03271 4.1056 2.36237 2.71862 0.543151C1.04278 -1.26315 -0.91636 1.8635 0.470618 3.68272Z" fill="#F1C527"/>
</svg>
