<svg width="384" height="282" viewBox="0 0 384 282" fill="none" xmlns="http://www.w3.org/2000/svg">
<path d="M254.074 25.1707C202.213 8.79479 146.603 20.133 102.751 29.7323C58.7589 39.5948 26.8126 47.6882 12.6215 65.0814C-1.56954 82.4746 2.56848 109.107 1.99404 138.472C1.41961 167.838 -4.01318 199.703 16.7861 226.562C37.2984 253.452 84.0427 275.335 124.305 280.519C164.713 285.936 198.925 274.623 239.494 267.109C279.917 259.362 326.696 255.414 354.912 233.062C383.129 210.71 392.788 170.451 373.56 128.029C354.19 85.8696 306.08 41.7796 254.074 25.1707Z" fill="#F5F5F5"/>
<path d="M122.431 193.041C110.939 194.08 99.1542 191.983 87.6177 191.831C75.6821 191.678 63.7555 191.84 51.8643 190.591C47.8917 190.172 47.9183 196.854 51.8643 197.264C63.7555 198.512 75.6821 198.36 87.6177 198.503C99.1542 198.646 110.93 200.752 122.431 199.713C126.386 199.36 126.421 192.688 122.431 193.041Z" fill="#59C69F"/>
<path d="M292.996 85.0871C289.369 84.4485 285.733 84.0101 282.089 83.6765C282.178 83.3143 282.222 82.9425 282.248 82.5613C283.126 82.6566 284.004 82.7328 284.891 82.8377C291.125 83.5811 291.072 73.087 284.891 72.353C240.235 67.0535 195.827 76.9853 151.268 78.6343C144.999 78.863 144.981 88.8902 151.268 89.1189C152.456 89.1666 153.653 89.2047 154.841 89.2524C152.288 92.1214 153.405 98.2692 158.22 98.2883C180.699 98.3645 203.195 98.4408 225.639 96.9634C236.484 96.2485 247.293 94.9332 258.147 94.4566C269.346 93.961 280.537 94.6663 291.71 95.3907C297.11 95.7433 298.458 86.0593 292.996 85.0871Z" fill="#59C69F"/>
<path d="M99.234 27.974C96.7068 22.3409 90.6681 19.7007 85.2235 18.7189C81.0647 17.9755 76.9679 18.4902 73.5362 20.6443C72.7116 19.7674 71.5145 19.3194 70.0425 19.7769C58.8873 23.2941 54.8437 38.8018 63.986 47.3039C68.5528 51.5455 75.762 52.4224 81.579 52.0792C87.3251 51.7361 93.1864 49.5438 96.9639 44.6732C100.546 40.06 101.708 33.4928 99.234 27.974ZM90.1626 38.1346C86.1723 39.0687 82.3771 40.6224 78.5375 42.0616C77.1187 42.5954 76.0989 41.7089 75.7354 40.5366C75.6024 40.2125 75.5225 39.8312 75.5314 39.4023C75.5492 38.392 75.1945 37.477 74.9107 36.5238C74.6535 35.666 74.4585 34.8081 74.3698 33.9217C73.9619 32.5873 73.6515 31.2243 73.4564 29.8517C73.2348 28.3172 74.1658 26.5348 75.6467 26.4967C76.1699 26.3442 76.7551 26.3632 77.367 26.6778C81.7209 28.9177 87.2541 29.5753 91.0405 32.9018C91.7233 33.5023 91.9273 34.2172 91.8386 34.8939C92.1135 36.2093 91.5371 37.8106 90.1626 38.1346Z" fill="#F7C300"/>
<path d="M66.3535 129.142C64.9082 126.921 62.1327 126.359 59.9956 127.75C59.5789 128.017 59.2508 128.332 58.9847 128.675C55.2427 127.074 51.2612 130.39 50.5784 134.546C50.206 136.815 50.2858 139.398 51.8731 141.142C53.6022 143.048 56.1383 143.325 58.4616 142.953C62.4696 142.324 66.2649 140.065 67.2403 135.518C67.7103 133.355 67.5595 131.001 66.3535 129.142Z" fill="#F7C300"/>
<path d="M64.8554 111.585C64.7845 109.64 64.1727 107.915 62.5411 106.886C61.1045 105.971 59.2956 105.599 57.6462 105.723C57.2383 105.752 56.8393 105.847 56.4669 105.99C55.8728 105.609 55.1988 105.389 54.5426 105.389C52.3347 105.389 50.9159 107.267 50.7385 109.478C50.6144 111.013 50.6055 112.538 50.7563 114.063C50.9159 115.703 51.0312 117.542 51.847 118.972C52.849 120.726 54.6668 121.278 56.4669 121.126C58.0009 120.992 59.7656 121.04 61.2464 120.611C65.0328 119.525 64.9885 115.026 64.8554 111.585Z" fill="#F7C300"/>
<path d="M64.5089 88.0705C65.1385 85.4017 63.1699 81.9513 59.9067 82.8758C59.215 83.0664 58.5943 83.3619 57.9647 83.7146C57.9558 83.7146 57.947 83.7241 57.947 83.7336C57.7519 83.6383 57.5391 83.5525 57.3174 83.4763C53.797 82.4183 48.4943 82.1895 48.5032 87.6034C48.5032 89.138 48.6539 91.3112 49.0618 92.7981C49.6737 95.0475 51.3408 96.0579 53.3182 96.6012C56.6435 97.5067 60.6781 99.0222 63.5512 96.1341C65.7237 93.9228 65.4931 90.8251 64.5089 88.0705Z" fill="#F7C300"/>
<path d="M167.868 76.1753C165.518 76.0323 163.266 76.2134 161.093 76.7091C158.92 77.2047 156.775 77.891 154.646 78.7488C154.097 78.968 153.68 78.9394 153.396 78.663C153.112 78.3961 152.97 78.1197 152.97 77.8528C153.13 77.3858 153.423 77.0141 153.831 76.7186C158.521 74.3071 163.203 73.4398 167.868 74.1165C168.098 74.1927 168.284 74.3738 168.426 74.6503C168.568 74.9362 168.621 75.1745 168.577 75.3651C168.533 75.6129 168.462 75.8131 168.364 75.9656C168.293 76.1372 168.116 76.2039 167.868 76.1753ZM162.92 88.957C162.92 89.2239 162.831 89.4622 162.663 89.6719C162.494 89.8816 162.281 90.0055 162.024 90.0532C161.572 90.1199 161.27 90.0341 161.137 89.7863C161.004 89.5385 160.925 89.2621 160.907 88.938C160.898 87.2223 160.88 85.5162 160.854 83.81C160.827 82.1039 160.765 80.3978 160.667 78.6821C160.667 78.5868 160.659 78.4724 160.632 78.3294C160.614 78.196 160.614 78.0625 160.632 77.9291C160.659 77.7957 160.703 77.6813 160.792 77.586C160.871 77.4906 161.004 77.4144 161.182 77.3667C161.705 77.2714 162.086 77.3667 162.308 77.6527C162.53 77.9386 162.645 78.215 162.645 78.4819C162.813 80.2453 162.92 81.999 162.946 83.7433C162.991 85.4876 162.982 87.2223 162.92 88.957Z" fill="#1E1E1E"/>
<path d="M182.286 77.1378C182.375 77.5762 182.464 78.1005 182.552 78.701C182.641 79.3014 182.694 79.9305 182.73 80.5787C182.756 81.2268 182.756 81.894 182.73 82.5803C182.703 83.2665 182.632 83.9242 182.508 84.5628C182.366 85.2968 182.091 85.964 181.674 86.574C181.258 87.184 180.752 87.7273 180.158 88.2134C179.582 88.6995 178.952 89.0903 178.252 89.3953C177.551 89.7003 176.859 89.91 176.159 90.0434C175.458 90.1769 174.776 90.196 174.111 90.1006C173.437 90.0053 172.842 89.8052 172.319 89.4811C171.725 89.1094 171.255 88.6233 170.892 88.0323C170.528 87.4413 170.377 86.717 170.431 85.8591C170.484 85.0299 170.555 84.2578 170.652 83.562C170.75 82.8662 170.874 82.199 171.025 81.5604C171.175 80.9218 171.344 80.2832 171.53 79.635C171.716 78.9869 171.911 78.3102 172.124 77.5953C172.239 77.2808 172.443 77.0997 172.745 77.052C172.86 77.0329 172.993 77.0329 173.153 77.052C173.224 77.052 173.321 77.0997 173.445 77.1854C173.57 77.2712 173.685 77.3856 173.8 77.5381C173.915 77.6906 174.004 77.8622 174.084 78.0528C174.164 78.253 174.164 78.4722 174.093 78.7105C173.88 79.4921 173.667 80.2927 173.463 81.0934C173.25 81.9035 173.073 82.6756 172.913 83.4C172.763 84.1339 172.665 84.7916 172.63 85.3635C172.594 85.9354 172.639 86.3833 172.772 86.7074C173.064 87.1745 173.463 87.4795 173.978 87.6129C174.492 87.7559 175.033 87.775 175.6 87.6796C176.168 87.5843 176.726 87.4223 177.258 87.1935C177.799 86.9648 178.26 86.717 178.651 86.4501C179.271 86.0116 179.724 85.4683 180.016 84.8107C180.309 84.153 180.486 83.4286 180.557 82.647C180.628 81.8654 180.628 81.0457 180.557 80.1879C180.486 79.33 180.38 78.4817 180.247 77.6525C180.202 77.4333 180.22 77.1473 180.291 76.8042C180.362 76.461 180.548 76.1942 180.841 76.0035C181.16 75.8129 181.453 75.8415 181.71 76.0798C181.994 76.3467 182.18 76.6898 182.286 77.1378Z" fill="#1E1E1E"/>
<path d="M199.525 76.4324C197.175 76.2894 194.923 76.4705 192.75 76.9661C190.578 77.4618 188.432 78.148 186.304 79.0059C185.754 79.2251 185.337 79.1965 185.053 78.9201C184.77 78.6437 184.628 78.3768 184.628 78.1099C184.787 77.6429 185.08 77.2712 185.488 76.9757C190.179 74.5642 194.852 73.6968 199.525 74.3736C199.755 74.4498 199.942 74.6309 200.084 74.9073C200.225 75.1933 200.279 75.4316 200.234 75.6222C200.19 75.87 200.119 76.0702 200.022 76.2227C199.951 76.3943 199.782 76.461 199.525 76.4324ZM194.586 89.2141C194.586 89.481 194.497 89.7193 194.329 89.929C194.16 90.1387 193.947 90.2626 193.69 90.3103C193.238 90.377 192.936 90.2912 192.803 90.0434C192.67 89.7956 192.591 89.5191 192.573 89.1951C192.564 87.4794 192.546 85.7733 192.52 84.0671C192.493 82.361 192.431 80.6548 192.333 78.9392C192.333 78.8438 192.325 78.7295 192.298 78.5865C192.28 78.4531 192.28 78.3196 192.298 78.1862C192.325 78.0527 192.369 77.9384 192.458 77.8335C192.537 77.7382 192.67 77.6619 192.848 77.6143C193.371 77.519 193.752 77.6143 193.974 77.9002C194.196 78.1862 194.311 78.4626 194.311 78.7295C194.479 80.4928 194.586 82.2466 194.612 83.9909C194.657 85.7351 194.639 87.4794 194.586 89.2141Z" fill="#1E1E1E"/>
<path d="M214.315 83.4189C214.174 84.1052 213.925 84.7534 213.571 85.3824C213.216 86.002 212.808 86.5834 212.347 87.1172C211.886 87.6509 211.389 88.118 210.848 88.4992C210.307 88.89 209.766 89.1855 209.217 89.4047C208.215 89.786 207.213 89.9099 206.22 89.7669C205.226 89.624 204.348 89.1283 203.577 88.2895C203.054 87.6033 202.69 86.8217 202.486 85.9639C202.274 85.106 202.176 84.2291 202.194 83.3332C202.211 82.4372 202.327 81.5794 202.557 80.7406C202.779 79.9113 203.063 79.1679 203.409 78.5102C203.825 77.7286 204.322 77.0805 204.889 76.5753C205.466 76.0702 206.095 75.7651 206.778 75.6698C206.964 75.6222 207.106 75.6698 207.222 75.8223C207.337 75.9748 207.39 76.1464 207.39 76.337C207.621 76.0987 207.975 75.9176 208.454 75.7937C208.933 75.6794 209.465 75.6698 210.059 75.7651C211.15 75.9176 212.019 76.2798 212.648 76.8517C213.287 77.4236 213.748 78.0813 214.049 78.8343C214.351 79.5873 214.502 80.3689 214.511 81.1886C214.528 82.0178 214.457 82.7613 214.315 83.4189ZM206.902 78.291C206.441 78.5102 206.06 78.8343 205.75 79.2537C205.439 79.6826 205.182 80.1592 204.987 80.7025C204.792 81.2362 204.659 81.8176 204.597 82.4467C204.535 83.0758 204.526 83.6763 204.57 84.2673C204.632 85.1251 204.872 85.8304 205.271 86.3832C205.679 86.9361 206.317 87.222 207.177 87.222C207.674 87.222 208.17 87.1267 208.667 86.917C209.155 86.7168 209.607 86.4404 210.024 86.0973C210.44 85.7542 210.813 85.3538 211.159 84.8773C211.504 84.4007 211.779 83.905 211.992 83.3999C212.107 83.133 212.205 82.7994 212.276 82.3895C212.347 81.9892 212.373 81.5698 212.356 81.1409C212.338 80.712 212.249 80.3021 212.09 79.9114C211.93 79.5206 211.682 79.187 211.345 78.9105C210.866 78.5388 210.299 78.3101 209.642 78.2338C208.977 78.1576 208.286 78.3101 207.55 78.6913C207.417 78.7866 207.257 78.8057 207.089 78.739C206.911 78.6913 206.849 78.5388 206.902 78.291Z" fill="#1E1E1E"/>
<path d="M219.636 90.6345C219.574 89.729 219.529 88.6995 219.503 87.5462C219.476 86.3929 219.467 85.211 219.476 84.0005C219.485 82.79 219.503 81.589 219.521 80.4167C219.538 79.2443 219.574 78.1768 219.627 77.2236C219.627 76.9758 219.742 76.7852 219.955 76.6517C220.177 76.5183 220.345 76.4611 220.487 76.4897C220.895 76.5469 221.179 76.6994 221.321 76.9567C221.462 77.2141 221.56 77.5763 221.604 78.0433C221.578 78.8249 221.551 79.616 221.533 80.3976C221.516 81.1792 221.516 81.9703 221.533 82.7519C222.562 82.5613 223.422 82.1705 224.123 81.5604C224.823 80.9504 225.32 80.2546 225.621 79.4731C225.737 79.1776 225.825 78.8249 225.887 78.4055C225.949 77.9861 225.958 77.5667 225.914 77.1378C225.87 76.7089 225.763 76.2991 225.595 75.9178C225.426 75.5365 225.169 75.2315 224.832 75.0123C224.336 74.6882 223.786 74.5167 223.192 74.4881C222.598 74.4595 221.986 74.5453 221.365 74.7454C220.735 74.9456 220.115 75.2697 219.512 75.7081C218.9 76.1466 218.332 76.6708 217.809 77.2713C217.871 77.643 217.827 77.9671 217.667 78.2435C217.508 78.5199 217.277 78.7201 216.976 78.844C216.789 78.8916 216.577 78.7868 216.328 78.5294C216.08 78.2721 215.956 78.0052 215.956 77.7383C215.965 76.7566 216.222 75.9083 216.745 75.1934C217.259 74.4785 217.907 73.8781 218.687 73.3919C219.467 72.9058 220.301 72.5436 221.188 72.3054C222.074 72.0671 222.899 71.9527 223.653 71.9622C224.77 71.9718 225.701 72.3244 226.446 73.0298C227.191 73.7351 227.696 74.612 227.962 75.67C228.432 77.5096 228.299 79.168 227.572 80.6264C226.845 82.0942 225.666 83.3524 224.043 84.4199C225.222 85.211 226.331 85.9735 227.359 86.6884C228.388 87.4033 229.425 88.1849 230.472 89.0332C230.605 89.1857 230.756 89.3954 230.933 89.6813C231.101 89.9672 231.066 90.3866 230.835 90.949C230.693 91.2921 230.463 91.4828 230.135 91.5113C229.807 91.5495 229.479 91.4351 229.159 91.1873C228.663 90.7393 228.095 90.2818 227.475 89.7957C226.854 89.3096 226.198 88.833 225.515 88.3469C224.832 87.8608 224.158 87.3937 223.475 86.9362C222.793 86.4787 222.145 86.0498 221.533 85.6495C221.551 86.6312 221.56 87.6034 221.569 88.5756C221.578 89.5479 221.595 90.4915 221.631 91.4256C221.631 91.7687 221.533 92.007 221.356 92.1404C221.17 92.2739 220.948 92.3406 220.673 92.3406C220.54 92.312 220.416 92.2357 220.301 92.1023C220.186 91.9689 220.079 91.8068 219.982 91.6257C219.884 91.4446 219.795 91.254 219.724 91.0729C219.671 90.8727 219.636 90.7298 219.636 90.6345Z" fill="#1E1E1E"/>
<path d="M236.511 88.2324C236.529 88.3277 236.546 88.4706 236.546 88.6517C236.546 88.8328 236.511 89.0235 236.44 89.2046C236.369 89.3857 236.271 89.5477 236.147 89.6812C236.023 89.8146 235.846 89.8813 235.615 89.8813C235.119 89.5382 234.702 89.0807 234.356 88.5088C234.179 87.7748 234.019 86.9265 233.877 85.9639C233.735 85.0107 233.62 84.0099 233.54 82.971C233.452 81.932 233.398 80.8645 233.372 79.7874C233.345 78.7104 233.345 77.6714 233.381 76.6611C233.381 76.4895 233.398 76.2703 233.434 76.0034C233.469 75.7366 233.531 75.4697 233.629 75.2123C233.718 74.955 233.833 74.7357 233.975 74.5546C234.117 74.3735 234.303 74.2782 234.56 74.2878C234.853 74.2878 235.092 74.3926 235.278 74.5832C235.456 74.7834 235.544 75.0979 235.544 75.5364C235.518 76.5181 235.509 77.5666 235.535 78.6818C235.562 79.797 235.615 80.9217 235.704 82.0464C235.784 83.1711 235.899 84.2672 236.041 85.3348C236.174 86.4118 236.333 87.3745 236.511 88.2324Z" fill="#1E1E1E"/>
<path d="M241.237 91.4349C241.122 91.8543 240.971 92.226 240.785 92.5501C240.599 92.8837 240.404 93.0648 240.2 93.1125C239.765 93.2364 239.437 93.1601 239.207 92.8837C238.985 92.6168 238.888 92.2642 238.941 91.8543C239.136 90.3865 239.437 88.8423 239.863 87.2125C240.289 85.5826 240.776 83.9622 241.335 82.3323C241.894 80.712 242.505 79.1297 243.162 77.6047C243.818 76.0797 244.501 74.6976 245.192 73.449C245.308 73.2583 245.441 73.1344 245.591 73.1058C245.742 73.0677 245.866 73.0772 245.981 73.1249C246.097 73.0296 246.23 72.9438 246.389 72.8675C246.549 72.7913 246.709 72.7627 246.868 72.7627C246.939 72.7627 247.01 72.7722 247.09 72.8008C247.17 72.8294 247.258 72.8961 247.347 73.02C247.436 73.144 247.542 73.3251 247.666 73.5538C247.79 73.7921 247.941 74.1257 248.119 74.5641C248.429 75.8128 248.792 77.1091 249.2 78.4339C249.608 79.7588 250.043 81.0837 250.486 82.4181C250.557 82.399 250.619 82.38 250.672 82.3609C250.726 82.3514 250.796 82.3323 250.859 82.3037C251.107 82.2847 251.391 82.2942 251.71 82.3514C252.029 82.399 252.242 82.5802 252.357 82.8756C252.49 83.2474 252.464 83.5619 252.286 83.8288C252.1 84.0957 251.772 84.3625 251.293 84.6294C251.586 85.4205 251.878 86.1831 252.162 86.936C252.455 87.689 252.756 88.4134 253.067 89.1283C253.084 89.2522 253.12 89.4428 253.164 89.7002C253.208 89.9575 253.235 90.2149 253.244 90.4722C253.253 90.7296 253.235 90.9679 253.191 91.1871C253.146 91.4063 253.049 91.5493 252.916 91.6256C252.756 91.7018 252.588 91.6827 252.419 91.5874C252.251 91.4921 252.082 91.3587 251.923 91.1966C251.763 91.0346 251.621 90.863 251.497 90.6819C251.373 90.5008 251.275 90.3293 251.213 90.1863C250.832 89.3761 250.468 88.5564 250.123 87.7367C249.777 86.917 249.449 86.0877 249.129 85.249C248.172 85.4396 247.125 85.6016 245.999 85.7351C244.873 85.8685 243.756 85.9638 242.665 86.002C242.408 86.9265 242.16 87.8415 241.911 88.7375C241.681 89.6239 241.45 90.5294 241.237 91.4349ZM246.203 76.032C245.139 78.5483 244.208 81.0646 243.419 83.581C244.944 83.5428 246.576 83.3522 248.314 82.9995C247.507 80.7596 246.806 78.4435 246.203 76.032Z" fill="#1E1E1E"/>
<path d="M258.812 76.7564C258.688 77.6142 258.582 78.5578 258.484 79.6063C258.387 80.6452 258.289 81.7032 258.192 82.7612C258.094 83.8287 257.997 84.8581 257.917 85.8685C257.828 86.8693 257.757 87.7557 257.713 88.5087C258.484 88.3657 259.353 88.2037 260.302 88.0131C261.251 87.8224 262.217 87.6318 263.193 87.4316C264.177 87.2315 265.135 87.0599 266.084 86.9074C267.033 86.7549 267.893 86.6501 268.664 86.5833C268.735 86.5833 268.815 86.6119 268.904 86.6596C269.081 86.7549 269.178 86.9169 269.17 87.1362C269.17 87.4507 269.107 87.689 268.992 87.851C268.877 88.0131 268.735 88.1274 268.584 88.2132C268.425 88.299 268.256 88.3753 268.088 88.4515C267.919 88.5278 267.76 88.6326 267.627 88.7756C266.917 88.9662 266.146 89.1664 265.294 89.3856C264.452 89.5953 263.583 89.8145 262.687 90.0242C261.801 90.2339 260.905 90.4531 260.018 90.6628C259.132 90.8725 258.298 91.0917 257.518 91.3014C256.808 91.4921 256.276 91.3491 255.913 90.8821C255.549 90.415 255.407 89.6525 255.487 88.604C255.611 86.6215 255.762 84.6294 255.939 82.6373C256.117 80.6452 256.321 78.6531 256.56 76.6706C256.604 76.2512 256.737 75.908 256.959 75.6412C257.181 75.3743 257.447 75.2123 257.766 75.1741C258.289 75.1074 258.6 75.2504 258.706 75.603C258.804 75.9557 258.839 76.3465 258.812 76.7564Z" fill="#1E1E1E"/>
<path d="M279.509 76.0416C279.42 76.1655 279.252 76.2512 279.012 76.318C278.773 76.3752 278.525 76.3084 278.276 76.1083C278.099 75.9558 277.877 75.8033 277.629 75.6412C277.381 75.4792 277.106 75.3267 276.813 75.1742C276.521 75.0217 276.219 74.8978 275.926 74.8025C275.634 74.6976 275.35 74.65 275.075 74.65C274.729 74.65 274.375 74.7262 273.993 74.8978C273.612 75.0693 273.293 75.3076 273.018 75.6222C272.486 76.2322 272.3 76.8231 272.442 77.4046C272.583 77.9764 272.974 78.5197 273.612 79.0154C274.02 79.3395 274.463 79.6635 274.942 79.9971C275.421 80.3307 275.891 80.6643 276.352 80.9789C276.813 81.3029 277.257 81.608 277.682 81.9034C278.099 82.1989 278.471 82.4658 278.791 82.685C279.199 82.9805 279.58 83.3046 279.943 83.6477C280.307 83.9908 280.626 84.3816 280.892 84.8105C281.167 85.2395 281.38 85.7256 281.531 86.2689C281.69 86.8122 281.761 87.4222 281.761 88.1084C281.593 89.4524 281.087 90.5199 280.254 91.311C279.411 92.1021 278.454 92.5978 277.354 92.817C276.396 93.0076 275.456 92.96 274.534 92.6836C273.612 92.4072 272.832 91.8829 272.202 91.1204C272.043 90.9202 271.91 90.6534 271.794 90.3102C271.679 89.9671 271.67 89.7193 271.768 89.5763C271.91 89.3571 272.149 89.2046 272.486 89.1188C272.832 89.033 273.089 89.0521 273.275 89.176C273.798 89.6907 274.41 90.0719 275.111 90.3102C275.811 90.5485 276.556 90.5771 277.336 90.3865C277.931 90.2435 278.409 89.9766 278.782 89.5668C279.145 89.1664 279.376 88.7089 279.473 88.1942C279.589 87.6605 279.535 87.0981 279.296 86.5167C279.057 85.9353 278.64 85.411 278.028 84.944C277.097 84.1815 276.104 83.4571 275.049 82.7899C273.993 82.1227 272.92 81.3506 271.83 80.4832C271.307 79.9876 270.934 79.4443 270.695 78.8534C270.455 78.2624 270.34 77.6905 270.349 77.1186C270.349 76.5277 270.473 75.9748 270.704 75.4506C270.934 74.9264 271.253 74.4498 271.67 74.0209C272.087 73.592 272.566 73.2488 273.115 72.9819C273.665 72.7151 274.268 72.5626 274.933 72.5149C275.847 72.4768 276.725 72.6865 277.558 73.144C278.4 73.6015 279.074 74.1638 279.598 74.8311C279.713 74.9836 279.757 75.1647 279.748 75.3839C279.722 75.6412 279.642 75.8509 279.509 76.0416Z" fill="#1E1E1E"/>
<path d="M130.11 58.1988C129.827 55.368 129.649 52.518 129.561 49.6776C129.215 38.0301 130.27 26.3922 129.72 14.7447C129.596 12.0472 129.596 9.1306 128.55 6.60475C127.654 4.45063 125.907 2.76355 123.885 1.71508C119.07 -0.772642 113.324 0.113788 108.128 0.333013C101.185 0.62849 94.2417 0.81912 87.2985 0.933498H61.5121C53.9748 0.809589 46.4286 0.590364 38.8913 0.256761C36.5946 0.151914 34.1472 -0.0387159 31.957 0.809589C29.8022 1.64836 28.3213 3.30684 27.4789 5.4705C26.6986 7.48165 26.539 9.72155 26.4592 11.8566C26.3528 14.8018 26.273 17.7566 26.202 20.7114C25.9271 32.4733 25.936 44.2351 26.2109 55.9875C26.2641 58.0368 26.3262 60.0861 26.3971 62.1353C26.2109 62.4117 26.14 62.7644 26.2375 63.1838C26.2996 63.4316 26.3705 63.6699 26.4503 63.9177C26.4592 64.1846 26.4681 64.4515 26.4769 64.7184C26.5035 65.376 26.8937 65.7764 27.3637 65.9384C29.0396 68.8074 31.9747 70.8376 35.096 71.8384C40.2923 73.516 45.932 72.5437 51.2525 72.2197C62.6826 71.5239 74.1481 71.7907 85.5871 71.9814C97.026 72.1625 108.483 72.2769 119.886 71.2665C122.272 71.0568 125.029 71.0568 127.087 69.6176C128.78 68.4357 129.747 66.5484 130.093 64.5087C130.447 62.4213 130.323 60.3053 130.11 58.1988ZM122.529 68.3213C121.216 68.4738 119.904 68.5786 118.592 68.6835C115.834 68.9027 113.076 69.0647 110.318 69.1791C104.847 69.3983 99.367 69.4365 93.8959 69.3888C82.9357 69.303 71.9667 68.9218 61.0066 69.141C57.238 69.2172 53.4871 69.446 49.7273 69.6748C45.932 69.6748 42.6777 69.6748 40.2569 69.6748H37.5878C35.4862 69.2649 33.4822 68.4833 31.7708 67.0631C30.5648 66.0623 29.6249 64.8232 29.0751 63.3744C28.7026 52.518 28.5608 41.6521 28.6672 30.7862C28.7204 25.134 28.8445 19.4723 29.0219 13.8201C29.1371 10.2744 28.8711 4.63172 33.0122 3.28778C35.1493 2.59198 37.508 2.89699 39.7071 2.9923C42.4915 3.11621 45.2847 3.22106 48.0691 3.31638C53.5935 3.49747 59.1179 3.62138 64.6423 3.6881C75.6379 3.82155 86.6423 3.72623 97.629 3.41169C103.127 3.24966 108.616 2.95418 114.105 2.77308C118.317 2.63011 123.894 2.9923 126.031 7.42446C127.122 9.69296 126.989 12.6191 127.104 15.0783C127.228 17.8329 127.264 20.597 127.246 23.3516C127.22 28.9275 126.989 34.5035 126.9 40.0794C126.803 45.6458 126.838 51.2217 127.335 56.7691C127.379 57.2361 127.424 57.7127 127.468 58.1797V62.2783C127.468 64.318 126.652 66.1672 125.34 67.5111C125.269 67.5588 125.198 67.6064 125.127 67.6541C124.32 68.0449 123.415 68.2164 122.529 68.3213Z" fill="#1E1E1E"/>
<path d="M99.0838 31.4534C98.8355 29.4518 98.197 27.5836 97.3724 25.7536C96.4945 23.7996 95.5014 21.8647 94.189 20.1777C92.9387 18.5573 91.3159 17.3563 89.507 16.4794C85.6142 14.5827 81.0297 13.0386 76.6758 13.4293C76.0551 13.4865 75.5142 13.9345 75.5142 14.6113C75.5142 15.2117 76.0463 15.8503 76.6758 15.7932C80.2139 15.4786 83.6368 16.5843 86.8911 17.8806C88.3454 18.462 89.8262 19.1673 91.0233 20.2062C92.2736 21.2928 93.187 22.6844 93.9762 24.1428C95.6166 27.1642 96.9733 30.3382 96.8758 33.8554C96.7871 37.1247 95.7319 40.6037 93.985 43.3583C92.1406 46.2654 89.2055 47.4282 85.9689 48.0001C82.617 48.5911 79.1144 48.4576 75.798 47.7332C72.7298 47.0565 69.3336 45.989 66.904 43.8635C64.7403 41.9667 63.5609 39.2407 63.1619 36.3907C62.7097 33.15 63.1796 29.5376 64.625 26.5924C66.1148 23.5613 68.9169 21.1213 72.3929 21.2547C73.8826 21.3119 73.8826 18.9386 72.3929 18.8909C68.8636 18.7575 65.6891 20.7781 63.6673 23.6376C61.6456 26.497 60.7766 30.2048 60.7056 33.6933C60.6347 36.9722 61.3618 40.4035 63.1885 43.1391C65.2457 46.2177 68.4735 47.9239 71.852 49.0867C75.5319 50.3544 79.5045 50.9263 83.3796 50.6785C87.0684 50.4402 91.1297 49.6586 93.9496 47.047C96.5743 44.626 98.0374 40.8515 98.7557 37.382C99.1725 35.4376 99.3321 33.436 99.0838 31.4534Z" fill="#1E1E1E"/>
<path d="M90.3403 34.3129C85.2238 31.1866 79.7438 28.7084 74.0331 26.9451C73.3592 26.7354 72.8538 27.0594 72.5966 27.5455C72.0025 27.7552 71.5148 28.3367 71.6744 29.1373C72.171 31.6441 72.7385 34.1318 73.4036 36.6005C73.7317 37.811 74.0686 39.012 74.4411 40.2034C74.7869 41.3376 75.3987 42.4242 76.7643 41.9286C77.8461 41.5378 78.8748 40.8325 79.9211 40.3273C80.9586 39.8317 82.0138 39.3742 83.0868 38.9452C85.348 38.0588 87.6712 37.3344 90.03 36.7625C91.1473 36.5052 91.2803 34.8943 90.3403 34.3129ZM82.3774 36.3622C81.2335 36.8102 80.1073 37.2963 78.99 37.8205C78.4846 38.0588 77.988 38.2971 77.4826 38.5544C77.3673 38.6116 77.0747 38.8023 76.782 38.9834C76.3121 37.506 75.9485 35.9619 75.5761 34.475C75.1948 32.969 74.8578 31.463 74.5386 29.938C78.5821 31.2724 82.4927 32.9785 86.2258 35.0373C84.9312 35.4281 83.6454 35.8666 82.3774 36.3622Z" fill="#1E1E1E"/>
<path d="M115.24 86.3738C100.636 85.8781 86.0309 85.9639 71.4352 86.6502C69.6617 86.736 69.6439 89.7098 71.4352 89.6335C86.0309 88.9473 100.644 88.8615 115.24 89.3571C117.023 89.4143 117.023 86.4405 115.24 86.3738Z" fill="#1E1E1E"/>
<path d="M93.2313 108.992C85.96 108.906 78.6976 108.811 71.4264 108.725C69.644 108.706 69.644 111.68 71.4264 111.709C78.6976 111.794 85.96 111.89 93.2313 111.975C95.0225 111.995 95.0225 109.021 93.2313 108.992Z" fill="#1E1E1E"/>
<path d="M113.484 108.525C108.59 108.344 103.704 108.478 98.8177 108.935C97.0531 109.097 97.0353 112.08 98.8177 111.918C103.695 111.47 108.59 111.337 113.484 111.509C115.267 111.575 115.267 108.592 113.484 108.525Z" fill="#1E1E1E"/>
<path d="M80.7015 131.162C77.5535 130.61 74.4233 130.419 71.2399 130.638C69.4665 130.762 69.4576 133.745 71.2399 133.622C74.1662 133.412 77.0658 133.536 79.9655 134.041C81.7123 134.336 82.4661 131.467 80.7015 131.162Z" fill="#1E1E1E"/>
<path d="M129.995 131.048C115.187 131.601 100.369 131.544 85.5694 130.886C83.7871 130.81 83.7871 133.784 85.5694 133.869C100.369 134.527 115.187 134.575 129.995 134.022C131.778 133.955 131.786 130.981 129.995 131.048Z" fill="#1E1E1E"/>
<path d="M123.708 86.2119H120.711C118.929 86.2119 118.92 89.1953 120.711 89.1953H123.708C125.49 89.1953 125.499 86.2119 123.708 86.2119Z" fill="#1E1E1E"/>
<path d="M82.9004 90.9393C79.1761 91.006 75.4606 91.0728 71.7363 91.1395C69.954 91.1681 69.9451 94.1514 71.7363 94.1228C75.4606 94.0561 79.1761 93.9894 82.9004 93.9227C84.6827 93.8846 84.6827 90.9012 82.9004 90.9393Z" fill="#1E1E1E"/>
<path d="M101.602 113.31C96.3793 113.71 91.1387 113.92 85.9069 113.901C81.0919 113.882 76.002 113.024 71.2225 113.748C69.4667 114.015 70.2116 116.884 71.9585 116.627C74.335 116.265 76.8356 116.665 79.2298 116.751C81.7126 116.846 84.2044 116.894 86.6873 116.884C91.6619 116.875 96.6365 116.675 101.602 116.293C103.376 116.15 103.393 113.167 101.602 113.31Z" fill="#1E1E1E"/>
<path d="M99.1458 136.567C89.9059 136.624 80.6749 136.328 71.4528 135.671C69.6705 135.547 69.6793 138.521 71.4528 138.654C80.6749 139.312 89.9059 139.607 99.1458 139.55C100.928 139.531 100.937 136.557 99.1458 136.567Z" fill="#1E1E1E"/>
<path d="M41.2056 116.084C40.1149 115.102 38.9356 114.32 37.6764 113.739C38.1641 113.491 38.6607 113.253 39.1661 113.043C40.4608 112.481 40.6825 110.86 39.5386 109.964C38.4833 109.135 37.3572 108.42 36.1867 107.801C37.1798 107.305 38.2617 106.628 38.2617 105.284C38.2617 103.912 37.2064 103.331 36.2488 102.74L35.3354 102.177C35.8054 101.882 36.2754 101.596 36.7453 101.3C37.8626 100.605 39.3612 99.9469 39.2548 98.2979C39.1484 96.7061 37.5257 96.0961 36.4084 95.4289C35.7611 95.0477 35.1137 94.6664 34.4753 94.2851C35.0871 93.7418 35.7611 93.2843 36.497 92.9603C37.0823 92.6934 37.5345 92.2931 37.6143 91.5591C37.6853 90.9396 37.4281 90.1675 36.8695 89.8816C35.4684 89.1667 34.1028 88.3661 32.7816 87.5082C33.5442 86.822 34.3423 86.1929 35.2201 85.6591C36.967 84.5821 35.3886 81.6749 33.6417 82.752C31.9747 83.7814 30.4406 85.0777 29.1282 86.5837C28.41 87.4034 28.5873 88.6139 29.4475 89.2239C30.547 90.0055 31.6732 90.7394 32.8259 91.4162C32.0811 92.0071 31.3983 92.6934 30.7953 93.4845C30.1834 94.2947 30.1568 95.5624 31.1145 96.1247C32.0456 96.6775 32.9767 97.2304 33.8989 97.7737C34.2802 98.0024 34.6615 98.2216 35.0339 98.4504C34.7147 98.6506 34.4043 98.8412 34.0851 99.0414C33.1895 99.5942 32.3028 100.157 31.4072 100.709C30.3963 101.338 30.3874 102.987 31.4072 103.616C32.1254 104.064 32.8525 104.512 33.5708 104.96C33.6949 105.037 33.828 105.122 33.9521 105.199C33.8191 105.265 33.6861 105.332 33.5442 105.399C32.8259 105.752 32.1077 106.104 31.3894 106.447C30.0948 107.076 30.5825 109.135 31.7618 109.526C33.0388 109.945 34.2536 110.508 35.4152 111.175C34.4753 111.671 33.5442 112.214 32.6397 112.805C31.2298 113.72 31.9392 115.788 33.4289 115.941C34.4753 116.055 35.5128 116.351 36.4882 116.808C34.9009 117.58 33.4289 118.6 32.0899 119.839C31.2032 120.659 31.682 122.374 32.7816 122.651C33.828 122.918 34.7856 123.328 35.699 123.938C36.2133 124.281 36.8429 124.719 37.3128 125.253C37.2596 125.282 37.2064 125.31 37.1532 125.329C36.6301 125.577 36.1157 125.815 35.5926 126.063C34.5019 126.578 33.4201 127.083 32.3294 127.598C31.1323 128.16 31.416 130.448 32.7018 130.676C33.5265 130.819 34.3334 131.02 35.1315 131.296C35.2911 131.353 35.4418 131.42 35.6014 131.487C35.3088 131.649 35.0251 131.811 34.7324 131.973C33.9078 132.43 33.0742 132.888 32.2496 133.345C31.5313 133.746 31.2387 134.918 31.6909 135.652C32.3648 136.748 33.2427 137.682 34.2536 138.387C33.9344 138.54 33.6063 138.673 33.2516 138.826C31.7973 139.426 30.4672 140.99 31.4338 142.696C32.285 144.211 34.2536 143.353 34.3689 141.981C34.4841 141.943 34.626 141.886 34.7058 141.857C35.2201 141.685 35.7256 141.457 36.2044 141.199C37.1089 140.704 37.9424 140.008 38.6341 139.207C39.3878 138.349 39.1573 136.643 37.9424 136.395C37.0734 136.214 36.2754 135.852 35.5926 135.309C36.2044 134.975 36.8163 134.632 37.4281 134.279C38.4301 133.688 39.3967 132.745 39.4056 131.429C39.4233 130.133 38.5986 129.304 37.6232 128.78C37.9513 128.627 38.2794 128.475 38.5986 128.322C40.0529 127.636 41.4096 126.311 40.5938 124.443C40.0174 123.118 38.6962 122.05 37.5877 121.259C37.2419 121.011 36.8695 120.783 36.497 120.573C37.7385 119.811 39.0863 119.258 40.4874 118.905C41.6047 118.619 42.1101 116.894 41.2056 116.084Z" fill="#59C69F"/>
<path d="M124.781 55.3775C124.684 54.472 124.099 53.6904 123.132 53.6904C122.316 53.6904 121.385 54.4625 121.483 55.3775C121.642 56.8263 121.616 58.2751 121.314 59.6858C121.164 60.4101 120.951 61.125 120.685 61.8208C120.578 62.0972 120.454 62.3832 120.303 62.6405C120.179 62.8407 120.17 62.8883 119.966 62.9932C120.055 62.9455 119.425 63.1266 119.523 63.1171C119.204 63.1648 118.876 63.1552 118.548 63.1552C117.75 63.1648 116.943 63.1648 116.145 63.1648L111.09 63.1838C108.971 63.1933 108.962 66.558 111.09 66.5484C112.979 66.5389 114.859 66.5294 116.748 66.5198C118.45 66.5103 120.481 66.7581 121.953 65.6811C123.398 64.6231 124.028 62.6024 124.427 60.9058C124.852 59.1043 124.985 57.2266 124.781 55.3775Z" fill="#1E1E1E"/>
<path d="M46.1006 6.72854C45.8523 5.82305 44.9479 5.34648 44.07 5.55617C42.7665 5.86118 41.0196 5.36554 39.5742 5.33694C38.7939 5.31788 38.0135 5.34648 37.2421 5.43226C36.444 5.51804 35.5839 5.58476 34.8124 5.86118C33.0921 6.47119 32.4448 8.10108 32.028 9.78816C31.629 11.418 31.5049 13.1242 31.6822 14.7922C31.7797 15.6977 32.3739 16.4793 33.3315 16.4793C34.1473 16.4793 35.0784 15.7072 34.9809 14.7922C34.839 13.4387 34.8745 12.1424 35.1582 10.8843C35.238 10.5411 35.3267 10.2075 35.4331 9.87394C35.4863 9.71191 35.5395 9.54034 35.6016 9.3783C35.6105 9.36877 35.6459 9.29252 35.6637 9.24486C35.7612 9.09236 35.7789 9.05423 35.7169 9.13048C35.6459 9.1972 35.6725 9.17814 35.7878 9.05423C35.8144 9.03517 35.841 9.02564 35.8588 9.01611C35.9474 8.99704 36.0982 8.96845 36.0982 8.96845C36.2401 8.93032 36.3819 8.91126 36.5327 8.88267C37.8007 8.66344 39.2018 8.62531 40.5407 8.73016C42.0393 8.84454 43.4581 9.14002 44.9567 8.78735C45.8169 8.59672 46.3223 7.57685 46.1006 6.72854Z" fill="#1E1E1E"/>
<path d="M173.082 124.128C172.479 118.114 166.325 113.367 160.872 116.322C157.413 118.19 156.349 121.936 157.236 125.32C156.589 130.066 158.327 135.318 163.621 135.652C166.254 135.814 168.968 134.146 170.847 132.278C172.967 130.171 173.384 127.121 173.082 124.128Z" fill="#F7C300"/>
<path d="M174.261 120.659C173.109 117.065 169.881 114.292 166.041 113.596C161.838 112.833 157.236 114.606 153.405 118.486C153.148 118.743 153.006 119.076 152.997 119.439C152.988 119.801 153.113 120.154 153.352 120.43C153.609 120.725 153.964 120.897 154.336 120.907C154.682 120.935 155.037 120.783 155.303 120.506C158.052 117.723 161.244 116.227 164.294 116.293C166.511 116.322 168.657 117.323 170.138 118.914C169.757 118.895 169.367 119.067 169.1 119.429L164.534 125.577L164.525 125.567L161.865 123.299C161.572 123.051 161.217 122.946 160.863 122.984C160.49 123.032 160.144 123.242 159.905 123.556C159.692 123.852 159.586 124.204 159.63 124.557C159.666 124.91 159.843 125.224 160.109 125.463L162.982 127.912C163.035 127.96 163.088 128.007 163.142 128.065L163.186 128.103C163.549 128.455 164.055 128.942 164.764 128.942C165.589 128.913 166.068 128.198 166.405 127.674C166.449 127.607 166.493 127.54 166.529 127.483L171.113 121.326C171.255 121.135 171.335 120.945 171.379 120.735C172.585 123.261 172.169 126.578 170.28 128.989C168.285 131.534 164.862 133.297 162.175 131.763C160.827 130.991 159.621 129.599 158.761 127.845C157.892 126.054 157.857 124.157 158.672 122.775C159.063 122.117 158.894 121.307 158.273 120.878C157.697 120.487 156.828 120.544 156.367 121.316C154.052 125.215 156.181 130.495 159.577 133.345C161.049 134.584 162.698 135.232 164.339 135.232C164.631 135.232 164.933 135.213 165.225 135.166C167.194 134.889 169.207 133.888 170.909 132.335C174.19 129.342 175.538 124.643 174.261 120.659Z" fill="#1E1E1E"/>
<path d="M173.082 155.754C172.479 149.739 166.325 144.993 160.872 147.947C157.413 149.816 156.349 153.561 157.236 156.945C156.589 161.692 158.327 166.944 163.621 167.277C166.254 167.439 168.968 165.771 170.847 163.903C172.967 161.787 173.384 158.737 173.082 155.754Z" fill="#F7C300"/>
<path d="M174.261 152.275C173.109 148.681 169.881 145.908 166.041 145.212C161.838 144.449 157.236 146.222 153.405 150.101C153.148 150.359 153.006 150.692 152.997 151.055C152.988 151.417 153.113 151.769 153.352 152.046C153.609 152.341 153.964 152.513 154.336 152.522C154.682 152.551 155.037 152.399 155.303 152.122C158.052 149.339 161.244 147.843 164.294 147.909C166.511 147.938 168.657 148.939 170.138 150.53C169.757 150.511 169.367 150.683 169.1 151.045L164.534 157.193L164.525 157.183L161.865 154.915C161.572 154.667 161.217 154.562 160.863 154.6C160.49 154.648 160.144 154.858 159.905 155.172C159.692 155.468 159.586 155.82 159.63 156.173C159.666 156.526 159.843 156.84 160.109 157.079L162.982 159.528C163.035 159.576 163.088 159.623 163.142 159.681L163.186 159.719C163.549 160.071 164.055 160.558 164.764 160.558C165.589 160.529 166.068 159.814 166.405 159.29C166.449 159.223 166.493 159.156 166.529 159.099L171.113 152.942C171.255 152.751 171.335 152.561 171.379 152.351C172.585 154.877 172.169 158.194 170.28 160.605C168.285 163.15 164.862 164.913 162.175 163.379C160.827 162.607 159.621 161.215 158.761 159.461C157.892 157.669 157.857 155.773 158.672 154.391C159.063 153.733 158.894 152.923 158.273 152.494C157.697 152.103 156.828 152.16 156.367 152.932C154.052 156.831 156.181 162.111 159.577 164.961C161.049 166.2 162.698 166.848 164.339 166.848C164.631 166.848 164.933 166.829 165.225 166.782C167.194 166.505 169.207 165.504 170.909 163.951C174.19 160.958 175.538 156.268 174.261 152.275Z" fill="#1E1E1E"/>
<path d="M173.082 187.37C172.479 181.355 166.325 176.609 160.872 179.564C157.413 181.432 156.349 185.178 157.236 188.561C156.589 193.308 158.327 198.56 163.621 198.893C166.254 199.055 168.968 197.387 170.847 195.519C172.967 193.413 173.384 190.353 173.082 187.37Z" fill="#F7C300"/>
<path d="M174.261 183.891C173.109 180.297 169.881 177.524 166.041 176.828C161.838 176.065 157.236 177.838 153.405 181.717C153.148 181.975 153.006 182.308 152.997 182.671C152.988 183.033 153.113 183.385 153.352 183.662C153.609 183.957 153.964 184.129 154.336 184.138C154.682 184.167 155.037 184.015 155.303 183.738C158.052 180.955 161.244 179.458 164.294 179.525C166.511 179.554 168.657 180.555 170.138 182.146C169.757 182.127 169.367 182.299 169.1 182.661L164.534 188.809L164.525 188.799L161.865 186.531C161.572 186.283 161.217 186.178 160.863 186.216C160.49 186.264 160.144 186.474 159.905 186.788C159.692 187.084 159.586 187.436 159.63 187.789C159.666 188.142 159.843 188.456 160.109 188.695L162.982 191.144C163.035 191.192 163.088 191.239 163.142 191.297L163.186 191.335C163.549 191.687 164.055 192.174 164.764 192.174C165.589 192.145 166.068 191.43 166.405 190.906C166.449 190.839 166.493 190.772 166.529 190.715L171.113 184.558C171.255 184.367 171.335 184.177 171.379 183.967C172.585 186.493 172.169 189.81 170.28 192.221C168.285 194.766 164.862 196.529 162.175 194.995C160.827 194.223 159.621 192.831 158.761 191.077C157.892 189.285 157.857 187.389 158.672 186.007C159.063 185.349 158.894 184.539 158.273 184.11C157.697 183.719 156.828 183.776 156.367 184.548C154.052 188.447 156.181 193.727 159.577 196.577C161.049 197.816 162.698 198.464 164.339 198.464C164.631 198.464 164.933 198.445 165.225 198.398C167.194 198.121 169.207 197.12 170.909 195.567C174.19 192.583 175.538 187.884 174.261 183.891Z" fill="#1E1E1E"/>
<path d="M242.674 122.727C241.636 123.328 240.226 122.584 239.251 122.117C237.539 121.307 236.058 120.811 234.471 122.212C234.17 122.479 233.966 122.803 233.593 122.832C233.07 122.88 232.494 122.489 232.077 122.184C231.554 121.812 231.164 121.278 230.649 120.897C229.922 120.363 229.08 120.192 228.229 120.478C227.076 120.868 226.366 121.926 225.107 122.108C223.999 122.27 222.908 121.955 222.012 121.25C220.771 120.268 219.521 119.477 217.978 120.363C217.437 120.678 217.02 121.126 216.621 121.612C216.311 121.984 216.195 122.251 215.734 122.203C214.564 122.069 213.819 120.64 212.861 120.077C211.584 119.324 210.015 119.601 209.031 120.754C208.685 121.164 208.41 121.641 208.153 122.127C208.029 122.346 207.922 122.575 207.789 122.794C207.789 122.794 207.78 122.813 207.771 122.832C207.461 122.594 207.115 122.279 206.698 121.936C205.67 121.078 204.437 120.478 203.107 120.84C201.786 121.202 201.139 122.27 200.278 123.28C199.578 124.109 198.691 123.595 197.92 123.042C197.405 122.679 197.024 122.136 196.501 121.793C195.774 121.307 194.905 121.193 194.116 121.555C193.371 121.888 192.883 122.556 192.537 123.318C192.404 123.623 192.262 124.052 192.174 124.205C192.138 124.271 191.996 124.414 192.032 124.386C191.783 124.548 191.42 124.586 191.039 124.538C190.436 124.462 189.992 124.185 189.478 123.814C188.095 122.832 186.933 121.383 185.337 120.773C183.954 120.249 183.049 120.888 182.313 121.85C181.941 121.984 181.586 122.241 181.32 122.679C180.788 123.537 180.77 124.367 180.894 125.348C180.992 126.12 181.825 126.73 182.473 126.807C183.253 126.902 183.927 126.54 184.361 125.834C184.512 125.596 184.663 125.348 184.814 125.11C185.026 125.263 185.23 125.425 185.434 125.587C186.055 126.111 186.658 126.654 187.305 127.15C188.414 127.989 189.646 128.513 191.012 128.618C192.262 128.713 193.548 128.332 194.515 127.474C194.905 127.131 195.215 126.692 195.455 126.225C195.747 126.435 196.049 126.616 196.261 126.749C196.882 127.15 197.592 127.493 198.301 127.664C199.773 128.027 201.263 127.75 202.442 126.711C202.859 126.34 203.178 125.901 203.524 125.463C203.675 125.263 203.852 125.072 204.012 124.881C204.118 124.948 204.455 125.196 204.393 125.139C204.863 125.52 205.297 125.958 205.785 126.311C206.743 126.997 207.931 127.264 209.022 126.826C210.183 126.359 210.848 125.31 211.451 124.205C211.469 124.176 211.487 124.147 211.505 124.119C211.664 124.271 211.806 124.414 211.85 124.452C213.003 125.482 214.386 126.292 215.912 126.321C217.375 126.349 218.483 125.529 219.423 124.414C219.441 124.395 219.468 124.367 219.494 124.328C219.689 124.51 220.008 124.7 220.133 124.786C220.425 125.005 220.727 125.205 221.055 125.367C223.458 126.597 226.473 126.549 228.734 124.948C228.823 124.881 228.902 124.815 228.991 124.748C229.071 124.815 229.151 124.881 229.222 124.938C229.869 125.51 230.543 125.996 231.314 126.349C232.804 127.035 234.516 127.178 235.943 126.206C236.165 126.054 236.679 125.71 236.901 125.425C236.99 125.463 237.069 125.501 237.078 125.501C237.876 125.863 238.657 126.273 239.481 126.559C241.219 127.169 242.993 127.197 244.624 126.254C246.744 125.005 244.828 121.479 242.674 122.727Z" fill="#1E1E1E"/>
<path d="M238.541 155.506C238.249 156.135 237.77 156.459 237.291 156.516C236.972 156.554 236.679 156.535 236.502 156.45C235.979 156.211 235.633 155.668 235.136 155.354C234.471 154.944 233.682 154.82 232.937 155.02C232.21 155.211 231.749 155.735 231.163 156.183C230.498 156.697 229.736 156.888 228.938 156.555C228.131 156.221 227.696 155.296 227.04 154.715C225.879 153.676 224.318 153.428 222.988 154.276C222.376 154.667 221.72 155.735 220.975 155.716C219.76 155.687 218.652 154.181 217.65 153.59C216.257 152.77 214.75 152.923 213.606 154.124C212.879 154.886 212.356 155.477 211.345 155.763C210.627 155.964 209.864 155.954 209.155 155.754C208.108 155.449 207.603 154.601 206.689 154.067C205.483 153.371 204.118 153.743 203.24 154.81C203.196 154.867 203.045 155.087 202.894 155.306C202.761 155.144 202.61 154.982 202.539 154.858C201.812 153.743 200.952 152.713 199.666 152.408C198.053 152.037 197.033 153.104 196.031 154.238C195.348 155.01 194.373 155.744 193.335 155.439C192.342 155.153 192.032 153.819 191.313 153.123C189.859 151.722 188.263 152.332 186.862 153.428C186.206 153.943 185.55 154.458 184.893 154.972C184.76 154.543 184.503 154.153 184.086 153.895C183.253 153.371 181.941 153.628 181.488 154.629C180.735 156.288 180.424 158.194 181.843 159.576C183.368 161.063 184.991 159.929 186.339 158.871C186.959 158.385 187.58 157.889 188.21 157.403C188.511 157.165 188.813 156.926 189.105 156.697C189.3 156.993 189.531 157.327 189.593 157.412C190.063 158.08 190.657 158.613 191.367 158.975C194.186 160.415 197.13 159.033 199.072 156.688L199.081 156.678C199.329 157.222 199.862 157.889 200.234 158.308C201.342 159.557 203.036 160.215 204.517 159.271C204.934 159.004 205.244 158.651 205.537 158.261C206.45 159.014 207.505 159.576 208.64 159.795C211.221 160.31 213.996 159.595 215.858 157.527C215.92 157.46 215.991 157.384 216.053 157.307C216.133 157.365 216.213 157.422 216.275 157.46C216.905 157.918 217.481 158.442 218.137 158.852C219.512 159.7 221.17 160.091 222.686 159.452C223.36 159.166 223.892 158.718 224.433 158.213C224.477 158.165 224.602 158.08 224.699 158.003C224.939 158.337 225.373 158.728 225.595 158.966C226.082 159.471 226.632 159.881 227.244 160.176C228.672 160.863 230.339 160.987 231.82 160.396C232.21 160.243 232.6 160.062 232.946 159.814C233.105 159.7 233.46 159.5 233.682 159.29C233.904 159.5 234.17 159.69 234.409 159.843C236.918 161.454 240.536 160.358 241.849 157.546C242.913 155.23 239.641 153.152 238.541 155.506Z" fill="#1E1E1E"/>
<path d="M279.668 156.936C279.651 156.869 279.624 156.802 279.58 156.745C279.456 156.564 279.234 156.497 279.03 156.45C278.117 156.211 277.248 156.04 276.441 155.554C276.192 155.411 274.472 154.315 274.472 154.095C273.266 153.4 271.901 153.771 271.023 154.839C270.978 154.896 270.828 155.115 270.677 155.334C270.544 155.172 270.393 155.01 270.322 154.886C269.595 153.771 268.735 152.742 267.449 152.437C265.835 152.065 264.816 153.133 263.814 154.267C263.131 155.039 262.155 155.773 261.118 155.468C260.125 155.182 259.814 153.848 259.096 153.152C257.642 151.751 256.046 152.361 254.645 153.457C253.988 153.971 253.332 154.486 252.676 155.001C252.543 154.572 252.286 154.181 251.869 153.924C251.036 153.4 249.723 153.657 249.271 154.658C248.517 156.316 248.207 158.222 249.626 159.605C251.151 161.091 252.774 159.957 254.121 158.899C254.742 158.413 255.363 157.917 255.992 157.431C256.294 157.193 256.595 156.955 256.897 156.726C257.092 157.022 257.323 157.355 257.385 157.441C257.855 158.108 258.449 158.642 259.158 159.004C261.978 160.443 264.922 159.061 266.873 156.697C267.121 157.241 267.653 157.908 268.026 158.327C269.134 159.576 270.828 160.234 272.309 159.29C272.725 159.023 273.036 158.67 273.328 158.28C274.472 159.223 275.855 159.814 277.292 159.938C278.037 160.005 278.853 159.795 279.314 159.157C279.491 158.909 279.598 158.613 279.668 158.299C279.748 157.927 279.775 157.546 279.731 157.164C279.704 157.098 279.686 157.012 279.668 156.936Z" fill="#1E1E1E"/>
<path d="M310.483 123.07C310.19 123.699 309.711 124.023 309.232 124.081C308.913 124.119 308.62 124.1 308.443 124.014C307.92 123.776 307.574 123.232 307.078 122.918C306.412 122.508 305.623 122.384 304.878 122.584C304.151 122.775 303.69 123.299 303.105 123.747C302.44 124.262 301.677 124.452 300.879 124.119C300.072 123.785 299.638 122.861 298.982 122.279C297.82 121.24 296.259 120.992 294.929 121.841C294.317 122.231 293.661 123.299 292.916 123.28C291.701 123.251 290.593 121.745 289.591 121.154C288.199 120.335 286.691 120.487 285.547 121.688C284.82 122.451 284.297 123.042 283.286 123.328C282.568 123.528 281.805 123.518 281.096 123.318C280.05 123.013 279.544 122.165 278.631 121.631C277.425 120.935 276.059 121.307 275.181 122.374C275.137 122.432 274.986 122.651 274.836 122.87C274.703 122.708 274.552 122.546 274.481 122.422C273.754 121.307 272.894 120.278 271.608 119.972C269.994 119.601 268.974 120.668 267.972 121.803C267.289 122.575 266.314 123.309 265.277 123.004C264.283 122.718 263.973 121.383 263.255 120.687C261.8 119.286 260.204 119.896 258.803 120.992C258.147 121.507 257.491 122.022 256.835 122.536C256.702 122.108 256.445 121.717 256.028 121.459C255.194 120.935 253.882 121.193 253.43 122.193C252.676 123.852 252.366 125.758 253.784 127.14C255.31 128.627 256.932 127.493 258.28 126.435C258.901 125.949 259.522 125.453 260.151 124.967C260.453 124.729 260.754 124.49 261.047 124.262C261.242 124.557 261.472 124.891 261.534 124.977C262.004 125.644 262.599 126.178 263.308 126.54C266.128 127.979 269.072 126.597 271.014 124.252L271.023 124.243C271.271 124.786 271.803 125.453 272.175 125.873C273.284 127.121 274.977 127.779 276.458 126.835C276.875 126.568 277.185 126.216 277.478 125.825C278.391 126.578 279.447 127.14 280.582 127.359C283.162 127.874 285.938 127.159 287.8 125.091C287.862 125.024 287.933 124.948 287.995 124.872C288.075 124.929 288.154 124.986 288.217 125.024C288.846 125.482 289.422 126.006 290.079 126.416C291.453 127.264 293.111 127.655 294.628 127.016C295.302 126.73 295.834 126.282 296.375 125.777C296.419 125.73 296.543 125.644 296.641 125.567C296.88 125.901 297.314 126.292 297.536 126.53C298.024 127.035 298.574 127.445 299.185 127.741C300.613 128.427 302.28 128.551 303.761 127.96C304.151 127.807 304.541 127.626 304.887 127.378C305.047 127.264 305.402 127.064 305.623 126.854C305.845 127.064 306.111 127.255 306.35 127.407C308.86 129.018 312.478 127.922 313.79 125.11C314.854 122.784 311.582 120.716 310.483 123.07Z" fill="#1E1E1E"/>
<path d="M236.821 186.416C236.378 186.55 235.757 186.207 235.19 185.93C234.25 185.463 233.318 185.025 232.272 184.949C231.368 184.882 230.49 185.149 229.656 185.52C229.036 185.797 228.211 186.369 227.546 186.188C226.748 185.978 226.038 185.177 225.24 184.882C224.141 184.482 223.006 184.653 221.986 185.206C221.268 185.597 220.665 186.235 219.911 186.54C219.024 186.903 218.146 186.721 217.304 186.302C216.302 185.806 215.353 185.263 214.236 185.158C213.163 185.053 212.161 185.416 211.221 185.959C210.68 186.273 209.971 186.998 209.341 187.007C208.685 187.017 208.002 186.254 207.514 185.845C206.565 185.053 205.51 184.462 204.269 184.777C203.178 185.053 202.194 185.854 201.21 186.378C200.42 186.798 199.569 187.169 198.673 187.188C197.796 187.208 197.219 186.864 196.536 186.302C195.588 185.53 194.63 184.777 193.38 184.777C192.165 184.777 191.26 185.511 190.445 186.378C189.017 187.913 187.172 185.149 186.366 184.081C185.887 183.443 184.69 183.281 184.06 183.767C182.615 184.891 181.861 186.302 181.675 188.208C181.568 189.304 182.623 190.248 183.572 190.248C184.45 190.248 185.053 189.667 185.319 188.876C186.419 189.953 187.687 190.753 189.283 190.887C190.223 190.963 191.225 190.734 192.041 190.219C192.484 189.934 192.856 189.552 193.22 189.161C193.282 189.095 193.362 188.999 193.442 188.923C194.204 189.381 194.816 190.086 195.597 190.524C196.572 191.068 197.716 191.316 198.815 191.258C200.004 191.201 201.103 190.849 202.185 190.353C202.708 190.115 203.214 189.848 203.719 189.552C203.923 189.438 204.118 189.314 204.322 189.2C204.526 189.085 204.721 188.961 204.925 188.847C204.943 188.837 204.943 188.837 204.961 188.828C206.486 190.2 208.277 191.468 210.361 190.925C211.292 190.677 212.099 190.105 212.915 189.6C213.597 189.181 213.934 189.104 214.697 189.438C215.717 189.895 216.639 190.486 217.747 190.677C219.095 190.906 220.425 190.725 221.676 190.124C222.083 189.924 222.465 189.686 222.837 189.419C223.112 189.219 223.573 188.733 223.919 188.694C224.416 188.637 225.152 189.419 225.622 189.676C226.748 190.277 227.918 190.42 229.133 190.076C230.064 189.81 231.066 188.971 232.042 188.99C232.76 188.999 233.576 189.581 234.25 189.895C235.42 190.439 236.591 190.715 237.85 190.334C240.173 189.629 239.18 185.692 236.821 186.416Z" fill="#1E1E1E"/>
<path d="M67.7993 127.264C66.7264 125.672 64.2346 126.196 62.6651 126.206C60.5901 126.206 58.524 126.215 56.449 126.215C54.8529 126.215 53.0262 126.006 51.5631 126.854C49.8694 127.826 49.7719 129.895 49.5945 131.725C49.3906 133.869 49.3728 136.042 49.5413 138.187C49.6832 140.036 49.5857 142.61 51.6518 143.153C55.8638 144.239 60.2443 142.591 64.474 143.496C66.15 143.858 66.8594 141.104 65.1834 140.741C61.9823 140.055 58.79 140.579 55.5623 140.627C54.7908 140.637 54.0194 140.618 53.2479 140.541C53.0883 140.522 52.6804 140.398 52.4676 140.398C52.4676 140.217 52.3789 139.96 52.3612 139.807C52.1395 138.044 52.0685 136.252 52.104 134.479C52.1217 133.612 52.1661 132.754 52.2459 131.896C52.2991 131.258 52.2548 130.152 52.6006 129.599C53.0794 128.817 54.8263 129.094 55.5268 129.094L60.6522 129.084C61.4769 129.084 62.3104 129.084 63.1351 129.084C63.4986 129.084 63.8622 129.084 64.2258 129.084C64.5716 129.084 65.3431 129.246 65.6623 129.094C65.5825 129.37 65.6357 129.866 65.6091 130.152C65.5115 131.153 65.414 132.163 65.3253 133.164C65.1214 135.28 64.9174 137.405 64.7223 139.521C64.6514 140.293 65.3874 140.951 66.0524 140.951C66.8328 140.951 67.3116 140.293 67.3826 139.521L68.021 132.83C68.1718 131.134 68.8102 128.76 67.7993 127.264Z" fill="#1E1E1E"/>
<path d="M63.5166 103.807C61.2377 103.721 58.9587 103.645 56.6798 103.588C55.6512 103.559 54.6314 103.54 53.6028 103.512C52.5476 103.492 51.3062 103.273 50.2775 103.559C48.0696 104.179 48.3533 107.267 48.4243 109.154C48.5129 111.594 48.6016 114.034 48.6903 116.474C48.7346 117.637 48.7169 118.819 48.8233 119.982C48.9208 121.011 49.4263 121.822 50.3928 122.031C51.519 122.279 52.8491 122.022 54.0019 121.974C55.2433 121.926 56.4936 121.869 57.735 121.812C60.1558 121.698 62.5766 121.555 65.0063 121.402C65.6448 122.251 67.3296 121.946 67.4271 120.506C67.5956 118.076 67.7641 115.645 67.9326 113.215C68.101 110.813 68.4557 108.335 68.438 105.923C68.4203 103.302 65.1748 103.874 63.5166 103.807ZM54.3477 119.096C53.7802 119.115 53.2127 119.134 52.654 119.162C52.317 119.172 51.9712 119.181 51.6343 119.2C51.5633 119.2 51.5012 119.2 51.4303 119.21C51.4303 118.962 51.4392 118.724 51.4303 118.495C51.4037 117.828 51.386 117.151 51.3594 116.484C51.315 115.14 51.2618 113.796 51.2175 112.462C51.1731 111.118 51.1199 109.774 51.0756 108.439C51.0579 107.801 51.0047 107.143 51.1199 106.514C51.1288 106.447 51.1377 106.4 51.1554 106.352C51.4037 106.371 51.6875 106.352 51.918 106.361C54.4275 106.409 56.937 106.476 59.4376 106.552C60.6347 106.59 61.8318 106.628 63.0289 106.676C63.6585 106.695 64.2792 106.724 64.9088 106.752C65.1748 106.762 65.4851 106.752 65.7866 106.752C65.7512 107 65.7068 107.238 65.698 107.419C65.6536 108.03 65.6093 108.63 65.5738 109.24C65.4851 110.517 65.3965 111.794 65.3078 113.062C65.1837 114.902 65.0506 116.741 64.9265 118.581C62.6476 118.724 60.3775 118.857 58.0986 118.972C56.8306 119 55.5891 119.048 54.3477 119.096Z" fill="#1E1E1E"/>
<path d="M64.722 80.569C63.6225 80.2831 62.452 80.1782 61.3258 79.9876C58.9139 79.5777 56.5108 79.1679 54.0989 78.7676C53.3895 78.6436 52.6712 78.9582 52.4584 79.7684C52.281 80.4451 52.6712 81.4078 53.3895 81.5317C55.2516 81.8462 57.1138 82.1608 58.9759 82.4753C59.8538 82.6278 60.7228 82.7708 61.6007 82.9233C62.248 83.0377 62.9574 83.0853 63.6313 83.2283C63.6225 83.3522 63.6225 83.4761 63.6136 83.6C63.6047 83.905 63.587 84.2005 63.5781 84.5055C63.5515 85.1727 63.5249 85.8304 63.4983 86.4976L63.3476 90.4818C63.2678 92.5787 63.188 94.6757 63.0993 96.7631C58.9582 96.0005 54.7994 95.3238 50.5962 95.238C50.1351 91.1967 50.1795 87.0886 50.676 83.0567C50.7736 82.2942 49.9932 81.627 49.3459 81.627C48.5479 81.627 48.1134 82.2847 48.0158 83.0567C47.4572 87.6986 47.5281 92.369 48.1666 97.0204C48.2464 97.6304 48.9203 98.0689 49.4523 98.0689C54.3649 98.0403 59.2065 98.9076 64.0304 99.8131C64.8994 99.9752 65.6797 99.4319 65.7152 98.4311C65.8127 95.8385 65.9191 93.2459 66.0167 90.6534C66.1142 88.0703 66.3536 85.4492 66.3181 82.8756C66.3004 81.7223 65.8038 80.8454 64.722 80.569Z" fill="#1E1E1E"/>
<path d="M59.4014 158.975C59.3216 157.574 59.0911 156.125 57.6634 155.649C57.0249 155.43 56.3067 155.468 55.6416 155.439C54.8347 155.411 54.0278 155.392 53.2208 155.372C46.0382 155.21 38.8468 155.411 31.6819 155.954C30.2897 156.059 30.2808 158.403 31.6819 158.299C37.4191 157.86 43.1652 157.65 48.9113 157.66C50.3478 157.66 51.7843 157.679 53.2208 157.717C53.9391 157.736 54.6573 157.755 55.3756 157.774C55.686 157.784 56.0052 157.793 56.3156 157.803C56.484 157.813 56.9363 157.765 57.0782 157.898C57.2378 158.051 57.2023 158.851 57.22 159.099C57.2644 159.852 57.291 160.615 57.3087 161.377C57.353 162.893 57.353 164.418 57.3176 165.933C57.2466 168.955 57.0249 171.986 56.617 174.979C56.555 175.455 56.5372 176.084 56.289 176.504C56.0229 176.942 55.482 176.876 55.0386 176.876C53.5933 176.885 52.1567 176.856 50.7114 176.828C44.9387 176.723 39.1748 176.437 33.4199 175.98C32.613 175.913 31.7972 175.846 30.9902 175.779C30.8306 175.77 30.4316 175.818 30.2542 175.732C30.272 175.722 30.2099 175.598 30.201 175.551C30.1567 175.331 30.1478 175.084 30.1301 174.864C29.9705 173.139 29.8552 171.404 29.7843 169.67C29.6424 166.2 29.6867 162.721 29.8995 159.261C29.9882 157.755 27.8068 157.755 27.7182 159.261C27.5053 162.731 27.4699 166.2 27.6029 169.67C27.6738 171.357 27.7802 173.044 27.931 174.721C28.0729 176.246 28.2945 177.733 29.9527 178.019C31.5311 178.286 33.1716 178.315 34.7677 178.439C36.3461 178.553 37.9157 178.658 39.4941 178.753C42.6863 178.944 45.8875 179.068 49.0886 179.154C50.7114 179.192 52.3341 179.22 53.9568 179.23C55.2692 179.239 56.7944 179.401 57.7787 178.267C58.7098 177.2 58.7364 175.541 58.9048 174.178C59.1088 172.482 59.2595 170.785 59.3659 169.079C59.5788 165.714 59.5876 162.34 59.4014 158.975Z" fill="#1E1E1E"/>
<path d="M50.5427 167.773C47.1731 165.714 43.5552 164.075 39.7954 162.912C39.352 162.778 39.0151 162.988 38.8466 163.312C38.4564 163.455 38.1372 163.836 38.2436 164.361C38.5717 166.019 38.9441 167.659 39.3875 169.279C39.6003 170.08 39.8309 170.871 40.0703 171.652C40.3008 172.405 40.6999 173.12 41.6044 172.787C42.3226 172.529 42.9965 172.062 43.6882 171.729C44.371 171.404 45.0715 171.099 45.7809 170.823C47.2706 170.242 48.8047 169.765 50.3565 169.384C51.0747 169.222 51.1634 168.154 50.5427 167.773ZM45.2932 169.126C44.5395 169.422 43.7946 169.746 43.0586 170.089C42.7216 170.242 42.3936 170.404 42.0655 170.575C41.9857 170.613 41.7994 170.737 41.6044 170.861C41.294 169.889 41.0546 168.869 40.8063 167.887C40.558 166.896 40.3274 165.895 40.1235 164.894C42.7926 165.771 45.3641 166.896 47.8293 168.259C46.978 168.507 46.1267 168.802 45.2932 169.126Z" fill="#1E1E1E"/>
<path d="M63.5603 175.589C63.6401 176.99 63.8707 178.439 65.2984 178.915C65.9368 179.134 66.6551 179.096 67.3201 179.125C68.1271 179.153 68.934 179.173 69.7409 179.192C76.9235 179.354 84.115 179.153 91.2799 178.61C92.6721 178.505 92.6809 176.161 91.2799 176.265C85.5427 176.704 79.7966 176.914 74.0505 176.904C72.614 176.904 71.1775 176.885 69.7409 176.847C69.0227 176.828 68.3044 176.809 67.5861 176.79C67.2758 176.78 66.9566 176.771 66.6462 176.761C66.4777 176.752 66.0255 176.799 65.8836 176.666C65.724 176.513 65.7595 175.713 65.7417 175.465C65.6974 174.712 65.6708 173.949 65.6531 173.187C65.6087 171.671 65.6087 170.146 65.6442 168.631C65.7151 165.609 65.9368 162.578 66.3447 159.585C66.4068 159.109 66.4245 158.48 66.6728 158.06C66.9388 157.622 67.4797 157.689 67.9231 157.689C69.3685 157.679 70.805 157.708 72.2504 157.736C78.0231 157.841 83.7869 158.127 89.5419 158.584C90.3488 158.651 91.1646 158.718 91.9715 158.785C92.1311 158.794 92.5302 158.747 92.7075 158.832C92.6898 158.842 92.7519 158.966 92.7607 159.013C92.8051 159.233 92.8139 159.48 92.8317 159.7C92.9913 161.425 93.1066 163.16 93.1775 164.894C93.3194 168.364 93.275 171.843 93.0622 175.303C92.9735 176.809 95.1549 176.809 95.2436 175.303C95.4564 171.833 95.4919 168.364 95.3589 164.894C95.2879 163.207 95.1815 161.52 95.0308 159.843C94.8889 158.318 94.6672 156.831 93.009 156.545C91.4306 156.278 89.7901 156.249 88.194 156.125C86.6156 156.011 85.0461 155.906 83.4677 155.811C80.2754 155.62 77.0743 155.496 73.8731 155.41C72.2504 155.372 70.6277 155.344 69.0049 155.334C67.6926 155.325 66.1674 155.163 65.1831 156.297C64.252 157.364 64.2254 159.023 64.0569 160.386C63.853 162.083 63.7022 163.779 63.5958 165.485C63.383 168.85 63.3741 172.224 63.5603 175.589Z" fill="#1E1E1E"/>
<path d="M86.4387 167.773C83.0691 165.714 79.4512 164.075 75.6914 162.912C75.248 162.778 74.9111 162.988 74.7426 163.312C74.3524 163.455 74.0332 163.836 74.1396 164.361C74.4677 166.019 74.8401 167.659 75.2835 169.279C75.4963 170.08 75.7269 170.871 75.9663 171.652C76.1968 172.405 76.5959 173.12 77.5004 172.787C78.2186 172.529 78.8925 172.062 79.5842 171.729C80.267 171.404 80.9675 171.099 81.6769 170.823C83.1666 170.242 84.7007 169.765 86.2525 169.384C86.9796 169.222 87.0683 168.154 86.4387 167.773ZM81.1981 169.126C80.4443 169.422 79.6995 169.746 78.9635 170.089C78.6265 170.242 78.2984 170.404 77.9703 170.575C77.8905 170.613 77.7043 170.737 77.5092 170.861C77.1989 169.889 76.9594 168.869 76.7111 167.887C76.4629 166.896 76.2323 165.895 76.0284 164.894C78.6974 165.771 81.269 166.896 83.7341 168.259C82.874 168.507 82.0316 168.802 81.1981 169.126Z" fill="#1E1E1E"/>
<path d="M99.4646 175.589C99.5444 176.99 99.775 178.439 101.203 178.915C101.841 179.134 102.559 179.096 103.224 179.125C104.031 179.153 104.838 179.173 105.645 179.192C112.828 179.354 120.019 179.153 127.184 178.61C128.576 178.505 128.585 176.161 127.184 176.265C121.447 176.704 115.701 176.914 109.955 176.904C108.518 176.904 107.082 176.885 105.645 176.847C104.927 176.828 104.209 176.809 103.49 176.79C103.18 176.78 102.861 176.771 102.551 176.761C102.382 176.752 101.93 176.799 101.788 176.666C101.628 176.513 101.664 175.713 101.646 175.465C101.602 174.712 101.575 173.949 101.557 173.187C101.513 171.671 101.513 170.146 101.548 168.631C101.619 165.609 101.841 162.578 102.249 159.585C102.311 159.109 102.329 158.48 102.577 158.06C102.843 157.622 103.384 157.689 103.827 157.689C105.273 157.679 106.709 157.708 108.155 157.736C113.927 157.841 119.691 158.127 125.446 158.584C126.253 158.651 127.069 158.718 127.876 158.785C128.035 158.794 128.434 158.747 128.612 158.832C128.594 158.842 128.656 158.966 128.665 159.013C128.709 159.233 128.718 159.48 128.736 159.7C128.896 161.425 129.011 163.16 129.082 164.894C129.224 168.364 129.179 171.843 128.967 175.303C128.878 176.809 131.059 176.809 131.148 175.303C131.361 171.833 131.396 168.364 131.263 164.894C131.192 163.207 131.086 161.52 130.935 159.843C130.793 158.318 130.572 156.831 128.913 156.545C127.335 156.278 125.694 156.249 124.098 156.125C122.52 156.011 120.95 155.906 119.372 155.811C116.18 155.62 112.979 155.496 109.777 155.41C108.155 155.372 106.532 155.344 104.909 155.334C103.597 155.325 102.072 155.163 101.087 156.297C100.156 157.364 100.13 159.023 99.9612 160.386C99.7573 162.083 99.6065 163.779 99.5001 165.485C99.2873 168.85 99.2784 172.224 99.4646 175.589Z" fill="#1E1E1E"/>
<path d="M122.343 167.773C118.973 165.714 115.355 164.075 111.595 162.912C111.152 162.778 110.815 162.988 110.646 163.312C110.256 163.455 109.937 163.836 110.043 164.361C110.372 166.019 110.744 167.659 111.187 169.279C111.4 170.08 111.631 170.871 111.87 171.652C112.101 172.405 112.5 173.12 113.404 172.787C114.122 172.529 114.796 172.062 115.488 171.729C116.171 171.404 116.871 171.099 117.581 170.823C119.07 170.242 120.604 169.765 122.156 169.384C122.875 169.222 122.963 168.154 122.343 167.773ZM117.093 169.126C116.339 169.422 115.594 169.746 114.858 170.089C114.521 170.242 114.193 170.404 113.865 170.575C113.785 170.613 113.599 170.737 113.404 170.861C113.094 169.889 112.854 168.869 112.606 167.887C112.358 166.896 112.127 165.895 111.923 164.894C114.592 165.771 117.164 166.896 119.629 168.259C118.778 168.507 117.927 168.802 117.093 169.126Z" fill="#1E1E1E"/>
<path d="M130.341 194.947C121.5 196.768 112.464 195.452 103.597 194.575C103.597 194.413 103.597 194.261 103.597 194.099C103.606 193.375 103.721 192.545 103.535 191.83C103.411 191.354 103.109 190.963 102.71 190.725C102.311 190.486 101.814 190.458 101.362 190.42C100.538 190.353 99.633 190.544 99.0567 191.22C98.4448 191.935 98.1877 193.089 98.7374 193.937C98.7552 193.956 98.7729 193.975 98.7818 194.004C98.7818 194.051 98.7729 194.108 98.7729 194.156C91.1292 193.546 83.4589 193.241 75.7974 193.06C60.3415 192.707 44.8236 192.927 29.4209 191.459C28.6228 191.382 27.5144 191.573 27.4878 192.44C27.4701 193.241 28.4366 193.556 29.1815 193.622C47.8385 195.205 66.4955 195.138 85.188 195.891C86.1457 195.929 87.1034 195.967 88.0522 196.015C91.6613 196.186 95.2703 196.406 98.8705 196.691C98.9148 197.111 98.968 197.521 99.0389 197.931C99.1276 198.493 99.2163 199.017 99.704 199.351C100.041 199.589 100.493 199.694 100.892 199.675C101.602 199.646 102.302 199.265 102.754 198.684C103.118 198.207 103.331 197.664 103.446 197.092C107.525 197.492 111.604 197.969 115.701 198.217C120.808 198.522 125.934 198.417 130.97 197.378C132.451 197.082 131.822 194.642 130.341 194.947Z" fill="#1E1E1E"/>
</svg>
