<svg width="486" height="225" viewBox="0 0 486 225" fill="none" xmlns="http://www.w3.org/2000/svg">
<path d="M8.78061 120.315C9.36596 117.055 10.3301 113.692 11.6615 110.157C22.1978 82.2785 39.942 55.8802 63.0691 38.2738C79.3786 25.8551 98.2476 18.7506 119.068 21.1723C125.357 22.4807 131.475 24.5123 137.294 27.1291C143.125 29.746 148.657 32.9482 153.833 36.6669C179.371 53.8487 198.974 87.9254 186.498 118.846C175.353 147.241 160.972 184.761 137.983 206.935C133.392 211.366 128.445 215.188 123.108 218.206C113.421 224.244 100.945 226.757 90.2593 222.338C56.9057 208.565 29.1072 184.807 13.3486 150.042C8.60845 139.597 6.95569 130.404 8.78061 120.315Z" fill="#F5F5F5"/>
<path d="M185.476 164.078C185.338 163.642 185.154 163.24 184.925 162.896C183.789 161.22 181.734 160.933 179.863 160.876L176.73 160.795C176.833 155.194 176.902 122.484 176.959 96.0853C176.971 93.1701 176.971 90.2663 176.982 87.351C176.982 85.9966 177.017 84.6538 177.04 83.2994C177.051 82.5189 177.419 80.5448 176.592 80.0398C176.386 79.9135 176.145 79.8906 175.915 79.8791C175.295 79.8447 174.687 79.8332 174.067 79.8791C173.987 79.8791 173.906 79.8906 173.838 79.9365C173.734 80.0054 173.7 80.1431 173.677 80.2808C173.046 84.3094 173.424 88.3725 173.424 92.424C173.413 96.2805 173.413 100.148 173.413 104.005C173.413 107.184 173.413 110.352 173.401 113.531L173.39 121.956C173.378 133.181 173.355 144.406 173.321 155.631V156.721C173.321 158.052 173.31 159.384 173.298 160.715L169.901 160.623C166.182 160.52 162.475 160.417 158.768 160.336C151.881 160.176 144.788 160.038 137.672 159.923C134.332 159.866 130.992 159.82 127.652 159.774L121.867 159.682C121.305 159.659 120.72 159.648 120.146 159.671C119.859 159.682 119.56 159.659 119.262 159.625C118.86 159.59 118.447 159.556 118.022 159.613C117.311 159.694 116.691 160.003 116.312 160.486C116.186 160.646 116.094 160.841 115.98 161.059C115.934 161.163 115.876 161.266 115.807 161.381C115.486 161.897 114.878 162.287 114.12 162.46C112.972 162.724 111.687 162.678 110.459 162.632C109.942 162.609 109.437 162.597 108.955 162.597L89.0074 162.666L87.4579 162.689C86.4364 162.701 85.2772 162.712 84.1639 162.678C83.5556 162.666 82.9129 162.62 82.3849 162.391C81.9488 162.196 81.6503 161.874 81.5815 161.496C81.5585 161.358 81.5585 161.209 81.5585 161.048C81.57 160.715 81.593 160.256 81.2945 159.9C80.8928 159.407 80.055 159.292 78.9417 159.28L78.5859 159.269C78.0923 159.246 77.5758 159.246 77.0823 159.246C76.8642 159.246 76.6461 159.246 76.4281 159.246H76.0723C75.8427 159.246 75.6132 159.246 75.3836 159.246L70.1155 159.212C66.6034 159.189 63.0912 159.166 59.5676 159.143L49.6511 159.085C41.0085 159.039 31.9184 159.108 21.8871 159.303C21.428 158.477 20.5327 153.886 20.7623 130.747C20.7737 130.196 20.7737 129.795 20.7737 129.588L20.7852 119.89C20.7967 109.434 20.8082 98.6219 20.8885 87.9937C20.9459 80.3612 21.0033 73.6124 21.0951 67.3801C21.1066 66.9669 21.1066 66.5538 21.1066 66.1406V65.4634C21.1181 64.0287 21.1181 62.5481 21.1984 61.056C32.4234 60.5625 34.7992 60.5051 45.7832 60.5625C56.6179 60.6199 67.4642 60.6773 78.2989 60.7576H78.4022C78.7465 61.8939 79.6073 62.8924 80.7436 63.4778C82.2242 64.2238 83.8884 64.2009 85.4953 64.1779L111.618 64.0861C113.34 64.0746 115.119 64.0746 116.691 63.2138C117.598 62.7203 118.309 62.0201 118.769 61.1479C128.628 61.2741 136.513 61.3889 143.548 61.5266L146.59 61.5955C149.884 61.6758 153.167 61.7562 156.461 61.848C156.828 61.8595 157.253 61.7332 157.402 61.4004C157.471 61.2397 157.471 61.056 157.459 60.8724C157.448 60.574 157.436 60.2756 157.436 59.9886C157.425 59.4607 157.344 58.8409 156.874 58.6113C156.679 58.508 156.449 58.508 156.231 58.4966C150.056 58.3473 143.87 58.2326 137.695 58.1408L136.949 58.1293C130.384 58.0145 123.612 57.9112 116.932 57.9227C114.579 57.9342 112.226 57.9571 109.873 57.9801H109.38C105.041 58.026 100.554 58.0604 96.1464 57.9915L95.5266 57.9801C92.3014 57.9227 89.1681 57.8194 85.1624 57.6587C81.8569 57.5324 78.4481 57.4636 74.7409 57.4406L49.6511 57.2914C39.4591 57.2226 35.2698 57.3373 27.0864 57.5554L21.3017 57.7046C20.7163 57.7161 18.7307 57.8882 18.088 59.4148C17.8699 59.9198 17.847 60.4707 17.8355 60.9068C17.7666 62.9613 17.7781 65.0617 17.7896 67.0932V67.449C17.8011 68.459 17.8011 69.4576 17.8011 70.4676L17.7552 99.4827C17.7896 120.578 17.6978 141.536 17.6174 159.257C17.6174 159.292 17.6174 159.361 17.6174 159.418C17.5026 159.43 17.3075 159.407 17.1468 159.384C15.8614 159.234 14.7481 159.567 13.9102 160.336C12.8772 161.289 12.3263 162.896 12.3952 164.744C12.4411 165.891 12.5329 167.051 12.6821 168.164C12.751 168.703 12.8428 169.335 13.1986 169.897C13.7036 170.678 14.6562 171.171 15.8843 171.297C16.5156 171.366 17.1354 171.412 17.7666 171.458C18.4782 171.515 19.1898 171.561 19.89 171.642C20.5327 171.711 21.1754 171.722 21.8067 171.676L21.9559 171.688C25.468 171.779 28.9916 171.871 32.5152 171.952C39.4132 172.112 46.3111 172.25 53.6223 172.388C62.4829 172.537 70.3335 172.652 78.3219 172.743C99.9569 173.007 122.292 173.134 141.987 173.248L143.778 173.26C147.508 173.283 151.525 173.306 155.611 173.306C158.538 173.306 161.511 173.294 164.437 173.26C168.305 173.214 171.749 173.134 174.974 173.019C175.467 172.996 176.018 173.007 176.638 173.007C178.899 173.042 181.998 173.076 183.8 171.607C183.972 171.458 184.133 171.297 184.271 171.137C184.787 170.517 185.04 169.725 185.223 169.048C185.625 167.636 186.004 165.811 185.476 164.078ZM96.5826 60.7002C96.6858 60.5051 96.8695 60.31 97.1679 60.1034L97.3745 59.9427C98.132 59.3918 98.5452 59.1393 99.0502 59.2885C99.2224 59.3344 99.3716 59.4377 99.5437 59.5754C99.6241 59.6443 99.7159 59.7476 99.7962 59.8853C99.8766 60.0231 99.9454 60.1837 99.9799 60.333C100.037 60.5855 100.037 60.7347 100.026 60.838C100.014 61.0216 99.9914 61.1019 99.9455 61.2626C99.934 61.2971 99.9225 61.3545 99.8422 61.5037C99.6815 61.8595 99.3831 62.1694 98.9699 62.4333C98.6485 62.6284 98.2812 62.7432 97.9139 62.7432C97.7303 62.7317 97.5811 62.7088 97.4434 62.6514C97.2138 62.5711 97.0876 62.5022 96.9039 62.3415C96.7088 62.1808 96.5366 61.8939 96.4563 61.607C96.4219 61.4807 96.3989 61.3544 96.3989 61.2856C96.4448 61.056 96.4907 60.8724 96.5826 60.7002ZM182.342 166.718C182.273 167.395 182.113 168.072 181.895 168.715C181.872 168.784 181.803 168.956 181.723 169.013C181.677 169.048 181.55 169.059 181.482 169.071C178.715 169.449 176.099 169.679 173.505 169.759C170.853 169.84 168.053 169.909 164.69 169.943C158.917 170.023 153.006 170 147.485 169.977C136.65 169.92 125.804 169.851 114.958 169.771C97.2023 169.645 73.7309 169.449 49.6855 169.013C44.073 169.013 37.99 168.921 31.092 168.726C29.8065 168.692 28.521 168.669 27.2241 168.635C23.4824 168.554 19.6145 168.474 15.781 168.175C15.5515 166.901 15.5974 165.547 15.6433 164.239C15.6548 163.906 15.6777 163.584 15.781 163.366C15.9073 163.091 16.2286 162.873 16.6189 162.77C17.3994 162.563 18.352 162.574 19.2702 162.597C19.6719 162.609 20.0621 162.609 20.4409 162.597C21.7723 162.563 23.1037 162.529 24.4351 162.494C27.2241 162.437 30.0246 162.391 32.8136 162.368C36.9799 162.333 41.3299 162.322 45.7488 162.345C56.5835 162.402 67.4297 162.471 78.2645 162.54H78.3678C78.7121 163.676 79.5729 164.675 80.7092 165.26C82.1898 166.018 83.9229 165.983 85.4723 165.96C85.7019 165.949 85.9314 165.949 86.161 165.949H86.1725L111.572 165.857C113.294 165.846 115.073 165.846 116.645 164.985C117.552 164.491 118.264 163.791 118.711 162.93C127.721 163.045 135.606 163.16 143.503 163.309L146.418 163.366C151.835 163.481 157.253 163.584 162.67 163.722C165.895 163.803 169.12 163.883 172.345 163.975L177.177 164.112C177.591 164.135 178.004 164.124 178.451 164.124C179.553 164.124 180.69 164.112 181.746 164.445C181.975 164.514 182.101 164.583 182.182 164.675C182.273 164.778 182.319 164.939 182.342 165.237C182.4 165.719 182.4 166.224 182.342 166.718Z" fill="#1E1E1E"/>
<path d="M35.5452 142.26C34.2597 141.606 32.7676 141.64 31.551 142.271C31.1952 142.294 30.8279 142.375 30.4721 142.535C28.7505 143.293 27.752 145.175 27.3847 146.943C26.9256 149.181 28.0504 150.765 30.0819 151.58C31.815 152.268 33.8695 152.521 35.5567 151.58C37.1979 150.661 38.185 148.825 38.1965 146.966C38.2309 145.037 37.3012 143.155 35.5452 142.26Z" fill="#F7C300"/>
<path d="M38.2087 128.153C37.4167 125.077 33.216 122.415 30.645 124.412C30.0711 124.274 29.4743 124.32 28.9923 124.676C25.6064 127.166 27.5231 132.939 30.9434 134.477C35.0294 136.337 39.3105 132.457 38.2087 128.153Z" fill="#F7C300"/>
<path d="M37.7726 111.051C37.0839 108.538 35.018 106.392 32.2404 107.046C29.7154 107.643 27.8445 109.433 27.6035 112.05C27.5117 113.072 28.3266 113.978 29.2792 114.288C30.2204 115.631 31.8387 116.492 33.5144 116.4C36.2575 116.274 38.5301 113.863 37.7726 111.051Z" fill="#F7C300"/>
<path d="M37.8409 92.2868C37.2097 90.4733 35.4421 89.1075 33.5943 88.9813C32.8827 88.5566 31.9645 88.5451 31.184 88.9468C26.1568 91.4604 29.669 100.596 35.0519 98.5765C37.3818 97.6927 38.6444 94.5938 37.8409 92.2868Z" fill="#F7C300"/>
<path d="M39.1608 74.1976C37.6457 70.456 33.1466 68.654 29.9673 71.6496C28.5211 73.0155 27.7292 74.9781 27.9358 76.9637C28.1424 78.9034 29.5426 80.7398 31.5397 80.8201C32.1824 81.4285 33.0433 81.8646 34.0762 81.9679C38.4836 82.4499 40.6528 77.8934 39.1608 74.1976Z" fill="#F7C300"/>
<path d="M31.0464 81.899C32.2285 82.1859 33.3878 81.9908 34.306 81.3366C35.1553 80.7397 35.9358 79.8789 36.5555 78.8574C37.7836 76.8374 37.8525 74.4616 36.7507 72.6366C35.4078 70.4215 32.6647 69.4115 30.2315 70.2378C29.7035 70.41 29.2444 70.9839 29.3936 71.5922L29.5543 72.2349L28.9345 71.9939C28.7738 71.9365 28.6016 71.8906 28.4295 71.8906C28.1655 71.8906 27.9015 71.9709 27.7294 72.189C26.4783 73.7614 26.1455 75.77 26.7997 77.6982C27.5228 79.8445 29.1526 81.4514 31.0464 81.899ZM28.7623 75.3568C28.7968 74.8059 28.9689 74.2779 29.3018 73.8762C29.715 73.3712 29.6231 72.7744 29.5658 72.1775C29.8183 72.43 30.2085 72.4989 30.5643 72.476C30.9201 72.453 31.2644 72.3497 31.6202 72.3038C32.4925 72.189 33.3992 72.453 34.0764 73.0154C34.7536 73.5663 35.1897 74.4156 35.2471 75.2879C35.3504 76.7226 34.4781 78.0655 33.4566 79.0755C33.2271 79.3051 32.9746 79.5346 32.6647 79.6609C32.1941 79.8445 31.6661 79.7412 31.1956 79.5461C30.6102 79.2936 30.0937 78.8919 29.7035 78.3983C29.7494 78.3524 29.7838 78.318 29.8297 78.2721C29.8068 78.3639 29.6691 78.3065 29.6117 78.2262C29.0607 77.5031 28.6935 76.3783 28.7623 75.3568Z" fill="#1E1E1E"/>
<path d="M36.6362 108.297C35.2933 106.082 32.5502 105.072 30.1169 105.899C29.589 106.071 29.1299 106.645 29.2791 107.241L29.4398 107.884L28.82 107.643C28.6708 107.586 28.4871 107.54 28.3035 107.54C28.051 107.54 27.787 107.62 27.6149 107.838C26.3638 109.411 26.031 111.419 26.6852 113.348C27.4083 115.482 29.0381 117.089 30.9319 117.548C32.114 117.835 33.2733 117.629 34.1915 116.986C35.0408 116.389 35.8213 115.528 36.441 114.507C37.6577 112.498 37.738 110.111 36.6362 108.297ZM35.1211 111.557C34.9834 112.716 34.2718 113.784 33.4684 114.599C33.3421 114.725 33.2159 114.851 33.0781 114.966C33.0093 115.023 32.9519 115.058 32.9404 115.069C32.642 115.264 32.378 115.379 32.0107 115.39C31.6549 115.39 31.2991 115.299 30.9892 115.149C29.9333 114.656 29.1643 113.634 28.8315 112.521C28.7282 112.188 28.6708 111.855 28.6593 111.511C28.6364 110.972 28.7511 110.432 28.9692 109.939C29.084 109.686 29.2676 109.48 29.4053 109.227C29.5201 109.009 29.566 108.699 29.5316 108.447L29.4398 107.838L30.0022 108.079C30.2432 108.183 30.4728 108.194 30.6908 108.125C30.8745 108.056 31.0696 108.01 31.2647 107.965C32.2518 107.712 33.411 108.125 34.1226 108.802C34.8227 109.468 35.2015 110.444 35.1441 111.408C35.1326 111.454 35.1211 111.5 35.1211 111.557Z" fill="#1E1E1E"/>
<path d="M31.2302 88.6482C30.1743 88.6482 29.1184 88.9007 28.1542 89.4287C27.8673 89.5893 27.6607 89.9107 27.6148 90.2895L27.5919 90.4616L27.4312 90.542C26.7081 90.9207 26.1113 91.7012 25.8932 92.5735C25.6292 93.6179 25.8014 94.7886 26.3867 95.8561C27.7066 98.2778 30.599 98.8517 32.2058 98.9665C34.1685 99.1042 36.705 98.4729 37.3592 96.1545C37.9216 94.1689 37.1067 91.6553 35.4195 90.1862C34.2373 89.1762 32.7452 88.6482 31.2302 88.6482ZM34.5702 96.2348C33.9733 96.7283 33.0896 96.7628 32.2976 96.6939C31.2302 96.6021 30.1284 96.3725 29.2676 95.7298C28.6822 95.2937 28.2346 94.6165 28.1198 93.8819C28.0739 93.5606 28.051 93.1589 28.2346 92.8949C28.4412 92.5735 28.8429 92.5505 29.1184 92.3325C29.4283 92.08 29.6234 91.6897 29.5889 91.288C30.6563 90.806 31.9303 90.8174 32.9863 91.3225C34.0422 91.8275 34.8456 92.826 35.1211 93.9623C35.3047 94.6968 35.2359 95.5576 34.7079 96.1086C34.662 96.143 34.6161 96.1889 34.5702 96.2348Z" fill="#1E1E1E"/>
<path d="M34.8684 95.2014L34.9601 95.2243L34.9715 95.2129L34.8684 95.2014Z" fill="#1E1E1E"/>
<path d="M32.3549 124.332C31.7007 124.114 30.9547 123.976 30.2201 123.976C28.8313 123.976 27.454 124.458 26.6851 125.824C25.6636 127.615 25.8472 130.255 27.1327 132.079C28.6477 134.237 31.4023 135.247 33.9962 134.57C34.3176 134.49 34.593 134.214 34.7308 133.858L34.7996 133.698L34.9718 133.652C35.7637 133.457 36.5327 132.837 36.9574 132.045C37.4739 131.092 37.5772 129.91 37.2673 128.739C36.5557 126.077 33.8814 124.837 32.3549 124.332ZM35.0981 130.415C35.0866 130.518 35.0636 130.61 35.0292 130.714C34.9374 131.012 34.7423 131.322 34.4324 131.402C34.2946 131.437 34.1454 131.425 34.0077 131.437C33.4797 131.494 33.2157 131.976 33.0436 132.424C31.804 132.665 30.4611 132.263 29.5429 131.391C28.6362 130.518 28.1771 129.187 28.3608 127.936C28.3837 127.752 28.4296 127.569 28.4985 127.408C28.5788 127.213 28.7051 127.029 28.8313 126.857C29.1298 126.444 29.4741 126.26 29.9906 126.237C30.6448 126.203 31.2875 126.375 31.9073 126.593C32.8026 126.915 33.6863 127.351 34.3176 128.062C34.8915 128.717 35.2243 129.589 35.0981 130.415Z" fill="#1E1E1E"/>
<path d="M27.0755 144.245C26.9033 144.498 26.7426 144.773 26.5819 145.06C26.2606 145.657 25.9622 146.265 25.8359 146.92C25.6063 148.125 26.054 149.422 26.9033 150.305C28.2691 151.729 30.4384 151.947 32.3207 151.694C33.6406 151.511 34.9375 150.971 35.8787 150.03C36.8199 149.077 37.3593 147.712 37.1642 146.392C37.0953 145.921 36.9346 145.462 36.8543 144.991C36.6821 143.993 36.6362 143.166 35.9017 142.386C34.7654 141.043 33.0667 140.733 31.4254 141.169C29.5087 141.686 28.1084 142.696 27.0755 144.245ZM33.698 143.557C34.1915 144.934 35.5344 146.954 34.8572 148.308C33.5029 150.34 28.1084 150.34 27.9592 147.264C27.9248 146.943 27.9592 146.61 28.0396 146.288C28.6708 144.039 32.0452 142.111 33.3996 143.419L33.698 143.557Z" fill="#1E1E1E"/>
<path d="M111.285 75.1389C90.4306 74.4732 69.2891 74.2666 48.446 74.5076C47.8377 74.5191 47.5393 74.8405 47.3786 75.1045C47.1376 75.5406 47.1376 76.126 47.3901 76.5506C47.5393 76.8031 47.8492 77.0901 48.4345 77.1016C54.0355 77.0327 59.671 76.9983 65.3064 76.9983C80.6403 76.9983 96.0546 77.2393 111.308 77.7213C112.192 77.7328 112.513 77.0901 112.536 76.5277C112.559 75.8849 112.18 75.1619 111.285 75.1389Z" fill="#1E1E1E"/>
<path d="M47.6663 94.7201H89.5706C90.4315 94.7201 90.8102 94.0659 90.8102 93.4232C90.8102 92.7804 90.4315 92.1262 89.5706 92.1262H47.6663C46.8055 92.1262 46.4268 92.7804 46.4268 93.4232C46.4268 94.0659 46.8055 94.7201 47.6663 94.7201Z" fill="#1E1E1E"/>
<path d="M98.6841 94.1457H150.769C152.02 94.1457 152.594 93.4685 152.594 92.8487C152.594 92.2289 152.02 91.5518 150.769 91.5518H98.6841C97.433 91.5518 96.8591 92.2289 96.8591 92.8487C96.8591 93.48 97.4215 94.1457 98.6841 94.1457Z" fill="#1E1E1E"/>
<path d="M74.8904 108.355C65.9264 108.355 56.8822 108.733 47.9642 109.491C47.287 109.548 46.9771 109.996 46.8509 110.26C46.6328 110.731 46.6557 111.304 46.9197 111.683C47.1263 111.982 47.4706 112.131 47.9068 112.085C57.7086 111.247 67.6595 110.868 77.4958 110.949H77.5072C78.3451 110.949 78.7238 110.317 78.7353 109.675C78.7353 109.043 78.3566 108.355 77.4958 108.355C76.6235 108.355 75.7627 108.355 74.8904 108.355Z" fill="#1E1E1E"/>
<path d="M167.067 108.986C167.113 108.343 166.918 107.643 166.459 107.609C163.486 107.402 160.479 107.299 157.472 107.299C154.132 107.299 150.792 107.425 147.475 107.678C146.947 107.712 146.626 108.619 146.683 109.399C146.695 109.548 146.763 110.329 147.234 110.26C153.581 109.778 159.997 109.755 166.31 110.191C166.746 110.226 167.021 109.606 167.067 108.986Z" fill="#1E1E1E"/>
<path d="M90.5233 108.068C89.7084 108.068 89.3296 108.688 89.3181 109.307C89.3066 109.95 89.6854 110.65 90.5692 110.662C105.134 110.949 119.894 110.857 134.448 110.386C135.067 110.363 135.377 110.031 135.527 109.744C135.768 109.296 135.756 108.711 135.504 108.297C135.354 108.056 135.044 107.769 134.471 107.792C119.906 108.263 105.123 108.355 90.5577 108.068C90.5462 108.068 90.5347 108.068 90.5233 108.068Z" fill="#1E1E1E"/>
<path d="M114.166 129.978C114.752 129.978 115.05 129.68 115.199 129.428C115.452 129.003 115.452 128.418 115.211 127.981C115.062 127.717 114.752 127.396 114.155 127.396L45.9672 126.857H45.9557C45.3704 126.857 45.072 127.155 44.9228 127.407C44.6703 127.832 44.6703 128.418 44.9113 128.854C45.0605 129.118 45.3704 129.439 45.9672 129.439H46.2427L114.155 129.978C114.155 129.978 114.155 129.978 114.166 129.978Z" fill="#1E1E1E"/>
<path d="M44.0046 145.875C44.0046 146.506 44.3949 147.137 45.2327 147.137H45.2442L64.71 146.977C65.5708 146.965 65.9611 146.288 65.9496 145.657C65.9496 145.026 65.5594 144.36 64.71 144.394L45.2442 144.567C44.3834 144.555 44.0046 145.232 44.0046 145.875Z" fill="#1E1E1E"/>
<path d="M143.561 77.0444C143.549 76.4131 143.148 75.7589 142.321 75.7818L122.856 75.9425C121.995 75.954 121.604 76.6312 121.616 77.2624C121.616 77.8937 122.006 78.525 122.844 78.525H122.856L142.321 78.3528C143.171 78.3643 143.561 77.6756 143.561 77.0444Z" fill="#1E1E1E"/>
<path d="M75.04 147.023C92.0152 147.413 109.22 147.275 126.172 146.621C126.838 146.598 127.159 146.185 127.285 145.944C127.527 145.485 127.515 144.911 127.263 144.509C127.056 144.176 126.7 144.004 126.264 144.039C109.3 144.704 92.0726 144.842 75.0859 144.44C75.0744 144.44 75.0629 144.44 75.0514 144.44C74.4776 144.44 74.1791 144.739 74.0299 144.991C73.7774 145.416 73.766 146.001 73.9955 146.437C74.1447 146.69 74.4431 147.011 75.04 147.023Z" fill="#1E1E1E"/>
<path d="M155.382 127.798C155.348 127.362 155.21 126.903 154.958 126.903H154.946C145.558 127.568 136.054 127.718 126.689 127.327H126.677C126.39 127.327 126.138 127.89 126.103 128.59C126.069 129.313 126.287 129.91 126.585 129.921C135.928 130.312 145.408 130.162 154.774 129.497C155.141 129.474 155.451 128.636 155.382 127.798Z" fill="#1E1E1E"/>
<path d="M211.209 59.1852C211.289 60.1838 212.15 60.3559 212.517 60.3789C213.286 60.4363 214.055 60.4937 214.835 60.5625C215.191 60.597 215.593 60.6314 215.8 60.6544C216.167 60.6888 216.534 60.7347 216.913 60.7691C218.416 60.9413 219.966 61.1364 221.515 61.3774C222.147 61.4693 222.893 61.1708 223.019 60.4937C223.088 60.1379 222.996 59.7247 222.778 59.4263C222.675 59.2771 222.491 59.0934 222.216 59.0246C222.193 59.0246 222.17 59.0131 222.147 59.0131C218.967 58.531 215.673 58.1752 212.368 57.9342C212.115 57.9112 211.84 58.0375 211.61 58.267C211.335 58.531 211.186 58.8868 211.209 59.1852Z" fill="#F7C300"/>
<path d="M174.802 24.2939C175.066 24.5693 175.468 24.753 175.801 24.7415C176.788 24.7071 176.96 23.7315 176.983 23.4216C177.431 18.5896 178.337 13.6313 179.657 8.69598C179.795 8.16802 179.6 7.82369 179.416 7.64005C179.244 7.47937 179.026 7.35311 178.785 7.29573C178.555 7.23834 178.314 7.23834 178.096 7.29573C177.809 7.37607 177.431 7.58266 177.281 8.14506C175.962 13.0689 175.043 18.2682 174.538 23.6052C174.492 23.9037 174.665 24.1447 174.802 24.2939Z" fill="#F7C300"/>
<path d="M130.166 22.3083C130.327 22.7215 130.625 22.9051 130.843 22.9855C131.222 23.1117 131.67 23.0544 132.048 22.8248L133.3 22.0673L133.449 22.4805C133.529 22.71 133.598 22.9511 133.667 23.1806C133.724 23.3757 133.77 23.5479 133.827 23.72C134.16 24.6727 134.631 25.4187 135.274 25.9811C135.951 26.5779 136.812 26.8878 137.569 26.8075C137.982 26.7731 138.396 26.6238 138.74 26.4058L139.222 26.0959L139.325 26.9567C139.44 28.0356 139.543 28.9538 140.53 29.4014C141.081 29.6539 141.839 29.5506 142.447 29.1604C142.47 29.1374 142.608 29.0456 142.745 28.9423L143.182 28.6095L143.308 29.1489C143.342 29.2866 143.365 29.367 143.377 29.4358C143.423 29.6424 143.469 29.9064 143.514 30.1589C143.733 31.4214 143.951 32.7299 145.202 32.9824C146.717 33.2923 148.656 32.0871 149.414 31.5477C149.862 31.2263 149.93 30.8361 149.907 30.5606C149.862 30.1015 149.54 29.6424 149.115 29.4473C148.852 29.3211 148.427 29.2407 147.956 29.5736C147.669 29.7687 147.073 30.1933 146.499 30.4114L146.097 30.5606L145.902 29.5391C145.867 29.3211 145.821 29.0915 145.776 28.8734C145.615 28.1389 145.385 27.3814 144.823 26.819C144.261 26.268 143.56 26.0041 142.86 26.0844C142.654 26.1074 142.447 26.1762 142.195 26.291L141.747 26.4976L141.69 26.0041C141.575 25.1088 141.426 24.3972 141.047 23.8922C140.76 23.4905 140.37 23.2609 139.865 23.215C139.21 23.1462 138.464 23.4102 137.902 23.9037C137.799 23.9955 137.741 24.0644 137.707 24.0988C137.466 24.3972 137.225 24.3054 137.03 24.1906L136.903 24.1103C136.433 23.8463 136.238 23.2265 136.1 22.7674L136.054 22.6067C135.641 21.3672 135.251 20.3457 134.344 19.4504C133.954 19.0717 133.3 19.1864 132.852 19.4619L131.922 20.0243L131.165 18.0616C130.878 17.3156 130.178 17.2008 129.627 17.4189C129.053 17.637 128.594 18.2108 128.892 18.9684L130.166 22.3083Z" fill="#F7C300"/>
<path d="M207.421 67.2307C207.915 63.9367 207.364 60.0458 207.237 56.7173C207.157 54.6743 207.077 53.1708 205.321 51.8738C202.761 49.9686 199.364 48.7864 196.586 47.168C193.556 45.389 190.595 43.4838 187.726 41.4523C184.684 39.2945 181.746 36.9875 178.922 34.5543C176.925 32.8327 174.871 30.1584 172.059 29.9403C169.614 29.7452 166.814 31.0766 164.507 31.7538C162.269 32.408 158.997 32.7868 157.643 34.9904C156.163 37.4122 157.402 41.1653 157.804 43.7248C158.332 47.0303 158.952 50.3244 159.675 53.5954C161.236 60.5738 163.336 67.4143 165.85 74.1057C166.378 75.5174 167.629 76.1143 169.075 75.8273C175.135 74.6222 181.31 74.5763 187.462 74.1861C190.423 73.9909 193.373 73.7155 196.299 73.2105C198.48 72.8432 202.015 72.5677 203.725 70.9724C203.84 70.8576 203.932 70.7428 204.035 70.628C206.032 70.1115 207.111 69.354 207.421 67.2307Z" fill="#59C69F"/>
<path d="M157.242 42.9557C157.31 43.9313 157.391 44.9413 157.529 45.9169C157.884 48.4419 158.539 50.967 159.158 53.4232C159.353 54.1807 159.549 54.9267 159.732 55.6727C160.926 60.5507 162.131 65.4401 163.336 70.318L164.679 75.6206L164.656 75.7239C164.541 76.183 164.736 76.7339 165.104 77.0094C165.31 77.1586 165.643 77.2849 166.091 77.0209C170.395 74.4729 175.376 74.1859 180.197 73.899C181.39 73.8301 182.63 73.7498 183.823 73.6465C189.975 73.0956 195.806 70.8575 201.453 68.6882C202.096 68.4357 202.75 68.1947 203.393 67.9422L203.484 67.9192C203.737 67.8963 203.955 67.793 204.127 67.6438L204.196 67.5979C204.758 67.2765 204.632 66.7485 204.552 66.5304L204.517 66.4501L204.529 66.3698C204.931 62.1001 205.447 57.7617 206.067 53.4691L206.078 53.3887L206.124 53.3199C206.296 53.0559 206.365 52.746 206.308 52.482C206.25 52.241 206.101 52.0344 205.849 51.8737C194.635 44.815 183.41 37.4465 172.518 29.9746C172.208 29.7566 171.887 29.7336 171.554 29.8943L171.428 29.9632L171.29 29.9173C171.244 29.9058 171.187 29.8828 171.141 29.8713C170.292 29.6648 169.327 30.1009 168.478 30.4797L168.271 30.5715C167.043 31.1109 165.815 31.6848 164.61 32.2701C162.234 33.4294 159.847 34.7148 157.494 36.0921L157.333 36.2184L157.242 36.2299C156.897 36.2643 156.599 36.425 156.45 36.6545C156.323 36.8497 156.3 37.1022 156.392 37.3891C156.966 39.214 157.115 41.1193 157.242 42.9557ZM199.823 66.9896C193.855 69.2391 188.426 71.1444 182.4 71.6035C181.758 71.6494 181.103 71.6953 180.461 71.7412C177.867 71.9249 175.192 72.1085 172.621 72.5561L170.842 72.866L191.376 59.8735L191.571 60.0227C194.957 62.5133 197.528 64.476 199.915 66.3698L200.408 66.76L199.823 66.9896ZM203.68 55.1448C203.175 58.8635 202.796 61.9854 202.497 64.9466L202.428 65.6123L201.912 65.1991C199.513 63.2823 196.931 61.3082 193.797 59.0012L193.269 58.611L203.76 54.548L203.68 55.1448ZM193.568 47.0991L193.729 46.6973L194.096 46.9384C196.586 48.5567 199.261 50.2783 202.279 52.1951L202.888 52.5738L192.064 56.7631L192.076 56.2237C192.11 53.4346 192.317 50.1635 193.568 47.0991ZM171.187 70.0999L172.093 68.7112C173.517 66.519 174.837 64.189 176.099 61.928C177.729 59.0242 179.416 56.0285 181.39 53.251L181.597 52.9641L181.884 53.1592C184.294 54.789 186.716 56.4876 189.08 58.1978L189.516 58.5077L171.187 70.0999ZM189.895 55.5006L189.884 56.1778L188.105 54.9152C186.509 53.779 184.856 52.5968 183.204 51.4835L182.676 51.1277L188.38 48.4649C188.977 48.1779 189.585 47.9025 190.193 47.627C190.239 47.6041 190.297 47.5811 190.343 47.5696L191.135 47.2483L190.917 47.9713C190.285 50.0603 189.964 52.4476 189.895 55.5006ZM183.273 39.7994C185.465 41.257 187.657 42.7032 189.861 44.1379L191.204 45.0216L190.469 45.2397C189.321 45.584 188.196 46.1235 187.106 46.64C186.831 46.7777 186.555 46.9039 186.28 47.0302L181.7 49.1535L182.194 44.3674C182.366 42.6573 182.538 41.28 182.722 40.0289L182.802 39.4665L183.273 39.7994ZM179.76 51.7819L179.542 52.0803C177.66 54.7316 176.042 57.6354 174.481 60.4474C172.748 63.5463 170.969 66.76 168.822 69.6409L168.157 70.5476L168.18 69.4228C168.294 62.7888 169.637 56.1204 170.923 49.6815C171.095 48.7977 171.279 47.914 171.451 47.0302L171.554 46.5137L172.002 46.7892C174.779 48.5223 177.098 49.9799 179.474 51.5523L179.76 51.7819ZM180.633 39.4665L180.529 40.2011C180.323 41.6473 180.139 43.1393 179.979 44.7577L179.542 48.9584L179.037 48.7059C177.27 47.5467 175.204 46.2153 173.138 44.9413L172.69 44.6658L173.115 44.3445C175.158 42.818 177.408 41.3488 179.979 39.8453L180.633 39.4665ZM172.725 32.7522C174.068 33.6704 175.433 34.5771 176.788 35.4838C177.614 36.0348 178.452 36.5857 179.278 37.1481L179.76 37.4694L179.255 37.7564C177.132 38.9845 175.02 40.3388 172.977 41.8079L172.403 42.2096L172.415 41.498C172.438 39.9486 172.369 38.3532 172.289 36.8267C172.231 35.5871 172.174 34.3131 172.162 33.0506V32.362L172.725 32.7522ZM160.949 36.6775C162.177 35.9889 163.439 35.2772 164.725 34.6345C165.758 34.118 166.814 33.613 167.87 33.131C168.409 32.8899 168.949 32.6489 169.488 32.4079L169.993 32.1898V32.7407C170.005 34.0262 170.085 35.3346 170.165 36.6086C170.28 38.5713 170.406 40.5913 170.28 42.5769L170.246 43.1738L169.741 42.8639C167.261 41.3718 163.967 39.4206 160.57 37.5383L160.008 37.2284L160.949 36.6775ZM159.617 39.4665C162.785 41.2226 165.987 43.0819 169.385 45.1594L169.603 45.2856L169.557 45.5266C169.316 46.7777 169.063 48.0402 168.799 49.3027C167.491 55.7875 166.148 62.4904 166.01 69.1358L165.953 71.879L165.299 69.2162C164.151 64.5563 163.003 59.9079 161.867 55.2481C161.683 54.502 161.488 53.7445 161.305 52.9985C160.696 50.6112 160.065 48.155 159.698 45.6873C159.537 44.6314 159.445 43.564 159.365 42.531C159.296 41.6358 159.216 40.7176 159.089 39.8223L158.998 39.1107L159.617 39.4665Z" fill="#1E1E1E"/>
<path d="M135.216 44.4478C134.975 44.7003 134.849 45.0217 134.861 45.3545C134.884 46.0202 135.446 46.5367 136.135 46.5367C140.002 46.5138 143.859 46.8007 147.589 47.386C148.209 47.4779 148.92 47.2024 149.093 46.4793C149.173 46.158 149.093 45.7792 148.886 45.4693C148.714 45.2053 148.473 45.0446 148.209 45.0102C144.146 44.3675 140.048 44.0576 136.02 44.0805C135.721 44.092 135.434 44.2183 135.216 44.4478Z" fill="#1E1E1E"/>
<path d="M160.019 25.3038C160.157 25.6023 160.455 25.7285 160.627 25.7744C160.983 25.8892 161.408 25.8433 161.695 25.6597C162.372 25.235 162.326 24.466 162.074 23.938C160.18 19.9094 158.55 15.6054 157.242 11.1406C157.15 10.8422 156.943 10.5897 156.656 10.4405C156.553 10.3831 156.45 10.3487 156.335 10.3142C156.128 10.2683 155.91 10.2683 155.715 10.3257C155.084 10.5208 154.716 11.221 154.9 11.8637C156.197 16.3629 157.93 20.885 160.019 25.3038Z" fill="#1E1E1E"/>
<path d="M189.723 33.5106C190.618 33.9583 191.215 33.3041 191.422 32.9942C191.628 32.7072 191.835 32.4203 192.041 32.1219L192.512 31.4677C192.948 30.8823 193.396 30.297 193.855 29.7231C194.727 28.6098 195.668 27.485 196.621 26.3946C196.851 26.1306 196.977 25.7633 196.954 25.4075C196.942 25.2009 196.862 24.9025 196.598 24.6615C196.437 24.5123 196.219 24.409 196.001 24.3631C195.599 24.2713 195.152 24.3516 194.865 24.6845C192.925 26.8996 191.02 29.3214 189.229 31.8808C189.08 32.0874 189.046 32.3859 189.126 32.6957C189.218 33.063 189.459 33.3844 189.723 33.5106Z" fill="#1E1E1E"/>
<path d="M195.278 75.965C195.175 75.7469 194.808 75.5173 194.532 75.4485C194.234 75.3796 193.843 75.437 193.625 75.5862C193.453 75.7125 193.143 75.965 193.063 76.3437C193.006 76.6651 193.052 76.9405 193.224 77.3193C194.452 79.9132 195.944 82.3924 197.677 84.6879C197.929 85.0322 198.159 85.1929 198.457 85.2617C198.756 85.3306 199.146 85.2732 199.376 85.124C199.674 84.9174 199.904 84.5501 199.972 84.1943C200.007 83.9992 200.007 83.7123 199.812 83.4598C198.044 81.1298 196.518 78.6048 195.278 75.965Z" fill="#1E1E1E"/>
<path d="M209.9 71.742C209.555 71.6617 209.165 71.7191 208.844 72.006C208.603 72.2241 208.442 72.5913 208.442 72.9586C208.442 73.2685 208.545 73.5325 208.729 73.7047C212.241 76.9757 215.684 80.419 218.967 83.9426C219.426 84.4361 220.218 84.482 220.7 84.0344C220.941 83.8163 221.079 83.5064 221.102 83.1621C221.113 82.8293 221.01 82.5309 220.803 82.3013C217.532 78.7892 214.1 75.3574 210.6 72.0978C210.405 71.9486 210.164 71.7994 209.9 71.742Z" fill="#1E1E1E"/>
<path d="M205.379 43.129C205.976 43.0028 206.538 42.4978 206.366 41.6943C206.263 41.1779 206.148 40.5695 206.171 40.0186L206.194 39.594L207.215 39.8235C207.433 39.8694 207.651 39.9268 207.869 39.9612C208.615 40.1104 209.396 40.2023 210.13 39.9039C210.865 39.6054 211.381 39.066 211.577 38.3888C211.634 38.1937 211.657 37.9756 211.645 37.7002L211.634 37.2066L212.116 37.3444C212.988 37.5969 213.7 37.7346 214.308 37.5969C214.79 37.4821 215.158 37.2066 215.399 36.782C215.72 36.2081 215.777 35.4162 215.536 34.716C215.49 34.5898 215.456 34.5094 215.433 34.4635C215.261 34.1192 215.422 33.947 215.617 33.8093L215.731 33.7175C216.156 33.3961 216.81 33.465 217.281 33.5109L217.453 33.5224C218.75 33.6371 219.84 33.6831 221.023 33.201C221.528 32.9944 221.677 32.3402 221.608 31.8237L221.459 30.7448L223.559 30.8252C224.122 30.8481 224.408 30.5727 224.558 30.3316C224.81 29.9414 224.822 29.379 224.604 28.9658C224.466 28.7133 224.19 28.3919 223.616 28.3805L220.081 28.2427C219.634 28.2198 219.347 28.4264 219.198 28.5985C218.934 28.8969 218.807 29.3331 218.865 29.7692L219.06 31.2269L218.612 31.1924C218.371 31.181 218.13 31.1465 217.889 31.1121C217.694 31.0891 217.499 31.0662 217.327 31.0547C216.317 30.9744 215.445 31.1236 214.676 31.4909C213.861 31.8811 213.241 32.5468 213.011 33.2699C212.885 33.6716 212.851 34.0962 212.919 34.498L213.011 35.0604L212.185 34.8078C211.152 34.4865 210.257 34.2225 209.465 34.9571C209.017 35.3702 208.811 36.0933 208.925 36.8164C208.937 36.8508 208.971 37.0115 209.006 37.1722L209.143 37.7117L208.615 37.6198C208.478 37.5969 208.397 37.5854 208.317 37.5624C208.11 37.5165 207.858 37.4591 207.594 37.4018C207.491 37.3788 207.387 37.3558 207.273 37.3214C206.125 37.046 204.989 36.8738 204.323 37.8264C203.439 39.1004 203.783 41.35 203.979 42.2567C204.139 43.0372 204.805 43.2553 205.379 43.129Z" fill="#1E1E1E"/>
<path d="M465.584 27.8512C467.581 30.8009 469.36 34.1179 470.956 37.8595C483.593 67.46 489.308 101.732 484.052 133.697C480.333 156.238 470.531 176.795 451.938 191.715C445.878 195.79 439.427 199.164 432.759 201.873C426.09 204.582 419.204 206.602 412.214 207.967C378.654 215.497 337.048 205.465 323.665 171.997C311.12 141.524 294.271 101.514 295.97 66.2204C296.314 59.1618 297.393 52.2867 299.402 45.7216C302.627 33.3604 310.765 21.4008 322.713 16.1441C359.992 -0.257213 400.369 -4.63014 439.393 9.0166C451.134 13.1026 459.421 18.738 465.584 27.8512Z" fill="#F5F5F5"/>
<path d="M265.429 127.121C250.06 129.52 234.451 129.244 219.094 126.329C217.556 126.065 218.073 123.402 219.863 123.666C233.429 126.329 247.007 126.593 260.826 124.998C258.772 123.942 256.476 122.874 254.422 122.071C252.884 121.279 254.169 119.144 255.707 119.672C259.036 121.267 262.617 122.863 265.945 124.458C266.714 125.262 266.45 127.121 265.429 127.121Z" fill="#1E1E1E"/>
<path d="M259.552 130.896L259.311 131.115C259.07 131.333 259.07 131.333 258.817 131.333C258.576 131.333 258.576 131.551 258.324 131.551C257.589 131.769 256.602 132.216 255.868 132.664C255.627 132.882 255.374 132.882 254.892 132.882C254.651 132.882 254.399 132.664 254.158 132.434C253.917 132.216 253.917 131.769 253.917 131.551C253.917 131.333 254.158 131.103 254.41 130.885C255.638 130.437 256.866 130.001 258.094 129.554C258.335 129.554 258.829 129.554 259.07 129.772C259.311 129.99 259.563 130.219 259.563 130.437C259.804 130.449 259.804 130.667 259.552 130.896Z" fill="#1E1E1E"/>
<path d="M118.322 202.367C118.792 202.08 119.309 201.782 119.78 201.461C120.893 200.772 121.995 200.049 123.062 199.314C125.174 197.845 127.091 196.193 128.766 194.276C129.271 193.702 129.03 192.749 128.399 192.325C128.342 192.29 128.261 192.256 128.204 192.256C128.043 192.072 127.837 191.911 127.619 191.808C123.923 190.052 120.227 188.273 116.497 186.517C115.923 186.23 115.12 186.528 114.775 187.011C113.892 188.147 114.236 189.639 114.293 190.97L114.488 195.045C114.569 196.491 114.638 197.972 114.684 199.406C114.741 200.68 114.397 202.849 116.233 203.102C117.071 203.24 117.656 202.758 118.322 202.367ZM117.438 194.781C117.392 193.679 117.335 192.6 117.3 191.498C117.289 190.982 117.255 190.477 117.232 189.972C119.894 191.234 122.569 192.497 125.231 193.794C124.072 194.93 122.81 195.997 121.478 196.95C120.583 197.604 119.653 198.201 118.735 198.786C118.379 199.004 118.035 199.234 117.679 199.475C117.656 199.05 117.633 198.626 117.622 198.201L117.438 194.781Z" fill="#59C69F"/>
<path d="M14.4845 38.8134C14.5304 38.2624 14.5992 37.6771 14.6337 37.0917C14.7599 35.7948 14.8403 34.4749 14.8862 33.1779C14.978 30.607 14.8058 28.0704 14.2893 25.6028C14.1287 24.8567 13.2219 24.478 12.5103 24.719C12.4529 24.742 12.3726 24.7879 12.3267 24.8453C12.0857 24.8682 11.8332 24.9256 11.6151 25.0519C7.9882 26.9571 4.34983 28.8394 0.69999 30.7676C0.137593 31.0546 -0.114912 31.8695 0.0572504 32.4319C0.42453 33.8207 1.83626 34.4404 2.92662 35.198L6.301 37.4935C7.50614 38.2969 8.72276 39.1347 9.90494 39.9496C10.9609 40.6612 12.4874 42.2451 13.7958 40.9367C14.4271 40.3399 14.4041 39.5824 14.4845 38.8134ZM7.8849 34.9684C6.9667 34.3486 6.07146 33.7288 5.17621 33.109C4.76302 32.8221 4.32688 32.5352 3.91369 32.2482C6.53055 30.8709 9.13594 29.4936 11.7643 28.1508C11.9824 29.7461 12.0742 31.4104 12.0283 33.0517C12.0053 34.1535 11.925 35.2553 11.8446 36.3457C11.8102 36.7589 11.7758 37.1721 11.7643 37.5967C11.4085 37.3557 11.0642 37.1147 10.7084 36.8851L7.8849 34.9684Z" fill="#1E1E1E"/>
<path d="M392.381 39.4323C392.427 38.8813 392.496 38.296 392.53 37.7106C392.656 36.4137 392.737 35.0938 392.783 33.7968C392.874 31.2259 392.702 28.6893 392.186 26.2217C392.025 25.4756 391.118 25.0969 390.407 25.3379C390.349 25.3609 390.269 25.4068 390.223 25.4642C389.982 25.4871 389.73 25.5445 389.512 25.6707C385.885 27.576 382.246 29.4583 378.596 31.3865C378.034 31.6735 377.782 32.4884 377.954 33.0508C378.321 34.4396 379.733 35.0593 380.823 35.8169L384.197 38.1123C385.403 38.9158 386.619 39.7536 387.801 40.5685C388.857 41.2801 390.384 42.864 391.692 41.5556C392.324 40.9588 392.301 40.2013 392.381 39.4323ZM385.793 35.5873C384.875 34.9675 383.979 34.3477 383.084 33.7279C382.671 33.441 382.235 33.1541 381.822 32.8671C384.439 31.4898 387.044 30.1125 389.672 28.7697C389.89 30.365 389.982 32.0293 389.936 33.6706C389.913 34.7724 389.833 35.8742 389.753 36.9646C389.718 37.3778 389.684 37.791 389.672 38.2156C389.316 37.9746 388.972 37.7336 388.616 37.504L385.793 35.5873Z" fill="#1E1E1E"/>
<path d="M318.19 205.248C318.236 204.697 318.305 204.111 318.339 203.526C318.465 202.229 318.546 200.909 318.592 199.612C318.684 197.041 318.511 194.505 317.995 192.037C317.834 191.291 316.928 190.912 316.216 191.153C316.159 191.176 316.078 191.222 316.032 191.28C315.791 191.303 315.539 191.36 315.321 191.486C311.694 193.391 308.055 195.274 304.406 197.202C303.843 197.489 303.591 198.304 303.763 198.866C304.13 200.255 305.542 200.875 306.632 201.632L310.007 203.928C311.212 204.731 312.428 205.569 313.61 206.384C314.666 207.096 316.193 208.679 317.501 207.371C318.133 206.763 318.11 206.005 318.19 205.248ZM311.59 201.403C310.672 200.783 309.777 200.163 308.882 199.543C308.469 199.256 308.032 198.97 307.619 198.683C310.236 197.305 312.841 195.928 315.47 194.585C315.688 196.18 315.78 197.845 315.734 199.486C315.711 200.588 315.631 201.69 315.55 202.78C315.516 203.193 315.481 203.606 315.47 204.031C315.114 203.79 314.77 203.549 314.414 203.319L311.59 201.403Z" fill="#1E1E1E"/>
<path fill-rule="evenodd" clip-rule="evenodd" d="M33.1467 23.4563C30.3692 23.1005 27.4309 21.528 26.1684 18.9456C24.8141 16.1795 25.3076 12.8396 27.1096 10.4523C27.4883 9.93578 28.0163 9.38486 28.7279 8.99463L28.7394 8.98315L28.7509 8.97167C29.8527 8.3978 31.1152 8.43223 31.8727 8.45519C33.0205 8.48962 34.3978 8.60439 35.6833 9.15531C37.2557 9.83249 38.392 11.0491 39.2642 12.1395C40.0218 13.0921 40.7793 14.2398 41.181 15.5827C41.5827 16.9371 41.6056 18.5783 40.8252 20.0015C39.2183 23.0086 35.9472 23.8235 33.1467 23.4563ZM33.5255 20.4606C35.6144 20.7361 37.3705 20.0704 38.1739 18.5898C38.4723 18.0504 38.5297 17.2814 38.2887 16.4665C38.0476 15.6516 37.5541 14.8711 36.8884 14.0332V14.0218C36.1309 13.0577 35.3619 12.3231 34.4896 11.9443C33.7436 11.623 32.8483 11.5197 31.7694 11.4852C30.9316 11.4508 30.461 11.4967 30.1511 11.6574C29.956 11.7722 29.7264 11.9673 29.5084 12.2657V12.2772V12.2887C28.3262 13.8496 28.0622 15.9844 28.8656 17.6257C29.5543 19.026 31.4136 20.1967 33.5255 20.4606Z" fill="#F7C300"/>
<path fill-rule="evenodd" clip-rule="evenodd" d="M450.182 23.4563C447.404 23.1005 444.466 21.528 443.204 18.9456C441.849 16.1795 442.343 12.8396 444.145 10.4523C444.523 9.93578 445.051 9.38486 445.763 8.99463L445.775 8.98315L445.786 8.97167C446.888 8.3978 448.15 8.43223 448.908 8.45519C450.056 8.48962 451.433 8.60439 452.718 9.15531C454.291 9.83249 455.427 11.0491 456.299 12.1395C457.057 13.0921 457.814 14.2398 458.216 15.5827C458.618 16.9371 458.641 18.5783 457.86 20.0015C456.242 23.0086 452.982 23.8235 450.182 23.4563ZM450.561 20.4606C452.65 20.7361 454.406 20.0704 455.209 18.5898C455.507 18.0504 455.565 17.2814 455.324 16.4665C455.083 15.6516 454.589 14.8711 453.924 14.0332V14.0218C453.166 13.0577 452.397 12.3231 451.525 11.9443C450.779 11.623 449.883 11.5197 448.805 11.4852C447.967 11.4508 447.496 11.4967 447.186 11.6574C446.991 11.7722 446.762 11.9673 446.544 12.2657V12.2772V12.2887C445.361 13.8496 445.097 15.9844 445.901 17.6257C446.589 19.026 448.437 20.1967 450.561 20.4606Z" fill="#59C69F"/>
<path fill-rule="evenodd" clip-rule="evenodd" d="M13.6124 122.047C13.5091 119.843 10.0659 119.832 10.1692 122.047C10.525 129.278 10.4906 136.52 10.0774 143.751C9.95111 145.966 13.3944 145.955 13.5206 143.751C13.9338 136.532 13.9568 129.289 13.6124 122.047Z" fill="#59C69F"/>
<path fill-rule="evenodd" clip-rule="evenodd" d="M187.84 171.883C187.749 172.17 187.817 172.043 187.84 171.883V171.883Z" fill="#F7C300"/>
<path fill-rule="evenodd" clip-rule="evenodd" d="M189.574 169.622C188.644 169.668 187.852 170.38 187.852 171.344C187.852 171.516 187.852 171.688 187.829 171.86C187.829 171.872 187.829 171.872 187.829 171.872C187.841 171.849 187.841 171.837 187.852 171.814C187.829 171.895 187.829 171.986 187.806 172.067C187.738 172.423 187.646 172.778 187.519 173.111C187.497 173.18 187.462 173.238 187.439 173.306C187.462 173.249 187.474 173.215 187.485 173.18C187.474 173.215 187.462 173.249 187.451 173.272C187.37 173.433 187.29 173.582 187.21 173.731C187.118 173.88 187.026 174.018 186.923 174.167C186.923 174.167 186.923 174.167 186.923 174.179C186.877 174.236 186.831 174.293 186.785 174.339C186.567 174.58 186.337 174.787 186.096 175.005C186.027 175.051 185.97 175.097 185.901 175.143C185.763 175.235 185.626 175.315 185.476 175.395C185.339 175.464 185.201 175.533 185.063 175.602C185.006 175.625 184.948 175.648 184.891 175.671C184.547 175.786 184.191 175.877 183.835 175.935C183.433 176.004 183.009 176.394 182.802 176.727C182.584 177.094 182.492 177.645 182.63 178.058C182.94 179.022 183.789 179.424 184.753 179.263C186.464 178.976 188.151 178.035 189.276 176.715C190.561 175.223 191.296 173.341 191.307 171.367C191.307 170.448 190.504 169.588 189.574 169.622Z" fill="#F7C300"/>
<path fill-rule="evenodd" clip-rule="evenodd" d="M187.485 173.18C187.531 173.088 187.554 172.996 187.485 173.18V173.18Z" fill="#F7C300"/>
<path fill-rule="evenodd" clip-rule="evenodd" d="M467.351 171.883C467.259 172.17 467.328 172.043 467.351 171.883V171.883Z" fill="#F7C300"/>
<path fill-rule="evenodd" clip-rule="evenodd" d="M469.085 169.622C468.155 169.668 467.363 170.38 467.363 171.344C467.363 171.516 467.363 171.688 467.34 171.86C467.34 171.872 467.34 171.872 467.34 171.872C467.352 171.849 467.352 171.837 467.363 171.814C467.34 171.895 467.34 171.986 467.317 172.067C467.248 172.423 467.156 172.778 467.03 173.111C467.007 173.18 466.973 173.238 466.95 173.306C466.973 173.249 466.984 173.215 466.996 173.18C466.984 173.215 466.973 173.249 466.961 173.272C466.881 173.433 466.801 173.582 466.72 173.731C466.629 173.88 466.537 174.018 466.433 174.167C466.433 174.167 466.433 174.167 466.433 174.179C466.387 174.236 466.342 174.293 466.296 174.339C466.078 174.58 465.848 174.787 465.607 175.005C465.538 175.051 465.481 175.097 465.412 175.143C465.274 175.235 465.136 175.315 464.987 175.395C464.849 175.464 464.712 175.533 464.574 175.602C464.517 175.625 464.459 175.648 464.402 175.671C464.058 175.786 463.702 175.877 463.346 175.935C462.944 176.004 462.52 176.394 462.313 176.727C462.095 177.094 462.003 177.645 462.141 178.058C462.451 179.022 463.3 179.424 464.264 179.263C465.974 178.976 467.661 178.035 468.786 176.715C470.072 175.223 470.806 173.341 470.818 171.367C470.818 170.448 470.014 169.588 469.085 169.622Z" fill="#F7C300"/>
<path fill-rule="evenodd" clip-rule="evenodd" d="M466.996 173.18C467.041 173.088 467.064 172.996 466.996 173.18V173.18Z" fill="#F7C300"/>
<path d="M456.793 74.7833C456.747 74.3127 456.621 73.8192 456.448 73.3371C456.139 71.099 454.566 68.9986 451.685 68.8265C422.418 67.0934 393.104 65.9915 363.791 65.6013C356.227 65.498 348.652 65.4406 341.088 65.4291C334.236 65.4177 326.661 64.5798 319.889 65.6816C311.189 67.1048 310.328 79.6268 316.021 85.0671C319.625 88.4989 325.249 87.925 329.84 88.1316C337.427 88.4645 345.025 88.7973 352.612 89.1072C367.314 89.7155 382.028 90.3008 396.743 90.8288C411.307 91.3568 425.987 92.3898 440.564 92.2979C445.246 92.275 450.951 92.3553 454.187 88.4874C457.172 84.9523 457.217 79.1103 456.793 74.7833Z" fill="#F7C300"/>
<path d="M446.233 111.064C445.074 127.293 444.546 143.545 444.649 159.809C444.695 166.259 454.715 166.271 454.669 159.809C454.566 143.534 455.094 127.293 456.253 111.064C456.712 104.625 446.681 104.659 446.233 111.064Z" fill="#59C69F"/>
<path d="M321.713 84.9291C322.218 84.8258 322.54 84.4585 322.723 84.1601C323.102 83.5518 323.251 82.7139 323.091 82.0597C323.079 82.0023 323.056 81.9334 323.033 81.876C322.781 81.13 322.184 80.5447 321.426 80.2921C321.128 80.2003 320.761 80.1429 320.417 80.1429C319.946 80.1429 319.521 80.2348 319.384 80.4299C319.269 80.5906 319.223 80.8545 319.177 81.107C319.074 81.6809 318.993 82.2548 318.947 82.8287C318.89 83.3566 318.879 83.8961 319.108 84.2289C319.487 84.8487 320.853 85.1127 321.713 84.9291Z" fill="#1E1E1E"/>
<path d="M328.302 84.2635C328.543 84.516 328.784 84.6766 329.06 84.7685C329.266 84.8718 329.392 84.9177 329.519 84.9521C330.793 84.9521 331.631 84.7685 332.032 84.3668C332.48 83.9077 332.491 83.0468 332.468 81.6925C332.457 81.6925 332.411 81.5662 332.331 81.4285L332.044 80.8776C331.803 80.6136 331.458 80.3037 331.252 80.1775L331.183 80.1889L330.965 80.0742C330.827 80.0053 330.689 79.9594 330.552 79.925C330.402 79.8905 330.253 79.8791 330.104 79.8905L329.324 79.9938C329.002 80.0971 328.646 80.3037 328.337 80.6021L327.9 81.176C327.728 81.4859 327.625 81.8876 327.625 82.3352V82.5418C327.613 82.8862 327.671 83.1616 327.82 83.4256C327.923 83.8273 328.073 84.0569 328.302 84.2635Z" fill="#1E1E1E"/>
<path d="M339.275 85.0784C339.286 85.0784 339.286 85.0784 339.298 85.0784C340.193 85.0784 341.295 84.6308 341.697 83.4142C341.777 83.1617 341.811 82.8977 341.811 82.6222C341.8 81.8532 341.444 81.1072 340.882 80.6252C340.4 80.2234 339.757 80.0168 339.137 80.0168C338.644 80.0168 338.173 80.1431 337.806 80.4186C336.773 81.1875 336.359 82.2894 336.727 83.3568C337.151 84.6308 338.357 85.0784 339.275 85.0784Z" fill="#1E1E1E"/>
<path d="M454.359 120.935C454.245 120.877 454.038 120.82 453.751 120.785L452.466 120.648L452.489 119.351C452.558 116.309 452.477 113.578 452.248 111.018C452.19 110.318 451.743 109.136 450.48 109.136C450.01 109.136 449.47 109.4 449.103 109.801C448.827 110.111 448.69 110.444 448.713 110.766C448.965 113.509 449.045 116.401 448.965 119.603L448.931 120.774L447.37 121.026C447.175 121.061 446.968 121.095 446.773 121.13C446.509 121.187 446.038 121.531 445.82 121.922C445.602 122.289 445.51 122.874 445.625 123.219C445.705 123.46 445.935 124.056 446.406 124.309C446.681 124.447 446.945 124.527 447.278 124.539L448.747 124.596L448.632 126.054C448.38 129.394 448.001 132.768 447.645 136.028C446.784 143.924 445.889 152.039 446.52 160.027C446.589 160.911 447.117 161.347 447.542 161.553C448.208 161.875 449.045 161.84 449.562 161.485C449.929 161.232 450.09 160.819 450.044 160.245C449.401 151.993 450.308 143.74 451.18 135.752C451.548 132.389 451.926 128.957 452.179 125.583L452.294 124.16L453.717 124.286C453.958 124.309 454.509 124.068 454.819 123.77C455.117 123.471 455.347 122.943 455.335 122.587C455.324 122.323 455.255 121.681 454.865 121.325L454.359 120.935Z" fill="#1E1E1E"/>
<path d="M470.508 75.6446C470.29 73.6361 470.061 71.5472 469.728 69.5501C469.257 66.7496 467.731 64.7869 465.424 64.0064C463.599 63.3867 461.349 63.4555 459.192 63.5244H459.054C458.411 63.5473 457.768 63.5703 457.16 63.5703L447.714 63.5818C446.773 63.5818 445.981 64.3737 445.981 65.3149C445.981 65.7625 446.165 66.1986 446.497 66.5315C446.83 66.8643 447.266 67.048 447.714 67.048L455.691 67.0365C456.414 67.0365 457.194 67.0135 457.986 67.0021C459.926 66.9562 462.118 66.7496 463.989 67.312C464.965 67.5989 465.894 68.2187 466.319 69.1484C466.767 70.1354 466.468 71.1799 466.629 72.2014C466.755 73.0048 466.824 73.8197 466.916 74.6231C467.054 75.7479 467.191 76.8727 467.329 78.009C467.364 78.3304 467.627 79.9142 469.074 79.9142C469.533 79.9142 470.118 79.6158 470.474 79.2141C470.658 79.0075 470.853 78.6976 470.818 78.3418C470.703 77.4351 470.6 76.5399 470.508 75.6446Z" fill="#1E1E1E"/>
<path d="M346.172 109.307C345.22 107.31 343.429 105.543 341.524 104.452C340.296 103.752 338.93 103.373 337.518 103.649C336.623 103.821 335.808 104.372 335.097 105.003C331.275 107.138 328.371 111.155 329.438 115.712C329.966 117.984 331.585 119.729 333.674 120.67C334.913 121.221 336.164 121.623 337.518 121.726C338.85 121.829 340.135 121.473 341.352 120.945C343.716 119.947 345.713 118.478 346.655 115.999C347.492 113.818 347.16 111.373 346.172 109.307Z" fill="#59C69F"/>
<path d="M333.421 157.524C332.95 156.526 332.055 155.654 331.114 155.103C330.506 154.758 329.817 154.563 329.128 154.701C328.681 154.793 328.279 155.057 327.923 155.378C326.018 156.434 324.583 158.431 325.111 160.704C325.375 161.829 326.179 162.701 327.223 163.171C327.843 163.447 328.463 163.642 329.14 163.699C329.805 163.745 330.437 163.573 331.045 163.309C332.216 162.804 333.214 162.081 333.685 160.853C334.075 159.774 333.914 158.557 333.421 157.524Z" fill="#F7C300"/>
<path d="M371.871 157.524C371.4 156.526 370.505 155.654 369.564 155.103C368.955 154.758 368.267 154.563 367.578 154.701C367.13 154.793 366.729 155.057 366.373 155.378C364.468 156.434 363.033 158.431 363.561 160.704C363.825 161.829 364.628 162.701 365.673 163.171C366.293 163.447 366.912 163.642 367.589 163.699C368.255 163.745 368.886 163.573 369.495 163.309C370.665 162.804 371.664 162.081 372.135 160.853C372.525 159.774 372.353 158.557 371.871 157.524Z" fill="#F7C300"/>
<path d="M410.618 157.524C410.148 156.526 409.253 155.654 408.311 155.103C407.703 154.758 407.014 154.563 406.326 154.701C405.878 154.793 405.477 155.057 405.121 155.378C403.215 156.434 401.781 158.431 402.309 160.704C402.573 161.829 403.376 162.701 404.421 163.171C405.04 163.447 405.66 163.642 406.337 163.699C407.003 163.745 407.634 163.573 408.243 163.309C409.413 162.804 410.412 162.081 410.882 160.853C411.273 159.774 411.1 158.557 410.618 157.524Z" fill="#F7C300"/>
<path d="M343.556 127.488C344.405 129.313 344.485 131.322 344.313 133.284C344.164 134.914 344.084 136.774 345.932 137.416C347.378 137.921 349.352 137.324 349.845 135.706C350.454 133.675 350.591 131.62 350.305 129.508C350.19 128.693 350.018 127.89 349.811 127.109C349.467 125.835 349.134 124.447 348.181 123.471C347.607 122.897 347.022 122.461 346.184 122.369C344.371 122.151 342.557 123.77 342.856 125.652C342.947 126.306 343.28 126.891 343.556 127.488Z" fill="#59C69F"/>
<path d="M363.377 122.793C360.267 122.782 357.156 122.782 354.046 122.771C353.265 122.771 352.519 123.459 352.554 124.263C352.588 125.077 353.208 125.755 354.046 125.755C357.156 125.766 360.267 125.766 363.377 125.778C364.158 125.778 364.904 125.089 364.869 124.286C364.835 123.482 364.215 122.805 363.377 122.793Z" fill="#1E1E1E"/>
<path d="M371.101 128.154C365.73 128.05 360.37 128.027 354.998 128.096C353.081 128.119 353.231 131.103 355.147 131.08C360.519 131.011 365.879 131.034 371.25 131.138C372.054 131.149 372.708 130.346 372.662 129.577C372.616 128.716 371.905 128.165 371.101 128.154Z" fill="#1E1E1E"/>
<path d="M379.067 133.031C371.285 132.928 363.504 132.825 355.733 132.721C353.817 132.698 353.817 135.683 355.733 135.706C363.515 135.809 371.297 135.912 379.067 136.015C380.984 136.038 380.984 133.054 379.067 133.031Z" fill="#1E1E1E"/>
<path d="M372.491 160.256L372.445 157.215C372.434 156.721 372.491 156.17 372.388 155.688C372.25 155.057 371.734 154.896 371.183 154.827C368.887 154.529 366.569 154.518 364.285 154.816C363.872 154.862 363.516 155.126 363.516 155.585C363.516 155.7 363.55 155.803 363.596 155.918C363.389 156.056 363.229 156.297 363.252 156.549C363.332 157.605 363.412 158.649 363.481 159.705C363.516 160.176 363.55 160.658 363.585 161.129C363.619 161.611 363.596 162.162 363.745 162.621C364.09 163.688 365.57 163.516 366.454 163.585C367.43 163.654 368.405 163.757 369.381 163.803C370.264 163.849 371.32 163.78 372.043 163.217C372.457 162.896 372.514 162.448 372.514 161.955C372.514 161.37 372.503 160.819 372.491 160.256ZM368.577 162.196C367.774 162.139 366.97 162.081 366.156 162.012C365.834 161.989 365.501 161.932 365.191 161.943C365.18 161.748 365.157 161.553 365.146 161.347C365.031 159.74 364.904 158.144 364.79 156.538C364.778 156.446 364.767 156.365 364.732 156.285C365.777 156.17 366.833 156.113 367.877 156.113C368.474 156.113 369.082 156.147 369.679 156.193C369.955 156.216 370.23 156.239 370.505 156.274C370.632 156.285 370.769 156.308 370.896 156.319C370.896 156.365 370.896 156.411 370.896 156.457C370.896 156.664 370.907 156.859 370.907 157.066C370.919 157.467 370.919 157.88 370.93 158.282C370.942 159.097 370.953 159.9 370.965 160.715C370.976 161.117 370.976 161.53 370.988 161.932C370.988 161.978 370.988 162.012 370.988 162.058C370.85 162.093 370.724 162.162 370.586 162.196C369.943 162.334 369.231 162.242 368.577 162.196Z" fill="#1E1E1E" stroke="#1E1E1E" stroke-width="0.7419" stroke-miterlimit="10"/>
<path d="M410.94 160.256L410.894 157.215C410.883 156.721 410.94 156.17 410.837 155.688C410.699 155.057 410.183 154.896 409.632 154.827C407.336 154.529 405.018 154.518 402.734 154.816C402.321 154.862 401.965 155.126 401.965 155.585C401.965 155.7 401.999 155.803 402.045 155.918C401.839 156.056 401.678 156.297 401.701 156.549C401.781 157.605 401.862 158.649 401.93 159.705C401.965 160.176 401.999 160.658 402.034 161.129C402.068 161.611 402.045 162.162 402.194 162.621C402.539 163.688 404.019 163.516 404.903 163.585C405.879 163.654 406.854 163.757 407.83 163.803C408.714 163.849 409.77 163.78 410.493 163.217C410.906 162.896 410.963 162.448 410.963 161.955C410.963 161.37 410.952 160.819 410.94 160.256ZM407.026 162.196C406.223 162.139 405.42 162.081 404.605 162.012C404.283 161.989 403.951 161.932 403.641 161.943C403.629 161.748 403.606 161.553 403.595 161.347C403.48 159.74 403.354 158.144 403.239 156.538C403.227 156.446 403.216 156.365 403.182 156.285C404.226 156.17 405.282 156.113 406.326 156.113C406.923 156.113 407.531 156.147 408.128 156.193C408.404 156.216 408.679 156.239 408.955 156.274C409.081 156.285 409.219 156.308 409.345 156.319C409.345 156.365 409.345 156.411 409.345 156.457C409.345 156.664 409.356 156.859 409.356 157.066C409.368 157.467 409.368 157.88 409.379 158.282C409.391 159.097 409.402 159.9 409.414 160.715C409.425 161.117 409.425 161.53 409.437 161.932C409.437 161.978 409.437 162.012 409.437 162.058C409.299 162.093 409.173 162.162 409.035 162.196C408.381 162.334 407.681 162.242 407.026 162.196Z" fill="#1E1E1E" stroke="#1E1E1E" stroke-width="0.7419" stroke-miterlimit="10"/>
<path d="M464.414 149.72C464.437 144.371 464.414 139.034 464.334 133.686C464.253 128.337 464.127 122.989 463.943 117.64C463.76 112.292 463.53 106.955 463.232 101.617C462.945 96.2919 462.6 90.9664 462.21 85.6408C461.969 82.3238 461.705 79.0068 461.418 75.6898C461.292 74.2207 459.915 73.9912 459.639 73.9682L459.502 73.9452L459.111 73.8075C458.859 73.6698 458.595 73.6009 458.285 73.5894L313.003 68.6197L312.773 68.5279C312.601 68.459 312.349 68.3787 312.05 68.3787C311.637 68.3787 311.247 68.5279 310.891 68.8378C307.161 72.0056 307.517 77.5951 307.838 82.5189L307.849 82.6796C307.884 83.2305 307.918 83.7585 307.941 84.2865L309.1 106.622C309.273 109.916 309.433 113.221 309.583 116.515L309.605 117.043C310.133 128.165 310.684 139.665 311.763 150.959C312.636 160.095 313.852 168.084 315.47 175.395C315.585 175.923 315.849 176.279 316.251 176.451C316.767 176.669 317.502 176.565 318.064 176.21L318.386 176.003L318.776 175.992C355.481 174.706 392.507 173.903 428.834 173.616C434.194 173.57 439.542 173.547 444.902 173.524C447.576 173.512 450.262 173.501 452.936 173.501C454.268 173.501 455.611 173.501 456.942 173.49C457.791 173.49 458.595 173.455 459.444 173.524C460.81 173.627 462.336 172.927 462.027 171.297C461.992 171.091 461.912 170.884 461.786 170.723C461.648 170.528 461.476 170.379 461.258 170.322C460.603 170.127 459.846 170.161 459.157 170.127C458.354 170.081 457.562 170.046 456.758 170.012C454.463 169.932 452.179 169.966 449.883 169.977C447.737 169.989 445.602 170.012 443.456 170.012C438.085 170.035 432.725 170.069 427.353 170.115C421.982 170.161 416.622 170.218 411.25 170.276C405.89 170.345 400.53 170.414 395.17 170.505C389.822 170.597 384.473 170.689 379.125 170.792C373.799 170.896 368.474 171.022 363.137 171.148C358.5 171.263 353.851 171.378 349.214 171.504C340.113 171.756 330.437 172.055 319.66 172.434L318.455 172.479L318.225 171.297C315.677 158.557 314.69 145.484 314.013 133.238C313.462 123.425 312.957 113.451 312.463 103.81L312.062 95.9361H313.91C351.211 95.9361 388.789 97.2216 425.62 99.7352C430.888 100.091 436.145 100.481 441.402 100.894C444.076 101.101 446.739 101.308 449.413 101.526C450.744 101.629 452.087 101.744 453.418 101.87C454.658 101.985 455.898 102.18 457.137 102.214C457.631 102.226 458.124 102.214 458.618 102.157C458.928 102.122 459.513 101.87 459.708 102.226C459.765 102.329 459.777 102.455 459.777 102.582C459.972 107.884 460.248 113.175 460.431 118.478C460.615 123.838 460.741 129.209 460.821 134.581C460.902 139.929 460.925 145.278 460.902 150.626C460.89 153.312 460.856 156.009 460.821 158.695C460.798 160.038 460.776 161.381 460.753 162.724C460.741 163.504 460.58 164.285 460.649 165.065C460.684 165.547 460.764 166.144 461.108 166.511C461.567 166.993 462.509 166.764 463.082 166.683C463.301 166.649 463.519 166.614 463.702 166.5C464.047 166.293 464.207 165.868 464.253 165.467C464.402 164.227 464.265 162.965 464.288 161.725C464.311 160.394 464.334 159.062 464.356 157.731C464.368 155.057 464.402 152.394 464.414 149.72ZM457.539 98.7251C419.95 95.4082 381.891 93.3766 344.44 92.6765C332.824 92.4584 322.621 92.3666 313.221 92.4011H311.878L311.809 91.0582C311.763 90.0711 311.706 89.0726 311.648 88.0855L311.603 87.2706C311.465 84.7915 311.304 81.9795 311.201 79.2593C311.132 77.2967 311.052 74.8749 312.165 72.8664L312.59 72.1088L458.021 77.0786L458.124 78.3296C458.618 84.2406 459.042 90.4384 459.456 97.2905L459.559 99.058L457.539 98.7251Z" fill="#1E1E1E"/>
<path d="M337.439 121.106C340.928 120.222 343.74 117.307 344.44 113.852C345.209 110.042 343.281 106.289 339.941 105.141C339.665 105.049 339.39 105.015 339.137 105.06C339.344 104.854 339.504 104.601 339.585 104.291C339.711 103.809 339.608 103.247 339.321 102.811C339.068 102.432 338.713 102.203 338.299 102.145C333.766 101.525 329.416 103.431 326.937 107.126C324.836 110.26 323.987 115.057 327.074 118.179C329.129 120.257 332.021 121.416 334.902 121.416C335.751 121.416 336.612 121.313 337.439 121.106ZM337.794 107.172C337.921 107.792 338.334 108.274 338.942 108.481C339.975 108.837 340.503 109.64 340.756 110.248C341.272 111.476 341.226 113.072 340.641 114.311C339.631 116.446 337.565 117.823 335.258 117.927C333.043 118.007 330.162 117.031 328.934 114.966C327.694 112.865 329.094 109.732 330.495 108.171C332.021 106.449 334.248 105.462 336.497 105.462C336.842 105.462 337.175 105.485 337.519 105.531C337.794 105.565 338.047 105.554 338.276 105.508C337.863 105.921 337.68 106.564 337.794 107.172Z" fill="#1E1E1E"/>
<path d="M327.2 124.159C327.418 123.953 327.671 123.781 327.935 123.597C328.164 123.436 328.394 123.287 328.612 123.092C328.692 123.035 328.761 122.954 328.819 122.885C329.025 122.644 329.151 122.392 329.209 122.105C329.324 121.405 328.853 120.67 328.164 120.51C327.82 120.429 327.499 120.475 327.223 120.544C325.697 120.9 324.411 121.818 323.504 123.184C321.347 126.466 320.371 130.954 320.83 135.522C320.899 136.176 321.278 136.716 321.875 136.98C322.127 137.095 322.414 137.152 322.678 137.152C323.045 137.152 323.401 137.049 323.688 136.842C324.136 136.521 324.354 136.004 324.296 135.407C323.929 131.712 324.606 128.177 326.19 125.445C326.443 124.997 326.787 124.561 327.2 124.159Z" fill="#1E1E1E"/>
<path d="M346.184 135.981C346.471 136.188 346.85 136.303 347.229 136.303C347.504 136.303 347.791 136.245 348.044 136.13C348.629 135.866 349.008 135.361 349.077 134.73C349.524 130.403 348.549 126.145 346.391 123.035C345.496 121.738 344.21 120.877 342.672 120.544C342.397 120.487 342.075 120.441 341.743 120.51C341.054 120.67 340.572 121.382 340.687 122.059C340.733 122.334 340.87 122.587 341.077 122.817C341.146 122.885 341.215 122.943 341.283 123.012C341.502 123.184 341.731 123.333 341.961 123.482C342.225 123.654 342.477 123.815 342.695 124.01C343.097 124.377 343.441 124.791 343.717 125.227C345.301 127.798 345.966 131.126 345.599 134.604C345.542 135.178 345.76 135.671 346.184 135.981Z" fill="#1E1E1E"/>
<path d="M324.733 161.151C324.744 161.278 324.744 161.404 324.756 161.53C324.767 161.909 324.79 162.345 324.916 162.747C325.307 163.918 326.649 163.952 327.533 163.975C327.694 163.975 327.855 163.986 327.992 163.998L328.888 164.067C329.576 164.124 330.253 164.182 330.942 164.204C331.08 164.216 331.229 164.216 331.39 164.216C332.182 164.216 333.157 164.101 333.88 163.527C334.443 163.08 334.512 162.471 334.512 161.932L334.431 157.215C334.431 157.077 334.431 156.939 334.431 156.79C334.443 156.4 334.454 155.998 334.362 155.596C334.144 154.575 333.157 154.449 332.79 154.403C330.483 154.093 328.119 154.093 325.777 154.391C325.1 154.472 324.641 154.954 324.641 155.585C324.641 155.654 324.652 155.723 324.664 155.78C324.469 156.01 324.365 156.285 324.388 156.572L324.733 161.151ZM326.787 156.664C327.694 156.583 328.612 156.538 329.438 156.549C330.035 156.549 330.621 156.583 331.217 156.618C331.493 156.641 331.757 156.664 332.032 156.698L332.124 161.748C332.101 161.76 332.078 161.76 332.055 161.771C331.573 161.886 331.022 161.84 330.494 161.794L330.173 161.771L327.43 161.565C327.338 161.553 327.246 161.542 327.143 161.542L326.787 156.664Z" fill="#1E1E1E"/>
<path d="M338.988 159.591C340.158 159.315 341.088 159.212 342.362 159.223C343.636 159.235 344.508 159.361 345.725 159.671C346.368 159.832 347.137 159.464 347.297 158.776C347.447 158.11 347.102 157.375 346.402 157.203C343.739 156.526 340.973 156.503 338.299 157.123C337.645 157.272 337.197 158.053 337.404 158.695C337.633 159.372 338.288 159.751 338.988 159.591Z" fill="#1E1E1E"/>
<path d="M338.735 164.055C344.129 163.516 349.558 163.516 354.953 164.067C355.641 164.136 356.227 163.424 356.227 162.793C356.227 162.047 355.641 161.588 354.953 161.519C349.558 160.968 344.129 160.968 338.735 161.507C338.046 161.576 337.461 162.047 337.461 162.781C337.461 163.413 338.046 164.124 338.735 164.055Z" fill="#1E1E1E"/>
<path d="M375.532 159.188C378.195 159.865 380.961 159.888 383.635 159.268C384.289 159.119 384.737 158.338 384.53 157.696C384.312 157.019 383.658 156.64 382.958 156.801C381.787 157.076 380.857 157.179 379.583 157.168C378.309 157.156 377.437 157.03 376.22 156.72C375.578 156.559 374.809 156.927 374.648 157.615C374.487 158.27 374.843 159.004 375.532 159.188Z" fill="#1E1E1E"/>
<path d="M375.98 163.654C381.374 164.204 386.803 164.204 392.197 163.665C392.886 163.596 393.472 163.126 393.472 162.391C393.472 161.76 392.886 161.048 392.197 161.117C386.803 161.656 381.374 161.656 375.98 161.106C375.291 161.037 374.706 161.737 374.706 162.38C374.706 163.126 375.291 163.585 375.98 163.654Z" fill="#1E1E1E"/>
<path d="M422.556 157.203C419.893 156.526 417.127 156.503 414.452 157.123C413.798 157.272 413.351 158.053 413.557 158.695C413.775 159.372 414.429 159.751 415.13 159.591C416.3 159.315 417.23 159.212 418.504 159.223C419.778 159.235 420.65 159.361 421.867 159.671C422.51 159.832 423.279 159.464 423.439 158.776C423.6 158.121 423.244 157.387 422.556 157.203Z" fill="#1E1E1E"/>
<path d="M431.106 161.507C425.711 160.956 420.282 160.956 414.888 161.495C414.199 161.564 413.614 162.035 413.614 162.769C413.614 163.412 414.199 164.112 414.888 164.043C420.282 163.504 425.711 163.504 431.106 164.055C431.794 164.124 432.38 163.412 432.38 162.781C432.38 162.035 431.794 161.576 431.106 161.507Z" fill="#1E1E1E"/>
<path d="M433.172 107.069C432.598 106.564 431.887 106.427 431.141 106.553C430.59 106.645 430.108 106.966 429.809 107.425C429.557 107.471 429.316 107.632 429.155 107.873C428.765 108.481 428.926 109.273 429.304 109.835C429.66 110.363 430.154 110.891 430.808 111.017C431.164 111.086 431.531 111.086 431.887 110.983C432.243 110.88 432.518 110.696 432.805 110.467C433.023 110.294 433.195 110.065 433.356 109.835C433.528 109.594 433.666 109.307 433.735 109.02C433.918 108.32 433.723 107.551 433.172 107.069Z" fill="#1E1E1E"/>
<path d="M439.175 107.597C438.968 107.413 438.727 107.287 438.474 107.218C438.383 107.126 438.291 107.046 438.176 106.966C437.855 106.748 436.891 106.507 436.5 106.61C436.259 106.679 436.041 106.828 435.858 107C434.905 107.918 434.549 109.847 435.651 110.811C435.972 111.086 436.34 111.235 436.741 111.373C437.178 111.522 437.614 111.58 438.061 111.488C438.842 111.316 439.393 110.638 439.657 109.915C439.932 109.158 439.817 108.136 439.175 107.597Z" fill="#1E1E1E"/>
<path d="M426.905 107.322C426.561 107.035 426.044 106.748 425.631 106.587C425.39 106.484 425.126 106.438 424.862 106.392C424.633 106.346 424.392 106.3 424.162 106.358C423.979 106.404 423.818 106.518 423.68 106.656C422.67 107.563 422.234 109.548 423.393 110.547C423.715 110.822 424.082 110.972 424.484 111.109C424.92 111.258 425.356 111.316 425.803 111.224C426.584 111.052 427.135 110.375 427.399 109.652C427.674 108.883 427.548 107.861 426.905 107.322Z" fill="#1E1E1E"/>
<path d="M327.601 65.2682C328.152 65.5207 328.91 65.4519 329.254 64.7058C329.472 64.2238 329.748 63.6729 330.092 63.2482L330.367 62.9153L331.056 63.7073C331.205 63.8794 331.343 64.0516 331.492 64.2123C331.997 64.7747 332.582 65.3141 333.34 65.5093C334.109 65.7044 334.844 65.5781 335.406 65.1535C335.567 65.0272 335.716 64.8665 335.877 64.637L336.163 64.2238L336.462 64.614C337.013 65.3371 337.495 65.8651 338.069 66.1176C338.516 66.3127 338.975 66.3127 339.423 66.1176C340.02 65.8536 340.536 65.2453 340.777 64.5451C340.823 64.4189 340.835 64.3385 340.846 64.2812C340.915 63.9024 341.145 63.8565 341.386 63.868H341.535C342.074 63.868 342.545 64.3041 342.901 64.6255L343.027 64.7403C344.003 65.6011 344.852 66.2897 346.08 66.6111C346.608 66.7488 347.113 66.3127 347.377 65.8536L347.905 64.9009L349.535 66.2209C349.971 66.5767 350.373 66.5307 350.637 66.4275C351.073 66.2553 351.417 65.8191 351.497 65.36C351.543 65.0731 351.497 64.6599 351.061 64.2926L348.307 62.066C347.962 61.7791 347.606 61.7791 347.377 61.825C346.987 61.9053 346.619 62.1808 346.413 62.571L345.701 63.8565L345.368 63.5696C345.185 63.4089 345.013 63.2367 344.84 63.076C344.703 62.9383 344.565 62.8006 344.427 62.6858C343.658 62.0201 342.878 61.6184 342.04 61.4577C341.156 61.2855 340.261 61.4462 339.641 61.8824C339.297 62.1234 339.021 62.4448 338.826 62.812L338.562 63.3171L338.046 62.6169C337.403 61.7446 336.852 60.9986 335.773 61.1134C335.165 61.1822 334.568 61.6413 334.235 62.2841C334.212 62.3185 334.155 62.4677 334.086 62.6169L333.879 63.1219L333.501 62.7202C333.397 62.6169 333.351 62.5595 333.294 62.5022C333.145 62.3415 332.984 62.1463 332.812 61.9398C332.743 61.8594 332.674 61.7676 332.605 61.6873C331.848 60.792 331.044 59.9656 329.943 60.3329C328.474 60.8264 327.406 62.835 327.016 63.6843C326.672 64.4533 327.062 65.0272 327.601 65.2682Z" fill="#1E1E1E"/>
</svg>
