<svg width="159" height="85" viewBox="0 0 159 85" fill="none" xmlns="http://www.w3.org/2000/svg">
<path d="M145.198 70.3151C145.198 70.3151 145.344 70.2197 145.463 70.2456C146.525 69.9677 147.707 69.7156 148.796 69.3164C149.472 69.082 150.257 69.5058 150.485 70.1899C150.713 70.874 150.29 71.6712 149.613 71.9055C148.405 72.2789 147.223 72.5309 146.161 72.8089C145.484 73.0433 144.725 72.4982 144.617 71.84C144.244 71.2513 144.64 70.5754 145.198 70.3151Z" fill="#1E1E1E"/>
<path d="M131.837 71.8669C131.983 71.7716 132.248 71.7021 132.368 71.728C134.481 71.8043 136.646 71.6382 138.957 71.3766C139.727 71.2894 140.366 71.8086 140.448 72.5881C140.53 73.3676 140.013 74.0175 139.243 74.1047C136.932 74.3663 134.528 74.4807 132.269 74.4997C131.525 74.4656 130.912 73.8251 130.95 73.0716C131.055 72.5864 131.28 72.1272 131.837 71.8669Z" fill="#1E1E1E"/>
<path d="M102.287 26.1132C102.964 25.8788 103.655 26.1555 104.029 26.7442C104.376 27.4542 104.099 28.156 103.516 28.5375C101.791 29.5608 100.373 30.9044 99.4484 32.8626C99.0516 33.5385 98.3746 33.7728 97.683 33.4962C97.0177 33.0983 96.79 32.4142 97.0671 31.7124C98.0969 29.2691 99.8855 27.3709 102.287 26.1132C102.141 26.2086 102.287 26.1132 102.287 26.1132ZM108.753 24.5926C108.899 24.4972 109.165 24.4278 109.284 24.4537C111.662 24.4605 114.029 25.0997 116.317 26.1027C117.008 26.3794 117.329 27.2107 116.933 27.8865C116.656 28.5883 115.833 28.9181 115.167 28.5201C113.238 27.5948 111.204 27.1546 109.092 27.0782C108.348 27.0441 107.735 26.4036 107.773 25.6501C107.971 25.3121 108.315 24.8788 108.753 24.5926ZM66.908 46.6412C67.3194 46.4764 67.8242 46.4587 68.1306 46.7789L69.3417 47.5489C70.7658 48.4919 72.2833 49.5821 73.7074 50.5252C74.3727 50.9231 74.4545 51.7026 74.0577 52.3784C73.6609 53.0543 72.8906 53.1415 72.2252 52.7436C70.6815 51.7747 69.164 50.6844 67.7399 49.7414L66.5289 48.9715C65.8635 48.5735 65.808 47.6728 66.1785 47.1182C66.4703 46.9274 66.6424 46.7107 66.908 46.6412ZM95.9268 37.5597C96.0727 37.4643 96.3382 37.3949 96.4579 37.4208C97.202 37.4548 97.6952 38.0694 97.777 38.8489C97.7159 40.8671 98.0137 42.9629 98.5509 45.1105C98.7786 45.7946 98.3555 46.5918 97.6786 46.8262C97.0016 47.0605 96.2166 46.6367 95.9889 45.9526C95.265 43.5106 94.9263 41.025 95.0398 38.7643C95.1448 38.2792 95.4891 37.8459 95.9268 37.5597ZM120.805 30.2482C121.362 29.988 121.961 30.1174 122.36 30.5849C123.467 31.8399 124.427 33.1904 125.095 34.7317L125.188 34.8788C125.51 35.7101 125.711 36.5154 125.912 37.3208C125.994 38.1003 125.478 38.7503 124.707 38.8375C123.937 38.9246 123.298 38.4054 123.216 37.626C123.082 37.0891 122.974 36.4309 122.72 35.8681L122.627 35.7209C122.145 34.474 121.398 33.2966 120.359 32.31C119.839 31.8167 119.904 30.9418 120.394 30.4131C120.54 30.3177 120.685 30.2223 120.805 30.2482ZM78.4057 53.7004C78.6975 53.5096 79.0564 53.5873 79.4154 53.665C81.4639 54.6162 83.4716 55.1777 85.6251 55.6438C86.343 55.7992 86.8099 56.5351 86.6524 57.2628C86.4949 57.9904 85.7655 58.4674 85.0476 58.312C82.7744 57.82 80.5537 57.0854 78.3856 56.1083C77.694 55.8316 77.3729 55.0004 77.7697 54.3245C77.8222 54.0819 78.1139 53.8912 78.4057 53.7004ZM99.3627 50.6186C99.92 50.3584 100.757 50.5396 100.985 51.2237C101.96 53.0852 103.2 54.8772 104.56 56.6951C105.054 57.3097 104.87 58.1586 104.286 58.5402C103.676 59.043 102.839 58.8617 102.465 58.273C101.012 56.308 99.6782 54.3688 98.61 52.3601C98.4757 51.8232 98.6332 51.0955 99.3627 50.6186ZM121.568 42.3477C121.979 42.1828 122.604 42.191 123.03 42.5372C123.549 43.0305 123.631 43.8099 123.115 44.4599C121.592 46.2886 119.497 47.8666 117.72 49.1325C117.136 49.514 116.273 49.454 115.899 48.8653C115.525 48.2766 115.589 47.4018 116.173 47.0202C117.804 45.8497 119.753 44.3672 121.104 42.7551C121.25 42.6597 121.422 42.4431 121.568 42.3477ZM91.5663 56.5489C91.7122 56.4535 91.8319 56.4794 92.0974 56.4099C93.7315 56.3827 95.2722 56.2083 96.8129 56.0339C97.344 55.8949 97.9947 55.7818 98.4995 55.7641C99.1502 55.6511 99.9352 56.0749 100.043 56.7331C100.151 57.3913 99.7282 58.1884 99.0775 58.3015C98.4268 58.4146 97.8957 58.5536 97.245 58.6667C95.5584 58.9364 93.7785 59.059 92.0247 59.0603C91.2806 59.0262 90.6415 58.507 90.6794 57.7535C90.6647 57.2425 91.0353 56.6878 91.5663 56.5489ZM110.749 50.6708C111.306 50.4105 112.024 50.5659 112.398 51.1546C112.771 51.7433 112.587 52.5922 111.884 52.9479C109.868 54.162 107.758 55.2289 105.675 56.1746C104.998 56.4089 104.187 56.1064 103.959 55.4223C103.731 54.7382 104.035 53.9151 104.712 53.6808C106.649 52.8305 108.613 51.859 110.629 50.6449L110.749 50.6708ZM107.549 61.4047C107.96 61.2398 108.585 61.248 108.985 61.7154C110.423 63.1695 111.795 64.355 113.286 65.5665C113.499 65.7396 113.712 65.9127 113.925 66.0857C114.471 66.4578 114.646 67.3844 114.276 67.939C113.905 68.4937 112.989 68.6762 112.443 68.3042C112.23 68.1311 111.897 67.9321 111.684 67.7591C110.193 66.5476 108.609 65.1889 107.17 63.7349C106.65 63.2416 106.595 62.3408 107.205 61.838C107.257 61.5954 107.403 61.5001 107.549 61.4047ZM118.624 69.261C118.915 69.0702 119.274 69.1479 119.633 69.2256C121.588 70.0296 123.689 70.7383 125.869 71.0832C126.587 71.2385 127.054 71.9744 126.897 72.7021C126.739 73.4297 126.01 73.9067 125.292 73.7513C122.899 73.2334 120.652 72.6201 118.603 71.6689C117.912 71.3922 117.591 70.561 117.868 69.8592C118.04 69.6425 118.358 69.3305 118.624 69.261Z" fill="#1E1E1E"/>
<path d="M58.0454 41.2953C58.3372 41.1045 58.8158 41.2081 59.1747 41.2858C60.199 41.7614 61.3166 42.3842 62.4343 43.007C63.0997 43.4049 63.3011 44.2102 62.9043 44.8861C62.5075 45.562 61.7109 45.7705 61.0456 45.3726C60.0476 44.7757 59.0233 44.3 57.999 43.8244C57.3074 43.5478 57.106 42.7424 57.3831 42.0406C57.4881 41.5555 57.6602 41.3389 58.0454 41.2953Z" fill="#1E1E1E"/>
<path d="M47.8938 45.9539C48.8504 40.9555 49.6611 36.0525 50.3522 31.1237C50.495 29.885 50.7575 28.6722 51.02 27.4594C51.2038 26.6104 51.6268 25.8132 51.1599 25.0774C50.2522 23.4843 46.9577 23.66 45.4695 23.5918C45.2303 23.54 44.9385 23.7308 44.7926 23.8262C44.5008 24.017 44.209 24.2077 44.104 24.6929C42.0126 32.6196 41.211 40.9525 39.7179 49.0088C35.8368 48.4227 31.556 47.3692 27.7189 48.3162C27.3337 48.3598 26.9894 48.7931 26.8844 49.2782C26.7678 50.3956 26.7708 51.539 26.7476 52.8035C26.7623 53.3146 27.1358 53.9033 27.7603 53.9114C32.7969 54.3667 37.6613 55.0387 42.5928 55.9791C43.4303 56.1604 44.6005 56.5406 45.33 56.0637C46.0594 55.5868 46.1498 54.5906 46.3073 53.863C46.911 51.0735 47.4622 48.5267 47.8938 45.9539Z" fill="white"/>
<path d="M36.8626 9.54076C33.5797 9.08415 30.1773 8.60164 26.8944 8.14503C24.4754 7.74841 22.1497 7.49898 19.7306 7.10236C19.3716 7.02467 18.8931 6.92109 18.5342 6.84341C18.0556 6.73983 17.4574 6.61035 16.9788 6.50677C16.1413 6.3255 15.6249 6.97549 15.6133 7.60778C15.0969 8.25777 14.9131 9.10674 14.636 9.80853C14.2801 10.8742 13.9242 11.9398 13.5683 13.0054C12.9499 15.2838 12.4512 17.5881 12.0721 19.9183C11.2614 24.8213 10.5966 29.6289 9.5466 34.4801C9.46785 34.844 9.50874 35.2337 9.72178 35.4068C9.59053 36.0132 9.9116 36.8444 10.6557 36.8785C12.2373 37.0939 13.6992 37.2833 15.2808 37.4987C15.879 37.6282 16.5823 37.2725 16.7398 36.5448C16.8448 36.0597 16.5908 35.4969 16.1385 35.2721C17.4687 30.8624 18.3203 26.3491 19.1456 21.9572C19.2915 21.8618 19.344 21.6192 19.3965 21.3767C19.9331 18.3188 20.35 15.235 20.6211 12.2466C20.7261 11.7615 20.8049 11.3976 21.0295 10.9384C22.4914 11.1279 23.9271 11.4386 25.3629 11.7493C28.8587 12.379 32.2349 12.9828 35.7308 13.6125C36.329 13.742 36.7667 13.4558 37.111 13.0225C37.3356 12.5632 37.4144 12.1994 37.4931 11.8356C38.0358 11.0643 38.059 9.79971 36.8626 9.54076Z" fill="white"/>
<path d="M25.6916 30.4838C25.677 29.9728 25.4231 29.41 25.1166 29.0897C25.0232 28.9426 24.9036 28.9167 24.784 28.8908C24.6643 28.8649 24.425 28.8131 24.3316 28.6659C23.9727 28.5882 23.7334 28.5365 23.4679 28.6059L23.322 28.7013C23.2024 28.6754 23.0565 28.7708 22.9106 28.8662C22.6188 29.057 22.3008 29.369 22.0761 29.8282C21.8777 30.1662 21.7727 30.6513 21.8136 31.041C21.7874 31.1623 21.8545 31.4308 21.9479 31.5779C22.0413 31.7251 22.0151 31.8464 22.1084 31.9936C22.2952 32.2879 22.4149 32.3138 22.6279 32.4869C23.0802 32.7118 23.6784 32.8412 24.1161 32.5551C24.5275 32.3902 24.8193 32.1994 25.1374 31.8874C25.4554 31.5753 25.7063 30.9948 25.6916 30.4838Z" fill="white"/>
<path d="M26.3391 24.0218C26.3244 23.5108 26.0705 22.9479 25.7641 22.6277C25.6707 22.4805 25.5511 22.4546 25.4314 22.4287C25.3118 22.4028 25.0725 22.3511 24.9791 22.2039C24.6202 22.1262 24.3809 22.0744 24.1154 22.1439L23.9695 22.2393C23.8498 22.2134 23.7039 22.3088 23.558 22.4041C23.2663 22.5949 22.9482 22.907 22.7236 23.3662C22.5252 23.7041 22.4202 24.1893 22.4611 24.579C22.4348 24.7003 22.502 24.9687 22.5954 25.1159C22.6888 25.2631 22.6625 25.3844 22.7559 25.5315C22.9427 25.8259 23.0623 25.8518 23.2754 26.0249C23.7277 26.2497 24.3259 26.3792 24.7636 26.093C25.175 25.9281 25.4668 25.7374 25.7848 25.4253C26.2487 25.0179 26.4734 24.5587 26.3391 24.0218Z" fill="white"/>
<path d="M26.9861 17.5601C26.9714 17.0491 26.7175 16.4863 26.4111 16.166C26.3177 16.0189 26.198 15.993 26.0784 15.9671C25.9587 15.9412 25.7195 15.8894 25.6261 15.7422C25.2671 15.6645 25.0279 15.6127 24.7623 15.6822L24.6164 15.7776C24.4968 15.7517 24.3509 15.8471 24.205 15.9425C23.9132 16.1332 23.5952 16.4453 23.3706 16.9045C23.1722 17.2425 23.0672 17.7276 23.1081 18.1173C23.0818 18.2386 23.149 18.5071 23.2423 18.6542C23.3357 18.8014 23.3095 18.9227 23.4029 19.0699C23.5897 19.3642 23.7093 19.3901 23.9223 19.5632C24.3747 19.788 24.9729 19.9175 25.4105 19.6314C25.822 19.4665 26.1138 19.2757 26.4318 18.9637C26.8957 18.5562 27.1203 18.097 26.9861 17.5601Z" fill="white"/>
<path d="M44.5652 15.7706L20.278 11.6584L15.3661 44.9278L17.5525 45.401L38.56 48.8034L44.5652 15.7706Z" fill="white"/>
<path d="M40.3015 48.6274C42.1329 37.8512 44.2036 27.1268 46.1546 16.3765C46.3121 15.6488 45.8189 15.0342 45.2207 14.9048C45.0339 14.6104 44.8209 14.4373 44.4619 14.3597C36.4606 13.1357 28.3921 11.6433 20.3498 10.0296C19.1534 9.77065 18.5991 11.1742 19.0661 11.9101C17.9788 22.7204 16.3867 33.5484 14.1964 44.2469C14.1176 44.6107 14.2781 45.0264 14.4649 45.3207C14.5321 45.5892 14.7189 45.8835 15.0515 46.0825C22.5395 49.0997 30.7362 48.8424 38.5654 50.2831C38.8047 50.3348 39.044 50.3866 39.3095 50.3171C39.4292 50.343 39.5751 50.2476 39.5751 50.2476C40.2783 49.892 40.5554 49.1902 40.3015 48.6274ZM16.8926 43.9417C19.0042 33.6071 20.4913 23.2642 21.5261 12.6964C28.8505 14.1548 36.3208 15.5177 43.6977 16.7335C41.732 26.9727 39.8859 37.2379 38.0399 47.5031C31.0219 46.365 23.5956 46.5352 16.8926 43.9417Z" fill="#1E1E1E"/>
<path d="M53.3661 25.3008C53.3924 25.1795 53.4186 25.0583 53.3252 24.9111L53.3515 24.7898C53.3106 24.4001 53.1501 23.9844 52.6977 23.7596C51.2211 23.0591 49.6921 22.6012 48.1367 22.2646C47.5385 22.1351 46.8353 22.4907 46.6778 23.2184C46.5466 23.8248 46.8939 24.5348 47.6117 24.6901C48.3296 24.8455 49.0474 25.0009 49.7653 25.1563C50.0046 25.208 50.1242 25.2339 50.3635 25.2857C50.4831 25.3116 50.4831 25.3116 50.6028 25.3375C50.7224 25.3634 50.842 25.3893 50.9354 25.5365C50.8042 26.1429 50.7926 26.7752 50.6613 27.3816C49.2928 27.3393 48.8465 29.4011 50.256 29.8331C50.046 30.8033 49.9556 31.7994 49.7456 32.7697C48.1903 32.433 47.7849 34.8845 49.2207 35.1953C49.0107 36.1655 48.9203 37.1617 48.7103 38.1319L48.5907 38.106C47.0353 37.7694 46.5103 40.195 48.0657 40.5316L48.1853 40.5575C47.9491 41.649 47.6866 42.8618 47.4503 43.9533C47.3307 43.9274 47.3307 43.9274 47.3307 43.9274C45.7753 43.5908 45.2503 46.0164 46.8057 46.353C46.8057 46.353 46.8057 46.353 46.9253 46.3789C46.6891 47.4704 46.3594 48.4148 46.1232 49.5063C44.7809 49.3427 44.3609 51.2832 45.5048 51.7847C45.3473 52.5124 45.0964 53.0929 44.9389 53.8206C44.9127 53.9419 44.9127 53.9419 44.9127 53.9419C44.8077 54.427 44.6764 55.0334 44.5305 55.1288C44.6239 55.2759 44.6239 55.2759 44.3847 55.2241C44.1454 55.1724 43.8798 55.2419 43.6406 55.1901C42.6572 55.1042 41.6738 55.0183 40.5708 54.9065C38.604 54.7348 36.5176 54.5371 34.4574 54.2182C32.3973 53.8992 30.4567 53.6062 28.3966 53.2872C27.4394 53.0801 26.3627 52.847 25.3793 52.7612C24.8745 52.7789 24.9679 52.926 24.9532 52.415C24.9648 51.7827 25.0698 51.2976 25.0552 50.7866C25.2768 49.1841 22.8839 48.6662 22.6623 50.2687C22.5457 51.3861 22.2045 52.9627 22.619 53.9412C23.1268 55.0668 24.3495 55.2045 25.3329 55.2903C28.1109 55.7646 30.8889 56.2389 33.6931 56.592C36.3778 56.9191 39.182 57.2721 41.8929 57.478C42.9959 57.5898 44.6447 58.0736 45.5463 57.38C46.5675 56.7123 46.6695 55.0839 47.0253 54.0182C47.0253 54.0182 47.0253 54.0182 47.0516 53.897C50.1758 44.6702 52.2496 35.0891 53.3661 25.3008Z" fill="#1E1E1E"/>
<path d="M38.2367 6.6641C37.7288 5.53849 36.5062 5.40082 35.5228 5.31494C32.7448 4.84063 29.9668 4.36633 27.1625 4.01331C24.4779 3.68618 21.6736 3.33315 18.9628 3.12729C17.8597 3.01552 16.211 2.5317 15.3094 3.22529C15.0176 3.41606 14.8455 3.63273 14.6733 3.8494C14.5012 4.06606 14.4224 4.42989 14.2241 4.76783C13.7778 6.82959 13.3316 8.89134 13.0312 10.8577C12.9262 11.3428 12.8212 11.828 12.7162 12.3131C11.1675 19.4686 9.59253 26.7454 7.95041 33.7537C7.84541 34.2388 7.8338 34.8711 7.7288 35.3563C7.70256 35.4775 7.67631 35.5988 7.7697 35.746L7.74345 35.8673C7.78434 36.257 7.94488 36.6726 8.3972 36.8975C9.87379 37.5979 11.4029 38.0559 12.9582 38.3925C13.5564 38.522 14.2596 38.1663 14.4171 37.4387C14.5484 36.8323 14.2011 36.1223 13.4832 35.9669C12.7654 35.8115 12.0475 35.6562 11.3297 35.5008C11.0904 35.449 10.9707 35.4231 10.7315 35.3713C10.9268 33.8901 11.2156 32.556 11.3847 31.196C12.8466 31.3855 13.1995 29.1765 11.79 28.7445L11.8163 28.6233C11.9475 28.0169 12.0525 27.5317 12.1838 26.9253C12.2888 26.4402 12.3938 25.9551 12.525 25.3487C13.7739 25.3651 14.1939 23.4246 13.0237 23.0444C13.3125 21.7103 13.6012 20.3762 13.8112 19.406C15.0601 19.4224 15.3342 17.5773 14.31 17.1017C14.5462 16.0102 14.7825 14.9186 15.0187 13.8271C16.2676 13.8435 16.6614 12.0243 15.5174 11.5228C15.6749 10.7951 15.8324 10.0674 16.0162 9.21849C17.1455 9.20899 17.5392 7.38978 16.5149 6.91416C16.6199 6.42904 16.7249 5.94394 16.8037 5.5801C16.471 5.38113 16.471 5.38112 16.7103 5.43291C16.9496 5.4847 17.2151 5.41521 17.4544 5.467C18.4378 5.55288 19.4212 5.63877 20.5242 5.75055C22.4909 5.92231 24.5774 6.11997 26.6375 6.4389C28.6977 6.75784 30.6382 7.05088 32.6984 7.36981C33.6555 7.57697 34.7323 7.81002 35.7157 7.8959C36.2205 7.8782 36.1271 7.73102 36.1417 8.24204C36.1301 8.87433 36.0251 9.35945 36.0398 9.87047C35.8182 11.473 38.211 11.9909 38.4326 10.3884C38.4033 9.36634 38.7446 7.78971 38.2367 6.6641Z" fill="#1E1E1E"/>
<path d="M26.8523 17.023L26.8785 16.9018C26.8114 16.6333 26.7442 16.3648 26.5574 16.0705C26.4641 15.9233 26.3444 15.8974 26.3707 15.7761C26.2773 15.629 26.1576 15.6031 26.038 15.5772C25.9183 15.5513 25.6791 15.4995 25.5857 15.3523L25.466 15.3264C25.3464 15.3005 25.2267 15.2746 24.9612 15.3441C24.8416 15.3182 24.6957 15.4136 24.576 15.3877C24.4301 15.4831 24.1646 15.5526 24.0187 15.648C23.8728 15.7434 23.8466 15.8646 23.7269 15.8387C23.7007 15.96 23.5548 16.0554 23.5285 16.1767C23.3827 16.2721 23.3564 16.3934 23.3302 16.5146C23.3039 16.6359 23.1318 16.8526 23.1055 16.9739C23.0268 17.3377 23.0414 17.8487 23.3478 18.169C23.5346 18.4633 23.7477 18.6364 23.9607 18.8095C24.2 18.8612 24.4393 18.913 24.5589 18.9389C24.7982 18.9907 25.0375 19.0425 25.1834 18.9471C25.303 18.973 25.4489 18.8776 25.7144 18.8081C25.8603 18.7128 25.98 18.7387 26.0062 18.6174C26.298 18.4266 26.4701 18.2099 26.6423 17.9933L26.6685 17.872C26.6948 17.7507 26.721 17.6294 26.7735 17.3869C26.7998 17.2656 26.826 17.1443 26.8523 17.023Z" fill="#1E1E1E"/>
<path d="M25.7789 23.1388C25.8052 23.0176 25.7118 22.8704 25.6184 22.7232C25.525 22.5761 25.4316 22.4289 25.4579 22.3076L25.3645 22.1604C25.2711 22.0132 25.1777 21.8661 25.058 21.8402C24.9646 21.693 24.845 21.6671 24.6057 21.6153C24.4861 21.5894 24.273 21.4163 24.1271 21.5117L24.0075 21.4858C24.0075 21.4858 23.8879 21.46 23.9141 21.3387C23.5814 21.1397 23.3159 21.2092 22.9307 21.2528C22.6652 21.3223 22.3734 21.513 22.175 21.851C21.9766 22.1889 21.8716 22.6741 21.7929 23.0379C21.7666 23.1592 21.7404 23.2805 21.7141 23.4017C21.6879 23.523 21.6354 23.7656 21.7288 23.9127C21.7025 24.034 21.7959 24.1812 21.7434 24.4238C21.7172 24.545 21.8368 24.5709 21.8106 24.6922C21.904 24.8394 21.9973 24.9866 22.2104 25.1596C22.33 25.1855 22.3038 25.3068 22.4234 25.3327C22.5431 25.3586 22.6365 25.5058 22.6365 25.5058C22.9954 25.5835 23.2084 25.7565 23.5936 25.7129C23.8329 25.7647 23.9788 25.6693 24.2443 25.5999C24.5361 25.4091 24.8016 25.3396 24.9738 25.1229C25 25.0017 25.1459 24.9063 25.1459 24.9063C25.1721 24.785 25.318 24.6896 25.3443 24.5683C25.3968 24.3258 25.5689 24.1091 25.5018 23.8406C25.7936 23.6499 25.8461 23.4073 25.7789 23.1388Z" fill="#1E1E1E"/>
<path d="M25.0938 30.3542L25.12 30.233L25.1463 30.1117C25.1463 30.1117 25.1463 30.1117 25.1725 29.9904C25.1988 29.8691 25.2513 29.6266 25.1579 29.4794C25.1841 29.3581 25.117 29.0897 25.1432 28.9684C25.0499 28.8212 25.0761 28.6999 24.9827 28.5528C24.7959 28.2584 24.4633 28.0594 24.1043 27.9818C23.9847 27.9559 23.865 27.93 23.6258 27.8782C23.5061 27.8523 23.4127 27.7051 23.2931 27.6792C22.9342 27.6015 22.6686 27.671 22.3768 27.8618C22.0851 28.0525 21.9392 28.1479 21.767 28.3646C21.5949 28.5813 21.4227 28.7979 21.3702 29.0405C21.344 29.1618 21.1719 29.3784 21.2653 29.5256C21.239 29.6469 21.2128 29.7682 21.1865 29.8894L21.1603 30.0107C21.2011 30.4005 21.2683 30.6689 21.4551 30.9633C21.5485 31.1104 21.6419 31.2576 21.7352 31.4048C21.8286 31.552 22.0679 31.6038 22.1613 31.7509C22.281 31.7768 22.281 31.7768 22.4006 31.8027C22.5202 31.8286 22.5202 31.8286 22.6399 31.8545C22.7595 31.8804 22.8792 31.9063 22.9988 31.9322L23.1185 31.9581C23.2381 31.984 23.5036 31.9145 23.6495 31.8191C23.9151 31.7496 24.0609 31.6542 24.2331 31.4376C24.5249 31.2468 24.697 31.0301 24.7758 30.6663C24.7758 30.6663 24.7758 30.6663 24.802 30.545C24.8954 30.6922 24.9217 30.5709 25.0938 30.3542Z" fill="#1E1E1E"/>
<path d="M39.318 18.4516C36.0614 17.8737 32.831 17.1745 29.4811 16.4494C27.9257 16.1128 27.4007 18.5384 28.9561 18.875C32.1864 19.5742 35.4167 20.2734 38.793 20.8772C39.3912 21.0066 40.0944 20.651 40.2519 19.9233C40.3831 19.3169 40.0358 18.6069 39.318 18.4516Z" fill="#1E1E1E"/>
<path d="M38.1105 24.0304C36.5551 23.6938 34.9735 23.4784 33.5116 23.2889C32.0234 23.2208 30.5352 23.1526 29.1782 22.478C28.6063 22.2273 27.8097 22.4357 27.5588 23.0162C27.3079 23.5967 27.5093 24.4021 28.0813 24.6528C29.5579 25.3533 31.2591 25.5946 32.8669 25.6886C34.4748 25.7827 36.176 26.024 37.7051 26.4819C39.1146 26.9139 39.6396 24.4883 38.1105 24.0304Z" fill="#1E1E1E"/>
<path d="M37.3468 31.6097C37.1191 30.9256 36.4275 30.649 35.7768 30.7621C34.5951 31.0141 33.3986 30.7552 32.2285 30.3749C30.6731 30.0383 29.2637 29.6063 27.8017 29.4168C27.1773 29.4086 26.6346 30.1799 26.6492 30.6909C26.731 31.4704 27.2767 31.8424 27.9012 31.8506C29.3894 31.9188 30.7726 32.4721 32.2083 32.7828C33.644 33.0936 35.106 33.283 36.6729 32.9874C37.2711 33.1169 37.6008 32.1725 37.3468 31.6097Z" fill="#1E1E1E"/>
<path d="M36.8077 43.9355C36.7143 43.7883 36.7143 43.7883 36.8077 43.9355C36.7143 43.7883 36.7143 43.7883 36.7143 43.7883C36.7143 43.7883 36.5538 43.3727 36.6471 43.5199C36.6209 43.6412 36.58 43.2514 36.58 43.2514C36.6063 43.1301 36.5129 42.983 36.5391 42.8617C36.3639 41.935 35.4855 41.364 34.6627 41.6938C34.3972 41.7633 34.1054 41.954 33.8136 42.1448C33.8398 42.0235 33.7202 41.9976 33.7465 41.8764C33.545 41.071 32.4682 40.838 31.8847 41.2195C31.5929 41.4103 31.2749 41.7223 30.9568 42.0343C30.4636 41.4197 29.6261 41.2385 28.8967 41.7154C28.6049 41.9062 28.4327 42.1228 28.2344 42.4608C28.2081 42.5821 28.0885 42.5562 28.0622 42.6775C27.9163 42.7728 27.7704 42.8682 27.6245 42.9636C27.0672 43.2239 26.8572 44.1941 27.257 44.6615C27.6306 45.2502 28.3485 45.4056 28.932 45.0241C29.0779 44.9287 29.2238 44.8333 29.3697 44.7379C29.4631 44.8851 29.6761 45.0582 29.8892 45.2312C30.6742 45.6551 31.6167 45.3512 32.1331 44.7012C32.1331 44.7012 32.1331 44.7012 32.1593 44.5799C32.4658 44.9002 32.7984 45.0991 33.1574 45.1768C33.6359 45.2804 34.0473 45.1155 34.485 44.8294C34.5522 45.0978 34.6456 45.245 34.8323 45.5393C35.0863 46.1021 36.0434 46.3093 36.5073 45.9019C37.0238 45.2519 37.0616 44.4983 36.8077 43.9355Z" fill="#1E1E1E"/>
<path d="M51.0698 56.1636C51.0814 55.5313 50.4686 54.8908 49.8179 55.0039C49.1672 55.117 48.677 55.6457 48.6654 56.278C48.6654 56.278 48.6391 56.3993 48.7325 56.5465L48.7063 56.6677C48.6538 56.9103 48.6275 57.0316 48.575 57.2741C48.4963 57.638 48.2979 57.9759 48.2191 58.3398C48.1929 58.461 48.1667 58.5823 48.1667 58.5823C48.1404 58.7036 48.1142 58.8249 47.9945 58.799L47.9683 58.9203C47.942 59.0416 47.7699 59.2582 47.6502 59.2323C47.7961 59.1369 47.7961 59.1369 47.6502 59.2323L47.5043 59.3277C47.3847 59.3018 47.3584 59.4231 47.2388 59.3972C47.0929 59.4926 46.9733 59.4667 46.8274 59.5621L46.947 59.588L46.8274 59.5621C46.7077 59.5362 46.7077 59.5362 46.5618 59.6316C46.4422 59.6057 46.2963 59.701 46.057 59.6493C45.6719 59.6928 45.3129 59.6152 44.9278 59.6588C44.8081 59.6329 44.6885 59.607 44.5688 59.5811C44.3295 59.5293 44.0903 59.4775 43.9706 59.4516C43.3724 59.3221 42.6692 59.6778 42.5117 60.4054C42.3805 61.0118 42.7278 61.7218 43.4456 61.8772C45.2665 62.1443 47.3529 62.342 48.9315 61.4141C49.9265 60.8676 50.3757 59.9492 50.7316 58.8836C50.7695 58.13 51.1254 57.0644 51.0698 56.1636Z" fill="#1E1E1E"/>
<path d="M10.4633 9.41337C9.83885 9.40518 9.13564 9.76083 9.09779 10.5144C8.87618 12.1169 8.56119 13.5723 8.1003 15.123C7.96905 15.7294 8.55566 16.4912 9.18012 16.4994C9.92422 16.5335 10.3881 16.126 10.5456 15.3984C11.0065 13.8476 11.2019 12.3664 11.5431 10.7897C11.6744 10.1834 11.2074 9.44747 10.4633 9.41337Z" fill="#1E1E1E"/>
</svg>
