<svg width="140" height="16" viewBox="0 0 140 16" fill="none" xmlns="http://www.w3.org/2000/svg">
<path d="M6.95067 11.9915C4.91032 10.1723 2.73273 8.50194 0.692382 6.68272C-1.34796 4.86349 1.53409 1.73685 3.99937 3.54315C6.03972 5.36237 8.2173 7.03271 10.2576 8.85193L10.6958 9.27275L11.9442 8.36649C13.0509 7.46455 14.016 6.56692 14.9811 5.66928C16.4996 4.32067 17.8587 2.39806 20.1515 3.19661C21.1563 3.60019 22.037 4.5864 22.7673 5.28776C23.7853 6.12508 24.666 7.11129 25.6884 8.09319C26.1265 8.514 26.7152 9.21967 27.1489 9.49591C27.8704 9.90811 27.3126 10.2145 28.1449 9.61033C29.1188 9.00185 29.9334 7.81937 30.7568 6.92604C32.4081 5.28396 33.7805 3.79509 36.2194 4.73391C40.2384 6.34824 43.9917 8.5495 47.6122 11.0442C48.1568 10.3041 48.8385 9.41509 49.3831 8.67496C50.1977 7.49247 51.0035 6.02082 52.1059 4.9743C54.3105 2.88126 56.7846 4.97671 58.8118 6.3622C60.113 7.1909 61.2726 8.02392 62.5739 8.85262C63.4414 9.40509 65.4862 11.3689 66.6149 11.1899C67.1771 11.028 67.9961 9.99013 68.4123 9.68805C68.9612 9.0925 69.6562 8.63722 70.2052 8.04167C71.4492 6.99084 72.5515 5.94431 73.7955 4.89348C74.6189 4.00015 75.7565 4.11027 76.4824 4.66705C76.4868 4.81163 76.6284 4.80732 76.6284 4.80732C78.6555 6.1928 80.8243 7.57398 82.8514 8.95947C83.1391 9.09543 84.1571 9.93275 84.4404 9.92413C84.4404 9.92413 84.7105 9.48178 84.8521 9.47747C85.8348 9.15815 87.07 7.81816 87.9023 7.214C89.4251 6.00997 91.0764 4.3679 93.0506 4.01842C94.8832 3.67326 96.7511 4.48473 98.3401 5.4494C100.934 6.81765 103.997 9.61878 107.073 8.22278C109.729 6.98429 112.297 2.8542 115.577 3.47802C117.427 3.71117 119.038 5.39874 120.485 6.36772C121.928 7.19211 123.677 8.73079 125.5 8.09647C127.603 7.30895 129.688 5.94311 131.786 5.01101C134.024 3.0012 138.7 -0.514736 139.5 1.5C140.5 4.01842 139.5 5.01101 137 6.36772C135.789 7.02496 133.86 8.92897 131.79 9.78645L128.855 11.1781C127.04 12.1016 125.367 13.0208 123.375 12.792C121.379 12.4185 119.644 11.3136 117.909 10.2086C117.041 9.65617 116.315 9.09939 115.448 8.54692C114.434 7.85418 114.572 7.70529 113.602 8.45835C110.689 10.5729 108.077 13.2572 104.24 12.9398C100.543 12.6181 97.9101 9.94861 94.6081 8.60189C93.6034 8.19831 93.0368 8.21554 92.2045 8.81971C91.514 9.41955 90.6817 10.0237 89.8495 10.6278L89.8494 10.6279C88.3266 11.8319 86.6797 13.6186 84.8515 14.1083C82.8817 14.6024 81.2795 13.204 79.6905 12.2393C77.9555 11.1344 76.3665 10.1697 74.7732 9.06045C72.8386 10.7111 71.0456 12.3575 69.1111 14.0082C66.4815 16.1142 64.047 15.3199 61.5861 13.6582C60.1432 12.8338 58.8376 11.8605 57.5363 11.0318C56.3767 10.1988 55.2083 9.07664 53.9158 8.5371L53.7785 8.68599C53.6457 8.97945 53.5085 9.12834 53.3712 9.27723L51.7376 11.4976C50.7857 12.829 49.8295 14.0158 48.8776 15.3472C48.3286 15.9427 47.0626 16.2707 46.3368 15.7139C44.1636 14.1881 41.9904 12.6624 39.6844 11.4301L36.6569 9.78558C36.0815 9.51366 35.3689 9.39062 34.9307 8.9698C34.5159 8.98242 34.3242 8.83315 34.4144 8.63374L34.2181 8.84676C32.4251 10.4931 31.0792 12.8495 28.8392 13.7859C26.6037 14.8669 24.8643 13.6174 23.2577 12.0744C22.2398 11.2371 21.359 10.2509 20.3366 9.26896C19.8985 8.84814 19.177 8.43594 18.8761 7.86624C18.7345 7.87055 18.7301 7.72597 18.5884 7.73028C17.0876 9.6572 14.7325 11.4654 12.7891 12.8269C10.4296 14.4905 8.9866 13.6661 6.95067 11.9915Z" fill="#F7C300"/>
</svg>
