<svg width="496" height="288" viewBox="0 0 496 288" fill="none" xmlns="http://www.w3.org/2000/svg">
<path d="M229.918 15.7525C229.8 16.018 229.566 16.1379 229.331 16.1636C229.264 16.2406 229.214 16.3263 229.139 16.4119C228.477 17.1055 227.581 17.5423 226.676 17.8591C225.964 18.0989 225.227 18.2274 224.49 18.2702C224.481 18.2702 224.473 18.2702 224.465 18.2702C224.071 18.2445 223.669 18.2017 223.242 18.1588C222.479 18.0732 221.767 17.9105 221.072 17.6707C220.151 17.3453 219.288 16.8743 218.5 16.2663C218.216 16.0437 217.948 15.8039 217.696 15.547C216.088 13.3291 215.946 10.1863 217.085 7.643C217.847 5.94745 219.062 4.23477 220.771 3.36131C222.689 2.38508 224.825 3.20717 226.659 4.05494C227.614 4.49167 228.519 5.05686 229.256 5.75906C229.926 6.6839 230.445 7.76289 230.764 8.94464C231.049 9.99793 231.191 11.0427 231.191 12.0275C231.141 12.31 231.065 12.5926 230.982 12.8838C231.174 14.0227 230.387 14.7677 229.918 15.7525Z" fill="#F7C300"/>
<path d="M232.992 9.79317C232.322 5.58854 229.599 2.16318 225.88 0.861548C225.436 0.707407 225.001 0.587519 224.582 0.501885C224.406 0.467632 224.23 0.467632 224.062 0.510449C223.861 0.253547 223.635 0.13366 223.468 0.0737158C223.292 0.0137721 223.107 -0.0119181 222.94 0.00520868C220.93 0.125096 219.003 0.339181 217.445 1.65794C216.163 2.74549 215.016 4.53524 214.052 6.97581C213.935 7.27553 213.835 7.59237 213.742 7.93491C213.726 7.99485 213.717 8.0548 213.726 8.11474C213.684 8.25175 213.642 8.38021 213.608 8.51722L213.675 8.53435C213.667 8.54291 213.65 8.56004 213.642 8.57716L213.608 8.5686C213.6 8.59429 213.592 8.62854 213.592 8.65423C213.592 8.6628 213.583 8.67992 213.583 8.69705C213.575 8.72274 213.558 8.75699 213.55 8.79125C213.449 9.21085 213.382 9.63902 213.357 10.0758C213.357 10.0929 213.357 10.1357 213.357 10.1528C213.357 10.1956 213.357 10.2385 213.366 10.2556L213.374 10.6324C213.382 10.7437 213.416 10.8379 213.474 10.9235C213.474 10.9663 213.483 11.0092 213.483 11.0605C213.5 11.2061 213.516 11.3603 213.541 11.5058C213.835 13.5867 214.857 15.5649 216.457 17.1149C217.286 17.7999 218.224 18.3309 219.12 18.8447L219.263 18.9303C220.594 19.701 222.144 19.975 223.602 20.1634C223.669 20.1977 223.744 20.2234 223.811 20.2319C223.953 20.2405 224.088 20.2491 224.222 20.2576L224.682 20.2833C224.791 20.2833 224.9 20.2919 225.017 20.2919C225.176 20.3004 225.344 20.3004 225.512 20.3004C226.383 20.3004 227.287 20.2062 228.167 19.7952C229.985 18.9474 231.677 17.3461 232.481 15.7276C233.21 14.2461 233.385 12.2594 232.992 9.79317ZM228.82 6.07665C229.474 6.96725 229.951 7.97773 230.244 9.0824C230.512 10.0929 230.655 11.0777 230.655 12.0196C230.655 12.6105 230.604 13.1671 230.496 13.6809C230.177 15.1881 228.812 16.3013 227.815 17.0035C226.969 17.603 226.022 17.8171 224.54 17.7229C224.523 17.7229 224.506 17.7143 224.49 17.7143C224.121 17.6886 223.744 17.6544 223.342 17.6115L223.292 17.603C222.555 17.5173 221.884 17.3718 221.239 17.1406C220.377 16.8408 219.556 16.3955 218.819 15.8218C218.559 15.6163 218.299 15.3936 218.065 15.1453C216.314 13.3812 215.577 10.9578 216.147 8.81694C216.406 7.8664 216.85 6.98437 217.437 5.9482C217.822 5.26313 218.257 4.48386 218.827 3.89299C219.958 2.74549 221.642 2.63417 223.275 2.53997C223.292 2.53997 223.308 2.53997 223.325 2.53141C223.367 2.52285 223.409 2.52285 223.451 2.51428C223.652 2.78831 223.928 2.95958 224.272 3.02809C226.039 3.37918 227.656 4.45817 228.82 6.07665Z" fill="#1E1E1E"/>
<path d="M224.724 7.89929C224.967 8.04487 225.143 8.19901 225.269 8.36172C225.394 8.53298 225.595 8.63574 225.822 8.66143C226.064 8.69569 226.324 8.61862 226.5 8.46448C226.852 8.16476 226.894 7.65095 226.584 7.24847C226.299 6.86312 225.905 6.55484 225.352 6.27225C225.403 6.13523 225.453 5.99822 225.512 5.86977C225.595 5.65568 225.671 5.4416 225.763 5.22751C225.872 4.95349 225.838 4.67946 225.671 4.45681C225.478 4.19991 225.118 4.05433 224.783 4.10571C224.481 4.14853 224.238 4.34549 224.121 4.63664C224.037 4.85073 223.954 5.06481 223.87 5.27889C223.82 5.41591 223.761 5.55292 223.711 5.6985C223.309 5.61287 222.94 5.59574 222.597 5.62999C221.868 5.6985 221.248 6.0496 220.854 6.61478C220.435 7.20566 220.301 7.98493 220.477 8.75563C220.653 9.5349 221.013 10.2114 221.491 10.6738C221.575 10.7509 221.667 10.8194 221.759 10.8965C221.616 11.2904 221.474 11.6929 221.332 12.0954L221.248 12.3351C221.223 12.3094 221.198 12.2752 221.173 12.2495L221.097 12.1724C221.106 11.71 220.737 11.3932 220.352 11.3161C219.924 11.2305 219.556 11.4445 219.422 11.8641C219.129 12.789 219.941 13.5083 220.486 13.9879C220.528 14.0221 220.569 14.0649 220.62 14.0992C220.595 14.1763 220.561 14.2533 220.536 14.3304C220.494 14.4503 220.444 14.5702 220.402 14.6986C220.301 14.9898 220.352 15.2724 220.536 15.495C220.712 15.7091 220.997 15.829 221.273 15.829C221.332 15.829 221.382 15.8204 221.441 15.8119C221.725 15.7519 221.943 15.5635 222.044 15.2724C222.069 15.2039 222.094 15.1354 222.119 15.0668L222.144 14.9983C222.22 15.024 222.287 15.0497 222.362 15.0754C223.702 15.4522 225.47 15.161 226.173 13.6196C226.416 13.0887 226.441 12.5492 226.249 12.0354C225.989 11.3246 225.294 10.6653 224.398 10.2628C224.247 10.1943 224.079 10.1343 223.903 10.0744C224.088 9.57772 224.28 9.08104 224.473 8.58436C224.548 8.34459 224.632 8.12194 224.724 7.89929ZM223.066 7.34267C222.99 7.53963 222.915 7.72802 222.839 7.91642C222.689 8.30177 222.538 8.68712 222.396 9.07248C222.169 8.68712 222.052 8.2247 222.111 7.8736C222.194 7.41974 222.655 7.34267 222.974 7.34267C223.015 7.34267 223.041 7.34267 223.066 7.34267ZM223.309 11.6757L223.417 11.7186C223.828 11.8727 224.347 12.0697 224.565 12.4465C224.749 12.7633 224.481 13.1144 224.255 13.2685C223.744 13.6282 223.066 13.4826 222.714 13.3627C222.906 12.7976 223.108 12.2324 223.309 11.6757Z" fill="#1E1E1E"/>
<path d="M390.345 81.0915C387.472 80.3208 383.92 80.5863 380.972 80.5349C377.11 80.4664 373.257 80.5777 369.396 80.8089C369.111 80.8261 368.843 80.8689 368.591 80.9288C367.335 80.749 366.095 80.7319 364.914 80.9888V99.2887C371.129 99.5199 377.336 99.7511 383.552 99.9481C386.056 100.025 389.34 100.642 391.342 98.5951C392.959 96.9424 392.959 93.9709 393.31 91.8386C393.972 87.8309 395.622 82.5045 390.345 81.0915Z" fill="#59C69F"/>
<path d="M464.653 62.5361C458.228 60.9348 450.748 61.3458 444.172 61.2174C429.547 60.9348 414.913 60.755 400.288 60.5238C396.828 60.4724 395.589 63.9748 396.569 66.5181C396.401 66.9977 396.317 67.5286 396.368 68.1366C396.384 68.3678 396.41 68.599 396.435 68.8302H409.008V81.2728C410.39 81.2643 411.772 81.1786 413.07 81.1701C416.413 81.1444 419.755 81.1273 423.097 81.1016C437.027 81.0074 450.949 80.9132 464.879 80.819C467.191 80.8019 469 78.8665 469.068 76.5373C469.21 71.5277 470.894 64.0861 464.653 62.5361Z" fill="#F7C300"/>
<path d="M334.44 63.2372C333.82 60.4884 333.2 57.7481 332.572 54.9993C332.119 53.0125 330.335 52.062 328.534 51.8565C310.776 49.827 292.188 46.0077 274.321 48.1828C272.269 48.4311 271.004 49.8783 270.543 51.514C270.368 52.0021 270.292 52.5673 270.342 53.2095C270.351 53.3208 270.359 53.4322 270.368 53.5349C270.812 57.5768 270.217 64.6331 274.472 66.6712C276.541 67.6645 279.163 67.3562 281.383 67.4162C284.708 67.5018 288.025 67.5789 291.351 67.6645C304.368 67.9899 317.385 68.3153 330.402 68.6407C333.217 68.7264 335.034 65.8748 334.44 63.2372Z" fill="#F7C300"/>
<path d="M482.78 168.892C481.841 165.441 479.144 162.923 475.844 162.332C475.031 160.817 473.423 159.857 471.321 160.594C463.036 163.48 459.191 176.719 468.749 180.649C472.435 182.165 477.435 183.27 480.652 180.161C483.408 177.515 483.743 172.403 482.78 168.892Z" fill="#59C69F"/>
<path d="M379.263 179.169C375.25 179.357 374.103 183.827 375.87 186.233C375.661 187.74 375.535 189.239 375.761 190.763C375.987 192.236 377.478 193.332 378.802 193.752C381.34 194.565 384.406 194.274 387.061 194.36C390.068 194.454 393.075 194.506 396.083 194.514C401.15 194.531 405.347 193.367 405.682 187.595C406.394 175.777 386.676 178.817 379.263 179.169Z" fill="#F7C300"/>
<path d="M343.637 145.746C340.982 145.386 338.41 145.831 336.082 146.825C335.336 146.722 334.532 146.807 333.703 147.167C327.102 150.053 320.493 159.242 326.139 165.399C332.371 172.198 342.582 167.591 347.683 162.093C352.508 156.869 352.784 146.979 343.637 145.746Z" fill="#59C69F"/>
<path d="M253.54 94.1348C252.049 91.3174 249.075 89.6647 246.168 88.7913C245.331 88.5429 244.426 88.3545 243.513 88.2689C243.438 88.2346 243.362 88.1918 243.278 88.1576C241.72 87.5753 239.945 87.875 238.512 88.6799C236.996 89.5363 235.974 90.9664 235.321 92.5763C234.19 95.3851 234.022 99.0502 235.245 101.842C236.686 105.122 240.363 106.158 243.605 106.261C246.738 106.363 250.658 105.481 252.853 103.015C255.022 100.566 255.022 96.9436 253.54 94.1348Z" fill="#F7C300"/>
<path d="M290.003 261.976C289.802 261.291 289.542 260.691 289.224 260.177C287.657 257.668 284.734 257.232 281.802 257.129L275.134 256.949L275.159 255.528C275.361 243.128 275.369 230.514 275.377 218.311C275.377 213.798 275.386 209.285 275.394 204.772C275.469 178.123 275.52 151.474 275.562 124.833L275.57 122.17C275.595 109.864 275.679 99.5368 276.039 89.0809C276.307 81.1255 275.779 72.7163 269.782 70.721C263.767 68.7172 257.25 69.0854 250.951 69.4365L250.256 69.4793C246.152 69.7105 242.072 69.4965 238.135 69.2995C235.337 69.1539 232.448 69.0083 229.6 69.0255C225.118 69.0426 220.553 68.9398 216.147 68.8456C214.262 68.8028 212.386 68.76 210.501 68.7258L209.236 68.6915C197.735 68.4774 186.477 68.2976 175.412 68.3233C171.433 68.3318 167.454 68.3747 163.475 68.4175L162.629 68.426C158.031 68.4774 153.005 68.5202 147.912 68.5117C147.794 68.4689 147.677 68.426 147.543 68.4175C144.419 68.1777 141.294 68.1777 138.17 68.4089C133.127 68.3061 128.202 68.1263 121.609 67.8437C116.056 67.6125 110.309 67.4841 104.035 67.4498L61.5916 67.1672C44.6291 67.0473 37.3248 67.2529 24.0647 67.6296L13.6946 67.9208C12.9072 67.9379 10.3021 68.1606 9.51469 70.1558C9.23827 70.8495 9.21314 71.663 9.19639 72.3909C9.07074 76.2273 9.09587 80.1921 9.11262 83.6946V84.3454C9.121 86.1951 9.12937 88.0362 9.12937 89.8773L9.07074 143.159C9.121 181.968 8.98697 220.315 8.84457 252.71C8.84457 252.796 8.84457 252.976 8.83619 253.104L8.74405 254.303L7.57134 254.423C7.26979 254.449 6.9431 254.414 6.54103 254.371C4.72332 254.14 3.27418 254.594 2.1601 255.707C0.694212 257.172 -0.084805 259.724 0.00733681 262.712C0.074349 264.767 0.233503 266.831 0.484799 268.861C0.585317 269.768 0.719342 270.702 1.1633 271.473C1.77478 272.5 3.01451 273.168 4.64793 273.339C5.70337 273.459 6.75044 273.545 7.80588 273.622C9.06236 273.725 10.2602 273.819 11.458 273.965C12.4381 274.084 13.4349 274.11 14.4317 274.033L14.5155 274.024L14.8505 274.042C20.7727 274.213 26.7201 274.376 32.6674 274.53C44.2438 274.821 55.9206 275.086 68.3598 275.318C83.1527 275.592 96.4211 275.797 110.125 275.977C146.471 276.448 184.015 276.688 217.135 276.893L220.829 276.91C226.936 276.953 233.855 276.996 240.841 276.996C246.319 276.996 251.194 276.97 255.743 276.91C262.218 276.825 268.039 276.679 273.526 276.465C274.414 276.431 275.377 276.439 276.408 276.456C280.009 276.516 284.943 276.585 287.573 274.247C287.791 274.05 288.001 273.819 288.185 273.588C288.897 272.663 289.266 271.387 289.55 270.274C290.195 267.902 290.807 264.793 290.003 261.976ZM140.197 71.8685C140.256 71.7315 140.297 71.5945 140.373 71.4746C140.507 71.2776 140.649 71.0893 140.8 70.9094C141.051 70.6525 141.353 70.4727 141.696 70.3785C141.872 70.3528 142.056 70.3271 142.232 70.3014C142.308 70.3014 142.383 70.31 142.467 70.3185C142.718 70.2586 142.978 70.2329 143.229 70.1987C143.321 70.1901 143.422 70.1815 143.514 70.1901C143.732 70.1987 143.95 70.2415 144.167 70.2757C144.209 70.2843 144.251 70.2928 144.301 70.3014C144.544 70.3699 144.796 70.4727 145.013 70.6097C145.223 70.7467 145.432 70.9009 145.6 71.0893C145.717 71.2348 145.885 71.4232 145.985 71.6116C146.086 71.8 146.161 72.0141 146.236 72.2196C146.337 72.5878 146.337 72.9561 146.236 73.3157C146.144 73.6668 145.968 73.9665 145.717 74.232C145.508 74.4118 145.323 74.5745 145.08 74.6859C144.812 74.8058 144.544 74.9342 144.259 75.0113C143.849 75.1226 143.422 75.174 142.995 75.2082C142.593 75.2425 142.174 75.1997 141.788 75.0969C140.976 74.8828 140.297 74.2577 140.071 73.4185C140.013 73.213 139.979 72.9818 139.996 72.7677C140.013 72.3053 140.046 72.2282 140.197 71.8685ZM11.3408 200.405C11.3492 199.386 11.3575 198.667 11.3575 198.281L11.3827 180.512C11.4078 161.364 11.4245 141.566 11.5586 122.05C11.6507 107.929 11.768 95.5634 11.902 84.2597C11.9104 83.5747 11.9188 82.8982 11.9188 82.2131L11.9271 80.7402C11.9355 78.0427 11.9523 75.3367 12.0779 72.605L12.1365 71.3033L13.4098 71.2434C32.3491 70.3442 36.3112 70.2243 55.0579 70.3271C73.3941 70.4213 91.7219 70.5412 110.05 70.6868L111.289 70.6953L111.574 71.7315C112.043 73.4356 113.275 74.9685 114.858 75.8419C117.044 77.0408 119.666 76.998 122.196 76.9552L137.818 76.8952C138.865 77.0237 139.912 77.1007 140.984 77.1007C143.062 77.1007 145.139 76.9809 147.216 76.861L166.39 76.7839C169.247 76.7753 171.944 76.7668 174.281 75.3795C175.563 74.6259 176.585 73.5213 177.238 72.1939L177.632 71.389L178.511 71.3975C190.431 71.5602 202.552 71.8257 214.27 72.0826L222.957 72.271C228.452 72.3909 234.064 72.3994 239.492 72.4166C248.112 72.4423 257.016 72.4594 265.744 72.8961L266.021 72.9047C267.612 72.9732 270.276 73.1016 271.532 75.0798C272.688 76.7325 272.722 79.156 272.755 81.1084C272.764 81.5109 272.764 81.8877 272.781 82.2217C272.931 85.4501 273.015 88.7127 273.032 91.9068C273.057 98.2095 272.806 104.718 272.27 111.269C272.253 111.483 272.27 111.671 272.32 111.868L272.387 112.108L272.37 112.356C272.11 116.261 272.203 120.277 272.286 124.165C272.328 126.143 272.378 128.19 272.378 130.211C272.362 137.284 272.353 144.358 272.353 151.431V153.178C272.353 158.419 272.353 163.659 272.345 168.9L272.32 184.332C272.295 204.909 272.261 225.487 272.194 246.056L272.186 248.06C272.177 250.501 272.177 252.95 272.152 255.391L272.136 256.855L264.211 256.615C258.18 256.435 252.158 256.255 246.135 256.11C234.5 255.827 222.505 255.57 210.468 255.348C204.822 255.253 199.168 255.151 193.522 255.065L183.746 254.902C182.75 254.868 181.803 254.834 180.898 254.868C180.329 254.894 179.776 254.842 179.206 254.783C178.62 254.731 177.992 254.68 177.414 254.748C176.585 254.851 175.889 255.219 175.487 255.776C175.362 255.956 175.219 256.247 175.052 256.607C174.934 256.855 174.834 257.077 174.675 257.326C173.954 258.576 172.631 259.518 170.964 259.938C168.819 260.477 166.558 260.383 164.372 260.297C163.417 260.246 162.604 260.229 161.892 260.237L125.546 260.392C123.771 260.409 121.802 260.434 119.926 260.383C118.736 260.349 117.488 260.246 116.366 259.724C115.176 259.167 114.389 258.182 114.205 257.009C114.138 256.666 114.146 256.315 114.154 255.973C114.171 255.502 114.188 254.971 114.02 254.748C113.593 254.183 111.725 254.157 111.114 254.157L110.485 254.132C109.279 254.072 108.065 254.08 106.9 254.089H105.996C105.702 254.089 105.401 254.089 105.099 254.089L96.195 254.02C90.2477 253.986 84.3087 253.943 78.353 253.9L61.5832 253.789C46.9326 253.704 31.5785 253.832 14.6579 254.183L13.7867 254.2L13.3846 253.412C11.3408 249.405 11.1481 222.37 11.3408 200.405ZM287.448 266.531C287.314 267.893 287.037 269.229 286.619 270.505C286.468 270.95 286.258 271.438 285.814 271.755C285.53 271.986 285.136 272.072 284.751 272.115C280.051 272.817 275.578 273.228 271.13 273.374C266.733 273.528 261.992 273.639 256.203 273.725C250.951 273.802 245.682 273.827 240.514 273.827C235.941 273.827 231.434 273.81 227.078 273.785C208.742 273.673 190.414 273.553 172.07 273.416C142.098 273.194 102.461 272.826 61.6669 272.021H61.6418C52.1596 272.021 41.8648 271.849 30.2047 271.498C28.0352 271.438 25.8573 271.387 23.6794 271.336C17.3132 271.19 10.7628 271.044 4.23748 270.479L3.14853 270.385L2.97263 269.28C2.57055 266.797 2.64594 264.245 2.72133 261.779C2.75484 261.034 2.78834 260.297 3.07315 259.647C3.47522 258.747 4.32125 258.062 5.39344 257.763C6.91797 257.326 8.63516 257.36 10.2853 257.394C10.9387 257.403 11.5837 257.411 12.2036 257.394C14.4987 257.326 16.7436 257.266 18.9718 257.215C23.7464 257.103 28.521 257.026 33.1616 256.983C40.2565 256.915 47.6195 256.898 55.0579 256.94C73.3857 257.052 91.7219 257.172 110.05 257.309L111.289 257.317L111.574 258.353C112.052 260.058 113.275 261.59 114.858 262.464C117.044 263.671 119.792 263.62 122.229 263.577C122.615 263.569 123.025 263.569 123.419 263.569L166.399 263.406C169.255 263.397 171.952 263.389 174.281 261.993C175.571 261.231 176.593 260.135 177.238 258.816L177.632 258.011L178.511 258.019C193.606 258.216 206.933 258.439 220.444 258.705L225.587 258.816C234.667 259.021 243.764 259.218 252.853 259.458C258.306 259.595 263.767 259.749 269.229 259.912L277.396 260.16C278.041 260.195 278.652 260.186 279.323 260.177H279.49C281.425 260.169 283.536 260.16 285.53 260.845C285.99 261 286.518 261.231 286.903 261.719C287.339 262.258 287.439 262.918 287.481 263.56C287.557 264.528 287.54 265.53 287.448 266.531Z" fill="#1E1E1E"/>
<path d="M83.4962 99.0325C83.2533 95.4102 80.6482 91.3854 76.8788 91.7708C66.5589 92.8412 56.2642 93.0467 45.9191 92.3702C43.4983 92.2161 41.3958 93.8431 40.2399 96.0525C38.4305 97.1486 37.0735 99.1524 36.9898 102.081C36.8474 107.45 36.6966 112.828 36.5542 118.197C36.4453 122.231 35.4234 127.994 36.6715 131.882C39.5446 140.839 54.5972 138.604 61.2566 138.946C69.1473 139.349 78.5122 141.849 81.2011 131.565C83.9067 121.22 84.1999 109.668 83.4962 99.0325Z" fill="#59C69F"/>
<path d="M56.3313 206.315C56.3732 206.22 56.4151 206.135 56.457 206.041C58.0066 202.752 57.102 199.567 55.0162 196.929C52.3692 193.581 48.1558 194.523 44.7466 195.336C41.7646 196.047 38.7741 196.749 35.7921 197.46C32.9273 198.137 30.7327 201.87 30.9505 204.944C31.1766 208.122 30.9756 211.855 31.8719 214.912C32.5336 217.156 33.9911 218.843 35.901 219.879C37.6182 220.812 39.4526 220.967 41.3038 220.427C41.3457 220.419 41.5719 220.35 41.8232 220.273C43.1551 220.83 44.4785 221.463 45.8858 221.737C50.0741 222.551 54.8654 220.744 56.39 216.111C57.3281 213.251 56.6915 209.808 56.0968 206.691C56.1722 206.563 56.2643 206.452 56.3313 206.315Z" fill="#F7C300"/>
<path d="M90.5994 195.507C87.8686 195.644 85.1295 195.772 82.3987 195.909C81.8124 195.935 81.2763 196.055 80.7569 196.218C76.7781 192.039 68.3346 193.974 68.8204 201.604C69.1973 207.384 68.4518 215.237 73.9636 218.474C78.8806 221.36 83.9652 217.626 88.9492 219.15C93.439 220.529 97.5603 216.222 97.4932 211.52C97.4597 209.568 97.4932 207.59 97.2252 205.723C98.5906 201.201 96.3038 195.224 90.5994 195.507Z" fill="#59C69F"/>
<path d="M134.602 210.758C134.124 205.363 134.317 198.461 128.336 196.706C124.223 195.498 118.896 196.474 114.666 196.56C109.238 196.663 107.319 202.221 108.626 206.571C107.495 207.521 106.624 208.849 106.256 210.596C105.468 214.278 107.721 219.125 111.474 219.69C116.115 220.383 120.747 221.18 125.396 221.771C128.688 222.19 132.147 221.308 133.823 217.883C134.954 215.562 134.82 213.25 134.602 210.758Z" fill="#F7C300"/>
<path d="M225.88 210.476C225.838 210.571 225.796 210.656 225.754 210.75C224.205 214.039 225.109 217.224 227.195 219.862C229.842 223.21 234.056 222.268 237.465 221.455C240.447 220.744 243.437 220.042 246.419 219.331C249.284 218.654 251.479 214.921 251.261 211.846C251.035 208.669 251.236 204.936 250.34 201.879C249.678 199.635 248.22 197.948 246.31 196.912C244.593 195.978 242.759 195.824 240.908 196.364C240.866 196.372 240.64 196.441 240.388 196.518C239.056 195.961 237.733 195.328 236.326 195.054C232.137 194.24 227.346 196.047 225.821 200.68C224.883 203.54 225.52 206.982 226.115 210.1C226.039 210.228 225.947 210.339 225.88 210.476Z" fill="#59C69F"/>
<path d="M191.612 221.284C194.343 221.147 197.082 221.018 199.813 220.881C200.399 220.856 200.935 220.736 201.454 220.573C205.433 224.752 213.877 222.817 213.391 215.187C213.014 209.406 213.76 201.554 208.248 198.317C203.331 195.431 198.246 199.165 193.262 197.64C188.772 196.262 184.651 200.569 184.718 205.27C184.752 207.223 184.718 209.201 184.986 211.068C183.621 215.589 185.916 221.566 191.612 221.284Z" fill="#F7C300"/>
<path d="M147.618 206.032C148.096 211.427 147.903 218.329 153.884 220.084C157.997 221.292 163.324 220.316 167.554 220.23C172.982 220.127 174.901 214.57 173.594 210.219C174.725 209.269 175.596 207.942 175.964 206.195C176.752 202.512 174.499 197.665 170.746 197.1C166.105 196.407 161.473 195.61 156.824 195.019C153.532 194.6 150.073 195.482 148.397 198.907C147.258 201.228 147.392 203.54 147.618 206.032Z" fill="#59C69F"/>
<path d="M30.5481 132.026C45.1987 134.544 60.0921 135.477 74.8348 134.792C75.4379 134.766 76.041 134.227 76.1751 133.593C79.3749 118.504 79.7518 103.21 77.2891 88.1301C77.1384 87.2138 76.7363 86.6743 76.0997 86.5287C72.5732 85.7152 68.8205 85.6038 65.1934 85.5011L28.0603 84.4307C28.0352 84.4307 28.0017 84.4307 27.9681 84.4307C27.6415 84.4307 26.9797 84.5077 26.9211 85.561L26.8792 86.4259L26.1672 86.8884C25.74 87.1624 25.3547 87.6334 25.4217 88.0187C27.9933 102.063 29.3587 116.423 29.4675 130.707C29.4675 131.238 30.0455 131.94 30.5481 132.026ZM28.2697 87.4792L64.6406 88.5325C67.4802 88.6096 70.412 88.6952 73.3103 89.1405L74.4998 89.3289L74.6757 90.5535C76.5688 103.921 76.2588 117.348 73.7542 130.476L73.5029 131.778L72.213 131.82C69.9178 131.898 67.6226 131.94 65.3358 131.94C54.7395 131.94 44.1432 131.11 33.7396 129.448L32.391 129.234L32.3658 127.838C32.1313 114.993 30.8748 102.097 28.6383 89.5088L28.2697 87.4792Z" fill="#1E1E1E"/>
<path d="M94.1596 92.0609L114.665 91.7012C115.067 91.6926 115.503 91.4871 115.804 91.1617C115.98 90.9648 116.19 90.6565 116.173 90.2454C116.14 89.4576 115.528 88.6184 114.724 88.6355L94.2182 88.9952C93.8161 89.0037 93.3805 89.2093 93.079 89.5347C92.9031 89.7316 92.6937 90.0399 92.7104 90.451C92.7439 91.2388 93.2884 92.0951 94.1596 92.0609Z" fill="#1E1E1E"/>
<path d="M93.1377 102.92C93.1377 103.323 93.3387 103.768 93.657 104.076C93.8162 104.222 94.1261 104.461 94.5282 104.453C97.8956 104.282 101.28 104.196 104.664 104.196C110.829 104.196 117.002 104.479 123.109 105.035C123.41 105.069 123.72 104.847 123.863 104.71C124.206 104.384 124.441 103.896 124.441 103.494C124.441 102.466 123.57 102.021 122.824 101.952C113.501 101.096 104.036 100.899 94.6957 101.37C93.9418 101.421 93.1377 101.969 93.1377 102.92Z" fill="#1E1E1E"/>
<path d="M97.5351 136.908C99.5455 137.079 101.69 137.002 103.767 136.925C104.739 136.891 105.711 136.857 106.674 136.84L122.12 136.66C123.385 136.66 124.583 136.651 125.563 136.232C127.691 135.307 128.252 132.635 128.059 130.443C127.95 129.184 127.573 128.233 126.937 127.625C126.133 126.855 124.876 126.598 123.553 126.332L123.159 126.255C116.072 124.791 108.852 124.234 101.682 124.611C101.346 124.628 101.078 124.722 100.844 124.902L100.056 125.519L99.1602 125.082C98.5487 124.782 97.9037 124.637 97.2671 124.637C95.9352 124.637 94.6285 125.271 93.7154 126.452C92.1825 128.422 92.1239 131.522 92.7354 133.723C93.4306 136.189 96.0441 136.78 97.5351 136.908ZM95.4661 129.629C95.5331 129.33 95.7425 128.405 96.5132 127.934L97.2252 127.497L97.9875 127.831C98.4565 128.036 98.8837 128.002 99.2774 127.711L100.031 127.172L100.869 127.557C101.053 127.643 101.271 127.677 101.514 127.668C107.461 127.36 113.149 127.625 118.401 128.465C119.649 128.662 120.906 128.893 122.145 129.15C122.355 129.193 122.623 129.278 122.924 129.364C123.192 129.449 123.527 129.552 123.72 129.578L125.136 129.766V131.556L125.069 131.727C125.06 131.779 125.06 131.839 125.06 131.89L124.993 133.312L123.603 133.56C122.589 133.671 121.576 133.645 120.604 133.628C120.152 133.62 119.691 133.611 119.255 133.611L102.528 133.808C102.067 133.817 101.539 133.842 100.986 133.877C100.249 133.92 99.5036 133.962 98.7916 133.962C98.0545 133.962 97.3592 133.911 96.7394 133.774L95.8012 133.551L95.4326 132.061L95.3824 131.188C95.3572 130.768 95.3321 130.212 95.4661 129.629Z" fill="#1E1E1E"/>
<path d="M107.989 156.733C108.408 156.236 108.592 155.491 108.416 154.968C108.341 154.754 108.173 154.455 107.562 154.335C97.6776 152.391 87.3913 152.339 77.4483 152.297C74.994 152.288 72.5397 152.271 70.0854 152.237C57.3865 152.031 44.3946 151.483 31.4779 150.584C31.4361 150.584 31.3858 150.575 31.3439 150.575C30.657 150.575 30.2885 150.978 30.2298 151.766C30.188 152.382 30.4393 153.564 31.6957 153.65C44.3108 154.523 56.9845 155.071 69.3734 155.277C72.1125 155.32 74.8516 155.328 77.5991 155.328C87.1232 155.337 96.9656 155.345 106.523 157.221C107.11 157.358 107.604 157.186 107.989 156.733Z" fill="#1E1E1E"/>
<path d="M78.7468 167.428C78.7887 166.803 78.5458 165.604 77.2809 165.51C62.1445 164.371 46.782 163.934 31.6037 164.208C31.0509 164.217 30.6655 164.44 30.431 164.876C30.1295 165.424 30.1378 166.204 30.4394 166.718C30.6655 167.103 31.0257 167.291 31.5451 167.274C34.502 167.223 37.4589 167.197 40.4326 167.197C52.7963 167.197 65.2355 167.659 77.5238 168.584C78.2693 168.644 78.6798 168.25 78.7468 167.428Z" fill="#1E1E1E"/>
<path d="M55.8539 181.01C56.256 181.036 56.5911 180.77 56.7502 180.616C57.0685 180.299 57.2612 179.879 57.2612 179.477C57.2612 178.526 56.4654 177.978 55.7199 177.944L31.5117 176.908C31.495 176.908 31.4866 176.908 31.4699 176.908C31.0762 176.908 30.7662 177.148 30.6155 177.302C30.2972 177.619 30.1045 178.038 30.1045 178.441C30.1045 179.391 30.9003 179.939 31.6458 179.974L55.8539 181.01Z" fill="#1E1E1E"/>
<path d="M36.9896 222.747L37.4001 222.807C40.8177 223.33 44.2186 223.638 47.5105 223.707C49.0602 223.741 50.635 223.724 52.193 223.655C52.5532 223.638 52.9218 223.63 53.2903 223.621C54.639 223.587 56.0378 223.544 57.1938 223.21C59.1204 222.653 59.2796 219.725 59.2796 216.231C59.2796 215.683 59.2796 215.152 59.2963 214.672C59.4052 210.93 59.3466 207.154 59.1204 203.429C58.9026 199.883 58.5508 197.066 56.2054 195.696C55.0327 195.011 53.6673 194.865 51.992 194.745C50.1575 194.617 48.2812 194.54 46.5305 194.471C42.6186 194.334 38.5644 194.317 34.4683 194.42C33.5301 194.446 33.4128 195.405 33.4045 195.816L33.3793 197.271L34.3594 197.451C34.4599 197.468 34.5521 197.477 34.6358 197.477C38.422 197.383 42.1663 197.391 45.7766 197.494C47.544 197.545 49.3031 197.623 51.0706 197.725C51.213 197.734 51.3972 197.734 51.6067 197.734C52.8799 197.742 54.6138 197.751 55.6441 198.804C56.5321 199.712 56.5572 201.168 56.5739 202.341C56.5739 202.529 56.5823 202.701 56.5907 202.838C56.7247 204.85 56.8085 206.897 56.842 208.909C56.8755 210.921 56.8671 212.968 56.8085 214.989C56.7834 215.897 56.7498 216.813 56.6996 217.721C56.6912 217.841 56.6912 218.003 56.6912 218.175C56.6912 218.354 56.6912 218.56 56.6828 218.757L56.6493 220.256L54.2704 220.461C53.3657 220.53 52.4611 220.581 51.5564 220.615C49.6633 220.684 47.7451 220.684 45.8436 220.607C41.8648 220.444 38.355 220.033 35.1133 219.331L34.9541 219.296C33.9406 219.082 32.3993 218.766 31.8213 217.464C31.436 216.599 31.5449 215.546 31.637 214.698C31.6538 214.518 31.6789 214.355 31.6789 214.218L32.5082 197.674L31.3773 197.383C31.2266 197.349 31.1596 197.34 31.1512 197.34C31.1512 197.34 31.1512 197.34 31.1428 197.34C30.0622 197.383 29.9533 198.898 29.945 199.07L29.3754 210.425C29.3419 211.024 29.3 211.641 29.2497 212.266C29.0235 215.203 28.789 218.235 30.4057 220.161C31.947 221.977 34.5102 222.371 36.9896 222.747Z" fill="#1E1E1E"/>
<path d="M123.159 194.566C119.247 194.429 115.193 194.412 111.097 194.514C110.159 194.54 110.041 195.499 110.033 195.91L110.008 197.366L110.988 197.546C111.088 197.563 111.172 197.571 111.264 197.571C115.051 197.477 118.795 197.486 122.405 197.589C124.173 197.64 125.932 197.717 127.699 197.82C127.841 197.828 128.034 197.828 128.235 197.828C129.508 197.837 131.242 197.845 132.273 198.899C133.161 199.806 133.186 201.262 133.202 202.435C133.202 202.624 133.211 202.795 133.219 202.932C133.353 204.936 133.437 206.983 133.471 209.004C133.504 211.025 133.496 213.071 133.437 215.084C133.412 215.991 133.378 216.908 133.328 217.815C133.32 217.935 133.32 218.098 133.32 218.278L133.286 220.341L130.899 220.547C129.994 220.616 129.09 220.667 128.185 220.701C126.283 220.77 124.365 220.77 122.472 220.693C118.493 220.538 114.984 220.119 111.742 219.417L111.574 219.382C110.561 219.168 109.028 218.851 108.45 217.55C108.065 216.685 108.173 215.632 108.266 214.784C108.282 214.604 108.307 214.441 108.307 214.304L109.137 197.768L108.006 197.477C107.863 197.443 107.796 197.434 107.78 197.434C107.78 197.434 107.78 197.434 107.771 197.434C106.691 197.477 106.582 198.993 106.574 199.164L106.004 210.519C105.97 211.119 105.929 211.727 105.878 212.36C105.652 215.298 105.418 218.329 107.043 220.256C108.567 222.063 111.13 222.457 113.61 222.833L114.02 222.893C117.429 223.416 120.83 223.724 124.131 223.793C125.672 223.827 127.247 223.81 128.813 223.741C129.173 223.724 129.542 223.715 129.919 223.707C131.268 223.673 132.666 223.63 133.822 223.296C135.749 222.739 135.908 219.811 135.908 216.317C135.908 215.769 135.908 215.238 135.925 214.758C136.034 211.016 135.975 207.239 135.749 203.514C135.531 199.978 135.179 197.16 132.834 195.782C131.67 195.097 130.237 194.951 128.621 194.831C126.778 194.703 124.901 194.626 123.159 194.566Z" fill="#1E1E1E"/>
<path d="M67.9494 213.054C68.1672 216.59 68.519 219.416 70.8644 220.786C72.0288 221.472 73.4025 221.617 75.0778 221.737C76.9374 221.874 78.8054 221.951 80.5393 222.011C84.4595 222.148 88.5138 222.165 92.6015 222.062C93.5397 222.037 93.657 221.078 93.6653 220.667L93.6905 219.211L92.7104 219.031C92.6099 219.014 92.5178 219.005 92.434 219.005C88.6394 219.099 84.8951 219.091 81.2932 218.988C79.5258 218.937 77.7667 218.86 75.9993 218.757C75.8569 218.748 75.6726 218.748 75.4632 218.748C74.1899 218.74 72.456 218.731 71.4257 217.678C70.5378 216.77 70.521 215.314 70.4959 214.141C70.4959 213.953 70.4875 213.782 70.4791 213.645C70.3451 211.641 70.2613 209.594 70.2278 207.573C70.1943 205.578 70.2027 203.531 70.2613 201.493C70.2865 200.585 70.32 199.669 70.3702 198.761C70.3786 198.642 70.3786 198.479 70.3786 198.29L70.4121 196.235L71.8696 196.107C72.2466 196.073 72.523 196.047 72.7994 196.03C73.7041 195.961 74.6087 195.91 75.5134 195.876C77.3981 195.807 79.3247 195.807 81.2262 195.884C85.2051 196.047 88.7148 196.458 91.9565 197.16L92.1241 197.194C93.1376 197.408 94.6789 197.725 95.2569 199.027C95.6422 199.9 95.5333 200.945 95.4412 201.793C95.4244 201.973 95.3993 202.135 95.3993 202.272L94.57 218.817L95.7008 219.108C95.86 219.151 95.9354 219.151 95.9354 219.151C97.0076 219.108 97.1165 217.592 97.1249 217.421L97.6945 206.066C97.728 205.467 97.7698 204.85 97.8201 204.225C98.0463 201.288 98.2808 198.256 96.6558 196.338C95.1229 194.531 92.5596 194.137 90.0802 193.76L89.6697 193.7C86.2605 193.178 82.8596 192.87 79.5593 192.801C79.0483 192.793 78.5373 192.784 78.0264 192.784C76.9793 192.784 75.9239 192.81 74.8768 192.853C74.5166 192.87 74.148 192.878 73.7711 192.887C72.4225 192.921 71.0236 192.964 69.8676 193.298C67.941 193.855 67.7819 196.783 67.7819 200.277C67.7819 200.825 67.7819 201.356 67.7651 201.836C67.6646 205.527 67.7232 209.312 67.9494 213.054Z" fill="#1E1E1E"/>
<path d="M245.222 194.043L244.812 193.983C241.402 193.461 238.002 193.152 234.701 193.084C233.16 193.05 231.585 193.067 230.019 193.135C229.659 193.152 229.29 193.161 228.913 193.169C227.564 193.204 226.166 193.246 225.01 193.58C223.083 194.137 222.924 197.066 222.924 200.56C222.924 201.108 222.924 201.639 222.907 202.118C222.798 205.86 222.857 209.637 223.083 213.362C223.301 216.907 223.653 219.724 225.998 221.095C227.162 221.78 228.595 221.925 230.211 222.045C232.063 222.182 233.931 222.251 235.673 222.319C239.585 222.456 243.639 222.473 247.735 222.371C248.673 222.345 248.791 221.386 248.799 220.975L248.824 219.519L247.844 219.339C247.743 219.322 247.651 219.313 247.568 219.313C243.781 219.408 240.037 219.399 236.427 219.296C234.659 219.245 232.9 219.168 231.133 219.065C230.99 219.057 230.798 219.057 230.597 219.057C229.324 219.048 227.59 219.039 226.559 217.986C225.671 217.078 225.646 215.623 225.629 214.449C225.629 214.261 225.621 214.09 225.613 213.953C225.479 211.94 225.395 209.894 225.361 207.881C225.328 205.869 225.336 203.822 225.395 201.801C225.42 200.885 225.454 199.977 225.504 199.07C225.512 198.95 225.512 198.787 225.512 198.616C225.512 198.436 225.512 198.23 225.521 198.033L225.554 196.535L227.933 196.329C228.838 196.261 229.742 196.209 230.647 196.175C232.548 196.107 234.467 196.107 236.36 196.184C240.339 196.338 243.848 196.757 247.09 197.46L247.258 197.494C248.271 197.708 249.812 198.025 250.39 199.326C250.776 200.191 250.667 201.245 250.575 202.092C250.558 202.272 250.533 202.435 250.533 202.572L249.704 219.108L250.834 219.399C251.002 219.442 251.052 219.442 251.069 219.442C252.15 219.399 252.258 217.883 252.267 217.712L252.836 206.357C252.87 205.758 252.912 205.141 252.962 204.516C253.188 201.579 253.423 198.547 251.798 196.62C250.265 194.814 247.702 194.42 245.222 194.043Z" fill="#1E1E1E"/>
<path d="M146.463 213.276C146.68 216.813 147.032 219.639 149.378 221.009C150.542 221.694 151.916 221.84 153.591 221.96C155.451 222.097 157.319 222.174 159.053 222.234C162.964 222.371 167.019 222.388 171.115 222.294C172.053 222.268 172.17 221.309 172.179 220.898L172.204 219.442L171.224 219.262C171.123 219.245 171.031 219.237 170.956 219.237C167.161 219.331 163.417 219.322 159.815 219.219C158.056 219.168 156.288 219.091 154.521 218.988C154.37 218.98 154.186 218.98 153.976 218.98C152.703 218.971 150.969 218.963 149.947 217.909C149.059 217.001 149.034 215.546 149.018 214.373C149.018 214.184 149.009 214.013 149.001 213.876C148.867 211.872 148.783 209.825 148.749 207.804C148.716 205.783 148.724 203.737 148.783 201.724C148.808 200.817 148.842 199.9 148.892 198.993C148.9 198.873 148.9 198.71 148.9 198.53L148.934 196.475L150.391 196.347C150.768 196.312 151.045 196.287 151.321 196.27C152.226 196.201 153.13 196.15 154.035 196.115C155.928 196.047 157.846 196.047 159.748 196.124C163.727 196.278 167.236 196.698 170.478 197.4L170.646 197.434C171.659 197.648 173.192 197.965 173.77 199.258C174.155 200.132 174.047 201.176 173.954 202.024C173.938 202.204 173.913 202.367 173.913 202.504L173.083 219.04L174.214 219.331C174.373 219.374 174.44 219.374 174.449 219.374C175.529 219.331 175.638 217.815 175.647 217.644L176.216 206.289C176.25 205.689 176.292 205.081 176.342 204.448C176.568 201.51 176.802 198.479 175.177 196.552C173.645 194.745 171.081 194.351 168.602 193.975L168.191 193.915C164.782 193.392 161.381 193.084 158.081 193.015C157.578 193.007 157.067 192.998 156.556 192.998C155.509 192.998 154.454 193.024 153.398 193.067C153.038 193.084 152.67 193.092 152.293 193.101C150.944 193.135 149.545 193.178 148.389 193.512C146.463 194.069 146.304 196.997 146.304 200.491C146.304 201.039 146.304 201.57 146.287 202.05C146.17 205.766 146.237 209.551 146.463 213.276Z" fill="#1E1E1E"/>
<path d="M192.14 223.055L192.551 223.115C195.96 223.638 199.361 223.946 202.661 224.014C204.202 224.049 205.777 224.032 207.343 223.963C207.704 223.946 208.072 223.937 208.449 223.929C209.798 223.895 211.197 223.852 212.353 223.518C214.279 222.961 214.438 220.032 214.438 216.539C214.438 215.991 214.438 215.46 214.455 214.98C214.564 211.255 214.505 207.47 214.279 203.736C214.061 200.2 213.71 197.374 211.364 196.004C210.2 195.318 208.826 195.173 207.151 195.053C205.291 194.916 203.423 194.839 201.689 194.779C197.777 194.642 193.723 194.625 189.627 194.719C188.689 194.745 188.572 195.704 188.563 196.115L188.538 197.571L189.518 197.75C189.619 197.768 189.711 197.776 189.795 197.776C193.581 197.682 197.333 197.691 200.935 197.793C202.703 197.845 204.462 197.922 206.229 198.025C206.38 198.033 206.564 198.033 206.774 198.033C208.039 198.042 209.781 198.05 210.803 199.104C211.691 200.011 211.716 201.467 211.733 202.64C211.733 202.829 211.741 203 211.75 203.137C211.884 205.141 211.967 207.187 212.001 209.208C212.034 211.204 212.026 213.25 211.967 215.288C211.942 216.196 211.909 217.112 211.858 218.02C211.85 218.14 211.85 218.303 211.85 218.482L211.817 220.538L210.359 220.666C209.982 220.7 209.706 220.726 209.429 220.743C208.525 220.812 207.62 220.863 206.715 220.897C204.822 220.966 202.904 220.966 201.002 220.889C197.024 220.735 193.514 220.315 190.272 219.613L190.105 219.579C189.091 219.364 187.558 219.048 186.98 217.755C186.595 216.881 186.704 215.836 186.796 214.989C186.813 214.809 186.838 214.646 186.838 214.509L187.667 197.973L186.536 197.682C186.394 197.648 186.335 197.639 186.31 197.639C186.31 197.639 186.31 197.639 186.302 197.639C185.221 197.682 185.112 199.198 185.104 199.369L184.534 210.724C184.501 211.323 184.459 211.94 184.409 212.565C184.182 215.502 183.948 218.534 185.573 220.452C187.089 222.293 189.652 222.679 192.14 223.055Z" fill="#1E1E1E"/>
<path d="M251.387 238.444C222.379 239.437 192.375 240.465 162.789 239.806C154.613 239.626 147.175 239.343 140.046 238.949L139.787 238.915C139.695 238.898 139.586 238.889 139.485 238.881C110.1 237.1 80.1626 237.648 54.7482 238.418C47.0083 238.658 39.2852 238.932 31.5453 239.198L30.4144 239.24C28.8732 239.3 28.8815 240.799 28.8899 240.97C28.9067 241.493 29.1412 242.375 30.2972 242.323C52.0342 241.553 74.3577 240.756 96.5974 240.756C102.863 240.756 109.12 240.816 115.361 240.962C123.302 241.142 130.439 241.433 137.173 241.835L137.55 241.895C168.577 243.685 199.637 243.137 225.939 242.358C234.266 242.109 242.575 241.827 250.885 241.553L251.278 241.535C252.945 241.476 252.945 239.994 252.937 239.823C252.928 239.377 252.769 238.41 251.387 238.444Z" fill="#1E1E1E"/>
<path d="M223.928 240.576C224.062 239.291 223.635 237.904 222.638 237.176C221.917 236.645 221.038 236.696 220.234 236.654C219.446 236.611 218.659 236.568 217.872 236.534C214.889 236.379 211.882 236.063 208.9 236.191C207.451 236.251 205.826 236.345 204.444 236.97C202.702 237.758 201.512 240.353 202.559 242.614C203.497 244.643 205.466 244.438 207.057 244.549C208.599 244.66 210.14 244.729 211.69 244.763C215.124 244.849 218.55 244.746 221.976 244.48C223.14 244.395 224.129 243.256 224.129 241.672C224.12 241.312 224.053 240.927 223.928 240.576Z" fill="#F7C300"/>
<path d="M224.54 237.426C223.644 235.73 221.96 235.311 220.335 235.67C220.083 235.516 219.79 235.422 219.439 235.405C215.267 235.268 211.087 235.131 206.916 235.242C205.098 235.285 202.401 234.959 201.839 237.289C201.613 238.239 201.839 239.37 201.906 240.337C201.973 241.433 202.007 242.529 202.133 243.617C202.443 246.332 205.123 246.023 207.125 246.058C209.186 246.092 211.255 246.135 213.315 246.169C215.376 246.203 217.445 246.246 219.506 246.28C221.616 246.314 224.221 246.803 225.026 244.216C225.662 242.153 225.553 239.352 224.54 237.426ZM218.324 243.343C216.716 243.3 215.099 243.257 213.491 243.215C212.126 243.215 210.752 243.18 209.387 243.137C208.08 243.095 206.773 243.129 205.458 243.078C205.324 243.069 205.173 243.052 205.09 242.898C205.048 242.812 205.031 242.701 205.022 242.589C204.939 241.502 204.847 240.423 204.763 239.335C204.746 239.087 204.729 238.813 204.821 238.599C204.964 238.291 205.265 238.256 205.525 238.256C209.001 238.256 212.478 238.248 215.945 238.35C217.043 238.385 218.157 238.248 219.237 238.616C219.614 238.744 219.975 238.959 220.352 239.053C220.879 239.181 221.198 238.804 221.675 238.727C222.144 238.65 222.178 239.318 222.228 239.858C222.328 240.902 222.362 241.956 222.32 243.009C222.312 243.137 222.312 243.274 222.253 243.377C222.069 243.728 220.745 243.403 220.444 243.394C219.748 243.36 219.036 243.343 218.324 243.343Z" fill="#1E1E1E"/>
<path d="M257.326 95.2381C256.053 90.6396 251.873 87.3341 247.24 87.0686C246.269 87.0087 245.431 87.7965 245.188 88.7214C244.694 88.396 244.091 88.259 243.538 88.4816C239.668 90.0401 237.138 93.6625 236.812 97.8928C236.493 101.96 238.923 105.848 242.441 107.646C246.244 109.59 250.583 109.154 253.85 106.345C256.915 103.699 258.423 99.2201 257.326 95.2381ZM251.772 102.337C250.867 103.365 249.921 104.024 248.681 104.358C248.53 104.401 248.38 104.435 248.221 104.469C248.204 104.469 248.103 104.487 248.045 104.495C247.718 104.529 247.391 104.538 247.065 104.529C246.478 104.512 246.009 104.427 245.255 104.17C244.208 103.81 243.22 103.125 242.365 102.166C242.223 102.003 242.089 101.84 241.871 101.481C241.72 101.232 241.578 100.967 241.461 100.702C241.436 100.65 241.394 100.53 241.385 100.513C241.318 100.333 241.268 100.145 241.218 99.9565C241.176 99.811 241.142 99.6568 241.117 99.5027C241.1 99.4256 241.092 99.3571 241.075 99.28C241.075 99.28 241.075 99.2458 241.067 99.1687C241.008 98.2439 241.042 97.8071 241.209 97.1049C241.41 96.2572 241.528 95.966 241.93 95.2638C242.323 94.5702 242.524 94.3047 243.136 93.7138C243.471 93.3884 243.429 93.4141 243.865 93.1401C243.99 93.0545 244.124 92.9774 244.25 92.9089C244.325 92.8661 244.912 92.592 244.669 92.6948C245.398 92.4036 245.967 91.8213 246.16 91.102C246.478 91.299 246.847 91.4188 247.24 91.4445C248.371 91.513 249.527 91.9412 250.666 92.7547C250.935 92.9431 251.538 93.5169 251.906 93.9365C252.291 94.3818 252.677 94.9983 252.987 95.7091C253.891 97.7643 253.364 100.53 251.772 102.337Z" fill="#1E1E1E"/>
<path d="M189.091 92.0528C184.685 87.8996 180.43 93.697 181.845 98.0472C184.685 103.845 193.195 100.95 191.637 94.7503C191.101 93.6028 190.197 92.6266 189.091 92.0528Z" fill="#1E1E1E"/>
<path d="M205.266 91.9507C201.89 89.3474 199.05 90.8032 197.635 93.6976C196.219 96.6006 197.635 99.495 200.474 100.951C203.314 102.407 208.985 99.5036 207.812 94.6567C207.276 93.5007 206.372 92.5244 205.266 91.9507Z" fill="#1E1E1E"/>
<path d="M220.528 101.438C224.415 100.95 228.67 95.1443 224.415 92.2499C221.575 90.8027 217.32 90.8027 214.489 93.6971C213.073 96.6001 214.489 99.4946 216.876 101.002C218.007 101.55 219.313 101.721 220.528 101.438Z" fill="#1E1E1E"/>
<path d="M365.961 41.0994C365.936 39.7292 364.202 39.498 363.632 40.4058C363.456 40.2859 363.255 40.2088 363.004 40.1917C335.219 38.5561 307.392 37.6141 279.566 37.3914C271.775 37.3315 263.977 37.3229 256.187 37.3743C255.24 37.3829 254.846 38.2649 255.014 39.0014C254.913 39.1812 254.863 39.3953 254.872 39.6522C255.249 47.128 255.014 54.6295 254.16 62.0626C253.975 63.6982 256.488 63.6896 256.673 62.0626C257.519 54.7152 257.761 47.325 257.401 39.9348C284.826 39.7806 312.259 40.3116 339.659 41.5361C347.441 41.8872 355.231 42.2897 363.004 42.7521C363.18 42.7607 363.339 42.735 363.473 42.6922C363.741 59.8618 363.8 77.0314 363.624 94.1924C363.448 111.893 363.038 129.593 362.393 147.285C362.032 157.142 361.597 166.99 361.094 176.838C340.865 176.401 320.644 175.964 300.415 175.519C294.635 175.39 288.864 175.271 283.084 175.142C281.467 175.108 281.467 177.677 283.084 177.711C303.481 178.156 323.877 178.593 344.266 179.038C350.046 179.167 355.817 179.287 361.597 179.415C362.368 179.432 362.77 178.859 362.803 178.242C363.222 178.071 363.557 177.694 363.59 177.112C364.495 159.437 365.174 141.745 365.618 124.044C366.062 106.344 366.263 88.6433 366.237 70.9428C366.221 61.0007 366.129 51.05 365.961 41.0994Z" fill="#1E1E1E"/>
<path d="M495.722 51.3338C495.697 49.9636 493.963 49.7324 493.393 50.6401C493.217 50.5202 493.016 50.4432 492.765 50.426C464.98 48.7904 437.153 47.8485 409.326 47.6258C401.536 47.5659 393.738 47.5573 385.947 47.6087C385.001 47.6173 384.607 48.4993 384.775 49.2357C384.674 49.4156 384.649 49.6296 384.632 49.8865C384.213 57.5422 384.775 54.5878 383.92 62.0209C383.736 63.6565 386.249 63.6479 386.433 62.0209C387.279 54.6735 386.81 57.5422 387.162 50.1691C414.587 50.015 442.02 50.5459 469.42 51.7705C477.201 52.1216 484.991 52.5241 492.765 52.9865C492.941 52.9951 493.1 52.9694 493.234 52.9266C493.502 70.0961 493.561 87.2657 493.385 104.427C493.209 122.127 492.798 139.828 492.153 157.52C491.793 167.376 491.358 177.224 490.855 187.072C470.626 186.635 450.405 186.199 430.175 185.753C424.396 185.625 418.624 185.505 412.844 185.377C411.228 185.342 411.228 187.911 412.844 187.946C433.241 188.391 453.638 188.828 474.027 189.273C479.806 189.401 485.578 189.521 491.358 189.65C492.128 189.667 492.53 189.093 492.564 188.476C492.983 188.305 493.318 187.928 493.351 187.346C494.256 169.671 494.934 151.979 495.378 134.279C495.822 116.578 496.023 98.8777 495.998 81.1772C495.973 71.2351 495.881 61.2844 495.722 51.3338Z" fill="#1E1E1E"/>
<path d="M412.241 122.693C411.797 104.993 411.127 87.3008 410.214 69.6259C410.18 69.0436 409.845 68.6668 409.426 68.4956C409.393 67.8876 408.991 67.3053 408.22 67.3224C402.44 67.4508 396.669 67.5707 390.889 67.6992C387.781 67.6992 384.674 67.8362 381.566 67.9047C379.999 67.939 378.425 67.9732 376.858 68.0075C376.155 68.0246 375.451 68.0674 374.747 68.0674C373.993 68.076 373.223 67.9732 372.486 68.1787C372.201 68.2558 371.924 68.3842 371.732 68.5983C371.589 68.7525 371.497 68.9666 371.531 69.1721C371.547 69.292 371.606 69.3947 371.665 69.4975C371.824 69.7801 372.008 70.0627 372.26 70.2596C372.913 70.782 373.96 70.7049 374.739 70.6964C375.719 70.6878 376.691 70.585 377.671 70.5594C379.304 70.5251 380.946 70.4908 382.579 70.4566C385.855 70.3881 389.13 70.311 392.397 70.2425C393.678 70.2168 407.717 69.84 407.717 69.9085C408.22 79.7564 408.655 89.6043 409.016 99.4608C409.661 117.153 410.071 134.853 410.247 152.554C410.415 169.723 410.364 186.893 410.096 204.054C409.954 204.011 409.803 203.977 409.627 203.994C401.845 204.457 394.064 204.859 386.282 205.21C358.882 206.435 331.449 206.966 304.024 206.811C304.385 199.43 304.142 192.031 303.296 184.684C303.111 183.057 300.598 183.048 300.783 184.684C301.637 192.125 301.88 199.618 301.495 207.094C301.478 207.36 301.536 207.574 301.637 207.745C301.469 208.473 301.863 209.363 302.81 209.372C310.6 209.423 318.398 209.415 326.189 209.355C354.024 209.132 381.842 208.199 409.627 206.555C409.878 206.537 410.088 206.46 410.255 206.34C410.825 207.248 412.559 207.017 412.584 205.647C412.752 195.696 412.835 185.746 412.852 175.786C412.886 158.094 412.676 140.394 412.241 122.693Z" fill="#1E1E1E"/>
<path d="M327.873 56.1548C312.46 54.7933 297.013 53.8342 281.559 53.2861C277.195 53.132 272.822 53.0121 268.45 52.9179C266.297 52.8751 266.297 56.3004 268.45 56.3432C283.913 56.6601 299.376 57.388 314.805 58.5183C319.161 58.8352 323.517 59.1948 327.873 59.5716C330.017 59.7686 330.009 56.3432 327.873 56.1548Z" fill="#1E1E1E"/>
<path d="M293.923 60.592C285.663 60.3779 277.412 60.1553 269.153 59.9412C267 59.8813 267 63.3066 269.153 63.3666C277.412 63.5806 285.663 63.8033 293.923 64.0174C296.075 64.0773 296.075 60.652 293.923 60.592Z" fill="#1E1E1E"/>
<path d="M349.199 89.2539C347.884 87.3443 345.815 87.2501 343.738 87.6183C341.367 88.0379 339.03 88.4404 336.634 88.6202C336.115 88.192 335.596 87.7639 335.076 87.3443C334.339 86.7448 332.915 86.5735 332.446 87.6868C331.893 88.997 331.047 88.1064 330.184 87.6354C329.556 87.2929 328.903 87.0874 328.199 87.1387C327.764 87.173 327.362 87.31 326.993 87.5412C326.959 87.5669 326.792 87.6782 326.616 87.8067C326.231 87.3271 325.896 86.839 325.401 86.4622C324.195 85.5545 322.78 85.6744 321.557 86.4965C321.096 86.8048 320.711 87.2244 320.158 87.3014C319.404 87.3956 318.441 87.036 317.695 86.899C316.103 86.5992 314.277 85.9827 312.652 86.3081C311.965 86.4451 311.362 86.7962 310.784 87.1816C310.173 87.5926 310.181 87.7724 309.704 87.4813C308.38 86.702 307.04 86.6849 305.758 87.5755C305.34 87.8666 304.854 88.4061 304.477 88.2862C303.782 88.0636 303.229 87.3186 302.533 87.0274C301.78 86.7106 300.9 86.6335 300.121 86.8476C299.954 86.6677 299.786 86.4965 299.627 86.3166C298.831 85.4603 297.6 85.7943 296.997 86.6592C296.192 87.8324 294.969 87.8324 293.747 87.5583C292.306 87.2415 290.756 87.0617 289.273 87.0445C287.54 87.0274 285.663 87.4213 284.432 88.5859C284.021 88.4232 283.569 88.3376 283.066 88.329C280.905 88.2862 280.914 91.7116 283.066 91.7544C283.175 91.7544 283.376 91.763 283.452 91.8657C284.281 92.9875 286.099 92.9961 286.518 91.4547C286.97 89.7763 290.999 90.5384 292.121 90.7097C293.671 90.9494 295.02 91.4204 296.578 90.9323C297.265 90.7182 297.876 90.3843 298.421 89.9647C298.521 90.076 298.622 90.1787 298.722 90.2901C299.367 90.9751 300.657 90.9409 301.218 90.153C301.344 90.2387 301.486 90.3072 301.612 90.3928C302.274 90.8381 302.843 91.3605 303.614 91.6088C305.155 92.1055 306.244 91.3776 307.459 90.5298C307.534 90.4785 307.702 90.4014 307.811 90.3414C307.936 90.4271 308.171 90.5298 308.263 90.5812C308.975 90.9666 309.695 91.1807 310.5 91.0522C311.773 90.8467 312.694 89.5279 313.976 89.6649C315.676 89.8533 317.368 90.3329 319.06 90.5983C320.769 90.8638 321.875 90.3928 323.265 89.4423C323.324 89.408 323.433 89.3481 323.533 89.2881C323.567 89.3224 323.6 89.3566 323.609 89.3652C323.877 89.7763 324.22 90.2044 324.564 90.5555C325.485 91.5146 326.825 91.8657 327.998 91.1121C328.023 91.095 328.476 90.7867 328.543 90.6669C328.559 90.6326 328.576 90.624 328.593 90.6069C328.769 90.7268 329.087 90.9152 329.171 90.9666C329.874 91.4119 330.603 91.7715 331.449 91.8058C332.387 91.8486 333.342 91.5318 334.105 90.9666C334.75 91.5318 335.445 92.0284 336.148 92.0627C337.539 92.1312 339.047 91.8229 340.421 91.6345C341.752 91.4547 343.067 91.2063 344.391 90.9409C344.801 90.8638 346.058 90.5298 346.343 90.9494C347.541 92.7734 350.447 91.0693 349.199 89.2539Z" fill="#1E1E1E"/>
<path d="M320.702 98.946C320.216 98.1753 319.211 97.8413 318.407 98.3294C318.214 98.4493 318.022 98.5521 317.829 98.6548C317.812 98.6634 317.804 98.672 317.787 98.6805C317.687 98.7148 317.594 98.7405 317.494 98.7747C317.477 98.7833 317.477 98.7833 317.46 98.7833H317.452C317.41 98.749 317.36 98.7062 317.31 98.6891C317.301 98.6805 317.293 98.6805 317.293 98.672C317.15 98.5606 317.008 98.4407 316.866 98.338C316.723 98.2352 316.581 98.141 316.43 98.0725C315.693 97.7214 314.872 97.6872 314.143 98.1068C313.909 98.2438 313.716 98.4151 313.54 98.612C313.197 98.4921 312.87 98.3466 312.56 98.1582C311.396 97.4303 310.608 96.3256 309.076 96.6424C308.531 96.7538 308.062 97.0278 307.601 97.3361C307.568 97.3532 307.333 97.4988 307.166 97.6101C307.308 97.6615 307.417 97.8756 307.124 97.6358C307.04 97.6872 306.973 97.7385 306.973 97.7557C306.998 97.6529 307.048 97.6187 307.09 97.6101C307.074 97.593 307.065 97.593 307.048 97.5758C306.144 96.7452 304.711 96.3598 303.614 96.9678C303.22 97.1819 302.885 97.6957 302.575 97.7985C302.123 97.9526 301.344 97.6444 300.858 97.67C300.263 97.6957 299.685 97.867 299.183 98.1496C298.613 97.7557 298.035 97.3618 297.466 96.9678C296.628 96.3941 295.179 96.9336 295.003 97.9955C294.986 98.1068 294.969 98.1667 294.969 98.1924C294.902 98.2438 294.827 98.2866 294.752 98.2952C294.417 98.3551 294.199 98.3465 293.864 98.2609C292.817 97.9954 291.879 97.4388 290.798 97.2676C289.701 97.0963 288.511 97.3446 287.606 97.9698C287.163 97.6187 286.71 97.2761 286.233 96.9678C284.415 95.769 282.731 98.7319 284.541 99.9222C285.311 100.427 285.99 100.993 286.643 101.652C287.506 102.525 289.156 102.174 289.441 100.898C289.458 100.83 289.466 100.796 289.474 100.77C289.558 100.701 289.575 100.65 289.759 100.659C290.094 100.667 290.287 100.633 290.656 100.736C291.761 101.053 292.758 101.626 293.922 101.746C295.011 101.858 296.209 101.532 297.08 100.83C297.583 101.181 298.086 101.524 298.588 101.875C299.283 102.354 300.247 102.08 300.749 101.446C300.733 101.292 300.774 101.044 300.858 101.104C300.875 101.113 300.908 101.121 300.942 101.13C300.984 101.044 301.026 100.95 301.051 100.856C301.026 100.967 301.001 101.061 300.975 101.138C301.143 101.155 301.419 101.13 301.503 101.138C302.123 101.198 302.693 101.284 303.321 101.164C303.899 101.053 304.569 100.796 304.954 100.316C304.963 100.308 304.963 100.308 304.971 100.299C305.063 100.359 305.147 100.41 305.139 100.402C306.177 101.078 307.275 101.378 308.447 100.83C308.682 100.719 309.402 100.41 309.578 100.162C309.721 100.29 309.896 100.41 310.014 100.513C310.106 100.59 310.198 100.65 310.29 100.719C310.483 100.916 310.734 101.087 311.019 101.198C310.809 101.104 310.768 101.087 310.876 101.147C310.876 101.147 310.885 101.155 310.902 101.164C310.944 101.19 310.977 101.215 311.019 101.241C311.002 101.241 310.985 101.232 310.969 101.224C310.977 101.232 310.977 101.232 310.985 101.241C311.136 101.387 311.287 101.549 311.446 101.686C312.016 102.2 312.669 102.56 313.44 102.628C314.135 102.68 314.839 102.414 315.333 101.917C315.417 101.832 315.492 101.738 315.567 101.643C315.861 101.849 316.17 102.029 316.522 102.132C317.779 102.5 319.035 101.969 320.099 101.318C320.853 100.83 321.196 99.7338 320.702 98.946Z" fill="#1E1E1E"/>
<path d="M310.885 101.122C310.877 101.122 310.919 101.163 310.977 101.188C310.944 101.163 310.927 101.147 310.91 101.13C310.894 101.138 310.894 101.13 310.885 101.122Z" fill="#1E1E1E"/>
<path d="M307.175 97.6193C307.15 97.6106 307.124 97.6106 307.099 97.6193C307.116 97.628 307.124 97.6367 307.133 97.6454C307.15 97.628 307.166 97.628 307.175 97.6193Z" fill="#1E1E1E"/>
<path d="M300.75 101.43C300.766 101.584 300.833 101.619 300.975 101.122C300.959 101.122 300.959 101.113 300.942 101.113C300.892 101.225 300.833 101.327 300.75 101.43Z" fill="#1E1E1E"/>
<path d="M313.423 109.403C313.03 108.983 312.636 108.564 312.242 108.135C311.505 107.348 310.131 107.536 309.612 108.478C309.302 109.035 309.009 109.702 308.414 109.959C308.322 109.814 308.247 109.66 308.154 109.514C307.895 109.12 307.602 108.778 307.191 108.538C306.412 108.075 305.457 108.101 304.687 108.564C304.536 108.649 303.975 109.069 303.598 109.42C303.464 109.231 303.288 109.052 303.17 108.906C302.643 108.255 301.964 107.759 301.143 107.587C300.23 107.399 299.292 107.682 298.521 108.178C298.094 108.452 297.692 108.812 297.332 109.18C297.298 109.214 297.273 109.249 297.248 109.274C296.905 108.701 296.352 108.307 295.715 108.161C294.316 107.844 293.026 108.863 291.988 109.677C291.569 110.002 291.125 110.396 290.614 110.585C290.12 110.764 290.028 110.764 289.734 110.43C288.687 109.274 287.02 109.257 286.166 110.653C285.379 111.946 286.501 113.162 287.649 113.188C287.825 113.333 288.034 113.479 288.067 113.505C288.327 113.684 288.637 113.839 288.939 113.933C289.709 114.19 290.589 114.138 291.359 113.924C292.113 113.71 292.775 113.316 293.403 112.845C293.722 112.605 294.032 112.34 294.358 112.1C294.459 112.032 294.559 111.963 294.66 111.895C294.668 111.912 294.677 111.938 294.685 111.955C294.97 112.571 295.405 113.051 296.05 113.273C297.416 113.753 298.513 112.931 299.384 111.946C299.711 111.578 300.063 111.141 300.523 110.953C300.616 111.047 300.699 111.167 300.766 111.252C301.436 112.066 301.956 112.871 303.045 113.119C304.117 113.359 305.063 112.828 305.817 112.1C306.144 112.451 306.521 112.802 306.596 112.845C308.33 114.001 310.006 113.222 311.245 111.929C312.711 113.239 314.864 110.944 313.423 109.403Z" fill="#1E1E1E"/>
<path d="M344.341 109.701C342.875 109.256 341.074 108.34 339.525 108.734C338.838 108.905 338.319 109.239 337.581 109.145C336.861 109.051 336.275 108.597 335.588 108.391C334.884 108.186 334.155 108.177 333.46 108.425C332.731 108.691 332.648 108.64 331.869 108.417C331.291 108.254 330.704 108.117 330.101 108.169C329.498 108.22 329.096 108.468 328.644 108.742C328.275 108.648 327.873 108.425 327.496 108.425C327.136 108.425 326.717 108.537 326.407 108.708C326.374 108.734 326.332 108.759 326.298 108.777C326.005 108.631 325.72 108.46 325.41 108.357C324.874 108.186 324.28 108.126 323.718 108.169C323.174 108.211 322.663 108.34 322.185 108.545C321.674 108.194 321.029 108.109 320.435 108.46C319.706 108.896 319.304 110.044 319.832 110.806C320.024 111.08 320.209 111.346 320.401 111.62C321.046 112.544 322.177 112.759 323.031 111.962C323.626 111.414 324.28 111.551 324.925 111.885C325.469 112.168 325.988 112.356 326.6 112.322C326.927 112.296 327.236 112.228 327.521 112.073C327.58 112.031 327.647 111.996 327.706 111.954C328.124 112.091 328.526 112.236 329.004 112.21C329.423 112.185 329.833 112.048 330.168 111.791C330.403 111.62 330.428 111.577 330.436 111.577C331.065 111.525 331.894 112.022 332.539 112.073C332.874 112.108 333.192 112.099 333.527 112.031C333.829 111.971 334.214 111.697 334.499 111.671C335.027 111.62 335.73 112.185 336.258 112.348C337.087 112.604 337.967 112.639 338.821 112.502C339.165 112.45 339.483 112.373 339.81 112.262C340.346 112.091 340.396 112.039 340.924 112.228C341.753 112.519 342.616 112.741 343.453 112.998C345.514 113.641 346.402 110.335 344.341 109.701Z" fill="#1E1E1E"/>
<path d="M322.294 121.878C321.674 121.33 321.088 121.099 320.25 121.108C319.84 121.108 319.32 121.228 319.027 120.825C318.273 119.815 316.858 119.643 316.137 120.825C315.945 121.133 315.76 121.442 315.509 121.716C315.467 121.758 314.998 122.092 315.182 122.101C314.68 122.084 314.035 121.21 313.616 120.962C312.25 120.131 310.374 120.5 309.335 121.75C309.21 121.613 309.093 121.484 309.059 121.45C308.448 120.791 307.585 120.405 306.688 120.602C305.817 120.791 305.306 121.39 304.737 122.024C304.686 122.075 304.485 122.289 304.393 122.384C304.326 122.384 304.268 122.341 304.226 122.238C303.045 121.279 302.19 120.157 300.515 120.32C299.46 120.423 298.722 121.056 297.91 121.673C297.508 121.981 296.679 122.769 296.109 122.478C295.908 122.375 295.657 121.878 295.539 121.724C295.288 121.416 295.012 121.125 294.677 120.919C293.73 120.345 292.758 120.56 291.812 120.988C290.296 121.664 288.788 122.384 287.288 123.094C286.761 122.769 286.032 122.76 285.521 123.06C284.675 123.565 284.549 124.559 284.918 125.406C285.027 125.646 285.127 125.886 285.236 126.126C285.63 127.025 286.777 127.093 287.531 126.742C288.587 126.246 289.651 125.758 290.706 125.261C291.485 124.901 292.331 124.379 293.177 124.088C293.487 124.405 293.906 125.064 294.182 125.261C294.936 125.809 295.824 126.014 296.746 125.92C297.726 125.817 298.597 125.389 299.393 124.807C299.669 124.602 300.548 123.702 300.825 123.719C301.135 123.737 301.646 124.464 301.88 124.67C302.416 125.15 303.011 125.603 303.723 125.775C304.569 125.972 305.457 125.8 306.178 125.312C306.529 125.072 306.839 124.773 307.124 124.456C307.141 124.439 307.158 124.422 307.166 124.405C307.275 124.55 307.392 124.687 307.518 124.79C308.146 125.329 308.95 125.569 309.763 125.398C310.424 125.252 310.935 124.876 311.446 124.447C311.605 124.31 311.798 124.071 311.991 123.968C312.51 124.19 312.929 124.781 313.423 125.055C314.127 125.449 314.948 125.612 315.735 125.449C316.606 125.269 317.31 124.764 317.896 124.122C318.014 124.182 318.131 124.25 318.256 124.302C318.667 124.464 319.102 124.559 319.546 124.576C319.773 124.584 320.024 124.542 320.258 124.55C321.842 125.424 323.827 123.223 322.294 121.878Z" fill="#1E1E1E"/>
<path d="M308.573 135.401C307.66 133.303 305.055 133.072 303.153 133.637C302.333 133.885 301.168 134.553 300.331 134.074C299.937 133.851 299.652 133.474 299.25 133.251C298.597 132.9 297.759 132.858 297.106 133.234C297.005 133.294 296.519 133.663 296.243 133.945C295.414 133.055 294.224 132.96 293.219 133.628C292.741 133.945 292.331 134.339 291.828 134.613C291.778 134.639 291.711 134.647 291.669 134.656C291.585 134.579 291.435 134.442 291.384 134.399C290.346 133.466 289.006 133.303 287.933 134.288C286.627 135.487 287.95 137.311 289.357 137.156L289.374 137.173C289.609 137.379 289.86 137.585 290.136 137.73C290.773 138.073 291.502 138.141 292.197 138.021C293.085 137.876 293.688 137.388 294.35 136.934C294.467 137.045 294.584 137.139 294.718 137.225C295.179 137.516 295.707 137.662 296.243 137.644C296.745 137.627 297.282 137.456 297.717 137.199C297.91 137.079 298.111 136.934 298.287 136.78C298.362 136.84 298.437 136.899 298.521 136.951C298.881 137.182 299.284 137.362 299.694 137.482C300.649 137.756 301.662 137.662 302.609 137.396C303.321 137.199 305.273 136.18 305.692 137.122C306.06 137.97 307.266 138.167 307.987 137.739C308.824 137.233 308.942 136.249 308.573 135.401Z" fill="#1E1E1E"/>
<path d="M352.751 154.394C352.441 151.345 351.335 148.614 348.973 146.636C346.494 144.555 343.428 143.621 340.387 142.773C338.645 142.294 337.749 144.512 338.712 145.591C338.444 145.514 338.142 145.514 337.807 145.617C333.242 147.089 329.716 150.866 328.225 155.49C326.65 160.371 327.73 166.357 332.58 168.789C334.733 169.868 337.112 170.245 339.483 170.433C342.205 170.639 345.07 170.51 347.424 168.943C352.081 165.835 353.279 159.703 352.751 154.394ZM346.72 165.15C345.229 166.657 343.344 167.102 341.3 167.093C339.391 167.085 337.43 166.897 335.596 166.34C333.904 165.826 332.379 164.876 331.567 163.223C330.721 161.51 330.721 159.412 331.131 157.58C332.028 153.623 334.859 150.155 338.695 148.922C340.061 148.485 340.128 146.867 339.399 146.036C339.432 146.045 339.458 146.062 339.491 146.07C343.386 147.149 348.052 148.502 349.158 153.041C350.104 156.937 349.627 162.212 346.72 165.15Z" fill="#1E1E1E"/>
<path d="M389.675 85.2022C384.255 84.7998 378.827 84.6371 373.399 84.7141C371.246 84.7484 371.238 88.1737 373.399 88.1395C378.827 88.0624 384.255 88.2251 389.675 88.6276C390.579 88.6961 391.35 87.7884 391.35 86.9149C391.35 85.9387 390.579 85.2708 389.675 85.2022Z" fill="#1E1E1E"/>
<path d="M380.234 92.4119C377.964 91.9923 375.719 91.9751 373.449 92.3434C373.064 92.4033 372.637 92.7972 372.444 93.1312C372.235 93.4994 372.143 94.0389 372.277 94.4499C372.411 94.861 372.662 95.2635 373.047 95.4776C373.466 95.7088 373.868 95.7259 374.337 95.6488C374.379 95.6403 374.421 95.6317 374.471 95.6317C375.912 95.4519 377.37 95.4519 378.81 95.6317C378.986 95.6574 379.171 95.6831 379.346 95.7173C379.799 95.803 380.226 95.7858 380.636 95.5461C380.98 95.3405 381.315 94.9295 381.407 94.5185C381.583 93.6792 381.156 92.5746 380.234 92.4119Z" fill="#1E1E1E"/>
<path d="M399.5 131.461C398.52 130.922 397.54 130.836 396.46 130.948C396.074 130.99 395.689 131.007 395.304 131.033C394.969 131.059 394.893 130.811 394.994 131.119C394.65 130.108 393.553 129.697 392.715 130.023C392.674 129.946 392.632 129.869 392.607 129.8C392.355 129.209 392.029 128.678 391.534 128.267C390.822 127.668 389.876 127.574 389.164 128.267C388.929 128.498 388.159 129.32 387.874 129.252C387.966 129.278 387.639 128.618 387.522 128.438C387.329 128.13 387.061 127.839 386.751 127.642C385.889 127.077 384.85 127.18 383.97 127.625C383.744 127.745 383.208 128.019 382.957 128.284C381.474 126.46 379.497 128.207 378.082 129.226C377.872 129.38 377.445 129.586 377.16 129.809C376.867 129.312 376.373 128.858 375.92 128.653C375.183 128.31 374.505 128.379 373.893 128.918C373.014 129.697 372.134 130.468 371.255 131.247C369.621 132.686 372 135.101 373.625 133.671L374.882 132.566C374.949 132.66 375.007 132.754 375.083 132.831C375.594 133.371 376.289 133.679 377.035 133.636C377.922 133.585 378.593 133.046 379.279 132.54C379.723 132.223 380.159 131.907 380.603 131.59C380.72 131.504 380.846 131.401 380.98 131.29C381.08 131.393 381.181 131.487 381.307 131.573C381.809 131.915 382.337 132.044 382.932 132.001C383.493 131.958 384.021 131.735 384.49 131.436C384.632 131.341 384.816 131.162 385.009 131.007C385.168 131.29 385.369 131.547 385.604 131.77C386.165 132.301 386.919 132.583 387.681 132.626C388.51 132.669 389.248 132.412 389.909 132.001C389.951 132.104 390.001 132.206 390.052 132.301C390.42 132.943 390.981 133.517 391.685 133.756C392.171 133.919 392.682 133.936 393.143 133.825C393.494 134.056 393.888 134.244 394.332 134.347C394.927 134.484 395.513 134.476 396.116 134.416C396.627 134.364 397.331 134.159 397.8 134.416C399.71 135.46 401.402 132.506 399.5 131.461Z" fill="#1E1E1E"/>
<path d="M397.691 144.067C396.879 143.176 395.991 141.789 394.676 141.746C394.148 141.729 393.679 141.9 393.26 142.2C393.067 142.329 392.908 142.491 392.757 142.654C392.715 142.705 392.665 142.765 392.623 142.817C392.514 142.671 392.313 142.483 392.263 142.423C391.895 141.96 391.593 141.481 391.149 141.104C390.27 140.368 389.072 140.273 388.117 140.907C387.757 141.147 387.48 141.472 387.212 141.815C387.112 141.943 387.028 142.072 386.919 142.2C386.902 142.226 386.885 142.243 386.869 142.269C386.835 142.097 386.483 141.815 386.374 141.686C386.056 141.31 385.713 140.941 385.294 140.667C384.23 139.957 382.94 139.999 381.826 140.556C381.173 140.881 380.628 141.584 380.025 142.063C379.724 141.566 379.439 140.993 379.187 140.59C378.735 139.871 377.655 139.417 376.892 139.974C375.376 141.095 373.868 142.217 372.352 143.339C371.623 143.879 371.263 144.829 371.749 145.685C372.168 146.422 373.307 146.85 374.044 146.302C375.108 145.514 376.163 144.726 377.227 143.938C377.923 145.077 378.81 146.105 380.176 145.78C380.988 145.583 381.658 145.035 382.27 144.495C382.496 144.298 383.133 143.502 383.485 143.553C383.694 143.587 384.046 144.195 384.188 144.358C384.456 144.666 384.733 144.94 385.059 145.18C385.746 145.685 386.567 145.968 387.413 145.797C388.092 145.66 388.661 145.317 389.13 144.812C389.256 144.675 389.415 144.512 389.549 144.341C390.228 145.146 390.789 146.011 391.962 146.285C392.657 146.448 393.402 146.396 394.039 146.054C394.223 145.959 394.399 145.788 394.575 145.608C394.843 145.917 395.094 146.259 395.321 146.508C396.795 148.1 399.157 145.677 397.691 144.067Z" fill="#1E1E1E"/>
<path d="M395.798 155.576C394.432 155.234 393.369 154.189 391.878 154.258C391.484 154.275 391.032 154.377 390.663 154.566C390.395 154.343 389.775 154.052 389.65 154.009C389.281 153.872 388.929 153.821 388.535 153.855C387.89 153.907 387.346 154.506 386.827 154.549C386.559 154.566 386.123 154.181 385.905 154.061C385.553 153.864 385.193 153.684 384.816 153.538C384.071 153.264 383.258 153.179 382.496 153.418C382.127 153.538 381.792 153.744 381.499 153.992C381.139 153.65 380.737 153.401 380.05 153.418C379.43 153.436 378.861 153.752 378.408 154.163C378.174 154.377 377.922 154.9 377.579 154.943C377.277 154.977 377.16 154.754 376.951 154.583C376.523 154.232 376.088 153.949 375.535 153.872C374.84 153.778 374.22 154.026 373.617 154.343C373.491 154.403 372.679 154.908 372.612 154.874C370.702 153.855 369.01 156.809 370.92 157.829C372.461 158.651 373.692 158.077 375.049 157.417C375.141 157.495 375.225 157.58 375.326 157.64C375.543 157.803 375.753 157.923 376.004 158.034C376.557 158.282 377.16 158.394 377.763 158.351C378.333 158.308 378.919 158.154 379.413 157.854C379.648 157.709 379.882 157.529 380.084 157.332C380.502 157.7 381.022 157.897 381.566 157.888C382.127 157.88 382.647 157.649 383.066 157.272C383.183 157.169 383.702 156.647 383.493 156.681C383.853 156.63 384.381 157.101 384.674 157.263C385.143 157.52 385.654 157.777 386.173 157.897C386.785 158.034 387.413 158.017 388.008 157.803C388.259 157.717 388.502 157.537 388.736 157.392C388.812 157.452 388.887 157.52 388.971 157.58C389.222 157.769 389.465 157.923 389.775 158.025C390.596 158.3 391.107 157.991 391.878 157.786C392.774 157.555 393.989 158.625 394.927 158.865C396.996 159.413 397.892 156.107 395.798 155.576Z" fill="#1E1E1E"/>
<path d="M396.409 165.047C394.223 164.319 391.936 164.165 389.675 164.542C388.703 164.705 387.539 165.347 386.575 165.056C385.495 164.73 384.59 164.619 383.484 164.902C382.756 165.09 381.943 165.578 381.181 165.467C380.662 165.39 380.209 165.039 379.673 164.962C379.087 164.884 378.542 164.979 378.006 165.227C377.721 165.355 377.512 165.51 377.21 165.527C376.817 165.544 376.39 165.355 375.987 165.338C375.468 165.313 374.949 165.381 374.48 165.621C374.304 165.715 374.145 165.818 373.994 165.938C373.458 165.253 372.57 164.936 371.774 165.415C371.045 165.852 370.643 167 371.171 167.762C371.849 168.738 372.729 169.671 373.994 169.671C374.547 169.671 375.074 169.44 375.502 169.106C375.619 169.021 375.753 168.841 375.895 168.712C375.92 168.738 376.029 168.755 376.113 168.798C377.169 169.269 378.216 168.798 379.196 168.447C379.271 168.421 379.313 168.404 379.363 168.387C379.372 168.404 379.397 168.421 379.455 168.438C379.749 168.515 380.008 168.695 380.301 168.781C380.896 168.944 381.491 168.944 382.094 168.849C383.007 168.704 383.937 168.13 384.858 168.139C385.369 168.147 385.889 168.455 386.408 168.532C387.003 168.627 387.589 168.575 388.175 168.447C389.415 168.181 390.546 167.77 391.836 167.753C393.109 167.728 394.315 167.95 395.522 168.353C397.574 169.029 398.453 165.724 396.409 165.047Z" fill="#1E1E1E"/>
<path d="M401.041 184.401C399.174 184.135 397.213 184.169 395.287 184.178C395.337 183.287 394.809 182.337 393.679 182.32C386.944 182.217 380.209 182.405 373.483 182.868C372.796 182.919 372.008 183.365 371.866 184.127C371.472 186.302 371.196 188.494 371.062 190.695C370.995 191.791 370.97 192.887 370.978 193.983C370.986 195.011 370.978 196.064 371.59 196.937C372.729 198.539 375.309 198.667 377.059 198.744C379.304 198.847 381.566 198.821 383.811 198.856C388.225 198.916 392.648 198.984 397.063 199.044C399.014 199.07 401.485 199.378 402.03 196.886C402.507 194.668 402.574 192.262 402.834 190.001C403.069 187.989 403.889 184.803 401.041 184.401ZM399.559 189.376C399.442 190.369 399.333 191.354 399.215 192.348C399.098 193.341 398.989 194.326 398.872 195.319C398.855 195.43 398.847 195.533 398.838 195.644C398.797 195.653 398.771 195.644 398.721 195.653C398.378 195.533 397.825 195.636 397.481 195.636C393.611 195.576 389.75 195.525 385.88 195.465C383.945 195.439 382.01 195.405 380.083 195.379C378.291 195.353 376.364 195.507 374.622 194.968C374.513 194.934 374.438 194.908 374.362 194.891C374.362 194.497 374.32 193.683 374.32 193.581C374.32 192.622 374.354 191.662 374.404 190.703C374.496 189.196 374.681 187.706 374.915 186.216C380.544 185.865 386.19 185.711 391.827 185.745C391.785 186.627 392.322 187.561 393.436 187.595C394.692 187.629 395.94 187.663 397.197 187.698C397.758 187.715 398.311 187.732 398.872 187.74C399.165 187.749 399.45 187.758 399.743 187.766C399.726 187.877 399.718 187.997 399.701 188.109C399.659 188.52 399.609 188.948 399.559 189.376Z" fill="#1E1E1E"/>
<path d="M463.045 66.003C446.862 63.8108 430.511 63.1086 414.21 63.8964C412.065 63.9992 412.049 67.4245 414.21 67.3218C430.511 66.5339 446.862 67.2361 463.045 69.4283C463.941 69.5482 464.72 68.5549 464.72 67.7157C464.72 66.6881 463.941 66.1229 463.045 66.003Z" fill="#1E1E1E"/>
<path d="M436.349 76.0907C430.192 74.5493 423.809 74.1211 417.51 74.8918C416.613 75.0031 415.834 75.6026 415.834 76.6045C415.834 77.4437 416.605 78.4285 417.51 78.3172C423.516 77.5807 429.58 77.9233 435.452 79.3962C437.555 79.9185 438.443 76.6216 436.349 76.0907Z" fill="#1E1E1E"/>
<path d="M442.363 112.433C442.866 112.176 442.824 112.348 442.246 112.074C441.961 111.937 441.659 111.791 441.358 111.697C440.537 111.449 439.75 111.586 438.979 111.928C438.309 112.228 437.664 112.45 436.927 112.373C436.173 112.296 435.57 111.868 434.841 111.714C434.456 111.628 434.037 111.628 433.651 111.723C433.266 111.817 432.898 112.176 432.537 112.236C431.976 112.331 431.566 111.637 431.03 111.466C430.653 111.346 430.284 111.329 429.899 111.406C429.497 111.483 429.069 111.86 428.701 111.902C428.182 111.954 427.578 111.363 427.21 111.055C426.322 110.292 425.066 110.549 424.571 111.474C424.563 111.466 424.555 111.457 424.546 111.449C424.295 111.183 424.119 110.926 423.801 110.712C423.097 110.241 422.226 110.173 421.48 110.601C421.187 110.772 420.986 110.986 420.768 111.217C420.71 111.097 420.45 110.9 420.366 110.755C420.165 110.404 420.065 110.001 419.947 109.616C419.294 107.518 416.061 108.417 416.714 110.524C417.183 112.048 417.828 113.581 419.319 114.292C420.04 114.634 420.844 114.745 421.623 114.566C421.983 114.48 422.243 114.3 422.477 114.095C422.687 114.334 422.904 114.574 423.189 114.737C423.834 115.105 424.613 115.268 425.342 115.114C425.752 115.028 426.104 114.865 426.423 114.643C426.808 114.874 427.21 115.071 427.646 115.182C428.173 115.328 428.743 115.362 429.279 115.251C429.589 115.191 429.865 115.045 430.15 114.917C430.234 114.968 430.318 115.019 430.359 115.054C430.644 115.251 430.979 115.413 431.306 115.516C431.976 115.722 432.738 115.73 433.417 115.533C433.685 115.456 434.012 115.174 434.288 115.114C434.255 115.165 434.715 115.293 434.807 115.336C435.536 115.627 436.298 115.782 437.077 115.807C437.781 115.824 438.535 115.722 439.205 115.508C439.607 115.379 440.101 115.011 440.487 115.028C440.922 115.045 441.542 115.576 441.978 115.687C442.723 115.876 443.351 115.747 444.022 115.405C445.99 114.42 444.29 111.457 442.363 112.433Z" fill="#1E1E1E"/>
<path d="M481.347 112.991C478.868 112.537 476.539 112.794 474.202 113.736C473.8 113.899 473.616 113.941 473.214 113.899C472.602 113.83 472.075 113.676 471.455 113.821C471.254 113.873 471.069 113.941 470.894 114.027C470.265 113.659 469.57 113.436 468.799 113.505C468.406 113.539 467.275 113.821 467.007 114.284C466.546 113.659 465.616 113.059 464.913 112.897C464.377 112.768 463.79 112.845 463.296 113.102C463.062 113.222 462.869 113.428 462.685 113.625C462.643 113.573 462.601 113.539 462.559 113.488C462.333 113.213 462.14 112.922 461.889 112.674C461.261 112.049 460.473 111.655 459.585 111.681C458.84 111.706 458.17 112.075 457.667 112.623C457.55 112.742 457.407 112.905 457.282 113.076C457.114 112.897 456.947 112.708 456.746 112.571C456.193 112.186 455.581 111.989 454.92 112.032C454.233 112.083 453.621 112.451 453.236 113.034C453.085 113.265 452.985 113.53 452.884 113.779C451.745 114.669 452.055 116.964 453.822 116.853C454.492 116.81 455.054 116.57 455.456 116.039C455.472 116.057 455.489 116.074 455.498 116.091C455.916 116.468 456.369 116.716 456.913 116.836C457.835 117.033 458.714 116.639 459.342 115.954C459.351 115.945 459.585 115.671 459.786 115.414C459.803 115.431 459.803 115.449 459.828 115.466C460.532 116.331 461.294 117.178 462.467 117.281C463.011 117.332 463.573 117.238 464.042 116.939C464.184 116.844 464.335 116.724 464.46 116.596C464.745 116.861 465.03 117.127 465.348 117.35C466.027 117.829 466.881 118.069 467.694 117.846C467.962 117.778 468.255 117.624 468.49 117.478C468.657 117.375 468.933 117.033 469.126 116.947C469.135 116.947 469.135 116.947 469.151 116.956C469.377 116.998 469.754 117.401 469.913 117.547C470.743 118.326 471.932 118.077 472.477 117.255C472.569 117.273 472.661 117.298 472.753 117.315C473.138 117.384 473.49 117.418 473.876 117.384C474.621 117.315 475.249 116.956 475.945 116.707C477.385 116.194 478.927 116.048 480.434 116.322C481.322 116.485 482.244 116.074 482.495 115.123C482.738 114.267 482.244 113.154 481.347 112.991Z" fill="#1E1E1E"/>
<path d="M468.221 130.596C467.794 130.168 467.359 129.739 466.931 129.303C466.328 128.703 465.089 128.695 464.561 129.423C464.159 129.988 463.505 130.33 462.835 129.971C462.433 129.757 462.09 129.26 461.713 128.977C461.152 128.558 460.49 128.309 459.786 128.318C458.664 128.327 457.818 128.977 456.846 129.431C456.729 129.483 456.545 129.585 456.394 129.611C456.36 129.602 456.302 129.577 456.235 129.517C455.849 129.174 455.422 128.849 454.953 128.626C453.805 128.095 452.591 128.395 451.678 129.243C451.494 129.414 450.932 129.885 450.773 130.185C450.363 129.774 450.003 129.054 449.626 128.626C448.905 127.821 448.068 127.419 447.004 127.367C446.032 127.325 445.454 128.309 445.412 129.166C445.429 128.823 445.119 129.08 444.776 128.909C444.114 128.583 443.67 127.719 443.293 127.119C442.715 126.211 441.358 126.074 440.646 126.905C440.319 127.29 439.984 127.667 439.574 127.958C439.431 128.061 439.08 128.318 438.887 128.318C438.677 128.309 438.954 128.335 438.828 128.267C438.443 128.044 438.2 127.564 437.79 127.325C437.337 127.068 436.818 126.914 436.299 126.948C435.385 126.991 434.657 127.53 434.012 128.138C433.786 128.352 433.459 128.72 433.182 128.977C432.445 128.601 431.541 128.575 430.72 128.952C430.418 129.089 430.025 129.268 429.79 129.508C429.731 129.568 429.581 129.62 429.572 129.654C429.162 129.483 428.751 128.626 428.584 128.335C427.947 127.222 426.096 127.41 425.644 128.575C425.434 128.438 425.116 128.198 425.107 128.198C424.479 127.65 423.885 127.059 423.114 126.734C421.573 126.083 419.654 126.468 418.875 128.087C417.954 129.996 420.685 131.529 421.74 129.851C421.74 129.851 421.74 129.851 421.748 129.851C422.025 130.031 422.259 130.176 422.519 130.407C423.214 131.033 423.943 131.692 424.865 131.94C425.543 132.12 426.297 132.069 426.967 131.82C427.478 132.351 428.081 132.779 428.802 132.976C429.43 133.148 430.142 133.096 430.745 132.857C431.055 132.728 431.348 132.548 431.633 132.377C431.683 132.343 431.733 132.308 431.784 132.274C432.102 132.548 432.512 132.702 432.931 132.677C434.062 132.6 434.908 132.009 435.712 131.229C435.896 131.05 436.223 130.784 436.399 130.579C437.153 131.675 438.786 131.932 439.959 131.572C440.596 131.375 441.174 131.041 441.71 130.63C442.598 131.649 443.695 132.454 445.111 132.454C446.099 132.454 446.987 132.112 447.632 131.512C447.774 131.718 447.917 131.923 448.068 132.112C448.721 132.942 449.483 133.636 450.564 133.747C451.812 133.876 452.767 133.148 453.554 132.231C453.596 132.18 453.722 132.06 453.831 131.94C454.157 132.223 454.584 132.505 454.936 132.685C456.143 133.285 457.365 132.985 458.496 132.403C458.848 132.223 459.317 131.795 459.719 131.778C459.761 131.778 459.753 131.683 459.711 131.683C459.895 131.692 460.197 132.154 460.348 132.291C461.839 133.644 464.083 133.876 465.759 132.899C465.834 132.976 465.91 133.054 465.993 133.131C467.518 134.672 469.763 132.129 468.221 130.596Z" fill="#1E1E1E"/>
<path d="M452.826 145.993C452.466 145.865 451.921 145.48 451.653 145.385C450.841 145.094 449.928 145.146 449.19 145.625C448.713 145.942 448.604 146.387 448.093 146.148C447.532 145.882 447.188 145.06 446.904 144.546C446.301 143.476 444.592 143.39 444.014 144.546C443.654 145.257 443.226 144.829 442.791 144.444C441.878 143.63 440.797 142.988 439.549 143.39C438.971 143.579 438.485 143.955 438.066 144.392C437.924 144.546 437.79 144.7 437.656 144.863C437.631 144.889 437.606 144.915 437.589 144.932C437.555 144.897 437.53 144.872 437.53 144.872C437.246 144.598 436.994 144.281 436.726 143.99C435.344 142.474 433.317 141.712 431.625 143.262C431.022 143.818 430.703 144.692 430.075 145.197C430.067 145.206 430.075 145.206 430.067 145.214C430.058 145.197 430.058 145.18 430.042 145.154C429.74 144.795 429.48 144.401 429.296 143.955C428.844 142.859 427.437 142.14 426.498 143.202C426.13 143.613 425.77 144.032 425.401 144.444C424.999 144.135 424.656 143.57 424.362 143.262C423.743 142.611 422.997 142.054 422.109 141.866C420.333 141.489 418.423 142.834 418.49 144.76C418.557 146.696 421.163 146.935 421.732 145.463C421.933 145.711 422.218 145.942 422.419 146.173C422.938 146.764 423.5 147.338 424.203 147.698C424.949 148.074 426.021 148.314 426.792 147.852C427.018 147.715 427.236 147.526 427.437 147.321C427.772 147.706 428.157 148.049 428.626 148.288C429.883 148.948 431.34 148.657 432.362 147.698C432.831 147.252 433.334 146.173 433.778 145.848C433.878 145.925 433.995 146.036 434.129 146.173C434.456 146.507 434.749 146.884 435.076 147.218C435.922 148.066 437.011 148.691 438.234 148.4C438.812 148.263 439.323 147.954 439.758 147.543C439.951 147.364 440.211 147.124 440.37 146.893C440.789 147.252 441.585 147.843 441.626 147.869C442.163 148.194 442.799 148.366 443.427 148.383C444.039 148.4 444.642 148.246 445.195 147.963C446.376 149.308 447.959 150.207 449.802 149.376C450.104 149.239 450.321 149.102 450.581 148.879L450.74 148.751C450.79 148.777 450.857 148.811 450.975 148.837L451.268 149.008C451.544 149.153 451.846 149.29 452.147 149.376C453.379 149.727 454.61 149.308 455.297 148.203C456.302 146.542 454.124 145.009 452.826 145.993Z" fill="#1E1E1E"/>
<path d="M479.588 145.882C479.01 145.292 477.779 145.146 477.218 145.882C477.167 145.942 476.707 146.473 476.405 146.756C476.405 146.747 476.397 146.73 476.388 146.73C476.179 146.345 475.919 146.011 475.576 145.745C474.638 145.035 473.582 145.129 472.627 145.574C471.89 144.624 471.027 143.75 469.754 144.016C469.017 144.17 468.364 144.624 467.71 144.983C467.434 145.137 467.141 145.351 466.831 145.531C466.672 145.274 466.512 145.017 466.353 144.761C465.876 143.973 464.862 143.664 464.058 144.144C463.187 144.658 462.324 145.18 461.453 145.694C459.593 146.807 461.277 149.762 463.145 148.648C463.547 148.409 463.949 148.169 464.351 147.929C464.963 148.794 465.725 149.462 466.94 149.179C467.635 149.017 468.263 148.58 468.883 148.229C469.201 148.049 469.545 147.809 469.897 147.612C469.98 147.724 470.072 147.826 470.156 147.938C470.458 148.314 470.759 148.683 471.061 149.059C471.656 149.796 472.812 149.633 473.431 149.059C473.465 149.025 473.566 148.957 473.674 148.88C474.026 149.522 474.705 150.036 475.383 150.215C477.126 150.669 478.541 149.642 479.563 148.297C480.149 147.578 480.283 146.593 479.588 145.882Z" fill="#1E1E1E"/>
<path d="M480.259 167.429C478.131 162.821 473.206 159.679 468.23 159.85C466.948 159.893 466.437 161.126 466.68 162.102C463.606 162.907 460.8 164.431 458.966 167.351C456.218 171.719 457.826 176.994 461.981 179.691C464.201 181.13 466.932 181.61 469.52 181.532C471.949 181.464 474.47 181.044 476.699 180.017C478.843 179.023 480.585 177.251 481.197 174.879C481.817 172.387 481.306 169.706 480.259 167.429ZM476.163 176.42C474.722 177.362 472.971 177.756 471.296 177.97C469.21 178.236 467.024 178.218 465.03 177.448C462.048 176.3 459.87 173.055 461.395 169.869C463.439 165.596 468.532 164.894 472.678 164.68C472.871 164.671 473.046 164.62 473.206 164.56C474.47 165.288 475.585 166.281 476.422 167.514C478.173 170.066 479.228 174.416 476.163 176.42Z" fill="#1E1E1E"/>
<path d="M253.924 28.4527C253.908 28.1787 253.874 27.9132 253.816 27.6477C253.38 25.6097 251.78 23.8713 249.837 23.2119C247.634 22.4669 245.104 23.0321 243.27 24.4879C243.404 24.3851 239.877 20.4288 239.542 20.0863C238.855 19.3841 238.143 18.7076 237.414 18.0567C236.987 17.68 236.619 17.2261 236.108 16.9521C235.731 16.7466 235.287 16.6438 234.868 16.7123C234.449 16.7894 234.047 17.0634 233.871 17.4573C233.402 18.5277 234.717 19.1272 235.329 19.7009C236.032 20.3689 236.694 21.0796 237.331 21.8075C238.612 23.2804 239.785 24.8561 240.958 26.4232C241.326 26.9113 241.728 27.4251 242.298 27.6306C243.42 28.0331 244.518 27.0911 245.556 26.4917C246.754 25.7981 248.279 25.5497 249.518 26.1492C250.767 26.7486 251.562 28.3585 251.026 29.6516C250.49 30.9532 248.488 31.3814 247.659 30.251C248.84 30.3623 249.686 28.7267 249.083 27.682C248.48 26.6373 246.913 26.466 245.95 27.1853C244.995 27.9046 244.643 29.2662 244.886 30.4565C245.355 32.7772 247.952 34.3358 250.214 33.7791C252.467 33.2396 254.067 30.8248 253.924 28.4527Z" fill="#1E1E1E"/>
<path d="M245.816 34.5231C245.666 33.7695 244.794 33.3328 244.108 33.5297C243.337 33.7438 242.985 34.5231 243.136 35.2767C243.412 36.681 243.689 38.094 243.664 39.5412C243.639 40.8685 243.287 42.1531 242.918 43.4204C242.24 45.7326 241.519 47.9933 240.305 50.0828C239.199 51.9838 237.8 53.6794 236.175 55.1352C235.396 55.8288 234.55 56.394 233.721 57.0191C232.573 57.884 232.649 59.6652 232.623 60.9925C232.581 63.3475 233.277 66.6015 230.286 67.1068C228.661 67.3808 226.927 67.7576 225.286 67.4236C224.892 67.3466 224.498 67.2181 224.197 66.9526C222.94 65.8736 223.443 63.4759 221.516 62.9193C220.109 62.5082 218.492 63.8698 217.236 64.3922C214.941 65.3513 212.495 66.0278 210.032 66.3618C207.569 66.6957 205.031 66.6957 202.568 66.3703C201.186 66.1905 199.712 66.0706 198.456 65.4027C197.258 64.769 196.579 62.6881 194.996 63.8184C194.41 64.238 194.091 64.9574 193.999 65.6767C193.899 66.396 193.999 67.1325 194.1 67.8518C191.771 67.9631 189.434 67.7662 187.156 67.2695C187.038 67.2438 186.904 67.2095 186.829 67.1068C186.754 67.004 186.745 66.867 186.745 66.7385L186.762 62.8336C186.762 62.0458 186.745 61.1038 186.31 60.4188C185.832 59.6652 184.777 59.1942 184.065 58.6804C182.272 57.3873 180.471 56.0686 178.947 54.4501C177.849 53.2855 176.911 51.9838 176.14 50.5709C175.747 49.8515 175.403 49.1151 175.11 48.353C174.792 47.5223 174.507 46.8115 173.594 46.5632C173.125 46.4347 172.631 46.4433 172.145 46.4604L170.277 46.5033C170.193 46.5033 170.101 46.5033 170.034 46.4519C169.984 46.4091 169.959 46.3406 169.933 46.2806C169.691 45.664 169.506 45.0475 169.381 44.3967C169.339 44.1911 169.071 41.9304 169.188 41.9304C169.774 41.8962 170.369 41.5365 170.495 40.9114C170.821 39.2158 171.19 37.5374 171.609 35.8675C171.776 35.2081 171.441 34.446 170.821 34.1805C170.939 33.8209 171.056 33.4612 171.173 33.1016C171.399 32.425 171.525 31.6201 172.002 31.0806C172.966 29.993 174.591 31.4916 175.747 31.0892C176.216 30.9265 176.568 30.5154 176.794 30.0701C177.129 29.4364 177.288 28.7085 177.673 28.1005C178.251 27.1757 178.796 26.2423 179.391 25.326C180.907 23.0139 182.574 20.8045 184.383 18.7322C184.475 18.6294 184.567 18.5267 184.659 18.4239C185.397 17.5847 186.192 16.7112 186.41 15.6066C186.552 14.8958 186.435 14.1679 186.301 13.4571C185.79 10.7768 185.003 8.14784 183.956 5.6302C186.016 5.22772 188.27 6.13544 189.509 7.87381C190.389 9.1155 190.766 10.6826 191.696 11.8729C192.634 13.0718 194.586 13.714 195.574 12.558C195.641 12.4809 195.968 14.9472 195.968 15.1784C195.968 16.1032 196.068 16.9853 196.755 17.6703C197.099 18.0129 197.618 18.2098 198.062 18.0471C198.481 17.893 198.757 17.4648 198.849 17.0281C199.226 15.2983 198.564 12.9605 198.171 11.282C197.936 10.2887 197.651 9.3039 197.325 8.33623C197.199 7.97657 196.521 5.55313 196.177 5.50175C198.623 5.89567 200.826 7.59122 201.882 9.87764C202.317 10.8282 202.635 11.95 203.523 12.4724C204.411 12.9947 205.919 12.087 205.4 11.1793C207.058 11.0166 208.734 10.9053 210.4 10.9395C210.643 10.9481 210.895 10.9481 211.121 10.8539C211.372 10.7425 211.556 10.5199 211.724 10.3058C212.16 9.75776 212.478 8.83291 211.749 8.37049C211.506 8.21635 211.221 8.1564 210.937 8.11359C209.722 7.94232 208.457 8.03652 207.251 8.19066C206.706 8.25916 206.17 8.35336 205.626 8.46469C205.442 8.5075 204.604 8.79009 204.487 8.58457C202.476 5.18491 198.899 2.37612 195.03 2.73578C194.049 2.82998 192.894 3.34378 192.818 4.3457C192.785 4.74817 192.944 5.14209 193.103 5.51888C193.706 6.94897 194.301 8.37049 194.904 9.80057C194.586 9.92046 194.267 10.0403 193.949 10.1688C192.986 7.89094 191.595 5.75009 189.627 4.31144C187.658 2.87279 185.053 2.21341 182.741 2.95843C182.105 3.16395 181.443 3.53217 181.208 4.16586C181.016 4.69679 181.158 5.2791 181.309 5.82716C182.146 8.96136 182.976 12.0956 183.813 15.2298C180.128 19.0747 176.97 23.4592 174.474 28.1947C174.557 28.0406 172.48 28.0063 172.296 28.0492C171.533 28.2119 170.813 28.5887 170.227 29.1196C168.878 30.3527 168.434 32.4422 167.906 34.1206C167.488 35.4565 167.094 36.8095 166.826 38.1968C166.315 40.8 166.189 43.5403 166.91 46.1179C167.253 47.3425 167.739 48.8924 169.079 49.2864C169.724 49.4748 170.461 49.3891 171.115 49.3806C171.584 49.3806 172.044 49.372 172.513 49.372C173.527 51.941 174.968 54.3045 176.827 56.334C178.829 58.5091 181.275 60.1533 183.629 61.9002C183.738 61.9773 183.847 62.0629 183.906 62.1743C183.973 62.3027 183.973 62.4569 183.973 62.6024C183.956 63.9811 183.947 65.3598 183.939 66.7385C183.931 68.9222 184.651 69.6501 186.687 70.0783C189.166 70.5921 191.712 70.8233 194.251 70.7633C194.87 70.7462 195.524 70.7034 196.01 70.3095C196.789 69.6844 196.696 68.6567 196.789 67.7662C197.827 67.8518 199.067 68.6225 200.164 68.8451C202.535 69.3247 204.964 69.5302 207.377 69.436C209.789 69.3418 212.201 68.9736 214.538 68.3313C215.703 68.0059 216.85 67.612 217.964 67.1496C218.526 66.9184 219.079 66.6786 219.623 66.4131C219.916 66.2761 220.201 66.1306 220.486 65.985C220.57 66.0706 220.653 66.1477 220.779 66.2162C220.921 68.0488 222.379 69.496 224.063 70.044C226.031 70.6777 228.318 70.2495 230.303 69.9241C231.266 69.77 232.288 69.6244 233.143 69.1106C233.913 68.6482 234.483 67.9117 234.835 67.0811C235.748 64.9402 235.304 62.2171 235.522 59.9307C235.547 59.6994 235.564 59.4682 235.656 59.2627C235.798 58.9287 236.1 58.689 236.384 58.4663C237.658 57.4644 238.906 56.5139 239.986 55.2893C241.251 53.8506 242.349 52.2579 243.236 50.5452C244.577 47.9419 245.573 44.9447 246.101 42.0503C246.579 39.4727 246.311 37.0578 245.816 34.5231Z" fill="#1E1E1E"/>
<path d="M248.246 25.8926C248.38 25.9178 248.313 25.901 248.246 25.8926V25.8926Z" fill="#1E1E1E"/>
<path d="M185.455 33.2648C184.877 32.1173 183.57 31.6206 182.372 31.6634C181.752 31.6806 181.074 31.8176 180.546 32.1772C179.976 32.5626 179.491 33.1449 179.34 33.8385C179.315 33.967 179.298 34.0869 179.29 34.2153C179.038 34.7634 178.971 35.4056 179.105 35.9965C179.415 37.4095 180.923 38.0774 182.213 38.1545C183.444 38.223 184.6 37.5893 185.312 36.5788C185.974 35.6112 185.974 34.301 185.455 33.2648Z" fill="#1E1E1E"/>
<path d="M233.897 23.7271C230.864 20.2162 226.199 18.4692 222.48 17.3389C217.789 15.9173 212.863 15.2151 207.796 15.2579C206.514 15.2665 206.489 16.551 206.489 16.7052C206.489 16.9364 206.564 18.0753 207.762 18.0753C207.77 18.0753 207.77 18.0753 207.779 18.0753C207.913 18.0753 208.047 18.0753 208.181 18.0753C212.696 18.0753 217.127 18.7004 221.349 19.9421C225.252 21.0896 229.239 22.5882 232.029 25.808C232.339 26.1677 232.674 26.3047 233.051 26.2277C233.545 26.1249 234.014 25.671 234.198 25.1144C234.307 24.7719 234.349 24.2495 233.897 23.7271Z" fill="#1E1E1E"/>
<path d="M349.978 280.404C349.97 280.404 349.962 280.404 349.953 280.404C347.189 280.353 344.14 279.617 341.359 278.332C340.731 278.041 340.446 277.279 340.731 276.636C341.015 275.994 341.761 275.703 342.389 275.994C344.86 277.133 347.566 277.793 349.995 277.835C350.69 277.852 351.243 278.435 351.226 279.146C351.218 279.848 350.665 280.404 349.978 280.404ZM357.802 277.904C357.442 277.904 357.082 277.75 356.839 277.441C356.395 276.893 356.47 276.088 356.998 275.635C357.073 275.566 357.149 275.498 357.224 275.429C358.924 273.853 360.139 271.653 360.75 269.058C360.91 268.364 361.588 267.945 362.267 268.107C362.945 268.27 363.356 268.964 363.196 269.657C362.476 272.757 360.993 275.412 358.916 277.33C358.815 277.424 358.715 277.519 358.606 277.604C358.372 277.801 358.087 277.904 357.802 277.904ZM335.244 273.348C334.875 273.348 334.515 273.185 334.264 272.869C332.262 270.317 331.072 267.379 330.821 264.382C330.763 263.672 331.273 263.055 331.969 262.995C332.672 262.935 333.267 263.457 333.326 264.168C333.535 266.66 334.54 269.109 336.224 271.267C336.66 271.824 336.576 272.629 336.031 273.074C335.797 273.262 335.52 273.348 335.244 273.348ZM361.848 262.156C361.287 262.156 360.776 261.77 360.633 261.18C360.013 258.662 358.883 256.221 357.266 253.926C356.855 253.353 356.989 252.548 357.551 252.137C358.112 251.726 358.899 251.854 359.301 252.428C361.111 254.988 362.376 257.72 363.071 260.554C363.238 261.24 362.828 261.942 362.158 262.113C362.057 262.147 361.948 262.156 361.848 262.156ZM333.853 257.309C333.661 257.309 333.468 257.266 333.284 257.172C332.664 256.846 332.421 256.076 332.731 255.442C333.895 253.113 335.554 250.758 337.824 248.24C338.293 247.718 339.089 247.684 339.6 248.163C340.111 248.643 340.144 249.456 339.675 249.979C337.564 252.325 336.031 254.492 334.976 256.615C334.75 257.052 334.306 257.309 333.853 257.309ZM427.059 256.709C426.389 256.709 425.836 256.179 425.803 255.485C425.769 254.774 426.305 254.175 427 254.14C429.84 254.003 432.579 253.687 435.151 253.207C435.838 253.079 436.491 253.541 436.608 254.243C436.726 254.945 436.282 255.613 435.595 255.733C432.914 256.23 430.058 256.555 427.109 256.701C427.101 256.709 427.076 256.709 427.059 256.709ZM418.683 256.667C418.657 256.667 418.641 256.667 418.616 256.667C415.935 256.521 413.095 256.247 410.18 255.845C409.493 255.75 409.008 255.108 409.1 254.406C409.192 253.704 409.829 253.207 410.507 253.301C413.355 253.687 416.128 253.961 418.75 254.098C419.445 254.132 419.973 254.74 419.939 255.451C419.906 256.136 419.344 256.667 418.683 256.667ZM402.08 254.474C402.005 254.474 401.921 254.466 401.837 254.449C399.567 254.003 397.264 253.498 394.768 252.907C394.374 252.813 393.98 252.719 393.586 252.616C392.916 252.445 392.506 251.751 392.665 251.058C392.833 250.373 393.511 249.953 394.19 250.116C394.575 250.21 394.952 250.304 395.337 250.398C397.8 250.981 400.078 251.477 402.315 251.923C402.993 252.06 403.437 252.727 403.312 253.43C403.203 254.046 402.675 254.474 402.08 254.474ZM443.427 253.455C442.941 253.455 442.472 253.164 442.271 252.676C442.003 252.025 442.296 251.272 442.933 250.989C444.775 250.193 446.292 249.242 447.582 248.103C448.16 247.589 448.704 247.016 449.207 246.408C449.651 245.86 450.446 245.791 450.974 246.245C451.51 246.699 451.577 247.512 451.133 248.052C450.547 248.771 449.91 249.439 449.223 250.039C447.741 251.357 445.998 252.436 443.913 253.344C443.762 253.421 443.594 253.455 443.427 253.455ZM385.838 250.304C385.713 250.304 385.587 250.287 385.461 250.244C384.029 249.79 382.588 249.319 381.147 248.84C379.924 248.437 378.701 248.035 377.478 247.641C376.817 247.427 376.448 246.707 376.658 246.031C376.867 245.354 377.571 244.978 378.232 245.192C379.464 245.586 380.687 245.988 381.918 246.391C383.35 246.862 384.783 247.333 386.215 247.786C386.877 248 387.245 248.72 387.044 249.396C386.868 249.953 386.374 250.304 385.838 250.304ZM352.366 248.454C352.114 248.454 351.855 248.377 351.628 248.215C351.377 248.035 351.126 247.855 350.866 247.675C349.266 246.588 347.49 245.628 345.589 244.815C344.994 245.063 344.291 244.806 343.989 244.207C343.922 244.078 343.88 243.933 343.863 243.796C343.696 243.479 343.654 243.094 343.796 242.725C344.048 242.058 344.768 241.732 345.421 241.98C345.455 241.998 345.488 242.006 345.53 242.023C347.449 241.218 349.677 240.764 352.466 240.61C352.709 240.593 352.96 240.585 353.203 240.576C353.22 240.576 353.237 240.576 353.245 240.576C353.915 240.576 354.476 241.124 354.502 241.818C354.527 242.528 353.982 243.119 353.287 243.145C353.052 243.154 352.826 243.162 352.592 243.179C351.268 243.248 350.087 243.393 349.032 243.625C350.163 244.215 351.235 244.858 352.257 245.543C352.541 245.731 352.818 245.928 353.094 246.134C353.656 246.545 353.781 247.35 353.379 247.923C353.145 248.266 352.759 248.454 352.366 248.454ZM369.814 245.32C369.713 245.32 369.604 245.303 369.504 245.277C366.564 244.507 363.925 243.959 361.437 243.607C360.75 243.513 360.273 242.862 360.365 242.16C360.457 241.458 361.102 240.97 361.781 241.064C364.361 241.432 367.092 241.998 370.124 242.794C370.794 242.974 371.204 243.667 371.028 244.361C370.878 244.935 370.375 245.32 369.814 245.32ZM295.213 242.469C294.626 242.469 294.107 242.049 293.981 241.441C293.839 240.747 294.283 240.071 294.961 239.925C297.625 239.377 300.448 238.94 303.371 238.649C304.058 238.581 304.678 239.095 304.745 239.805C304.812 240.508 304.309 241.141 303.614 241.21C300.783 241.492 298.035 241.912 295.455 242.443C295.38 242.46 295.296 242.469 295.213 242.469ZM336.919 242.22C336.844 242.22 336.768 242.212 336.693 242.203C334.473 241.792 332.145 241.501 329.573 241.312L328.518 241.235C327.822 241.184 327.303 240.576 327.353 239.865C327.404 239.155 328.007 238.624 328.694 238.666L329.757 238.743C332.421 238.94 334.834 239.24 337.145 239.668C337.832 239.797 338.285 240.465 338.159 241.158C338.042 241.783 337.514 242.22 336.919 242.22ZM453.906 240.927C453.797 240.927 453.688 240.91 453.571 240.884C452.901 240.696 452.507 239.994 452.691 239.309C453.345 236.885 453.671 234.179 453.671 231.285V231.173C453.671 230.463 454.233 229.889 454.928 229.889C455.623 229.889 456.184 230.463 456.184 231.173V231.285C456.184 234.41 455.824 237.339 455.112 239.985C454.961 240.559 454.459 240.927 453.906 240.927ZM320.233 240.79C320.216 240.79 320.208 240.79 320.191 240.79C317.218 240.687 314.579 240.662 311.882 240.722C311.178 240.73 310.617 240.174 310.6 239.463C310.583 238.752 311.136 238.17 311.832 238.153C314.571 238.093 317.251 238.118 320.275 238.221C320.97 238.247 321.515 238.838 321.49 239.548C321.465 240.242 320.903 240.79 320.233 240.79ZM454.526 223.912C453.864 223.912 453.303 223.381 453.269 222.696C453.118 219.844 452.968 217.429 452.423 214.364C452.298 213.67 452.75 212.993 453.437 212.873C454.124 212.745 454.777 213.207 454.894 213.91C455.464 217.121 455.631 219.63 455.782 222.567C455.816 223.278 455.288 223.877 454.593 223.92C454.568 223.912 454.551 223.912 454.526 223.912Z" fill="#1E1E1E"/>
<path d="M461.453 210.921C459.384 208.609 457.449 206.169 455.648 203.634C455.012 202.743 454.375 201.844 453.805 200.902C453.713 200.748 453.629 200.602 453.537 200.448C453.219 199.917 452.876 199.395 452.515 198.898C452.222 198.487 451.929 197.939 451.452 197.742C450.89 197.502 450.337 197.708 449.977 198.179C449.584 198.701 449.659 199.609 449.584 200.234C449.416 201.647 448.913 203.017 448.453 204.362C447.95 205.818 447.381 207.256 446.744 208.652C446.275 209.68 445.772 210.682 445.228 211.666C444.432 213.105 446.602 214.407 447.397 212.959C449.232 209.628 450.681 206.074 451.703 202.401C454.107 206.04 456.762 209.5 459.669 212.737C460.766 213.961 462.542 212.137 461.453 210.921Z" fill="#1E1E1E"/>
<path d="M362.928 279.557C360.172 285.131 353.421 285.542 348.085 284.849C347.407 284.763 346.829 285.5 346.829 286.133C346.829 286.904 347.407 287.332 348.085 287.418C354.309 288.223 361.94 287.238 365.098 280.85C365.827 279.377 363.657 278.075 362.928 279.557Z" fill="#F7C300"/>
<path d="M445.814 235.858C445.772 238.761 444.055 241.416 441.743 243.009C438.954 244.935 435.553 245.501 432.253 245.526C430.636 245.543 430.636 248.112 432.253 248.095C436.106 248.061 440.193 247.333 443.377 244.961C446.241 242.82 448.277 239.549 448.327 235.85C448.344 234.206 445.831 234.206 445.814 235.858Z" fill="#F7C300"/>
</svg>
