<svg width="326" height="15" viewBox="0 0 326 15" fill="none" xmlns="http://www.w3.org/2000/svg">
<path d="M324.732 10.7507C320.995 8.65161 317.007 6.7243 313.27 4.6252C309.542 2.69292 306.899 1.74169 302.578 3.66125C299.018 5.23224 294.705 7.31862 291.956 9.54199C291.697 9.54696 291.689 9.38014 291.429 9.38511C290.878 8.72776 289.557 8.25215 288.754 7.76659C286.882 6.63363 285.269 5.4957 283.405 4.52956C280.462 2.74919 277.276 1.30743 273.182 2.55473C269.08 3.6352 266.615 6.35407 263.331 8.25374C263.08 8.42553 262.828 8.59732 262.577 8.76912C263.339 8.42056 263.064 8.09188 262.026 8.11177C261.224 7.62621 259.918 7.48424 258.865 7.17048C257.016 6.53799 255.168 5.90549 253.32 5.273C249.096 3.85113 245.116 2.09064 241.136 0.330157C239.807 -0.312279 237.488 0.0661037 236.483 0.753278C234.74 2.28948 232.988 3.65885 231.245 5.19505C230.247 6.04905 229.25 6.90305 228.253 7.75704C228.001 7.92884 227.75 8.10063 227.507 8.43925C227.256 8.61104 227.256 8.61104 227.256 8.61104C224.888 7.98849 222.748 6.69367 220.625 5.7325C218.241 4.77631 215.85 3.65329 213.208 2.70206C208.701 0.784691 204.242 -0.13174 199.426 2.29822C195.883 4.20286 192.599 6.10253 189.056 8.00717C186.138 6.72727 183.228 5.61419 180.05 4.33926C177.14 3.22618 174.206 1.61264 170.598 2.1827C167.25 2.74779 164.234 4.80931 161.444 6.19857C159.92 6.89568 158.396 7.5928 157.131 8.28494C155.607 8.98206 154.569 9.00194 152.729 8.53627C146.682 6.98237 141.859 3.90222 135.09 3.53099C128.061 3.16474 123.277 6.26199 117.942 8.7019C116.167 9.57081 116.418 9.39901 114.562 8.5997C112.973 7.96223 111.644 7.31979 110.055 6.68233C106.877 5.4074 103.7 4.13247 100.044 3.70159C96.3955 3.43754 93.3309 4.49812 90.0069 5.56368C88.2151 6.09894 86.4234 6.63421 84.6317 7.16947C82.8399 7.70474 80.0428 8.92717 77.7161 9.13873C74.603 9.19838 70.6229 7.4379 67.9722 6.31985C65.054 5.03995 62.6224 3.08281 58.9663 2.65194C55.5696 2.21609 52.2375 3.11482 49.7078 4.49911C46.9188 5.88837 44.4295 8.10678 40.7653 7.50908C37.1092 7.0782 34.1668 5.29783 30.9972 4.18972C27.5602 2.91976 23.8799 1.98842 19.713 1.73431C12.1575 1.21117 4.46367 3.19535 0.522791 7.61227C-1.93421 10.498 4.9318 12.8711 7.3888 9.98537C10.8351 6.07886 18.3583 5.9347 24.1543 7.66039C29.9503 9.38608 34.7813 12.6331 41.5344 12.6706C44.6555 12.7778 47.4688 11.889 50.0145 10.8384C52.0415 9.79767 55.5442 7.05892 58.1869 8.01014C60.8214 8.79455 63.245 10.5849 65.8957 11.7029C68.8058 12.816 72.2348 13.9191 75.364 14.1931C78.7526 14.4621 81.5659 13.5734 84.6386 12.6796C88.4815 11.6041 92.3002 10.0281 96.1511 9.11945C99.4913 8.38754 102.693 10.1629 105.336 11.1142C107.986 12.2322 110.937 14.1794 114.326 14.4484C120.333 15.1682 125.036 10.4027 129.9 8.97371C135.535 7.36294 141.144 10.595 145.894 12.1738C148.804 13.2868 152.225 14.2232 155.582 13.8249C159.197 13.4216 162.222 11.5269 165.011 10.1377C166.535 9.44057 168.797 7.89443 170.597 7.52599C170.856 7.52102 171.351 7.01061 171.351 7.01061C171.87 7.00067 173.734 7.96681 174.261 8.12369C177.974 9.72232 181.946 11.316 185.658 12.9146C185.658 12.9146 185.918 12.9097 185.926 13.0765C187.255 13.7189 189.339 13.846 190.847 12.8152C193.125 11.6027 195.144 10.3952 197.422 9.18269C198.427 8.49551 199.7 7.97019 200.706 7.28302C201.468 6.93446 202.968 5.73688 203.998 5.55017C206.065 5.34358 209.81 7.6095 211.399 8.24697C213.782 9.20317 215.906 10.1643 218.289 11.1205C222.001 12.7192 226.533 15.137 230.57 12.722C232.589 11.5144 234.065 9.81638 235.557 8.45197C236.554 7.59798 237.803 6.57219 238.8 5.71819C245.431 8.59672 252.305 11.1366 259.666 12.9993C264.132 14.0826 266.646 12.3647 269.67 10.47C271.178 9.43919 272.67 8.07479 274.454 7.3727C275.978 6.67558 274.957 7.02911 276.278 7.50473C277.072 7.82346 278.15 8.63769 278.953 9.12324C280.825 10.2562 282.438 11.3941 284.303 12.3603C285.64 13.1695 287.253 14.3075 289.093 14.7731C293.293 15.6945 295.782 13.4761 298.563 11.9201C300.33 10.8843 302.098 9.8486 304.125 8.80789C304.125 8.80789 305.649 8.11078 306.411 7.76222C306.679 7.92407 306.946 8.08592 307.214 8.24778C310.95 10.3469 314.939 12.2742 318.675 14.3733C323.191 16.4575 328.469 12.8498 324.732 10.7507Z" fill="#F7C300"/>
</svg>
