<svg width="325" height="15" viewBox="0 0 325 15" fill="none" xmlns="http://www.w3.org/2000/svg">
<path d="M4.51082 7.44412C3.5275 6.58587 2.54418 5.72763 1.5919 4.83171C-0.312655 3.03987 2.29511 -0.124864 4.59065 1.64839C5.54293 2.54431 6.52625 3.40255 7.50957 4.2608C8.49289 5.11904 9.47621 5.97729 10.4285 6.8732L10.8379 7.28814L11.974 6.36534C12.9797 5.44874 13.8551 4.53834 14.7305 3.62793C14.9611 3.39898 15.1873 3.15402 15.4141 2.90842C16.5432 1.6858 17.6871 0.447153 19.4543 1.08661C20.2348 1.41377 20.9409 2.15173 21.551 2.78925C21.6684 2.912 21.7823 3.03102 21.8925 3.14267C22.5201 3.68728 23.0934 4.29776 23.686 4.92878C23.9896 5.25212 24.2984 5.58086 24.622 5.90888C24.7538 6.04241 24.9003 6.20524 25.0519 6.37369C25.3714 6.72865 25.7133 7.10859 25.9868 7.29198C26.3621 7.51741 26.3676 7.71501 26.4328 7.7372C26.484 7.75463 26.572 7.6638 26.9053 7.39312C27.5427 6.94692 28.1003 6.20586 28.6399 5.48868C28.8517 5.20711 29.0608 4.92922 29.2708 4.6743C29.3225 4.61685 29.3739 4.55958 29.425 4.50259C30.8541 2.90919 32.0869 1.53466 34.2676 2.40959C37.9906 3.97019 41.4775 6.1212 44.8465 8.56742C45.0917 8.19376 45.3681 7.78243 45.6444 7.37111C45.9207 6.95977 46.197 6.54844 46.4423 6.17478C46.6293 5.87026 46.8156 5.54692 47.0058 5.21655C47.561 4.25243 48.1507 3.22852 48.8952 2.43822C50.714 0.507458 52.7883 2.04025 54.5681 3.35539C54.7446 3.4858 54.9181 3.61406 55.0883 3.7366C55.6932 4.14223 56.2656 4.54942 56.8379 4.95661C57.4103 5.36379 57.9826 5.77098 58.5875 6.17662C58.794 6.31509 59.0729 6.54505 59.391 6.8073C60.3152 7.56935 61.5702 8.60413 62.3413 8.45974C62.6767 8.34953 63.1069 7.86655 63.4709 7.45802C63.6659 7.23906 63.8419 7.04148 63.9741 6.93414C64.2224 6.63274 64.5049 6.36592 64.7874 6.09909C65.0699 5.83226 65.3523 5.56544 65.6007 5.26404C66.1657 4.73039 66.698 4.19828 67.2304 3.66618C67.7628 3.13408 68.2951 2.60198 68.8601 2.06833C69.6052 1.16412 70.654 1.25906 71.3302 1.80611C71.3363 1.95062 71.4667 1.94442 71.4667 1.94442C72.4097 2.62358 73.3854 3.30119 74.361 3.97881C75.3366 4.65642 76.3123 5.33403 77.2553 6.01319C77.3519 6.06102 77.538 6.19949 77.7484 6.35612C78.1192 6.63212 78.5657 6.96448 78.732 6.95658C78.732 6.95658 78.9742 6.51067 79.1045 6.50447C79.713 6.27977 80.4209 5.58708 81.0497 4.97178C81.351 4.67695 81.6342 4.39988 81.8795 4.20058C82.1222 3.98601 82.3683 3.75792 82.6189 3.52563C83.7982 2.43266 85.0779 1.24661 86.5725 0.936726C88.2545 0.567172 89.9857 1.35366 91.4624 2.29706C91.9762 2.58171 92.5107 2.93137 93.061 3.29133C95.0885 4.61767 97.3299 6.0839 99.5416 4.95375C100.406 4.50032 101.254 3.68065 102.125 2.83911C103.701 1.31664 105.351 -0.27741 107.301 0.0961431C108.555 0.24938 109.702 1.19009 110.757 2.05493C111.137 2.36666 111.505 2.66853 111.861 2.92012C112.115 3.0726 112.379 3.25056 112.652 3.43441C113.821 4.22119 115.149 5.11568 116.503 4.58185C117.602 4.11587 118.694 3.46115 119.785 2.80643C120.604 2.31539 121.423 1.82435 122.245 1.41294C122.322 1.37255 122.4 1.33217 122.477 1.29195C123.921 0.538477 125.267 -0.164056 126.887 0.0338479C128.463 0.248513 130.201 1.17951 131.677 2.1229C132.237 2.51728 132.778 3.01242 133.314 3.50392C134.07 4.19588 134.818 4.88064 135.598 5.26687C136.664 5.90706 137.974 4.52132 138.972 3.46595C139.228 3.19414 139.465 2.94424 139.671 2.75652C140.937 1.82753 142.34 1.03685 143.91 1.10701C146.204 1.0958 148.076 2.36158 149.954 3.63197C150.855 4.2411 151.757 4.8513 152.708 5.32229C155.643 6.77555 159.423 6.59588 161.106 3.18551C161.391 2.58647 161.805 2.24342 162.255 2.10238C162.953 1.69533 163.871 1.65542 164.744 2.32989C165.697 3.22583 166.68 4.0841 167.663 4.94237C168.647 5.80059 169.63 6.65881 170.582 7.55471L170.992 7.96964L172.128 7.04684C173.134 6.13025 174.009 5.21984 174.884 4.30944C175.115 4.08048 175.341 3.83553 175.568 3.58993C176.697 2.36731 177.841 1.12866 179.608 1.76811C180.389 2.09527 181.095 2.83326 181.705 3.47079C181.822 3.59353 181.936 3.71254 182.046 3.82418C182.674 4.36878 183.247 4.97926 183.84 5.61027C184.143 5.93362 184.452 6.26236 184.776 6.59038C184.908 6.72393 185.054 6.88677 185.206 7.05523C185.525 7.41018 185.867 7.7901 186.141 7.97349C186.516 8.19891 186.521 8.39651 186.587 8.4187C186.638 8.43614 186.726 8.3453 187.059 8.07462C187.697 7.62842 188.254 6.88737 188.794 6.1702C189.005 5.88862 189.215 5.61073 189.425 5.3558C189.476 5.29835 189.528 5.24108 189.579 5.18409C191.008 3.59069 192.241 2.21617 194.421 3.09109C198.144 4.65169 201.631 6.8027 205 9.24892C205.246 8.87514 205.522 8.46366 205.798 8.05219C206.075 7.641 206.351 7.22982 206.596 6.85628C206.783 6.55176 206.969 6.22842 207.16 5.89805C207.715 4.93393 208.304 3.91003 209.049 3.11973C210.868 1.18897 212.942 2.72175 214.722 4.03689C214.898 4.1673 215.072 4.29556 215.242 4.4181C215.847 4.82376 216.419 5.23097 216.992 5.63818C217.564 6.04534 218.136 6.45251 218.741 6.85812C218.948 6.9966 219.227 7.22655 219.545 7.48881C220.469 8.25085 221.724 9.28563 222.495 9.14125C222.83 9.03103 223.261 8.54806 223.625 8.13953C223.82 7.92057 223.996 7.72298 224.128 7.61565C224.376 7.31424 224.659 7.0474 224.941 6.78057C225.224 6.51375 225.506 6.24694 225.755 5.94554C226.319 5.41189 226.852 4.87979 227.384 4.34769C227.917 3.81559 228.449 3.28348 229.014 2.74983C229.759 1.84562 230.808 1.94057 231.484 2.48761C231.49 2.63212 231.62 2.62592 231.62 2.62592C232.564 3.30508 233.539 3.9827 234.515 4.66031C235.49 5.33792 236.466 6.01553 237.409 6.69469C237.506 6.74252 237.692 6.881 237.902 7.03763C238.273 7.31363 238.72 7.64599 238.886 7.63808C238.886 7.63808 239.128 7.19217 239.258 7.18598C239.867 6.96127 240.575 6.26859 241.203 5.6533C241.505 5.35846 241.788 5.08138 242.033 4.88209C242.276 4.66751 242.522 4.43943 242.773 4.20715C243.952 3.11418 245.232 1.92812 246.726 1.61823C248.408 1.24868 250.139 2.03517 251.616 2.97856C252.13 3.26322 252.665 3.61287 253.215 3.97283C255.242 5.29917 257.484 6.7654 259.695 5.63526C260.559 5.18183 261.408 4.36216 262.279 3.52062C263.855 1.99815 265.505 0.404093 267.455 0.777647C268.709 0.930886 269.856 1.87161 270.91 2.73647C271.29 3.04818 271.658 3.35004 272.015 3.60162C272.269 3.75411 272.533 3.93207 272.806 4.11591C273.975 4.9027 275.303 5.79719 276.657 5.26335C277.756 4.79738 278.848 4.14265 279.939 3.48793C280.758 2.99689 281.576 2.50585 282.398 2.09444C282.476 2.05406 282.553 2.01369 282.631 1.97347C284.075 1.21999 285.421 0.517446 287.041 0.715352C288.617 0.930017 290.355 1.86102 291.831 2.80441C292.39 3.19877 292.931 3.6939 293.468 4.1854C294.224 4.87737 294.972 5.56214 295.752 5.94837C296.818 6.58857 298.128 5.20279 299.125 4.14742C299.382 3.87562 299.618 3.62574 299.824 3.43802C301.091 2.50903 302.494 1.71835 304.064 1.78851C306.358 1.7773 308.23 3.04308 310.108 4.31347C311.009 4.92261 311.911 5.5328 312.862 6.00379C315.797 7.45706 319.577 7.27739 321.26 3.86701C322.459 1.34846 325.939 3.35496 324.741 5.87352C322.815 9.7298 318.973 11.5052 315.169 11.1069C313.071 10.917 311.21 10.1367 309.466 9.06119C308.956 8.7637 308.457 8.40735 307.954 8.04838C306.872 7.27648 305.773 6.49251 304.515 6.2558C303.078 5.87401 302.019 6.96084 300.969 8.0388C300.667 8.34796 300.367 8.6564 300.058 8.92924C298.804 10.1472 297.14 10.9503 295.428 10.5973C294.139 10.3548 293.141 9.46094 292.151 8.57328C291.725 8.19176 291.301 7.81138 290.855 7.48436C290.785 7.43501 290.713 7.38419 290.64 7.33219C289.3 6.38347 287.405 5.042 285.922 5.11248C285.086 5.25607 284.134 5.8517 283.333 6.35313C283.017 6.55108 282.724 6.73435 282.471 6.86933L279.789 8.29999C279.708 8.34675 279.626 8.3935 279.545 8.44009C277.981 9.33769 276.514 10.179 274.768 9.98667C272.925 9.63989 271.312 8.55819 269.699 7.47649C269.295 7.20606 268.925 6.93409 268.554 6.66212C268.183 6.39014 267.813 6.11817 267.409 5.84774C267.272 5.74877 267.157 5.66101 267.059 5.58569C266.481 5.14412 266.462 5.1295 265.709 5.78378C265.261 6.14735 264.822 6.52704 264.384 6.90577C262.226 8.77001 260.095 10.6108 257.155 10.3896C254.995 10.2168 253.215 9.09503 251.422 7.96502C250.386 7.31251 249.346 6.65728 248.226 6.18046C247.296 5.79031 246.774 5.8151 246.017 6.43029C245.39 7.03929 244.633 7.65449 243.875 8.26969C243.534 8.57113 243.187 8.90799 242.832 9.25223C241.746 10.306 240.588 11.4289 239.325 11.8164C237.819 12.2501 236.529 11.3651 235.286 10.5121C235.038 10.342 234.792 10.1732 234.547 10.0163C234.137 9.74152 233.736 9.47565 233.342 9.21407C232.183 8.44597 231.08 7.71486 229.974 6.90333C229.096 7.74148 228.25 8.57808 227.404 9.41469C226.558 10.2513 225.712 11.0879 224.834 11.926C222.444 14.0668 220.191 13.3051 217.902 11.6764C217.056 11.1686 216.261 10.6009 215.485 10.0474C215.03 9.72319 214.582 9.40386 214.136 9.10424C213.819 8.86462 213.502 8.60017 213.181 8.33287C212.407 7.68829 211.613 7.0272 210.767 6.65803L210.642 6.80873C210.524 7.10394 210.4 7.25464 210.276 7.40534L208.804 9.64727C208.376 10.3192 207.946 10.955 207.516 11.5908C207.086 12.2266 206.656 12.8625 206.227 13.5345C205.731 14.1373 204.57 14.4821 203.894 13.9351C201.871 12.4384 199.849 10.9418 197.708 9.74037L194.897 8.13641C194.719 8.04833 194.528 7.977 194.336 7.90567C193.953 7.763 193.569 7.62034 193.296 7.34372C192.915 7.36186 192.736 7.21516 192.816 7.01457L192.639 7.23019C192.096 7.78689 191.601 8.42181 191.106 9.05673C190.115 10.3266 189.124 11.5964 187.759 12.2405C185.717 13.3512 184.097 12.125 182.596 10.6036C181.968 10.059 181.395 9.44848 180.802 8.81747C180.499 8.49412 180.19 8.16538 179.866 7.83736C179.735 7.70382 179.576 7.57156 179.412 7.43474C179.066 7.14643 178.695 6.83784 178.502 6.45425C178.436 6.45735 178.402 6.42277 178.368 6.3882C178.334 6.35362 178.3 6.31904 178.235 6.32214C176.881 8.26886 174.739 10.1083 172.97 11.4955C170.822 13.1904 169.482 12.3854 167.584 10.738C166.631 9.84211 165.648 8.98386 164.665 8.12562C164.246 7.75988 163.827 7.39414 163.41 7.02548C161.317 9.6033 158.153 10.754 155.015 10.4254C152.918 10.2355 151.056 9.45519 149.313 8.37969C148.802 8.0822 148.303 7.72584 147.8 7.36688C146.718 6.59498 145.619 5.811 144.361 5.5743C142.924 5.19251 141.865 6.27935 140.815 7.35732C140.513 7.66647 140.213 7.9749 139.904 8.24774C138.65 9.46574 136.987 10.2688 135.274 9.91584C133.985 9.6733 132.988 8.77942 131.997 7.89175C131.571 7.51024 131.147 7.12987 130.701 6.80285C130.631 6.75351 130.56 6.70269 130.486 6.65069C129.146 5.70197 127.251 4.3605 125.768 4.43098C124.932 4.57456 123.98 5.17019 123.179 5.67162C122.863 5.86957 122.57 6.05285 122.317 6.18782L119.636 7.61848C119.554 7.66524 119.472 7.71198 119.391 7.75857C117.827 8.65618 116.361 9.49746 114.614 9.30517C112.771 8.95839 111.158 7.87669 109.545 6.79499C109.142 6.52456 108.771 6.25259 108.4 5.98061C108.03 5.70864 107.659 5.43666 107.256 5.16624C107.118 5.06726 107.003 4.97951 106.905 4.90418C106.327 4.46262 106.308 4.44799 105.555 5.10228C105.108 5.46585 104.668 5.84554 104.23 6.22427C102.072 8.08851 99.9415 9.92933 97.0015 9.70805C94.8416 9.53534 93.0613 8.41353 91.2679 7.28352C90.2323 6.63101 89.1924 5.97577 88.0726 5.49896C87.1419 5.10881 86.6206 5.13359 85.8632 5.74879C85.2362 6.35772 84.4789 6.97284 83.7216 7.58796C83.3807 7.88941 83.0332 8.2265 82.6783 8.57075C81.5918 9.62451 80.4342 10.7474 79.171 11.1349C77.6651 11.5686 76.3755 10.6836 75.1324 9.83057C74.8846 9.66048 74.6385 9.49165 74.3931 9.33481C73.9833 9.06004 73.5823 8.79419 73.1878 8.53263C72.0293 7.76451 70.9266 7.03337 69.8204 6.22183C68.9419 7.05998 68.096 7.89658 67.2501 8.73319C66.4043 9.56979 65.5584 10.4064 64.6799 11.2445C62.2897 13.3853 60.0372 12.6236 57.7478 10.9949C56.9026 10.4871 56.1068 9.91944 55.3307 9.36587C54.8763 9.04169 54.4286 8.72236 53.9818 8.42274C53.6654 8.18313 53.3479 7.91869 53.027 7.65141C52.2531 7.00681 51.4594 6.3457 50.6129 5.97652L50.4887 6.12722C50.3706 6.42243 50.2465 6.57313 50.1223 6.72383L48.6506 8.96577C48.2221 9.63773 47.7921 10.2736 47.3621 10.9094C46.9321 11.5452 46.5021 12.1811 46.0736 12.853C45.5769 13.4558 44.4162 13.8006 43.74 13.2536C41.7174 11.7569 39.6948 10.2603 37.5542 9.05887L34.7435 7.45491C34.5656 7.36683 34.3739 7.2955 34.1823 7.22417C33.7989 7.0815 33.4156 6.93884 33.1426 6.66222C32.761 6.68036 32.5823 6.53366 32.6625 6.33306L32.4848 6.54869C31.9426 7.10539 31.4473 7.74031 30.9519 8.37523C29.9612 9.64507 28.9705 10.9149 27.6049 11.559C25.5627 12.6697 23.9434 11.4435 22.4422 9.92206C21.8146 9.37745 21.2412 8.76696 20.6486 8.13594C20.345 7.8126 20.0363 7.48387 19.7126 7.15585C19.5808 7.02232 19.4221 6.89006 19.2578 6.75324C18.9117 6.46493 18.5413 6.15634 18.3478 5.77275C18.2826 5.77585 18.2485 5.74127 18.2144 5.70669C18.1803 5.67211 18.1462 5.63754 18.081 5.64063C16.7273 7.58736 14.5855 9.42675 12.8163 10.814C10.6683 12.5089 9.32814 11.7039 7.42973 10.0565C6.47746 9.1606 5.49414 8.30236 4.51082 7.44412Z" fill="#59C69F"/>
</svg>
