<svg width="92" height="119" viewBox="0 0 92 119" fill="none" xmlns="http://www.w3.org/2000/svg">
<path d="M50.5798 19.235C50.3811 17.0554 48.692 14.5786 46.2081 14.7768C39.3525 15.4703 32.4969 15.5694 25.5419 15.1731C23.9522 15.074 22.5612 16.0647 21.7664 17.4517C20.5741 18.1452 19.6799 19.3341 19.5805 21.1173C19.4812 24.3867 19.3818 27.7551 19.2825 31.0245C19.1831 33.5012 18.4876 37.0678 19.3818 39.4455C21.2696 44.9935 31.3046 43.6065 35.7757 43.8047C41.0416 44.1019 47.301 45.5879 49.0894 39.2474C50.7785 32.9068 50.9772 25.7737 50.5798 19.235Z" fill="#59C59F"/>
<path d="M31.8018 85.8111C31.8018 85.712 31.9012 85.712 31.9012 85.613C32.9941 83.7306 32.4973 81.8483 31.2057 80.164C29.616 78.0836 26.9333 78.5789 24.7475 78.9752C22.8597 79.2724 20.972 79.6687 18.9848 79.9659C17.1964 80.2631 15.7061 82.4427 15.7061 84.226C15.8054 86.1083 15.5073 88.2879 16.0041 90.1702C16.4016 91.5572 17.2958 92.5479 18.3887 93.2414C19.4816 93.8359 20.5745 93.9349 21.7668 93.7368C21.7668 93.7368 21.9655 93.7368 22.0649 93.6377C22.8597 94.034 23.7539 94.4303 24.6481 94.6284C27.3308 95.2229 30.3115 94.2322 31.4044 91.5572C32.0999 89.873 31.7025 87.8916 31.4044 86.0092C31.6031 86.0092 31.7025 85.9102 31.8018 85.8111Z" fill="#F7C300"/>
<path d="M53.6598 80.263C51.9708 80.263 50.1823 80.263 48.4933 80.263C48.0958 80.263 47.7978 80.3621 47.4004 80.3621C45.0158 77.7863 39.5512 78.777 39.7499 83.2352C39.8493 86.6036 39.1538 91.2599 42.6312 93.3404C45.7113 95.1237 48.9901 93.0432 52.0701 94.133C54.8521 95.0247 57.6341 92.6469 57.6341 89.8729C57.6341 88.6841 57.7334 87.5943 57.6341 86.4055C58.6276 83.8296 57.336 80.263 53.6598 80.263Z" fill="#F7C300"/>
<path d="M81.1817 90.2694C80.983 87.0992 81.2811 83.0372 77.5055 81.8484C74.9223 81.0558 71.5441 81.4521 68.8615 81.4521C65.384 81.353 64.0924 84.6224 64.7879 87.1982C64.0924 87.6936 63.4963 88.4862 63.1982 89.4769C62.6021 91.6564 63.8937 94.5295 66.2782 94.9258C69.1596 95.4211 72.1403 96.0156 75.0216 96.5109C77.1081 96.8081 79.2939 96.4118 80.4862 94.4304C81.2811 93.1425 81.2811 91.7555 81.1817 90.2694Z" fill="#F7C300"/>
<path d="M1.79579 29.1424C1.39836 20.9195 0.802237 12.6965 0.00738499 4.47363C-0.191328 2.09593 3.68358 2.09593 3.98165 4.47363C6.66427 33.5015 7.35976 62.6284 6.06812 91.7554C5.77005 99.582 5.27327 107.31 4.57778 115.136C25.9394 114.938 47.2017 114.641 68.5634 114.443C74.6241 114.344 80.6849 114.344 86.7456 114.245C86.845 114.245 86.845 114.245 86.9443 114.245C88.1366 85.2167 88.236 56.1888 87.3417 27.26C87.143 19.6315 86.7456 11.904 86.3482 4.27549C66.1788 4.07735 46.0094 3.87921 25.8401 3.87921C19.978 3.87921 14.116 3.87921 8.25396 3.87921C5.77005 3.87921 5.77005 0.114502 8.25396 0.114502C28.9201 0.114502 49.5863 0.213572 70.2524 0.411715C75.8164 0.411715 81.281 0.510787 86.845 0.609858C87.9379 -0.182712 90.0244 0.312644 90.1237 1.99685C91.7134 31.7182 92.2102 61.5387 91.5147 91.26C91.316 99.6811 91.1173 108.201 90.7199 116.622C90.6205 118.406 88.4347 118.901 87.3417 118.009C87.143 118.108 86.9443 118.108 86.6462 118.108C65.0859 118.306 43.5255 118.604 21.8658 118.802C15.8051 118.901 9.74432 118.901 3.68357 119C2.98808 119 2.59065 118.802 2.19323 118.406C1.19966 118.406 0.305448 117.811 0.404805 116.622C2.88872 87.3962 3.28614 58.1702 1.79579 29.1424Z" fill="black"/>
<path d="M45.9099 14.9751C45.8105 14.1825 45.3137 13.3899 44.3201 13.1918C41.9356 12.6964 39.551 12.5974 37.0671 12.5974C34.4838 12.4983 31.9006 12.4983 29.3173 12.3992C24.1508 12.3001 18.8849 12.102 13.7183 12.0029C12.5261 12.0029 12.0293 12.6964 11.9299 13.5881C11.3338 13.9844 10.837 14.5788 11.0357 15.2723C12.6254 23.4952 13.5196 31.9162 13.619 40.3373C13.619 41.1299 14.3145 41.9224 15.2087 42.1206C24.5482 43.6066 33.9871 44.2011 43.4259 43.8048C44.3201 43.8048 45.0156 43.1113 45.2144 42.3187C47.3008 33.2042 47.4996 23.9905 45.9099 14.9751ZM41.6375 39.941C33.5896 40.2382 25.4424 39.7429 17.4939 38.554C17.3945 30.9255 16.5997 23.297 15.1093 15.7676C19.7791 15.8667 24.4488 16.0648 29.1186 16.1639C31.6025 16.263 33.9871 16.263 36.471 16.3621C38.4581 16.4611 40.3459 16.4611 42.333 16.7583C43.4259 24.3868 43.2272 32.2135 41.6375 39.941Z" fill="black"/>
<path d="M68.6625 14.4797C64.2908 14.5788 60.0185 14.5788 55.6468 14.6778C54.6532 14.6778 53.6597 15.5695 53.6597 16.5602C53.6597 17.5509 54.5539 18.4425 55.6468 18.4425C60.0185 18.3435 64.2908 18.3435 68.6625 18.2444C69.6561 18.2444 70.6496 17.3528 70.6496 16.3621C70.5503 15.2723 69.7554 14.3806 68.6625 14.4797Z" fill="black"/>
<path d="M73.8295 22.3062C67.8682 21.8108 61.9068 21.7118 55.846 22.009C54.7531 22.108 53.8589 22.8015 53.8589 23.8913C53.8589 24.882 54.7531 25.8728 55.846 25.7737C61.8074 25.4765 67.8682 25.5755 73.8295 26.0709C74.9225 26.17 75.8167 25.1793 75.8167 24.1885C75.8167 23.0988 74.9225 22.4053 73.8295 22.3062Z" fill="black"/>
<path d="M78.1012 40.0404C78.0019 39.1487 77.7038 38.3562 77.1077 37.7617C76.3128 37.0682 75.2199 36.8701 74.2263 36.6719C69.6559 35.7803 64.9862 35.4831 60.4158 35.6812C60.0183 35.6812 59.6209 35.8794 59.3228 36.0775C57.6338 35.384 55.746 35.7803 54.6531 37.1673C53.4608 38.5543 53.3615 40.6348 53.8582 42.319C54.355 44.0032 56.0441 44.7958 57.8325 44.8948C59.7203 45.093 61.8068 44.8948 63.6946 44.8948C65.781 44.8948 67.8675 44.8949 70.0534 44.7958H73.1334C74.127 44.7958 75.2199 44.7958 76.1141 44.4986C77.7038 43.706 78.3 41.7246 78.1012 40.0404ZM71.5437 41.0311C67.9669 41.0311 64.4894 41.1301 60.9126 41.1301C59.919 41.1301 58.4286 41.3283 57.5344 41.1301V41.0311C57.5344 40.932 57.5344 40.7339 57.5344 40.6348C57.5344 40.4366 57.5344 40.1394 57.5344 39.8422C57.6338 39.545 57.7332 39.4459 57.7332 39.4459C58.4287 39.7432 59.0248 39.6441 59.5216 39.2478C59.8196 39.3469 60.0183 39.4459 60.4158 39.4459C63.8932 39.2478 67.4701 39.3469 70.9476 39.9413C71.7424 40.0404 72.5373 40.2385 73.2327 40.3376C73.5308 40.4366 73.9283 40.5357 74.3257 40.6348C74.3257 40.7339 74.3257 40.932 74.2263 41.0311C73.3321 41.0311 72.3386 41.0311 71.5437 41.0311Z" fill="black"/>
<path d="M64.291 53.2168C56.4419 51.7308 48.394 52.028 40.3461 51.9289C32.1989 51.8299 24.0517 51.4336 15.9044 50.9382C13.4205 50.7401 13.4205 54.5048 15.9044 54.7029C23.853 55.1983 31.8015 55.4955 39.8493 55.6936C47.5992 55.7927 55.5477 55.3964 63.1981 56.7834C65.6821 57.2788 66.7749 53.7122 64.291 53.2168Z" fill="black"/>
<path d="M45.0157 59.8546C35.3781 59.1611 25.6411 58.9629 16.0036 59.062C13.5196 59.062 13.5196 62.8267 16.0036 62.8267C25.6411 62.6286 35.3781 62.9258 45.0157 63.6193C47.4996 63.7183 47.4996 59.9536 45.0157 59.8546Z" fill="black"/>
<path d="M31.3046 67.1857L16.0037 66.4922C14.9108 66.4922 14.0166 67.3838 14.0166 68.3745C14.0166 69.4643 14.9108 70.2569 16.0037 70.2569L31.3046 70.8513C32.3976 70.8513 33.2918 69.9597 33.2918 68.969C33.2918 67.9783 32.3976 67.1857 31.3046 67.1857Z" fill="black"/>
<path d="M34.5833 84.2261C34.4839 82.1456 34.3846 79.966 32.3974 78.7771C31.5032 78.1827 30.4103 78.0836 29.3174 77.9846C28.1251 77.8855 27.0322 77.7864 25.8399 77.6874C23.2567 77.4892 20.6734 77.3901 18.1895 77.3901C17.0965 77.3901 16.5004 78.1827 16.4011 79.0743C16.3017 79.0743 16.103 78.9753 16.0036 78.9753C14.9107 78.9753 14.3146 79.8669 14.2152 80.8576L13.6191 87.4954C13.4204 89.5759 12.7249 92.1517 14.2152 93.935C15.4075 95.4211 17.494 95.7183 19.183 96.0155C21.3689 96.4118 23.5547 96.709 25.7406 96.8081C26.7341 96.9072 27.7277 96.9072 28.8206 96.9072C29.9135 96.9072 31.1058 97.0062 32.1987 96.709C34.5833 96.1146 34.3846 92.8452 34.4839 90.8638C34.5833 88.6843 34.6826 86.4056 34.5833 84.2261ZM28.4232 93.1425C27.2309 93.1425 26.0386 93.1425 24.8464 93.0434C22.6605 92.8452 20.3753 92.548 18.2888 92.0527C17.8914 91.9536 17.0965 91.7555 16.9972 91.4582C16.7985 91.062 16.9972 90.3685 17.0966 89.9722C17.1959 89.3777 17.1959 88.7833 17.2953 88.1889C17.494 85.8112 17.792 83.4335 17.9908 80.9567C18.0901 80.9567 18.1895 80.9567 18.3882 80.9567C20.6734 80.9567 23.0579 81.0558 25.3431 81.2539C26.4361 81.353 27.529 81.4521 28.6219 81.5511C29.1187 81.5511 30.4103 81.5511 30.8078 81.9474C31.1058 82.2446 31.0065 83.2353 31.0065 83.7307C31.0065 84.9195 31.0065 86.1084 31.0065 87.2973C31.0065 88.4861 30.9071 89.675 30.8078 90.8638C30.8078 91.3592 30.7084 91.9536 30.7084 92.449C30.7084 92.6471 30.7084 92.8452 30.7084 93.0434C30.5097 93.0434 30.311 93.0434 30.1122 93.0434C29.5161 93.1425 28.92 93.1425 28.4232 93.1425Z" fill="black"/>
<path d="M83.0696 86.009C82.9703 83.9285 82.8709 81.7489 80.8838 80.5601C79.9896 79.9657 78.8966 79.8666 77.8037 79.7675C76.6114 79.6685 75.5185 79.5694 74.3262 79.4703C71.743 79.2722 69.1597 79.1731 66.6758 79.1731C65.5829 79.1731 64.9867 79.9657 64.8874 80.8573C64.788 80.8573 64.5893 80.7582 64.4899 80.7582C63.397 80.7582 62.8009 81.6499 62.7015 82.6406L62.1054 89.2784C61.9067 91.3589 61.2112 93.9347 62.7015 95.718C63.8938 97.2041 65.9803 97.5013 67.6694 97.7985C69.8552 98.1948 72.041 98.492 74.2269 98.5911C75.2204 98.6901 76.214 98.6901 77.3069 98.6901C78.3999 98.6901 79.5921 98.7892 80.685 98.492C83.0696 97.8976 82.8709 94.6282 82.9703 92.6468C83.0696 90.5663 83.169 88.2876 83.0696 86.009ZM76.9095 95.0245C75.7172 95.0245 74.5249 95.0245 73.3327 94.9254C71.1468 94.7273 68.8616 94.4301 66.7751 93.9347C66.3777 93.8356 65.5829 93.6375 65.4835 93.3403C65.2848 92.944 65.4835 92.2505 65.5829 91.8542C65.6822 91.2598 65.6822 90.6654 65.7816 90.0709C65.9803 87.6932 66.2784 85.3155 66.4771 82.8387C66.5764 82.8387 66.6758 82.8387 66.8745 82.8387C69.1597 82.8387 71.5443 82.9378 73.8295 83.1359C74.9224 83.235 76.0153 83.3341 77.1082 83.4332C77.605 83.4332 78.8966 83.4332 79.2941 83.8294C79.5921 84.1267 79.4928 85.1174 79.4928 85.6127C79.4928 86.8016 79.4928 87.9904 79.4928 89.1793C79.4928 90.3681 79.3934 91.557 79.2941 92.7458C79.2941 93.2412 79.1947 93.8356 79.1947 94.331C79.1947 94.5291 79.1947 94.7273 79.1947 94.9254C78.996 94.9254 78.7973 94.9254 78.5986 94.9254C78.0024 95.0245 77.4063 95.0245 76.9095 95.0245Z" fill="black"/>
<path d="M37.9616 90.071C38.0609 92.1515 38.1603 94.3311 40.1474 95.5199C41.0416 96.1143 42.1345 96.2134 43.2275 96.3125C44.4197 96.4115 45.5127 96.5106 46.7049 96.6097C49.2882 96.8078 51.8715 96.9069 54.3554 96.9069C55.4483 96.9069 56.0445 96.1143 56.1438 95.2227C56.2432 95.2227 56.4419 95.3218 56.5412 95.3218C57.6342 95.3218 58.2303 94.4301 58.3296 93.4394L58.9258 86.8016C59.1245 84.7211 59.82 82.1453 58.3296 80.362C57.1374 78.8759 55.0509 78.5787 53.3618 78.2815C51.176 77.8852 48.9901 77.588 46.8043 77.4889C45.8107 77.3899 44.8172 77.3899 43.7242 77.3899C42.6313 77.3899 41.439 77.2908 40.3461 77.588C37.9616 78.1824 38.1603 81.4518 38.0609 83.4332C37.9616 85.6128 37.8622 87.8914 37.9616 90.071ZM44.1217 81.1546C45.3139 81.1546 46.5062 81.1546 47.6985 81.2537C49.8843 81.4518 52.1696 81.749 54.256 82.2444C54.6535 82.3434 55.4483 82.5416 55.5477 82.8388C55.7464 83.2351 55.5477 83.9286 55.4483 84.3249C55.3489 84.9193 55.349 85.5137 55.2496 86.1081C55.0509 88.4859 54.7528 90.8636 54.5541 93.3403C54.4547 93.3403 54.3554 93.3403 54.1567 93.3403C51.8715 93.3403 49.4869 93.2413 47.2017 93.0431C46.1088 92.9441 45.0159 92.845 43.923 92.7459C43.4262 92.7459 42.1345 92.7459 41.7371 92.3496C41.439 92.0524 41.5384 91.0617 41.5384 90.5663C41.5384 89.3775 41.5384 88.1886 41.5384 86.9998C41.5384 85.8109 41.6378 84.6221 41.7371 83.4332C41.7371 82.9379 41.8365 82.3434 41.8365 81.8481C41.8365 81.6499 41.8365 81.4518 41.8365 81.2537C42.0352 81.2537 42.2339 81.2537 42.4326 81.2537C43.0287 81.1546 43.6249 81.1546 44.1217 81.1546Z" fill="black"/>
<path d="M81.8771 103.149C64.5891 102.158 47.301 102.356 30.013 102.852C25.0452 102.951 20.0773 103.149 15.1095 103.347C12.6256 103.446 12.6256 107.211 15.1095 107.112C32.3975 106.517 49.6856 105.923 66.9736 106.319C71.9414 106.418 76.9093 106.616 81.7777 106.914C84.4604 107.013 84.4604 103.248 81.8771 103.149Z" fill="black"/>
<path d="M43.3269 104.734C43.4263 103.842 43.0288 102.95 42.1346 102.455C41.4391 102.059 40.6443 102.158 39.9488 102.059C39.2533 102.059 38.5578 101.96 37.763 101.96C35.0803 101.86 32.2983 101.662 29.6157 101.761C28.3241 101.761 26.8337 101.86 25.5421 102.257C23.9524 102.752 22.8595 104.535 23.853 106.021C24.7473 107.408 26.5357 107.21 27.9267 107.309C29.3176 107.408 30.7086 107.408 32.199 107.408C35.3784 107.508 38.4584 107.408 41.5385 107.21C42.6314 107.111 43.5256 106.418 43.5256 105.328C43.5256 105.229 43.4263 104.932 43.3269 104.734Z" fill="#59C59F"/>
<path d="M44.817 101.96C43.9228 100.276 42.1344 99.8792 40.346 100.276C40.0479 100.176 39.7499 100.077 39.4518 99.9783C35.0801 99.8793 30.7084 99.6811 26.2374 99.7802C24.3496 99.7802 21.4683 99.483 20.8721 101.762C20.6734 102.653 20.8721 103.842 20.9715 104.734C21.0708 105.824 21.0708 106.913 21.1702 107.904C21.4683 110.579 24.3496 110.282 26.4361 110.282C28.6219 110.282 30.8078 110.381 32.9936 110.381C35.1795 110.381 37.3653 110.48 39.5511 110.48C41.737 110.48 44.519 110.975 45.3138 108.498C46.0093 106.517 45.91 103.842 44.817 101.96ZM37.8621 106.814C36.2724 106.814 34.782 106.715 33.1923 106.715C31.6026 106.715 30.1123 106.616 28.5226 106.616C27.7277 106.616 26.9329 106.616 26.0387 106.616C25.7406 106.616 25.3432 106.616 25.0451 106.616C25.0451 106.121 24.9457 105.625 24.9457 105.229L24.8464 103.842C24.8464 103.743 24.8464 103.743 24.8464 103.644C24.9458 103.644 25.1445 103.644 25.2438 103.644C25.9393 103.644 26.6348 103.644 27.2309 103.644C28.6219 103.644 29.9136 103.644 31.3046 103.644C33.7885 103.644 36.3717 103.743 38.8557 103.842C39.4518 104.337 40.346 104.337 41.0415 104.04C41.1409 104.04 41.2402 103.941 41.3396 103.941C41.3396 103.941 41.3396 103.941 41.3396 104.04C41.5383 104.238 41.5383 104.734 41.5383 104.932C41.6376 105.427 41.6376 105.923 41.6376 106.418C41.6376 106.616 41.6376 106.814 41.6376 107.012C41.6376 107.111 41.6376 107.111 41.6376 107.211C41.1409 107.211 40.6441 107.111 40.2467 107.111C39.5512 106.814 38.7563 106.814 37.8621 106.814Z" fill="black"/>
</svg>
