<svg width="47" height="44" viewBox="0 0 47 44" fill="none" xmlns="http://www.w3.org/2000/svg">
<path d="M39.5509 15.8561C37.2384 8.47729 31.3064 1.09847 23.3635 0.400473C20.6488 0.101332 18.2358 0.699615 16.1244 1.79647C15.8227 1.79647 15.5211 1.79647 15.2195 1.89618C-2.67724 5.48588 -3.58213 30.3146 11.0972 38.9897C17.6325 42.8785 26.8825 43.3771 33.4178 39.1891C40.7575 34.4029 42.0645 23.7335 39.5509 15.8561Z" fill="#59C59F"/>
<path d="M46.6895 18.6483C45.2819 8.87636 37.5401 0.30098 27.6869 0.00183877C25.1733 -0.097875 25.1733 3.89068 27.6869 3.99039C34.7249 4.18982 40.5564 9.97322 42.3662 16.7538C43.3716 20.6426 43.3716 24.7309 42.5673 28.6197C41.7629 32.4088 40.3553 35.9985 36.8363 37.7934C30.7032 40.9842 22.4586 40.7848 16.5265 37.2948C10.9967 34.104 7.37711 27.4231 8.282 20.7423C9.38798 12.5658 17.4314 8.77665 23.9668 5.98467C24.9722 5.58581 25.5755 4.68839 25.2738 3.49182C25.0727 2.5944 23.8662 1.69697 22.8608 2.09583C15.5211 5.18696 7.27657 9.27522 4.86353 17.8506C2.75212 25.6283 6.07005 34.3034 12.2032 39.0896C18.9396 44.3745 28.4912 45.0725 36.233 42.1808C38.3444 41.3831 40.4559 40.2862 42.0646 38.5911C43.5727 36.8959 44.5781 34.9017 45.2819 32.708C46.8906 28.4203 47.3933 23.4346 46.6895 18.6483Z" fill="black"/>
<path d="M23.4641 17.8507C23.4641 17.6513 23.4641 17.4518 23.3636 17.2524C23.3636 17.1527 23.3636 17.1527 23.2631 17.053C23.1625 16.8535 23.062 16.6541 22.9614 16.4547C22.8609 16.2553 22.6598 16.0558 22.5592 15.9561C22.5592 15.8564 22.4587 15.8564 22.3582 15.8564C22.1571 15.7567 22.0565 15.5573 21.8554 15.4576C21.6544 15.3578 21.4533 15.2581 21.2522 15.1584C21.1516 15.1584 21.1516 15.1584 21.0511 15.0587C20.85 14.959 20.5484 14.959 20.3473 14.959C20.2467 14.959 20.2467 14.959 20.1462 14.959C19.9451 14.959 19.6435 14.959 19.4424 15.0587C18.9397 15.2581 18.6381 15.3578 18.3364 15.7567C18.1353 15.9561 18.0348 16.1556 17.9343 16.2553C17.9343 16.355 17.8337 16.355 17.8337 16.4547C17.6326 16.6541 17.5321 16.9533 17.4315 17.1527V17.2524C17.4315 17.4518 17.331 17.6513 17.331 17.8507C17.331 17.9504 17.331 17.9504 17.331 18.0501C17.331 18.2495 17.331 18.5487 17.4315 18.7481V18.8478C17.5321 19.0473 17.5321 19.2467 17.6326 19.4461C17.6326 19.5458 17.7332 19.5458 17.7332 19.6455C17.8337 19.845 18.0348 20.0444 18.1353 20.2438C18.2359 20.3435 18.3364 20.4432 18.437 20.543C18.5375 20.6427 18.6381 20.7424 18.8391 20.8421C19.3419 21.0415 19.6435 21.1412 20.1462 21.241C20.2467 21.241 20.2467 21.241 20.3473 21.241C20.5484 21.241 20.85 21.241 21.0511 21.1412C21.2522 21.0415 21.4533 20.9418 21.6544 20.8421C21.8554 20.7424 22.0565 20.543 22.2576 20.4432C22.4587 20.2438 22.6598 19.9447 22.8609 19.7452C23.062 19.4461 23.1625 19.147 23.1625 18.8478C23.1625 18.7481 23.1625 18.6484 23.1625 18.449C23.1625 18.3493 23.1625 18.2495 23.1625 18.0501C23.4641 17.8507 23.4641 17.8507 23.4641 17.8507Z" fill="black"/>
<path d="M36.1327 16.1553C36.1327 16.0556 36.1327 16.0556 36.0321 15.9559C35.9316 15.7565 35.831 15.557 35.7305 15.3576C35.6299 15.2579 35.5294 15.1582 35.4289 14.9587C35.3283 14.859 35.2278 14.7593 35.1272 14.6596C34.9261 14.4602 34.8256 14.3605 34.6245 14.2607C34.524 14.2607 34.524 14.161 34.4234 14.161C34.2223 14.0613 34.0212 13.9616 33.8202 13.8619C33.3174 13.7622 33.0158 13.7622 32.5131 13.8619C32.2115 13.9616 32.0104 14.0613 31.8093 14.161C31.5077 14.3605 31.3066 14.5599 31.1055 14.859H31.0049C30.9044 14.9587 30.7033 15.0585 30.6028 15.1582C30.4017 15.3576 30.2006 15.6567 30.1001 16.0556C30.1001 16.255 29.9995 16.5542 29.9995 16.7536C29.9995 16.953 29.9995 17.2522 30.1001 17.4516C30.1001 17.5513 30.1001 17.5513 30.1001 17.651C30.2006 17.8504 30.3011 18.0499 30.4017 18.2493C30.5022 18.349 30.6028 18.4487 30.6028 18.6482C30.7033 18.7479 30.8039 18.8476 30.9044 19.047C31.1055 19.2464 31.3066 19.4459 31.6082 19.5456C31.8093 19.6453 32.0104 19.745 32.2115 19.8447H32.312C32.5131 19.8447 32.7142 19.9444 32.9153 19.9444C33.0158 19.9444 33.0158 19.9444 33.1164 19.9444C33.3174 19.9444 33.6191 19.9444 33.8202 19.8447C34.0212 19.745 34.2223 19.6453 34.4234 19.5456C34.524 19.5456 34.524 19.4459 34.6245 19.4459C34.8256 19.3462 35.0267 19.1467 35.1272 19.047C35.2278 19.047 35.2278 18.9473 35.2278 18.8476C35.3283 18.6482 35.5294 18.5484 35.6299 18.349C35.7305 18.1496 35.831 17.9502 35.9316 17.7507C35.9316 17.651 35.9316 17.651 36.0321 17.5513C36.0321 17.3519 36.1327 17.1525 36.1327 16.953V16.8533C36.1327 16.5542 36.1327 16.3547 36.1327 16.1553Z" fill="black"/>
<path d="M35.7302 27.822C35.5291 26.7252 34.3226 26.1269 33.3172 26.426C32.2112 26.7252 31.809 27.822 32.0101 28.9189C32.0101 28.6197 32.0101 29.0186 32.0101 29.1183C32.0101 29.1183 32.0101 29.1183 32.0101 29.218C32.0101 29.4174 31.9096 29.5172 31.9096 29.7166C31.9096 29.7166 31.809 29.8163 31.809 29.916C31.5074 30.3149 31.3063 30.614 30.9042 30.9132C29.8987 31.6112 28.4911 31.6112 27.2846 31.4117C25.9775 31.2123 24.6705 30.8134 23.5645 30.1154C22.6596 29.5172 21.8553 28.6197 21.5536 27.6226C21.252 26.6255 20.2466 25.9275 19.1406 26.2266C18.1352 26.5257 17.5319 27.6226 17.8335 28.7195C19.04 33.2066 23.5645 35.1011 27.5862 35.4003C29.6976 35.5997 31.809 35.2008 33.5183 33.8049C35.3281 32.3091 36.1324 30.2152 35.7302 27.822Z" fill="black"/>
</svg>
