<svg width="20" height="53" viewBox="0 0 20 53" fill="none" xmlns="http://www.w3.org/2000/svg">
<path d="M18.1843 39.1457C18.0849 34.7865 17.9856 30.3283 17.7869 25.8701C17.6875 23.3933 17.6875 21.3128 15.303 20.2231C13.2165 19.3314 8.64608 19.4305 6.46023 20.124C5.76474 20.3221 5.16859 20.8175 4.77116 21.4119C3.77759 21.8082 3.0821 22.6008 3.28081 23.9878C3.87695 28.2478 4.37375 32.607 4.96988 36.867C5.46667 40.3345 5.46667 44.8918 6.95701 48.0621C8.64608 51.5296 15.303 52.2231 17.7869 49.0528C19.4759 46.6751 18.2836 41.9197 18.1843 39.1457Z" fill="#F5F5F5"/>
<path d="M17.6877 43.8019C15.5019 43.2074 13.3161 42.5139 11.2296 41.7214C13.2167 40.6316 15.5019 39.9381 17.8865 39.6409C19.5755 39.4427 19.8736 36.9659 18.3833 36.3715C16.3961 35.579 14.3096 34.8855 12.1238 34.291C14.0116 33.3994 15.8993 32.6068 17.8865 31.9133C19.5755 31.3189 20.0723 28.9412 17.8865 28.4458C16.3961 28.1486 14.9058 27.9505 13.4154 27.7523L17.7871 25.87C20.1717 24.8793 18.0852 21.8081 15.7006 22.7988C11.9251 24.3839 8.14953 26.0681 4.37398 27.6533C2.58557 28.4458 3.38042 31.0217 5.36755 31.0217C7.05661 30.9226 8.64631 31.0217 10.3354 31.1207C8.74567 31.8142 7.15598 32.6068 5.56627 33.4985C4.17528 34.291 4.27464 36.4706 6.06306 36.7678C7.75212 37.065 9.44118 37.3622 11.0309 37.7585C9.14311 38.5511 7.35468 39.6409 5.86433 40.8297C4.97012 41.6223 5.16883 43.1084 6.26175 43.6037C7.65274 44.1981 9.14308 44.7926 10.6334 45.387C10.0373 45.6842 9.44117 46.0805 8.94439 46.5759C7.05661 48.2601 9.93795 50.7368 11.8257 49.0526C13.3161 47.6656 15.7006 47.4675 17.6877 47.2694C19.8736 46.9721 19.4762 44.2972 17.6877 43.8019Z" fill="#F7C300"/>
<path d="M18.0847 10.5142C16.0976 10.316 14.2098 10.1179 12.2227 9.91974C12.4214 9.82067 12.6201 9.82067 12.8188 9.7216C15.0047 9.12717 17.1905 8.53274 19.0783 7.44296C20.4693 6.65039 20.2706 4.56989 18.5815 4.17361C14.4085 3.1829 10.1362 2.88568 5.96325 3.08382C4.96969 3.1829 3.97613 3.87639 4.07548 4.86711C4.07548 5.75875 4.96969 6.74946 5.96325 6.65039C7.4536 6.55132 8.94394 6.55132 10.3349 6.65039C8.3478 7.24482 6.36066 8.03739 4.6716 9.22624C3.9761 9.7216 3.97612 10.8114 4.37354 11.4058C5.06904 12.4956 6.26133 12.6937 7.55296 12.8919C8.74524 13.09 9.93749 13.1891 11.1298 13.3872C13.415 13.6844 15.7002 13.8826 17.9854 14.0807C18.979 14.1798 19.9725 13.1891 19.8732 12.2974C19.9725 11.2077 19.1776 10.6132 18.0847 10.5142Z" fill="#F7C300"/>
<path d="M19.476 49.3501C18.2837 44.7928 18.085 40.1364 18.085 35.4801C18.085 30.7247 17.9856 25.9693 17.9856 21.2138C17.9856 19.5296 16.1972 19.1334 15.1043 19.8268C14.8062 19.4306 14.4088 19.2324 13.8126 19.2324C10.1365 19.2324 6.46026 19.3315 2.88343 19.7278C1.98922 19.8268 0.995669 20.5203 1.09503 21.5111C1.88988 31.22 2.88342 41.0281 4.17505 50.638C4.27441 51.6287 5.56606 52.1241 6.36091 51.9259C6.55962 51.9259 6.75834 52.025 6.95705 52.025C10.5339 51.8268 14.1107 51.7278 17.7869 51.7278C18.8798 51.6287 19.774 50.4399 19.476 49.3501ZM7.45384 48.2603C6.36091 39.8392 5.46669 31.4182 4.7712 22.9971C7.75189 22.799 10.832 22.6999 13.8126 22.6999C14.0114 22.6999 14.2101 22.6999 14.4088 22.6008C14.4088 27.059 14.4088 31.5173 14.5082 35.8764C14.5082 39.9383 14.7069 44.0002 15.5017 47.9631C12.8191 48.0621 10.1365 48.1612 7.45384 48.2603Z" fill="black"/>
<path d="M16.3962 2.78638C13.5149 -0.185759 9.54061 -0.780186 6.06314 1.0031C5.26828 1.39938 5.16893 2.68731 5.56635 3.47988C6.06314 4.37152 6.85796 4.47059 7.65282 4.0743C9.63995 3.08359 11.9252 3.3808 13.7136 4.7678C15.2039 5.95666 16.7936 8.33436 16.4956 10.613C16.1975 12.5944 14.0116 13.1889 12.6206 13.2879C10.5342 13.387 8.44767 12.8916 6.65925 11.6037C5.1689 10.5139 2.78436 7.5418 4.37406 5.36223C4.87085 4.66873 4.9702 3.57895 4.37406 2.88545C3.87728 2.19195 2.78435 2.19195 2.18821 2.88545C-0.196347 6.1548 0.995944 10.5139 3.3805 13.1889C5.6657 15.6656 8.74574 16.8545 11.7264 16.9536C14.4091 17.0526 17.6878 16.0619 18.9795 12.9907C20.2711 9.32508 18.6814 5.16409 16.3962 2.78638Z" fill="black"/>
</svg>
