<svg width="41" height="58" viewBox="0 0 41 58" fill="none" xmlns="http://www.w3.org/2000/svg">
<path d="M37.6653 10.5833C37.3679 10.1817 36.8721 9.88045 36.3763 9.78005C33.4017 8.77604 30.328 7.77203 27.3534 6.76802C24.8745 5.96481 21.4042 5.4628 19.5202 3.55518C18.4296 2.35037 16.9423 2.45077 15.9507 3.15358C15.2567 3.45478 14.5626 4.05719 14.3643 5.0612C12.7778 11.4869 11.588 17.9125 10.1007 24.3382C8.81168 30.0611 7.82014 37.6915 3.6557 42.0088C2.56501 43.1132 2.66417 44.5188 3.25909 45.5228C3.06079 46.828 3.65571 48.334 5.34132 48.7357C10.7948 50.0409 16.2482 51.6473 21.5033 53.5549C25.3703 54.9605 27.3534 55.3621 29.2373 51.3461C29.8322 50.1413 29.6339 49.0369 29.039 48.1332C31.1212 42.9124 31.3195 37.4907 32.8068 32.0691C34.5916 25.8442 36.8721 19.8202 38.9543 13.6957C39.3509 12.2901 38.6569 11.1857 37.6653 10.5833Z" fill="#F5F5F5"/>
<path d="M27.4526 26.8482C26.1636 25.041 24.1805 23.9366 21.9991 23.6354C21.5034 23.535 20.9085 23.535 20.4127 23.6354C19.322 23.535 18.2313 23.6354 17.2398 24.1374C14.5626 25.4426 12.7779 28.1534 12.6787 31.2658C12.6787 33.7759 13.6702 36.0851 15.6533 37.5911C17.4381 38.8963 19.7186 39.4987 21.9 39.2979C24.478 38.9967 27.0559 37.0891 28.0475 34.5791C29.1382 31.8682 28.9399 29.057 27.4526 26.8482Z" fill="#F7C300"/>
<path d="M21.9001 26.7477C21.6026 27.0489 21.4043 27.3501 21.206 27.6513C20.5119 27.3501 19.917 27.1493 19.2229 26.8481C19.3221 26.6473 19.5204 26.3461 19.7187 26.1453C20.0161 25.8441 19.917 25.2416 19.7187 25.0408C19.4212 24.7396 19.0246 24.9404 18.8263 25.2416C18.5288 25.5428 18.3305 25.9445 18.1322 26.3461C17.7356 26.2457 17.4381 26.0449 17.0415 25.9445C16.3475 25.6432 15.6534 27.1493 16.4466 27.4505C16.8432 27.6513 17.2398 27.7517 17.6365 27.9525C17.5373 28.4545 17.5373 28.9565 17.5373 29.3581C17.7356 30.6633 18.628 31.5669 19.8178 31.0649C20.4128 30.8641 20.9085 30.3621 21.4043 29.7597C21.4043 29.6593 21.5034 29.6593 21.5034 29.5589C22.1975 29.8601 22.9907 30.1613 23.6848 30.4625C23.3874 30.8641 22.9907 31.3661 22.5941 31.1653C21.9 30.8641 21.206 32.3701 21.9992 32.6713C23.0899 33.1733 24.1806 32.0689 24.8747 30.8641C24.9738 30.8641 25.073 30.9645 25.073 30.9645C25.767 31.2657 26.4611 29.7597 25.6679 29.4585C25.5687 29.4585 25.4696 29.3581 25.3704 29.3581C25.767 28.1533 25.8662 26.9485 25.073 26.2457C24.2797 25.4424 22.8916 25.6432 21.9001 26.7477ZM19.2229 29.5589C18.8263 29.4585 18.7271 28.9565 18.7271 28.4545L20.2144 29.0569C19.917 29.3581 19.5204 29.6593 19.2229 29.5589ZM24.3789 28.1533C24.3789 28.3541 24.2797 28.6553 24.2797 28.8561C23.6848 28.6553 23.0899 28.3541 22.3958 28.1533C22.3958 28.0529 22.495 28.0529 22.495 27.9525C22.7924 27.5509 23.2882 27.3501 23.6848 27.3501C24.0814 27.4505 24.3789 27.6513 24.3789 28.1533Z" fill="black" stroke="black" stroke-width="0.3359" stroke-miterlimit="10"/>
<path d="M40.6398 11.2859C41.3339 10.3823 41.0364 8.67543 39.6483 8.47463C31.5177 7.16942 23.7837 4.25779 16.7438 0.141346C16.0498 -0.260259 14.9591 0.241747 14.6616 1.04495C14.1658 1.24576 13.7692 1.84816 13.6701 2.45057C10.1997 17.4103 6.63018 32.4705 0.680981 46.7274C0.284367 47.5306 0.680999 48.635 1.47423 48.9363C9.50565 52.1491 17.6362 54.9603 25.9651 57.3699C26.0642 57.3699 26.0643 57.3699 26.1634 57.3699C26.9566 57.8719 28.0473 57.7715 28.4439 56.5667C33.3024 41.607 35.2855 26.0448 40.6398 11.2859ZM4.25051 46.2254C9.70394 32.5709 13.1743 18.2135 16.5455 3.95659C22.9905 7.57102 29.9312 10.081 37.0703 11.4867C32.4101 25.2416 30.3278 39.7998 25.9651 53.6551C18.6277 51.4463 11.3896 49.0367 4.25051 46.2254Z" fill="black"/>
<path d="M20.5116 10.2818C20.6107 10.081 20.6108 9.88023 20.6108 9.77983C20.6108 9.77983 20.6108 9.77983 20.6108 9.67942C20.6108 9.47862 20.6108 9.37822 20.6108 9.17742V9.07702C20.6108 8.97662 20.5116 8.67541 20.5116 8.57501C20.3133 8.17341 20.2142 7.97261 19.9167 7.77181C19.8175 7.6714 19.6192 7.571 19.5201 7.4706H19.4209C19.0243 7.3702 18.826 7.2698 18.4294 7.3702C18.2311 7.3702 18.0328 7.4706 17.9336 7.4706H17.8345C17.7353 7.4706 17.7353 7.571 17.6361 7.571C17.537 7.571 17.3387 7.6714 17.2395 7.77181C17.0412 7.87221 16.8429 7.97261 16.7438 8.17341C16.5455 8.37421 16.5455 8.57501 16.4463 8.77582C16.3472 8.97662 16.3472 9.17742 16.3472 9.47862C16.3472 9.57902 16.4463 9.77983 16.4463 9.88023C16.5455 10.1814 16.7438 10.3822 16.9421 10.583C17.0412 10.6834 17.2395 10.6834 17.3387 10.7838C17.4379 10.7838 17.537 10.8842 17.6361 10.8842C17.7353 10.9846 17.8345 11.085 17.8345 11.1854C18.0328 11.3862 18.3302 11.4866 18.6277 11.4866C18.9251 11.4866 19.2226 11.4866 19.4209 11.3862C19.7184 11.2858 19.9167 11.085 20.115 10.8842C20.3133 10.7838 20.4124 10.583 20.5116 10.2818C20.5116 10.3822 20.5116 10.3822 20.5116 10.2818Z" fill="black"/>
<path d="M35.1865 14.3982C35.1865 14.097 35.1865 13.7958 35.0873 13.4946C34.9882 13.1934 34.7899 12.9926 34.5915 12.7918C34.3932 12.591 34.0958 12.4906 33.7983 12.4906L33.0051 12.2898C32.8068 12.2898 32.7076 12.2898 32.5093 12.2898H32.4102C32.311 12.2898 32.0136 12.3902 32.0136 12.3902C31.9144 12.3902 31.9144 12.4906 31.8153 12.4906C31.7161 12.4906 31.7161 12.591 31.6169 12.591L31.3195 12.8922C31.2203 12.9926 31.1212 13.1934 31.1212 13.2938C31.1212 13.2938 31.1212 13.3942 31.022 13.3942C30.9229 13.595 30.9229 13.7958 30.8237 13.8962C30.8237 13.9966 30.8237 14.2978 30.8237 14.3982C30.8237 14.4986 30.9229 14.7998 30.9229 14.7998C30.9229 14.9002 31.022 15.0006 31.022 15.0006C31.022 15.0006 31.1212 15.101 31.1212 15.2014C31.3195 15.5026 31.6169 15.7034 31.9144 15.8038C32.0135 15.8038 32.311 15.9042 32.311 15.9042C32.4102 15.9042 32.6085 15.9042 32.7076 15.9042C32.8068 15.9042 33.0051 15.8038 33.1042 15.8038C33.2034 15.8038 33.3026 15.7034 33.3026 15.7034C33.4017 15.7034 33.5009 15.7034 33.6 15.603H33.6992C33.7983 15.5026 33.9966 15.4022 34.0958 15.3018C34.2941 15.2014 34.3932 15.0006 34.4924 14.9002C35.0873 15.0006 35.1865 14.7998 35.1865 14.3982Z" fill="black"/>
<path d="M10.2991 45.1213C10.2991 45.0209 10.3983 44.9205 10.3983 44.9205C10.3983 44.8201 10.3983 44.7197 10.4975 44.7197C10.4975 44.5189 10.4975 44.3181 10.4975 44.2177C10.4975 43.9165 10.3983 43.6153 10.2 43.4145C10.0017 43.2137 9.80339 43.0129 9.50593 42.9125C9.30762 42.8121 9.10931 42.8121 9.01016 42.7117C9.01016 42.7117 9.01015 42.7117 8.911 42.7117C8.81185 42.7117 8.81184 42.7117 8.71268 42.7117C8.61353 42.7117 8.61355 42.7117 8.51439 42.7117C8.41524 42.7117 8.21691 42.8121 8.11776 42.8121C8.11776 42.8121 8.01863 42.8121 8.01863 42.9125C7.91947 42.9125 7.91946 42.9125 7.82031 43.0129H7.72115C7.622 43.1133 7.42369 43.2137 7.32454 43.2137C7.22539 43.2137 7.22538 43.3141 7.12622 43.3141C7.02707 43.4145 6.82877 43.6153 6.72962 43.8161C6.53131 44.0169 6.53132 44.2177 6.43217 44.4185C6.33301 44.6193 6.33301 44.8201 6.33301 45.1213C6.33301 45.2217 6.43217 45.4225 6.43217 45.5229C6.53132 45.8241 6.72963 46.0249 6.92793 46.2257C6.92793 46.2257 6.92794 46.2257 7.02709 46.2257C7.12625 46.3261 7.32455 46.4265 7.4237 46.4265C7.4237 46.4265 7.42371 46.4265 7.52286 46.4265C7.62201 46.4265 7.82032 46.5269 8.01863 46.5269H8.11776C8.21691 46.5269 8.41522 46.5269 8.61352 46.5269H8.71268C8.81184 46.5269 9.01014 46.4265 9.10929 46.4265C9.10929 46.4265 9.1093 46.4265 9.20845 46.4265C9.20845 46.4265 9.20846 46.4265 9.30761 46.4265C9.40676 46.4265 9.40677 46.3261 9.50593 46.3261C9.60508 46.3261 9.60506 46.2257 9.70422 46.2257L9.80338 46.1253C9.90253 46.0249 10.0017 45.9245 10.2 45.7237C10.2 45.7237 10.2 45.7237 10.2 45.6233C10.1008 45.4225 10.2 45.3221 10.2991 45.1213Z" fill="black"/>
<path d="M26.0643 50.0408C26.0643 49.7396 26.0643 49.4384 25.9652 49.1372C25.866 48.9364 25.7669 48.836 25.6677 48.6352C25.6677 48.6352 25.6677 48.5348 25.5686 48.5348C25.4694 48.5348 25.4694 48.4343 25.4694 48.4343C25.4694 48.4343 25.4694 48.4344 25.3703 48.3339L25.2711 48.2335C25.1719 48.0327 24.9736 47.8319 24.8745 47.6311C24.6762 47.4303 24.4779 47.4303 24.2796 47.3299C24.0813 47.2295 23.8829 47.2295 23.6846 47.3299C23.5855 47.3299 23.3872 47.4303 23.288 47.4303C23.0897 47.5307 22.9906 47.6311 22.7923 47.7315C22.6931 47.8319 22.4948 47.9323 22.3957 48.0327C22.1974 48.334 21.999 48.6352 21.999 49.0368C21.999 49.2376 21.999 49.4384 21.999 49.5388C21.999 49.6392 21.999 49.7396 22.0982 49.7396C22.0982 49.84 22.0982 49.9404 22.1973 49.9404V50.0408C22.1973 50.1412 22.3957 50.342 22.3957 50.4424C22.4948 50.5428 22.594 50.7436 22.6931 50.7436L22.7923 50.844L23.1889 51.0448C23.3872 51.1452 23.5855 51.1452 23.7838 51.1452C23.9821 51.1452 24.1804 51.1452 24.3787 51.0448C24.4779 51.0448 24.577 50.9444 24.6762 50.9444C24.7753 50.844 24.8745 50.844 25.0728 50.7436C25.2711 50.5428 25.4694 50.342 25.5686 50.0408C25.9652 50.342 25.9652 50.1412 26.0643 50.0408Z" fill="black"/>
<path d="M28.8405 24.0367C26.7583 21.0247 22.8913 19.0167 19.2226 20.0207C19.0243 20.1211 18.9252 20.2215 18.826 20.3219C18.6277 20.0207 18.3303 19.8199 17.8345 19.9203C14.4633 21.2255 11.8853 24.7395 12.381 28.5548C12.8768 32.4704 16.248 34.88 19.5201 36.0849C21.1065 36.6873 22.7921 37.2897 24.5769 36.6873C26.1634 36.1853 27.6507 34.9805 28.7414 33.5748C31.0219 30.7636 30.8236 26.9484 28.8405 24.0367ZM25.271 34.6792C23.8828 35.5829 22.5938 35.4825 21.2057 34.9805C18.4294 34.0768 15.554 32.6712 14.3641 29.6592C13.0751 26.2456 15.2565 22.7315 18.4294 21.5267C18.5286 21.5267 18.5285 21.4263 18.6277 21.4263C18.7269 21.7275 19.0243 21.8279 19.4209 21.7275C22.0981 20.9243 24.6761 22.0287 26.56 23.8359C28.3447 25.6432 29.5346 28.5548 28.3447 31.1652C27.6507 32.6712 26.56 33.876 25.271 34.6792Z" fill="black" stroke="black" stroke-width="0.8396" stroke-miterlimit="10"/>
</svg>
