<svg width="91" height="120" viewBox="0 0 91 120" fill="none" xmlns="http://www.w3.org/2000/svg">
<path d="M49.5753 19.7879C49.3742 17.5942 47.665 15.1014 45.2519 15.3008C38.5155 15.9988 31.7791 16.0985 25.0427 15.6996C23.4341 15.5999 22.127 16.5971 21.3226 17.9931C20.1161 18.6911 19.2112 19.8876 19.2112 21.6825C19.1107 24.973 19.0101 28.3633 18.9096 31.6538C18.8091 34.1467 18.2058 37.7364 19.0101 40.1295C20.9205 45.7135 30.7737 44.3175 35.0971 44.5169C40.2248 44.8161 46.3579 46.3118 48.1677 39.9301C49.7764 33.4487 49.9775 26.369 49.5753 19.7879Z" fill="#F7C300"/>
<path d="M31.176 86.7952C31.176 86.6955 31.2766 86.6955 31.2766 86.5958C32.282 84.7012 31.7793 82.8067 30.5728 81.1115C28.9641 79.0176 26.35 79.5161 24.2386 79.915C22.3282 80.2141 20.5185 80.613 18.6081 80.9121C16.7984 81.2113 15.3907 83.405 15.3907 85.1998C15.4913 87.0944 15.2902 89.2881 15.6924 91.1826C16.0946 92.5786 16.8989 93.5758 18.1054 94.2738C19.1108 94.8721 20.3174 94.9718 21.4233 94.7723C21.4233 94.7723 21.6244 94.7723 21.725 94.6726C22.5293 95.0715 23.3337 95.4703 24.2386 95.6698C26.8527 96.268 29.869 95.2709 30.8744 92.5786C31.4777 90.8835 31.176 88.8892 30.8744 86.9947C31.0755 86.895 31.0755 86.895 31.176 86.7952Z" fill="#59C59F"/>
<path d="M52.6923 81.2117C50.9831 81.2117 49.2738 81.2117 47.5646 81.2117C47.1624 81.2117 46.8608 81.3114 46.5591 81.3114C44.1461 78.7188 38.9179 79.716 39.0184 84.2031C39.1189 87.5933 38.5157 92.2799 41.8336 94.3739C44.8499 96.1687 48.0673 94.0747 51.0836 95.1716C53.7983 96.069 56.5129 93.6759 56.5129 90.8839C56.5129 89.6873 56.6135 88.5905 56.5129 87.3939C57.4178 84.7016 56.2113 81.1119 52.6923 81.2117Z" fill="#59C59F"/>
<path d="M79.5376 91.2828C79.3365 88.092 79.6381 84.0037 76.0186 82.8072C73.505 82.0095 70.187 82.4083 67.5729 82.4083C64.1544 82.3086 62.8474 85.5991 63.5512 88.1917C62.8474 88.6903 62.2441 89.488 61.9425 90.4851C61.3392 92.6788 62.6463 95.5705 64.9588 95.9694C67.774 96.4679 70.6898 97.0662 73.505 97.5648C75.5158 97.8639 77.7278 97.4651 78.8338 95.4708C79.6381 94.1745 79.6381 92.7785 79.5376 91.2828Z" fill="#59C59F"/>
<path d="M1.7169 29.7591C1.31473 21.4828 0.711468 13.2066 0.00766461 4.93034C-0.193422 2.53721 3.62722 2.53721 3.82831 4.93034C6.44244 34.1465 7.0457 63.4623 5.83918 92.7782C5.53755 100.456 5.03483 108.334 4.43157 116.111C25.3446 115.912 46.2576 115.613 67.1706 115.413C73.1027 115.313 79.0347 115.314 84.9668 115.214C85.0673 115.214 85.0673 115.214 85.1678 115.214C86.2738 85.9977 86.4749 56.7815 85.57 27.6651C85.3689 19.9871 84.9668 12.2094 84.6651 4.53148C64.9586 4.33206 45.1516 4.13263 25.4451 4.13263C19.7142 4.13263 13.9832 4.13263 8.25222 4.13263C5.73863 4.13263 5.73863 0.343506 8.25222 0.343506C28.4614 0.343506 48.7712 0.443219 68.9804 0.642646C74.4097 0.642646 79.8391 0.742361 85.1678 0.842075C86.2738 0.0443645 88.2847 0.542933 88.3852 2.23807C89.8934 32.1522 90.3961 62.1661 89.7928 92.0802C89.5918 100.556 89.3907 109.131 88.9885 117.607C88.8879 119.402 86.7765 119.9 85.6706 119.003C85.4695 119.103 85.2684 119.103 84.9668 119.103C63.8527 119.302 42.638 119.601 21.5239 119.801C15.5919 119.9 9.65982 119.9 3.72777 120C3.12451 120 2.62179 119.801 2.32016 119.402C1.31473 119.402 0.409838 118.803 0.510381 117.607C2.82288 88.2911 3.22505 58.9752 1.7169 29.7591Z" fill="black"/>
<path d="M45.0512 15.4001C44.9506 14.6024 44.4479 13.8047 43.543 13.6053C41.2305 13.1067 38.8175 13.007 36.4045 13.007C33.8909 12.9073 31.2768 12.9073 28.7632 12.8075C23.6355 12.7078 18.6083 12.5084 13.4806 12.4087C12.3746 12.4087 11.7714 13.1067 11.7714 14.0041C11.1681 14.403 10.7659 15.0012 10.8665 15.6992C12.4752 23.9755 13.2795 32.4512 13.3801 40.9268C13.3801 41.7245 14.0839 42.5223 14.8882 42.7217C24.0376 44.2174 33.2876 44.8157 42.5376 44.4168C43.342 44.4168 44.1463 43.7188 44.3474 42.9211C46.3583 33.8472 46.5593 24.4741 45.0512 15.4001ZM40.8284 40.528C32.8855 40.8271 24.9425 40.3286 17.1002 39.132C16.9996 31.454 16.1953 23.7761 14.7877 16.1978C19.3121 16.2975 23.9371 16.497 28.4615 16.5967C30.8746 16.6964 33.1871 16.6964 35.6001 16.7961C37.5104 16.8958 39.4208 16.8958 41.3311 17.195C42.5376 24.9726 42.4371 32.85 40.8284 40.528Z" fill="black"/>
<path d="M67.2712 14.9019C63.0484 15.0016 58.8256 15.0016 54.5022 15.1013C53.4968 15.1013 52.4914 15.9987 52.5919 16.9958C52.5919 17.993 53.3963 18.8904 54.5022 18.8904C58.7251 18.7907 62.9479 18.7907 67.2712 18.691C68.2767 18.691 69.2821 17.7936 69.1816 16.7964C69.1816 15.7993 68.3772 14.9019 67.2712 14.9019Z" fill="black"/>
<path d="M72.3987 22.7789C66.5671 22.2804 60.6351 22.1806 54.8036 22.4798C53.7981 22.5795 52.8932 23.2775 52.8932 24.3744C52.8932 25.3715 53.7981 26.3686 54.8036 26.2689C60.6351 25.9698 66.5671 26.0695 72.3987 26.5681C73.4041 26.6678 74.309 25.6706 74.309 24.6735C74.309 23.5766 73.4041 22.8786 72.3987 22.7789Z" fill="black"/>
<path d="M76.5212 40.6281C76.4207 39.7307 76.119 38.933 75.5158 38.3347C74.7114 37.6367 73.706 37.4373 72.7006 37.2378C68.2767 36.3404 63.6517 36.0413 59.1272 36.2407C58.725 36.2407 58.3229 36.4401 58.0212 36.6396C56.4126 35.9416 54.5022 36.3404 53.3963 37.7364C52.2903 39.1324 52.0892 41.2264 52.5919 42.9215C53.0946 44.6167 54.8039 45.4144 56.4125 45.5141C58.3229 45.7135 60.2332 45.5141 62.1435 45.5141C64.2549 45.5141 66.2658 45.5141 68.3772 45.4144H71.3935C72.3989 45.4144 73.4044 45.4144 74.3093 45.1152C76.119 44.3175 76.7223 42.423 76.5212 40.6281ZM70.0864 41.6252C66.668 41.6252 63.149 41.725 59.7305 41.725C58.725 41.725 57.2169 41.9244 56.4125 41.725V41.6252C56.4125 41.5255 56.4125 41.3261 56.4125 41.2264C56.4125 41.027 56.4125 40.7278 56.4125 40.4287C56.5131 40.1295 56.6136 40.0298 56.6136 40.0298C57.3174 40.329 57.9207 40.2292 58.4234 39.8304C58.6245 39.9301 58.9261 40.0298 59.3283 40.0298C62.7468 39.8304 66.1652 39.9301 69.5837 40.5284C70.3881 40.6281 71.0919 40.8275 71.8962 40.9272C72.1978 41.027 72.6 41.1267 72.9017 41.2264C72.9017 41.3261 72.9017 41.5255 72.9017 41.6252C71.7957 41.725 70.8908 41.6252 70.0864 41.6252Z" fill="black"/>
<path d="M63.0484 53.9895C55.3066 52.4938 47.4642 52.7929 39.6218 52.6932C31.6789 52.5935 23.6354 52.1946 15.6925 51.6961C13.1789 51.4967 13.2795 55.2858 15.6925 55.4852C23.5349 55.9838 31.2767 56.2829 39.1191 56.4823C46.7604 56.5821 54.5022 56.1832 62.043 57.5792C64.456 58.0778 65.4615 54.3884 63.0484 53.9895Z" fill="black"/>
<path d="M44.1459 60.5703C34.6949 59.8723 25.2438 59.6729 15.6922 59.7726C13.1786 59.7726 13.1786 63.5617 15.6922 63.5617C25.1433 63.3623 34.6949 63.6615 44.1459 64.3594C46.559 64.5589 46.559 60.7698 44.1459 60.5703Z" fill="black"/>
<path d="M30.6733 67.9498L15.6923 67.3516C14.6869 67.3516 13.782 68.249 13.782 69.2461C13.782 70.343 14.6869 71.1407 15.6923 71.1407L30.6733 71.739C31.6787 71.739 32.5836 70.8415 32.5836 69.8444C32.6841 68.7476 31.7792 67.9498 30.6733 67.9498Z" fill="black"/>
<path d="M33.9915 85.1005C33.9915 83.0065 33.7904 80.8128 31.8801 79.6162C30.9752 79.0179 29.8692 78.9182 28.8638 78.8185C27.7578 78.7188 26.5513 78.6191 25.4453 78.5194C22.9317 78.3199 20.4182 78.2202 17.9046 78.2202C16.7986 78.2202 16.1953 79.0179 16.1953 79.9154C16.0948 79.9154 15.8937 79.8156 15.7932 79.8156C14.7877 79.8156 14.0839 80.7131 13.9834 81.7102L13.3801 88.391C13.179 90.485 12.5758 93.0776 13.9834 94.8724C15.1899 96.3681 17.1002 96.6673 18.8095 96.9664C20.9209 97.3653 23.0323 97.6644 25.1437 97.7641C26.1491 97.8638 27.1546 97.8638 28.16 97.8638C29.266 97.8638 30.4725 97.9635 31.4779 97.6644C33.891 97.0661 33.5893 93.7756 33.7904 91.7813C33.9915 89.5876 33.9915 87.3939 33.9915 85.1005ZM27.8584 94.1744C26.7524 94.1744 25.5459 94.1744 24.4399 94.0747C22.2279 93.8753 20.1165 93.5761 18.0051 93.0776C17.6029 92.9779 16.7986 92.7784 16.6981 92.4793C16.497 92.0804 16.6981 91.3824 16.7986 90.9836C16.8991 90.3853 16.8991 89.787 16.9997 89.1887C17.2008 86.7956 17.4019 84.4025 17.7035 81.9096C17.804 81.9096 17.9046 81.9096 18.1057 81.9096C20.4182 81.9096 22.6301 82.0093 24.9426 82.2088C26.0486 82.3085 27.1546 82.4082 28.16 82.5079C28.6627 82.5079 29.8692 82.5079 30.3719 82.9068C30.6736 83.2059 30.573 84.203 30.573 84.7016C30.573 85.8982 30.573 87.0947 30.573 88.2913C30.573 89.4879 30.4725 90.6844 30.3719 91.881C30.3719 92.3796 30.2714 92.9779 30.2714 93.4764C30.2714 93.6759 30.2714 93.8753 30.2714 94.0747C30.0703 94.0747 29.8692 94.0747 29.6681 94.0747C28.9643 94.1744 28.3611 94.1744 27.8584 94.1744Z" fill="black"/>
<path d="M81.4477 86.9945C81.4477 84.9005 81.2466 82.7068 79.3363 81.5103C78.4314 80.912 77.3254 80.8123 76.32 80.7125C75.214 80.6128 74.0075 80.5131 72.9015 80.4134C70.3879 80.214 67.8743 80.1143 65.3607 80.1143C64.2548 80.1143 63.6515 80.912 63.6515 81.8094C63.551 81.8094 63.3499 81.7097 63.2493 81.7097C62.2439 81.7097 61.5401 82.6071 61.4396 83.6042L60.8363 90.2851C60.6352 92.3791 60.032 94.9716 61.4396 96.7665C62.6461 98.2622 64.5564 98.5613 66.2656 98.8605C68.377 99.2593 70.4885 99.5584 72.5999 99.6582C73.6053 99.7579 74.6107 99.7579 75.6162 99.7579C76.7221 99.7579 77.9287 99.8576 78.9341 99.5584C81.3471 98.9602 81.0455 95.6696 81.2466 93.6753C81.4477 91.4816 81.5482 89.1882 81.4477 86.9945ZM75.3145 96.0685C74.2086 96.0685 73.002 96.0685 71.8961 95.9688C69.6841 95.7693 67.5727 95.4702 65.4613 94.9716C65.0591 94.8719 64.2548 94.6725 64.1542 94.3733C63.9531 93.9745 64.1542 93.2765 64.2548 92.8776C64.3553 92.2793 64.3553 91.6811 64.4559 91.0828C64.6569 88.6896 64.858 86.2965 65.1597 83.8037C65.2602 83.8037 65.3607 83.8037 65.5618 83.8037C67.8743 83.8037 70.0863 83.9034 72.3988 84.1028C73.5048 84.2025 74.6107 84.3022 75.6162 84.402C76.1189 84.402 77.3254 84.402 77.8281 84.8008C78.1297 85.1 78.0292 86.0971 78.0292 86.5957C78.0292 87.7922 78.0292 88.9888 78.0292 90.1853C78.0292 91.3819 77.9287 92.5785 77.8281 93.7751C77.8281 94.2736 77.7276 94.8719 77.7276 95.3705C77.7276 95.5699 77.7276 95.7693 77.7276 95.9688C77.5265 95.9688 77.3254 95.9688 77.1243 95.9688C76.4205 96.0685 75.9178 96.0685 75.3145 96.0685Z" fill="black"/>
<path d="M37.2085 91.083C37.2085 93.177 37.4096 95.3707 39.3199 96.5673C40.2248 97.1656 41.3308 97.2653 42.3362 97.365C43.4422 97.4647 44.6487 97.5644 45.7547 97.6641C48.2683 97.8636 50.7819 97.9633 53.2954 97.9633C54.4014 97.9633 55.0047 97.1656 55.0047 96.2681C55.1052 96.2681 55.3063 96.3679 55.4068 96.3679C56.4123 96.3679 57.1161 95.4704 57.2166 94.4733L57.8199 87.7925C58.021 85.6985 58.6242 83.1059 57.2166 81.3111C56.0101 79.8154 54.0998 79.5162 52.3905 79.2171C50.2791 78.8182 48.1677 78.5191 46.0563 78.4194C45.0509 78.3197 44.0455 78.3197 43.04 78.3197C41.934 78.3197 40.7275 78.2199 39.7221 78.5191C37.3091 79.1174 37.6107 82.4079 37.4096 84.4022C37.2085 86.5959 37.108 88.7896 37.2085 91.083ZM43.2411 82.0091C44.3471 82.0091 45.5536 82.0091 46.6596 82.1088C48.8715 82.3082 50.9829 82.6074 53.0944 83.1059C53.4965 83.2056 54.3009 83.4051 54.4014 83.7042C54.6025 84.1031 54.4014 84.8011 54.3009 85.1999C54.2003 85.7982 54.2003 86.3965 54.0998 86.9948C53.8987 89.3879 53.6976 91.781 53.396 94.2739C53.2954 94.2739 53.1949 94.2739 52.9938 94.2739C50.6813 94.2739 48.4694 94.1742 46.1569 93.9747C45.0509 93.875 43.9449 93.7753 42.9395 93.6756C42.4368 93.6756 41.2302 93.6756 40.7275 93.2767C40.4259 92.9776 40.5264 91.9805 40.5264 91.4819C40.5264 90.2853 40.5264 89.0888 40.5264 87.8922C40.5264 86.6956 40.627 85.4991 40.7275 84.3025C40.7275 83.8039 40.8281 83.2056 40.8281 82.7071C40.8281 82.5076 40.8281 82.3082 40.8281 82.1088C41.0292 82.1088 41.2302 82.1088 41.4313 82.1088C42.1351 82.0091 42.7384 82.0091 43.2411 82.0091Z" fill="black"/>
<path d="M80.2411 104.145C63.3498 103.148 46.358 103.347 29.3662 103.846C24.5401 103.946 19.6135 104.145 14.7874 104.345C12.2738 104.444 12.2738 108.233 14.7874 108.134C31.7792 107.535 48.6705 106.937 65.6623 107.336C70.4884 107.436 75.415 107.635 80.2411 107.934C82.7547 108.134 82.7547 104.345 80.2411 104.145Z" fill="black"/>
<path d="M42.4367 105.841C42.5373 104.943 42.1351 104.046 41.3307 103.547C40.7275 103.149 39.9231 103.248 39.2193 103.149C38.5155 103.149 37.8117 103.049 37.1079 103.049C34.4938 102.949 31.7791 102.75 29.0644 102.849C27.7574 102.849 26.3498 102.949 25.0427 103.348C23.5346 103.847 22.4286 105.641 23.3335 107.137C24.1378 108.533 25.9476 108.334 27.3552 108.433C28.7628 108.533 30.0699 108.533 31.4775 108.533C34.5943 108.633 37.6106 108.533 40.6269 108.334C41.6324 108.234 42.5372 107.536 42.5372 106.439C42.6378 106.339 42.5373 106.04 42.4367 105.841Z" fill="#F7C300"/>
<path d="M43.9449 102.949C43.04 101.254 41.3308 100.855 39.6216 101.254C39.3199 101.154 39.0183 101.054 38.7167 100.955C34.3933 100.855 30.0699 100.655 25.8471 100.755C23.9368 100.755 21.2221 100.456 20.6189 102.749C20.4178 103.647 20.6189 104.843 20.7194 105.741C20.82 106.838 20.82 107.935 20.9205 108.932C21.2221 111.624 24.0373 111.325 26.0482 111.325C28.1596 111.325 30.271 111.425 32.3824 111.425C34.4939 111.425 36.6053 111.524 38.7167 111.524C40.9286 111.524 43.5428 112.023 44.4476 109.53C45.1514 107.635 45.0509 104.843 43.9449 102.949ZM37.2085 107.835C35.7004 107.835 34.1922 107.735 32.5835 107.735C31.0754 107.735 29.5672 107.635 27.9585 107.635C27.1542 107.635 26.3498 107.635 25.5455 107.635C25.2439 107.635 24.8417 107.635 24.5401 107.635C24.5401 107.137 24.4395 106.638 24.4395 106.239L24.339 104.843C24.339 104.744 24.339 104.744 24.339 104.644C24.4395 104.644 24.6406 104.644 24.7412 104.644C25.445 104.644 26.0482 104.644 26.752 104.644C28.0591 104.644 29.3661 104.644 30.7738 104.644C33.2873 104.644 35.7004 104.744 38.214 104.843C38.8172 105.342 39.6216 105.342 40.3254 105.043C40.4259 105.043 40.5265 104.943 40.627 104.943C40.627 104.943 40.627 104.943 40.627 105.043C40.8281 105.242 40.8281 105.741 40.8281 105.94C40.9286 106.439 40.9286 106.937 40.9286 107.436C40.9286 107.635 40.9286 107.835 40.9286 108.034C40.9286 108.134 40.9286 108.134 40.9286 108.234C40.4259 108.234 40.0237 108.134 39.6216 108.134C38.7167 107.935 38.0129 107.935 37.2085 107.835Z" fill="black"/>
</svg>
