<svg width="88" height="121" viewBox="0 0 88 121" fill="none" xmlns="http://www.w3.org/2000/svg">
<path d="M48.1959 19.9966C47.9976 17.7878 46.4111 15.2778 44.0314 15.4786C37.4873 16.1814 30.9432 16.2818 24.2999 15.8802C22.7135 15.7798 21.4245 16.7838 20.7304 18.1894C19.5406 18.8922 18.7473 20.097 18.6482 21.9043C18.549 25.2175 18.4499 28.6311 18.3507 31.9444C18.2516 34.4544 17.6567 38.0688 18.4499 40.4785C20.2346 46.1009 29.8525 44.6953 34.1161 44.8961C39.1729 45.1973 45.1221 46.7033 46.8077 40.2777C48.4933 33.7516 48.6917 26.6231 48.1959 19.9966Z" fill="#F7C300"/>
<path d="M30.3484 87.4657C30.3484 87.3653 30.4475 87.3653 30.4475 87.2649C31.439 85.3573 30.9433 83.4497 29.7534 81.7429C28.2661 79.6344 25.6881 80.1364 23.6059 80.538C21.8212 80.8392 19.9373 81.2408 18.1525 81.5421C16.3677 81.8433 14.9796 84.0521 15.0787 85.8593C15.1779 87.7669 14.9796 89.9757 15.3762 91.8834C15.7728 93.289 16.566 94.293 17.6567 94.9958C18.6483 95.5982 19.739 95.6986 20.9288 95.4978C20.9288 95.4978 21.1271 95.4978 21.2262 95.3974C22.0195 95.799 22.8127 96.2006 23.6059 96.4014C26.0848 97.0038 29.0594 95.9998 30.0509 93.289C30.6458 91.5822 30.3484 89.5741 30.0509 87.6665C30.2492 87.5661 30.2492 87.5661 30.3484 87.4657Z" fill="#59C59F"/>
<path d="M51.2699 81.8437C49.5843 81.8437 47.9978 81.8437 46.3122 81.8437C45.9156 81.8437 45.6181 81.9441 45.3207 81.9441C43.0402 79.3337 37.8842 80.3377 37.9833 84.8558C38.0825 88.2694 37.4876 92.9882 40.6605 95.0967C43.5359 96.9039 46.7089 94.7955 49.6835 95.8999C52.3606 96.8035 54.9386 94.3939 55.0377 91.5826C55.0377 90.3778 55.1369 89.2734 55.0377 88.0686C55.9301 85.3578 54.7403 81.7433 51.2699 81.8437Z" fill="#59C59F"/>
<path d="M77.4461 91.9843C77.2478 88.7715 77.5452 84.6551 73.9757 83.4502C71.4969 82.647 68.324 83.0486 65.746 83.0486C62.4739 82.9482 61.1849 86.2615 61.879 88.8719C61.1849 89.3739 60.59 90.1771 60.3917 91.1811C59.7968 93.39 61.0858 96.3016 63.3663 96.7032C66.1426 97.2052 68.9189 97.8076 71.6952 98.3096C73.6782 98.6108 75.7605 98.2092 76.8512 96.2012C77.5452 94.7956 77.5452 93.4904 77.4461 91.9843Z" fill="#59C59F"/>
<path d="M1.69315 29.9363C1.29653 21.603 0.701632 13.2697 0.00755868 4.93644C-0.190748 2.52682 3.57707 2.52682 3.77537 4.93644C6.25421 34.354 6.94828 63.8719 5.75844 93.3898C5.46098 101.321 4.96522 109.153 4.3703 117.084C24.6967 116.884 45.0232 116.582 65.3496 116.382C71.1005 116.281 76.8514 116.281 82.7015 116.181C82.8006 116.181 82.8006 116.181 82.8998 116.181C83.9905 86.7633 84.0896 57.3458 83.1972 28.0287C82.9989 20.2978 82.6023 12.4665 82.3048 4.73564C63.0691 4.53484 43.8333 4.33404 24.5976 4.33404C19.045 4.33404 13.3933 4.33404 7.84067 4.33404C5.46099 4.33404 5.46099 0.518799 7.84067 0.518799C27.5722 0.518799 47.3037 0.619199 66.9361 0.820001C72.1912 0.820001 77.4463 0.920403 82.7015 1.0208C83.693 0.217596 85.7752 0.7196 85.8744 2.42642C87.3617 32.5467 87.8574 62.7674 87.2625 92.8878C87.0642 101.422 86.8659 110.056 86.4693 118.59C86.3701 120.398 84.2879 120.9 83.2964 119.996C83.0981 120.096 82.8997 120.096 82.6023 120.096C61.9784 120.297 41.4537 120.598 20.8298 120.799C15.0789 120.9 9.32797 120.9 3.47793 121C2.88301 121 2.38725 120.799 2.08979 120.398C1.09825 120.398 0.205853 119.795 0.305007 118.59C2.78384 88.9721 3.18045 59.4542 1.69315 29.9363Z" fill="black"/>
<path d="M43.8331 15.5789C43.734 14.7757 43.2382 13.9725 42.3458 13.7717C40.0653 13.2697 37.7848 13.1693 35.4051 13.1693C32.9263 13.0689 30.4474 13.0689 27.9686 12.9685C23.0109 12.8681 18.0533 12.6673 13.0956 12.5669C12.0049 12.5669 11.41 13.2697 11.41 14.1733C10.8151 14.5749 10.4185 15.1773 10.5176 15.8801C12.1041 24.2134 12.8973 32.7475 12.8973 41.2816C12.8973 42.0848 13.5914 42.888 14.3846 43.0888C23.3084 44.5948 32.3313 45.1972 41.3543 44.7956C42.1475 44.7956 42.9408 44.0928 43.0399 43.2896C45.1221 34.1531 45.3204 24.7154 43.8331 15.5789ZM39.7679 40.88C32.0339 41.1812 24.2999 40.6792 16.7643 39.4744C16.6651 31.7435 15.8719 24.0126 14.4838 16.3821C18.9457 16.4825 23.4076 16.6833 27.7703 16.7837C30.0508 16.8841 32.4305 16.8841 34.711 16.9845C36.595 17.0849 38.4789 17.0849 40.2636 17.3861C41.4535 25.2174 41.2552 33.1491 39.7679 40.88Z" fill="black"/>
<path d="M67.2333 41.9844C67.1341 41.0808 67.035 40.2776 66.5392 39.6752C66.0434 38.9724 65.3493 38.7716 64.6553 38.5708C61.6807 37.6672 58.6069 37.366 55.5332 37.5668C55.2357 37.5668 55.0374 37.7676 54.8391 37.9684C53.7484 37.2656 52.5586 37.6672 51.7653 39.0728C50.9721 40.4784 50.8729 42.5868 51.2696 44.2937C51.567 46.0005 52.7569 46.8037 53.8476 46.9041C55.1365 47.1049 56.4255 46.9041 57.7145 46.9041C59.1027 46.9041 60.4908 46.9041 61.879 46.8037H63.8621C64.5561 46.8037 65.2502 46.8037 65.8451 46.5025C66.9358 45.6993 67.3324 43.7916 67.2333 41.9844ZM62.8705 42.9884C60.59 42.9884 58.2103 43.0888 55.9298 43.0888C55.2357 43.0888 54.2442 43.2896 53.6493 43.0888V42.9884C53.6493 42.888 53.6493 42.6872 53.6493 42.5868C53.6493 42.386 53.6493 42.0848 53.6493 41.7836C53.6493 41.4824 53.7484 41.382 53.7484 41.382C54.145 41.6832 54.6408 41.5828 54.9382 41.1812C55.1366 41.2816 55.3349 41.382 55.5332 41.382C57.8137 41.1812 60.0942 41.2816 62.3747 41.884C62.8705 41.9844 63.3663 42.1852 63.8621 42.2856C64.0604 42.386 64.3578 42.4864 64.5561 42.5868C64.5561 42.6872 64.5561 42.888 64.5561 42.9884C64.0604 43.0888 63.4654 42.9884 62.8705 42.9884Z" fill="black"/>
<path d="M61.3833 54.4338C53.8476 52.9278 46.2128 53.229 38.578 53.1286C30.844 53.0282 23.1101 52.6266 15.2769 52.1246C12.8973 51.9238 12.8973 55.739 15.2769 55.9398C22.9118 56.4418 30.4474 56.743 38.0822 56.9438C45.5187 57.0442 53.0544 56.6426 60.3917 58.0483C62.6723 58.5503 63.7629 54.8354 61.3833 54.4338Z" fill="black"/>
<path d="M42.9407 61.0604C33.7195 60.3576 24.4982 60.1567 15.2769 60.2572C12.8973 60.2572 12.8973 64.0724 15.2769 64.0724C24.4982 63.8716 33.7195 64.1728 42.9407 64.8756C45.3204 65.0764 45.3204 61.2612 42.9407 61.0604Z" fill="black"/>
<path d="M29.9521 68.4903L15.2775 67.8879C14.2859 67.8879 13.3936 68.7916 13.3936 69.7956C13.3936 70.9 14.2859 71.7032 15.2775 71.7032L29.853 72.3056C30.8446 72.3056 31.7369 71.402 31.7369 70.398C31.7369 69.2936 30.9437 68.4903 29.9521 68.4903Z" fill="black"/>
<path d="M33.0252 85.7592C33.0252 83.6508 32.8269 81.442 30.943 80.2372C30.0506 79.6348 29.0591 79.5343 27.9684 79.4339C26.8777 79.3335 25.787 79.2332 24.5972 79.1327C22.1184 78.9319 19.7387 78.8315 17.2598 78.8315C16.1692 78.8315 15.6734 79.6347 15.5742 80.5384C15.4751 80.5384 15.2768 80.438 15.1776 80.438C14.1861 80.438 13.492 81.3416 13.3929 82.3456L12.7979 89.0724C12.5996 91.1809 12.0047 93.7913 13.3929 95.5985C14.5827 97.1045 16.4666 97.4057 18.1522 97.7069C20.2344 98.1085 22.3167 98.4097 24.3989 98.5101C25.3904 98.6105 26.2828 98.6105 27.2743 98.6105C28.365 98.6105 29.4557 98.7109 30.5464 98.4097C32.8269 97.8073 32.6286 94.4941 32.7278 92.4861C33.0252 90.2773 33.1244 88.0684 33.0252 85.7592ZM27.076 94.8957C25.9853 94.8957 24.7955 94.8957 23.7048 94.7953C21.6226 94.5945 19.4412 94.2933 17.4582 93.7913C17.0616 93.6909 16.3675 93.4901 16.1692 93.1889C15.9708 92.7873 16.1692 92.0845 16.2683 91.6829C16.3675 91.0805 16.3675 90.4781 16.4666 89.8757C16.6649 87.466 16.8632 85.0564 17.1607 82.5464C17.2598 82.5464 17.359 82.5464 17.5573 82.5464C19.7387 82.5464 22.0192 82.6468 24.2006 82.8476C25.2913 82.948 26.2828 83.0484 27.3735 83.1488C27.8693 83.1488 29.0591 83.1488 29.4557 83.5504C29.7532 83.8516 29.654 84.8556 29.654 85.3576C29.654 86.5624 29.654 87.7672 29.654 88.972C29.654 90.1769 29.5549 91.3817 29.4557 92.5865C29.4557 93.0885 29.3566 93.6909 29.3566 94.1929C29.3566 94.3937 29.3566 94.5945 29.3566 94.7953C29.1583 94.7953 28.9599 94.7953 28.7616 94.7953C28.1667 94.8957 27.6709 94.8957 27.076 94.8957Z" fill="black"/>
<path d="M79.3304 87.6669C79.3304 85.5585 79.1321 83.3497 77.2482 82.1449C76.3558 81.5425 75.3643 81.4421 74.2736 81.3417C73.1829 81.2413 72.0922 81.1409 70.9024 81.0405C68.4235 80.8397 66.0439 80.7393 63.565 80.7393C62.4744 80.7393 61.9786 81.5425 61.8794 82.4461C61.7803 82.4461 61.582 82.3457 61.4828 82.3457C60.4913 82.3457 59.7972 83.2493 59.698 84.2533L59.1031 90.9802C58.9048 93.0886 58.3099 95.699 59.698 97.5062C60.8879 99.0122 62.7718 99.3134 64.4574 99.6146C66.5396 100.016 68.6218 100.317 70.7041 100.418C71.6956 100.518 72.588 100.518 73.5795 100.518C74.6702 100.518 75.7609 100.619 76.8516 100.317C79.1321 99.7151 78.9338 96.4018 79.0329 94.3938C79.3304 92.185 79.3304 89.8758 79.3304 87.6669ZM73.3812 96.8034C72.2905 96.8034 71.1007 96.8034 70.01 96.703C67.9278 96.5022 65.7464 96.201 63.7633 95.699C63.3667 95.5986 62.6727 95.3978 62.4743 95.0966C62.276 94.695 62.4744 93.9922 62.5735 93.5906C62.6727 92.9882 62.6726 92.3858 62.7718 91.7834C62.9701 89.3737 63.1684 86.9641 63.4659 84.4541C63.565 84.4541 63.6642 84.4541 63.8625 84.4541C66.0439 84.4541 68.3244 84.5545 70.5058 84.7553C71.5965 84.8557 72.588 84.9561 73.6787 85.0565C74.1744 85.0565 75.3643 85.0565 75.7609 85.4581C76.0583 85.7593 75.9592 86.7633 75.9592 87.2653C75.9592 88.4701 75.9592 89.6749 75.9592 90.8798C75.9592 92.0846 75.86 93.2894 75.7609 94.4942C75.7609 94.9962 75.6617 95.5986 75.6617 96.1006C75.6617 96.3014 75.6617 96.5022 75.6617 96.703C75.4634 96.703 75.2651 96.703 75.0668 96.703C74.3727 96.703 73.877 96.8034 73.3812 96.8034Z" fill="black"/>
<path d="M36.1988 91.7834C36.1988 93.8918 36.3971 96.1007 38.281 97.3055C39.1734 97.9079 40.1649 98.0083 41.2556 98.1087C42.3463 98.2091 43.437 98.3095 44.6268 98.4099C47.1057 98.6107 49.4854 98.7111 51.9642 98.7111C53.0549 98.7111 53.5506 97.9079 53.6498 97.0043C53.749 97.0043 53.9473 97.1047 54.0464 97.1047C55.0379 97.1047 55.732 96.2011 55.8312 95.1971L56.4261 88.4702C56.6244 86.3618 57.2193 83.7513 55.8312 81.9441C54.6413 80.4381 52.7574 80.1369 51.0718 79.8357C48.9896 79.4341 46.9074 79.1329 44.8251 79.0325C43.8336 78.9321 42.9412 78.9321 41.9497 78.9321C40.859 78.9321 39.7683 78.8317 38.6776 79.1329C36.3971 79.7353 36.5954 83.0485 36.4963 85.0565C36.1988 87.165 36.0997 89.4742 36.1988 91.7834ZM42.148 82.6469C43.2387 82.6469 44.4285 82.6469 45.5192 82.7473C47.6014 82.9481 49.7828 83.2493 51.7659 83.7513C52.1625 83.8517 52.8566 84.0525 53.0549 84.3537C53.2532 84.7553 53.0549 85.4581 52.9557 85.8598C52.8566 86.4622 52.8566 87.0646 52.7574 87.667C52.5591 90.0766 52.3608 92.4862 52.0633 94.9962C51.9642 94.9962 51.865 94.9962 51.6667 94.9962C49.4854 94.9962 47.2048 94.8958 45.0234 94.695C43.9328 94.5946 42.9412 94.4942 41.8505 94.3938C41.3548 94.3938 40.1649 94.3938 39.7683 93.9922C39.4709 93.691 39.57 92.687 39.57 92.185C39.57 90.9802 39.57 89.7754 39.57 88.5706C39.57 87.3658 39.6692 86.161 39.7683 84.9561C39.7683 84.4541 39.8675 83.8517 39.8675 83.3497C39.8675 83.1489 39.8675 82.9481 39.8675 82.7473C40.0658 82.7473 40.2641 82.7473 40.4624 82.7473C41.0573 82.6469 41.5531 82.6469 42.148 82.6469Z" fill="black"/>
<path d="M78.1404 104.936C61.681 103.932 45.1224 104.133 28.6629 104.635C23.9035 104.735 19.2433 104.936 14.484 105.137C12.1043 105.237 12.1043 109.052 14.484 108.952C30.9434 108.349 47.502 107.747 63.9615 108.149C68.7209 108.249 73.3811 108.45 78.1404 108.751C80.5201 108.952 80.5201 105.036 78.1404 104.936Z" fill="black"/>
<path d="M41.3542 106.542C41.4533 105.638 41.0567 104.735 40.2635 104.233C39.6686 103.831 38.8754 103.932 38.1813 103.831C37.4872 103.831 36.7931 103.731 36.0991 103.731C33.5211 103.63 30.8439 103.43 28.266 103.53C26.977 103.53 25.5888 103.63 24.399 104.032C22.9117 104.534 21.821 106.341 22.7134 107.847C23.5066 109.253 25.2913 109.052 26.5803 109.153C27.9685 109.253 29.2575 109.253 30.6456 109.253C33.6202 109.353 36.5948 109.253 39.5694 109.052C40.561 108.952 41.4533 108.249 41.4533 107.144C41.5525 107.044 41.4533 106.843 41.3542 106.542Z" fill="#F7C300"/>
<path d="M42.8418 103.731C41.9494 102.024 40.2638 101.623 38.5782 102.024C38.2807 101.924 37.9833 101.823 37.6858 101.723C33.5214 101.623 29.2578 101.422 25.0933 101.522C23.3086 101.522 20.5323 101.221 20.0365 103.53C19.8382 104.434 20.0365 105.639 20.1357 106.542C20.2348 107.647 20.2348 108.751 20.334 109.755C20.6314 112.466 23.3086 112.165 25.3908 112.165C27.473 112.165 29.5552 112.265 31.6375 112.265C33.7197 112.265 35.8019 112.366 37.8841 112.366C39.9663 112.366 42.6435 112.868 43.4367 110.358C43.9325 108.45 43.8333 105.639 42.8418 103.731ZM36.1985 108.651C34.7112 108.651 33.2239 108.55 31.7366 108.55C30.2493 108.55 28.762 108.45 27.2747 108.45C26.4815 108.45 25.6883 108.45 24.9942 108.45C24.6967 108.45 24.3001 108.45 24.0026 108.45C24.0026 107.948 23.9035 107.446 23.9035 107.044L23.8044 105.639C23.8044 105.538 23.8044 105.538 23.8044 105.438C23.9035 105.438 24.1018 105.438 24.201 105.438C24.7959 105.438 25.49 105.438 26.0849 105.438C27.3739 105.438 28.6629 105.438 29.9518 105.438C32.3315 105.438 34.7112 105.538 37.1901 105.639C37.785 106.141 38.5782 106.141 39.2723 105.839C39.3714 105.839 39.4706 105.739 39.5697 105.739C39.5697 105.739 39.5697 105.739 39.5697 105.839C39.768 106.04 39.7681 106.542 39.7681 106.743C39.8672 107.245 39.8672 107.747 39.8672 108.249C39.8672 108.45 39.8672 108.651 39.8672 108.852C39.8672 108.952 39.8672 108.952 39.8672 109.052C39.3714 109.052 38.9748 108.952 38.5782 108.952C37.785 108.751 36.9918 108.651 36.1985 108.651Z" fill="black"/>
</svg>
