<svg width="241" height="144" viewBox="0 0 241 144" fill="none" xmlns="http://www.w3.org/2000/svg">
<path d="M229.462 124.789C226.44 122.067 224.503 118.644 221.791 115.689C218.691 112.344 213.19 117.167 216.289 120.511C219.156 123.622 221.093 127.2 224.27 130C227.292 132.566 228.687 136.3 231.786 138.866C235.273 141.822 239.303 135.678 235.816 132.722C233.259 130.544 232.019 127.044 229.462 124.789Z" fill="#F7C300"/>
<path d="M216.367 114.989C215.669 115.845 214.972 116.778 214.197 117.634C214.119 117.789 213.964 117.867 213.887 118.023C213.809 118.1 213.732 118.178 213.654 118.256C213.732 118.489 213.809 118.723 213.964 118.956C214.429 119.967 215.049 120.823 215.747 121.6C217.451 123.778 219.156 125.878 220.938 127.978C223.96 131.634 227.06 135.367 230.159 138.945C230.702 139.333 231.167 139.722 231.709 140.111C232.174 140.578 232.639 141.045 233.181 141.278C233.259 141.356 233.414 141.356 233.491 141.356C234.498 141.745 235.428 141.122 236.203 140.422C236.358 140.267 236.513 140.111 236.746 139.956C236.823 139.878 236.901 139.878 236.978 139.878C237.133 139.722 237.21 139.645 237.365 139.489C237.598 139.178 237.83 138.945 238.14 138.711C238.373 138.478 238.683 138.245 238.993 138.011L239.225 137.856C239.303 137.778 239.458 137.622 239.613 137.467C239.768 137.311 239.845 137.078 239.923 136.922C240 136.767 240 136.611 240 136.534C240 136.456 240 136.378 240 136.3C239.923 136.067 239.768 135.911 239.613 135.678C237.443 133.189 235.273 130.545 233.259 128.056C231.941 126.423 230.624 124.867 229.307 123.234C229.152 123 229.074 122.923 228.997 122.767C226.982 120.434 225.432 118.645 223.96 117.012L223.495 116.545C222.72 115.689 222.023 114.912 221.171 114.134C220.473 113.434 219.776 112.967 219.001 112.967C218.071 112.967 217.529 113.589 216.909 114.367L216.367 114.989ZM232.174 137.078C233.259 136.222 234.266 135.367 235.118 134.511L235.506 134.122L236.823 135.678C237.52 136.456 237.133 137 236.668 137.467C236.436 137.622 236.281 137.778 236.048 137.934C235.893 138.011 235.816 138.089 235.661 138.245L235.428 138.478C235.118 138.789 234.731 139.022 234.343 139.333L234.266 139.411H234.034C233.879 139.411 233.724 139.333 233.646 139.256C233.181 138.789 232.639 138.322 232.174 137.856L231.786 137.467L232.174 137.078ZM234.111 132.489L233.801 132.8C232.871 133.734 231.864 134.589 230.624 135.522L230.237 135.834L228.067 133.345L228.454 133.034C229.462 132.1 230.392 131.089 231.244 130L231.631 129.534L234.111 132.489ZM230.314 127.823L230.004 128.289C229.849 128.445 229.772 128.678 229.617 128.834C229.462 128.989 229.307 129.223 229.152 129.378C228.997 129.534 228.997 129.611 228.919 129.689C228.377 130.234 227.835 130.778 227.215 131.4L226.827 131.711L226.517 131.322C226.13 130.934 225.82 130.545 225.51 130.078L224.658 128.989L225.045 128.678C226.13 127.823 227.06 126.889 227.99 125.8L228.377 125.334L230.314 127.823ZM225.975 122.689C226.207 122.923 226.44 123.234 226.672 123.467L226.905 123.778L226.595 124.167L226.052 124.711C225.897 124.867 225.665 125.1 225.51 125.256C224.968 125.878 224.348 126.423 223.573 127.045L223.185 127.356L221.403 125.1L221.791 124.789C222.798 123.934 223.805 123 224.658 121.989L225.045 121.6L225.975 122.689ZM222.565 118.8C222.875 119.112 223.108 119.423 223.418 119.734L223.728 120.045L223.418 120.356C222.488 121.367 221.558 122.3 220.473 123.234L220.086 123.545L218.614 121.756L218.924 121.445C219.776 120.434 220.706 119.423 221.636 118.489L222.023 118.1L222.565 118.8ZM220.551 116.623L220.241 116.934C219.389 117.789 218.459 118.723 217.684 119.656L217.296 120.045L216.599 119.267C216.522 119.189 216.367 119.034 216.367 118.8C216.289 118.334 216.522 117.945 216.676 117.789L219.001 114.912L220.551 116.623Z" fill="#1E1E1E" stroke="#1E1E1E" stroke-width="0.5201" stroke-miterlimit="10"/>
<path d="M191.106 40.9458C191.106 40.5569 191.028 40.2458 190.951 39.857C190.331 37.057 188.084 34.7237 185.372 33.7904C182.272 32.7793 178.785 33.557 176.228 35.5015C176.383 35.3459 171.502 29.9793 171.037 29.5126C170.107 28.5793 169.1 27.646 168.092 26.7127C167.472 26.1682 167.007 25.546 166.31 25.2349C165.768 24.9238 165.148 24.846 164.605 24.9238C163.985 25.0016 163.443 25.3905 163.211 25.9349C162.591 27.4127 164.373 28.1904 165.225 29.046C166.233 29.9793 167.162 30.9126 168.015 31.9237C169.797 33.9459 171.424 36.1237 173.051 38.2236C173.594 38.9236 174.136 39.6236 174.911 39.857C176.461 40.4014 178.011 39.0792 179.483 38.3014C181.187 37.3681 183.28 36.9792 184.984 37.8348C186.689 38.6903 187.851 40.8681 187.076 42.6569C186.302 44.4458 183.512 44.9902 182.427 43.5125C184.054 43.668 185.217 41.4125 184.442 40.0125C183.59 38.6125 181.42 38.3792 180.103 39.3125C178.785 40.3236 178.243 42.1903 178.63 43.8236C179.25 47.0124 182.892 49.1124 186.069 48.3346C189.091 47.4791 191.261 44.2125 191.106 40.9458Z" fill="#1E1E1E"/>
<path d="M179.793 49.268C179.56 48.2569 178.398 47.6347 177.391 47.9458C176.306 48.2569 175.841 49.268 176.073 50.3568C176.461 52.3013 176.848 54.2457 176.771 56.1901C176.771 57.979 176.228 59.7678 175.763 61.4789C174.834 64.6678 173.826 67.7011 172.121 70.5788C170.572 73.1455 168.635 75.4788 166.387 77.501C165.303 78.4343 164.14 79.212 162.978 80.0676C161.351 81.2342 161.506 83.7231 161.428 85.512C161.351 88.7008 162.358 93.2119 158.174 93.8341C155.927 94.223 153.525 94.6896 151.2 94.3007C150.658 94.223 150.115 93.9896 149.65 93.6785C147.868 92.2008 148.565 88.9341 145.931 88.1564C143.994 87.6119 141.747 89.4786 139.964 90.1786C136.787 91.5008 133.378 92.4341 129.969 92.9008C126.559 93.3674 122.995 93.3674 119.585 92.9008C117.648 92.6674 115.634 92.5119 113.851 91.5786C112.224 90.723 111.217 87.8453 109.047 89.4008C108.272 89.9452 107.807 90.9563 107.652 91.9674C107.497 92.9785 107.652 93.9896 107.807 94.923C104.553 95.0785 101.299 94.8452 98.1216 94.1452C97.9666 94.1452 97.7341 94.0674 97.6567 93.9119C97.5792 93.7563 97.5792 93.6008 97.5792 93.4452V88.0786C97.5792 86.9897 97.5792 85.7453 96.9593 84.812C96.2619 83.8009 94.7896 83.1009 93.8598 82.4009C91.3802 80.612 88.8232 78.8232 86.731 76.6454C85.1813 75.0899 83.864 73.301 82.8567 71.3566C82.3143 70.3455 81.8493 69.3344 81.3844 68.3233C80.9195 67.1566 80.5321 66.2233 79.2923 65.9122C78.6724 65.7567 77.975 65.7567 77.2776 65.7567L74.6431 65.8344C74.4881 65.8344 74.4106 65.8344 74.3331 65.7567C74.2556 65.6789 74.2556 65.6011 74.1781 65.5233C73.8682 64.6678 73.5583 63.8122 73.4033 62.9567C73.3258 62.6456 72.9384 59.6123 73.0933 59.6123C73.9457 59.5345 74.7205 59.0678 74.8755 58.2123C75.3404 55.879 75.8829 53.6235 76.4253 51.2902C76.6577 50.3568 76.1928 49.3457 75.3404 48.9569C75.4954 48.4902 75.6504 47.9458 75.8054 47.4791C76.1153 46.5458 76.2703 45.4569 76.9677 44.6791C78.2849 43.2014 80.5321 45.2236 82.1593 44.6791C82.7792 44.4458 83.3216 43.9014 83.6315 43.2792C84.0965 42.4236 84.3289 41.4125 84.8713 40.557C85.6462 39.3125 86.4211 37.9903 87.2734 36.7459C89.3656 33.5571 91.6902 30.6015 94.2472 27.7238C94.4022 27.5682 94.4797 27.4127 94.6347 27.3349C95.642 26.1683 96.8043 25.0016 97.0368 23.5238C97.2692 22.5905 97.0368 21.5794 96.8818 20.5683C96.1844 16.9128 95.0996 13.3351 93.6273 9.83513C96.4944 9.29069 99.6713 10.5351 101.376 12.8684C102.616 14.5795 103.158 16.6795 104.398 18.3128C105.715 19.9461 108.427 20.8017 109.822 19.2461C109.9 19.1683 110.364 22.5128 110.364 22.8239C110.364 24.0683 110.519 25.3127 111.449 26.246C111.914 26.7127 112.612 27.0238 113.309 26.7905C113.929 26.5571 114.239 26.0127 114.394 25.3905C114.936 23.0572 114.006 19.7906 113.464 17.535C113.154 16.1351 112.767 14.8128 112.302 13.4906C112.147 13.024 111.139 9.67958 110.674 9.6018C114.084 10.1462 117.183 12.4795 118.656 15.5906C119.275 16.9128 119.74 18.3906 120.98 19.1683C122.22 19.9461 124.312 18.6239 123.615 17.3795C125.939 17.1462 128.264 16.9906 130.589 17.0684C130.899 17.0684 131.286 17.0684 131.596 16.9128C131.906 16.7573 132.216 16.4462 132.448 16.1351C133.068 15.3573 133.533 14.1129 132.526 13.4906C132.216 13.2573 131.751 13.1795 131.363 13.1795C129.659 12.9462 127.877 13.1018 126.249 13.2573C125.474 13.3351 124.777 13.4906 124.002 13.6462C123.77 13.724 122.607 14.1129 122.375 13.8017C119.585 9.13514 114.626 5.32407 109.202 5.79073C107.807 5.94629 106.258 6.64628 106.103 7.96849C106.025 8.51292 106.258 9.05736 106.49 9.6018C107.343 11.5462 108.195 13.4906 108.97 15.4351C108.505 15.5906 108.117 15.7462 107.652 15.9017C106.335 12.7906 104.398 9.83513 101.608 7.89071C98.8964 5.94629 95.2546 5.01297 92.0001 6.02407C91.1478 6.33517 90.2179 6.80183 89.908 7.65738C89.6755 8.35737 89.8305 9.21291 90.0629 9.91291C91.2253 14.1906 92.3876 18.4684 93.5499 22.7461C88.4357 28.0349 84.019 34.0237 80.5321 40.4792C80.6096 40.2459 77.7425 40.2459 77.5101 40.2459C76.4253 40.4792 75.4179 40.9459 74.6431 41.7236C72.6284 43.5125 72.0085 46.3902 71.2336 48.7235C70.6137 50.5902 70.0713 52.379 69.7614 54.3235C69.064 57.9012 68.909 61.6345 69.9164 65.1344C70.3813 66.8455 71.0787 68.9455 72.9384 69.4899C73.8682 69.7233 74.8755 69.6455 75.8054 69.6455C76.4253 69.6455 77.1226 69.6455 77.7425 69.6455C79.1373 73.1455 81.152 76.4121 83.7865 79.1343C86.576 82.0898 89.9855 84.3453 93.2399 86.7564C93.3949 86.8342 93.5499 86.9897 93.6273 87.1453C93.7048 87.3008 93.7048 87.5342 93.7048 87.7675C93.7048 89.6341 93.7048 91.5786 93.6273 93.4452C93.6273 96.4007 94.6347 97.4118 97.4242 98.034C100.911 98.734 104.398 99.0451 107.962 98.9674C108.815 98.9674 109.745 98.8896 110.442 98.3451C111.527 97.4896 111.372 96.0896 111.527 94.8452C112.999 95.0007 114.704 96.0118 116.253 96.3229C119.585 96.9452 122.917 97.2563 126.327 97.1007C129.659 96.9452 133.068 96.4785 136.323 95.623C137.95 95.1563 139.577 94.6119 141.127 93.9896C141.902 93.6785 142.676 93.3674 143.451 92.9785C143.839 92.823 144.226 92.5897 144.691 92.3563C144.769 92.4341 144.924 92.5897 145.079 92.6674C145.311 95.1563 147.326 97.1785 149.65 97.8785C152.362 98.734 155.617 98.1896 158.329 97.7229C159.646 97.4896 161.118 97.334 162.281 96.634C163.365 96.0118 164.14 95.0007 164.605 93.8341C165.845 90.8786 165.225 87.1453 165.535 84.0342C165.535 83.7231 165.613 83.412 165.69 83.1009C165.923 82.6342 166.31 82.3231 166.697 82.012C168.48 80.612 170.184 79.3676 171.734 77.6565C173.516 75.7121 175.066 73.5343 176.228 71.201C178.088 67.6233 179.483 63.5789 180.258 59.6123C180.878 56.0346 180.49 52.7679 179.793 49.268Z" fill="#1E1E1E"/>
<path d="M183.202 37.4457C183.359 37.524 183.28 37.4457 183.202 37.4457V37.4457Z" fill="#1E1E1E"/>
<path d="M95.7195 47.5569C94.9446 46.0013 93.0849 45.3013 91.4577 45.3791C90.6054 45.3791 89.6755 45.6124 88.9007 46.0791C88.1258 46.6235 87.4284 47.4013 87.1959 48.3346C87.1959 48.4902 87.1185 48.6457 87.1185 48.8791C86.731 49.6568 86.6535 50.5124 86.886 51.2902C87.3509 53.2346 89.4431 54.1679 91.2253 54.2457C92.93 54.3234 94.5572 53.4679 95.5645 52.0679C96.4169 50.7457 96.4169 48.9568 95.7195 47.5569Z" fill="#1E1E1E"/>
<path d="M151.975 112.656C152.13 111.411 153.757 110.245 154.997 110.322C165.768 111.1 176.848 110.167 187.696 109.933C189.401 109.856 190.796 111.411 190.796 113.045C190.796 113.822 190.796 114.678 190.873 115.456C190.951 117.556 189.324 118.489 187.696 118.489C187.464 118.567 187.231 118.567 186.921 118.644C181.73 118.878 176.538 119.033 171.347 119.189C166.155 119.344 160.808 119.033 155.694 119.811C153.68 120.122 151.82 119.033 151.742 116.778C151.587 115.378 151.742 114.056 151.975 112.656Z" fill="#F7C300"/>
<path d="M144.691 100.367C147.403 94.1447 159.491 98.2669 164.373 98.578C168.712 98.8113 173.284 98.8113 177.623 98.1891C180.258 97.8002 183.202 97.7224 184.054 100.678C185.217 102.467 184.364 105.578 181.497 105.811C177.003 106.122 172.509 106.978 168.015 107.445C163.675 107.833 159.336 107.211 154.997 107.678C151.742 108.067 148.488 108.611 145.776 106.433C143.839 104.8 143.684 102.622 144.691 100.367Z" fill="#F7C300"/>
<path d="M142.599 104.178C142.367 105.423 142.289 106.589 143.064 107.445C144.304 108.845 146.861 108.611 148.565 108.689C149.263 108.689 150.038 108.767 150.735 108.767C150.968 108.767 152.207 108.923 152.285 108.767C152.052 108.923 151.82 109 151.51 109.156C151.2 109.311 150.968 109.467 150.813 109.778C150.813 109.934 150.813 110.011 150.813 110.167C150.813 110.4 150.735 110.634 150.735 110.789C150.503 112.267 150.193 113.745 149.96 115.223L149.805 116.156C149.573 117.4 149.495 118.567 150.27 119.422C150.968 120.2 151.975 120.434 153.37 120.511C154.842 120.667 156.314 120.667 157.786 120.667H158.639C161.506 120.667 164.683 120.667 168.712 120.589C168.867 120.589 169.099 120.589 169.409 120.589C172.121 120.511 174.834 120.434 177.623 120.356C181.885 120.2 186.379 120.045 190.718 120.045C191.106 120.045 191.416 120.045 191.648 119.889C191.726 119.811 191.803 119.734 191.803 119.734C191.958 119.656 192.036 119.5 192.113 119.267C192.268 119.034 192.346 118.722 192.423 118.489C192.501 118.256 192.501 117.945 192.501 117.789V117.478C192.423 117.011 192.346 116.545 192.423 116.078C192.423 115.611 192.501 115.145 192.578 114.6C192.578 114.367 192.578 114.134 192.655 113.823C192.655 113.667 192.578 113.589 192.501 113.434C192.501 113.123 192.501 112.811 192.501 112.5C192.501 111.178 192.268 109.623 191.028 109C190.873 108.923 190.796 108.845 190.641 108.767C189.866 108.534 189.014 108.378 188.161 108.378C186.999 108.145 185.837 107.834 184.674 107.678C184.674 107.678 184.674 107.678 184.674 107.6C184.752 107.523 184.829 107.445 184.907 107.289C184.984 107.212 184.984 107.056 185.062 106.978C185.139 106.823 185.217 106.667 185.217 106.512C185.294 106.278 185.294 105.967 185.294 105.812V105.5C185.217 105.034 185.217 104.567 185.217 104.1C185.217 103.634 185.294 103.167 185.372 102.623C185.449 102.078 185.449 101.534 185.527 100.989C185.604 98.7338 184.984 97.3339 183.512 96.8672C182.35 96.4783 180.877 96.4005 179.483 96.4005C179.095 96.4005 178.785 96.4005 178.475 96.4005C177.546 96.4005 176.616 96.3228 175.531 96.3228C172.509 96.7894 169.409 96.7116 166.31 96.6339C161.971 96.4783 157.631 96.945 153.292 96.945C153.215 96.945 153.137 96.945 152.982 96.8672C152.75 96.8672 152.517 96.8672 152.362 96.945C152.285 96.945 152.285 96.945 152.207 96.945C151.665 96.945 151.045 97.0227 150.503 97.0227C150.038 97.0227 149.573 97.0227 149.108 97.0227C146.163 97.0227 144.071 97.1783 143.529 99.3561C143.219 100.6 142.986 102 142.754 103.323L142.599 104.178ZM185.527 110.945H186.224C187.154 110.945 188.006 111.023 188.859 111.178C189.091 111.178 189.246 111.256 189.401 111.411L189.556 111.645V111.8C189.634 112.423 189.711 113.045 189.711 113.589V113.978C189.711 114.211 189.711 114.367 189.788 114.6C189.788 114.989 189.866 115.3 189.866 115.689C189.866 116.545 189.634 117.4 188.239 117.4L185.604 117.478V116.778C185.682 115.145 185.682 113.434 185.604 111.567L185.527 110.945ZM182.66 103.712C182.66 104.567 182.427 105.423 181.032 105.423L178.398 105.5V104.8C178.475 103.167 178.475 101.456 178.398 99.5894L178.32 98.8894H179.018C179.948 98.8894 180.8 98.9672 181.652 99.1227C181.73 99.1227 181.962 99.1227 182.195 99.3561L182.35 99.5894V99.7449C182.427 100.289 182.427 100.912 182.505 101.534V102C182.505 102.234 182.505 102.389 182.582 102.623C182.582 103.012 182.66 103.4 182.66 103.712ZM177.701 117.789L177.856 117.011C178.165 115.223 178.398 113.434 178.398 111.567V110.945H182.737V111.567C182.892 113.589 182.892 115.378 182.815 117.089V117.634L177.701 117.789ZM170.727 117.945L170.804 117.167C171.037 115.3 171.192 113.511 171.037 111.723L170.959 111.023L172.819 110.945C173.516 110.945 174.214 110.867 174.911 110.867H175.531V111.489C175.531 112.656 175.453 113.667 175.376 114.678C175.376 114.834 175.376 114.911 175.298 115.145C175.221 115.456 175.143 115.767 175.143 116.078C175.066 116.389 174.989 116.7 174.911 116.934L174.756 117.634L170.727 117.945ZM170.494 105.734L170.649 104.956C171.037 103.245 171.192 101.378 171.192 99.5116V98.8894C171.579 98.8894 171.967 98.8894 172.354 98.8894C172.509 98.8894 172.586 98.8894 172.741 98.8116H175.608V99.4338C175.763 101.456 175.763 103.245 175.608 104.956V105.5L170.494 105.734ZM164.218 118.022L164.295 117.322C164.528 115.534 164.605 113.667 164.528 111.956V111.334L168.325 111.178V111.8C168.402 113.045 168.402 114.211 168.325 115.3C168.325 115.611 168.247 116 168.247 116.311L168.17 117.322H168.092L167.937 118.022H167.395C166.93 118.022 166.465 118.022 166 118.022H164.218ZM163.52 105.967L163.598 105.189C163.83 103.4 163.985 101.534 163.83 99.7449V99.1227L165.69 99.0449C166.387 99.0449 167.085 98.9672 167.782 98.9672H168.48V99.6672C168.48 100.834 168.402 101.845 168.325 102.856C168.325 103.012 168.325 103.089 168.247 103.323C168.17 103.634 168.17 103.945 168.092 104.256C168.015 104.567 167.937 104.878 167.86 105.189L167.705 105.889L163.52 105.967ZM158.096 118.022V117.322C158.174 115.611 158.329 113.823 158.561 112.034L158.639 111.489L161.738 111.334V111.956C161.816 113.745 161.738 115.611 161.506 117.4L161.428 117.945H160.886C160.343 117.945 159.801 117.945 159.181 117.945L158.096 118.022ZM157.012 106.045L157.089 105.345C157.322 103.478 157.322 101.689 157.322 99.9783V99.3561L161.118 99.2005V99.8227C161.196 101.067 161.196 102.234 161.118 103.323C161.118 103.712 161.041 104.023 161.041 104.334V104.723C161.041 104.8 161.041 104.8 161.041 104.878C161.041 104.956 161.041 105.034 161.041 105.034C161.041 105.189 160.963 105.267 160.963 105.345L160.808 106.045H160.266C159.801 106.045 159.336 106.045 158.794 106.045H157.012ZM152.285 117.867L153.137 113.045C153.215 112.734 153.292 112.111 153.835 111.878C154.067 111.723 154.377 111.723 154.532 111.723H155.849L155.772 112.423C155.539 114.056 155.384 115.767 155.307 117.4V118.022L152.285 117.867ZM150.89 106.045V105.345C150.968 103.634 151.123 101.845 151.355 100.056L151.433 99.5116L154.532 99.3561V99.9783C154.609 101.767 154.532 103.634 154.3 105.423L154.222 105.967H153.68C153.137 105.967 152.595 105.967 152.052 105.967H150.89V106.045ZM145.079 105.889L145.853 101.067C145.931 100.834 146.008 100.134 146.551 99.9005C146.783 99.7449 147.093 99.7449 147.248 99.7449H148.565L148.488 100.523C148.256 102.156 148.101 103.789 148.023 105.5V106.123L145.079 105.889Z" fill="#1E1E1E"/>
<path d="M89.8305 135.989C89.6755 134.744 88.0483 133.578 86.8085 133.656C76.0378 134.433 64.9572 133.5 54.1091 133.267C52.4044 133.189 51.0096 134.744 51.0096 136.378C51.0096 137.156 51.0096 138.011 50.9321 138.789C50.8546 140.889 52.4818 141.822 54.1091 141.822C54.3415 141.9 54.574 141.9 54.8839 141.978C60.0756 142.211 65.2672 142.367 70.4588 142.522C75.6504 142.678 80.997 142.367 86.1111 143.144C88.1258 143.455 89.9855 142.367 90.063 140.111C90.1404 138.711 89.9855 137.389 89.8305 135.989Z" fill="#F7C300"/>
<path d="M97.1142 123.778C94.4022 117.556 82.3142 121.678 77.4326 121.989C73.0933 122.222 68.5216 122.222 64.1823 121.6C61.5478 121.211 58.6033 121.133 57.7509 124.089C56.5886 125.878 57.441 128.989 60.308 129.222C64.8022 129.533 69.2964 130.389 73.7907 130.855C78.1299 131.244 82.4692 130.622 86.8085 131.089C90.0629 131.478 93.3174 132.022 96.0294 129.844C97.9666 128.133 98.0441 126.033 97.1142 123.778Z" fill="#F7C300"/>
<path d="M99.0514 126.656C98.8189 125.333 98.5865 124.011 98.2765 122.689C97.6566 120.434 95.642 120.278 92.6975 120.356C92.2326 120.356 91.7676 120.356 91.3027 120.356C90.7603 120.356 90.1404 120.356 89.598 120.278C89.5205 120.278 89.5205 120.278 89.443 120.278C89.2106 120.278 88.9781 120.278 88.8231 120.2C88.7456 120.2 88.6682 120.278 88.5132 120.278C84.1739 120.278 79.8347 119.734 75.4954 119.967C72.4734 120.122 69.3739 120.122 66.2745 119.656C65.1896 119.656 64.2598 119.656 63.33 119.734C63.02 119.734 62.6326 119.734 62.3226 119.734C60.9279 119.734 59.4556 119.811 58.2933 120.2C56.8211 120.745 56.1237 122.067 56.2787 124.322C56.2787 124.867 56.3561 125.411 56.4336 125.956C56.5111 126.422 56.5111 126.889 56.5886 127.433C56.5886 127.9 56.5886 128.367 56.5111 128.833V129.145C56.5111 129.3 56.5111 129.611 56.5886 129.845C56.5886 130 56.6661 130.156 56.7436 130.311C56.8211 130.389 56.8211 130.545 56.8986 130.622C56.976 130.778 57.0535 130.856 57.131 130.933C57.131 130.933 57.131 130.933 57.131 131.011C55.9687 131.245 54.8064 131.478 53.6441 131.711C52.7918 131.789 51.9394 131.867 51.1645 132.1C51.0096 132.178 50.9321 132.256 50.7771 132.333C49.4598 132.956 49.3048 134.511 49.3048 135.833C49.3048 136.144 49.3048 136.456 49.3048 136.767C49.3048 136.922 49.2274 137 49.1499 137.156C49.1499 137.389 49.1499 137.622 49.2274 137.933C49.3048 138.4 49.3048 138.867 49.3823 139.411C49.3823 139.878 49.3823 140.344 49.3048 140.811V141.122C49.3048 141.278 49.3823 141.589 49.3823 141.822C49.4598 142.055 49.5373 142.367 49.6923 142.6C49.8473 142.833 49.9247 142.911 50.0022 143.067C50.0797 143.144 50.1572 143.222 50.1572 143.222C50.3897 143.3 50.6996 143.378 51.087 143.378C55.4263 143.378 59.9205 143.533 64.1823 143.689C66.8944 143.767 69.6839 143.922 72.3959 143.922C72.7059 144 72.9383 144 73.0933 143.922C77.1226 144 80.2996 144 83.1666 144H84.019C85.4912 144 86.9634 144 88.4357 143.844C89.753 143.767 90.8378 143.533 91.5352 142.755C92.31 141.822 92.2326 140.733 92.0001 139.489L91.8451 138.556C91.6127 137.078 91.3027 135.6 91.0703 134.122C91.0703 133.889 90.9928 133.733 90.9928 133.5C90.9928 133.344 90.9928 133.267 90.9928 133.111C90.9153 132.8 90.6053 132.644 90.2954 132.489C90.0629 132.411 89.753 132.333 89.5205 132.1C89.6755 132.256 90.8378 132.1 91.0703 132.1C91.7676 132.1 92.5425 132.1 93.2399 132.022C94.9446 131.945 97.5017 132.178 98.7415 130.778C99.5163 129.922 99.4388 128.756 99.2064 127.511L99.0514 126.656ZM56.2012 134.978C56.1237 136.844 56.0462 138.556 56.2012 140.189V140.889L53.5666 140.811C52.1719 140.811 51.9394 139.878 51.9394 139.1C51.9394 138.711 51.9394 138.4 52.0169 138.011C52.0169 137.778 52.0169 137.622 52.0944 137.389V137C52.0944 136.456 52.0944 135.833 52.2493 135.211V135.056L52.4043 134.822C52.5593 134.667 52.7143 134.589 52.9467 134.589C53.7991 134.511 54.7289 134.433 55.5813 134.356H56.2787L56.2012 134.978ZM59.1457 126.033C59.1457 125.8 59.2232 125.645 59.2232 125.411V124.945C59.2232 124.322 59.3006 123.778 59.3781 123.156V123L59.5331 122.767C59.7656 122.534 59.9205 122.534 60.0755 122.534C60.9279 122.456 61.8577 122.378 62.7101 122.3H63.4075L63.33 123C63.2525 124.867 63.175 126.578 63.33 128.211V128.911L60.6954 128.833C59.3006 128.833 59.0682 127.9 59.0682 127.122C59.1457 126.733 59.1457 126.345 59.1457 126.033ZM58.9132 140.967V140.422C58.8357 138.711 58.8357 136.844 58.9907 134.9V134.278H63.33V134.9C63.33 136.767 63.5624 138.556 63.8724 140.344L64.0273 141.122L58.9132 140.967ZM66.8944 141.2L66.7394 140.5C66.6619 140.189 66.5844 139.878 66.5069 139.644C66.4294 139.333 66.3519 139.022 66.3519 138.711C66.3519 138.478 66.2745 138.322 66.2745 138.244C66.1195 137.233 66.1195 136.222 66.1195 135.056V134.278H66.7394C67.4368 134.278 68.1341 134.278 68.8315 134.356L70.6912 134.433L70.6137 135.133C70.5362 136.922 70.6137 138.789 70.8462 140.578L70.9237 141.355L66.8944 141.2ZM66.197 128.989V128.445C66.1195 126.733 66.1195 124.867 66.197 122.922V122.3H69.064C69.1415 122.378 69.2964 122.378 69.4514 122.378C69.8389 122.378 70.2263 122.378 70.6137 122.378V123C70.6137 124.867 70.7687 126.656 71.1561 128.445L71.3111 129.222L66.197 128.989ZM75.8053 141.355C75.3404 141.355 74.8755 141.355 74.4106 141.355H73.8682L73.7132 140.656H73.6357L73.5582 139.644C73.5582 139.333 73.4807 138.944 73.4807 138.633C73.4033 137.544 73.4033 136.456 73.4807 135.133V134.511L77.2776 134.667V135.289C77.2001 137 77.2776 138.789 77.5101 140.656L77.5875 141.355H75.8053ZM74.1781 129.222L74.0231 128.522C73.9457 128.211 73.8682 127.9 73.7907 127.589C73.7132 127.278 73.6357 126.967 73.6357 126.656C73.5582 126.422 73.5582 126.267 73.5582 126.189C73.4033 125.178 73.4033 124.167 73.4033 123V122.3H74.1006C74.798 122.3 75.4954 122.3 76.1928 122.378L78.0525 122.456V123.078C77.975 124.867 78.0525 126.733 78.2849 128.522L78.3624 129.3L74.1781 129.222ZM82.5467 141.433C82.0043 141.433 81.4619 141.433 80.842 141.433H80.2996L80.2221 140.889C79.9896 139.1 79.9122 137.311 79.9896 135.444V134.822L83.0891 134.978L83.1666 135.522C83.3991 137.311 83.554 139.022 83.6315 140.811V141.511L82.5467 141.433ZM83.0116 129.378C82.5467 129.378 82.0818 129.378 81.5394 129.378H80.997L80.842 128.678C80.842 128.6 80.7645 128.445 80.7645 128.367C80.7645 128.289 80.7645 128.211 80.7645 128.211C80.7645 128.211 80.7645 128.133 80.7645 128.056V127.667C80.687 127.356 80.687 126.967 80.687 126.656C80.6095 125.567 80.6095 124.478 80.687 123.156V122.534L84.4839 122.689V123.311C84.4064 125.022 84.4839 126.811 84.7163 128.678L84.7938 129.378H83.0116ZM86.421 141.355V140.733C86.3436 139.1 86.1886 137.389 85.9561 135.756L85.8786 135.056H87.1959C87.3509 135.056 87.6608 135.056 87.8933 135.211C88.4357 135.522 88.5132 136.144 88.5907 136.378L89.443 141.2L86.421 141.355ZM89.6755 129.456C89.1331 129.456 88.5907 129.456 88.0483 129.456H87.5059L87.4284 128.911C87.1959 127.122 87.1184 125.333 87.1959 123.467V122.845L90.2954 123L90.3729 123.545C90.6053 125.333 90.7603 127.045 90.8378 128.833V129.533H89.6755V129.456ZM93.6273 129.378V128.756C93.5498 127.122 93.3949 125.411 93.1624 123.778L93.0849 123H94.4022C94.5572 123 94.8671 123 95.0996 123.156C95.642 123.467 95.7969 124.089 95.7969 124.322L96.5718 129.145L93.6273 129.378Z" fill="#1E1E1E"/>
<path d="M133.068 135.989C133.223 134.744 134.85 133.578 136.09 133.656C146.861 134.433 157.941 133.5 168.79 133.267C170.494 133.189 171.889 134.744 171.889 136.378C171.889 137.156 171.889 138.011 171.967 138.789C172.044 140.889 170.417 141.822 168.79 141.822C168.557 141.9 168.325 141.9 168.015 141.978C162.823 142.211 157.631 142.367 152.44 142.522C147.248 142.678 141.902 142.367 136.787 143.144C134.773 143.455 132.913 142.367 132.836 140.111C132.758 138.711 132.836 137.389 133.068 135.989Z" fill="#F7C300"/>
<path d="M125.784 123.778C128.496 117.556 140.584 121.678 145.466 121.989C149.805 122.222 154.377 122.222 158.716 121.6C161.351 121.211 164.295 121.133 165.148 124.089C166.31 125.878 165.458 128.989 162.591 129.222C158.096 129.533 153.602 130.389 149.108 130.855C144.769 131.244 140.429 130.622 136.09 131.089C132.836 131.478 129.581 132.022 126.869 129.844C124.932 128.133 124.777 126.033 125.784 123.778Z" fill="#F7C300"/>
<path d="M123.692 127.511C123.46 128.756 123.382 129.922 124.157 130.778C125.397 132.178 127.954 131.945 129.659 132.022C130.356 132.022 131.131 132.1 131.828 132.1C132.061 132.1 133.301 132.256 133.378 132.1C133.146 132.256 132.913 132.333 132.603 132.489C132.293 132.644 132.061 132.8 131.906 133.111C131.906 133.267 131.906 133.344 131.906 133.5C131.906 133.733 131.828 133.967 131.828 134.122C131.596 135.6 131.286 137.078 131.053 138.556L130.898 139.489C130.666 140.733 130.589 141.9 131.363 142.755C132.061 143.533 133.068 143.767 134.463 143.844C135.935 144 137.407 144 138.88 144H139.732C142.599 144 145.776 144 149.805 143.922C149.96 143.922 150.193 143.922 150.503 143.922C153.215 143.844 155.927 143.767 158.716 143.689C162.978 143.533 167.472 143.378 171.812 143.378C172.199 143.378 172.509 143.378 172.741 143.222C172.819 143.144 172.896 143.067 172.896 143.067C173.051 142.989 173.129 142.833 173.206 142.6C173.361 142.367 173.439 142.055 173.516 141.822C173.594 141.589 173.594 141.278 173.594 141.122V140.811C173.516 140.344 173.439 139.878 173.516 139.411C173.516 138.944 173.594 138.478 173.671 137.933C173.671 137.7 173.671 137.467 173.749 137.156C173.749 137 173.671 136.922 173.594 136.767C173.594 136.456 173.594 136.144 173.594 135.833C173.594 134.511 173.361 132.956 172.121 132.333C171.967 132.256 171.889 132.178 171.734 132.1C170.959 131.867 170.107 131.711 169.254 131.711C168.092 131.478 166.93 131.167 165.768 131.011C165.768 131.011 165.768 131.011 165.768 130.933C165.845 130.856 165.923 130.778 166 130.622C166.078 130.545 166.078 130.389 166.155 130.311C166.232 130.156 166.31 130 166.31 129.845C166.387 129.611 166.387 129.3 166.387 129.145V128.833C166.31 128.367 166.31 127.9 166.31 127.433C166.31 126.967 166.387 126.5 166.465 125.956C166.542 125.411 166.542 124.867 166.62 124.322C166.697 122.067 166.078 120.667 164.605 120.2C163.443 119.811 161.971 119.734 160.576 119.734C160.189 119.734 159.879 119.734 159.569 119.734C158.639 119.734 157.709 119.656 156.624 119.656C153.602 120.122 150.503 120.045 147.403 119.967C143.064 119.811 138.725 120.278 134.385 120.278C134.308 120.278 134.23 120.278 134.075 120.2C133.843 120.2 133.611 120.2 133.456 120.278C133.378 120.278 133.378 120.278 133.301 120.278C132.758 120.278 132.138 120.356 131.596 120.356C131.131 120.356 130.666 120.356 130.201 120.356C127.257 120.356 125.164 120.511 124.622 122.689C124.312 123.933 124.08 125.333 123.847 126.656L123.692 127.511ZM166.697 134.278H167.395C168.325 134.278 169.177 134.356 170.029 134.511C170.262 134.511 170.417 134.589 170.572 134.744L170.727 134.978V135.133C170.804 135.756 170.882 136.378 170.882 136.922V137.311C170.882 137.544 170.882 137.7 170.959 137.933C170.959 138.322 171.037 138.633 171.037 139.022C171.037 139.878 170.804 140.733 169.409 140.733L166.775 140.811V140.111C166.852 138.478 166.852 136.767 166.775 134.9L166.697 134.278ZM163.753 127.122C163.753 127.978 163.52 128.833 162.126 128.833L159.491 128.911V128.211C159.569 126.578 159.569 124.867 159.491 123L159.414 122.3H160.111C161.041 122.3 161.893 122.378 162.746 122.534C162.823 122.534 163.056 122.534 163.288 122.767L163.443 123V123.156C163.52 123.7 163.52 124.322 163.598 124.945V125.411C163.598 125.645 163.598 125.8 163.675 126.033C163.753 126.345 163.753 126.733 163.753 127.122ZM158.871 141.122L159.026 140.344C159.336 138.556 159.569 136.767 159.569 134.9V134.278H163.908V134.9C164.063 136.922 164.063 138.711 163.985 140.422V140.967L158.871 141.122ZM151.82 141.278L151.897 140.5C152.13 138.633 152.285 136.844 152.13 135.056L152.052 134.356L153.912 134.278C154.609 134.278 155.307 134.2 156.004 134.2H156.624V134.822C156.624 135.989 156.547 137 156.469 138.011C156.469 138.167 156.469 138.244 156.392 138.478C156.314 138.789 156.237 139.1 156.237 139.411C156.159 139.722 156.082 140.033 156.004 140.267L155.849 140.967L151.82 141.278ZM151.587 129.145L151.742 128.367C152.13 126.656 152.285 124.789 152.285 122.922V122.3C152.672 122.3 153.06 122.3 153.447 122.3C153.602 122.3 153.68 122.3 153.835 122.222H156.702V122.845C156.857 124.867 156.857 126.656 156.702 128.367V128.911L151.587 129.145ZM145.311 141.433L145.389 140.733C145.621 138.944 145.698 137.078 145.621 135.367V134.744L149.418 134.589V135.211C149.495 136.456 149.495 137.622 149.418 138.711C149.418 139.022 149.34 139.411 149.34 139.722L149.263 140.733H149.185L149.03 141.433H148.488C148.023 141.433 147.558 141.433 147.093 141.433H145.311ZM144.614 129.3L144.691 128.522C144.924 126.733 145.079 124.867 144.924 123.078V122.456L146.783 122.378C147.481 122.378 148.178 122.3 148.875 122.3H149.573V123C149.573 124.167 149.495 125.178 149.418 126.189C149.418 126.345 149.418 126.422 149.34 126.656C149.263 126.967 149.263 127.278 149.185 127.589C149.108 127.9 149.03 128.211 148.953 128.522L148.798 129.222L144.614 129.3ZM139.19 141.355V140.656C139.267 138.944 139.422 137.156 139.654 135.367L139.732 134.822L142.831 134.667V135.289C142.909 137.078 142.831 138.944 142.599 140.733L142.522 141.278H141.979C141.437 141.278 140.894 141.278 140.274 141.278L139.19 141.355ZM138.105 129.456L138.182 128.756C138.415 126.889 138.415 125.1 138.415 123.389V122.767L142.212 122.611V123.233C142.289 124.478 142.289 125.645 142.212 126.733C142.212 127.122 142.134 127.433 142.134 127.745V128.133C142.134 128.211 142.134 128.211 142.134 128.289C142.134 128.367 142.134 128.445 142.134 128.445C142.134 128.6 142.057 128.678 142.057 128.756L141.902 129.456H141.359C140.894 129.456 140.429 129.456 139.887 129.456H138.105ZM133.456 141.2L134.308 136.378C134.385 136.067 134.463 135.444 135.005 135.211C135.238 135.056 135.548 135.056 135.703 135.056H137.02L136.942 135.756C136.71 137.389 136.555 139.1 136.478 140.733V141.355L133.456 141.2ZM131.983 129.456V128.756C132.061 127.045 132.216 125.256 132.448 123.467L132.526 122.922L135.625 122.767V123.389C135.703 125.178 135.625 127.045 135.393 128.833L135.315 129.378H134.773C134.23 129.378 133.688 129.378 133.146 129.378H131.983V129.456ZM126.249 129.222L127.024 124.4C127.102 124.167 127.179 123.467 127.722 123.233C127.954 123.078 128.264 123.078 128.419 123.078H129.736L129.659 123.856C129.426 125.489 129.271 127.122 129.194 128.833V129.456L126.249 129.222Z" fill="#1E1E1E"/>
<path d="M185.139 134.745C185.294 133.5 186.921 132.334 188.161 132.411C198.932 133.189 210.013 132.256 220.861 132.023C222.565 131.945 223.96 133.5 223.96 135.134C223.96 135.911 223.96 136.767 224.038 137.545C224.115 139.645 222.488 140.578 220.861 140.578C220.628 140.656 220.396 140.656 220.086 140.734C214.894 140.967 209.703 141.122 204.511 141.278C199.319 141.434 193.973 141.122 188.859 141.9C186.844 142.211 184.984 141.122 184.907 138.867C184.829 137.467 184.984 136.145 185.139 134.745Z" fill="#F7C300"/>
<path d="M177.856 122.533C180.568 116.311 192.655 120.434 197.537 120.745C201.876 120.978 206.448 120.978 210.787 120.356C213.422 119.967 216.366 119.889 217.219 122.845C218.381 124.633 217.529 127.745 214.662 127.978C210.168 128.289 205.673 129.145 201.179 129.611C196.84 130 192.501 129.378 188.161 129.845C184.907 130.233 181.652 130.778 178.94 128.6C177.003 126.889 176.848 124.789 177.856 122.533Z" fill="#F7C300"/>
<path d="M175.763 126.267C175.531 127.511 175.453 128.678 176.228 129.534C177.468 130.934 180.025 130.7 181.73 130.778C182.427 130.778 183.202 130.856 183.899 130.856C184.132 130.856 185.372 131.011 185.449 130.856C185.217 131.011 184.984 131.089 184.674 131.245C184.364 131.4 184.132 131.556 183.977 131.867C183.977 132.022 183.977 132.1 183.977 132.256C183.977 132.489 183.899 132.722 183.899 132.878C183.667 134.356 183.357 135.833 183.125 137.311L182.97 138.245C182.737 139.489 182.66 140.656 183.435 141.511C184.132 142.289 185.139 142.522 186.534 142.6C188.006 142.756 189.479 142.756 190.951 142.756H191.803C194.67 142.756 197.847 142.756 201.876 142.678C202.031 142.678 202.264 142.678 202.574 142.678C205.286 142.6 207.998 142.522 210.787 142.445C215.049 142.289 219.543 142.133 223.883 142.133C224.27 142.133 224.58 142.133 224.813 141.978C224.89 141.9 224.968 141.822 224.968 141.822C225.122 141.745 225.2 141.589 225.277 141.356C225.432 141.122 225.51 140.811 225.587 140.578C225.665 140.345 225.665 140.033 225.665 139.878V139.567C225.587 139.1 225.51 138.633 225.587 138.167C225.587 137.7 225.665 137.233 225.742 136.689C225.742 136.456 225.742 136.222 225.82 135.911C225.82 135.756 225.742 135.678 225.665 135.522C225.665 135.211 225.665 134.9 225.665 134.589C225.665 133.267 225.432 131.711 224.193 131.089C224.038 131.011 223.96 130.934 223.805 130.856C223.03 130.622 222.178 130.467 221.326 130.467C220.163 130.234 219.001 129.922 217.839 129.767C217.839 129.767 217.839 129.767 217.839 129.689C217.916 129.611 217.994 129.534 218.071 129.378C218.149 129.3 218.149 129.145 218.226 129.067C218.304 128.911 218.381 128.756 218.381 128.6C218.459 128.367 218.459 128.056 218.459 127.9V127.589C218.381 127.122 218.381 126.656 218.381 126.189C218.381 125.723 218.459 125.256 218.536 124.711C218.614 124.167 218.614 123.623 218.691 123.078C218.769 120.823 218.149 119.423 216.676 118.956C215.514 118.567 214.042 118.489 212.647 118.489C212.26 118.489 211.95 118.489 211.64 118.489C210.71 118.489 209.78 118.411 208.695 118.411C205.673 118.878 202.574 118.8 199.474 118.723C195.135 118.567 190.796 119.034 186.457 119.034C186.379 119.034 186.302 119.034 186.147 118.956C185.914 118.956 185.682 118.956 185.527 119.034C185.449 119.034 185.449 119.034 185.372 119.034C184.829 119.034 184.209 119.111 183.667 119.111C183.202 119.111 182.737 119.111 182.272 119.111C179.328 119.111 177.236 119.267 176.693 121.445C176.383 122.689 176.151 124.089 175.918 125.411L175.763 126.267ZM218.769 133.034H219.466C220.396 133.034 221.248 133.111 222.101 133.267C222.333 133.267 222.488 133.345 222.643 133.5L222.798 133.734V133.889C222.875 134.511 222.953 135.134 222.953 135.678V136.067C222.953 136.3 222.953 136.456 223.03 136.689C223.03 137.078 223.108 137.389 223.108 137.778C223.108 138.633 222.875 139.489 221.481 139.489L218.846 139.567V138.867C218.924 137.233 218.924 135.522 218.846 133.656L218.769 133.034ZM215.824 125.878C215.824 126.734 215.592 127.589 214.197 127.589L211.562 127.667V126.967C211.64 125.334 211.64 123.623 211.562 121.756L211.485 121.056H212.182C213.112 121.056 213.964 121.134 214.817 121.289C214.894 121.289 215.127 121.289 215.359 121.523L215.514 121.756V121.911C215.592 122.456 215.592 123.078 215.669 123.7V124.167C215.669 124.4 215.669 124.556 215.747 124.789C215.824 125.1 215.824 125.489 215.824 125.878ZM210.942 139.878L211.097 139.1C211.407 137.311 211.64 135.522 211.64 133.656V133.034H215.979V133.656C216.134 135.678 216.134 137.467 216.057 139.178V139.722L210.942 139.878ZM203.969 140.033L204.046 139.256C204.279 137.389 204.434 135.6 204.279 133.811L204.201 133.111L206.061 133.034C206.758 133.034 207.456 132.956 208.153 132.956H208.773V133.578C208.773 134.745 208.695 135.756 208.618 136.767C208.618 136.922 208.618 137 208.54 137.233C208.463 137.545 208.385 137.856 208.385 138.167C208.308 138.478 208.23 138.789 208.153 139.022L207.998 139.722L203.969 140.033ZM203.659 127.9L203.814 127.122C204.201 125.411 204.356 123.545 204.356 121.678V121.056C204.743 121.056 205.131 121.056 205.518 121.056C205.673 121.056 205.751 121.056 205.906 120.978H208.773V121.6C208.928 123.623 208.928 125.411 208.773 127.122V127.667L203.659 127.9ZM197.46 140.189L197.537 139.489C197.77 137.7 197.847 135.834 197.77 134.122V133.5L201.567 133.345V133.967C201.644 135.211 201.644 136.378 201.567 137.467C201.567 137.778 201.489 138.167 201.489 138.478L201.412 139.489H201.334L201.179 140.189H200.637C200.172 140.189 199.707 140.189 199.242 140.189H197.46ZM196.685 128.056L196.762 127.278C196.995 125.489 197.15 123.623 196.995 121.834V121.211L198.854 121.134C199.552 121.134 200.249 121.056 200.947 121.056H201.644V121.756C201.644 122.923 201.567 123.934 201.489 124.945C201.489 125.1 201.489 125.178 201.412 125.411C201.334 125.723 201.334 126.034 201.257 126.345C201.179 126.656 201.102 126.967 201.024 127.278L200.869 127.978L196.685 128.056ZM191.338 140.189V139.489C191.416 137.778 191.571 135.989 191.803 134.2L191.881 133.656L194.98 133.5V134.122C195.058 135.911 194.98 137.778 194.748 139.567L194.67 140.111H194.128C193.585 140.111 193.043 140.111 192.423 140.111L191.338 140.189ZM190.176 128.211L190.253 127.511C190.486 125.645 190.486 123.856 190.486 122.145V121.523L194.283 121.367V121.989C194.36 123.234 194.36 124.4 194.283 125.489C194.283 125.878 194.205 126.189 194.205 126.5V126.889C194.205 126.967 194.205 126.967 194.205 127.045C194.205 127.122 194.205 127.2 194.205 127.2C194.205 127.356 194.128 127.434 194.128 127.511L193.973 128.211H193.43C192.965 128.211 192.501 128.211 191.958 128.211H190.176ZM185.527 139.956L186.379 135.134C186.457 134.822 186.534 134.2 187.076 133.967C187.309 133.811 187.619 133.811 187.774 133.811H189.091L189.014 134.511C188.781 136.145 188.626 137.856 188.549 139.489V140.111L185.527 139.956ZM184.054 128.211V127.511C184.132 125.8 184.287 124.011 184.519 122.223L184.597 121.678L187.696 121.523V122.145C187.774 123.934 187.696 125.8 187.464 127.589L187.386 128.134H186.844C186.302 128.134 185.759 128.134 185.217 128.134H184.054V128.211ZM178.32 127.978L179.095 123.156C179.173 122.923 179.25 122.223 179.793 121.989C180.025 121.834 180.335 121.834 180.49 121.834H181.807L181.73 122.611C181.497 124.245 181.342 125.878 181.265 127.589V128.211L178.32 127.978Z" fill="#1E1E1E"/>
<path d="M110.984 112.89C110.829 111.645 109.202 110.478 107.962 110.556C97.1917 111.334 86.1111 110.401 75.2629 110.167C73.5582 110.09 72.1634 111.645 72.1634 113.278C72.1634 114.056 72.1634 114.912 72.086 115.69C72.0085 117.789 73.6357 118.723 75.2629 118.723C75.4954 118.801 75.7278 118.801 76.0378 118.878C81.2294 119.112 86.421 119.267 91.6126 119.423C96.8043 119.578 102.151 119.267 107.265 120.045C109.28 120.356 111.139 119.267 111.217 117.012C111.294 115.612 111.139 114.29 110.984 112.89Z" fill="#F7C300"/>
<path d="M118.268 100.679C115.556 94.4564 103.468 98.5785 98.5865 98.8896C94.2472 99.123 89.6755 99.123 85.3362 98.5008C82.7017 98.1119 79.7572 98.0341 78.9048 100.99C77.7425 102.778 78.5949 105.89 81.4619 106.123C85.9561 106.434 90.4504 107.29 94.9446 107.756C99.2839 108.145 103.623 107.523 107.962 107.99C111.217 108.378 114.471 108.923 117.183 106.745C119.12 105.112 119.198 102.934 118.268 100.679Z" fill="#F7C300"/>
<path d="M80.9195 82.3224C77.5101 82.2447 76.5802 82.8669 74.5656 85.4335C72.241 88.4668 69.6839 91.189 67.5917 94.4556C65.4996 97.6445 63.5624 100.911 61.4703 104.1C60.5404 105.5 59.2232 106.978 58.6033 108.533C57.9834 110.011 58.6808 111.489 58.2158 112.889C57.5185 115.066 59.8431 117.4 62.0902 116.7C67.1268 115.066 69.6064 109.233 72.3959 105.033C74.2556 102.311 75.8828 99.4333 77.4326 96.4778C78.7498 93.9112 79.6797 90.6446 81.5394 88.4668C84.9488 88.1557 84.7938 82.478 80.9195 82.3224Z" fill="#F7C300"/>
<path d="M85.6462 85.2785C85.6462 85.2007 85.6462 85.0451 85.6462 84.9673V84.8896C85.6462 84.8118 85.6462 84.734 85.5687 84.6562C85.5687 84.6562 85.5687 84.5785 85.4912 84.5007C85.4137 84.3451 85.3362 84.1896 85.2588 84.034L85.1813 83.8785C85.1038 83.8007 85.1038 83.7229 85.0263 83.7229C84.9488 83.6451 84.9488 83.6451 84.8713 83.5674C84.2514 83.2563 83.554 82.9452 82.8567 82.7118C82.8567 82.7118 82.8567 82.7118 82.7792 82.7118C82.7017 82.634 82.6242 82.634 82.5467 82.5563L81.6944 82.2452C80.3771 81.7785 79.0598 81.2341 77.82 80.8452H77.7425C75.4954 80.223 74.4106 81.8563 72.9383 84.2674C72.7059 84.6562 72.4734 85.0451 72.241 85.434C71.0012 87.3007 69.8389 89.0895 68.5991 90.9562C65.9645 95.0006 63.175 99.2783 60.463 103.478C59.2232 105.423 58.3708 106.9 57.596 108.378C57.441 108.689 57.286 109 57.0535 109.311C56.3562 110.478 55.6588 111.723 55.5038 112.889C55.2713 114.367 56.0462 115.611 58.1384 116.778C58.6033 117.089 59.1457 117.245 59.6881 117.556C60.153 117.789 60.6179 118.022 61.0054 118.256C61.4703 118.489 61.8577 118.8 62.2452 119.034L62.5551 119.267C62.7101 119.345 63.02 119.5 63.2525 119.578C63.4849 119.656 63.7949 119.734 64.1048 119.734C64.3373 119.734 64.4923 119.734 64.6473 119.656C64.7247 119.656 64.8022 119.578 64.8797 119.578C65.0347 119.422 65.2671 119.189 65.4221 118.878C66.352 117.322 67.3593 115.845 68.2891 114.289C68.6766 113.745 68.9865 113.123 69.374 112.578C69.8389 111.878 70.3038 111.256 70.6912 110.556C70.9237 110.167 71.1562 109.778 71.4661 109.389C71.776 108.923 72.0085 108.534 72.3185 108.067C73.7907 105.812 75.263 103.634 76.6577 101.378C76.8902 101.145 76.9677 100.989 77.0451 100.834L77.1226 100.678C79.1373 97.4894 80.7645 94.845 82.1593 92.4339L82.6242 91.6562C83.0116 90.9562 83.4766 90.1784 83.864 89.4784C83.864 89.4784 83.864 89.4006 83.9415 89.4006C84.1739 88.934 84.4064 88.3895 84.6389 87.9229C84.6389 87.7673 84.7163 87.6895 84.7938 87.534C84.8713 87.4562 84.8713 87.3784 84.9488 87.3007C84.9488 87.3007 84.9488 87.3007 84.9488 87.3784V87.3007C85.0263 87.0673 85.1038 86.834 85.1813 86.6007C85.1813 86.6007 85.1813 86.5229 85.2588 86.5229C85.2588 86.4451 85.3362 86.3673 85.3362 86.2896C85.4137 86.2118 85.4137 86.0562 85.4137 85.9007C85.4912 85.7451 85.4912 85.5896 85.4912 85.5118C85.6462 85.434 85.6462 85.3562 85.6462 85.2785ZM64.4148 115.3C63.8724 116.156 63.2525 116.234 62.7876 116.078C62.5551 116 62.2452 115.845 62.0902 115.767C61.7802 115.611 61.4703 115.378 61.1603 115.145C61.0054 114.989 60.7729 114.911 60.6179 114.756L60.2305 114.523C59.6881 114.211 59.2232 113.9 58.7583 113.511L58.6033 113.356L58.5258 113.123C58.4483 112.967 58.5258 112.734 58.6033 112.578C58.9907 111.8 59.3781 111.023 59.7656 110.245L60.0755 109.623L60.6179 110.011C62.2452 111.1 63.7174 111.956 65.1897 112.734L65.8096 113.045L64.4148 115.3ZM67.2818 110.867L66.7394 110.634C65.1897 109.778 63.5624 108.845 61.8577 107.756L61.3153 107.445L63.5624 103.789L64.1048 104.1C65.7321 105.034 67.4368 105.889 69.219 106.512L69.9938 106.823L67.2818 110.867ZM71.5436 104.334L70.7687 104.1C70.4588 104.023 70.1488 103.945 69.9164 103.789C69.6064 103.712 69.2965 103.556 69.064 103.478H68.9865C68.909 103.478 68.909 103.4 68.8315 103.4C68.7541 103.323 68.5991 103.323 68.5216 103.245C67.5918 102.778 66.6619 102.389 65.6546 101.767L65.1122 101.456L65.4221 100.912C65.8096 100.367 66.197 99.7449 66.5844 99.2005L67.5918 97.7227L68.1342 98.0339C69.6839 99.045 71.3111 99.9005 73.0933 100.678L73.7907 100.989L71.5436 104.334ZM76.1928 97.1005C75.9603 97.4894 75.7279 97.8783 75.4954 98.2672L75.1855 98.7338L74.5656 98.5005V98.5783L73.6357 98.1894C73.3258 98.0339 73.0158 97.8783 72.7059 97.7227C71.6986 97.2561 70.6912 96.6339 69.6064 95.9339L69.064 95.6228L71.1562 92.5117L71.6986 92.8228C73.2483 93.7561 74.798 94.6895 76.5802 95.3894L77.2001 95.7006L76.1928 97.1005ZM79.6797 91.3451C79.3698 91.8117 79.1373 92.3561 78.8273 92.8228L78.5174 93.2895L78.0525 93.0561C76.3478 92.2784 74.7205 91.4228 73.0933 90.4117L72.5509 90.1006L74.2556 87.534L74.7205 87.7673C76.3478 88.4673 78.0525 89.2451 79.6022 90.1006L80.2221 90.4117L79.6797 91.3451ZM81.4619 88.1562L80.9195 87.8451C79.4472 87.0673 77.8975 86.3673 76.2703 85.6673L75.5729 85.3562L76.2703 84.2674C76.3478 84.1118 76.5027 83.8785 76.8127 83.7229C77.3551 83.4118 77.8975 83.6451 78.2075 83.7229L82.8567 85.5118L81.4619 88.1562Z" fill="#1E1E1E"/>
<path d="M120.205 103.556C119.973 102.234 119.74 100.912 119.43 99.5896C118.811 97.334 116.796 97.1785 113.851 97.2563C113.386 97.2563 112.922 97.2563 112.457 97.2563C111.914 97.2563 111.294 97.2563 110.752 97.1785C110.674 97.1785 110.674 97.1785 110.597 97.1785C110.364 97.1785 110.132 97.1785 109.977 97.1007C109.9 97.1007 109.822 97.1785 109.667 97.1785C105.328 97.1785 100.989 96.6341 96.6493 96.8674C93.6273 97.0229 90.5279 97.0229 87.4284 96.5563C86.3436 96.5563 85.4137 96.5563 84.4839 96.6341C84.1739 96.6341 83.7865 96.6341 83.4765 96.6341C82.0818 96.6341 80.6095 96.7118 79.4472 97.1007C77.975 97.6451 77.2776 98.9674 77.4326 101.223C77.4326 101.767 77.5101 102.312 77.5875 102.856C77.665 103.323 77.665 103.79 77.7425 104.334C77.7425 104.801 77.7425 105.267 77.665 105.734V106.045C77.665 106.201 77.665 106.512 77.7425 106.745C77.7425 106.901 77.82 107.056 77.8975 107.212C77.975 107.289 77.975 107.445 78.0525 107.523C78.13 107.678 78.2074 107.756 78.2849 107.834C78.2849 107.834 78.2849 107.834 78.2849 107.912C77.1226 108.145 75.9603 108.378 74.798 108.612C73.9457 108.689 73.0933 108.767 72.3184 109.001C72.1635 109.078 72.086 109.156 71.931 109.234C70.6137 109.856 70.4588 111.412 70.4588 112.734C70.4588 113.045 70.4588 113.356 70.4588 113.667C70.4588 113.823 70.3813 113.901 70.3038 114.056C70.3038 114.289 70.3038 114.523 70.3813 114.834C70.4588 115.3 70.4588 115.767 70.5362 116.312C70.5362 116.778 70.5362 117.245 70.4588 117.712V118.023C70.4588 118.178 70.5362 118.489 70.5362 118.723C70.6137 118.956 70.6912 119.267 70.8462 119.5C71.0012 119.734 71.0787 119.812 71.1561 119.967C71.2336 120.045 71.3111 120.123 71.3111 120.123C71.5436 120.2 71.8535 120.278 72.241 120.278C76.5802 120.278 81.0745 120.434 85.3362 120.589C88.0483 120.667 90.8378 120.823 93.5498 120.823C93.8598 120.9 94.0922 120.9 94.2472 120.823C98.2765 120.9 101.453 120.9 104.321 120.9H105.173C106.645 120.9 108.117 120.9 109.59 120.745C110.907 120.667 111.992 120.434 112.689 119.656C113.464 118.723 113.386 117.634 113.154 116.389L112.999 115.456C112.767 113.978 112.457 112.501 112.224 111.023C112.224 110.789 112.147 110.634 112.147 110.401C112.147 110.245 112.147 110.167 112.147 110.012C112.069 109.701 111.759 109.545 111.449 109.389C111.217 109.312 110.907 109.234 110.674 109.001C110.829 109.156 111.992 109.001 112.224 109.001C112.922 109.001 113.696 109.001 114.394 108.923C116.099 108.845 118.656 109.078 119.895 107.678C120.67 106.823 120.593 105.656 120.36 104.412L120.205 103.556ZM77.3551 111.956C77.2776 113.823 77.2001 115.534 77.3551 117.167V117.867L74.7205 117.789C73.3258 117.789 73.0933 116.856 73.0933 116.078C73.0933 115.689 73.0933 115.378 73.1708 114.989C73.1708 114.756 73.1708 114.6 73.2483 114.367V113.978C73.2483 113.434 73.2483 112.812 73.4033 112.189V112.034L73.5582 111.801C73.7132 111.645 73.8682 111.567 74.1006 111.567C74.953 111.489 75.8828 111.412 76.7352 111.334H77.4326L77.3551 111.956ZM80.3771 102.934C80.3771 102.701 80.4546 102.545 80.4546 102.312V101.845C80.4546 101.223 80.532 100.678 80.6095 100.056V99.9007L80.7645 99.6673C80.997 99.434 81.1519 99.434 81.3069 99.434C82.1593 99.3562 83.0891 99.2785 83.9415 99.2007H84.6389L84.5614 99.9007C84.4839 101.767 84.4064 103.478 84.5614 105.112V105.812L81.9268 105.734C80.5321 105.734 80.2996 104.801 80.2996 104.023C80.2996 103.634 80.2996 103.323 80.3771 102.934ZM80.0671 117.867V117.323C79.9896 115.612 79.9896 113.745 80.1446 111.801V111.178H84.4839V111.801C84.4839 113.667 84.7163 115.456 85.0263 117.245L85.1813 118.023L80.0671 117.867ZM88.1258 118.1L87.9708 117.4C87.8933 117.089 87.8158 116.778 87.7383 116.545C87.6608 116.234 87.5833 115.923 87.5833 115.612C87.5833 115.378 87.5059 115.223 87.5059 115.145C87.3509 114.134 87.3509 113.123 87.3509 111.956V111.334H87.9708C88.6682 111.334 89.3655 111.334 90.0629 111.412L91.9226 111.489L91.8451 112.189C91.7676 113.978 91.8451 115.845 92.0776 117.634L92.1551 118.412L88.1258 118.1ZM87.3509 105.889V105.345C87.2734 103.634 87.2734 101.767 87.3509 99.8229V99.2007H90.2179C90.2954 99.2785 90.4504 99.2785 90.6053 99.2785C90.9928 99.2785 91.3802 99.2785 91.7676 99.2785V99.9007C91.7676 101.767 91.9226 103.556 92.31 105.345L92.465 106.123L87.3509 105.889ZM96.9593 118.334C96.4943 118.334 96.0294 118.334 95.5645 118.334H95.0221L94.8671 117.634H94.7896L94.7121 116.623C94.7121 116.312 94.6346 115.923 94.6346 115.612C94.5572 114.523 94.5572 113.434 94.6346 112.112V111.489L98.4315 111.645V112.267C98.354 113.978 98.4315 115.767 98.664 117.634L98.7415 118.334H96.9593ZM95.332 106.123L95.1771 105.423C95.0996 105.112 95.0221 104.801 94.9446 104.49C94.8671 104.178 94.7896 103.867 94.7896 103.556C94.7121 103.323 94.7121 103.167 94.7121 103.09C94.5572 102.078 94.5572 101.067 94.5572 99.9007V99.2007H95.2545C95.9519 99.2007 96.6493 99.2007 97.3467 99.2785L99.2064 99.3562V99.9785C99.1289 101.767 99.2064 103.634 99.4388 105.423L99.5163 106.201L95.332 106.123ZM103.701 118.334C103.158 118.334 102.616 118.334 101.996 118.334H101.453L101.376 117.789C101.144 116 101.066 114.212 101.144 112.345V111.723L104.243 111.878L104.321 112.423C104.553 114.212 104.708 115.923 104.785 117.712V118.412L103.701 118.334ZM104.166 106.278C103.701 106.278 103.236 106.278 102.693 106.278H102.228L102.073 105.578C102.073 105.501 101.996 105.345 101.996 105.267C101.996 105.189 101.996 105.112 101.996 105.112C101.996 105.112 101.996 105.034 101.996 104.956V104.567C101.918 104.256 101.918 103.867 101.918 103.556C101.841 102.467 101.841 101.378 101.918 100.056V99.434L105.715 99.5896V100.212C105.638 101.923 105.715 103.712 105.948 105.578L106.025 106.278H104.166ZM107.575 118.256V117.634C107.497 116 107.342 114.289 107.11 112.656L107.033 111.956H108.35C108.505 111.956 108.815 111.956 109.047 112.112C109.59 112.423 109.667 113.045 109.745 113.278L110.597 118.1L107.575 118.256ZM110.829 106.356C110.287 106.356 109.745 106.356 109.202 106.356H108.66L108.582 105.812C108.35 104.023 108.272 102.234 108.35 100.367V99.7451L111.449 99.9007L111.527 100.445C111.759 102.234 111.914 103.945 111.992 105.734V106.434H110.829V106.356ZM114.781 106.278V105.656C114.704 104.023 114.549 102.312 114.316 100.678L114.239 99.9007H115.556C115.711 99.9007 116.021 99.9007 116.253 100.056C116.796 100.367 116.951 100.99 116.951 101.223L117.726 106.045L114.781 106.278Z" fill="#1E1E1E"/>
<path d="M126.934 106.555C123.525 106.477 122.595 107.1 120.581 109.666C118.256 112.699 115.699 115.422 113.607 118.688C111.515 121.877 109.577 125.144 107.485 128.333C106.555 129.733 105.238 131.21 104.618 132.766C103.998 134.244 104.696 135.721 104.231 137.121C103.533 139.299 105.858 141.632 108.105 140.932C113.142 139.299 115.621 133.466 118.411 129.266C120.271 126.544 121.898 123.666 123.448 120.71C124.765 118.144 125.695 114.877 127.554 112.699C130.964 112.311 130.731 106.633 126.934 106.555Z" fill="#F7C300"/>
<path d="M131.661 109.511C131.661 109.433 131.661 109.278 131.661 109.2V109.122C131.661 109.044 131.661 108.967 131.584 108.889C131.584 108.889 131.584 108.811 131.506 108.733C131.429 108.578 131.351 108.422 131.274 108.267L131.196 108.111C131.119 108.033 131.119 107.956 131.041 107.956C130.964 107.878 130.964 107.878 130.886 107.8C130.266 107.489 129.569 107.178 128.872 106.944C128.872 106.944 128.872 106.944 128.794 106.944C128.717 106.867 128.639 106.867 128.562 106.789L127.709 106.478C126.392 106.011 125.075 105.467 123.835 105.078H123.758C121.51 104.456 120.426 106.089 118.953 108.5C118.721 108.889 118.488 109.278 118.256 109.667C117.016 111.533 115.854 113.322 114.614 115.189C111.98 119.233 109.19 123.511 106.478 127.711C105.238 129.655 104.386 131.133 103.611 132.611C103.456 132.922 103.301 133.233 103.069 133.544C102.371 134.711 101.674 135.955 101.519 137.122C101.286 138.6 102.061 139.844 104.153 141.011C104.618 141.322 105.161 141.477 105.703 141.788C106.168 142.022 106.633 142.255 107.02 142.488C107.485 142.722 107.873 143.033 108.26 143.266L108.57 143.5C108.725 143.577 109.035 143.733 109.267 143.811C109.5 143.888 109.81 143.966 110.12 143.966C110.352 143.966 110.507 143.966 110.662 143.888C110.74 143.888 110.817 143.811 110.895 143.811C111.05 143.655 111.282 143.422 111.437 143.111C112.367 141.555 113.374 140.077 114.304 138.522C114.692 137.977 115.001 137.355 115.389 136.811C115.854 136.111 116.319 135.489 116.706 134.789C116.939 134.4 117.171 134.011 117.481 133.622C117.791 133.155 118.023 132.766 118.333 132.3C119.806 130.044 121.278 127.866 122.673 125.611C122.905 125.378 122.983 125.222 123.06 125.066L123.138 124.911C125.152 121.722 126.779 119.078 128.174 116.667L128.639 115.889C129.027 115.189 129.492 114.411 129.879 113.711C129.879 113.711 129.879 113.633 129.956 113.633C130.189 113.167 130.421 112.622 130.654 112.156C130.654 112 130.731 111.922 130.809 111.767C130.886 111.689 130.886 111.611 130.964 111.533C130.964 111.533 130.964 111.533 130.964 111.611V111.533C131.041 111.3 131.119 111.067 131.196 110.833C131.196 110.833 131.196 110.756 131.274 110.756C131.274 110.678 131.351 110.6 131.351 110.522C131.429 110.444 131.429 110.289 131.429 110.133C131.506 109.978 131.506 109.822 131.506 109.744C131.661 109.589 131.661 109.511 131.661 109.511ZM110.43 139.533C109.887 140.389 109.267 140.466 108.803 140.311C108.57 140.233 108.26 140.077 108.105 140C107.795 139.844 107.485 139.611 107.175 139.377C107.02 139.222 106.788 139.144 106.633 138.989L106.245 138.755C105.703 138.444 105.238 138.133 104.773 137.744L104.618 137.589L104.541 137.355C104.463 137.2 104.541 136.966 104.618 136.811C105.006 136.033 105.393 135.255 105.781 134.477L106.091 133.855L106.633 134.244C108.26 135.333 109.732 136.189 111.205 136.966L111.825 137.277L110.43 139.533ZM113.297 135.022L112.754 134.789C111.205 133.933 109.577 133 107.873 131.911L107.33 131.6L109.577 127.944L110.12 128.255C111.747 129.189 113.452 130.044 115.234 130.666L116.009 130.978L113.297 135.022ZM117.481 128.566L116.706 128.333C116.396 128.255 116.086 128.178 115.854 128.022C115.544 127.944 115.234 127.789 115.001 127.711H114.924C114.847 127.711 114.847 127.633 114.769 127.633C114.692 127.555 114.537 127.555 114.459 127.478C113.529 127.011 112.599 126.622 111.592 126L111.05 125.689L111.36 125.144C111.747 124.6 112.134 123.978 112.522 123.433L113.529 121.955L114.072 122.267C115.621 123.278 117.249 124.133 119.031 124.911L119.728 125.222L117.481 128.566ZM122.13 121.255C121.898 121.644 121.665 122.033 121.433 122.422L121.123 122.889L120.503 122.655V122.733L119.573 122.344C119.263 122.189 118.953 122.033 118.643 121.878C117.636 121.411 116.629 120.789 115.544 120.089L115.001 119.778L117.094 116.667L117.636 116.978C119.186 117.911 120.736 118.844 122.518 119.544L123.138 119.855L122.13 121.255ZM125.617 115.578C125.307 116.044 125.075 116.589 124.765 117.055L124.455 117.522L123.99 117.289C122.285 116.511 120.658 115.655 119.031 114.644L118.488 114.333L120.193 111.767L120.658 112C122.285 112.7 123.99 113.478 125.54 114.333L126.16 114.644L125.617 115.578ZM127.477 112.311L126.934 112C125.462 111.222 123.912 110.522 122.285 109.822L121.588 109.511L122.285 108.422C122.363 108.267 122.518 108.033 122.828 107.878C123.37 107.567 123.912 107.8 124.222 107.878L128.872 109.667L127.477 112.311Z" fill="#1E1E1E"/>
<path d="M41.0912 136.222C39.3865 133.266 38.3017 132.8 35.1248 132.489C31.3279 132.1 27.686 131.4 23.8117 131.4C20.0148 131.4 16.218 131.478 12.4211 131.4C10.7164 131.322 8.85673 131.011 7.15202 131.322C5.60228 131.633 4.74993 132.955 3.27768 133.266C1.03056 133.811 0.333175 137.077 2.11537 138.555C6.14469 141.977 12.4211 140.889 17.3803 141.044C20.6347 141.122 23.9667 141.044 27.2211 140.733C30.0881 140.5 33.2651 139.489 36.1321 139.955C38.3792 142.755 43.0284 139.489 41.0912 136.222Z" fill="#F7C300"/>
<path d="M41.0913 141.822C41.1688 141.745 41.3237 141.745 41.4012 141.667L41.4787 141.589C41.5562 141.511 41.5562 141.511 41.6337 141.434L41.7112 141.356C41.7886 141.2 41.8661 141.045 41.9436 140.889L42.0211 140.734C42.0211 140.656 42.0986 140.578 42.0986 140.5C42.0986 140.422 42.0986 140.345 42.1761 140.345C42.0986 139.645 42.0211 138.867 41.8661 138.167C41.8661 138.167 41.8661 138.167 41.8661 138.089C41.8661 138.011 41.8661 137.934 41.8661 137.778L41.7112 136.845C41.4787 135.522 41.1688 134.123 40.7813 132.8V132.723C40.0839 130.467 38.1468 130.389 35.2798 130.467C34.8148 130.467 34.3499 130.467 33.885 130.467C31.7154 130.389 29.4682 130.389 27.2986 130.311C22.4169 130.234 17.3803 130.156 12.4211 130.156C10.174 130.156 8.39182 130.234 6.7646 130.311C6.45465 130.311 6.06722 130.311 5.75727 130.389C4.43999 130.467 3.04523 130.545 1.88293 130.934C0.488167 131.556 -0.131728 132.878 0.023246 135.289C0.023246 135.834 0.17822 136.378 0.17822 137C0.255707 137.467 0.255707 138.011 0.333193 138.478C0.41068 138.945 0.333193 139.489 0.333193 139.956V140.345C0.41068 140.5 0.41068 140.811 0.488167 141.122C0.565654 141.356 0.643141 141.667 0.798114 141.9C0.953088 142.056 1.03057 142.211 1.10806 142.367C1.18555 142.445 1.26304 142.445 1.26304 142.522C1.4955 142.6 1.80544 142.6 2.19288 142.6C3.97507 142.6 5.75727 142.6 7.53947 142.6C8.23685 142.6 8.85674 142.6 9.55413 142.6C10.4065 142.6 11.1813 142.678 12.0337 142.678C12.4986 142.678 12.9635 142.678 13.351 142.678C13.8934 142.678 14.3583 142.678 14.9007 142.678C17.5353 142.756 20.2473 142.756 22.8819 142.834C23.1918 142.911 23.4243 142.911 23.5792 142.834H23.7342C27.5311 142.834 30.5531 142.834 33.4201 142.678H34.2724C35.1248 142.678 35.8996 142.6 36.752 142.6H36.8295C37.3719 142.522 37.9143 142.522 38.4567 142.445C38.6117 142.367 38.6892 142.367 38.8441 142.367C38.9216 142.367 39.0766 142.367 39.1541 142.289H39.2316C39.464 142.211 39.6965 142.211 39.929 142.134H40.0064C40.0839 142.134 40.1614 142.134 40.2389 142.056C40.3939 142.056 40.4714 141.978 40.6263 141.978C40.7813 141.9 40.9363 141.9 41.0138 141.822C41.0138 141.9 41.0913 141.822 41.0913 141.822ZM4.44 139.878C3.43267 139.878 3.04523 139.411 2.89026 138.867C2.81277 138.634 2.81277 138.322 2.81277 138.167C2.81277 137.778 2.81277 137.467 2.81277 137.078C2.81277 136.845 2.81277 136.611 2.81277 136.456V135.989C2.81277 135.367 2.81277 134.745 2.89026 134.2V133.967L3.04523 133.734C3.12272 133.578 3.35518 133.5 3.58764 133.5C4.43999 133.345 5.29235 133.267 6.14471 133.267L6.84209 133.189V133.889C6.7646 135.834 6.84209 137.545 6.99706 139.256L7.07455 139.956L4.44 139.878ZM9.78659 139.956L9.7091 139.334C9.55413 137.545 9.47664 135.678 9.55413 133.656V133.034L13.8159 132.956V133.578C13.8934 135.522 14.1258 137.389 14.5133 139.178L14.6683 139.956H9.78659ZM17.5353 140.034L17.3028 139.256C17.2253 138.945 17.1478 138.634 17.0703 138.4C16.9929 138.089 16.9154 137.778 16.9154 137.467V137.389C16.9154 137.311 16.9154 137.311 16.9154 137.234C16.9154 137.078 16.8379 137 16.8379 136.845C16.6829 135.834 16.6054 134.822 16.5279 133.656V132.956H17.2253C17.9227 132.956 18.5426 132.956 19.24 132.956H21.0222V133.578C21.0222 135.445 21.0997 137.311 21.4871 139.178L21.6421 139.956L17.5353 140.034ZM26.1363 140.034C25.6714 140.034 25.2065 140.034 24.7415 140.034H24.1991L24.0442 139.334H23.9667L23.8117 138.322C23.7342 137.934 23.7342 137.622 23.6567 137.234C23.5018 136.145 23.5018 134.978 23.5018 133.656V133.034L27.2211 133.111V133.734C27.2211 135.522 27.3761 137.389 27.6086 139.256L27.686 139.956L26.1363 140.034ZM32.8002 139.956C32.2578 139.956 31.6379 139.956 31.0955 140.034H30.5531L30.4756 139.489C30.2431 137.622 30.0881 135.756 30.0106 133.889V133.267L33.0326 133.345L33.1101 133.889C33.4201 135.678 33.6525 137.545 33.73 139.334L33.8075 140.034L32.8002 139.956ZM36.4421 139.8L36.3646 139.178C36.2096 137.467 35.9771 135.756 35.7447 134.045L35.6672 133.345H36.9845C37.1394 133.345 37.4494 133.345 37.6818 133.5C38.2243 133.811 38.3792 134.356 38.3792 134.667L39.3091 139.567L36.4421 139.8Z" fill="#1E1E1E"/>
<mask id="mask0" mask-type="alpha" maskUnits="userSpaceOnUse" x="128" y="3" width="37" height="29">
<path d="M150.196 27.5694C152.437 28.829 157.171 32.0005 160.931 31.8952C160.926 29.4748 164.225 21.3082 164.076 20.2734C163.89 18.9798 163.424 15.7458 161.857 12.0113C160.289 8.27689 158.179 7.92274 154.183 5.20088C150.187 2.47903 146.657 2.99115 141.707 4.36954C136.758 5.74794 135.935 7.18785 131.955 11.7271C127.976 16.2663 128.387 15.5463 128.759 18.1335C129.132 20.7207 129.49 23.4726 130.18 24.693C130.871 25.9135 147.396 25.9948 150.196 27.5694Z" fill="black"/>
</mask>
<g mask="url(#mask0)">
<path d="M157.558 27.268C157.498 27.6867 157.241 27.8891 156.877 27.9436C156.821 28.0339 156.783 28.2036 156.727 28.2938C156.059 29.3772 155.031 30.1867 153.952 30.7581C153.074 31.2174 152.179 31.5973 151.233 31.7392C150.723 31.8156 150.196 31.8126 149.597 31.8205C148.543 31.8145 147.563 31.7976 146.603 31.5317C145.263 31.241 144.034 30.7697 142.826 30.0494C142.394 29.7865 141.961 29.5236 141.511 29.1813C138.732 26.4024 137.644 22.059 138.329 18.2692C138.835 15.7354 139.922 13.1143 141.849 11.5965C144.034 9.87629 147.113 10.5619 149.772 11.3924C151.147 11.8418 152.483 12.4609 153.708 13.2606C154.856 14.3996 155.836 15.8093 156.633 17.4106C157.322 18.864 157.849 20.2599 158.14 21.6092C158.153 22.0169 158.166 22.4247 158.106 22.8433C158.718 24.6361 157.922 25.8206 157.558 27.268Z" fill="#F7C300"/>
<path d="M159.834 18.3683C157.691 12.6223 153.092 8.39214 147.816 7.29703C147.181 7.14612 146.564 7.07463 146.037 7.07164C145.801 7.02498 145.583 7.05773 145.381 7.16991C145.021 6.8959 144.678 6.70132 144.443 6.65466C144.134 6.61891 143.916 6.65167 143.697 6.68442C141.108 7.23632 138.627 7.93614 136.981 10.0685C135.631 11.8286 134.65 14.5993 134.148 18.1999C134.088 18.6189 134.045 19.1172 134.003 19.6156C134.02 19.695 134.037 19.7744 134.054 19.8538C134.015 20.0236 134.067 20.2618 134.028 20.4316L134.101 20.4207C134.101 20.4207 134.101 20.4207 134.046 20.511L133.973 20.5219L133.99 20.6013C133.99 20.6013 133.99 20.6013 134.007 20.6808C134.024 20.7602 134.024 20.7602 133.968 20.8505C133.943 21.4283 134.007 22.0746 134.071 22.7208L134.088 22.8003C134.106 22.8797 134.123 22.9591 134.123 22.9591L134.243 23.515C134.277 23.6739 134.384 23.8218 134.474 23.8903C134.491 23.9697 134.508 24.0491 134.508 24.0491C134.56 24.2874 134.667 24.4353 134.718 24.6736C135.717 27.5575 137.684 30.0503 140.205 31.9683C141.503 32.7575 142.896 33.2867 144.216 33.8268L144.452 33.8734C146.441 34.7233 148.549 34.7352 150.512 34.769C150.602 34.8375 150.675 34.8266 150.821 34.8048C150.966 34.7829 151.185 34.7502 151.331 34.7283L151.914 34.641C152.059 34.6192 152.205 34.5973 152.351 34.5755C152.569 34.5427 152.788 34.51 153.007 34.4772C154.172 34.3025 155.304 33.969 156.349 33.2384C158.497 31.6868 160.202 29.1355 160.815 26.748C161.462 24.5193 161.081 21.7069 159.834 18.3683ZM153.255 14.0249C154.403 15.1646 155.278 16.4274 156.058 17.9503C156.731 19.3252 157.168 20.6535 157.459 22.0036C157.631 22.7978 157.729 23.6029 157.738 24.3395C157.764 26.5494 156.341 28.3204 155.235 29.4699C154.331 30.5073 153.144 30.9312 151.159 31.1466L151.086 31.1575C150.576 31.2339 150.122 31.22 149.522 31.2279L149.449 31.2388C148.485 31.3014 147.559 31.1941 146.616 31.0075C145.365 30.7851 144.208 30.3026 143.016 29.6612C142.583 29.3982 142.223 29.1242 141.79 28.8611C138.927 26.7485 137.243 23.4754 137.41 20.4168C137.483 19.0121 137.808 17.7334 138.228 16.1947C138.533 15.1652 138.876 13.966 139.433 13.0626C140.547 11.2559 142.771 10.7586 144.85 10.2831L144.923 10.2722C144.996 10.2613 145.069 10.2504 145.069 10.2504C145.446 10.6038 145.861 10.7874 146.316 10.8014C148.789 10.7587 151.227 11.951 153.255 14.0249Z" fill="#1E1E1E"/>
<path d="M148.383 17.4286C148.719 17.6209 149.039 17.7347 149.232 17.9486C149.426 18.1624 149.745 18.2762 150.031 18.2331C150.334 18.2684 150.658 18.0575 150.838 17.8682C151.183 17.411 151.103 16.6939 150.628 16.1985C150.153 15.703 149.569 15.3861 148.77 15.1016C148.807 14.9339 148.828 14.6876 148.866 14.5199C148.871 14.1952 148.946 13.8596 148.967 13.6134C149.026 13.1994 148.87 12.8178 148.589 12.5362C148.219 12.187 147.756 12.0947 147.344 12.238C147.004 12.3704 146.697 12.6598 146.638 13.0738C146.562 13.4093 146.558 13.734 146.537 13.9802C146.499 14.148 146.478 14.3942 146.44 14.562C145.923 14.559 145.406 14.5561 144.994 14.6993C144.081 14.918 143.396 15.5076 143.064 16.3679C142.731 17.2283 142.753 18.3594 143.202 19.4258C143.652 20.4922 144.355 21.3585 145.061 21.9C145.221 21.9569 145.326 22.1031 145.486 22.16C145.389 22.7417 145.364 23.3127 145.267 23.8944L145.191 24.2299C145.175 24.1515 145.103 24.1622 145.086 24.0838L144.998 24.0161C144.863 23.3882 144.262 22.9928 143.816 22.9791C143.228 22.9869 142.849 23.2871 142.769 23.9473C142.681 25.257 143.901 26.1262 144.75 26.6462C144.838 26.7139 144.91 26.7031 144.927 26.7816C144.943 26.8601 144.905 27.0278 144.922 27.1063C144.884 27.2741 144.847 27.4418 144.88 27.5988C144.821 28.0128 144.977 28.3944 145.259 28.676C145.54 28.9575 145.931 29.0605 146.289 29.0066C146.36 28.9958 146.432 28.985 146.503 28.9742C146.844 28.8418 147.079 28.5632 147.121 28.0707C147.105 27.9922 147.159 27.903 147.126 27.746L147.109 27.6675C147.18 27.6567 147.34 27.7136 147.412 27.7028C149.245 27.9933 151.431 27.1771 151.835 24.9286C151.97 24.1791 151.873 23.3835 151.436 22.7203C150.876 21.8325 149.817 21.0202 148.555 20.6434C148.324 20.5973 148.093 20.5512 147.861 20.5051C147.924 19.7664 148.076 19.0953 148.139 18.3566C148.303 18.0888 148.307 17.7641 148.383 17.4286ZM146.07 16.9674C146.049 17.2137 145.973 17.5492 145.952 17.7954C145.856 18.3772 145.814 18.8696 145.717 19.4514C145.313 18.9452 145.036 18.3389 145.006 17.8572C144.943 17.2185 145.57 17.043 145.999 16.9782L146.07 16.9674ZM147.634 22.889L147.794 22.9459C148.345 23.1058 149.11 23.2333 149.514 23.7396C149.829 24.1781 149.644 24.6921 149.337 24.9815C148.795 25.5495 147.904 25.522 147.37 25.4406C147.47 24.5341 147.588 23.7061 147.634 22.889Z" fill="#1E1E1E"/>
</g>
<path d="M164.539 34.5495C160.019 29.5917 153.117 27.1928 147.612 25.5935C140.71 23.5944 133.479 22.5548 125.92 22.6348C124.03 22.6348 124.03 24.474 124.03 24.6339C124.03 24.9538 124.112 26.633 125.92 26.633C126.166 26.633 126.331 26.633 126.495 26.633C133.151 26.633 139.724 27.5126 145.969 29.2718C151.72 30.8711 157.636 33.0302 161.745 37.5082C162.238 37.988 162.731 38.2279 163.224 38.0679C163.963 37.908 164.621 37.2683 164.949 36.4686C165.114 35.9889 165.196 35.2692 164.539 34.5495Z" fill="#1E1E1E"/>
</svg>
