<svg width="624" height="314" viewBox="0 0 624 314" fill="none" xmlns="http://www.w3.org/2000/svg">
<path d="M287.897 55.7259C287.381 55.1617 286.85 54.5606 286.334 53.9964C285.105 52.6895 283.891 51.4196 282.603 50.1783C280.094 47.7551 277.387 45.5799 274.38 43.8206C273.455 43.2889 272.191 43.827 271.743 44.7266C271.684 44.7921 271.676 44.8803 271.669 44.9684C271.471 45.2163 271.288 45.5011 271.206 45.8311C269.642 51.0861 268.064 56.3041 266.499 61.5591C266.234 62.3871 266.858 63.3347 267.565 63.7391C269.306 64.6323 271.329 63.8816 273.125 63.5182L278.733 62.342C280.726 61.9439 282.705 61.5088 284.698 61.1107C286.406 60.739 289.515 60.7128 289.442 58.2712C289.38 57.1457 288.609 56.4685 287.897 55.7259ZM277.629 58.5588C276.154 58.8815 274.664 59.1673 273.19 59.49C272.489 59.637 271.788 59.784 271.087 59.931C272.223 56.164 273.344 52.3601 274.481 48.5931C276.33 49.8697 278.098 51.2631 279.713 52.802C280.789 53.8279 281.844 54.905 282.861 55.9964C283.232 56.4047 283.639 56.7986 284.061 57.2295C283.47 57.3335 282.893 57.4745 282.302 57.5786L277.629 58.5588Z" fill="#1E1E1E"/>
<path d="M16.6423 0.634519C15.9287 0.909167 15.1754 1.18382 14.4617 1.45846C12.7966 2.12547 11.171 2.79247 9.54549 3.53794C6.3737 4.98966 3.36051 6.71602 0.624842 8.87397C-0.207751 9.54097 -0.168114 10.9142 0.50589 11.6597C0.545537 11.7382 0.624829 11.7774 0.704124 11.8166C0.862713 12.0913 1.06095 12.3659 1.33848 12.5621C5.66004 15.9363 9.94195 19.3106 14.2635 22.6849C14.9375 23.2341 16.0476 22.9987 16.682 22.4887C18.149 21.1939 18.1886 19.036 18.5058 17.2311L19.4573 11.5812C19.8141 9.5802 20.1313 7.5792 20.4881 5.57819C20.7657 3.85183 21.8758 0.948402 19.5763 0.124458C18.5058 -0.228662 17.5939 0.242164 16.6423 0.634519ZM15.5322 11.2281C15.2943 12.719 15.0168 14.21 14.7789 15.7009C14.66 16.4072 14.541 17.1134 14.4221 17.8197C11.3296 15.3871 8.19747 12.9545 5.10498 10.5219C6.9684 9.26632 8.91112 8.12849 10.9331 7.18684C12.2811 6.55907 13.6688 5.97054 15.0565 5.42125C15.5719 5.22507 16.0873 4.98966 16.6423 4.75424C16.5234 5.34277 16.4441 5.93131 16.3252 6.51984L15.5322 11.2281Z" fill="white"/>
<path d="M619.642 168.635C618.929 168.909 618.175 169.184 617.462 169.458C615.797 170.125 614.171 170.792 612.545 171.538C609.374 172.99 606.361 174.716 603.625 176.874C602.792 177.541 602.832 178.914 603.506 179.66C603.546 179.738 603.625 179.777 603.704 179.817C603.863 180.091 604.061 180.366 604.338 180.562C608.66 183.936 612.942 187.311 617.264 190.685C617.938 191.234 619.048 190.999 619.682 190.489C621.149 189.194 621.189 187.036 621.506 185.231L622.457 179.581C622.814 177.58 623.131 175.579 623.488 173.578C623.766 171.852 624.876 168.948 622.576 168.124C621.506 167.771 620.594 168.242 619.642 168.635ZM618.532 179.228C618.294 180.719 618.017 182.21 617.779 183.701C617.66 184.407 617.541 185.113 617.422 185.82C614.33 183.387 611.197 180.954 608.105 178.522C609.968 177.266 611.911 176.128 613.933 175.187C615.281 174.559 616.669 173.971 618.056 173.421C618.572 173.225 619.087 172.99 619.642 172.754C619.523 173.343 619.444 173.931 619.325 174.52L618.532 179.228Z" fill="#1E1E1E"/>
<path fill-rule="evenodd" clip-rule="evenodd" d="M524.553 281.611C525.424 281.929 526.456 282.416 527.303 283.307C528.288 284.342 528.806 285.679 529.141 286.732C529.921 289.062 530.559 292.321 529.235 295.24L529.232 295.246C528.167 297.575 526.12 298.983 524.125 299.582C522.102 300.189 520.042 300.057 518.176 299.678L518.166 299.676L518.156 299.674C517.248 299.477 516.072 299.168 515.034 298.354C514.063 297.607 513.391 296.568 512.95 295.52C511.09 291.266 512.137 286.921 514.572 284.152C516.975 281.419 520.743 280.155 524.553 281.611ZM516.887 287.115C515.402 288.803 514.873 291.202 515.939 293.631L515.947 293.649L515.954 293.666C516.184 294.216 516.487 294.645 516.85 294.922L516.86 294.93L516.87 294.938C517.297 295.274 517.887 295.478 518.745 295.665C520.363 295.992 521.909 296.052 523.309 295.631C524.738 295.202 525.811 294.296 526.276 293.282C526.843 292.029 526.693 290.283 526.007 288.242L526.001 288.224L525.995 288.206C525.718 287.332 525.442 286.75 525.086 286.376C524.775 286.049 524.283 285.765 523.566 285.504L523.554 285.5L523.542 285.495C520.901 284.482 518.404 285.389 516.887 287.115Z" fill="white"/>
<path fill-rule="evenodd" clip-rule="evenodd" d="M53.5526 295.611C54.4244 295.929 55.4561 296.416 56.3031 297.307C57.288 298.342 57.8063 299.679 58.1413 300.732C58.9211 303.062 59.5594 306.321 58.2349 309.24L58.2321 309.246C57.167 311.575 55.1203 312.983 53.1246 313.582C51.1017 314.189 49.0419 314.057 47.1758 313.678L47.166 313.676L47.1563 313.674C46.2482 313.477 45.0717 313.168 44.0342 312.354C43.0625 311.607 42.3913 310.568 41.9498 309.52C40.09 305.266 41.1366 300.921 43.572 298.152C45.9751 295.419 49.7433 294.155 53.5526 295.611ZM45.8865 301.115C44.402 302.803 43.8728 305.202 44.9393 307.631L44.947 307.649L44.9544 307.666C45.1845 308.216 45.487 308.645 45.8503 308.922L45.8603 308.93L45.8701 308.938C46.2969 309.274 46.8871 309.478 47.7452 309.665C49.3627 309.992 50.9091 310.052 52.3094 309.631C53.7384 309.202 54.8112 308.296 55.2762 307.282C55.8431 306.029 55.6926 304.283 55.0075 302.242L55.0013 302.224L54.9954 302.206C54.7185 301.332 54.4417 300.75 54.0864 300.376C53.7749 300.049 53.2826 299.765 52.5663 299.504L52.5543 299.5L52.5423 299.495C49.9012 298.482 47.4039 299.389 45.8865 301.115Z" fill="#1E1E1E"/>
<path fill-rule="evenodd" clip-rule="evenodd" d="M440.159 123.45C440.934 123.685 441.852 124.044 442.605 124.7C443.48 125.462 443.941 126.448 444.239 127.224C444.932 128.94 445.499 131.342 444.322 133.493L444.319 133.497C443.372 135.213 441.553 136.25 439.779 136.692C437.98 137.14 436.149 137.042 434.49 136.763L434.482 136.762L434.473 136.76C433.666 136.614 432.62 136.387 431.697 135.787C430.834 135.237 430.237 134.471 429.844 133.699C428.191 130.565 429.121 127.363 431.286 125.322C433.423 123.309 436.773 122.378 440.159 123.45ZM433.344 127.506C432.024 128.75 431.554 130.518 432.502 132.307L432.509 132.32L432.515 132.333C432.72 132.738 432.989 133.054 433.312 133.259L433.321 133.264L433.33 133.27C433.709 133.518 434.234 133.668 434.996 133.806C436.434 134.047 437.809 134.091 439.054 133.781C440.325 133.465 441.278 132.797 441.692 132.05C442.196 131.127 442.062 129.84 441.453 128.337L441.447 128.323L441.442 128.309C441.196 127.666 440.95 127.237 440.634 126.962C440.357 126.72 439.919 126.511 439.282 126.319L439.272 126.316L439.261 126.312C436.913 125.566 434.693 126.234 433.344 127.506Z" fill="white"/>
</svg>
