<svg width="48" height="89" viewBox="0 0 48 89" fill="none" xmlns="http://www.w3.org/2000/svg">
<path d="M7.1066 86.9578C7.22663 86.8399 7.34666 86.722 7.47827 86.6399C8.13736 86.1106 8.80803 85.6171 9.51449 85.112C10.8674 84.1607 12.3266 83.2937 13.8447 82.4868C14.2153 82.288 14.5038 81.9575 14.5913 81.4942C14.7146 81.0193 14.6242 80.4949 14.378 80.0999C13.8971 79.3457 12.9592 79.1346 12.1107 79.5669C10.6526 80.3149 9.26494 81.1587 7.96048 82.0153C7.37405 82.4025 6.79919 82.8255 6.26013 83.237C6.18239 82.6293 6.09307 81.9859 6.01533 81.3782C5.76835 79.7575 5.4498 78.1599 5.03543 76.6328C4.8861 76.0482 4.47356 75.6279 3.95148 75.4802C3.38203 75.3082 2.69039 75.4922 2.24605 75.9521C1.79015 76.3763 1.62999 76.9817 1.79089 77.602C2.22732 79.3197 2.58059 81.0248 2.79177 82.6571C2.91471 83.527 3.00186 84.4084 3.07744 85.254L3.08793 85.4088C3.12048 85.7542 3.15194 86.2186 3.29078 86.6483C3.48748 87.2571 3.86314 87.808 4.70628 87.9706C5.75045 88.266 6.53066 87.4998 7.1066 86.9578Z" fill="white"/>
<path d="M43.8623 26.1491C43.8999 26.262 43.9752 26.3749 44.0128 26.4878C44.3889 27.4286 44.6146 28.4446 44.6146 29.4983C44.6146 31.4175 43.9752 33.412 42.8091 35.2184C42.621 35.4818 42.5458 35.8205 42.5458 36.1592C42.5458 36.7236 42.8467 37.2505 43.2981 37.5892C43.6742 37.8526 44.1256 37.9279 44.577 37.8526C44.9908 37.7397 45.3669 37.4763 45.6302 37.1C47.1725 34.7668 48 32.0949 48 29.5359C48 28.0307 47.6991 26.563 47.1725 25.2083C47.0972 25.0577 47.022 24.8696 46.9468 24.7191C46.533 23.8912 45.555 23.5148 44.6899 23.8912C43.8247 24.3051 43.4862 25.3212 43.8623 26.1491Z" fill="white"/>
<path d="M15.0288 31.1556C15.1114 30.7116 15.0022 30.2702 14.7684 29.8822C13.4209 27.8707 12.0847 25.5933 10.6067 22.6388C10.3866 22.1768 10.1295 21.7079 9.90936 21.2459C9.71934 20.8277 9.35386 20.5301 8.92387 20.3735C8.49387 20.2169 8.02945 20.2453 7.64843 20.4424C7.18657 20.6626 6.83132 21.1324 6.73494 21.6504C6.66609 22.0203 6.71507 22.374 6.88188 22.7112C7.10199 23.1732 7.3522 23.6791 7.60929 24.148C9.14064 27.2273 10.5302 29.6294 11.9679 31.7726C12.2018 32.1606 12.618 32.3912 13.0618 32.4738C13.5055 32.5563 13.9467 32.4471 14.3346 32.213C14.7225 31.979 14.9462 31.5995 15.0288 31.1556Z" fill="white"/>
<path d="M28.1767 22.687C29.9446 21.6333 32.2016 21.0312 34.4961 21.0312C35.0603 21.0312 35.6246 21.0688 36.1888 21.1441C37.1292 21.257 37.9567 20.6172 38.0696 19.6764C38.1824 18.7356 37.5429 17.9077 36.6026 17.7948C35.8879 17.7196 35.1732 17.6443 34.4961 17.6443C31.5621 17.6443 28.7786 18.3969 26.4464 19.7893C26.2207 19.9398 25.995 20.0527 25.7693 20.2033C25.2803 20.5043 25.017 21.0312 25.017 21.6333C25.017 21.972 25.1299 22.273 25.2803 22.5741C25.5436 22.9504 25.9198 23.2138 26.3712 23.2891C26.8226 23.3643 27.274 23.2891 27.6501 23.0257C27.8006 22.9128 27.9886 22.7999 28.1767 22.687Z" fill="white"/>
<path d="M8.6338 13.6181C8.64103 9.92049 8.85508 6.17263 9.19761 2.50307C9.27521 1.58079 8.60387 0.730854 7.68181 0.653599C7.0308 0.56528 6.39623 0.883624 6.04367 1.46202C5.90656 1.68695 5.82115 1.89932 5.79999 2.15085C5.43082 5.93638 5.20972 9.76809 5.20797 13.6013C5.21419 14.5306 5.97641 15.3037 6.90553 15.2971C7.86677 15.3101 8.64002 14.5474 8.6338 13.6181Z" fill="white"/>
<path d="M18.6224 41.804C18.6977 41.2018 18.8105 40.5621 18.8857 39.9976C19.4124 36.8365 20.2775 33.9765 21.4812 31.4552C21.6693 31.0412 21.6693 30.5896 21.5188 30.1757C21.3684 29.7617 21.0674 29.4231 20.6537 29.1973C20.2399 29.0091 19.7885 28.9715 19.3747 29.122C18.961 29.2725 18.6224 29.5736 18.3967 29.9875C17.0802 32.7723 16.1022 35.9334 15.538 39.3955C15.4251 39.9976 15.3499 40.675 15.2371 41.3524C15.2371 41.4276 15.2371 41.5029 15.2371 41.5782C15.2371 42.4437 15.8765 43.1587 16.7041 43.2716C17.6444 43.3845 18.5096 42.7071 18.6224 41.804Z" fill="white"/>
<path d="M16.1022 63.8939C16.3279 62.8778 16.516 61.8241 16.6664 60.7704C17.0802 57.9104 17.2683 55.0504 17.4187 52.4161C17.4563 51.9646 17.3059 51.5506 17.005 51.1743C16.704 50.8356 16.2903 50.6098 15.8013 50.6098C15.3499 50.5722 14.8985 50.7227 14.56 51.0238C14.2214 51.3248 14.0334 51.7388 13.9957 52.1904C13.8453 54.7493 13.6572 57.5341 13.281 60.2436C13.1306 61.222 12.9425 62.2004 12.7544 63.1036C12.7168 63.2165 12.7168 63.367 12.7168 63.4799C12.7168 64.2702 13.2434 64.9476 14.0333 65.1357C14.4847 65.2486 14.9361 65.1734 15.3123 64.91C15.726 64.6842 16.027 64.3078 16.1022 63.8939Z" fill="white"/>
<path d="M7.33644 77.392C6.96369 77.8288 6.87512 78.4111 7.04868 78.9482C7.15281 79.2705 7.36433 79.5581 7.62428 79.7509C7.99054 80.028 8.42947 80.163 8.88213 80.0959C9.33479 80.0287 9.74116 79.8183 10.0181 79.452C11.5586 77.491 12.7213 75.217 13.5062 72.6301C13.6411 72.191 13.5738 71.7382 13.3634 71.3316C13.1529 70.9251 12.7867 70.6479 12.3478 70.5129C11.4699 70.2429 10.5255 70.7458 10.2201 71.6354C9.55738 73.8665 8.58846 75.7614 7.33644 77.392Z" fill="white"/>
<path d="M36.6025 41.7286C36.4521 40.7878 35.5869 40.1857 34.6842 40.3362C33.9318 40.4491 33.1043 40.5244 32.3144 40.5244C29.7942 40.5244 27.1611 39.9223 24.6409 38.831C24.2271 38.6428 23.7757 38.6428 23.3619 38.7933C22.9482 38.9439 22.6096 39.2826 22.4216 39.6965C22.3087 39.9223 22.2711 40.1481 22.2711 40.3739C22.2711 41.0513 22.6849 41.6534 23.2867 41.9168C26.2207 43.1963 29.3428 43.9113 32.352 43.9113C33.33 43.9113 34.308 43.836 35.2484 43.6855C36.1135 43.535 36.753 42.6694 36.6025 41.7286Z" fill="white"/>
</svg>
