<svg width="119" height="82" viewBox="0 0 119 82" fill="none" xmlns="http://www.w3.org/2000/svg">
<path d="M46.7076 31.2C46.8076 29.6 45.2076 28.1 43.7076 28.2C40.3076 28.4 35.7076 27.8 32.5076 29C31.6076 29.3 30.6076 30 30.4076 31.1C29.9076 33.8 30.5076 36.8 30.5076 39.6C30.5076 42.8 30.2076 46 30.3076 49.2C30.4076 55.2 36.6076 54.1 41.1076 53.8C41.9076 53.7 42.7076 53.4 43.2076 52.8C44.8076 53 46.5076 52 46.4076 49.9C46.0076 43.7 46.1076 37.5 46.7076 31.2Z" fill="#59C59F"/>
<path d="M69.9077 43.1C69.9077 40.8 70.2077 37.8 69.6077 35.3C69.6077 34 69.5077 32.7 69.4077 31.5C69.2077 30.4 68.2077 29.7 67.3077 29.4C64.3077 28.3 60.2077 28.8 57.1077 28.7C54.4077 28.6 53.6077 31.5 54.7077 33.3C54.5077 33.8 54.4077 34.3 54.3077 34.8C53.6077 39 53.6077 43.6 53.5077 47.8C53.5077 50.8 54.5077 54.1 58.0077 54.1C58.9077 54.1 60.0077 53.9 60.9077 53.5C61.4077 53.7 61.8077 53.9 62.3077 54.1C63.7077 54.7 65.1077 54.2 65.9077 53.3C66.8077 53.5 67.9077 53.1 68.5077 52.4C70.8077 50.3 69.9077 45.8 69.9077 43.1Z" fill="#59C59F"/>
<path d="M93.6077 31.6C92.9077 29.5 91.5077 29.1 89.5077 29C86.0077 28.9 82.4077 29 78.8077 29C75.6077 29 75.0077 33.2 77.3077 34.6C77.2077 35 77.0077 35.4 77.0077 35.8C76.6077 38.4 76.8077 41.4 76.8077 44.1C76.7077 46.3 76.4077 48.8 76.9077 51C77.1077 52 78.0077 52.9 79.0077 53.1C82.6077 54 86.7077 53.4 90.3077 53.9C92.0077 54.1 93.2077 52.3 93.3077 50.9C93.6077 47.6 93.8077 44.4 93.9077 41.1C93.9077 38.2 94.5077 34.3 93.6077 31.6Z" fill="#59C59F"/>
<path d="M90.3077 41.5C86.6077 41.4 83.0077 41.4 79.3077 41.5C78.7077 41.5 78.7077 42.5 79.3077 42.5C83.0077 42.4 86.6077 42.4 90.3077 42.5C91.0077 42.5 91.0077 41.5 90.3077 41.5Z" fill="#1E1E1E"/>
<path d="M82.4077 48.4C83.1077 48.3 83.8077 48.3 84.5077 48.3C84.6077 48.3 84.8077 48.3 84.9077 48.3C84.8077 48.6 84.6077 48.8 84.5077 49.1C84.1077 50 83.7077 50.9 83.4077 51.7C83.2077 52.3 83.0077 52.8 82.8077 53.4H85.9077C86.4077 52 87.0077 50.6 87.6077 49.3C87.9077 48.6 88.5077 47.9 88.5077 47.1C88.5077 46.5 88.2077 45.9 87.7077 45.6C87.3077 45.4 86.8077 45.3 86.4077 45.3C84.8077 45.1 83.1077 45.2 81.5077 45.5C80.7077 45.6 80.3077 46.6 80.5077 47.3C80.8077 48.2 81.6077 48.5 82.4077 48.4Z" fill="#1E1E1E"/>
<path d="M86.5077 31.9C85.7077 31.5 85.0077 31.6 84.3077 31.9C84.3077 31.4 84.4077 31 84.5077 30.6C84.6077 30.2 84.7077 29.8 84.8077 29.4C84.9077 29.1 84.9077 29 85.0077 28.8H81.9077C81.3077 30.6 81.2077 32.5 81.3077 34.4C81.5077 36.5 82.3077 39 84.8077 39.3C85.8077 39.4 86.9077 39 87.7077 38.3C88.6077 37.4 88.8077 36.2 88.6077 35C88.4077 33.7 87.7077 32.5 86.5077 31.9ZM85.6077 36.1C85.5077 36.2 85.5077 36.2 85.5077 36.2C85.4077 36.2 85.3077 36.3 85.3077 36.3H85.2077C85.1077 36.3 85.1077 36.3 85.1077 36.3C84.9077 36.3 84.9077 36.2 85.0077 36.3C84.9077 36.3 84.9077 36.2 84.9077 36.2C84.8077 36.1 84.8077 36 84.7077 36C84.5077 35.8 84.4077 35.5 84.4077 35.3C84.6077 35.2 84.7077 35.1 84.9077 35C85.0077 34.9 85.2077 34.7 85.2077 34.7L85.3077 34.8C85.5077 35.1 85.6077 35.3 85.6077 35.7V35.9C85.6077 36 85.6077 36.1 85.6077 36.1Z" fill="#1E1E1E"/>
<path d="M63.3077 39.5C63.4077 39.4 63.5076 39.3 63.5076 39.3C64.2076 38.5 65.0077 37.6 65.3077 36.6C65.5077 35.8 65.2076 35 64.5076 34.6C63.9076 34.3 63.2076 34.3 62.6076 34.3C61.5076 34.3 60.3076 34.2 59.2076 34.2C57.3076 34.2 57.3076 37.2 59.2076 37.2C59.9076 37.2 60.6077 37.2 61.3077 37.2C61.2077 37.3 61.2076 37.3 61.1076 37.4C60.5076 38.1 59.8076 38.7 59.2076 39.3C58.8076 39.7 58.7076 40.4 58.9076 40.9C59.1076 41.4 59.7077 41.9 60.3077 41.8C60.9077 41.7 61.1076 41.7 61.6076 41.9C61.9076 42 62.1076 42.2 62.4076 42.4C62.9076 42.9 63.1076 43.7 62.9076 44.4C62.8076 44.6 62.8076 44.6 62.7076 44.8C62.6076 44.9 62.7076 44.8 62.6076 44.9C62.6076 44.9 62.4076 45 62.5076 45C62.3076 45.2 62.3076 45.1 62.1076 45.2C62.1076 45.2 62.0076 45.2 61.9076 45.2C61.8076 45.2 61.6076 45.2 61.6076 45.2H61.5076C61.4076 45.2 61.3076 45.1 61.1076 45.1C60.9076 45 60.9076 45 60.7076 44.9C60.2076 44.6 60.0076 44.4 59.6076 44C59.1076 43.4 58.0076 43.5 57.5076 44C56.9076 44.6 57.0076 45.5 57.5076 46.1C58.6076 47.3 60.1077 48.2 61.8077 48.1C63.7077 48 65.2077 46.9 65.8077 45.2C66.4077 43.1 65.3077 40.6 63.3077 39.5Z" fill="#1E1E1E"/>
<path d="M41.0077 41.1C41.1077 39.2 41.4077 37.4 41.0077 35.6C40.8077 34.4 38.8077 34.1 38.3077 35.2C37.7077 36.6 36.8076 37.5 35.6076 38.2C34.9076 38.6 34.7076 39.6 35.1076 40.3C35.5076 41 36.4077 41.2 37.2077 40.8C37.6077 40.6 37.9077 40.4 38.2077 40.1C38.2077 40.5 38.1076 40.9 38.1076 41.3C38.0076 43.1 38.0077 44.8 38.2077 46.6C38.3077 47.4 38.8077 48.1 39.7077 48.1C40.4077 48.1 41.3077 47.4 41.2077 46.6C40.9077 44.8 40.8077 42.9 41.0077 41.1Z" fill="#1E1E1E"/>
<path d="M51.5077 53C51.5077 53.9 52.1077 54.3 52.8077 54.4C53.0077 54.6 53.3077 54.7 53.7077 54.7C59.4077 55.1 65.1077 55.1 70.8077 54.8C71.9077 54.7 72.4077 53.7 72.2077 52.8C72.2077 52.7 72.2077 52.6 72.2077 52.6C71.8077 44.8 71.7077 37 71.8077 29.1C71.8077 28.6 71.6077 28.2 71.3077 28C71.1077 27.5 70.7077 27 69.9077 27C64.8077 26.9 59.6077 26.9 54.5077 26.8C54.1077 26.8 53.8077 26.9 53.5077 27.1C52.8077 27.1 52.1077 27.6 52.0077 28.5C51.6077 36.8 51.4077 44.9 51.5077 53ZM69.1077 51.9C64.2077 52.1 59.4077 52.1 54.5077 51.8C54.4077 44.5 54.6077 37.2 55.0077 29.9C59.6077 30 64.1077 30 68.7077 30.1C68.6077 37.3 68.8077 44.6 69.1077 51.9Z" fill="#1E1E1E"/>
<path d="M94.9077 28.9C94.9077 28 94.3077 27.6 93.6077 27.5C93.4077 27.3 93.1077 27.2 92.7077 27.2C87.0077 26.8 81.3077 26.8 75.6077 27.1C74.5077 27.2 74.0077 28.2 74.2077 29.1C74.2077 29.2 74.2077 29.3 74.2077 29.3C74.6077 37.1 74.7077 44.9 74.6077 52.8C74.6077 53.3 74.8077 53.7 75.1077 53.9C75.3077 54.4 75.7077 54.9 76.5077 54.9C81.6077 55 86.8077 55 91.9077 55.1C92.3077 55.1 92.6077 55 92.9077 54.8C93.6077 54.8 94.3077 54.3 94.4077 53.4C94.8077 45.2 95.0077 37 94.9077 28.9ZM77.3077 30C82.2077 29.8 87.0077 29.8 91.9077 30.1C92.0077 37.4 91.8077 44.7 91.4077 52C86.8077 51.9 82.3077 51.9 77.7077 51.8C77.8077 44.6 77.7077 37.3 77.3077 30Z" fill="#1E1E1E"/>
<path d="M48.9076 28.9C48.9076 28 48.3076 27.6 47.6076 27.5C47.4076 27.3 47.1076 27.2 46.7076 27.2C41.0076 26.8 35.3076 26.8 29.6076 27.1C28.5076 27.2 28.0076 28.2 28.2076 29.1C28.2076 29.2 28.2076 29.3 28.2076 29.3C28.6076 37.1 28.7076 44.9 28.6076 52.8C28.6076 53.3 28.8076 53.7 29.1076 53.9C29.3076 54.4 29.7076 54.9 30.5076 54.9C35.6076 55 40.8076 55 45.9076 55.1C46.3076 55.1 46.6076 55 46.9076 54.8C47.6076 54.8 48.3076 54.3 48.4076 53.4C48.8076 45.2 49.0076 37 48.9076 28.9ZM31.3076 30C36.2076 29.8 41.0076 29.8 45.9076 30.1C46.0076 37.4 45.8076 44.7 45.4076 52C40.8076 51.9 36.3076 51.9 31.7076 51.8C31.8076 44.6 31.7076 37.3 31.3076 30Z" fill="#1E1E1E"/>
<path d="M3.50766 25.9C3.40766 24 0.407657 24 0.507657 25.9C0.907657 32.6 0.707657 39.4 0.00765719 46.1C-0.0923428 46.9 0.807657 47.6 1.50766 47.6C2.40766 47.6 2.90766 46.9 3.00766 46.1C3.70766 39.3 3.90766 32.6 3.50766 25.9Z" fill="#F7C300"/>
<path d="M104.008 0C95.2077 0 86.3077 -9.68575e-08 77.5077 0.0999999C73.0077 0.0999999 73.0077 7.1 77.5077 7.1C86.3077 7.1 95.2077 7.1 104.008 7C108.508 7 108.608 0 104.008 0Z" fill="#F7C300"/>
<path d="M29.7077 9.20001C27.8077 9.20001 27.8077 12.2 29.7077 12.2C31.6077 12.2 31.6077 9.20001 29.7077 9.20001Z" fill="#1E1E1E"/>
<path d="M25.3077 9C23.4077 9 23.4077 12 25.3077 12C27.2077 12 27.2077 9 25.3077 9Z" fill="#1E1E1E"/>
<path d="M118.608 75.6C117.908 73.7 116.108 72.8 114.308 72.1C115.008 54.6 115.108 37.1 114.308 19.6C114.108 14.5 113.808 9.29997 113.408 4.19997C113.308 3.09997 112.308 2.59997 111.408 2.79997C84.5077 2.09997 57.6077 1.79997 30.7077 2.09997C23.1077 2.19997 15.4077 2.29997 7.80767 2.49997C7.40767 2.49997 7.20766 2.59997 6.90766 2.79997C6.20766 2.79997 5.50766 3.29997 5.60766 4.19997C6.10766 22.1 6.10766 40 5.60766 57.9C5.50766 62.3 5.30766 66.8 5.10766 71.2C2.70766 72.6 3.20766 76.4 5.40766 78C6.90766 79.1 8.90767 79.3 10.7077 79.5C12.9077 79.7 15.1077 79.8 17.4077 79.8C26.8077 79.8 36.2077 79.6 45.6077 79.7C64.5077 79.8 83.4077 80.4 102.308 81.2C104.808 81.3 107.308 81.4 109.708 81.3C111.908 81.2 114.508 81.3 116.508 80.4C118.608 79.5 119.308 77.5 118.608 75.6ZM9.00767 19.5C8.90767 14.8 8.80767 10.2 8.70767 5.49997C35.3077 4.99997 62.0077 4.89997 88.6077 5.29997C95.9077 5.39997 103.208 5.59997 110.508 5.79997C111.608 23.3 112.008 40.8 111.708 58.3C111.608 62.9 111.408 67.5 111.308 72.2C98.3077 72 85.4077 71.8 72.4077 71.7H72.3077C71.7077 71.8 71.2077 72.2 70.9077 72.8C70.8077 73 70.8077 73.2 70.7077 73.3C70.4077 73.3 70.0077 73.3 69.7077 73.3C68.8077 73.3 67.9077 73.3 67.0077 73.2C65.3077 73.1 63.6077 73 61.8077 72.9C60.1077 72.8 58.4077 72.7 56.6077 72.7C55.7077 72.7 54.8077 72.7 53.9077 72.7C53.5077 72.7 52.8077 72.8 52.2077 72.9C52.2077 72.8 52.2077 72.7 52.2077 72.6C52.2077 71.5 51.2077 71 50.3077 71.2C50.1077 71.2 49.8077 71.3 49.6077 71.3C43.5077 71.2 37.4077 71.1 31.4077 71C23.8077 70.9 16.1077 70.8 8.50767 70.7C8.40767 70.7 8.20766 70.7 8.10766 70.7C9.00766 53.8 9.20767 36.6 9.00767 19.5ZM115.908 77.3C115.608 77.9 114.508 77.9 114.008 77.9C112.908 78 111.808 78.1 110.708 78.2C106.808 78.4 103.008 78.2 99.1077 78C91.1077 77.6 83.2077 77.3 75.2077 77.1C59.3077 76.7 43.3077 76.5 27.4077 76.6C23.0077 76.6 18.6077 76.8 14.3077 76.7C12.3077 76.6 10.1077 76.7 8.30767 76C7.70767 75.8 6.90767 75.4 6.80767 74.7V74.6C7.40767 74.6 8.00767 74.3 8.20767 73.7C8.40767 73.8 8.60767 73.8 8.80767 73.8C22.4077 74 36.1077 74.2 49.7077 74.3C49.9077 74.8 50.1077 75.3 50.6077 75.6C51.6077 76.2 52.9077 75.8 54.0077 75.8C56.7077 75.7 59.4077 75.8 62.1077 76C64.7077 76.2 67.3077 76.3 70.0077 76.4C71.0077 76.4 72.4077 76.6 73.3077 76.1C73.7077 75.8 74.0077 75.5 74.1077 75C74.1077 74.9 74.1077 74.8 74.1077 74.7C79.4077 74.8 84.7077 74.8 90.1077 74.9C97.7077 75 105.408 75.1 113.008 75.2C113.308 75.2 113.608 75.1 113.808 75C114.608 75.4 116.408 76.2 115.908 77.3Z" fill="#1E1E1E"/>
<path d="M62.2077 8.00002C62.0077 8.00002 61.8077 7.90002 61.6077 7.90002C61.3077 7.90002 61.1077 8.00003 60.8077 8.10003H60.7077C60.4077 8.20003 60.2077 8.30002 60.0077 8.50002C59.8077 8.70002 59.7077 8.90002 59.6077 9.20002C59.5077 9.60002 59.5077 10 59.6077 10.4C59.7077 10.7 59.8077 10.9 60.0077 11.1C60.1077 11.2 60.3077 11.4 60.5077 11.5C60.7077 11.6 60.9077 11.7 61.1077 11.7C61.3077 11.7 61.5077 11.8 61.8077 11.8C62.0077 11.8 62.2077 11.8 62.4077 11.7C62.7077 11.6 62.9077 11.5 63.2077 11.2C63.6077 10.9 63.8077 10.3 63.8077 9.90002C63.7077 9.00002 63.1077 8.20002 62.2077 8.00002Z" fill="#1E1E1E"/>
<path d="M20.3077 9.20001C18.4077 9.20001 18.4077 12.2 20.3077 12.2C22.2077 12.2 22.2077 9.20001 20.3077 9.20001Z" fill="#1E1E1E"/>
<path d="M15.8077 10.5C15.9077 8.5 12.9077 8.5 12.8077 10.5C12.3077 28.8 12.4077 47.1 13.3077 65.4C13.4077 67.4 16.4077 67.4 16.3077 65.4C15.4077 47.1 15.3077 28.8 15.8077 10.5Z" fill="#1E1E1E"/>
<path d="M106.508 14.8C106.408 12.9 103.408 12.9 103.508 14.8C104.308 32.2 104.608 49.6 104.308 67C104.308 68.9 107.308 68.9 107.308 67C107.608 49.7 107.308 32.2 106.508 14.8Z" fill="#1E1E1E"/>
<path d="M108.308 56.7C108.108 56.3 107.808 55.9 107.408 55.7C107.108 55.6 106.808 55.5 106.508 55.5C106.108 55.1 105.608 55 105.108 55.1C103.908 55.5 102.908 56.6 102.608 57.8C102.308 59.1 102.508 60.7 103.708 61.4C104.108 61.6 104.508 61.7 104.908 61.7C105.408 61.7 105.808 61.5 106.208 61.3C106.708 61.1 107.208 60.8 107.508 60.3C107.908 59.8 108.208 59.2 108.308 58.6C108.508 57.9 108.508 57.3 108.308 56.7Z" fill="#F7C300"/>
<path d="M109.308 56.9C109.008 55.9 108.508 55.1 107.608 54.6C107.008 54.2 106.208 54 105.408 53.8C104.908 53.7 104.308 53.8 103.908 54.2C103.808 54.2 103.708 54.3 103.608 54.3C102.008 55 101.408 56.9 101.308 58.5C101.208 59.3 101.408 60.2 101.808 60.8C102.308 61.5 103.108 62 103.908 62.2C105.408 62.6 107.208 62.3 108.208 61.1C109.508 60.1 109.708 58.4 109.308 56.9ZM104.608 60.7C104.408 60.7 104.208 60.6 104.108 60.6C104.008 60.6 104.008 60.6 103.908 60.5C103.608 60.3 103.408 59.9 103.308 59.5C103.308 59.2 103.308 59 103.308 58.7C103.308 58.6 103.308 58.5 103.308 58.4C103.408 57.8 103.508 57.3 103.708 56.8C103.708 56.7 103.808 56.7 103.808 56.6C104.008 56.5 104.108 56.3 104.308 56.2C105.108 55.8 106.008 55.9 106.608 56.5C106.908 56.8 107.108 57.3 107.208 57.7C107.308 58.2 107.208 58.6 107.108 59.1C107.008 59.5 106.808 59.8 106.408 60.1C106.108 60.4 105.608 60.5 105.208 60.6H105.108C105.108 60.7 104.908 60.7 104.608 60.7Z" fill="#1E1E1E"/>
</svg>
