<svg width="119" height="84" viewBox="0 0 119 84" fill="none" xmlns="http://www.w3.org/2000/svg">
<path d="M55.8881 31.8085C53.1881 30.1085 47.9881 29.5085 44.9881 30.9085C44.5881 30.5085 43.9881 30.3085 43.2881 30.6085C36.4881 33.2085 33.7881 43.0085 37.0881 49.2085C40.4881 55.7085 51.8881 56.2085 57.1881 51.9085C63.4881 46.8085 62.7881 36.1085 55.8881 31.8085ZM49.0881 47.8085C46.2881 47.7085 44.0881 43.9085 43.8881 41.5085C43.8881 41.4085 43.8881 41.3085 43.8881 41.2085C44.1881 40.5085 44.6881 39.3085 45.3881 38.2085C46.8881 37.2085 49.0881 37.0085 50.7881 37.4085C51.1881 37.5085 51.6881 37.7085 51.9881 38.0085C54.3881 41.5085 53.6881 47.9085 49.0881 47.8085Z" fill="#59C59F"/>
<path d="M64.9881 40.1085C64.9881 39.5085 64.8881 39.0085 64.7881 38.6085C64.5881 37.8085 64.0881 37.3085 63.4881 37.1085C63.1881 37.0085 62.8881 37.0085 62.688 37.0085H62.5881C62.4881 37.0085 62.288 37.0085 62.188 37.0085C61.988 37.0085 61.7881 36.9085 61.7881 36.8085C61.7881 36.7085 61.9881 36.5085 62.0881 36.4085C62.1881 36.3085 62.1881 36.3085 62.2881 36.2085C63.0881 35.4085 62.988 34.1085 62.688 33.3085C62.288 32.4085 61.6881 31.8085 60.9881 31.2085C60.2881 30.6085 59.4881 30.0085 58.7881 29.5085C58.4881 29.3085 58.2881 29.2085 57.8881 29.1085C57.0881 29.0085 56.5881 29.5085 56.0881 29.9085C55.9881 30.0085 55.8881 30.1085 55.7881 30.1085C55.6881 30.2085 55.5881 30.2085 55.4881 30.3085C55.4881 30.2085 55.4881 30.1085 55.4881 30.0085C55.3881 29.4085 55.1881 28.9085 54.8881 28.4085C54.2881 27.5085 52.9881 26.9085 51.5881 26.9085C50.7881 26.9085 49.8881 27.0085 49.0881 27.1085H48.9881C48.6881 27.1085 48.3881 27.2085 47.9881 27.2085C46.6881 27.3085 46.4881 28.7085 46.3881 29.6085C46.3881 29.9085 46.2881 30.1085 46.2881 30.3085C46.2881 30.4085 46.288 30.4085 46.188 30.4085C45.988 30.4085 45.7881 30.2085 45.5881 29.9085C45.3881 29.7085 45.088 29.4085 44.688 29.2085C44.088 28.9085 43.2881 29.0085 42.5881 29.5085C41.7881 30.0085 41.1881 30.7085 40.7881 31.2085C40.5881 31.4085 40.4881 31.6085 40.2881 31.8085C39.8881 32.2085 39.488 32.6085 39.188 33.2085C38.788 34.0085 38.588 35.1085 39.188 36.1085C39.188 36.2085 39.2881 36.2085 39.2881 36.3085C39.2881 36.4085 39.3881 36.4085 39.3881 36.5085C39.4881 36.7085 39.688 36.9085 39.688 37.0085C39.688 37.1085 39.4881 37.2085 39.2881 37.2085C39.1881 37.2085 39.0881 37.2085 38.9881 37.2085C38.6881 37.2085 38.3881 37.2085 38.0881 37.3085C37.4881 37.5085 36.988 38.0085 36.688 38.7085C36.488 39.3085 36.4881 39.9085 36.4881 40.4085V43.3085C36.4881 43.8085 36.4881 44.5085 36.8881 45.1085C37.3881 45.8085 38.2881 46.0085 38.9881 46.0085C39.1881 46.0085 39.2881 46.0085 39.4881 46.0085C39.5881 46.0085 39.7881 46.0085 39.7881 46.0085C39.7881 46.1085 39.7881 46.3085 39.5881 46.4085C39.4881 46.5085 39.3881 46.6085 39.3881 46.7085L39.2881 46.8085C38.9881 47.1085 38.788 47.3085 38.688 47.7085C38.388 48.5085 38.8881 49.3085 39.2881 49.9085C39.7881 50.5085 40.2881 51.2085 40.7881 51.8085C41.3881 52.5085 41.9881 53.1085 42.7881 53.5085C43.4881 53.8085 44.1881 53.8085 44.7881 53.6085C45.0881 53.5085 45.3881 53.4085 45.5881 53.2085C45.6881 53.1085 45.7881 53.0085 45.7881 53.0085C45.8881 52.9085 46.088 52.7085 46.188 52.7085C46.188 52.7085 46.3881 52.9085 46.3881 53.2085C46.3881 53.3085 46.3881 53.4085 46.3881 53.5085C46.3881 53.9085 46.388 54.3085 46.688 54.8085C46.688 54.9085 46.7881 54.9085 46.7881 54.9085C47.4881 55.2085 48.1881 55.5085 48.8881 55.6085L52.4881 55.8085C52.5881 55.8085 52.6881 55.8085 52.8881 55.8085C53.0881 55.8085 53.2881 55.8085 53.4881 55.8085C53.5881 55.8085 53.588 55.8085 53.688 55.8085C54.188 55.7085 54.5881 55.4085 54.8881 55.0085C55.1881 54.6085 55.188 54.1085 55.188 53.6085V53.4085C55.188 53.1085 55.2881 52.8085 55.3881 52.8085C55.4881 52.7085 55.7881 53.0085 56.0881 53.2085C56.4881 53.5085 56.988 54.0085 57.688 53.9085C57.988 53.9085 58.2881 53.7085 58.4881 53.6085C59.6881 52.8085 60.8881 51.8085 61.9881 50.8085C63.3881 49.4085 63.2881 48.4085 62.9881 47.9085C62.7881 47.6085 62.5881 47.3085 62.2881 47.1085C61.9881 46.8085 61.7881 46.6085 61.8881 46.5085C61.8881 46.4085 62.0881 46.3085 62.3881 46.3085C62.4881 46.3085 62.588 46.3085 62.688 46.3085C62.988 46.3085 63.3881 46.3085 63.688 46.1085C63.8881 46.0085 64.0881 45.8085 64.2881 45.6085C64.6881 45.2085 64.8881 44.6085 64.9881 43.8085C65.0881 42.3085 64.9881 41.2085 64.9881 40.1085ZM62.3881 43.4085C62.2881 43.4085 62.288 43.4085 62.188 43.4085C61.3881 43.3085 60.4881 43.6085 59.8881 44.2085C59.4881 44.6085 58.7881 45.5085 58.8881 46.5085C58.9881 47.0085 59.2881 47.5085 59.5881 47.8085C59.8881 48.2085 60.0881 48.4085 59.9881 48.6085C59.9881 48.8085 59.7881 48.9085 59.5881 49.2085C59.2881 49.4085 58.988 49.7085 58.688 49.9085C58.288 50.2085 57.7881 50.5085 57.3881 50.9085C56.7881 50.4085 55.7881 49.9085 55.3881 49.9085C54.9881 49.9085 54.6881 50.1085 54.3881 50.2085L54.188 50.3085C53.788 50.4085 52.788 50.8085 52.688 52.0085C52.688 52.2085 52.688 52.4085 52.688 52.6085C52.688 52.7085 52.688 52.9085 52.688 53.0085C52.688 53.1085 52.688 53.2085 52.688 53.2085C52.688 53.2085 52.5881 53.2085 52.2881 53.2085C51.1881 53.2085 50.0881 53.1085 48.9881 53.0085C48.9881 51.7085 48.1881 50.6085 46.9881 50.1085C46.4881 49.9085 45.9881 49.8085 45.5881 49.9085C45.1881 50.0085 44.8881 50.4085 44.5881 50.7085C44.3881 50.9085 44.1881 51.2085 44.0881 51.2085L43.9881 51.1085C42.9881 50.6085 42.1881 49.8085 41.5881 48.8085C41.4881 48.7085 41.3881 48.5085 41.3881 48.4085C41.3881 48.3085 41.4881 48.1085 41.7881 47.9085C41.8881 47.8085 41.9881 47.7085 42.0881 47.6085C42.7881 46.8085 42.5881 46.1085 42.2881 45.5085L42.188 45.3085C42.088 45.1085 41.9881 44.8085 41.7881 44.5085C41.4881 44.1085 40.9881 43.8085 40.3881 43.7085C40.2881 43.7085 40.1881 43.7085 39.9881 43.7085C39.6881 43.7085 39.388 43.6085 39.188 43.5085C38.988 43.4085 38.8881 43.2085 38.7881 42.9085C38.4881 41.9085 38.5881 40.5085 39.0881 39.7085C39.1881 39.5085 39.4881 39.5085 40.0881 39.5085C40.7881 39.5085 41.9881 39.4085 42.2881 38.2085C42.3881 37.9085 42.4881 37.6085 42.4881 37.3085C42.4881 36.5085 42.1881 35.6085 41.3881 34.8085C41.9881 34.1085 43.5881 32.5085 43.7881 32.3085L43.9881 32.2085C44.1881 32.2085 44.388 32.4085 44.688 32.6085C44.988 32.9085 45.488 33.3085 46.188 33.3085C47.088 33.3085 48.0881 32.7085 48.4881 31.7085C48.4881 31.6085 48.7881 30.6085 48.8881 29.8085C49.1881 29.8085 49.4881 29.8085 49.7881 29.7085C50.6881 29.6085 51.888 29.5085 52.188 29.8085C52.488 30.1085 52.5881 30.5085 52.7881 31.0085C53.0881 31.9085 53.4881 33.1085 54.9881 33.2085C55.3881 33.3085 55.6881 33.2085 56.0881 33.0085C56.2881 32.9085 56.488 32.6085 56.688 32.4085C56.988 32.1085 57.0881 31.9085 57.2881 31.9085C58.3881 32.3085 59.6881 33.6085 59.9881 34.8085C59.9881 34.9085 59.7881 35.0085 59.5881 35.3085C59.1881 35.7085 58.6881 36.2085 58.7881 36.9085C58.7881 37.2085 58.8881 37.5085 58.9881 37.7085C58.9881 37.8085 59.0881 37.8085 59.0881 37.9085L59.188 38.1085C59.288 38.4085 59.3881 38.7085 59.5881 38.9085C59.9881 39.4085 60.5881 39.4085 60.9881 39.5085C61.1881 39.5085 61.3881 39.5085 61.5881 39.6085C61.8881 39.7085 62.2881 39.9085 62.2881 40.8085V41.0085C62.5881 42.6085 62.4881 43.2085 62.3881 43.4085Z" fill="#1E1E1E"/>
<path d="M54.2881 36.3085C53.8881 36.0085 53.4881 35.8085 53.0881 35.6085C52.6881 35.4085 52.1881 35.3085 51.7881 35.3085C49.9881 35.1085 47.9881 35.7085 46.5881 37.0085C45.7881 37.7085 45.1881 38.6085 44.8881 39.5085C44.6881 40.1085 44.5881 40.8085 44.5881 41.5085C44.5881 41.9085 44.6881 42.3085 44.7881 42.7085C45.1881 44.7085 46.8881 46.6085 48.8881 47.2085C49.2881 47.3085 49.6881 47.5085 50.0881 47.5085C50.3881 47.5085 50.6881 47.6085 51.0881 47.6085C52.5881 47.6085 53.9881 47.1085 54.9881 46.1085C55.2881 45.9085 55.488 45.6085 55.688 45.3085C55.888 45.0085 55.988 44.8085 56.188 44.5085V44.4085C56.988 42.0085 56.9881 38.5085 54.2881 36.3085ZM53.7881 42.5085C53.6881 43.2085 53.1881 43.9085 52.4881 44.4085C52.2881 44.5085 51.9881 44.7085 51.7881 44.7085C51.4881 44.8085 51.1881 44.8085 50.8881 44.8085C49.2881 44.8085 47.9881 43.6085 47.3881 42.5085C46.7881 41.4085 47.0881 40.1085 47.9881 39.1085C48.7881 38.4085 49.8881 37.9085 50.7881 37.9085C51.5881 37.9085 52.2881 38.2085 52.8881 38.8085C53.4881 39.6085 53.8881 40.4085 53.8881 41.4085C53.8881 41.8085 53.8881 42.2085 53.7881 42.5085Z" fill="#1E1E1E"/>
<path d="M83.7881 49.7085C83.4881 49.2085 82.8881 48.8085 82.2881 48.8085C82.6881 47.5085 81.8881 45.7085 81.1881 44.8085C80.7881 44.3085 79.8881 44.1085 79.3881 44.3085C79.0881 44.4085 78.8881 44.5085 78.6881 44.7085C77.7881 43.7085 76.6881 42.8085 75.7881 42.5085C75.1881 42.3085 74.3881 42.5085 73.9881 43.0085C73.4881 43.5085 73.3881 44.1085 73.2881 44.6085C73.1881 44.6085 72.8881 44.6085 72.4881 44.7085C72.2881 44.7085 72.0881 44.7085 71.8881 44.7085C71.5881 44.5085 71.1881 44.4085 70.7881 44.4085C69.6881 44.5085 68.6881 45.0085 68.2881 46.2085C67.9881 47.4085 68.7881 48.3085 68.7881 49.5085C68.2881 49.5085 67.6881 49.8085 67.3881 50.4085C66.7881 51.4085 66.8881 52.4085 67.5881 53.3085C67.8881 53.8085 68.3881 54.0085 68.6881 54.4085C68.6881 54.5085 68.6881 54.7085 68.6881 54.9085C68.5881 55.3085 68.5881 55.7085 68.6881 56.1085C68.7881 56.7085 68.9881 57.2085 69.3881 57.6085C69.3881 57.8085 69.3881 58.1085 69.3881 58.3085C69.5881 59.6085 71.4881 60.1085 72.4881 59.3085C72.6881 59.6085 72.9881 59.8085 73.2881 60.0085C73.9881 60.5085 75.2881 60.9085 76.1881 60.7085C77.2881 60.5085 77.7881 59.9085 77.8881 59.2085C78.5881 59.3085 79.3881 59.3085 79.9881 58.9085C80.3881 58.7085 80.5881 58.5085 80.7881 58.2085C81.6881 58.3085 82.6881 57.7085 82.7881 56.8085C82.8881 56.4085 82.8881 55.9085 82.8881 55.5085C82.9881 55.5085 82.9881 55.4085 83.0881 55.4085C83.4881 55.2085 83.7881 54.8085 83.9881 54.5085C84.4881 53.6085 84.4881 53.0085 84.2881 52.5085C84.3881 51.8085 84.3881 50.7085 83.7881 49.7085ZM74.5881 55.3085C74.2881 55.1085 73.8881 54.9085 73.4881 54.8085C73.2881 54.3085 72.8881 53.9085 72.4881 53.7085C72.4881 53.5085 72.3881 53.2085 72.2881 53.0085C72.1881 52.6085 71.8881 52.3085 71.5881 52.0085L71.4881 51.9085C71.5881 51.8085 71.6881 51.7085 71.8881 51.6085C72.3881 50.9085 73.0881 50.2085 72.9881 49.3085C72.9881 49.1085 72.8881 48.7085 72.7881 48.5085C73.2881 48.5085 73.9881 48.6085 74.1881 48.6085C74.8881 48.5085 75.6881 48.4085 76.1881 47.9085C76.5881 48.2085 76.8881 48.5085 77.1881 49.0085C77.4881 49.5085 77.7881 49.7085 78.1881 49.9085C78.0881 50.6085 77.9881 51.2085 78.2881 51.7085C78.4881 52.0085 78.7881 52.3085 79.0881 52.6085C79.0881 52.9085 79.0881 53.1085 79.1881 53.3085C78.9881 53.5085 78.7881 53.8085 78.6881 54.0085C78.6881 54.1085 78.5881 54.2085 78.5881 54.3085C78.3881 54.4085 78.1881 54.5085 77.9881 54.6085C77.7881 54.8085 77.5881 55.0085 77.3881 55.2085C77.0881 55.1085 76.6881 55.1085 76.4881 55.1085C75.6881 54.9085 75.0881 55.0085 74.5881 55.3085Z" fill="#59C59F"/>
<path d="M85.5881 50.7085C85.5881 50.3085 85.4881 50.0085 85.4881 49.7085C85.2881 49.1085 84.9881 48.8085 84.5881 48.6085C84.3881 48.5085 84.0881 48.5085 83.8881 48.5085C83.7881 48.5085 83.6881 48.5085 83.5881 48.5085H83.4881C83.3881 48.5085 83.2881 48.4085 83.2881 48.4085C83.2881 48.4085 83.2881 48.3085 83.3881 48.3085C83.3881 48.2085 83.4881 48.2085 83.5881 48.1085C83.6881 48.0085 83.6881 48.0085 83.7881 47.9085C84.2881 47.3085 84.2881 46.4085 84.0881 45.8085C83.7881 45.2085 83.3881 44.7085 82.8881 44.3085C82.3881 43.9085 81.8881 43.5085 81.2881 43.1085C81.0881 43.0085 80.888 42.9085 80.688 42.8085C80.188 42.7085 79.7881 43.1085 79.3881 43.3085C79.2881 43.4085 79.1881 43.5085 79.0881 43.5085L78.9881 43.6085C78.9881 43.5085 78.9881 43.5085 78.9881 43.4085C78.8881 42.9085 78.7881 42.5085 78.5881 42.2085C78.0881 41.5085 77.2881 41.2085 76.2881 41.1085C75.6881 41.1085 75.0881 41.2085 74.4881 41.2085H74.3881C74.1881 41.2085 73.888 41.2085 73.688 41.3085C72.788 41.4085 72.6881 42.3085 72.5881 43.0085C72.5881 43.0085 72.5881 43.0085 72.5881 43.1085C72.5881 43.3085 72.5881 43.5085 72.4881 43.6085V43.7085C72.3881 43.7085 72.1881 43.5085 72.0881 43.4085C71.8881 43.2085 71.7881 43.1085 71.4881 43.0085C71.0881 42.8085 70.4881 42.9085 69.9881 43.2085C69.3881 43.6085 68.988 44.0085 68.688 44.4085C68.588 44.5085 68.4881 44.7085 68.2881 44.8085C67.9881 45.1085 67.6881 45.4085 67.4881 45.8085C67.1881 46.3085 67.0881 47.2085 67.4881 47.8085C67.5881 47.9085 67.588 48.0085 67.688 48.0085C67.788 48.1085 67.8881 48.3085 67.8881 48.4085C67.8881 48.4085 67.7881 48.5085 67.5881 48.5085C67.4881 48.5085 67.3881 48.5085 67.2881 48.5085H67.188C66.988 48.5085 66.788 48.5085 66.688 48.5085C66.288 48.6085 65.888 49.0085 65.688 49.5085C65.588 49.9085 65.5881 50.3085 65.5881 50.7085V52.8085C65.5881 53.2085 65.5881 53.7085 65.8881 54.1085C66.1881 54.5085 66.6881 54.7085 67.0881 54.7085C67.2881 54.7085 67.588 54.7085 67.688 54.7085H67.8881C67.8881 54.8085 67.8881 54.9085 67.7881 55.0085C67.7881 55.1085 67.6881 55.1085 67.5881 55.2085C67.4881 55.3085 67.3881 55.4085 67.3881 55.4085C67.2881 55.5085 67.1881 55.7085 67.0881 55.9085C66.8881 56.5085 67.1881 57.0085 67.4881 57.5085C67.7881 58.0085 68.1881 58.4085 68.4881 58.8085C68.8881 59.3085 69.2881 59.7085 69.8881 60.0085C70.5881 60.3085 71.3881 60.2085 71.8881 59.8085C71.9881 59.7085 71.9881 59.7085 72.0881 59.6085L72.188 59.5085C72.288 59.4085 72.2881 59.4085 72.3881 59.4085C72.3881 59.4085 72.4881 59.5085 72.4881 59.6085V59.7085C72.4881 59.8085 72.4881 59.8085 72.4881 59.9085C72.4881 60.2085 72.488 60.5085 72.688 60.8085C73.088 61.4085 73.7881 61.4085 74.0881 61.4085L76.7881 61.5085C76.8881 61.5085 76.9881 61.5085 76.9881 61.5085C77.6881 61.5085 78.0881 61.3085 78.3881 60.9085C78.5881 60.6085 78.5881 60.2085 78.5881 59.9085V59.7085C78.5881 59.6085 78.5881 59.5085 78.5881 59.4085C78.5881 59.3085 78.688 59.3085 78.688 59.2085C78.688 59.2085 78.7881 59.2085 78.8881 59.3085C78.9881 59.4085 79.088 59.4085 79.188 59.5085C79.488 59.7085 79.7881 60.0085 80.2881 60.0085C80.4881 60.0085 80.6881 59.9085 80.8881 59.8085C81.7881 59.2085 82.5881 58.5085 83.3881 57.8085C84.3881 56.8085 84.2881 56.1085 84.0881 55.7085C83.9881 55.5085 83.7881 55.3085 83.5881 55.1085C83.4881 55.0085 83.3881 54.9085 83.2881 54.8085C83.2881 54.8085 83.1881 54.7085 83.2881 54.7085L83.3881 54.6085C83.4881 54.6085 83.4881 54.6085 83.5881 54.5085C83.6881 54.5085 83.7881 54.5085 83.7881 54.5085C83.9881 54.5085 84.2881 54.5085 84.4881 54.4085C84.9881 54.2085 85.2881 53.6085 85.3881 52.8085C85.5881 52.3085 85.5881 51.5085 85.5881 50.7085ZM81.9881 53.6085C81.6881 53.9085 81.1881 54.5085 81.2881 55.2085C81.3881 55.6085 81.5881 55.9085 81.7881 56.1085C81.9881 56.4085 82.0881 56.5085 82.0881 56.7085C82.0881 56.8085 81.9881 56.9085 81.7881 57.1085C81.5881 57.3085 81.388 57.4085 81.188 57.6085C80.888 57.8085 80.5881 58.0085 80.2881 58.3085C79.8881 58.0085 79.1881 57.6085 78.8881 57.6085C78.5881 57.6085 78.388 57.7085 78.188 57.8085L77.9881 57.9085C77.6881 58.0085 76.9881 58.3085 76.9881 59.1085C76.9881 59.2085 76.9881 59.3085 76.9881 59.5085C76.9881 59.6085 76.9881 59.7085 76.9881 59.8085C76.9881 59.9085 76.9881 59.9085 76.9881 59.9085C76.9881 59.9085 76.888 59.9085 76.688 59.9085C75.888 59.9085 75.0881 59.8085 74.3881 59.8085C74.3881 58.9085 73.7881 58.1085 72.9881 57.7085C72.5881 57.5085 72.2881 57.5085 71.9881 57.6085C71.6881 57.7085 71.4881 57.9085 71.2881 58.2085C71.1881 58.3085 70.9881 58.5085 70.8881 58.5085H70.7881C70.0881 58.1085 69.4881 57.6085 69.0881 56.9085C68.9881 56.8085 68.9881 56.7085 68.9881 56.6085C68.9881 56.5085 69.0881 56.4085 69.2881 56.2085C69.3881 56.1085 69.4881 56.0085 69.4881 56.0085C69.9881 55.4085 69.788 55.0085 69.688 54.5085V54.4085C69.588 54.2085 69.5881 54.0085 69.4881 53.9085C69.2881 53.6085 68.8881 53.4085 68.4881 53.3085C68.3881 53.3085 68.388 53.3085 68.188 53.3085C67.988 53.3085 67.788 53.3085 67.688 53.2085C67.588 53.1085 67.4881 53.0085 67.3881 52.8085C67.1881 52.1085 67.2881 51.1085 67.5881 50.5085C67.6881 50.4085 67.8881 50.3085 68.2881 50.3085C68.7881 50.3085 69.5881 50.2085 69.7881 49.4085C69.8881 49.2085 69.8881 49.0085 69.8881 48.8085C69.8881 48.2085 69.6881 47.6085 69.0881 47.0085C69.4881 46.5085 70.5881 45.4085 70.7881 45.3085C70.7881 45.3085 70.8881 45.2085 70.9881 45.2085C71.1881 45.2085 71.2881 45.3085 71.4881 45.5085C71.6881 45.7085 72.0881 46.0085 72.5881 46.0085C73.2881 46.0085 73.888 45.6085 74.188 44.9085C74.188 44.8085 74.3881 44.1085 74.4881 43.6085C74.6881 43.6085 74.888 43.6085 75.188 43.5085C75.888 43.4085 76.6881 43.4085 76.8881 43.6085C77.0881 43.8085 77.1881 44.1085 77.2881 44.5085C77.4881 45.2085 77.7881 46.0085 78.8881 46.0085C79.1881 46.0085 79.388 46.0085 79.688 45.9085C79.888 45.8085 79.988 45.6085 80.188 45.5085C80.388 45.3085 80.4881 45.2085 80.5881 45.1085C81.3881 45.4085 82.2881 46.3085 82.4881 47.1085C82.4881 47.1085 82.3881 47.3085 82.188 47.5085C81.8881 47.8085 81.5881 48.1085 81.5881 48.6085C81.5881 48.8085 81.6881 49.0085 81.7881 49.1085C81.7881 49.2085 81.7881 49.2085 81.8881 49.2085V49.3085C81.9881 49.5085 81.988 49.7085 82.188 49.9085C82.488 50.2085 82.8881 50.3085 83.188 50.3085C83.288 50.3085 83.4881 50.3085 83.5881 50.4085C83.7881 50.5085 84.0881 50.6085 84.0881 51.3085V51.5085C84.1881 52.7085 84.0881 53.1085 84.0881 53.2085H83.9881C83.0881 52.9085 82.4881 53.2085 81.9881 53.6085Z" fill="#1E1E1E"/>
<path d="M78.0881 48.0085C77.7881 47.8085 77.488 47.6085 77.188 47.5085C76.888 47.4085 76.5881 47.3085 76.2881 47.3085C74.9881 47.1085 73.5881 47.6085 72.5881 48.5085C71.6881 49.3085 71.088 50.5085 71.188 51.7085C71.188 52.0085 71.2881 52.3085 71.2881 52.6085C71.5881 54.0085 72.788 55.3085 74.188 55.8085C74.488 55.9085 74.7881 56.0085 75.0881 56.0085C75.2881 56.0085 75.5881 56.1085 75.7881 56.1085C76.7881 56.1085 77.7881 55.7085 78.5881 55.1085C78.7881 54.9085 78.9881 54.7085 79.0881 54.5085C79.1881 54.3085 79.3881 54.1085 79.4881 53.8085C79.9881 52.1085 79.9881 49.6085 78.0881 48.0085ZM77.5881 50.8085C77.6881 51.1085 77.6881 51.3085 77.7881 51.6085C77.7881 51.8085 77.788 52.1085 77.688 52.3085C77.688 52.8085 77.2881 53.3085 76.7881 53.6085C76.5881 53.7085 76.4881 53.8085 76.2881 53.8085C76.0881 53.9085 75.888 53.9085 75.688 53.9085C74.588 53.9085 73.588 53.1085 73.188 52.3085C72.788 51.5085 72.9881 50.6085 73.5881 49.9085C74.1881 49.4085 74.8881 49.1085 75.5881 49.1085C76.1881 49.1085 76.6881 49.3085 77.0881 49.7085C77.2881 49.9085 77.3881 50.1085 77.4881 50.3085C77.4881 50.6085 77.4881 50.7085 77.5881 50.8085Z" fill="#1E1E1E"/>
<path d="M0.407776 4.80849C0.607776 3.40849 0.907788 2.00849 2.10779 1.20849C2.80779 0.708494 3.50777 0.608495 4.30777 0.508494C5.10777 0.408495 5.80779 0.408494 6.60779 0.308494C8.20779 0.208494 9.80778 0.108494 11.4078 0.00849447C12.2078 -0.0915055 12.9078 0.708494 12.9078 1.50849C12.9078 2.40849 12.2078 2.90849 11.4078 3.00849C10.0078 3.10849 8.70777 3.20849 7.30777 3.30849C6.60777 3.40849 5.90776 3.40849 5.20776 3.50849C4.90776 3.50849 4.60777 3.50849 4.30777 3.60849H4.20776H4.10779C4.00779 3.60849 4.00778 3.60849 4.00778 3.60849C4.00778 3.60849 4.00778 3.60849 3.90778 3.70849C3.80778 3.80849 3.80777 3.90849 3.80777 4.00849C3.80777 4.00849 3.80777 4.00849 3.80777 4.10849C3.70777 4.30849 3.70779 4.50849 3.60779 4.80849C3.60779 4.90849 3.60778 5.00849 3.50778 5.10849C3.50778 5.10849 3.50778 5.20849 3.50778 5.30849C3.30778 6.70849 3.20778 8.10849 3.00778 9.50849C2.90778 10.3085 2.40778 11.0085 1.50778 11.0085C0.807782 11.0085 -0.0922184 10.3085 0.00778198 9.50849C0.107782 7.80849 0.207776 6.30849 0.407776 4.80849Z" fill="#F7C300"/>
<path d="M103.875 2.40851C95.0751 2.40851 86.1751 2.40851 77.3751 2.50851C72.8751 2.50851 72.8751 9.50851 77.3751 9.50851C86.1751 9.50851 95.0751 9.50851 103.875 9.40851C108.475 9.40851 108.475 2.40851 103.875 2.40851Z" fill="#F7C300"/>
<path d="M29.1881 11.6085C27.2881 11.6085 27.2881 14.6085 29.1881 14.6085C31.0881 14.6085 31.0881 11.6085 29.1881 11.6085Z" fill="#1E1E1E"/>
<path d="M24.6881 11.4085C22.7881 11.4085 22.7881 14.4085 24.6881 14.4085C26.6881 14.4085 26.6881 11.4085 24.6881 11.4085Z" fill="#1E1E1E"/>
<path d="M118.088 78.0085C117.388 76.1085 115.588 75.2085 113.788 74.5085C114.488 57.0085 114.588 39.5085 113.788 22.0085C113.588 16.9085 113.288 11.7085 112.888 6.60848C112.788 5.50848 111.788 5.00848 110.888 5.20848C83.9881 4.50848 57.0881 4.20848 30.188 4.50848C22.588 4.60848 14.8881 4.70848 7.28806 4.90848C6.88806 4.90848 6.68806 5.00848 6.38806 5.20848C5.68806 5.20848 4.98807 5.70848 5.08807 6.60848C5.58807 24.5085 5.58807 42.4085 5.08807 60.3085C4.98807 64.7085 4.78807 69.2085 4.58807 73.6085C2.18807 75.0085 2.68806 78.8085 4.88806 80.4085C6.38806 81.5085 8.38805 81.7085 10.188 81.9085C12.388 82.1085 14.5881 82.2085 16.8881 82.2085C26.2881 82.2085 35.6881 82.0085 45.0881 82.1085C63.9881 82.2085 82.8881 82.8085 101.788 83.6085C104.288 83.7085 106.788 83.8085 109.188 83.7085C111.388 83.6085 113.988 83.7085 115.988 82.8085C118.088 81.9085 118.788 79.9085 118.088 78.0085ZM8.48807 21.9085C8.38807 17.2085 8.28805 12.6085 8.18805 7.90848C34.788 7.40848 61.4881 7.30848 88.0881 7.70848C95.3881 7.80848 102.688 8.00848 109.988 8.20848C111.088 25.7085 111.488 43.2085 111.188 60.7085C111.088 65.3085 110.888 69.9085 110.788 74.6085C97.7881 74.4085 84.8881 74.2085 71.8881 74.1085H71.7881C71.1881 74.2085 70.6881 74.6085 70.3881 75.2085C70.2881 75.4085 70.288 75.6085 70.188 75.7085C69.888 75.7085 69.4881 75.7085 69.188 75.7085C68.288 75.7085 67.3881 75.7085 66.4881 75.6085C64.7881 75.5085 63.0881 75.4085 61.2881 75.3085C59.5881 75.2085 57.8881 75.1085 56.0881 75.1085C55.1881 75.1085 54.2881 75.1085 53.3881 75.1085C52.9881 75.1085 52.288 75.2085 51.688 75.3085C51.688 75.2085 51.688 75.1085 51.688 75.0085C51.688 73.9085 50.6881 73.4085 49.7881 73.6085C49.5881 73.6085 49.2881 73.7085 49.0881 73.7085C42.9881 73.6085 36.8881 73.5085 30.8881 73.4085C23.2881 73.3085 15.5881 73.2085 7.98807 73.1085C7.88807 73.1085 7.68807 73.1085 7.58807 73.1085C8.48807 56.2085 8.68807 39.0085 8.48807 21.9085ZM115.288 79.7085C114.988 80.3085 113.888 80.3085 113.388 80.3085C112.288 80.4085 111.188 80.5085 110.088 80.6085C106.188 80.8085 102.388 80.6085 98.4881 80.4085C90.4881 80.0085 82.5881 79.7085 74.5881 79.5085C58.6881 79.1085 42.6881 78.9085 26.7881 79.0085C22.3881 79.0085 17.988 79.2085 13.688 79.1085C11.688 79.0085 9.48805 79.1085 7.68805 78.4085C7.08805 78.2085 6.28805 77.8085 6.18805 77.1085V77.0085C6.78805 77.0085 7.38807 76.7085 7.58807 76.1085C7.78807 76.2085 7.98805 76.2085 8.18805 76.2085C21.788 76.4085 35.4881 76.6085 49.0881 76.7085C49.2881 77.2085 49.4881 77.7085 49.9881 78.0085C50.9881 78.6085 52.2881 78.2085 53.3881 78.2085C56.0881 78.1085 58.7881 78.2085 61.4881 78.4085C64.0881 78.6085 66.6881 78.7085 69.3881 78.8085C70.3881 78.8085 71.788 79.0085 72.688 78.5085C73.0881 78.2085 73.3881 77.9085 73.4881 77.4085C73.4881 77.3085 73.4881 77.2085 73.4881 77.1085C78.7881 77.2085 84.0881 77.2085 89.4881 77.3085C97.0881 77.4085 104.788 77.5085 112.388 77.6085C112.688 77.6085 112.988 77.5085 113.188 77.4085C114.088 77.8085 115.888 78.6085 115.288 79.7085Z" fill="#1E1E1E"/>
<path d="M61.688 10.4085C61.488 10.4085 61.2881 10.3085 61.0881 10.3085C60.7881 10.3085 60.588 10.4085 60.288 10.5085H60.188C59.888 10.6085 59.6881 10.7085 59.4881 10.9085C59.2881 11.1085 59.1881 11.3085 59.0881 11.6085C58.9881 12.0085 58.9881 12.4085 59.0881 12.8085C59.1881 13.1085 59.2881 13.3085 59.4881 13.5085C59.5881 13.6085 59.7881 13.8085 59.9881 13.9085C60.1881 14.0085 60.3881 14.1085 60.5881 14.1085C60.7881 14.1085 60.988 14.2085 61.288 14.2085C61.488 14.2085 61.688 14.2085 61.888 14.1085C62.188 14.0085 62.388 13.9085 62.688 13.6085C63.088 13.3085 63.288 12.7085 63.288 12.3085C63.188 11.4085 62.488 10.6085 61.688 10.4085Z" fill="#1E1E1E"/>
<path d="M19.7881 11.6085C17.8881 11.6085 17.8881 14.6085 19.7881 14.6085C21.6881 14.6085 21.6881 11.6085 19.7881 11.6085Z" fill="#1E1E1E"/>
<path d="M15.2881 12.9085C15.3881 10.9085 12.3881 10.9085 12.2881 12.9085C11.7881 31.2085 11.8881 49.5085 12.7881 67.8085C12.8881 69.8085 15.8881 69.8085 15.7881 67.8085C14.8881 49.5085 14.6881 31.2085 15.2881 12.9085Z" fill="#1E1E1E"/>
<path d="M105.888 17.2085C105.788 15.3085 102.788 15.3085 102.888 17.2085C103.688 34.6085 103.988 52.0085 103.688 69.4085C103.688 71.3085 106.688 71.3085 106.688 69.4085C107.088 52.1085 106.788 34.6085 105.888 17.2085Z" fill="#1E1E1E"/>
<path d="M107.788 42.0085C107.588 41.6085 107.288 41.2085 106.888 41.0085C106.588 40.9085 106.288 40.8085 105.988 40.8085C105.588 40.4085 105.088 40.3085 104.588 40.4085C103.388 40.8085 102.388 41.9085 102.088 43.1085C101.788 44.4085 101.988 46.0085 103.188 46.7085C103.588 46.9085 103.988 47.0085 104.388 47.0085C104.888 47.0085 105.288 46.8085 105.688 46.6085C106.188 46.4085 106.688 46.1085 106.988 45.6085C107.388 45.1085 107.688 44.5085 107.788 43.9085C107.988 43.2085 107.988 42.6085 107.788 42.0085Z" fill="#F7C300"/>
<path d="M108.788 42.2085C108.488 41.2085 107.988 40.4085 107.088 39.9085C106.488 39.5085 105.688 39.3085 104.888 39.1085C104.388 39.0085 103.788 39.1085 103.388 39.5085C103.288 39.5085 103.188 39.6085 103.088 39.6085C101.488 40.3085 100.888 42.2085 100.788 43.8085C100.688 44.6085 100.888 45.5085 101.288 46.1085C101.788 46.8085 102.588 47.3085 103.388 47.5085C104.888 47.9085 106.688 47.6085 107.688 46.4085C108.888 45.4085 109.188 43.7085 108.788 42.2085ZM104.088 45.9085C103.888 45.9085 103.688 45.8085 103.588 45.8085C103.488 45.8085 103.488 45.8085 103.388 45.7085C103.088 45.5085 102.888 45.1085 102.788 44.7085C102.788 44.4085 102.788 44.2085 102.788 43.9085C102.788 43.8085 102.788 43.7085 102.788 43.6085C102.888 43.0085 102.988 42.5085 103.188 42.0085C103.188 41.9085 103.288 41.9085 103.288 41.8085C103.488 41.7085 103.588 41.5085 103.788 41.4085C104.588 41.0085 105.488 41.1085 106.088 41.7085C106.388 42.0085 106.588 42.5085 106.688 42.9085C106.788 43.4085 106.688 43.8085 106.588 44.3085C106.488 44.7085 106.288 45.0085 105.888 45.3085C105.588 45.6085 105.088 45.7085 104.688 45.8085H104.588C104.588 46.0085 104.388 46.0085 104.088 45.9085Z" fill="#1E1E1E"/>
</svg>
