<svg width="116" height="84" viewBox="0 0 116 84" fill="none" xmlns="http://www.w3.org/2000/svg">
<path d="M57.3879 48.8085C56.8879 48.1085 56.3879 46.6085 55.2879 46.7085C54.6879 46.7085 54.3879 47.1085 53.9879 47.5085C53.8879 47.6085 53.8879 47.6085 53.7879 47.7085C53.4879 47.1085 53.2879 46.6085 52.9879 46.0085C52.6879 45.4085 51.6879 45.3085 51.2879 45.8085C50.9879 46.2085 50.6879 46.6085 50.3879 47.0085L50.2879 46.9085C49.9879 46.5085 49.7879 46.1085 49.2879 46.0085C48.4879 45.8085 47.9879 46.4085 47.4879 47.0085C47.3879 46.8085 47.3879 46.6085 47.2879 46.5085C46.9879 46.0085 46.4879 45.6085 45.7879 45.7085C44.9879 45.8085 44.4879 46.5085 43.9879 47.0085C43.6879 46.5085 43.4879 45.9085 43.2879 45.4085C42.9879 44.6085 41.7879 44.3085 41.2879 45.1085C40.6879 46.1085 40.1879 47.2085 39.5879 48.2085C38.8879 49.4085 40.7879 50.5085 41.4879 49.3085C41.6879 48.9085 41.8879 48.5085 42.1879 48.1085C42.3879 48.5085 42.5879 48.8085 42.7879 49.2085C43.0879 49.7085 43.7879 49.9085 44.2879 49.6085C44.7879 49.4085 45.1879 49.0085 45.5879 48.6085C45.6879 48.5085 45.7879 48.4085 45.8879 48.3085C45.8879 48.4085 45.9879 48.5085 45.9879 48.6085C46.2879 49.0085 46.5879 49.5085 47.0879 49.6085C47.9879 49.9085 48.4879 49.2085 48.9879 48.6085C49.2879 48.9085 49.4879 49.2085 49.8879 49.4085C50.4879 49.9085 51.1879 49.8085 51.5879 49.2085C51.6879 49.0085 51.7879 48.9085 51.9879 48.7085C52.1879 49.2085 52.4879 49.7085 52.6879 50.2085C52.9879 50.8085 53.9879 50.9085 54.3879 50.4085C54.6879 50.1085 54.9879 49.7085 55.2879 49.4085C55.3879 49.6085 55.4879 49.7085 55.5879 49.9085C56.2879 51.1085 58.1879 50.0085 57.3879 48.8085Z" fill="#59C59F"/>
<path d="M114.288 4.80849C114.088 3.40849 113.788 2.00849 112.588 1.20849C111.888 0.708494 111.188 0.608495 110.388 0.508494C109.588 0.408495 108.888 0.408494 108.088 0.308494C106.488 0.208494 104.888 0.108494 103.288 0.00849447C102.488 -0.0915055 101.788 0.708494 101.788 1.50849C101.788 2.40849 102.488 2.90849 103.288 3.00849C104.688 3.10849 105.988 3.20849 107.388 3.30849C108.088 3.40849 108.788 3.40849 109.488 3.50849C109.788 3.50849 110.088 3.50849 110.388 3.60849H110.488H110.588C110.688 3.60849 110.688 3.60849 110.688 3.60849C110.688 3.60849 110.688 3.60849 110.788 3.70849C110.888 3.80849 110.888 3.90849 110.888 4.00849C110.888 4.00849 110.888 4.00849 110.888 4.10849C110.988 4.30849 110.988 4.50849 111.088 4.80849C111.088 4.90849 111.088 5.00849 111.188 5.10849C111.188 5.10849 111.188 5.20849 111.188 5.30849C111.388 6.70849 111.488 8.10849 111.688 9.50849C111.788 10.3085 112.288 11.0085 113.188 11.0085C113.888 11.0085 114.788 10.3085 114.688 9.50849C114.588 7.80849 114.388 6.30849 114.288 4.80849Z" fill="#F7C300"/>
<path d="M38.788 2.40851C29.988 2.40851 21.088 2.40851 12.288 2.50851C7.78796 2.50851 7.78796 9.50851 12.288 9.50851C21.088 9.50851 29.988 9.50851 38.788 9.40851C43.288 9.40851 43.288 2.40851 38.788 2.40851Z" fill="#F7C300"/>
<path d="M26.088 11.6085C24.188 11.6085 24.188 14.6085 26.088 14.6085C27.988 14.6085 27.988 11.6085 26.088 11.6085Z" fill="#1E1E1E"/>
<path d="M21.588 11.4085C19.688 11.4085 19.688 14.4085 21.588 14.4085C23.488 14.4085 23.588 11.4085 21.588 11.4085Z" fill="#1E1E1E"/>
<path d="M80.288 41.5085C78.388 41.3085 76.388 41.6085 74.488 41.6085C72.488 41.6085 70.488 41.6085 68.588 41.6085C59.288 41.6085 50.088 41.3085 40.888 40.7085C40.588 40.7085 40.288 40.8085 40.088 40.9085C39.088 40.4085 37.888 40.6085 36.888 41.2085C35.488 42.1085 34.888 43.6085 34.888 45.2085C34.788 47.0085 35.188 48.8085 35.288 50.6085C35.488 52.4085 35.688 53.8085 37.788 54.0085C45.788 54.8085 53.988 54.9085 62.088 55.0085C63.288 55.0085 64.488 55.0085 65.788 55.0085H65.888C65.988 55.0085 66.088 54.9085 66.188 54.9085C66.288 54.9085 66.288 54.9085 66.188 54.9085C66.188 54.9085 66.288 54.9085 66.288 54.8085C66.288 54.8085 66.288 54.8085 66.288 54.7085C66.288 54.6085 66.388 54.6085 66.388 54.5085C66.288 54.7085 66.388 54.4085 66.388 54.4085C66.388 54.3085 66.488 54.1085 66.488 54.0085C66.488 54.0085 66.488 53.7085 66.488 53.9085C66.488 53.8085 66.488 53.8085 66.488 53.7085C66.488 53.6085 66.488 53.4085 66.488 53.3085V53.2085C66.488 53.1085 66.488 53.0085 66.388 52.9085V52.8085L66.288 52.7085L66.188 52.6085L66.088 52.5085L65.988 52.4085C65.888 52.4085 65.888 52.3085 65.788 52.3085C65.788 52.3085 65.788 52.3085 65.688 52.3085C65.688 52.3085 65.688 52.3085 65.588 52.3085C65.488 52.3085 65.488 52.3085 65.388 52.2085C65.288 52.2085 65.188 52.1085 64.988 52.1085C59.288 52.1085 53.488 52.0085 47.788 51.7085C45.988 51.6085 44.188 51.5085 42.288 51.4085C41.288 51.3085 40.288 51.3085 39.288 51.2085C38.988 51.2085 38.588 51.2085 38.288 51.1085C38.188 51.1085 38.088 51.1085 37.888 51.1085C37.788 49.9085 37.388 46.9085 37.388 46.5085C37.388 46.0085 37.288 43.0085 38.488 43.9085C39.088 44.3085 39.688 44.2085 40.088 43.8085C40.188 43.8085 40.188 43.8085 40.288 43.8085C46.888 44.2085 53.488 44.5085 60.088 44.6085C63.388 44.7085 66.688 44.7085 69.988 44.7085C71.488 44.7085 72.988 44.7085 74.488 44.7085C75.288 44.7085 76.188 44.7085 76.988 44.7085C77.388 44.7085 77.788 44.7085 78.188 44.7085C78.388 44.7085 78.688 44.7085 78.888 44.7085C78.988 44.7085 78.988 44.7085 79.088 44.7085C79.088 45.0085 79.088 45.3085 79.088 45.7085C79.088 45.8085 79.088 45.8085 79.188 45.9085C79.188 46.0085 79.288 46.1085 79.388 46.2085C79.388 46.3085 79.488 46.3085 79.488 46.3085C79.688 46.5085 79.788 46.6085 79.988 46.8085L80.088 46.9085C80.188 47.0085 80.288 47.0085 80.388 47.1085C80.488 47.2085 80.588 47.2085 80.788 47.3085C80.788 47.3085 80.888 47.3085 80.888 47.4085C80.988 47.4085 81.188 47.5085 81.288 47.5085H81.388C81.488 47.5085 81.488 47.5085 81.588 47.4085C81.688 47.3085 81.788 47.3085 81.888 47.2085C81.888 46.5085 81.988 45.8085 81.988 45.1085C82.588 43.3085 82.288 41.7085 80.288 41.5085Z" fill="#1E1E1E"/>
<path d="M114.988 78.0085C114.288 76.1085 112.488 75.2085 110.688 74.5085C111.388 57.0085 111.488 39.5085 110.688 22.0085C110.488 16.9085 110.188 11.7085 109.788 6.60847C109.688 5.50847 108.688 5.00848 107.788 5.20848C80.9879 4.60848 54.0879 4.30848 27.1879 4.60848C19.5879 4.70848 11.8879 4.80848 4.28795 5.00848C3.88795 5.00848 3.68795 5.10848 3.38795 5.30848C2.68795 5.30848 1.98795 5.80848 2.08795 6.70848C2.58795 24.6085 2.58795 42.5085 2.08795 60.4085C1.98795 64.8085 1.78795 69.3085 1.58795 73.7085C-0.812054 75.1085 -0.312054 78.9085 1.88795 80.5085C3.38795 81.6085 5.38795 81.8085 7.18795 82.0085C9.38795 82.2085 11.5879 82.3085 13.8879 82.3085C23.2879 82.3085 32.688 82.1085 42.0879 82.2085C60.9879 82.3085 79.8879 82.9085 98.7879 83.7085C101.288 83.8085 103.788 83.9085 106.188 83.8085C108.388 83.7085 110.988 83.8085 112.988 82.9085C114.888 81.9085 115.588 79.9085 114.988 78.0085ZM5.38795 21.9085C5.28795 17.2085 5.18795 12.6085 5.08795 7.90848C31.6879 7.40848 58.3879 7.30848 84.9879 7.70848C92.2879 7.80848 99.5879 8.00848 106.888 8.20848C107.988 25.7085 108.388 43.2085 108.088 60.7085C107.988 65.3085 107.788 69.9085 107.688 74.6085C94.6879 74.4085 81.7879 74.2085 68.7879 74.1085H68.6879C68.0879 74.2085 67.5879 74.6085 67.2879 75.2085C67.1879 75.4085 67.1879 75.6085 67.0879 75.7085C66.7879 75.7085 66.3879 75.7085 66.0879 75.7085C65.1879 75.7085 64.2879 75.7085 63.3879 75.6085C61.6879 75.5085 59.9879 75.4085 58.1879 75.3085C56.4879 75.2085 54.7879 75.1085 52.9879 75.1085C52.0879 75.1085 51.188 75.1085 50.2879 75.1085C49.8879 75.1085 49.1879 75.2085 48.5879 75.3085C48.5879 75.2085 48.5879 75.1085 48.5879 75.0085C48.5879 73.9085 47.5879 73.4085 46.6879 73.6085C46.4879 73.6085 46.188 73.7085 45.9879 73.7085C39.888 73.6085 33.7879 73.5085 27.7879 73.4085C20.1879 73.3085 12.4879 73.2085 4.88795 73.1085C4.78795 73.1085 4.58795 73.1085 4.48795 73.1085C5.28795 56.2085 5.58795 39.0085 5.38795 21.9085ZM112.188 79.7085C111.888 80.3085 110.788 80.3085 110.288 80.3085C109.188 80.4085 108.088 80.5085 106.988 80.6085C103.088 80.8085 99.2879 80.6085 95.3879 80.4085C87.3879 80.0085 79.4879 79.7085 71.4879 79.5085C55.5879 79.1085 39.5879 78.9085 23.6879 79.0085C19.2879 79.0085 14.8879 79.2085 10.5879 79.1085C8.58795 79.0085 6.38795 79.1085 4.58795 78.4085C3.98795 78.2085 3.18795 77.8085 3.08795 77.1085V77.0085C3.68795 77.0085 4.28795 76.7085 4.48795 76.1085C4.68795 76.2085 4.88795 76.2085 5.08795 76.2085C18.6879 76.4085 32.3879 76.6085 45.9879 76.7085C46.188 77.2085 46.3879 77.7085 46.8879 78.0085C47.8879 78.6085 49.188 78.2085 50.2879 78.2085C52.9879 78.1085 55.6879 78.2085 58.3879 78.4085C60.9879 78.6085 63.5879 78.7085 66.2879 78.8085C67.2879 78.8085 68.6879 79.0085 69.5879 78.5085C69.9879 78.2085 70.2879 77.9085 70.3879 77.4085C70.3879 77.3085 70.3879 77.2085 70.3879 77.1085C75.688 77.2085 80.9879 77.2085 86.3879 77.3085C93.9879 77.4085 101.688 77.5085 109.288 77.6085C109.588 77.6085 109.888 77.5085 110.088 77.4085C110.988 77.8085 112.788 78.6085 112.188 79.7085Z" fill="#1E1E1E"/>
<path d="M58.588 10.4085C58.388 10.4085 58.188 10.3085 57.988 10.3085C57.688 10.3085 57.488 10.4085 57.188 10.5085H57.088C56.788 10.6085 56.588 10.7085 56.388 10.9085C56.188 11.1085 56.088 11.3085 55.988 11.6085C55.888 12.0085 55.888 12.4085 55.988 12.8085C56.088 13.1085 56.188 13.3085 56.388 13.5085C56.488 13.6085 56.688 13.8085 56.888 13.9085C57.088 14.0085 57.288 14.1085 57.488 14.1085C57.688 14.1085 57.888 14.2085 58.188 14.2085C58.388 14.2085 58.588 14.2085 58.788 14.1085C59.088 14.0085 59.288 13.9085 59.588 13.6085C59.988 13.3085 60.188 12.7085 60.188 12.3085C59.988 11.4085 59.388 10.6085 58.588 10.4085Z" fill="#1E1E1E"/>
<path d="M16.6879 11.6085C14.7879 11.6085 14.7879 14.6085 16.6879 14.6085C18.5879 14.6085 18.5879 11.6085 16.6879 11.6085Z" fill="#1E1E1E"/>
<path d="M12.1879 12.9085C12.2879 10.9085 9.28794 10.9085 9.18794 12.9085C8.58794 31.2085 8.78794 49.5085 9.68794 67.8085C9.78794 69.8085 12.7879 69.8085 12.6879 67.8085C11.7879 49.5085 11.5879 31.2085 12.1879 12.9085Z" fill="#1E1E1E"/>
<path d="M102.788 17.2085C102.688 15.3085 99.688 15.3085 99.788 17.2085C100.588 34.6085 100.888 52.0085 100.588 69.4085C100.588 71.3085 103.588 71.3085 103.588 69.4085C103.988 52.1085 103.688 34.6085 102.788 17.2085Z" fill="#1E1E1E"/>
<path d="M104.588 42.0085C104.388 41.6085 104.088 41.2085 103.688 41.0085C103.388 40.9085 103.088 40.8085 102.788 40.8085C102.388 40.4085 101.888 40.3085 101.388 40.4085C100.188 40.8085 99.188 41.9085 98.888 43.1085C98.588 44.4085 98.788 46.0085 99.988 46.7085C100.388 46.9085 100.788 47.0085 101.188 47.0085C101.688 47.0085 102.088 46.8085 102.488 46.6085C102.988 46.4085 103.488 46.1085 103.788 45.6085C104.188 45.1085 104.488 44.5085 104.588 43.9085C104.888 43.2085 104.888 42.6085 104.588 42.0085Z" fill="#F7C300"/>
<path d="M105.688 42.2085C105.388 41.2085 104.888 40.4085 103.988 39.9085C103.388 39.5085 102.588 39.3085 101.788 39.1085C101.288 39.0085 100.688 39.1085 100.288 39.5085C100.188 39.5085 100.088 39.6085 99.988 39.6085C98.388 40.3085 97.788 42.2085 97.688 43.8085C97.588 44.6085 97.788 45.5085 98.188 46.1085C98.688 46.8085 99.488 47.3085 100.288 47.5085C101.788 47.9085 103.588 47.6085 104.588 46.4085C105.788 45.4085 106.088 43.7085 105.688 42.2085ZM100.988 45.9085C100.788 45.9085 100.588 45.8085 100.488 45.8085C100.388 45.8085 100.388 45.8085 100.288 45.7085C99.988 45.5085 99.788 45.1085 99.688 44.7085C99.688 44.4085 99.688 44.2085 99.688 43.9085C99.688 43.8085 99.688 43.7085 99.688 43.6085C99.788 43.0085 99.888 42.5085 100.088 42.0085C100.088 41.9085 100.188 41.9085 100.188 41.8085C100.388 41.7085 100.488 41.5085 100.688 41.4085C101.488 41.0085 102.388 41.1085 102.988 41.7085C103.288 42.0085 103.488 42.5085 103.588 42.9085C103.688 43.4085 103.588 43.8085 103.488 44.3085C103.388 44.7085 103.188 45.0085 102.788 45.3085C102.488 45.6085 101.988 45.7085 101.588 45.8085H101.488C101.488 46.0085 101.188 46.0085 100.988 45.9085Z" fill="#1E1E1E"/>
<path d="M74.7879 32.0085C74.4879 31.7085 73.9879 31.7085 73.6879 32.0085L73.5879 32.1085C73.5879 32.1085 73.4879 32.2085 73.3879 32.2085C73.3879 32.2085 73.4879 32.2085 73.3879 32.2085H73.2879H73.1879C73.0879 32.2085 72.9879 32.2085 72.9879 32.2085H72.8879C72.7879 32.2085 72.6879 32.2085 72.6879 32.1085H72.5879C72.4879 32.1085 72.4879 32.0085 72.3879 32.0085L72.2879 31.9085C72.1879 31.8085 72.0879 31.7085 71.9879 31.6085C72.4879 31.6085 72.9879 31.5085 73.3879 31.4085C73.6879 31.3085 73.9879 31.3085 74.2879 31.1085C74.6879 30.9085 74.8879 30.4085 74.8879 30.0085C74.9879 29.3085 74.4879 28.6085 73.8879 28.3085C73.3879 28.0085 72.6879 27.8085 71.9879 27.8085C71.3879 27.8085 70.6879 28.0085 70.2879 28.5085C69.7879 29.1085 69.6879 29.8085 69.7879 30.5085C69.9879 31.6085 70.5879 32.7085 71.5879 33.3085C72.6879 34.0085 74.1879 34.0085 75.0879 33.1085C75.0879 32.8085 75.0879 32.3085 74.7879 32.0085ZM70.9879 29.7085C70.9879 29.7085 71.0879 29.7085 70.9879 29.7085C71.0879 29.7085 71.0879 29.7085 70.9879 29.7085C71.0879 29.7085 71.0879 29.7085 70.9879 29.7085C71.0879 29.7085 71.0879 29.7085 70.9879 29.7085C71.0879 29.7085 71.0879 29.7085 70.9879 29.7085C71.0879 29.6085 71.0879 29.6085 71.0879 29.6085C71.0879 29.6085 71.1879 29.6085 71.1879 29.5085C71.1879 29.5085 71.2879 29.5085 71.2879 29.4085C71.1879 29.5085 71.2879 29.4085 71.2879 29.4085C71.2879 29.4085 71.3879 29.4085 71.4879 29.4085C71.5879 29.4085 71.6879 29.4085 71.7879 29.4085C71.7879 29.4085 71.7879 29.4085 71.8879 29.4085H71.9879C72.0879 29.4085 72.1879 29.5085 72.3879 29.5085C72.4879 29.5085 72.4879 29.5085 72.5879 29.6085C72.5879 29.6085 72.5879 29.6085 72.6879 29.6085C72.7879 29.6085 72.7879 29.7085 72.8879 29.7085C72.8879 29.7085 72.8879 29.7085 72.9879 29.7085C72.9879 29.7085 73.0879 29.7085 73.0879 29.8085C72.9879 29.8085 72.8879 29.9085 72.7879 29.9085C72.6879 29.9085 72.6879 29.9085 72.5879 29.9085H72.4879C72.3879 29.9085 72.2879 29.9085 72.1879 29.9085C71.8879 29.9085 71.5879 29.9085 71.2879 29.9085H71.1879C71.1879 29.8085 71.1879 29.8085 71.1879 29.7085C70.9879 29.8085 70.9879 29.8085 70.9879 29.7085Z" fill="#1E1E1E"/>
<path d="M68.1879 22.8085C68.1879 21.1085 66.1879 21.1085 66.1879 22.8085C66.1879 26.1085 66.2879 29.3085 66.4879 32.6085C66.4879 33.3085 66.8879 33.9085 67.4879 33.9085C67.9879 33.9085 68.4879 33.3085 68.4879 32.6085C68.2879 29.4085 68.1879 26.1085 68.1879 22.8085Z" fill="#1E1E1E"/>
<path d="M47.2879 25.7085C46.2879 24.5085 44.4879 24.1085 42.9879 24.5085C42.4879 24.6085 42.0879 25.2085 42.2879 25.7085C42.2879 25.8085 42.3879 25.9085 42.3879 26.0085C42.1879 26.2085 42.0879 26.4085 42.0879 26.7085C42.0879 28.2085 41.9879 29.7085 41.9879 31.2085C41.9879 33.1085 44.2879 33.2085 45.5879 32.7085C46.8879 32.2085 47.7879 31.0085 48.0879 29.6085C48.5879 28.2085 48.2879 26.8085 47.2879 25.7085ZM46.3879 28.8085C46.3879 29.2085 46.1879 29.6085 45.9879 29.9085C45.7879 30.2085 45.5879 30.5085 45.2879 30.7085C45.1879 30.8085 45.0879 30.8085 44.9879 30.8085C44.9879 30.8085 44.8879 30.8085 44.7879 30.9085C44.6879 30.9085 44.6879 30.9085 44.5879 30.9085C44.5879 30.9085 44.5879 30.9085 44.4879 30.9085H44.3879C44.2879 30.9085 44.1879 30.9085 44.1879 30.9085H44.0879C44.0879 30.8085 44.0879 30.7085 44.0879 30.6085C44.0879 29.3085 44.0879 28.0085 44.1879 26.6085C44.1879 26.5085 44.1879 26.3085 44.0879 26.2085C44.1879 26.2085 44.2879 26.2085 44.3879 26.2085C44.4879 26.2085 44.4879 26.2085 44.5879 26.2085H44.6879C44.7879 26.2085 44.8879 26.3085 44.9879 26.3085H45.0879C45.1879 26.4085 45.2879 26.4085 45.3879 26.5085L45.4879 26.6085C45.5879 26.7085 45.5879 26.7085 45.6879 26.8085L45.7879 26.9085C45.8879 27.0085 45.8879 27.1085 45.9879 27.2085C45.9879 27.2085 45.9879 27.3085 46.0879 27.3085V27.4085C46.1879 27.6085 46.1879 27.8085 46.1879 27.9085C46.1879 28.0085 46.1879 28.0085 46.1879 28.1085C46.3879 28.5085 46.3879 28.7085 46.3879 28.8085Z" fill="#1E1E1E"/>
<path d="M53.4879 30.5085C53.2879 30.0085 52.9879 29.5085 52.4879 29.2085C52.0879 29.0085 51.4879 28.8085 51.0879 28.9085C50.9879 28.9085 50.8879 28.9085 50.7879 28.9085C50.4879 28.7085 50.0879 28.7085 49.7879 28.9085C48.9879 29.4085 48.5879 30.2085 48.4879 31.1085C48.4879 31.5085 48.5879 32.0085 48.7879 32.4085C48.9879 32.9085 49.4879 33.3085 49.9879 33.5085C50.1879 33.6085 50.4879 33.6085 50.6879 33.6085C50.8879 33.6085 51.0879 33.6085 51.2879 33.6085C51.8879 33.5085 52.2879 33.3085 52.7879 33.0085C53.4879 32.4085 53.7879 31.3085 53.4879 30.5085ZM50.8879 31.6085C50.7879 31.6085 50.6879 31.6085 50.6879 31.5085C50.6879 31.5085 50.6879 31.4085 50.5879 31.4085C50.5879 31.3085 50.5879 31.3085 50.5879 31.2085C50.5879 31.1085 50.5879 31.1085 50.5879 31.0085C50.5879 30.9085 50.5879 30.9085 50.6879 30.8085C50.6879 30.7085 50.7879 30.7085 50.7879 30.6085C50.8879 30.7085 50.9879 30.7085 51.1879 30.7085C51.2879 30.7085 51.2879 30.7085 51.3879 30.7085H51.4879C51.4879 30.7085 51.5879 30.7085 51.5879 30.8085L51.6879 30.9085C51.6879 30.9085 51.6879 30.9085 51.6879 31.0085V31.1085V31.2085V31.3085C51.6879 31.3085 51.6879 31.4085 51.5879 31.4085C51.5879 31.4085 51.5879 31.4085 51.4879 31.5085C51.4879 31.5085 51.4879 31.5085 51.3879 31.5085H51.2879C51.0879 31.6085 50.9879 31.6085 50.8879 31.6085Z" fill="#1E1E1E"/>
<path d="M61.6879 31.8085C61.7879 31.8085 61.7879 31.8085 61.6879 31.8085C61.7879 31.8085 61.7879 31.8085 61.6879 31.8085C61.6879 31.7085 61.6879 31.7085 61.6879 31.8085C61.6879 31.7085 61.6879 31.7085 61.6879 31.8085Z" fill="#1E1E1E"/>
<path d="M65.9879 32.6085C65.4879 30.2085 65.0879 27.7085 64.6879 25.3085C64.5879 24.8085 63.9879 24.5085 63.4879 24.6085C62.8879 24.8085 62.6879 25.3085 62.7879 25.8085C62.9879 26.8085 63.0879 27.8085 63.2879 28.8085C62.7879 28.7085 62.2879 28.7085 61.7879 28.8085C60.9879 29.0085 60.2879 29.5085 59.8879 30.1085C59.3879 30.8085 59.3879 31.8085 59.7879 32.6085C60.1879 33.3085 60.8879 33.7085 61.5879 33.8085C62.0879 33.9085 62.5879 33.9085 63.0879 33.7085C63.3879 33.6085 63.7879 33.5085 64.0879 33.3085C64.2879 33.7085 64.7879 33.8085 65.1879 33.7085C65.8879 33.7085 66.0879 33.1085 65.9879 32.6085ZM63.3879 31.6085C63.0879 31.7085 62.7879 31.8085 62.4879 31.9085C62.3879 31.9085 62.2879 31.9085 62.1879 31.9085C62.0879 31.9085 61.9879 31.9085 61.8879 31.8085H61.7879C61.7879 31.8085 61.7879 31.8085 61.6879 31.8085C61.6879 31.8085 61.6879 31.8085 61.6879 31.7085V31.6085V31.5085C61.6879 31.4085 61.6879 31.4085 61.7879 31.3085C61.7879 31.3085 61.7879 31.3085 61.7879 31.2085C61.7879 31.2085 61.7879 31.2085 61.7879 31.1085L61.8879 31.0085C61.8879 31.0085 61.8879 31.0085 61.9879 31.0085C61.9879 31.0085 62.0879 30.9085 62.1879 30.9085C62.2879 30.9085 62.4879 30.8085 62.5879 30.8085C62.6879 30.8085 62.7879 30.8085 62.9879 30.8085C63.1879 30.8085 63.4879 30.9085 63.6879 31.0085C63.7879 31.0085 63.7879 31.0085 63.8879 31.1085C63.8879 31.3085 63.9879 31.4085 63.9879 31.6085C63.8879 31.6085 63.7879 31.6085 63.6879 31.7085C63.4879 31.6085 63.3879 31.6085 63.3879 31.6085Z" fill="#1E1E1E"/>
<path d="M58.8879 30.7085C58.6879 30.2085 58.3879 29.7085 57.8879 29.4085C57.4879 29.1085 56.9879 29.0085 56.4879 29.0085C56.3879 29.0085 56.2879 29.0085 56.1879 29.0085C55.8879 28.8085 55.4879 28.8085 55.1879 29.0085C54.3879 29.5085 53.9879 30.3085 53.8879 31.2085C53.8879 31.6085 53.9879 32.1085 54.1879 32.5085C54.3879 33.0085 54.8879 33.4085 55.3879 33.6085C55.5879 33.7085 55.8879 33.7085 56.0879 33.7085C56.2879 33.7085 56.4879 33.7085 56.6879 33.7085C57.2879 33.6085 57.6879 33.4085 58.1879 33.1085C58.8879 32.6085 59.1879 31.6085 58.8879 30.7085ZM56.2879 31.8085C56.1879 31.8085 56.0879 31.8085 56.0879 31.7085C56.0879 31.7085 56.0879 31.6085 55.9879 31.6085C55.9879 31.5085 55.9879 31.5085 55.9879 31.4085C55.9879 31.3085 55.9879 31.3085 55.9879 31.2085C55.9879 31.1085 55.9879 31.1085 56.0879 31.0085C56.0879 30.9085 56.1879 30.9085 56.1879 30.8085C56.2879 30.9085 56.3879 30.9085 56.5879 30.9085C56.6879 30.9085 56.6879 30.9085 56.7879 30.9085H56.8879C56.8879 30.9085 56.9879 30.9085 56.9879 31.0085L57.0879 31.1085C57.0879 31.1085 57.0879 31.1085 57.0879 31.2085V31.3085V31.4085V31.5085C57.0879 31.5085 57.0879 31.6085 56.9879 31.6085C56.9879 31.6085 56.9879 31.6085 56.8879 31.7085C56.8879 31.7085 56.8879 31.7085 56.7879 31.7085H56.6879C56.4879 31.8085 56.3879 31.8085 56.2879 31.8085Z" fill="#1E1E1E"/>
<path d="M81.8879 52.7085C81.0879 49.8085 77.8879 47.9085 74.9879 47.6085C73.9879 47.5085 73.1879 47.9085 72.5879 48.5085C69.9879 49.8085 68.8879 53.0085 70.0879 55.7085C71.3879 58.6085 74.5879 59.9085 77.5879 59.3085C79.0879 59.0085 80.5879 58.2085 81.3879 56.8085C82.1879 55.6085 82.2879 54.0085 81.8879 52.7085Z" fill="#59C59F"/>
<path d="M81.2879 59.3085C81.7879 58.9085 82.2879 58.5085 82.6879 58.1085C84.9879 55.5085 83.9879 51.7085 81.9879 49.2085C79.7879 46.5085 75.8879 45.3085 72.4879 46.3085C71.9879 46.5085 71.4879 46.8085 71.3879 47.3085C71.2879 47.3085 71.2879 47.3085 71.1879 47.3085C69.5879 47.7085 68.4879 48.7085 67.7879 50.2085C67.0879 51.8085 67.2879 53.5085 67.7879 55.1085C68.7879 58.1085 70.8879 60.8085 74.1879 61.2085C75.6879 61.4085 77.2879 61.1085 78.7879 60.5085C79.8879 61.9085 80.9879 63.3085 82.1879 64.6085C82.6879 65.1085 83.5879 65.3085 84.0879 64.8085C84.5879 64.3085 84.7879 63.4085 84.2879 62.9085C83.3879 61.8085 82.2879 60.6085 81.2879 59.3085ZM76.0879 58.5085C73.8879 58.8085 72.1879 57.7085 71.0879 55.8085C70.4879 54.7085 69.9879 53.4085 70.0879 52.2085C70.1879 51.3085 70.6879 50.3085 71.5879 50.0085C72.0879 49.9085 72.5879 49.5085 72.6879 49.0085C72.7879 49.0085 72.7879 49.0085 72.8879 49.0085C74.9879 48.3085 77.1879 48.7085 78.9879 50.1085C80.3879 51.2085 81.7879 53.8085 81.0879 55.6085C80.6879 56.5085 79.8879 57.0085 79.0879 57.5085C78.1879 58.0085 77.1879 58.4085 76.0879 58.5085Z" fill="#1E1E1E"/>
</svg>
