<svg width="911" height="383" viewBox="0 0 911 383" fill="none" xmlns="http://www.w3.org/2000/svg">
<path fill-rule="evenodd" clip-rule="evenodd" d="M729.553 364.611C730.424 364.929 731.456 365.416 732.303 366.307C733.288 367.342 733.806 368.679 734.141 369.732C734.921 372.062 735.559 375.321 734.235 378.24L734.232 378.246C733.167 380.575 731.12 381.983 729.125 382.582C727.102 383.189 725.042 383.057 723.176 382.678L723.166 382.676L723.156 382.674C722.248 382.477 721.072 382.168 720.034 381.354C719.063 380.607 718.391 379.568 717.95 378.52C716.09 374.266 717.137 369.921 719.572 367.152C721.975 364.419 725.743 363.155 729.553 364.611ZM721.887 370.115C720.402 371.803 719.873 374.202 720.939 376.631L720.947 376.649L720.954 376.666C721.184 377.216 721.487 377.645 721.85 377.922L721.86 377.93L721.87 377.938C722.297 378.274 722.887 378.478 723.745 378.665C725.363 378.992 726.909 379.052 728.309 378.631C729.738 378.202 730.811 377.296 731.276 376.282C731.843 375.029 731.693 373.283 731.007 371.242L731.001 371.224L730.995 371.206C730.718 370.332 730.442 369.75 730.086 369.376C729.775 369.049 729.283 368.765 728.566 368.504L728.554 368.5L728.542 368.495C725.901 367.482 723.404 368.389 721.887 370.115Z" fill="white"/>
<path fill-rule="evenodd" clip-rule="evenodd" d="M905.159 243.45C905.934 243.685 906.852 244.044 907.605 244.7C908.48 245.462 908.941 246.448 909.239 247.224C909.932 248.94 910.499 251.342 909.322 253.493L909.319 253.497C908.372 255.213 906.553 256.25 904.779 256.692C902.98 257.14 901.149 257.042 899.49 256.763L899.482 256.762L899.473 256.76C898.666 256.614 897.62 256.387 896.697 255.787C895.834 255.237 895.237 254.471 894.844 253.699C893.191 250.565 894.121 247.363 896.286 245.322C898.423 243.309 901.773 242.378 905.159 243.45ZM898.344 247.506C897.024 248.75 896.554 250.518 897.502 252.307L897.509 252.32L897.515 252.333C897.72 252.738 897.989 253.054 898.312 253.259L898.321 253.264L898.33 253.27C898.709 253.518 899.234 253.668 899.996 253.806C901.434 254.047 902.809 254.091 904.054 253.781C905.325 253.465 906.278 252.797 906.692 252.05C907.196 251.127 907.062 249.84 906.453 248.337L906.447 248.323L906.442 248.309C906.196 247.666 905.95 247.237 905.634 246.962C905.357 246.72 904.919 246.511 904.282 246.319L904.272 246.316L904.261 246.312C901.913 245.566 899.693 246.234 898.344 247.506Z" fill="white"/>
<path d="M261.858 35.253C261.342 34.6888 260.811 34.0877 260.295 33.5235C259.066 32.2166 257.852 30.9467 256.564 29.7054C254.055 27.2822 251.348 25.107 248.341 23.3477C247.416 22.816 246.152 23.3541 245.704 24.2537C245.645 24.3192 245.638 24.4074 245.63 24.4955C245.432 24.7434 245.249 25.0282 245.167 25.3582C243.603 30.6132 242.025 35.8312 240.46 41.0862C240.195 41.9142 240.819 42.8618 241.526 43.2662C243.267 44.1594 245.29 43.4087 247.086 43.0453L252.694 41.8691C254.687 41.471 256.666 41.0359 258.659 40.6378C260.367 40.2661 263.476 40.2399 263.403 37.7983C263.342 36.6728 262.57 35.9956 261.858 35.253ZM251.59 38.0859C250.115 38.4086 248.626 38.6944 247.151 39.0171C246.45 39.1641 245.749 39.3111 245.048 39.4581C246.184 35.6911 247.306 31.8872 248.442 28.1202C250.291 29.3968 252.059 30.7902 253.674 32.3291C254.75 33.355 255.805 34.4321 256.822 35.5235C257.193 35.9318 257.601 36.3257 258.022 36.7566C257.431 36.8606 256.854 37.0016 256.263 37.1057L251.59 38.0859Z" fill="white"/>
<path d="M251.112 295.759C250.868 296.484 250.599 297.239 250.354 297.964C249.805 299.671 249.281 301.348 248.817 303.075C247.909 306.444 247.315 309.865 247.23 313.348C247.211 314.415 248.294 315.261 249.298 315.218C249.384 315.238 249.464 315.202 249.545 315.166C249.858 315.219 250.196 315.242 250.524 315.153C255.88 313.981 261.211 312.839 266.567 311.666C267.42 311.498 267.947 310.493 267.96 309.679C267.899 307.724 266.264 306.316 265.077 304.919L261.335 300.58C260.023 299.028 258.685 297.507 257.372 295.955C256.221 294.639 254.695 291.931 252.592 293.175C251.637 293.774 251.418 294.776 251.112 295.759ZM258.558 303.376C259.554 304.511 260.524 305.676 261.52 306.811C261.988 307.354 262.455 307.896 262.923 308.438C259.076 309.266 255.204 310.124 251.358 310.952C251.581 308.716 251.945 306.494 252.511 304.337C252.889 302.898 253.321 301.454 253.784 300.036C253.962 299.514 254.11 298.967 254.283 298.389C254.66 298.856 255.063 299.293 255.44 299.76L258.558 303.376Z" fill="white"/>
<path d="M356.642 183.635C355.929 183.909 355.175 184.184 354.462 184.458C352.797 185.125 351.171 185.792 349.545 186.538C346.374 187.99 343.361 189.716 340.625 191.874C339.792 192.541 339.832 193.914 340.506 194.66C340.546 194.738 340.625 194.777 340.704 194.817C340.863 195.091 341.061 195.366 341.338 195.562C345.66 198.936 349.942 202.311 354.264 205.685C354.938 206.234 356.048 205.999 356.682 205.489C358.149 204.194 358.189 202.036 358.506 200.231L359.457 194.581C359.814 192.58 360.131 190.579 360.488 188.578C360.766 186.852 361.876 183.948 359.576 183.124C358.506 182.771 357.594 183.242 356.642 183.635ZM355.532 194.228C355.294 195.719 355.017 197.21 354.779 198.701C354.66 199.407 354.541 200.113 354.422 200.82C351.33 198.387 348.197 195.954 345.105 193.522C346.968 192.266 348.911 191.128 350.933 190.187C352.281 189.559 353.669 188.971 355.056 188.421C355.572 188.225 356.087 187.99 356.642 187.754C356.523 188.343 356.444 188.931 356.325 189.52L355.532 194.228Z" fill="white"/>
<path d="M65.6423 312.635C64.9287 312.909 64.1754 313.184 63.4617 313.458C61.7966 314.125 60.171 314.792 58.5455 315.538C55.3737 316.99 52.3605 318.716 49.6248 320.874C48.7922 321.541 48.8319 322.914 49.5059 323.66C49.5455 323.738 49.6248 323.777 49.7041 323.817C49.8627 324.091 50.0609 324.366 50.3385 324.562C54.66 327.936 58.942 331.311 63.2635 334.685C63.9375 335.234 65.0476 334.999 65.682 334.489C67.149 333.194 67.1886 331.036 67.5058 329.231L68.4573 323.581C68.8141 321.58 69.1313 319.579 69.4881 317.578C69.7657 315.852 70.8758 312.948 68.5763 312.124C67.5058 311.771 66.5939 312.242 65.6423 312.635ZM64.5322 323.228C64.2943 324.719 64.0168 326.21 63.7789 327.701C63.66 328.407 63.541 329.113 63.4221 329.82C60.3296 327.387 57.1975 324.954 54.105 322.522C55.9684 321.266 57.9111 320.128 59.9331 319.187C61.2811 318.559 62.6688 317.971 64.0565 317.421C64.5719 317.225 65.0873 316.99 65.6423 316.754C65.5234 317.343 65.4441 317.931 65.3252 318.52L64.5322 323.228Z" fill="white"/>
<path fill-rule="evenodd" clip-rule="evenodd" d="M12.5526 0.610753C13.4244 0.928984 14.4561 1.41633 15.3031 2.30665C16.288 3.34187 16.8063 4.67915 17.1413 5.73216C17.9211 8.06163 18.5594 11.3208 17.2349 14.24L17.2321 14.2461C16.167 16.5748 14.1203 17.9826 12.1246 18.5819C10.1017 19.1894 8.04191 19.0568 6.17581 18.6783L6.16602 18.6763L6.15625 18.6742C5.24823 18.4767 4.07172 18.1678 3.03424 17.3539C2.06252 16.6075 1.39131 15.5682 0.949789 14.5198C-0.910015 10.2662 0.136627 5.92134 2.57196 3.15194C4.97515 0.419087 8.74331 -0.844689 12.5526 0.610753ZM4.88655 6.11472C3.40203 7.80288 2.87284 10.2023 3.93929 12.6311L3.947 12.6486L3.95441 12.6663C4.1845 13.216 4.48698 13.6446 4.85027 13.9223L4.86025 13.9299L4.87014 13.9377C5.29694 14.2742 5.88715 14.4781 6.74515 14.6652C8.36272 14.9923 9.90911 15.0516 11.3094 14.631C12.7384 14.2019 13.8112 13.2959 14.2762 12.2818C14.8431 11.029 14.6926 9.28295 14.0075 7.24249L14.0013 7.22411L13.9954 7.20558C13.7185 6.33219 13.4417 5.7499 13.0864 5.37645C12.7749 5.049 12.2826 4.76504 11.5663 4.50442L11.5543 4.50003L11.5423 4.49543C8.90123 3.48237 6.40394 4.38917 4.88655 6.11472Z" fill="white"/>
<path fill-rule="evenodd" clip-rule="evenodd" d="M154.159 125.45C154.934 125.685 155.852 126.044 156.605 126.7C157.48 127.462 157.941 128.448 158.239 129.224C158.932 130.94 159.499 133.342 158.322 135.493L158.319 135.497C157.372 137.213 155.553 138.25 153.779 138.692C151.98 139.14 150.149 139.042 148.49 138.763L148.482 138.762L148.473 138.76C147.666 138.614 146.62 138.387 145.697 137.787C144.834 137.237 144.237 136.471 143.844 135.699C142.191 132.565 143.121 129.363 145.286 127.322C147.423 125.309 150.773 124.378 154.159 125.45ZM147.344 129.506C146.024 130.75 145.554 132.518 146.502 134.307L146.509 134.32L146.515 134.333C146.72 134.738 146.989 135.054 147.312 135.259L147.321 135.264L147.33 135.27C147.709 135.518 148.234 135.668 148.996 135.806C150.434 136.047 151.809 136.091 153.054 135.781C154.325 135.465 155.278 134.797 155.692 134.05C156.196 133.127 156.062 131.84 155.453 130.337L155.447 130.323L155.442 130.309C155.196 129.666 154.95 129.237 154.634 128.962C154.357 128.72 153.919 128.511 153.282 128.319L153.272 128.316L153.261 128.312C150.913 127.566 148.693 128.234 147.344 129.506Z" fill="white"/>
</svg>
