<svg width="262" height="16" viewBox="0 0 262 16" fill="none" xmlns="http://www.w3.org/2000/svg">
<path d="M1.01813 4.53258C4.00989 6.77163 7.20285 8.82742 10.1946 11.0665C13.1799 13.1276 15.2956 14.1422 18.7554 12.0947C21.6049 10.419 25.0583 8.19348 27.2589 5.82188C27.4666 5.81658 27.4731 5.99452 27.6807 5.98922C28.122 6.69039 29.1798 7.19772 29.8223 7.71564C31.3214 8.92414 32.6128 10.1379 34.1055 11.1685C36.4612 13.0675 39.0117 14.6054 42.2896 13.275C45.574 12.1225 47.5476 9.22234 50.1765 7.19602C50.3778 7.01277 50.579 6.82953 50.7802 6.64628C50.1701 7.01808 50.3907 7.36866 51.2215 7.34745C51.8639 7.86538 52.9089 8.01681 53.7526 8.35149C55.2323 9.02615 56.712 9.70082 58.1917 10.3755C61.573 11.8921 64.7596 13.77 67.9461 15.6478C69.0104 16.3331 70.8667 15.9295 71.6717 15.1965C73.0674 13.5579 74.4696 12.0972 75.8653 10.4586C76.6637 9.54769 77.4622 8.63676 78.2607 7.72583C78.4619 7.54258 78.6631 7.35933 78.8579 6.99814C79.0592 6.81489 79.0592 6.81489 79.0592 6.81489C80.9543 7.47895 82.6675 8.86009 84.3679 9.88534C86.2759 10.9053 88.1904 12.1032 90.3061 13.1178C93.9145 15.163 97.4841 16.1405 101.34 13.5486C104.177 11.517 106.805 9.49064 109.642 7.45901C111.978 8.82425 114.308 10.0115 116.852 11.3715C119.182 12.5587 121.532 14.2799 124.42 13.6718C127.101 13.069 129.515 10.8701 131.748 9.3882C132.969 8.6446 134.189 7.90101 135.202 7.16273C136.422 6.41913 137.253 6.39793 138.726 6.89464C143.568 8.55213 147.429 11.8376 152.848 12.2336C158.476 12.6243 162.306 9.32054 166.577 6.71797C167.998 5.79113 167.797 5.97438 169.283 6.82699C170.555 7.50695 171.62 8.19222 172.892 8.87218C175.436 10.2321 177.98 11.592 180.907 12.0516C183.827 12.3333 186.281 11.202 188.942 10.0654C190.377 9.49446 191.811 8.92351 193.246 8.35256C194.68 7.78161 196.92 6.47767 198.782 6.25201C201.275 6.18838 204.461 8.06624 206.584 9.25882C208.92 10.6241 210.867 12.7117 213.794 13.1713C216.513 13.6362 219.181 12.6775 221.206 11.2009C223.439 9.71906 225.432 7.35276 228.366 7.99031C231.293 8.44991 233.649 10.349 236.186 11.531C238.938 12.8856 241.884 13.879 245.22 14.1501C251.27 14.7081 257.429 12.5916 260.584 7.88023C262.552 4.80216 257.055 2.27085 255.087 5.34893C252.328 9.51588 246.305 9.66965 241.665 7.82891C237.024 5.98817 233.157 2.52472 227.75 2.48464C225.251 2.37032 222.999 3.31837 220.961 4.43906C219.338 5.54914 216.534 8.47048 214.418 7.45584C212.309 6.61914 210.368 4.70947 208.246 3.51688C205.916 2.3296 203.171 1.15292 200.666 0.860654C197.953 0.573695 195.7 1.52174 193.24 2.47509C190.164 3.62229 187.106 5.30333 184.023 6.27258C181.349 7.05329 178.785 5.15953 176.67 4.14488C174.548 2.9523 172.185 0.875289 169.472 0.58833C164.663 -0.179441 160.898 4.90375 157.003 6.42804C152.492 8.14619 148.001 4.69865 144.198 3.01465C141.868 1.82736 139.129 0.828628 136.442 1.25345C133.547 1.68357 131.126 3.70458 128.893 5.18646C127.673 5.93005 125.862 7.57927 124.421 7.97228C124.213 7.97758 123.817 8.52202 123.817 8.52202C123.402 8.53262 121.909 7.50207 121.487 7.33473C118.515 5.62952 115.335 3.92961 112.363 2.2244C112.363 2.2244 112.155 2.2297 112.148 2.05176C111.084 1.36649 109.416 1.23096 108.209 2.33044C106.385 3.62377 104.768 4.9118 102.944 6.20513C102.139 6.93812 101.12 7.49846 100.315 8.23145C99.7051 8.60325 98.5041 9.88067 97.6798 10.0798C96.0247 10.3002 93.0265 7.8832 91.7545 7.20323C89.8464 6.18329 88.1461 5.15804 86.2381 4.13809C83.2657 2.43288 79.6379 -0.146144 76.4053 2.42991C74.7889 3.71794 73.6074 5.5292 72.4129 6.98457C71.6144 7.8955 70.6147 8.98967 69.8163 9.90061C64.5075 6.83016 59.0041 4.12091 53.111 2.13404C49.535 0.978572 47.5226 2.81104 45.1013 4.83205C43.894 5.93153 42.6995 7.3869 41.2714 8.1358C40.0511 8.87939 40.869 8.50229 39.8111 7.99497C39.1751 7.65498 38.312 6.78647 37.6695 6.26855C36.1704 5.06005 34.879 3.84626 33.3864 2.81571C32.3156 1.95249 31.0242 0.738698 29.5509 0.241981C26.189 -0.740849 24.1961 1.62545 21.9696 3.28527C20.5545 4.39005 19.1393 5.49484 17.5166 6.60492C17.5166 6.60492 16.2962 7.34851 15.6861 7.72031C15.4719 7.54767 15.2578 7.37502 15.0436 7.20238C12.0518 4.96334 8.85889 2.90754 5.86714 0.668494C2.25229 -1.55464 -1.9736 2.29354 1.01813 4.53258Z" fill="#F7C300"/>
</svg>
