<svg width="244" height="16" viewBox="0 0 244 16" fill="none" xmlns="http://www.w3.org/2000/svg">
<path d="M0.949004 4.53258C3.74589 6.77163 6.7309 8.82742 9.52777 11.0665C12.3186 13.1276 14.2965 14.1422 17.5309 12.0947C20.1949 10.419 23.4233 8.19348 25.4806 5.82188C25.6748 5.81658 25.6808 5.99452 25.875 5.98922C26.2875 6.69039 27.2764 7.19772 27.8771 7.71564C29.2785 8.92414 30.4858 10.1379 31.8812 11.1685C34.0835 13.0675 36.4679 14.6054 39.5323 13.275C42.6028 12.1225 44.4478 9.22234 46.9055 7.19602C47.0936 7.01277 47.2818 6.82953 47.4699 6.64628C46.8995 7.01808 47.1057 7.36866 47.8824 7.34745C48.483 7.86538 49.4599 8.01681 50.2486 8.35149C51.632 9.02615 53.0153 9.70082 54.3987 10.3755C57.5597 11.8921 60.5387 13.77 63.5177 15.6478C64.5127 16.3331 66.2481 15.9295 67.0006 15.1965C68.3054 13.5579 69.6162 12.0972 70.9211 10.4586C71.6675 9.54769 72.414 8.63676 73.1605 7.72582C73.3486 7.54258 73.5367 7.35933 73.7188 6.99814C73.9069 6.81489 73.9069 6.81489 73.9069 6.81489C75.6786 7.47895 77.2803 8.86009 78.8699 9.88534C80.6536 10.9053 82.4434 12.1032 84.4213 13.1178C87.7947 15.163 91.1318 16.1405 94.7364 13.5486C97.3883 11.517 99.846 9.49063 102.498 7.45901C104.682 8.82424 106.86 10.0115 109.239 11.3715C111.417 12.5587 113.613 14.2799 116.313 13.6718C118.819 13.069 121.077 10.8701 123.164 9.3882C124.305 8.64461 125.446 7.90102 126.393 7.16273C127.533 6.41913 128.31 6.39793 129.687 6.89464C134.214 8.55214 137.824 11.8376 142.89 12.2336C148.151 12.6243 151.731 9.32054 155.724 6.71797C157.053 5.79113 156.865 5.97438 158.254 6.82699C159.443 7.50695 160.438 8.19222 161.628 8.87218C164.006 10.2321 166.384 11.592 169.121 12.0516C171.851 12.3333 174.145 11.202 176.633 10.0654C177.974 9.49446 179.315 8.92351 180.656 8.35256C181.997 7.78161 184.091 6.47767 185.832 6.25201C188.162 6.18838 191.141 8.06624 193.125 9.25882C195.309 10.6241 197.129 12.7117 199.866 13.1713C202.408 13.6362 204.902 12.6775 206.795 11.2009C208.883 9.71906 210.746 7.35276 213.489 7.99031C216.225 8.44991 218.427 10.349 220.8 11.531C223.372 12.8856 226.127 13.879 229.245 14.1501C234.901 14.7081 240.659 12.5916 243.609 7.88023C245.448 4.80216 240.309 2.27085 238.47 5.34893C235.89 9.51588 230.259 9.66965 225.921 7.82891C221.583 5.98817 217.967 2.52472 212.913 2.48464C210.577 2.37032 208.471 3.31837 206.566 4.43906C205.049 5.54914 202.427 8.47048 200.449 7.45584C198.477 6.61914 196.663 4.70947 194.679 3.51688C192.501 2.3296 189.935 1.15292 187.593 0.860655C185.056 0.573696 182.951 1.52174 180.651 2.47509C177.775 3.62229 174.916 5.30333 172.034 6.27258C169.534 7.05329 167.138 5.15953 165.16 4.14489C163.176 2.9523 160.967 0.87529 158.431 0.58833C153.935 -0.179439 150.415 4.90375 146.774 6.42804C142.557 8.14619 138.359 4.69865 134.803 3.01465C132.625 1.82736 130.065 0.828628 127.552 1.25345C124.846 1.68357 122.583 3.70458 120.495 5.18646C119.354 5.93005 117.661 7.57927 116.314 7.97228C116.12 7.97758 115.75 8.52202 115.75 8.52202C115.361 8.53262 113.966 7.50207 113.572 7.33473C110.793 5.62952 107.82 3.92961 105.041 2.2244C105.041 2.2244 104.847 2.2297 104.841 2.05176C103.846 1.36649 102.286 1.23096 101.158 2.33044C99.4525 3.62377 97.9414 4.9118 96.2362 6.20513C95.4837 6.93812 94.531 7.49846 93.7785 8.23145C93.2081 8.60325 92.0853 9.88067 91.3147 10.0798C89.7674 10.3002 86.9645 7.8832 85.7753 7.20323C83.9916 6.18329 82.402 5.15804 80.6182 4.13809C77.8395 2.43288 74.448 -0.146143 71.4259 2.42991C69.9148 3.71794 68.8102 5.5292 67.6935 6.98457C66.9471 7.8955 66.0125 8.98967 65.266 9.90061C60.3031 6.83016 55.1581 4.12091 49.6489 2.13404C46.3058 0.978572 44.4245 2.81104 42.1609 4.83205C41.0321 5.93153 39.9155 7.3869 38.5805 8.13579C37.4396 8.87939 38.2042 8.50229 37.2152 7.99497C36.6207 7.65498 35.8138 6.78647 35.2131 6.26855C33.8117 5.06005 32.6044 3.84626 31.209 2.8157C30.2079 1.95249 29.0006 0.738698 27.6233 0.24198C24.4804 -0.740848 22.6173 1.62545 20.5358 3.28527C19.2129 4.39005 17.8899 5.49484 16.3728 6.60492C16.3728 6.60492 15.232 7.34851 14.6616 7.72031C14.4614 7.54767 14.2612 7.37502 14.0609 7.20238C11.2641 4.96334 8.27905 2.90754 5.48218 0.668494C2.10278 -1.55464 -1.84787 2.29354 0.949004 4.53258Z" fill="#F7C300"/>
</svg>
