<svg width="216" height="14" viewBox="0 0 216 14" fill="none" xmlns="http://www.w3.org/2000/svg">
<path d="M0.840102 3.96601C3.31602 5.92517 5.9585 7.724 8.43442 9.68316C10.905 11.4866 12.656 12.3744 15.5192 10.5828C17.8775 9.11658 20.7354 7.1693 22.5566 5.09415C22.7285 5.08951 22.7338 5.24521 22.9057 5.24057C23.2709 5.8541 24.1463 6.298 24.6781 6.75119C25.9187 7.80862 26.9874 8.87069 28.2227 9.77242C30.1723 11.4341 32.2831 12.7797 34.9958 11.6156C37.7139 10.6072 39.3472 8.06954 41.5229 6.29652C41.6895 6.13618 41.856 5.97584 42.0225 5.8155C41.5176 6.14082 41.7001 6.44758 42.3877 6.42902C42.9194 6.88221 43.7842 7.01471 44.4824 7.30756C45.707 7.89788 46.9316 8.48821 48.1562 9.07854C50.9545 10.4056 53.5916 12.0487 56.2287 13.6919C57.1096 14.2915 58.6458 13.9383 59.312 13.297C60.4671 11.8632 61.6275 10.5851 62.7826 9.15129C63.4434 8.35423 64.1042 7.55716 64.765 6.7601C64.9315 6.59976 65.0981 6.43942 65.2592 6.12337C65.4258 5.96303 65.4258 5.96303 65.4258 5.96303C66.9942 6.54408 68.412 7.75258 69.8192 8.64967C71.3983 9.54212 72.9827 10.5903 74.7336 11.4781C77.7199 13.2676 80.674 14.123 83.865 11.855C86.2126 10.0773 88.3883 8.30431 90.7358 6.52664C92.6694 7.72121 94.5976 8.76009 96.703 9.95003C98.6312 10.9889 100.575 12.4949 102.966 11.9628C105.184 11.4354 107.183 9.51132 109.031 8.21467C110.041 7.56403 111.051 6.91339 111.889 6.26739C112.898 5.61674 113.586 5.59818 114.805 6.03281C118.812 7.48312 122.008 10.3579 126.493 10.7044C131.15 11.0462 134.319 8.15547 137.854 5.87823C139.031 5.06724 138.864 5.22758 140.094 5.97361C141.147 6.56858 142.027 7.16819 143.08 7.76316C145.186 8.95309 147.291 10.143 149.713 10.5452C152.131 10.7916 154.161 9.80175 156.364 8.80723C157.551 8.30765 158.738 7.80807 159.925 7.30849C161.112 6.80891 162.966 5.66796 164.507 5.47051C166.57 5.41483 169.207 7.05796 170.963 8.10147C172.897 9.29605 174.508 11.1227 176.93 11.5249C179.181 11.9316 181.389 11.0928 183.065 9.80082C184.913 8.50418 186.562 6.43367 188.99 6.99152C191.412 7.39367 193.362 9.05535 195.462 10.0896C197.739 11.2749 200.178 12.1441 202.939 12.3813C207.945 12.8696 213.042 11.0177 215.654 6.89521C217.282 4.20189 212.732 1.98699 211.104 4.68031C208.821 8.32639 203.836 8.46094 199.996 6.85029C196.156 5.23965 192.955 2.20913 188.48 2.17406C186.412 2.07403 184.548 2.90357 182.862 3.88417C181.519 4.8555 179.198 7.41167 177.447 6.52386C175.701 5.79175 174.095 4.12079 172.339 3.07727C170.411 2.0384 168.139 1.0088 166.066 0.753073C163.82 0.501983 161.956 1.33153 159.92 2.16571C157.374 3.16951 154.844 4.64041 152.293 5.48851C150.079 6.17163 147.958 4.51459 146.207 3.62677C144.451 2.58326 142.496 0.765878 140.251 0.514789C136.27 -0.15701 133.154 4.29078 129.931 5.62454C126.198 7.12792 122.481 4.11132 119.334 2.63782C117.406 1.59894 115.139 0.725049 112.915 1.09676C110.52 1.47312 108.516 3.24151 106.668 4.53815C105.658 5.1888 104.159 6.63186 102.967 6.97574C102.795 6.98038 102.467 7.45676 102.467 7.45676C102.123 7.46604 100.888 6.56431 100.539 6.41789C98.0788 4.92583 95.4471 3.43841 92.9872 1.94635C92.9872 1.94635 92.8153 1.95099 92.8099 1.79529C91.9291 1.19568 90.5487 1.07709 89.5494 2.03914C88.0399 3.1708 86.7023 4.29783 85.1927 5.42949C84.5266 6.07085 83.6832 6.56116 83.017 7.20252C82.512 7.52784 81.5182 8.64559 80.836 8.81985C79.4662 9.01266 76.985 6.8978 75.9322 6.30283C74.3532 5.41038 72.946 4.51328 71.3669 3.62083C68.9071 2.12877 65.9048 -0.127877 63.2295 2.12617C61.8918 3.2532 60.914 4.83805 59.9254 6.1115C59.2646 6.90856 58.4373 7.86597 57.7765 8.66303C53.3831 5.97639 48.8285 3.6058 43.9515 1.86729C40.992 0.856251 39.3266 2.45966 37.3228 4.22805C36.3235 5.19009 35.335 6.46354 34.1532 7.11882C33.1433 7.76946 33.8201 7.4395 32.9446 6.9956C32.4183 6.69811 31.704 5.93816 31.1723 5.48498C29.9317 4.42754 28.8629 3.36547 27.6276 2.46374C26.7415 1.70843 25.6727 0.646361 24.4534 0.211733C21.6712 -0.648243 20.0218 1.42227 18.1792 2.87461C17.0081 3.8413 15.837 4.80798 14.494 5.77931C14.494 5.77931 13.4841 6.42995 12.9791 6.75527C12.8019 6.60421 12.6246 6.45315 12.4474 6.30208C9.97145 4.34292 7.32899 2.5441 4.85307 0.584932C1.86148 -1.36031 -1.63583 2.00684 0.840102 3.96601Z" fill="#59C69F"/>
</svg>
