<svg width="324" height="430" viewBox="0 0 324 430" fill="none" xmlns="http://www.w3.org/2000/svg">
<path d="M230.575 3.44253C230.242 4.1309 229.88 4.84638 229.547 5.53475C228.788 7.16003 228.058 8.7582 227.382 10.4136C226.06 13.6417 225.041 16.9617 224.521 20.4069C224.369 21.4629 225.337 22.4379 226.338 22.521C226.421 22.5512 226.506 22.5256 226.59 22.5C226.894 22.592 227.226 22.6569 227.563 22.6103C233.024 22.1177 238.455 21.6523 243.916 21.1598C244.783 21.0997 245.433 20.1689 245.547 19.363C245.732 17.4151 244.285 15.8133 243.283 14.2794L240.114 9.50592C239.006 7.80176 237.87 6.12471 236.762 4.42054C235.784 2.97101 234.609 0.0932672 232.367 1.0643C231.345 1.53855 231.001 2.50562 230.575 3.44253ZM237.008 11.932C237.854 13.1826 238.671 14.4604 239.517 15.711C239.913 16.3077 240.309 16.9044 240.705 17.5011C236.785 17.8404 232.836 18.2068 228.917 18.5461C229.418 16.3558 230.058 14.1972 230.889 12.1275C231.444 10.7478 232.054 9.3695 232.691 8.01987C232.933 7.5243 233.148 7.00011 233.392 6.4488C233.708 6.9596 234.052 7.44328 234.368 7.95407L237.008 11.932Z" fill="white"/>
<path d="M36.6423 172.635C35.9287 172.909 35.1754 173.184 34.4617 173.458C32.7966 174.125 31.171 174.792 29.5455 175.538C26.3737 176.99 23.3605 178.716 20.6248 180.874C19.7922 181.541 19.8319 182.914 20.5059 183.66C20.5455 183.738 20.6248 183.777 20.7041 183.817C20.8627 184.091 21.0609 184.366 21.3385 184.562C25.66 187.936 29.942 191.311 34.2635 194.685C34.9375 195.234 36.0476 194.999 36.682 194.489C38.149 193.194 38.1886 191.036 38.5058 189.231L39.4573 183.581C39.8141 181.58 40.1313 179.579 40.4881 177.578C40.7657 175.852 41.8758 172.948 39.5763 172.124C38.5058 171.771 37.5939 172.242 36.6423 172.635ZM35.5322 183.228C35.2943 184.719 35.0168 186.21 34.7789 187.701C34.66 188.407 34.541 189.113 34.4221 189.82C31.3296 187.387 28.1975 184.954 25.105 182.522C26.9684 181.266 28.9111 180.128 30.9331 179.187C32.2811 178.559 33.6688 177.971 35.0565 177.421C35.5719 177.225 36.0873 176.99 36.6423 176.754C36.5234 177.343 36.4441 177.931 36.3252 178.52L35.5322 183.228Z" fill="white"/>
<path d="M254.665 382.635C253.951 382.909 253.198 383.184 252.484 383.458C250.819 384.125 249.193 384.792 247.568 385.538C244.396 386.99 241.383 388.716 238.647 390.874C237.814 391.541 237.854 392.914 238.528 393.66C238.568 393.738 238.647 393.777 238.726 393.817C238.885 394.091 239.083 394.366 239.361 394.562C243.682 397.936 247.964 401.311 252.286 404.685C252.96 405.234 254.07 404.999 254.704 404.489C256.171 403.194 256.211 401.036 256.528 399.231L257.48 393.581C257.836 391.58 258.154 389.579 258.51 387.578C258.788 385.852 259.898 382.948 257.598 382.124C256.528 381.771 255.616 382.242 254.665 382.635ZM253.554 393.228C253.317 394.719 253.039 396.21 252.801 397.701C252.682 398.407 252.563 399.113 252.444 399.82C249.352 397.387 246.22 394.954 243.127 392.522C244.991 391.266 246.933 390.128 248.955 389.187C250.303 388.559 251.691 387.971 253.079 387.421C253.594 387.225 254.11 386.99 254.665 386.754C254.546 387.343 254.466 387.931 254.347 388.52L253.554 393.228Z" fill="white"/>
<path fill-rule="evenodd" clip-rule="evenodd" d="M12.5526 411.611C13.4244 411.929 14.4561 412.416 15.3031 413.307C16.288 414.342 16.8063 415.679 17.1413 416.732C17.9211 419.062 18.5594 422.321 17.2349 425.24L17.2321 425.246C16.167 427.575 14.1203 428.983 12.1246 429.582C10.1017 430.189 8.04191 430.057 6.17581 429.678L6.16602 429.676L6.15625 429.674C5.24823 429.477 4.07172 429.168 3.03424 428.354C2.06252 427.607 1.39131 426.568 0.949789 425.52C-0.910015 421.266 0.136627 416.921 2.57196 414.152C4.97515 411.419 8.74331 410.155 12.5526 411.611ZM4.88655 417.115C3.40203 418.803 2.87284 421.202 3.93929 423.631L3.947 423.649L3.95441 423.666C4.1845 424.216 4.48698 424.645 4.85027 424.922L4.86025 424.93L4.87014 424.938C5.29694 425.274 5.88715 425.478 6.74515 425.665C8.36272 425.992 9.90911 426.052 11.3094 425.631C12.7384 425.202 13.8112 424.296 14.2762 423.282C14.8431 422.029 14.6926 420.283 14.0075 418.242L14.0013 418.224L13.9954 418.206C13.7185 417.332 13.4417 416.75 13.0864 416.376C12.7749 416.049 12.2826 415.765 11.5663 415.504L11.5543 415.5L11.5423 415.495C8.90123 414.482 6.40394 415.389 4.88655 417.115Z" fill="white"/>
<path fill-rule="evenodd" clip-rule="evenodd" d="M12.5526 59.6108C13.4244 59.929 14.4561 60.4163 15.3031 61.3066C16.288 62.3419 16.8063 63.6791 17.1413 64.7322C17.9211 67.0616 18.5594 70.3208 17.2349 73.24L17.2321 73.2461C16.167 75.5748 14.1203 76.9826 12.1246 77.5819C10.1017 78.1894 8.04191 78.0568 6.17581 77.6783L6.16602 77.6763L6.15625 77.6742C5.24823 77.4767 4.07172 77.1678 3.03424 76.3539C2.06252 75.6075 1.39131 74.5682 0.949789 73.5198C-0.910015 69.2662 0.136627 64.9213 2.57196 62.1519C4.97515 59.4191 8.74331 58.1553 12.5526 59.6108ZM4.88655 65.1147C3.40203 66.8029 2.87284 69.2023 3.93929 71.6311L3.947 71.6486L3.95441 71.6663C4.1845 72.216 4.48698 72.6446 4.85027 72.9223L4.86025 72.9299L4.87014 72.9377C5.29694 73.2742 5.88715 73.4781 6.74515 73.6652C8.36272 73.9923 9.90911 74.0516 11.3094 73.631C12.7384 73.2019 13.8112 72.2959 14.2762 71.2818C14.8431 70.029 14.6926 68.283 14.0075 66.2425L14.0013 66.2241L13.9954 66.2056C13.7185 65.3322 13.4417 64.7499 13.0864 64.3764C12.7749 64.049 12.2826 63.765 11.5663 63.5044L11.5543 63.5L11.5423 63.4954C8.90123 62.4824 6.40394 63.3892 4.88655 65.1147Z" fill="white"/>
<path fill-rule="evenodd" clip-rule="evenodd" d="M318.55 157.611C319.422 157.929 320.453 158.416 321.3 159.307C322.285 160.342 322.803 161.679 323.138 162.732C323.918 165.062 324.556 168.321 323.232 171.24L323.229 171.246C322.164 173.575 320.117 174.983 318.122 175.582C316.099 176.189 314.039 176.057 312.173 175.678L312.163 175.676L312.153 175.674C311.245 175.477 310.069 175.168 309.031 174.354C308.06 173.607 307.388 172.568 306.947 171.52C305.087 167.266 306.134 162.921 308.569 160.152C310.972 157.419 314.74 156.155 318.55 157.611ZM310.884 163.115C309.399 164.803 308.87 167.202 309.936 169.631L309.944 169.649L309.951 169.666C310.182 170.216 310.484 170.645 310.847 170.922L310.857 170.93L310.867 170.938C311.294 171.274 311.884 171.478 312.742 171.665C314.36 171.992 315.906 172.052 317.307 171.631C318.735 171.202 319.808 170.296 320.273 169.282C320.84 168.029 320.69 166.283 320.005 164.242L319.998 164.224L319.992 164.206C319.716 163.332 319.439 162.75 319.083 162.376C318.772 162.049 318.28 161.765 317.563 161.504L317.551 161.5L317.539 161.495C314.898 160.482 312.401 161.389 310.884 163.115Z" fill="white"/>
<path fill-rule="evenodd" clip-rule="evenodd" d="M230.575 269.611C231.447 269.929 232.478 270.416 233.325 271.307C234.31 272.342 234.829 273.679 235.164 274.732C235.943 277.062 236.582 280.321 235.257 283.24L235.254 283.246C234.189 285.575 232.142 286.983 230.147 287.582C228.124 288.189 226.064 288.057 224.198 287.678L224.188 287.676L224.178 287.674C223.27 287.477 222.094 287.168 221.056 286.354C220.085 285.607 219.414 284.568 218.972 283.52C217.112 279.266 218.159 274.921 220.594 272.152C222.997 269.419 226.766 268.155 230.575 269.611ZM222.909 275.115C221.424 276.803 220.895 279.202 221.962 281.631L221.969 281.649L221.977 281.666C222.207 282.216 222.509 282.645 222.872 282.922L222.882 282.93L222.892 282.938C223.319 283.274 223.909 283.478 224.767 283.665C226.385 283.992 227.931 284.052 229.332 283.631C230.761 283.202 231.833 282.296 232.298 281.282C232.865 280.029 232.715 278.283 232.03 276.242L232.024 276.224L232.018 276.206C231.741 275.332 231.464 274.75 231.109 274.376C230.797 274.049 230.305 273.765 229.589 273.504L229.576 273.5L229.564 273.495C226.923 272.482 224.426 273.389 222.909 275.115Z" fill="white"/>
<path fill-rule="evenodd" clip-rule="evenodd" d="M52.1593 365.45C52.9344 365.685 53.8515 366.044 54.6045 366.7C55.4801 367.462 55.9408 368.448 56.2387 369.224C56.9319 370.94 57.4994 373.342 56.3219 375.493L56.3194 375.497C55.3725 377.213 53.553 378.25 51.7788 378.692C49.9804 379.14 48.1493 379.042 46.4903 378.763L46.4816 378.762L46.4729 378.76C45.6657 378.614 44.6198 378.387 43.6974 377.787C42.8336 377.237 42.2369 376.471 41.8444 375.699C40.191 372.565 41.1215 369.363 43.2865 367.322C45.4229 365.309 48.7728 364.378 52.1593 365.45ZM45.3442 369.506C44.0244 370.75 43.554 372.518 44.502 374.307L44.5089 374.32L44.5155 374.333C44.72 374.738 44.9889 375.054 45.3119 375.259L45.3208 375.264L45.3296 375.27C45.709 375.518 46.2337 375.668 46.9965 375.806C48.4345 376.047 49.8092 376.091 51.0541 375.781C52.3245 375.465 53.2782 374.797 53.6916 374.05C54.1956 373.127 54.0618 371.84 53.4527 370.337L53.4472 370.323L53.442 370.309C53.1957 369.666 52.9497 369.237 52.6339 368.962C52.3569 368.72 51.9193 368.511 51.2825 368.319L51.2718 368.316L51.2611 368.312C48.9132 367.566 46.6931 368.234 45.3442 369.506Z" fill="white"/>
</svg>
