<svg width="529" height="246" viewBox="0 0 529 246" fill="none" xmlns="http://www.w3.org/2000/svg">
<path d="M233.09 205.14C228.364 208.052 223.546 211.528 218.728 215.474L218.636 215.568C217.987 216.226 217.894 217.259 218.45 217.917C219.006 218.668 220.118 218.762 220.859 218.199C225.585 214.347 230.31 210.965 234.85 208.052C235.684 207.583 235.962 206.455 235.406 205.61C235.035 204.858 233.923 204.576 233.09 205.14Z" fill="black"/>
<path d="M283.771 192.363C283.215 192.269 282.66 192.457 282.289 192.833C282.011 193.115 281.826 193.397 281.733 193.866C281.548 194.806 282.196 195.745 283.123 195.933C285.346 196.309 287.57 196.779 289.794 197.154C293.222 197.812 296.836 198.564 300.171 198.939L300.542 197.248V195.463C297.299 195.088 293.963 194.43 290.442 193.772C288.311 193.115 285.995 192.739 283.771 192.363Z" fill="black"/>
<path d="M265.889 191.987C260.237 192.927 254.493 194.524 248.841 196.873C248.655 196.967 248.47 197.061 248.285 197.248C247.822 197.718 247.636 198.47 247.914 199.221C248.285 200.161 249.304 200.536 250.138 200.161C255.604 197.906 261.071 196.309 266.445 195.463C267.372 195.276 268.02 194.43 267.927 193.397C267.742 192.457 266.816 191.8 265.889 191.987Z" fill="black"/>
<path d="M205.479 226.842C202.05 229.754 197.603 233.418 192.6 236.33C192.322 236.518 191.951 236.706 191.673 236.894C191.581 236.988 191.395 237.082 191.303 237.176C190.747 237.74 190.561 238.585 191.025 239.337C191.488 240.182 192.507 240.464 193.434 239.994C193.804 239.806 194.082 239.618 194.453 239.431C199.641 236.33 204.367 232.572 207.888 229.566C208.629 228.909 208.722 227.781 208.073 227.124C207.239 226.372 206.22 226.278 205.479 226.842Z" fill="black"/>
<path d="M137.563 214.347C137.1 213.501 135.988 213.219 135.154 213.783C135.062 213.877 134.969 213.971 134.876 213.971C134.32 214.535 134.135 215.474 134.598 216.132C137.378 220.735 140.714 226.09 144.605 230.788C145.254 231.539 146.273 231.633 147.014 230.976C147.755 230.318 147.848 229.284 147.199 228.533C143.586 224.117 140.343 218.856 137.563 214.347Z" fill="black"/>
<path d="M357.895 143.041C361.323 138.344 365.585 134.492 370.218 131.955C371.051 131.486 371.329 130.452 370.959 129.607C370.496 128.761 369.476 128.479 368.642 128.855C365.678 130.546 362.805 132.613 360.211 135.15C358.358 136.935 356.69 138.907 355.208 140.974C354.652 141.726 354.837 142.853 355.578 143.417C356.227 144.075 357.246 143.887 357.895 143.041Z" fill="black"/>
<path d="M175.829 242.249C172.031 242.719 168.417 242.437 165.082 241.497C163.321 241.028 161.561 240.37 159.893 239.43C159.244 239.055 158.41 239.243 157.855 239.712C157.762 239.806 157.577 239.994 157.484 240.182C157.021 241.028 157.391 242.155 158.225 242.531C160.078 243.47 162.117 244.316 164.062 244.785C167.861 245.819 171.845 246.101 176.107 245.631C177.034 245.537 177.775 244.692 177.682 243.658C177.59 242.907 176.756 242.155 175.829 242.249Z" fill="black"/>
<path d="M348.814 177.144C349.741 176.956 350.39 176.017 350.204 175.077C350.112 174.325 349.926 173.668 349.834 172.916C349.185 168.125 349.556 163.24 350.76 158.355C351.038 157.415 350.39 156.476 349.463 156.194C348.814 156.006 348.258 156.194 347.795 156.664C347.61 156.851 347.425 157.133 347.332 157.509C346.035 162.864 345.664 168.219 346.405 173.386C346.498 174.138 346.591 174.983 346.776 175.735C346.961 176.674 347.888 177.332 348.814 177.144Z" fill="black"/>
<path d="M335.287 200.161C329.542 199.597 323.891 198.752 318.146 197.812C317.59 197.718 317.034 197.906 316.664 198.282C316.386 198.564 316.2 198.846 316.108 199.315C315.922 200.255 316.571 201.194 317.59 201.288C323.427 202.228 329.079 203.073 334.916 203.637C335.843 203.731 336.77 202.979 336.862 202.04C336.955 201.1 336.214 200.255 335.287 200.161Z" fill="black"/>
<path d="M493.818 193.209C489.371 196.591 484.553 199.785 479.457 202.697C479.364 202.791 479.179 202.885 479.086 202.979C478.53 203.543 478.345 204.388 478.808 205.14C479.271 205.986 480.383 206.267 481.217 205.798C486.406 202.791 491.409 199.597 496.042 196.121C496.783 195.557 496.968 194.43 496.412 193.679C495.671 192.739 494.559 192.645 493.818 193.209Z" fill="black"/>
<path d="M463.891 210.213C460.092 211.81 456.108 213.313 452.124 214.535C450.641 215.004 449.159 215.474 447.676 215.944C447.398 216.038 447.12 216.132 446.935 216.32C446.472 216.789 446.287 217.447 446.472 218.105C446.75 219.044 447.676 219.608 448.603 219.326C450.178 218.856 451.661 218.386 453.143 217.917C457.22 216.601 461.297 215.098 465.188 213.501C466.115 213.125 466.485 212.092 466.115 211.153C465.837 210.307 464.817 209.837 463.891 210.213Z" fill="black"/>
<path d="M403.11 131.298C398.755 127.352 392.732 124.909 386.061 124.628C385.598 124.628 385.135 124.815 384.764 125.097C384.486 125.379 384.208 125.849 384.208 126.319C384.116 127.258 384.857 128.104 385.876 128.198C391.713 128.479 396.995 130.546 400.701 133.928C401.442 134.586 402.461 134.492 403.202 133.834C403.944 133.083 403.851 131.955 403.11 131.298Z" fill="black"/>
<path d="M517.816 168.125C517.723 168.219 517.63 168.313 517.63 168.407C514.48 173.104 510.774 177.52 506.79 181.747C506.141 182.405 506.141 183.532 506.79 184.284C507.438 184.941 508.643 184.941 509.291 184.284C513.461 179.962 517.26 175.265 520.503 170.474C521.058 169.628 520.873 168.595 520.039 168.031C519.298 167.467 518.371 167.561 517.816 168.125Z" fill="black"/>
<path d="M396.995 219.232C394.586 218.668 392.177 218.105 389.86 217.353C386.803 216.414 383.838 215.098 380.965 213.689C380.317 213.313 379.483 213.501 379.02 213.971C378.834 214.065 378.742 214.253 378.649 214.441C378.186 215.286 378.556 216.414 379.39 216.79C382.448 218.293 385.598 219.608 388.748 220.641C391.157 221.393 393.659 222.145 396.161 222.614C397.087 222.802 398.014 222.238 398.199 221.299C398.477 220.36 397.921 219.42 396.995 219.232Z" fill="black"/>
<path d="M399.682 180.15C398.94 179.586 397.828 179.774 397.273 180.526C394.03 184.941 389.86 188.793 384.95 191.8C384.857 191.894 384.764 191.987 384.672 192.081C384.116 192.645 383.93 193.585 384.394 194.242C384.857 195.088 385.969 195.37 386.803 194.806C392.177 191.518 396.624 187.478 400.145 182.687C400.608 181.841 400.423 180.808 399.682 180.15Z" fill="black"/>
<path d="M371.329 199.409C371.051 198.47 370.125 197.906 369.198 198.094C367.067 198.658 364.844 199.127 362.527 199.503C360.118 196.779 357.987 193.866 356.134 190.86C355.671 190.015 354.559 189.733 353.725 190.296C353.633 190.39 353.54 190.484 353.447 190.578C352.891 191.142 352.706 192.081 353.169 192.739C354.652 195.276 356.412 197.812 358.358 200.161C356.412 200.349 354.374 200.537 352.243 200.631C351.316 200.725 350.575 201.476 350.575 202.51C350.668 203.449 351.409 204.201 352.428 204.201C355.393 204.013 358.358 203.731 361.137 203.355C362.249 204.482 363.361 205.61 364.473 206.643C365.214 207.301 366.233 207.207 366.975 206.549C367.623 205.798 367.531 204.67 366.882 204.013C366.419 203.543 365.863 203.073 365.4 202.603C366.975 202.322 368.457 201.946 369.94 201.57C371.051 201.382 371.607 200.443 371.329 199.409Z" fill="black"/>
<path d="M408.576 146.611C408.113 146.611 407.742 146.799 407.464 147.081C407.094 147.457 406.909 147.926 406.909 148.396C407.094 151.778 406.723 155.63 405.797 159.764C405.426 161.643 404.963 163.428 404.407 165.213C404.129 166.152 404.685 167.092 405.611 167.373C406.538 167.655 407.464 167.092 407.742 166.152C408.298 164.367 408.762 162.394 409.132 160.421C410.059 156.006 410.429 151.872 410.244 148.114C410.337 147.363 409.503 146.611 408.576 146.611Z" fill="black"/>
<path d="M430.906 219.796C425.069 220.735 419.324 221.111 413.858 221.111C413.394 221.111 412.931 221.299 412.653 221.581C412.283 221.862 412.097 222.332 412.097 222.802C412.097 223.741 412.839 224.587 413.858 224.587C419.51 224.681 425.439 224.211 431.462 223.272C432.389 223.084 433.037 222.238 432.944 221.299C432.759 220.265 431.833 219.608 430.906 219.796Z" fill="black"/>
<path d="M149.145 219.984L151.832 222.896C152.666 223.835 153.592 225.057 154.89 225.245C155.445 225.339 156.094 224.963 156.279 224.399C157.299 220.829 158.318 217.259 159.337 213.689C159.43 213.501 159.43 213.219 159.43 213.031C159.43 212.938 159.522 212.938 159.522 212.844C159.615 212.186 159.059 211.34 158.41 211.34C156.094 211.153 153.778 211.34 151.461 211.716C150.257 211.904 149.145 212.186 147.94 212.374C147.477 212.468 146.921 212.656 146.458 212.75C145.809 212.844 145.068 212.938 144.698 213.595C143.771 214.91 145.531 216.226 146.365 217.071C147.199 217.917 148.126 218.95 149.145 219.984ZM149.145 214.723C150.072 214.535 151.091 214.347 152.11 214.159C153.592 213.971 155.075 213.877 156.557 213.877C155.816 216.414 155.075 219.044 154.334 221.581C153.963 221.205 153.685 220.829 153.314 220.547C152.573 219.796 151.832 219.044 151.183 218.293L148.96 215.944C148.682 215.662 148.404 215.38 148.126 215.098C148.404 214.91 148.774 214.816 149.145 214.723Z" fill="#59C59F"/>
<path d="M284.883 202.979C283.679 202.885 282.567 202.791 281.362 202.791C280.899 202.791 280.343 202.791 279.787 202.791C279.139 202.791 278.397 202.697 277.842 203.167C276.637 204.201 278.027 205.892 278.583 206.925C279.324 208.146 279.973 209.368 280.621 210.589L282.567 214.065C283.215 215.192 283.771 216.602 284.976 217.071C285.532 217.259 286.273 217.165 286.551 216.602C288.404 213.407 290.257 210.213 292.11 207.019C292.203 206.831 292.296 206.643 292.296 206.361C292.296 206.361 292.388 206.267 292.388 206.173C292.666 205.516 292.296 204.67 291.647 204.388C289.516 203.637 287.2 203.261 284.883 202.979ZM285.347 213.407C285.069 212.938 284.883 212.562 284.605 212.092C284.142 211.153 283.586 210.307 283.03 209.368L281.455 206.455C281.27 206.079 281.084 205.704 280.806 205.422C281.177 205.422 281.548 205.516 281.918 205.516C282.937 205.516 283.957 205.61 284.883 205.704C286.366 205.798 287.848 206.079 289.331 206.455C288.033 208.804 286.644 211.153 285.347 213.407Z" fill="#59C59F"/>
<path d="M399.311 117.394C400.33 117.018 401.442 116.454 402.368 115.609C403.573 114.481 404.129 113.072 404.592 111.851C404.963 110.817 405.241 109.502 405.241 108.187C405.148 106.872 404.685 105.462 403.573 104.429C401.257 102.268 398.199 102.644 395.883 103.771C393.566 104.993 391.528 107.247 391.157 109.878C390.787 112.696 392.269 115.515 394.586 117.112C395.049 117.488 395.697 117.769 396.439 117.863C397.643 118.051 398.662 117.676 399.311 117.394ZM396.161 114.763C394.678 113.73 393.752 111.945 393.937 110.254C394.122 108.845 395.327 107.247 397.087 106.308C398.848 105.462 400.515 105.462 401.72 106.496C402.183 106.872 402.461 107.529 402.461 108.375C402.461 109.126 402.276 109.972 401.998 110.911C401.627 111.945 401.164 112.884 400.515 113.448C399.959 113.918 399.218 114.293 398.292 114.669C397.55 114.951 397.18 115.045 396.809 115.045C396.624 115.045 396.439 114.951 396.161 114.763Z" fill="#F7C300"/>
<path d="M518.742 185.975C516.426 187.196 514.387 189.451 514.017 192.081C513.646 194.9 515.129 197.718 517.445 199.315C517.908 199.691 518.557 199.973 519.298 200.067C520.41 200.255 521.522 199.785 522.17 199.597C523.189 199.221 524.301 198.658 525.228 197.812C526.432 196.685 526.988 195.276 527.452 194.054C527.822 193.021 528.1 191.706 528.1 190.39C528.007 189.075 527.544 187.666 526.432 186.632C524.116 184.472 521.058 184.753 518.742 185.975ZM525.32 190.484C525.32 191.236 525.135 192.081 524.857 193.021C524.487 194.054 524.023 194.994 523.375 195.557C522.819 196.027 522.078 196.403 521.151 196.779C520.41 197.061 520.039 197.155 519.669 197.155C519.483 197.155 519.205 196.967 518.927 196.779C517.445 195.745 516.518 193.96 516.704 192.269C516.889 190.86 518.094 189.263 519.854 188.323C521.614 187.478 523.282 187.478 524.487 188.511C525.043 189.075 525.32 189.733 525.32 190.484Z" fill="black"/>
<path d="M415.34 161.455C413.024 171.789 408.02 181.277 400.886 188.981C399.682 190.296 401.535 192.363 402.739 191.048C410.244 183.062 415.618 173.104 418.027 162.3C418.398 160.609 415.711 159.67 415.34 161.455Z" fill="#F7C300"/>
<path d="M248.1 188.793C240.317 191.518 232.997 195.37 226.326 200.349C224.936 201.382 226.326 203.825 227.716 202.791C234.109 197.906 241.243 194.148 248.748 191.518C250.509 190.86 249.767 188.136 248.1 188.793Z" fill="#F7C300"/>
<path d="M134.32 94.4708C129.502 84.2306 124.221 74.1783 119.218 64.0321C117.272 60.3682 115.419 56.7982 113.473 53.1343C112.454 51.3493 111.435 49.4703 109.767 48.249C108.099 47.1217 106.153 46.8398 104.208 46.558C99.9457 45.8064 95.6836 44.773 91.6068 43.2699C87.6227 41.8607 83.5459 40.0757 79.2838 40.4515C75.763 40.7333 72.5201 42.5183 69.4625 44.3033C64.4592 47.1217 59.3632 49.9401 54.3599 52.7585C40.1838 60.7439 25.8224 68.8234 13.2215 79.1575C9.60799 82.0698 9.97861 84.8882 11.6464 88.928C16.0011 99.7318 22.3016 109.596 28.5094 119.367C34.7172 128.949 39.7206 139.095 45.1871 149.148C46.6696 151.872 48.2447 154.691 49.7272 157.415C55.5644 168.125 61.5869 179.117 69.3698 193.772L82.3414 218.668C82.6194 219.138 82.99 219.42 83.4532 219.608H83.6386L83.7312 219.702C84.0092 220.078 84.7504 220.735 85.8623 220.078C96.5175 214.065 107.173 208.052 117.921 202.134C126.537 197.342 135.154 192.269 143.864 187.572C148.218 185.129 152.666 182.781 157.113 180.526C159.43 179.399 161.746 178.177 164.062 177.144C165.174 176.674 167.583 176.11 167.49 174.513C167.305 171.977 163.97 173.292 162.672 173.856C141.733 183.72 121.719 195.557 101.521 206.831C96.2395 209.743 91.0509 212.75 85.7696 215.662L85.3063 215.944L85.0284 215.38C77.3381 201.006 71.5009 190.202 65.7563 179.774C60.1044 169.346 54.1746 158.542 46.4843 144.169L37.6822 127.634C32.4009 117.864 25.7298 108.939 20.2632 99.1681C17.9469 94.9405 15.8158 90.7129 13.9627 86.2035C12.8509 83.3851 14.0554 82.6335 16.0938 81.0364C17.2056 80.1909 18.3175 79.3454 19.4293 78.4999C28.2315 71.8297 37.7748 65.8171 47.5961 60.7439C57.6028 55.4829 67.3314 49.7522 77.2454 44.3972C79.6544 49.7522 82.3414 54.9192 85.3063 59.8984C85.6769 60.556 86.1402 61.3076 86.8814 61.4955C87.7153 61.6834 88.4566 61.3076 89.1978 60.8379C94.757 57.5498 100.594 54.4495 106.431 51.819C106.802 51.6311 107.265 51.4432 107.729 51.6311C108.192 51.819 108.377 52.1948 108.655 52.5706C120.422 74.1783 130.985 96.2558 141.362 118.615C148.311 133.553 155.816 148.208 163.228 162.864C163.692 163.71 164.433 164.743 165.359 164.555C166.193 164.461 166.657 163.616 166.657 162.77C166.657 161.925 166.286 161.173 165.823 160.515C159.985 149.618 154.334 138.626 149.052 127.446C143.956 116.736 139.509 105.463 134.32 94.4708ZM100.131 50.7856C96.2395 52.6645 92.4407 54.7314 88.6419 56.8921L88.1786 57.174L87.9006 56.7042C85.8623 53.1343 83.9165 49.4703 82.0634 45.7125L81.5075 44.5851L82.712 44.9609C88.1786 46.558 94.0158 48.1551 99.9457 49.7522L101.428 50.128L100.131 50.7856Z" fill="black"/>
<path d="M5.16064 77.5604C6.27248 76.9028 7.38433 76.2452 8.58883 75.5875C10.9052 74.2723 13.3142 73.051 15.7232 71.9236C17.9469 70.8902 16.4644 67.4142 14.3334 68.4476C11.5538 69.8568 8.77414 71.266 5.99452 72.8631C4.69737 73.6147 3.12225 74.3662 2.01041 75.3057C0.898558 76.2452 0.342635 77.5604 0.157327 78.9696C-0.769212 85.1701 2.56633 90.8069 5.71656 95.88C6.27249 96.7255 7.66229 96.8195 8.40353 96.2558C9.33006 95.5982 9.33006 94.4708 8.77414 93.6253C6.27249 89.5856 3.30756 84.8883 3.86348 79.9091C3.86348 78.6878 4.14144 78.218 5.16064 77.5604Z" fill="black"/>
<path d="M141.918 196.309C143.956 195.088 142.289 191.8 140.25 192.927C131.819 197.718 123.387 202.51 114.956 207.301C112.917 208.522 114.585 211.81 116.623 210.683C124.962 205.892 133.394 201.1 141.918 196.309Z" fill="black"/>
<path d="M109.582 4.09402C109.582 3.53034 109.119 2.87272 108.563 2.77877C104.856 2.02719 101.15 1.36957 97.4441 0.617995C97.2588 0.617995 96.9808 0.617995 96.7955 0.617995C96.7029 0.617995 96.7029 0.524048 96.6102 0.524048C95.9616 0.524048 95.2204 1.08773 95.3131 1.8393C95.4984 4.18797 96.0543 6.53664 96.7955 8.79136C97.1661 9.91872 97.6294 11.14 98.0927 12.2674C98.278 12.7371 98.4633 13.3008 98.6486 13.7705C98.9266 14.4282 99.1119 15.0858 99.8531 15.4616C101.336 16.3071 102.262 14.4282 103.003 13.4887C103.837 12.4553 104.671 11.3279 105.505 10.2945L107.914 7.28821C108.563 6.44269 109.582 5.50322 109.582 4.09402ZM105.227 6.16085C104.578 7.00637 103.93 7.75794 103.374 8.60346L101.428 11.0461C101.15 11.3279 100.965 11.7037 100.687 11.9855C100.594 11.6098 100.409 11.234 100.316 10.8582C99.9458 9.91872 99.5752 8.97925 99.2972 7.94584C98.8339 6.44269 98.4633 4.93954 98.1853 3.53034C100.872 4.00008 103.559 4.56376 106.246 5.03349C105.876 5.40928 105.505 5.78506 105.227 6.16085Z" fill="#1E1E1E"/>
<path d="M123.202 15.8378C124.499 15.7438 125.889 15.6499 127.186 15.556L130.985 15.3681C132.189 15.2741 133.579 15.462 134.598 14.5225C134.969 14.1468 135.154 13.3952 134.876 12.8315C132.931 9.54341 130.892 6.2553 128.946 2.96719C128.854 2.7793 128.668 2.59141 128.483 2.49746C128.483 2.40352 128.391 2.40352 128.391 2.30957C127.927 1.7459 127.001 1.65195 126.537 2.12168C124.962 3.81271 123.573 5.78557 122.461 7.94633C121.905 8.97973 121.349 10.1071 120.793 11.2344C120.515 11.7042 120.33 12.1739 120.052 12.6436C119.774 13.3012 119.403 13.8649 119.588 14.7104C120.052 16.4015 122.09 15.8378 123.202 15.8378ZM123.48 11.986C123.943 11.0465 124.406 10.201 124.87 9.26157C125.611 7.94633 126.445 6.63109 127.371 5.50373C128.761 7.85238 130.244 10.201 131.633 12.5497C131.17 12.5497 130.707 12.5497 130.244 12.6436C129.224 12.7376 128.205 12.7376 127.186 12.8315L124.036 13.0194C123.665 13.0194 123.295 13.0194 122.831 13.1134C123.109 12.6436 123.295 12.3618 123.48 11.986Z" fill="#59C59F"/>
<path d="M35.6438 207.771L37.9602 210.965C38.7014 211.998 39.4426 213.313 40.6471 213.689C41.203 213.783 41.9443 213.595 42.1296 213.032C43.6121 209.65 45.0945 206.267 46.577 202.791C46.6696 202.604 46.6696 202.322 46.7623 202.134C46.7623 202.04 46.8549 202.04 46.8549 201.946C47.0403 201.288 46.577 200.443 45.9284 200.255C43.6121 199.785 41.2957 199.597 38.9793 199.691C37.7748 199.691 36.663 199.785 35.4585 199.879C34.9952 199.973 34.4393 199.973 33.8834 200.067C33.2348 200.067 32.4936 200.067 32.0303 200.631C30.9184 201.852 32.4936 203.261 33.1421 204.295C33.976 205.516 34.8099 206.643 35.6438 207.771ZM36.2924 202.604C37.3116 202.51 38.2381 202.51 39.2573 202.416C40.7398 202.416 42.2222 202.51 43.7047 202.698C42.5929 205.14 41.5737 207.583 40.4618 210.025C40.1838 209.65 39.9059 209.18 39.6279 208.804C38.9793 207.958 38.4234 207.113 37.7748 206.267L35.8291 203.637C35.5511 203.355 35.3658 202.979 35.0879 202.604C35.5511 202.697 35.9218 202.697 36.2924 202.604Z" fill="#1E1E1E"/>
<path d="M185.836 108.563C186.021 107.435 186.207 106.214 185.929 104.899C185.651 103.584 185.002 102.268 183.798 101.329C181.203 99.5439 178.238 100.202 176.015 101.705C173.884 103.208 172.123 105.744 172.123 108.375C172.123 111.287 173.976 113.824 176.478 115.045C177.034 115.327 177.682 115.515 178.424 115.609C179.536 115.609 180.555 115.045 181.203 114.669C182.13 114.106 183.242 113.448 184.076 112.509C185.187 111.381 185.558 109.878 185.836 108.563ZM183.242 105.369C183.427 106.12 183.334 106.966 183.149 107.999C182.964 109.126 182.593 110.066 182.037 110.724C181.574 111.287 180.833 111.757 179.999 112.227C179.35 112.602 178.887 112.79 178.609 112.79C178.424 112.79 178.146 112.696 177.868 112.509C176.2 111.757 175.181 110.066 175.088 108.375C175.088 106.872 176.107 105.181 177.682 104.053C179.258 102.926 181.018 102.738 182.315 103.678C182.778 103.959 183.056 104.617 183.242 105.369Z" fill="#1E1E1E"/>
<path d="M71.0376 228.439C71.2229 227.311 71.4083 226.09 71.1303 224.775C70.8523 223.46 70.2037 222.144 68.9992 221.205C66.4049 219.42 63.44 220.078 61.2163 221.581C59.0853 223.084 57.3248 225.62 57.3248 228.251C57.3248 231.163 59.1779 233.7 61.6796 234.921C62.2355 235.203 62.8841 235.391 63.6253 235.485C64.7372 235.485 65.7564 234.921 66.4049 234.545C67.3315 233.982 68.4433 233.324 69.2772 232.385C70.2964 231.163 70.7597 229.66 71.0376 228.439ZM68.4433 225.245C68.6286 225.996 68.536 226.842 68.3507 227.875C68.1654 229.002 67.7947 229.942 67.2388 230.6C66.7755 231.163 66.0343 231.633 65.2004 232.103C64.5518 232.479 64.0886 232.666 63.8106 232.666C63.6253 232.666 63.3473 232.572 63.0694 232.385C61.4016 231.633 60.3824 229.942 60.2898 228.251C60.2898 226.748 61.309 225.057 62.8841 223.929C64.4592 222.802 66.2196 222.614 67.5168 223.554C67.8874 223.835 68.258 224.399 68.4433 225.245Z" fill="#F7C300"/>
<path d="M49.9125 96.0679C49.1713 94.3769 47.9668 92.9677 46.4843 92.0282C45.6504 96.6316 44.7239 101.141 43.7047 105.651C43.3341 107.154 42.2222 107.999 40.6471 107.811C39.5353 107.717 38.5161 107.436 37.4969 107.154C36.385 106.872 35.2732 106.402 34.1613 105.932C34.7172 106.684 35.4585 107.436 36.2924 108.093C39.6279 110.536 44.168 110.442 47.2255 107.623C50.2831 104.711 51.5803 100.108 49.9125 96.0679Z" fill="#F7C300"/>
<path d="M33.976 101.047C35.1805 101.799 36.1997 102.268 37.4969 102.738C38.1454 103.02 38.8867 103.208 39.6279 103.302C39.7206 103.302 39.8132 103.302 39.8132 103.302C39.8132 103.208 39.8132 103.114 39.9059 103.114C39.9985 102.55 40.1838 101.987 40.2765 101.329C40.5544 100.202 40.7398 99.0742 41.0177 97.9468C41.481 95.6921 41.9443 93.5313 42.3149 91.2766C42.4075 90.9948 42.5002 90.619 42.5928 90.3372C42.3149 90.2432 41.9443 90.2432 41.6663 90.1493C41.3883 90.1493 41.203 90.1493 40.9251 90.0553C39.4426 89.9614 37.9601 90.3372 36.663 91.0887C34.9026 92.2161 33.8834 94.095 32.8642 95.7861C32.1229 97.0074 31.845 98.0408 31.7523 99.356C31.845 99.8257 31.845 100.295 31.9376 100.671C32.6789 100.577 33.4201 100.671 33.976 101.047Z" fill="#F7C300"/>
<path d="M32.123 100.859C31.7524 101.047 31.3817 101.329 31.1038 101.705C30.4552 102.644 30.7332 104.053 31.7524 104.711C32.4936 105.181 33.3275 105.651 34.1614 106.026C33.0495 104.429 32.4009 102.738 32.123 100.859Z" fill="black"/>
<path d="M46.4844 92.0292C46.4844 91.8412 46.577 91.7472 46.577 91.5593C46.7623 90.4315 45.6505 89.3976 44.6313 89.3037C43.7047 89.2097 43.0562 89.6796 42.6855 90.4315C43.9827 90.7134 45.2799 91.2773 46.4844 92.0292Z" fill="black"/>
<path d="M37.4969 107.154C38.5161 107.435 39.628 107.623 40.6472 107.811C42.2223 107.999 43.3341 107.154 43.7048 105.65C44.8166 101.141 45.7431 96.6315 46.4844 92.0281C45.2799 91.2766 43.9827 90.7129 42.6856 90.431C42.5002 90.7129 42.4076 90.9947 42.4076 91.3705C42.037 93.6252 41.5737 95.88 41.1104 98.0407C40.8325 99.1681 40.6472 100.295 40.3692 101.423C40.2766 101.987 40.0912 102.55 39.9986 103.208C39.9986 103.302 39.9986 103.396 39.9059 103.396C39.8133 103.396 39.8133 103.396 39.7206 103.396C38.9794 103.208 38.3308 103.02 37.5896 102.832C36.2924 102.362 35.1806 101.893 34.0687 101.141C33.5128 100.765 32.7716 100.765 32.123 100.953C32.4936 102.832 33.0495 104.523 34.1614 106.026C35.1806 106.402 36.2924 106.872 37.4969 107.154Z" fill="black"/>
<path d="M75.0218 140.317C74.2806 138.626 73.0761 137.217 71.5936 136.277C70.7597 140.881 69.8332 145.39 68.814 149.899C68.4434 151.403 67.3315 152.248 65.7564 152.06C64.6446 151.966 63.6254 151.684 62.6062 151.403C61.4943 151.121 60.3825 150.651 59.2706 150.181C59.8266 150.933 60.5678 151.684 61.4017 152.342C64.7372 154.785 69.2773 154.691 72.3349 151.872C75.3924 148.96 76.6896 144.263 75.0218 140.317Z" fill="#F7C300"/>
<path d="M59.0853 145.202C60.2898 145.954 61.309 146.423 62.6061 146.893C63.2547 147.175 63.9959 147.363 64.7372 147.457C64.8298 147.457 64.9225 147.457 64.9225 147.457C64.9225 147.363 64.9225 147.269 65.0151 147.269C65.1078 146.705 65.2931 146.141 65.3857 145.484C65.6637 144.356 65.849 143.229 66.127 142.102C66.5902 139.847 67.0535 137.686 67.4241 135.432C67.5168 135.15 67.6094 134.774 67.7021 134.492C67.4241 134.398 67.0535 134.398 66.7755 134.304C66.4976 134.304 66.3123 134.304 66.0343 134.21C64.5519 134.116 63.0694 134.492 61.7722 135.244C60.0118 136.371 58.9926 138.25 57.9734 139.941C57.2322 141.162 56.9542 142.196 56.8616 143.511C56.9542 143.981 56.9542 144.45 57.0469 144.826C57.7881 144.826 58.4367 144.826 59.0853 145.202Z" fill="#F7C300"/>
<path d="M57.1396 145.014C56.7689 145.202 56.3983 145.484 56.1204 145.86C55.4718 146.799 55.7498 148.208 56.7689 148.866C57.5102 149.336 58.344 149.805 59.1779 150.181C58.1587 148.678 57.5102 146.893 57.1396 145.014Z" fill="black"/>
<path d="M71.5936 136.184C71.5936 135.996 71.6863 135.902 71.6863 135.714C71.8716 134.587 70.7597 133.553 69.7405 133.459C68.814 133.365 68.1654 133.835 67.7948 134.587C69.092 134.869 70.3891 135.432 71.5936 136.184Z" fill="black"/>
<path d="M62.5135 151.403C63.5327 151.684 64.6445 151.872 65.6637 152.06C67.2388 152.248 68.3507 151.403 68.7213 149.899C69.8331 145.39 70.7597 140.881 71.5009 136.277C70.2964 135.526 68.9993 134.962 67.7021 134.68C67.5168 134.962 67.4242 135.244 67.4242 135.62C67.0535 137.874 66.5903 140.129 66.127 142.29C65.849 143.417 65.6637 144.544 65.3858 145.672C65.2931 146.236 65.1078 146.799 65.0152 147.457C65.0152 147.551 65.0152 147.645 64.9225 147.645C64.8298 147.645 64.8298 147.645 64.7372 147.645C63.996 147.457 63.3474 147.269 62.6062 147.081C61.309 146.611 60.1972 146.142 59.0853 145.39C58.5294 145.014 57.7882 145.014 57.1396 145.202C57.5102 147.081 58.0661 148.772 59.178 150.275C60.2898 150.651 61.4017 151.027 62.5135 151.403Z" fill="black"/>
<path d="M99.6678 183.532C98.9266 181.841 97.7221 180.432 96.2396 179.493C95.4057 184.096 94.4792 188.605 93.46 193.115C93.0894 194.618 91.9775 195.464 90.4024 195.276C89.2906 195.182 88.2714 194.9 87.2522 194.618C86.1403 194.336 85.0285 193.866 83.9166 193.397C84.4726 194.148 85.2138 194.9 86.0477 195.557C89.3832 198 93.9233 197.906 96.9809 195.088C99.9458 192.175 101.336 187.572 99.6678 183.532Z" fill="#F7C300"/>
<path d="M83.7313 188.511C84.9358 189.263 85.955 189.733 87.2522 190.202C87.9008 190.484 88.642 190.672 89.3832 190.766C89.4759 190.766 89.5685 190.766 89.5685 190.766C89.5685 190.672 89.5685 190.578 89.6612 190.578C89.7538 190.015 89.9391 189.451 90.0318 188.793C90.3098 187.666 90.4951 186.539 90.773 185.411C91.2363 183.157 91.6996 180.996 92.0702 178.741C92.1628 178.459 92.2555 178.083 92.3481 177.802C92.0702 177.708 91.6996 177.708 91.4216 177.614C91.1436 177.614 90.9583 177.614 90.6804 177.52C89.1979 177.426 87.7154 177.802 86.4183 178.553C84.6579 179.681 83.6387 181.559 82.6195 183.25C81.8782 184.472 81.6003 185.505 81.5076 186.82C81.6003 187.29 81.6003 187.76 81.6929 188.136C82.4342 188.136 83.0827 188.136 83.7313 188.511Z" fill="#F7C300"/>
<path d="M81.7855 188.324C81.4149 188.511 81.0443 188.793 80.7663 189.169C80.1177 190.109 80.3957 191.518 81.4149 192.175C82.1561 192.645 82.99 193.115 83.8239 193.491C82.8047 191.894 82.1561 190.203 81.7855 188.324Z" fill="black"/>
<path d="M96.1469 179.494C96.1469 179.306 96.2396 179.212 96.2396 179.024C96.4249 177.896 95.313 176.862 94.2938 176.768C93.3673 176.674 92.7187 177.144 92.3481 177.896C93.7379 178.178 95.0351 178.742 96.1469 179.494Z" fill="black"/>
<path d="M87.1595 194.618C88.1787 194.9 89.2905 195.088 90.3097 195.276C91.8848 195.464 92.9967 194.618 93.3673 193.115C94.4791 188.605 95.4057 184.096 96.1469 179.493C94.9424 178.741 93.6453 178.177 92.3481 177.896C92.1628 178.177 92.0701 178.459 92.0701 178.835C91.6995 181.09 91.2362 183.344 90.773 185.505C90.495 186.633 90.3097 187.76 90.0317 188.887C89.9391 189.451 89.7538 190.015 89.6611 190.672C89.6611 190.766 89.6611 190.86 89.5685 190.86C89.4758 190.86 89.4758 190.86 89.3832 190.86C88.6419 190.672 87.9934 190.484 87.2521 190.297C85.955 189.827 84.8431 189.357 83.7313 188.605C83.1753 188.23 82.4341 188.23 81.7855 188.418C82.1561 190.297 82.7121 191.988 83.8239 193.491C84.9358 193.96 86.0476 194.336 87.1595 194.618Z" fill="black"/>
<path d="M72.0569 64.9714C64.1813 69.7627 56.213 74.1782 47.9668 78.124C45.8358 79.1574 47.5036 82.5395 49.6346 81.506C57.8808 77.4663 65.9417 73.0508 73.7246 68.3535C75.763 67.1322 74.0953 63.7501 72.0569 64.9714Z" fill="black"/>
<path d="M100.872 58.865C84.4724 67.8839 67.98 76.8089 51.4876 85.6399C49.3566 86.7673 51.0243 90.1494 53.1554 89.022C69.7404 80.2849 86.1402 71.36 102.54 62.2471C104.671 61.0258 103.003 57.7377 100.872 58.865Z" fill="black"/>
<path d="M92.904 74.9299C81.0443 81.2243 69.0919 87.143 56.8616 92.6858C54.6379 93.6253 56.3983 97.0073 58.5294 96.0679C70.7597 90.525 82.7121 84.6064 94.5718 78.312C96.7028 77.1846 95.0351 73.8025 92.904 74.9299Z" fill="black"/>
<path d="M108.007 65.7231C105.134 67.2263 102.262 68.7294 99.3898 70.2326C98.5559 70.7023 98.0926 71.8297 98.5559 72.7691C99.0192 73.6147 100.131 74.0844 101.058 73.6146C103.93 72.1115 106.802 70.6084 109.674 69.1052C110.508 68.6355 110.972 67.5081 110.508 66.5686C110.045 65.7231 108.933 65.2534 108.007 65.7231Z" fill="black"/>
<path d="M71.1303 96.0679C67.3315 97.1952 63.6253 98.8862 60.1971 100.953C59.3633 101.423 58.9 102.55 59.3633 103.49C59.8265 104.335 60.9384 104.899 61.8649 104.335C65.0152 102.362 68.4434 100.765 71.8716 99.7318C72.7981 99.4499 73.5394 98.6044 73.354 97.477C73.0761 96.6315 72.1495 95.786 71.1303 96.0679Z" fill="black"/>
<path d="M104.949 77.8423C95.5909 82.7275 86.3255 87.7066 76.9675 92.5918C74.8364 93.7192 76.5042 97.1013 78.6352 95.9739C87.9933 91.0887 97.2587 86.1095 106.617 81.2243C108.748 80.097 107.08 76.7149 104.949 77.8423Z" fill="black"/>
<path d="M99.3898 117.582C92.1628 121.246 84.8431 124.722 77.4307 127.916C75.207 128.855 76.9675 132.237 79.0985 131.298C86.5109 128.104 93.8305 124.628 101.058 120.964C103.189 119.836 101.521 116.454 99.3898 117.582Z" fill="black"/>
<path d="M129.688 110.63C113.751 118.615 97.9073 126.507 81.9708 134.398C79.8398 135.432 81.5075 138.814 83.6386 137.78C99.5751 129.889 115.512 121.997 131.355 114.012C133.486 112.884 131.819 109.596 129.688 110.63Z" fill="black"/>
<path d="M107.451 130.922C100.131 134.586 92.7188 138.156 85.3991 141.82C83.2681 142.853 84.9358 146.235 87.0669 145.202C94.3865 141.538 101.799 137.968 109.119 134.304C111.25 133.177 109.582 129.889 107.451 130.922Z" fill="black"/>
<path d="M125.796 121.809C121.812 123.782 117.828 125.755 113.844 127.634C112.917 128.104 112.547 129.231 113.01 130.171C113.473 131.11 114.585 131.392 115.512 131.016C119.496 129.043 123.48 127.07 127.464 125.191C128.391 124.722 128.761 123.594 128.298 122.655C127.835 121.715 126.723 121.34 125.796 121.809Z" fill="black"/>
<path d="M117.087 160.421C111.62 163.24 106.246 165.964 100.78 168.783C98.6486 169.91 100.316 173.198 102.447 172.165C107.914 169.346 113.288 166.622 118.755 163.803C120.886 162.676 119.218 159.388 117.087 160.421Z" fill="black"/>
<path d="M145.161 155.254C131.819 162.112 118.384 168.783 104.949 175.359C102.818 176.392 104.486 179.774 106.617 178.741C120.052 172.165 133.487 165.495 146.829 158.636C148.96 157.509 147.292 154.221 145.161 155.254Z" fill="black"/>
<path d="M123.665 176.204C119.125 178.553 114.492 180.808 109.952 183.156C107.821 184.19 109.489 187.572 111.62 186.539C116.16 184.19 120.793 181.935 125.333 179.587C127.464 178.459 125.796 175.171 123.665 176.204Z" fill="black"/>
<path d="M135.247 170.192C133.487 170.943 131.726 171.789 130.058 172.728C129.224 173.198 128.761 174.326 129.224 175.265C129.688 176.111 130.8 176.58 131.726 176.111C133.394 175.171 135.154 174.326 136.915 173.574C137.841 173.198 138.212 171.883 137.749 171.037C137.285 170.098 136.266 169.816 135.247 170.192Z" fill="black"/>
<path d="M154.797 160.233C150.535 162.394 146.365 164.461 142.103 166.622C139.972 167.655 141.64 171.037 143.771 170.004C148.033 167.843 152.203 165.776 156.465 163.616C158.596 162.488 156.928 159.106 154.797 160.233Z" fill="black"/>
<path d="M123.758 138.72C106.431 147.926 89.0125 156.945 71.4083 165.776C69.2772 166.81 70.945 170.192 73.076 169.158C90.5876 160.327 108.099 151.402 125.426 142.102C127.464 140.974 125.796 137.592 123.758 138.72Z" fill="#59C59F"/>
<path d="M99.4825 98.2286C82.2488 106.966 65.1078 115.797 47.9668 124.816C45.8358 125.943 47.5036 129.325 49.6346 128.198C66.7756 119.179 83.9166 110.348 101.15 101.611C103.281 100.483 101.614 97.1012 99.4825 98.2286Z" fill="#59C59F"/>
</svg>
