<svg width="73" height="112" viewBox="0 0 73 112" fill="none" xmlns="http://www.w3.org/2000/svg">
<path d="M59.9762 40.1646C59.8772 39.3522 59.2834 38.6414 58.5906 38.2352C58.4917 37.829 58.1948 37.4228 57.7989 37.3213C57.403 37.2197 57.0072 37.3213 56.8092 37.6259C56.8092 37.6259 56.8093 37.6259 56.7103 37.6259C56.7103 37.6259 56.7103 37.6259 56.8092 37.6259C56.7103 37.6259 56.6113 37.6259 56.4134 37.7275C56.2155 37.7275 56.0175 37.829 55.8196 37.9306C55.5227 38.0321 55.2258 38.3368 55.0279 38.5399C54.4341 39.1491 54.1372 39.9615 54.0382 40.7739C53.8403 42.6017 55.7206 43.5157 57.2051 43.4141C57.9969 43.3126 58.5906 43.1095 59.1844 42.6017C59.9762 41.9925 60.1741 41.0785 59.9762 40.1646Z" fill="#F7C300"/>
<path d="M57.601 10.1067C57.2051 8.27885 56.6113 6.451 56.0175 4.7247C55.7206 3.81078 55.4237 2.9984 55.0279 2.08447C54.3351 0.256625 53.8403 0.0535303 52.0589 0.459719C50.0796 0.865908 47.9023 0.967455 45.923 1.17055C42.5582 1.47519 39.1934 1.77983 35.8286 2.08447C34.641 2.18602 33.1565 2.08447 32.5627 3.50613C32.1668 4.52161 32.8596 5.84172 33.0575 6.85719C34.6409 14.6763 35.9275 22.4955 36.7192 30.4161C36.9172 31.9393 36.4223 34.7827 38.0058 35.595C38.3027 35.6966 38.5996 35.7981 38.7975 35.8997C40.282 36.2043 42.6572 36.6105 43.7458 35.1889C44.8344 33.7672 44.7354 31.6347 45.0323 29.9084C45.5272 27.6744 46.3189 25.5419 46.9127 23.3078C47.6054 20.9723 47.8034 18.8398 48.0013 16.5042C48.4961 16.7073 48.991 16.8088 49.4858 16.9104C51.5641 17.215 53.7413 17.4181 55.8196 17.5196C56.3144 17.5196 56.8093 17.5196 57.2051 17.4181C59.5803 16.5042 57.9968 11.7315 57.601 10.1067Z" fill="#F7C300"/>
<path d="M68.7841 23.3078C66.3099 31.9393 64.1327 40.5708 62.1534 49.3039C56.2155 46.4606 49.5848 45.242 43.053 45.8513C45.2303 36.4074 47.4075 27.0651 49.6837 17.6212C56.3144 18.2305 62.8461 19.6521 69.1799 21.8862C70.3675 22.2924 70.8623 20.363 69.6748 19.9568C63.0441 17.6212 56.2155 16.098 49.2879 15.5902C49.2879 15.5902 49.2879 15.5902 49.1889 15.5902C48.6941 15.4887 48.1992 15.5902 48.0013 16.3011C45.6261 26.3542 43.251 36.509 40.8758 46.5621V46.6637C40.6779 47.273 40.8758 48.0853 41.7665 47.9838C48.892 47.0699 56.0175 48.2884 62.4503 51.5379C63.242 51.9441 63.9348 51.2333 63.9348 50.624V50.5225C65.9141 41.4848 68.1903 32.5486 70.7634 23.714C71.0603 22.597 69.1799 22.0893 68.7841 23.3078Z" fill="#1E1E1E"/>
<path d="M64.3306 24.628C60.0751 23.0033 55.5227 22.1909 51.0692 22.0894C49.7827 22.0894 49.7827 24.1203 51.0692 24.1203C55.4237 24.2218 59.7782 25.0342 63.8358 26.659C65.0234 27.0652 65.5182 25.0342 64.3306 24.628Z" fill="#1E1E1E"/>
<path d="M59.3823 28.385C56.4133 27.5726 53.4444 26.9633 50.3764 26.7602C49.8816 26.6587 49.3868 27.268 49.3868 27.7757C49.3868 28.385 49.8816 28.6896 50.3764 28.7912C53.2464 29.0958 56.0175 29.6035 58.7885 30.4159C60.0751 30.619 60.5699 28.6896 59.3823 28.385Z" fill="#1E1E1E"/>
<path d="M54.731 32.2439C54.632 32.0408 54.4341 31.8377 54.1372 31.7361C52.8506 31.2284 51.4651 30.9238 50.0796 31.0253C49.5847 31.0253 49.0899 31.4315 49.0899 32.0408C49.0899 32.5485 49.4858 33.0563 50.0796 33.0563C50.3765 33.0563 50.7723 33.0563 51.0692 33.0563C51.2671 33.0563 51.3661 33.0563 51.564 33.0563C51.663 33.0563 51.762 33.0563 51.762 33.0563C52.3558 33.1578 53.0485 33.3609 53.6423 33.564C53.8403 33.6655 54.2361 33.564 54.434 33.4624C54.632 33.3609 54.8299 33.0563 54.9289 32.8532C54.9289 32.7516 54.9289 32.447 54.731 32.2439Z" fill="#1E1E1E"/>
<path d="M60.0751 38.6414C59.5803 38.2352 58.9865 38.1337 58.4917 37.9306C57.9968 37.7275 57.403 38.1337 57.3041 38.6414C57.0072 38.5399 56.8093 38.5399 56.5124 38.743C55.5227 39.2507 54.83 40.2662 54.731 41.3832C54.632 42.5002 55.3248 43.6172 56.4134 44.0234C57.502 44.4296 58.7886 44.125 59.6793 43.4142C60.0751 43.1095 60.471 42.7033 60.7679 42.1956C61.0648 41.6878 61.3617 41.1801 61.2627 40.5708C61.1637 39.7585 60.6689 39.0476 60.0751 38.6414ZM59.6793 40.5708C59.6793 40.7739 59.6793 40.977 59.5803 41.1801C59.5803 41.2817 59.4813 41.2817 59.4813 41.3832L59.3824 41.4848L59.2834 41.5863C59.1844 41.6879 59.0855 41.7894 58.9865 41.8909C58.8875 41.8909 58.8875 41.9925 58.7886 41.9925C58.6896 41.9925 58.6896 42.094 58.5906 42.094C58.4917 42.1956 58.2938 42.2971 58.1948 42.3987C57.9969 42.5002 57.8979 42.5002 57.7 42.6018C57.502 42.7033 57.2051 42.7033 57.0072 42.7033C56.7103 42.6018 56.4134 42.2971 56.3144 41.9925C56.3144 41.7894 56.3144 41.5863 56.3144 41.3832C56.3144 41.2817 56.4134 41.1801 56.4134 41.0786C56.4134 41.0786 56.4134 40.977 56.5124 40.977L56.6113 40.8755C56.7103 40.7739 56.9082 40.5708 57.0072 40.4693C57.2051 40.3677 57.3041 40.2662 57.502 40.1646C57.6999 39.9615 57.8979 39.7585 57.9968 39.4538V39.3523C58.2937 39.4538 58.4917 39.5554 58.7886 39.6569H58.8875H58.9865C59.1844 39.6569 59.4813 39.86 59.5803 40.0631C59.5803 40.1646 59.6793 40.2662 59.6793 40.2662C59.6793 40.4693 59.6793 40.4693 59.6793 40.5708Z" fill="#1E1E1E"/>
<path d="M0.00299072 77.2293C0.00299072 76.62 0.398853 76.2138 0.992646 76.1123C1.58644 76.0107 2.08128 76.5185 2.18024 77.1278C2.18024 77.3309 2.18025 77.534 2.27922 77.7371C2.77404 79.3618 3.56574 80.5804 4.8523 81.5958C5.34712 82.002 5.34714 82.7129 5.05024 83.2206C4.65438 83.7283 3.96161 83.7283 3.46678 83.4237C1.88334 82.1036 0.794727 80.3773 0.200934 78.3463C0.200934 78.2448 0.200934 78.2448 0.200934 78.1432C0.200934 77.8386 0.101962 77.6355 0.101962 77.3309C0.00299676 77.2293 0.00299072 77.2293 0.00299072 77.2293ZM0.893675 71.0349C0.893675 70.9334 0.893681 70.8318 0.992646 70.6287C1.78437 68.4963 2.97196 66.5669 4.55541 65.0437C4.95127 64.6375 5.64404 64.6375 6.13887 65.0437C6.53473 65.4498 6.53473 66.1607 6.13887 66.6684C4.75335 67.9885 3.76369 69.6133 3.07093 71.4411C2.873 72.0504 2.18024 72.3551 1.68542 72.0504C1.09162 71.9489 0.893675 71.5427 0.893675 71.0349ZM8.51403 85.0485C8.51403 84.9469 8.51403 84.9469 8.51403 84.8454C8.613 84.2361 9.20678 83.8299 9.80057 84.033C11.6809 84.4392 13.6603 84.7438 15.6396 84.8454C16.2334 84.8454 16.7282 85.3531 16.7282 86.0639C16.7282 86.6732 16.2334 87.1809 15.5406 87.1809C13.4623 87.0794 11.384 86.7748 9.30575 86.267C8.90988 86.0639 8.51403 85.5562 8.51403 85.0485ZM9.40472 62.8096C9.40472 62.3019 9.70163 61.8957 10.1965 61.7941C11.483 61.388 12.7696 61.2864 14.1551 61.2864C14.8478 61.2864 15.6396 61.388 16.4313 61.4895H16.5302C16.6292 61.4895 16.8271 61.591 16.9261 61.591C17.5199 61.7941 17.8168 62.4034 17.6189 63.0127C17.4209 63.622 16.8271 63.9266 16.2333 63.7235C16.1344 63.7235 16.0354 63.7235 16.0354 63.622C15.4416 63.5204 14.8478 63.4189 14.1551 63.4189C13.0665 63.4189 11.8789 63.5204 10.8892 63.8251C10.2954 64.0282 9.70162 63.622 9.50369 63.0127C9.40472 63.0127 9.40472 62.9112 9.40472 62.8096ZM8.81092 106.373C8.81092 105.967 9.00885 105.663 9.30575 105.459C11.2851 104.241 12.7696 103.124 14.0561 101.905C14.452 101.499 15.1447 101.499 15.6396 101.905C16.0354 102.311 16.0354 103.022 15.6396 103.53C14.254 104.85 12.6706 106.069 10.5923 107.389C10.0975 107.693 9.40473 107.49 9.10783 106.983C8.81094 106.78 8.81092 106.576 8.81092 106.373ZM17.322 97.7419C17.322 97.5388 17.322 97.4372 17.4209 97.2341C18.3116 95.4063 19.0044 93.5784 19.5982 91.649C19.7961 91.0397 20.3899 90.7351 20.9837 90.9382C21.5775 91.1413 21.8744 91.7506 21.6764 92.3598C21.0826 94.3908 20.2909 96.4217 19.4002 98.3511C19.1033 98.8589 18.5096 99.1635 17.9158 98.8589C17.5199 98.5542 17.223 98.148 17.322 97.7419ZM19.2023 67.2777C19.2023 66.77 19.4992 66.3638 19.994 66.2622C20.5878 66.0591 21.1816 66.3638 21.3796 66.973C21.4785 67.1761 21.4785 67.4808 21.5775 67.6839C22.0723 69.6133 22.4682 71.4411 22.6661 73.269C22.7651 73.8783 22.3692 74.4875 21.7754 74.5891C21.1816 74.6906 20.5878 74.2844 20.4889 73.6752C20.192 71.9489 19.8951 70.121 19.4002 68.3947C19.3013 68.1916 19.3013 67.9885 19.2023 67.7854C19.2023 67.4808 19.2023 67.3792 19.2023 67.2777ZM20.6868 85.6577C20.6868 85.4546 20.7858 85.2515 20.8847 85.0485C21.0827 83.3222 21.1816 81.3927 21.0827 79.6664C21.0827 79.0572 21.5775 78.5494 22.1713 78.5494C22.7651 78.5494 23.2599 79.0572 23.2599 79.6664C23.2599 81.2912 23.2599 82.8144 23.1609 84.4392C24.6454 84.1345 26.0309 83.8299 27.4165 83.4237C28.0103 83.2206 28.604 83.5252 28.802 84.1345C28.9999 84.7438 28.703 85.3531 28.1092 85.5562C26.3278 86.1655 24.5464 86.5717 22.6661 86.7748C22.4682 86.9778 22.1713 87.0794 21.7754 87.0794C21.3795 86.9778 21.0827 86.7747 20.8847 86.3686C20.7858 86.267 20.7857 86.0639 20.6868 85.8608C20.6868 85.7593 20.6868 85.6577 20.6868 85.6577ZM32.1668 81.9005C32.1668 81.4943 32.3647 81.0881 32.7606 80.885C34.542 79.9711 36.1254 78.7525 37.6099 77.534C38.1047 77.1278 38.7975 77.2293 39.1934 77.6355C39.5892 78.1432 39.4902 78.8541 39.0944 79.2603C37.5109 80.5804 35.7296 81.7989 33.8492 82.916C33.3544 83.2206 32.6616 83.0175 32.3647 82.4082C32.2658 82.3067 32.1668 82.1036 32.1668 81.9005ZM41.4695 73.8783C41.4695 73.6752 41.5685 73.4721 41.6675 73.269C42.3602 72.355 43.053 71.3396 43.5478 70.3241C43.9437 69.6133 44.3396 68.9024 44.6365 68.1916C44.9334 67.5823 45.5271 67.3792 46.1209 67.6839C46.7147 67.9885 46.9127 68.5978 46.6158 69.2071C46.2199 70.0195 45.824 70.7303 45.4282 71.5427C44.8344 72.6597 44.1416 73.7767 43.3499 74.7922C42.9541 75.2999 42.2613 75.4015 41.7665 74.9953C41.5685 74.5891 41.4695 74.2845 41.4695 73.8783ZM46.6158 62.7081C46.6158 62.6065 46.6158 62.505 46.6158 62.4034C47.1106 60.5756 47.5065 58.5446 47.8034 56.4121C47.9023 55.8029 48.4961 55.3967 49.0899 55.4982C49.6837 55.5998 50.0796 56.209 49.9806 56.8183C49.6837 59.0524 49.2878 61.0833 48.694 63.1143C48.4961 63.7235 47.9023 64.0282 47.3085 63.9266C47.0116 63.622 46.6158 63.2158 46.6158 62.7081Z" fill="#1E1E1E"/>
<path d="M0.794739 110.841C0.794739 110.435 0.992646 110.131 1.38851 109.928C2.18023 109.521 2.97196 109.014 3.96162 108.404C4.45645 108.1 5.1492 108.303 5.4461 108.912C5.743 109.42 5.54507 110.131 4.95127 110.435C3.96162 110.943 3.16989 111.451 2.37816 111.857C1.88334 112.162 1.19058 111.959 0.89368 111.451C0.89368 111.248 0.794739 111.045 0.794739 110.841Z" fill="#1E1E1E"/>
<path d="M55.9185 2.08423C48.9909 2.08423 42.0634 2.99815 35.4327 4.92755C34.8389 5.13064 34.6409 5.73993 34.8389 6.24766C34.8389 6.24766 34.8389 6.24766 34.8389 6.34921C37.214 16.3008 38.2037 26.4556 37.7089 36.7118C37.7089 37.5242 38.3027 37.8288 38.8965 37.6257C38.8965 37.6257 38.8964 37.6257 38.9954 37.6257C39.1933 37.6257 39.2923 37.6257 39.4902 37.6257C40.084 37.5242 40.6778 37.5242 41.1727 37.6257C41.3706 37.6257 41.6675 37.5242 41.8654 37.3211C42.0634 37.118 42.1623 36.8134 42.1623 36.6103C42.1623 36.3056 42.0634 36.1025 41.8654 35.8994C41.6675 35.6964 41.4696 35.5948 41.1727 35.5948C40.6778 35.5948 40.183 35.5948 39.6882 35.5948C40.084 25.8463 39.0944 16.1993 36.9172 6.65385C43.152 5.0291 49.4858 4.11517 55.9185 4.11517C57.2051 4.11517 57.2051 2.08423 55.9185 2.08423Z" fill="#1E1E1E"/>
<path d="M59.6792 2.69376C59.3823 1.4752 57.5019 1.98293 57.7988 3.2015C58.6895 6.95874 59.1844 10.8175 59.1844 14.6763C59.1844 15.9964 61.1637 15.9964 61.1637 14.6763C61.0647 10.6144 60.5699 6.55256 59.6792 2.69376Z" fill="#1E1E1E"/>
<path d="M52.1578 6.85718C48.3971 6.95872 44.6364 7.46646 40.9747 8.27884C39.6881 8.58348 40.2819 10.5129 41.4695 10.2082C45.0323 9.49741 48.5951 8.98967 52.1578 8.88812C53.4444 8.88812 53.4444 6.85718 52.1578 6.85718Z" fill="#1E1E1E"/>
<path d="M45.923 11.8328C44.5375 12.0359 43.053 12.239 41.6675 12.5436C41.1727 12.6451 40.7768 13.2544 40.9747 13.7622C41.1727 14.2699 41.6675 14.5745 42.1623 14.473C42.7561 14.3714 43.4489 14.1683 44.1416 14.0668C44.4385 13.9653 44.7354 13.9653 45.1313 13.9653C45.2302 13.9653 45.3292 13.9653 45.3292 13.9653C45.5272 13.9653 45.7251 13.9653 45.8241 13.8637C46.121 13.8637 46.3189 13.7622 46.5168 13.5591C46.7147 13.356 46.8137 13.0513 46.8137 12.8482C46.8137 12.442 46.4178 11.8328 45.923 11.8328Z" fill="#1E1E1E"/>
<path d="M45.1313 17.0119C44.9334 16.8088 44.7354 16.7073 44.4385 16.7073C43.6468 16.8088 42.8551 16.9104 42.1624 17.215C41.9644 17.3166 41.6675 17.4181 41.5686 17.7227C41.4696 17.9258 41.3706 18.2305 41.4696 18.5351C41.5685 18.7382 41.6675 19.0429 41.9644 19.1444C42.1623 19.246 42.4593 19.3475 42.7562 19.246C43.251 19.0429 43.6468 18.9413 44.1417 18.8398C44.2406 18.8398 44.3396 18.8398 44.4385 18.8398C44.7354 18.8398 44.9334 18.7382 45.1313 18.5351C45.3292 18.332 45.4282 18.0274 45.4282 17.8243C45.4282 17.5197 45.3292 17.215 45.1313 17.0119Z" fill="#1E1E1E"/>
<path d="M43.3499 26.8619C43.3499 26.7603 43.4488 26.6588 43.4488 26.5572V26.4557C43.4488 26.3541 43.5478 26.2526 43.5478 26.151C43.5478 26.151 43.5478 26.0495 43.6468 26.0495C43.6468 26.0495 43.7458 25.8464 43.8447 25.8464C43.8447 25.8464 43.8447 25.8464 43.9437 25.7448L44.0426 25.6433C44.0426 25.6433 44.1416 25.6433 44.2406 25.6433C44.7354 25.5417 45.1312 24.9325 44.9333 24.4247C44.7354 23.8154 44.2406 23.6124 43.7457 23.7139C42.4592 23.917 41.7664 25.2371 41.4695 26.3541C41.3706 26.6588 41.2716 26.9634 41.2716 27.3696C41.2716 27.8773 41.4695 28.182 41.7664 28.5882C42.1623 28.9944 42.6571 29.4005 43.1519 29.7052C43.5478 30.0098 44.2406 29.8067 44.5375 29.299C44.8344 28.7913 44.6364 28.182 44.1416 27.8773C44.0426 27.7758 43.9437 27.7758 43.8447 27.6742C43.9437 27.7758 43.8447 27.6742 43.8447 27.6742C43.6468 27.5727 43.5478 27.3696 43.3499 27.2681C43.3499 27.2681 43.3499 27.2681 43.3499 27.1665C43.2509 27.065 43.2509 26.9634 43.3499 26.8619Z" fill="#1E1E1E"/>
<path d="M71.2582 33.8686C70.6644 33.6655 70.2686 34.0717 70.0706 34.5794C69.1799 36.915 68.3882 39.2506 67.6954 41.5862C67.4975 42.0939 67.8934 42.7032 68.3882 42.8047C68.883 42.9063 69.4768 42.6017 69.5758 42.0939C70.2686 39.7583 71.0602 37.4227 71.9509 35.0872C72.1489 34.5794 71.753 33.9701 71.2582 33.8686Z" fill="#1E1E1E"/>
<path d="M38.0057 0.76424C37.9068 0.256504 37.313 -0.149685 36.8182 0.0534098C35.9275 0.459599 34.9378 0.76424 34.0471 1.17043C33.5523 1.37352 33.1564 1.57662 32.6616 1.77971C32.1668 1.98281 31.672 2.1859 31.2761 2.59209C30.6823 3.30292 30.7813 4.41994 30.7813 5.33386C30.7813 6.34934 30.8802 7.36481 30.9792 8.38028C31.0782 8.88802 31.3751 9.39575 31.9689 9.39575C32.4637 9.39575 33.0575 8.88802 32.9585 8.38028C32.8596 7.46635 32.7606 6.65398 32.7606 5.74005C32.7606 5.33386 32.7606 4.92768 32.7606 4.52149C32.7606 4.31839 32.7606 4.21684 32.7606 4.01375V3.9122C32.7606 3.9122 32.7606 3.9122 32.8596 3.9122C32.7606 3.9122 33.0575 3.81066 33.0575 3.81066C33.2554 3.70911 33.4533 3.60756 33.6513 3.60756C34.0471 3.40447 34.443 3.30292 34.8389 3.09983L37.313 2.08435C37.8078 1.77971 38.2037 1.27198 38.0057 0.76424Z" fill="#1E1E1E"/>
</svg>
