<svg width="136" height="48" viewBox="0 0 136 48" fill="none" xmlns="http://www.w3.org/2000/svg">
<path d="M130.252 36.1293C130.252 36.1293 130.362 36.0184 130.471 36.0184C131.347 35.5746 132.332 35.1309 133.207 34.5762C133.754 34.2434 134.52 34.4652 134.849 35.0199C135.177 35.5746 134.958 36.3512 134.411 36.684C133.426 37.2387 132.441 37.6825 131.565 38.1262C131.018 38.4591 130.252 38.1262 130.033 37.5715C129.596 37.1278 129.814 36.4621 130.252 36.1293Z" fill="#1E1E1E"/>
<path d="M118.87 40.0122C118.98 39.9012 119.199 39.7903 119.308 39.7903C121.169 39.4575 123.029 38.9028 124.999 38.2372C125.656 38.0153 126.312 38.3481 126.531 39.0137C126.75 39.6794 126.422 40.345 125.765 40.5669C123.795 41.2325 121.716 41.7872 119.746 42.231C119.089 42.3419 118.433 41.8982 118.323 41.2325C118.323 40.7888 118.433 40.345 118.87 40.0122Z" fill="#1E1E1E"/>
<path d="M84.3963 5.62092C84.9435 5.28811 85.6002 5.39904 86.0379 5.8428C86.4757 6.3975 86.3663 7.06314 85.9285 7.50689C84.6152 8.72723 83.6302 10.1695 83.1925 12.0554C82.9736 12.7211 82.4264 13.0539 81.7697 12.9429C81.1131 12.7211 80.7848 12.1664 80.8942 11.5007C81.332 9.17099 82.5358 7.17408 84.3963 5.62092C84.2869 5.73186 84.3963 5.62092 84.3963 5.62092ZM89.7589 3.06931C89.8684 2.95837 90.0873 2.84743 90.1967 2.84743C92.2761 2.40368 94.4649 2.51462 96.6538 2.95838C97.3104 3.06932 97.7482 3.73496 97.5293 4.4006C97.4198 5.06624 96.7632 5.50998 96.1065 5.2881C94.246 4.84434 92.3855 4.84435 90.525 5.17717C89.8684 5.28811 89.2117 4.84434 89.1023 4.17871C89.2117 3.84589 89.4306 3.40213 89.7589 3.06931ZM57.3643 30.2495C57.6927 30.0276 58.1304 29.9167 58.4587 30.1386L59.6626 30.5823C61.0853 31.137 62.6175 31.8027 64.0402 32.3574C64.6969 32.5792 64.9158 33.2449 64.6969 33.9105C64.478 34.5762 63.8214 34.798 63.1647 34.5762C61.6325 34.0215 60.1004 33.3558 58.6776 32.8011L57.4738 32.3574C56.8171 32.1355 56.5982 31.3589 56.8171 30.8042C57.036 30.5823 57.1455 30.3604 57.3643 30.2495ZM81.0036 16.8258C81.1131 16.7149 81.332 16.604 81.4414 16.604C82.0981 16.493 82.6453 16.9368 82.8641 17.6024C83.1925 19.3774 83.8491 21.1525 84.7247 22.9275C85.053 23.4822 84.8341 24.2588 84.2869 24.5916C83.7397 24.9244 82.9736 24.7025 82.6453 24.1478C81.5509 22.1509 80.7848 20.0431 80.4564 18.0462C80.4564 17.6024 80.6753 17.1586 81.0036 16.8258ZM101.36 5.73187C101.797 5.39905 102.345 5.39905 102.782 5.73187C103.986 6.61939 105.081 7.61785 105.956 8.83818L106.066 8.94911C106.503 9.61475 106.832 10.2804 107.16 10.946C107.379 11.6117 107.051 12.2773 106.394 12.4992C105.737 12.7211 105.081 12.3882 104.862 11.7226C104.643 11.2788 104.424 10.7241 104.096 10.2804L103.986 10.1695C103.33 9.171 102.454 8.28348 101.36 7.61784C100.813 7.28502 100.703 6.50844 101.031 5.95375C101.141 5.84281 101.25 5.73187 101.36 5.73187ZM68.7462 34.2433C68.9651 34.0215 69.2934 34.0215 69.6218 34.0215C71.5917 34.4652 73.4522 34.5762 75.4221 34.5762C76.0788 34.5762 76.626 35.1308 76.626 35.7965C76.626 36.4621 76.0788 37.0168 75.4221 37.0168C73.3428 37.0168 71.2634 36.7949 69.184 36.3512C68.5273 36.2402 68.0896 35.5746 68.3085 34.909C68.3085 34.6871 68.5273 34.4652 68.7462 34.2433ZM86.4757 27.587C86.9135 27.2541 87.6796 27.2541 88.0079 27.8088C89.2117 29.2511 90.6345 30.5823 92.1667 31.9136C92.7139 32.3574 92.7139 33.1339 92.2761 33.5777C91.8383 34.1324 91.0722 34.1324 90.6345 33.6886C88.9929 32.2464 87.4607 30.8042 86.1474 29.2511C85.9285 28.8073 85.9285 28.1417 86.4757 27.587ZM104.315 16.1602C104.643 15.9383 105.19 15.8274 105.628 16.0493C106.175 16.3821 106.394 17.0477 106.066 17.7133C105.081 19.5993 103.549 21.3743 102.235 22.8166C101.797 23.2603 101.031 23.3713 100.594 22.9275C100.156 22.4837 100.046 21.7072 100.484 21.2634C101.688 19.9321 103.111 18.268 103.986 16.604C104.096 16.493 104.205 16.2711 104.315 16.1602ZM80.7848 34.2433C80.8942 34.1324 81.0036 34.1324 81.2225 34.0215C82.6453 33.6886 83.9586 33.2449 85.2719 32.8011C85.7096 32.5792 86.2568 32.3574 86.6946 32.2464C87.2418 32.0245 88.0079 32.2464 88.2268 32.8011C88.4457 33.3558 88.2268 34.1324 87.6796 34.3543C87.1324 34.5762 86.6946 34.798 86.1474 35.0199C84.7246 35.5746 83.1925 36.0184 81.6603 36.3512C81.0036 36.4621 80.347 36.1293 80.2376 35.4637C80.1281 35.0199 80.347 34.4652 80.7848 34.2433ZM96.4349 25.4791C96.8726 25.1463 97.5293 25.1463 97.967 25.59C98.4048 26.0338 98.4048 26.8104 97.8576 27.2541C96.3254 28.6964 94.6838 30.0276 93.0422 31.248C92.495 31.5808 91.7289 31.4698 91.4006 30.9151C91.0722 30.3605 91.1817 29.5839 91.7289 29.2511C93.2611 28.1417 94.7932 26.9213 96.3254 25.4791H96.4349ZM95.6688 35.4637C95.9971 35.2418 96.5443 35.1309 96.9821 35.4637C98.5142 36.4621 99.937 37.2387 101.469 38.0153C101.688 38.1262 101.907 38.2372 102.126 38.3481C102.673 38.57 103.001 39.3466 102.782 39.9013C102.564 40.456 101.797 40.7888 101.25 40.5669C101.031 40.456 100.703 40.345 100.484 40.2341C98.952 39.4575 97.3104 38.57 95.7782 37.5715C95.231 37.2387 95.0121 36.4621 95.4499 35.9074C95.4499 35.6856 95.5593 35.5746 95.6688 35.4637ZM106.832 40.2341C107.051 40.0122 107.379 40.0122 107.707 40.0122C109.568 40.345 111.538 40.5669 113.508 40.456C114.164 40.456 114.712 41.0107 114.712 41.6763C114.712 42.3419 114.164 42.8966 113.508 42.8966C111.319 42.8966 109.239 42.7857 107.27 42.3419C106.613 42.231 106.175 41.5653 106.285 40.8997C106.394 40.6778 106.613 40.345 106.832 40.2341Z" fill="#1E1E1E"/>
<path d="M48.609 27.2542C48.8279 27.0323 49.2657 27.0323 49.594 27.0323C50.579 27.2542 51.6734 27.587 52.7678 27.9199C53.4244 28.1417 53.7528 28.8074 53.5339 29.473C53.315 30.1387 52.6583 30.4715 52.0017 30.2496C51.0167 29.9168 50.0318 29.6949 49.0468 29.473C48.3901 29.3621 48.0618 28.6964 48.1713 28.0308C48.1713 27.587 48.2807 27.3652 48.609 27.2542Z" fill="#1E1E1E"/>
<path d="M40.6198 33.2449C40.5104 28.6964 40.2915 24.2588 39.9632 19.8212C39.8537 18.7118 39.8537 17.6024 39.8537 16.493C39.8537 15.7164 40.0726 14.9399 39.5254 14.3852C38.431 13.1648 35.5855 13.9414 34.2722 14.1633C34.0533 14.1633 33.8344 14.3851 33.725 14.4961C33.5061 14.718 33.2872 14.9398 33.2872 15.3836C32.9589 22.7056 33.8344 30.1386 34.0533 37.4606C30.5512 37.6825 26.6113 37.5715 23.4375 39.1247C23.1092 39.2356 22.8903 39.6794 22.8903 40.1231C22.9998 41.1216 23.2186 42.12 23.4375 43.2294C23.547 43.6732 23.9847 44.117 24.5319 44.006C29.019 43.4513 33.3967 43.1185 37.8838 43.0076C38.6499 43.0076 39.7443 43.1185 40.2915 42.5638C40.8387 42.0091 40.7292 41.1216 40.7292 40.456C40.7292 37.9043 40.7292 35.5746 40.6198 33.2449Z" fill="#F7C300"/>
<path d="M24.0942 3.51306C21.1392 3.73494 18.0749 3.95681 15.12 4.17869C12.9312 4.28963 10.8518 4.51152 8.66294 4.62246C8.33462 4.62246 7.89685 4.62246 7.56853 4.62246C7.13077 4.62246 6.58356 4.62246 6.14579 4.62246C5.37971 4.62246 5.05138 5.28808 5.16082 5.84278C4.8325 6.50842 4.8325 7.28501 4.72306 7.95064C4.61362 8.9491 4.50417 9.94755 4.39473 10.946C4.28529 13.0539 4.28529 15.1617 4.39473 17.2696C4.61362 21.7071 4.94194 26.0338 4.94194 30.4714C4.94194 30.8042 5.05138 31.137 5.27026 31.248C5.27026 31.8027 5.70803 32.4683 6.36468 32.3574C7.78741 32.2464 9.10071 32.1355 10.5234 32.0245C11.0707 32.0245 11.6179 31.5808 11.6179 30.9151C11.6179 30.4714 11.2895 30.0276 10.8518 29.9167C11.1801 25.8119 11.0707 21.7072 10.9612 17.7133C11.0707 17.6024 11.0707 17.3805 11.0707 17.1586C10.9612 14.3851 10.7423 11.6116 10.414 8.94909C10.414 8.50534 10.414 8.17253 10.5234 7.72877C11.8367 7.61783 13.15 7.61782 14.4633 7.61782C17.6371 7.50688 20.7015 7.39594 23.8753 7.285C24.4225 7.285 24.7508 6.95218 24.9697 6.50843C25.0791 6.06467 25.0791 5.73185 25.0791 5.39903C25.4075 4.62245 25.1886 3.51306 24.0942 3.51306Z" fill="#F7C300"/>
<path d="M18.2938 23.926C18.1843 23.4822 17.856 23.0385 17.5277 22.8166C17.4183 22.7057 17.3088 22.7057 17.1994 22.7057C17.0899 22.7057 16.8711 22.7057 16.7616 22.5947C16.4333 22.5947 16.2144 22.5947 15.9955 22.7057L15.8861 22.8166C15.7766 22.8166 15.6672 22.9275 15.5578 23.0385C15.3389 23.2604 15.12 23.5932 15.0105 24.0369C14.9011 24.3698 14.9011 24.8135 15.0105 25.1463C15.0105 25.2573 15.12 25.4792 15.2294 25.5901C15.3389 25.701 15.3389 25.812 15.4483 25.9229C15.6672 26.1448 15.7766 26.1448 15.9955 26.2557C16.4333 26.3667 16.9805 26.3667 17.3088 26.0339C17.6371 25.812 17.856 25.5901 18.0749 25.2573C18.2938 24.9245 18.4032 24.3698 18.2938 23.926Z" fill="#F7C300"/>
<path d="M17.6371 18.157C17.5277 17.7132 17.1994 17.2694 16.871 17.0476C16.7616 16.9366 16.6522 16.9366 16.5427 16.9366C16.4333 16.9366 16.2144 16.9366 16.105 16.8257C15.7766 16.8257 15.5578 16.8257 15.3389 16.9366L15.2294 17.0476C15.12 17.0476 15.0105 17.1585 14.9011 17.2694C14.6822 17.4913 14.4633 17.8241 14.3539 18.2679C14.2445 18.6007 14.2445 19.0445 14.3539 19.3773C14.3539 19.4882 14.4633 19.7101 14.5728 19.821C14.6822 19.932 14.6822 20.0429 14.7917 20.1539C15.0105 20.3758 15.12 20.3758 15.3389 20.4867C15.7766 20.5976 16.3238 20.5976 16.6522 20.2648C16.9805 20.0429 17.1994 19.821 17.4183 19.4882C17.7466 19.0445 17.856 18.6007 17.6371 18.157Z" fill="#F7C300"/>
<path d="M16.9805 12.3883C16.871 11.9445 16.5427 11.5008 16.2144 11.2789C16.1049 11.1679 15.9955 11.1679 15.886 11.1679C15.7766 11.1679 15.5577 11.1679 15.4483 11.057C15.12 11.057 14.9011 11.057 14.6822 11.1679L14.5728 11.2789C14.4633 11.2789 14.3539 11.3898 14.2444 11.5008C14.0255 11.7226 13.8067 12.0554 13.6972 12.4992C13.5878 12.832 13.5878 13.2758 13.6972 13.6086C13.6972 13.7195 13.8067 13.9414 13.9161 14.0524C14.0255 14.1633 14.0255 14.2743 14.135 14.3852C14.3539 14.6071 14.4633 14.6071 14.6822 14.718C15.12 14.8289 15.6672 14.8289 15.9955 14.4961C16.3238 14.2742 16.5427 14.0524 16.7616 13.7196C17.0899 13.2758 17.1993 12.832 16.9805 12.3883Z" fill="#F7C300"/>
<path d="M34.4911 37.0169C34.0533 27.2542 33.8345 17.4915 33.5061 7.72884C33.5061 7.0632 32.9589 6.61944 32.4117 6.61944C32.1928 6.39756 31.9739 6.28662 31.6456 6.28662C24.4225 6.73038 17.0899 6.95226 9.75737 7.06319C8.66296 7.06319 8.44408 8.39447 8.99128 8.94916C10.0857 18.6009 10.7423 28.3636 10.8518 38.1263C10.8518 38.4591 11.0707 38.7919 11.2896 39.0138C11.399 39.2357 11.6179 39.4576 11.9462 39.5685C19.0599 40.7888 26.1736 39.0138 33.2872 38.7919C33.5061 38.7919 33.725 38.7919 33.9439 38.681C34.0533 38.681 34.1628 38.57 34.1628 38.57C34.71 38.1263 34.8194 37.4606 34.4911 37.0169ZM13.1501 37.3497C13.0406 27.9198 12.384 18.6009 11.2896 9.17104C17.9655 9.0601 24.7508 8.83823 31.4267 8.50541C31.6456 17.8243 31.9739 27.1433 32.3023 36.4622C25.9547 36.795 19.4976 38.3482 13.1501 37.3497Z" fill="#1E1E1E"/>
<path d="M41.4953 14.1631C41.4953 14.0522 41.4953 13.9413 41.3859 13.8303V13.7194C41.2764 13.3865 41.0576 13.0537 40.6198 12.9428C39.1971 12.61 37.7743 12.499 36.3516 12.499C35.8044 12.499 35.2572 12.9428 35.2572 13.6084C35.2572 14.1631 35.6949 14.7178 36.3516 14.7178C37.0082 14.7178 37.6649 14.7178 38.3215 14.7178C38.5404 14.7178 38.6498 14.7178 38.8687 14.7178C38.9782 14.7178 38.9782 14.7178 39.0876 14.7178C39.1971 14.7178 39.3065 14.7178 39.4159 14.8288C39.4159 15.3835 39.5254 15.9382 39.5254 16.4929C38.3215 16.7147 38.3215 18.6007 39.6348 18.7116C39.6348 19.5992 39.7443 20.4867 39.7443 21.3742C38.3215 21.3742 38.431 23.593 39.7443 23.593C39.7443 24.4805 39.8537 25.368 39.8537 26.2555H39.7443C38.3215 26.2555 38.3215 28.4743 39.7443 28.4743H39.8537C39.8537 29.4728 39.8537 30.5822 39.8537 31.5806C39.7443 31.5806 39.7443 31.5806 39.7443 31.5806C38.3215 31.5806 38.3215 33.7994 39.7443 33.7994C39.7443 33.7994 39.7443 33.7994 39.8537 33.7994C39.8537 34.7979 39.7443 35.6854 39.7443 36.6839C38.5404 36.7948 38.5404 38.5698 39.6348 38.7917C39.6348 39.4574 39.5254 40.0121 39.5254 40.6777C39.5254 40.7886 39.5254 40.7886 39.5254 40.7886C39.5254 41.2324 39.5254 41.7871 39.4159 41.898C39.5254 42.009 39.5254 42.009 39.3065 42.009C39.0876 42.009 38.8687 42.1199 38.6498 42.1199C37.7743 42.2308 36.8988 42.3418 35.9138 42.4527C34.1628 42.6746 32.3023 42.8965 30.4418 43.0074C28.5813 43.1183 26.8302 43.2293 24.9697 43.3402C24.0942 43.3402 23.1092 43.3402 22.2337 43.4512C21.7959 43.5621 21.9053 43.6731 21.7959 43.2293C21.6865 42.6746 21.6865 42.2308 21.577 41.7871C21.4676 40.3449 19.2787 40.3449 19.3882 41.7871C19.4976 42.7855 19.4976 44.2277 20.0448 45.0043C20.7015 45.8918 21.7959 45.7809 22.6714 45.67C25.1886 45.559 27.7057 45.4481 30.2229 45.2262C32.6306 45.0043 35.1477 44.7824 37.5554 44.4496C38.5404 44.3387 40.0726 44.4496 40.7292 43.6731C41.4953 42.8965 41.2764 41.4543 41.3859 40.4558C41.3859 40.4558 41.3859 40.4558 41.3859 40.3449C42.3709 31.6916 42.3709 22.9273 41.4953 14.1631Z" fill="#1E1E1E"/>
<path d="M24.7508 0.739602C24.0942 -0.147914 22.9997 -0.0369816 22.1242 0.073958C19.6071 0.184898 17.0899 0.295847 14.5728 0.517726C12.1651 0.739606 9.64791 0.961481 7.2402 1.2943C6.25523 1.40524 4.72306 1.2943 4.06641 2.07087C3.84752 2.29275 3.73808 2.51464 3.62864 2.73652C3.5192 2.9584 3.5192 3.2912 3.40976 3.62402C3.40976 5.50999 3.40976 7.39597 3.5192 9.171C3.5192 9.61476 3.5192 10.0585 3.5192 10.5023C3.5192 17.0477 3.5192 23.7041 3.40976 30.1386C3.40976 30.5824 3.5192 31.1371 3.5192 31.5808C3.5192 31.6918 3.5192 31.8027 3.62864 31.9136V32.0246C3.73808 32.3574 3.95697 32.6902 4.39473 32.8011C5.81747 33.134 7.2402 33.2449 8.66294 33.2449C9.21015 33.2449 9.75735 32.8011 9.75735 32.1355C9.75735 31.5808 9.31959 31.0261 8.66294 31.0261C8.00629 31.0261 7.34965 31.0261 6.693 31.0261C6.47412 31.0261 6.36467 31.0261 6.14579 31.0261C6.03635 29.6948 6.03635 28.4745 5.92691 27.2542C7.2402 27.1432 7.13076 25.1463 5.81747 25.0354V24.9244C5.81747 24.3697 5.81747 23.926 5.81747 23.3713C5.81747 22.9275 5.81747 22.4838 5.81747 21.9291C6.91188 21.7072 6.91188 19.9321 5.81747 19.8212C5.81747 18.6009 5.81747 17.3805 5.81747 16.493C6.91188 16.2711 6.80244 14.6071 5.81747 14.3852C5.81747 13.3867 5.81747 12.3882 5.81747 11.3898C6.91188 11.1679 6.91188 9.50383 5.81747 9.28195C5.81747 8.61631 5.81747 7.95068 5.81747 7.1741C6.80244 6.95222 6.80244 5.28812 5.81747 5.06624C5.81747 4.62248 5.81747 4.17873 5.81747 3.84591C5.48914 3.73497 5.48914 3.73497 5.70803 3.73497C5.92691 3.73497 6.14579 3.62402 6.36467 3.62402C7.2402 3.51308 8.11574 3.40216 9.10071 3.29122C10.8518 3.06934 12.7123 2.84746 14.5728 2.73652C16.4333 2.62558 18.1843 2.51464 20.0448 2.4037C20.9204 2.4037 21.9053 2.40369 22.7809 2.29275C23.2186 2.18181 23.1092 2.07087 23.2186 2.51463C23.3281 3.06932 23.3281 3.51309 23.4375 3.95684C23.547 5.39906 25.7358 5.39906 25.6263 3.95684C25.4075 3.06933 25.4075 1.62712 24.7508 0.739602Z" fill="#1E1E1E"/>
<path d="M16.7616 11.9443V11.8334C16.6522 11.6115 16.5427 11.3896 16.3238 11.1678C16.2144 11.0568 16.105 11.0568 16.105 10.9459C15.9955 10.8349 15.8861 10.8349 15.7766 10.8349C15.6672 10.8349 15.4483 10.8349 15.3389 10.724H15.2294C15.12 10.724 15.0105 10.724 14.7917 10.8349C14.6822 10.8349 14.5728 10.9459 14.4633 10.9459C14.3539 11.0568 14.135 11.1678 14.0256 11.2787C13.9161 11.3896 13.9161 11.5006 13.8067 11.5006C13.8067 11.6115 13.6972 11.7225 13.6972 11.8334C13.5878 11.9443 13.5878 12.0553 13.5878 12.1662C13.5878 12.2772 13.4784 12.499 13.4784 12.61C13.4784 12.9428 13.5878 13.3865 13.9161 13.6084C14.135 13.8303 14.3539 13.9412 14.5728 14.0522C14.7917 14.0522 15.0105 14.0522 15.12 14.0522C15.3389 14.0522 15.5577 14.0522 15.6672 13.9412C15.7766 13.9412 15.8861 13.8303 16.105 13.7194C16.2144 13.6084 16.3238 13.6084 16.3238 13.4975C16.5427 13.2756 16.6522 13.0537 16.7616 12.8318V12.7209C16.7616 12.61 16.7616 12.499 16.7616 12.2771C16.7616 12.1662 16.7616 12.0553 16.7616 11.9443Z" fill="#1E1E1E"/>
<path d="M16.9805 17.4914C16.9805 17.3804 16.871 17.2695 16.7616 17.1586C16.6522 17.0476 16.5427 16.9367 16.5427 16.8258L16.4333 16.7148C16.3238 16.6039 16.2144 16.4929 16.105 16.4929C15.9955 16.382 15.8861 16.382 15.6672 16.382C15.5577 16.382 15.3389 16.271 15.2294 16.382H15.12C15.12 16.382 15.0105 16.382 15.0105 16.2711C14.6822 16.1601 14.4633 16.271 14.135 16.382C13.9161 16.4929 13.6972 16.7148 13.5878 17.0476C13.4784 17.3804 13.4784 17.8242 13.4784 18.157C13.4784 18.268 13.4784 18.3789 13.4784 18.4898C13.4784 18.6008 13.4784 18.8227 13.5878 18.9336C13.5878 19.0445 13.6972 19.1555 13.6972 19.3774C13.6972 19.4883 13.8067 19.4883 13.8067 19.5992C13.9161 19.7102 14.0256 19.8211 14.2445 19.9321C14.3539 19.9321 14.3539 20.043 14.4633 20.043C14.5728 20.043 14.6822 20.1539 14.6822 20.1539C15.0105 20.1539 15.2294 20.2649 15.5577 20.1539C15.7766 20.1539 15.8861 20.043 16.105 19.9321C16.3238 19.7102 16.5427 19.5992 16.6522 19.3774C16.6522 19.2664 16.7616 19.1555 16.7616 19.1555C16.7616 19.0445 16.871 18.9336 16.871 18.8227C16.871 18.6008 16.9805 18.3789 16.871 18.157C17.0899 17.9351 17.0899 17.7133 16.9805 17.4914Z" fill="#1E1E1E"/>
<path d="M17.7466 23.9259V23.8149V23.704C17.7466 23.704 17.7466 23.704 17.7466 23.593C17.7466 23.4821 17.7466 23.2602 17.6371 23.1493C17.6371 23.0384 17.5277 22.8165 17.5277 22.7055C17.4182 22.5946 17.4182 22.4837 17.3088 22.3727C17.0899 22.1508 16.7616 22.0399 16.4333 22.0399C16.3238 22.0399 16.2144 22.0399 15.9955 22.0399C15.8861 22.0399 15.7766 21.929 15.6672 21.929C15.3389 21.929 15.12 22.0399 14.9011 22.2618C14.6822 22.4837 14.5728 22.5946 14.4633 22.8165C14.3539 23.0384 14.2444 23.2602 14.2444 23.4821C14.2444 23.5931 14.135 23.8149 14.2444 23.9259C14.2444 24.0368 14.2444 24.1478 14.2444 24.2587V24.3696C14.3539 24.7025 14.4633 24.9243 14.6822 25.1462C14.7916 25.2572 14.9011 25.3681 15.0105 25.479C15.12 25.59 15.3389 25.59 15.4483 25.7009C15.5577 25.7009 15.5577 25.7009 15.6672 25.7009C15.7766 25.7009 15.7766 25.7009 15.8861 25.7009C15.9955 25.7009 16.1049 25.7009 16.2144 25.7009H16.3238C16.4333 25.7009 16.6521 25.59 16.7616 25.479C16.9805 25.3681 17.0899 25.2571 17.1994 25.0353C17.4182 24.8134 17.5277 24.5915 17.5277 24.2587C17.5277 24.2587 17.5277 24.2587 17.5277 24.1477C17.6371 24.2587 17.6371 24.1477 17.7466 23.9259Z" fill="#1E1E1E"/>
<path d="M27.9246 10.8351C24.9697 10.946 22.0147 10.946 18.9504 10.946C17.5276 10.946 17.5276 13.1648 18.9504 13.1648C21.9053 13.1648 24.8602 13.1648 27.9246 13.0539C28.4718 13.0539 29.019 12.6101 29.019 11.9445C29.019 11.3898 28.5812 10.8351 27.9246 10.8351Z" fill="#1E1E1E"/>
<path d="M27.9246 15.9382C26.5019 15.9382 25.0791 16.0492 23.7659 16.1601C22.4526 16.382 21.1393 16.6039 19.826 16.2711C19.2788 16.1601 18.6221 16.4929 18.5127 17.0476C18.4032 17.6023 18.7316 18.268 19.2788 18.3789C20.7015 18.7117 22.2337 18.6008 23.6564 18.3789C25.0791 18.157 26.6113 18.0461 28.0341 18.157C29.3474 18.268 29.3474 16.0492 27.9246 15.9382Z" fill="#1E1E1E"/>
<path d="M28.6907 22.7056C28.3624 22.1509 27.7057 22.0399 27.1585 22.2618C26.1736 22.7056 25.0791 22.7056 23.9847 22.5946C22.562 22.5946 21.2487 22.4837 19.9354 22.5946C19.3882 22.7056 19.0599 23.4821 19.1693 23.9259C19.3882 24.5915 19.9354 24.8134 20.4826 24.7025C21.7959 24.4806 23.1092 24.7025 24.4225 24.7025C25.7358 24.7025 27.0491 24.5915 28.3624 24.0368C28.9096 24.0368 29.019 23.1493 28.6907 22.7056Z" fill="#1E1E1E"/>
<path d="M30.5512 33.5778C30.4417 33.4669 30.4417 33.4669 30.5512 33.5778C30.4417 33.4669 30.4417 33.4669 30.4417 33.4669C30.4417 33.4669 30.2229 33.1341 30.3323 33.245C30.3323 33.356 30.2229 33.0231 30.2229 33.0231C30.2229 32.9122 30.1134 32.8013 30.1134 32.6903C29.7851 31.9138 28.9096 31.5809 28.2529 32.0247C28.034 32.1356 27.8152 32.3575 27.5963 32.5794C27.5963 32.4684 27.4868 32.4684 27.4868 32.3575C27.1585 31.6919 26.1735 31.6919 25.7358 32.1356C25.5169 32.3575 25.298 32.6903 25.0791 33.0231C24.5319 32.5794 23.7658 32.5794 23.2186 33.1341C22.9997 33.356 22.8903 33.5778 22.7809 33.9107C22.7809 34.0216 22.6714 34.0216 22.6714 34.1325C22.562 34.2435 22.4525 34.3544 22.3431 34.4654C21.9053 34.7982 21.9053 35.6857 22.3431 36.0185C22.7809 36.4623 23.4375 36.4623 23.8753 36.0185C23.9847 35.9076 24.0942 35.7966 24.2036 35.6857C24.313 35.7966 24.5319 35.9076 24.7508 36.0185C25.5169 36.2404 26.283 35.7966 26.6113 35.131C26.6113 35.131 26.6113 35.131 26.6113 35.0201C26.9396 35.2419 27.268 35.3529 27.5963 35.3529C28.034 35.3529 28.3624 35.131 28.6907 34.7982C28.8001 35.0201 28.9096 35.131 29.1285 35.3529C29.4568 35.7966 30.3323 35.7966 30.6606 35.3529C30.989 34.6872 30.8795 34.0216 30.5512 33.5778Z" fill="#F7C300"/>
<path d="M45.3258 41.5655C45.2164 41.0108 44.5597 40.5671 44.0125 40.7889C43.4653 41.0108 43.137 41.5655 43.2464 42.1202C43.2464 42.1202 43.2464 42.2312 43.3558 42.3421V42.453C43.3558 42.6749 43.3558 42.7859 43.3558 43.0077C43.3558 43.3405 43.2464 43.6734 43.2464 44.0062C43.2464 44.1171 43.2464 44.2281 43.2464 44.2281C43.2464 44.339 43.2464 44.4499 43.137 44.4499V44.5609C43.137 44.6718 43.0275 44.8937 42.9181 44.8937C43.0275 44.7828 43.0275 44.7828 42.9181 44.8937L42.8086 45.0046C42.6992 45.0046 42.6992 45.1156 42.5898 45.1156C42.4803 45.2265 42.3709 45.2265 42.2614 45.3375H42.3709H42.2614C42.152 45.3375 42.152 45.3375 42.0426 45.4484C41.9331 45.4484 41.8237 45.5593 41.6048 45.5593C41.2765 45.6703 40.9481 45.6703 40.6198 45.7812C40.5104 45.7812 40.4009 45.7812 40.2915 45.7812C40.0726 45.7812 39.8537 45.7812 39.7443 45.7812C39.1971 45.7812 38.6499 46.225 38.6499 46.8906C38.6499 47.4453 39.0876 48 39.7443 48C41.3859 47.8891 43.2464 47.6672 44.4503 46.5578C45.2163 45.8922 45.4352 45.0047 45.5447 44.0062C45.4352 43.3406 45.5447 42.3421 45.3258 41.5655Z" fill="#1E1E1E"/>
<path d="M1.00205 8.39453C0.454842 8.50547 -0.0923644 8.94923 0.0170768 9.61487C0.126518 11.0571 0.126518 12.3884 0.0170768 13.8306C0.0170768 14.3853 0.673724 14.94 1.22093 14.829C1.87758 14.7181 2.2059 14.2743 2.2059 13.6087C2.31534 12.1665 2.2059 10.8352 2.2059 9.39299C2.2059 8.8383 1.6587 8.28359 1.00205 8.39453Z" fill="#1E1E1E"/>
</svg>
