<svg width="104" height="13" viewBox="0 0 104 13" fill="none" xmlns="http://www.w3.org/2000/svg">
<path d="M6.52403 8.9915C4.60977 7.17227 2.56676 5.50194 0.652496 3.68272C-1.26177 1.86349 1.44217 -1.26315 3.75511 0.543146C5.66937 2.36237 7.71239 4.03271 9.62665 5.85193L10.0377 6.27274L11.209 5.36649C12.2473 4.46455 13.1528 3.56691 14.0582 2.66928C15.4828 1.32067 16.758 -0.601945 18.9091 0.196604C19.8518 0.600187 20.6781 1.5864 21.3632 2.28775C22.3183 3.12508 23.1446 4.11129 24.1038 5.09319C24.5149 5.514 25.0671 6.21967 25.4741 6.4959C26.1509 6.9081 25.6276 7.21449 26.4084 6.61033C27.3222 6.00185 28.0865 4.81936 28.859 3.92604C30.4082 2.28396 31.6958 0.795085 33.984 1.73391C37.7546 3.34824 41.276 5.5495 44.6728 8.04424C45.1837 7.3041 45.8233 6.41509 46.3342 5.67496C47.0985 4.49247 47.8545 3.02082 48.8887 1.9743C50.9571 -0.118747 53.2783 1.97671 55.1802 3.3622C56.401 4.1909 57.489 5.02392 58.7098 5.85262C59.5237 6.40509 61.4421 8.3689 62.5012 8.18985C63.0286 8.02804 63.797 6.99013 64.1874 6.68805C64.7025 6.0925 65.3545 5.63722 65.8696 5.04167C67.0367 3.99083 68.0709 2.94431 69.238 1.89348C70.0105 1.00015 71.0778 1.11027 71.7588 1.66705C71.7629 1.81163 71.8958 1.80732 71.8958 1.80732C73.7977 3.1928 75.8324 4.57398 77.7343 5.95946C78.0042 6.09543 78.9593 6.93275 79.2251 6.92413C79.2251 6.92413 79.4785 6.48178 79.6113 6.47747C80.5333 6.15815 81.6922 4.81816 82.473 4.21399C83.9017 3.00997 85.451 1.36789 87.3032 1.01842C89.0226 0.673257 90.775 1.48473 92.2658 2.4494C94.6992 3.81765 97.5726 6.61878 100.459 5.22278C103.415 5.44556 103.003 5.85262 103.003 7.6279C103.003 9.04813 99.5348 9.76093 97.8006 9.9398C94.333 9.61807 91.8624 6.9486 88.7645 5.60189C87.8218 5.19831 87.2902 5.21554 86.5094 5.81971C85.8615 6.41954 85.0807 7.02368 84.2999 7.62781L84.2998 7.6279C82.8711 8.83193 81.326 10.6186 79.6108 11.1083C77.7627 11.6024 76.2595 10.204 74.7687 9.2393C73.1409 8.13436 71.6501 7.16969 70.1552 6.06044C68.3402 7.71114 66.6581 9.35752 64.843 11.0082C62.376 13.1142 60.092 12.3199 57.7831 10.6582C56.4294 9.83382 55.2044 8.86053 53.9836 8.03183C52.8956 7.19881 51.7994 6.07664 50.5868 5.5371L50.458 5.68598C50.3334 5.97945 50.2047 6.12834 50.0759 6.27723L48.5432 8.49762C47.6502 9.82899 46.753 11.0158 45.8599 12.3472C45.3449 12.9427 44.1571 13.2706 43.4761 12.7139C41.4372 11.1881 39.3983 9.66236 37.2348 8.43007L34.3945 6.78558C33.8546 6.51365 33.186 6.39061 32.7749 5.9698C32.3858 5.98242 32.2059 5.83314 32.2906 5.63374L32.1063 5.84676C30.4242 7.49314 29.1614 9.8495 27.0599 10.7859C24.9626 11.8669 23.3306 10.6174 21.8233 9.07439C20.8683 8.23706 20.042 7.25085 19.0828 6.26895C18.6717 5.84814 17.9948 5.43594 17.7125 4.86624C17.5796 4.87054 17.5755 4.72597 17.4426 4.73027C16.0345 6.6572 13.8249 8.46539 12.0016 9.82692C9.78791 11.4905 8.43416 10.6661 6.52403 8.9915Z" fill="#F7C300"/>
</svg>
