<svg width="97" height="72" viewBox="0 0 97 72" fill="none" xmlns="http://www.w3.org/2000/svg">
<path d="M88.8375 58.2182C88.8375 57.1878 88.8375 56.2604 88.7381 55.23C88.6388 53.2722 88.5394 51.2114 88.3406 49.2536C88.2413 47.2958 88.44 45.338 88.5394 43.3803C88.6387 42.0407 88.8375 39.8769 88.2413 38.5373C88.1419 38.6404 88.0426 38.6404 87.9432 38.7434C87.9432 38.7434 87.9432 38.7434 87.8438 38.8464C87.8438 38.8464 87.8438 38.9495 87.7444 38.9495C87.7444 39.0525 87.7445 39.0525 87.6451 39.1556C87.6451 39.3616 87.6451 39.5677 87.6451 39.7738C87.6451 40.186 87.5457 40.5981 87.6451 41.0103C87.6451 41.3194 87.6451 41.7316 87.6451 42.0407C87.5457 42.865 87.0489 43.5863 86.1546 43.3803C85.8565 43.2772 85.5584 43.1742 85.2603 43.1742C84.8628 43.1742 84.366 43.2772 83.9685 43.3803C83.6704 43.3803 83.3723 43.0711 83.3723 42.762C83.3723 41.7316 83.3723 40.7012 83.3723 39.6708C83.3723 39.1556 83.2729 38.6404 83.0742 38.1251C82.9748 37.816 82.6767 37.4039 82.478 37.3008C82.3786 37.1978 82.3786 37.1978 82.2792 37.0947C81.0868 36.9917 79.795 36.8887 78.6026 36.8887C74.7273 36.6826 70.852 36.5795 66.8773 36.4765C64.8899 36.4765 63.0019 36.4765 61.0146 36.4765C60.2196 36.4765 59.4247 36.4765 58.5304 36.4765C57.7354 36.4765 56.4437 36.2704 55.7481 36.7856C54.655 37.5069 54.9532 39.8769 54.9532 41.1133C54.8538 42.865 55.7481 43.0711 57.338 43.0711C61.2133 43.0711 65.0886 42.9681 68.964 42.9681C71.0507 42.9681 73.1374 43.0711 75.2242 43.2772C76.2178 43.3802 77.907 43.1742 78.6026 44.1015C79.0995 44.8228 79.0995 46.0593 79.1989 46.9867C79.2982 49.1506 78.9007 51.2114 78.4039 53.2722C77.907 55.333 77.0128 57.3938 77.2115 59.5577C77.2115 59.8668 77.3109 59.9699 77.5096 60.176C77.5096 60.6912 77.8077 61.2064 78.5033 61.3094C80.2919 61.5155 82.2792 61.1033 84.0678 60.8972C85.0615 60.7942 85.9558 60.6912 86.9495 60.5881C87.5457 60.4851 88.2413 60.4851 88.6388 59.9699C88.8375 59.4547 88.8375 58.8364 88.8375 58.2182ZM86.1546 53.6844C85.0616 55.333 82.6767 55.4361 81.3849 54.0965C80.7887 53.4783 80.4906 52.5509 80.4906 51.6235C80.4906 50.6962 80.8881 49.5627 81.8817 49.2536C81.9811 49.2536 82.0805 49.2536 82.0805 49.2536C82.2792 49.0475 82.5773 48.9445 82.8754 48.8414C83.571 48.7384 84.366 48.9445 84.9622 49.3566C85.6577 49.8718 86.1546 50.4901 86.4527 51.3144C86.7508 52.0357 86.6514 52.9631 86.1546 53.6844Z" fill="#F7C300"/>
<path d="M36.0734 54.8179C32.993 55.6423 29.8133 56.1574 26.6335 56.1574C25.2424 56.1574 25.2424 58.3213 26.5342 58.3213C29.9127 58.3213 33.2911 57.8061 36.5703 56.9818C37.862 56.5696 37.3652 54.4058 36.0734 54.8179Z" fill="#1E1E1E"/>
<path d="M20.6714 54.8179C18.684 54.6119 16.9948 53.7875 15.6037 52.3449C14.61 51.3145 13.1195 52.8601 14.1132 53.8906C15.9018 55.7453 18.0879 56.8788 20.5721 57.0848C21.9632 57.0848 22.0625 54.921 20.6714 54.8179Z" fill="#1E1E1E"/>
<path d="M12.8213 40.4951C11.4301 42.659 11.0327 45.235 11.6289 47.708C11.927 49.0475 14.0137 48.5323 13.7156 47.1928C13.2188 45.235 13.5169 43.2772 14.7093 41.6286C15.4048 40.4951 13.6162 39.3617 12.8213 40.4951Z" fill="#1E1E1E"/>
<path d="M23.4536 31.6337C20.9695 32.561 18.7834 33.9006 16.796 35.6523C15.8023 36.5796 17.1935 38.1252 18.2865 37.1979C19.9758 35.6523 21.8638 34.4158 23.9505 33.6945C25.1429 33.2823 24.7454 31.2215 23.4536 31.6337Z" fill="#1E1E1E"/>
<path d="M36.3715 23.6995C34.2848 26.1724 31.5025 27.615 28.6208 28.7485C27.3291 29.2637 28.4221 31.1184 29.6145 30.7063C32.6949 29.4698 35.5766 27.9241 37.7627 25.2451C38.657 24.3177 37.2658 22.669 36.3715 23.6995Z" fill="#1E1E1E"/>
<path d="M41.3398 11.2315C41.6379 12.8801 41.5386 14.6318 41.1411 16.2805C40.843 17.62 42.8303 18.2383 43.1284 16.8988C43.6253 14.8379 43.7247 12.7771 43.3272 10.7163C43.1285 9.27371 41.1411 9.78891 41.3398 11.2315Z" fill="#1E1E1E"/>
<path d="M41.0418 4.84295C39.6506 2.57604 37.0671 0 34.2848 0C32.8936 0 32.8936 2.26691 34.1854 2.16387C36.1727 2.06083 38.1601 4.2247 39.1538 5.87336C39.9487 7.00681 41.8367 5.9764 41.0418 4.84295Z" fill="#1E1E1E"/>
<path d="M28.8196 0.309106C26.9316 0.412147 25.0436 0.927362 23.2549 1.75169C22.0625 2.36994 23.0562 4.22467 24.2486 3.70947C25.6398 3.09122 27.1303 2.67905 28.7202 2.57601C30.0119 2.36993 30.1113 0.206065 28.8196 0.309106Z" fill="#1E1E1E"/>
<path d="M16.7961 4.53377C15.5043 5.56418 14.0138 6.49155 12.5233 7.31588C11.3308 7.93413 12.3245 9.8919 13.5169 9.27365C15.2062 8.34628 16.6967 7.31587 18.1872 6.18242C19.2803 5.25505 17.7897 3.6064 16.7961 4.53377Z" fill="#1E1E1E"/>
<path d="M8.05168 10.8192C7.75358 10.304 7.15741 10.098 6.66057 10.4071C6.46183 10.5101 6.26309 10.6132 5.96498 10.7162L5.76624 10.8192C5.66687 10.8192 5.56748 10.9223 5.36874 10.9223C4.8719 11.0253 4.37507 11.1284 3.87823 11.2314C3.77886 11.2314 3.67951 11.2314 3.58014 11.2314H3.38139C3.08329 11.2314 2.88456 11.2314 2.58646 11.2314C2.08962 11.2314 1.59279 11.1284 1.09595 11.1284C0.599111 11.0253 0.00292969 11.6436 0.00292969 12.1588C0.00292969 12.777 0.4004 13.1892 0.996605 13.2922C3.28206 13.7044 5.56753 13.2922 7.65424 12.2618C8.15108 12.0557 8.34978 11.3344 8.05168 10.8192Z" fill="#1E1E1E"/>
<path d="M78.2053 43.2772V43.1742C67.8711 41.9377 57.5368 41.2164 47.2026 42.5559C46.6064 42.659 46.3083 43.0711 46.3083 43.4833C46.1095 43.6894 45.9108 43.8955 46.0102 44.3076C46.4077 51.6235 46.2089 59.0425 45.414 66.3584C45.3146 67.698 47.302 67.698 47.4014 66.3584C48.1963 59.1456 48.395 51.8296 47.9975 44.5137C57.7356 43.3803 67.4736 43.9985 77.2116 45.132C77.311 45.235 77.4103 45.235 77.6091 45.235C78.0065 45.235 77.8078 45.132 77.8078 45.7502C77.8078 46.2654 77.8078 46.7806 77.7085 47.1928C77.6091 48.1202 77.6091 48.9445 77.5097 49.8719C77.311 51.7266 77.1122 53.5813 76.8141 55.5391C76.4167 58.9395 76.0192 62.3398 75.9198 65.7402C66.9767 65.6371 58.0336 65.6371 49.0906 65.7402C47.7988 65.7402 47.7988 67.801 49.0906 67.801C58.3317 67.5949 67.6723 67.5949 76.9135 67.801C77.4103 67.801 77.9072 67.2858 77.9072 66.7706C77.9072 62.1337 78.6028 57.4969 79.199 52.86C79.4971 50.5931 79.6958 48.3262 79.7952 45.9563C79.7952 44.5137 79.3977 43.5863 78.2053 43.2772Z" fill="#1E1E1E"/>
<path d="M69.5602 47.296C69.0634 46.9869 68.4671 46.9869 67.9703 47.296C67.7715 47.399 67.5728 47.6051 67.4734 47.8112C67.3741 47.9143 67.3741 48.0173 67.2748 48.1203C66.4798 47.399 65.0886 46.6778 64.1943 47.6051C64.1943 47.6051 63.8962 48.0173 63.9956 48.0173C63.7968 48.0173 63.3994 47.6051 63.3001 47.5021C62.8032 47.193 62.207 46.8838 61.6108 46.9869C61.3127 47.0899 61.1139 47.296 60.9152 47.5021C60.8158 47.6051 60.8158 47.7082 60.7165 47.8112C60.4184 47.399 60.1203 46.9869 59.7228 46.7808C59.2259 46.5747 58.7291 46.6778 58.2323 46.9869C57.6361 47.399 57.5367 47.9142 56.7418 47.399C56.2449 47.193 55.9468 46.6778 55.45 46.5747C54.8538 46.4717 54.3569 46.7808 53.9595 47.193C53.8601 47.296 53.6614 47.7082 53.4626 47.8112C53.3633 47.8112 53.0652 47.193 52.9658 47.0899C52.6677 46.6778 52.2702 46.3686 51.7734 46.3686C50.3822 46.1625 49.786 47.399 49.9848 48.5325C50.1835 49.5629 51.2765 49.4599 51.7734 48.7386C51.9721 48.9447 52.1709 49.2538 52.3696 49.4599C52.7671 49.769 53.2639 49.9751 53.7607 49.872C54.2576 49.769 54.655 49.4599 55.0525 49.0477C55.0525 49.0477 55.1519 48.9447 55.2512 48.7386C55.3506 48.7386 55.3506 48.8416 55.45 48.8416C56.3443 49.4599 57.5367 49.872 58.5304 49.2538C58.7291 49.1507 58.9279 48.9447 59.1266 48.8416C59.3253 49.2538 60.0209 49.6659 60.4184 49.769C60.9152 49.872 61.4121 49.769 61.8095 49.4599C61.9089 49.3568 62.1076 49.2538 62.207 49.0477C62.8032 49.769 64.095 50.1812 64.8899 49.666C65.0886 49.5629 65.2874 49.3568 65.3867 49.2538C65.7842 49.4599 66.5791 49.872 66.6785 49.9751C67.1754 50.1811 67.5728 50.1811 68.0697 49.9751C68.2684 49.872 68.4671 49.6659 68.6659 49.4599C68.7652 49.3568 68.7652 49.2538 68.8646 49.1507C69.8583 49.3568 70.5539 47.9143 69.5602 47.296Z" fill="#1E1E1E"/>
<path d="M67.2748 53.0662C67.3742 53.0662 66.3805 52.4479 66.2811 52.3449C65.8836 52.2418 65.4861 52.3449 65.188 52.551C64.7906 52.8601 64.7906 53.2722 64.2938 53.0662C63.8963 52.9631 63.4988 52.4479 63.2007 52.2418C62.5051 51.7266 61.6108 51.7266 60.9152 52.3449C60.7165 52.551 60.4184 53.1692 60.2197 53.2723C59.9216 53.3753 59.4247 52.757 59.1266 52.551C58.5304 52.0357 57.7355 51.7266 57.0399 52.4479C56.7418 52.757 56.5431 53.2722 56.245 53.4783C55.8475 53.7875 55.7481 53.3753 55.45 53.1692C54.7545 52.551 53.8601 52.3449 53.0652 52.8601C52.9658 52.9631 52.6677 53.2722 52.469 53.4783L52.3697 53.3753C52.1709 53.1692 51.8728 52.9631 51.6741 52.654C51.376 52.3449 50.8791 52.2418 50.4816 52.4479C49.9848 52.8601 49.6867 53.1692 49.488 53.7875C49.1899 54.8179 50.3823 55.3331 51.0778 54.8179C51.5747 55.3331 52.1709 55.7452 52.7671 55.7452C53.1646 55.7452 53.5621 55.5391 53.8602 55.127C54.2576 54.7148 54.0589 54.4057 54.4564 54.7148C55.1519 55.3331 55.8475 55.6422 56.7418 55.3331C57.1393 55.127 57.5368 54.8179 57.8349 54.5087C57.9342 54.4057 58.0336 54.3027 58.133 54.1996C58.7292 54.8179 59.6235 55.23 60.3191 55.127C60.7165 55.127 61.2133 54.9209 61.5114 54.6118C61.6108 54.5087 62.0083 54.0966 62.1077 53.7875C62.207 53.8905 62.207 53.8905 62.3064 53.9935C62.5051 54.0966 62.7039 54.3027 62.8033 54.4057C63.2007 54.7148 63.6975 54.9209 64.1944 54.9209C64.5918 54.9209 64.9893 54.9209 65.3868 54.7148C65.5855 54.6118 65.7842 54.5087 65.983 54.3027C65.983 54.3027 65.983 54.1996 66.0824 54.1996C66.3805 54.4057 66.5792 54.6118 66.8773 54.7148C67.3741 54.8179 67.871 54.7148 68.2685 54.4057C69.3615 54.0966 68.3678 52.3449 67.2748 53.0662Z" fill="#1E1E1E"/>
<path d="M61.2134 58.6305C60.9153 58.2183 60.3191 57.9092 59.8223 58.2183C59.5242 58.4244 59.1266 58.6305 58.7292 58.6305C58.2323 58.6305 57.8349 58.4244 57.4374 58.2183C56.9406 58.0122 56.3444 58.0122 55.8476 58.2183C55.5494 58.3213 55.3507 58.4244 55.152 58.6305C55.0526 58.7335 54.9532 58.7335 54.9532 58.7335C54.5557 58.5274 54.2577 58.3213 53.8602 58.2183C53.264 58.0122 52.6678 58.3213 52.3697 58.8365C52.3697 58.9396 52.2703 58.9396 52.2703 59.0426C51.8728 58.8365 51.5747 58.5274 51.0779 58.4244C50.581 58.3213 49.9849 58.6305 49.8855 59.1457C49.7861 59.6609 50.0842 60.2791 50.581 60.3822C51.1772 60.4852 51.6741 61.1034 52.3697 61.1034C52.7672 61.1034 53.1646 61.0004 53.4627 60.6913C53.5621 60.5882 53.6614 60.4852 53.7608 60.3822C53.9595 60.4852 54.0589 60.5882 54.2576 60.5882C54.5557 60.6913 54.8538 60.7943 55.2513 60.6913C55.6488 60.6913 55.9469 60.4852 56.245 60.2791C56.4437 60.1761 56.5431 59.97 56.8412 59.97C57.1393 59.97 57.4374 60.1761 57.6362 60.2791C58.0336 60.3821 58.4311 60.4852 58.8286 60.4852C59.5242 60.4852 60.3191 60.2791 60.9153 59.7639C61.3127 59.6609 61.5115 59.1457 61.2134 58.6305Z" fill="#1E1E1E"/>
<path d="M73.7336 62.34C73.6343 61.9278 73.3362 61.5157 72.5412 61.3096C72.1437 61.2065 71.7463 61.2065 71.3488 61.2065C70.057 61.2065 68.7652 61.2065 67.3741 61.2065C66.7779 61.2065 66.1817 61.2065 65.5855 61.3096C64.8899 61.5157 64.3931 61.7217 64.2937 62.237C64.2937 62.443 64.1943 62.6491 64.1943 62.7522C64.1943 62.9582 64.0949 63.2674 64.1943 63.4734C64.393 63.9887 65.188 64.0917 65.8836 63.9887C66.4798 63.8856 67.076 63.9887 67.5728 64.0917C68.2684 64.0917 68.8646 64.1947 69.5602 64.0917C70.2558 64.0917 70.852 64.0917 71.5475 63.9887C72.1437 63.8856 72.9386 63.8856 73.4355 63.5765C74.2304 63.3704 73.9324 62.7522 73.7336 62.34Z" fill="#F7C300"/>
<path d="M73.7337 60.8972C71.1501 61.0003 68.5666 61.0003 65.8836 61.1033C64.5919 61.1033 64.5919 63.1641 65.8836 63.1641C68.4672 63.0611 71.0508 63.0611 73.7337 62.958C75.0255 62.958 75.0255 60.8972 73.7337 60.8972Z" fill="#1E1E1E"/>
<path d="M91.6199 42.0408C91.6199 41.0104 91.7192 39.5678 91.3217 38.6404C90.7255 36.9917 87.7445 36.8887 86.3533 36.6826C77.2115 35.2401 67.871 34.9309 58.6298 35.3431C58.0336 35.3431 57.6361 35.7553 57.6361 36.3735L57.5367 39.9799C57.5367 41.3195 59.5241 41.3195 59.5241 39.9799C59.5241 39.1556 59.6235 38.2282 59.6235 37.4039C66.9767 37.0948 74.3299 37.4039 81.5837 38.2282C81.6831 39.2587 81.6831 40.186 81.6831 41.2164C81.6831 41.7316 81.6831 42.3499 81.5837 42.8651C81.5837 43.3803 81.385 43.8955 81.385 44.4107C81.385 45.132 81.8818 45.7502 82.5774 45.8533C83.1736 45.8533 83.6705 45.4411 84.1673 45.132C84.366 45.029 84.5647 44.8229 84.8628 44.7198L84.9622 44.6168C84.9622 44.6168 84.9622 44.7198 85.0616 44.7198C85.2603 44.9259 85.3597 45.235 85.5584 45.4411C85.8565 45.8533 86.4527 46.1624 86.9496 45.8533C87.9433 45.235 87.9433 43.7925 88.142 42.7621C88.3407 41.6286 88.4401 40.5982 88.5394 39.4647C88.7382 39.4647 88.9369 39.5678 89.1357 39.6708C89.7319 40.083 89.5331 39.4647 89.6325 40.2891C89.7319 42.556 89.7319 44.7198 89.7319 46.9867C89.7319 51.3145 89.6325 55.6422 89.5331 59.9699C86.6515 60.2791 83.6704 60.4851 80.7888 60.5882C79.497 60.5882 79.497 62.649 80.7888 62.649C84.0679 62.546 87.347 62.3399 90.5268 61.9277C91.0236 61.8247 91.5205 61.5155 91.5205 60.8973C91.6198 55.9513 91.8186 51.0054 91.7192 45.9563C91.6198 44.4107 91.6199 43.1742 91.6199 42.0408ZM84.7635 42.1438C84.366 42.2469 83.8692 42.659 83.5711 42.8651C83.5711 42.7621 83.5711 42.659 83.5711 42.556C83.5711 42.0408 83.6705 41.4225 83.6705 40.9073C83.6705 40.083 83.6704 39.1556 83.5711 38.3313C83.7698 38.3313 84.0679 38.3313 84.2666 38.4343C85.0616 38.5374 85.8566 38.6404 86.6515 38.7435C86.5521 39.6708 86.4527 40.5982 86.3533 41.5256C86.3533 41.8347 86.254 42.1438 86.254 42.4529C85.7572 42.1438 85.3597 41.9377 84.7635 42.1438Z" fill="#1E1E1E"/>
<path d="M86.9496 51.6237C86.6515 50.4902 85.8566 49.5628 84.8629 49.0476C83.5711 48.3263 82.0806 48.3263 80.9876 49.3568C80.5901 49.6659 80.5901 50.4902 80.9876 50.7993C81.3851 51.2115 81.9812 51.2115 82.3787 50.7993C82.2793 50.9024 82.3787 50.7993 82.4781 50.7993C82.5775 50.7993 82.6768 50.6963 82.5774 50.7993C82.6768 50.7993 82.7762 50.6963 82.8755 50.6963H82.9749C83.0743 50.6963 83.1737 50.6963 83.273 50.6963H83.3724C83.4717 50.6963 83.5711 50.7993 83.6705 50.7993H83.7699C83.9686 50.9024 84.068 51.0054 84.2667 51.1084C84.2667 51.1084 84.2667 51.1084 84.366 51.1084C84.4654 51.2115 84.5648 51.2115 84.5648 51.3145C84.6642 51.4176 84.6642 51.4176 84.7635 51.5206C84.7635 51.6236 84.8629 51.6237 84.8629 51.7267C84.8629 51.7267 84.8629 51.8297 84.9623 51.8297V51.9328V52.0358C84.9623 52.1389 84.9623 52.2419 85.0616 52.3449V52.448C85.0616 52.551 85.0616 52.6541 85.0616 52.7571C85.0616 52.551 85.0616 52.8601 85.0616 52.8601C85.0616 52.8601 85.0617 52.9632 84.9623 53.0662L84.8629 53.1693C84.8629 53.1693 84.8629 53.2723 84.7635 53.2723C84.6642 53.3754 84.6642 53.3754 84.6642 53.4784L84.5648 53.5814C84.4654 53.6845 84.2667 53.7875 84.1674 53.7875H84.068C83.9686 53.7875 83.9686 53.7875 83.8692 53.8906C83.6705 53.9936 83.5711 53.9936 83.3724 53.9936C83.3724 53.9936 83.3724 53.9936 83.273 53.9936H83.1737C83.0743 53.9936 82.8756 53.9936 82.7762 53.9936C82.6768 53.9936 82.6768 53.9936 82.5774 53.9936H82.4781H82.3787C82.3787 53.9936 82.2793 53.9936 82.2793 53.8906C82.2793 53.8906 82.18 53.8906 82.18 53.7875L82.0806 53.6845C82.0806 53.6845 81.9813 53.5814 81.9813 53.4784C81.7825 52.9632 81.0869 52.8601 80.5901 53.0662C80.0932 53.3753 79.9939 53.9936 80.1927 54.5088C81.2857 56.7757 84.5648 56.4666 86.0553 54.921C87.049 54.0966 87.2477 52.8601 86.9496 51.6237Z" fill="#1E1E1E"/>
<path d="M72.4418 38.9495C68.964 38.8464 65.4861 38.8464 61.9089 38.8464C60.6171 38.8464 60.6171 40.9073 61.9089 40.9073C65.3868 40.8042 68.8646 40.9072 72.4418 41.0103C73.7336 41.1133 73.7336 39.0525 72.4418 38.9495Z" fill="#1E1E1E"/>
<path d="M94.2034 35.3431C93.6072 34.5188 92.9116 33.7975 92.0173 33.3853C91.0236 32.8701 89.8312 32.7671 88.7382 32.6641C88.2413 32.6641 87.7445 33.1793 87.7445 33.6945C87.7445 34.3127 88.2413 34.7249 88.7382 34.7249C89.5331 34.8279 90.4275 34.8279 91.123 35.2401C91.7192 35.5492 92.2161 36.0644 92.6135 36.6827C93.6072 38.1252 93.8059 39.98 94.0047 41.6286C94.104 42.1438 94.4021 42.659 94.9983 42.659C95.4952 42.659 96.0914 42.1438 95.992 41.6286C95.7933 39.3617 95.3958 37.0948 94.2034 35.3431Z" fill="#1E1E1E"/>
<path d="M59.6235 69.8619C56.6425 69.9649 53.562 69.9649 50.581 69.8619C49.2892 69.8619 49.2892 71.9227 50.581 71.9227C53.562 72.0258 56.6425 72.0258 59.6235 71.9227C60.8159 71.8197 60.8159 69.7589 59.6235 69.8619Z" fill="#1E1E1E"/>
</svg>
