<svg width="51" height="33" viewBox="0 0 51 33" fill="none" xmlns="http://www.w3.org/2000/svg">
<path d="M40.1884 10.5594C35.1936 9.43519 30.1988 8.18601 25.0791 7.18666C22.9563 6.68699 21.2081 7.93617 19.2102 8.56076C16.8376 9.31027 14.3402 9.80994 11.8428 10.4345C10.719 10.6844 10.719 12.4332 11.7179 12.808C11.8428 12.9329 11.9677 13.0578 12.2174 13.1827C12.3423 13.1827 12.3423 13.1827 12.4672 13.3076C12.4672 13.4326 12.3423 13.5575 12.3423 13.6824C12.0926 14.307 12.0926 15.0565 12.0926 15.806C11.8428 16.0558 11.7179 16.3057 11.7179 16.5555C11.4682 18.9289 11.3433 21.1775 11.3433 23.5509C11.3433 25.1748 11.3433 26.5489 13.2164 26.9237C15.2143 27.4234 17.3371 27.5483 19.4599 27.7981C21.7076 28.0479 23.9552 28.2978 26.2029 28.2978C28.3257 28.4227 30.5734 28.2978 32.6962 28.0479C34.4443 27.7981 36.9418 27.7981 38.3153 26.6738C41.1873 24.5502 39.8138 19.3037 38.9397 16.5555C38.8148 16.1807 38.4402 15.806 38.0656 15.6811C38.0656 15.0565 38.0656 14.307 37.9407 13.6824C38.6899 13.4326 39.3143 13.1827 40.0635 12.9329C41.3122 12.5581 41.4371 10.8093 40.1884 10.5594Z" fill="#F7C300"/>
<path d="M43.0604 26.4237C42.8107 24.425 42.6858 22.3014 42.4361 20.3027C42.4361 19.803 42.1863 19.3034 41.8117 18.9286C41.4371 18.5539 40.9376 18.304 40.3133 18.304C39.8138 18.304 39.1894 18.5539 38.8148 18.9286C38.4402 19.3034 38.1905 19.803 38.1905 20.3027C38.3153 22.0516 38.5651 23.6755 38.69 25.4243C34.0697 26.7984 29.3247 26.9233 24.4547 26.6735C22.0822 26.5486 19.7097 26.4237 17.3371 26.1738C15.7138 26.0489 14.0905 25.5493 12.8418 24.5499V19.0535C12.8418 18.0542 11.8428 16.9299 10.8439 17.0548C9.72004 17.0548 8.84595 17.9293 8.84595 19.0535V24.5499C8.84595 24.7997 8.84595 25.0496 8.97082 25.2994C8.84595 25.7991 8.97082 26.4237 9.4703 27.0483C12.8418 30.7958 18.8356 30.546 23.4558 30.7958C29.3247 31.1706 35.1936 30.9207 40.8128 29.1719C41.3122 29.047 41.6868 28.6722 41.9366 28.2974C42.0615 28.1725 42.3112 28.1725 42.4361 28.0476C42.8107 27.5479 43.0604 27.0483 43.0604 26.4237Z" fill="#1E1E1E"/>
<path d="M50.4278 11.3089C50.4278 11.184 50.4278 11.0591 50.4278 10.9341C50.4278 10.8092 50.4278 10.8092 50.4278 10.6843C50.4278 10.5594 50.303 10.4345 50.1781 10.3096C50.0532 10.0597 49.9284 9.9348 49.6786 9.80988C49.6786 9.80988 49.5538 9.68496 49.4289 9.68496C49.0543 9.43513 48.5548 9.31021 48.0553 9.31021C40.1885 7.93611 32.5714 6.06234 25.0792 3.56399C24.5797 3.43907 23.9553 3.43907 23.4559 3.6889C23.331 3.6889 23.331 3.81382 23.2061 3.81382C23.0812 3.93874 22.8315 3.93874 22.7066 4.06366C21.5828 4.93808 19.9595 5.31284 18.5859 5.81251C16.8377 6.4371 15.2144 6.93677 13.4662 7.56136C9.96986 8.81054 6.59837 9.9348 3.102 11.184C2.97713 11.184 2.97713 11.184 2.85226 11.184C2.47765 11.3089 2.10304 11.5587 1.8533 11.8086L1.72842 11.9335C1.60355 12.0584 1.60356 12.1833 1.47869 12.3082C1.47869 12.4332 1.35381 12.4332 1.35381 12.5581C1.35381 12.683 1.35381 12.683 1.35381 12.8079C1.35381 12.9328 1.35381 13.0577 1.35381 13.0577C1.35381 13.1827 1.35381 13.3076 1.35381 13.4325C1.35381 13.5574 1.35381 13.5574 1.35381 13.6823C1.60355 15.0564 1.72842 16.3056 1.72842 17.6797C1.72842 18.3043 1.72842 18.9289 1.72842 19.6784C1.72842 20.0531 1.72842 20.303 1.72842 20.6777C1.72842 20.8027 1.72842 20.9276 1.72842 20.9276C1.60355 21.0525 1.35381 21.1774 1.22894 21.4272C0.854333 21.9269 0.604592 22.5515 0.604592 23.1761C0.604592 23.301 0.72946 23.5508 0.72946 23.6758C0.105109 24.4253 -0.0197587 25.7994 0.854334 26.424C0.979204 26.5489 1.10407 26.5489 1.22894 26.6738C0.854333 27.2984 0.604591 28.0479 0.979202 28.7974C1.10407 29.1721 1.35381 29.422 1.60355 29.6718C1.47868 30.0466 1.47868 30.4213 1.60355 30.7961C1.85329 31.7954 3.102 32.5449 4.10096 32.1702C4.85018 31.9203 5.72428 31.6705 6.4735 31.4207C8.22168 30.921 8.34655 28.7974 6.97298 27.7981C7.22272 27.2984 7.34759 26.6738 7.22272 25.9243C7.09785 25.6744 6.97298 25.4246 6.84811 25.1748C7.47246 24.4253 7.47246 23.301 6.72323 22.5515C6.47349 22.3017 6.09889 22.0518 5.84915 21.9269C5.97402 20.9276 5.97401 19.9282 5.97401 18.804C5.97401 17.6797 5.97402 16.5554 5.84915 15.5561C12.9668 16.8053 19.9595 18.679 26.7025 20.9276C27.202 21.0525 27.8263 21.0525 28.3258 20.8027C28.4507 20.8027 28.4507 20.6777 28.5755 20.6777C28.7004 20.5528 28.9502 20.5528 29.075 20.4279C30.1989 19.5535 31.8222 19.1787 33.1958 18.679C34.9439 18.0545 36.5672 17.5548 38.3154 16.9302C41.8118 15.681 45.3082 14.5568 48.6797 13.3076C48.6797 13.3076 48.8045 13.3076 48.8045 13.1827C49.4289 12.9328 50.0532 12.5581 50.1781 11.9335C50.1781 11.8086 50.1781 11.8086 50.1781 11.6836C50.4279 11.4338 50.4278 11.4338 50.4278 11.3089ZM36.4424 13.1827C34.5693 13.8073 32.8211 14.4318 30.9481 15.0564C29.5745 15.5561 28.3258 15.9309 27.202 16.6804C22.2072 15.0564 16.9626 13.5574 11.8429 12.4332C13.0916 11.9335 14.4652 11.5587 15.7139 11.0591C17.587 10.4345 19.3351 9.80988 21.2082 9.18529C22.5818 8.68562 23.8305 8.31087 24.9543 7.56136C29.9491 9.18529 35.1937 10.6843 40.3134 11.8086C39.0646 12.1833 37.6911 12.683 36.4424 13.1827Z" fill="#1E1E1E"/>
<path d="M44.0595 3.81389C40.1885 3.31422 36.4424 2.4398 32.8212 1.0657C32.1968 0.815866 31.4476 1.31554 31.3228 1.94013C31.073 2.56472 31.5725 3.18931 32.1968 3.43914C35.8181 4.68832 39.5642 5.56275 43.4352 6.18733C44.0595 6.31225 44.8087 6.06242 44.9336 5.31291C45.1834 4.68832 44.8087 3.93881 44.0595 3.81389Z" fill="#1E1E1E" stroke="#1E1E1E" stroke-width="0.7443" stroke-miterlimit="10"/>
</svg>
