<svg width="34" height="32" viewBox="0 0 34 32" fill="none" xmlns="http://www.w3.org/2000/svg">
<path d="M33.7702 3.76208C33.6454 2.6343 31.024 2.13306 29.7758 2.13306C25.9062 2.13306 21.9117 2.25837 18.0421 2.25837C16.0449 2.25837 14.1725 2.25837 12.1753 2.38368C10.4277 2.38368 8.30568 2.13306 6.68294 2.6343C4.68572 3.13553 5.93398 5.01518 6.05881 6.76952C6.18363 8.77448 6.18363 10.7794 6.30846 12.7844C6.55811 16.669 5.80916 20.6789 6.18363 24.5635C6.18363 25.1901 6.43329 25.6913 6.93259 26.0672C6.93259 26.3178 7.05742 26.6938 7.18224 26.9444C7.80637 27.9469 8.92981 28.1975 9.92842 27.6963C11.8008 26.8191 14.547 22.8092 16.4194 21.932C17.418 21.5561 17.6676 22.3079 18.6662 21.932C19.2904 21.6814 20.0393 22.8092 20.6635 22.8092C21.2876 22.8092 22.2862 23.4357 22.9103 23.561C23.7841 23.937 24.6579 24.1876 25.5317 24.5635C27.4041 25.3154 29.2765 26.0672 31.1489 26.8191C32.2723 27.3203 33.895 26.0672 33.7702 24.8141C33.1461 17.9221 34.3944 10.6541 33.7702 3.76208Z" fill="#F7C300"/>
<path d="M32.1474 2.50905C32.1474 2.25843 32.1474 2.00781 32.0226 1.8825C31.8978 1.00533 31.2736 0.128162 30.0254 0.128162C20.9131 -0.122458 11.8008 0.128162 2.81328 0.880021C1.19054 1.00533 0.566403 2.75967 1.06571 3.88745C0.69123 4.26338 0.566406 4.63931 0.566406 5.26586C0.691232 13.2857 0.691233 21.3055 0.81606 29.4507C0.81606 29.9519 0.940885 30.3278 1.19054 30.5784C1.19054 30.7037 1.31536 30.8291 1.31536 30.8291C1.81467 31.7062 3.18775 32.2075 4.06154 31.5809C8.30563 28.9494 12.5497 26.1926 16.7938 23.5611C18.5414 24.8142 20.4138 25.6914 22.2862 26.5685C23.4096 27.0698 24.533 27.571 25.6565 28.1976C26.1558 28.4482 26.6551 28.8241 27.1544 29.0747C27.2792 29.2 27.404 29.2 27.5289 29.3253C27.5289 29.3253 27.6537 29.4507 27.7785 29.4507C28.0282 29.7013 28.2778 29.8266 28.5275 30.0772C29.2764 30.8291 30.6495 30.9544 31.3985 30.0772C31.6481 29.8266 31.773 29.576 31.8978 29.3253C32.0226 29.0747 32.1474 28.8241 32.1474 28.4482C32.2723 19.8018 32.3971 11.1554 32.1474 2.50905ZM28.0282 24.8142C26.9047 24.1876 25.9061 23.6864 24.6579 23.1852C23.5344 22.6839 22.411 22.1827 21.2876 21.5561C20.7882 21.3055 20.2889 20.9296 19.6648 20.679C19.4152 20.5537 19.1655 20.303 18.791 20.1777C18.6662 20.0524 18.5414 20.0524 18.4165 19.9271C18.6662 20.1777 18.1669 19.8018 18.1669 19.8018C17.4179 19.1752 16.4193 19.0499 15.6704 19.4259C15.4207 19.4259 15.2959 19.5512 15.0462 19.6765C11.5511 21.9321 8.05598 24.0623 4.56084 26.3179C4.68567 19.3006 4.68567 12.2832 4.56084 5.26586C4.56084 5.14055 4.56084 5.01524 4.56084 4.76462C12.4249 4.26338 20.2889 4.01276 28.153 4.13807C28.153 11.0301 28.153 17.9221 28.0282 24.8142Z" fill="#1E1E1E"/>
</svg>
