<svg width="41" height="38" viewBox="0 0 41 38" fill="none" xmlns="http://www.w3.org/2000/svg">
<path d="M38.6472 15.5712C36.7795 15.2009 34.9118 14.5838 33.1687 13.9666C31.4255 13.3494 29.6823 12.6088 28.0637 11.6214C26.6941 10.7573 26.5695 9.02926 26.196 7.67149C25.698 5.81998 25.449 3.84504 25.3245 1.99353C25.1999 1.25293 24.7019 0.759195 23.9548 0.635761C23.2078 0.512327 22.5852 1.00606 22.2117 1.4998C21.2156 3.10444 20.344 4.83251 19.3479 6.43715C18.6008 7.67149 17.8538 9.15269 16.6087 10.0167C15.3635 10.8808 13.8694 10.8808 12.4998 10.6339C10.6321 10.2636 8.76441 9.64643 6.89674 9.52299C5.52711 9.39956 4.78006 10.6339 5.2781 11.8682C5.2781 12.362 5.40261 12.8557 5.90066 13.226C7.02126 14.3369 8.14187 15.4478 9.13797 16.5587C9.63601 17.1759 10.2586 17.6696 10.7566 18.2868C11.0056 18.5337 11.2547 18.904 11.5037 19.1508C11.6282 19.2743 11.7527 19.3977 11.8772 19.6446L12.0017 19.768V19.8914C11.8772 20.1383 11.8772 20.2617 11.7527 20.5086C11.6282 20.8789 11.5037 21.2492 11.2546 21.6195C11.0056 22.3601 10.6321 23.1007 10.3831 23.9647C9.76052 25.5694 9.13796 27.0506 8.39089 28.6552C7.89284 29.8896 9.13797 31.3708 10.3831 30.7536C12.0017 30.013 13.7449 29.2724 15.3635 28.5318C16.1106 28.1615 16.9822 27.9146 17.7292 27.6678C18.4763 27.4209 18.6008 27.6678 19.0989 28.1615C22.0872 30.3833 25.0754 32.4817 28.1882 34.7035C29.3088 35.4441 30.9275 34.7035 30.803 33.3457C30.5539 31.7411 30.5539 30.013 30.5539 28.4084C30.5539 27.5443 30.5539 26.6803 30.6784 25.8162C30.8029 25.0756 31.301 24.7053 31.799 24.2116C34.0402 21.9898 36.655 20.1383 39.2697 18.5337C40.6393 17.6696 39.8923 15.8181 38.6472 15.5712Z" fill="#F7C300"/>
<path d="M37.9001 14.9541C37.5266 14.4604 36.904 14.0901 36.4059 13.9667L27.3166 11.2511C26.3205 9.39961 25.6979 7.05437 25.0754 4.70912C24.9509 4.21539 24.8264 3.84509 24.7019 3.22792L24.3283 2.24045C23.9548 1.12954 22.9587 0.265508 21.7136 0.0186404C20.4685 -0.104793 19.3479 0.388942 18.6008 1.37641L13.6203 8.53557C12.7488 9.76991 10.2585 9.52304 7.7683 9.27617C6.64769 9.15274 5.6516 9.02931 4.65551 9.02931H3.65943C2.41432 9.02931 1.29369 9.64647 0.795646 10.7574C0.2976 11.8683 0.422134 13.1026 1.1692 14.0901L6.8967 21.6196C6.52317 22.7305 6.14965 23.9648 5.90062 24.9523C5.40258 26.8038 4.90453 28.6553 4.03295 30.3834C4.03295 30.5068 3.90843 30.5068 3.90843 30.6302C3.65941 31.2474 3.65941 31.8646 3.90843 32.4817C4.15746 33.3458 4.78004 34.0864 5.5271 34.4567C5.90064 34.5801 6.14965 34.7035 6.52318 34.827C7.02123 34.9504 7.51929 34.827 8.01733 34.7035L16.9821 31.6177L18.9743 33.0989C19.0988 33.2223 19.2233 33.2223 19.3478 33.3458C19.9704 33.5926 20.7175 34.2098 21.4646 34.827C22.7097 35.9379 24.4528 37.2956 26.3205 37.2956C26.5695 37.2956 26.8186 37.2956 27.0676 37.1722C27.5656 37.0488 27.9392 36.9253 28.3127 36.6785C30.1804 35.8144 29.9314 33.5926 29.8068 31.4943C29.8068 31.124 29.6823 30.7537 29.6823 30.3834L29.5578 25.0757L30.1804 24.7054C30.4294 24.4585 30.8029 24.3351 31.052 24.0882C31.1765 24.0882 31.1764 23.9648 31.301 23.9648C32.048 23.2242 32.9196 22.607 33.7912 21.9899C35.4098 20.879 37.0285 19.768 38.2736 17.9165C38.5226 17.5462 38.6472 17.0525 38.5226 16.5588C38.5226 15.9416 38.2736 15.4479 37.9001 14.9541ZM25.947 30.5068C25.947 30.8771 25.947 31.3708 26.0715 31.7411C26.0715 32.1114 26.196 32.852 26.196 33.3458C25.6979 33.2223 24.5773 32.2349 23.9548 31.8646C23.0832 31.124 22.0871 30.3834 21.2155 29.8896L19.0988 28.285C18.6008 27.9147 17.8537 27.6678 17.2312 27.6678C16.9822 27.6678 16.7331 27.6678 16.4841 27.7912C16.3596 27.7912 16.2351 27.7912 16.1106 27.9147L8.01733 30.7537C8.63989 29.149 9.13791 27.5444 9.51145 26.0632C9.76047 24.9523 10.134 23.8414 10.5076 22.7305C10.6321 22.2367 10.7566 21.743 10.632 21.2493C10.5075 20.7555 10.383 20.2618 10.0095 19.8915L4.78003 12.9792C5.5271 12.9792 6.5232 13.1026 7.39478 13.1026C10.7566 13.4729 14.6164 13.8432 16.7331 10.7574L21.091 4.46226C21.2155 4.83256 21.34 5.20286 21.34 5.57316C22.0871 8.2887 22.8342 11.2511 24.2038 13.5964C24.3283 13.7198 24.3283 13.8432 24.4528 13.9667C24.8264 14.337 25.3244 14.5838 25.8225 14.7073L33.9157 17.0525C33.2931 17.6697 32.4216 18.1634 31.6745 18.7806C30.6784 19.5212 29.6823 20.1383 28.8107 21.0024C28.5617 21.2493 28.1882 21.3727 27.9392 21.6196L27.0676 22.2367C26.196 22.8539 25.6979 23.8414 25.6979 24.9523L25.947 30.5068Z" fill="#1E1E1E"/>
<path d="M26.8186 20.015C26.9431 20.015 27.0676 20.015 27.1921 20.015C27.9392 19.8915 28.4372 19.3978 28.6863 18.6572C28.9353 17.6697 28.4372 16.6822 27.4411 16.4354C25.947 16.0651 24.7019 15.5713 23.8303 14.8307C23.0832 14.2136 22.4607 13.2261 22.2117 12.2386C21.9627 11.2512 20.9666 10.634 19.846 10.8809C19.3479 11.0043 18.9744 11.2512 18.7253 11.7449C18.4763 12.1152 18.3518 12.6089 18.4763 13.1027C18.8499 14.8307 19.7215 16.4354 21.0911 17.5463C22.5852 18.904 24.4529 19.5212 26.196 20.015C26.3205 20.015 26.3206 20.015 26.4451 20.015C26.6941 20.015 26.8186 20.015 26.8186 20.015Z" fill="#1E1E1E"/>
</svg>
