<svg width="100" height="99" viewBox="0 0 100 99" fill="none" xmlns="http://www.w3.org/2000/svg">
<path d="M24.1892 40.3691C23.4422 34.3208 13.8548 34.6911 14.7264 40.7394C16.345 53.6999 15.9715 66.4136 13.4812 79.1273C12.3606 85.0521 21.5745 87.2739 22.8196 81.3491C25.4343 67.7714 25.9324 54.0702 24.1892 40.3691Z" fill="#F7C300"/>
<path d="M64.9046 67.0303C60.6712 64.685 53.8231 66.4131 51.0838 70.1161C47.722 74.6832 49.8387 81.2252 55.0682 83.3236C57.5584 84.311 60.5467 84.311 62.9124 82.8298C64.6556 81.8423 65.7762 80.1143 66.5233 78.2628C67.5193 76.905 68.2664 75.4238 68.3909 73.6957C68.5154 71.1036 67.2703 68.2646 64.9046 67.0303Z" fill="#F7C300"/>
<path d="M82.4606 37.7769C82.4606 37.53 82.4607 37.2831 82.3362 37.0363C82.3362 36.9128 82.2116 36.666 82.0871 36.5425C81.8381 36.1722 81.8381 36.1722 81.5891 36.0488C81.34 35.8019 81.2155 35.8019 80.9665 35.6785C80.7175 35.6785 80.593 35.5551 80.344 35.5551C79.8459 35.5551 79.2233 35.8019 78.8498 36.1722C78.4763 36.5425 78.3518 36.9128 78.2272 37.4066C78.1027 38.0237 78.1027 38.5175 78.1027 39.1346C78.1027 39.2581 78.1027 39.3815 78.1027 39.5049C77.8537 56.0451 76.9821 72.5852 75.3635 89.0019C75.3635 88.8785 70.0095 89.0019 69.636 89.0019C66.1496 89.0019 62.6633 89.0019 59.177 89.1253C49.2161 89.3722 39.1307 88.8785 29.1697 89.1253C28.4227 89.1253 19.8314 89.2488 19.8314 89.3722C21.5745 63.5745 22.4461 37.6534 22.4461 11.8558C41.2474 12.5964 35.1463 12.8433 53.9475 12.7198C56.5623 12.7198 56.5623 8.64651 53.9475 8.64651C34.7727 8.89337 40.5003 8.64651 21.3255 7.78247C20.8275 7.78247 20.3294 7.9059 20.0804 8.15277C19.2088 8.27621 18.4617 8.89337 18.4617 10.1277C18.5863 37.1597 17.7147 64.1917 15.7225 91.2237C15.598 92.7049 16.9676 93.3221 18.0882 93.0752C18.4618 93.3221 18.8353 93.5689 19.4579 93.5689C29.2943 93.3221 39.1306 92.9518 48.8425 93.1986C49.4651 93.1986 50.2122 93.1986 50.8347 93.1986C51.2083 93.1986 51.4573 93.1986 51.8308 93.1986C55.6907 93.3221 59.5505 92.9518 63.2859 92.8283C68.0173 92.7049 72.7487 92.7049 77.6047 92.7049C78.6008 92.5815 79.4724 91.9643 79.4724 90.8534V90.73C79.4724 90.6065 79.4724 90.4831 79.4724 90.3597C79.4724 85.5457 80.2194 80.8553 80.593 76.1648C80.9665 71.2274 81.34 66.1666 81.5891 61.2293C81.9626 54.0701 82.2116 46.7875 82.3362 39.6284C82.4607 39.2581 82.4606 38.8878 82.4606 38.394C82.4606 38.1472 82.5851 37.9003 82.4606 37.7769Z" fill="#1E1E1E"/>
<path d="M59.7997 26.7911C49.4653 26.6676 39.0063 26.6676 28.6719 26.5442C26.1816 26.5442 26.1816 30.6175 28.6719 30.6175C39.0063 30.7409 49.4653 30.7409 59.7997 30.8644C62.1655 30.8644 62.1655 26.7911 59.7997 26.7911Z" fill="#1E1E1E"/>
<path d="M44.3603 44.6892C39.1308 44.6892 33.9014 44.8126 28.7964 45.0595C27.6758 45.1829 26.8042 45.9235 26.8042 47.0345C26.8042 48.0219 27.8003 49.1328 28.7964 49.0094C34.0259 48.7625 39.2554 48.6391 44.3603 48.6391C46.9751 48.7625 46.9751 44.6892 44.3603 44.6892Z" fill="#1E1E1E"/>
<path d="M56.9356 17.1636C43.3638 16.7933 42.2433 17.6573 28.6715 17.1636C26.0568 17.0401 26.0568 21.1134 28.6715 21.2369C42.2433 21.6072 43.3638 20.7431 56.9356 21.2369C59.6748 21.2369 59.6748 17.1636 56.9356 17.1636Z" fill="#1E1E1E"/>
<path d="M46.6015 36.2958C40.3759 36.1723 34.2749 35.802 28.1738 35.1848C27.0532 35.0614 26.1816 36.1723 26.1816 37.1598C26.1816 38.3941 27.1777 39.1347 28.1738 39.1347C34.2749 39.7519 40.5005 40.1222 46.6015 40.2456C49.2163 40.3691 49.2163 36.2958 46.6015 36.2958Z" fill="#1E1E1E"/>
<path d="M73.6203 74.9305C73.2468 70.3635 70.0095 66.0433 65.278 65.4261C64.1574 65.3027 63.0368 65.673 62.7878 66.7839C62.5388 67.7714 63.1614 69.1291 64.1574 69.2526C66.7722 69.6229 68.7643 71.3509 69.3869 73.9431C69.8849 76.1649 69.3869 78.757 67.6437 80.3616C65.7761 82.2131 62.5388 82.0897 60.1731 81.3491C57.8073 80.6085 55.9397 78.5101 55.6906 76.0414C55.3171 73.4493 56.9358 70.6103 59.7995 70.6103C62.4143 70.6103 62.4143 66.6605 59.7995 66.537C55.3171 66.4136 52.0798 69.9932 51.5818 74.1899C51.0837 78.1398 53.325 82.2131 56.8113 84.1881C60.2976 86.163 65.5271 86.5333 69.0134 84.4349C72.1262 82.5834 73.8693 78.6335 73.6203 74.9305Z" fill="#1E1E1E"/>
<path d="M31.9089 0.49982C28.0491 0.746687 24.0647 0.870121 20.2048 1.11699C18.2126 1.24042 16.2205 1.24042 14.2283 1.48729C12.3606 1.73416 11.24 2.84506 11.1155 4.69657C10.8665 8.52301 10.991 12.5963 10.991 16.4228C10.991 20.4961 10.8665 24.446 10.8665 28.5193C10.8665 31.1114 14.9754 31.1114 14.9754 28.5193C14.9754 24.446 15.0999 20.4961 15.0999 16.4228C15.0999 14.4478 15.0999 12.4729 15.0999 10.498C15.0999 9.51048 15.0999 8.39958 15.0999 7.41211C15.0999 7.04181 14.9754 6.05434 14.9754 5.43717C15.2244 5.43717 15.4734 5.43717 15.7224 5.43717C16.4695 5.43717 17.2166 5.31374 17.9636 5.31374C19.4578 5.1903 21.0764 5.1903 22.5706 5.06687C25.6834 4.94344 28.6716 4.69657 31.7844 4.57313C34.5237 4.4497 34.6482 0.376386 31.9089 0.49982Z" fill="#1E1E1E"/>
<path d="M1.77722 99C26.6795 98.5062 51.5818 98.1359 76.4841 97.6422C83.3322 97.5188 90.5539 96.7782 97.402 98.1359C99.7677 98.6297 100.764 95.0501 98.3981 94.5564C92.4216 93.4455 86.3205 93.8158 80.2194 93.9392C73.8694 94.0626 67.5193 94.1861 61.0447 94.3095C48.469 94.5564 35.8933 94.8032 23.3177 94.9267C16.096 95.0501 8.87437 95.1735 1.77722 95.297C-0.5885 95.297 -0.5885 99 1.77722 99Z" fill="#1E1E1E"/>
</svg>
