<svg width="100" height="100" viewBox="0 0 100 100" fill="none" xmlns="http://www.w3.org/2000/svg">
<path d="M24.6221 42.9842C23.8731 36.844 14.2615 37.22 15.1353 43.3602C16.758 56.5177 16.3835 69.4246 13.887 82.3315C12.7636 88.3464 22.0007 90.6019 23.249 84.5871C25.7455 70.803 26.3696 56.8936 24.6221 42.9842Z" fill="#F7C300"/>
<path d="M63.8174 67.5451C59.5733 65.1642 52.7079 66.9185 49.9617 70.6778C46.5914 75.3143 48.7135 81.9557 53.9562 84.086C56.4527 85.0884 59.4485 85.0884 61.8202 83.5847C63.5678 82.5822 64.6912 80.8279 65.4402 78.9483C66.4388 77.5699 67.1877 76.0661 67.3126 74.3118C67.4374 71.555 66.1891 68.7982 63.8174 67.5451Z" fill="#F7C300"/>
<path d="M82.6662 30.0773C82.6662 29.7014 82.6662 29.3255 82.5414 29.0748C82.2917 28.323 81.418 28.1977 80.7938 28.1977C80.1697 28.1977 79.5456 28.6989 79.0463 29.2001C78.7966 29.4508 78.6718 29.7014 78.547 29.952C78.547 50.0016 77.6732 69.9258 75.8008 89.8501C75.8008 89.7248 70.4333 89.8501 70.0588 89.8501C66.5636 89.8501 63.0685 89.8501 59.5734 89.9754C49.5873 90.226 39.4764 89.7248 29.4903 89.9754C28.7413 89.9754 20.1283 90.1007 20.1283 90.226C21.8759 64.0363 22.7497 37.7212 22.7497 11.5315C34.9826 12.0327 47.4652 12.2833 59.823 12.4086C59.9479 12.4086 60.0727 12.2833 60.1975 12.2833H60.3223C60.4472 12.2833 60.4472 12.158 60.572 12.158C60.572 12.158 60.6968 12.158 60.6968 12.0327C60.8216 11.7821 60.9465 11.6568 61.0713 11.4062C61.321 10.7796 61.3209 9.65182 60.9465 9.27589C60.572 8.89996 59.9479 8.64934 59.3237 8.39872C46.7163 8.1481 33.984 7.89748 21.3766 7.39624C20.8773 7.39624 20.378 7.52155 20.1283 7.77217C19.2545 7.89748 18.5056 8.52403 18.5056 9.77713C18.6304 37.22 17.7566 64.6628 15.7594 92.1056C15.6346 93.6094 17.0077 94.2359 18.1311 93.9853C18.5056 94.2359 18.8801 94.4865 19.5042 94.4865C29.3655 94.2359 39.2267 93.86 48.9632 94.1106C49.5873 94.1106 50.3363 94.1106 50.9604 94.1106C51.3349 94.1106 51.5845 94.1106 51.959 94.1106C55.8286 94.2359 59.6982 93.86 63.443 93.7347C68.1864 93.6094 72.9298 93.6094 77.798 93.6094C78.7966 93.4841 79.6704 92.8575 79.6704 91.7297V91.6044C79.6704 91.4791 79.6704 91.3538 79.6704 91.2285C79.6704 86.3414 80.4193 81.5796 80.7938 76.8179C81.1683 71.8055 81.5428 66.6678 81.7924 61.6554C82.2917 51.5053 82.5414 41.3552 82.5414 31.2051C82.6662 30.8292 82.6662 30.4532 82.6662 30.0773Z" fill="#1E1E1E"/>
<path d="M57.0766 18.9247C47.3402 18.7994 37.6037 18.7994 27.8673 18.6741C25.6204 18.6741 25.6204 22.8093 27.8673 22.8093C37.6037 22.9346 47.3402 22.9346 57.0766 23.0599C59.3235 23.0599 59.3235 18.9247 57.0766 18.9247Z" fill="#1E1E1E"/>
<path d="M44.4694 28.5735C39.2267 28.5735 33.984 28.6988 28.8661 28.9494C27.7427 29.0747 26.8689 29.8266 26.8689 30.9544C26.8689 31.9569 27.8675 33.0846 28.8661 32.9593C34.1088 32.7087 39.3515 32.5834 44.4694 32.5834C47.0907 32.7087 47.0907 28.5735 44.4694 28.5735Z" fill="#1E1E1E"/>
<path d="M69.5593 38.9743C55.9533 38.5983 42.3472 38.2224 28.7412 37.7212C26.1198 37.5959 26.1198 41.7311 28.7412 41.8564C42.3472 42.2323 55.9533 42.6083 69.5593 43.1095C72.3055 43.2348 72.3055 39.0996 69.5593 38.9743Z" fill="#1E1E1E"/>
<path d="M46.7161 47.4953C40.4748 47.37 34.3583 46.994 28.2418 46.3675C27.1184 46.2422 26.2446 47.37 26.2446 48.3724C26.2446 49.6255 27.2432 50.3774 28.2418 50.3774C34.3583 51.004 40.5996 51.3799 46.7161 51.5052C49.3375 51.6305 49.3375 47.4953 46.7161 47.4953Z" fill="#1E1E1E"/>
<path d="M72.4303 75.5647C72.0559 70.9282 68.8104 66.5424 64.067 65.9158C62.9435 65.7905 61.8201 66.1665 61.5705 67.2943C61.3208 68.2967 61.9449 69.6751 62.9435 69.8005C65.5649 70.1764 67.5621 71.9307 68.1862 74.5622C68.6855 76.8178 68.1862 79.4493 66.4387 81.0783C64.5663 82.958 61.3208 82.8327 58.9491 82.0808C56.5774 81.329 54.705 79.1987 54.4554 76.6925C54.0809 74.061 55.7036 71.1789 58.5746 71.1789C61.196 71.1789 61.196 67.1689 58.5746 67.0436C54.0809 66.9183 50.8354 70.5523 50.3361 74.8128C49.8368 78.8228 52.0837 82.958 55.5788 84.9629C59.0739 86.9679 64.3166 87.3438 67.8118 85.2136C70.9324 83.2086 72.68 79.1987 72.4303 75.5647Z" fill="#1E1E1E"/>
<path d="M31.9867 0.00279107C28.1171 0.253411 24.1227 0.37872 20.2531 0.62934C18.2559 0.75465 16.2586 0.75465 14.2614 1.00527C12.389 1.13058 11.2656 2.38368 11.1408 4.26332C10.8911 8.14793 11.0159 12.2831 11.0159 16.1678C11.0159 20.303 10.8911 24.3129 10.8911 28.4481C10.8911 31.0796 15.0104 31.0796 15.0104 28.4481C15.0104 24.3129 15.1352 20.303 15.1352 16.1678C15.1352 14.1628 15.1352 12.1578 15.1352 10.1529C15.1352 9.15041 15.1352 8.02262 15.1352 7.02014C15.1352 6.64421 15.0104 5.64173 15.0104 5.01518C15.26 5.01518 15.5097 5.01518 15.7593 5.01518C16.5083 5.01518 17.2572 4.88987 18.0062 4.88987C19.5041 4.76456 21.1269 4.76456 22.6248 4.63925C25.7454 4.51394 28.7413 4.26332 31.8619 4.13801C34.6081 4.0127 34.7329 -0.122519 31.9867 0.00279107Z" fill="#1E1E1E"/>
<path d="M87.9088 50.0015C86.7854 50.0015 85.7868 50.628 85.7868 52.0064V52.1317C85.4123 62.5324 85.0378 73.3091 83.2902 83.7098C83.1654 84.4617 83.4151 85.2135 84.0392 85.7148C84.4137 86.0907 85.0378 86.216 85.5371 86.216C85.7868 86.216 86.0364 86.216 86.1612 86.0907C86.7854 85.8401 87.035 85.3388 87.1599 84.7123C88.7826 74.3116 89.2819 64.1615 89.7812 52.0064C89.906 50.628 88.9074 50.0015 87.9088 50.0015Z" fill="#1E1E1E"/>
<path d="M1.77877 100C26.744 99.4987 51.7092 99.1228 76.6745 98.6216C83.5399 98.4963 90.7798 97.7444 97.6453 99.1228C100.017 99.624 101.016 95.9901 98.6439 95.4888C92.6522 94.361 86.5357 94.737 80.4193 94.8623C74.0531 94.9876 67.687 95.1129 61.196 95.2382C48.5886 95.4888 35.9811 95.7394 23.3737 95.8647C16.2586 95.8647 9.01869 96.1154 1.77877 96.2407C-0.592924 96.2407 -0.592924 100 1.77877 100Z" fill="#1E1E1E"/>
</svg>
