<svg width="100" height="99" viewBox="0 0 100 99" fill="none" xmlns="http://www.w3.org/2000/svg">
<path d="M84.4435 43.0371C83.6943 37.041 74.0793 37.4158 74.9534 43.4118C76.5767 56.2784 76.2021 69.02 73.7047 81.7616C72.5809 87.7577 81.8213 89.8813 82.9451 83.8852C85.5674 70.2692 86.0668 56.6531 84.4435 43.0371Z" fill="#F7C300"/>
<path d="M40.7389 67.0207C36.4933 64.7722 29.6255 66.3962 26.8783 70.1437C23.5068 74.7657 25.6296 81.2614 30.8742 83.385C33.3716 84.3843 36.3685 84.2594 38.741 83.0102C40.4892 82.0109 41.613 80.262 42.3622 78.3883C43.3612 77.0142 44.1104 75.5152 44.2353 73.7663C44.485 71.143 43.2363 68.3948 40.7389 67.0207Z" fill="#F7C300"/>
<path d="M82.6953 35.417C82.6953 35.1671 82.6953 34.9173 82.5704 34.7924C82.5704 34.6675 82.4455 34.4176 82.3207 34.2927C82.0709 33.918 82.0709 33.918 81.8212 33.793C81.5714 33.6681 81.4466 33.5432 81.1968 33.4183C80.9471 33.4183 80.8222 33.2934 80.5725 33.2934C80.073 33.2934 79.4486 33.5432 79.074 33.918C78.6994 34.2927 78.5745 34.6675 78.4497 35.1671C78.3248 35.7917 78.3248 36.2914 78.3248 36.916C78.3248 37.0409 78.3248 37.1658 78.3248 37.2907C78.0751 53.7799 77.201 72.7674 75.5777 89.1317C75.5777 89.0068 70.2082 89.1317 69.8336 89.1317C66.3373 89.1317 62.8409 89.1317 59.3445 89.2566C49.3549 89.5064 39.3653 89.0067 29.2508 89.2566C28.5015 89.2566 19.8855 89.3815 19.8855 89.5064C21.6337 63.7733 22.5078 37.9153 22.5078 12.0573C24.1311 12.1823 25.7544 12.0573 27.3777 12.1823C29.001 12.3072 30.7492 12.557 32.3725 12.6819C35.744 12.9318 39.1155 13.0567 42.487 13.0567C42.7368 13.0567 42.9865 13.0567 43.2362 13.0567C43.8606 13.0567 44.3601 13.0567 44.9844 12.8068C46.6077 12.0573 46.2331 9.55898 44.6098 9.0593C43.9855 8.93439 43.1114 9.0593 42.487 9.0593C41.6129 9.0593 40.7388 9.0593 39.9896 9.0593C38.2414 9.0593 36.6181 8.93439 34.8699 8.93439C31.4984 8.80947 28.1269 8.55963 24.7554 8.3098C24.5057 8.3098 21.3839 8.05996 21.3839 8.18488C20.8845 8.18488 20.385 8.3098 20.1352 8.55963C19.2611 8.68455 18.5119 9.30914 18.5119 10.4334C18.6368 37.4157 17.7627 64.3979 15.7648 91.3802C15.6399 92.8792 17.0135 93.5038 18.1373 93.254C18.5119 93.5038 18.8865 93.7536 19.5109 93.7536C29.3756 93.5038 39.1155 93.129 48.9803 93.3789C49.6046 93.3789 50.3539 93.3789 50.9782 93.3789C51.3528 93.3789 51.6026 93.3789 51.9772 93.3789C55.8481 93.5038 59.5943 93.129 63.4652 93.0041C68.2103 92.8792 72.9554 92.8792 77.7005 92.8792C78.6994 92.7543 79.5735 92.1297 79.5735 91.0054V90.8805C79.5735 90.7556 79.5735 90.6307 79.5735 90.5058C79.5735 85.7589 80.3227 81.012 80.6973 76.2651C81.0719 71.2684 81.4466 66.2717 81.6963 61.275C82.0709 54.0297 82.3206 44.4111 82.4455 37.1658C82.5704 36.7911 82.5704 36.4163 82.5704 35.9166C82.6953 35.7917 82.6953 35.5419 82.6953 35.417Z" fill="#1E1E1E"/>
<path d="M46.2333 29.171C39.8649 29.0461 33.6214 29.0461 27.253 28.9211C25.7545 28.9211 25.7545 32.9185 27.253 32.9185C33.6214 33.0434 39.8649 33.0434 46.2333 33.1684C47.7317 33.2933 47.7317 29.171 46.2333 29.171Z" fill="#1E1E1E"/>
<path d="M40.1145 19.6774C36.1187 19.6774 32.1228 19.8023 28.2519 20.0521C27.3778 20.177 26.7534 20.9265 26.7534 22.0508C26.7534 23.0502 27.5026 24.1744 28.2519 24.0495C32.2477 23.7997 36.2436 23.6747 40.1145 23.6747C42.1125 23.7997 42.1125 19.8023 40.1145 19.6774Z" fill="#1E1E1E"/>
<path d="M69.5841 39.0393C55.9732 38.6646 42.3624 38.2898 28.8764 37.7901C26.2541 37.6652 26.2541 41.7875 28.8764 41.7875C42.4872 42.1623 56.0981 42.537 69.5841 43.0367C72.2064 43.1616 72.2064 39.1642 69.5841 39.0393Z" fill="#1E1E1E"/>
<path d="M46.7326 47.4088C40.614 47.2839 34.3705 46.9091 28.2518 46.4095C27.128 46.2845 26.2539 47.4088 26.2539 48.4081C26.2539 49.5324 27.2529 50.2819 28.2518 50.4068C34.3705 51.0314 40.614 51.4062 46.7326 51.4062C49.3549 51.4062 49.3549 47.4088 46.7326 47.4088Z" fill="#1E1E1E"/>
<path d="M54.3499 51.1563C58.2209 51.0314 62.0919 51.0314 66.0877 51.4061C66.8369 51.4061 67.3364 50.2819 67.2115 49.2825C67.0867 48.1583 66.4623 47.4088 65.838 47.4088C61.967 47.034 57.9711 47.034 54.1001 47.1589C52.352 47.1589 52.7266 51.1563 54.3499 51.1563Z" fill="#1E1E1E"/>
<path d="M49.4801 74.891C49.1054 70.269 45.8588 66.0218 41.1137 65.3972C39.9899 65.2723 38.8661 65.6471 38.6163 66.7713C38.3666 67.7707 38.9909 69.1448 39.9899 69.2697C42.6122 69.6444 44.6101 71.3933 45.2345 73.8916C45.7339 76.1402 45.2345 78.6385 43.4863 80.2625C41.6132 82.0113 38.3666 82.0113 35.9941 81.2618C33.6215 80.5123 31.7485 78.5136 31.4987 76.0152C31.1241 73.392 32.7474 70.5189 35.6194 70.6438C38.2417 70.6438 38.2417 66.6464 35.6194 66.6464C31.249 66.5215 27.8775 70.1441 27.5029 74.2664C27.0034 78.2638 29.2511 82.2611 32.7474 84.2598C36.2438 86.2585 41.4884 86.6333 44.9847 84.5097C47.9816 82.511 49.7298 78.6385 49.4801 74.891Z" fill="#1E1E1E"/>
<path d="M31.9981 0.689916C28.1271 0.939752 24.1313 1.06467 20.2603 1.31451C18.2624 1.43942 16.2644 1.43942 14.2665 1.68926C12.3935 1.81418 11.2696 3.06336 11.1448 4.93712C10.895 8.80958 11.0199 12.8069 11.0199 16.6794C11.0199 20.6768 10.895 24.6741 10.895 28.6715C10.895 31.2948 15.0157 31.2948 15.0157 28.6715C15.0157 24.6741 15.1406 20.6768 15.1406 16.6794C15.1406 14.6807 15.1406 12.8069 15.1406 10.8083C15.1406 9.80892 15.1406 8.80958 15.1406 7.68532C15.1406 7.31056 15.0157 6.31122 15.0157 5.68663C15.2655 5.68663 15.5152 5.68663 15.765 5.68663C16.5142 5.68663 17.2634 5.56171 18.0126 5.56171C19.5111 5.4368 21.1344 5.4368 22.6328 5.31188C25.7546 5.18696 28.7515 4.93712 31.8732 4.81221C34.6204 4.68729 34.6204 0.564998 31.9981 0.689916Z" fill="#1E1E1E"/>
<path d="M1.7794 99.0002C26.7535 98.5005 51.7275 98.1258 76.7016 97.6261C83.5695 97.5012 90.8119 96.7517 97.6798 98.1258C99.9275 98.5005 101.051 95.0028 98.6788 94.6281C92.685 93.5038 86.5664 93.8786 80.4477 94.0035C74.0793 94.1284 67.7109 94.2533 61.2177 94.3782C48.6058 94.6281 35.9939 94.8779 23.5068 95.0028C16.2644 95.0028 9.02188 95.1277 1.7794 95.2527C-0.593134 95.2527 -0.593134 99.0002 1.7794 99.0002Z" fill="#1E1E1E"/>
<path d="M94.3083 70.269C93.4342 69.7693 92.5601 69.3946 91.686 68.8949C92.5601 68.3952 93.3094 67.8955 94.1834 67.3959C95.6819 66.5214 95.1824 64.6477 93.8088 64.0231C92.9347 63.6483 92.1855 63.2736 91.3114 62.8988C92.0606 62.649 92.8099 62.3992 93.5591 62.1493C94.8078 61.7746 95.557 60.0257 94.4332 59.0264C93.0596 57.7772 91.686 56.6529 90.3125 55.4038C91.1866 55.029 92.0606 54.6542 93.0596 54.2795C95.3073 53.4051 94.4332 49.9074 92.1855 50.6569C90.0627 51.4064 88.0648 52.2808 85.942 53.1552C84.8182 53.6549 84.6933 55.2788 85.5674 56.0283L89.5632 59.4011C88.5643 59.7759 87.6902 60.2756 86.6912 60.9001C85.4425 61.6497 85.4425 63.2736 86.6912 64.148C87.5653 64.7726 88.5643 65.3972 89.5632 65.8969C88.814 66.3965 88.0648 66.8962 87.3156 67.3959C86.3166 68.1454 85.942 69.8942 87.3156 70.6437C88.0648 71.0185 88.814 71.3932 89.5632 71.768C88.4394 72.3926 87.3156 73.1421 86.1917 73.8916C85.1928 74.6411 84.8182 76.39 86.1917 77.1395C86.941 77.5142 87.6902 77.889 88.3145 78.3886C87.5653 78.6385 86.941 78.8883 86.1917 79.1382C84.8182 79.6378 84.3187 81.1368 85.3177 82.2611C86.3166 83.3854 87.4404 84.3847 88.6891 85.1342C90.6871 86.5083 92.5601 83.3854 90.6871 82.0113C90.5622 81.8864 90.3125 81.7614 90.1876 81.6365C90.6871 81.5116 91.1866 81.2618 91.686 81.0119C92.685 80.6372 93.4342 80.0126 93.4342 78.8883C93.4342 77.5142 92.1855 76.39 90.8119 75.3906C92.0606 74.6411 93.3094 74.0165 94.6829 73.3919C95.557 72.8923 95.557 70.8936 94.3083 70.269Z" fill="#1E1E1E"/>
</svg>
