<svg width="80" height="39" viewBox="0 0 80 39" fill="none" xmlns="http://www.w3.org/2000/svg">
<path d="M75.106 31.9195C75.156 31.8777 75.206 31.8464 75.266 31.8255C76.096 31.4079 76.9361 30.9484 77.7761 30.4681C78.2961 30.1653 78.956 30.3637 79.246 30.9171C79.536 31.4601 79.356 32.1597 78.816 32.4521C77.946 32.9533 77.066 33.4232 76.206 33.8617C75.666 34.1332 75.026 33.8931 74.766 33.3396C74.526 32.828 74.686 32.2328 75.106 31.9195Z" fill="#1E1E1E"/>
<path d="M64.676 35.6369C64.796 35.5429 64.936 35.4803 65.096 35.449C66.786 35.1044 68.526 34.6136 70.276 33.9871C70.836 33.7782 71.456 34.0915 71.656 34.6867C71.856 35.2819 71.556 35.9189 70.986 36.1277C69.146 36.796 67.296 37.3181 65.506 37.6731C64.916 37.788 64.356 37.3912 64.236 36.7751C64.156 36.3261 64.336 35.8875 64.676 35.6369Z" fill="#1E1E1E"/>
<path d="M33.1861 3.24569C33.6361 2.91155 34.2661 2.98464 34.6361 3.43365C35.0261 3.91398 34.9661 4.62404 34.5061 5.02084C33.2661 6.12769 32.4061 7.54781 31.9661 9.27074C31.8061 9.87638 31.2161 10.2314 30.6361 10.0643C30.0561 9.89726 29.7161 9.28118 29.8761 8.67554C30.4361 6.5036 31.5261 4.69713 33.1061 3.28746C33.1361 3.28746 33.1561 3.26658 33.1861 3.24569ZM38.1561 0.875353C38.2761 0.781374 38.4261 0.718722 38.5861 0.687396C40.4861 0.321925 42.5361 0.363694 44.5061 0.812701C45.0861 0.948447 45.4561 1.54364 45.3361 2.15972C45.2061 2.76536 44.6361 3.15171 44.0461 3.02641C42.3561 2.64005 40.6061 2.59829 38.9861 2.92199C38.3961 3.03685 37.8361 2.62961 37.7261 2.01353C37.6361 1.55408 37.8161 1.11552 38.1561 0.875353ZM8.47606 26.3852C8.76606 26.1659 9.15605 26.1033 9.51605 26.2599L10.5961 26.7298C11.9061 27.2937 13.2661 27.8784 14.6061 28.4005C15.1661 28.6198 15.4561 29.2672 15.2461 29.852C15.0361 30.4367 14.4161 30.7291 13.8561 30.5203C12.4761 29.9877 11.1061 29.3925 9.77606 28.8182L8.69605 28.3588C8.14605 28.1186 7.87606 27.4607 8.10606 26.8864C8.17606 26.6776 8.31606 26.5105 8.47606 26.3852ZM30.1161 13.7921C30.2461 13.6982 30.3961 13.6251 30.5561 13.6042C31.1461 13.4998 31.7061 13.907 31.8061 14.5231C32.0861 16.1834 32.6761 17.8854 33.5561 19.5875C33.8361 20.1409 33.6461 20.8092 33.1161 21.1224C32.5861 21.4148 31.9361 21.2164 31.6461 20.663C30.6561 18.7521 29.9861 16.8203 29.6661 14.9094C29.5961 14.4604 29.7861 14.0323 30.1161 13.7921ZM48.6661 3.28746C49.0361 3.01597 49.5361 3.00553 49.9261 3.28746C51.0461 4.12282 52.0061 5.11481 52.7861 6.23211L52.8461 6.31565C53.2561 6.92128 53.5761 7.55825 53.7961 8.19521C53.9961 8.77996 53.6961 9.42737 53.1361 9.63621C52.5761 9.84505 51.9561 9.53179 51.7561 8.94704C51.6061 8.49803 51.3761 8.05946 51.0861 7.6209L51.0361 7.54781C50.3961 6.63935 49.5961 5.81443 48.6661 5.12526C48.1761 4.75979 48.0661 4.06017 48.4161 3.54851C48.4861 3.44409 48.5761 3.36055 48.6661 3.28746ZM18.8961 30.1861C19.1361 30.0086 19.4361 29.9355 19.7461 29.9982C21.5061 30.3741 23.2761 30.5725 25.0161 30.5725C25.6161 30.5725 26.0961 31.0841 26.0961 31.7002C26.0961 32.3267 25.6061 32.8279 25.0161 32.8279C23.1361 32.8279 21.2161 32.6191 19.3161 32.2119C18.7361 32.0866 18.3561 31.4914 18.4761 30.8753C18.5161 30.5829 18.6761 30.3427 18.8961 30.1861ZM35.1461 23.9105C35.5961 23.5763 36.2261 23.6494 36.5861 24.088C37.7061 25.435 38.9861 26.7507 40.4161 27.9933C40.8761 28.3901 40.9361 29.1106 40.5461 29.5805C40.1561 30.0608 39.4761 30.1235 39.0261 29.7162C37.5161 28.3901 36.1461 26.9909 34.9561 25.5603C34.5661 25.0904 34.6161 24.3803 35.0661 23.9627C35.0961 23.9522 35.1161 23.9313 35.1461 23.9105ZM51.4161 13.1865C51.7461 12.9463 52.1861 12.9046 52.5661 13.1134C53.0861 13.4162 53.2761 14.1054 52.9861 14.6484C52.0461 16.434 50.6761 18.0525 49.4761 19.4308C49.0761 19.9007 48.3861 19.9216 47.9461 19.5039C47.5061 19.0862 47.4761 18.3657 47.8761 17.9063C48.9961 16.6219 50.2661 15.1183 51.0961 13.552C51.1761 13.4058 51.2861 13.2805 51.4161 13.1865ZM29.8661 30.1652C29.9861 30.0817 30.1161 30.019 30.2661 29.9773C31.5261 29.6849 32.7761 29.2881 33.9961 28.7973C34.4361 28.6198 34.8661 28.4319 35.2861 28.2335C35.8261 27.9724 36.4761 28.2335 36.7161 28.7973C36.9661 29.3612 36.7161 30.0399 36.1761 30.2905C35.7161 30.5098 35.2561 30.7082 34.7861 30.9066C33.4661 31.4496 32.0961 31.8777 30.7361 32.191C30.1561 32.3267 29.5761 31.9404 29.4461 31.3243C29.3361 30.8648 29.5161 30.4158 29.8661 30.1652ZM44.2061 21.8951C44.6461 21.5714 45.2561 21.6237 45.6261 22.0518C46.0361 22.5112 46.0061 23.2213 45.5661 23.6494C44.1361 25.0278 42.6461 26.2704 41.1361 27.3563C40.6461 27.7114 39.9661 27.5756 39.6361 27.0639C39.2961 26.5523 39.4161 25.8631 39.8961 25.5081C39.9061 25.5081 39.9061 25.4976 39.9061 25.4976C41.3361 24.4743 42.7361 23.3048 44.0961 21.9891C44.1361 21.9578 44.1761 21.9265 44.2061 21.8951ZM43.5561 31.3452C43.9061 31.0841 44.3761 31.0528 44.7661 31.3139C46.1261 32.2119 47.5061 33.0055 48.8461 33.6633C49.0561 33.7677 49.2661 33.8617 49.4761 33.9661C50.0261 34.2167 50.2761 34.8746 50.0361 35.4489C49.7961 36.0232 49.1661 36.2843 48.6161 36.0336C48.3861 35.9292 48.1561 35.8248 47.9261 35.7099C46.4961 35.0103 45.0461 34.175 43.6061 33.2247C43.0961 32.8906 42.9561 32.191 43.2761 31.6689C43.3461 31.5331 43.4461 31.4287 43.5561 31.3452ZM53.6861 35.7726C53.9161 35.5951 54.2161 35.522 54.5161 35.5846C56.2161 35.9188 57.9861 36.0754 59.7961 36.0441C60.3961 36.0336 60.8861 36.5349 60.8961 37.1509C60.9061 37.7775 60.4261 38.2891 59.8361 38.2996C57.8861 38.3309 55.9661 38.1638 54.1161 37.7983C53.5261 37.6835 53.1461 37.0883 53.2561 36.4722C53.3061 36.1798 53.4661 35.9397 53.6861 35.7726Z" fill="#1E1E1E"/>
<path d="M0.456026 23.545C0.696026 23.3675 1.00603 23.284 1.32603 23.3675C2.25603 23.5868 3.18602 23.8583 4.19602 24.1925C4.76602 24.3804 5.07603 25.0174 4.89603 25.6126C4.71603 26.2078 4.10603 26.5315 3.53603 26.3435C2.58603 26.0303 1.70603 25.7796 0.846026 25.5708C0.266026 25.4351 -0.103974 24.8294 0.0260262 24.2238C0.0960262 23.9314 0.256026 23.7017 0.456026 23.545Z" fill="#1E1E1E"/>
</svg>
