<svg width="64" height="72" viewBox="0 0 64 72" fill="none" xmlns="http://www.w3.org/2000/svg">
<path d="M39.4988 0C36.9988 0.5 37.7809 0.391159 35.5991 1.21386C35.2391 1.3496 34.8491 1.50623 34.4591 1.65242C26.9191 4.56575 13.8991 9.5988 5.76912 12.7418C5.52912 12.8358 5.29912 12.9298 5.05912 13.0133C0.349116 13.7652 -1.22088 17.305 0.979116 22.4529C1.05912 22.6827 1.14912 22.9228 1.22912 23.163C4.60912 32.6966 10.3891 49.007 14.0691 59.4072C14.1991 59.7623 14.3191 60.1173 14.4491 60.4619C14.5191 60.7438 14.5891 61.0675 14.6591 61.4121C16.2091 66.4765 19.6091 68.1055 25.0191 66.0693C25.3091 65.9544 25.6091 65.8395 25.9291 65.7142C28.1091 64.8475 30.6791 63.8973 32.4991 63.2917C32.7691 63.1873 33.0391 63.0828 33.3091 62.9784C37.9691 61.172 42.9991 59.2402 47.3691 57.5486C48.4891 57.11 49.5691 56.6923 50.5991 56.306C50.7491 56.2224 50.9591 56.1285 51.2191 56.0136C51.4791 55.8987 51.7791 55.763 52.0991 55.6272C54.2991 54.7188 62.6591 54.4368 57.1891 46.9917C57.0991 46.6993 57.0091 46.4278 56.9291 46.1876C56.6391 45.3627 56.3291 44.4856 55.9991 43.5563C52.0391 32.3833 45.5691 14.1098 42.3291 4.97298C42.1791 4.54486 42.0291 4.13762 41.8891 3.75127C41.8391 3.63641 41.4788 2.07553 40.9988 1C40.9088 0.738949 39.4988 0 39.4988 0Z" fill="#F7C300"/>
<path d="M12.1191 46.8768C12.7591 48.6833 13.5591 50.1452 14.1991 51.9516C14.9291 54.0192 15.9091 55.9927 16.6491 58.0707C18.3691 62.1117 19.9191 66.5183 21.8891 70.4653C22.7791 72.1778 24.5091 71.5095 26.8991 70.2983C27.3991 70.1103 27.6391 70.0059 28.1391 69.8179L59.5191 57.4024C60.0191 57.2144 59.7391 56.4313 59.7391 56.4313C59.7391 56.4313 59.6891 56.306 59.5891 56.2015L59.6491 56.1807C60.1491 55.9927 59.9591 55.4706 59.8691 55.2095C59.7791 54.9485 59.6891 54.6874 59.1891 54.8858L25.3291 68.2516C25.0791 68.3456 25.0791 68.3456 24.8291 68.4396C24.5791 68.5336 24.0891 68.732 23.8391 68.8259C23.5891 68.9199 23.2491 68.7633 23.1591 68.5022C22.9791 67.9801 22.7891 67.4685 22.5191 66.6958C22.4291 66.4347 22.3391 66.1737 22.2391 65.9231L11.7391 40.267C10.1191 36.4766 8.48909 32.6965 7.11909 28.8121C6.28909 26.4835 5.55909 24.416 4.82909 22.3381C4.82909 22.3381 4.73909 22.077 4.64909 21.816C4.47909 21.3252 4.36909 20.9388 4.30909 20.5629C4.35909 20.5211 4.37909 20.448 4.43909 20.4272C4.83909 19.9782 5.58909 19.6858 6.07909 19.4978C6.32909 19.4038 6.32909 19.4038 6.57909 19.3099L8.21909 18.3805C16.8691 14.162 25.6991 10.455 34.2791 6.84209C36.5091 5.9754 38.7391 5.11916 40.9691 4.25247C41.2191 4.15849 41.2191 4.15849 41.4691 4.06451C41.7191 3.97054 41.9691 3.87656 42.2091 3.77214L42.9491 3.47976C43.1991 3.38578 43.5391 3.54241 43.6291 3.80346C43.6291 3.80346 43.6291 3.80346 43.7191 4.06451C44.3291 5.0043 44.6091 5.77701 44.8791 6.56016C45.0591 7.08226 45.1591 7.33287 45.3391 7.85497C46.8991 12.2511 48.7991 16.8142 50.5991 21.1163C54.7591 31.2764 58.7691 41.7915 62.5291 52.4006C62.7091 52.9227 63.4591 52.6304 63.4591 52.6304C63.5491 52.8914 63.9591 52.4424 63.7691 51.9203C63.7091 51.7532 63.6391 51.5757 63.5791 51.4086C63.8291 51.3147 64.0791 51.2207 63.8891 50.6986C59.2091 37.4999 54.1291 24.7502 49.1391 12.2615C47.7891 9.2542 46.5991 5.89187 45.2491 2.87412L45.1591 2.61307C44.8791 1.84036 44.6091 1.05721 43.9291 0.733509C43.2491 0.409806 42.2591 0.785719 41.5191 1.0781C41.2691 1.17207 41.0191 1.26605 41.0191 1.26605C34.8391 3.67816 28.7391 6.33043 22.7891 8.62768C15.4491 11.7603 9.92909 14.4752 4.81909 16.7516C4.07909 17.0439 3.17909 17.6809 3.10909 18.297C2.96909 18.6207 2.97909 19.0175 3.03909 19.4247C3.01909 19.4561 2.98909 19.4874 2.97909 19.5187C2.66909 20.2288 3.02909 21.2625 3.30909 22.0352L3.48909 22.5573C4.24909 25.502 5.34909 28.6033 6.50909 33.4588C8.40909 38.0115 10.3091 42.5747 12.1191 46.8768Z" fill="#1E1E1E"/>
<path d="M28.4991 57.3188C28.6791 57.8409 29.2691 57.9035 30.0091 57.6216C30.2591 57.5276 30.5091 57.4336 30.6591 57.0786C30.6591 57.0786 31.0591 56.6296 30.9691 56.3685C30.9691 56.3685 31.1291 56.0135 31.3691 55.9195C31.6191 55.8256 32.2091 55.8882 32.8791 56.2224C33.2191 56.3894 33.4691 56.285 33.5591 56.5461C34.1491 56.6087 34.6391 56.4208 35.1391 56.2328C35.1391 56.2328 35.3891 56.1388 35.2991 55.8778C35.4591 55.5227 35.6991 55.4288 35.9491 55.3348C36.4491 55.1468 36.7891 55.3035 37.3691 55.3766L37.6191 55.2826C38.2091 55.3452 38.7891 55.4183 39.5391 55.1259C40.0391 54.938 40.4391 54.489 40.7491 53.7789C40.6591 53.5179 40.9091 53.4239 41.0591 53.0689C41.3091 52.9749 41.3091 52.9749 41.5591 52.8809C41.8091 52.7869 42.1491 52.9436 42.4891 53.1106L42.8291 53.2777C43.4191 53.3404 43.9991 53.4135 44.4091 52.9644C44.6591 52.8705 44.8091 52.5154 44.9691 52.1604C45.1291 51.8054 45.3691 51.7114 45.5291 51.3564C45.7791 51.2624 45.9291 50.9074 46.2691 51.064C46.2691 51.064 46.5191 50.97 46.6091 51.2311C46.8591 51.1371 46.9491 51.3981 47.1991 51.2937C47.4491 51.1997 47.7891 51.3564 48.0391 51.2624C48.5391 51.0744 49.0291 50.876 49.4391 50.427C49.6891 50.3331 49.5991 50.072 49.8391 49.978C49.9991 49.623 50.3991 49.174 50.5591 48.819C50.8091 48.725 51.0591 48.631 51.3991 48.7876L51.8291 49.2053C52.1691 49.3724 52.2591 49.623 52.5091 49.529C52.8491 49.6961 53.0991 49.5917 53.3491 49.4977C54.0891 49.2053 54.4691 47.8896 54.6891 46.9185L54.7491 46.3024C54.9091 45.9474 54.4691 45.5297 54.3791 45.2687C54.1291 45.3627 53.7891 45.206 53.6391 45.5611C53.6391 45.5611 53.4791 45.9161 53.3291 46.2711C53.1691 46.6261 53.0191 46.9812 52.8591 47.3362C52.9491 47.5972 52.6991 47.6912 52.4591 47.7852C52.2091 47.8792 51.9591 47.9732 51.8691 47.7226C51.4391 47.3049 51.0991 47.1378 50.5091 47.0751C49.6691 47.1065 49.0191 47.6495 48.3091 48.8085L48.1491 49.1636C47.5891 49.9676 47.3391 50.0616 46.4191 49.8318C45.8291 49.7692 45.2491 49.6961 45.0891 50.0511C44.8391 50.1451 44.9291 50.4062 44.7791 50.7612C44.6191 51.1162 44.4691 51.4712 44.0591 51.9202C43.6591 52.3693 42.9791 52.0455 42.6391 51.8785C42.3891 51.9725 42.2991 51.7114 42.0491 51.8158C41.4591 51.7532 40.8791 51.6801 40.6291 51.7741C40.3791 51.868 40.2291 52.2231 40.0691 52.5781C39.9091 52.9331 39.6691 53.0271 39.7591 53.2881C39.4491 53.9982 39.1091 53.8311 38.8591 53.9251C38.6091 54.0191 38.2691 53.8625 38.0191 53.9564C38.0191 53.9564 37.7691 54.0504 37.6791 53.7894C37.0891 53.7267 36.5091 53.6536 36.0091 53.8416C35.7591 53.9356 35.6091 54.2906 35.3591 54.3846C35.1991 54.7396 34.7091 54.9275 34.4591 55.0215C33.9591 55.2095 33.3791 55.1468 32.9491 54.7291C32.6991 54.8231 32.6091 54.5621 32.3591 54.6665C31.7691 54.6038 31.2791 54.7918 31.0291 54.8858C31.0291 54.8858 30.8691 55.2408 30.6291 55.3348C30.2291 55.7838 29.6691 56.5878 28.9891 56.2641C28.6491 56.0971 28.6491 56.0971 28.3991 56.2015C28.1491 56.2955 27.9991 56.6505 28.0891 56.9115C28.1591 57.1621 28.2491 57.4127 28.4991 57.3188Z" fill="#1E1E1E"/>
<path d="M50.499 39.1079C50.589 39.3689 50.439 39.724 50.029 40.173C49.869 40.528 49.289 40.4653 48.699 40.3923C47.769 40.1625 47.029 40.4445 46.629 40.9039C46.469 41.2589 46.229 41.3529 46.069 41.7079C46.069 41.7079 46.069 41.7079 45.909 42.063C45.999 42.324 45.749 42.418 45.509 42.512C45.009 42.6999 44.669 42.5433 43.839 42.5642C43.839 42.5642 43.589 42.6582 43.499 42.3971C42.909 42.3345 42.079 42.3554 41.669 42.8044C41.419 42.8983 41.269 43.2534 41.019 43.3473C41.019 43.3473 41.019 43.3473 40.859 43.7024L40.699 44.0574C40.539 44.4124 40.299 44.5064 39.959 44.3498C39.959 44.3498 39.959 44.3498 39.619 44.1827C39.619 44.1827 39.029 44.1201 38.779 44.214C38.529 44.308 38.279 44.402 37.789 44.6004C37.539 44.6944 37.389 45.0494 37.229 45.4044C37.319 45.6655 37.069 45.7595 37.069 45.7595C36.819 45.8534 36.819 45.8534 36.569 45.9474C36.319 46.0414 36.229 45.7803 35.979 45.8848C35.729 45.9787 35.389 45.8221 35.479 46.0727C35.229 46.1667 35.419 46.6888 35.259 47.0438C35.349 47.3049 35.349 47.3049 35.689 47.4615C36.859 47.5972 37.699 47.5659 38.009 46.8559L38.169 46.5008C38.079 46.2398 38.329 46.1458 38.569 46.0518C38.819 45.9579 38.819 45.9579 39.159 46.1145C39.159 46.1145 40.089 46.3442 40.329 46.2502C40.829 46.0623 41.069 45.9579 41.229 45.6133C41.479 45.5193 41.389 45.2582 41.629 45.1643C41.629 45.1643 41.879 45.0703 41.789 44.8092C41.699 44.5482 41.949 44.4542 42.189 44.3602C42.439 44.2662 42.439 44.2662 42.689 44.1723C42.939 44.0783 43.279 44.2349 43.529 44.1409C43.779 44.047 43.869 44.308 44.119 44.2036C44.959 44.1723 45.789 44.1514 46.099 43.4413C46.259 43.0863 46.409 42.7313 46.569 42.3762L46.729 42.0212C46.889 41.6662 47.129 41.5722 47.379 41.4782C47.379 41.4782 47.379 41.4782 47.719 41.6453C48.309 41.7079 48.889 41.781 49.389 41.5931C49.639 41.4991 49.889 41.4051 50.289 40.9561C50.939 40.4131 51.249 39.7031 51.229 38.8259C51.289 38.2099 51.049 38.3038 50.709 38.1472C51.059 38.3038 50.559 38.5022 50.499 39.1079Z" fill="#1E1E1E"/>
<path d="M20.5291 45.9788C21.0591 44.2976 22.2391 44.4333 23.0691 44.4125C23.4091 44.5795 23.9091 44.3811 24.1491 44.2872C24.3991 44.1932 24.8891 43.9948 25.0491 43.6502C25.0491 43.6502 25.2091 43.2952 25.4491 43.2012C25.6091 42.8462 25.7591 42.4911 26.0091 42.3972C26.2591 42.3032 26.5991 42.4598 26.9391 42.6269C27.2791 42.7939 27.5291 42.6895 27.6191 42.9506C27.8691 42.8566 28.2091 43.0132 28.3591 42.6582C28.6091 42.5642 28.7591 42.2092 28.9191 41.8542C29.3891 40.7891 29.8791 40.6011 30.6491 41.1859L31.0091 41.3425C32.0291 41.8333 32.4291 41.3843 32.6791 41.2903C32.9291 41.1963 33.0791 40.8413 33.2391 40.4863C33.3991 40.1312 33.5491 39.7762 33.4591 39.5152C33.7091 39.4212 33.8591 39.0661 33.9591 39.3272C33.9591 39.3272 34.2091 39.2332 34.2991 39.4943C34.5491 39.4003 34.6391 39.6613 34.8891 39.5569C35.4791 39.6196 36.0591 39.6927 36.5591 39.5047C36.8091 39.4107 36.9591 39.0557 37.4591 38.8677C38.1091 38.3248 39.0791 37.0717 40.6191 38.2412C40.9591 38.4083 41.4591 38.2099 41.6991 38.1159C42.0991 37.6669 42.1691 37.0508 42.2291 36.4348C42.3891 36.0797 42.2891 35.8187 42.4491 35.4636C42.6091 35.1086 42.7591 34.7536 43.2591 34.5656C43.7591 34.3777 44.0991 34.5343 44.4291 34.7014C44.8591 35.1191 45.1991 35.2861 45.6991 35.0982C45.9491 35.0042 46.0391 35.2652 46.5391 35.0669C47.2791 34.7745 48.0891 33.8765 48.3191 30.5559C48.2291 30.2948 48.1391 30.0338 48.0391 29.7832C47.6991 29.6161 47.3591 29.4595 47.1991 29.8145C47.1991 29.8145 46.9491 29.9085 46.7991 30.2635C46.7391 30.8796 46.5791 31.2346 46.5191 31.8403C46.6091 32.1013 46.4591 32.4563 46.4591 32.4563C46.4591 32.4563 46.5491 32.7174 46.2991 32.8114C46.3891 33.0724 46.2391 33.4275 45.9891 33.5214C45.4891 33.7094 45.3991 33.4588 45.0591 33.2917C44.2891 32.707 43.6991 32.6443 43.1091 32.5712C42.2691 32.6025 41.7091 33.4066 41.5591 33.7616C41.3991 34.1166 41.2491 34.4717 41.1791 35.0877C41.0191 35.4428 41.1191 35.7038 40.9591 36.0588C41.0491 36.3199 40.7991 36.4139 40.5591 36.5078C40.3091 36.6018 40.3091 36.6018 39.9691 36.4452C39.2891 36.1215 38.4591 36.1528 37.9591 36.3408C37.4591 36.5287 36.9691 36.7271 36.5591 37.1761C36.3091 37.2701 36.3991 37.5312 36.3991 37.5312C35.9991 37.9802 35.5891 38.4292 34.6691 38.1995C33.3991 37.8027 32.6591 38.095 32.0991 38.8991C31.8491 38.993 31.9391 39.2541 31.7891 39.6091C31.8791 39.8702 31.6291 39.9642 31.3891 40.0581C31.1391 40.1521 30.8891 40.2461 30.7991 39.9955C30.4591 39.8284 30.1191 39.6718 29.8691 39.7658C29.0291 39.7971 27.7991 40.2774 27.5791 41.2381C27.6691 41.4991 27.4191 41.5931 27.2691 41.9481C27.0191 42.0421 26.7691 42.1361 26.6791 41.8855C26.3391 41.7184 26.3391 41.7184 25.9991 41.5618C25.4091 41.4991 25.1591 41.5931 24.6691 41.7811C24.4191 41.8751 24.5091 42.1361 24.2691 42.2301C24.1091 42.5851 23.9591 42.9401 23.4591 43.1281C22.9591 43.316 22.3791 43.2534 22.1291 43.3474C21.8791 43.4414 21.5391 43.2847 21.5391 43.2847C20.4591 43.41 19.3991 44.402 18.9291 45.4671C18.7691 45.8221 18.8691 46.0832 18.8691 46.0832C19.5491 46.4069 19.8891 46.574 20.1391 46.48C20.1291 46.4278 20.3791 46.3338 20.5291 45.9788Z" fill="#1E1E1E"/>
<path d="M26.529 31.8925C26.369 32.2475 26.129 32.3415 25.969 32.6965C25.719 32.7905 25.469 32.8844 25.379 32.6338C25.379 32.6338 25.379 32.6338 25.129 32.7278C24.049 32.8531 23.149 33.4901 22.339 34.3985C21.939 34.8475 22.369 35.2757 22.709 35.4323C23.049 35.5994 23.299 35.4949 23.449 35.1399C23.849 34.6909 24.169 33.9809 25.249 33.8556C25.499 33.7616 25.749 33.6676 25.839 33.9182C26.089 33.8242 26.429 33.9809 26.679 33.8869C26.929 33.7929 27.079 33.4379 27.239 33.0828L27.399 32.7278C27.559 32.3728 27.799 32.2788 28.139 32.4354L28.479 32.6025C29.499 33.0933 30.239 32.8009 31.139 32.1639L31.389 32.07C31.549 31.7149 32.039 31.527 32.539 31.3286C32.789 31.2346 33.129 31.3912 33.379 31.2973C33.629 31.2033 33.969 31.3599 33.969 31.3599C34.709 31.0675 35.119 30.6185 35.489 29.3028L35.649 28.9478C35.809 28.5928 36.029 27.6217 36.609 27.6948C36.859 27.6008 37.199 27.7574 37.539 27.9245L37.879 28.0916C38.719 28.0602 39.119 27.6112 39.679 26.8072L39.839 26.4522C40.649 25.5541 41.859 24.1967 43.529 24.1445L43.779 24.0505C43.779 24.0505 44.029 23.9565 43.939 23.6955C44.099 23.3404 43.999 23.0794 43.909 22.8183C43.819 22.5573 43.569 22.6513 43.229 22.4946C42.149 22.6199 40.909 23.1003 40.099 23.9983C39.699 24.4473 39.289 24.8963 38.889 25.3453C38.729 25.7003 38.489 25.7943 38.329 26.1493C38.169 26.5044 37.929 26.5983 37.589 26.4417L37.249 26.2746C37.159 26.0136 36.819 25.857 36.319 26.0449C35.729 25.9823 35.329 26.4313 34.829 26.6192C34.669 26.9743 34.269 27.4233 34.209 28.0393C34.209 28.0393 34.299 28.3004 34.049 28.3944C33.889 28.7494 33.919 29.6161 32.839 29.7414C32.589 29.8354 32.339 29.9293 31.999 29.7727C31.749 29.8667 31.499 29.9607 31.159 29.804C30.909 29.898 30.659 29.992 30.259 30.441C30.009 30.535 29.859 30.89 29.609 30.984C29.699 31.245 29.359 31.078 28.769 31.0153C27.489 30.6394 26.999 30.8378 26.529 31.8925Z" fill="#1E1E1E"/>
<path d="M32.3891 21.3982C32.9791 21.4608 33.4691 21.2729 33.9691 21.0849C34.2191 20.991 34.6191 20.542 35.0291 20.0929C35.1891 19.7379 35.0891 19.4769 35.3391 19.3829C35.2491 19.1218 35.4991 19.0279 35.7391 18.9339C35.9791 18.8399 36.2391 18.7459 36.3291 18.9965C36.6691 19.1636 36.6691 19.1636 37.0091 19.3202C37.4391 19.7379 38.0291 19.811 38.6191 19.8737C39.1191 19.6857 39.3591 19.5813 39.6791 18.8817C40.0791 18.4327 40.4891 17.9837 40.9791 17.7853C41.2291 17.6913 41.7191 17.4929 41.5391 16.9812C41.4491 16.7202 41.3591 16.4591 41.3591 16.4591L41.0091 16.3025C40.2691 16.5949 39.7691 16.7828 39.2791 16.9708C39.0291 17.0648 38.8791 17.4198 38.6291 17.5138C38.6291 17.5138 38.3791 17.6077 38.1291 17.7017C37.8791 17.7957 37.6291 17.8897 37.5391 17.6391C37.1091 17.2214 36.7691 17.0543 36.1791 16.9917C35.5891 16.929 35.0091 16.8559 34.5991 17.3049C34.1891 17.7539 34.0391 18.109 33.9791 18.725L33.8191 19.0801C33.6591 19.4351 33.4191 19.5291 33.1691 19.6231C32.6691 19.811 32.5791 19.5604 32.3291 19.6544C32.0791 19.7484 31.4891 19.6857 31.2491 19.7797C30.7491 19.9676 30.2591 20.166 29.9491 20.8761C29.6991 20.9701 29.7891 21.2311 29.7891 21.2311C29.8791 21.4922 29.8791 21.4922 30.2191 21.6488C30.7391 22.3275 30.9891 22.2336 31.1491 21.8785C31.3091 21.5235 31.5491 21.4295 31.5491 21.4295C31.7991 21.3251 32.1391 21.4922 32.3891 21.3982Z" fill="#1E1E1E"/>
<path d="M15.7891 19.8633C13.7791 19.7589 11.3891 20.9701 10.0291 22.6826C8.74914 24.6457 8.98914 26.9117 10.2191 28.7912C11.3591 30.4097 13.5791 31.9029 15.6491 31.4017C18.0591 31.0571 19.5891 29.0001 19.5091 26.3791C19.4191 26.1181 19.4191 26.1181 19.3291 25.857C19.2391 25.596 18.9891 25.6899 18.7391 25.7944C18.4891 25.8883 18.0891 26.3373 18.1791 26.5984L18.2691 26.8594L18.3591 27.1205C18.4491 27.3815 18.1991 27.4755 18.2991 27.7366C18.3891 27.9976 18.1391 28.0916 18.1391 28.0916C18.1391 28.0916 18.1391 28.0916 17.9791 28.4466L17.8191 28.8017C17.2591 29.6057 16.8591 30.0547 16.1091 30.3471C15.6091 30.535 14.7791 30.5664 14.0991 30.2427C13.4191 29.919 12.7391 29.5953 11.8791 28.7495C11.3591 28.0707 10.8291 27.392 10.6491 26.8699C10.5591 26.6088 10.3691 26.0972 10.5291 25.7421C10.4391 25.4811 10.4991 24.865 10.6591 24.5204C10.9691 23.8104 11.2791 23.1003 12.1791 22.4634C12.8291 21.9204 13.5791 21.628 14.5691 21.2521C15.3091 20.9597 16.2391 21.1999 16.9191 21.5236C17.2591 21.6906 17.5991 21.8473 18.0291 22.2754L18.1191 22.5364C18.2091 22.7975 18.2091 22.7975 18.2091 22.7975L18.2991 23.0585C18.2991 23.0585 18.3291 23.9357 18.9091 23.9983L19.1591 23.9044L19.4091 23.8104C19.4091 23.8104 19.6591 23.7164 19.5691 23.4553C19.6991 22.2336 19.1791 21.5445 18.7391 21.1268C18.2291 20.3958 17.1191 19.644 15.7891 19.8633Z" fill="#1E1E1E"/>
</svg>
