<svg width="61" height="73" viewBox="0 0 61 73" fill="none" xmlns="http://www.w3.org/2000/svg">
<path d="M11.2416 55.9525C10.863 55.5154 10.8666 54.8562 11.2739 54.4345C11.7063 53.9755 12.4275 53.9445 12.8894 54.3767C13.039 54.5114 13.1885 54.6462 13.3484 54.7846C14.8299 55.6521 16.3459 56.0337 17.9791 55.959C18.6067 55.9292 19.1541 56.4152 19.1821 57.051C19.2138 57.6765 18.7277 58.2206 18.0897 58.2467C15.9917 58.3517 13.9696 57.8233 12.0881 56.7081C12.0402 56.6793 11.982 56.6469 11.9378 56.6078C11.7234 56.4266 11.5194 56.2492 11.319 56.0614C11.2991 56.0195 11.2652 55.9842 11.2416 55.9525ZM7.68398 50.7482C7.60295 50.6496 7.53591 50.5444 7.48655 50.4224C6.64516 48.2897 6.29288 45.9617 6.46586 43.6946C6.51739 43.0641 7.06766 42.601 7.69382 42.6402C8.32662 42.6934 8.79293 43.243 8.7554 43.8669C8.61039 45.7964 8.90445 47.7675 9.62427 49.5901C9.85414 50.1824 9.55951 50.8415 8.97609 51.0726C8.50464 51.2511 7.98456 51.1109 7.68398 50.7482ZM23.1792 55.9354C23.1283 55.8824 23.0849 55.8089 23.048 55.7493C22.7445 55.2001 22.936 54.504 23.4899 54.1928C25.2601 53.217 26.9683 52.0568 28.569 50.7422C29.0625 50.3398 29.7609 50.4049 30.1867 50.9053C30.5919 51.3982 30.5212 52.1145 30.0277 52.5169C28.318 53.9083 26.5007 55.1453 24.6113 56.1941C24.1207 56.4585 23.524 56.3372 23.1792 55.9354ZM8.67111 38.5526C8.34991 38.1824 8.28872 37.6391 8.56126 37.2038C9.30006 36.0203 10.2127 34.9687 11.2713 34.0621C11.8569 33.5653 12.5007 33.101 13.185 32.686C13.213 32.6728 13.241 32.6597 13.2587 32.6429C13.3846 32.5837 13.5106 32.5246 13.6366 32.4655C14.2171 32.2102 14.8904 32.4749 15.1482 33.0541C15.4061 33.6333 15.1424 34.3035 14.5619 34.5588C14.492 34.5917 14.4117 34.6208 14.338 34.6639C13.773 35.0059 13.2522 35.3869 12.769 35.7929C11.8799 36.5517 11.1234 37.4275 10.5032 38.4102C10.1732 38.9407 9.46306 39.1032 8.9297 38.7728C8.83393 38.7153 8.74552 38.6372 8.67111 38.5526ZM37.984 71.9066C37.7372 71.6211 37.6385 71.2149 37.7541 70.8276C38.4567 68.5767 38.8434 66.6875 38.9788 64.882C39.0303 64.2516 39.5703 63.7847 40.2068 63.8276C40.8396 63.8808 41.3096 64.4202 41.2684 65.0543C41.119 67.0286 40.6977 69.0792 39.9464 71.4981C39.7638 72.1047 39.1192 72.4413 38.5137 72.2473C38.3 72.1938 38.1122 72.0685 37.984 71.9066ZM38.6308 59.4268C38.5225 59.3068 38.4393 59.1495 38.3943 58.9827C37.8505 57.0263 37.1226 55.0966 36.2267 53.2456C35.9549 52.673 36.1876 51.9917 36.7614 51.7224C37.3353 51.4531 38.016 51.6973 38.2915 52.2596C39.2471 54.2363 40.0207 56.2983 40.5998 58.3833C40.7671 58.9879 40.4143 59.6146 39.8043 59.7898C39.3653 59.9104 38.9078 59.7579 38.6308 59.4268ZM19.2611 35.1204C18.9465 34.7642 18.8817 34.231 19.1402 33.8023C19.4636 33.2578 20.1568 33.0777 20.7078 33.3912C20.92 33.5137 21.1321 33.6361 21.3406 33.7689C23.0077 34.8651 24.5769 36.0074 26.0378 37.1919C26.5247 37.5867 26.6029 38.31 26.2044 38.8044C25.8059 39.2988 25.0839 39.3643 24.5866 38.9658C23.1906 37.8277 21.6863 36.7319 20.1216 35.7071C19.9573 35.6134 19.7554 35.4947 19.5536 35.3759C19.4445 35.2904 19.3458 35.2087 19.2611 35.1204ZM32.9652 47.962C32.8267 47.7965 32.7405 47.6149 32.7066 47.4173C31.6362 45.9557 30.4301 44.515 29.1527 43.1761C28.7158 42.7065 28.7379 41.996 29.1975 41.5583C29.6572 41.1206 30.3806 41.1483 30.8211 41.6076C31.9358 42.7838 32.9974 44.0105 33.9647 45.2729C34.9223 44.0636 35.7841 42.7968 36.5634 41.5004C36.8867 40.9559 37.5903 40.7795 38.1376 41.1033C38.685 41.4271 38.864 42.1286 38.5406 42.6732C37.5632 44.3272 36.4311 45.9259 35.1796 47.4353C35.1487 47.7487 34.9829 48.0484 34.7052 48.2385C34.3502 48.482 33.9096 48.5094 33.5531 48.3351C33.3947 48.2899 33.2474 48.2139 33.1148 48.0968C33.0433 48.0364 33.0094 48.0011 32.9652 47.962ZM39.3764 37.0979C39.1127 36.7947 39.0213 36.368 39.1649 35.9676C39.861 34.0271 40.3537 32.0369 40.635 30.052C40.7211 29.4224 41.2949 28.9909 41.927 29.0786C42.559 29.1662 42.9901 29.7496 42.9076 30.3689C42.6057 32.5087 42.082 34.65 41.3204 36.7407C41.1068 37.3362 40.449 37.6449 39.8545 37.42C39.6689 37.3535 39.512 37.2392 39.3764 37.0979ZM41.0693 24.6224C40.9205 24.4532 40.8181 24.2195 40.7989 23.9808C40.6964 22.7737 40.5004 21.5678 40.2344 20.3947C40.0538 19.5999 39.8424 18.794 39.5992 18.0115C39.418 17.4135 39.7538 16.7691 40.3638 16.5939C40.9634 16.415 41.611 16.7516 41.7886 17.3599C42.0479 18.1946 42.2756 19.0526 42.4686 19.9099C42.7568 21.1836 42.9712 22.5004 43.0818 23.8147C43.1341 24.4476 42.6686 24.9991 42.0336 25.0494C41.6594 25.0543 41.3094 24.894 41.0693 24.6224ZM37.4574 12.527C37.4 12.4601 37.3462 12.3828 37.2998 12.2851C36.426 10.5347 35.3931 8.7737 34.1576 6.92841C33.8084 6.40917 33.9483 5.69456 34.4684 5.34806C34.9884 5.00156 35.706 5.14306 36.0552 5.6623C37.3408 7.59509 38.4208 9.41939 39.341 11.2675C39.6269 11.8335 39.3941 12.5148 38.8269 12.7981C38.3643 13.0493 37.7956 12.9148 37.4574 12.527Z" fill="#1E1E1E"/>
</svg>
