<svg width="54" height="41" viewBox="0 0 54 41" fill="none" xmlns="http://www.w3.org/2000/svg">
<path d="M53.6886 15.8765C52.9367 17.8115 51.5316 19.2784 50.2127 20.8213C48.7829 22.4654 47.3408 24.0968 45.8 25.627C44.4442 26.9675 43.0513 28.2701 41.8434 29.7498C40.6848 31.1662 39.6494 32.6711 38.3798 33.9737C37.1103 35.2637 35.7051 36.3892 34.2507 37.4389C32.8085 38.4885 31.2925 39.6267 29.7024 40.4488C27.7426 41.4605 27.1017 39.26 26.5593 37.793C25.8691 35.8834 25.1912 33.9611 24.39 32.0894C22.9971 28.8013 21.2345 25.6903 18.5968 23.2874C17.8449 22.6045 18.2023 21.6686 18.8803 21.2513C19.0282 21.049 19.25 20.8846 19.5705 20.796C22.4424 20.0499 25.3391 19.367 28.1617 18.4564C30.935 17.5585 33.5728 16.4203 36.4324 15.8639C37.7266 15.6109 39.0331 15.3833 40.3397 15.181C38.8852 14.7004 37.443 14.1692 35.9763 13.8278C34.0164 13.3599 31.8348 13.5875 29.8503 13.6887C27.6563 13.7898 25.4623 13.9922 23.2806 14.1819C21.0866 14.3842 18.905 14.5866 16.6986 14.713C14.936 14.8142 12.7666 15.2315 11.2752 14.0301C8.25537 11.564 5.70391 8.17478 3.49758 4.94991C2.68407 3.76114 4.15086 2.63559 5.19856 3.12881C5.38344 3.09087 5.56835 3.07821 5.75324 3.11615C15.7372 5.36723 25.6719 7.69421 35.5696 10.2868C41.0423 11.2985 46.5026 12.4367 51.889 13.8784C51.9383 13.891 51.9753 13.891 52.0246 13.9163C52.3944 14.0175 52.7395 14.1566 53.0846 14.3716C53.553 14.6498 53.8982 15.3327 53.6886 15.8765Z" fill="#F7C300"/>
<path d="M53.8366 14.5866C54.3666 13.6634 53.5161 12.6264 52.604 12.6391C44.4196 10.0465 36.2105 7.5425 27.7303 6.15138C23.6628 5.48111 19.5952 4.87407 15.577 3.95087C13.839 3.50824 12.1011 3.06561 10.3632 2.62298C7.72543 1.90213 5.1 1.11804 2.48691 0.333958C1.66108 0.0810268 1.14341 0.662765 1.04481 1.35832C0.921547 1.6239 0.884584 1.94007 0.983191 2.29418C1.69809 4.86143 3.73184 6.98604 5.34653 9.00949C7.0968 11.1847 8.90873 13.3093 10.7576 15.396C9.57433 19.8602 8.68685 24.3624 7.2817 28.7634C7.18309 29.0796 7.07213 29.421 7.09678 29.7498C7.13376 30.3316 7.57751 30.8501 8.11985 30.9639C8.428 31.0271 8.73615 30.9639 9.04429 30.9007C10.9671 30.5213 12.8653 30.2936 14.8005 30.066C15.8358 29.9395 16.8589 29.8257 17.8943 29.6992C18.412 29.636 18.9296 29.5728 19.435 29.5222C19.6076 29.4969 19.8294 29.4463 20.0266 29.459C20.0759 29.4842 20.1252 29.5348 20.1869 29.5728C20.2485 29.6487 20.3102 29.7119 20.3841 29.7625C20.4704 29.8636 20.5566 29.9775 20.6429 30.1166C21.0004 30.7363 21.3579 31.3433 21.7153 31.9503C22.6891 34.4923 23.5642 37.0848 24.6735 39.5762C24.6858 41.1064 26.4361 41.157 27.3605 40.4362C28.741 39.3739 30.0106 38.1345 31.3295 36.9837C34.0042 34.6693 36.7036 32.3803 39.3413 30.0154C44.3333 25.5385 48.709 20.3914 53.171 15.3707C53.5161 15.2316 53.738 14.9407 53.8366 14.5866ZM12.8776 13.8152C12.853 13.7899 12.8283 13.7519 12.8037 13.714C11.8792 12.677 10.9548 11.6273 10.055 10.565C8.50196 8.40245 6.92423 6.2146 5.26024 3.92557C8.32938 4.83612 11.4109 5.70874 14.517 6.44224C18.7324 7.44132 22.9972 8.07364 27.262 8.7692C27.5085 8.80714 27.7427 8.85774 27.9892 8.89568C32.8702 10.1477 37.7267 11.387 42.5831 12.6264C41.9668 12.6517 41.3628 12.677 40.7465 12.7402C37.6774 13.0564 34.6698 13.322 31.5883 13.3978C25.3637 13.537 19.1269 13.6761 12.8776 13.8152ZM16.9945 20.1511C16.8959 20.1764 16.7973 20.2143 16.6864 20.2396C16.5754 20.2143 16.4522 20.2143 16.3166 20.227C13.987 20.4546 13.0625 22.6298 11.5095 24.0715C11.3739 24.198 11.2383 24.3245 11.1027 24.4383C11.7683 21.7699 12.4585 19.1267 13.1734 16.471C19.2378 16.3319 25.3145 16.2054 31.3788 16.0663C34.3986 16.003 37.3692 15.8133 40.3767 15.4719L40.389 15.5983C37.0117 16.256 33.6345 16.9009 30.2448 17.5586C25.8322 18.4185 21.4072 19.2405 16.9945 20.1511ZM15.503 27.2837C14.1965 27.4355 12.89 27.5999 11.5711 27.7517C11.8669 27.4229 12.1504 27.0941 12.4463 26.7653C12.5325 26.6894 12.6065 26.6135 12.6928 26.5376C13.4693 25.842 14.1595 25.1465 14.8005 24.3118C15.0593 23.9704 15.3921 23.5277 15.6633 23.3001C15.7865 23.1863 15.9098 23.1104 16.0331 23.0472C16.5384 23.6542 17.0315 24.2486 17.5368 24.8556C17.9313 25.5259 18.3257 26.1961 18.7324 26.8917C17.6601 27.0308 16.5877 27.1573 15.503 27.2837ZM48.4379 16.7618C43.3473 21.8204 38.343 26.8032 33.351 31.7606C33.0798 31.9883 32.8086 32.2286 32.5374 32.4562L29.0615 35.4661C28.5069 35.9466 27.9522 36.4272 27.4099 36.9078C27.2743 37.0216 27.1141 37.186 26.9415 37.363C26.6087 36.7939 26.2759 36.2375 25.9431 35.6811C25.1543 33.607 24.427 31.4951 23.5765 29.4463C22.9479 27.9414 22.196 26.525 21.1976 25.235C20.2978 24.0842 19.3364 23.4519 18.6585 22.1619C20.6922 21.479 23.2068 21.2514 25.3268 20.834C27.6194 20.3914 30.2572 20.012 32.5621 19.5567C38.4662 18.4185 43.5445 16.7365 49.4362 15.5983C49.1034 16.003 48.7707 16.3824 48.4379 16.7618Z" fill="#1E1E1E"/>
</svg>
