<svg width="66" height="65" viewBox="0 0 66 65" fill="none" xmlns="http://www.w3.org/2000/svg">
<path d="M40.4146 14.9629C37.6144 13.0388 34.1593 12.6187 30.8299 12.986C29.1032 13.1736 27.4208 13.6263 25.7703 14.1814C23.9772 14.7896 22.1792 15.4746 20.6307 16.5918L20.6225 16.599C19.6151 16.1821 18.4997 16.5847 17.8319 17.4625C14.0175 22.5017 12.8934 30.5468 16.6892 35.8824C18.605 38.5706 21.751 39.5817 24.9179 39.8066C26.5392 39.9291 28.2282 39.9631 29.9099 39.8731C29.9827 39.9394 30.0474 40.0128 30.1121 40.0863C30.3143 40.2994 30.5001 40.5269 30.7023 40.74C32.0192 42.0868 33.4835 42.1302 35.2316 41.7355C37.8419 41.1466 40.586 39.817 42.7309 38.2036C43.8356 37.3758 44.657 36.16 44.7798 34.7624C44.8418 34.056 44.6853 33.3825 44.6385 32.6848C44.6375 32.7002 44.6426 32.6233 44.6455 32.4613C44.6558 32.4233 44.6752 32.3628 44.6956 32.2868C44.7805 32.0527 44.8726 31.8267 44.9575 31.5926C45.2316 30.7139 45.2104 29.8633 45.0496 29.0197C45.2871 27.2895 45.2045 25.4933 45.0522 23.7007C44.7641 20.2166 43.3625 16.9886 40.4146 14.9629Z" fill="#F7C300"/>
<path d="M34.4548 11.6484C26.9778 8.85877 17.2504 11.3972 14.4015 19.4832C14.0128 20.5789 15.7667 21.0337 16.1554 19.9381C18.453 13.4241 26.18 11.2418 32.3434 12.8701C38.0515 14.3778 42.6866 19.0469 43.1153 25.0872C43.2119 26.4364 43.1156 27.7816 42.7743 29.0962C42.4289 30.4724 41.55 31.6229 41.1841 32.9593C40.8917 33.999 41.2842 34.9572 41.7096 35.8865C41.9788 36.4898 42.3475 37.1068 42.0035 37.7574C41.6257 38.4522 40.4857 38.8765 39.8369 39.2305C38.2985 40.0781 36.7599 40.9257 35.2215 41.7733C33.9156 42.4885 31.6806 44.1812 30.1671 43.1234C29.0897 42.3626 29.1202 40.8436 27.6493 40.4292C26.3066 40.0613 24.7687 40.4303 23.38 40.1754C20.1216 39.582 17.1246 37.7154 15.2989 34.9478C14.3224 33.4751 13.6749 31.8142 13.3647 30.0736C13.0803 28.4118 12.9369 26.2491 13.9057 24.7875C14.5416 23.8074 12.9699 22.9314 12.3267 23.9033C10.4895 26.709 11.4049 31.1038 12.6626 33.937C14.0425 37.0247 16.5642 39.5416 19.6562 40.9045C21.1345 41.5587 22.6904 41.9705 24.3098 42.1238C25.0923 42.2026 25.8531 42.1411 26.6325 42.1503C27.7205 42.1629 27.8732 43.2454 28.4584 43.976C30.9766 47.1335 35.5451 43.6614 38.045 42.286C39.6635 41.3969 41.7137 40.6347 43.0436 39.3189C44.1502 38.2286 44.1162 36.8678 43.5326 35.5273C43.251 34.877 42.7643 34.1755 42.937 33.4295C43.1096 32.6835 43.6833 31.9466 43.978 31.2236C44.5776 29.7394 44.8972 28.1686 44.9481 26.5737C45.1955 19.7642 40.6876 13.9835 34.4548 11.6484Z" fill="#1E1E1E"/>
<path d="M45.7982 40.4139C44.8114 40.037 43.8912 40.7603 43.1092 41.2605C41.9715 42.0015 40.7918 42.678 39.5916 43.3148C38.2632 44.0208 36.8999 44.6707 35.5519 45.3216C34.3721 45.8823 33.1903 46.4738 31.8602 46.3846C30.6993 46.3058 30.6957 48.1198 31.8566 48.1987C34.2164 48.3664 36.5224 46.8865 38.5663 45.8691C39.7799 45.2641 40.9945 44.6437 42.1742 43.9671C42.7277 43.6536 43.2586 43.331 43.7906 42.993C44.057 42.8163 44.3153 42.6469 44.5818 42.4702C44.4824 42.5722 44.3758 42.666 44.2846 42.7608C43.8143 43.2184 43.3153 43.6433 42.7957 44.0283C41.7566 44.7984 40.6384 45.4788 39.55 46.1764C38.6224 46.7758 37.3053 47.4285 36.6662 48.3389C36.0609 49.2051 36.4791 50.2421 37.5355 50.384C38.7529 50.5435 40.0477 50.1133 41.1856 49.7198C42.6393 49.2222 44.0868 48.7009 45.5415 48.1879C46.6404 47.7997 46.1918 46.0507 45.0774 46.4379C43.797 46.8844 42.5084 47.3381 41.228 47.7847C40.7144 47.9616 40.1998 48.154 39.68 48.3074C39.6328 48.32 39.5939 48.3253 39.5621 48.3388C40.055 48.0062 40.5552 47.6817 41.0553 47.3572C42.111 46.6885 43.1513 46.0188 44.1432 45.2612C45.0297 44.5821 46.0862 43.7822 46.5858 42.7628C46.9829 41.8916 46.7851 40.7909 45.7982 40.4139Z" fill="#1E1E1E"/>
<path d="M45.8631 48.9334C45.0214 49.1675 44.2424 49.6215 43.6369 50.2561C43.0734 50.8392 42.6076 51.6985 42.8852 52.5261C43.0332 52.9752 43.497 53.3202 43.9932 53.173C44.4351 53.0302 44.8069 52.5435 44.6455 52.0627C44.6393 52.0391 44.6331 52.0156 44.6341 52.0002L44.6352 51.9848C44.6362 51.9695 44.6454 51.9468 44.6464 51.9315C44.673 51.8791 44.7078 51.8194 44.7344 51.767C44.7344 51.767 44.7518 51.7372 44.7682 51.7228C44.8184 51.6641 44.8686 51.6054 44.9188 51.5467C45.0346 51.4303 45.1494 51.3292 45.2723 51.221C45.4988 51.065 45.7397 50.9254 45.9949 50.802C46.1056 50.7625 46.2164 50.7229 46.3343 50.6916C46.7905 50.5651 47.1254 50.0529 46.9865 49.5812C46.8241 49.1158 46.3511 48.7934 45.8631 48.9334Z" fill="#1E1E1E"/>
<path d="M27.9446 31.8392C25.6027 29.8738 22.8963 28.4032 19.9739 27.5139C18.861 27.1755 18.398 28.9305 19.5109 29.2689C22.1307 30.0625 24.5847 31.3786 26.6772 33.1435C28.7625 34.9002 30.8277 37.1961 31.7529 39.8005C32.1446 40.8898 33.8967 40.4336 33.506 39.3289C32.4626 36.4085 30.3008 33.821 27.9446 31.8392Z" fill="#1E1E1E"/>
<path d="M33.655 17.3509C32.7276 23.9334 33.8399 30.6178 36.9122 36.5036C37.4545 37.5327 39.0207 36.6173 38.4783 35.5882C35.6464 30.1572 34.5375 23.8899 35.4008 17.813C35.569 16.6652 33.8161 16.195 33.655 17.3509Z" fill="#1E1E1E"/>
<path d="M29.4297 19.3618C29.7183 19.7887 29.7659 20.3551 29.71 20.8535C29.6652 21.2986 29.4387 21.4545 29.0153 21.5521C28.8584 21.5888 28.6954 21.602 28.5334 21.5998C28.3345 20.5145 27.5471 19.4549 26.3719 19.4755C25.6756 19.4947 25.1531 20.0416 25.124 20.7192C25.0918 21.443 25.6072 22.1771 26.1501 22.6118C26.2599 22.7034 26.3861 22.7807 26.5123 22.8579C26.4109 22.9906 26.294 23.1224 26.1567 23.2144C26.003 23.3208 25.8297 23.3719 25.6493 23.4149C25.6554 23.3226 25.6543 23.2222 25.6531 23.1218C25.5721 21.8893 24.3778 19.971 22.8925 20.7138C21.559 21.3809 21.9862 23.2213 22.7919 24.1199C22.9356 24.2831 23.1039 24.4247 23.2733 24.5509C23.0745 24.7549 22.8316 24.9253 22.5557 24.8929C22.0573 24.8392 21.4478 24.3618 21.1398 23.9955C20.8329 23.6139 20.1715 23.6892 19.8569 24.0096C19.484 24.3959 19.5583 24.91 19.8652 25.2916C20.7522 26.3651 22.449 27.1021 23.7609 26.4104C24.2806 26.1412 24.7181 25.7125 25.0448 25.2076C26.3513 25.303 27.6757 24.6585 28.2663 23.4286C29.058 23.4848 29.8495 23.3094 30.4962 22.8704C31.807 21.9625 31.8419 19.6717 30.9959 18.4464C30.3398 17.5029 28.7665 18.4102 29.4297 19.3618Z" fill="#1E1E1E"/>
</svg>
