<svg width="55" height="72" viewBox="0 0 55 72" fill="none" xmlns="http://www.w3.org/2000/svg">
<path d="M44.8045 67.2186C40.9465 68.2683 37.0514 68.7995 33.0578 68.8248C31.3815 68.8374 31.283 71.5058 32.9593 71.4932C37.1871 71.4679 41.3162 70.9241 45.3961 69.8112C47.0231 69.3812 46.4315 66.776 44.8045 67.2186Z" fill="#1E1E1E"/>
<path d="M25.7119 67.2186C23.3083 67.0037 21.1266 65.9287 19.4379 64.1582C18.267 62.9315 16.3688 64.7652 17.5521 66.0046C19.7215 68.281 22.5318 69.6215 25.6132 69.8871C27.2895 70.0388 27.3758 67.3704 25.7119 67.2186Z" fill="#1E1E1E"/>
<path d="M15.9374 49.7285C14.2118 52.3464 13.6818 55.5459 14.446 58.6064C14.8651 60.2757 17.4042 59.6687 16.9851 57.9867C16.3812 55.5586 16.7879 53.1937 18.1561 51.1196C19.0929 49.7032 16.8742 48.2995 15.9374 49.7285Z" fill="#1E1E1E"/>
<path d="M29.0766 38.8525C25.9951 39.9528 23.2464 41.5842 20.8059 43.8226C19.561 44.9735 21.3483 46.9084 22.6055 45.7576C24.6763 43.8479 27.0428 42.3936 29.6682 41.4577C31.2459 40.9013 30.6666 38.2834 29.0766 38.8525Z" fill="#1E1E1E"/>
<path d="M45.1004 29.1399C42.5242 32.213 39.11 33.9456 35.4862 35.3873C33.9331 36.007 35.1904 38.3466 36.7434 37.7396C40.5645 36.2346 44.2006 34.3123 46.9 31.0875C47.9846 29.7849 46.1974 27.8373 45.1004 29.1399Z" fill="#1E1E1E"/>
<path d="M51.2881 13.7238C51.6332 15.7979 51.5593 17.8593 51.0662 19.8954C50.6595 21.5647 53.1492 22.3488 53.556 20.6794C54.16 18.1754 54.2463 15.6461 53.8149 13.1042C53.5437 11.4095 51.0046 12.0292 51.2881 13.7238Z" fill="#1E1E1E"/>
<path d="M50.9798 5.90827C49.2911 3.11338 46.074 -0.098842 42.6228 0.00233038C40.9465 0.0529166 40.8479 2.72134 42.5242 2.67075C45.0264 2.59487 47.4669 5.17478 48.6872 7.18558C49.5746 8.65258 51.8796 7.37527 50.9798 5.90827Z" fill="#1E1E1E"/>
<path d="M35.7327 0.369138C33.3291 0.520897 31.0735 1.08999 28.8795 2.10171C27.3511 2.80992 28.6083 5.16217 30.1367 4.45397C31.8746 3.64459 33.7235 3.16401 35.634 3.03754C37.298 2.93637 37.409 0.267966 35.7327 0.369138Z" fill="#1E1E1E"/>
<path d="M20.8306 5.50357C19.179 6.80616 17.4164 7.91905 15.5552 8.89284C14.0638 9.67692 15.3086 12.0292 16.8124 11.2451C18.8708 10.1575 20.7937 8.8802 22.6302 7.43849C23.9614 6.40147 22.1495 4.46655 20.8306 5.50357Z" fill="#1E1E1E"/>
<path d="M10.0332 13.2434C9.65111 12.5984 8.92388 12.3834 8.25828 12.7122C7.98711 12.8513 7.70363 12.9778 7.42013 13.0916C7.37083 13.1043 7.1613 13.1802 7.12432 13.1928C6.97641 13.2434 6.81618 13.294 6.66827 13.3446C6.07663 13.5216 5.48496 13.6607 4.86866 13.7492C4.73308 13.7745 4.58521 13.7872 4.44963 13.7998C4.40032 13.7998 4.20309 13.8125 4.20309 13.8125C3.88262 13.8378 3.56212 13.8378 3.25398 13.8378C2.61303 13.8251 1.98444 13.7619 1.35582 13.6607C0.677894 13.5469 0 14.2931 0 14.9507C0 15.7474 0.529962 16.2153 1.25719 16.3418C4.05517 16.8097 6.95175 16.3165 9.50321 15.0645C10.1318 14.761 10.3783 13.8378 10.0332 13.2434Z" fill="#1E1E1E"/>
</svg>
