<svg width="319" height="14" viewBox="0 0 319 14" fill="none" xmlns="http://www.w3.org/2000/svg">
<path d="M159.201 7.0299C161.23 4.73759 164.281 3.70128 167.35 4.04859C169.311 4.26165 171.19 5.00455 172.899 6.02463C173.341 6.28893 173.783 6.59335 174.232 6.90179C175.343 7.66625 176.49 8.45527 177.755 8.71852C179.21 9.01189 180.277 8.00101 181.305 7.02727C181.604 6.74441 181.9 6.46466 182.2 6.22092C183.486 5.18085 185.117 4.4364 186.772 4.70306C188.081 4.91058 189.064 5.76004 190.048 6.60989C190.425 6.93533 190.801 7.26082 191.196 7.55035C192.412 8.44303 194.42 9.89566 195.984 9.8018C196.754 9.74944 197.686 9.1965 198.496 8.71587C198.807 8.53156 199.1 8.35791 199.359 8.22716C200.217 7.79914 201.088 7.35709 201.946 6.91558C202.105 6.83454 202.264 6.75211 202.423 6.66962C203.828 5.94238 205.24 5.21126 206.851 5.39692C208.537 5.59104 210.139 6.59805 211.581 7.50467C211.674 7.56345 211.767 7.62179 211.859 7.67947C212.649 8.17205 213.401 8.69321 214.128 9.25588C214.596 9.59593 214.784 9.78452 214.981 9.79656C215.169 9.80799 215.364 9.66038 215.815 9.33224C216.32 8.96144 216.811 8.56973 217.3 8.18015C219.378 6.52238 221.408 4.90334 224.246 5.09893C226.425 5.25059 228.212 6.33063 230.014 7.41939C230.993 8.01143 231.977 8.60606 233.031 9.05541C233.919 9.43579 234.384 9.48341 235.184 8.86894C235.716 8.4667 236.234 8.044 236.753 7.62048C236.953 7.45666 237.154 7.29269 237.356 7.12972C237.721 6.83815 238.093 6.50532 238.475 6.16405C239.531 5.22032 240.659 4.21182 241.901 3.8317C243.479 3.33636 244.81 4.244 246.077 5.10829C246.249 5.22525 246.419 5.34142 246.589 5.4532C247.326 5.93413 248.063 6.41843 248.8 6.90273C249.538 7.38773 250.277 7.87274 251.015 8.35438C251.332 8.05546 251.648 7.75559 251.964 7.45566C253.322 6.16721 254.682 4.87773 256.086 3.65734C258.354 1.69817 260.567 2.45377 262.846 3.94876C264.058 4.74714 265.284 5.55847 266.496 6.37031C266.869 6.61239 267.258 6.90305 267.656 7.20097C268.341 7.71333 269.055 8.24715 269.766 8.59219C269.829 8.53554 269.853 8.49403 269.927 8.42337C269.989 8.33876 270.051 8.25066 270.113 8.16263C270.173 8.07677 270.234 7.99095 270.294 7.9084L270.54 7.55791C270.943 6.9831 271.341 6.41625 271.748 5.84903C272.175 5.25099 272.599 4.65307 273.024 4.05516C273.449 3.45621 273.874 2.85727 274.302 2.25819C274.779 1.60352 275.992 1.38975 276.626 1.84848C278.606 3.24832 280.634 4.55162 282.734 5.73041C283.666 6.24389 284.597 6.7439 285.54 7.21641C285.688 7.2882 285.861 7.3561 286.042 7.42675C286.424 7.57577 286.836 7.73702 287.098 7.97303C287.557 8.008 287.716 8.13524 287.569 8.35506C287.654 8.26475 287.738 8.17765 287.822 8.09052C288.352 7.5871 288.849 7.00736 289.35 6.42294C290.339 5.26856 291.344 4.09605 292.652 3.45779C294.71 2.4522 296.291 3.49121 297.785 4.96579L300.441 7.61875C300.561 7.73506 300.701 7.85901 300.847 7.98795C301.186 8.28887 301.557 8.61691 301.775 8.9382C301.856 8.98093 301.919 9.02441 301.976 9.06378C302.002 9.08199 302.027 9.09934 302.052 9.11534C302.051 9.10185 302.064 9.10131 302.064 9.10131C303.411 7.27593 305.537 5.66015 307.312 4.31574C309.413 2.72803 310.803 3.46484 312.635 5.01945C313.584 5.82906 314.533 6.63534 315.482 7.44161C316.43 8.24786 317.379 9.0541 318.328 9.86374C320.253 11.4954 317.624 14.4686 315.687 12.8241C314.739 12.0154 313.791 11.21 312.843 10.4047C311.893 9.59749 310.943 8.79033 309.993 7.97977C309.92 7.91545 309.844 7.85127 309.767 7.78708C309.691 7.72284 309.615 7.65859 309.542 7.59422C309.282 7.80489 308.891 8.10041 308.648 8.28445C308.529 8.37425 308.446 8.4375 308.429 8.45146C307.481 9.23418 306.574 10.0692 305.706 10.9564C305.527 11.1401 305.349 11.3308 305.172 11.5215C304.031 12.7487 302.89 13.9754 301.064 13.341C300.264 13.0529 299.618 12.3852 299.015 11.7612C298.911 11.6536 298.808 11.5473 298.706 11.4445L296.049 8.79154C295.926 8.67205 295.788 8.51793 295.641 8.35506C295.344 8.02459 295.015 7.65813 294.715 7.47206C294.387 7.27106 294.369 7.12153 294.311 7.1011C294.26 7.08307 294.179 7.16563 293.826 7.40214C293.245 7.79828 292.703 8.45414 292.189 9.07648C291.936 9.38142 291.691 9.67833 291.451 9.93268C291.378 10.0106 291.306 10.0885 291.234 10.1658C289.877 11.6238 288.663 12.9299 286.568 12.0711C282.927 10.5939 279.47 8.54188 276.187 6.30708C275.918 6.68294 275.652 7.05866 275.386 7.43439C275.121 7.81009 274.855 8.18582 274.586 8.56168C274.337 8.9119 274.093 9.29203 273.845 9.67804C273.314 10.5039 272.767 11.3565 272.116 12.0004C270.325 13.7893 268.366 12.421 266.673 11.2378C266.445 11.0781 266.221 10.9219 266.003 10.7772C264.883 10.0289 263.75 9.28112 262.617 8.53333C262.445 8.41926 262.205 8.23017 261.926 8.01015C261.026 7.30095 259.718 6.27038 258.977 6.39474C258.612 6.45979 258.133 6.9935 257.757 7.41308C257.619 7.56608 257.496 7.70388 257.396 7.79829C257.129 8.04588 256.862 8.29682 256.595 8.54777C256.328 8.79872 256.061 9.04967 255.793 9.29726C255.259 9.79915 254.725 10.2977 254.19 10.7962C253.656 11.2948 253.122 11.7933 252.587 12.2952C251.805 13.0304 250.838 12.9502 250.126 12.4813C250.113 12.4749 250.1 12.4694 250.088 12.4641C250.053 12.4487 250.021 12.4349 249.982 12.4065C249.033 11.7858 248.085 11.1617 247.136 10.5376C246.188 9.91354 245.239 9.28945 244.291 8.66872C244.238 8.63288 244.147 8.56276 244.036 8.47647C243.675 8.19606 243.094 7.74503 242.868 7.74437C242.85 7.74516 242.778 7.81994 242.698 7.90205C242.609 7.99447 242.511 8.09623 242.47 8.11225C241.838 8.37308 241.129 9.0327 240.495 9.62173C240.214 9.88255 239.948 10.1295 239.711 10.3219C239.412 10.5588 239.111 10.8155 238.805 11.0762C237.657 12.0552 236.444 13.0901 235.002 13.3435C233.291 13.6596 231.63 12.8804 230.146 12.0531C229.673 11.7907 229.182 11.4765 228.675 11.1529C226.667 9.86945 224.425 8.43697 222.184 9.49191C221.285 9.92072 220.421 10.6902 219.542 11.4735C217.989 12.8565 216.389 14.2826 214.456 13.9516C213.352 13.7666 212.323 12.9708 211.342 12.2125C210.898 11.8693 210.464 11.5337 210.038 11.266C209.85 11.148 209.657 11.021 209.459 10.8912C208.221 10.0763 206.815 9.15118 205.414 9.64178C204.098 10.0978 202.809 10.8158 201.537 11.5242C200.92 11.8679 200.307 12.2094 199.697 12.5176L199.535 12.5993C198.104 13.3234 196.722 14.023 195.077 13.7811C193.423 13.5414 191.745 12.655 190.324 11.7711C189.738 11.4078 189.182 10.9204 188.625 10.433C187.944 9.83634 187.263 9.23958 186.527 8.86995C185.428 8.32463 184.196 9.54511 183.226 10.5063C182.936 10.7935 182.67 11.0575 182.437 11.2444C181.226 12.2138 179.822 12.8271 178.279 12.8256C176.08 12.8126 174.264 11.6355 172.451 10.4612C171.52 9.85729 170.589 9.25412 169.608 8.81026C166.77 7.51452 162.956 7.61005 161.325 10.7971C160.782 11.8624 159.763 12.0305 158.941 11.6755C158.625 11.6211 158.306 11.4769 158.004 11.2204C157.056 10.4117 156.108 9.60632 155.16 8.80096C154.21 7.9938 153.26 7.18664 152.31 6.37608C152.237 6.31182 152.161 6.2477 152.085 6.18357C152.008 6.11927 151.932 6.05496 151.859 5.99053C151.599 6.20126 151.208 6.4969 150.965 6.68095C150.846 6.77062 150.763 6.83381 150.746 6.84777C149.798 7.6305 148.891 8.46547 148.024 9.35273C147.844 9.53645 147.666 9.72714 147.489 9.9178C146.348 11.145 145.207 12.3717 143.381 11.7373C142.581 11.4492 141.935 10.7815 141.332 10.1576C141.228 10.05 141.125 9.94365 141.023 9.84081L138.367 7.18785C138.243 7.06836 138.105 6.91424 137.959 6.75137C137.661 6.4209 137.332 6.05444 137.032 5.86837C136.704 5.66737 136.686 5.51784 136.628 5.49741C136.577 5.47938 136.496 5.56194 136.143 5.79845C135.562 6.19459 135.02 6.85045 134.506 7.47279C134.254 7.77774 134.008 8.07464 133.768 8.32899C133.695 8.40694 133.623 8.48476 133.551 8.56216C132.195 10.0201 130.98 11.3262 128.885 10.4675C125.244 8.99017 121.787 6.93819 118.504 4.70339C118.235 5.07925 117.969 5.45498 117.703 5.8307C117.438 6.2064 117.172 6.58213 116.903 6.95799C116.654 7.30821 116.41 7.68834 116.162 8.07432C115.632 8.90014 115.084 9.75281 114.433 10.3968C112.642 12.1856 110.684 10.8173 108.99 9.63407C108.762 9.47446 108.538 9.31821 108.321 9.17354C107.2 8.42521 106.067 7.67743 104.934 6.92964C104.762 6.81557 104.522 6.62651 104.243 6.40649C103.343 5.69729 102.035 4.66669 101.294 4.79105C100.929 4.8561 100.45 5.38981 100.074 5.80939C99.9366 5.96239 99.813 6.10019 99.7134 6.1946C99.4462 6.44219 99.179 6.69314 98.9119 6.94408C98.6448 7.19503 98.3777 7.44598 98.1104 7.69357C97.5762 8.19547 97.0418 8.694 96.5075 9.19253C95.9731 9.69106 95.4388 10.1896 94.9045 10.6915C94.1218 11.4267 93.1547 11.3466 92.4432 10.8776C92.3909 10.8529 92.3519 10.8411 92.299 10.8028C91.3506 10.1821 90.402 9.55802 89.4534 8.93394C88.5048 8.30985 87.5562 7.68576 86.6077 7.06503C86.5549 7.02916 86.4646 6.95901 86.3534 6.87272C85.9922 6.59234 85.4113 6.14134 85.1852 6.14068C85.1671 6.14147 85.0948 6.21622 85.0154 6.29833C84.9261 6.39078 84.8277 6.49254 84.7874 6.50856C84.1555 6.76939 83.4457 7.42904 82.8119 8.01807C82.5313 8.27886 82.2655 8.52582 82.028 8.71819C81.7286 8.95515 81.4277 9.21185 81.1222 9.47251C79.9744 10.4515 78.7613 11.4864 77.3189 11.7399C75.608 12.0559 73.9467 11.2767 72.4635 10.4494C71.9904 10.187 71.4988 9.87284 70.9923 9.54921C68.9837 8.26576 66.7418 6.83328 64.5017 7.88822C63.6018 8.31703 62.7381 9.08652 61.859 9.86978C60.3066 11.2529 58.706 12.6789 56.7733 12.3479C55.6691 12.1629 54.6399 11.3671 53.6593 10.6088C53.2153 10.2656 52.7813 9.93003 52.3548 9.66231C52.1668 9.54428 51.9738 9.41729 51.7766 9.28749C50.5383 8.47258 49.1326 7.54749 47.7313 8.03809C46.4152 8.49414 45.1262 9.21211 43.8543 9.92056C43.2373 10.2642 42.6243 10.6057 42.0142 10.9139L41.8525 10.9956C40.4214 11.7197 39.0387 12.4193 37.3944 12.1774C35.7401 11.9377 34.0619 11.0513 32.641 10.1674C32.0553 9.80406 31.4989 9.3167 30.9423 8.82927C30.2611 8.23265 29.5798 7.63589 28.8445 7.26626C27.7455 6.72094 26.5135 7.94145 25.5432 8.90266C25.2534 9.18981 24.9869 9.45382 24.7542 9.64072C23.5431 10.6101 22.1388 11.2234 20.5961 11.2219C18.3969 11.2089 16.5807 10.0319 14.7686 8.85747C13.8369 8.2536 12.9062 7.6504 11.925 7.20657C9.08764 5.91083 5.2732 6.00636 3.64257 9.19339C2.46782 11.4972 -0.9315 9.60477 0.243249 7.30092C2.07765 3.71385 5.85856 2.01387 9.66671 2.4449C11.6285 2.65796 13.5071 3.40086 15.2159 4.42094C15.6581 4.68524 16.1006 4.98969 16.549 5.29813C17.6602 6.06259 18.8072 6.85158 20.0717 7.11483C21.5269 7.4082 22.5944 6.39732 23.6226 5.42361C23.9213 5.14072 24.2167 4.86097 24.5174 4.61723C25.803 3.57716 27.4339 2.83271 29.0892 3.09937C30.3982 3.30689 31.3814 4.15638 32.3651 5.00626C32.7417 5.33169 33.1185 5.65716 33.5136 5.94666C34.7292 6.83934 36.7368 8.29197 38.3016 8.19811C39.0709 8.14575 40.0032 7.59281 40.8135 7.11218C41.1242 6.92788 41.417 6.75422 41.6758 6.62347C42.5341 6.19545 43.4048 5.7534 44.2627 5.31189C44.422 5.23084 44.5812 5.14842 44.7405 5.06593C46.145 4.33869 47.557 3.60757 49.1687 3.79323C50.8539 3.98734 52.4558 4.99436 53.8979 5.90095C53.9914 5.95973 54.0843 6.0181 54.1764 6.07578C54.9659 6.56836 55.7179 7.08952 56.4457 7.65219C56.9133 7.99224 57.1013 8.18083 57.2985 8.19287C57.4858 8.2043 57.6814 8.05669 58.1325 7.72855C58.6374 7.35775 59.1285 6.96604 59.6169 6.57646C61.6952 4.91869 63.725 3.29965 66.5634 3.49524C68.7424 3.6469 70.5295 4.72694 72.331 5.8157C73.3107 6.40774 74.2946 7.00237 75.3481 7.45172C76.2363 7.8321 76.7008 7.87972 77.5008 7.26525C78.0329 6.86304 78.5508 6.44037 79.0697 6.01682C79.2705 5.85297 79.4715 5.689 79.6734 5.52604C80.0382 5.23449 80.4105 4.90169 80.7923 4.56042C81.8481 3.61667 82.9764 2.60813 84.218 2.22801C85.7962 1.73267 87.1271 2.64031 88.3943 3.5046C88.5658 3.62156 88.7361 3.73773 88.9057 3.84951C89.6434 4.3308 90.3811 4.81545 91.1189 5.3001C91.8567 5.78475 92.5945 6.2694 93.3321 6.75069C93.649 6.45156 93.9654 6.15147 94.2818 5.85136C95.6401 4.56312 96.9994 3.27382 98.4036 2.05365C100.671 0.0944806 102.884 0.850076 105.163 2.34507C106.375 3.14345 107.601 3.95478 108.813 4.76662C109.186 5.0087 109.575 5.2994 109.973 5.59734C110.658 6.10967 111.372 6.64346 112.084 6.9885C112.115 6.96018 112.136 6.93566 112.159 6.90938C112.183 6.88307 112.207 6.85503 112.244 6.81968C112.306 6.73616 112.367 6.64928 112.428 6.56236C112.489 6.47536 112.55 6.38835 112.611 6.30471C112.693 6.18814 112.774 6.07197 112.856 5.95613C113.26 5.38062 113.658 4.81317 114.065 4.24534C114.492 3.6473 114.917 3.04938 115.341 2.45147C115.766 1.85252 116.191 1.25358 116.619 0.654504C117.096 -0.000165988 118.309 -0.213939 118.943 0.244793C120.923 1.64463 122.951 2.94793 125.052 4.12672C125.983 4.6402 126.914 5.14021 127.857 5.61272C128.005 5.68451 128.178 5.75241 128.359 5.82306C128.741 5.97208 129.153 6.13333 129.415 6.36934C129.874 6.40431 130.033 6.53158 129.886 6.75141C129.97 6.66155 130.054 6.57487 130.138 6.48819L130.139 6.48683C130.669 5.98341 131.166 5.40367 131.667 4.81925C132.656 3.66487 133.661 2.49235 134.969 1.8541C137.027 0.848512 138.608 1.88752 140.102 3.3621L142.758 6.01506C142.878 6.13137 143.018 6.25532 143.164 6.38426C143.503 6.68518 143.874 7.01322 144.093 7.33451C144.173 7.37721 144.236 7.42066 144.293 7.46006C144.319 7.4783 144.344 7.49565 144.369 7.51165C144.369 7.49816 144.381 7.49762 144.381 7.49762C145.728 5.67224 147.854 4.05646 149.63 2.71205C151.731 1.12434 153.12 1.86115 154.952 3.41576C155.901 4.22537 156.85 5.03165 157.799 5.83792C158.266 6.23513 158.734 6.63231 159.201 7.0299Z" fill="#F1C527"/>
</svg>
