<svg width="74" height="122" viewBox="0 0 74 122" fill="none" xmlns="http://www.w3.org/2000/svg">
<path d="M24.2414 104.953C23.8627 104.515 23.8664 103.856 24.2737 103.435C24.7061 102.975 25.4273 102.944 25.8892 103.377C26.0387 103.511 26.1883 103.646 26.3481 103.785C27.8296 104.652 29.3457 105.034 30.9789 104.959C31.6065 104.929 32.1539 105.415 32.1819 106.051C32.2136 106.677 31.7274 107.221 31.0895 107.247C28.9915 107.352 26.9693 106.823 25.0878 105.708C25.04 105.679 24.9818 105.647 24.9375 105.608C24.7232 105.427 24.5191 105.249 24.3187 105.061C24.2988 105.02 24.265 104.984 24.2414 104.953ZM20.6837 99.7482C20.6027 99.6496 20.5357 99.5444 20.4863 99.4224C19.6449 97.2897 19.2926 94.9617 19.4656 92.6946C19.5171 92.0641 20.0674 91.601 20.6936 91.6402C21.3264 91.6934 21.7927 92.243 21.7552 92.8669C21.6101 94.7964 21.9042 96.7675 22.624 98.5901C22.8539 99.1824 22.5593 99.8415 21.9759 100.073C21.5044 100.251 20.9843 100.111 20.6837 99.7482ZM36.1789 104.935C36.1281 104.882 36.0846 104.809 36.0478 104.749C35.7442 104.2 35.9357 103.504 36.4897 103.193C38.2598 102.217 39.9681 101.057 41.5687 99.7422C42.0623 99.3398 42.7606 99.4049 43.1865 99.9053C43.5917 100.398 43.521 101.115 43.0274 101.517C41.3177 102.908 39.5005 104.145 37.611 105.194C37.1204 105.459 36.5237 105.337 36.1789 104.935ZM21.6709 87.5526C21.3497 87.1824 21.2885 86.6391 21.561 86.2038C22.2998 85.0203 23.2125 83.9687 24.271 83.0621C24.8566 82.5653 25.5004 82.101 26.1848 81.686C26.2128 81.6728 26.2407 81.6597 26.2584 81.6429C26.3844 81.5837 26.5104 81.5246 26.6363 81.4655C27.2168 81.2102 27.8901 81.4749 28.148 82.0541C28.4058 82.6333 28.1422 83.3035 27.5617 83.5588C27.4917 83.5917 27.4114 83.6208 27.3378 83.6639C26.7728 84.0059 26.252 84.3869 25.7688 84.7929C24.8796 85.5517 24.1231 86.4275 23.5029 87.4102C23.1729 87.9407 22.4628 88.1032 21.9295 87.7728C21.8337 87.7153 21.7453 87.6372 21.6709 87.5526ZM50.9838 120.907C50.737 120.621 50.6382 120.215 50.7539 119.828C51.4565 117.577 51.8431 115.687 51.9786 113.882C52.0301 113.252 52.57 112.785 53.2065 112.828C53.8393 112.881 54.3093 113.42 54.2681 114.054C54.1187 116.029 53.6974 118.079 52.9462 120.498C52.7635 121.105 52.119 121.441 51.5134 121.247C51.2998 121.194 51.1119 121.068 50.9838 120.907ZM51.6306 108.427C51.5223 108.307 51.439 108.149 51.3941 107.983C50.8503 106.026 50.1224 104.097 49.2265 102.246C48.9546 101.673 49.1873 100.992 49.7612 100.722C50.335 100.453 51.0157 100.697 51.2913 101.26C52.2468 103.236 53.0204 105.298 53.5996 107.383C53.7668 107.988 53.414 108.615 52.8041 108.79C52.365 108.91 51.9076 108.758 51.6306 108.427ZM32.2609 84.1204C31.9463 83.7642 31.8814 83.231 32.14 82.8023C32.4633 82.2578 33.1565 82.0777 33.7076 82.3912C33.9197 82.5137 34.1319 82.6361 34.3404 82.7689C36.0075 83.8651 37.5766 85.0074 39.0375 86.1919C39.5245 86.5867 39.6026 87.31 39.2041 87.8044C38.8056 88.2988 38.0837 88.3643 37.5864 87.9658C36.1904 86.8277 34.686 85.7319 33.1213 84.7071C32.957 84.6134 32.7552 84.4947 32.5533 84.3759C32.4443 84.2904 32.3456 84.2087 32.2609 84.1204ZM45.9649 96.962C45.8264 96.7965 45.7403 96.6149 45.7064 96.4173C44.6359 94.9557 43.4299 93.515 42.1525 92.1761C41.7156 91.7065 41.7377 90.996 42.1973 90.5583C42.657 90.1206 43.3804 90.1483 43.8209 90.6076C44.9355 91.7838 45.9971 93.0105 46.9644 94.2729C47.922 93.0636 48.7838 91.7968 49.5631 90.5004C49.8865 89.9559 50.59 89.7795 51.1374 90.1033C51.6847 90.4271 51.8638 91.1286 51.5404 91.6732C50.563 93.3272 49.4308 94.9259 48.1793 96.4353C48.1484 96.7487 47.9827 97.0484 47.705 97.2385C47.3499 97.482 46.9094 97.5094 46.5528 97.3351C46.3945 97.2899 46.2471 97.2139 46.1145 97.0968C46.043 97.0364 46.0091 97.0011 45.9649 96.962ZM52.3762 86.0979C52.1124 85.7947 52.0211 85.368 52.1647 84.9676C52.8607 83.0271 53.3534 81.0369 53.6347 79.052C53.7209 78.4224 54.2947 77.9909 54.9267 78.0786C55.5588 78.1662 55.9898 78.7496 55.9073 79.3689C55.6054 81.5087 55.0818 83.65 54.3202 85.7407C54.1066 86.3362 53.4488 86.6449 52.8543 86.42C52.6687 86.3535 52.5117 86.2392 52.3762 86.0979ZM54.069 73.6224C53.9202 73.4532 53.8178 73.2195 53.7986 72.9808C53.6962 71.7737 53.5001 70.5678 53.2341 69.3947C53.0536 68.5999 52.8421 67.794 52.599 67.0115C52.4177 66.4135 52.7536 65.7691 53.3635 65.5939C53.9632 65.415 54.6107 65.7516 54.7883 66.3599C55.0477 67.1946 55.2753 68.0526 55.4684 68.9099C55.7565 70.1836 55.9709 71.5004 56.0815 72.8147C56.1339 73.4476 55.6683 73.9991 55.0333 74.0494C54.6591 74.0543 54.3092 73.894 54.069 73.6224ZM50.4572 61.527C50.3997 61.4601 50.346 61.3828 50.2995 61.2851C49.4258 59.5347 48.3929 57.7737 47.1574 55.9284C46.8082 55.4092 46.9481 54.6946 47.4681 54.3481C47.9882 54.0016 48.7057 54.1431 49.0549 54.6623C50.3405 56.5951 51.4206 58.4194 52.3408 60.2675C52.6266 60.8335 52.3939 61.5148 51.8267 61.7981C51.3641 62.0493 50.7953 61.9148 50.4572 61.527Z" fill="#1E1E1E"/>
<path d="M40.4144 14.9629C37.6142 13.0388 34.159 12.6187 30.8297 12.986C29.1029 13.1736 27.4205 13.6263 25.77 14.1814C23.977 14.7896 22.1789 15.4746 20.6304 16.5918L20.6222 16.599C19.6149 16.1821 18.4995 16.5847 17.8317 17.4625C14.0172 22.5017 12.8931 30.5468 16.6889 35.8824C18.6048 38.5706 21.7508 39.5817 24.9176 39.8066C26.539 39.9291 28.2279 39.9631 29.9096 39.8731C29.9825 39.9394 30.0472 40.0128 30.1118 40.0863C30.314 40.2994 30.4999 40.5269 30.7021 40.74C32.0189 42.0868 33.4833 42.1302 35.2314 41.7355C37.8417 41.1466 40.5857 39.817 42.7306 38.2036C43.8354 37.3758 44.6567 36.16 44.7796 34.7624C44.8415 34.056 44.6851 33.3825 44.6383 32.6848C44.6373 32.7002 44.6424 32.6233 44.6453 32.4613C44.6555 32.4233 44.6749 32.3628 44.6954 32.2868C44.7803 32.0527 44.8724 31.8267 44.9573 31.5926C45.2314 30.7139 45.2101 29.8633 45.0494 29.0197C45.2868 27.2895 45.2042 25.4933 45.0519 23.7007C44.7638 20.2166 43.3623 16.9886 40.4144 14.9629Z" fill="#F7C300"/>
<path d="M34.4546 11.6484C26.9775 8.85877 17.2501 11.3972 14.4012 19.4832C14.0125 20.5789 15.7665 21.0337 16.1552 19.9381C18.4527 13.4241 26.1797 11.2418 32.3432 12.8701C38.0512 14.3778 42.6863 19.0469 43.1151 25.0872C43.2116 26.4364 43.1154 27.7816 42.774 29.0962C42.4286 30.4724 41.5498 31.6229 41.1838 32.9593C40.8914 33.999 41.284 34.9572 41.7094 35.8865C41.9786 36.4898 42.3472 37.1068 42.0032 37.7574C41.6255 38.4522 40.4855 38.8765 39.8367 39.2305C38.2982 40.0781 36.7597 40.9257 35.2212 41.7733C33.9154 42.4885 31.6803 44.1812 30.1669 43.1234C29.0895 42.3626 29.1199 40.8436 27.649 40.4292C26.3064 40.0613 24.7685 40.4303 23.3798 40.1754C20.1214 39.582 17.1243 37.7154 15.2987 34.9478C14.3222 33.4751 13.6747 31.8142 13.3645 30.0736C13.08 28.4118 12.9366 26.2491 13.9054 24.7875C14.5414 23.8074 12.9696 22.9314 12.3265 23.9033C10.4892 26.709 11.4047 31.1038 12.6623 33.937C14.0422 37.0247 16.564 39.5416 19.6559 40.9045C21.1342 41.5587 22.6902 41.9705 24.3095 42.1238C25.092 42.2026 25.8529 42.1411 26.6323 42.1503C27.7203 42.1629 27.873 43.2454 28.4581 43.976C30.9764 47.1335 35.5449 43.6614 38.0448 42.286C39.6632 41.3969 41.7135 40.6347 43.0434 39.3189C44.15 38.2286 44.116 36.8678 43.5323 35.5273C43.2508 34.877 42.7641 34.1755 42.9367 33.4295C43.1094 32.6835 43.683 31.9466 43.9777 31.2236C44.5774 29.7394 44.8969 28.1686 44.9479 26.5737C45.1952 19.7642 40.6874 13.9835 34.4546 11.6484Z" fill="#1E1E1E"/>
<path d="M45.798 40.4139C44.8112 40.037 43.8909 40.7603 43.1089 41.2605C41.9713 42.0015 40.7916 42.678 39.5913 43.3148C38.2629 44.0208 36.8996 44.6707 35.5517 45.3216C34.3719 45.8823 33.19 46.4738 31.8599 46.3846C30.699 46.3058 30.6955 48.1198 31.8564 48.1987C34.2161 48.3664 36.5221 46.8865 38.566 45.8691C39.7796 45.2641 40.9943 44.6437 42.174 43.9671C42.7275 43.6536 43.2584 43.331 43.7903 42.993C44.0568 42.8163 44.315 42.6469 44.5815 42.4702C44.4821 42.5722 44.3756 42.666 44.2844 42.7608C43.8141 43.2184 43.3151 43.6433 42.7955 44.0283C41.7563 44.7984 40.6382 45.4788 39.5497 46.1764C38.6222 46.7758 37.305 47.4285 36.6659 48.3389C36.0606 49.2051 36.4789 50.2421 37.5352 50.384C38.7526 50.5435 40.0474 50.1133 41.1853 49.7198C42.639 49.2222 44.0865 48.7009 45.5412 48.1879C46.6402 47.7997 46.1915 46.0507 45.0772 46.4379C43.7968 46.8844 42.5082 47.3381 41.2278 47.7847C40.7141 47.9616 40.1995 48.154 39.6798 48.3074C39.6326 48.32 39.5936 48.3253 39.5618 48.3388C40.0548 48.0062 40.5549 47.6817 41.0551 47.3572C42.1107 46.6885 43.151 46.0188 44.143 45.2612C45.0294 44.5821 46.086 43.7822 46.5855 42.7628C46.9827 41.8916 46.7848 40.7909 45.798 40.4139Z" fill="#1E1E1E"/>
<path d="M45.8628 48.9334C45.0211 49.1675 44.2422 49.6215 43.6367 50.2561C43.0732 50.8392 42.6073 51.6985 42.8849 52.5261C43.033 52.9752 43.4968 53.3202 43.993 53.173C44.4348 53.0302 44.8066 52.5435 44.6452 52.0627C44.6391 52.0391 44.6329 52.0156 44.6339 52.0002L44.6349 51.9848C44.6359 51.9695 44.6451 51.9468 44.6462 51.9315C44.6728 51.8791 44.7076 51.8194 44.7342 51.767C44.7342 51.767 44.7516 51.7372 44.768 51.7228C44.8182 51.6641 44.8684 51.6054 44.9186 51.5467C45.0344 51.4303 45.1491 51.3292 45.2721 51.221C45.4986 51.065 45.7394 50.9254 45.9947 50.802C46.1054 50.7625 46.2161 50.7229 46.334 50.6916C46.7902 50.5651 47.1251 50.0529 46.9863 49.5812C46.8238 49.1158 46.3508 48.7934 45.8628 48.9334Z" fill="#1E1E1E"/>
<path d="M27.9443 31.8392C25.6025 29.8738 22.896 28.4032 19.9737 27.5139C18.8608 27.1755 18.3978 28.9305 19.5107 29.2689C22.1304 30.0625 24.5845 31.3786 26.6769 33.1435C28.7622 34.9002 30.8275 37.1961 31.7527 39.8005C32.1443 40.8898 33.8964 40.4336 33.5058 39.3289C32.4624 36.4085 30.3005 33.821 27.9443 31.8392Z" fill="#1E1E1E"/>
<path d="M33.6548 17.3509C32.7274 23.9334 33.8397 30.6178 36.912 36.5036C37.4543 37.5327 39.0204 36.6173 38.4781 35.5882C35.6461 30.1572 34.5373 23.8899 35.4006 17.813C35.5688 16.6652 33.8158 16.195 33.6548 17.3509Z" fill="#1E1E1E"/>
<path d="M29.4295 19.3618C29.718 19.7887 29.7657 20.3551 29.7097 20.8535C29.665 21.2986 29.4385 21.4545 29.0151 21.5521C28.8582 21.5888 28.6952 21.602 28.5331 21.5998C28.3343 20.5145 27.5468 19.4549 26.3716 19.4755C25.6754 19.4947 25.1529 20.0416 25.1237 20.7192C25.0915 21.443 25.607 22.1771 26.1498 22.6118C26.2596 22.7034 26.3858 22.7807 26.512 22.8579C26.4106 22.9906 26.2938 23.1224 26.1565 23.2144C26.0027 23.3208 25.8295 23.3719 25.649 23.4149C25.6551 23.3226 25.654 23.2222 25.6529 23.1218C25.5718 21.8893 24.3776 19.971 22.8923 20.7138C21.5587 21.3809 21.9859 23.2213 22.7917 24.1199C22.9354 24.2831 23.1037 24.4247 23.273 24.5509C23.0743 24.7549 22.8314 24.9253 22.5555 24.8929C22.0571 24.8392 21.4475 24.3618 21.1396 23.9955C20.8326 23.6139 20.1712 23.6892 19.8567 24.0096C19.4838 24.3959 19.5581 24.91 19.865 25.2916C20.7519 26.3651 22.4487 27.1021 23.7607 26.4104C24.2804 26.1412 24.7179 25.7125 25.0446 25.2076C26.3511 25.303 27.6754 24.6585 28.266 23.4286C29.0578 23.4848 29.8493 23.3094 30.4959 22.8704C31.8067 21.9625 31.8417 19.6717 30.9956 18.4464C30.3395 17.5029 28.7662 18.4102 29.4295 19.3618Z" fill="#1E1E1E"/>
</svg>
