<svg width="102" height="79" viewBox="0 0 102 79" fill="none" xmlns="http://www.w3.org/2000/svg">
<path d="M101.689 53.8765C100.937 55.8115 99.5315 57.2784 98.2126 58.8213C96.7828 60.4654 95.3406 62.0968 93.7999 63.627C92.4441 64.9675 91.0512 66.2701 89.8433 67.7498C88.6846 69.1662 87.6493 70.6711 86.3797 71.9737C85.1101 73.2637 83.705 74.3892 82.2506 75.4389C80.8084 76.4885 79.2923 77.6267 77.7023 78.4488C75.7425 79.4605 75.1016 77.26 74.5592 75.793C73.869 73.8834 73.191 71.9611 72.3898 70.0894C70.997 66.8013 69.2344 63.6903 66.5967 61.2874C65.8448 60.6045 66.2022 59.6686 66.8801 59.2513C67.028 59.049 67.2499 58.8846 67.5704 58.796C70.4423 58.0499 73.3389 57.367 76.1616 56.4564C78.9349 55.5585 81.5727 54.4203 84.4323 53.8639C85.7265 53.6109 87.033 53.3833 88.3395 53.181C86.8851 52.7004 85.4429 52.1692 83.9761 51.8278C82.0163 51.3599 79.8347 51.5875 77.8502 51.6887C75.6562 51.7898 73.4622 51.9922 71.2805 52.1819C69.0865 52.3842 66.9048 52.5866 64.6985 52.713C62.9359 52.8142 60.7665 53.2315 59.2751 52.0301C56.2552 49.564 53.7038 46.1748 51.4975 42.9499C50.6839 41.7611 52.1507 40.6356 53.1984 41.1288C53.3833 41.0909 53.5682 41.0782 53.7531 41.1161C63.7371 43.3672 73.6717 45.6942 83.5694 48.2868C89.0421 49.2985 94.5025 50.4367 99.8889 51.8784C99.9382 51.891 99.9752 51.891 100.024 51.9163C100.394 52.0175 100.739 52.1566 101.084 52.3716C101.553 52.6498 101.898 53.3327 101.689 53.8765Z" fill="#F7C300"/>
<path d="M101.836 52.5866C102.366 51.6634 101.516 50.6264 100.604 50.6391C92.4195 48.0465 84.2104 45.5425 75.7302 44.1514C71.6626 43.4811 67.5951 42.8741 63.5769 41.9509C61.8389 41.5082 60.101 41.0656 58.3631 40.623C55.7253 39.9021 53.0999 39.118 50.4868 38.334C49.661 38.081 49.1433 38.6628 49.0447 39.3583C48.9214 39.6239 48.8845 39.9401 48.9831 40.2942C49.698 42.8614 51.7317 44.986 53.3464 47.0095C55.0967 49.1847 56.9086 51.3093 58.7575 53.396C57.5742 57.8602 56.6867 62.3624 55.2816 66.7634C55.183 67.0796 55.072 67.421 55.0967 67.7498C55.1336 68.3316 55.5774 68.8501 56.1197 68.9639C56.4279 69.0271 56.736 68.9639 57.0442 68.9007C58.967 68.5213 60.8652 68.2936 62.8003 68.066C63.8357 67.9395 64.8588 67.8257 65.8941 67.6992C66.4118 67.636 66.9295 67.5728 67.4349 67.5222C67.6074 67.4969 67.8293 67.4463 68.0265 67.459C68.0758 67.4842 68.1251 67.5348 68.1867 67.5728C68.2484 67.6487 68.31 67.7119 68.384 67.7625C68.4703 67.8636 68.5565 67.9775 68.6428 68.1166C69.0002 68.7363 69.3578 69.3433 69.7152 69.9503C70.689 72.4923 71.5641 75.0848 72.6734 77.5762C72.6857 79.1064 74.436 79.157 75.3604 78.4362C76.7409 77.3739 78.0105 76.1345 79.3294 74.9837C82.0041 72.6693 84.7035 70.3803 87.3412 68.0154C92.3332 63.5385 96.7089 58.3914 101.171 53.3707C101.516 53.2316 101.738 52.9407 101.836 52.5866ZM60.8775 51.8152C60.8529 51.7899 60.8282 51.7519 60.8036 51.714C59.8791 50.677 58.9547 49.6273 58.0549 48.565C56.5018 46.4024 54.9241 44.2146 53.2601 41.9256C56.3293 42.8361 59.4107 43.7087 62.5169 44.4422C66.7323 45.4413 70.9971 46.0736 75.2619 46.7692C75.5084 46.8071 75.7425 46.8577 75.9891 46.8957C80.8701 48.1477 85.7265 49.387 90.5829 50.6264C89.9666 50.6517 89.3627 50.677 88.7464 50.7402C85.6772 51.0564 82.6697 51.322 79.5882 51.3978C73.3636 51.537 67.1267 51.6761 60.8775 51.8152ZM64.9944 58.1511C64.8958 58.1764 64.7972 58.2143 64.6862 58.2396C64.5753 58.2143 64.4521 58.2143 64.3165 58.227C61.9869 58.4546 61.0624 60.6298 59.5093 62.0715C59.3738 62.198 59.2382 62.3245 59.1026 62.4383C59.7682 59.7699 60.4584 57.1267 61.1733 54.471C67.2376 54.3319 73.3143 54.2054 79.3787 54.0663C82.3985 54.003 85.369 53.8133 88.3766 53.4719L88.3889 53.5983C85.0116 54.256 81.6343 54.9009 78.2447 55.5586C73.832 56.4185 69.4071 57.2405 64.9944 58.1511ZM63.5029 65.2837C62.1964 65.4355 60.8898 65.5999 59.571 65.7517C59.8668 65.4229 60.1503 65.0941 60.4461 64.7653C60.5324 64.6894 60.6064 64.6135 60.6927 64.5376C61.4692 63.842 62.1594 63.1465 62.8003 62.3118C63.0592 61.9704 63.392 61.5277 63.6632 61.3001C63.7864 61.1863 63.9097 61.1104 64.0329 61.0472C64.5383 61.6542 65.0314 62.2486 65.5367 62.8556C65.9312 63.5259 66.3255 64.1961 66.7323 64.8917C65.6599 65.0308 64.5876 65.1573 63.5029 65.2837ZM96.4377 54.7618C91.3471 59.8204 86.3428 64.8032 81.3509 69.7606C81.0797 69.9883 80.8085 70.2286 80.5373 70.4562L77.0614 73.4661C76.5067 73.9466 75.9521 74.4272 75.4098 74.9078C75.2742 75.0216 75.1139 75.186 74.9414 75.363C74.6086 74.7939 74.2758 74.2375 73.943 73.6811C73.1541 71.607 72.4269 69.4951 71.5764 67.4463C70.9477 65.9414 70.1959 64.525 69.1975 63.235C68.2977 62.0842 67.3363 61.4519 66.6583 60.1619C68.6921 59.479 71.2066 59.2514 73.3267 58.834C75.6193 58.3914 78.257 58.012 80.562 57.5567C86.4661 56.4185 91.5443 54.7365 97.4361 53.5983C97.1033 54.003 96.7705 54.3824 96.4377 54.7618Z" fill="#1E1E1E"/>
<path d="M44.8045 67.2186C40.9465 68.2683 37.0514 68.7995 33.0578 68.8248C31.3815 68.8374 31.283 71.5058 32.9593 71.4932C37.1871 71.4679 41.3162 70.9241 45.3961 69.8112C47.0231 69.3812 46.4315 66.776 44.8045 67.2186Z" fill="#1E1E1E"/>
<path d="M25.7119 67.2186C23.3083 67.0037 21.1266 65.9287 19.4379 64.1582C18.267 62.9315 16.3688 64.7652 17.5521 66.0046C19.7215 68.281 22.5318 69.6215 25.6132 69.8871C27.2895 70.0388 27.3758 67.3704 25.7119 67.2186Z" fill="#1E1E1E"/>
<path d="M15.9374 49.7285C14.2118 52.3464 13.6818 55.5459 14.446 58.6064C14.8651 60.2757 17.4042 59.6687 16.9851 57.9867C16.3812 55.5586 16.7879 53.1937 18.1561 51.1196C19.0929 49.7032 16.8742 48.2995 15.9374 49.7285Z" fill="#1E1E1E"/>
<path d="M29.0767 38.8525C25.9953 39.9528 23.2466 41.5842 20.806 43.8226C19.5611 44.9735 21.3484 46.9084 22.6056 45.7576C24.6764 43.8479 27.0429 42.3936 29.6683 41.4577C31.2461 40.9013 30.6668 38.2834 29.0767 38.8525Z" fill="#1E1E1E"/>
<path d="M45.1004 29.1399C42.5242 32.213 39.11 33.9456 35.4862 35.3873C33.9331 36.007 35.1904 38.3466 36.7434 37.7396C40.5645 36.2346 44.2006 34.3123 46.9 31.0875C47.9846 29.7849 46.1974 27.8373 45.1004 29.1399Z" fill="#1E1E1E"/>
<path d="M51.288 13.7238C51.6331 15.7979 51.5591 17.8593 51.0661 19.8954C50.6593 21.5647 53.1491 22.3488 53.5559 20.6794C54.1599 18.1754 54.2462 15.6461 53.8148 13.1042C53.5436 11.4095 51.0045 12.0292 51.288 13.7238Z" fill="#1E1E1E"/>
<path d="M50.9798 5.90827C49.2911 3.11338 46.074 -0.098842 42.6228 0.00233038C40.9465 0.0529166 40.8479 2.72134 42.5242 2.67075C45.0264 2.59487 47.4669 5.17478 48.6872 7.18558C49.5746 8.65258 51.8796 7.37527 50.9798 5.90827Z" fill="#1E1E1E"/>
<path d="M35.7327 0.369138C33.3291 0.520897 31.0735 1.08999 28.8795 2.10171C27.3511 2.80992 28.6083 5.16217 30.1367 4.45397C31.8746 3.64459 33.7235 3.16401 35.634 3.03754C37.298 2.93637 37.409 0.267966 35.7327 0.369138Z" fill="#1E1E1E"/>
<path d="M20.8306 5.50357C19.179 6.80616 17.4164 7.91905 15.5552 8.89284C14.0638 9.67692 15.3086 12.0292 16.8124 11.2451C18.8708 10.1575 20.7937 8.8802 22.6302 7.43849C23.9614 6.40147 22.1495 4.46655 20.8306 5.50357Z" fill="#1E1E1E"/>
<path d="M10.0332 13.2434C9.65111 12.5984 8.92388 12.3834 8.25828 12.7122C7.98711 12.8513 7.70363 12.9778 7.42013 13.0916C7.37083 13.1043 7.1613 13.1802 7.12432 13.1928C6.97641 13.2434 6.81618 13.294 6.66827 13.3446C6.07663 13.5216 5.48496 13.6607 4.86866 13.7492C4.73308 13.7745 4.58521 13.7872 4.44963 13.7998C4.40032 13.7998 4.20309 13.8125 4.20309 13.8125C3.88262 13.8378 3.56212 13.8378 3.25398 13.8378C2.61303 13.8251 1.98444 13.7619 1.35582 13.6607C0.677894 13.5469 0 14.2931 0 14.9507C0 15.7474 0.529962 16.2153 1.25719 16.3418C4.05517 16.8097 6.95175 16.3165 9.50321 15.0645C10.1318 14.761 10.3783 13.8378 10.0332 13.2434Z" fill="#1E1E1E"/>
</svg>
