<svg width="144" height="72" viewBox="0 0 144 72" fill="none" xmlns="http://www.w3.org/2000/svg">
<path d="M139.106 34.9195C139.156 34.8777 139.206 34.8464 139.266 34.8255C140.096 34.4079 140.936 33.9484 141.776 33.4681C142.296 33.1653 142.956 33.3637 143.246 33.9171C143.536 34.4601 143.356 35.1597 142.816 35.4521C141.946 35.9533 141.066 36.4232 140.206 36.8617C139.666 37.1332 139.026 36.8931 138.766 36.3396C138.526 35.828 138.686 35.2328 139.106 34.9195Z" fill="#1E1E1E"/>
<path d="M128.676 38.6369C128.796 38.5429 128.936 38.4803 129.096 38.449C130.786 38.1044 132.526 37.6136 134.276 36.9871C134.836 36.7782 135.456 37.0915 135.656 37.6867C135.856 38.2819 135.556 38.9189 134.986 39.1277C133.146 39.796 131.296 40.3181 129.506 40.6731C128.916 40.788 128.356 40.3912 128.236 39.7751C128.156 39.3261 128.336 38.8875 128.676 38.6369Z" fill="#1E1E1E"/>
<path d="M97.1861 6.24569C97.6361 5.91155 98.2661 5.98464 98.6361 6.43365C99.0261 6.91398 98.9661 7.62404 98.5061 8.02084C97.2661 9.12769 96.4061 10.5478 95.9661 12.2707C95.8061 12.8764 95.2161 13.2314 94.6361 13.0643C94.0561 12.8973 93.7161 12.2812 93.8761 11.6755C94.4361 9.5036 95.5261 7.69713 97.1061 6.28746C97.1361 6.28746 97.1561 6.26658 97.1861 6.24569ZM102.156 3.87535C102.276 3.78137 102.426 3.71872 102.586 3.6874C104.486 3.32193 106.536 3.36369 108.506 3.8127C109.086 3.94845 109.456 4.54364 109.336 5.15972C109.206 5.76536 108.636 6.15171 108.046 6.02641C106.356 5.64005 104.606 5.59829 102.986 5.92199C102.396 6.03685 101.836 5.62961 101.726 5.01353C101.636 4.55408 101.816 4.11552 102.156 3.87535ZM72.4761 29.3852C72.7661 29.1659 73.1561 29.1033 73.5161 29.2599L74.5961 29.7298C75.9061 30.2937 77.2661 30.8784 78.6061 31.4005C79.1661 31.6198 79.4561 32.2672 79.2461 32.852C79.0361 33.4367 78.4161 33.7291 77.8561 33.5203C76.4761 32.9877 75.1061 32.3925 73.7761 31.8182L72.6961 31.3588C72.1461 31.1186 71.8761 30.4607 72.1061 29.8864C72.1761 29.6776 72.3161 29.5105 72.4761 29.3852ZM94.1161 16.7921C94.2461 16.6982 94.3961 16.6251 94.5561 16.6042C95.1461 16.4998 95.7061 16.907 95.8061 17.5231C96.0861 19.1834 96.6761 20.8854 97.5561 22.5875C97.8361 23.1409 97.6461 23.8092 97.1161 24.1224C96.5861 24.4148 95.9361 24.2164 95.6461 23.663C94.6561 21.7521 93.9861 19.8203 93.6661 17.9094C93.5961 17.4604 93.7861 17.0323 94.1161 16.7921ZM112.666 6.28746C113.036 6.01597 113.536 6.00553 113.926 6.28746C115.046 7.12282 116.006 8.11481 116.786 9.23211L116.846 9.31565C117.256 9.92128 117.576 10.5582 117.796 11.1952C117.996 11.78 117.696 12.4274 117.136 12.6362C116.576 12.8451 115.956 12.5318 115.756 11.947C115.606 11.498 115.376 11.0595 115.086 10.6209L115.036 10.5478C114.396 9.63935 113.596 8.81443 112.666 8.12526C112.176 7.75979 112.066 7.06017 112.416 6.54851C112.486 6.44409 112.576 6.36055 112.666 6.28746ZM82.8961 33.1861C83.1361 33.0086 83.4361 32.9355 83.7461 32.9982C85.5061 33.3741 87.2761 33.5725 89.0161 33.5725C89.6161 33.5725 90.0961 34.0841 90.0961 34.7002C90.0961 35.3267 89.6061 35.8279 89.0161 35.8279C87.1361 35.8279 85.2161 35.6191 83.3161 35.2119C82.7361 35.0866 82.3561 34.4914 82.4761 33.8753C82.5161 33.5829 82.6761 33.3427 82.8961 33.1861ZM99.1461 26.9105C99.5961 26.5763 100.226 26.6494 100.586 27.088C101.706 28.435 102.986 29.7507 104.416 30.9933C104.876 31.3901 104.936 32.1106 104.546 32.5805C104.156 33.0608 103.476 33.1235 103.026 32.7162C101.516 31.3901 100.146 29.9909 98.9561 28.5603C98.5661 28.0904 98.6161 27.3803 99.0661 26.9627C99.0961 26.9522 99.1161 26.9313 99.1461 26.9105ZM115.416 16.1865C115.746 15.9463 116.186 15.9046 116.566 16.1134C117.086 16.4162 117.276 17.1054 116.986 17.6484C116.046 19.434 114.676 21.0525 113.476 22.4308C113.076 22.9007 112.386 22.9216 111.946 22.5039C111.506 22.0862 111.476 21.3657 111.876 20.9063C112.996 19.6219 114.266 18.1183 115.096 16.552C115.176 16.4058 115.286 16.2805 115.416 16.1865ZM93.8661 33.1652C93.9861 33.0817 94.1161 33.019 94.2661 32.9773C95.5261 32.6849 96.7761 32.2881 97.9961 31.7973C98.4361 31.6198 98.8661 31.4319 99.2861 31.2335C99.8261 30.9724 100.476 31.2335 100.716 31.7973C100.966 32.3612 100.716 33.0399 100.176 33.2905C99.7161 33.5098 99.2561 33.7082 98.7861 33.9066C97.4661 34.4496 96.0961 34.8777 94.7361 35.191C94.1561 35.3267 93.5761 34.9404 93.4461 34.3243C93.3361 33.8648 93.5161 33.4158 93.8661 33.1652ZM108.206 24.8951C108.646 24.5714 109.256 24.6237 109.626 25.0518C110.036 25.5112 110.006 26.2213 109.566 26.6494C108.136 28.0278 106.646 29.2704 105.136 30.3563C104.646 30.7114 103.966 30.5756 103.636 30.0639C103.296 29.5523 103.416 28.8631 103.896 28.5081C103.906 28.5081 103.906 28.4976 103.906 28.4976C105.336 27.4743 106.736 26.3048 108.096 24.9891C108.136 24.9578 108.176 24.9265 108.206 24.8951ZM107.556 34.3452C107.906 34.0841 108.376 34.0528 108.766 34.3139C110.126 35.2119 111.506 36.0055 112.846 36.6633C113.056 36.7677 113.266 36.8617 113.476 36.9661C114.026 37.2167 114.276 37.8746 114.036 38.4489C113.796 39.0232 113.166 39.2843 112.616 39.0336C112.386 38.9292 112.156 38.8248 111.926 38.7099C110.496 38.0103 109.046 37.175 107.606 36.2247C107.096 35.8906 106.956 35.191 107.276 34.6689C107.346 34.5331 107.446 34.4287 107.556 34.3452ZM117.686 38.7726C117.916 38.5951 118.216 38.522 118.516 38.5846C120.216 38.9188 121.986 39.0754 123.796 39.0441C124.396 39.0336 124.886 39.5349 124.896 40.1509C124.906 40.7775 124.426 41.2891 123.836 41.2996C121.886 41.3309 119.966 41.1638 118.116 40.7983C117.526 40.6835 117.146 40.0883 117.256 39.4722C117.306 39.1798 117.466 38.9397 117.686 38.7726Z" fill="#1E1E1E"/>
<path d="M64.456 26.545C64.696 26.3675 65.006 26.284 65.326 26.3675C66.256 26.5868 67.186 26.8583 68.196 27.1925C68.766 27.3804 69.076 28.0174 68.896 28.6126C68.716 29.2078 68.106 29.5315 67.536 29.3435C66.586 29.0303 65.706 28.7796 64.846 28.5708C64.266 28.4351 63.896 27.8294 64.026 27.2238C64.096 26.9314 64.256 26.7017 64.456 26.545Z" fill="#1E1E1E"/>
<path d="M39.4988 0.5C36.9988 1 37.7809 0.891159 35.5991 1.71386C35.2391 1.8496 34.8491 2.00623 34.4591 2.15242C26.9191 5.06575 13.8991 10.0988 5.76912 13.2418C5.52912 13.3358 5.29912 13.4298 5.05912 13.5133C0.349116 14.2652 -1.22088 17.805 0.979116 22.9529C1.05912 23.1827 1.14912 23.4228 1.22912 23.663C4.60912 33.1966 10.3891 49.507 14.0691 59.9072C14.1991 60.2623 14.3191 60.6173 14.4491 60.9619C14.5191 61.2438 14.5891 61.5675 14.6591 61.9121C16.2091 66.9765 19.6091 68.6055 25.0191 66.5693C25.3091 66.4544 25.6091 66.3395 25.9291 66.2142C28.1091 65.3475 30.6791 64.3973 32.4991 63.7917C32.7691 63.6873 33.0391 63.5828 33.3091 63.4784C37.9691 61.672 42.9991 59.7402 47.3691 58.0486C48.4891 57.61 49.5691 57.1923 50.5991 56.806C50.7491 56.7224 50.9591 56.6285 51.2191 56.5136C51.4791 56.3987 51.7791 56.263 52.0991 56.1272C54.2991 55.2188 62.6591 54.9368 57.1891 47.4917C57.0991 47.1993 57.0091 46.9278 56.9291 46.6876C56.6391 45.8627 56.3291 44.9856 55.9991 44.0563C52.0391 32.8833 45.5691 14.6098 42.3291 5.47298C42.1791 5.04486 42.0291 4.63762 41.8891 4.25127C41.8391 4.13641 41.4788 2.57553 40.9988 1.5C40.9088 1.23895 39.4988 0.5 39.4988 0.5Z" fill="#F7C300"/>
<path d="M12.1191 47.3768C12.7591 49.1833 13.5591 50.6452 14.1991 52.4516C14.9291 54.5192 15.9091 56.4927 16.6491 58.5707C18.3691 62.6117 19.9191 67.0183 21.8891 70.9653C22.7791 72.6778 24.5091 72.0095 26.8991 70.7983C27.3991 70.6103 27.6391 70.5059 28.1391 70.3179L59.5191 57.9024C60.0191 57.7144 59.7391 56.9313 59.7391 56.9313C59.7391 56.9313 59.6891 56.806 59.5891 56.7015L59.6491 56.6807C60.1491 56.4927 59.9591 55.9706 59.8691 55.7095C59.7791 55.4485 59.6891 55.1874 59.1891 55.3858L25.3291 68.7516C25.0791 68.8456 25.0791 68.8456 24.8291 68.9396C24.5791 69.0336 24.0891 69.232 23.8391 69.3259C23.5891 69.4199 23.2491 69.2633 23.1591 69.0022C22.9791 68.4801 22.7891 67.9685 22.5191 67.1958C22.4291 66.9347 22.3391 66.6737 22.2391 66.4231L11.7391 40.767C10.1191 36.9766 8.48909 33.1965 7.11909 29.3121C6.28909 26.9835 5.55909 24.916 4.82909 22.8381C4.82909 22.8381 4.73909 22.577 4.64909 22.316C4.47909 21.8252 4.36909 21.4388 4.30909 21.0629C4.35909 21.0211 4.37909 20.948 4.43909 20.9272C4.83909 20.4782 5.58909 20.1858 6.07909 19.9978C6.32909 19.9038 6.32909 19.9038 6.57909 19.8099L8.21909 18.8805C16.8691 14.662 25.6991 10.955 34.2791 7.34209C36.5091 6.4754 38.7391 5.61916 40.9691 4.75247C41.2191 4.65849 41.2191 4.65849 41.4691 4.56451C41.7191 4.47054 41.9691 4.37656 42.2091 4.27214L42.9491 3.97976C43.1991 3.88578 43.5391 4.04241 43.6291 4.30346C43.6291 4.30346 43.6291 4.30346 43.7191 4.56451C44.3291 5.5043 44.6091 6.27701 44.8791 7.06016C45.0591 7.58226 45.1591 7.83287 45.3391 8.35497C46.8991 12.7511 48.7991 17.3142 50.5991 21.6163C54.7591 31.7764 58.7691 42.2915 62.5291 52.9006C62.7091 53.4227 63.4591 53.1304 63.4591 53.1304C63.5491 53.3914 63.9591 52.9424 63.7691 52.4203C63.7091 52.2532 63.6391 52.0757 63.5791 51.9086C63.8291 51.8147 64.0791 51.7207 63.8891 51.1986C59.2091 37.9999 54.1291 25.2502 49.1391 12.7615C47.7891 9.7542 46.5991 6.39187 45.2491 3.37412L45.1591 3.11307C44.8791 2.34036 44.6091 1.55721 43.9291 1.23351C43.2491 0.909806 42.2591 1.28572 41.5191 1.5781C41.2691 1.67207 41.0191 1.76605 41.0191 1.76605C34.8391 4.17816 28.7391 6.83043 22.7891 9.12768C15.4491 12.2603 9.92909 14.9752 4.81909 17.2516C4.07909 17.5439 3.17909 18.1809 3.10909 18.797C2.96909 19.1207 2.97909 19.5175 3.03909 19.9247C3.01909 19.9561 2.98909 19.9874 2.97909 20.0187C2.66909 20.7288 3.02909 21.7625 3.30909 22.5352L3.48909 23.0573C4.24909 26.002 5.34909 29.1033 6.50909 33.9588C8.40909 38.5115 10.3091 43.0747 12.1191 47.3768Z" fill="#1E1E1E"/>
<path d="M28.4991 57.8188C28.6791 58.3409 29.2691 58.4035 30.0091 58.1216C30.2591 58.0276 30.5091 57.9336 30.6591 57.5786C30.6591 57.5786 31.0591 57.1296 30.9691 56.8685C30.9691 56.8685 31.1291 56.5135 31.3691 56.4195C31.6191 56.3256 32.2091 56.3882 32.8791 56.7224C33.2191 56.8894 33.4691 56.785 33.5591 57.0461C34.1491 57.1087 34.6391 56.9208 35.1391 56.7328C35.1391 56.7328 35.3891 56.6388 35.2991 56.3778C35.4591 56.0227 35.6991 55.9288 35.9491 55.8348C36.4491 55.6468 36.7891 55.8035 37.3691 55.8766L37.6191 55.7826C38.2091 55.8452 38.7891 55.9183 39.5391 55.6259C40.0391 55.438 40.4391 54.989 40.7491 54.2789C40.6591 54.0179 40.9091 53.9239 41.0591 53.5689C41.3091 53.4749 41.3091 53.4749 41.5591 53.3809C41.8091 53.2869 42.1491 53.4436 42.4891 53.6106L42.8291 53.7777C43.4191 53.8404 43.9991 53.9135 44.4091 53.4644C44.6591 53.3705 44.8091 53.0154 44.9691 52.6604C45.1291 52.3054 45.3691 52.2114 45.5291 51.8564C45.7791 51.7624 45.9291 51.4074 46.2691 51.564C46.2691 51.564 46.5191 51.47 46.6091 51.7311C46.8591 51.6371 46.9491 51.8981 47.1991 51.7937C47.4491 51.6997 47.7891 51.8564 48.0391 51.7624C48.5391 51.5744 49.0291 51.376 49.4391 50.927C49.6891 50.8331 49.5991 50.572 49.8391 50.478C49.9991 50.123 50.3991 49.674 50.5591 49.319C50.8091 49.225 51.0591 49.131 51.3991 49.2876L51.8291 49.7053C52.1691 49.8724 52.2591 50.123 52.5091 50.029C52.8491 50.1961 53.0991 50.0917 53.3491 49.9977C54.0891 49.7053 54.4691 48.3896 54.6891 47.4185L54.7491 46.8024C54.9091 46.4474 54.4691 46.0297 54.3791 45.7687C54.1291 45.8627 53.7891 45.706 53.6391 46.0611C53.6391 46.0611 53.4791 46.4161 53.3291 46.7711C53.1691 47.1261 53.0191 47.4812 52.8591 47.8362C52.9491 48.0972 52.6991 48.1912 52.4591 48.2852C52.2091 48.3792 51.9591 48.4732 51.8691 48.2226C51.4391 47.8049 51.0991 47.6378 50.5091 47.5751C49.6691 47.6065 49.0191 48.1495 48.3091 49.3085L48.1491 49.6636C47.5891 50.4676 47.3391 50.5616 46.4191 50.3318C45.8291 50.2692 45.2491 50.1961 45.0891 50.5511C44.8391 50.6451 44.9291 50.9062 44.7791 51.2612C44.6191 51.6162 44.4691 51.9712 44.0591 52.4202C43.6591 52.8693 42.9791 52.5455 42.6391 52.3785C42.3891 52.4725 42.2991 52.2114 42.0491 52.3158C41.4591 52.2532 40.8791 52.1801 40.6291 52.2741C40.3791 52.368 40.2291 52.7231 40.0691 53.0781C39.9091 53.4331 39.6691 53.5271 39.7591 53.7881C39.4491 54.4982 39.1091 54.3311 38.8591 54.4251C38.6091 54.5191 38.2691 54.3625 38.0191 54.4564C38.0191 54.4564 37.7691 54.5504 37.6791 54.2894C37.0891 54.2267 36.5091 54.1536 36.0091 54.3416C35.7591 54.4356 35.6091 54.7906 35.3591 54.8846C35.1991 55.2396 34.7091 55.4275 34.4591 55.5215C33.9591 55.7095 33.3791 55.6468 32.9491 55.2291C32.6991 55.3231 32.6091 55.0621 32.3591 55.1665C31.7691 55.1038 31.2791 55.2918 31.0291 55.3858C31.0291 55.3858 30.8691 55.7408 30.6291 55.8348C30.2291 56.2838 29.6691 57.0878 28.9891 56.7641C28.6491 56.5971 28.6491 56.5971 28.3991 56.7015C28.1491 56.7955 27.9991 57.1505 28.0891 57.4115C28.1591 57.6621 28.2491 57.9127 28.4991 57.8188Z" fill="#1E1E1E"/>
<path d="M50.499 39.6079C50.589 39.8689 50.439 40.224 50.029 40.673C49.869 41.028 49.289 40.9653 48.699 40.8923C47.769 40.6625 47.029 40.9445 46.629 41.4039C46.469 41.7589 46.229 41.8529 46.069 42.2079C46.069 42.2079 46.069 42.2079 45.909 42.563C45.999 42.824 45.749 42.918 45.509 43.012C45.009 43.1999 44.669 43.0433 43.839 43.0642C43.839 43.0642 43.589 43.1582 43.499 42.8971C42.909 42.8345 42.079 42.8554 41.669 43.3044C41.419 43.3983 41.269 43.7534 41.019 43.8473C41.019 43.8473 41.019 43.8473 40.859 44.2024L40.699 44.5574C40.539 44.9124 40.299 45.0064 39.959 44.8498C39.959 44.8498 39.959 44.8498 39.619 44.6827C39.619 44.6827 39.029 44.6201 38.779 44.714C38.529 44.808 38.279 44.902 37.789 45.1004C37.539 45.1944 37.389 45.5494 37.229 45.9044C37.319 46.1655 37.069 46.2595 37.069 46.2595C36.819 46.3534 36.819 46.3534 36.569 46.4474C36.319 46.5414 36.229 46.2803 35.979 46.3848C35.729 46.4787 35.389 46.3221 35.479 46.5727C35.229 46.6667 35.419 47.1888 35.259 47.5438C35.349 47.8049 35.349 47.8049 35.689 47.9615C36.859 48.0972 37.699 48.0659 38.009 47.3559L38.169 47.0008C38.079 46.7398 38.329 46.6458 38.569 46.5518C38.819 46.4579 38.819 46.4579 39.159 46.6145C39.159 46.6145 40.089 46.8442 40.329 46.7502C40.829 46.5623 41.069 46.4579 41.229 46.1133C41.479 46.0193 41.389 45.7582 41.629 45.6643C41.629 45.6643 41.879 45.5703 41.789 45.3092C41.699 45.0482 41.949 44.9542 42.189 44.8602C42.439 44.7662 42.439 44.7662 42.689 44.6723C42.939 44.5783 43.279 44.7349 43.529 44.6409C43.779 44.547 43.869 44.808 44.119 44.7036C44.959 44.6723 45.789 44.6514 46.099 43.9413C46.259 43.5863 46.409 43.2313 46.569 42.8762L46.729 42.5212C46.889 42.1662 47.129 42.0722 47.379 41.9782C47.379 41.9782 47.379 41.9782 47.719 42.1453C48.309 42.2079 48.889 42.281 49.389 42.0931C49.639 41.9991 49.889 41.9051 50.289 41.4561C50.939 40.9131 51.249 40.2031 51.229 39.3259C51.289 38.7099 51.049 38.8038 50.709 38.6472C51.059 38.8038 50.559 39.0022 50.499 39.6079Z" fill="#1E1E1E"/>
<path d="M20.5291 46.4788C21.0591 44.7976 22.2391 44.9333 23.0691 44.9125C23.4091 45.0795 23.9091 44.8811 24.1491 44.7872C24.3991 44.6932 24.8891 44.4948 25.0491 44.1502C25.0491 44.1502 25.2091 43.7952 25.4491 43.7012C25.6091 43.3462 25.7591 42.9911 26.0091 42.8972C26.2591 42.8032 26.5991 42.9598 26.9391 43.1269C27.2791 43.2939 27.5291 43.1895 27.6191 43.4506C27.8691 43.3566 28.2091 43.5132 28.3591 43.1582C28.6091 43.0642 28.7591 42.7092 28.9191 42.3542C29.3891 41.2891 29.8791 41.1011 30.6491 41.6859L31.0091 41.8425C32.0291 42.3333 32.4291 41.8843 32.6791 41.7903C32.9291 41.6963 33.0791 41.3413 33.2391 40.9863C33.3991 40.6312 33.5491 40.2762 33.4591 40.0152C33.7091 39.9212 33.8591 39.5661 33.9591 39.8272C33.9591 39.8272 34.2091 39.7332 34.2991 39.9943C34.5491 39.9003 34.6391 40.1613 34.8891 40.0569C35.4791 40.1196 36.0591 40.1927 36.5591 40.0047C36.8091 39.9107 36.9591 39.5557 37.4591 39.3677C38.1091 38.8248 39.0791 37.5717 40.6191 38.7412C40.9591 38.9083 41.4591 38.7099 41.6991 38.6159C42.0991 38.1669 42.1691 37.5508 42.2291 36.9348C42.3891 36.5797 42.2891 36.3187 42.4491 35.9636C42.6091 35.6086 42.7591 35.2536 43.2591 35.0656C43.7591 34.8777 44.0991 35.0343 44.4291 35.2014C44.8591 35.6191 45.1991 35.7861 45.6991 35.5982C45.9491 35.5042 46.0391 35.7652 46.5391 35.5669C47.2791 35.2745 48.0891 34.3765 48.3191 31.0559C48.2291 30.7948 48.1391 30.5338 48.0391 30.2832C47.6991 30.1161 47.3591 29.9595 47.1991 30.3145C47.1991 30.3145 46.9491 30.4085 46.7991 30.7635C46.7391 31.3796 46.5791 31.7346 46.5191 32.3403C46.6091 32.6013 46.4591 32.9563 46.4591 32.9563C46.4591 32.9563 46.5491 33.2174 46.2991 33.3114C46.3891 33.5724 46.2391 33.9275 45.9891 34.0214C45.4891 34.2094 45.3991 33.9588 45.0591 33.7917C44.2891 33.207 43.6991 33.1443 43.1091 33.0712C42.2691 33.1025 41.7091 33.9066 41.5591 34.2616C41.3991 34.6166 41.2491 34.9717 41.1791 35.5877C41.0191 35.9428 41.1191 36.2038 40.9591 36.5588C41.0491 36.8199 40.7991 36.9139 40.5591 37.0078C40.3091 37.1018 40.3091 37.1018 39.9691 36.9452C39.2891 36.6215 38.4591 36.6528 37.9591 36.8408C37.4591 37.0287 36.9691 37.2271 36.5591 37.6761C36.3091 37.7701 36.3991 38.0312 36.3991 38.0312C35.9991 38.4802 35.5891 38.9292 34.6691 38.6995C33.3991 38.3027 32.6591 38.595 32.0991 39.3991C31.8491 39.493 31.9391 39.7541 31.7891 40.1091C31.8791 40.3702 31.6291 40.4642 31.3891 40.5581C31.1391 40.6521 30.8891 40.7461 30.7991 40.4955C30.4591 40.3284 30.1191 40.1718 29.8691 40.2658C29.0291 40.2971 27.7991 40.7774 27.5791 41.7381C27.6691 41.9991 27.4191 42.0931 27.2691 42.4481C27.0191 42.5421 26.7691 42.6361 26.6791 42.3855C26.3391 42.2184 26.3391 42.2184 25.9991 42.0618C25.4091 41.9991 25.1591 42.0931 24.6691 42.2811C24.4191 42.3751 24.5091 42.6361 24.2691 42.7301C24.1091 43.0851 23.9591 43.4401 23.4591 43.6281C22.9591 43.816 22.3791 43.7534 22.1291 43.8474C21.8791 43.9414 21.5391 43.7847 21.5391 43.7847C20.4591 43.91 19.3991 44.902 18.9291 45.9671C18.7691 46.3221 18.8691 46.5832 18.8691 46.5832C19.5491 46.9069 19.8891 47.074 20.1391 46.98C20.1291 46.9278 20.3791 46.8338 20.5291 46.4788Z" fill="#1E1E1E"/>
<path d="M26.529 32.3925C26.369 32.7475 26.129 32.8415 25.969 33.1965C25.719 33.2905 25.469 33.3844 25.379 33.1338C25.379 33.1338 25.379 33.1338 25.129 33.2278C24.049 33.3531 23.149 33.9901 22.339 34.8985C21.939 35.3475 22.369 35.7757 22.709 35.9323C23.049 36.0994 23.299 35.9949 23.449 35.6399C23.849 35.1909 24.169 34.4809 25.249 34.3556C25.499 34.2616 25.749 34.1676 25.839 34.4182C26.089 34.3242 26.429 34.4809 26.679 34.3869C26.929 34.2929 27.079 33.9379 27.239 33.5828L27.399 33.2278C27.559 32.8728 27.799 32.7788 28.139 32.9354L28.479 33.1025C29.499 33.5933 30.239 33.3009 31.139 32.6639L31.389 32.57C31.549 32.2149 32.039 32.027 32.539 31.8286C32.789 31.7346 33.129 31.8912 33.379 31.7973C33.629 31.7033 33.969 31.8599 33.969 31.8599C34.709 31.5675 35.119 31.1185 35.489 29.8028L35.649 29.4478C35.809 29.0928 36.029 28.1217 36.609 28.1948C36.859 28.1008 37.199 28.2574 37.539 28.4245L37.879 28.5916C38.719 28.5602 39.119 28.1112 39.679 27.3072L39.839 26.9522C40.649 26.0541 41.859 24.6967 43.529 24.6445L43.779 24.5505C43.779 24.5505 44.029 24.4565 43.939 24.1955C44.099 23.8404 43.999 23.5794 43.909 23.3183C43.819 23.0573 43.569 23.1513 43.229 22.9946C42.149 23.1199 40.909 23.6003 40.099 24.4983C39.699 24.9473 39.289 25.3963 38.889 25.8453C38.729 26.2003 38.489 26.2943 38.329 26.6493C38.169 27.0044 37.929 27.0983 37.589 26.9417L37.249 26.7746C37.159 26.5136 36.819 26.357 36.319 26.5449C35.729 26.4823 35.329 26.9313 34.829 27.1192C34.669 27.4743 34.269 27.9233 34.209 28.5393C34.209 28.5393 34.299 28.8004 34.049 28.8944C33.889 29.2494 33.919 30.1161 32.839 30.2414C32.589 30.3354 32.339 30.4293 31.999 30.2727C31.749 30.3667 31.499 30.4607 31.159 30.304C30.909 30.398 30.659 30.492 30.259 30.941C30.009 31.035 29.859 31.39 29.609 31.484C29.699 31.745 29.359 31.578 28.769 31.5153C27.489 31.1394 26.999 31.3378 26.529 32.3925Z" fill="#1E1E1E"/>
<path d="M32.3891 21.8982C32.9791 21.9608 33.4691 21.7729 33.9691 21.5849C34.2191 21.491 34.6191 21.042 35.0291 20.5929C35.1891 20.2379 35.0891 19.9769 35.3391 19.8829C35.2491 19.6218 35.4991 19.5279 35.7391 19.4339C35.9791 19.3399 36.2391 19.2459 36.3291 19.4965C36.6691 19.6636 36.6691 19.6636 37.0091 19.8202C37.4391 20.2379 38.0291 20.311 38.6191 20.3737C39.1191 20.1857 39.3591 20.0813 39.6791 19.3817C40.0791 18.9327 40.4891 18.4837 40.9791 18.2853C41.2291 18.1913 41.7191 17.9929 41.5391 17.4812C41.4491 17.2202 41.3591 16.9591 41.3591 16.9591L41.0091 16.8025C40.2691 17.0949 39.7691 17.2828 39.2791 17.4708C39.0291 17.5648 38.8791 17.9198 38.6291 18.0138C38.6291 18.0138 38.3791 18.1077 38.1291 18.2017C37.8791 18.2957 37.6291 18.3897 37.5391 18.1391C37.1091 17.7214 36.7691 17.5543 36.1791 17.4917C35.5891 17.429 35.0091 17.3559 34.5991 17.8049C34.1891 18.2539 34.0391 18.609 33.9791 19.225L33.8191 19.5801C33.6591 19.9351 33.4191 20.0291 33.1691 20.1231C32.6691 20.311 32.5791 20.0604 32.3291 20.1544C32.0791 20.2484 31.4891 20.1857 31.2491 20.2797C30.7491 20.4676 30.2591 20.666 29.9491 21.3761C29.6991 21.4701 29.7891 21.7311 29.7891 21.7311C29.8791 21.9922 29.8791 21.9922 30.2191 22.1488C30.7391 22.8275 30.9891 22.7336 31.1491 22.3785C31.3091 22.0235 31.5491 21.9295 31.5491 21.9295C31.7991 21.8251 32.1391 21.9922 32.3891 21.8982Z" fill="#1E1E1E"/>
<path d="M15.7891 20.3633C13.7791 20.2589 11.3891 21.4701 10.0291 23.1826C8.74914 25.1457 8.98914 27.4117 10.2191 29.2912C11.3591 30.9097 13.5791 32.4029 15.6491 31.9017C18.0591 31.5571 19.5891 29.5001 19.5091 26.8791C19.4191 26.6181 19.4191 26.6181 19.3291 26.357C19.2391 26.096 18.9891 26.1899 18.7391 26.2944C18.4891 26.3883 18.0891 26.8373 18.1791 27.0984L18.2691 27.3594L18.3591 27.6205C18.4491 27.8815 18.1991 27.9755 18.2991 28.2366C18.3891 28.4976 18.1391 28.5916 18.1391 28.5916C18.1391 28.5916 18.1391 28.5916 17.9791 28.9466L17.8191 29.3017C17.2591 30.1057 16.8591 30.5547 16.1091 30.8471C15.6091 31.035 14.7791 31.0664 14.0991 30.7427C13.4191 30.419 12.7391 30.0953 11.8791 29.2495C11.3591 28.5707 10.8291 27.892 10.6491 27.3699C10.5591 27.1088 10.3691 26.5972 10.5291 26.2421C10.4391 25.9811 10.4991 25.365 10.6591 25.0204C10.9691 24.3104 11.2791 23.6003 12.1791 22.9634C12.8291 22.4204 13.5791 22.128 14.5691 21.7521C15.3091 21.4597 16.2391 21.6999 16.9191 22.0236C17.2591 22.1906 17.5991 22.3473 18.0291 22.7754L18.1191 23.0364C18.2091 23.2975 18.2091 23.2975 18.2091 23.2975L18.2991 23.5585C18.2991 23.5585 18.3291 24.4357 18.9091 24.4983L19.1591 24.4044L19.4091 24.3104C19.4091 24.3104 19.6591 24.2164 19.5691 23.9553C19.6991 22.7336 19.1791 22.0445 18.7391 21.6268C18.2291 20.8958 17.1191 20.144 15.7891 20.3633Z" fill="#1E1E1E"/>
</svg>
