<svg width="243" height="16" viewBox="0 0 243 16" fill="none" xmlns="http://www.w3.org/2000/svg">
<path d="M0.942458 4.53258C3.71641 6.77163 6.67694 8.82742 9.4509 11.0665C12.2189 13.1276 14.1806 14.1422 17.3885 12.0947C20.0306 10.419 23.2325 8.19348 25.273 5.82188C25.4656 5.81658 25.4715 5.99452 25.6641 5.98922C26.0732 6.69039 27.0541 7.19772 27.6498 7.71564C29.0398 8.92414 30.2372 10.1379 31.6212 11.1685C33.8054 13.0675 36.1702 14.6054 39.2095 13.275C42.2548 12.1225 44.0847 9.22234 46.5223 7.19602C46.7089 7.01277 46.8954 6.82953 47.082 6.64628C46.5163 7.01808 46.7208 7.36866 47.4911 7.34745C48.0868 7.86538 49.0557 8.01681 49.838 8.35149C51.21 9.02615 52.582 9.70082 53.954 10.3755C57.0891 11.8921 60.0437 13.77 62.9982 15.6478C63.9851 16.3331 65.7063 15.9295 66.4526 15.1965C67.7467 13.5579 69.0468 12.0972 70.341 10.4586C71.0813 9.54769 71.8217 8.63676 72.562 7.72582C72.7486 7.54258 72.9351 7.35933 73.1158 6.99814C73.3023 6.81489 73.3024 6.81489 73.3024 6.81489C75.0595 7.47895 76.648 8.86009 78.2246 9.88534C79.9937 10.9053 81.7689 12.1032 83.7306 13.1178C87.0763 15.163 90.386 16.1405 93.9611 13.5486C96.5912 11.517 99.0288 9.49063 101.659 7.45901C103.825 8.82424 105.986 10.0115 108.344 11.3715C110.505 12.5587 112.683 14.2799 115.361 13.6718C117.847 13.069 120.086 10.8701 122.156 9.3882C123.287 8.64461 124.419 7.90102 125.358 7.16273C126.489 6.41913 127.26 6.39793 128.626 6.89464C133.115 8.55213 136.695 11.8376 141.72 12.2336C146.938 12.6243 150.489 9.32054 154.449 6.71797C155.767 5.79113 155.58 5.97438 156.958 6.82699C158.138 7.50695 159.125 8.19222 160.304 8.87218C162.663 10.2321 165.022 11.592 167.736 12.0516C170.444 12.3333 172.719 11.202 175.186 10.0654C176.516 9.49446 177.846 8.92351 179.176 8.35256C180.507 7.78161 182.583 6.47767 184.31 6.25201C186.621 6.18838 189.576 8.06624 191.543 9.25882C193.71 10.6241 195.515 12.7117 198.229 13.1713C200.75 13.6362 203.224 12.6775 205.102 11.2009C207.172 9.71906 209.02 7.35276 211.74 7.99031C214.454 8.44991 216.638 10.349 218.991 11.531C221.542 12.8856 224.274 13.879 227.368 14.1501C232.976 14.7081 238.688 12.5916 241.613 7.88023C243.437 4.80216 238.34 2.27085 236.516 5.34893C233.958 9.51588 228.373 9.66965 224.071 7.82891C219.768 5.98817 216.182 2.52472 211.169 2.48464C208.852 2.37032 206.764 3.31837 204.874 4.43906C203.369 5.54914 200.769 8.47048 198.807 7.45584C196.852 6.61914 195.052 4.70947 193.085 3.51688C190.924 2.3296 188.379 1.15292 186.056 0.860655C183.541 0.573696 181.452 1.52174 179.171 2.47509C176.319 3.62229 173.484 5.30333 170.625 6.27258C168.146 7.05329 165.769 5.15953 163.807 4.14489C161.839 2.9523 159.649 0.875289 157.134 0.58833C152.675 -0.179439 149.183 4.90375 145.572 6.42804C141.39 8.14619 137.226 4.69865 133.699 3.01465C131.539 1.82736 129 0.828628 126.508 1.25345C123.824 1.68357 121.579 3.70458 119.509 5.18646C118.377 5.93005 116.698 7.57927 115.362 7.97228C115.169 7.97758 114.802 8.52202 114.802 8.52202C114.417 8.53262 113.033 7.50207 112.642 7.33473C109.886 5.62952 106.937 3.92961 104.181 2.2244C104.181 2.2244 103.989 2.2297 103.983 2.05176C102.996 1.36649 101.449 1.23096 100.33 2.33044C98.6385 3.62377 97.1399 4.9118 95.4486 6.20513C94.7023 6.93812 93.7574 7.49846 93.011 8.23145C92.4453 8.60325 91.3318 9.88067 90.5674 10.0798C89.0328 10.3002 86.2529 7.8832 85.0735 7.20323C83.3043 6.18329 81.7278 5.15804 79.9586 4.13809C77.2027 2.43288 73.839 -0.146144 70.8416 2.42991C69.343 3.71794 68.2474 5.5292 67.1399 6.98457C66.3996 7.8955 65.4726 8.98967 64.7323 9.90061C59.81 6.83016 54.7072 4.12091 49.2432 2.13404C45.9274 0.978572 44.0616 2.81104 41.8166 4.83205C40.6971 5.93153 39.5895 7.3869 38.2654 8.13579C37.134 8.87939 37.8923 8.50229 36.9114 7.99497C36.3217 7.65498 35.5215 6.78647 34.9257 6.26855C33.5358 5.06005 32.3384 3.84626 30.9544 2.8157C29.9616 1.95249 28.7641 0.738698 27.3981 0.24198C24.281 -0.740849 22.4331 1.62545 20.3687 3.28527C19.0566 4.39005 17.7445 5.49484 16.2398 6.60492C16.2398 6.60492 15.1084 7.34851 14.5426 7.72031C14.3441 7.54767 14.1455 7.37502 13.9469 7.20238C11.173 4.96334 8.21242 2.90754 5.43846 0.668494C2.08678 -1.55464 -1.8315 2.29354 0.942458 4.53258Z" fill="#F7C300"/>
</svg>
