<svg width="88" height="93" viewBox="0 0 88 93" fill="none" xmlns="http://www.w3.org/2000/svg">
<path d="M73.5938 50.9821C75.4899 45.9155 74.8104 40.4152 72.9625 35.4121C72.0087 32.8161 70.6621 30.3907 69.1697 28.0538C67.5405 25.5172 65.7906 23.0023 63.4689 21.0393L63.4546 21.0294C63.7113 19.3125 62.6603 17.7439 61.0472 17.0496C51.794 13.0935 38.9308 14.4504 32.1462 22.3673C28.7292 26.3614 28.3767 31.6113 29.247 36.591C29.6812 39.1434 30.2782 41.7662 31.0639 44.33C30.9896 44.4681 30.901 44.5963 30.8124 44.7244C30.5608 45.1188 30.2807 45.4934 30.0292 45.8878C28.4546 48.4405 28.9506 50.7199 30.2327 53.2691C32.1465 57.076 35.2562 60.8047 38.5739 63.4985C40.2779 64.8871 42.4724 65.6887 44.679 65.3411C45.7945 65.1651 46.7749 64.6644 47.835 64.3238C47.8108 64.3282 47.9316 64.3064 48.183 64.2487C48.2456 64.2499 48.3466 64.2566 48.4718 64.259C48.8663 64.3001 49.2508 64.3556 49.6452 64.3967C51.1084 64.4823 52.4145 64.1223 53.6562 63.5496C56.421 63.2511 59.1645 62.4328 61.876 61.5081C67.1485 59.7231 71.5973 56.3161 73.5938 50.9821Z" fill="#F7C300"/>
<path d="M76.4222 40.4983C77.8573 27.8723 70.1943 13.8181 56.6046 12.5257C54.7622 12.3464 54.7338 15.2314 56.5762 15.4107C67.5249 16.4557 73.8684 27.556 73.7226 37.7057C73.5879 47.1053 68.156 56.0627 58.9876 59.0481C56.94 59.7161 54.8245 60.0847 52.6619 60.0628C50.4026 60.0583 48.2869 59.1428 46.0814 59.0912C44.3623 59.0393 43.0327 60.0143 41.7604 61.0289C40.9318 61.6769 40.1201 62.4838 38.9826 62.2025C37.7637 61.8859 36.6698 60.2877 35.8733 59.4213C33.972 57.37 32.0707 55.3188 30.1694 53.2675C28.5622 51.5248 25.0871 48.7223 26.1395 45.9769C26.9008 44.0196 29.2596 43.4825 29.3343 41.0504C29.3864 38.8344 28.2249 36.6 28.0847 34.3562C27.7486 29.0932 29.4803 23.7445 33.0546 19.8593C34.9545 17.7841 37.2719 16.145 39.8421 14.9963C42.3005 13.9177 45.5871 12.8644 48.2179 13.7994C49.9769 14.4051 50.7261 11.6396 48.977 11.0196C43.9353 9.25971 37.4966 12.3643 33.6025 15.3971C29.3622 18.7166 26.443 23.581 25.5261 28.8826C25.0838 31.4184 25.0457 33.981 25.4317 36.5421C25.6108 37.7815 25.9984 38.9335 26.2839 40.1412C26.6828 41.8272 25.069 42.4795 24.165 43.6646C20.2546 48.7698 27.3764 54.4937 30.463 57.8275C32.4591 59.9864 34.4253 62.8613 36.9699 64.4101C39.08 65.7007 41.1697 65.1248 43.0165 63.7075C43.913 63.0224 44.8097 62.0007 46.0288 61.9806C47.2479 61.9605 48.6071 62.5635 49.8377 62.7408C52.3615 63.0965 54.9115 62.9863 57.3955 62.4516C68.0124 60.2152 75.211 51.0269 76.4222 40.4983Z" fill="#1E1E1E"/>
<path d="M36.3375 69.0874C36.5405 67.4176 35.0689 66.2739 33.9952 65.2579C32.4129 63.785 30.9138 62.2224 29.4684 60.6126C27.8666 58.8316 26.3382 56.975 24.8142 55.1425C23.494 53.5352 22.1255 51.9365 21.7519 49.847C21.4273 48.0229 18.6229 48.715 18.9475 50.5391C19.5958 54.2498 22.7693 57.2438 25.1273 60.0107C26.5289 61.6532 27.9546 63.2915 29.4537 64.8541C30.1509 65.5888 30.8536 66.2851 31.5803 66.977C31.9558 67.3208 32.317 67.6547 32.6924 67.9985C32.4966 67.8842 32.3106 67.7556 32.1291 67.6511C31.2413 67.1004 30.3928 66.4928 29.5981 65.838C28.0085 64.5285 26.5273 63.0624 25.0308 61.6488C23.7479 60.4461 22.2329 58.6619 20.5803 58.0245C19.0092 57.4224 17.5677 58.4674 17.7547 60.1542C17.9763 62.0966 19.139 63.9318 20.1846 65.5387C21.5126 67.5935 22.8746 69.6297 24.2267 71.6802C25.2491 73.229 27.7792 71.8631 26.7524 70.2902C25.57 68.4835 24.3734 66.6668 23.1911 64.8601C22.7201 64.1346 22.225 63.4134 21.788 62.6692C21.7505 62.6012 21.7272 62.543 21.6942 62.4991C22.3977 63.1329 23.0914 63.7809 23.7851 64.4289C25.2244 65.8029 26.6592 67.1528 28.2113 68.3942C29.6015 69.5027 31.2438 70.8277 33.0109 71.2076C34.5098 71.4861 36.1344 70.7572 36.3375 69.0874Z" fill="#1E1E1E"/>
<path d="M23.1984 72.4637C22.513 71.2532 21.5118 70.2242 20.2985 69.5326C19.1808 68.8862 17.6739 68.4968 16.5019 69.244C15.8648 69.6455 15.5102 70.4948 15.9284 71.2049C16.3189 71.8327 17.214 72.22 17.8949 71.7857C17.9289 71.7671 17.9629 71.7485 17.987 71.7442L18.0112 71.7399C18.0353 71.7355 18.0738 71.741 18.098 71.7367C18.1892 71.7577 18.2947 71.7885 18.3859 71.8095C18.3859 71.8095 18.4387 71.8249 18.4673 71.8447C18.5773 71.8997 18.6872 71.9547 18.7972 72.0097C19.0216 72.1438 19.2219 72.2823 19.4365 72.4306C19.7646 72.7206 20.073 73.0391 20.3617 73.386C20.4654 73.5419 20.5691 73.6978 20.6629 73.8679C21.0337 74.5242 21.9539 74.8447 22.6294 74.4488C23.2861 74.0188 23.6023 73.1639 23.1984 72.4637Z" fill="#1E1E1E"/>
<path d="M42.7205 38.2031C44.8568 33.8288 46.0883 29.0814 46.3386 24.2239C46.4335 22.3742 43.5437 22.3336 43.4488 24.1834C43.2301 28.5365 42.1402 32.8345 40.2178 36.7464C38.3053 40.644 35.552 44.718 31.8836 47.1491C30.351 48.1732 31.7297 50.7051 33.2865 49.6766C37.3977 46.9414 40.5644 42.6059 42.7205 38.2031Z" fill="#1E1E1E"/>
<path d="M67.3033 41.455C56.7756 42.5534 46.8749 46.8425 38.962 53.8531C37.5804 55.0869 39.5971 57.1547 40.9787 55.921C48.2813 49.4567 57.5388 45.3332 67.2607 44.3302C69.0987 44.1487 69.1512 41.2593 67.3033 41.455Z" fill="#1E1E1E"/>
<path d="M62.5717 35.7C62.0231 36.31 61.1661 36.6015 60.3745 36.7067C59.6697 36.8087 59.3415 36.5187 59.0279 35.9019C58.9109 35.6737 58.8279 35.4268 58.769 35.1756C60.3694 34.451 61.7038 32.8268 61.22 31.0189C60.9227 29.9504 59.8766 29.3534 58.8184 29.5689C57.6878 29.7975 56.7517 30.8762 56.2887 31.8822C56.1893 32.0871 56.1186 32.3118 56.0478 32.5365C55.8037 32.4309 55.5551 32.3011 55.3602 32.1242C55.1367 31.9276 54.991 31.6796 54.8552 31.4173C55.0001 31.3912 55.1549 31.3509 55.3097 31.3105C57.1829 30.7113 59.6877 28.1283 57.9688 26.1189C56.4251 24.315 53.7456 25.6827 52.667 27.2733C52.4701 27.5582 52.3161 27.8727 52.1863 28.1828C51.7947 27.9541 51.4379 27.6443 51.3818 27.2056C51.2731 26.4148 51.7764 25.2894 52.2239 24.6727C52.6956 24.0517 52.3249 23.0587 51.7089 22.6959C50.9685 22.2682 50.2028 22.5807 49.7311 23.2017C48.4136 24.985 47.9273 27.8902 49.5005 29.6514C50.1164 30.3509 50.947 30.862 51.8528 31.1726C52.2077 33.2281 53.713 35.0266 55.8405 35.4662C56.0581 36.7111 56.6335 37.8667 57.5605 38.6971C59.4674 40.3733 63.0204 39.5464 64.5884 37.7679C65.7939 36.3913 63.787 34.3092 62.5717 35.7Z" fill="#1E1E1E"/>
</svg>
