<svg width="80" height="81" viewBox="0 0 80 81" fill="none" xmlns="http://www.w3.org/2000/svg">
<path d="M76.1177 20.4123C75.7877 20.6729 75.4377 20.9936 75.0777 21.2942C75.0577 21.2541 75.0377 21.214 75.0177 21.1739C74.7677 20.7129 74.5577 20.302 74.1977 19.9112C73.8277 19.5003 73.1977 19.4301 72.6777 19.5304C71.4777 19.7809 70.2677 20.7731 69.3377 21.5548C68.8777 20.9936 68.4477 20.4123 68.0377 19.821C67.5877 19.1595 66.6477 18.8589 65.9077 19.2898C64.6577 20.0114 63.3777 20.6628 62.0677 21.2641C61.4377 20.262 60.6477 19.1896 59.5377 19.1696C58.6877 19.1495 57.8777 19.7909 57.2277 20.2319C56.9177 20.4423 56.6077 20.6628 56.2977 20.8833C56.1977 20.9635 56.0377 21.1038 55.8777 21.2541C55.1877 20.4323 54.9077 19.2598 53.6277 19.0994C52.1677 18.909 50.6677 20.8532 49.7077 21.675C48.2177 22.9478 50.4277 25.0324 51.9177 23.7596C52.2977 23.4289 52.7077 23.018 53.1277 22.6371C53.2577 22.8075 53.3877 22.9879 53.5277 23.1483C54.0377 23.7195 54.6777 24.411 55.5177 24.5213C56.9777 24.7117 57.9677 23.2786 59.1177 22.4768C59.2077 22.6271 59.2777 22.7474 59.2877 22.7574L60.1177 23.9099C60.6277 24.6215 61.4377 24.7818 62.2477 24.4411C63.5877 23.8698 64.8877 23.2284 66.1577 22.5369C66.9477 23.7095 67.9977 25.0324 69.2177 25.0324C70.5977 25.0424 71.4177 23.6193 72.5077 22.8376C72.9177 23.7195 73.1977 24.6916 74.3977 24.842C75.8177 25.0224 77.3277 23.2585 78.3177 22.4868C79.8677 21.2842 77.6477 19.2096 76.1177 20.4123Z" fill="#F7C300"/>
<path d="M78.1277 51.36C77.5477 51.1696 77.1177 50.5682 76.6677 50.2075C76.1277 49.7765 75.5577 49.4257 74.8577 49.2854C73.4177 48.9848 72.2177 49.7665 71.2077 50.6384C71.0577 50.7687 70.5677 51.3399 70.3677 51.35C70.5077 51.3399 69.8777 50.929 69.7477 50.8388C69.3977 50.5983 69.0377 50.4079 68.6177 50.3177C67.1777 50.017 66.1777 50.919 65.2877 51.831C65.2277 51.8911 65.1577 51.9513 65.0877 52.0214C64.8077 51.4802 64.1777 50.909 63.6177 50.6184C61.8177 49.6763 60.0577 50.7787 58.9077 52.0615C58.7077 51.851 58.5177 51.6406 58.4677 51.5805C58.0677 50.9892 57.7777 50.2776 57.0777 49.9168C55.1377 48.9146 53.9177 51.0794 52.9677 52.282C51.7577 53.7953 54.4677 55.2685 55.6577 53.7753C55.7377 53.675 55.8477 53.5548 55.9577 53.4345C56.2677 53.8254 56.6477 54.2062 56.9077 54.4668C58.0777 55.6594 59.5977 55.7496 60.7877 54.5269C61.1177 54.1862 61.7577 53.1739 62.1877 53.2441C62.3777 53.2742 62.8977 54.1862 63.1577 54.4167C64.2177 55.3788 65.7177 55.3487 66.8377 54.5269C67.2277 54.2363 67.7277 53.8254 67.9877 53.4245C67.9277 53.5147 67.9977 53.4345 68.0777 53.3443C68.0877 53.3443 68.0877 53.3543 68.0977 53.3543C68.2777 53.4946 68.4577 53.635 68.6477 53.7652C69.7777 54.4868 71.0377 54.4367 72.1577 53.7452C72.6577 53.4345 73.6677 52.1116 74.2777 52.1918C74.6577 52.2419 75.2077 52.9735 75.4777 53.194C76.0377 53.655 76.6077 53.9857 77.3077 54.2162C79.2077 54.8175 80.0277 51.9713 78.1277 51.36Z" fill="#F7C300"/>
<path d="M78.6377 78.0584C77.7077 77.2466 76.7677 76.4348 75.8377 75.6231C75.2577 75.122 74.1977 74.9917 73.6277 75.6231C73.2877 76.0039 72.9477 76.3747 72.5777 76.7255C72.4077 76.8858 71.6277 77.4571 71.9177 77.447C71.6677 77.4571 70.9377 76.7054 70.7677 76.5651C70.3877 76.2745 70.0077 75.9738 69.6177 75.6832C68.1577 74.6108 66.7777 74.9315 65.7677 76.3346C65.6077 76.5651 65.4177 77.0061 65.1177 77.1163C65.0677 77.3769 64.9477 77.3268 64.7477 76.976C64.6277 76.8658 64.5177 76.7455 64.3977 76.6252C63.7977 76.044 63.1777 75.1821 62.2777 74.9917C61.5077 74.8313 60.7477 75.162 60.2977 75.7533C60.1477 75.9538 59.9677 76.5451 59.7177 76.9159C58.7077 75.7533 57.5377 74.3803 55.8577 74.4705C54.2577 74.5607 53.8177 75.9037 53.0877 76.9359C52.5177 76.2645 51.8577 75.6631 51.0977 75.1921C49.9777 74.5106 48.2777 74.5106 47.6777 75.8335C47.0377 77.2466 48.7277 78.5094 49.7877 77.9682C49.8177 77.9882 49.8377 77.9982 49.8777 78.0183C50.0877 78.1987 50.2977 78.3891 50.4877 78.5795C50.8877 78.9904 51.1977 79.4414 51.4877 79.9225C51.9177 80.644 52.8777 80.8144 53.6177 80.4536C54.6777 79.9325 55.2577 79.0405 55.8577 78.1085C55.9177 78.0183 56.0677 77.8379 56.1977 77.6675C56.2077 77.6775 56.2177 77.6876 56.2277 77.6976C56.7277 78.1987 57.2477 78.5495 57.6677 79.1307C58.4677 80.2331 59.4877 80.4236 60.7477 79.8022C61.2877 79.5316 61.7577 79.1608 62.1377 78.7098C62.1477 78.6998 62.1477 78.6898 62.1577 78.6898C62.3777 78.9102 62.5977 79.1407 62.8377 79.3412C63.4677 79.8623 64.2177 80.2231 65.0777 80.183C65.8577 80.1429 66.5577 79.7922 67.1577 79.3312C67.4677 79.0906 67.7277 78.8301 67.9677 78.5294C67.9977 78.4893 68.0577 78.4192 68.1277 78.329C68.1477 78.339 68.1577 78.349 68.1777 78.349C68.3077 78.4492 68.4377 78.5394 68.5577 78.6397C68.9377 78.9303 69.3277 79.2209 69.7077 79.5216C70.3577 80.0127 71.0377 80.5839 71.9377 80.5639C73.0377 80.5438 74.0477 79.6619 74.8677 78.7699C75.3877 79.2209 75.9077 79.6719 76.4277 80.1329C77.9077 81.4358 80.1177 79.3512 78.6377 78.0584Z" fill="#F7C300"/>
<path d="M22.3477 39.7245C20.8377 35.6656 16.5977 31.6368 11.8377 31.9575C11.0277 31.7671 10.1877 31.7771 9.37775 32.0678C4.16775 33.8717 1.89775 39.935 2.99775 44.8357C4.17775 50.1172 10.0077 52.4824 15.2277 51.8009C21.3377 51.0092 24.3177 45.0061 22.3477 39.7245Z" fill="#F7C300"/>
<path d="M23.4477 8.20554C21.4977 4.69786 17.7977 2.97409 14.3777 3.37497C13.4277 2.94403 12.2877 2.7937 10.9877 3.07431C5.0577 4.3471 1.4377 12.2544 2.7877 17.5159C4.4877 24.1504 13.2377 26.5557 19.2377 23.5792C25.3377 20.5726 26.4577 13.6374 23.4477 8.20554Z" fill="#F7C300"/>
<path d="M25.8777 68.9785C25.2877 65.6412 23.3777 61.9331 20.2777 60.079C19.2877 59.4877 18.1977 59.1269 17.0677 58.9465C15.6377 58.0045 13.7377 57.7439 11.7777 58.8463C10.6877 59.4577 9.66774 60.2694 8.75774 61.2115C8.68774 61.2616 8.61774 61.3117 8.55774 61.3718C7.27774 62.4743 6.36774 63.8773 5.92774 65.3606C3.67774 70.1611 3.91774 75.9638 8.84774 79.0305C16.5877 83.841 27.4577 77.8379 25.8777 68.9785Z" fill="#F7C300"/>
<path d="M22.5777 36.5776C23.0477 35.876 23.5177 35.1545 23.9477 34.4329C24.9277 32.7692 22.2377 31.286 21.2577 32.9396C21.0077 33.3605 20.7477 33.7815 20.4777 34.2024C18.8977 32.8594 16.9477 31.9174 14.8577 31.5967C12.8977 31.286 12.0477 34.1322 14.0277 34.4429C15.8077 34.7235 17.4877 35.5253 18.7577 36.7179C18.2277 37.4395 17.6677 38.151 17.0877 38.8425C16.2977 39.7645 15.4777 40.6565 14.6077 41.5184C14.1877 41.9293 13.7677 42.3402 13.3277 42.7411C13.1077 42.9415 12.8577 43.2021 12.6077 43.4326C12.4077 43.2622 12.2077 43.0818 12.0077 42.9014C11.6277 42.5707 11.2577 42.2299 10.8877 41.8892C10.1177 41.1776 9.35772 40.4561 8.60772 39.7144C7.21772 38.3414 5.01772 40.426 6.39772 41.799C7.89772 43.2822 9.43772 44.9058 11.1677 46.1385C12.2977 46.9503 13.4077 46.6496 14.3977 45.8178C15.1677 45.1664 15.9077 44.4748 16.6277 43.7633C18.0377 42.3803 19.3477 40.907 20.5677 39.3536C20.5977 39.4438 20.6477 39.514 20.6777 39.6042C21.5977 42.3302 20.4477 45.4069 17.9977 47.0805C15.0777 49.0749 11.2377 48.1629 8.36772 46.5394C5.69772 45.0361 2.34772 41.8291 3.19772 38.592C4.09772 35.1344 7.45772 32.5488 11.0677 31.9074C13.0377 31.5566 12.2077 28.7104 10.2377 29.0611C5.89772 29.8328 2.19772 32.8394 0.577719 36.6978C-1.31228 41.1676 1.73772 45.6274 5.47772 48.2531C9.11772 50.8087 14.3477 52.2519 18.5877 50.1974C22.3377 48.3834 24.6177 44.2343 24.0377 40.2957C23.8277 38.9828 23.3177 37.71 22.5777 36.5776Z" fill="#1E1E1E"/>
<path d="M22.5678 62.7549C22.9878 62.1837 23.4078 61.6224 23.8478 61.0712C24.0778 60.7906 24.0978 60.2595 24.0078 59.9388C23.9078 59.598 23.6278 59.2272 23.2878 59.0568C22.9278 58.8764 22.4878 58.7862 22.0878 58.9065L21.7178 59.0568C21.4878 59.1871 21.2978 59.3675 21.1578 59.588C20.9478 59.8586 20.7378 60.1392 20.5278 60.4098C17.2978 57.5435 12.7078 56.371 8.27776 56.9422C7.43776 57.0524 6.99776 58.0647 7.18776 58.7562C7.18776 58.7562 7.18776 58.7662 7.19776 58.7662C7.18776 58.7662 7.17776 58.7662 7.17776 58.7762C2.16776 60.4098 -0.472242 66.2125 0.0777585 70.9529C0.617759 75.603 4.35776 79.6419 9.36776 80.2432C12.1278 80.5739 15.0678 79.6018 17.5678 78.5795C19.7478 77.6876 21.5878 76.2745 22.7678 74.3102C24.8678 70.7825 24.8278 66.1724 22.5678 62.7549ZM20.7578 71.3136C19.5178 75.0318 15.6178 76.4749 11.8878 77.1965C8.33776 77.888 4.72776 75.6531 3.58776 72.4461C2.85776 70.3816 3.01776 68.1567 3.81776 66.1323C4.54776 64.2883 5.94776 62.2638 7.99776 61.6024C8.91776 61.3017 9.18776 60.4699 9.01776 59.7684C9.04776 59.7684 9.07776 59.7684 9.10776 59.7684C12.4978 59.3274 16.1778 60.4298 18.6078 62.7249C17.5878 63.8974 16.5678 65.07 15.5478 66.2426C14.9478 66.9341 14.3478 67.6256 13.7478 68.3071C13.4478 68.6478 13.1478 68.9986 12.8478 69.3393C12.7178 69.4897 12.5878 69.64 12.4578 69.7903C12.2878 69.7001 12.1078 69.6199 11.9378 69.5297C11.4978 69.2892 11.0578 69.0286 10.6478 68.748C9.85776 68.2169 9.15776 67.5955 8.50776 66.924C7.93776 66.3428 6.87776 66.3728 6.29776 66.924C5.67776 67.5053 5.72776 68.4273 6.29776 69.0086C7.37776 70.111 8.62776 71.0831 9.98776 71.8649C10.6478 72.2457 11.3678 72.6365 12.1078 72.8771C13.2278 73.2379 13.9678 72.6766 14.6378 71.9049C16.5678 69.6901 18.4978 67.4652 20.4178 65.2504C21.3078 67.1345 21.4278 69.2892 20.7578 71.3136Z" fill="#1E1E1E"/>
<path d="M23.8178 3.27477C23.1178 3.97631 22.4078 4.66782 21.6978 5.36935C21.6778 5.34931 21.6678 5.32926 21.6478 5.30922C18.0878 1.69131 12.3678 -0.804151 7.31777 1.37061C2.79777 3.30484 0.257772 7.93496 0.137772 12.4949C0.0677717 15.1908 0.817772 18.0872 2.52777 20.2719C3.87777 22.0158 6.01777 23.2384 8.27777 23.2184C8.45777 23.499 8.76777 23.7095 9.22777 23.7796C14.1478 24.5112 18.6878 21.9857 21.5578 18.3177C23.9878 15.2109 24.9578 11.3023 23.4378 7.91492C24.2978 7.06306 25.1678 6.22122 26.0278 5.35933C27.3978 3.97631 25.1978 1.89175 23.8178 3.27477ZM21.1378 11.1119C21.1778 12.7756 20.5178 14.369 19.6178 15.7721C17.8678 18.488 14.6078 20.9835 11.1078 20.9935C10.8978 20.302 10.2378 19.7709 9.30777 20.0815C5.21777 21.4445 3.32777 15.9625 3.25777 13.0762C3.17777 9.71887 4.70777 6.22122 7.83777 4.43731C11.4878 2.36278 15.4378 4.0665 18.4078 6.46174C18.8078 6.79247 19.1878 7.13321 19.5278 7.50402C18.2178 8.77681 16.9078 10.0396 15.5778 11.2923C14.9178 11.9137 14.2578 12.535 13.5978 13.1464C13.2478 13.4771 12.8978 13.7978 12.5378 14.1285C12.5078 14.1486 12.4778 14.1786 12.4478 14.1987C11.1178 13.3468 10.0478 12.1943 9.23777 10.8914C8.21777 9.25786 5.52777 10.7411 6.54777 12.3847C7.59777 14.0784 8.99777 15.5115 10.6978 16.634C11.5778 17.2153 12.6078 17.6763 13.6478 17.115C14.5978 16.6039 15.3878 15.6218 16.1578 14.9002C17.7978 13.3668 19.4278 11.8235 21.0378 10.2601C21.0878 10.5407 21.1278 10.8213 21.1378 11.1119Z" fill="#1E1E1E"/>
<path d="M47.5777 7.82469C42.1277 7.90487 36.6877 7.91489 31.2377 7.84473C29.2277 7.81467 29.2277 10.7711 31.2377 10.7912C36.6877 10.8613 42.1277 10.8513 47.5777 10.7711C49.5777 10.7511 49.5877 7.79462 47.5777 7.82469Z" fill="#59C69F"/>
<path d="M78.4877 13.5874C62.6877 13.5573 46.8877 13.7477 31.0977 14.1586C29.0977 14.2087 29.0877 17.1652 31.0977 17.1051C46.8877 16.6942 62.6877 16.5037 78.4877 16.5338C80.4977 16.5438 80.4977 13.5974 78.4877 13.5874Z" fill="#1E1E1E"/>
<path d="M47.9178 35.4051C42.6278 35.4752 37.3378 35.5354 32.0478 35.6055C30.0378 35.6356 30.0378 38.582 32.0478 38.552C37.3378 38.4818 42.6278 38.4217 47.9178 38.3515C49.9178 38.3315 49.9278 35.375 47.9178 35.4051Z" fill="#59C69F"/>
<path d="M75.9877 43.182C68.5377 43.7332 61.0577 43.9236 53.5877 43.7232C49.8577 43.623 46.1177 43.4326 42.3977 43.1419C38.6777 42.8613 34.9577 42.5106 31.2277 42.8212C29.2477 42.9916 29.2277 45.9381 31.2277 45.7677C34.9577 45.447 38.6777 45.7977 42.3977 46.0884C46.1177 46.379 49.8577 46.5694 53.5877 46.6697C61.0577 46.8701 68.5377 46.6797 75.9877 46.1285C77.9777 45.9781 77.9977 43.0317 75.9877 43.182Z" fill="#1E1E1E"/>
<path d="M46.2877 62.815C41.6177 62.5143 36.9277 62.2738 32.3077 63.1557C31.4777 63.3161 31.0077 64.2381 31.2177 64.9697C31.4577 65.7815 32.3077 66.1523 33.1377 66.002C37.4677 65.1802 41.9177 65.4908 46.2877 65.7714C47.1277 65.8216 47.8477 65.0499 47.8477 64.2982C47.8477 63.4464 47.1277 62.8651 46.2877 62.815Z" fill="#59C69F"/>
<path d="M77.8776 69.9807C62.9276 69.2791 47.9476 69.2491 32.9976 69.9005C30.9976 69.9907 30.9876 72.9371 32.9976 72.8469C47.9476 72.1955 62.9276 72.2156 77.8776 72.9271C79.8876 73.0273 79.8776 70.0709 77.8776 69.9807Z" fill="#1E1E1E"/>
</svg>
