<svg width="81" height="81" viewBox="0 0 81 81" fill="none" xmlns="http://www.w3.org/2000/svg">
<path d="M70.1627 18.5343C69.7227 14.5158 65.6428 12.0306 61.8529 12.1709C60.0329 12.241 58.9629 13.4435 58.6129 14.8465C56.6629 16.8808 55.7429 20.3381 56.3929 22.8834C57.3929 26.8117 61.9329 28.1345 65.4328 27.0321C69.2027 25.8396 70.5727 22.2621 70.1627 18.5343Z" fill="#59C59F"/>
<path d="M20.3335 14.1348C19.4635 13.9144 18.5035 14.0246 17.6335 14.4555C14.8036 15.8585 12.9736 18.7946 12.7736 21.9513C12.5136 25.8495 15.7135 29.2767 19.6435 28.5351C22.8934 27.9138 25.2134 25.4988 25.9834 22.2619C26.8934 18.4239 24.5634 14.0647 20.3335 14.1348Z" fill="#F7C300"/>
<path d="M6.8037 55.3217C6.27371 59.6608 5.61372 64.3607 3.78374 68.3491C2.16377 71.8665 7.33369 74.9631 8.96367 71.4156C11.2836 66.3549 12.1336 60.8133 12.8036 55.3217C13.2636 51.4435 7.26369 51.4836 6.8037 55.3217Z" fill="#F7C300"/>
<path d="M60.0529 61.9759C58.7129 58.4084 58.4529 54.861 59.4329 51.1632C60.4329 47.3852 54.6529 45.7718 53.653 49.5498C52.423 54.2096 52.583 59.0698 54.2729 63.5893C55.6329 67.207 61.4328 65.6336 60.0529 61.9759Z" fill="#59C59F"/>
<path d="M40.3732 24.9176C40.0633 23.2841 38.9033 21.8711 37.1333 22.1117C35.3933 22.3421 33.8633 24.0557 32.5634 25.148C29.6034 27.6333 26.6734 29.858 22.9235 30.9402C20.8235 31.5415 18.6836 31.8421 16.5136 32.0025C15.0036 32.1127 13.5036 32.2831 12.2637 33.0948C11.7437 33.1048 11.2237 33.3453 11.0037 33.8263C8.5137 39.2377 3.29378 42.7852 1.14381 48.407C0.553818 49.9402 0.193823 51.714 1.09381 53.1971C2.0738 54.8205 4.03377 55.0811 5.57375 54.129C6.96373 53.2672 8.10371 51.8242 9.0737 50.5315C9.0737 50.5315 9.0737 50.5215 9.0837 50.5215C8.8137 53.2672 8.34371 55.993 7.78372 58.6987C6.90373 62.9075 5.65375 67.0663 4.96376 71.3052C4.68376 73.0388 4.72376 74.8326 5.84374 76.2757C6.88373 77.6085 8.5637 78.1897 10.1537 77.5584C11.8637 76.8669 12.6936 75.2134 13.2636 73.5499C13.9236 71.6058 14.4436 69.6116 14.6936 67.5774C14.9936 65.1523 15.0636 62.8775 15.7636 60.5125C16.0936 59.4001 16.4336 58.2778 16.8536 57.1955C16.8736 58.0874 16.8736 58.9893 16.8736 59.8812C16.8736 62.196 16.8436 64.5109 16.8836 66.8258C16.9236 69.2008 17.0436 71.5758 17.3536 73.9408C17.5836 75.6844 18.5536 77.5784 20.5935 77.3579C22.3935 77.1575 23.1535 75.1433 23.7635 73.6902C24.5335 71.8363 25.0835 69.9022 25.4335 67.9181C26.1635 63.7593 26.1435 59.5404 25.9935 55.3416C25.8135 50.1908 25.5035 44.9798 26.5334 39.8891C26.5834 39.6285 26.5734 39.398 26.5234 39.1876C27.5934 38.0853 29.4334 37.4239 30.6734 36.6723C32.3234 35.6702 33.9333 34.608 35.5033 33.4856C38.2333 31.4814 41.0832 28.6855 40.3732 24.9176ZM37.3333 27.012C36.7733 28.926 34.9533 30.1586 33.4233 31.2409C31.6534 32.4935 29.8234 33.666 27.9534 34.7583C26.3335 35.7003 24.7435 36.4719 23.5935 38.0252C23.1835 38.5763 23.2535 39.1275 23.5535 39.5383C22.0835 47.3748 23.4635 55.2915 22.9735 63.1781C22.7535 66.7757 22.1435 70.6238 20.4035 73.8205C20.3435 73.57 20.2735 73.3194 20.2635 73.2393C20.1235 72.0969 20.0435 70.9344 19.9835 69.792C19.8735 67.7277 19.8535 65.6633 19.8635 63.599C19.8635 61.2039 19.9335 58.7989 19.8435 56.4139C19.7835 54.7604 19.4135 53.0468 17.8636 52.195C17.0936 51.7741 16.3036 52.0547 15.8136 52.7361C14.5536 54.4798 13.8736 56.5241 13.2336 58.5684C12.5736 60.6828 12.0537 62.7672 11.9037 64.9919C11.7437 67.4571 11.3337 69.7419 10.5837 72.0969C10.3337 72.8885 10.0637 74.1311 9.30369 74.6222C8.46371 75.1633 7.93371 74.2414 7.82371 73.4798C7.66372 72.3674 8.02371 71.195 8.26371 70.1127C8.50371 69.0104 8.7637 67.9181 9.0137 66.8258C9.54369 64.551 10.0837 62.2862 10.5737 60.0014C11.5537 55.4117 12.2937 50.7519 12.3336 46.042C12.3436 45.3205 11.9337 44.8696 11.4237 44.6792C11.3137 44.5188 11.1637 44.3685 10.9637 44.2583C10.3337 43.8875 9.23369 44.0478 8.9137 44.7994C7.89371 47.2045 6.43373 49.4692 4.48376 51.2029C4.28376 51.3833 3.89377 51.8142 3.65377 51.6338C3.29378 51.3833 3.68377 50.301 3.77377 50.0204C4.11377 48.9281 4.63376 47.916 5.23375 46.9539C7.58372 43.166 11.0537 40.2097 13.1536 36.2614C13.2936 36.1913 13.4336 36.0911 13.5536 35.9608C14.7436 34.7182 17.1836 35.0489 18.7436 34.8585C20.7935 34.608 22.8235 34.2372 24.7835 33.5658C28.6634 32.253 31.7434 29.7978 34.8533 27.1823C35.5933 26.561 36.3333 25.9297 37.1133 25.3485C37.2133 25.2984 37.2833 25.2583 37.3533 25.2282C37.4333 25.4487 37.4733 25.6892 37.4833 25.9197C37.5033 26.2704 37.4333 26.6412 37.3333 27.012Z" fill="#1E1E1E"/>
<path d="M25.6333 20.9592C24.5633 17.6823 21.8434 14.8864 18.3634 14.5557C18.2934 14.4255 18.2134 14.2952 18.1134 14.195C17.5034 13.5737 16.6134 13.6538 15.9934 14.195C14.8335 15.2071 13.4535 15.9186 12.3835 17.041C11.2935 18.1734 10.4335 19.5563 9.99353 21.0795C9.05355 24.3263 10.2035 27.8136 13.0335 29.6375C15.6635 31.3411 19.0834 31.1707 21.7034 29.5373C24.4833 27.8036 26.7433 24.3564 25.6333 20.9592ZM22.5734 24.2862C22.1134 25.2683 21.3434 26.1401 20.4634 26.7414C18.7734 27.9038 16.6334 28.2345 14.8035 27.1823C12.9335 26.1 12.2835 23.9355 12.8735 21.8912C13.2035 20.7588 13.8935 19.7767 14.7235 18.965C15.4835 18.2335 16.3734 17.6723 17.2134 17.051C17.4934 17.3616 17.9034 17.5621 18.3534 17.6022C20.2734 17.7825 21.7334 19.5663 22.5134 21.2298C23.0033 22.2419 23.0633 23.254 22.5734 24.2862Z" fill="#1E1E1E"/>
<path d="M75.2426 53.8283C74.2526 54.0888 72.0427 55.9227 71.0827 54.7803C70.6727 54.2993 70.7327 53.3673 70.7327 52.7861C70.7227 51.6738 70.7327 50.5614 70.7327 49.4491C70.7327 47.7756 70.7327 46.112 70.7327 44.4385C71.4027 45.5108 72.0427 46.6031 72.8226 47.5651C73.7526 48.7075 75.1426 49.4691 76.6026 48.958C78.1426 48.4269 78.5526 46.7233 78.5126 45.2502C78.4326 41.813 76.6026 38.6263 74.6426 35.9206C72.8326 33.4253 70.4627 31.2307 67.6727 29.9079C66.0127 29.1163 64.3328 28.9159 62.5128 28.8658C60.6928 28.8156 58.8728 28.7655 57.0429 28.7154C56.9729 28.6553 56.8829 28.5952 56.7929 28.5451C55.9529 28.1242 55.1629 27.6031 54.4029 27.0419C54.3029 26.9718 54.2029 26.8916 54.1029 26.8214C54.0929 26.8114 54.0129 26.7513 53.9629 26.7212C53.9129 26.6812 53.7729 26.5709 53.7529 26.5609C53.6529 26.4807 53.5629 26.4006 53.4629 26.3304C53.0929 26.0298 52.7329 25.7291 52.3629 25.4285C50.853 24.1859 49.303 22.9333 47.523 22.1015C47.413 22.0514 47.293 22.0113 47.183 21.9813C47.123 21.9612 47.063 21.9312 47.003 21.9211C45.033 21.5103 42.2231 21.7608 41.9631 24.2861C41.7531 26.3605 43.3131 27.8236 44.733 29.0461C46.163 30.2787 47.713 31.351 49.223 32.4733C50.733 33.6057 51.9329 35.1289 53.1829 36.5219C53.2129 36.5519 53.2429 36.572 53.2729 36.602C53.3729 36.7223 53.4929 36.8325 53.6429 36.9227C54.9529 37.7344 55.9729 38.967 56.4629 40.4501C57.0829 42.274 56.7029 43.9475 56.2029 45.7513C55.1229 49.6094 54.2429 53.6379 54.5629 57.6764C54.8329 61.2239 55.9629 64.7012 58.2228 67.467C59.2028 68.6695 60.6728 69.822 62.3128 69.5213C64.0328 69.2107 64.6028 67.5672 64.5828 65.9839C64.5528 63.8394 63.9228 61.765 63.9028 59.6105C64.0928 59.9512 64.2928 60.2919 64.5028 60.6226C65.4127 62.0155 66.5527 63.3283 68.1927 63.8193C69.7827 64.2903 71.8427 64.13 73.4426 63.7592C76.5326 63.0477 78.7826 60.0313 78.4426 56.7945C78.2626 55.1611 77.1326 53.3272 75.2426 53.8283ZM75.3526 58.3077C75.1626 59.0292 74.7326 59.7207 74.1426 60.1716C73.4626 60.7028 72.5726 60.8831 71.7327 60.9533C70.8427 61.0234 69.6827 61.1738 68.8327 60.833C67.2727 60.2017 66.5127 58.3879 65.9027 56.9348C65.4227 55.7924 65.0627 54.5899 64.8427 53.3673C64.6428 52.2349 64.7228 51.1026 64.5628 49.9802C64.3828 48.7175 62.6728 48.3568 61.8928 49.3088C61.6828 49.5693 61.5828 49.9 61.5728 50.2407C61.5528 51.3831 61.6528 52.5256 61.8328 53.6579C61.3328 55.2112 61.0328 56.8246 60.9228 58.4681C60.7728 60.7428 61.2828 62.8573 61.5128 65.092C61.5328 65.2724 61.6828 66.2544 61.5928 66.5851C61.5928 66.3847 60.9928 66.064 60.8428 65.9238C60.1828 65.2824 59.6728 64.4506 59.2328 63.6389C58.2428 61.8251 57.7029 59.7407 57.5429 57.6764C57.3629 55.3315 57.5929 52.9865 58.0628 50.6817C58.5228 48.4169 59.3628 46.2123 59.6928 43.9174C60.2328 40.1695 58.4628 36.4818 55.3429 34.4475C55.3229 34.4275 55.3129 34.3974 55.2829 34.3774C54.2629 33.2349 53.2729 32.0124 52.1329 30.9902C50.9629 29.948 49.643 29.1163 48.393 28.1743C47.333 27.3726 46.163 26.5108 45.313 25.4786C45.183 25.3183 45.053 25.1479 44.983 24.9575C44.983 24.9575 44.963 24.8974 44.943 24.8373C45.013 24.8272 45.093 24.8072 45.163 24.7972C45.503 24.7571 45.843 24.7771 46.173 24.8473C46.193 24.8473 46.203 24.8473 46.223 24.8473C46.983 25.2181 47.713 25.659 48.403 26.15C48.583 26.2803 48.763 26.4106 48.943 26.5509C49.033 26.611 49.113 26.6812 49.193 26.7413C49.223 26.7613 49.303 26.8315 49.343 26.8615C49.713 27.1622 50.083 27.4628 50.443 27.7634C51.8429 28.9159 53.2629 30.0783 54.8529 30.9501C55.0729 31.381 55.4929 31.7117 56.1129 31.7318C58.0328 31.7819 59.9428 31.842 61.8628 31.8921C63.4628 31.9322 64.9727 31.9422 66.4327 32.6838C69.3127 34.1368 71.5327 36.4818 73.1926 39.2376C74.0426 40.6405 74.9226 42.0836 75.2926 43.707C75.4526 44.4185 75.5726 45.2502 75.4426 45.9918L75.4026 45.9718C75.1926 45.631 74.8426 45.3304 74.6026 44.9997C72.7226 42.3441 71.3727 39.3879 68.5527 37.5841C66.9127 36.5419 65.4127 39.1674 67.0427 40.2096C67.4627 40.4802 67.8427 40.8009 68.1927 41.1316C67.9027 41.3721 67.7027 41.7429 67.7027 42.2439C67.7027 44.3784 67.7027 46.5129 67.7027 48.6374C67.7027 50.6015 67.5127 52.6759 67.8527 54.62C68.1527 56.3135 69.2927 57.7065 71.0027 58.0271C71.8827 58.1875 72.7826 58.1073 73.6326 57.8167C74.0726 57.6664 74.5026 57.476 74.9226 57.2655C75.0726 57.1954 75.2626 57.0751 75.4626 56.9749C75.5526 57.4259 75.4226 58.0572 75.3526 58.3077Z" fill="#1E1E1E"/>
<path d="M67.9327 18.4143C67.2128 15.2477 64.4628 12.8326 61.3828 12.1612C60.7828 12.0309 60.1729 12.2313 59.8029 12.6923C59.4129 12.4718 58.9229 12.4317 58.4129 12.7324C57.1329 13.484 55.7329 14.2055 54.7329 15.3379C53.6829 16.5304 53.153 18.0135 53.063 19.5968C52.973 21.2303 53.4729 22.8637 54.1929 24.3067C54.8929 25.7097 55.8429 27.0124 57.3229 27.6137C59.8129 28.6359 63.0928 27.9444 65.1928 26.331C67.6028 24.4771 68.6027 21.3906 67.9327 18.4143ZM63.9828 23.3848C62.7628 24.6675 60.8728 25.2287 59.1329 24.9782C58.1529 24.8379 57.6529 24.2967 57.1629 23.465C56.6129 22.543 56.1629 21.5008 56.0629 20.4186C55.9729 19.3864 56.1729 18.2941 56.8529 17.4924C57.6529 16.5404 58.8829 15.9792 59.9329 15.3579C60.1029 15.2577 60.2329 15.1374 60.3429 15.0072C60.4229 15.0472 60.5029 15.0773 60.5928 15.0974C62.3628 15.4782 63.9728 16.5504 64.7428 18.264C65.4828 19.9275 65.2328 22.062 63.9828 23.3848Z" fill="#1E1E1E"/>
<path d="M50.4932 11.6597C50.2032 11.3991 49.8332 11.1987 49.4332 11.2187C49.0132 11.2388 48.7032 11.3991 48.3732 11.6597C46.3432 13.263 44.8533 15.4176 43.8733 17.8126C43.7333 18.1533 43.8533 18.6844 44.0233 18.9851C44.2033 19.2957 44.5633 19.5964 44.9233 19.6866C45.3032 19.7767 45.7332 19.7567 46.0732 19.5362C46.4232 19.3057 46.6032 19.0151 46.7632 18.6243C46.7132 18.7345 46.6332 18.9149 46.7332 18.6945C46.7632 18.6243 46.7932 18.5542 46.8232 18.494C46.8832 18.3738 46.9332 18.2535 46.9932 18.1333C47.1132 17.8828 47.2532 17.6322 47.3932 17.3817C47.6632 16.9007 47.9832 16.4598 48.2932 16.0088C48.3232 15.9687 48.3532 15.9286 48.3832 15.8986C48.4632 15.7984 48.5532 15.6881 48.6432 15.5879C48.8232 15.3775 49.0132 15.167 49.2132 14.9666C49.6132 14.5558 50.0432 14.1649 50.5032 13.8142C50.7832 13.5937 50.9432 13.0827 50.9432 12.7419C50.9332 12.3611 50.7732 11.9202 50.4932 11.6597Z" fill="#F7C300"/>
<path d="M41.7432 19.3062C40.3033 16.4502 38.0133 14.0351 35.2733 12.4417C34.5933 12.0409 33.6033 12.2613 33.2234 12.9829C32.8434 13.7044 33.0334 14.6363 33.7633 15.0572C34.0833 15.2376 34.3833 15.438 34.6933 15.6385C34.8333 15.7286 34.9633 15.8289 35.1033 15.9291C35.1733 15.9792 35.2433 16.0393 35.3233 16.0894C35.8733 16.5404 36.4033 17.0214 36.8933 17.5425C37.1333 17.793 37.3633 18.0636 37.5833 18.3341C37.6333 18.3943 37.6933 18.4644 37.7433 18.5245C37.7733 18.5646 37.8033 18.6047 37.8333 18.6448C37.9033 18.735 37.8733 18.6949 37.7533 18.5346C37.8633 18.6147 37.9733 18.8252 38.0433 18.9354C38.4633 19.5367 38.8433 20.168 39.1733 20.8294C39.5333 21.5409 40.5732 21.8014 41.2232 21.3705C41.9232 20.9196 42.1232 20.0678 41.7432 19.3062Z" fill="#1E1E1E"/>
<path d="M45.4231 35.6306C45.2631 35.4802 45.1031 35.3199 44.9531 35.1596C44.9431 35.1495 44.8931 35.0894 44.8331 35.0393C44.8231 35.0293 44.8331 35.0293 44.8131 35.0093C44.7731 34.9591 44.7331 34.899 44.7031 34.8489C44.4831 34.5282 44.3031 34.1875 44.1431 33.8468C43.9931 33.446 43.8831 33.0351 43.8031 32.6142C43.7731 32.3136 43.7431 32.0029 43.7531 31.7023C43.7831 30.9106 43.0431 30.149 42.2531 30.1791C41.4232 30.2192 40.7832 30.8505 40.7532 31.7023C40.6732 33.9671 41.6332 36.2719 43.2931 37.7951C43.8731 38.3262 44.8431 38.4164 45.4131 37.7951C45.9531 37.2039 46.0431 36.2018 45.4231 35.6306Z" fill="#1E1E1E"/>
<path d="M39.4832 35.1794C39.4332 34.9789 39.3432 34.8086 39.2132 34.6583C39.1032 34.4979 38.9632 34.3677 38.7932 34.2675C38.4432 34.0771 38.0232 33.9869 37.6432 34.1171C37.5232 34.1672 37.4032 34.2173 37.2832 34.2675C37.0532 34.3977 36.8832 34.5881 36.7432 34.8086C36.4432 35.4299 36.1932 36.0813 36.0032 36.7527C35.9432 36.9531 35.9332 37.1535 35.9732 37.3539C35.9832 37.5544 36.0432 37.7448 36.1532 37.9151C36.2432 38.0955 36.3732 38.2358 36.5432 38.346C36.6832 38.4763 36.8532 38.5665 37.0532 38.6166C37.1832 38.6366 37.3232 38.6567 37.4532 38.6667C37.7232 38.6667 37.9732 38.5966 38.2132 38.4563C38.5432 38.2458 38.7932 37.9352 38.9032 37.5443C39.0032 37.1836 39.1232 36.8328 39.2632 36.4921C39.2932 36.432 39.3132 36.3819 39.3432 36.3218C39.4532 36.1514 39.5132 35.961 39.5232 35.7606C39.5632 35.5902 39.5532 35.3798 39.4832 35.1794Z" fill="#59C59F"/>
<path d="M78.5826 77.6988C58.6628 76.7969 38.7231 76.5264 18.7834 76.8972C13.1135 77.0074 7.44356 77.1577 1.77364 77.3681C-0.106331 77.4383 -0.0963311 80.4747 1.78364 80.4045C21.7034 79.673 41.6531 79.5728 61.5828 80.1139C67.2527 80.2642 72.9226 80.4747 78.5925 80.7352C80.4825 80.8154 80.4625 77.779 78.5826 77.6988Z" fill="#1E1E1E"/>
<path d="M66.5828 73.1192C63.4929 72.7785 60.3729 72.6783 57.263 72.8186C56.483 72.8486 55.723 73.49 55.763 74.3418C55.803 75.1335 56.423 75.8951 57.263 75.865C60.3729 75.7247 63.4829 75.8349 66.5828 76.1656C67.3628 76.2558 68.1128 75.404 68.0828 74.6424C68.0428 73.7505 67.4128 73.2194 66.5828 73.1192Z" fill="#1E1E1E"/>
<path d="M29.5433 58.3986C28.6633 58.4387 28.1233 59.07 28.0433 59.9218C27.9233 61.1744 27.7833 62.417 27.6233 63.6597C27.6133 63.7398 27.5933 63.8801 27.5933 63.8901C27.5733 64.0405 27.5533 64.1908 27.5333 64.3411C27.4933 64.6417 27.4433 64.9424 27.4033 65.243C27.3033 65.8944 27.2033 66.5457 27.0933 67.1871C26.9633 67.9687 27.2933 68.8606 28.1433 69.051C28.8733 69.2214 29.8433 68.8305 29.9833 67.9888C30.4433 65.3131 30.7933 62.6175 31.0432 59.9118C31.1132 59.1201 30.3033 58.3685 29.5433 58.3986Z" fill="#1E1E1E"/>
<path d="M10.8434 15.4474C10.8434 15.0766 10.6834 14.6256 10.4034 14.3751C10.1134 14.1045 9.74344 13.9141 9.34344 13.9342C8.97345 13.9542 8.53345 14.0745 8.28346 14.3751C7.21347 15.6979 6.29348 17.1109 5.58349 18.6541C5.4135 19.0349 5.3235 19.4057 5.4335 19.8266C5.53349 20.1773 5.79349 20.5581 6.12349 20.7385C6.47348 20.9289 6.89348 21.0191 7.27347 20.8888C7.62347 20.7686 8.00346 20.5481 8.17346 20.1873C8.73345 18.9648 9.43344 17.8023 10.2434 16.7301C10.3034 16.6599 10.3534 16.5898 10.4134 16.5196C10.6634 16.199 10.8434 15.8783 10.8434 15.4474Z" fill="#1E1E1E"/>
<path d="M75.2326 33.5557C75.1126 33.3957 75.1326 33.4557 75.2326 33.5557V33.5557Z" fill="#1E1E1E"/>
<path d="M79.4326 34.7282C78.0926 31.8922 75.9626 29.4871 73.3927 27.7334C72.7427 27.2925 71.7027 27.5831 71.3427 28.2746C70.9427 29.0362 71.1827 29.8779 71.8827 30.3489C72.0227 30.4492 72.1627 30.5393 72.3027 30.6496C72.3727 30.6997 72.4427 30.7498 72.5127 30.7999C72.5227 30.8099 72.5327 30.8099 72.5427 30.8199C72.5227 30.8099 72.5127 30.7999 72.4927 30.7798C72.5127 30.7999 72.5327 30.8099 72.5527 30.83C72.6127 30.8801 72.6227 30.8801 72.5927 30.86C72.8227 31.0604 73.0627 31.2408 73.2927 31.4513C73.8126 31.9223 74.3126 32.4333 74.7626 32.9644C74.8726 33.0947 74.9826 33.225 75.0926 33.3653C75.1426 33.4254 75.1926 33.5056 75.2526 33.5657C75.2426 33.5557 75.2426 33.5557 75.2426 33.5457C75.4426 33.8263 75.6426 34.1068 75.8326 34.3975C76.2126 34.9887 76.5526 35.61 76.8626 36.2514C77.2026 36.9729 78.2726 37.2134 78.9126 36.7925C79.6226 36.3315 79.7926 35.4998 79.4326 34.7282Z" fill="#1E1E1E"/>
<path d="M72.5427 30.8301C72.5627 30.8501 72.5727 30.8601 72.5827 30.8701C72.5727 30.8601 72.5627 30.8501 72.5427 30.8301C72.5427 30.8401 72.5427 30.8301 72.5427 30.8301Z" fill="#1E1E1E"/>
<path d="M33.6233 1.07768C34.5233 1.59878 35.3733 1.68897 36.3633 1.42842C37.2033 1.20795 37.9833 1.05764 38.8033 1.49857C39.1133 1.66892 39.3932 1.92947 39.6432 2.16998C39.7332 2.12989 39.8132 2.07979 39.8532 2.04973C40.3932 1.6589 41.0632 1.29814 41.7132 1.16787C42.5432 0.98749 43.3632 1.228 44.0132 1.74909C44.2832 1.95954 44.4532 2.28021 44.7132 2.49065C45.1132 2.81133 45.1932 2.72114 45.7032 2.50068C46.6031 2.10985 47.3531 1.55869 48.3731 1.47852C49.2431 1.40838 50.0431 1.67895 50.8131 2.05975C51.5631 2.42051 51.8431 2.82135 52.5631 2.34034C53.2631 1.87937 53.903 1.42842 54.783 1.4184C55.643 1.39836 56.363 1.82926 57.003 2.34034C57.223 2.5107 57.473 2.83137 57.733 2.93158C58.273 3.12198 58.813 2.74118 59.273 2.49065C61.0329 1.54867 62.6229 0.917343 64.5229 1.91945C64.9529 2.13992 65.7329 2.91154 66.2429 2.85141C66.8529 2.77125 67.5128 1.85933 68.0628 1.56871C68.9328 1.11776 69.8928 1.0877 70.7928 1.48855C71.1528 1.64888 71.5628 2.09983 71.9228 2.15996C72.3528 2.23011 72.9128 1.83928 73.2428 1.6088C74.0627 1.0376 74.7127 0.326098 75.8127 0.636752C76.9227 0.937385 77.9627 2.06977 78.8627 2.74118C79.5227 3.24224 79.8627 4.04392 79.4127 4.81555C79.0427 5.4569 77.9627 5.85774 77.3027 5.35669C76.8527 5.01597 76.3927 4.66523 75.9427 4.32451C75.7827 4.20426 75.5527 4.07399 75.4027 3.92367C74.7727 4.37462 73.5628 4.8857 73.2628 4.98591C72.3928 5.28654 71.5028 5.30658 70.6528 4.91576C69.8628 4.555 69.7528 4.0339 69.0228 4.57504C67.6028 5.60721 66.3129 6.29867 64.5629 5.47694C63.9429 5.18633 63.2329 4.45479 62.5429 4.39466C61.6229 4.30447 60.5129 5.32662 59.673 5.6473C58.823 5.97799 57.913 6.12831 57.023 5.8878C56.603 5.77757 56.243 5.58717 55.893 5.34667C55.603 5.15627 55.203 4.59508 54.863 4.51492C54.573 4.44477 53.613 5.28654 53.1631 5.44688C52.3831 5.71745 51.5831 5.6974 50.8031 5.41681C50.1531 5.18633 49.4431 4.54498 48.7631 4.47483C47.9431 4.38464 46.8331 5.37673 46.0332 5.59719C45.1932 5.82768 44.2632 5.82768 43.4832 5.39677C43.1632 5.22641 42.8832 5.00595 42.6332 4.7454C42.4732 4.58506 42.3432 4.38464 42.1832 4.2243C42.1632 4.20426 42.1632 4.19424 42.1532 4.18422C41.4832 4.32451 40.8632 5.01597 40.1532 5.18633C39.2833 5.38675 38.3133 5.14624 37.6733 4.51492C37.6433 4.48485 37.4633 4.3646 37.3833 4.28443C37.2633 4.32451 37.0233 4.38464 36.9733 4.39466C36.4433 4.53496 35.8933 4.6051 35.3533 4.6051C34.1733 4.6051 33.0733 4.26439 32.0634 3.67314C30.3534 2.71112 31.9034 0.085592 33.6233 1.07768Z" fill="#F7C300"/>
<path d="M1.1137 5.27633C2.25368 5.09595 3.38367 4.91557 4.52365 4.74521C5.61364 4.58488 6.67362 4.84542 7.70361 4.69511C8.68359 4.55481 9.30359 4.51473 10.2036 5.03583C11.0036 5.4968 11.0336 5.42665 11.9135 5.04585C12.6435 4.72517 13.3635 4.44458 14.1835 4.48467C14.6635 4.50471 15.1235 4.66504 15.5535 4.87549C15.6335 4.91557 16.1235 5.11599 16.0835 5.17612C16.3835 5.11599 16.8435 4.72517 17.1135 4.61494C17.4735 4.4546 17.7735 4.35439 18.1735 4.32433C18.6835 4.28424 19.1334 4.39448 19.5934 4.5949C19.9334 4.74521 20.3134 5.11599 20.6834 5.14606C21.5934 5.20618 22.5234 4.58488 23.4834 4.63498C24.4434 4.67507 25.1734 5.39658 26.0733 5.48677C26.9433 5.57696 27.8133 4.96568 28.6933 4.94564C29.6533 4.92559 30.3733 5.33646 31.2033 5.72728C31.9933 6.09806 32.6032 5.5469 33.4632 5.5469C34.3532 5.53688 35.0932 5.95777 35.8132 6.42876C36.0032 6.56905 36.2032 6.69933 36.4132 6.80956C36.3432 7.02 36.4132 7.00998 36.6032 6.76947C36.9132 6.70935 37.2532 6.33857 37.6232 6.26842C38.7332 6.04796 39.6532 6.6392 40.4731 7.31061C42.0031 8.56325 39.8131 10.6977 38.2932 9.45513C38.6432 9.03424 38.6632 8.97411 38.3632 9.26473C38.1832 9.43509 37.9832 9.56536 37.7532 9.65555C37.4132 9.81589 37.0332 9.90608 36.6532 9.9161C35.7632 9.92612 34.9932 9.51525 34.2632 9.04426C34.0432 8.89395 33.7632 8.61336 33.4832 8.58329C33.1832 8.55323 32.7033 8.84384 32.3833 8.90397C31.5333 9.07433 30.7633 8.88392 30.0033 8.52317C28.9133 8.01209 28.7933 7.99205 27.6133 8.31272C26.7633 8.54321 25.9433 8.61336 25.0934 8.35281C24.2534 8.09226 23.6734 7.57116 22.7734 7.76156C21.8534 7.96198 21.0534 8.32274 20.0934 8.14236C19.7134 8.07222 19.3634 7.94194 19.0234 7.76156C18.4835 7.48097 18.6035 7.38076 18.1335 7.51103C17.4735 7.69141 16.9835 8.17243 16.2535 8.22253C15.7535 8.2526 15.3235 8.14236 14.8735 7.95196C14.6335 7.85175 14.3335 7.57116 14.0935 7.53108C13.5135 7.44089 12.7335 8.03213 12.2235 8.22253C11.5836 8.443 10.8936 8.56325 10.2136 8.42295C9.73358 8.32274 9.39358 8.03213 8.95359 7.86177C8.2336 7.58118 8.96359 7.64131 8.1336 7.77158C7.09362 7.94194 6.13363 7.58118 5.10364 7.71146C4.04366 7.85175 2.99367 8.04215 1.93369 8.20249C-0.00628282 8.51314 -0.836271 5.58699 1.1137 5.27633Z" fill="#59C59F"/>
</svg>
