<svg width="81" height="81" viewBox="0 0 81 81" fill="none" xmlns="http://www.w3.org/2000/svg">
<path d="M76.7765 5.45013C76.5865 4.77866 76.2365 4.18737 75.7265 3.68627C75.6965 3.65621 75.6565 3.62614 75.6265 3.58605C75.2565 3.1952 74.8165 2.92461 74.3165 2.76426C73.8365 2.51371 73.3065 2.40347 72.7465 2.42351C72.1865 2.40347 71.6665 2.51371 71.1765 2.76426C70.6765 2.92461 70.2365 3.20522 69.8665 3.58605C69.6565 3.85665 69.4465 4.12724 69.2265 4.39783C68.8565 5.01919 68.6765 5.69066 68.6665 6.41224C68.7165 6.763 68.7665 7.12379 68.8165 7.47456C69.0065 8.14603 69.3565 8.73732 69.8665 9.23842C69.8965 9.26848 69.9365 9.29855 69.9665 9.33864C70.3365 9.72949 70.7765 10.0001 71.2765 10.1604C71.7665 10.411 72.2865 10.5212 72.8465 10.5012C73.4065 10.5212 73.9265 10.411 74.4165 10.1604C74.9165 10.0001 75.3565 9.71947 75.7265 9.33864C75.9365 9.06805 76.1465 8.79745 76.3665 8.52686C76.7365 7.9055 76.9165 7.23403 76.9265 6.51246C76.8765 6.16169 76.8265 5.81092 76.7765 5.45013Z" fill="#59C59F"/>
<path d="M51.5564 2.42352C46.3164 2.42352 46.3064 10.411 51.5564 10.411C56.7964 10.411 56.8064 2.42352 51.5564 2.42352Z" fill="#F7C300"/>
<path d="M35.1765 5.35992C34.9865 4.68845 34.6365 4.09716 34.1265 3.59606C33.8565 3.3856 33.5765 3.17514 33.3065 2.97471C32.6765 2.61392 31.9865 2.43352 31.2565 2.43352H31.0565C30.4965 2.41348 29.9765 2.52372 29.4865 2.77427C28.9865 2.93462 28.5465 3.21523 28.1765 3.59606C27.7765 3.95685 27.4965 4.3878 27.3365 4.87887C27.0865 5.3499 26.9665 5.87104 26.9865 6.41223C27.0365 6.76299 27.0865 7.12378 27.1365 7.47455C27.3265 8.14602 27.6765 8.73731 28.1865 9.23841C28.4565 9.44887 28.7365 9.65933 29.0065 9.85977C29.6365 10.2206 30.3265 10.4009 31.0565 10.4009H31.2565C31.8165 10.421 32.3365 10.3108 32.8265 10.0602C33.3265 9.89985 33.7665 9.61924 34.1365 9.23841C34.5365 8.87762 34.8165 8.44668 34.9765 7.9556C35.2265 7.48457 35.3465 6.96343 35.3265 6.42225C35.2765 6.06146 35.2265 5.71069 35.1765 5.35992Z" fill="#59C59F"/>
<path d="M10.0564 3.01483C4.81643 3.01483 4.80643 11.0023 10.0564 11.0023C15.2864 10.9923 15.2964 3.01483 10.0564 3.01483Z" fill="#F7C300"/>
<path d="M79.0265 68.6183C78.8365 67.0148 77.7565 65.6218 75.9765 65.6218C74.4765 65.6218 72.7365 66.9948 72.9265 68.6183C73.1065 70.1417 73.1465 71.7051 72.8665 73.2184C72.5765 74.8119 73.3065 76.4454 74.9965 76.8964C76.4765 77.2973 78.4565 76.4054 78.7465 74.8019C79.1265 72.7373 79.2765 70.7029 79.0265 68.6183Z" fill="#59C59F"/>
<path d="M36.9165 61.3223C37.2065 57.4739 31.1065 57.494 30.8165 61.3223C30.6565 63.3869 30.9865 65.4514 30.8065 67.5159C30.6365 69.5103 30.1965 71.4244 30.3065 73.4288C30.5165 77.2672 36.6165 77.2873 36.4065 73.4288C36.2965 71.4144 36.7465 69.5103 36.9065 67.5159C37.0765 65.4414 36.7565 63.3869 36.9165 61.3223Z" fill="#59C59F"/>
<path d="M57.9764 46.54C57.8564 42.6916 51.7464 42.6815 51.8764 46.54C52.1564 55.5898 50.7764 64.5995 51.4564 73.6493C51.7464 77.4676 57.8464 77.4977 57.5564 73.6493C56.8764 64.5995 58.2564 55.5898 57.9764 46.54Z" fill="#F7C300"/>
<path d="M15.7864 56.141C16.1764 48.7047 16.0764 41.2885 15.5064 33.8723C15.2164 30.054 9.10644 30.0239 9.40644 33.8723C9.92644 40.6672 10.0864 47.4721 9.77645 54.287C9.65645 57.033 9.36644 59.799 9.50644 62.545C9.69644 66.1529 10.6564 69.6706 10.0664 73.2985C9.44645 77.0668 15.3264 78.6903 15.9564 74.892C16.9664 68.6985 15.4564 62.4147 15.7864 56.141Z" fill="#F7C300"/>
<path d="M14.2065 32.5093C14.3665 27.0374 14.7265 21.5754 15.3065 16.1335C15.3765 15.5021 15.0865 15.0812 14.6665 14.8707C14.4465 14.2995 13.9165 13.8886 13.2565 13.8886H7.47652C7.20652 13.8886 6.94652 13.9688 6.70652 14.1091C5.85652 13.4376 4.18652 13.8084 4.14652 15.2315C3.85652 25.3837 3.74652 22.5576 3.83652 32.7098C3.90652 39.4545 3.88652 46.2594 4.31652 53.0142C4.23652 53.1946 4.19652 53.405 4.20652 53.6456C4.35652 58.4561 4.31652 63.2766 4.06652 68.0771C3.94652 70.4423 3.77652 72.7974 3.55652 75.1526C3.38652 76.9766 3.25652 78.8006 5.00652 79.9431C5.37652 80.1836 5.74652 80.2337 6.06652 80.1636C6.25652 80.2437 6.45652 80.3039 6.67652 80.3039C7.58652 80.3139 8.49652 80.354 9.40652 80.4241C9.84652 80.4542 10.2765 80.4943 10.7165 80.5444C10.9365 80.5644 11.1465 80.5945 11.3665 80.6246C11.3965 80.6246 11.4265 80.6346 11.4565 80.6346C11.5765 80.6546 11.7065 80.6646 11.8265 80.6847C12.2465 80.7448 12.6165 80.7549 13.0065 80.5344C13.3265 80.354 13.6265 79.9932 13.7065 79.6424C13.7365 79.5021 13.7465 79.3518 13.7465 79.2015C13.8065 79.0611 13.8465 78.9108 13.8565 78.7304C15.3165 59.0273 13.6265 52.2425 14.2065 32.5093ZM11.4065 61.9838C11.3865 63.918 11.3565 65.8523 11.3065 67.7865C11.2165 71.0336 11.0865 74.2707 10.9165 77.5077C9.68652 77.5178 8.45652 77.5278 7.22652 77.5478C7.04652 77.5478 6.85652 77.5478 6.72652 77.4276C6.58652 77.2973 6.58652 77.0768 6.58652 76.8764C7.51652 57.8748 6.87652 51.8216 6.87652 32.81C6.91652 27.4883 7.01652 22.1767 7.15652 16.8551C7.25652 16.8751 7.35652 16.8851 7.46652 16.8851H12.1665C10.2065 36.2074 11.5765 42.6214 11.4065 61.9838Z" fill="#1E1E1E"/>
<path d="M56.2965 32.5093C56.4565 27.0374 56.8165 21.5754 57.3965 16.1335C57.4665 15.5021 57.1765 15.0812 56.7565 14.8707C56.5365 14.2995 56.0065 13.8886 55.3465 13.8886H49.5765C49.3065 13.8886 49.0465 13.9688 48.8065 14.1091C47.9565 13.4376 46.2865 13.8084 46.2465 15.2315C45.9565 25.3837 45.8465 22.5576 45.9365 32.7098C45.9965 39.4545 45.9765 46.2594 46.4065 53.0242C46.3265 53.2046 46.2865 53.415 46.2965 53.6556C46.4465 58.4661 46.4065 63.2866 46.1565 68.0871C46.0365 70.4523 45.8665 72.8075 45.6465 75.1626C45.4765 76.9866 45.3465 78.8106 47.0965 79.9531C47.4665 80.1936 47.8365 80.2437 48.1565 80.1736C48.3465 80.2538 48.5465 80.3139 48.7665 80.3139C49.6765 80.3239 50.5865 80.364 51.4965 80.4341C51.9365 80.4642 52.3665 80.5043 52.8065 80.5544C53.0265 80.5745 53.2365 80.6045 53.4565 80.6346C53.4865 80.6346 53.5165 80.6446 53.5465 80.6446C53.6665 80.6647 53.7965 80.6747 53.9165 80.6947C54.3365 80.7549 54.7065 80.7649 55.0965 80.5444C55.4165 80.364 55.7165 80.0032 55.7965 79.6524C55.8265 79.5121 55.8365 79.3618 55.8365 79.2115C55.8965 79.0712 55.9365 78.9208 55.9465 78.7404C57.4065 59.0273 55.7165 52.2425 56.2965 32.5093ZM53.4965 61.9838C53.4765 63.918 53.4465 65.8523 53.3965 67.7865C53.3065 71.0336 53.1765 74.2707 53.0065 77.5077C51.7765 77.5178 50.5465 77.5278 49.3165 77.5478C49.1365 77.5478 48.9465 77.5478 48.8165 77.4276C48.6765 77.2973 48.6765 77.0768 48.6765 76.8764C49.6065 57.8748 48.9665 51.8216 48.9665 32.81C49.0065 27.4883 49.1065 22.1767 49.2465 16.8551C49.3465 16.8751 49.4465 16.8851 49.5565 16.8851H54.2565C52.2965 36.2074 53.6665 42.6214 53.4965 61.9838Z" fill="#1E1E1E"/>
<path d="M14.3965 27.9394C14.3465 27.4483 14.1165 26.9973 13.7465 26.7267C13.6365 26.3058 13.4665 25.9049 13.1665 25.5842C12.5265 24.9027 11.6365 24.8526 10.7565 24.7524C9.44649 24.5921 8.12649 24.5219 6.80649 24.542C6.48649 24.542 6.14649 24.542 5.80649 24.552C5.19649 24.3215 4.60649 24.2714 4.01649 24.4918C3.12649 24.5219 2.11649 24.5319 1.38649 24.9528C0.316489 25.5642 0.116489 26.9272 0.0264887 28.0296C-0.0535113 28.9817 0.0564887 30.0239 0.396489 30.9359C0.666489 31.6675 1.18649 32.1586 1.96649 32.319C2.51649 32.4292 3.10649 32.349 3.65649 32.319C5.85649 32.1987 8.04649 31.9882 10.2265 31.6976C10.8065 31.6174 11.3965 31.5373 11.9765 31.4471C12.5065 31.3669 13.0965 31.3368 13.5765 31.0863C14.8065 30.4148 14.5065 29.0618 14.3965 27.9394Z" fill="#F7C300"/>
<path d="M60.8265 40.3665C60.5965 39.2441 60.3465 37.8611 59.3465 37.3299C58.6165 36.939 57.6065 36.9691 56.7965 36.8789C55.9565 36.7887 55.1065 36.7186 54.2665 36.6584C52.5765 36.5482 50.8765 36.4981 49.1765 36.5181C49.0465 36.5181 48.9365 36.5382 48.8265 36.5582C47.4765 36.5782 45.9665 36.9591 44.9665 37.8611C43.8165 38.8933 44.3165 40.597 44.5565 41.9099C44.6865 42.6315 44.8065 43.3531 45.4165 43.8441C46.0665 44.3553 46.8065 44.255 47.5765 44.1248C48.8665 43.9043 50.2165 44.0245 51.5065 44.1849C52.8465 44.3553 54.1765 44.5858 55.5165 44.696C56.8065 44.8062 58.3165 44.8764 59.5565 44.4555C60.7865 44.0346 61.1565 42.9923 61.0965 41.8899C61.2565 41.3687 61.1765 40.7674 60.8265 40.3665Z" fill="#F7C300"/>
<path d="M35.2464 32.5093C35.4064 27.0374 35.7664 21.5754 36.3464 16.1335C36.4164 15.5021 36.1264 15.0812 35.7064 14.8707C35.4864 14.2995 34.9564 13.8886 34.2964 13.8886H28.5264C28.2564 13.8886 27.9964 13.9688 27.7564 14.1091C26.9064 13.4376 25.2364 13.8084 25.1964 15.2315C24.9064 25.3837 24.7964 22.5576 24.8864 32.7098C24.9464 39.4545 24.9264 46.2594 25.3564 53.0242C25.2764 53.2046 25.2364 53.415 25.2464 53.6556C25.3964 58.4661 25.3564 63.2866 25.1064 68.0871C24.9864 70.4523 24.8164 72.8075 24.5964 75.1626C24.4264 76.9866 24.2964 78.8106 26.0464 79.9531C26.4164 80.1936 26.7864 80.2437 27.1064 80.1736C27.2964 80.2538 27.4964 80.3139 27.7164 80.3139C28.6264 80.3239 29.5364 80.364 30.4464 80.4341C30.8864 80.4642 31.3164 80.5043 31.7564 80.5544C31.9764 80.5745 32.1864 80.6045 32.4064 80.6346C32.4364 80.6346 32.4664 80.6446 32.4964 80.6446C32.6164 80.6647 32.7464 80.6747 32.8664 80.6947C33.2864 80.7549 33.6564 80.7649 34.0464 80.5444C34.3664 80.364 34.6664 80.0032 34.7464 79.6524C34.7764 79.5121 34.7864 79.3618 34.7864 79.2115C34.8464 79.0712 34.8864 78.9208 34.8964 78.7404C36.3564 59.0273 34.6764 52.2425 35.2464 32.5093ZM32.4564 61.9838C32.4364 63.918 32.4064 65.8523 32.3564 67.7865C32.2664 71.0336 32.1364 74.2707 31.9664 77.5077C30.7364 77.5178 29.5064 77.5278 28.2764 77.5478C28.0964 77.5478 27.9064 77.5478 27.7764 77.4276C27.6364 77.2973 27.6364 77.0768 27.6364 76.8764C28.5664 57.8748 27.9264 51.8216 27.9264 32.81C27.9664 27.4883 28.0664 22.1767 28.2064 16.8551C28.3064 16.8751 28.4064 16.8851 28.5164 16.8851H33.2164C31.2464 36.2074 32.6164 42.6214 32.4564 61.9838Z" fill="#1E1E1E"/>
<path d="M77.3465 32.5093C77.5065 27.0374 77.8665 21.5754 78.4465 16.1335C78.5165 15.5021 78.2265 15.0812 77.8065 14.8707C77.5865 14.2995 77.0565 13.8886 76.3965 13.8886H70.6265C70.3565 13.8886 70.0965 13.9688 69.8565 14.1091C69.0065 13.4376 67.3365 13.8084 67.2965 15.2315C67.0065 25.3837 66.8965 22.5576 66.9865 32.7098C67.0465 39.4545 67.0265 46.2594 67.4565 53.0242C67.3765 53.2046 67.3365 53.415 67.3465 53.6556C67.4965 58.4661 67.4565 63.2866 67.2065 68.0871C67.0865 70.4523 66.9165 72.8075 66.6965 75.1626C66.5265 76.9866 66.3965 78.8106 68.1465 79.9531C68.5165 80.1936 68.8865 80.2437 69.2065 80.1736C69.3965 80.2538 69.5965 80.3139 69.8165 80.3139C70.7265 80.3239 71.6365 80.364 72.5465 80.4341C72.9865 80.4642 73.4165 80.5043 73.8565 80.5544C74.0765 80.5745 74.2865 80.6045 74.5065 80.6346C74.5365 80.6346 74.5665 80.6446 74.5965 80.6446C74.7165 80.6647 74.8465 80.6747 74.9665 80.6947C75.3865 80.7549 75.7565 80.7649 76.1465 80.5444C76.4665 80.364 76.7665 80.0032 76.8465 79.6524C76.8765 79.5121 76.8865 79.3618 76.8865 79.2115C76.9465 79.0712 76.9865 78.9208 76.9965 78.7404C78.4565 59.0273 76.7665 52.2425 77.3465 32.5093ZM74.5465 61.9838C74.5265 63.918 74.4965 65.8523 74.4465 67.7865C74.3565 71.0336 74.2265 74.2707 74.0565 77.5077C72.8265 77.5178 71.5965 77.5278 70.3665 77.5478C70.1865 77.5478 69.9965 77.5478 69.8665 77.4276C69.7265 77.2973 69.7265 77.0768 69.7265 76.8764C70.6565 57.8748 70.0165 51.8216 70.0165 32.81C70.0565 27.4883 70.1565 22.1767 70.2965 16.8551C70.3965 16.8751 70.4965 16.8851 70.6065 16.8851H75.3065C73.3365 36.2074 74.7165 42.6214 74.5465 61.9838Z" fill="#1E1E1E"/>
<path d="M36.5365 53.7357C36.5065 53.5353 36.4865 53.3449 36.4565 53.1545C36.8165 52.8839 37.0565 52.4629 37.0565 51.9819C37.0565 51.1902 36.3565 50.4686 35.5265 50.4886C33.6265 50.5387 31.7265 50.669 29.8365 50.9096C28.8265 51.0398 27.8265 51.1801 26.8265 51.3605C25.9465 51.5109 24.8165 51.581 24.0365 52.032C23.1365 52.5531 22.9665 53.7558 22.8365 54.6878C22.6965 55.69 22.5565 57.0229 23.3465 57.8046C24.0565 58.5162 25.2765 58.5362 26.2265 58.6164C27.1665 58.6866 28.1065 58.7367 29.0465 58.7667C30.0965 58.7968 31.1565 58.8168 32.2165 58.8068C32.7265 58.8068 33.2365 58.8068 33.7465 58.7768C34.1165 58.7567 34.5065 58.6966 34.8365 58.5062L34.8465 58.4961C35.3265 58.5863 35.8465 58.4861 36.2065 58.1253C37.0565 57.2835 36.8565 56.2512 36.7165 55.1889C36.6565 54.7079 36.5965 54.2268 36.5365 53.7357Z" fill="#59C59F"/>
<path d="M77.8765 62.9058C77.7065 62.1943 77.4065 61.4527 76.8465 60.9415C75.8165 59.9895 74.3565 60.1799 73.0665 60.2701C72.7565 60.2901 72.4565 60.3202 72.1465 60.3503C71.7765 60.3001 71.3965 60.3001 71.0265 60.3703C70.9165 60.3903 70.8165 60.4304 70.7165 60.4705C70.6865 60.4705 70.6665 60.4705 70.6365 60.4805C70.3065 60.22 69.8865 60.0696 69.4065 60.0696C69.0865 60.0696 68.8165 60.1598 68.5265 60.2701C68.1565 60.4104 67.7665 60.5206 67.4265 60.7211C66.5465 61.2622 66.4365 62.1742 66.5765 63.0862C66.6565 63.6374 66.7165 64.2087 66.8665 64.7399C67.0665 65.4013 67.4365 66.0327 68.0465 66.3935C68.7165 66.7843 69.4465 66.7342 70.1865 66.6941C71.4965 66.644 72.8165 66.5939 74.1265 66.5238C75.4165 66.4536 77.0465 66.4436 77.7565 65.1708C78.1665 64.4793 78.0565 63.6475 77.8765 62.9058Z" fill="#59C59F"/>
<path d="M79.9965 63.8078C79.9765 63.1263 79.8865 62.4348 79.7465 61.7633C79.5965 61.0217 79.4165 60.1498 78.8865 59.5785C78.2465 58.877 77.3865 58.8169 76.4865 58.7467C75.6865 58.6866 74.8865 58.6365 74.0865 58.5763C72.4065 58.4561 70.7265 58.3358 69.0465 58.2155C68.4965 58.1755 68.0065 58.5162 67.7365 58.9772C66.7265 58.857 65.6565 58.877 65.0065 59.5785C64.4565 60.1698 64.4365 61.0417 64.3565 61.8034C64.2865 62.525 64.2665 63.2466 64.2965 63.9681C64.3665 65.3111 64.4065 67.1451 65.6065 68.027C66.7365 68.8588 68.3065 68.5281 69.6065 68.4479C71.0865 68.3577 72.5765 68.2475 74.0565 68.1473C74.7365 68.0972 75.4165 68.0471 76.1065 67.9969C76.8365 67.9368 77.6965 67.9769 78.3965 67.7664C80.0465 67.2653 80.0365 65.1808 79.9965 63.8078ZM75.7565 65.0204C75.0365 65.0705 74.3165 65.1307 73.5865 65.1808C72.1065 65.291 70.6165 65.3912 69.1365 65.4814C68.6465 65.5115 67.9965 65.5215 67.5465 65.5616C67.5165 65.3311 67.4565 65.1006 67.4265 64.8701C67.3465 64.1886 67.3265 63.5071 67.3465 62.8256C67.3565 62.555 67.3565 62.2644 67.3765 61.9838C67.3965 61.9838 67.4165 61.9838 67.4365 61.9838C67.7365 62.0038 68.0365 62.0339 68.3365 62.074C69.0565 62.1842 69.7565 61.9237 70.0765 61.2823C72.0065 61.4226 73.9365 61.5528 75.8765 61.6932C76.1065 61.7132 76.3265 61.7232 76.5565 61.7433C76.6365 62.1241 76.8065 62.525 76.8665 62.9058C76.9365 63.3869 76.9565 63.8779 76.9365 64.359C76.9365 64.5494 76.9165 64.7398 76.9065 64.9302C76.8865 64.9302 76.8565 64.9302 76.8365 64.9403C76.4765 64.9703 76.1165 65.0004 75.7565 65.0204Z" fill="#1E1E1E"/>
<path d="M16.4965 28.4504C16.4765 27.7689 16.3865 27.0774 16.2465 26.4059C16.0965 25.6643 15.9165 24.7924 15.3865 24.2212C14.7465 23.5196 13.8865 23.4595 12.9865 23.3893C12.1865 23.3292 11.3865 23.2791 10.5865 23.219C8.90646 23.0987 7.22646 22.9784 5.54646 22.8582C4.99646 22.8181 4.50646 23.1588 4.23646 23.6199C3.22646 23.4996 2.15646 23.5196 1.50646 24.2212C0.956459 24.8125 0.936459 25.6844 0.856459 26.446C0.786459 27.1676 0.766459 27.8892 0.796459 28.6108C0.866459 29.9537 0.906459 31.7877 2.10646 32.6696C3.23646 33.5015 4.80646 33.1707 6.10646 33.0906C7.58646 33.0004 9.07646 32.8901 10.5565 32.7899C11.2365 32.7398 11.9165 32.6897 12.6065 32.6396C13.3365 32.5794 14.1965 32.6195 14.8965 32.4091C16.5465 31.898 16.5365 29.8234 16.4965 28.4504ZM12.2565 29.6631C11.5365 29.7132 10.8165 29.7733 10.0865 29.8234C8.60646 29.9337 7.11646 30.0339 5.63646 30.1241C5.14646 30.1541 4.49646 30.1642 4.04646 30.2043C4.01646 29.9737 3.95646 29.7432 3.92646 29.5127C3.84646 28.8312 3.82646 28.1498 3.84646 27.4683C3.85646 27.1977 3.85646 26.907 3.87646 26.6264C3.89646 26.6264 3.91646 26.6264 3.93646 26.6264C4.23646 26.6465 4.53646 26.6765 4.83646 26.7166C5.55646 26.8269 6.25646 26.5663 6.57646 25.9249C8.50646 26.0652 10.4365 26.1955 12.3765 26.3358C12.6065 26.3558 12.8265 26.3659 13.0565 26.3859C13.1365 26.7667 13.3065 27.1676 13.3665 27.5484C13.4365 28.0295 13.4565 28.5206 13.4365 29.0016C13.4365 29.192 13.4165 29.3825 13.4065 29.5729C13.3865 29.5729 13.3565 29.5729 13.3365 29.5829C12.9765 29.613 12.6165 29.643 12.2565 29.6631Z" fill="#1E1E1E"/>
<path d="M60.1465 43.0023C59.8965 41.6493 59.5965 40.2964 59.3165 38.9434C59.1965 38.3421 59.1265 37.7107 58.9365 37.1294C58.6365 36.1573 57.7065 35.7765 56.6265 35.7264C53.0365 35.546 49.4365 35.5159 45.8465 35.4057C44.6765 35.3756 44.1265 36.1874 44.1965 36.9791C43.4065 37.0493 42.6865 37.5203 42.7165 38.4122C42.7665 39.7451 42.8165 41.0781 42.8765 42.411C42.9265 43.774 42.7065 45.5879 44.6065 46.069C45.3265 46.2494 46.0465 46.1291 46.7665 46.0189C47.4665 45.9187 48.1665 45.8485 48.8765 45.7884C50.4165 45.6681 51.9565 45.638 53.5065 45.7082C54.2765 45.7383 55.0465 45.7884 55.8165 45.8685C56.4165 45.9287 57.0165 46.0389 57.6265 45.9988C58.4365 45.9387 59.1665 45.6982 59.6865 45.147C60.2965 44.5056 60.2965 43.7639 60.1465 43.0023ZM55.6765 42.8519C54.5065 42.7417 53.3265 42.6816 52.1465 42.6715C51.0065 42.6615 49.8765 42.7116 48.7465 42.8018C48.0965 42.8519 47.4465 42.9221 46.7965 43.0023C46.6465 43.0223 46.5065 43.0424 46.3565 43.0624C46.3565 43.0424 46.3565 43.0123 46.3465 42.9923C46.3265 42.4811 46.3065 41.97 46.2865 41.4689C46.2465 40.4467 46.2065 39.4345 46.1665 38.4122C47.9265 38.4623 49.6865 38.5125 51.4465 38.5726C52.8765 38.6127 54.3265 38.6026 55.7665 38.6728C55.8165 38.9133 55.8665 39.1639 55.9165 39.4044C56.0065 39.8654 56.1065 40.3364 56.1965 40.7975L56.4765 42.1905C56.5265 42.411 56.5465 42.6916 56.5865 42.9722C56.2965 42.9221 55.9865 42.882 55.6765 42.8519Z" fill="#1E1E1E"/>
<path d="M38.9664 55.8904C38.3064 55.5697 37.5464 55.67 37.1464 56.4316C37.0464 56.6321 36.9864 56.8826 36.9864 57.1332C36.9164 57.1432 36.8564 57.1432 36.7864 57.1532C36.3764 57.1833 35.9564 57.2133 35.5464 57.2434C34.7164 57.2935 33.8964 57.3336 33.0664 57.3637C31.5164 57.4138 29.9664 57.4238 28.4164 57.3737C28.1364 57.3637 24.9864 57.2935 24.0464 57.1732C24.0464 57.1632 24.0464 57.1632 24.0364 57.1432C24.0064 56.9427 23.9764 56.7523 23.9664 56.5519C23.9264 56.1109 23.8964 55.67 23.8864 55.219C23.8764 54.778 23.8864 54.327 23.9064 53.8861C23.9164 53.6656 23.9364 53.4551 23.9564 53.2346C24.8164 52.9841 25.7664 52.8839 26.6164 52.7035C27.7464 52.4629 28.8864 52.2224 30.0164 51.9719C31.1264 51.7313 32.2464 51.4808 33.3764 51.3605C33.9664 51.3004 34.5664 51.2603 35.1664 51.2804C35.3964 51.2904 35.7864 51.2603 36.0964 51.3104C36.1564 51.7113 36.1364 52.2124 36.1664 52.493C36.2364 53.2948 36.7264 53.9863 37.4964 53.9863C38.1564 53.9863 38.8964 53.2948 38.8264 52.493C38.6664 50.8093 38.7264 48.7749 36.8664 48.4642C35.2364 48.1836 33.6164 48.3139 31.9864 48.5744C30.3464 48.835 28.7264 49.2259 27.0964 49.5766C26.3064 49.747 25.5164 49.9174 24.7364 50.0877C24.0364 50.2381 23.2864 50.3082 22.6164 50.5888C21.0264 51.2403 21.1964 53.846 21.2464 55.3994C21.2964 56.9427 21.2864 59.1977 22.7864 59.8792C23.5064 60.2099 24.4064 60.1598 25.1664 60.2099C26.0464 60.27 26.9164 60.3201 27.7964 60.3502C29.4464 60.4103 31.1064 60.4103 32.7564 60.3702C33.6864 60.3402 34.6164 60.3001 35.5464 60.24C36.4164 60.1798 37.3564 60.2099 38.2064 59.9894C39.0564 59.7589 39.7364 59.0874 39.8964 58.0953C40.0364 57.2434 39.6964 56.2512 38.9664 55.8904Z" fill="#1E1E1E"/>
<path d="M70.9065 8.15604C70.9265 8.17604 70.9565 8.19604 70.9765 8.22604C70.9765 8.22604 70.9765 8.22604 70.9865 8.23604C70.9365 8.16604 70.9065 8.14604 70.9065 8.15604Z" fill="#1E1E1E"/>
<path d="M70.4065 6.06135C70.4165 6.05135 70.4265 6.03135 70.4265 6.01135C70.4265 6.03135 70.4165 6.05135 70.4065 6.06135Z" fill="#1E1E1E"/>
<path d="M76.5565 2.71414C75.5465 1.91238 74.3565 1.50149 73.0765 1.35116C71.6965 1.18078 70.3365 1.39124 68.9665 1.58166C68.1765 1.6919 67.6665 2.72416 67.8965 3.42569C67.9265 3.51589 67.9865 3.58605 68.0265 3.66622C67.2965 4.91896 67.1865 6.59262 67.4665 7.94558C67.6765 8.96782 68.2465 9.92992 69.0865 10.5613C70.0065 11.2628 71.0965 11.5334 72.2465 11.6236C74.4165 11.804 76.8965 11.0624 77.9865 9.06804C79.1265 7.00352 78.3865 4.15729 76.5565 2.71414ZM75.4865 7.15385C75.4665 7.24405 75.4365 7.33424 75.4165 7.42444C75.4065 7.48457 75.3965 7.51464 75.3865 7.5447C75.3265 7.64492 75.2365 7.76519 75.2065 7.80527C75.2065 7.80527 75.2065 7.80527 75.2065 7.8153C75.2065 7.8153 75.2065 7.8153 75.1965 7.8153C75.1365 7.86541 75.0965 7.92554 75.0365 7.98567C74.9765 8.03578 74.9165 8.08589 74.8665 8.136C74.8565 8.136 74.8665 8.136 74.8565 8.14602C74.7065 8.23622 74.5465 8.31639 74.3965 8.40659C74.3965 8.40659 74.3965 8.40659 74.3865 8.40659C74.3065 8.43666 74.2165 8.46672 74.1365 8.48677C73.9365 8.5469 73.7365 8.58699 73.5265 8.62707C73.5165 8.62707 73.5165 8.62707 73.5065 8.62707C73.3865 8.63709 73.2765 8.64712 73.1565 8.64712C72.8065 8.65714 72.4465 8.63709 72.0965 8.60703C72.0265 8.59701 71.8365 8.56694 71.7765 8.5469C71.6965 8.52685 71.6165 8.50681 71.5365 8.48677C71.4965 8.47674 71.3865 8.43666 71.3265 8.41661C71.2065 8.35648 71.0965 8.29635 70.9865 8.23622C70.9865 8.23622 70.9765 8.23622 70.9765 8.2262C70.9865 8.23622 70.9865 8.23622 70.9965 8.24624C70.9865 8.23622 70.9765 8.2262 70.9665 8.2262C70.9265 8.19613 70.8965 8.16606 70.8965 8.15604C70.8765 8.136 70.8465 8.11595 70.8265 8.08589C70.7965 8.05582 70.7665 8.01574 70.7365 7.98567C70.7265 7.97565 70.7165 7.9556 70.7165 7.94558C70.6765 7.88545 70.6365 7.8153 70.6065 7.75517C70.5965 7.73512 70.5865 7.7251 70.5765 7.71508C70.5765 7.70506 70.5765 7.70506 70.5765 7.69503C70.5165 7.51464 70.4565 7.33424 70.4165 7.14383C70.4165 7.12378 70.3965 7.06365 70.3865 7.01354C70.3865 6.9935 70.3865 6.96343 70.3865 6.91332C70.3765 6.72291 70.3765 6.52247 70.3765 6.33205C70.3765 6.25188 70.3865 6.18172 70.3865 6.10155C70.3865 6.09153 70.3865 6.09153 70.3865 6.0815C70.3865 6.09153 70.3765 6.10155 70.3765 6.10155L70.3865 6.0815C70.4065 5.91113 70.4265 5.96124 70.4065 6.03139C70.4465 5.90111 70.4665 5.63052 70.4865 5.56036C70.5065 5.49021 70.5365 5.42006 70.5565 5.33988C70.5665 5.31984 70.5665 5.30982 70.5665 5.29979C70.5665 5.28977 70.5665 5.28977 70.5765 5.27975C70.6165 5.21962 70.6465 5.14947 70.6865 5.08933C70.6965 5.06929 70.6965 5.05927 70.7065 5.04925C70.7165 5.03922 70.7565 4.99914 70.7965 4.95905C70.8365 4.939 70.8765 4.90894 70.9165 4.8889C71.1565 4.75861 71.3465 4.54815 71.4765 4.30762C71.7265 4.2976 71.9865 4.28758 72.2365 4.2976C72.4365 4.30762 72.6365 4.32767 72.8365 4.33769C72.9365 4.35773 73.0365 4.37778 73.1465 4.39782C73.3065 4.43791 73.4665 4.478 73.6265 4.52811C73.7065 4.54815 73.7865 4.57822 73.8665 4.60828C73.8765 4.60828 73.8865 4.6183 73.8965 4.6183C73.8965 4.6183 73.8965 4.6183 73.9065 4.62833C74.0665 4.71852 74.2365 4.78868 74.3965 4.8889C74.4565 4.91896 74.5065 4.95905 74.5665 4.99914C74.5765 5.00916 74.5765 5.00916 74.5865 5.01918C74.7065 5.12942 74.8265 5.23966 74.9365 5.35993C75.1165 5.56036 74.9665 5.41004 74.9365 5.35993C75.0065 5.47017 75.0865 5.58041 75.1465 5.70067C75.1865 5.77082 75.2165 5.84098 75.2565 5.91113C75.2665 5.93118 75.2665 5.93118 75.2665 5.95122C75.3265 6.12159 75.3865 6.29196 75.4265 6.47236C75.4365 6.53249 75.4565 6.59262 75.4665 6.65275C75.4765 6.68282 75.4765 6.73293 75.4765 6.75297C75.4765 6.84317 75.4865 6.93337 75.4865 7.02356C75.4865 7.11376 75.4265 7.4044 75.4865 7.15385Z" fill="#1E1E1E"/>
<path d="M28.2164 7.41445C28.2364 7.44445 28.2464 7.47445 28.2564 7.50445V7.51445C28.2364 7.43445 28.2264 7.40445 28.2164 7.41445Z" fill="#1E1E1E"/>
<path d="M28.4565 5.27969C28.4665 5.26969 28.4865 5.25969 28.4965 5.23969C28.4765 5.25969 28.4665 5.26969 28.4565 5.27969Z" fill="#1E1E1E"/>
<path d="M35.3864 4.12725C34.7064 3.04488 33.7264 2.26317 32.5664 1.70194C31.3264 1.10063 29.9664 0.840055 28.6164 0.579486C27.8264 0.419135 27.0064 1.23091 26.9864 1.97253C26.9864 2.07275 27.0164 2.15293 27.0264 2.2331C25.9064 3.17516 25.2464 4.71854 25.0464 6.09154C24.9064 7.1238 25.1064 8.21619 25.6864 9.0881C26.3164 10.0502 27.2564 10.6615 28.3064 11.1225C30.2964 11.9945 32.8864 12.1147 34.5864 10.5814C36.3564 9.00792 36.6264 6.09154 35.3864 4.12725ZM32.8764 7.95562C32.8264 8.0358 32.7764 8.10595 32.7264 8.18612C32.6964 8.23623 32.6764 8.2663 32.6564 8.28634C32.5664 8.36652 32.4364 8.44669 32.4064 8.47676C32.4064 8.47676 32.4064 8.47676 32.3964 8.48678C32.3964 8.48678 32.3964 8.48678 32.3864 8.48678C32.3164 8.51685 32.2464 8.55694 32.1764 8.587C32.1064 8.61707 32.0364 8.64713 31.9664 8.6772C31.9564 8.6772 31.9664 8.6772 31.9464 8.6772C31.7764 8.70726 31.5964 8.73733 31.4264 8.7674C31.4264 8.7674 31.4264 8.7674 31.4164 8.7674C31.3264 8.7674 31.2364 8.7674 31.1464 8.7674C30.9364 8.75737 30.7364 8.73733 30.5264 8.69724C30.5164 8.69724 30.5164 8.69724 30.5064 8.68722C30.3964 8.65716 30.2764 8.62709 30.1664 8.59702C29.8264 8.4968 29.5064 8.3565 29.1864 8.21619C29.1264 8.1761 28.9564 8.08591 28.9064 8.05584C28.8364 8.01575 28.7664 7.96564 28.6964 7.91553C28.6664 7.89549 28.5764 7.81531 28.5264 7.78525C28.4364 7.69505 28.3464 7.60485 28.2664 7.50463C28.2664 7.50463 28.2664 7.49461 28.2564 7.49461C28.2564 7.50463 28.2664 7.50463 28.2664 7.51466C28.2664 7.50463 28.2564 7.49461 28.2464 7.48459C28.2164 7.4445 28.1964 7.40441 28.2064 7.39439C28.1864 7.36433 28.1764 7.33426 28.1664 7.3042C28.1464 7.27413 28.1364 7.22402 28.1164 7.17391C28.1164 7.15387 28.1164 7.14384 28.1064 7.13382C28.0964 7.06367 28.0764 6.98349 28.0664 6.91334C28.0664 6.8933 28.0564 6.88327 28.0564 6.86323C28.0564 6.85321 28.0564 6.85321 28.0564 6.84319C28.0564 6.65277 28.0664 6.46235 28.0964 6.27194C28.0964 6.25189 28.1064 6.19176 28.1164 6.13163C28.1264 6.11159 28.1364 6.09154 28.1564 6.03141C28.2064 5.84099 28.2764 5.6606 28.3464 5.48021C28.3764 5.41005 28.4064 5.3399 28.4364 5.26974C28.4364 5.25972 28.4364 5.25972 28.4464 5.2497C28.4364 5.2497 28.4364 5.25972 28.4264 5.25972C28.4264 5.25972 28.4364 5.2497 28.4464 5.23968C28.5164 5.08935 28.5164 5.13946 28.4864 5.19959C28.5664 5.08935 28.6864 4.8388 28.7264 4.77867C28.7664 4.71854 28.8164 4.65841 28.8664 4.59828C28.8764 4.57823 28.8764 4.57823 28.8864 4.56821C28.8964 4.55819 28.8964 4.55819 28.8964 4.55819C28.9564 4.50808 29.0064 4.45797 29.0664 4.40786C29.0864 4.38782 29.0864 4.38782 29.0964 4.37779C29.1064 4.36777 29.1664 4.34773 29.2164 4.31766C29.2564 4.30764 29.3064 4.29762 29.3464 4.2876C29.6164 4.23749 29.8664 4.1072 30.0664 3.92681C30.3064 3.99696 30.5464 4.07714 30.7864 4.16733C30.9764 4.23749 31.1564 4.31766 31.3364 4.39784C31.4264 4.44795 31.5164 4.49806 31.6064 4.54817C31.7464 4.63836 31.8864 4.72856 32.0164 4.82878C32.0864 4.87889 32.1464 4.929 32.2164 4.97911C32.2264 4.98913 32.2264 4.98913 32.2364 4.99915C32.2364 4.99915 32.2364 4.99915 32.2464 5.00918C32.3664 5.14948 32.4964 5.26975 32.6164 5.41005C32.6564 5.46016 32.6964 5.51027 32.7364 5.5704C32.7364 5.58042 32.7364 5.58042 32.7464 5.59045C32.8264 5.73075 32.8964 5.88108 32.9564 6.02139C33.0564 6.27194 32.9664 6.08152 32.9564 6.02139C32.9864 6.15167 33.0164 6.28196 33.0364 6.41224C33.0464 6.49242 33.0564 6.5726 33.0664 6.65277C33.0664 6.67281 33.0664 6.67281 33.0664 6.69286C33.0664 6.87325 33.0564 7.05365 33.0364 7.23404C33.0264 7.29417 33.0164 7.35431 33.0064 7.41444C32.9964 7.4445 32.9864 7.49461 32.9864 7.51466C32.9564 7.60485 32.9364 7.69505 32.8964 7.77523C32.8864 7.92555 32.7364 8.18612 32.8764 7.95562Z" fill="#1E1E1E"/>
<path d="M53.5565 4.99915C53.5565 5.01915 53.5665 5.02915 53.5765 5.04915C53.5665 5.02915 53.5665 5.01915 53.5565 4.99915Z" fill="#1E1E1E"/>
<path d="M51.6165 11.633C52.9065 11.4927 54.0465 10.9615 55.0565 10.1898C56.1465 9.35799 56.9665 8.25558 57.7965 7.18323C58.2765 6.55185 57.8865 5.47951 57.2265 5.13876C57.1365 5.09867 57.0565 5.08865 56.9665 5.05858C56.5765 3.66554 55.4565 2.4128 54.2765 1.64111C53.3965 1.06986 52.2965 0.779224 51.2465 0.909509C50.0865 1.05984 49.1165 1.62107 48.2465 2.35267C46.5865 3.73569 45.3565 5.9806 46.0265 8.14534C46.7165 10.3802 49.2865 11.8835 51.6165 11.633ZM49.1865 7.75448C49.1365 7.67431 49.0865 7.59413 49.0365 7.52398C49.0065 7.47387 48.9865 7.4438 48.9665 7.41374C48.9365 7.3035 48.9165 7.15317 48.9065 7.11308C48.9065 7.11308 48.9065 7.11308 48.9065 7.10306C48.9065 7.10306 48.9065 7.10306 48.9065 7.09303C48.9065 7.01286 48.8965 6.94271 48.8965 6.86253C48.8965 6.78236 48.9065 6.7122 48.9065 6.63203C48.9065 6.622 48.9065 6.63203 48.9165 6.61198C48.9565 6.44161 49.0165 6.28126 49.0565 6.11089C49.0565 6.11089 49.0565 6.11089 49.0565 6.10086C49.0965 6.02069 49.1365 5.94051 49.1765 5.87036C49.2765 5.68997 49.3865 5.51959 49.5065 5.34922C49.5165 5.3392 49.5165 5.3392 49.5165 5.32918C49.5965 5.23898 49.6665 5.14878 49.7465 5.06861C49.9865 4.81806 50.2465 4.58755 50.5265 4.36707C50.5865 4.32698 50.7365 4.21674 50.7965 4.18668C50.8665 4.14659 50.9465 4.1065 51.0165 4.06641C51.0565 4.04637 51.1565 3.99626 51.2165 3.97622C51.3365 3.93613 51.4665 3.89604 51.5865 3.86598H51.5965C51.5865 3.86598 51.5865 3.86598 51.5665 3.86598C51.5765 3.86598 51.5865 3.86598 51.6065 3.86598C51.6565 3.85595 51.6965 3.85595 51.7065 3.86598C51.7365 3.86598 51.7765 3.86598 51.8065 3.86598C51.8465 3.86598 51.8965 3.876 51.9465 3.876C51.9665 3.876 51.9765 3.88602 51.9865 3.88602C52.0565 3.90606 52.1365 3.92611 52.2065 3.94615C52.2265 3.95617 52.2365 3.95617 52.2565 3.95617C52.2665 3.95617 52.2665 3.95617 52.2765 3.9662C52.4465 4.05639 52.6265 4.14659 52.7865 4.24681C52.8065 4.25683 52.8565 4.2869 52.9065 4.31696C52.9265 4.33701 52.9365 4.35705 52.9765 4.38712C53.1265 4.5174 53.2665 4.65771 53.4065 4.79801C53.4565 4.85815 53.5165 4.91828 53.5665 4.96839C53.5765 4.97841 53.5765 4.97841 53.5765 4.97841C53.5765 4.96839 53.5665 4.96839 53.5665 4.95837L53.5765 4.97841C53.6865 5.10869 53.6365 5.08865 53.5965 5.02852C53.6665 5.14878 53.8465 5.35924 53.8765 5.41937C53.9165 5.48953 53.9465 5.54966 53.9865 5.61981C53.9965 5.63986 53.9965 5.63986 54.0065 5.64988C54.0065 5.6599 54.0065 5.6599 54.0065 5.66992C54.0265 5.74008 54.0465 5.81023 54.0665 5.88038C54.0765 5.90043 54.0765 5.91045 54.0865 5.92047C54.0865 5.93049 54.0865 5.99062 54.0865 6.05076C54.0765 6.09084 54.0665 6.14095 54.0565 6.18104C53.9765 6.44161 53.9965 6.72222 54.0765 6.98279C53.9065 7.16319 53.7265 7.34358 53.5465 7.51396C53.3965 7.65426 53.2465 7.77453 53.0965 7.90481C53.0065 7.95492 52.9265 8.02507 52.8365 8.07518C52.6965 8.16538 52.5465 8.24556 52.4065 8.31571C52.3365 8.3558 52.2565 8.38586 52.1865 8.42595C52.1765 8.43597 52.1665 8.43597 52.1665 8.43597H52.1565C51.9765 8.48608 51.8065 8.54621 51.6265 8.5863C51.5565 8.59632 51.4965 8.61637 51.4265 8.62639C51.4165 8.62639 51.4165 8.62639 51.4065 8.62639C51.2465 8.62639 51.0765 8.63641 50.9165 8.62639C50.6465 8.61637 50.8565 8.61637 50.9165 8.62639C50.7865 8.59632 50.6565 8.56626 50.5165 8.53619C50.4365 8.51615 50.3665 8.48608 50.2865 8.45602C50.2765 8.44599 50.2665 8.44599 50.2465 8.43597C50.0765 8.3558 49.9165 8.27562 49.7565 8.1754C49.7065 8.14534 49.6565 8.10525 49.5965 8.07518C49.5665 8.05514 49.5265 8.02507 49.5165 8.01505C49.4465 7.95492 49.3765 7.89479 49.3165 7.82464C49.2065 7.78455 49.0365 7.534 49.1865 7.75448Z" fill="#1E1E1E"/>
<path d="M12.0365 4.83861C12.0165 4.81861 11.9865 4.78861 11.9665 4.76861C11.9665 4.76861 11.9665 4.76861 11.9565 4.75861C12.0165 4.82861 12.0365 4.84861 12.0365 4.83861Z" fill="#1E1E1E"/>
<path d="M12.4765 6.94341C12.4865 6.94341 12.4865 6.93341 12.4765 6.94341C12.4665 6.95341 12.4565 6.97341 12.4465 6.99341C12.4665 6.97341 12.4765 6.95341 12.4765 6.94341Z" fill="#1E1E1E"/>
<path d="M6.23644 10.1203C7.22644 10.9421 8.39644 11.3931 9.67644 11.5835C11.0464 11.784 12.4164 11.6236 13.7864 11.4733C14.5864 11.3831 15.1164 10.3709 14.9064 9.65932C14.8764 9.56912 14.8264 9.49897 14.7864 9.41879C15.5564 8.18609 15.7064 6.52246 15.4664 5.14945C15.2864 4.12722 14.7464 3.14507 13.9264 2.48362C13.0064 1.76204 11.9264 1.46138 10.7864 1.3311C8.61644 1.1006 6.11644 1.76204 4.97644 3.73636C3.79644 5.76079 4.44644 8.62706 6.23644 10.1203ZM7.43644 5.7207C7.45644 5.63051 7.48644 5.54031 7.50644 5.45011C7.52644 5.38998 7.52644 5.35991 7.53644 5.32985C7.59644 5.22963 7.69644 5.10936 7.71644 5.0793C7.71644 5.0793 7.71644 5.0793 7.71644 5.06928C7.71644 5.06928 7.71644 5.06928 7.72644 5.06928C7.78644 5.01917 7.83644 4.95904 7.88644 4.90893C7.94644 4.85882 8.00644 4.80871 8.06644 4.7586C8.07644 4.7586 8.06644 4.7586 8.07644 4.74858C8.22644 4.6684 8.38644 4.58822 8.53644 4.49803C8.53644 4.49803 8.53644 4.49803 8.54644 4.49803C8.63644 4.46796 8.72644 4.4379 8.80644 4.41785C9.00644 4.36774 9.21644 4.32765 9.41644 4.29759C9.42644 4.29759 9.42644 4.29759 9.43644 4.29759C9.55644 4.28757 9.67644 4.28757 9.78644 4.28757C10.1364 4.28757 10.4964 4.31763 10.8464 4.35772C10.9164 4.37776 11.1064 4.40783 11.1664 4.42787C11.2464 4.44792 11.3264 4.46796 11.4064 4.49803C11.4464 4.50805 11.5564 4.55816 11.6064 4.5782C11.7164 4.63833 11.8364 4.69847 11.9464 4.76862L11.9564 4.77864C11.9464 4.76862 11.9464 4.76862 11.9364 4.7586C11.9464 4.76862 11.9564 4.77864 11.9564 4.77864C11.9964 4.80871 12.0264 4.83877 12.0264 4.84879C12.0464 4.86884 12.0764 4.8989 12.0964 4.91895C12.1264 4.94901 12.1564 4.9891 12.1864 5.02919C12.1964 5.03921 12.1964 5.05926 12.2064 5.06928C12.2364 5.12941 12.2764 5.19956 12.3164 5.26972C12.3264 5.28976 12.3364 5.29978 12.3464 5.3098C12.3464 5.31983 12.3464 5.31983 12.3464 5.32985C12.4064 5.51024 12.4564 5.70066 12.4864 5.88105C12.4864 5.9011 12.5064 5.96123 12.5164 6.01134C12.5164 6.03138 12.5064 6.06145 12.5164 6.11156C12.5264 6.30197 12.5164 6.50241 12.5064 6.69283C12.4964 6.773 12.4964 6.84316 12.4864 6.92333C12.4864 6.93335 12.4864 6.93335 12.4864 6.94338C12.4864 6.93335 12.4964 6.92333 12.4964 6.92333L12.4864 6.94338C12.4664 7.11375 12.4464 7.06364 12.4564 6.99349C12.4064 7.12377 12.3864 7.39436 12.3564 7.46452C12.3364 7.53467 12.3064 7.60482 12.2864 7.67498C12.2764 7.69502 12.2764 7.70504 12.2764 7.71506C12.2764 7.72509 12.2664 7.72509 12.2664 7.73511C12.2264 7.79524 12.1864 7.86539 12.1564 7.92553C12.1464 7.94557 12.1464 7.95559 12.1364 7.96561C12.1264 7.97563 12.0764 8.01572 12.0364 8.05581C11.9964 8.07585 11.9564 8.10592 11.9164 8.11594C11.6664 8.2362 11.4764 8.44667 11.3364 8.67717C11.0864 8.68719 10.8264 8.67717 10.5764 8.66715C10.3764 8.65713 10.1764 8.62706 9.97644 8.60702C9.87644 8.58697 9.77644 8.57695 9.67644 8.54688C9.51644 8.5068 9.35644 8.46671 9.19644 8.40658C9.11644 8.38653 9.03644 8.35647 8.96644 8.3264C8.95644 8.3264 8.94644 8.31638 8.93644 8.31638C8.93644 8.31638 8.93644 8.31638 8.92644 8.30636C8.76644 8.21616 8.60644 8.13599 8.44644 8.03577C8.39644 7.99568 8.33644 7.95559 8.28644 7.9155C8.27644 7.9155 8.27644 7.9155 8.26644 7.90548C8.15644 7.78522 8.03644 7.67498 7.93644 7.55471C7.75644 7.35428 7.90644 7.5046 7.93644 7.55471C7.86644 7.44447 7.79644 7.32421 7.73644 7.20395C7.69644 7.13379 7.66644 7.06364 7.63644 6.98346C7.61644 6.97344 7.61644 6.97344 7.61644 6.9534C7.55644 6.773 7.50644 6.60263 7.46644 6.42224C7.45644 6.3621 7.44644 6.30197 7.43644 6.24184C7.43644 6.21178 7.42644 6.16167 7.42644 6.14162C7.42644 6.05143 7.42644 5.96123 7.42644 5.87103C7.43644 5.76079 7.49644 5.46013 7.43644 5.7207Z" fill="#1E1E1E"/>
</svg>
