<svg width="193" height="14" viewBox="0 0 193 14" fill="none" xmlns="http://www.w3.org/2000/svg">
<path d="M0.748351 3.92096C2.94917 5.74417 5.29803 7.41817 7.49886 9.24138C9.69493 10.9197 11.2513 11.7459 13.7964 10.0786C15.8927 8.71413 18.433 6.90197 20.0519 4.97082C20.2047 4.9665 20.2094 5.1114 20.3622 5.10708C20.6868 5.67803 21.465 6.09113 21.9376 6.51287C23.0404 7.49692 23.9904 8.4853 25.0885 9.32445C26.8214 10.8708 28.6976 12.1231 31.109 11.0397C33.5251 10.1013 34.9769 7.73974 36.9108 6.08975C37.0589 5.94054 37.2069 5.79132 37.3549 5.64211C36.9061 5.94486 37.0684 6.23033 37.6795 6.21306C38.1522 6.6348 38.9209 6.75811 39.5415 7.03063C40.63 7.58 41.7186 8.12936 42.8071 8.67872C45.2945 9.91371 47.6386 11.4428 49.9827 12.9719C50.7656 13.5299 52.1312 13.2013 52.7234 12.6044C53.7501 11.2701 54.7816 10.0807 55.8083 8.74642C56.3957 8.00467 56.9831 7.26292 57.5705 6.52116C57.7185 6.37195 57.8665 6.22273 58.0098 5.92862C58.1578 5.77941 58.1579 5.77941 58.1579 5.77941C59.552 6.32014 60.8123 7.44477 62.0631 8.27961C63.4667 9.11013 64.8751 10.0856 66.4315 10.9118C69.0859 12.5771 71.7118 13.3731 74.5482 11.2625C76.635 9.60821 78.5689 7.95821 80.6557 6.3039C82.3744 7.41558 84.0883 8.38237 85.9598 9.48973C87.6737 10.4565 89.4019 11.858 91.5267 11.3629C93.4987 10.872 95.2751 9.08147 96.9177 7.8748C97.8154 7.26931 98.7131 6.66382 99.4581 6.06264C100.356 5.45715 100.967 5.43988 102.051 5.84435C105.612 7.19401 108.453 9.86933 112.44 10.1918C116.579 10.5099 119.397 7.81971 122.539 5.70049C123.584 4.94578 123.436 5.09499 124.53 5.78925C125.465 6.34294 126.248 6.90094 127.184 7.45462C129.055 8.56198 130.927 9.66934 133.08 10.0436C135.229 10.2729 137.034 9.35175 138.991 8.42624C140.047 7.96133 141.102 7.49641 142.157 7.0315C143.212 6.56659 144.86 5.50482 146.23 5.32106C148.064 5.26925 150.408 6.79835 151.969 7.76945C153.688 8.88114 155.12 10.581 157.273 10.9553C159.273 11.3338 161.236 10.5532 162.726 9.35088C164.368 8.14422 165.835 6.21738 167.993 6.73653C170.146 7.11077 171.879 8.65714 173.746 9.61961C175.77 10.7227 177.937 11.5316 180.391 11.7523C184.841 12.2067 189.373 10.4833 191.694 6.64689C193.141 4.14048 189.097 2.07928 187.65 4.5857C185.62 7.97877 181.189 8.10398 177.776 6.6051C174.362 5.10622 171.517 2.286 167.54 2.25336C165.701 2.16028 164.045 2.93225 162.545 3.84481C161.351 4.74873 159.288 7.12752 157.732 6.30132C156.18 5.62001 154.753 4.065 153.192 3.0939C151.478 2.12712 149.458 1.16897 147.615 0.930984C145.62 0.697318 143.963 1.4693 142.153 2.24559C139.89 3.17973 137.641 4.54857 135.373 5.33781C133.405 5.97353 131.52 4.43148 129.963 3.60527C128.402 2.63417 126.664 0.942901 124.669 0.709235C121.131 0.0840545 118.361 4.2232 115.496 5.4644C112.177 6.86346 108.874 4.05619 106.076 2.68494C104.362 1.71816 102.347 0.904905 100.371 1.25083C98.2412 1.60107 96.46 3.24674 94.8174 4.45341C93.9197 5.0589 92.5874 6.40183 91.5274 6.72184C91.3746 6.72616 91.0833 7.16949 91.0833 7.16949C90.7777 7.17812 89.6797 6.33896 89.3693 6.2027C87.1828 4.81418 84.8434 3.42997 82.6569 2.04145C82.6569 2.04145 82.5041 2.04577 82.4993 1.90087C81.7164 1.34288 80.4893 1.23252 79.6011 2.1278C78.2593 3.18094 77.0703 4.22976 75.7284 5.28289C75.1363 5.87975 74.3866 6.33603 73.7945 6.93288C73.3456 7.23563 72.4622 8.27581 71.8558 8.43798C70.6382 8.61742 68.4327 6.64931 67.4969 6.09563C66.0933 5.2651 64.8425 4.43026 63.4389 3.59974C61.2523 2.21122 58.5836 0.111165 56.2056 2.2088C55.0165 3.25762 54.1473 4.73249 53.2686 5.91757C52.6813 6.65932 51.9458 7.55029 51.3585 8.29204C47.4532 5.79184 43.4047 3.58575 39.0696 1.96788C36.4389 1.027 34.9585 2.51914 33.1774 4.16482C32.2892 5.0601 31.4105 6.24518 30.36 6.85499C29.4623 7.46048 30.0639 7.15342 29.2857 6.74032C28.8178 6.46348 28.1829 5.75626 27.7103 5.33453C26.6075 4.35047 25.6575 3.3621 24.5595 2.52294C23.7718 1.82005 22.8218 0.831676 21.738 0.427209C19.2649 -0.373092 17.7988 1.55374 16.1609 2.9053C15.1199 3.80491 14.0789 4.70451 12.8851 5.60843C12.8851 5.60843 11.9874 6.21392 11.5386 6.51667C11.381 6.37609 11.2235 6.23551 11.0659 6.09493C8.86511 4.27172 6.51625 2.59772 4.31543 0.77451C1.65623 -1.03575 -1.45249 2.09775 0.748351 3.92096Z" fill="#59C69F"/>
</svg>
