<svg width="218" height="13" viewBox="0 0 218 13" fill="none" xmlns="http://www.w3.org/2000/svg">
<path d="M0.8479 3.68272C3.34676 5.50195 6.01367 7.17228 8.51253 8.99151C11.006 10.6662 12.7731 11.4905 15.6629 9.82693C18.043 8.4654 20.9274 6.65721 22.7655 4.73028C22.9389 4.72597 22.9443 4.87055 23.1178 4.86624C23.4864 5.43595 24.3699 5.84815 24.9066 6.26896C26.1587 7.25086 27.2374 8.23707 28.4841 9.07439C30.4517 10.6174 32.582 11.8669 35.3199 10.7859C38.0631 9.84951 39.7115 7.49315 41.9074 5.84677C42.0755 5.69788 42.2435 5.54899 42.4116 5.4001C41.902 5.70219 42.0863 5.98704 42.7802 5.96981C43.3168 6.39062 44.1896 6.51366 44.8943 6.78559C46.1302 7.33375 47.3661 7.88191 48.6021 8.43008C51.4263 9.66236 54.0878 11.1881 56.7494 12.7139C57.6384 13.2707 59.1889 12.9427 59.8612 12.3472C61.027 11.0158 62.1981 9.829 63.3639 8.49763C64.0308 7.7575 64.6978 7.01736 65.3647 6.27723C65.5328 6.12834 65.7008 5.97946 65.8635 5.68599C66.0316 5.5371 66.0316 5.5371 66.0316 5.5371C67.6145 6.07665 69.0455 7.19882 70.4657 8.03184C72.0594 8.86054 73.6584 9.83383 75.4256 10.6582C78.4395 12.3199 81.421 13.1142 84.6415 11.0082C87.0108 9.35752 89.2067 7.71114 91.576 6.06045C93.5274 7.1697 95.4735 8.13437 97.5984 9.23931C99.5444 10.204 101.507 11.6024 103.919 11.1083C106.158 10.6186 108.175 8.83194 110.04 7.62791C111.059 7.02374 112.079 6.41957 112.925 5.81972C113.944 5.21555 114.638 5.19832 115.868 5.6019C119.912 6.94861 123.137 9.61808 127.664 9.93981C132.364 10.2572 135.563 7.57294 139.131 5.45835C140.318 4.7053 140.15 4.85418 141.391 5.54693C142.454 6.0994 143.343 6.65618 144.405 7.20865C146.53 8.31359 148.655 9.41853 151.1 9.79196C153.539 10.0208 155.589 9.10163 157.811 8.17814C159.01 7.71425 160.208 7.25035 161.406 6.78645C162.604 6.32256 164.474 5.26311 166.03 5.07976C168.112 5.02806 170.774 6.55382 172.546 7.52279C174.498 8.63204 176.124 10.3282 178.569 10.7017C180.84 11.0794 183.068 10.3005 184.76 9.10077C186.625 7.89674 188.289 5.97412 190.74 6.49213C193.185 6.86555 195.152 8.40854 197.272 9.3689C199.57 10.4695 202.031 11.2767 204.818 11.4969C209.87 11.9503 215.015 10.2307 217.65 6.40269C219.293 3.90175 214.702 1.84507 213.059 4.346C210.754 7.73165 205.724 7.85659 201.848 6.36099C197.972 4.86539 194.741 2.05134 190.225 2.01877C188.138 1.92588 186.257 2.69617 184.555 3.60673C183.199 4.50868 180.857 6.88227 179.09 6.05787C177.328 5.37805 175.707 3.82645 173.935 2.85747C171.989 1.8928 169.696 0.936744 167.603 0.699281C165.337 0.466127 163.456 1.23642 161.401 2.01101C158.831 2.94311 156.278 4.30895 153.703 5.09647C151.469 5.7308 149.328 4.19212 147.561 3.36772C145.788 2.39874 143.815 0.711172 141.549 0.478018C137.532 -0.145795 134.387 3.98429 131.134 5.22279C127.366 6.61878 123.615 3.81766 120.439 2.4494C118.493 1.48473 116.205 0.67326 113.961 1.01842C111.543 1.3679 109.521 3.00997 107.655 4.214C106.636 4.81817 105.123 6.15816 103.92 6.47747C103.746 6.48178 103.416 6.92414 103.416 6.92414C103.069 6.93275 101.822 6.09543 101.47 5.95947C98.987 4.57399 96.3308 3.19281 93.8482 1.80732C93.8482 1.80732 93.6747 1.81163 93.6693 1.66705C92.7803 1.11027 91.3871 1.00016 90.3786 1.89348C88.8551 2.94431 87.5051 3.99084 85.9816 5.04167C85.3092 5.63722 84.458 6.0925 83.7857 6.68805C83.2761 6.99014 82.273 8.02805 81.5845 8.18986C80.202 8.3689 77.6978 6.4051 76.6353 5.85263C75.0416 5.02392 73.6214 4.19091 72.0278 3.3622C69.5451 1.97672 66.515 -0.118742 63.8149 1.9743C62.4649 3.02083 61.478 4.49247 60.4803 5.67496C59.8134 6.41509 58.9784 7.30411 58.3115 8.04424C53.8774 5.54951 49.2806 3.34824 44.3584 1.73391C41.3715 0.79509 39.6907 2.28397 37.6684 3.92604C36.6599 4.81937 35.6622 6.00186 34.4694 6.61033C33.4501 7.2145 34.1333 6.90811 33.2497 6.49591C32.7185 6.21968 31.9976 5.51401 31.4609 5.09319C30.2088 4.11129 29.1302 3.12508 27.8835 2.28776C26.9891 1.5864 25.9104 0.600193 24.6799 0.196609C21.8718 -0.60194 20.2072 1.32068 18.3476 2.66928C17.1656 3.56692 15.9836 4.46456 14.6282 5.3665C14.6282 5.3665 13.6089 5.97067 13.0993 6.27275C12.9204 6.13248 12.7415 5.99221 12.5627 5.85194C10.0638 4.03271 7.39686 2.36238 4.89802 0.543151C1.87874 -1.26315 -1.65096 1.8635 0.8479 3.68272Z" fill="#F7C300"/>
</svg>
