<svg width="302" height="835" viewBox="0 0 302 835" fill="none" xmlns="http://www.w3.org/2000/svg">
<path fill-rule="evenodd" clip-rule="evenodd" d="M73.1148 208.287C73.6089 208.436 74.1937 208.665 74.6737 209.084C75.232 209.57 75.5257 210.198 75.7156 210.693C76.1576 211.787 76.5194 213.318 75.7687 214.69L75.7671 214.693C75.1634 215.787 74.0033 216.448 72.8721 216.73C71.7256 217.015 70.5581 216.953 69.5004 216.775L69.4949 216.774L69.4893 216.773C68.9747 216.68 68.3078 216.535 67.7198 216.153C67.169 215.802 66.7886 215.314 66.5383 214.821C65.4842 212.823 66.0774 210.782 67.4578 209.481C68.8199 208.197 70.9557 207.603 73.1148 208.287ZM68.7697 210.873C67.9283 211.666 67.6283 212.793 68.2328 213.934L68.2371 213.942L68.2413 213.95C68.3718 214.209 68.5432 214.41 68.7491 214.54L68.7548 214.544L68.7604 214.548C69.0023 214.706 69.3368 214.802 69.8231 214.89C70.74 215.043 71.6164 215.071 72.4101 214.873C73.2201 214.672 73.8281 214.246 74.0917 213.77C74.413 213.181 74.3277 212.361 73.9394 211.402L73.9359 211.394L73.9325 211.385C73.7756 210.975 73.6187 210.701 73.4173 210.526C73.2408 210.372 72.9617 210.239 72.5557 210.116L72.5489 210.114L72.5421 210.112C71.0452 209.636 69.6297 210.062 68.7697 210.873Z" fill="#FFD540"/>
<path d="M11.2004 667.143C10.7454 667.318 10.2651 667.493 9.81012 667.668C8.74846 668.093 7.71208 668.518 6.6757 668.994C4.65348 669.919 2.73238 671.02 0.98822 672.396C0.457389 672.821 0.48266 673.696 0.912381 674.172C0.937658 674.222 0.988212 674.247 1.03877 674.272C1.13988 674.447 1.26627 674.622 1.44321 674.747C4.19848 676.898 6.92847 679.05 9.68374 681.201C10.1135 681.551 10.8212 681.401 11.2257 681.076C12.161 680.25 12.1862 678.875 12.3884 677.724L12.9951 674.122C13.2226 672.846 13.4248 671.57 13.6523 670.294C13.8293 669.194 14.5371 667.343 13.0709 666.817C12.3884 666.592 11.8071 666.892 11.2004 667.143ZM10.4926 673.897C10.341 674.847 10.164 675.798 10.0123 676.748C9.93652 677.199 9.86068 677.649 9.78485 678.099C7.81319 676.548 5.81625 674.997 3.84459 673.446C5.03264 672.646 6.27125 671.92 7.56041 671.32C8.41985 670.92 9.30457 670.545 10.1893 670.194C10.5179 670.069 10.8465 669.919 11.2004 669.769C11.1246 670.144 11.074 670.52 10.9982 670.895L10.4926 673.897Z" fill="#E9E9E9"/>
<path d="M253.611 73.4045C253.156 73.5797 252.675 73.7548 252.22 73.9299C251.159 74.3551 250.122 74.7804 249.086 75.2557C247.064 76.1812 245.143 77.2819 243.398 78.6577C242.868 79.083 242.893 79.9585 243.323 80.4338C243.348 80.4838 243.398 80.5088 243.449 80.5338C243.55 80.709 243.676 80.8841 243.853 81.0091C246.609 83.1604 249.339 85.3117 252.094 87.463C252.524 87.8132 253.231 87.6631 253.636 87.338C254.571 86.5125 254.596 85.1366 254.799 83.9859L255.405 80.3838C255.633 79.108 255.835 77.8322 256.062 76.5564C256.239 75.4558 256.947 73.6047 255.481 73.0793C254.799 72.8542 254.217 73.1544 253.611 73.4045ZM252.903 80.1586C252.751 81.1092 252.574 82.0598 252.423 83.0103C252.347 83.4606 252.271 83.9109 252.195 84.3612C250.223 82.8102 248.226 81.2593 246.255 79.7083C247.443 78.9079 248.681 78.1824 249.971 77.5821C250.83 77.1818 251.715 76.8066 252.599 76.4564C252.928 76.3313 253.257 76.1812 253.611 76.0311C253.535 76.4064 253.484 76.7816 253.408 77.1568L252.903 80.1586Z" fill="#E9E9E9"/>
<path d="M24.6105 308.405C24.1556 308.58 23.6753 308.755 23.2203 308.93C22.1586 309.355 21.1222 309.78 20.0859 310.256C18.0636 311.181 16.1425 312.282 14.3984 313.658C13.8675 314.083 13.8928 314.959 14.3225 315.434C14.3478 315.484 14.3984 315.509 14.4489 315.534C14.55 315.709 14.6764 315.884 14.8534 316.009C17.6086 318.16 20.3386 320.312 23.0939 322.463C23.5236 322.813 24.2314 322.663 24.6358 322.338C25.5711 321.512 25.5964 320.137 25.7986 318.986L26.4053 315.384C26.6328 314.108 26.835 312.832 27.0625 311.556C27.2394 310.456 27.9472 308.605 26.4811 308.079C25.7986 307.854 25.2172 308.154 24.6105 308.405ZM23.9028 315.159C23.7511 316.109 23.5742 317.06 23.4225 318.01C23.3467 318.461 23.2708 318.911 23.195 319.361C21.2233 317.81 19.2264 316.259 17.2547 314.708C18.4428 313.908 19.6814 313.182 20.9706 312.582C21.83 312.182 22.7147 311.807 23.5994 311.456C23.9281 311.331 24.2567 311.181 24.6105 311.031C24.5347 311.406 24.4842 311.782 24.4083 312.157L23.9028 315.159Z" fill="#59C69F"/>
<path d="M279.611 316.405C279.156 316.58 278.675 316.755 278.22 316.93C277.159 317.355 276.122 317.78 275.086 318.256C273.064 319.181 271.143 320.282 269.398 321.658C268.868 322.083 268.893 322.959 269.323 323.434C269.348 323.484 269.398 323.509 269.449 323.534C269.55 323.709 269.676 323.884 269.853 324.009C272.609 326.16 275.339 328.312 278.094 330.463C278.524 330.813 279.231 330.663 279.636 330.338C280.571 329.512 280.596 328.137 280.799 326.986L281.405 323.384C281.633 322.108 281.835 320.832 282.062 319.556C282.239 318.456 282.947 316.605 281.481 316.079C280.799 315.854 280.217 316.154 279.611 316.405ZM278.903 323.159C278.751 324.109 278.574 325.06 278.423 326.01C278.347 326.461 278.271 326.911 278.195 327.361C276.223 325.81 274.226 324.259 272.255 322.708C273.443 321.908 274.681 321.182 275.971 320.582C276.83 320.182 277.715 319.807 278.599 319.456C278.928 319.331 279.257 319.181 279.611 319.031C279.535 319.406 279.484 319.782 279.408 320.157L278.903 323.159Z" fill="#E9E9E9"/>
<path fill-rule="evenodd" clip-rule="evenodd" d="M89.0031 744.389C89.5589 744.592 90.2167 744.903 90.7567 745.471C91.3846 746.131 91.7151 746.983 91.9287 747.655C92.4258 749.14 92.8328 751.218 91.9883 753.079L91.9866 753.083C91.3075 754.567 90.0026 755.465 88.7302 755.847C87.4405 756.234 86.1272 756.15 84.9375 755.909L84.9312 755.907L84.925 755.906C84.3461 755.78 83.596 755.583 82.9345 755.064C82.315 754.588 81.887 753.926 81.6056 753.257C80.4198 750.545 81.0871 747.775 82.6398 746.01C84.172 744.267 86.5744 743.461 89.0031 744.389ZM84.1155 747.899C83.169 748.975 82.8316 750.505 83.5115 752.053L83.5165 752.064L83.5212 752.076C83.6679 752.426 83.8607 752.699 84.0924 752.876L84.0987 752.881L84.105 752.886C84.3771 753.101 84.7534 753.231 85.3005 753.35C86.3318 753.559 87.3177 753.596 88.2105 753.328C89.1216 753.055 89.8055 752.477 90.102 751.83C90.4634 751.032 90.3675 749.918 89.9307 748.618L89.9267 748.606L89.923 748.594C89.7464 748.037 89.5699 747.666 89.3434 747.428C89.1448 747.219 88.8309 747.038 88.3743 746.872L88.3666 746.869L88.3589 746.866C86.6751 746.22 85.0829 746.798 84.1155 747.899Z" fill="#59C69F"/>
<path fill-rule="evenodd" clip-rule="evenodd" d="M283.003 96.3894C283.559 96.5923 284.217 96.903 284.757 97.4706C285.385 98.1307 285.715 98.9833 285.929 99.6546C286.426 101.14 286.833 103.218 285.988 105.079L285.987 105.083C285.307 106.567 284.003 107.465 282.73 107.847C281.44 108.234 280.127 108.15 278.937 107.909L278.931 107.907L278.925 107.906C278.346 107.78 277.596 107.583 276.935 107.064C276.315 106.588 275.887 105.926 275.606 105.257C274.42 102.545 275.087 99.7752 276.64 98.0096C278.172 96.2672 280.574 95.4615 283.003 96.3894ZM278.115 99.8985C277.169 100.975 276.832 102.505 277.512 104.053L277.516 104.064L277.521 104.076C277.668 104.426 277.861 104.699 278.092 104.876L278.099 104.881L278.105 104.886C278.377 105.101 278.753 105.231 279.3 105.35C280.332 105.559 281.318 105.596 282.21 105.328C283.122 105.055 283.806 104.477 284.102 103.83C284.463 103.032 284.367 101.918 283.931 100.618L283.927 100.606L283.923 100.594C283.746 100.037 283.57 99.6659 283.343 99.4278C283.145 99.2191 282.831 99.038 282.374 98.8719L282.367 98.8691L282.359 98.8661C280.675 98.2202 279.083 98.7984 278.115 99.8985Z" fill="#59C69F"/>
<path d="M130.727 578.569C130.695 578.192 130.674 577.798 130.626 577.411C130.551 576.531 130.461 575.64 130.332 574.774C130.092 573.052 129.68 571.389 129.043 569.797C128.85 569.319 128.201 569.173 127.756 569.417C127.719 569.44 127.67 569.482 127.649 569.516C127.488 569.557 127.333 569.626 127.199 569.732C125.011 571.426 122.807 573.109 120.608 574.82C120.265 575.08 120.195 575.655 120.377 576.008C120.789 576.886 121.797 577.139 122.617 577.513L125.136 578.645C126.031 579.042 126.942 579.449 127.827 579.862C128.614 580.215 129.815 581.089 130.528 580.063C130.871 579.588 130.759 579.089 130.727 578.569ZM125.882 576.782C125.201 576.473 124.537 576.174 123.856 575.864C123.545 575.716 123.224 575.585 122.913 575.437C124.489 574.216 126.066 572.994 127.659 571.783C127.991 572.825 128.247 573.915 128.408 575.015C128.525 575.756 128.6 576.493 128.675 577.23C128.701 577.509 128.728 577.787 128.771 578.076C128.508 577.958 128.246 577.841 127.983 577.723L125.882 576.782Z" fill="#DADADA"/>
<path fill-rule="evenodd" clip-rule="evenodd" d="M236.115 0.286923C236.609 0.436423 237.194 0.665371 237.674 1.08363C238.232 1.56996 238.526 2.1982 238.716 2.69288C239.158 3.78723 239.519 5.31834 238.769 6.68976L238.767 6.6926C238.163 7.7866 237.003 8.44794 235.872 8.72951C234.726 9.01491 233.558 8.95263 232.5 8.7748L232.495 8.77387L232.489 8.77287C231.975 8.6801 231.308 8.53497 230.72 8.1526C230.169 7.80196 229.789 7.3137 229.538 6.8212C228.484 4.82289 229.077 2.78176 230.458 1.48073C231.82 0.196881 233.956 -0.396823 236.115 0.286923ZM231.77 2.87261C230.928 3.66568 230.628 4.79289 231.233 5.93389L231.237 5.94213L231.241 5.95046C231.372 6.20867 231.543 6.41002 231.749 6.54049L231.755 6.54407L231.76 6.54773C232.002 6.70579 232.337 6.80159 232.823 6.88952C233.74 7.04318 234.616 7.07102 235.41 6.87345C236.22 6.67184 236.828 6.24622 237.092 5.76983C237.413 5.18128 237.328 4.361 236.939 3.40241L236.936 3.39378L236.933 3.38508C236.776 2.97477 236.619 2.70122 236.417 2.52578C236.241 2.37195 235.962 2.23855 235.556 2.11611L235.549 2.11405L235.542 2.11189C234.045 1.63597 232.63 2.06197 231.77 2.87261Z" fill="#FFD540"/>
<path d="M189.381 439.78C189.771 439.635 190.183 439.49 190.573 439.346C191.483 438.994 192.371 438.643 193.26 438.25C194.993 437.486 196.64 436.577 198.135 435.44C198.59 435.089 198.568 434.365 198.2 433.973C198.178 433.931 198.135 433.911 198.091 433.89C198.005 433.746 197.896 433.601 197.745 433.498C195.383 431.72 193.043 429.943 190.681 428.166C190.313 427.877 189.706 428.001 189.36 428.269C188.558 428.951 188.536 430.088 188.363 431.038L187.843 434.014C187.648 435.068 187.475 436.122 187.28 437.176C187.128 438.085 186.521 439.614 187.778 440.048C188.363 440.234 188.861 439.986 189.381 439.78ZM189.988 434.2C190.118 433.415 190.27 432.63 190.4 431.844C190.465 431.472 190.53 431.1 190.595 430.728C192.285 432.01 193.996 433.291 195.686 434.572C194.668 435.233 193.606 435.833 192.501 436.329C191.765 436.659 191.006 436.969 190.248 437.258C189.966 437.362 189.685 437.486 189.381 437.61C189.446 437.3 189.49 436.99 189.555 436.68L189.988 434.2Z" fill="#E9E9E9"/>
<path d="M243.679 559.824C243.925 560.142 244.17 560.481 244.436 560.799C245.01 561.541 245.604 562.283 246.218 562.983C247.426 564.382 248.757 565.632 250.252 566.692C250.703 567.01 251.378 566.777 251.645 566.311C251.665 566.268 251.686 566.205 251.686 566.162C251.808 566.035 251.911 565.887 251.972 565.717C252.996 562.983 254.041 560.248 255.064 557.492C255.228 557.068 254.962 556.517 254.593 556.305C253.713 555.754 252.648 556.093 251.686 556.22L248.737 556.623C247.692 556.771 246.628 556.92 245.583 557.047C244.662 557.174 243.064 557.068 243.003 558.382C242.962 558.997 243.351 559.379 243.679 559.824ZM249.126 558.7C249.925 558.594 250.703 558.488 251.501 558.382C251.87 558.34 252.238 558.276 252.607 558.234C251.87 560.206 251.133 562.177 250.375 564.148C249.474 563.406 248.614 562.58 247.836 561.689C247.303 561.096 246.812 560.481 246.32 559.866C246.136 559.633 245.952 559.4 245.747 559.167C246.054 559.124 246.361 559.082 246.669 559.04L249.126 558.7Z" fill="#59C69F"/>
<path fill-rule="evenodd" clip-rule="evenodd" d="M294.406 834.13C293.912 833.981 293.327 833.752 292.847 833.333C292.289 832.847 291.995 832.219 291.805 831.724C291.363 830.63 291.002 829.099 291.752 827.727L291.754 827.725C292.358 826.631 293.518 825.969 294.649 825.688C295.795 825.402 296.963 825.464 298.021 825.642L298.026 825.643L298.032 825.644C298.546 825.737 299.213 825.882 299.801 826.265C300.352 826.615 300.732 827.103 300.983 827.596C302.037 829.594 301.444 831.635 300.063 832.936C298.701 834.22 296.565 834.814 294.406 834.13ZM298.751 831.545C299.593 830.751 299.893 829.624 299.288 828.483L299.284 828.475L299.28 828.467C299.149 828.208 298.978 828.007 298.772 827.877L298.766 827.873L298.761 827.869C298.519 827.711 298.184 827.616 297.698 827.528C296.781 827.374 295.905 827.346 295.111 827.544C294.301 827.745 293.693 828.171 293.429 828.647C293.108 829.236 293.193 830.056 293.582 831.015L293.585 831.023L293.588 831.032C293.745 831.442 293.902 831.716 294.104 831.891C294.28 832.045 294.559 832.179 294.965 832.301L294.972 832.303L294.979 832.305C296.476 832.781 297.891 832.355 298.751 831.545Z" fill="#FFD540"/>
</svg>
