<svg width="231" height="13" viewBox="0 0 231 13" fill="none" xmlns="http://www.w3.org/2000/svg">
<path d="M0.898437 3.68274C3.54631 5.50196 6.37227 7.17229 9.02014 8.99151C11.6623 10.6662 13.5348 11.4906 16.5969 9.82694C19.119 8.46541 22.1753 6.65722 24.123 4.73029C24.3069 4.72598 24.3126 4.87056 24.4964 4.86626C24.8869 5.43596 25.8232 5.84816 26.3918 6.26897C27.7186 7.25087 28.8616 8.23708 30.1826 9.0744C32.2676 10.6174 34.5249 11.8669 37.4261 10.7859C40.3329 9.84951 42.0797 7.49316 44.4064 5.84678C44.5845 5.69789 44.7626 5.549 44.9407 5.40012C44.4007 5.7022 44.596 5.98705 45.3313 5.96982C45.8999 6.39063 46.8247 6.51367 47.5715 6.7856C48.8811 7.33376 50.1907 7.88192 51.5004 8.43008C54.493 9.66237 57.3133 11.1881 60.1335 12.7139C61.0755 13.2707 62.7185 12.9427 63.4309 12.3472C64.6662 11.0158 65.9072 9.82901 67.1425 8.49763C67.8492 7.7575 68.5559 7.01737 69.2626 6.27724C69.4407 6.12836 69.6187 5.97947 69.7911 5.686C69.9692 5.53711 69.9693 5.53711 69.9693 5.53711C71.6465 6.07666 73.1629 7.19883 74.6678 8.03184C76.3565 8.86055 78.0509 9.83383 79.9235 10.6582C83.1171 12.3199 86.2764 13.1142 89.6889 11.0082C92.1996 9.35753 94.5263 7.71115 97.0369 6.06046C99.1048 7.16971 101.167 8.13438 103.418 9.23932C105.481 10.204 107.56 11.6024 110.116 11.1083C112.489 10.6186 114.626 8.83194 116.602 7.62792C117.682 7.02375 118.762 6.41958 119.659 5.81973C120.739 5.21556 121.474 5.19833 122.778 5.60191C127.063 6.94862 130.48 9.61808 135.277 9.93981C140.257 10.2572 143.647 7.57295 147.427 5.45836C148.685 4.70531 148.507 4.8542 149.823 5.54694C150.949 6.09941 151.89 6.65619 153.016 7.20866C155.268 8.31359 157.52 9.41853 160.11 9.79196C162.695 10.0208 164.867 9.10163 167.222 8.17815C168.492 7.71425 169.761 7.25036 171.031 6.78646C172.301 6.32257 174.283 5.26312 175.931 5.07977C178.137 5.02807 180.957 6.55383 182.836 7.5228C184.903 8.63205 186.626 10.3282 189.217 10.7017C191.624 11.0794 193.985 10.3005 195.778 9.10077C197.754 7.89674 199.518 5.97413 202.114 6.49213C204.705 6.86556 206.79 8.40855 209.036 9.36891C211.471 10.4695 214.079 11.2767 217.032 11.4969C222.385 11.9503 227.837 10.2307 230.63 6.4027C232.371 3.90176 227.505 1.84508 225.764 4.34602C223.322 7.73166 217.992 7.85659 213.885 6.361C209.778 4.8654 206.354 2.05135 201.569 2.01878C199.358 1.9259 197.364 2.69619 195.56 3.60675C194.124 4.50869 191.642 6.88227 189.769 6.05788C187.903 5.37806 186.185 3.82646 184.307 2.85748C182.245 1.89281 179.815 0.936761 177.598 0.699299C175.197 0.466145 173.203 1.23643 171.026 2.01103C168.303 2.94313 165.597 4.30896 162.868 5.09648C160.502 5.73081 158.233 4.19213 156.36 3.36773C154.482 2.39876 152.391 0.711189 149.99 0.478035C145.734 -0.145776 142.401 3.98431 138.954 5.2228C134.962 6.61879 130.987 3.81767 127.621 2.44942C125.559 1.48475 123.135 0.673278 120.757 1.01844C118.195 1.36791 116.052 3.00999 114.075 4.21401C112.995 4.81818 111.392 6.15817 110.117 6.47748C109.933 6.48179 109.583 6.92415 109.583 6.92415C109.215 6.93276 107.894 6.09544 107.521 5.95948C104.89 4.574 102.075 3.19282 99.4446 1.80734C99.4446 1.80734 99.2608 1.81165 99.2551 1.66707C98.3131 1.11029 96.8368 1.00017 95.7682 1.8935C94.1538 2.94433 92.7233 3.99085 91.1089 5.04168C90.3965 5.63723 89.4945 6.09251 88.7821 6.68806C88.242 6.99015 87.1791 8.02805 86.4496 8.18986C84.9847 8.36891 82.3311 6.40511 81.2053 5.85264C79.5166 5.02393 78.0117 4.19092 76.323 3.36222C73.6923 1.97673 70.4815 -0.118723 67.6204 1.97432C66.1898 3.02084 65.1441 4.49249 64.0869 5.67497C63.3802 6.4151 62.4954 7.30412 61.7887 8.04425C57.0902 5.54952 52.2193 3.34826 47.0037 1.73393C43.8386 0.795108 42.0576 2.28398 39.9146 3.92606C38.846 4.81938 37.7888 6.00187 36.5249 6.61034C35.4449 7.21451 36.1687 6.90812 35.2325 6.49592C34.6695 6.21969 33.9057 5.51402 33.337 5.09321C32.0102 4.11131 30.8673 3.1251 29.5462 2.28778C28.5985 1.58642 27.4555 0.600211 26.1516 0.196628C23.1761 -0.60192 21.4122 1.32069 19.4417 2.6693C18.1892 3.56693 16.9368 4.46457 15.5005 5.36651C15.5005 5.36651 14.4204 5.97068 13.8804 6.27276C13.6909 6.13249 13.5013 5.99222 13.3118 5.85195C10.6639 4.03273 7.83795 2.36239 5.19009 0.54317C1.99075 -1.26313 -1.74942 1.86352 0.898437 3.68274Z" fill="#59C69F"/>
</svg>
