<svg width="15" height="264" viewBox="0 0 15 264" fill="none" xmlns="http://www.w3.org/2000/svg">
<path d="M8.38039 8.54125C8.38039 8.54125 8.37081 8.54104 8.36122 8.54082C8.36122 8.54082 8.37081 8.54104 8.38039 8.54125Z" fill="#F7C300"/>
<path d="M12.4709 254.614C12.1912 254.237 11.8911 253.917 11.4742 253.679C11.01 253.412 10.5714 253.298 10.0648 253.22C10.9652 244.652 10.6867 236.058 10.2551 227.451C9.79858 218.206 9.40918 208.963 9.14456 199.713C8.62311 181.299 8.52397 162.865 8.85592 144.451C9.04793 134.013 9.3835 133.292 9.84367 122.869L9.84729 122.698C10.7884 114.017 10.5028 105.308 10.0636 96.606C9.60705 87.3613 9.21765 78.118 8.95304 68.868C8.43159 50.4537 8.34183 61.1425 8.67397 42.7187C8.85372 32.8604 9.16785 22.9955 9.5874 13.1331C10.0794 12.9918 10.5632 12.7838 11.0285 12.5469C12.0853 11.9998 12.9921 11.2876 13.7214 10.3528C14.4507 9.41798 14.8103 8.28473 14.9594 7.12777C15.2377 4.85146 14.056 2.69485 12.2723 1.34276C11.4701 0.735284 10.4806 0.37091 9.49644 0.206375C8.21658 -0.0313076 6.92372 -0.107602 5.66075 0.216206C4.29174 0.566188 3.13433 1.33933 2.29575 2.45243C1.94026 2.93907 1.67881 3.51339 1.54175 4.09999C1.30858 5.15046 1.45221 6.06665 1.88196 7.05578C2.10112 7.57422 2.77235 8.02662 3.28688 8.18071C3.39171 8.21157 3.5159 8.23336 3.63071 8.24542C3.49392 8.36601 3.37569 8.51555 3.28621 8.66573C2.97744 9.21047 2.8194 9.88219 3.0078 10.495C3.1958 11.1269 3.56114 11.5345 4.08003 11.9359C4.34417 12.1415 4.62787 12.3285 4.92156 12.4967C3.32988 48.7626 3.39545 55.991 5.14068 92.2549C5.627 102.356 6.35153 112.53 5.15083 122.603C5.12844 122.755 5.12522 122.907 5.14138 123.05L5.14057 123.088C3.52369 159.638 3.57385 186.55 5.33201 223.109C5.79146 232.668 6.45076 242.298 5.50093 251.844C5.3955 251.842 5.2809 251.82 5.17527 251.827C3.87081 251.846 2.57768 252.236 1.60934 253.137C0.553133 254.112 0.207098 255.512 0.0441672 256.868C-0.106364 258.091 0.135856 259.333 0.649249 260.448C1.59319 262.514 3.83691 263.876 6.08779 263.993C7.28501 264.057 8.42419 263.693 9.52644 263.261C10.6964 262.802 11.7472 262.083 12.3559 260.955C12.6553 260.401 12.869 259.816 12.9971 259.201C13.1358 258.538 13.294 257.857 13.2987 257.182C13.2803 256.24 13.0302 255.369 12.4709 254.614ZM8.55478 8.4595C8.49667 8.48674 8.4385 8.51401 8.38039 8.54125C8.38997 8.54146 8.40941 8.53235 8.41899 8.53257C8.40941 8.53235 8.39004 8.54143 8.37087 8.54101C8.34172 8.55938 8.30298 8.57754 8.27402 8.58641C8.01244 8.71374 8.22604 8.58537 8.36122 8.54082C8.26498 8.55771 8.06257 8.61024 7.92738 8.65478C7.84173 8.62435 7.74609 8.61271 7.66043 8.58227C7.63188 8.57213 7.61292 8.5622 7.59395 8.55227C7.24376 8.33525 6.90274 8.13746 6.58191 7.89257C6.34612 7.70663 6.0031 7.6039 5.64909 7.5675C6.29552 6.92565 6.46736 6.05451 6.22709 5.17421C6.2858 5.11845 6.3541 5.06291 6.41281 5.00715C6.42259 4.99786 6.45175 4.97949 6.46133 4.9797C6.4807 4.97062 6.5488 4.92458 6.61669 4.88805C6.71314 4.86166 6.80958 4.83528 6.91561 4.8091C6.95415 4.80045 7.05039 4.78357 7.14664 4.76669C7.25226 4.75952 7.48269 4.74563 7.53061 4.74669C7.84709 4.74422 8.15298 4.78906 8.46886 4.8151C8.51658 4.82567 8.57388 4.83646 8.63098 4.85675C8.80269 4.89861 8.96482 4.94025 9.12655 5.00091C9.14552 5.01084 9.1551 5.01106 9.17407 5.02099C9.29705 5.09981 9.44899 5.16976 9.56239 5.24836C9.65623 5.34555 9.75984 5.43345 9.84389 5.53993C9.87184 5.57859 9.90937 5.61747 9.93732 5.65613C9.99281 5.75247 10.0385 5.8581 10.0571 5.88705C10.0569 5.89655 10.0757 5.91599 10.0848 5.93522C10.121 6.04063 10.1571 6.14605 10.1834 6.26076C10.2014 6.31822 10.2 6.38476 10.2177 6.45173C10.2157 6.54679 10.2041 6.64164 10.2031 6.68917C10.2029 6.69867 10.2023 6.72719 10.2017 6.75571C10.1704 6.87865 10.1388 7.01109 10.0978 7.13382C10.0883 7.1336 10.0781 7.16191 10.0679 7.19021C10.008 7.30301 9.94784 7.4253 9.87854 7.52838C9.85897 7.54696 9.84878 7.57527 9.82921 7.59385C9.73136 7.68678 9.63311 7.79872 9.52567 7.89144C9.5063 7.90052 9.49651 7.90981 9.47714 7.91889C9.34136 7.99196 9.20476 8.10304 9.06898 8.17611C8.90383 8.27705 8.72931 8.36828 8.55478 8.4595ZM7.71067 258.893C7.29533 259.036 6.88039 259.16 6.44729 259.236C6.34187 259.233 6.23644 259.231 6.12143 259.229C6.03557 259.208 5.94952 259.196 5.86386 259.166C5.82573 259.155 5.78779 259.136 5.74966 259.125C5.61689 259.056 5.4937 258.986 5.37091 258.898C5.33318 258.869 5.29544 258.839 5.28626 258.82C5.22996 258.762 5.17367 258.703 5.11737 258.645C5.10798 258.635 5.08922 258.616 5.07065 258.587C5.06127 258.577 5.05189 258.568 5.05209 258.558C5.01516 258.491 4.96864 258.423 4.93192 258.346C4.93212 258.337 4.92273 258.327 4.92293 258.317C4.90477 258.269 4.88681 258.212 4.88721 258.193C4.85129 258.078 4.84432 257.954 4.81798 257.84C4.80424 257.582 4.81925 257.326 4.83426 257.07C4.86643 256.909 4.8986 256.748 4.94036 256.587C4.95953 256.587 4.96931 256.578 4.98848 256.578C5.20912 256.574 5.42956 256.579 5.64959 256.603C6.17471 256.71 6.69943 256.835 7.23434 256.933C7.46355 256.976 7.68379 256.99 7.89444 257.004C7.95054 257.072 7.99685 257.149 8.06273 257.208C8.18492 257.325 8.3075 257.423 8.43987 257.511C8.38572 257.805 8.33156 258.098 8.23907 258.391C8.2185 258.457 8.19812 258.514 8.17775 258.57C8.14819 258.608 8.12842 258.636 8.10824 258.683C8.05972 258.711 8.00141 258.747 7.95289 258.775C7.87541 258.811 7.78834 258.847 7.71067 258.893Z" fill="#F7C300"/>
</svg>
