<svg width="276" height="14" viewBox="0 0 276 14" fill="none" xmlns="http://www.w3.org/2000/svg">
<path d="M274.927 10.034C271.763 8.07483 268.386 6.27601 265.223 4.31685C262.066 2.51339 259.828 1.62558 256.17 3.41716C253.157 4.88343 249.505 6.83071 247.178 8.90586C246.958 8.9105 246.951 8.7548 246.732 8.75944C246.265 8.14591 245.146 7.702 244.467 7.24882C242.882 6.19139 241.516 5.12932 239.938 4.22759C237.446 2.56591 234.749 1.22027 231.283 2.38441C227.81 3.39285 225.723 5.93046 222.943 7.70349C222.73 7.86383 222.517 8.02417 222.305 8.18451C222.95 7.85919 222.716 7.55242 221.838 7.57098C221.159 7.1178 220.054 6.98529 219.161 6.69245C217.597 6.10212 216.032 5.51179 214.467 4.92147C210.891 3.59439 207.522 1.95127 204.152 0.308147C203.027 -0.29146 201.064 0.0616968 200.212 0.703059C198.737 2.13685 197.254 3.41493 195.778 4.84872C194.933 5.64578 194.089 6.44284 193.245 7.23991C193.032 7.40025 192.819 7.56059 192.613 7.87663C192.4 8.03697 192.4 8.03697 192.4 8.03697C190.396 7.45592 188.585 6.24743 186.787 5.35034C184.769 4.45789 182.744 3.40973 180.507 2.52192C176.691 0.732378 172.917 -0.122957 168.839 2.14501C165.839 3.92267 163.059 5.6957 160.06 7.47336C157.589 6.27879 155.125 5.23991 152.435 4.04998C149.971 3.01111 147.487 1.50513 144.433 2.03718C141.598 2.5646 139.044 4.48869 136.683 5.78533C135.393 6.43597 134.102 7.08661 133.031 7.73261C131.741 8.38325 130.862 8.40181 129.304 7.96719C124.184 6.51688 120.101 3.64207 114.37 3.29559C108.42 2.95376 104.37 5.84453 99.8531 8.12177C98.3499 8.93275 98.5627 8.77241 96.9911 8.02638C95.6459 7.43142 94.5204 6.83181 93.1753 6.23684C90.4851 5.0469 87.7948 3.85697 84.6995 3.45482C81.6109 3.20837 79.0163 4.19825 76.2021 5.19277C74.6852 5.69235 73.1683 6.19193 71.6513 6.69151C70.1344 7.19109 67.7663 8.33203 65.7964 8.52948C63.1608 8.58516 59.7912 6.94204 57.547 5.89853C55.0764 4.70395 53.0177 2.87729 49.9224 2.47514C47.0466 2.06835 44.2256 2.90717 42.0839 4.19917C39.7226 5.49582 37.6152 7.56632 34.513 7.00847C31.4176 6.60632 28.9265 4.94464 26.2431 3.91041C23.3332 2.72511 20.2173 1.85586 16.6895 1.61869C10.2929 1.13043 3.77906 2.98233 0.442608 7.10479C-1.63755 9.7981 4.17539 12.013 6.25555 9.31968C9.17324 5.6736 15.5426 5.53905 20.4497 7.1497C25.3567 8.76034 29.4468 11.7909 35.1641 11.8259C37.8065 11.926 40.1883 11.0964 42.3436 10.1158C44.0597 9.14449 47.0252 6.58832 49.2625 7.47613C51.493 8.20825 53.5448 9.8792 55.789 10.9227C58.2528 11.9616 61.1558 12.9912 63.8051 13.2469C66.674 13.498 69.0558 12.6685 71.6572 11.8343C74.9107 10.8305 78.1437 9.35958 81.404 8.51149C84.2319 7.82837 86.9426 9.4854 89.18 10.3732C91.4241 11.4167 93.9221 13.2341 96.791 13.4852C101.877 14.157 105.858 9.70922 109.977 8.37546C114.747 6.87208 119.496 9.88867 123.518 11.3622C125.982 12.401 128.878 13.2749 131.719 12.9032C134.781 12.5269 137.341 10.7585 139.702 9.46184C140.993 8.8112 142.908 7.36814 144.432 7.02426C144.651 7.01962 145.07 6.54324 145.07 6.54324C145.509 6.53396 147.088 7.43569 147.534 7.58211C150.677 9.07417 154.04 10.5616 157.183 12.0536C157.183 12.0536 157.403 12.049 157.41 12.2047C158.535 12.8043 160.299 12.9229 161.576 11.9609C163.505 10.8292 165.214 9.70217 167.143 8.57051C167.994 7.92915 169.072 7.43885 169.923 6.79748C170.568 6.47216 171.838 5.35442 172.71 5.18016C174.46 4.98734 177.63 7.1022 178.975 7.69717C180.993 8.58962 182.791 9.48672 184.809 10.3792C187.952 11.8712 191.788 14.1279 195.207 11.8738C196.916 10.7468 198.165 9.16195 199.429 7.88851C200.273 7.09144 201.33 6.13404 202.174 5.33698C207.788 8.02361 213.608 10.3942 219.84 12.1327C223.621 13.1437 225.749 11.5403 228.31 9.77196C229.587 8.80991 230.85 7.53647 232.36 6.88119C233.65 6.23054 232.785 6.5605 233.904 7.00441C234.577 7.30189 235.489 8.06184 236.169 8.51503C237.754 9.57246 239.12 10.6345 240.698 11.5363C241.83 12.2916 243.196 13.3536 244.754 13.7883C248.309 14.6482 250.417 12.5777 252.771 11.1254C254.267 10.1587 255.764 9.19202 257.48 8.2207C257.48 8.2207 258.77 7.57006 259.416 7.24474C259.642 7.3958 259.869 7.54686 260.095 7.69792C263.259 9.65709 266.635 11.4559 269.799 13.4151C273.621 15.3603 278.09 11.9932 274.927 10.034Z" fill="#F7C300"/>
</svg>
