<svg width="218" height="14" viewBox="0 0 218 14" fill="none" xmlns="http://www.w3.org/2000/svg">
<path d="M217.152 10.034C214.653 8.07483 211.986 6.27601 209.487 4.31685C206.994 2.51339 205.227 1.62558 202.337 3.41716C199.957 4.88343 197.073 6.83071 195.235 8.90586C195.061 8.9105 195.056 8.7548 194.882 8.75944C194.514 8.14591 193.63 7.702 193.093 7.24882C191.841 6.19139 190.763 5.12932 189.516 4.22759C187.548 2.56591 185.418 1.22027 182.68 2.38441C179.937 3.39285 178.288 5.93046 176.093 7.70349C175.925 7.86383 175.756 8.02417 175.588 8.18451C176.098 7.85919 175.914 7.55242 175.22 7.57098C174.683 7.1178 173.81 6.98529 173.106 6.69245C171.87 6.10212 170.634 5.51179 169.398 4.92147C166.574 3.59439 163.912 1.95127 161.251 0.308147C160.362 -0.29146 158.811 0.0616968 158.139 0.703059C156.973 2.13685 155.802 3.41493 154.636 4.84872C153.969 5.64578 153.302 6.44284 152.635 7.23991C152.467 7.40025 152.299 7.56059 152.136 7.87663C151.968 8.03697 151.968 8.03697 151.968 8.03697C150.386 7.45592 148.955 6.24743 147.534 5.35034C145.941 4.45789 144.342 3.40973 142.574 2.52192C139.561 0.732378 136.579 -0.122957 133.358 2.14501C130.989 3.92267 128.793 5.6957 126.424 7.47336C124.473 6.27879 122.527 5.23991 120.402 4.04998C118.456 3.01111 116.493 1.50513 114.081 2.03718C111.842 2.5646 109.825 4.48869 107.96 5.78533C106.941 6.43597 105.921 7.08661 105.075 7.73261C104.056 8.38325 103.362 8.40181 102.132 7.96719C98.0878 6.51688 94.8626 3.64207 90.336 3.29559C85.6359 2.95376 82.437 5.84453 78.8695 8.12177C77.6821 8.93275 77.8502 8.77241 76.6089 8.02638C75.5464 7.43142 74.6575 6.83181 73.595 6.23684C71.4701 5.0469 69.3452 3.85697 66.9003 3.45482C64.4608 3.20837 62.4115 4.19825 60.1886 5.19277C58.9905 5.69235 57.7923 6.19193 56.5942 6.69151C55.396 7.19109 53.5255 8.33203 51.9696 8.52948C49.8879 8.58516 47.2264 6.94204 45.4538 5.89853C43.5024 4.70395 41.8763 2.87729 39.4314 2.47514C37.16 2.06835 34.9318 2.90717 33.2402 4.19917C31.3751 5.49582 29.7105 7.56632 27.2602 7.00847C24.8154 6.60632 22.8477 4.94464 20.7282 3.91041C18.4298 2.72511 15.9688 1.85586 13.1823 1.61869C8.12987 1.13043 2.98491 2.98233 0.349596 7.10479C-1.29343 9.7981 3.29795 12.013 4.94098 9.31968C7.24553 5.6736 12.2764 5.53905 16.1523 7.1497C20.0281 8.76034 23.2587 11.7909 27.7745 11.8259C29.8616 11.926 31.7429 11.0964 33.4453 10.1158C34.8007 9.14449 37.1431 6.58832 38.9102 7.47613C40.672 8.20825 42.2927 9.8792 44.0652 10.9227C46.0113 11.9616 48.3043 12.9912 50.3968 13.2469C52.6628 13.498 54.5441 12.6685 56.5988 11.8343C59.1686 10.8305 61.7222 9.35958 64.2974 8.51149C66.531 7.82837 68.6721 9.4854 70.4393 10.3732C72.2118 11.4167 74.1848 13.2341 76.4508 13.4852C80.4678 14.157 83.6128 9.70922 86.8657 8.37546C90.6336 6.87208 94.3846 9.88867 97.5612 11.3622C99.5072 12.401 101.795 13.2749 104.039 12.9032C106.457 12.5269 108.479 10.7585 110.345 9.46184C111.364 8.8112 112.877 7.36814 114.08 7.02426C114.254 7.01962 114.584 6.54324 114.584 6.54324C114.931 6.53396 116.178 7.43569 116.53 7.58211C119.013 9.07417 121.669 10.5616 124.152 12.0536C124.152 12.0536 124.325 12.049 124.331 12.2047C125.22 12.8043 126.613 12.9229 127.621 11.9609C129.145 10.8292 130.495 9.70217 132.018 8.57051C132.691 7.92915 133.542 7.43885 134.214 6.79748C134.724 6.47216 135.727 5.35442 136.416 5.18016C137.798 4.98734 140.302 7.1022 141.365 7.69717C142.958 8.58962 144.379 9.48672 145.972 10.3792C148.455 11.8712 151.485 14.1279 154.185 11.8738C155.535 10.7468 156.522 9.16195 157.52 7.88851C158.187 7.09144 159.022 6.13404 159.689 5.33698C164.123 8.02361 168.719 10.3942 173.642 12.1327C176.628 13.1437 178.309 11.5403 180.332 9.77196C181.34 8.80991 182.338 7.53647 183.531 6.88119C184.55 6.23054 183.867 6.5605 184.75 7.00441C185.282 7.30189 186.002 8.06184 186.539 8.51503C187.791 9.57246 188.87 10.6345 190.117 11.5363C191.011 12.2916 192.09 13.3536 193.32 13.7883C196.128 14.6482 197.793 12.5777 199.652 11.1254C200.834 10.1587 202.016 9.19202 203.372 8.2207C203.372 8.2207 204.391 7.57006 204.901 7.24474C205.08 7.3958 205.258 7.54686 205.437 7.69792C207.936 9.65709 210.603 11.4559 213.102 13.4151C216.121 15.3603 219.651 11.9932 217.152 10.034Z" fill="#59C69F"/>
</svg>
