<svg width="196" height="14" viewBox="0 0 196 14" fill="none" xmlns="http://www.w3.org/2000/svg">
<path d="M0.762328 3.96602C3.009 5.92518 5.4068 7.724 7.65347 9.68316C9.89529 11.4866 11.4841 12.3744 14.0822 10.5829C16.2222 9.11659 18.8154 7.16931 20.468 5.09416C20.624 5.08952 20.6289 5.24522 20.7848 5.24058C21.1162 5.85411 21.9106 6.29801 22.3931 6.7512C23.5188 7.80863 24.4886 8.8707 25.6095 9.77243C27.3786 11.4341 29.2939 12.7797 31.7555 11.6156C34.2219 10.6072 35.704 8.06955 37.6782 6.29653C37.8293 6.13619 37.9804 5.97585 38.1316 5.81551C37.6734 6.14083 37.839 6.44759 38.4629 6.42903C38.9454 6.88222 39.7301 7.01472 40.3637 7.30756C41.4749 7.89789 42.5861 8.48822 43.6973 9.07855C46.2365 10.4056 48.6294 12.0487 51.0224 13.6919C51.8217 14.2915 53.2157 13.9383 53.8202 13.297C54.8683 11.8632 55.9212 10.5851 56.9694 9.1513C57.569 8.35423 58.1686 7.55717 58.7682 6.76011C58.9194 6.59976 59.0705 6.43942 59.2167 6.12338C59.3678 5.96304 59.3679 5.96304 59.3679 5.96304C60.791 6.54409 62.0776 7.75258 63.3545 8.64967C64.7873 9.54213 66.225 10.5903 67.8139 11.4781C70.5236 13.2676 73.2042 14.123 76.0997 11.855C78.2299 10.0773 80.2042 8.30431 82.3344 6.52665C84.0889 7.72122 85.8385 8.7601 87.749 9.95003C89.4987 10.9889 91.2629 12.4949 93.4319 11.9628C95.445 11.4354 97.2584 9.51132 98.9352 8.21468C99.8516 7.56404 100.768 6.9134 101.529 6.2674C102.445 5.61675 103.069 5.5982 104.175 6.03282C107.811 7.48313 110.711 10.3579 114.78 10.7044C119.006 11.0463 121.882 8.15548 125.09 5.87824C126.157 5.06725 126.006 5.22759 127.122 5.97362C128.078 6.56859 128.877 7.1682 129.832 7.76317C131.742 8.9531 133.653 10.143 135.851 10.5452C138.044 10.7916 139.887 9.80176 141.885 8.80724C142.963 8.30766 144.04 7.80808 145.117 7.3085C146.194 6.80892 147.876 5.66798 149.275 5.47052C151.147 5.41485 153.54 7.05797 155.133 8.10148C156.888 9.29605 158.35 11.1227 160.548 11.5249C162.59 11.9317 164.593 11.0928 166.114 9.80083C167.791 8.50419 169.288 6.43368 171.491 6.99153C173.689 7.39368 175.458 9.05536 177.364 10.0896C179.43 11.2749 181.643 12.1441 184.148 12.3813C188.691 12.8696 193.316 11.0177 195.686 6.89521C197.163 4.2019 193.035 1.98701 191.558 4.68032C189.486 8.3264 184.963 8.46095 181.478 6.8503C177.993 5.23966 175.089 2.20915 171.028 2.17407C169.152 2.07405 167.461 2.90359 165.93 3.88419C164.711 4.85551 162.605 7.41168 161.016 6.52387C159.433 5.79176 157.975 4.1208 156.382 3.07729C154.632 2.03841 152.57 1.00882 150.689 0.753091C148.652 0.502002 146.96 1.33154 145.113 2.16572C142.803 3.16952 140.507 4.64042 138.191 5.48852C136.183 6.17164 134.258 4.5146 132.669 3.62679C131.076 2.58328 129.302 0.765896 127.264 0.514807C123.653 -0.15699 120.825 4.29079 117.901 5.62455C114.513 7.12793 111.14 4.11133 108.284 2.63783C106.535 1.59896 104.478 0.725067 102.46 1.09678C100.286 1.47314 98.468 3.24152 96.7912 4.53817C95.8747 5.18881 94.5147 6.63187 93.4326 6.97575C93.2766 6.98039 92.9792 7.45677 92.9792 7.45677C92.6673 7.46605 91.5464 6.56432 91.2296 6.4179C88.9975 4.92584 86.6094 3.43842 84.3773 1.94636C84.3773 1.94636 84.2213 1.951 84.2164 1.7953C83.4172 1.1957 82.1645 1.07711 81.2578 2.03915C79.8881 3.17082 78.6743 4.29784 77.3045 5.4295C76.7 6.07086 75.9347 6.56117 75.3303 7.20253C74.872 7.52785 73.9702 8.64559 73.3512 8.81985C72.1082 9.01267 69.8567 6.89781 68.9015 6.30284C67.4686 5.41039 66.1918 4.5133 64.7589 3.62084C62.5268 2.12879 59.8025 -0.127858 57.3749 2.12619C56.1611 3.25321 55.2738 4.83806 54.3768 6.11151C53.7772 6.90857 53.0264 7.86597 52.4268 8.66304C48.4402 5.9764 44.3073 3.60581 39.8819 1.8673C37.1964 0.856268 35.6852 2.45967 33.867 4.22806C32.9603 5.1901 32.0632 6.46355 30.9909 7.11883C30.0744 7.76947 30.6886 7.43951 29.8942 6.9956C29.4166 6.69812 28.7685 5.93817 28.286 5.48499C27.1602 4.42756 26.1904 3.36549 25.0695 2.46376C24.2654 1.70845 23.2956 0.646377 22.1892 0.211751C19.6646 -0.648225 18.168 1.42228 16.496 2.87463C15.4333 3.84131 14.3706 4.80799 13.1519 5.77932C13.1519 5.77932 12.2355 6.42996 11.7773 6.75528C11.6165 6.60422 11.4557 6.45315 11.2949 6.30209C9.04819 4.34293 6.6504 2.54411 4.40372 0.584949C1.68913 -1.36029 -1.48435 2.00686 0.762328 3.96602Z" fill="#59C69F"/>
</svg>
