<svg width="61" height="32" viewBox="0 0 61 32" fill="none" xmlns="http://www.w3.org/2000/svg">
<path d="M32.5916 2.48198C37.8138 0.168309 43.4939 -0.92699 48.5081 0.963892C53.4979 2.84888 57.7974 7.71414 59.4252 13.4195C61.0583 19.101 59.9901 25.6405 56.3697 28.8698C52.7492 32.099 46.5713 32.0419 40.2905 31.985C34.0342 31.9341 27.7342 31.8475 23.9828 28.4993C20.2609 25.133 19.0928 18.4813 20.876 13.3984C22.6593 8.31557 27.399 4.77762 32.5916 2.48198Z" fill="#59C69F"/>
<path fill-rule="evenodd" clip-rule="evenodd" d="M7.4745 21.6724C7.44165 21.6208 7.40881 21.5691 7.36938 21.5248C7.15915 21.2 7.15915 20.7866 7.26427 20.3731C7.34311 20.0188 7.6059 19.6644 7.86869 19.4873C8.13149 19.3101 8.60451 19.192 8.89359 19.3396C10.1813 19.9302 11.469 20.5799 12.7566 21.2295C13.072 21.3772 13.256 21.761 13.3611 22.1154C13.4662 22.4993 13.3874 22.9127 13.2297 23.267C13.072 23.5919 12.7566 23.8576 12.4413 23.9462C12.0734 24.0643 11.758 23.9758 11.4164 23.7986C10.4966 23.3261 9.60313 22.8832 8.68335 22.4402C8.59138 22.3959 8.50598 22.359 8.42057 22.3221C8.33516 22.2852 8.24975 22.2483 8.15777 22.204C7.94753 22.1154 7.7373 21.9973 7.57962 21.8201C7.5402 21.7758 7.50735 21.7241 7.4745 21.6724ZM50.368 15.8404C34.0512 19.1763 17.3803 19.4212 0.981853 16.6055C-0.162224 16.4219 -0.35291 14.3407 0.654971 13.7898C2.49367 12.8564 4.32556 11.9152 6.15745 10.9741C7.98934 10.033 9.82123 9.09192 11.6599 8.15847C13.2399 7.33213 14.6019 9.96417 13.0219 10.7905C10.761 11.9841 8.47285 13.1471 6.18469 14.3101C20.6219 16.2994 35.3042 15.8098 49.6325 12.8717C51.3486 12.535 52.0841 15.4731 50.368 15.8404Z" fill="#1E1E1E"/>
</svg>
