<svg width="281" height="201" viewBox="0 0 281 201" fill="none" xmlns="http://www.w3.org/2000/svg">
<path d="M85.1149 71.6219C86.5847 68.6092 88.4541 65.6105 90.7579 62.5574C108.981 38.3973 134.296 17.672 162.889 6.95688C183.06 -0.595164 204.485 -2.2713 225.455 5.83506C231.639 8.84795 237.447 12.5073 242.803 16.654C248.16 20.8005 253.065 25.45 257.47 30.4918C279.462 54.2337 290.886 92.7527 269.852 119.331C250.869 143.829 226.122 176.284 196.481 191.468C190.55 194.508 184.42 196.849 178.105 198.298C166.478 201.473 152.872 200.479 142.939 193.233C111.946 170.631 89.3299 139.878 82.0698 101.763C79.8935 90.2905 80.586 80.9158 85.1149 71.6219Z" fill="#F5F5F5"/>
<path d="M208.615 100.707C208.417 102.839 207.405 104.717 206.499 106.63C205.523 108.685 204.511 110.718 203.386 112.688C202.389 114.412 201.35 116.115 200.549 117.936C199.779 119.681 199.163 121.469 198.237 123.136C197.317 124.782 196.206 126.315 195.032 127.786C193.865 129.242 192.641 130.832 191.268 132.106C189.557 133.695 188.269 131.69 187.293 130.403C186.026 128.722 184.788 127.026 183.43 125.408C181.061 122.566 178.351 120.012 174.969 118.414C174.008 117.958 174.1 116.924 174.673 116.318C174.764 116.072 174.949 115.847 175.239 115.664C177.948 114.074 180.714 112.547 183.332 110.802C185.9 109.094 188.255 107.193 191.021 105.786C192.273 105.154 193.532 104.542 194.806 103.95C193.186 103.901 191.558 103.809 189.96 103.901C187.831 104.021 185.665 104.886 183.664 105.575C181.449 106.321 179.271 107.172 177.106 108.016C174.928 108.868 172.755 109.719 170.548 110.494C168.779 111.112 166.679 112.168 164.819 111.421C161.019 109.881 157.433 107.278 154.249 104.745C153.082 103.809 154.242 102.269 155.459 102.445C155.636 102.354 155.813 102.283 156.025 102.269C166.855 101.537 177.679 100.904 188.524 100.538C194.402 99.9122 200.302 99.4269 206.209 99.2645C206.258 99.2575 206.301 99.2575 206.351 99.2645C206.753 99.2506 207.15 99.2934 207.568 99.398C208.112 99.5326 208.671 100.109 208.615 100.707Z" fill="#59C69F"/>
<path d="M208.38 99.3844C208.656 98.3222 207.49 97.541 206.563 97.815C197.451 97.6745 188.361 97.6187 179.299 98.7586C174.955 99.2997 170.633 99.9046 166.268 100.18C164.365 100.256 162.463 100.334 160.567 100.412C157.666 100.475 154.765 100.482 151.865 100.482C150.946 100.482 150.585 101.207 150.691 101.917C150.649 102.212 150.698 102.536 150.903 102.853C152.382 105.182 155.07 106.679 157.305 108.199C159.718 109.839 162.187 111.401 164.684 112.913C164.769 117.676 165.172 122.397 165.016 127.167C165.002 127.511 164.995 127.87 165.115 128.201C165.321 128.764 165.921 129.151 166.515 129.095C166.841 129.066 167.145 128.911 167.442 128.764C169.295 127.828 171.164 127.04 173.081 126.238C174.099 125.808 175.111 125.387 176.129 124.957C176.638 124.746 177.149 124.528 177.658 124.318C177.827 124.247 178.039 124.127 178.238 124.079C178.301 124.093 178.365 124.12 178.429 124.141C178.514 124.191 178.598 124.233 178.683 124.268C178.804 124.346 178.924 124.423 179.051 124.55C179.589 125.056 180.134 125.548 180.678 126.048C182.412 128.272 184.06 130.578 185.898 132.711C186.359 134.217 188.155 133.752 188.884 132.774C189.981 131.311 190.929 129.707 191.94 128.187C193.992 125.105 196.085 122.038 198.088 118.921C201.887 113.019 204.851 106.631 207.942 100.341C208.246 100.123 208.38 99.7641 208.38 99.3844ZM166.374 110.739C166.339 110.718 166.311 110.69 166.275 110.669C165.023 109.916 163.785 109.15 162.561 108.368C160.354 106.686 158.104 104.998 155.742 103.219C159.138 103.205 162.526 103.162 165.921 102.973C170.513 102.719 175.04 102.072 179.596 101.502C179.858 101.467 180.112 101.446 180.374 101.417C185.715 101.207 191.035 100.996 196.347 100.784C195.732 100.989 195.117 101.192 194.508 101.431C191.474 102.649 188.474 103.81 185.354 104.787C179.023 106.771 172.698 108.755 166.374 110.739ZM172.401 115.791C172.303 115.84 172.21 115.911 172.118 115.973C171.998 115.987 171.871 116.015 171.744 116.065C169.437 116.98 169.119 119.407 167.959 121.292C167.86 121.454 167.754 121.615 167.647 121.778C167.549 118.95 167.492 116.121 167.442 113.286C173.597 111.359 179.744 109.424 185.898 107.496C188.962 106.532 191.94 105.47 194.904 104.246L194.954 104.373C191.693 106.019 188.438 107.665 185.177 109.311C180.919 111.463 176.638 113.589 172.401 115.791ZM172.96 123.29C171.673 123.831 170.379 124.374 169.091 124.916C169.295 124.5 169.494 124.099 169.699 123.684C169.763 123.585 169.82 123.488 169.883 123.389C170.477 122.474 170.98 121.573 171.39 120.568C171.559 120.153 171.772 119.624 171.977 119.316C172.076 119.168 172.175 119.055 172.281 118.95C172.967 119.399 173.654 119.85 174.34 120.3C174.934 120.842 175.535 121.391 176.151 121.953C175.083 122.397 174.022 122.847 172.96 123.29ZM203.514 103.134C199.785 109.649 196.128 116.044 192.478 122.439C192.266 122.748 192.061 123.058 191.848 123.375L189.174 127.385C188.749 128.025 188.326 128.658 187.901 129.298C187.802 129.453 187.681 129.665 187.562 129.889C187.059 129.433 186.557 128.975 186.055 128.518C184.647 126.695 183.296 124.824 181.831 123.058C180.749 121.75 179.568 120.575 178.181 119.603C176.929 118.732 175.768 118.387 174.7 117.318C176.576 116.037 179.08 115.066 181.116 114.039C183.331 112.92 185.913 111.759 188.128 110.64C193.815 107.764 198.513 104.605 204.199 101.734C203.966 102.191 203.74 102.663 203.514 103.134Z" fill="#1E1E1E"/>
<path d="M154.433 130.741C150.797 132.915 146.984 134.603 142.916 135.806C141.211 136.313 141.884 138.987 143.596 138.479C147.897 137.206 151.957 135.44 155.805 133.14C157.327 132.226 155.968 129.826 154.433 130.741Z" fill="#1E1E1E"/>
<path d="M134.952 136.39C132.433 136.896 129.9 136.474 127.664 135.222C126.116 134.35 124.715 136.734 126.271 137.607C129.143 139.218 132.398 139.711 135.63 139.063C137.378 138.711 136.698 136.045 134.952 136.39Z" fill="#1E1E1E"/>
<path d="M119.912 121.982C118.907 125.084 119.296 128.405 120.966 131.212C121.871 132.738 124.291 131.38 123.378 129.854C122.056 127.631 121.787 125.175 122.586 122.72C123.131 121.024 120.456 120.293 119.912 121.982Z" fill="#1E1E1E"/>
<path d="M130.162 107.341C127.333 109.339 124.998 111.766 123.165 114.693C122.225 116.198 124.615 117.584 125.564 116.079C127.127 113.582 129.107 111.442 131.527 109.74C132.971 108.72 131.619 106.306 130.162 107.341Z" fill="#1E1E1E"/>
<path d="M143.701 92.9888C141.962 96.7953 138.99 99.5176 135.701 102.016C134.286 103.085 136.26 105.033 137.66 103.964C141.12 101.34 144.274 98.3637 146.1 94.3749C146.828 92.7776 144.438 91.3706 143.701 92.9888Z" fill="#1E1E1E"/>
<path d="M145.541 75.9067C146.496 77.8488 147.027 79.9174 147.111 82.0837C147.182 83.8504 149.955 83.8993 149.884 82.1196C149.779 79.46 149.135 76.941 147.953 74.5495C147.168 72.9592 144.756 74.3243 145.541 75.9067Z" fill="#1E1E1E"/>
<path d="M142.959 68.2739C140.426 66.0157 136.21 63.7855 132.723 64.9111C131.032 65.4529 131.704 68.1332 133.402 67.5845C135.934 66.7684 139.175 68.5906 140.999 70.223C142.322 71.3978 144.295 69.4627 142.959 68.2739Z" fill="#1E1E1E"/>
<path d="M125.797 67.3098C123.392 68.1681 121.256 69.3921 119.311 71.0522C117.959 72.2061 119.918 74.1552 121.27 73.0013C122.812 71.686 124.559 70.6586 126.469 69.9761C128.139 69.3852 127.474 66.7118 125.797 67.3098Z" fill="#1E1E1E"/>
<path d="M112.073 76.7935C110.758 78.5672 109.286 80.1924 107.681 81.712C106.385 82.9356 108.345 84.8847 109.64 83.6601C111.422 81.979 113.014 80.1496 114.472 78.1796C115.526 76.7586 113.127 75.3795 112.073 76.7935Z" fill="#1E1E1E"/>
<path d="M103.302 87.6491C102.722 87.122 101.922 87.1289 101.343 87.6491C101.101 87.8603 100.854 88.0716 100.599 88.2689C100.55 88.3038 100.366 88.4373 100.331 88.4582C100.19 88.5569 100.055 88.6485 99.9066 88.7402C99.3546 89.0919 98.7816 89.4008 98.1867 89.6689C98.0532 89.7317 97.9118 89.7885 97.7772 89.8443C97.7344 89.8582 97.5291 89.9359 97.5291 89.9359C97.2112 90.0485 96.8923 90.1542 96.5675 90.2379C95.9168 90.4212 95.2512 90.5478 94.5796 90.6255C93.8581 90.7172 93.3768 91.6449 93.5751 92.2995C93.8153 93.0877 94.4879 93.3976 95.2582 93.299C98.2505 92.9333 101.06 91.5891 103.295 89.5981C103.847 89.1199 103.833 88.1344 103.302 87.6491Z" fill="#1E1E1E"/>
<path d="M87.1519 91.5959C86.4653 91.4624 85.7937 91.294 85.1281 91.0827C84.7962 90.9771 84.4704 90.8576 84.1446 90.731C84.1097 90.7171 83.8058 90.5905 83.8058 90.5905C83.6712 90.5337 83.5367 90.4709 83.4022 90.4071C82.7724 90.1122 82.1576 89.7814 81.5697 89.4087C81.2728 89.2254 80.9828 89.0281 80.6998 88.8318C80.5792 88.7471 80.4597 88.6554 80.3391 88.5637C80.3042 88.5358 80.084 88.3604 80.0561 88.3385C79.4831 87.8752 78.6063 87.7406 78.0542 88.3385C77.5799 88.8527 77.4454 89.8302 78.0542 90.3304C80.4736 92.3064 83.3245 93.7144 86.4085 94.3123C87.1299 94.4528 87.972 94.108 88.1493 93.3268C88.2978 92.6302 87.9301 91.7444 87.1519 91.5959Z" fill="#1E1E1E"/>
<path d="M74.6014 83.9702C72.1112 81.3675 68.8508 79.5101 65.3343 78.68C64.6129 78.5106 63.7709 78.9042 63.5945 79.6645C63.4321 80.389 63.8137 81.212 64.585 81.3954C65.3841 81.5847 66.1624 81.8239 66.9267 82.1198C67.0114 82.1547 67.103 82.1905 67.1877 82.2254C67.2096 82.2324 67.2166 82.2324 67.2236 82.2394C67.2445 82.2464 67.2655 82.2603 67.3013 82.2743C67.4707 82.352 67.6411 82.4297 67.8105 82.5064C68.1922 82.6898 68.5608 82.8871 68.9285 83.0904C70.4143 83.9353 71.4047 84.7156 72.5995 85.9611C73.1097 86.4962 74.0922 86.5102 74.6014 85.9611C75.1325 85.3842 75.1534 84.5402 74.6014 83.9702Z" fill="#1E1E1E"/>
<path d="M58.6502 77.3281C55.5722 76.9763 52.4672 76.9136 49.3762 77.1457C48.6398 77.2015 47.9254 77.7506 47.9613 78.5527C47.9961 79.2702 48.583 80.0155 49.3762 79.9597C52.4672 79.7276 55.5722 79.7913 58.6502 80.1431C59.3856 80.2268 60.0931 79.4316 60.0642 78.7361C60.0293 77.8981 59.4424 77.4198 58.6502 77.3281Z" fill="#1E1E1E"/>
<path d="M43.8121 79.3863C43.6537 78.6369 43.0996 78.3221 42.5516 78.4486C40.0296 79.0385 37.6002 80.2094 35.3811 81.8764C34.8988 82.2371 34.7344 83.0871 35.0114 83.7099C35.2934 84.3397 35.9341 84.5529 36.4164 84.1922C38.497 82.6327 40.7112 81.5944 43.0997 81.0394C43.6427 80.9059 43.9506 80.035 43.8121 79.3863Z" fill="#1E1E1E"/>
<path d="M0.167969 87.1926C0.167969 87.1926 0.167969 87.1856 0.167969 87.1926C0.181969 87.2066 0.202973 87.2206 0.215973 87.2336C0.202973 87.2266 0.195976 87.2136 0.181976 87.2066C0.174976 87.1996 0.174969 87.1996 0.167969 87.1926Z" fill="#1E1E1E"/>
<path d="M196.326 93.3829L181.287 92.9325C179.468 92.8767 179.468 95.6906 181.287 95.7464L196.326 96.1968C198.144 96.2467 198.144 93.4327 196.326 93.3829Z" fill="#1E1E1E"/>
<path d="M151.051 68.8299C149.149 64.1582 144.989 60.5421 139.981 59.536C139.231 59.3883 138.453 59.7471 138.241 60.5209C138.05 61.2175 138.474 62.1039 139.23 62.2517C139.762 62.3572 140.292 62.4908 140.809 62.6597C141.403 62.8567 141.615 62.9411 142.117 63.1804C142.606 63.4124 143.079 63.6798 143.539 63.9683C143.992 64.2567 144.402 64.5522 144.692 64.7914C145.11 65.1361 145.513 65.509 145.888 65.8959C146.057 66.0718 146.228 66.2547 146.383 66.4447C146.482 66.5573 146.573 66.6699 146.666 66.7824C146.715 66.8457 146.73 66.8598 146.737 66.8669C146.744 66.8738 146.758 66.902 146.808 66.9653C147.111 67.3804 147.401 67.8095 147.657 68.2598C147.791 68.492 147.918 68.7311 148.038 68.9774C148.102 69.1109 148.166 69.2444 148.229 69.3779C148.257 69.4347 148.264 69.4557 148.271 69.4696C148.278 69.4836 148.285 69.5125 148.314 69.5822C148.604 70.2857 149.255 70.7859 150.054 70.5677C150.734 70.3774 151.341 69.5404 151.051 68.8299Z" fill="#59C69F"/>
<path d="M134.053 129.481C132.914 129.271 131.619 129.095 130.679 128.356C129.878 127.729 129.327 126.752 129.023 125.816C128.372 123.754 128.719 121.566 129.985 119.773C130.424 119.154 130.098 118.211 129.476 117.846C128.768 117.437 127.983 117.726 127.537 118.352C125.854 120.729 125.408 123.98 126.349 126.738C126.83 128.145 127.636 129.517 128.81 130.46C130.113 131.508 131.683 131.908 133.302 132.197C134.053 132.331 134.831 131.993 135.043 131.212C135.226 130.529 134.81 129.623 134.053 129.481Z" fill="#F7C300"/>
<path d="M210.249 32.5625C210.291 32.0912 210.355 31.5917 210.376 31.0922C210.482 29.9806 210.56 28.8479 210.596 27.7364C210.673 25.5343 210.525 23.3604 210.072 21.2498C209.93 20.6096 209.152 20.286 208.537 20.49C208.487 20.5111 208.416 20.5533 208.381 20.5955C208.176 20.6166 207.956 20.6658 207.766 20.7644C204.639 22.4036 201.505 24.0076 198.364 25.661C197.876 25.9072 197.664 26.6107 197.812 27.0891C198.131 28.2781 199.348 28.8128 200.288 29.453L203.196 31.4229C204.235 32.1123 205.283 32.8229 206.301 33.5334C207.207 34.1455 208.522 35.5033 209.654 34.3777C210.206 33.8641 210.171 33.2168 210.249 32.5625ZM204.561 29.27C203.776 28.7353 203.005 28.2077 202.227 27.6801C201.873 27.4268 201.491 27.1875 201.137 26.9413C203.386 25.7594 205.636 24.5845 207.9 23.4307C208.091 24.7955 208.168 26.2167 208.127 27.6308C208.106 28.5735 208.042 29.5163 207.971 30.4519C207.942 30.8037 207.907 31.1555 207.9 31.5284C207.595 31.3243 207.291 31.1133 206.995 30.9163L204.561 29.27Z" fill="#1E1E1E"/>
<path d="M131.647 187.367C131.69 186.896 131.754 186.397 131.775 185.898C131.881 184.786 131.959 183.654 131.994 182.541C132.072 180.339 131.923 178.165 131.471 176.055C131.33 175.415 130.551 175.091 129.935 175.295C129.886 175.316 129.815 175.358 129.78 175.401C129.575 175.422 129.356 175.471 129.164 175.569C126.037 177.208 122.904 178.813 119.763 180.466C119.275 180.712 119.063 181.415 119.212 181.894C119.53 183.084 120.746 183.618 121.687 184.258L124.594 186.228C125.635 186.917 126.681 187.628 127.7 188.339C128.605 188.951 129.922 190.309 131.054 189.183C131.606 188.67 131.57 188.022 131.647 187.367ZM125.96 184.075C125.174 183.541 124.404 183.013 123.626 182.485C123.272 182.232 122.89 181.992 122.536 181.746C124.786 180.565 127.035 179.39 129.299 178.236C129.49 179.601 129.568 181.022 129.525 182.436C129.504 183.379 129.44 184.321 129.369 185.257C129.342 185.609 129.306 185.96 129.299 186.333C128.995 186.13 128.691 185.918 128.394 185.721L125.96 184.075Z" fill="#1E1E1E"/>
<path d="M279.639 118.401C279.682 117.929 279.745 117.429 279.766 116.93C279.873 115.818 279.951 114.686 279.985 113.574C280.063 111.372 279.915 109.198 279.462 107.088C279.321 106.447 278.543 106.123 277.927 106.327C277.878 106.348 277.807 106.391 277.771 106.433C277.566 106.454 277.347 106.504 277.156 106.602C274.03 108.241 270.896 109.845 267.755 111.498C267.267 111.745 267.054 112.449 267.203 112.927C267.521 114.116 268.737 114.65 269.679 115.291L272.586 117.261C273.626 117.95 274.673 118.661 275.692 119.371C276.597 119.983 277.913 121.341 279.045 120.215C279.597 119.702 279.561 119.054 279.639 118.401ZM273.952 115.107C273.167 114.573 272.395 114.045 271.617 113.518C271.263 113.265 270.881 113.025 270.527 112.779C272.777 111.597 275.027 110.422 277.29 109.268C277.481 110.633 277.559 112.054 277.517 113.468C277.495 114.411 277.431 115.353 277.361 116.289C277.333 116.642 277.298 116.994 277.29 117.366C276.986 117.162 276.682 116.951 276.385 116.753L273.952 115.107Z" fill="#1E1E1E"/>
<path fill-rule="evenodd" clip-rule="evenodd" d="M201.64 178.334C199.241 178.032 196.715 176.68 195.626 174.471C194.459 172.108 194.884 169.237 196.44 167.197C196.772 166.761 197.218 166.282 197.833 165.952L197.84 165.945L197.847 165.938C198.803 165.445 199.885 165.473 200.543 165.501C201.526 165.537 202.715 165.629 203.825 166.107C205.176 166.684 206.16 167.725 206.91 168.661C207.561 169.477 208.219 170.462 208.565 171.615C208.912 172.776 208.926 174.183 208.253 175.4C206.867 177.947 204.059 178.643 201.64 178.334ZM201.972 175.774C203.776 176.006 205.29 175.436 205.975 174.169C206.238 173.705 206.28 173.05 206.075 172.354C205.87 171.657 205.445 170.982 204.872 170.271V170.264C204.222 169.441 203.556 168.808 202.807 168.485C202.163 168.211 201.399 168.126 200.458 168.091C199.744 168.062 199.333 168.098 199.064 168.238C198.895 168.337 198.703 168.506 198.513 168.766V168.774V168.781C197.494 170.117 197.267 171.946 197.961 173.353C198.548 174.535 200.147 175.534 201.972 175.774Z" fill="#F7C300"/>
<path fill-rule="evenodd" clip-rule="evenodd" d="M121.234 34.012C118.835 33.7094 116.31 32.3587 115.22 30.1496C114.053 27.7857 114.478 24.9153 116.034 22.8751C116.367 22.4389 116.812 21.9605 117.427 21.6298L117.435 21.6228L117.442 21.6158C118.397 21.1233 119.479 21.1514 120.137 21.1796C121.12 21.2148 122.309 21.3063 123.42 21.7847C124.771 22.3615 125.754 23.4027 126.504 24.3385C127.155 25.1546 127.812 26.1395 128.159 27.2933C128.506 28.4541 128.52 29.8611 127.848 31.0783C126.461 33.625 123.646 34.3216 121.234 34.012ZM121.566 31.4582C123.37 31.6903 124.884 31.1205 125.57 29.8542C125.831 29.3898 125.874 28.7355 125.669 28.039C125.464 27.3425 125.039 26.6671 124.466 25.9565V25.9495C123.815 25.1264 123.151 24.4932 122.401 24.1696C121.757 23.8953 120.993 23.8108 120.052 23.7756C119.337 23.7475 118.928 23.7827 118.659 23.9234C118.488 24.0219 118.298 24.1907 118.107 24.451V24.4581V24.4651C117.088 25.8018 116.862 27.631 117.555 29.0381C118.142 30.2129 119.734 31.2119 121.566 31.4582Z" fill="#F7C300"/>
<path fill-rule="evenodd" clip-rule="evenodd" d="M230.288 24.0781C227.891 23.7756 225.365 22.4248 224.276 20.2158C223.109 17.8519 223.533 14.9815 225.09 12.9412C225.422 12.505 225.867 12.0266 226.483 11.696L226.49 11.6819L226.497 11.6748C227.452 11.1824 228.535 11.2105 229.192 11.2387C230.176 11.2739 231.365 11.3653 232.475 11.8437C233.826 12.4206 234.809 13.4618 235.559 14.3976C236.21 15.2137 236.868 16.1986 237.215 17.3524C237.56 18.5132 237.575 19.9202 236.903 21.1374C235.517 23.6912 232.701 24.3876 230.288 24.0781ZM230.614 21.5172C232.418 21.7494 233.932 21.1795 234.618 19.9132C234.88 19.4489 234.922 18.7946 234.718 18.0981C234.512 17.4016 234.088 16.7262 233.515 16.0156V16.0086C232.864 15.1855 232.199 14.5523 231.449 14.2287C230.805 13.9543 230.041 13.8698 229.101 13.8347C228.386 13.8066 227.976 13.8417 227.707 13.9824C227.537 14.081 227.346 14.2498 227.154 14.5101V14.5171V14.5242C226.136 15.8609 225.91 17.6901 226.603 19.0971C227.197 20.279 228.789 21.2781 230.614 21.5172Z" fill="#59C69F"/>
</svg>
