<svg width="171" height="185" viewBox="0 0 171 185" fill="none" xmlns="http://www.w3.org/2000/svg">
<path fill-rule="evenodd" clip-rule="evenodd" d="M163.383 41.6709C160.976 41.3673 158.442 40.0118 157.348 37.7948C156.177 35.4225 156.603 32.5419 158.165 30.4944C158.498 30.0567 158.946 29.5766 159.563 29.2448L159.57 29.2377L159.577 29.2306C160.536 28.7364 161.622 28.7647 162.282 28.7929C163.269 28.8282 164.462 28.92 165.576 29.4001C166.932 29.979 167.919 31.024 168.672 31.963C169.325 32.782 169.985 33.7704 170.333 34.9283C170.681 36.0933 170.695 37.5053 170.021 38.7268C168.629 41.2826 165.804 41.9816 163.383 41.6709ZM163.709 39.0939C165.52 39.3269 167.039 38.755 167.727 37.4842C167.99 37.0182 168.033 36.3616 167.827 35.6626C167.621 34.9636 167.195 34.2858 166.62 33.5727V33.5657C165.967 32.7396 165.299 32.1042 164.547 31.7794C163.901 31.5041 163.134 31.4193 162.19 31.384C161.473 31.3558 161.061 31.3911 160.791 31.5323C160.621 31.6241 160.429 31.8006 160.238 32.0618V32.0689V32.0759C159.215 33.4174 158.988 35.2531 159.684 36.6652C160.28 37.8584 161.878 38.8609 163.709 39.0939Z" fill="#59C69F"/>
<path d="M15.8506 153.893C14.2136 151.161 12.7806 148.117 11.5096 144.724C1.51258 117.873 -2.30742 87.5022 3.33758 60.0574C7.31658 40.6996 16.5246 23.5712 33.1876 12.0784C38.5806 9.03007 44.3106 6.60147 50.2036 4.79097C56.0956 2.98057 62.1436 1.76877 68.2506 1.16847C97.6716 -2.65063 133.489 9.51687 144.003 39.8035C153.895 67.4182 167.196 103.693 164.534 134.338C164.004 140.464 162.828 146.376 160.866 151.945C157.655 162.47 150.183 172.229 139.624 175.833C106.682 187.089 71.4466 187.588 37.9896 172.485C27.9366 167.942 20.9136 162.357 15.8506 153.893Z" fill="#F5F5F5"/>
<path d="M131.79 74.6362C131.077 70.0172 123.34 71.9832 124.045 76.5702C125.098 83.4062 124.581 90.4762 124.536 97.3612C124.491 104.399 124.438 111.446 124.393 118.484C124.358 123.168 132.388 123.176 132.424 118.484C132.522 104.043 134.003 88.9632 131.79 74.6362Z" fill="#59C69F"/>
<path d="M117.078 119.071C115.487 116.06 111.68 114.381 108.245 115.212C104.276 116.172 101.156 120.871 102.205 124.722C103.2 128.365 106.672 129.914 110.216 129.87C112.033 130.199 113.914 129.922 115.315 128.806C118.199 126.53 118.715 122.169 117.078 119.071Z" fill="#F7C300"/>
<path d="M52.498 131.048C49.046 131.949 45.713 131.096 42.236 130.934C40.337 130.845 37.906 131.527 35.725 131.714C35.83 131.056 35.934 130.398 36.023 129.732C36.305 127.564 36.458 125.388 36.49 123.203C36.546 118.623 36.111 114.051 35.677 109.496C35.234 104.859 27.982 104.81 28.433 109.496C28.916 114.555 29.407 119.638 29.214 124.722C29.109 127.458 28.61 130.057 28.151 132.745C27.878 134.336 27.886 135.879 28.94 137.211C31.476 140.411 36.812 138.372 40.112 138.226C45.005 138.007 49.569 139.371 54.43 138.096C58.937 136.919 57.022 129.862 52.498 131.048Z" fill="#59C69F"/>
<path d="M36.3969 33.3746C36.8019 33.1275 37.2489 32.8733 37.6539 32.598C38.6189 32.012 39.5709 31.3907 40.4939 30.7482C42.3179 29.4844 43.9789 28.0582 45.4279 26.4202C45.8609 25.926 45.6549 25.107 45.1149 24.7469C45.0659 24.7187 44.9949 24.6834 44.9449 24.6834C44.8029 24.528 44.6329 24.3868 44.4409 24.295C41.2459 22.7841 38.0439 21.252 34.8209 19.7411C34.3239 19.5011 33.6289 19.7482 33.3379 20.1647C32.5709 21.1391 32.8689 22.4311 32.9189 23.5678L33.0819 27.0768C33.1529 28.3194 33.2099 29.5903 33.2449 30.8258C33.2949 31.9202 32.9899 33.7912 34.5799 34.003C35.3179 34.1301 35.8219 33.7135 36.3969 33.3746ZM35.6309 26.8509C35.5879 25.8977 35.5459 24.9728 35.5099 24.0267C35.5029 23.589 35.4669 23.1442 35.4459 22.7135C37.7459 23.8008 40.0609 24.881 42.3609 25.9966C41.3599 26.9709 40.2669 27.8887 39.1089 28.7077C38.3359 29.2726 37.5329 29.7809 36.7379 30.2893C36.4329 30.4799 36.1279 30.6705 35.8289 30.8823C35.8079 30.5222 35.7939 30.1481 35.7799 29.788L35.6309 26.8509Z" fill="#F7C300"/>
<path d="M54.3452 13.7895C54.3872 13.3165 54.4512 12.8152 54.4732 12.3139C54.5792 11.1984 54.6572 10.0617 54.6932 8.94613C54.7712 6.73633 54.6222 4.55463 54.1742 2.42953C54.0322 1.78703 53.2512 1.46223 52.6342 1.66693C52.5842 1.68113 52.5132 1.73053 52.4782 1.77283C52.2722 1.78703 52.0522 1.84343 51.8602 1.94233C48.7222 3.58033 45.5772 5.19713 42.4252 6.85633C41.9422 7.10343 41.7222 7.80943 41.8712 8.28953C42.1912 9.48273 43.4122 10.0193 44.3562 10.6618L47.2742 12.6387C48.3172 13.3306 49.3682 14.0437 50.3902 14.7568C51.2992 15.371 52.6202 16.7337 53.7482 15.604C54.2952 15.0957 54.2742 14.4461 54.3452 13.7895ZM48.6442 10.4853C47.8562 9.94873 47.0822 9.42623 46.3012 8.88963C45.9462 8.64253 45.5632 8.39543 45.2082 8.14833C47.4662 6.96223 49.7232 5.78313 51.9952 4.62523C52.1872 6.00203 52.2652 7.42113 52.2222 8.84023C52.2012 9.79343 52.1372 10.7324 52.0662 11.6714C52.0372 12.0244 52.0022 12.3774 51.9952 12.7516C51.6902 12.5469 51.3842 12.3351 51.0862 12.1374L48.6442 10.4853Z" fill="#1E1E1E"/>
<path d="M31.4282 168.594C31.4712 168.121 31.5351 167.619 31.5561 167.118C31.6621 166.003 31.7411 164.866 31.7761 163.75C31.8541 161.54 31.7052 159.359 31.2512 157.241C31.1092 156.598 30.3281 156.273 29.7101 156.478C29.6601 156.499 29.5901 156.542 29.5541 156.584C29.3481 156.605 29.1281 156.655 28.9361 156.754C25.7981 158.399 22.6542 160.008 19.5012 161.668C19.0122 161.915 18.7991 162.621 18.9481 163.101C19.2671 164.294 20.4882 164.831 21.4322 165.473L24.3501 167.45C25.3941 168.142 26.4452 168.855 27.4672 169.568C28.3762 170.182 29.6961 171.545 30.8321 170.415C31.3861 169.9 31.3502 169.25 31.4282 168.594ZM25.7201 165.29C24.9321 164.753 24.1591 164.223 23.3781 163.694C23.0231 163.44 22.6391 163.2 22.2841 162.953C24.5421 161.766 26.7992 160.587 29.0712 159.429C29.2632 160.799 29.3411 162.225 29.2981 163.644C29.2771 164.591 29.2131 165.537 29.1421 166.476C29.1141 166.829 29.0782 167.182 29.0712 167.556C28.7662 167.351 28.4611 167.139 28.1631 166.942L25.7201 165.29Z" fill="#1E1E1E"/>
<path fill-rule="evenodd" clip-rule="evenodd" d="M11.7349 142.513C9.32794 142.209 6.79397 140.854 5.69997 138.637C4.52897 136.265 4.95496 133.384 6.51696 131.337C6.84996 130.899 7.29797 130.419 7.91497 130.087L7.92196 130.08L7.92894 130.073C8.88794 129.578 9.97396 129.607 10.634 129.635C11.621 129.67 12.814 129.762 13.928 130.242C15.284 130.821 16.2709 131.866 17.0239 132.805C17.6769 133.624 18.337 134.612 18.685 135.77C19.033 136.935 19.0469 138.347 18.3729 139.569C16.9809 142.125 14.1559 142.824 11.7349 142.513ZM12.061 139.95C13.872 140.183 15.391 139.611 16.079 138.34C16.342 137.874 16.3849 137.218 16.1789 136.519C15.9729 135.82 15.5469 135.142 14.9719 134.429V134.422C14.3189 133.596 13.6509 132.96 12.8989 132.636C12.2529 132.36 11.486 132.276 10.542 132.24C9.82495 132.212 9.41296 132.247 9.14296 132.388C8.97296 132.487 8.78095 132.657 8.58995 132.918V132.925V132.932C7.56695 134.274 7.33997 136.109 8.03597 137.521C8.63197 138.707 10.23 139.703 12.061 139.95Z" fill="#59C69F"/>
<path d="M122.879 60.3928C122.274 59.069 121.677 57.7452 121.072 56.4214C120.688 55.5692 119.526 55.3293 118.929 56.1235C118.005 57.3563 117.122 58.6884 116.149 59.9046C115.658 59.0607 115.339 58.0927 115.176 57.1578C115.004 56.2228 113.982 55.7016 113.18 56.2973C112.182 57.0419 111.283 57.9024 110.481 58.8539C109.917 57.6707 109.476 56.4214 109.189 55.1472C109.001 54.3116 107.971 53.5752 107.194 54.2868C105.934 55.4368 104.863 56.7275 103.955 58.1423C103.211 57.1495 102.54 56.107 101.976 54.99C101.575 54.1958 100.422 53.84 99.8344 54.6922C99.3594 55.3706 98.8934 56.0408 98.4194 56.7192C98.2064 57.0254 97.9614 57.497 97.6914 57.8776C97.6424 57.8197 97.6014 57.77 97.5524 57.7121C97.2824 57.406 97.0204 57.0998 96.7504 56.7937C96.2194 56.1815 95.6874 55.5775 95.1564 54.9652C94.7474 54.4936 93.9294 54.2371 93.4064 54.7253C92.0814 55.9746 91.2144 57.5549 91.0094 59.3917C90.8294 61.005 93.2994 61.3773 93.4794 59.7557C93.5614 58.9945 93.7904 58.2747 94.1824 57.6376C94.5754 58.0927 94.9764 58.5477 95.3684 58.9945C95.9734 59.6895 96.5794 60.55 97.5604 60.6741C98.6974 60.8147 99.2944 59.8136 99.8584 59.0028C100.144 58.5974 100.422 58.1837 100.709 57.7783C101.42 58.9449 102.213 60.0535 103.113 61.0795C103.759 61.8158 104.806 61.6835 105.247 60.8065C105.82 59.6812 106.531 58.6387 107.341 57.6873C107.84 59.1517 108.486 60.5417 109.296 61.8903C109.696 62.5605 110.858 62.5274 111.275 61.8986C111.855 61.0216 112.518 60.2273 113.246 59.5075C113.401 59.9294 113.573 60.3431 113.785 60.7485C114.26 61.6421 114.979 63.1314 116.198 62.9907C117.343 62.8583 118.063 61.3856 118.692 60.55C119.003 60.1363 119.322 59.7143 119.633 59.3006C119.935 59.9708 120.238 60.641 120.541 61.3029C121.236 62.8004 123.55 61.8738 122.879 60.3928Z" fill="#F7C300"/>
<path d="M129.394 99.3669C129.485 97.0629 129.237 95.0719 129.328 92.7679C129.435 90.1369 129.213 87.4889 129.32 84.8579C129.204 79.5789 129.435 73.9889 128.982 68.6929C128.743 66.3739 126.427 66.2829 123.105 66.4799C122.446 66.4559 122.116 66.4389 121.448 66.4149L39.454 65.0459C38.795 65.0209 38.753 66.0049 38.753 66.0049C38.753 66.0049 38.745 66.1689 38.819 66.3329H38.737C38.077 66.3079 38.045 66.9639 38.036 67.2919C38.02 67.6199 38.012 67.9469 38.671 67.9799L123.979 69.4799C124.309 69.4969 124.309 69.4969 124.638 69.5049C124.968 69.5209 125.627 69.5459 125.965 69.5619C126.295 69.5789 126.616 69.9149 126.6 70.2509C126.575 70.9069 126.542 71.5709 126.509 72.5539C126.493 72.8819 126.484 73.2099 126.468 73.5379L126.765 106.843C126.897 111.794 127.02 116.745 126.822 121.679C126.699 124.638 126.592 127.27 126.484 129.909C126.484 129.909 126.468 130.237 126.46 130.565C126.435 131.188 126.377 131.671 126.278 132.106C126.204 132.13 126.138 132.196 126.064 132.196C125.388 132.499 124.399 132.458 123.732 132.434C123.402 132.417 123.402 132.417 123.072 132.409L120.74 132.647C108.788 133.155 56.903 132.999 45.306 132.86C42.331 132.737 39.347 132.622 36.371 132.499C36.042 132.483 36.042 132.483 35.712 132.475C35.382 132.458 35.053 132.45 34.723 132.434L33.734 132.393C33.404 132.376 33.083 132.04 33.099 131.704C33.099 131.704 33.099 131.704 33.116 131.376C32.835 130.048 32.877 129.057 32.918 128.073C32.943 127.417 32.959 127.089 32.984 126.425C33.215 120.835 33.124 114.892 33.017 109.285C32.893 96.0959 33.116 82.5869 33.66 69.0949C33.684 68.4389 32.695 68.3979 32.695 68.3979C32.712 68.0699 32.036 68.3739 32.003 69.0299C31.995 69.2509 31.995 69.4719 31.978 69.6849H31.97C31.64 69.6689 31.311 69.6609 31.278 70.3159C30.593 87.0959 30.585 103.58 30.585 119.728C30.758 123.687 30.577 127.966 30.75 131.934L30.734 132.262C30.692 133.245 30.651 134.237 31.286 134.917C31.92 135.606 33.247 135.655 34.237 135.696C34.566 135.713 34.896 135.721 34.896 135.721C43.171 136.057 91.413 136.057 99.359 136.377C109.299 136.45 116.94 136.098 123.896 136.049C124.885 136.09 126.229 135.811 126.583 135.172C126.897 134.885 127.07 134.442 127.185 133.958C127.226 133.926 127.268 133.917 127.3 133.885C127.993 133.253 128.042 131.934 128.083 130.95L128.108 130.294C128.586 126.688 128.751 122.737 129.65 116.843C129.584 110.916 129.493 104.974 129.394 99.3669Z" fill="#1E1E1E"/>
<path d="M74.1865 80.013C74.2115 79.357 73.5685 78.996 72.5715 78.955C72.2415 78.939 71.9115 78.931 71.5655 79.242C71.5655 79.242 70.8895 79.546 70.8735 79.874C70.8735 79.874 70.5275 80.193 70.1975 80.177C69.8675 80.16 69.2165 79.808 68.5815 79.119C68.2605 78.775 67.9305 78.767 67.9475 78.431C67.2965 78.078 66.6365 78.046 65.9775 78.021C65.9775 78.021 65.6475 78.005 65.6315 78.341C65.2845 78.66 64.9555 78.644 64.6255 78.628C63.9665 78.603 63.6445 78.259 63.0015 77.906L62.6725 77.89C62.0215 77.537 61.3785 77.177 60.3805 77.136C59.7215 77.111 59.0455 77.414 58.3535 78.046C58.3365 78.373 58.0075 78.365 57.6605 78.677C57.3315 78.66 57.3315 78.66 57.0015 78.652C56.6715 78.636 56.3505 78.3 56.0375 77.955L55.7155 77.611C55.0645 77.259 54.4215 76.898 53.7455 77.201C53.4165 77.185 53.0695 77.505 52.7235 77.816C52.3775 78.136 52.0475 78.119 51.7015 78.431C51.3715 78.414 51.0255 78.734 50.7125 78.39C50.7125 78.39 50.3825 78.373 50.3915 78.046C50.0615 78.029 50.0695 77.701 49.7395 77.693C49.4105 77.677 49.0885 77.341 48.7595 77.324C48.0995 77.3 47.4325 77.267 46.7645 77.57C46.4345 77.554 46.4185 77.89 46.0885 77.873C45.7425 78.193 45.0665 78.488 44.7285 78.808C44.3985 78.792 44.0695 78.783 43.7475 78.439L43.4425 77.767C43.1215 77.423 43.1375 77.095 42.8085 77.078C42.4865 76.734 42.1575 76.726 41.8275 76.709C40.8385 76.668 39.7915 77.947 39.0825 78.906L38.7285 79.554C38.3825 79.874 38.6875 80.537 38.6705 80.874C39.0005 80.89 39.3215 81.226 39.6595 80.915C39.6595 80.915 40.0055 80.595 40.3515 80.283C40.6985 79.964 41.0445 79.652 41.3825 79.333C41.3985 79.005 41.7285 79.013 42.0585 79.029C42.3875 79.046 42.7175 79.054 42.7095 79.382C43.0145 80.054 43.3275 80.398 43.9785 80.751C44.9595 81.119 45.9645 80.833 47.3245 79.898L47.6715 79.578C48.6935 78.964 49.0225 78.972 49.9875 79.669C50.6385 80.021 51.2815 80.382 51.6275 80.062C51.9575 80.078 51.9735 79.742 52.3195 79.431C52.6655 79.111 53.0125 78.8 53.6795 78.496C54.3555 78.193 54.9905 78.882 55.3035 79.218C55.6335 79.234 55.6245 79.562 55.9545 79.57C56.6055 79.923 57.2485 80.283 57.5785 80.292C57.9085 80.308 58.2545 79.988 58.6005 79.677C58.9465 79.357 59.2765 79.374 59.2925 79.046C59.9855 78.414 60.2985 78.759 60.6285 78.767C60.9575 78.783 61.2795 79.119 61.6085 79.136C61.6085 79.136 61.9385 79.152 61.9305 79.48C62.5815 79.833 63.2245 80.193 63.8925 80.218C64.2215 80.234 64.5675 79.915 64.8975 79.931C65.2435 79.611 65.9035 79.644 66.2325 79.652C66.8925 79.677 67.5435 80.037 67.8485 80.71C68.1785 80.726 68.1695 81.054 68.4995 81.062C69.1505 81.415 69.8095 81.447 70.1395 81.456C70.1395 81.456 70.4855 81.136 70.8155 81.152C71.4915 80.849 72.5135 80.234 73.1485 80.915C73.4695 81.259 73.4695 81.259 73.7995 81.267C74.1285 81.283 74.4755 80.964 74.4915 80.636C74.5085 80.357 74.5165 80.021 74.1865 80.013Z" fill="#1E1E1E"/>
<path d="M40.3281 89.5218C40.3441 89.1938 40.6821 88.8738 41.3581 88.5708C41.7041 88.2508 42.3471 88.6118 42.9981 88.9638C43.9621 89.6608 44.9601 89.7018 45.6361 89.3988C45.9821 89.0788 46.3121 89.0948 46.6581 88.7838C46.6581 88.7838 46.6581 88.7838 47.0041 88.4638C47.0201 88.1358 47.3501 88.1448 47.6801 88.1608C48.3391 88.1858 48.6611 88.5298 49.6411 88.8988C49.6411 88.8988 49.9712 88.9148 49.9632 89.2428C50.6142 89.5948 51.5871 89.9638 52.2621 89.6688C52.5921 89.6858 52.9381 89.3658 53.2681 89.3818C53.2681 89.3818 53.2682 89.3818 53.6142 89.0628L53.9601 88.7428C54.3071 88.4228 54.6361 88.4398 54.9491 88.7838C54.9491 88.7838 54.9491 88.7838 55.2711 89.1278C55.2711 89.1278 55.9222 89.4808 56.2522 89.4968C56.5812 89.5138 56.9111 89.5218 57.5791 89.5548C57.9081 89.5708 58.2552 89.2508 58.6012 88.9398C58.6172 88.6118 58.9471 88.6198 58.9471 88.6198C59.2771 88.6358 59.2771 88.6358 59.6061 88.6448C59.9361 88.6608 59.9281 88.9888 60.2571 88.9968C60.5871 89.0138 60.9091 89.3498 60.9171 89.0218C61.2471 89.0378 61.2711 88.3738 61.6171 88.0628C61.6341 87.7348 61.6341 87.7348 61.3121 87.3898C60.0181 86.6768 59.0381 86.3078 58.3451 86.9398L57.9991 87.2588C57.9831 87.5868 57.6531 87.5788 57.3231 87.5628C56.9941 87.5458 56.9941 87.5458 56.6721 87.2098C56.6721 87.2098 55.7081 86.5128 55.3781 86.4968C54.7191 86.4718 54.3891 86.4558 54.0431 86.7758C53.7131 86.7588 53.6971 87.0948 53.3671 87.0788C53.3671 87.0788 53.0371 87.0628 53.0211 87.3988C53.0041 87.7268 52.6751 87.7178 52.3451 87.7018C52.0151 87.6858 52.0151 87.6858 51.6861 87.6768C51.3561 87.6608 51.0341 87.3248 50.7051 87.3088C50.3751 87.2918 50.3831 86.9638 50.0541 86.9558C49.0731 86.5868 48.0921 86.2178 47.4081 86.8488C47.0621 87.1688 46.7152 87.4808 46.3772 87.7998L46.0311 88.1198C45.6851 88.4398 45.3551 88.4228 45.0261 88.4068C45.0261 88.4068 45.0261 88.4068 44.7041 88.0628C44.0531 87.7098 43.4101 87.3498 42.7431 87.3248C42.4131 87.3088 42.0832 87.2998 41.4072 87.6038C40.4022 87.8908 39.7091 88.5218 39.3391 89.4968C38.9841 90.1448 39.3142 90.1528 39.6272 90.4968C39.3062 90.1368 39.9651 90.1688 40.3281 89.5218Z" fill="#1E1E1E"/>
<path d="M80.46 80.1449C80.476 79.8169 80.814 79.4969 81.49 79.1939C81.836 78.8739 82.479 79.2349 83.13 79.5869C84.094 80.2839 85.092 80.3249 85.768 80.0219C86.114 79.7019 86.444 79.7179 86.79 79.4069C86.79 79.4069 86.7899 79.4069 87.1359 79.0869C87.1519 78.7589 87.482 78.7669 87.812 78.7839C88.471 78.8079 88.793 79.1529 89.773 79.5219C89.773 79.5219 90.103 79.5379 90.095 79.8659C90.746 80.2179 91.719 80.5869 92.394 80.2919C92.724 80.3079 93.07 79.9889 93.4 80.0049C93.4 80.0049 93.4 80.0049 93.746 79.6849L94.092 79.3659C94.439 79.0459 94.768 79.0629 95.081 79.4069C95.081 79.4069 95.082 79.4069 95.403 79.7509C95.403 79.7509 96.054 80.1039 96.384 80.1199C96.713 80.1359 97.043 80.1449 97.711 80.1769C98.04 80.1939 98.387 79.8739 98.733 79.5629C98.749 79.2349 99.079 79.2429 99.079 79.2429C99.409 79.2589 99.409 79.2589 99.738 79.2669C100.068 79.2839 100.06 79.6119 100.39 79.6199C100.719 79.6359 101.041 79.9719 101.049 79.6449C101.379 79.6609 101.403 78.9969 101.75 78.6849C101.766 78.3579 101.766 78.3579 101.445 78.0129C100.151 77.2999 99.17 76.9309 98.477 77.5619L98.131 77.8819C98.115 78.2099 97.7849 78.2019 97.4549 78.1849C97.1259 78.1689 97.1259 78.1689 96.8039 77.8329C96.8039 77.8329 95.84 77.1359 95.51 77.1199C94.851 77.0949 94.5209 77.0789 94.1749 77.3989C93.8449 77.3819 93.829 77.7179 93.499 77.7019C93.499 77.7019 93.169 77.6849 93.153 78.0209C93.136 78.3489 92.807 78.3409 92.477 78.3249C92.147 78.3079 92.147 78.3079 91.818 78.2999C91.488 78.2839 91.166 77.9479 90.837 77.9309C90.507 77.9149 90.515 77.5869 90.186 77.5789C89.205 77.2099 88.224 76.8409 87.54 77.4719C87.194 77.7919 86.847 78.1029 86.509 78.4229L86.163 78.7429C85.817 79.0629 85.487 79.0459 85.158 79.0299C85.158 79.0299 85.158 79.0299 84.836 78.6849C84.185 78.3329 83.542 77.9719 82.875 77.9479C82.545 77.9309 82.215 77.9229 81.539 78.2259C80.534 78.5129 79.841 79.1439 79.471 80.1199C79.116 80.7679 79.446 80.7759 79.759 81.1199C79.438 80.7679 80.097 80.7919 80.46 80.1449Z" fill="#1E1E1E"/>
<path d="M78.1598 96.3251C76.7668 97.9151 75.4728 97.2021 74.4918 96.8331C74.1708 96.4891 73.5108 96.4641 73.1818 96.4481C72.8518 96.4311 72.1927 96.4071 71.8467 96.7271C71.8467 96.7271 71.4997 97.0461 71.1707 97.0301C70.8237 97.3491 70.4777 97.6611 70.1487 97.6451C69.8187 97.6281 69.4967 97.2921 69.1837 96.9481C68.8627 96.6041 68.5327 96.5951 68.5497 96.2591C68.2197 96.2431 67.8978 95.9071 67.5608 96.2181C67.2308 96.2021 66.8848 96.5221 66.5378 96.8331C65.5078 97.7841 64.8407 97.7511 64.2217 96.7431L63.9008 96.3991C62.9448 95.3741 62.2768 95.6771 61.9388 95.6611C61.6098 95.6441 61.2627 95.9641 60.9167 96.2761C60.5707 96.5951 60.2248 96.9071 60.2168 97.2351C59.8868 97.2181 59.5408 97.5381 59.5568 97.2101C59.5568 97.2101 59.2277 97.1941 59.2357 96.8661C58.9057 96.8491 58.9137 96.5221 58.5847 96.5131C57.9337 96.1611 57.2907 95.8001 56.6227 95.7761C56.2927 95.7591 55.9468 96.0791 55.2878 96.0541C54.2818 96.3411 52.5837 97.2681 51.3477 95.2351C51.0257 94.8901 50.3667 94.8661 50.0367 94.8491C49.3617 95.1531 49.0068 95.8001 48.6438 96.4401C48.2978 96.7591 48.2898 97.0871 47.9438 97.3991C47.5978 97.7181 47.2518 98.0301 46.5918 98.0051C45.9328 97.9811 45.6108 97.6361 45.2978 97.2921C44.9928 96.6201 44.6797 96.2761 44.0117 96.2511C43.6827 96.2351 43.6908 95.9071 43.0308 95.8821C42.0418 95.8411 40.6907 96.4481 38.8857 99.9971C38.8687 100.325 38.8608 100.653 38.8438 100.981C39.1657 101.325 39.4788 101.669 39.8248 101.35C39.8248 101.35 40.1548 101.366 40.5008 101.046C40.8548 100.399 41.2018 100.087 41.5638 99.4401C41.5808 99.1121 41.9188 98.7921 41.9188 98.7921C41.9188 98.7921 41.9348 98.4641 42.2648 98.4721C42.2808 98.1451 42.6188 97.8251 42.9568 97.8411C43.6168 97.8661 43.6078 98.1941 43.9218 98.5381C44.5398 99.5541 45.1908 99.9071 45.8418 100.268C46.8228 100.637 47.8448 100.022 48.1828 99.7021C48.5288 99.3821 48.8748 99.0711 49.2298 98.4231C49.5758 98.1041 49.5837 97.7761 49.9297 97.4641C49.9467 97.1361 50.2757 97.1451 50.6057 97.1611C50.9357 97.1771 50.9357 97.1771 51.2567 97.5131C51.8917 98.2021 52.8728 98.5711 53.5318 98.5951C54.1918 98.6201 54.8588 98.6531 55.5348 98.3501C55.8648 98.3661 55.8808 98.0301 55.8808 98.0301C56.5568 97.7271 57.2327 97.4231 58.1967 98.1201C59.4827 99.1611 60.4717 99.2021 61.4937 98.5791C61.8237 98.5951 61.8398 98.2591 62.1868 97.9481C62.2028 97.6201 62.5328 97.6281 62.8618 97.6451C63.1918 97.6611 63.5218 97.6691 63.5138 97.9971C63.8348 98.3411 64.1478 98.6861 64.4778 98.6941C65.4588 99.0631 67.1148 99.1281 67.8158 98.1691C67.8328 97.8411 68.1618 97.8491 68.5078 97.5381C68.8378 97.5541 69.1678 97.5631 69.1598 97.8901C69.4808 98.2351 69.4808 98.2351 69.7938 98.5791C70.4448 98.9321 70.7747 98.9481 71.4337 98.9731C71.7637 98.9891 71.7807 98.6531 72.1097 98.6691C72.4557 98.3501 72.8028 98.0381 73.4618 98.0631C74.1208 98.0871 74.7727 98.4481 75.1017 98.4561C75.4317 98.4721 75.7527 98.8091 75.7527 98.8091C77.0637 99.1941 78.7448 98.6041 79.7758 97.6531C80.1218 97.3331 80.1298 97.0051 80.1298 97.0051C79.4948 96.3171 79.1738 95.9811 78.8438 95.9641C78.8357 96.0221 78.5058 96.0051 78.1598 96.3251Z" fill="#1E1E1E"/>
<path d="M64.7166 108.965C65.0626 108.646 65.3926 108.662 65.7386 108.351C66.0686 108.367 66.3986 108.375 66.3896 108.703C66.3896 108.703 66.3895 108.703 66.7195 108.719C68.0305 109.105 69.3655 108.826 70.7175 108.219C71.3935 107.916 71.0885 107.244 70.7745 106.9C70.4535 106.555 70.1236 106.547 69.7856 106.859C69.1096 107.162 68.4255 107.793 67.1155 107.408C66.7855 107.392 66.4555 107.383 66.4645 107.055C66.1345 107.039 65.8125 106.703 65.4835 106.687C65.1535 106.67 64.8075 106.99 64.4615 107.301L64.1155 107.621C63.7685 107.941 63.4396 107.924 63.1266 107.58L62.8045 107.236C61.8485 106.211 60.8595 106.17 59.5245 106.441L59.1945 106.424C58.8485 106.744 58.1885 106.711 57.5295 106.687C57.1995 106.67 56.8786 106.334 56.5486 106.318C56.2186 106.301 55.8975 105.965 55.8975 105.965C54.9085 105.924 54.2325 106.228 53.1855 107.506L52.8395 107.826C52.4935 108.146 51.7925 109.105 51.1415 108.744C50.8125 108.728 50.4905 108.392 50.1775 108.047L49.8555 107.703C48.8755 107.334 48.1995 107.637 47.1855 108.252L46.8395 108.572C45.4875 109.178 43.4595 110.08 41.5065 109.342L41.1765 109.326C41.1765 109.326 40.8475 109.31 40.8305 109.646C40.4845 109.965 40.4765 110.293 40.4595 110.621C40.4435 110.949 40.7815 110.965 41.0945 111.31C42.4045 111.695 44.0615 111.761 45.4135 111.154C46.0895 110.851 46.7655 110.547 47.4405 110.244C47.7875 109.924 48.1166 109.941 48.4626 109.629C48.8096 109.31 49.1385 109.326 49.4525 109.67L49.7735 110.015C49.7565 110.342 50.0785 110.687 50.7375 110.711C51.3885 111.064 52.0645 110.769 52.7245 110.793C53.0705 110.474 53.7466 110.179 54.1006 109.531C54.1006 109.531 54.1175 109.203 54.4465 109.211C54.7935 108.892 55.1635 107.924 56.4745 108.301C56.8045 108.318 57.1335 108.326 57.4555 108.67C57.7855 108.687 58.1146 108.695 58.4366 109.039C58.7656 109.056 59.0955 109.064 59.7715 108.76C60.1015 108.777 60.4475 108.457 60.7765 108.474C60.7935 108.146 61.1065 108.49 61.7575 108.842C63.0275 109.883 63.6866 109.916 64.7166 108.965Z" fill="#1E1E1E"/>
<path d="M92.1892 88.4811C92.5352 88.1621 92.8642 88.1781 93.2112 87.8661C93.5402 87.8831 93.8702 87.8911 93.8622 88.2191C93.8622 88.2191 93.8622 88.2191 94.1912 88.2351C95.5022 88.6211 96.8372 88.3421 98.1892 87.7351C98.8652 87.4321 98.5602 86.7601 98.2472 86.4161C97.9252 86.0711 97.5962 86.0631 97.2582 86.3751C96.5822 86.6781 95.8982 87.3091 94.5872 86.9241C94.2572 86.9071 93.9282 86.8991 93.9362 86.5711C93.6062 86.5551 93.2852 86.2191 92.9552 86.2021C92.6252 86.1861 92.2792 86.5061 91.9332 86.8171L91.5872 87.1371C91.2412 87.4571 90.9112 87.4401 90.5982 87.0961L90.2762 86.7521C89.3202 85.7271 88.3312 85.6861 86.9962 85.9561L86.6662 85.9401C86.3202 86.2601 85.6612 86.2271 85.0012 86.2021C84.6722 86.1861 84.3502 85.8501 84.0202 85.8341C83.6912 85.8171 83.3692 85.4811 83.3692 85.4811C82.3802 85.4401 81.7042 85.7431 80.6582 87.0221L80.3112 87.3421C79.9652 87.6611 79.2652 88.6211 78.6142 88.2601C78.2842 88.2431 77.9622 87.9071 77.6492 87.5631L77.3282 87.2191C76.3472 86.8501 75.6712 87.1531 74.6572 87.7681L74.3112 88.0881C72.9592 88.6941 70.9322 89.5961 68.9782 88.8581L68.6492 88.8421C68.6492 88.8421 68.3192 88.8251 68.3022 89.1621C67.9562 89.4811 67.9482 89.8091 67.9312 90.1371C67.9152 90.4651 68.2532 90.4811 68.5662 90.8261C69.8772 91.2111 71.5332 91.2761 72.8852 90.6701C73.5612 90.3671 74.2372 90.0631 74.9132 89.7601C75.2592 89.4401 75.5892 89.4571 75.9352 89.1451C76.2812 88.8251 76.6112 88.8421 76.9242 89.1861L77.2452 89.5301C77.2292 89.8581 77.5502 90.2031 78.2102 90.2271C78.8612 90.5801 79.5372 90.2851 80.1962 90.3091C80.5422 89.9891 81.2182 89.6941 81.5722 89.0471C81.5722 89.0471 81.5892 88.7191 81.9192 88.7271C82.2652 88.4071 82.6362 87.4401 83.9462 87.8171C84.2762 87.8341 84.6062 87.8421 84.9272 88.1861C85.2572 88.2021 85.5862 88.2111 85.9082 88.5551C86.2382 88.5711 86.5672 88.5801 87.2432 88.2761C87.5732 88.2931 87.9192 87.9731 88.2492 87.9891C88.2652 87.6611 88.5782 88.0061 89.2302 88.3581C90.4992 89.3991 91.1582 89.4241 92.1892 88.4811Z" fill="#1E1E1E"/>
<path d="M53.0952 117.728C52.4442 117.375 51.7852 117.342 51.1252 117.318C50.7962 117.301 50.1202 117.605 49.4442 117.908C49.0982 118.228 49.0892 118.556 48.7522 118.539C48.7352 118.867 48.4051 118.859 48.0761 118.842C47.7461 118.826 47.4161 118.818 47.4251 118.49C47.1031 118.146 47.1032 118.146 46.7902 117.801C46.4852 117.129 45.8342 116.777 45.1912 116.416C44.5312 116.392 44.2022 116.375 43.5092 117.006C42.8342 117.31 42.1581 117.613 41.4981 117.588C41.1691 117.572 40.5092 117.547 40.4762 118.203C40.4602 118.531 40.4521 118.859 40.4521 118.859L40.7732 119.203C41.7622 119.244 42.4301 119.269 43.0891 119.293C43.4191 119.31 43.7652 118.99 44.0952 119.006C44.0952 119.006 44.4242 119.023 44.7542 119.031C45.0842 119.047 45.4132 119.056 45.4052 119.383C45.7102 120.056 46.0232 120.4 46.6742 120.752C47.3262 121.105 47.9692 121.465 48.6442 121.162C49.3202 120.859 49.6661 120.547 50.0211 119.9L50.3672 119.58C50.7132 119.26 51.0431 119.277 51.3731 119.293C52.0321 119.318 52.0241 119.646 52.3531 119.662C52.6831 119.679 53.3342 120.031 53.6642 120.047C54.3232 120.072 54.9911 120.105 55.6751 119.465C56.0051 119.482 56.0211 119.146 56.0211 119.146C56.0381 118.818 56.0382 118.818 55.7162 118.474C55.4282 117.474 55.0982 117.457 54.7522 117.777C54.4062 118.096 54.0761 118.08 54.0761 118.08C53.7461 118.08 53.4252 117.736 53.0952 117.728Z" fill="#1E1E1E"/>
<path d="M89.0229 107.662C88.3719 107.31 87.7129 107.277 87.0539 107.252C86.7239 107.236 86.0479 107.539 85.3719 107.843C85.0259 108.162 85.0179 108.49 84.6799 108.474C84.6629 108.802 84.3339 108.794 84.0039 108.777C83.6739 108.761 83.3449 108.753 83.3529 108.425C83.0309 108.08 83.0309 108.08 82.7179 107.736C82.4129 107.064 81.7619 106.711 81.1189 106.351C80.4599 106.326 80.1299 106.31 79.4379 106.941C78.7619 107.244 78.0859 107.548 77.4269 107.523C77.0969 107.507 76.4369 107.482 76.4039 108.138C76.3879 108.466 76.3799 108.794 76.3799 108.794L76.7009 109.138C77.6899 109.179 78.3579 109.203 79.0169 109.228C79.3469 109.244 79.6929 108.925 80.0229 108.941C80.0229 108.941 80.3529 108.957 80.6819 108.966C81.0119 108.982 81.3419 108.99 81.3329 109.318C81.6379 109.99 81.9519 110.335 82.6029 110.687C83.2539 111.04 83.8969 111.4 84.5729 111.097C85.2479 110.794 85.5949 110.482 85.9489 109.835L86.2949 109.515C86.6409 109.195 86.9709 109.212 87.3009 109.228C87.9599 109.253 87.9519 109.58 88.2819 109.597C88.6109 109.613 89.2629 109.966 89.5919 109.982C90.2519 110.007 90.9189 110.039 91.6029 109.4C91.9329 109.417 91.9489 109.08 91.9489 109.08C91.9659 108.753 91.9659 108.753 91.6449 108.408C91.3559 107.408 91.0259 107.392 90.6799 107.712C90.3339 108.031 90.0039 108.015 90.0039 108.015C89.6749 108.023 89.3609 107.679 89.0229 107.662Z" fill="#1E1E1E"/>
<path d="M109.349 127.367C111.624 128.449 114.946 128.252 117.32 127.031C119.702 125.482 120.468 122.875 119.916 120.211C119.347 117.883 117.468 115.17 114.839 114.735C111.888 113.957 109.176 115.498 108.064 118.416C108.047 118.744 108.047 118.744 108.039 119.072C108.022 119.4 108.36 119.416 108.69 119.424C109.02 119.441 109.695 119.137 109.712 118.809L109.728 118.481L109.745 118.154C109.761 117.826 110.091 117.834 110.099 117.506C110.116 117.178 110.446 117.186 110.446 117.186C110.446 117.186 110.446 117.186 110.792 116.867L111.138 116.547C112.16 115.932 112.836 115.629 113.825 115.67C114.484 115.694 115.465 116.063 116.1 116.752C116.734 117.44 117.369 118.121 117.979 119.465C118.268 120.465 118.564 121.465 118.531 122.121C118.515 122.449 118.49 123.105 118.144 123.424C118.127 123.752 117.773 124.4 117.427 124.711C116.734 125.342 116.05 125.974 114.715 126.252C113.71 126.539 112.712 126.498 111.393 126.449C110.404 126.408 109.432 125.711 108.797 125.023C108.476 124.678 108.162 124.334 107.857 123.67L107.874 123.342C107.89 123.014 107.89 123.014 107.89 123.014L107.907 122.687C107.907 122.687 108.278 121.711 107.627 121.359L107.297 121.342L106.967 121.326C106.967 121.326 106.638 121.309 106.621 121.646C105.904 122.932 106.192 123.932 106.497 124.605C106.769 125.621 107.709 126.974 109.349 127.367Z" fill="#1E1E1E"/>
<path d="M89.9223 131.344C89.3613 129.647 88.0673 128.229 86.3033 127.721C85.9573 127.524 85.6033 127.36 85.2483 127.213C84.8943 127.065 84.5313 126.95 84.1773 126.852C83.7483 126.77 83.3113 126.729 82.8833 126.721C79.3963 126.688 75.7943 129.098 73.7753 132.434C73.5693 132.762 73.3713 133.09 73.1813 133.434C70.1983 138.361 73.8663 144.926 80.5673 144.435C81.0363 144.443 81.4983 144.418 81.9683 144.361C84.0703 144.107 86.1713 143.18 87.6303 141.631C89.0813 140.098 89.7653 138 90.0863 135.959C90.3013 134.598 90.3833 133.188 90.0623 131.844C90.0293 131.68 89.9793 131.508 89.9223 131.344Z" fill="white"/>
<path d="M86.0968 128.491C83.5668 125.425 78.9428 123.606 75.2248 125.63C73.9808 126.311 75.0928 128.196 76.3378 127.516C78.7858 126.179 81.8438 127.36 83.7148 129.147C85.7918 131.13 86.7648 134.057 86.1958 136.885C85.9158 138.262 85.3468 139.836 84.0688 140.582C82.7338 141.369 80.9868 141.688 79.4538 141.713C76.7248 141.754 73.7908 140.508 72.6368 137.901C71.3838 135.065 72.7858 131.639 75.6698 130.483C76.2228 130.262 76.6018 129.753 76.4368 129.139C76.2968 128.614 75.6368 128.155 75.0848 128.376C71.5988 129.77 69.4718 133.221 70.0898 136.967C70.6918 140.631 73.9638 143.229 77.5408 143.77C79.6268 144.082 81.8028 143.828 83.7808 143.106C85.6928 142.401 86.9538 141.188 87.7368 139.319C89.2538 135.704 88.5778 131.499 86.0968 128.491Z" fill="#1E1E1E"/>
<path d="M84.8437 131.459C84.2837 131.131 83.6987 131.377 83.3357 131.852C82.6347 132.779 81.9097 133.688 81.1767 134.59C80.8057 135.049 80.4267 135.5 80.0467 135.951C79.8497 136.189 79.6518 136.418 79.4538 136.656C79.4288 136.689 79.4048 136.721 79.3718 136.746C79.3468 136.721 79.3137 136.705 79.2887 136.68C79.0007 136.443 78.7197 136.189 78.4567 135.918C77.9537 135.41 77.5748 134.918 77.2038 134.311C76.8908 133.811 76.2228 133.615 75.6948 133.918C75.1928 134.213 74.9867 134.91 75.2997 135.418C75.8767 136.344 76.5688 137.197 77.3848 137.926C77.7968 138.295 78.2418 138.648 78.7038 138.959C79.3718 139.402 80.0967 139.271 80.6077 138.672C82.2147 136.828 83.7477 134.902 85.2317 132.951C85.5937 132.484 85.3137 131.729 84.8437 131.459Z" fill="#1E1E1E"/>
<path fill-rule="evenodd" clip-rule="evenodd" d="M131.758 155.862C131.111 155.112 130.556 154.306 130.103 153.453C130.066 153.373 130.029 153.285 129.983 153.213C129.964 153.173 129.946 153.134 129.927 153.094C129.825 152.87 129.733 152.647 129.65 152.424C129.474 151.969 129.335 151.514 129.224 151.051C129.039 150.325 128.013 149.831 127.2 150.054C126.312 150.301 125.85 151.019 126.044 151.801C126.534 153.772 127.523 155.678 128.91 157.298C129.178 157.609 129.456 157.848 129.899 157.952C130.297 158.048 130.824 158 131.166 157.809C131.85 157.426 132.303 156.5 131.758 155.862Z" fill="#1E1E1E"/>
<path fill-rule="evenodd" clip-rule="evenodd" d="M140.446 147.025C140.496 147.059 140.513 147.067 140.446 147.025V147.025Z" fill="#1E1E1E"/>
<path fill-rule="evenodd" clip-rule="evenodd" d="M142.549 148.427C141.939 148.074 141.345 147.697 140.777 147.287C140.637 147.189 140.505 147.058 140.356 146.976C140.398 147 140.431 147.017 140.455 147.025C140.414 147 140.356 146.968 140.323 146.943C140.266 146.902 140.216 146.853 140.159 146.812C139.87 146.582 139.598 146.336 139.318 146.09C138.799 145.615 138.304 145.115 137.842 144.59C137.612 144.328 137.397 144.066 137.183 143.795C137.183 143.787 137.175 143.787 137.175 143.787C137.125 143.713 137.068 143.648 137.018 143.574C136.903 143.418 136.796 143.262 136.68 143.099C136.243 142.467 135.37 142.123 134.669 142.574C134.043 142.976 133.672 143.902 134.142 144.574C135.947 147.181 138.296 149.377 141.065 150.951C141.733 151.328 142.705 151.132 143.076 150.427C143.447 149.73 143.258 148.836 142.549 148.427Z" fill="#1E1E1E"/>
<path fill-rule="evenodd" clip-rule="evenodd" d="M146.982 135.64C145.913 135.429 144.86 135.111 143.839 134.689C143.594 134.583 143.348 134.477 143.103 134.362C142.968 134.295 142.834 134.237 142.699 134.17C142.668 134.151 142.636 134.141 142.612 134.122C142.098 133.843 141.599 133.545 141.108 133.219C140.459 132.786 139.541 132.998 139.177 133.833C138.828 134.641 138.994 135.717 139.683 136.178C141.718 137.533 143.934 138.494 146.23 138.955C146.618 139.032 146.966 139.032 147.314 138.782C147.607 138.571 147.884 138.167 147.964 137.754C148.122 136.927 147.758 135.794 146.982 135.64Z" fill="#1E1E1E"/>
<path fill-rule="evenodd" clip-rule="evenodd" d="M40.189 59.7318C37.86 59.1981 35.479 58.9393 33.097 59.0121C31.947 59.0525 30.798 59.1738 29.656 59.3517C28.582 59.5215 27.38 59.6671 26.389 60.1523C24.378 61.147 24.469 63.9289 24.318 65.935C24.121 68.563 24.015 71.199 24 73.835C23.992 75.388 26.238 75.388 26.253 73.835C26.268 71.587 26.344 69.347 26.488 67.107C26.563 65.999 26.624 64.891 26.752 63.7915C26.843 63.0151 26.949 62.4328 27.698 62.2064C31.494 61.0661 35.758 61.1794 39.584 62.0528C41.006 62.3762 41.611 60.0553 40.189 59.7318Z" fill="#1E1E1E"/>
</svg>
