<svg width="58" height="32" viewBox="0 0 58 32" fill="none" xmlns="http://www.w3.org/2000/svg">
<path d="M30.0787 26.4751C25.8099 29.8989 20.8296 32.3512 15.7553 31.9588C10.705 31.5653 5.58474 28.3261 2.72979 23.6427C-0.124211 18.982 -0.689864 12.8534 1.88421 9.02543C4.45828 5.19746 10.1711 3.64741 15.9788 2.07039C21.7624 0.49443 27.5949 -1.06089 31.8498 0.96287C36.0818 3.01043 38.737 8.65981 38.2975 13.6703C37.8579 18.6807 34.3245 23.075 30.0787 26.4751Z" fill="#59C69F"/>
<path fill-rule="evenodd" clip-rule="evenodd" d="M50.5249 10.3276C50.5577 10.3792 50.5906 10.4309 50.63 10.4752C50.8402 10.8 50.8402 11.2134 50.7351 11.6269C50.6563 11.9812 50.3935 12.3356 50.1307 12.5127C49.8679 12.6899 49.3949 12.808 49.1058 12.6604C47.8181 12.0698 46.5304 11.4201 45.2427 10.7705C44.9274 10.6229 44.7434 10.239 44.6383 9.88461C44.5332 9.50073 44.612 9.08732 44.7697 8.73296C44.9274 8.40814 45.2427 8.14237 45.5581 8.05378C45.926 7.93566 46.2414 8.02425 46.583 8.20143C47.5028 8.6739 48.3963 9.11685 49.316 9.55979C49.408 9.60408 49.4934 9.64099 49.5788 9.6779C49.6642 9.71481 49.7496 9.75173 49.8416 9.79602C50.0519 9.88461 50.2621 10.0027 50.4198 10.1799C50.4592 10.2242 50.492 10.2759 50.5249 10.3276ZM7.63154 16.1596C23.9483 12.8237 40.6192 12.5788 57.0177 15.3945C58.1617 15.5781 58.3524 17.6593 57.3445 18.2102C55.5058 19.1437 53.674 20.0848 51.8421 21.0259C50.0102 21.967 48.1783 22.9081 46.3396 23.8415C44.7597 24.6679 43.3977 22.0358 44.9776 21.2095C47.2385 20.0159 49.5267 18.8529 51.8148 17.6899C37.3776 15.7006 22.6953 16.1903 8.36702 19.1283C6.6509 19.465 5.91542 16.5269 7.63154 16.1596Z" fill="#1E1E1E"/>
</svg>
