<svg width="257" height="206" viewBox="0 0 257 206" fill="none" xmlns="http://www.w3.org/2000/svg">
<path d="M0.785645 100.633C1.4175 97.3432 2.45401 93.9472 3.88806 90.3892C15.2399 62.2608 34.3653 35.6293 59.291 17.8584C76.8688 5.32644 97.2012 -1.83986 119.642 0.610143C126.415 1.93044 133.01 3.97794 139.293 6.61844C145.576 9.25904 151.539 12.4926 157.119 16.2417C184.636 33.5677 205.757 67.9514 192.31 99.1442C180.306 127.802 164.801 165.652 140.031 188.026C135.083 192.502 129.744 196.35 124.008 199.393C113.565 205.486 100.119 208.021 88.6039 203.566C52.6602 189.664 22.7012 165.694 5.71257 130.619C0.593976 120.078 -1.18796 110.814 0.785645 100.633Z" fill="#F5F5F5"/>
<path d="M109.706 110.609C109.564 110.187 109.302 109.781 108.889 109.562C108.484 109.351 107.968 109.234 107.524 109.382C106.913 109.593 106.294 109.734 105.659 109.843C104.937 109.921 104.206 109.945 103.484 109.882C103.056 109.843 102.524 110.101 102.23 110.398C101.921 110.702 101.691 111.195 101.706 111.632C101.73 112.085 101.881 112.554 102.23 112.866C102.595 113.194 102.992 113.335 103.484 113.382C105.151 113.522 106.889 113.304 108.468 112.765C108.905 112.616 109.286 112.366 109.532 111.96C109.754 111.577 109.849 111.023 109.706 110.609Z" fill="#F7C300"/>
<path d="M94.2934 109.96C94.1982 109.843 94.1109 109.726 94.0156 109.609C93.7934 109.39 93.5315 109.241 93.2299 109.155C93.0553 109.109 92.8807 109.038 92.7061 108.976C92.468 108.866 92.2299 108.757 91.9998 108.616C91.7934 108.491 91.5792 108.421 91.3411 108.406C91.103 108.351 90.8728 108.367 90.6347 108.437C90.4046 108.491 90.2061 108.593 90.0315 108.749C89.8411 108.874 89.6823 109.038 89.5712 109.241L89.3887 109.655C89.3014 109.968 89.3014 110.272 89.3887 110.585C89.4522 110.726 89.5077 110.866 89.5712 110.999C89.73 111.265 89.9442 111.468 90.2061 111.624C90.468 111.78 90.7379 111.921 91.0236 112.046C91.4363 112.225 91.849 112.397 92.2855 112.522C92.5236 112.592 92.7537 112.608 92.9918 112.553C93.2299 112.546 93.4442 112.475 93.6506 112.342C93.8569 112.233 94.0236 112.085 94.1506 111.889C94.3093 111.718 94.4125 111.522 94.468 111.296C94.4918 111.14 94.5077 110.983 94.5315 110.835C94.5315 110.53 94.4522 110.233 94.2934 109.96Z" fill="#F7C300"/>
<path d="M110.492 141.51C109.167 139.276 106.103 138.644 103.675 139.261C101.222 135.175 94.7859 134.246 91.6828 138.425C88.1193 143.213 92.0717 148.181 95.6192 151.501C97.4922 153.251 99.7859 154.219 102.357 153.446C104.929 152.673 107.365 151.243 108.936 149.072C110.428 147.009 111.944 143.963 110.492 141.51Z" fill="#59C69F"/>
<path d="M145.206 43.0094C144.103 40.9315 140.524 40.2754 138.936 42.2126C138.135 43.189 137.063 43.5796 135.889 43.6108C138.539 41.8142 140.071 39.3693 138.087 36.2994C136.619 34.0263 133.817 33.8466 131.817 35.5027C127.127 39.3771 126.444 31.8938 125.468 29.3629C124.278 26.2774 121.746 23.9028 118.516 22.9185C115.151 21.8953 111.421 22.3093 108.127 23.395C104.119 24.723 103.079 27.0508 101.556 30.7143C100.913 32.2687 101.333 33.5342 102.254 34.3544C103.27 37.3305 108.309 38.1195 109.778 34.659C109.817 34.659 109.841 34.6668 109.889 34.6668C110.309 34.8699 110.714 35.1043 111.095 35.3777C111.817 35.9088 112.452 36.6197 113.063 37.268C114.373 38.6506 116.04 40.5488 116.079 42.5797C104.555 38.3616 90.1187 41.4237 79.9838 47.7509C75.2616 50.7036 73.4442 56.9214 73.6267 62.1941C73.7854 66.7403 75.3568 73.9192 80.5394 75.3092C85.9044 76.7542 92.3488 73.2002 96.7535 70.5912C100.032 68.6463 102.865 66.2794 105.103 63.4048C106.214 65.1077 107.413 66.7247 109.222 68.0526C112.151 70.2012 115.627 71.6462 118.936 73.1842C120.309 75.8642 125.278 76.3012 126.5 72.5442C128.008 67.912 128.532 62.3972 127.619 57.3042C130.349 58.5696 133.405 59.0773 136.77 58.3821C144.071 56.8902 148.865 49.9068 145.206 43.0094Z" fill="#F7C300"/>
<path d="M61.4287 133.465C60.516 133.535 59.6033 133.598 58.6906 133.668C58.1033 133.707 57.7065 134.34 58.0398 134.855C58.5636 135.668 59.143 136.464 59.6509 137.3C59.0478 137.402 58.4049 137.378 57.8176 137.277C57.2303 137.175 56.6986 137.66 56.8732 138.261C57.0874 139.003 57.397 139.714 57.7779 140.394C56.9605 140.464 56.1271 140.456 55.3097 140.347C54.7779 140.276 54.1113 140.722 54.3652 141.331C54.7621 142.315 55.2859 143.221 55.9208 144.065C55.1748 144.284 54.4128 144.455 53.6271 144.541C53.0716 144.604 52.6113 145.205 52.9763 145.729C53.27 146.151 53.5636 146.572 53.8573 146.994C53.9922 147.182 54.2144 147.432 54.3811 147.674C54.3414 147.689 54.2938 147.705 54.2541 147.721C54.016 147.814 53.7779 147.9 53.5398 147.994C53.0636 148.174 52.5875 148.353 52.1113 148.533C51.7383 148.674 51.4129 149.095 51.5875 149.502C52.024 150.548 52.77 151.4 53.8017 151.915C54.7144 152.368 55.4763 151.001 54.5636 150.548C54.1351 150.337 53.7621 150.048 53.4763 149.681C53.8335 149.548 54.1827 149.416 54.5398 149.275C55.0795 149.072 55.7224 148.9 56.0081 148.353C56.3414 147.713 55.889 147.15 55.5398 146.643C55.3652 146.385 55.1827 146.135 55.0081 145.877C55.8494 145.713 56.6747 145.487 57.4843 145.182C58.0636 144.963 58.2144 144.323 57.8017 143.87C57.27 143.292 56.8097 142.651 56.4287 141.971C57.397 141.995 58.3652 141.917 59.3335 141.737C59.8176 141.643 60.0557 140.964 59.7779 140.581C59.389 140.05 59.0716 139.495 58.8097 138.909C59.0954 138.909 59.3732 138.902 59.6589 138.863C60.2938 138.777 61.3255 138.675 61.516 137.933C61.6906 137.23 60.9843 136.496 60.6351 135.949C60.4605 135.675 60.2859 135.402 60.1033 135.129C60.5636 135.097 61.0239 135.058 61.4843 135.027C62.4763 134.949 62.4446 133.387 61.4287 133.465Z" fill="#59C69F"/>
<path d="M62.2067 170.998C62.8099 171.131 63.4131 170.803 63.5718 170.24C63.6194 170.061 63.6194 169.858 63.5639 169.662L63.4845 169.389L63.7623 169.319C65.1591 168.944 66.6194 168.311 68.1035 167.452L68.7305 167.093L68.5162 167.772C68.2861 168.522 68.5003 169.327 69.0876 169.858C69.8416 170.545 70.9527 170.561 71.8495 170.569C75.1828 170.615 78.5161 170.647 81.8495 170.678L122.913 171.115C124.889 171.139 126.873 171.162 128.849 171.178H129.127C131.429 171.178 134.103 171.022 136.532 169.873C136.897 169.702 137.055 169.272 137.079 168.928C137.167 167.561 136.635 166.577 135.452 165.921L135.23 165.796L135.333 165.569C135.484 165.241 135.627 164.898 135.77 164.538L135.952 164.077L136.254 164.468C137.643 166.241 139.825 167.35 141.571 168.116L142.428 168.491L141.5 168.639C141.365 168.663 141.238 168.686 141.111 168.709C140.857 168.756 140.635 168.92 140.484 169.163C140.309 169.436 140.254 169.772 140.333 170.053C140.492 170.615 141.071 170.936 141.698 170.811C143.206 170.514 144.778 170.615 146.294 170.717L151.786 171.068C152.063 171.092 152.309 170.983 152.516 170.795C152.754 170.576 152.889 170.272 152.889 169.983C152.889 169.405 152.413 168.928 151.778 168.889L148.127 168.655L148.754 168.202C149.301 167.803 149.746 167.28 150.063 166.647C150.825 165.14 150.738 163.351 150.563 161.812C150.365 160.109 149.952 158.352 149.309 156.446C148.262 153.345 146.889 150.181 145.111 146.775C143.365 143.432 141.294 140.128 138.944 136.964L138.897 136.894V136.808C138.802 134.129 138.548 131.73 138.135 129.465C137.802 127.63 137.333 125.122 135.389 123.693C134.421 122.982 133.175 122.552 131.563 122.372L131.389 122.357L131.325 122.193C129.452 117.186 125.96 112.811 121.5 109.89C120.381 109.156 119.167 108.578 118.024 108.062L117.944 108.031L117.897 107.961C117.643 107.554 117.262 107.14 116.762 106.726C115.96 106.062 115.087 105.859 114.016 106.101L113.913 106.125L113.818 106.078C113.714 106.023 113.659 105.992 113.603 105.961C110.945 104.438 109.206 101.961 108.849 99.1732C108.825 98.9622 108.746 98.7672 108.619 98.6102L108.421 98.3532L108.706 98.1962C109.222 97.9152 109.714 97.5872 110.183 97.2202C112.072 95.7512 113.572 93.8062 115.016 91.9322L115.659 91.1042C116.429 90.1192 117.429 88.8232 118.365 87.4642C118.476 87.2992 118.587 87.1352 118.691 86.9712C118.96 86.5572 119.222 86.1672 119.532 85.8072C120.064 85.1902 120.722 84.8392 121.421 84.4562C122.595 83.8162 123.857 82.9802 124.23 81.5582C124.627 80.0512 123.722 78.6912 123 77.8092C122.81 77.5742 122.619 77.3402 122.444 77.1062L122.127 76.6992L122.643 76.6602C122.984 76.6372 123.27 76.4492 123.452 76.1372C126.611 70.7632 127.714 64.1077 126.468 57.8899L126.349 57.2806L126.889 57.6009C127.325 57.8586 127.794 58.0774 128.262 58.257C131.54 59.4912 134.651 58.4835 136.69 57.4212C138.786 56.3276 141.627 54.4451 143.309 51.7189C144.96 49.0318 145.04 45.8682 143.524 43.2514C143.262 42.7983 142.809 42.6187 142.301 42.7749C141.865 42.9077 141.436 43.3217 141.452 43.8451V43.9154L141.421 43.9779C140.421 46.0635 138.262 47.2899 136.055 47.0321C134.325 46.8368 132.667 45.8291 131.397 44.1966L131.143 43.8685L131.548 43.7591C131.881 43.6654 132.206 43.556 132.524 43.4545L132.817 43.3529C134.048 42.9468 134.984 42.4781 135.77 41.861C136.571 41.2439 137.175 40.4393 137.524 39.541C137.976 38.3693 137.825 37.057 137.643 36.0493C137.595 35.8072 137.421 35.5728 137.167 35.4244C136.889 35.2604 136.555 35.2057 136.286 35.2916L136.23 35.3072H136.151C135.698 35.2526 135.143 35.4244 134.944 36.0571C134.794 36.5336 134.452 36.9164 133.921 37.1898C132.929 37.6975 131.651 37.6741 130.881 37.4397C129.325 36.9554 128.667 35.1432 128.143 33.6825L127.659 32.3624C126.476 29.1206 125.254 25.7618 122.23 23.7464C119.317 21.8014 114.984 20.8797 110.929 21.3405C108.897 21.5671 103.913 22.5357 101.58 26.5195C99.9684 29.2769 100 32.7529 101.675 35.5884L101.826 35.854L101.548 35.979C99.9049 36.7367 99.389 38.6114 98.9367 40.2753L98.6986 41.1267L98.516 41.1501C97.77 41.2439 97.151 41.3454 96.5637 41.4548C92.3018 42.2906 88.2859 43.8685 84.5717 45.4464C81.9368 46.5712 78.1193 48.4303 75.3495 51.6096C73.2146 54.0701 71.667 57.0306 70.8813 60.1864C69.9765 63.8343 70.0718 67.6307 71.167 70.8882C72.3019 74.2782 74.4289 76.8092 77.0003 77.8482L77.3177 77.9812L77.1749 78.2462C76.4289 79.3322 76.4289 80.8242 77.159 82.0502C77.8098 83.1442 78.8654 83.8942 79.8892 84.6122L79.9923 84.6902C81.0717 85.4562 81.8733 86.3782 82.659 87.7602L82.6987 87.8312C85.0875 92.0332 88.3574 97.7822 93.6351 98.9772C94.0557 99.0712 94.5399 99.1492 95.0954 99.2042L95.4605 99.2432L95.3335 99.5792C95.278 99.7202 95.2621 99.8762 95.278 100.048C95.4287 101.586 95.516 103.078 94.8811 104.391C94.27 105.648 93.0319 106.344 91.778 106.914L91.1748 107.187L91.024 107.172C90.1272 106.883 88.9208 106.633 87.6113 107.226C86.659 107.656 85.9685 108.562 85.8177 109.585L85.7939 109.718L85.6748 109.788C85.1748 110.07 84.7701 110.312 84.3971 110.554C79.6907 113.616 75.8178 117.803 73.2146 122.661C73.1114 122.857 73.0638 123.06 73.0797 123.263L73.1035 123.482L72.8892 123.552C69.8337 124.528 68.0162 127.52 67.3257 132.699L67.3099 132.816L67.2146 132.887C67.0876 132.972 66.9924 133.09 66.913 133.23C63.2543 139.675 60.1194 146.439 57.5877 153.345C56.9369 155.118 56.3179 156.914 55.7544 158.68C55.6512 159 55.548 159.32 55.4369 159.648C54.9687 161.039 54.4925 162.484 54.3655 163.921C54.2068 165.624 54.8972 167.171 56.3179 168.288L56.8814 168.733L56.1591 168.78C55.0798 168.85 53.802 168.905 52.5798 168.795C52.3338 168.772 52.0877 168.858 51.8734 169.053C51.6354 169.264 51.4766 169.592 51.4766 169.889C51.4766 170.483 51.9211 170.92 52.5877 170.983C53.9528 171.108 55.3576 170.998 56.7147 170.889C58.5321 170.733 60.4051 170.584 62.2067 170.998ZM136.849 161.359C137.667 158.539 138.206 155.438 138.508 151.892C138.794 148.462 138.952 145.041 138.968 141.721L138.976 140.792L139.492 141.573C141.928 145.283 144 149.142 145.659 153.055C146.976 156.172 149.817 163.695 147.698 166.179C147.238 166.718 146.571 166.991 145.698 166.991C145.341 166.991 144.944 166.944 144.516 166.85C143.016 166.522 141.587 165.78 140.278 165.023C139.222 164.413 137.936 163.546 137.405 162.203C137.317 161.976 137.167 161.789 136.968 161.664L136.794 161.554L136.849 161.359ZM113.659 108.523L113.778 108.468L113.897 108.523C114.238 108.687 114.587 108.843 114.937 108.999L115.452 109.234L114.952 109.499C114.508 109.734 114.032 109.968 113.508 110.195C112.945 110.445 112.31 110.694 111.587 110.96L111.389 111.03L111.262 110.866C111.214 110.804 111.159 110.749 111.087 110.687C111.032 110.648 110.968 110.585 110.897 110.507L110.722 110.234C110.683 110.116 110.651 110.031 110.635 109.952L110.587 109.71L110.825 109.632C111.698 109.343 112.603 108.992 113.659 108.523ZM104.079 26.8397C107.103 23.1528 112.714 23.3324 114.365 23.473C116.413 23.6449 118.357 24.1604 120 24.9572C121.587 25.7305 122.825 26.9335 123.786 28.6441C124.508 29.9252 125.008 31.3313 125.492 32.6826L125.254 32.8545L125.516 32.7607C125.643 33.1122 125.77 33.4716 125.905 33.8231L126 34.0887C126.548 35.5728 127.167 37.2523 128.349 38.3771C129.841 39.7988 132.46 40.1815 134.579 39.2754L135.802 38.7521L134.897 39.7207C134.825 39.7988 134.754 39.8691 134.682 39.9394C134.619 40.0019 134.556 40.0565 134.492 40.1112L134.357 40.2128C134.016 40.4549 133.698 40.6424 133.381 40.7986C133.008 40.9783 132.825 41.0486 132.341 41.2126C131.913 41.3532 131.476 41.4782 131.032 41.6032C130.833 41.6579 130.627 41.7126 130.429 41.7594L130.246 41.7829L130.103 41.7672C129.762 41.6579 129.429 41.7126 129.151 41.8922L129.071 41.9235C128.976 41.9469 128.897 41.9781 128.825 42.0172C128.317 42.3062 128.151 42.9389 128.429 43.517C129.968 46.6962 132.889 48.8678 136.063 49.188C138.167 49.4067 140.381 48.5944 141.968 47.0165L142.452 46.54V47.2118C142.46 51.4299 137.436 54.5154 135.897 55.359C134.373 56.2026 132.889 56.6244 131.468 56.6244C130.746 56.6244 130.04 56.5151 129.349 56.2964C127.262 55.6324 125.603 53.9452 124.929 51.7814C124.817 51.4299 124.571 51.1799 124.238 51.0784L124.127 51.0393L124.071 50.9378C122.944 48.8131 121.627 47.2664 120.048 46.2119C118.667 45.2824 117.119 44.5793 115.651 43.9622L115.365 43.8372L115.516 43.5717C116.373 42.0641 116.278 40.205 115.254 38.7286C114.945 38.2756 114.556 37.8537 114.095 37.4866L113.516 37.0179L114.27 36.9945C114.31 36.9945 114.349 36.9945 114.397 36.9945C114.492 36.9945 114.603 37.0023 114.738 37.0179L114.945 37.0492C115.198 37.096 115.452 37.1585 115.786 37.2523C116.032 37.3226 116.27 37.3929 116.508 37.471L116.603 37.5022C116.873 37.5882 117.143 37.6663 117.413 37.7366C117.698 37.8147 118.024 37.7678 118.294 37.6038C118.54 37.4554 118.714 37.2366 118.778 36.9789C118.913 36.3774 118.579 35.7837 118 35.6353C117.691 35.5494 117.381 35.4557 117.071 35.3619C116.175 35.0885 115.151 34.7839 114.127 34.8151C113.016 34.862 112.024 35.2604 111.341 35.9322L111.23 36.0415L110.73 35.9165L110.818 35.5884C110.968 35.3072 111.127 35.0417 111.333 34.7526L111.468 34.573C111.564 34.4558 111.659 34.3464 111.762 34.2449C111.984 34.0027 112.23 33.7762 112.508 33.5497C112.54 33.5184 112.579 33.4872 112.611 33.4638L112.691 33.4091C112.81 33.3232 112.945 33.2372 113.072 33.1591C113.302 33.0185 113.532 32.8935 113.77 32.7842L113.619 32.7373L114.532 32.503C114.73 32.4483 114.881 32.4092 115.032 32.378C115.119 32.3624 115.198 32.3467 115.286 32.3311L115.643 32.2608C115.833 32.2061 115.976 32.128 116.103 32.003C116.31 31.8078 116.437 31.4875 116.429 31.2297C116.413 30.9094 116.23 30.5501 115.976 30.3392C115.778 30.1752 115.564 30.1127 115.325 30.1361C113.698 30.347 112.23 30.9719 110.952 31.9874C109.873 32.8545 109.032 34.0262 108.508 35.3854L108.437 35.5806L108.222 35.565C107.429 35.5025 106.659 35.4635 105.802 35.4635C105.349 35.4635 104.881 35.4713 104.405 35.4869L104.222 35.4947L104.143 35.3307C104.103 35.2526 104.056 35.1823 104.008 35.112C102.159 32.7842 102.183 29.1519 104.079 26.8397ZM101.206 40.5487C101.349 40.0566 101.476 39.6035 101.635 39.1504C101.865 38.4787 102.167 38.0022 102.881 37.8381C103.595 37.6741 104.373 37.6663 105.127 37.6585L105.159 37.9397V37.6585H105.548C106.532 37.6428 107.54 37.6819 108.524 37.7678C109.81 37.8772 111.651 38.1662 112.889 39.3379C113.857 40.2518 114.349 41.7907 113.365 42.8608L113.238 43.0014L113.056 42.9389C111.595 42.4 110.214 41.9781 108.849 41.6579C106.452 41.0955 103.976 40.8455 101.5 40.9158L101.119 40.9236L101.206 40.5487ZM73.4051 70.4352C72.4765 67.7556 72.2781 64.7873 72.8336 61.8502C73.3733 59.0069 74.5559 56.2964 76.2701 54.0076C78.032 51.6564 80.5558 49.727 83.9844 48.1023C88.5716 45.9307 95.4843 43.0405 102.46 43.0405C103.611 43.0405 104.738 43.1186 105.81 43.2748C109.183 43.7669 112.667 44.8996 116.46 46.7431C118.048 47.5164 119.564 48.321 120.651 49.7114C121.54 50.844 122.317 52.2423 123.032 53.9998C125.817 60.827 125.278 68.6696 121.595 74.9812L121.317 75.4572L121.095 74.9582C120.992 74.7232 120.905 74.4972 120.833 74.2702C120.452 73.0202 120.413 71.7162 120.698 70.3962L120.762 70.1222L121.659 70.3182C122.071 70.4032 122.444 70.2862 122.714 69.9892C123 69.6772 123.119 69.2012 122.992 68.8336C122.881 68.5055 122.627 68.2946 122.246 68.2165C119.413 67.615 116.405 66.8886 113.611 65.6231C112.23 64.9982 110.976 64.2874 109.881 63.5063C108.532 62.5533 107.833 61.7487 107.754 61.0457L107.746 60.9676L107.778 60.8973C107.984 60.452 108.151 60.0849 108.286 59.7177C108.484 59.1944 108.135 58.7179 107.73 58.4914C107.326 58.2726 106.778 58.2336 106.437 58.6554C106.04 59.1553 105.778 59.6631 105.659 60.2177C103.826 63.8656 100.143 66.7167 95.2621 68.3024C91.0716 69.6692 86.4844 70.0602 81.9844 69.4272L81.913 69.4042C81.786 69.3492 81.659 69.3262 81.5399 69.3262L81.4685 69.3492L81.3495 69.3412C80.5161 69.2082 79.778 69.0602 79.0876 68.8961C78.6907 68.8024 78.3177 68.9039 78.0479 69.1772C77.7542 69.4822 77.6352 69.9432 77.7463 70.3332C77.8495 70.6772 78.1034 70.9032 78.4923 70.9972C78.9685 71.1142 79.4765 71.2242 80.0241 71.3252L80.278 71.3722L79.7384 76.3872L79.3892 76.2392C79.3098 76.2072 79.2304 76.1842 79.1511 76.1682C75.54 75.5432 73.9289 71.9502 73.4051 70.4352ZM92.0557 95.9862C90.1113 94.8222 88.651 92.9782 87.3653 91.1582C86.5558 90.0102 85.778 88.7762 85.0558 87.5102L84.8574 87.1592C84.2463 86.0732 83.6193 84.9562 82.7066 84.0662C82.2463 83.6122 81.7145 83.2382 81.1907 82.8782C80.7225 82.5502 80.1828 82.1752 79.7304 81.7382C79.3495 81.3782 78.905 80.8862 78.8019 80.2932C78.7622 80.0662 78.8019 79.6132 79.0161 79.3322C79.0796 79.2462 79.1987 79.1372 79.3653 79.1132C79.5082 79.0982 79.6352 79.0582 79.7542 78.9962L79.8495 78.9492L79.9526 78.9802C80.3336 79.0822 80.7542 78.9802 81.0479 78.7072C81.905 77.9182 81.9923 76.6372 82.0796 75.5122C82.1034 75.2392 82.1193 75.0122 82.1431 74.7932L82.4764 71.6852L82.7542 71.7162C85.8336 72.0282 89.0716 71.9032 92.1192 71.3642L94.7303 70.9032L94.5795 70.8412L95.3335 70.6222C100.119 69.2242 103.786 66.8339 106.23 63.5063L106.445 63.2094L106.675 63.4906C107.778 64.8342 109.484 65.9356 110.722 66.6152C112.865 67.8025 115.278 68.7321 118.325 69.5362L118.587 69.6072L118.532 69.8652C118.064 71.9272 118.262 74.0362 119.103 75.9572C119.476 76.8092 119.976 77.5982 120.683 78.4492C120.77 78.5592 120.873 78.6682 120.984 78.7932C121.635 79.5122 122.508 80.4802 121.937 81.3712C121.548 81.9802 120.849 82.3312 120.175 82.6672C119.849 82.8312 119.564 82.9722 119.31 83.1362C118.222 83.8392 117.516 84.8082 116.77 85.9092C115.167 88.2682 113.405 90.4862 112.048 92.1582C110.659 93.8692 109.127 95.6262 107.056 96.6262C105.675 97.2902 104.167 97.4782 102.635 97.4782C101.73 97.4782 100.818 97.4152 99.9128 97.3532L99.2938 97.3142C98.9049 97.2902 98.5081 97.2753 98.1033 97.2513L98.0081 97.2432C95.9764 97.1502 93.8573 97.0642 92.0557 95.9862ZM94.397 108C94.4922 107.937 94.5875 107.875 94.6827 107.812C96.9446 106.226 97.8652 103.696 97.5002 100.063C97.4843 99.9542 97.4605 99.8523 97.4287 99.7663L97.2779 99.3682L99.0081 99.4702C100.08 99.5482 101.302 99.6342 102.484 99.6342H102.556C103.937 99.6342 105.167 99.4772 106.318 99.1572L106.627 99.0712L106.675 99.3842C107.103 102.297 108.516 104.852 110.651 106.586C110.762 106.672 110.873 106.758 110.984 106.836L111.389 107.125L110.921 107.312C110.643 107.422 110.413 107.507 110.191 107.578C107.683 108.343 105.103 108.585 102.667 108.765L101.857 108.828C100.714 108.921 99.5398 109.015 98.3811 109.015C97.2541 109.015 96.1351 108.929 95.0478 108.671C94.8573 108.624 94.651 108.57 94.4367 108.499L93.8573 108.312L94.397 108ZM109.072 111.804L108.706 111.905C106.635 112.468 104.587 112.788 102.627 112.858L102.254 112.874L102.73 110.96L102.937 110.944C104.5 110.827 106.349 110.655 108.183 110.312L108.46 110.265L108.516 110.53C108.579 110.851 108.675 111.132 108.81 111.382C108.833 111.421 108.849 111.452 108.873 111.491L109.072 111.804ZM100.206 112.444L100.286 112.804L99.9128 112.78C98.6986 112.694 97.4446 112.538 95.9684 112.296L95.643 112.241L95.8176 111.819C95.9208 111.671 96.0478 111.468 96.1827 111.233L96.278 111.062L96.4684 111.085C96.5795 111.101 96.6906 111.108 96.8018 111.124C98.0319 111.218 99.2303 111.179 100.032 111.132L100.413 111.108L100.214 111.905C100.175 112.085 100.167 112.272 100.206 112.444ZM89.3574 110.304C89.8891 110.054 90.4367 109.82 91.0002 109.593L91.1827 109.515L91.2938 109.562C91.9605 109.851 92.7621 110.179 93.6113 110.46L94.0081 110.593L93.7303 110.905C93.5954 111.062 93.4764 111.187 93.3573 111.296C93.278 111.374 93.2065 111.468 93.151 111.585L93.0637 111.765L92.8653 111.741C91.6907 111.546 90.397 111.327 89.3415 110.788L88.8335 110.53L89.3574 110.304ZM75.8416 122.537C78.4209 118.217 82.0479 114.553 86.3336 111.937L86.5161 111.827L86.6748 111.976C86.7939 112.085 86.9129 112.171 87.032 112.249C87.2383 112.382 87.4447 112.444 87.6351 112.429L87.7304 112.421L87.8097 112.468C89.1034 113.241 90.6748 113.538 92.1986 113.827L92.8018 113.944C95.27 114.428 98.151 114.952 101.056 115.045C105.984 115.209 111.492 113.85 116.159 111.351L116.357 111.249C116.794 111.015 117.278 110.757 117.651 110.429L117.794 110.304L117.968 110.39C118.191 110.499 118.413 110.609 118.627 110.726C123.198 113.171 126.841 117.139 128.865 121.88L129.032 122.263H128.611C127.135 122.263 125.643 122.279 124.19 122.302C123.421 122.31 122.667 122.326 121.905 122.333L86.5875 122.669C84.7145 122.685 82.8495 122.701 80.9844 122.732C79.4288 122.755 77.7701 122.802 76.1273 122.974L75.5717 123.036L75.8416 122.537ZM69.1511 138.034L69.1591 137.753C69.2464 135.644 69.3416 133.472 69.794 131.379C70.294 129.059 71.0003 126.786 72.7384 125.911C74.4447 125.052 76.6749 124.997 78.6511 124.95L79.4844 124.927C81.3336 124.864 83.2145 124.849 85.032 124.841H85.0717C85.7383 124.841 86.405 124.833 87.0796 124.825L124.603 124.466C125.206 124.458 125.817 124.442 126.437 124.419C128.103 124.372 129.794 124.317 131.413 124.513C133.619 124.778 134.897 125.755 135.452 127.567C136.143 129.864 136.405 132.324 136.563 134.433C136.619 135.152 136.659 135.871 136.69 136.589V136.659L136.659 136.722C136.524 136.98 136.54 137.253 136.69 137.527L136.722 137.651C136.865 142.198 136.635 146.728 136.413 150.165C136.143 154.376 135.54 159.851 133.246 164.851C133.23 164.882 133.222 164.913 133.206 164.952L133.127 165.171L132.897 165.14C131.794 164.976 130.635 164.937 129.706 164.913C129.46 164.905 129.23 164.898 129.008 164.89C125.087 164.726 120.913 164.624 116.611 164.585C109.325 164.523 101.675 164.624 91.7938 164.921C87.2145 165.062 82.5558 165.226 78.032 165.39L77.8415 165.397C77.4289 165.413 77.0955 165.608 76.913 165.952C76.7146 166.319 76.7225 166.811 76.9368 167.147C77.1273 167.452 77.4289 167.592 77.8892 167.577C92.9208 167.038 108.46 166.475 123.778 166.889C125.952 166.952 128.103 167.022 130.175 167.116C130.341 167.124 130.548 167.124 130.786 167.132C131.968 167.139 133.746 167.155 134.5 167.936L134.809 168.256L134.389 168.397C132.698 168.944 130.897 168.991 129.341 168.998C129.19 168.998 129.048 168.998 128.897 168.998C127.587 168.998 126.262 168.983 124.968 168.959L124.111 168.944C123.524 168.936 122.937 168.928 122.349 168.92L79.6114 168.46C78.7066 168.452 77.8098 168.444 76.905 168.444H76.4527C75.5876 168.444 74.7066 168.436 73.8257 168.428L71.04 168.389L73.7781 167.874C74.1352 167.803 74.4606 167.694 74.7781 167.53C75.0638 167.382 75.2384 167.163 75.3098 166.889C75.3654 166.647 75.3257 166.382 75.1908 166.14C75.04 165.858 74.7701 165.64 74.4844 165.554C74.2146 165.476 73.9289 165.507 73.659 165.647C73.4765 165.741 73.2622 165.804 73.0003 165.843L72.786 165.866L72.7067 165.663C72.659 165.538 72.5876 165.429 72.5003 165.335C71.0559 163.702 70.4606 161.617 70.0241 159.609C69.5718 157.492 69.2622 155.211 69.0797 152.649C68.7305 147.697 68.9527 142.565 69.1511 138.034ZM57.0242 162.117C58.8337 155.946 61.1194 149.876 63.8099 144.065C64.5638 142.44 65.3654 140.799 66.2702 139.05L66.8734 137.894L66.8019 139.19C66.5797 143.424 66.5718 147.58 66.7861 151.54C66.9607 154.743 67.3178 157.578 67.8813 160.203C68.1908 161.632 68.5797 162.859 69.0718 163.945L69.167 164.148L68.9845 164.28C67.413 165.421 64.3019 167.366 61.048 167.538C60.9289 167.546 60.802 167.546 60.675 167.546C59.5956 167.546 58.2385 167.296 57.2861 166.241C56.175 165.015 56.6274 163.476 57.0242 162.117Z" fill="#1E1E1E"/>
<path d="M89.0953 74.2541C89.008 74.5201 89.0556 74.8171 89.2064 75.0901C89.3572 75.3561 89.5953 75.5351 89.8651 75.5981C90.4286 75.7231 91 75.4341 91.1985 74.9181L91.3175 74.7621C91.4366 74.6761 91.5159 74.6291 91.6032 74.5821C91.8016 74.4731 92 74.3871 92.1984 74.2931C92.3016 74.2471 92.4127 74.2001 92.5159 74.1531L92.6826 74.0831C93.0953 73.9191 93.5635 73.7391 94.0397 73.5901C94.1508 73.5511 94.2619 73.5201 94.373 73.4891C94.8413 73.3481 95.2857 73.2231 95.6349 72.8871C95.8413 72.7001 95.9524 72.4111 95.9524 72.0981C95.9524 71.8021 95.8333 71.5281 95.6349 71.3411C95.5476 71.2631 95.4444 71.2001 95.3016 71.1381L94.7619 70.9111L92.2699 71.8951C91.9921 72.0051 91.7143 72.1221 91.4048 72.2551C90.4366 72.6761 89.4366 73.1841 89.0953 74.2541Z" fill="#1E1E1E"/>
<path d="M95.8177 147.877C97.4129 149.173 99.2303 150.642 101.143 151.509C101.936 151.868 102.579 151.806 103.69 151.189L104.048 150.985C104.881 150.517 105.738 150.04 106.571 149.525C109.992 147.431 113.04 143.838 111.357 140.057C110.476 138.089 108.587 136.964 106.524 137.214C105.055 137.386 103.46 138.089 102.238 139.089L102.063 139.237L101.881 139.097C100.516 138.026 98.7621 137.206 96.9843 137.206C95.7145 137.206 94.4367 137.62 93.278 138.651C91.8732 139.893 91.3891 141.807 92.032 143.526C92.7463 145.393 94.4526 146.767 95.8177 147.877ZM94.2621 140.893C94.897 139.823 96.3177 139.183 97.7065 139.417C98.7303 139.581 99.6907 140.065 100.659 140.917L100.746 140.995L100.754 141.112C100.762 141.354 100.873 141.581 101.071 141.776C101.317 142.01 101.667 142.151 102.016 142.112H102.056L102.095 142.12C102.365 142.174 102.659 142.104 102.897 141.916C103.175 141.713 103.357 141.409 103.389 141.081L103.397 140.971L103.476 140.901C104.325 140.143 105.516 139.659 106.341 139.456C107.643 139.136 108.794 139.706 109.341 140.948C110.682 144.002 107 146.658 105.833 147.4C105.262 147.767 104.714 148.08 103.992 148.486L103.071 149.009C103 149.048 102.913 149.111 102.817 149.181C102.46 149.439 102.254 149.556 102.087 149.572C101.905 149.548 101.754 149.462 101.389 149.181C101.286 149.103 101.206 149.048 101.159 149.017C100.841 148.822 100.524 148.619 100.214 148.416C99.5161 147.955 98.8573 147.494 98.2462 147.033C98.1192 146.939 97.9764 146.83 97.8256 146.72C96.1351 145.455 92.9605 143.104 94.2621 140.893Z" fill="#1E1E1E"/>
<path d="M71.2461 134.723C71.5397 134.801 71.881 134.746 72.1429 134.582C72.3889 134.434 72.5556 134.215 72.6112 133.965C72.8175 132.981 73.0715 132.012 73.3651 131.098L73.4207 130.926C73.5318 130.567 73.6588 130.161 73.7699 129.919C73.8175 129.84 73.8413 129.794 73.8731 129.731L74.0477 129.473L74.2619 129.403C74.5238 129.325 74.7381 129.309 75.0159 129.294L75.3334 129.27L79.9921 128.856C80.6349 128.802 81.1032 128.341 81.1032 127.763C81.1032 127.458 80.9524 127.153 80.7063 126.927C80.5 126.739 80.2381 126.646 80 126.669L76.5 126.982C76.254 127.005 75.9921 127.021 75.7302 127.036C74.8175 127.091 73.8651 127.146 73.0873 127.528C72.127 128.005 71.7223 129.005 71.3651 130.075C71.0159 131.122 70.7143 132.231 70.4683 133.387C70.3413 133.996 70.6747 134.574 71.2461 134.723Z" fill="#F7C300"/>
<path d="M133.444 155.774C133.301 155.547 133.079 155.383 132.825 155.329C132.286 155.211 131.611 155.469 131.46 156.086C131.27 156.891 131.063 157.672 130.849 158.414C130.738 158.797 130.619 159.18 130.5 159.562L130.428 159.773C130.397 159.875 130.365 159.961 130.357 160.008L130.333 160.133L130.214 160.195C130 160.289 129.825 160.351 129.651 160.406C129.286 160.523 128.897 160.617 128.5 160.687L128.27 160.726L128.262 160.703C128.23 160.703 128.198 160.711 128.167 160.711V160.734C127.968 160.75 127.77 160.765 127.579 160.773C127.079 160.797 126.627 160.828 126.238 161.086C125.77 161.39 125.484 162.046 125.833 162.578C126.008 162.843 126.294 163.038 126.603 163.101C126.849 163.148 127.103 163.117 127.309 162.999L127.436 162.96H127.516C127.69 162.953 127.873 162.945 128.048 162.929C128.571 162.882 129.032 162.812 129.46 162.718C130.381 162.515 131.317 162.25 131.889 161.671C132.397 161.156 132.611 160.359 132.801 159.648C132.841 159.5 132.881 159.352 132.921 159.203C133.167 158.359 133.397 157.508 133.595 156.672C133.667 156.375 133.611 156.04 133.444 155.774Z" fill="#1E1E1E"/>
<path d="M135.722 118.396C135.198 118.178 134.627 118.1 134.278 118.67C134.127 118.928 134.079 119.248 134.151 119.537C134.214 119.779 134.365 119.982 134.579 120.099C135.762 120.779 136.984 121.451 137.992 122.372C138.817 123.13 139.5 124.091 139.73 125.185C139.849 125.778 139.968 126.567 140.746 126.606C141.103 126.606 141.452 126.458 141.666 126.223C142.19 125.669 141.714 124.396 141.476 123.779C141.15 122.951 140.658 122.193 140.063 121.529C139.024 120.373 137.706 119.498 136.357 118.717C136.174 118.607 135.952 118.49 135.722 118.396Z" fill="#F7C300"/>
<path d="M61.5481 155.594C61.4529 155.571 61.3656 155.563 61.2704 155.563C60.7704 155.563 60.3339 155.868 60.1751 156.36C59.7227 157.758 59.4529 159.25 59.3735 160.796C59.3577 161.062 59.4767 161.343 59.6989 161.562C59.9053 161.773 60.1831 161.89 60.445 161.89C61.1116 161.859 61.564 161.421 61.5958 160.796C61.6116 160.453 61.6513 160.078 61.7069 159.633C61.8418 158.695 62.0482 157.797 62.3259 156.945C62.4132 156.688 62.3656 156.383 62.2148 156.117C62.0561 155.836 61.818 155.657 61.5481 155.594Z" fill="#1E1E1E"/>
<path d="M146.198 157.508L145.087 154.126C144.984 153.798 144.88 153.485 144.761 153.189C144.5 152.532 144.174 152.103 143.666 151.736C143.468 151.587 143.19 151.548 142.896 151.611C142.563 151.681 142.293 151.876 142.158 152.126C141.92 152.571 142 153.04 142.349 153.415C142.373 153.439 142.388 153.462 142.404 153.485C142.412 153.493 142.42 153.509 142.436 153.517C142.452 153.54 142.468 153.556 142.484 153.579L142.492 153.571L142.611 153.743L142.587 153.767C142.595 153.79 142.603 153.806 142.619 153.829L142.65 153.813L142.738 154.04C142.841 154.337 142.936 154.634 143.031 154.93L144.063 158.071C144.246 158.633 144.865 159.008 145.428 158.836C145.698 158.75 145.944 158.555 146.095 158.313C146.253 158.071 146.293 157.782 146.198 157.508Z" fill="#1E1E1E"/>
<path d="M118.151 115.405C119.698 115.881 120.809 117.108 121.778 118.358C121.849 118.443 121.912 118.537 121.976 118.623C122.071 118.748 122.151 118.873 122.23 119.014C122.254 119.053 122.278 119.1 122.301 119.146L122.341 119.232C122.516 119.701 123.079 120.201 123.706 119.998C124.016 119.896 124.285 119.67 124.428 119.381C124.547 119.146 124.563 118.889 124.484 118.662C124.206 117.904 123.73 117.303 123.262 116.725C122.849 116.202 122.46 115.772 122.079 115.389C121.039 114.366 119.912 113.663 118.73 113.296C118.46 113.21 118.159 113.257 117.881 113.405C117.611 113.554 117.428 113.796 117.365 114.053C117.238 114.655 117.563 115.217 118.151 115.405Z" fill="#1E1E1E"/>
<path d="M77.9843 60.8737C78.27 59.8738 78.5954 58.8896 78.9605 57.9522C79.0478 57.7179 79.143 57.4835 79.2462 57.2492L79.3097 57.1008L79.4763 56.7258C79.6748 56.2884 79.8573 55.8744 80.1351 55.5073C80.3335 55.2495 80.397 54.898 80.3176 54.5387C80.2303 54.1325 79.9684 53.781 79.643 53.6091C78.9763 53.2576 78.2541 53.4451 77.7621 54.0856C77.4446 54.4996 77.2383 54.9605 77.024 55.437C76.77 55.9994 76.5399 56.5462 76.3335 57.0774C75.9446 58.0616 75.6034 59.0927 75.3018 60.1394C75.1986 60.4909 75.2621 60.8893 75.4605 61.2174C75.651 61.5298 75.9446 61.7485 76.278 61.8267C76.3891 61.8501 76.5002 61.8657 76.6113 61.8657C77.2462 61.8657 77.8097 61.4751 77.9843 60.8737Z" fill="#1E1E1E"/>
<path d="M116.111 51.641C116.214 51.6722 116.317 51.7113 116.444 51.7581C116.73 51.8831 117 52.0393 117.246 52.2112C117.5 52.4143 117.73 52.6408 117.928 52.8751C118.111 53.1251 118.27 53.3985 118.412 53.7032C118.452 53.7969 118.484 53.8906 118.516 53.9922C118.627 54.3515 118.889 54.664 119.238 54.8436C119.436 54.9452 119.651 54.9998 119.857 54.9998C119.984 54.9998 120.111 54.9764 120.238 54.9374C120.976 54.703 121.404 53.9453 121.198 53.2501C120.587 51.2191 118.928 49.5866 116.857 48.9929C116.5 48.8914 116.103 48.946 115.77 49.1413C115.444 49.3288 115.214 49.6256 115.143 49.9537C114.968 50.7114 115.389 51.4301 116.111 51.641Z" fill="#1E1E1E"/>
<path d="M93.4123 79.8938C93.3646 80.0818 93.3091 80.4408 93.4202 80.7688C93.5631 81.1828 93.8329 81.5108 94.1504 81.6438C94.3567 81.7298 94.5869 81.8158 94.8567 81.8158C94.9678 81.8158 95.0789 81.7998 95.198 81.7688C95.5392 81.6748 95.8805 81.4168 96.0313 81.1278C96.1821 80.8468 96.2456 80.5418 96.2059 80.2608C96.2218 80.2138 96.2376 80.1668 96.2456 80.1128C96.3091 79.7848 96.3408 79.4958 96.3329 79.2218C96.3249 78.8318 96.2694 78.4328 96.2059 78.0578L96.198 77.9878C96.1662 77.7618 96.1424 77.5268 96.1424 77.2848C96.1424 76.9178 95.9837 76.5588 95.7059 76.2928C95.4361 76.0348 95.0948 75.9018 94.7456 75.9178C93.9678 75.9488 93.3726 76.5428 93.3646 77.2848C93.3567 77.7148 93.4281 78.1438 93.4837 78.5578L93.4996 78.6598C93.5392 78.9648 93.5472 79.2378 93.5392 79.4488C93.5234 79.5108 93.5075 79.5738 93.4837 79.6288C93.4599 79.7218 93.4361 79.8078 93.4123 79.8938Z" fill="#1E1E1E"/>
<path d="M104.77 81.0738C104.984 81.1988 105.246 81.2608 105.492 81.2608C105.619 81.2608 105.738 81.2458 105.849 81.2068C106.23 81.0818 106.524 80.8628 106.682 80.5578L106.809 80.2538C106.849 80.1208 106.857 79.9798 106.849 79.8238V79.8088C106.73 78.9178 106.698 78.0038 106.754 77.1138C106.778 76.7388 106.571 76.3478 106.349 76.1288C106.087 75.8718 105.69 75.7228 105.357 75.7308C104.952 75.7468 104.603 75.8948 104.381 76.1368C104.135 76.4028 104 76.7068 103.976 77.0818C103.913 78.0508 103.96 79.0818 104.127 80.2298C104.167 80.5658 104.492 80.9178 104.77 81.0738Z" fill="#1E1E1E"/>
<path d="M105.064 72.9731C105.413 73.0361 105.786 73.1451 106.23 73.3251C106.643 73.4971 107.111 73.6921 107.484 73.9421L107.714 74.2161C107.889 74.4891 108.064 74.7701 108.325 74.9971C108.595 75.2391 108.968 75.3871 109.349 75.3871C109.69 75.3871 110.032 75.2701 110.294 74.9811C110.556 74.7001 110.706 74.3011 110.683 73.9111C110.667 73.5671 110.524 73.2631 110.278 73.0441L110.23 73.0051C110.198 72.9501 110.159 72.9031 110.127 72.8491C109.944 72.5591 109.786 72.3411 109.619 72.1611C109.325 71.8491 108.937 71.5751 108.429 71.3251C107.508 70.8721 106.667 70.4821 105.762 70.3331C105.468 70.2861 105.087 70.2551 104.714 70.4741C104.405 70.6541 104.143 70.9891 104.071 71.3021C103.984 71.6921 104.071 72.1381 104.294 72.4741C104.484 72.7471 104.746 72.9271 105.064 72.9731Z" fill="#1E1E1E"/>
<path d="M98.4368 87.1512C98.905 87.4792 99.5558 87.6122 100.262 87.5182C100.944 87.4252 101.548 87.1752 102.016 86.7762C102.27 86.5582 102.476 86.2532 102.603 85.8862C102.722 85.5422 102.722 85.1202 102.603 84.8082C102.524 84.5892 102.389 84.3242 102.095 84.1522C101.841 84.0032 101.492 83.9642 101.246 84.0422C100.936 84.1442 100.698 84.3162 100.579 84.5422C100.484 84.7142 100.429 84.8942 100.421 85.0582L100.405 85.2452L100.222 85.3002C100.159 85.3232 100.095 85.3392 100.048 85.3472C99.9447 85.3632 99.8971 85.3632 99.8574 85.3632H99.6431L99.5875 85.1592C99.532 84.9642 99.4447 84.8082 99.3177 84.6832C99.1272 84.4952 98.8018 84.3632 98.5241 84.3632C98.2066 84.3782 97.9288 84.4882 97.7542 84.6832C97.5241 84.9332 97.405 85.2142 97.4288 85.4482C97.4606 85.7612 97.5161 86.1052 97.7225 86.4332C97.8891 86.7062 98.1114 86.9252 98.4368 87.1512Z" fill="#1E1E1E"/>
<path d="M98.024 92.4788C96.4764 91.8848 94.8494 91.1898 93.3653 90.1198C93.2463 90.0338 93.2463 90.0338 93.0875 89.9008C92.9367 89.7838 92.7939 89.6588 92.651 89.5258C92.3415 89.2448 92.0637 88.9558 91.8177 88.6668C91.7701 88.6118 91.7224 88.5568 91.6828 88.5028L91.5717 88.3538C91.4605 88.1978 91.3494 88.0418 91.2542 87.8858C91.1431 87.7058 91.0399 87.5258 90.9447 87.3468L90.8177 87.0808C90.7939 87.0258 90.7859 86.9948 90.7621 86.9328C90.524 86.3228 89.9605 86.0108 89.3971 86.1668C89.1113 86.2448 88.8336 86.4798 88.6828 86.7688C88.5558 87.0188 88.532 87.2758 88.6193 87.5028C89.2701 89.1818 90.4367 90.6588 92.0875 91.8928C93.7066 93.1038 95.6193 93.8928 97.4447 94.5878C97.6748 94.6738 97.9367 94.6498 98.1827 94.5328C98.4764 94.3848 98.7224 94.1108 98.8018 93.8298C98.9605 93.2518 98.6589 92.7208 98.024 92.4788Z" fill="#1E1E1E"/>
<path d="M152.032 172.701C139.357 173.272 126.246 173.857 113.222 174.092C101.381 174.303 89.341 174.092 77.6903 173.881L53.0237 173.443C52.2936 173.443 51.9682 173.99 51.9523 174.49C51.9444 175.029 52.2698 175.607 53.0237 175.623L64.603 175.834C72.9046 175.99 82.3093 176.162 91.5235 176.295C94.6108 176.341 97.7695 176.365 100.905 176.365C110.159 176.365 119.77 176.177 130.294 175.795C137.428 175.537 144.69 175.209 151.706 174.896L152.024 174.881C152.754 174.849 153.119 174.232 153.095 173.678C153.071 173.193 152.73 172.678 152.032 172.701Z" fill="#1E1E1E"/>
<path d="M67.1665 56.7493C67.9363 56.9211 68.6109 56.5462 68.8807 55.7885C68.968 55.562 69.0474 55.3276 69.1426 55.1011L69.2934 54.7496C69.476 54.3512 69.6664 53.9528 69.8728 53.5623C70.3093 52.7499 70.8093 51.9531 71.3648 51.1954L71.6426 50.8283C71.7696 50.6721 71.8966 50.5158 72.0236 50.3674C72.3331 50.0003 72.6505 49.6566 72.968 49.3363C73.2775 49.0239 73.6029 48.7114 73.9283 48.4224C74.1109 48.2584 74.3013 48.0943 74.4918 47.9381L74.8569 47.6491C75.4204 47.2195 75.8251 46.4539 75.3886 45.7822C75.1664 45.4463 74.7378 45.1651 74.3172 45.0948C74.2537 45.087 74.1823 45.0791 74.1109 45.0791C73.9283 45.0791 73.714 45.126 73.5236 45.2666C70.1426 47.8209 67.6188 51.2267 66.2141 55.1011C66.1109 55.3979 66.1506 55.7494 66.3331 56.0775C66.5236 56.429 66.8411 56.679 67.1665 56.7493Z" fill="#59C69F"/>
<path d="M108.079 15.6696C108.365 15.857 108.754 15.9273 109.048 15.8492C109.913 15.6149 109.849 14.7322 109.809 14.4666C109.198 10.1938 108.952 5.71791 109.095 1.16391C109.111 0.679612 108.873 0.429612 108.659 0.296812C108.476 0.187412 108.254 0.132812 108.032 0.132812C107.825 0.132812 107.611 0.187412 107.428 0.281212C107.19 0.406212 106.897 0.663911 106.889 1.18731C106.754 5.71791 107.024 10.4125 107.698 15.1384C107.738 15.3962 107.928 15.568 108.079 15.6696Z" fill="#59C69F"/>
<path d="M49.6354 67.8259C49.8259 68.0914 50.0719 68.1696 50.2386 68.1852C50.5322 68.2086 50.8418 68.0993 51.0719 67.8727L51.8418 67.1306L52.0164 67.3962C52.1116 67.5446 52.1989 67.7009 52.2862 67.8493C52.3576 67.9743 52.4211 68.0914 52.4925 68.2008C52.8894 68.8179 53.3576 69.255 53.9132 69.544C54.5005 69.849 55.1592 69.927 55.6909 69.747C55.9846 69.646 56.2465 69.49 56.4608 69.271L56.7544 68.9741L56.9687 69.56C57.2306 70.294 57.4687 70.927 58.2465 71.075C58.683 71.161 59.2068 70.966 59.5719 70.583C59.5878 70.568 59.6671 70.474 59.7465 70.388L60.0084 70.083L60.1909 70.435C60.2385 70.529 60.2623 70.575 60.2862 70.63C60.3576 70.771 60.429 70.943 60.5004 71.122C60.8655 71.974 61.2544 72.856 62.175 72.833C63.31 72.802 64.4925 71.63 64.9369 71.122C65.2068 70.825 65.183 70.536 65.1195 70.349C65.0163 70.036 64.6988 69.771 64.3655 69.701C64.1512 69.662 63.8417 69.669 63.5639 69.99C63.3973 70.177 63.0401 70.568 62.6671 70.818L62.4052 70.989L62.0957 70.302C62.0242 70.154 61.9608 70.005 61.8973 69.857C61.6592 69.365 61.3655 68.8648 60.8735 68.5679C60.3814 68.2711 59.8338 68.2008 59.3417 68.3805C59.1989 68.4351 59.0639 68.5133 58.9052 68.6382L58.6195 68.8648L58.4925 68.5289C58.2624 67.9118 58.0322 67.4431 57.6751 67.1541C57.3973 66.9276 57.0798 66.826 56.7227 66.8729C56.2465 66.9354 55.7544 67.24 55.4449 67.6774C55.3894 67.7556 55.3576 67.8102 55.3417 67.8493C55.2068 68.0914 55.0243 68.0758 54.8656 68.0211L54.7624 67.9899C54.3894 67.8805 54.1433 67.4822 53.9608 67.1853L53.9052 67.076C53.4052 66.2714 52.9529 65.623 52.1513 65.1387C51.81 64.9356 51.3576 65.1309 51.0799 65.3965L50.5084 65.9433L49.6434 64.6857C49.31 64.217 48.7942 64.2482 48.4291 64.4904C48.0561 64.7404 47.8338 65.2169 48.1672 65.7012L49.6354 67.8259Z" fill="#F7C300"/>
<path d="M55.8097 78.7151C55.6827 78.9261 55.643 79.1841 55.7065 79.4101C55.8335 79.8711 56.3256 80.1451 56.8176 80.0271C59.5795 79.3631 62.3811 78.9261 65.143 78.7231C65.5954 78.6841 66.0637 78.3711 66.0637 77.8401C66.0637 77.6061 65.9446 77.3481 65.7462 77.1681C65.5795 77.0201 65.3811 76.9421 65.1827 76.9581C62.1748 77.1841 59.1907 77.6451 56.3177 78.3321C56.1192 78.3711 55.9288 78.5121 55.8097 78.7151Z" fill="#1E1E1E"/>
<path d="M99.8416 20.2239C100.032 20.4582 100.317 20.4972 100.476 20.5128C100.809 20.5362 101.175 20.4112 101.389 20.2003C101.897 19.6926 101.698 19.0364 101.365 18.6302C98.8496 15.537 96.5242 12.139 94.4448 8.53805C94.3099 8.30365 94.0718 8.12405 93.7781 8.05375C93.6829 8.03025 93.5718 8.01465 93.4686 8.01465C93.2702 8.01465 93.0877 8.06155 92.921 8.15525C92.4051 8.45215 92.2305 9.13955 92.5242 9.65505C94.6194 13.2639 97.0797 16.8259 99.8416 20.2239Z" fill="#1E1E1E"/>
<path d="M127.492 109.937C127.904 109.741 128.23 109.288 127.968 108.734C127.801 108.382 127.619 107.968 127.539 107.57L127.484 107.257L128.27 107.25C128.436 107.25 128.603 107.25 128.77 107.242C129.341 107.218 129.928 107.148 130.412 106.812C130.897 106.468 131.182 106 131.206 105.476C131.214 105.32 131.198 105.164 131.143 104.969L131.047 104.617L131.42 104.633C132.103 104.664 132.643 104.641 133.063 104.437C133.397 104.281 133.619 104.016 133.722 103.664C133.857 103.195 133.762 102.617 133.468 102.149C133.412 102.063 133.373 102.016 133.349 101.985C133.166 101.766 133.254 101.618 133.373 101.485L133.444 101.399C133.698 101.094 134.182 101.032 134.539 100.985L134.666 100.969C135.635 100.829 136.444 100.672 137.214 100.133C137.547 99.8989 137.547 99.4069 137.404 99.0479L137.111 98.2979L138.658 98.0009C139.071 97.9229 139.238 97.6729 139.309 97.4779C139.42 97.1489 139.341 96.7509 139.111 96.4859C138.968 96.3289 138.714 96.1499 138.285 96.2279L135.674 96.7279C135.341 96.7899 135.174 96.9849 135.087 97.1419C134.944 97.3989 134.928 97.7349 135.047 98.0399L135.444 99.0549L135.111 99.1099C134.928 99.1409 134.746 99.1569 134.571 99.1799C134.428 99.1959 134.277 99.2119 134.15 99.2269C133.397 99.3439 132.793 99.5939 132.293 99.9929C131.77 100.415 131.428 100.993 131.381 101.555C131.357 101.868 131.404 102.172 131.523 102.453L131.69 102.844L131.039 102.805C130.23 102.75 129.531 102.711 129.071 103.367C128.817 103.742 128.793 104.297 129 104.797C129.008 104.82 129.063 104.93 129.119 105.039L129.309 105.398L128.897 105.422C128.785 105.43 128.738 105.43 128.674 105.43C128.516 105.437 128.317 105.437 128.119 105.437C128.039 105.437 127.96 105.437 127.873 105.437C126.992 105.437 126.127 105.5 125.809 106.304C125.381 107.367 126.024 108.929 126.325 109.554C126.579 110.069 127.095 110.124 127.492 109.937Z" fill="#1E1E1E"/>
<path d="M153.135 179.122C153.103 179.005 153.063 178.888 153.031 178.771C153.008 178.724 152.984 178.685 152.96 178.638C152.944 178.607 152.92 178.576 152.904 178.544C152.563 178.427 152.158 178.474 151.904 178.74C151.016 179.693 149.912 180.497 148.595 180.755C147.293 181.013 145.595 180.458 145.444 178.958C145.349 178.005 144.262 177.748 143.69 178.49C142.881 179.536 141.087 181.653 139.69 180.169C138.912 179.341 138.666 178.201 137.349 178.013C136.905 177.951 136.547 178.06 136.286 178.435C135.857 179.052 135.436 179.669 135.008 180.286C134.071 179.411 132.857 178.732 131.587 179.13C130.865 179.357 130.413 179.888 130 180.481C129.42 181.317 129.254 181.38 128.444 180.724C127.349 179.841 126.174 179.107 124.817 180.013C124.079 180.505 123.69 181.192 122.698 181.083C122.008 181.005 121.206 180.56 121.119 179.818C121.048 179.185 120.357 178.583 119.706 179.021C118.428 179.88 116.992 180.927 115.389 181.005C114.119 181.067 112.809 180.442 112.548 179.146C112.413 178.466 111.436 178.247 110.976 178.74C110.087 179.693 108.984 180.497 107.667 180.755C106.365 181.013 104.667 180.458 104.516 178.958C104.421 178.005 103.333 177.748 102.762 178.49C101.952 179.536 100.159 181.653 98.7615 180.169C97.9837 179.341 97.7377 178.201 96.4203 178.013C95.9758 177.951 95.6187 178.06 95.3568 178.435C94.9282 179.06 94.4996 179.685 94.0711 180.31C93.1346 179.427 91.9123 178.732 90.6266 179.13C89.9044 179.357 89.452 179.888 89.0393 180.481C88.46 181.317 88.2933 181.38 87.4838 180.724C86.3886 179.841 85.214 179.107 83.8568 180.013C83.1187 180.505 82.7299 181.192 81.7378 181.083C81.0473 181.005 80.2457 180.56 80.1584 179.818C80.087 179.185 79.3965 178.583 78.7458 179.021C77.468 179.88 76.0315 180.927 74.4283 181.005C73.1585 181.067 71.849 180.442 71.5871 179.146C71.4521 178.466 70.476 178.247 70.0156 178.74C69.1268 179.693 68.0236 180.497 66.7061 180.755C65.4045 181.013 63.7061 180.458 63.5554 178.958C63.4601 178.005 62.3728 177.748 61.8014 178.49C60.9919 179.536 59.1982 181.653 57.8014 180.169C57.0236 179.341 56.7776 178.201 55.4602 178.013C55.0157 177.951 54.6586 178.06 54.3967 178.435C53.7459 179.38 53.0951 180.333 52.4364 181.278C51.7538 182.27 53.3808 183.192 54.0633 182.216C54.5475 181.513 55.0316 180.817 55.5078 180.114C55.8808 180.497 56.1427 181.13 56.4681 181.481C57.0554 182.122 57.8808 182.481 58.7617 182.497C60.2458 182.52 61.3649 181.739 62.3014 180.755C62.9601 181.786 64.0712 182.497 65.4046 182.645C67.2141 182.848 68.9521 182.091 70.341 180.966C71.0474 181.989 72.2537 182.637 73.5315 182.817C75.4362 183.075 77.1823 182.223 78.7537 181.239C79.2457 182.059 80.0711 182.645 81.1029 182.872C81.8489 183.036 82.6426 182.989 83.3489 182.692C84.0791 182.387 84.7854 181.263 85.5473 181.583C86.1743 181.848 86.6267 182.512 87.2378 182.833C87.8806 183.169 88.6108 183.239 89.2695 182.919C90.0631 182.536 90.2616 181.778 90.833 181.192C91.7298 180.278 93.0235 181.848 93.5552 182.52C94.0393 183.114 94.7457 182.794 95.0076 182.239C95.0076 182.231 95.0155 182.231 95.0234 182.223C95.5076 181.52 95.9917 180.825 96.4679 180.122C96.8409 180.505 97.1028 181.138 97.4282 181.489C98.0155 182.13 98.8409 182.489 99.7218 182.505C101.206 182.528 102.325 181.747 103.262 180.763C103.921 181.794 105.032 182.505 106.365 182.653C108.175 182.856 109.913 182.098 111.302 180.974C112.008 181.997 113.214 182.645 114.492 182.825C116.397 183.083 118.143 182.231 119.714 181.247C120.206 182.067 121.032 182.653 122.063 182.88C122.809 183.044 123.603 182.997 124.309 182.7C125.04 182.395 125.746 181.27 126.508 181.591C127.135 181.856 127.587 182.52 128.198 182.841C128.841 183.176 129.571 183.247 130.23 182.926C131.024 182.544 131.222 181.786 131.793 181.2C132.69 180.286 133.984 181.856 134.516 182.528C135.032 183.161 135.801 182.755 136.008 182.137C136.468 181.466 136.928 180.802 137.389 180.13C137.762 180.513 138.024 181.145 138.349 181.497C138.936 182.137 139.762 182.497 140.643 182.512C142.127 182.536 143.246 181.755 144.182 180.771C144.841 181.802 145.952 182.512 147.285 182.661C149.095 182.864 150.833 182.106 152.222 180.981C152.238 181.005 152.262 181.02 152.27 181.036C152.389 180.841 152.516 180.646 152.619 180.442C152.778 180.146 152.904 179.833 153.055 179.536C153.079 179.482 153.095 179.427 153.103 179.372C153.103 179.271 153.103 179.208 153.111 179.208C153.135 179.169 153.135 179.146 153.135 179.122Z" fill="#F7C300"/>
<path d="M256.088 96.1931C241.427 93.8501 226.528 94.1081 211.868 96.9741C210.402 97.2321 210.893 99.8391 212.597 99.5741C225.547 96.9741 238.497 96.7091 251.685 98.2711C249.729 99.3101 247.528 100.355 245.578 101.136C244.113 101.917 245.333 104.001 246.805 103.478C249.981 101.917 253.402 100.355 256.572 98.7931C257.308 98.0131 257.063 96.1931 256.088 96.1931Z" fill="#1E1E1E"/>
<path d="M251.849 92.4148C251.628 92.1908 251.283 92.0628 250.956 91.9618C250.261 91.7378 249.559 91.5238 248.888 91.2408C248.204 90.9528 247.798 90.6328 247.016 90.6328C246.764 90.6328 246.511 90.8298 246.253 91.0278C246 91.2248 246 91.6258 246 91.8228C246 92.0198 246.253 92.2178 246.505 92.4208C247.78 92.8158 249.042 93.2158 250.316 93.6158C251.117 93.6158 251.437 93.3648 251.917 92.8368C251.948 92.7998 251.985 92.7618 251.997 92.7138C252.009 92.6558 251.985 92.5968 251.954 92.5438C251.923 92.5008 251.892 92.4528 251.849 92.4148Z" fill="#1E1E1E"/>
</svg>
