<svg width="316" height="64" viewBox="0 0 316 64" fill="none" xmlns="http://www.w3.org/2000/svg">
<g clip-path="url(#clip0)">
<path d="M13.8911 51.1099C11.7134 48.5478 7.72078 47.02 4.52012 48.7149C3.45186 49.2798 4.40463 50.8633 5.47702 50.2983C7.58467 49.1843 10.2244 50.171 11.8412 51.6669C13.6313 53.326 14.4686 55.7768 13.9819 58.136C13.7426 59.2898 13.2436 60.6027 12.1464 61.2313C10.9916 61.8878 9.49021 62.1623 8.16623 62.1822C5.81523 62.222 3.28687 61.1677 2.28873 58.9875C1.20397 56.6162 2.41659 53.7437 4.90783 52.7809C5.38627 52.5939 5.71211 52.1722 5.56776 51.655C5.44814 51.2174 4.87483 50.8314 4.4005 51.0184C1.3937 52.1802 -0.437606 55.0686 0.0903381 58.1997C0.610033 61.2672 3.43123 63.4394 6.52053 63.889C8.31884 64.1516 10.1955 63.9407 11.899 63.336C13.5447 62.7512 14.6377 61.7287 15.31 60.1651C16.6133 57.1374 16.0318 53.6244 13.8911 51.1099Z" fill="#1E1E1E"/>
<path d="M12.8147 53.5843C12.3321 53.3098 11.8248 53.5167 11.5195 53.9105C10.9132 54.6864 10.2946 55.4502 9.66354 56.2022C9.34182 56.5881 9.01598 56.966 8.69426 57.34C8.52103 57.5389 8.35193 57.7339 8.17869 57.9288C8.15807 57.9527 8.13332 57.9806 8.10858 58.0085C8.08383 57.9885 8.06321 57.9726 8.03433 57.9487C7.78274 57.7498 7.54351 57.535 7.31254 57.3122C6.87946 56.8825 6.55362 56.4767 6.22778 55.9674C5.95968 55.5497 5.37812 55.3826 4.93266 55.6412C4.49959 55.8839 4.32223 56.4727 4.59445 56.8904C5.0894 57.6663 5.69158 58.3785 6.39276 58.9872C6.7516 59.2975 7.13518 59.5919 7.53526 59.8505C8.10858 60.2205 8.73139 60.1091 9.18096 59.6118C10.5668 58.0642 11.8866 56.4568 13.1694 54.8256C13.4663 54.4437 13.2189 53.8151 12.8147 53.5843Z" fill="#1E1E1E"/>
</g>
<g clip-path="url(#clip1)">
<path d="M47.7571 58.4751C43.5003 61.8989 38.5341 64.3512 33.4742 63.9588C28.4382 63.5653 23.3323 60.3261 20.4855 55.6427C17.6395 50.982 17.0754 44.8534 19.6423 41.0254C22.2091 37.1975 27.9058 35.6474 33.697 34.0704C39.4643 32.4944 45.2804 30.9391 49.5233 32.9629C53.7432 35.0104 56.391 40.6598 55.9527 45.6703C55.5144 50.6807 51.991 55.075 47.7571 58.4751Z" fill="#59C69F"/>
<path fill-rule="evenodd" clip-rule="evenodd" d="M68.1458 42.3276C68.1786 42.3792 68.2113 42.4309 68.2507 42.4752C68.4603 42.8 68.4603 43.2134 68.3555 43.6269C68.2769 43.9812 68.0148 44.3356 67.7528 44.5127C67.4907 44.6899 67.019 44.808 66.7308 44.6604C65.4467 44.0698 64.1626 43.4201 62.8786 42.7705C62.5641 42.6229 62.3807 42.239 62.2759 41.8846C62.1711 41.5007 62.2497 41.0873 62.4069 40.733C62.5641 40.4081 62.8786 40.1424 63.1931 40.0538C63.5599 39.9357 63.8744 40.0243 64.2151 40.2014C65.1322 40.6739 66.0232 41.1169 66.9404 41.5598C67.0321 41.6041 67.1173 41.641 67.2024 41.6779C67.2876 41.7148 67.3728 41.7517 67.4645 41.796C67.6741 41.8846 67.8838 42.0027 68.041 42.1799C68.0803 42.2242 68.1131 42.2759 68.1458 42.3276ZM25.3734 48.1596C41.6441 44.8237 58.2679 44.5788 74.6201 47.3945C75.761 47.5781 75.9511 49.6593 74.9461 50.2102C73.1125 51.1437 71.2858 52.0848 69.459 53.0259C67.6323 53.967 65.8056 54.9081 63.9722 55.8415C62.3967 56.6679 61.0385 54.0358 62.614 53.2095C64.8685 52.0159 67.1502 50.8529 69.432 49.6899C55.0355 47.7006 40.3946 48.1903 26.1068 51.1283C24.3955 51.465 23.6621 48.5269 25.3734 48.1596Z" fill="#1E1E1E"/>
</g>
<g clip-path="url(#clip2)">
<path d="M48.4997 2.48198C53.7071 0.168309 59.3712 -0.92699 64.3712 0.963892C69.3469 2.84888 73.6343 7.71414 75.2576 13.4195C76.886 19.101 75.8208 25.6405 72.2106 28.8698C68.6003 32.099 62.4399 32.0419 56.1769 31.985C49.9382 31.9341 43.656 31.8475 39.9151 28.4993C36.2038 25.133 35.0389 18.4813 36.8171 13.3984C38.5954 8.31557 43.3217 4.77762 48.4997 2.48198Z" fill="#59C69F"/>
<path fill-rule="evenodd" clip-rule="evenodd" d="M23.4535 21.6725C23.4208 21.6209 23.388 21.5692 23.3487 21.5249C23.1391 21.2001 23.1391 20.7867 23.2439 20.3732C23.3225 20.0189 23.5846 19.6645 23.8466 19.4874C24.1087 19.3102 24.5804 19.1921 24.8686 19.3397C26.1527 19.9303 27.4368 20.58 28.7208 21.2296C29.0353 21.3773 29.2187 21.7611 29.3235 22.1155C29.4284 22.4994 29.3498 22.9128 29.1925 23.2671C29.0353 23.592 28.7208 23.8577 28.4064 23.9463C28.0395 24.0644 27.725 23.9759 27.3844 23.7987C26.4672 23.3262 25.5762 22.8833 24.659 22.4403C24.5673 22.396 24.4821 22.3591 24.3969 22.3222C24.3118 22.2853 24.2266 22.2484 24.1349 22.2041C23.9252 22.1155 23.7156 21.9974 23.5584 21.8202C23.5191 21.7759 23.4863 21.7242 23.4535 21.6725ZM66.2261 15.8405C49.9553 19.1764 33.3315 19.4213 16.9793 16.6056C15.8384 16.422 15.6483 14.3408 16.6533 13.7899C18.4869 12.8564 20.3136 11.9153 22.1404 10.9742C23.9671 10.0331 25.7937 9.092 27.6273 8.15857C29.2027 7.33223 30.5609 9.96427 28.9854 10.7906C26.7309 11.9842 24.4491 13.1472 22.1674 14.3102C36.5639 16.2995 51.2048 15.8099 65.4926 12.8718C67.2039 12.5351 67.9373 15.4732 66.2261 15.8405Z" fill="#1E1E1E"/>
</g>
<g clip-path="url(#clip3)">
<path d="M275.33 56.2839C273.937 48.6894 274.739 41.4177 272.183 33.9544C270.72 29.6882 263.945 31.5237 265.418 35.8303C267.944 43.2129 267.182 50.6057 268.565 58.1598C269.377 62.6176 276.142 60.7316 275.33 56.2839Z" fill="#F7C300"/>
<path d="M313.055 20.3789C310.459 16.4556 307.162 13.3796 303.343 10.6766C299.926 8.25608 295.576 4.90766 291.336 4.3227C286.917 3.71756 285.012 10.5253 289.472 11.1305C292.73 11.5742 296.107 14.2671 298.803 16.0825C301.98 18.2206 304.867 20.7218 306.991 23.9391C309.487 27.7112 315.571 24.1711 313.055 20.3789Z" fill="#F7C300"/>
<path d="M287.307 4.98845C286.696 4.67579 286.205 4.79682 285.894 4.9481L285.263 5.26076L284.972 4.70605C284.892 4.55477 284.792 4.43374 284.681 4.34297C283.98 3.76809 283.038 4.01014 282.456 4.38331C272.474 10.7473 264.296 18.604 256.388 26.1884C255.747 26.8036 256.057 27.4289 256.218 27.6609L256.288 27.8626C256.348 28.4475 257.09 29.0224 257.781 28.9619L259.254 28.9115C260.537 28.861 261.82 28.8207 263.093 28.8005C263.344 28.8005 263.584 28.7904 263.815 28.7904C264.556 28.7904 265.208 28.8106 265.809 28.861L266.982 29.0022L267.052 29.3754C268.866 39.5013 270.029 49.9097 270.51 60.2978C270.52 60.439 270.55 60.5701 270.62 60.7214L270.77 61.0542L270.439 61.2862C269.988 61.609 269.828 62.2242 270.059 62.7486C270.179 63.031 270.53 63.495 271.412 63.5151L301.84 63.9992C302.251 64.0093 302.551 63.9186 302.792 63.737L302.932 63.6362L303.113 63.616C303.413 63.5756 304.375 63.384 304.396 62.4461C304.636 51.6242 303.734 40.5603 301.72 29.567L301.609 28.9821L302.341 28.972C303.103 28.972 303.824 28.9922 304.516 29.0527C304.716 29.0527 304.927 29.0628 305.107 29.1233L305.147 29.1334C305.438 29.1737 305.738 29.2241 306.029 29.2745C306.691 29.3956 307.382 29.5469 308.074 29.7385C308.475 29.8494 308.825 29.7587 309.056 29.6679C309.457 29.5065 309.798 29.1838 309.938 28.8409C310.209 28.1651 309.567 27.5297 308.825 27.328C306.17 26.5918 303.313 26.3396 300.577 26.5918C300.036 26.6422 299.705 26.7431 299.404 26.975C299.144 27.1667 299.043 27.4491 299.003 27.6508L298.973 27.7819L298.873 27.8928C298.583 28.1853 298.472 28.5383 298.542 28.9216C298.653 29.4863 298.753 30.0511 298.853 30.626L299.104 32.0582L298.111 31.7758C293.712 30.5151 289.322 29.5469 285.072 28.9115C283.709 28.7098 282.246 28.5282 280.582 28.3467L276.433 27.9029L280.552 27.328C282.587 27.0456 284.621 26.7935 286.666 26.5414C293.431 25.7043 300.417 24.847 306.891 22.7593L306.991 22.7189L307.422 22.5777L307.723 22.8702C309.667 24.7764 311.451 26.7229 313.055 28.6492C313.706 29.4359 314.779 29.2645 315.34 28.9619C315.891 28.6593 316.282 28.1147 315.741 27.4491C308.244 18.3619 298.673 10.8078 287.307 4.98845ZM280.933 8.61926C282.046 7.83258 283.148 7.08625 284.21 6.40043L284.862 5.97684L285.192 6.60214C285.313 6.82402 285.513 7.00557 285.794 7.15685C287.899 8.23601 290.053 9.45636 292.389 10.8986L294.944 12.472L280.031 9.25465L280.933 8.61926ZM270.64 16.7583C272.955 14.7513 275.13 12.9762 277.285 11.3222L277.706 10.9995L278.147 11.302C278.317 11.4231 278.518 11.5037 278.758 11.5542L289.783 13.9243L269.177 18.019L270.64 16.7583ZM301.278 53.7825C301.359 56.3241 301.379 58.674 301.349 60.9836L301.339 61.5081L273.486 61.0643L273.556 60.4592C273.556 60.4189 273.566 60.3886 273.566 60.3483C273.546 59.8944 273.516 59.4406 273.486 58.9867L273.386 57.2822L274.238 57.4739C274.599 57.5545 274.97 57.5142 275.34 57.3427C277.094 56.5258 279.019 56.5762 280.893 56.6166L281.524 56.6267C283.569 56.667 285.603 56.5561 287.748 56.3039C292.348 55.7492 296.738 54.4885 300.417 53.3186L301.269 53.0463L301.278 53.7825ZM300.777 45.0383L300.818 45.5124C300.948 47.1059 301.048 48.7095 301.138 50.303L301.178 51.009L281.103 46.6419L283.358 46.1377C288.911 44.8971 294.894 44.9576 300.196 45.0282L300.777 45.0383ZM298.993 34.8821H299.555L299.625 35.336C299.946 37.4842 300.216 39.6123 300.437 41.6496L300.527 42.4867L299.565 42.174C296.287 41.1251 292.789 40.3788 289.412 39.6526C286.345 38.9971 283.168 38.3112 280.141 37.4136L278.067 36.7883L280.231 36.4151C286.355 35.3763 292.629 34.8519 298.993 34.8821ZM277.846 30.6462C279.921 30.7975 282.076 30.9588 284.14 31.2614C285.393 31.453 286.636 31.6648 287.878 31.8968L291.446 32.5625L287.808 32.9054C282.897 33.3794 278.046 34.156 273.396 35.2351C272.775 35.3763 272.514 35.7898 272.404 36.0218L272.133 36.6269L272.554 37.1312C272.695 37.3027 272.845 37.4136 273.015 37.4943C277.555 39.5619 282.657 40.641 287.578 41.6899L291.617 42.5573L288.29 42.88C283.449 43.3439 279.41 44.3323 275.972 45.9057C275.361 46.1881 275.2 46.7125 275.27 47.116C275.33 47.5295 275.651 48.0136 276.343 48.1649L295.205 52.2596L293.05 52.7841C290.514 53.3993 288.219 53.7926 286.034 53.9943C284.661 54.1154 283.248 54.1154 281.875 54.1053C279.109 54.0851 276.493 54.075 274.138 55.0533L273.266 55.4164L273.206 54.6196C272.795 48.8406 272.183 43.0716 271.382 37.4741L271.081 35.3864C270.83 33.7626 270.55 32.1288 270.279 30.505L270.159 29.7788L271.041 29.9301C273.256 30.3134 275.591 30.4848 277.846 30.6462ZM296.458 22.6382C292.92 23.2535 289.272 23.7073 285.754 24.141C280.281 24.8167 274.619 25.5227 269.267 26.8641L269.056 26.9145L268.856 26.854C266.481 26.2489 263.985 26.2489 261.64 26.3296L260.177 26.38L261.119 25.4824C263.253 23.4451 265.057 21.7507 266.791 20.1773L267.283 19.7336L267.764 20.1874C268.054 20.4597 268.415 20.611 268.836 20.6211C271.131 20.6816 273.416 20.7421 275.711 20.7926C282.497 20.9439 289.512 21.0951 296.398 21.6398L300.477 21.9625L296.458 22.6382ZM302.842 19.7538C297.921 19.1486 293.08 18.7452 288.45 18.5536C287.488 18.5132 286.536 18.483 285.573 18.4628L280.492 18.3216L296.377 15.1547C296.688 15.0942 296.939 14.9631 297.129 14.7513L297.55 14.3075L298.071 14.6807C299.905 16.012 301.699 17.424 303.413 18.8864L304.696 19.9756L302.842 19.7538Z" fill="#1E1E1E"/>
<path d="M308.685 39.1082C308.595 37.444 306.009 37.4945 306.099 39.1687C306.42 44.9174 306.73 50.6662 307.051 56.415C307.141 58.0791 309.727 58.0287 309.637 56.3545C309.316 50.6057 309.005 44.8569 308.685 39.1082Z" fill="#F7C300"/>
<path d="M269.858 5.97672C269.297 5.41193 268.495 5.5027 267.924 5.97672C264.105 9.15368 260.527 12.6332 257.24 16.3649C256.749 16.9196 256.699 17.7567 257.24 18.3114C257.741 18.8157 258.683 18.8661 259.174 18.3114C262.462 14.5797 266.04 11.1103 269.858 7.93333C270.429 7.44922 270.349 6.47092 269.858 5.97672Z" fill="#F7C300"/>
</g>
<g clip-path="url(#clip4)">
<path d="M226.169 8.70181C225.589 6.79181 224.249 5.54181 222.309 4.92181C220.329 4.29181 218.209 4.02181 216.139 3.87182C214.179 3.73182 212.079 3.52182 210.129 3.79182C206.579 4.30181 203.769 7.41182 204.329 10.9618C204.659 13.0718 206.179 14.5318 208.149 15.3318C209.119 15.7218 210.169 15.9718 211.189 16.1918C211.759 16.3118 212.329 16.4218 212.899 16.5218C213.119 16.5618 213.329 16.5918 213.549 16.6318C213.669 16.9918 213.789 17.4518 213.889 17.7018C214.119 18.3218 214.359 18.9418 214.589 19.5518C214.629 19.6618 214.689 19.7518 214.749 19.8418C214.949 20.7818 215.879 21.5118 216.889 21.4318C216.989 21.4218 217.089 21.4118 217.179 21.3518C217.239 21.3118 217.289 21.2618 217.339 21.2018C217.819 20.6518 218.229 20.0618 218.649 19.4718C218.909 19.1118 219.099 18.6918 219.429 18.3818C219.759 18.0718 220.179 17.8818 220.589 17.6918C222.489 16.8418 224.899 16.0418 225.939 14.1418C226.819 12.5518 226.689 10.4318 226.169 8.70181Z" fill="#F7C300"/>
<path d="M210.059 37.8618C210.019 37.7018 209.959 37.5418 209.859 37.4118C209.789 37.3118 209.719 37.2118 209.629 37.1418C209.439 36.9818 209.329 36.9118 209.089 36.8318C208.989 36.7918 208.879 36.7718 208.769 36.7618C208.559 36.7218 208.339 36.7018 208.129 36.6718C207.929 36.6518 207.769 36.6518 207.569 36.6918C207.449 36.7218 207.329 36.7718 207.229 36.8318C207.039 36.9318 206.919 37.0818 206.809 37.2518C206.809 37.2618 206.809 37.2618 206.799 37.2718C206.679 37.3918 206.579 37.5318 206.519 37.7018C206.429 37.9918 206.359 38.2818 206.339 38.5918C206.319 38.9318 206.419 39.2818 206.579 39.5818C206.959 40.2518 207.809 40.5518 208.539 40.3318C209.119 40.1618 209.599 39.7018 209.859 39.1618C209.929 39.0018 210.019 38.8318 210.059 38.6618C210.109 38.3718 210.119 38.1318 210.059 37.8618Z" fill="#F7C300"/>
<path d="M210.239 42.9514C210.229 42.8214 210.209 42.6814 210.179 42.5514C210.139 42.4214 210.089 42.3014 210.029 42.1814C210.009 42.1314 209.979 42.0814 209.949 42.0414C209.779 41.8014 209.629 41.6614 209.399 41.4914C209.249 41.3814 209.069 41.3114 208.899 41.2614C208.849 41.2414 208.809 41.2314 208.759 41.2214C208.629 41.2014 208.479 41.1714 208.349 41.1714C208.219 41.1714 208.089 41.1914 207.959 41.2114C207.909 41.2214 207.859 41.2314 207.809 41.2514C207.479 41.3714 207.189 41.5514 206.999 41.8614C206.869 42.0714 206.839 42.2714 206.809 42.5114C206.799 42.6314 206.819 42.7614 206.839 42.8814C206.829 42.9614 206.809 43.0414 206.809 43.1214C206.809 43.2514 206.829 43.3814 206.859 43.5114C206.869 43.5714 206.889 43.6214 206.909 43.6714C206.979 43.8514 207.049 44.0314 207.159 44.1914C207.239 44.2914 207.309 44.4014 207.409 44.4914C207.509 44.5714 207.609 44.6614 207.729 44.7214C207.849 44.7814 207.979 44.8414 208.109 44.8614C208.239 44.8914 208.379 44.9114 208.519 44.9114C208.809 44.9014 209.049 44.8314 209.299 44.7014C209.379 44.6614 209.449 44.6014 209.519 44.5514C209.599 44.4914 209.679 44.4314 209.739 44.3614C209.929 44.1414 210.039 43.9514 210.139 43.6814C210.209 43.5114 210.229 43.3114 210.239 43.1314C210.249 43.0614 210.239 43.0114 210.239 42.9514Z" fill="#F7C300"/>
<path d="M210.119 49.7417C210.119 49.6817 210.089 49.5217 210.079 49.4717C210.079 49.4517 210.069 49.4417 210.069 49.4217C210.059 49.3817 210.019 49.3017 210.009 49.2917C209.989 49.2517 209.969 49.1917 209.949 49.1517C209.899 49.0617 209.819 48.9717 209.749 48.8917C209.739 48.8817 209.729 48.8717 209.719 48.8617C209.649 48.8017 209.559 48.7317 209.479 48.6817C209.469 48.6717 209.449 48.6617 209.439 48.6617C209.349 48.6217 209.259 48.5817 209.169 48.5417C209.139 48.5317 209.109 48.5317 209.079 48.5217C209.049 48.4917 209.029 48.4617 208.989 48.4417C208.909 48.4117 208.829 48.3717 208.749 48.3417C208.569 48.2917 208.389 48.2917 208.209 48.3417C208.129 48.3717 208.049 48.4117 207.969 48.4417C207.819 48.5317 207.699 48.6517 207.609 48.8017C207.559 48.8717 207.519 48.9417 207.479 49.0117C207.479 49.0117 207.479 49.0217 207.469 49.0217C207.459 49.0317 207.459 49.0317 207.449 49.0417C207.419 49.0717 207.369 49.1417 207.359 49.1517C207.329 49.1917 207.289 49.2317 207.259 49.2817C207.239 49.3217 207.199 49.4117 207.199 49.4117C207.179 49.4517 207.149 49.5117 207.139 49.5617C207.139 49.5717 207.139 49.5817 207.129 49.5917C207.119 49.6717 207.089 49.7917 207.089 49.8717C207.089 49.8817 207.089 49.8917 207.089 49.9017C207.089 49.9817 207.109 50.1017 207.129 50.1817C207.129 50.2017 207.139 50.2117 207.139 50.2317C207.219 50.4617 207.289 50.5617 207.439 50.7517C207.449 50.7617 207.459 50.7817 207.479 50.7917C207.489 50.8017 207.489 50.8017 207.499 50.8117C207.539 50.8417 207.589 50.8817 207.629 50.9117C207.639 50.9217 207.639 50.9317 207.649 50.9317C207.819 51.0817 208.009 51.2117 208.239 51.2617C208.329 51.2817 208.489 51.3117 208.599 51.3017C208.699 51.2917 208.809 51.2817 208.909 51.2617C208.929 51.2617 208.949 51.2517 208.969 51.2417C209.079 51.2017 209.199 51.1617 209.289 51.0917C209.389 51.0217 209.489 50.9517 209.579 50.8717C209.639 50.8217 209.689 50.7617 209.739 50.7017C209.809 50.6117 209.899 50.5217 209.949 50.4117C209.989 50.3317 210.029 50.2317 210.069 50.1417C210.089 50.0817 210.099 50.0117 210.099 49.9517C210.109 49.9017 210.119 49.8317 210.119 49.7717C210.119 49.7517 210.119 49.7517 210.119 49.7417Z" fill="#F7C300"/>
<path d="M239.038 57.2717C228.018 56.8417 216.998 56.4417 205.978 57.0517C202.238 57.2617 202.448 62.9817 206.198 62.7717C217.218 62.1617 228.238 62.5617 239.258 63.0017C243.008 63.1517 242.768 57.4217 239.038 57.2717Z" fill="#F7C300"/>
<path d="M252.889 55.1515C245.529 55.3615 238.169 55.3515 230.809 55.1215C229.139 55.0715 229.249 57.6115 230.909 57.6615C237.709 57.8715 244.499 57.8915 251.299 57.7215C251.289 57.8715 251.289 58.0215 251.279 58.1715C251.249 58.4615 251.199 58.7515 251.139 59.0415C238.369 59.1415 225.599 59.2515 212.819 59.3515C210.929 59.3715 209.049 59.3815 207.159 59.4015C206.239 59.4115 205.329 59.4115 204.409 59.4215C203.979 59.4215 203.549 59.4315 203.119 59.4315C202.919 59.4315 202.659 59.4615 202.429 59.4415C202.309 59.1015 202.289 58.7015 202.229 58.3615C202.189 58.1615 202.169 57.9715 202.139 57.7715C202.179 57.7415 202.219 57.7115 202.249 57.6815C208.809 57.2315 215.369 57.2915 221.929 57.7915C222.629 57.8415 223.199 57.1115 223.179 56.4715C223.149 55.7215 222.539 55.3015 221.829 55.2415C214.849 54.7115 207.859 54.6715 200.879 55.2215C200.739 55.2315 200.619 55.2615 200.509 55.3015C199.889 55.3715 199.249 55.9515 199.339 56.6115C199.469 57.5015 199.619 58.3915 199.779 59.2815C199.939 60.1215 200.059 60.9315 200.769 61.5015C201.379 61.9815 202.139 61.9815 202.879 61.9815C203.849 61.9715 204.819 61.9615 205.789 61.9615L217.109 61.8715C224.599 61.8115 232.099 61.7515 239.589 61.6915L251.199 61.6015C251.359 61.7315 251.549 61.8415 251.739 61.8815C252.069 61.9415 252.449 61.9115 252.729 61.7215C252.869 61.6215 252.979 61.5115 253.069 61.3915C253.479 61.1115 253.639 60.5915 253.549 60.1015C253.789 59.1815 253.899 58.2315 253.889 57.2915C254.519 56.5515 254.149 55.1215 252.889 55.1515Z" fill="#1E1E1E"/>
<path d="M199.499 29.1714C200.389 37.1514 200.769 45.1914 200.619 53.2114C200.589 54.8514 203.179 54.7514 203.209 53.1214C203.349 45.0814 202.979 37.0414 202.079 29.0514C214.249 27.7814 226.569 27.4714 238.779 28.3514C242.359 28.6114 245.929 29.0514 249.439 29.8214C249.459 29.8214 249.479 29.8214 249.499 29.8314C249.069 33.3614 249.119 36.9214 249.239 40.4814C249.369 44.5314 249.499 48.5914 249.639 52.6414C249.689 54.2814 252.279 54.1914 252.229 52.5514C252.099 48.6014 251.969 44.6414 251.839 40.6914C251.719 36.9214 251.599 33.1214 252.159 29.3814C252.299 28.4514 251.519 27.8614 250.789 27.8414C250.629 27.6114 250.389 27.4314 250.029 27.3514C243.719 25.9614 237.209 25.6214 230.769 25.4314C224.229 25.2414 217.669 25.3414 211.139 25.7414C207.419 25.9714 203.709 26.3014 200.009 26.7114C198.609 26.8714 198.469 28.7414 199.499 29.1714Z" fill="#1E1E1E"/>
<path d="M205.789 32.7613C207.459 32.7013 207.359 30.1613 205.689 30.2213C204.019 30.2713 204.119 32.8213 205.789 32.7613Z" fill="#1E1E1E"/>
<path d="M209.559 29.7716C209.399 29.7016 209.229 29.6716 209.059 29.6816C208.949 29.7016 208.829 29.7216 208.719 29.7416C208.499 29.8116 208.319 29.9216 208.159 30.0916C208.099 30.1816 208.029 30.2716 207.969 30.3516C207.859 30.5516 207.809 30.7716 207.819 31.0016L207.829 31.1716C207.829 31.3516 207.869 31.5116 207.959 31.6616C208.019 31.8216 208.109 31.9516 208.239 32.0616C208.359 32.1816 208.499 32.2616 208.669 32.3116C208.829 32.3816 208.999 32.4116 209.169 32.4016C209.279 32.3816 209.399 32.3616 209.509 32.3416C209.729 32.2716 209.909 32.1616 210.069 31.9916C210.129 31.9016 210.199 31.8116 210.259 31.7316C210.369 31.5316 210.419 31.3116 210.409 31.0816L210.399 30.9116C210.399 30.7316 210.359 30.5716 210.269 30.4216C210.209 30.2616 210.119 30.1316 209.989 30.0216C209.859 29.9016 209.719 29.8216 209.559 29.7716Z" fill="#1E1E1E"/>
<path d="M212.789 32.1818C214.459 32.1218 214.359 29.5817 212.689 29.6417C211.019 29.7017 211.119 32.2418 212.789 32.1818Z" fill="#1E1E1E"/>
<path d="M253.789 24.1615C252.779 24.0815 251.999 24.0915 251.049 23.9415C250.019 23.7915 249.009 23.5515 248.019 23.2515C247.459 23.0815 246.769 23.5115 246.669 24.0715C246.549 24.6915 246.909 25.2215 247.509 25.4015C249.319 25.9515 251.199 26.2515 253.089 26.3315C253.269 26.3415 253.449 26.3415 253.629 26.3515C253.639 26.4915 253.639 26.6415 253.649 26.7815C253.679 27.7215 253.719 28.6615 253.749 29.6115C253.769 30.1915 254.309 30.7215 254.919 30.6815C255.529 30.6315 256.019 30.1615 255.999 29.5415C255.959 28.4915 255.929 27.4415 255.889 26.3815C255.869 25.8115 255.779 25.2915 255.399 24.8315C254.989 24.3615 254.389 24.2115 253.789 24.1615Z" fill="#F7C300"/>
<path d="M196.659 47.8416C196.649 48.4516 197.329 48.9316 197.949 48.8916C198.649 48.8516 199.079 48.3016 199.089 47.6916C199.119 44.4016 198.909 41.1116 198.439 37.8516C198.349 37.2516 197.839 36.7616 197.149 36.8016C196.519 36.8516 195.919 37.4016 196.009 38.0016C196.469 41.2616 196.689 44.5516 196.659 47.8416Z" fill="#1E1E1E"/>
<path d="M248.05 50.6017C248.01 49.8817 248.01 49.1617 248.04 48.4517C248.06 47.9517 247.53 47.4917 247.03 47.5317C246.47 47.5717 246.12 47.9817 246.1 48.5217C246.07 49.1817 246.07 49.8517 246.1 50.5117C246.11 50.8317 246.13 51.1517 246.16 51.4717C246.16 51.5317 246.17 51.5917 246.18 51.6517C246.05 51.6517 245.93 51.6417 245.8 51.6317C245.79 51.6317 245.79 51.6317 245.78 51.6317C245.65 51.6217 245.51 51.6017 245.38 51.5917C244.77 51.5317 244.15 51.5317 243.56 51.7317C243.08 51.9017 242.74 52.4317 242.93 52.9317C243.11 53.4017 243.64 53.7317 244.15 53.5517C244.24 53.5217 244.32 53.5017 244.41 53.4717C244.41 53.4717 244.41 53.4717 244.42 53.4717C244.57 53.4617 244.71 53.4517 244.86 53.4517C245.01 53.4517 245.16 53.4717 245.31 53.4817C245.32 53.4817 245.32 53.4817 245.33 53.4817C245.49 53.5017 245.64 53.5117 245.8 53.5317C246.1 53.5617 246.4 53.5817 246.7 53.5617C247.2 53.5217 247.79 53.4117 248.05 52.9317C248.27 52.5217 248.16 52.0817 248.12 51.6517C248.09 51.2917 248.07 50.9517 248.05 50.6017Z" fill="#1E1E1E"/>
<path d="M210.339 37.9315C210.249 37.4615 209.929 37.0315 209.609 36.6615C209.329 36.3415 208.969 36.0715 208.579 35.8715C208.179 35.6615 207.659 35.7415 207.349 36.0415C207.159 35.9615 206.939 35.9315 206.719 35.9915C205.829 36.2415 204.989 36.8715 204.829 37.7715C204.739 38.2615 204.779 38.7815 205.079 39.2215C205.309 39.5615 205.649 39.8415 206.039 40.0115C206.389 40.1615 206.739 40.2615 207.119 40.3115C207.609 40.3715 208.119 40.4215 208.609 40.2715C209.059 40.1315 209.449 39.8615 209.769 39.5315C209.929 39.3715 210.089 39.2015 210.199 39.0015C210.389 38.6615 210.419 38.3115 210.339 37.9315ZM208.789 38.3915C208.759 38.4815 208.709 38.5615 208.639 38.6315C208.589 38.6915 208.539 38.7415 208.479 38.7915C208.409 38.8515 208.339 38.9115 208.249 38.9615C208.169 39.0015 208.079 39.0415 207.999 39.0715C207.909 39.1015 207.809 39.1115 207.709 39.1215C207.669 39.1215 207.639 39.1215 207.599 39.1215C207.509 39.1115 207.419 39.1015 207.339 39.0815C207.259 39.0515 207.159 39.0115 207.089 38.9815C207.039 38.9615 206.989 38.9315 206.939 38.9015C206.869 38.8515 206.799 38.8015 206.739 38.7415C206.699 38.6915 206.649 38.6315 206.609 38.5715C206.599 38.5615 206.599 38.5515 206.589 38.5415C206.529 38.4215 206.509 38.3415 206.489 38.2115C206.469 38.0615 206.469 38.0215 206.499 37.8515C206.499 37.8415 206.499 37.8215 206.509 37.8115C206.529 37.7415 206.559 37.6715 206.589 37.6115C206.589 37.6015 206.599 37.5915 206.609 37.5815C206.649 37.5215 206.699 37.4615 206.739 37.4115C206.779 37.3715 206.819 37.3415 206.869 37.3015C206.909 37.2715 206.959 37.2315 207.009 37.2015C207.089 37.1615 207.169 37.1315 207.249 37.1015C207.269 37.0915 207.299 37.0815 207.319 37.0815C207.399 37.0615 207.489 37.0515 207.579 37.0415C207.609 37.0415 207.639 37.0415 207.669 37.0415C207.779 37.0415 207.889 37.0515 207.989 37.0915C208.049 37.1115 208.129 37.1415 208.189 37.1715C208.199 37.1715 208.199 37.1815 208.209 37.1815C208.259 37.2115 208.329 37.2715 208.369 37.3015C208.379 37.3115 208.379 37.3115 208.389 37.3215C208.419 37.3515 208.489 37.4415 208.509 37.4715C208.509 37.4715 208.509 37.4815 208.519 37.4815C208.519 37.4915 208.529 37.4915 208.529 37.5015C208.529 37.5015 208.529 37.5115 208.539 37.5115C208.579 37.5415 208.619 37.5615 208.659 37.5915C208.729 37.6615 208.779 37.7315 208.809 37.8315C208.859 37.9215 208.879 38.0115 208.869 38.1115C208.859 38.2115 208.839 38.3015 208.789 38.3915Z" fill="#1E1E1E"/>
<path d="M208.988 41.6516C208.728 41.5416 208.488 41.4815 208.208 41.5515C207.968 41.6115 207.718 41.7816 207.598 41.9916C207.578 42.0216 207.578 42.0516 207.568 42.0816C207.328 41.7616 206.918 41.5915 206.478 41.6915C205.598 41.9015 205.028 42.6815 204.998 43.5115C204.978 43.9815 205.178 44.4015 205.498 44.7515C205.748 45.0215 206.078 45.2215 206.408 45.3915C207.208 45.8115 208.128 46.1715 209.048 45.8715C209.538 45.7115 209.998 45.4615 210.318 45.0715C210.618 44.7015 210.778 44.2515 210.748 43.7815C210.638 42.8015 209.928 42.0416 208.988 41.6516ZM208.968 43.8015C208.968 43.8415 208.958 43.8815 208.958 43.9115C208.958 43.9415 208.948 43.9915 208.938 44.0215C208.878 44.2515 208.708 44.4616 208.508 44.5816C208.428 44.6216 208.338 44.6715 208.238 44.6815C208.168 44.6915 208.088 44.7015 208.018 44.7115C208.008 44.7115 207.998 44.7115 207.998 44.7115C207.978 44.7115 207.968 44.7115 207.948 44.7115C207.858 44.7015 207.748 44.6915 207.648 44.6615C207.568 44.6315 207.498 44.6015 207.418 44.5715C207.398 44.5615 207.388 44.5515 207.368 44.5515C207.348 44.5415 207.328 44.5315 207.318 44.5215C207.258 44.4715 207.188 44.4316 207.128 44.3816C207.058 44.3216 206.998 44.2315 206.948 44.1615C206.938 44.1415 206.928 44.1315 206.918 44.1115C206.898 44.0815 206.888 44.0415 206.868 44.0115C206.858 43.9815 206.838 43.9415 206.828 43.9115C206.808 43.8415 206.798 43.7315 206.788 43.6715C206.788 43.6515 206.788 43.6415 206.788 43.6215C206.788 43.4915 206.818 43.3715 206.888 43.2515C206.928 43.2015 206.968 43.1515 207.008 43.1015C207.028 43.0815 207.048 43.0815 207.068 43.0715C207.078 43.0615 207.088 43.0516 207.098 43.0416C207.148 43.0016 207.208 42.9515 207.268 42.9115C207.278 42.9015 207.278 42.9016 207.288 42.9016C207.298 42.9016 207.308 42.8915 207.308 42.8915C207.368 42.8615 207.438 42.8316 207.498 42.8116C207.518 42.8016 207.528 42.8015 207.548 42.8015C207.628 42.7915 207.708 42.7715 207.788 42.7715C207.808 42.7715 207.828 42.7715 207.838 42.7715C207.918 42.7815 207.998 42.7915 208.078 42.8015C208.098 42.8015 208.108 42.8116 208.128 42.8116C208.218 42.8416 208.308 42.8815 208.388 42.9215C208.468 42.9615 208.548 43.0316 208.618 43.0816C208.638 43.1016 208.668 43.1215 208.678 43.1415C208.738 43.2015 208.798 43.2715 208.838 43.3515C208.878 43.4215 208.918 43.5115 208.938 43.5915C208.948 43.6615 208.958 43.7315 208.968 43.8015C208.968 43.7915 208.968 43.8015 208.968 43.8015Z" fill="#1E1E1E"/>
<path d="M210.249 48.6513C209.919 48.3113 209.429 48.1213 208.969 48.0113C208.719 47.9513 208.469 47.9113 208.219 47.8813C207.869 47.8513 207.539 47.9313 207.229 48.0713C207.009 48.1713 206.819 48.4313 206.759 48.6413C206.749 48.6713 206.759 48.7113 206.749 48.7513L206.579 48.7713C206.409 48.8213 206.259 48.9013 206.129 49.0213C205.979 49.1313 205.849 49.2913 205.759 49.4513C205.619 49.7013 205.569 49.9313 205.539 50.2013C205.509 50.5713 205.629 51.0013 205.839 51.3013C206.349 52.0113 207.269 52.3513 208.169 52.2713C209.079 52.1913 209.939 51.8413 210.449 51.0913C210.969 50.3413 210.879 49.3213 210.249 48.6513ZM209.229 50.1213C209.229 50.2213 209.199 50.3113 209.139 50.3913C209.099 50.4413 209.059 50.4913 209.019 50.5413C209.009 50.5513 209.009 50.5513 208.999 50.5613C208.959 50.5913 208.889 50.6513 208.849 50.6813L208.839 50.6913C208.829 50.6913 208.819 50.7013 208.819 50.7013C208.759 50.7313 208.689 50.7613 208.639 50.7813H208.629C208.619 50.7813 208.609 50.7913 208.599 50.7913C208.549 50.8013 208.499 50.8013 208.449 50.8113C208.419 50.8213 208.399 50.8313 208.379 50.8413C208.369 50.8413 208.359 50.8513 208.349 50.8513C208.339 50.8513 208.329 50.8613 208.319 50.8613C208.249 50.8713 208.179 50.8813 208.109 50.8913C208.099 50.8913 208.089 50.8913 208.079 50.8913H208.069C208.029 50.8913 207.909 50.8713 207.869 50.8613C207.799 50.8413 207.729 50.8113 207.659 50.7813C207.479 50.6813 207.329 50.4913 207.289 50.2913C207.279 50.2413 207.279 50.2013 207.269 50.1513C207.259 50.1413 207.259 50.1313 207.249 50.1113C207.219 50.0113 207.219 49.9213 207.239 49.8213C207.239 49.7213 207.269 49.6313 207.329 49.5513C207.379 49.4613 207.439 49.4013 207.519 49.3413C207.589 49.2813 207.669 49.2313 207.769 49.2113C207.879 49.1713 207.999 49.1613 208.109 49.1513C208.229 49.1413 208.349 49.1613 208.459 49.1813C208.489 49.1813 208.509 49.1913 208.539 49.2013C208.619 49.2313 208.709 49.2613 208.779 49.3013C208.789 49.3113 208.799 49.3113 208.809 49.3213C208.869 49.3613 208.929 49.4013 208.979 49.4513C208.989 49.4613 208.999 49.4713 209.009 49.4813C209.049 49.5313 209.099 49.5913 209.129 49.6413C209.129 49.6513 209.139 49.6513 209.139 49.6613C209.189 49.7413 209.219 49.8313 209.229 49.9313C209.239 49.9913 209.239 50.0513 209.229 50.1213Z" fill="#1E1E1E"/>
<path d="M227.549 42.0915C223.179 41.8015 218.799 41.7915 214.439 42.0615C213.139 42.1415 213.129 44.0515 214.439 43.9715C218.809 43.7015 223.189 43.7115 227.549 44.0015C228.859 44.0815 228.849 42.1715 227.549 42.0915Z" fill="#1E1E1E"/>
<path d="M223.209 36.7414C220.189 36.4514 217.159 36.4414 214.129 36.7114C213.229 36.7914 213.219 38.7014 214.129 38.6214C217.149 38.3514 220.179 38.3614 223.209 38.6514C224.109 38.7414 224.109 36.8314 223.209 36.7414Z" fill="#1E1E1E"/>
<path d="M230.13 48.6217C224.94 48.3317 219.74 48.3117 214.54 48.5917C213.99 48.6217 213.51 48.9317 213.46 49.4817C213.42 49.9517 213.86 50.5217 214.41 50.4917C219.6 50.2217 224.81 50.2317 230 50.5217C231.31 50.6017 231.43 48.7017 230.13 48.6217Z" fill="#1E1E1E"/>
<path d="M222.388 4.85155C218.188 2.34155 212.468 2.94155 207.828 3.46155C205.838 3.69155 203.728 4.16155 202.448 5.81155C201.118 7.53155 200.998 9.96155 201.638 11.9715C202.378 14.2615 204.058 16.1416 206.218 17.2215C208.458 18.3415 210.738 18.2915 213.128 18.4715C213.328 19.6915 213.628 20.8815 214.058 22.0615C214.068 22.0815 214.088 22.0915 214.088 22.1215C214.008 23.1015 215.438 23.7915 215.938 22.7615C216.488 21.6415 217.038 20.5115 217.578 19.3915C217.768 19.0115 218.148 17.7615 218.488 17.5216C218.858 17.2615 219.518 17.3516 219.978 17.3015C221.938 17.0815 223.918 16.4016 225.158 14.8015C227.818 11.3816 225.718 6.84155 222.388 4.85155ZM222.288 14.5915C221.438 15.0415 220.448 15.2416 219.488 15.3116C218.718 15.3716 217.868 15.2615 217.228 15.8015C216.528 16.3916 216.208 17.5616 215.818 18.3516L215.338 19.3215C215.198 18.7315 215.078 18.1315 214.998 17.5216C214.928 16.9316 214.588 16.5716 213.978 16.5115C212.008 16.3116 210.018 16.5115 208.118 15.8415C206.348 15.2215 204.798 14.0015 203.948 12.3216C203.148 10.7116 202.848 8.21155 204.258 6.80155C205.478 5.57155 207.518 5.50155 209.138 5.36155C213.008 5.03155 217.688 4.50155 221.208 6.51155C222.638 7.33155 223.858 8.60155 224.218 10.2415C224.598 12.0015 223.908 13.7515 222.288 14.5915Z" fill="#1E1E1E"/>
<path d="M209.509 9.82137C209.409 9.69137 209.329 9.57137 209.199 9.47137C208.989 9.29137 208.819 9.20137 208.559 9.10137C208.459 9.06137 208.349 9.04137 208.239 9.03137C207.909 8.85137 207.519 8.80137 207.149 8.93137C206.779 9.06137 206.419 9.30137 206.229 9.66137C206.139 9.83137 206.089 10.0014 206.069 10.1914C205.899 10.3614 205.789 10.5914 205.789 10.8614C205.779 11.1814 205.869 11.4914 206.029 11.7714C206.179 12.0514 206.399 12.2414 206.649 12.4314C206.709 12.4814 206.779 12.5214 206.839 12.5514C206.989 12.6214 207.139 12.6914 207.299 12.7314C207.629 12.8114 207.919 12.8114 208.239 12.7514C208.569 12.6914 208.859 12.5114 209.119 12.3014C209.309 12.1514 209.479 11.9414 209.589 11.7314C209.659 11.5914 209.729 11.4314 209.769 11.2814C209.809 11.1114 209.839 10.9314 209.819 10.7614C209.789 10.4214 209.709 10.0914 209.509 9.82137Z" fill="#1E1E1E"/>
<path d="M221.329 9.82137C221.229 9.69137 221.149 9.57137 221.019 9.47137C220.809 9.29137 220.639 9.20137 220.379 9.10137C220.279 9.06137 220.169 9.04137 220.059 9.03137C219.729 8.85137 219.339 8.80137 218.969 8.93137C218.599 9.06137 218.239 9.30137 218.049 9.66137C217.969 9.83137 217.919 10.0014 217.889 10.1914C217.729 10.3714 217.619 10.5914 217.609 10.8614C217.599 11.1814 217.689 11.4914 217.849 11.7714C217.999 12.0514 218.219 12.2414 218.469 12.4314C218.529 12.4814 218.599 12.5214 218.659 12.5514C218.809 12.6214 218.959 12.6914 219.119 12.7314C219.449 12.8114 219.739 12.8114 220.059 12.7514C220.389 12.6914 220.679 12.5114 220.939 12.3014C221.129 12.1514 221.299 11.9414 221.409 11.7314C221.479 11.5914 221.549 11.4314 221.589 11.2814C221.629 11.1114 221.659 10.9314 221.639 10.7614C221.619 10.4214 221.539 10.0914 221.329 9.82137Z" fill="#1E1E1E"/>
<path d="M215.279 9.46148C215.199 9.31148 215.089 9.20148 214.969 9.10148C214.769 8.82148 214.459 8.59148 214.129 8.52148C213.869 8.46148 213.629 8.45148 213.369 8.52148C213.249 8.55148 213.139 8.60148 213.029 8.66148C212.959 8.70148 212.889 8.77148 212.819 8.83148C212.679 8.81148 212.539 8.81148 212.399 8.85148C212.159 8.93148 211.909 9.08148 211.789 9.31148C211.709 9.47148 211.639 9.64148 211.579 9.81148C211.519 9.99148 211.489 10.1915 211.479 10.3815C211.469 10.4715 211.469 10.5615 211.479 10.6515C211.499 10.8215 211.519 10.9915 211.579 11.1615C211.699 11.4815 211.849 11.7615 212.089 12.0015C212.329 12.2315 212.629 12.4115 212.949 12.5015C213.599 12.6815 214.319 12.5115 214.799 12.0415C215.229 11.6215 215.399 11.0315 215.429 10.4515C215.479 10.1215 215.439 9.77148 215.279 9.46148Z" fill="#1E1E1E"/>
<path d="M228.979 5.79171C228.769 5.29171 228.019 5.18171 227.589 5.43171C227.069 5.73171 227.009 6.31171 227.229 6.81171C228.029 8.67171 228.139 10.8617 227.629 12.8217C227.489 13.3517 227.809 13.9217 228.339 14.0617C228.869 14.2017 229.449 13.8817 229.589 13.3617C230.249 10.8217 230.009 8.19171 228.979 5.79171Z" fill="#1E1E1E"/>
</g>
<g clip-path="url(#clip5)">
<path d="M151.809 3.14762C149.319 2.98762 146.819 2.94762 144.319 3.07762C142.559 3.16762 140.059 2.97762 138.589 4.04762C137.049 5.15762 137.159 7.48762 136.919 9.11762C136.579 11.3976 136.279 13.6776 136.019 15.9576C135.629 19.4376 141.429 19.4176 141.819 15.9576C142.079 13.6576 142.109 10.8976 142.669 8.49762C143.849 8.38762 145.129 8.46762 146.199 8.44762C148.069 8.40762 149.939 8.46762 151.809 8.58762C155.529 8.81762 155.519 3.37762 151.809 3.14762Z" fill="#F7C300"/>
<path d="M163.819 57.3575C162.039 57.3575 160.249 57.3675 158.459 57.3775C157.859 57.3775 157.269 57.3775 156.679 57.3875C149.559 59.2475 155.359 50.1675 150.529 49.2575C143.759 46.5375 147.629 56.5175 146.479 60.5275C146.589 60.9575 146.759 61.3575 147.039 61.7075C147.319 62.0575 147.689 62.3475 148.209 62.5675C150.079 63.3575 152.889 62.8375 154.889 62.8275C157.859 62.8175 160.839 62.8075 163.819 62.7975C167.549 62.7875 167.559 57.3475 163.819 57.3575Z" fill="#F7C300"/>
<path d="M180.169 52.5478C179.929 50.5078 179.179 48.2478 177.029 47.2978C175.929 46.8078 174.739 46.6378 173.539 46.7778C172.239 46.9278 170.909 47.1878 169.999 48.1578C168.969 49.2678 168.659 50.6578 168.939 52.0978C169.149 53.1678 169.889 54.1778 170.789 54.8378C171.579 55.4178 172.469 55.9078 173.429 56.1978C173.699 56.3178 173.969 56.4278 174.239 56.5278C174.769 56.7178 175.369 56.8178 175.939 56.7878C176.779 56.7378 177.529 56.4578 178.249 56.0478C178.869 55.6878 179.439 55.2578 179.769 54.6378C180.119 53.9878 180.259 53.2778 180.169 52.5478Z" fill="#F7C300"/>
<path d="M186.149 23.4376C185.919 23.1876 185.569 23.0076 185.099 22.9876C173.169 22.5276 161.219 22.9376 149.369 24.2176C148.599 24.2976 148.149 24.8176 148.029 25.3676C147.679 25.6576 147.469 26.0776 147.589 26.6076C148.699 31.6876 148.709 36.8776 148.489 42.0276C148.269 47.2976 147.929 52.5676 147.639 57.8276C147.589 58.7476 148.439 59.1576 149.229 59.0676C148.289 59.5276 148.149 61.1076 149.499 61.5276C152.089 62.3276 154.769 61.7376 157.419 61.5776C160.319 61.4076 163.239 61.4676 166.139 61.4576C171.859 61.4476 177.579 61.4476 183.299 61.4376C184.149 61.9176 185.579 61.5776 185.589 60.3876C185.699 48.4276 186.099 36.4676 186.799 24.5276C186.829 23.9876 186.549 23.6276 186.149 23.4376ZM182.709 58.8376L166.609 58.8576C163.849 58.8576 161.069 58.8176 158.309 58.9276C155.699 59.0376 152.799 59.7976 150.259 59.0176C150.059 58.9576 149.879 58.9376 149.699 58.9476C150.149 58.7676 150.499 58.3976 150.529 57.8276C150.829 52.4176 151.179 47.0176 151.399 41.6076C151.599 36.6276 151.509 31.6276 150.529 26.7176C161.589 25.5876 172.719 25.1976 183.839 25.5676C183.209 36.6376 182.829 47.7376 182.709 58.8376Z" fill="#1E1E1E"/>
<path d="M195.209 15.6774C195.729 14.8974 195.339 13.5474 194.039 13.5074C183.189 13.1274 172.329 13.3274 161.509 14.0974C161.389 14.0674 161.259 14.0474 161.149 14.0474C160.769 14.0674 160.389 14.1774 160.119 14.4474C159.839 14.7274 159.739 15.0274 159.699 15.4074C159.529 16.8974 159.739 18.4574 160.289 19.8574C160.429 20.1974 160.609 20.4774 160.959 20.6674C161.269 20.8374 161.729 20.9074 162.079 20.8074C162.769 20.5974 163.379 19.8474 163.089 19.1374C162.869 18.5774 162.709 18.0074 162.609 17.4174C162.579 17.1974 162.569 16.9774 162.559 16.7674C172.479 16.0974 182.419 15.8974 192.359 16.1874C193.419 28.2074 193.349 40.2874 192.159 52.2974L188.619 52.9974C187.869 53.0774 187.129 53.5674 187.169 54.3574C187.199 55.0274 187.809 55.8074 188.619 55.7174L192.529 54.9774C192.919 54.9374 193.309 54.7774 193.589 54.5274C194.249 54.4574 194.889 54.0274 194.969 53.2374C196.259 40.7474 196.339 28.1774 195.209 15.6774Z" fill="#1E1E1E"/>
<path d="M174.289 6.76757C174.249 6.38757 174.139 6.08757 173.869 5.80757C173.609 5.53757 173.219 5.42757 172.839 5.40757C172.719 5.40757 172.599 5.42757 172.469 5.45757C161.649 4.67757 150.789 4.48757 139.949 4.85757C138.649 4.90757 138.259 6.24757 138.779 7.02757C137.649 19.5276 137.729 32.0976 139.019 44.5876C139.099 45.3776 139.739 45.7976 140.399 45.8776C140.679 46.1276 141.059 46.2876 141.459 46.3276C141.959 46.3776 142.459 46.4376 142.959 46.4876C143.519 46.5476 144.089 46.6076 144.649 46.6776C144.789 46.6976 144.929 46.7076 145.059 46.6676C145.259 46.6076 145.399 46.4276 145.499 46.2476C145.739 45.7976 145.829 45.2476 145.589 44.7976C145.499 44.6276 145.359 44.4776 145.209 44.3476C144.969 44.1576 144.689 44.0176 144.389 43.9476C144.219 43.9076 144.039 43.8876 143.859 43.8676C143.539 43.8376 143.209 43.7976 142.889 43.7676C142.729 43.7476 142.579 43.7376 142.419 43.7176C142.279 43.7076 142.039 43.7176 141.909 43.6676C141.739 43.5876 141.779 43.0776 141.759 42.8876C141.729 42.5876 141.699 42.2776 141.679 41.9776C141.569 40.7576 141.469 39.5376 141.379 38.3176C141.209 35.8776 141.079 33.4276 140.999 30.9876C140.919 28.5376 140.879 26.0976 140.899 23.6476C140.909 21.1976 140.969 18.7576 141.069 16.3076C141.169 13.8576 141.319 11.4176 141.519 8.97757C141.559 8.49757 141.599 8.02757 141.639 7.54757C151.579 7.25757 161.519 7.44757 171.439 8.12757C171.429 8.34757 171.419 8.56757 171.389 8.77757C171.289 9.36757 171.139 9.93757 170.909 10.4976C170.629 11.2076 171.229 11.9576 171.919 12.1676C172.269 12.2776 172.729 12.1976 173.039 12.0276C173.379 11.8376 173.569 11.5576 173.709 11.2176C174.259 9.81757 174.469 8.25757 174.289 6.76757Z" fill="#1E1E1E"/>
<path d="M178.919 29.3076C174.929 29.0176 170.929 28.7276 166.929 28.6276C162.999 28.5376 159.079 28.6876 155.159 28.8576C153.299 28.9376 153.289 31.6576 155.159 31.5776C159.079 31.4076 163.009 31.2576 166.929 31.3476C170.929 31.4376 174.929 31.7376 178.919 32.0276C180.779 32.1576 180.769 29.4376 178.919 29.3076Z" fill="#1E1E1E"/>
<path d="M172.809 33.5777C167.059 33.1177 161.289 33.0477 155.529 33.3877C153.679 33.4977 153.659 36.2177 155.529 36.1077C161.289 35.7677 167.059 35.8377 172.809 36.2977C174.669 36.4477 174.659 33.7277 172.809 33.5777Z" fill="#1E1E1E"/>
<path d="M178.249 39.5777C174.549 38.9077 170.809 38.8177 167.049 38.8377C163.329 38.8577 159.619 38.8077 155.909 38.6777C154.039 38.6177 154.049 41.3377 155.909 41.3977C159.479 41.5177 163.049 41.5777 166.629 41.5577C170.259 41.5377 173.909 41.5477 177.489 42.1977C179.299 42.5277 180.089 39.9077 178.249 39.5777Z" fill="#1E1E1E"/>
<path d="M165.499 43.6178C162.329 43.1078 159.119 42.9579 155.909 43.2379C155.159 43.3079 154.419 43.8178 154.459 44.5978C154.489 45.2778 155.099 46.0278 155.909 45.9578C158.859 45.6978 161.909 45.7779 164.729 46.2379C165.469 46.3579 166.329 46.0479 166.509 45.2879C166.669 44.6279 166.299 43.7478 165.499 43.6178Z" fill="#1E1E1E"/>
<path d="M158.668 10.0479C153.998 10.0579 149.338 10.1779 144.668 10.3979C142.808 10.4879 142.798 13.2078 144.668 13.1178C149.328 12.8979 153.998 12.7779 158.668 12.7679C160.528 12.7679 160.538 10.0479 158.668 10.0479Z" fill="#1E1E1E"/>
<path d="M155.439 15.3578C151.849 15.5078 148.249 15.5078 144.649 15.3578C143.869 15.3278 143.229 16.0878 143.259 16.7778C143.299 17.5678 143.989 18.0478 144.769 18.0778C148.359 18.2278 151.959 18.2278 155.559 18.0778C157.429 18.0078 157.309 15.2878 155.439 15.3578Z" fill="#1E1E1E"/>
<path d="M146.259 33.7677C146.529 33.4977 146.659 32.9977 146.409 32.6677C146.189 32.3777 145.959 32.0877 145.679 31.8477C145.599 31.7777 145.509 31.7177 145.429 31.6577C145.549 31.4777 145.669 31.3077 145.799 31.1377C146.049 30.8077 146.379 30.5177 146.369 30.0777C146.349 29.2177 145.109 28.6777 144.479 28.2277C144.059 27.9277 143.399 28.1677 143.159 28.5577C142.869 29.0177 143.089 29.5077 143.509 29.7977C143.639 29.8877 143.909 30.0477 144.149 30.2077C144.039 30.3577 143.919 30.5077 143.819 30.6677C143.589 31.0177 143.299 31.4277 143.289 31.8477C143.279 32.4477 143.789 32.7577 144.239 33.0977C143.809 33.4977 143.359 33.8977 142.889 34.2677C142.479 34.5977 142.559 35.2077 142.889 35.5477C143.149 35.8177 143.409 36.0877 143.669 36.3577C143.479 36.4777 143.279 36.5877 143.089 36.7077C142.339 37.1577 142.549 38.0877 143.319 38.3677C143.489 38.4277 143.639 38.5077 143.779 38.5977C143.379 38.9077 142.989 39.2277 142.629 39.5777C142.079 40.1077 142.399 40.8477 143.059 41.0977C143.479 41.2577 143.809 41.5477 144.049 41.9077C144.699 42.8977 146.369 41.9877 145.709 40.9977C145.469 40.6377 145.189 40.3477 144.879 40.0977C145.159 39.8677 145.459 39.6577 145.759 39.4477C146.299 39.0877 146.369 38.4977 145.959 38.0177C145.789 37.8177 145.599 37.6477 145.399 37.4877C145.479 37.4377 145.559 37.3877 145.639 37.3377C146.179 37.0077 146.259 36.3577 145.839 35.9077C145.539 35.5977 145.239 35.2877 144.939 34.9777C145.389 34.5977 145.829 34.1977 146.259 33.7677Z" fill="#F7C300"/>
<path d="M191.708 28.4275C191.488 28.1375 191.258 27.8475 190.978 27.6075C190.898 27.5375 190.808 27.4775 190.728 27.4175C190.848 27.2375 190.968 27.0675 191.098 26.8975C191.348 26.5675 191.678 26.2775 191.668 25.8375C191.648 24.9775 190.408 24.4375 189.778 23.9875C189.358 23.6875 188.698 23.9275 188.458 24.3175C188.168 24.7775 188.389 25.2675 188.809 25.5575C188.939 25.6475 189.209 25.8075 189.449 25.9675C189.339 26.1175 189.218 26.2675 189.118 26.4275C188.888 26.7775 188.598 27.1875 188.588 27.6075C188.578 28.2075 189.089 28.5175 189.539 28.8575C189.109 29.2575 188.658 29.6575 188.188 30.0275C187.778 30.3575 187.858 30.9675 188.188 31.3075C188.448 31.5775 188.709 31.8475 188.969 32.1175C188.779 32.2375 188.578 32.3475 188.388 32.4675C187.638 32.9175 187.848 33.8475 188.618 34.1275C188.788 34.1875 188.939 34.2675 189.079 34.3575C188.679 34.6675 188.288 34.9875 187.928 35.3375C187.478 35.7675 187.608 36.3275 188.028 36.6575C188.108 36.7675 188.209 36.8775 188.329 36.9675C188.459 37.0575 188.729 37.2175 188.969 37.3775C188.859 37.5275 188.738 37.6775 188.638 37.8375C188.408 38.1875 188.118 38.5975 188.108 39.0175C188.098 39.6175 188.609 39.9275 189.059 40.2675C188.629 40.6675 188.178 41.0675 187.708 41.4375C187.298 41.7675 187.378 42.3775 187.708 42.7175C187.968 42.9875 188.229 43.2575 188.489 43.5275C188.299 43.6475 188.098 43.7575 187.908 43.8775C187.158 44.3275 187.368 45.2575 188.138 45.5375C188.308 45.5975 188.458 45.6775 188.598 45.7675C188.198 46.0775 187.809 46.3975 187.449 46.7475C186.899 47.2775 187.219 48.0175 187.879 48.2675C188.299 48.4275 188.628 48.7175 188.868 49.0775C189.528 50.0675 191.199 49.1575 190.539 48.1575C190.299 47.7975 190.018 47.5075 189.708 47.2575C189.988 47.0275 190.288 46.8175 190.588 46.6075C191.128 46.2475 191.199 45.6575 190.789 45.1775C190.619 44.9775 190.428 44.8075 190.228 44.6475C190.308 44.5975 190.389 44.5475 190.469 44.4975C191.009 44.1675 191.088 43.5175 190.668 43.0675C190.368 42.7575 190.068 42.4475 189.768 42.1375C190.228 41.7475 190.668 41.3475 191.098 40.9175C191.368 40.6475 191.498 40.1475 191.248 39.8175C191.028 39.5275 190.798 39.2375 190.518 38.9975C190.438 38.9275 190.348 38.8675 190.268 38.8075C190.388 38.6275 190.508 38.4575 190.638 38.2875C190.888 37.9575 191.218 37.6675 191.208 37.2275C191.198 36.8975 191.008 36.6075 190.728 36.3575C190.558 36.1675 190.388 35.9875 190.188 35.8275C190.468 35.5975 190.768 35.3875 191.068 35.1775C191.608 34.8175 191.678 34.2275 191.268 33.7475C191.098 33.5475 190.908 33.3775 190.708 33.2175C190.788 33.1675 190.869 33.1175 190.949 33.0675C191.488 32.7375 191.569 32.0875 191.149 31.6375C190.849 31.3275 190.548 31.0175 190.248 30.7075C190.708 30.3175 191.149 29.9175 191.579 29.4875C191.829 29.2575 191.958 28.7675 191.708 28.4275Z" fill="#F7C300"/>
<path d="M179.699 48.4076C178.189 46.4376 175.709 45.9876 173.279 45.7876C172.519 45.7276 171.799 46.4576 171.829 47.1476C171.839 47.2576 171.879 47.3576 171.899 47.4576C171.149 47.7276 170.509 48.1976 170.099 48.9176C169.549 49.8776 169.479 50.9776 169.709 52.0276C170.099 53.8776 171.659 55.4676 173.559 56.0476C174.659 56.3776 175.829 56.2476 176.879 55.8476C177.819 55.4876 178.759 55.0476 179.409 54.2976C180.169 53.4276 180.449 52.3376 180.509 51.2276C180.579 50.2376 180.319 49.2176 179.699 48.4076ZM177.589 51.4776C177.589 51.4876 177.589 51.4876 177.589 51.4976C177.559 51.6876 177.519 51.8776 177.459 52.0676C177.439 52.1376 177.409 52.2176 177.379 52.2876C177.369 52.3076 177.359 52.3176 177.349 52.3376C177.319 52.3876 177.269 52.4476 177.249 52.4976C177.149 52.5776 177.059 52.6676 176.959 52.7576C176.949 52.7676 176.929 52.7776 176.919 52.7876C176.829 52.8376 176.739 52.8976 176.649 52.9476C176.519 53.0176 176.389 53.0876 176.259 53.1476C176.179 53.1876 176.109 53.2176 176.029 53.2476C176.019 53.2476 175.979 53.2676 175.939 53.2776C175.789 53.3276 175.639 53.3776 175.479 53.4276C175.389 53.4476 175.289 53.4576 175.199 53.4976C175.179 53.5076 175.169 53.5076 175.159 53.5176C175.139 53.5176 175.119 53.5176 175.079 53.5176C174.979 53.5176 174.889 53.5176 174.789 53.5176C174.789 53.5176 174.749 53.5176 174.709 53.5076C174.659 53.4976 174.559 53.4776 174.539 53.4776C174.449 53.4576 174.359 53.4276 174.259 53.3976C174.239 53.3876 174.239 53.3876 174.219 53.3876C174.149 53.3576 174.079 53.3276 174.009 53.2876C173.939 53.2476 173.869 53.2176 173.799 53.1776C173.779 53.1676 173.689 53.1076 173.639 53.0776C173.629 53.0676 173.609 53.0576 173.609 53.0576C173.549 53.0076 173.489 52.9576 173.429 52.9076C173.309 52.8076 173.199 52.6876 173.099 52.5776C173.099 52.5776 173.089 52.5576 173.079 52.5476C173.049 52.5076 173.019 52.4576 172.999 52.4476C172.899 52.3076 172.819 52.1576 172.729 52.0076C172.719 51.9876 172.699 51.9576 172.689 51.9276C172.669 51.8876 172.659 51.8476 172.639 51.8076C172.579 51.6476 172.539 51.4776 172.499 51.3176C172.499 51.2976 172.489 51.2576 172.479 51.2176C172.479 51.1476 172.469 51.0376 172.469 51.0376C172.469 50.9476 172.469 50.8676 172.469 50.7776C172.469 50.7476 172.469 50.7276 172.469 50.7076C172.479 50.6376 172.499 50.5776 172.519 50.5076C172.529 50.4876 172.579 50.3576 172.589 50.3076C172.609 50.2676 172.639 50.2176 172.649 50.1976C172.669 50.1776 172.689 50.1476 172.699 50.1376C172.689 50.1476 172.689 50.1476 172.669 50.1676C172.719 50.1276 172.769 50.0776 172.819 50.0276C172.829 50.0276 172.829 50.0176 172.839 50.0176C172.879 49.9976 172.919 49.9776 172.959 49.9576C172.939 49.9876 173.109 49.9376 172.989 49.9476C172.999 49.9476 173.009 49.9376 173.019 49.9376C173.709 49.8176 174.349 49.3676 174.339 48.6376C174.389 48.6476 174.449 48.6576 174.469 48.6576C174.539 48.6676 174.619 48.6776 174.689 48.6976C174.909 48.7376 175.129 48.7876 175.349 48.8376C175.519 48.8776 175.689 48.9276 175.849 48.9876C175.909 49.0076 175.929 49.0176 175.959 49.0176C176.019 49.0376 176.079 49.0676 176.139 49.0976C176.279 49.1676 176.419 49.2376 176.559 49.3176C176.619 49.3576 176.819 49.4976 176.829 49.4976C176.929 49.5776 177.019 49.6576 177.109 49.7376C177.149 49.7776 177.189 49.8276 177.229 49.8576C177.229 49.8576 177.229 49.8576 177.239 49.8576C177.309 49.9576 177.389 50.0576 177.449 50.1676C177.469 50.2076 177.489 50.2476 177.509 50.2776C177.519 50.2976 177.529 50.3476 177.549 50.3976C177.579 50.4776 177.599 50.5676 177.609 50.6576C177.619 50.8476 177.619 51.0376 177.609 51.2276C177.609 51.3076 177.599 51.3976 177.589 51.4776Z" fill="#1E1E1E"/>
<path d="M172.719 50.1175C172.799 50.0575 172.769 50.0675 172.719 50.1175V50.1175Z" fill="#1E1E1E"/>
</g>
<g clip-path="url(#clip6)">
<path d="M91.2327 51.9419C91.4727 51.0319 92.8927 50.1719 93.5227 49.5119C95.3327 47.6019 94.5527 44.3919 91.9827 43.6619C89.9227 43.0719 88.6627 43.7519 86.6527 44.1019C85.3627 44.3319 84.0327 43.9019 83.2427 42.8019C80.6627 39.1619 75.0927 42.2819 77.2027 46.3319C78.7527 49.3219 79.2327 52.7819 80.9027 55.6619C82.4627 58.3519 85.1927 60.1919 88.1827 60.8919C88.5827 60.9819 88.9527 60.9919 89.3027 60.9719C92.4227 62.2719 96.0227 58.0719 93.1227 55.2819C92.3327 54.5219 90.8827 53.2419 91.2327 51.9419Z" fill="#F7C300"/>
<path d="M120.403 41.4721C119.373 38.8821 119.353 36.1421 118.473 33.5621C117.793 31.5621 116.403 29.9721 114.683 28.8121C116.643 27.3221 116.053 23.3721 112.913 23.3721C110.303 23.3721 109.463 26.1021 110.383 27.8821C107.973 28.9121 106.833 32.5621 109.793 34.0521C111.473 34.9021 111.893 35.6321 112.143 37.4721C112.423 39.5121 112.893 41.4321 113.653 43.3421C114.343 45.0921 115.993 46.3321 117.963 45.7821C119.623 45.3121 121.103 43.2421 120.403 41.4721Z" fill="#F7C300"/>
<path d="M115.812 56.9819C115.242 55.2219 113.382 53.9519 111.502 54.5419C109.592 55.1419 107.742 55.9819 106.102 57.1219C104.602 58.1619 103.772 60.2419 104.842 61.9119C105.802 63.4119 108.022 64.2819 109.632 63.1719C110.292 62.7219 110.972 62.3019 111.682 61.9519C111.772 61.9019 112.302 61.6819 112.372 61.6519C112.702 61.5319 113.032 61.4119 113.362 61.3119C115.112 60.7419 116.412 58.8219 115.812 56.9819Z" fill="#F7C300"/>
<path d="M85.2527 25.9123C84.7327 26.2423 84.8227 26.1723 84.3527 26.3523C83.6827 26.6223 83.0627 26.8523 82.4727 27.2623C81.4527 27.9723 80.6327 28.9223 79.8127 29.8523C78.5527 31.2623 78.4227 33.4123 79.8127 34.8023C80.2927 35.2823 80.9227 35.6023 81.6027 35.7323C83.6027 37.1323 85.9627 37.9523 88.3627 36.6923C90.6127 35.5123 92.2827 32.3823 92.2627 29.8823C92.2227 26.3023 88.3627 23.9623 85.2527 25.9123Z" fill="#F7C300"/>
<path d="M124.723 12.0225C120.863 12.0225 120.853 18.0224 124.723 18.0224C128.583 18.0224 128.583 12.0225 124.723 12.0225Z" fill="#F7C300"/>
<path d="M116.973 15.1422C116.953 14.7422 116.833 14.3722 116.613 14.0222C116.453 13.8222 116.303 13.6222 116.143 13.4122C115.773 13.0422 115.323 12.7822 114.823 12.6422C114.553 12.6022 114.293 12.5722 114.023 12.5322C113.483 12.5322 112.973 12.6722 112.513 12.9422C112.343 13.0722 112.173 13.2022 111.993 13.3422C111.643 13.5322 111.363 13.7922 111.153 14.1122C110.883 14.4022 110.713 14.7422 110.613 15.1322C110.483 15.5322 110.473 15.9322 110.563 16.3322C110.583 16.7322 110.703 17.1022 110.923 17.4522L111.393 18.0622C111.763 18.4322 112.213 18.6922 112.713 18.8322C112.983 18.8722 113.243 18.9022 113.513 18.9422C114.053 18.9422 114.563 18.8022 115.023 18.5322C115.193 18.4022 115.363 18.2722 115.543 18.1322C115.893 17.9422 116.173 17.6822 116.383 17.3622C116.653 17.0722 116.823 16.7322 116.923 16.3422C117.043 15.9322 117.053 15.5422 116.973 15.1422Z" fill="#F7C300"/>
<path d="M102.482 12.3423C98.6218 12.3423 98.6118 18.3423 102.482 18.3423C106.342 18.3423 106.342 12.3423 102.482 12.3423Z" fill="#F7C300"/>
<path d="M127.742 26.6124C127.602 26.1024 127.342 25.6624 126.972 25.2924C126.772 25.1324 126.572 24.9824 126.362 24.8224C125.892 24.5524 125.392 24.4124 124.852 24.4124H124.782C124.372 24.3924 123.982 24.4824 123.622 24.6724C123.252 24.7924 122.932 25.0024 122.652 25.2924C122.362 25.5624 122.152 25.8824 122.032 26.2624C121.842 26.6224 121.762 27.0024 121.772 27.4224C121.812 27.6924 121.842 27.9524 121.882 28.2224C122.022 28.7324 122.282 29.1724 122.652 29.5424L123.272 30.0024C123.742 30.2724 124.242 30.4124 124.782 30.4124H124.852C125.262 30.4324 125.652 30.3424 126.012 30.1524C126.382 30.0324 126.702 29.8224 126.982 29.5324C127.272 29.2624 127.482 28.9424 127.602 28.5624C127.792 28.2024 127.872 27.8224 127.862 27.4024C127.812 27.1424 127.772 26.8724 127.742 26.6124Z" fill="#F7C300"/>
<path d="M127.573 47.0422C126.863 46.8422 125.923 47.2822 125.773 48.0722C124.863 53.0222 122.623 57.6322 119.223 61.3322C117.953 62.7222 120.013 64.8122 121.293 63.4122C125.013 59.3522 127.583 54.2922 128.593 48.8522C128.733 48.0722 128.373 47.2722 127.573 47.0422Z" fill="#1E1E1E"/>
<path d="M88.7125 20.5924C88.5025 19.8224 87.6825 19.3624 86.9125 19.5624C82.6125 20.7224 78.8825 23.3424 76.2125 26.9224C75.7425 27.5624 76.1125 28.5724 76.7325 28.9324C77.4825 29.3724 78.2525 29.0424 78.7325 28.4024C78.8225 28.2824 78.8925 28.1924 79.0825 27.9624C79.2325 27.7824 79.3825 27.6024 79.5425 27.4324C79.8525 27.0824 80.1725 26.7524 80.5125 26.4224C80.8725 26.0824 81.2425 25.7624 81.6225 25.4424C81.7825 25.3024 81.6525 25.4124 81.7525 25.3324C81.8325 25.2724 81.9225 25.2024 82.0025 25.1424C82.2125 24.9924 82.4225 24.8424 82.6325 24.6924C83.4225 24.1624 84.2625 23.6824 85.1325 23.2824C85.2225 23.2424 85.3225 23.1924 85.4125 23.1524C85.4525 23.1324 85.4725 23.1224 85.4925 23.1124C85.5025 23.1124 85.5125 23.1024 85.5625 23.0824C85.7826 22.9924 85.9925 22.9124 86.2125 22.8324C86.7025 22.6524 87.1925 22.5024 87.6925 22.3724C88.4525 22.1924 88.9225 21.3524 88.7125 20.5924Z" fill="#1E1E1E"/>
<path d="M127.632 37.2021C127.512 36.8121 127.232 36.5521 126.902 36.4021C126.872 36.3821 126.842 36.3721 126.812 36.3621C126.672 36.2921 126.522 36.2321 126.362 36.2321C124.242 36.1521 122.112 36.0221 119.992 35.8721C119.132 33.7521 118.012 31.8021 116.642 30.1021L116.442 29.8521L116.542 29.5421C116.922 27.9021 117.102 26.5521 117.122 25.3321C117.132 24.5021 116.852 23.8821 116.302 23.4821C115.842 23.1521 115.232 23.0921 114.582 23.0321L114.472 23.0221C114.172 22.9921 113.882 22.9721 113.582 22.9421C113.232 22.9121 112.872 22.8821 112.522 22.8421L112.252 22.802C112.122 22.782 111.992 22.7521 111.852 22.7321C111.622 22.6821 111.402 22.622 111.182 22.552L111.162 22.5921L110.982 22.5121C110.962 22.5021 110.952 22.482 110.932 22.472C110.682 22.352 110.642 22.3321 110.512 22.3121L110.342 22.2421C110.222 22.2121 110.072 22.1821 109.902 22.1821C109.512 22.1921 109.122 22.4321 108.932 22.7821C108.772 23.0621 108.642 23.3921 108.512 23.7921L108.462 23.9521H108.482C108.472 23.9721 108.462 24.0021 108.452 24.0221L108.442 24.0121L108.342 24.3121L107.802 24.1621C105.302 23.4521 102.622 23.202 100.322 23.052C99.4623 23.012 99.1123 23.6021 99.0723 24.1921C99.0323 24.8021 99.3523 25.732 100.392 25.802C103.472 26.002 106.462 26.2921 109.182 27.5121L109.982 27.8721L109.342 28.472C109.202 28.6021 109.072 28.7321 108.922 28.8521L108.742 29.0021C108.502 29.2021 108.272 29.3921 108.082 29.6021C107.272 30.4921 106.982 31.5621 107.262 32.6221C107.532 33.6521 108.372 34.4121 109.212 35.1121C109.982 35.7521 111.062 36.6521 111.132 37.8621C111.152 38.2021 111.042 38.542 110.942 38.852C110.902 38.962 110.872 39.0721 110.842 39.1821C110.672 39.8721 110.622 40.4821 110.672 41.0621C110.792 42.2921 111.282 43.4421 112.132 44.4721C113.852 46.5621 116.572 46.972 118.042 47.032L118.722 47.0621L118.592 47.7321C118.112 50.192 117.142 52.412 115.712 54.352L115.402 54.7721L114.952 54.5021C112.232 52.882 109.302 53.9021 107.332 55.032C106.312 55.6121 105.052 56.3421 104.262 57.3621C103.522 58.3321 103.172 59.512 102.912 60.6421L102.822 61.0421L102.412 61.0921C101.032 61.262 99.8023 61.242 98.6423 61.032C96.9823 60.7321 95.3923 60.172 94.0523 59.6621L93.5623 59.4721L93.6923 58.962C93.9223 58.062 93.8823 57.062 93.5723 56.1421C93.2523 55.192 92.6823 54.442 92.0823 53.6421C91.7923 53.2521 91.4923 52.8521 91.2123 52.4321L91.1223 52.2921C90.8923 51.9621 90.5523 51.4521 90.7823 50.8421C90.9523 50.3921 91.4423 50.092 92.0123 49.782L92.2023 49.6821C93.4023 48.9721 94.5223 48.2221 95.0423 46.9521C95.6223 45.5421 95.2423 44.0321 94.0823 43.2021C92.8823 42.3321 91.2123 42.3221 89.8923 42.4021C89.5023 42.4221 89.0623 42.4821 88.5823 42.5421C86.5223 42.8021 83.6923 43.1621 82.4923 41.2721C81.9823 40.4821 81.2223 40.612 80.9223 40.712L80.1423 40.962L80.1623 40.1321C80.1823 39.4421 80.2523 38.7221 80.3823 37.9921L80.5223 37.1621L81.2423 37.5821C82.2623 38.1721 83.5023 38.4621 84.3623 38.6121C87.4323 39.1221 89.6023 38.7721 90.7923 37.5421C91.0923 37.2321 91.3623 36.8221 91.5923 36.3221C91.6923 36.1021 91.7823 35.8721 91.8723 35.6521L92.0723 35.1621C92.2023 34.8721 92.3423 34.592 92.4723 34.3121C92.8323 33.5621 93.2023 32.7821 93.4623 32.0021C93.9623 30.5521 93.9423 29.0021 93.4123 27.7521L93.1323 27.0921L93.8323 26.9521C94.6823 26.7821 95.4723 26.6921 96.2423 26.6921H96.2523C96.8823 26.6921 97.1923 26.3721 97.3523 26.0921C97.6123 25.6321 97.6123 24.9921 97.3523 24.5421C97.1923 24.2721 96.8823 23.9421 96.2523 23.9421H96.2423C94.2023 23.9421 92.0523 24.4221 89.6723 25.3921C87.6523 26.222 85.5123 27.1421 83.6023 28.3221C80.3923 30.3221 78.2023 33.7821 77.6023 37.8221C77.0323 41.6721 77.7223 45.7121 79.7823 50.5621C80.7023 52.7121 81.6323 54.7921 82.9623 56.5021C84.3423 58.2721 86.2423 59.2921 87.9323 60.0621L88.3423 60.2521C92.3223 62.0721 96.8523 64.1321 101.242 63.9321C103.752 63.8221 106.222 63.1621 108.092 62.602C110.362 61.922 112.182 61.0821 113.662 60.0421C120.042 55.5521 122.952 47.4221 121.082 39.3421L120.982 38.9521C121.882 38.9821 122.772 39.0121 123.672 38.9921C124.202 38.9821 124.722 38.962 125.252 38.942C125.792 38.912 126.402 38.9521 126.902 38.7021C127.522 38.4721 127.832 37.8321 127.632 37.2021ZM81.9823 33.7621C82.5623 32.8521 83.2023 32.1121 83.9423 31.5021C85.4223 30.2921 87.2223 29.5021 88.9723 28.7321L90.3623 28.1221L90.9323 28.8721L90.9123 28.882C90.9323 28.9121 90.9523 28.942 90.9623 28.972H90.9823C90.9923 29.0021 90.9923 29.0221 91.0023 29.0421C91.0123 29.0721 91.0223 29.112 91.0323 29.1421C91.0523 29.2021 91.0723 29.2721 91.0823 29.3321L91.1223 29.5921V30.132V30.212L91.1023 30.382C91.0023 30.792 90.9123 31.1421 90.7923 31.4921C90.7723 31.5421 90.7623 31.582 90.7423 31.632C90.7323 31.662 90.7223 31.6921 90.7123 31.722C90.7023 31.752 90.6923 31.782 90.6823 31.802C90.6023 31.9821 90.5123 32.1721 90.4323 32.3621L89.9623 33.3621C89.7623 33.8021 89.5723 34.2421 89.3923 34.6921C89.3923 34.7021 89.3523 34.7821 89.3123 34.8621L89.2923 34.8921H89.3023L89.2323 35.0421C89.1823 35.1521 89.1223 35.2721 89.0623 35.382L89.0023 35.462C88.9923 35.492 88.9923 35.5321 88.9823 35.5721C88.9523 35.6621 88.9023 35.7321 88.8323 35.802C88.7723 35.872 88.6923 35.9221 88.6023 35.9521C88.5223 35.9921 88.4323 36.012 88.3323 36.012C88.2623 36.012 88.1923 36.0021 88.1323 35.9821C88.1223 35.9821 88.1123 35.9821 88.1023 35.9921L87.4023 36.0921C87.2123 36.1021 87.0423 36.112 86.8623 36.122C86.7923 36.122 86.7223 36.122 86.6523 36.122C86.3123 36.122 85.9823 36.1021 85.6523 36.0821L85.4823 36.0721H85.3923L85.2923 36.0421C85.0023 36.0021 84.7923 35.9621 84.5823 35.9221C84.1523 35.8221 83.7423 35.7021 83.3323 35.5621L82.7323 35.302C82.6823 35.2721 82.6223 35.252 82.5723 35.222C82.5423 35.212 82.5023 35.2121 82.4723 35.1921C82.4323 35.1621 82.4023 35.1321 82.3623 35.1121L82.2423 35.0421L82.1723 34.8121C82.1723 34.802 82.1623 34.8021 82.1623 34.7921C82.1623 34.7821 82.1523 34.7821 82.1523 34.7721V34.7621C82.1123 34.6221 82.0523 34.4921 81.9923 34.3921L81.7923 34.0721L81.9823 33.7621ZM90.2723 58.192C89.2023 57.7321 88.3423 57.3121 87.5523 56.8621C85.6023 55.7721 84.6123 54.2321 83.8223 52.7221C82.2423 49.7021 81.2523 47.192 80.6823 44.8221L80.3223 43.302L81.5923 44.212C82.8723 45.122 84.6323 45.592 86.5323 45.512C87.1523 45.492 87.7623 45.4221 88.3823 45.3621C89.2923 45.2621 90.2423 45.162 91.1923 45.192C91.4223 45.202 91.6423 45.212 91.8723 45.262L92.0023 45.2921L92.8323 45.552L92.3623 46.2521C92.3223 46.302 92.2823 46.342 92.2223 46.422C91.9023 46.772 91.4923 46.992 91.1323 47.192C91.0323 47.252 90.9323 47.3021 90.8323 47.3621C90.3123 47.6721 89.7123 48.052 89.2223 48.532C88.1823 49.542 87.7523 50.972 88.1123 52.282C88.3723 53.242 88.9723 54.0121 89.5923 54.8321C89.8023 55.1021 90.0123 55.3821 90.2123 55.6621C90.6323 56.2521 91.0323 56.9021 91.0923 57.6121L91.1823 58.602L90.2723 58.192ZM112.562 57.5021C111.022 58.622 109.232 59.4521 106.932 60.1321L105.572 60.532L106.462 58.9821L106.812 58.6521C106.942 58.5521 107.052 58.4821 107.152 58.4121C107.602 58.102 108.062 57.812 108.542 57.532C109.022 57.2521 109.452 57.0221 109.862 56.8421L110.102 56.7521C110.222 56.712 110.342 56.6721 110.462 56.6321C110.652 56.5721 110.852 56.532 111.052 56.4821L111.382 56.422C111.532 56.4121 111.682 56.3921 111.822 56.4021C111.882 56.4021 111.952 56.4021 112.022 56.4121C112.062 56.4121 112.102 56.432 112.162 56.422H112.232L113.552 56.7321L112.562 57.5021ZM111.312 25.1421C111.332 24.982 111.362 24.8321 111.382 24.6721L111.402 24.5621C111.412 24.5421 111.442 24.5321 111.452 24.5021C111.462 24.4921 111.462 24.472 111.472 24.462L111.722 24.5021C111.962 24.5421 112.212 24.5721 112.452 24.6021C112.882 24.6521 113.312 24.6921 113.742 24.7321L115.312 24.882L115.362 25.4421L115.352 25.6021C115.342 25.8321 115.322 26.072 115.302 26.302L115.052 28.222L114.152 27.5221C113.272 26.7621 112.372 26.1521 111.362 25.6021L111.172 25.5021C111.222 25.3921 111.272 25.2721 111.312 25.1421ZM118.312 44.3321C116.052 44.2821 114.462 43.482 113.712 42.012C113.202 41.012 113.382 40.3321 113.602 39.4521C113.902 38.2921 113.872 37.262 113.522 36.352C113.162 35.392 112.552 34.4921 111.772 33.7521C111.712 33.7021 111.562 33.552 111.362 33.382C110.972 33.032 110.422 32.5321 110.162 32.2821L109.722 31.8521L110.272 31.3321C110.432 31.1821 110.592 31.0321 110.762 30.8921C111.162 30.552 111.482 30.2221 111.742 29.8721L112.122 29.3621L112.592 29.7921C114.702 31.6821 116.472 34.312 117.582 37.192C118.392 39.302 118.842 41.5021 118.912 43.7221L118.932 44.3421L118.312 44.3321Z" fill="#1E1E1E"/>
<path d="M135.733 11.7322C135.713 9.44223 135.693 6.85223 133.773 5.86223C132.903 5.40223 131.753 5.30223 130.643 5.21223C130.293 5.18223 129.943 5.15223 129.613 5.11223C128.063 4.93223 126.473 4.76223 124.883 4.62223C121.743 4.34223 118.553 4.15223 115.393 4.06223C108.243 3.86223 102.003 4.14223 96.3127 4.93223C94.9827 5.11223 93.6127 5.30223 92.6727 6.36223C91.9527 7.17223 91.5927 8.36223 91.5527 9.99223C91.5227 11.2522 91.6127 12.5422 91.7127 13.7922C91.8227 15.3222 91.9427 16.9022 91.8327 18.4822C91.8327 19.0122 91.8127 19.5922 91.7827 20.1622C91.7627 20.5922 91.7427 21.0122 91.7427 21.4422C92.0427 21.9322 92.6727 22.2322 93.2627 22.1722C93.6127 22.1322 94.0527 21.9322 94.2027 21.2422C94.7327 18.6522 94.6227 16.1422 94.4127 13.1322C94.3927 12.8822 94.3727 12.6322 94.3527 12.3822C94.2727 11.4022 94.1827 10.3822 94.3027 9.39223C94.4827 7.89223 95.4627 7.78223 96.3227 7.68223L96.7027 7.63223C101.613 6.94223 107.033 6.67223 113.753 6.80223C119.403 6.88223 125.103 7.28223 130.703 7.99223C130.813 8.00223 130.943 8.01223 131.093 8.02223C131.533 8.05223 132.023 8.08223 132.423 8.26223L132.633 8.36223L132.723 8.57223C132.743 8.62223 132.793 8.73223 132.803 8.89223C132.803 8.96223 132.823 9.03223 132.833 9.10223C132.843 9.18223 132.863 9.26223 132.873 9.34223C132.973 10.4222 133.003 11.5322 133.033 12.6022C133.043 13.0322 133.053 13.4522 133.073 13.8822C133.193 16.8622 133.253 19.6222 133.273 22.3222C133.313 28.4222 133.073 34.4022 132.573 40.0922L132.523 40.6022L128.423 40.7922C127.773 40.8122 127.153 40.8422 126.543 40.9422C125.683 41.0922 125.053 41.6422 124.753 42.4922C124.653 42.7822 124.703 43.1522 124.893 43.4822C124.913 43.4822 124.923 43.4922 124.943 43.4922C125.353 43.5422 125.713 43.5622 126.083 43.5822L126.243 43.5922C126.553 43.6122 126.873 43.6222 127.183 43.6322L127.233 43.5822L127.403 43.6022L133.733 43.2922C134.433 43.2622 135.163 42.7122 135.123 41.9422V41.8922L135.143 41.7122C135.753 35.6622 136.023 29.3922 135.993 22.5722C135.973 19.5322 135.893 16.3822 135.753 12.9722C135.743 12.5722 135.733 12.1622 135.733 11.7322Z" fill="#1E1E1E"/>
<path d="M106.283 12.6223C106.013 11.9823 105.443 11.5323 104.583 11.3023C103.383 10.9723 102.093 11.0023 100.983 11.0823C100.093 11.1423 99.3125 11.2423 98.8125 11.8923C98.6125 12.1523 98.3825 12.5823 98.4225 13.1123C98.4425 13.3923 98.4925 13.6723 98.5425 13.9423L98.5825 14.1923C98.7025 15.3023 98.7025 16.3823 98.5825 17.4323C98.5225 17.8723 98.5625 18.1223 98.7025 18.3723C98.8625 18.6423 99.1725 18.8823 99.4225 18.9423C99.6525 18.9923 99.8625 18.9823 100.053 18.9523C100.263 19.0423 100.483 19.1223 100.713 19.1923C101.173 19.3223 101.643 19.4423 102.113 19.5723C102.123 19.5723 102.133 19.5723 102.143 19.5723C102.203 19.6023 102.263 19.6423 102.343 19.6523C103.083 19.8023 103.813 19.9123 104.463 19.7123C105.203 19.4923 105.763 19.0123 106.033 18.3623C106.233 17.8823 106.263 17.3123 106.303 16.7123L106.463 14.4523C106.523 13.7223 106.513 13.1623 106.283 12.6223ZM104.003 14.2423C103.993 14.4823 103.963 14.7223 103.943 14.9723C103.923 15.1323 103.913 15.2923 103.903 15.4423L103.763 17.3623L103.103 17.2323C102.833 17.1823 102.613 17.1923 102.413 17.2423C102.283 17.2323 102.153 17.2223 102.033 17.2023C101.983 17.1923 101.923 17.1923 101.873 17.1823C101.843 17.1823 101.823 17.1723 101.793 17.1723C101.773 17.1723 101.783 17.1723 101.783 17.1723C101.743 17.1723 101.683 17.1523 101.663 17.1523C101.603 17.1423 101.553 17.1223 101.503 17.1123C101.493 17.1123 101.413 17.0823 101.473 17.1023C101.533 17.1223 101.463 17.0923 101.443 17.0823C101.403 17.0623 101.373 17.0423 101.333 17.0123C101.323 17.0023 101.303 16.9823 101.283 16.9723C101.253 16.9423 101.213 16.9023 101.183 16.8723C101.173 16.8523 101.153 16.8423 101.143 16.8223C101.143 16.8123 101.133 16.8123 101.133 16.8023C101.173 16.2923 101.193 15.8323 101.183 15.4223C101.173 15.0123 101.133 14.6023 101.083 14.2023L101.003 13.5723L101.643 13.5523C102.223 13.5323 102.773 13.5523 103.293 13.6023L103.533 13.6423L104.033 13.7423L104.003 14.2423Z" fill="#1E1E1E"/>
<path d="M128.343 12.6223C128.073 11.9823 127.503 11.5323 126.643 11.3023C125.443 10.9723 124.153 11.0023 123.043 11.0823C122.153 11.1423 121.373 11.2423 120.873 11.8923C120.673 12.1523 120.443 12.5823 120.483 13.1123C120.503 13.3923 120.553 13.6723 120.603 13.9423L120.643 14.1923C120.763 15.3023 120.763 16.3823 120.643 17.4323C120.583 17.8723 120.623 18.1223 120.763 18.3723C120.863 18.5523 121.043 18.7223 121.223 18.8323C121.273 18.8923 121.343 18.9323 121.423 18.9623C121.943 19.1323 122.473 19.2223 123.013 19.2923C123.113 19.3323 123.213 19.3723 123.313 19.4023C123.523 19.4723 123.733 19.5023 123.953 19.5223C123.993 19.5223 124.043 19.5323 124.083 19.5323C124.093 19.5323 124.093 19.5323 124.103 19.5323H124.113C124.193 19.5823 124.283 19.6223 124.393 19.6423C125.133 19.7923 125.853 19.9023 126.513 19.7023C127.253 19.4823 127.813 19.0023 128.083 18.3523C128.283 17.8723 128.313 17.3023 128.353 16.7023L128.513 14.4323C128.583 13.7123 128.573 13.1623 128.343 12.6223ZM126.063 14.2423C126.053 14.4723 126.023 14.7123 126.003 14.9423C125.983 15.1123 125.973 15.2723 125.963 15.4323L125.833 17.1123C125.773 17.1023 125.713 17.0923 125.643 17.0923C125.513 17.0923 125.423 17.1423 125.353 17.2023C125.243 17.1923 125.143 17.1923 125.033 17.1823L124.123 17.1223C123.803 17.1023 123.493 17.0823 123.173 17.0523L123.193 16.8423C123.243 16.3223 123.253 15.8623 123.243 15.4223C123.233 15.0123 123.193 14.6023 123.143 14.2023L123.063 13.5623L123.703 13.5423C124.283 13.5223 124.833 13.5423 125.353 13.5923L125.593 13.6323L126.093 13.7323L126.063 14.2423Z" fill="#1E1E1E"/>
<path d="M128.343 24.6722C128.073 24.0222 127.503 23.5822 126.643 23.3522C125.443 23.0222 124.143 23.0522 123.043 23.1322C122.153 23.1922 121.373 23.2922 120.873 23.9422C120.673 24.2022 120.443 24.6322 120.483 25.1622C120.503 25.4422 120.553 25.7222 120.603 25.9922L120.643 26.2422C120.763 27.3522 120.763 28.4322 120.643 29.4722C120.583 29.9122 120.623 30.1622 120.763 30.4122C120.923 30.6822 121.233 30.9222 121.483 30.9822C121.613 31.0022 121.713 31.0022 121.823 31.0022C121.923 31.0422 122.023 31.0722 122.113 31.1122C122.363 31.1922 122.613 31.2722 122.863 31.3422C123.333 31.4722 123.833 31.6222 124.323 31.6522C124.353 31.6622 124.373 31.6822 124.403 31.6822C125.143 31.8322 125.863 31.9422 126.523 31.7422C127.263 31.5222 127.823 31.0422 128.093 30.3922C128.293 29.9122 128.323 29.3422 128.363 28.7422L128.523 26.4722C128.583 25.7622 128.573 25.2122 128.343 24.6722ZM126.063 26.2922C126.053 26.5222 126.023 26.7622 126.003 26.9922C125.983 27.1622 125.973 27.3222 125.963 27.4822L125.823 29.2822L125.153 29.2722C124.893 29.2222 124.683 29.2322 124.483 29.2822C124.163 29.2122 123.853 29.1322 123.553 29.0122C123.433 28.9622 123.313 28.9022 123.193 28.8422C123.233 28.3422 123.253 27.8922 123.243 27.4722C123.233 27.0622 123.193 26.6522 123.143 26.2522L123.063 25.6122L123.703 25.5922C124.293 25.5722 124.833 25.5822 125.353 25.6422L125.593 25.6822L126.093 25.7822L126.063 26.2922Z" fill="#1E1E1E"/>
<path d="M118.133 12.8224C118.033 12.2824 117.703 11.8024 117.233 11.5024C116.553 11.0624 115.583 10.9824 114.693 10.9824H114.533C113.903 10.9924 113.263 11.0224 112.633 11.0624L111.483 11.1224C111.213 11.1324 110.933 11.1424 110.663 11.1624C109.973 11.2124 109.193 11.5724 109.083 12.4124C109.033 12.8224 109.123 13.2624 109.223 13.7324L109.323 14.3124C109.333 14.4224 109.343 14.5324 109.353 14.6424C109.373 14.8824 109.383 15.1124 109.393 15.3524C109.413 15.8624 109.393 16.3824 109.343 16.9124L109.273 17.4124C109.233 17.6424 109.193 17.8724 109.133 18.1024C109.013 18.6324 109.213 19.2724 109.683 19.5524C109.923 19.8824 110.323 20.1324 110.683 20.2324C110.783 20.2624 110.893 20.2724 110.993 20.2824C111.213 20.4624 111.503 20.5824 111.843 20.6224C112.613 20.7124 113.453 20.7624 114.483 20.7824C114.913 20.7924 115.333 20.8124 115.783 20.8024C116.443 20.8024 117.173 20.4824 117.333 19.7524C117.453 19.1724 117.533 18.5524 117.593 17.9524C117.623 17.6524 117.663 17.3424 117.703 17.0424L118.073 14.3324C118.183 13.7124 118.233 13.3124 118.133 12.8224ZM115.063 18.2724L113.913 18.2424C113.373 18.2224 112.833 18.1724 112.303 18.1324L111.693 18.0824L111.773 17.4724C111.863 16.7924 111.903 16.1824 111.903 15.5824C111.893 15.1824 111.863 14.7524 111.803 14.2624L111.723 13.6324L113.553 13.5424C114.033 13.5224 114.553 13.5024 115.073 13.5224L115.713 13.5524L115.063 18.2724Z" fill="#1E1E1E"/>
</g>
<defs>
<clipPath id="clip0">
<rect width="16" height="16" fill="white" transform="translate(0 48)"/>
</clipPath>
<clipPath id="clip1">
<rect width="58" height="32" fill="white" transform="translate(18 32)"/>
</clipPath>
<clipPath id="clip2">
<rect width="60" height="32" fill="white" transform="translate(16)"/>
</clipPath>
<clipPath id="clip3">
<rect width="60" height="60" fill="white" transform="translate(256 4)"/>
</clipPath>
<clipPath id="clip4">
<rect width="60" height="61" fill="white" transform="translate(196 3)"/>
</clipPath>
<clipPath id="clip5">
<rect width="60" height="61" fill="white" transform="translate(136 3)"/>
</clipPath>
<clipPath id="clip6">
<rect width="60" height="60" fill="white" transform="translate(76 4)"/>
</clipPath>
</defs>
</svg>
