<svg width="156" height="11" viewBox="0 0 156 11" fill="none" xmlns="http://www.w3.org/2000/svg">
<path d="M155.393 7.88385C153.605 6.34451 151.697 4.93115 149.908 3.39181C148.124 1.97481 146.86 1.27724 144.792 2.68491C143.088 3.83698 141.024 5.36699 139.709 6.99746C139.585 7.00111 139.581 6.87877 139.457 6.88241C139.193 6.40036 138.561 6.05158 138.177 5.6955C137.281 4.86466 136.509 4.03018 135.617 3.32168C134.209 2.01607 132.684 0.958786 130.725 1.87347C128.762 2.66581 127.583 4.65965 126.011 6.05274C125.891 6.17872 125.771 6.3047 125.65 6.43069C126.015 6.17508 125.883 5.93405 125.387 5.94863C125.003 5.59256 124.378 5.48845 123.874 5.25835C122.989 4.79452 122.105 4.3307 121.221 3.86687C119.2 2.82416 117.295 1.53314 115.39 0.242115C114.754 -0.229005 113.645 0.048476 113.164 0.552404C112.329 1.67895 111.491 2.68316 110.657 3.80971C110.18 4.43597 109.703 5.06223 109.225 5.6885C109.105 5.81448 108.985 5.94046 108.868 6.18878C108.748 6.31476 108.748 6.31476 108.748 6.31476C107.615 5.85822 106.591 4.90869 105.575 4.20384C104.435 3.50262 103.29 2.67908 102.026 1.98151C99.869 0.57544 97.7354 -0.0966095 95.4308 1.68536C93.7354 3.0821 92.164 4.47519 90.4685 5.87193C89.0721 4.93333 87.6795 4.11707 86.159 3.18213C84.7664 2.36587 83.3622 1.1826 81.6358 1.60064C80.0336 2.01504 78.5903 3.52683 77.2556 4.54562C76.5262 5.05683 75.7969 5.56805 75.1916 6.07562C74.4622 6.58684 73.9657 6.60142 73.0851 6.25993C70.1912 5.12041 67.8833 2.86163 64.6441 2.5894C61.2807 2.32081 58.9916 4.59213 56.4387 6.38139C55.5891 7.01859 55.7093 6.89261 54.821 6.30644C54.0607 5.83897 53.4246 5.36785 52.6643 4.90037C51.1437 3.96543 49.6232 3.03048 47.8736 2.7145C46.1279 2.52086 44.6614 3.29862 43.0708 4.08003C42.2134 4.47256 41.356 4.86509 40.4986 5.25761C39.6412 5.65014 38.3027 6.54659 37.1893 6.70174C35.6996 6.74548 33.795 5.45446 32.5266 4.63456C31.1301 3.69596 29.9665 2.26073 28.217 1.94475C26.5916 1.62513 24.9971 2.2842 23.7866 3.29935C22.4519 4.31814 21.2607 5.94497 19.5073 5.50666C17.7578 5.19068 16.3498 3.88508 14.833 3.07246C13.1883 2.14116 11.4272 1.45818 9.43322 1.27183C5.81771 0.888194 2.13599 2.34326 0.25017 5.58233C-0.925572 7.69851 2.36 9.43878 3.53575 7.3226C5.18487 4.45783 8.78493 4.35211 11.5585 5.61762C14.3321 6.88313 16.6438 9.26424 19.8753 9.2918C21.3689 9.37039 22.7151 8.71861 23.9333 7.94814C24.9033 7.18496 26.5795 5.17654 27.844 5.87411C29.1047 6.44934 30.2645 7.76223 31.5329 8.58213C32.9255 9.39839 34.5664 10.2074 36.0638 10.4083C37.6853 10.6056 39.0315 9.95379 40.5019 9.29836C42.3408 8.50967 44.1682 7.35396 46.011 6.6876C47.6093 6.15086 49.1415 7.45282 50.4061 8.15038C51.6745 8.97029 53.0864 10.3982 54.7079 10.5955C57.5825 11.1234 59.833 7.62867 62.1608 6.58072C64.8571 5.39949 67.5413 7.76967 69.8144 8.92742C71.207 9.74368 72.844 10.4303 74.4501 10.1382C76.1803 9.84254 77.6275 8.4531 78.9622 7.43431C79.6915 6.92309 80.774 5.78925 81.6353 5.51906C81.7594 5.51542 81.9961 5.14111 81.9961 5.14111C82.2444 5.13382 83.1366 5.84233 83.3887 5.95737C85.1653 7.1297 87.066 8.29839 88.8426 9.47072C88.8426 9.47072 88.9667 9.46708 88.9706 9.58941C89.6067 10.0605 90.6037 10.1537 91.3254 9.39782C92.4156 8.50865 93.3817 7.62313 94.4719 6.73397C94.953 6.23004 95.5622 5.84481 96.0433 5.34088C96.408 5.08527 97.1258 4.20704 97.6185 4.07012C98.6077 3.91863 100.4 5.5803 101.16 6.04778C102.3 6.74899 103.317 7.45385 104.457 8.15506C106.234 9.32739 108.402 11.1005 110.334 9.32943C111.3 8.44391 112.007 7.19868 112.721 6.19811C113.198 5.57185 113.795 4.8196 114.273 4.19334C117.446 6.30427 120.735 8.16687 124.257 9.53284C126.395 10.3272 127.597 9.06741 129.045 7.67797C129.766 6.92207 130.48 5.92151 131.334 5.40665C132.063 4.89543 131.574 5.15468 132.207 5.50347C132.587 5.7372 133.103 6.3343 133.487 6.69038C134.383 7.52122 135.155 8.3557 136.047 9.0642C136.687 9.65766 137.459 10.4921 138.339 10.8336C140.349 11.5093 141.54 9.8825 142.871 8.74138C143.716 7.98184 144.562 7.2223 145.532 6.45912C145.532 6.45912 146.262 5.9479 146.626 5.69229C146.754 5.81099 146.882 5.92968 147.01 6.04837C148.798 7.58771 150.707 9.00107 152.495 10.5404C154.656 12.0688 157.181 9.4232 155.393 7.88385Z" fill="#F7C300"/>
</svg>
