<svg width="299" height="16" viewBox="0 0 299 16" fill="none" xmlns="http://www.w3.org/2000/svg">
<path d="M3.3462 7.69021C2.44307 6.8276 1.53993 5.96499 0.665465 5.06484C-1.08347 3.26454 1.32496 0.1115 3.43387 1.89496C4.30834 2.79511 5.21147 3.65772 6.11461 4.52033C7.01775 5.38295 7.92088 6.24556 8.79535 7.14571L9.17126 7.56246L10.2194 6.64475C11.1475 5.73265 11.9556 4.82617 12.7637 3.91969C12.9765 3.69176 13.1854 3.44782 13.3948 3.20324C14.4372 1.98567 15.4933 0.752157 17.1186 1.39948C17.8363 1.73011 18.4846 2.47122 19.0446 3.11146C19.1524 3.23472 19.257 3.35425 19.3581 3.46638C19.9346 4.01377 20.4609 4.62681 21.0049 5.26046C21.2836 5.58515 21.567 5.91525 21.8642 6.24471C21.9851 6.37883 22.1197 6.54232 22.2588 6.71144C22.552 7.06782 22.8659 7.44926 23.1172 7.63387C23.4645 7.86254 23.4667 8.06132 23.5279 8.08151C23.5752 8.09712 23.6577 8.00592 23.9625 7.7391C24.5504 7.29575 25.0655 6.55719 25.564 5.84244C25.7597 5.56182 25.9528 5.28486 26.1468 5.03089C26.1945 4.97366 26.242 4.91663 26.2891 4.85987C27.6087 3.27287 28.747 1.90387 30.7523 2.78851C34.1759 4.36568 37.3807 6.5322 40.4761 8.9934C40.7028 8.62088 40.9581 8.21083 41.2135 7.80078C41.4689 7.39065 41.7243 6.98052 41.9511 6.60792C42.124 6.30424 42.2962 5.98174 42.4721 5.65223C42.9856 4.6906 43.531 3.66935 44.2183 2.88238C45.8974 0.959766 47.8032 2.50178 49.4385 3.82483C49.6006 3.95602 49.7601 4.08506 49.9164 4.20835C50.4723 4.61669 50.9982 5.02642 51.5241 5.43616C52.05 5.84589 52.5759 6.25561 53.1318 6.66393C53.3216 6.80333 53.5778 7.03452 53.8699 7.29819C54.7189 8.06434 55.8717 9.1047 56.5819 8.96376C56.8909 8.85504 57.2882 8.37399 57.6242 7.96709C57.8043 7.749 57.9669 7.55221 58.0888 7.44547C58.3181 7.14518 58.5788 6.87962 58.8395 6.61406C59.1002 6.3485 59.3609 6.08294 59.5903 5.78265C60.1117 5.25154 60.6031 4.72183 61.0945 4.19212C61.5859 3.6624 62.0773 3.13267 62.5987 2.60154C63.2868 1.70067 64.2521 1.80029 64.8733 2.35034C64.8786 2.49487 64.9986 2.48926 64.9986 2.48926C65.8651 3.17261 66.7616 3.85456 67.6581 4.53651C68.5546 5.21846 69.4511 5.90041 70.3176 6.58377C70.4064 6.63203 70.5774 6.77134 70.7707 6.92891C71.1114 7.20655 71.5216 7.54089 71.6747 7.53372C71.6747 7.53372 71.8988 7.0889 72.0188 7.08329C72.5794 6.8613 73.2328 6.17179 73.8132 5.55931C74.0913 5.26582 74.3527 4.99002 74.579 4.79182C74.8029 4.57834 75.0301 4.35136 75.2613 4.1202C76.3497 3.03251 77.5307 1.85218 78.9074 1.54896C80.4567 1.18691 82.0485 1.98111 83.4056 2.93107C83.8779 3.21802 84.3692 3.57005 84.8748 3.93245C86.7381 5.26781 88.7979 6.74401 90.8367 5.62375C91.6332 5.17418 92.4162 4.35831 93.2201 3.52067C94.6746 2.00526 96.1973 0.4186 97.9919 0.800844C99.1463 0.959672 100.2 1.90547 101.168 2.775C101.517 3.08842 101.855 3.39193 102.183 3.6451C102.416 3.79872 102.659 3.97785 102.91 4.16291C103.984 4.95489 105.205 5.85529 106.452 5.32751C107.465 4.86644 108.472 4.21661 109.478 3.56677C110.233 3.07939 110.988 2.592 111.746 2.18426C111.817 2.14422 111.889 2.10419 111.96 2.06431C113.291 1.31729 114.532 0.620781 116.023 0.825907C117.473 1.0476 119.071 1.98633 120.428 2.93629C120.941 3.33314 121.438 3.83068 121.931 4.32456C122.625 5.01989 123.312 5.70797 124.03 6.09768C125.009 6.74262 126.218 5.36272 127.139 4.31183C127.376 4.04117 127.594 3.79234 127.785 3.60554C128.953 2.68222 130.246 1.89781 131.691 1.97497C133.804 1.974 135.523 3.2481 137.25 4.52684C138.077 5.13998 138.906 5.75419 139.781 6.22941C142.324 7.61166 145.562 7.54624 147.23 4.68381C147.45 3.23557 149.088 2.03515 150.576 3.29393C151.451 4.19408 152.354 5.05669 153.257 5.91931C154.16 6.78192 155.063 7.64453 155.938 8.54468L156.314 8.96143L157.362 8.04372C158.29 7.13163 159.098 6.22515 159.906 5.31866C160.119 5.09074 160.328 4.8468 160.537 4.60221C161.58 3.38465 162.636 2.15113 164.261 2.79845C164.979 3.12908 165.627 3.87017 166.187 4.5104C166.295 4.63368 166.399 4.75321 166.501 4.86536C167.077 5.41275 167.603 6.02577 168.147 6.65942C168.426 6.98411 168.709 7.31422 169.007 7.64368C169.128 7.77781 169.262 7.94129 169.401 8.11041C169.694 8.46679 170.008 8.84824 170.26 9.03285C170.607 9.26152 170.609 9.4603 170.67 9.48048C170.718 9.4961 170.8 9.40489 171.105 9.13808C171.693 8.69472 172.208 7.95615 172.706 7.24139C172.902 6.96078 173.095 6.68383 173.289 6.42986C173.337 6.37264 173.384 6.3156 173.432 6.25884C174.751 4.67185 175.889 3.30285 177.895 4.18748C181.318 5.76465 184.523 7.93118 187.619 10.3924C187.845 10.02 188.1 9.61003 188.356 9.20009C188.611 8.78985 188.867 8.37959 189.094 8.0069C189.266 7.70322 189.439 7.38072 189.615 7.05122C190.128 6.08959 190.673 5.06833 191.361 4.28135C193.04 2.35874 194.946 3.90075 196.581 5.22381C196.743 5.355 196.903 5.48403 197.059 5.60733C197.615 6.01563 198.141 6.42534 198.666 6.83505C199.192 7.2448 199.718 7.65456 200.274 8.06291C200.464 8.2023 200.72 8.43349 201.012 8.69716C201.861 9.46331 203.014 10.5037 203.724 10.3627C204.033 10.254 204.431 9.77297 204.767 9.36607C204.947 9.14798 205.109 8.95119 205.231 8.84444C205.461 8.54415 205.721 8.2786 205.982 8.01304C206.243 7.74748 206.503 7.48191 206.733 7.18162C207.254 6.65054 207.745 6.12086 208.237 5.59117C208.728 5.06142 209.22 4.53167 209.741 4.00051C210.429 3.09965 211.395 3.19927 212.016 3.74932C212.021 3.89385 212.141 3.88823 212.141 3.88823C213.008 4.57159 213.904 5.25354 214.801 5.93549C215.697 6.61744 216.594 7.29939 217.46 7.98274C217.549 8.031 217.72 8.17031 217.913 8.32788C218.254 8.60553 218.664 8.93986 218.817 8.9327C218.817 8.9327 219.041 8.48788 219.161 8.48227C219.722 8.26028 220.375 7.57077 220.956 6.9583C221.234 6.6648 221.495 6.389 221.721 6.1908C221.945 5.9773 222.173 5.75031 222.404 5.51913C223.492 4.43145 224.673 3.25115 226.05 2.94793C227.599 2.58589 229.191 3.38009 230.548 4.33005C231.02 4.61699 231.512 4.96902 232.017 5.33143C233.881 6.66679 235.94 8.14298 237.979 7.02273C238.776 6.57316 239.559 5.75729 240.363 4.91965C241.817 3.40424 243.34 1.81757 245.134 2.19982C246.289 2.35865 247.342 3.30445 248.311 4.17398C248.66 4.4874 248.998 4.7909 249.326 5.04408C249.559 5.1977 249.802 5.37683 250.053 5.56189C251.126 6.35387 252.347 7.25426 253.594 6.72648C254.608 6.26541 255.614 5.61557 256.621 4.96573C257.375 4.47835 258.13 3.99098 258.888 3.58324C258.96 3.5432 259.031 3.50318 259.102 3.4633C260.433 2.71628 261.674 2.01976 263.165 2.22488C264.616 2.44657 266.213 3.3853 267.57 4.33526C268.084 4.73211 268.581 5.22964 269.074 5.72352C269.768 6.41885 270.455 7.10695 271.172 7.49665C272.152 8.14159 273.361 6.76172 274.282 5.71082C274.519 5.44016 274.737 5.19132 274.927 5.00451C276.095 4.08119 277.388 3.29678 278.834 3.37394C280.946 3.37297 282.666 4.64707 284.392 5.92581C285.22 6.53895 286.049 7.15316 286.923 7.62839C289.621 9.09471 293.101 8.9319 294.659 5.5291C295.769 3.01594 298.968 5.03793 297.859 7.55109C296.077 11.3987 292.535 13.157 289.034 12.7417C287.104 12.5424 285.392 11.7538 283.79 10.6706C283.321 10.3708 282.862 10.0122 282.399 9.65105C281.405 8.87434 280.396 8.08547 279.238 7.84316C277.916 7.45497 276.939 8.53706 275.969 9.61032C275.691 9.91813 275.413 10.2252 275.129 10.4967C273.971 11.7091 272.438 12.5047 270.862 12.1441C269.676 11.8958 268.76 10.9975 267.85 10.1055C267.459 9.72204 267.07 9.33978 266.66 9.01077C266.596 8.96113 266.53 8.91001 266.462 8.85771C265.231 7.90302 263.49 6.55307 262.125 6.61694C261.354 6.75679 260.477 7.34817 259.738 7.84601C259.446 8.04255 259.176 8.22451 258.943 8.35836L256.471 9.77703C256.396 9.82343 256.321 9.86981 256.246 9.91604C254.803 10.8066 253.451 11.6414 251.844 11.4413C250.148 11.0863 248.666 9.99742 247.184 8.90854C246.813 8.63632 246.472 8.3627 246.132 8.08908C245.791 7.81545 245.451 7.54183 245.08 7.26961C244.954 7.17003 244.848 7.08177 244.758 7.006C244.227 6.56187 244.21 6.54716 243.515 7.19807C243.102 7.55963 242.696 7.93735 242.292 8.31412C240.301 10.1687 238.335 12 235.629 11.7656C233.641 11.5833 232.005 10.4535 230.357 9.31555C229.405 8.65844 228.449 7.99857 227.42 7.51677C226.564 7.12248 226.084 7.14493 225.385 7.75674C224.806 8.36284 224.108 8.97455 223.409 9.58627C223.095 9.88618 222.774 10.2218 222.446 10.5644C221.443 11.6133 220.375 12.731 219.211 13.1129C217.824 13.5399 216.639 12.6491 215.496 11.7906C215.269 11.6194 215.043 11.4495 214.817 11.2915C214.44 11.015 214.072 10.7473 213.709 10.484C212.645 9.71074 211.631 8.9747 210.615 8.15822C209.804 8.99249 209.023 9.82536 208.243 10.6582C207.462 11.491 206.681 12.3237 205.87 13.1579C203.665 15.288 201.593 14.5163 199.489 12.8773C198.713 12.3658 197.981 11.7946 197.268 11.2375C196.851 10.9114 196.439 10.59 196.029 10.2884C195.738 10.0474 195.446 9.78157 195.152 9.51285C194.441 8.86483 193.712 8.2002 192.933 7.82725L192.819 7.97739C192.709 8.27207 192.595 8.42221 192.48 8.57236L191.12 10.8077C190.723 11.4777 190.326 12.1116 189.929 12.7455C189.531 13.3794 189.134 14.0133 188.738 14.6834C188.279 15.284 187.21 15.6235 186.588 15.0735C184.73 13.5679 182.872 12.0622 180.904 10.8513L178.321 9.23482C178.157 9.14596 177.981 9.07377 177.804 9.00159C177.452 8.85722 177.099 8.71284 176.849 8.43501C176.497 8.45145 176.333 8.30396 176.408 8.10373L176.243 8.31855C175.743 8.87282 175.285 9.50551 174.828 10.1382C173.913 11.4036 172.998 12.669 171.739 13.307C169.856 14.4085 168.368 13.1751 166.99 11.6471C166.414 11.0997 165.887 10.4866 165.343 9.85296C165.065 9.52828 164.781 9.19818 164.484 8.86873C164.363 8.73461 164.217 8.60166 164.066 8.46411C163.748 8.17426 163.408 7.86402 163.231 7.47957C163.171 7.48238 163.14 7.44765 163.108 7.41292C163.077 7.37819 163.046 7.34346 162.986 7.34627C161.735 9.28692 159.758 11.1167 158.126 12.4961C156.145 14.1814 154.913 13.3703 153.169 11.7146C152.295 10.8144 151.392 9.95175 150.489 9.08912C150.159 8.77466 149.83 8.46021 149.502 8.14393C147.57 10.5969 144.718 11.6779 141.892 11.3427C139.961 11.1435 138.249 10.3549 136.647 9.2716C136.178 8.97185 135.719 8.61328 135.257 8.25208C134.263 7.47537 133.253 6.6865 132.096 6.44419C130.774 6.05599 129.796 7.13808 128.826 8.21134C128.548 8.51915 128.271 8.82623 127.986 9.0977C126.829 10.3101 125.295 11.1057 123.719 10.7451C122.533 10.4968 121.617 9.59852 120.708 8.70645C120.317 8.32304 119.927 7.94079 119.518 7.61179C119.453 7.56214 119.387 7.511 119.32 7.45867C118.088 6.50399 116.347 5.1541 114.982 5.21796C114.212 5.35781 113.334 5.94919 112.596 6.44703C112.304 6.64357 112.034 6.82553 111.801 6.95938L109.329 8.37805C109.253 8.42444 109.178 8.47082 109.103 8.51704C107.661 9.40765 106.309 10.2424 104.702 10.0423C103.006 9.68731 101.524 8.59844 100.041 7.50957C99.6707 7.23735 99.3301 6.96373 98.9895 6.6901C98.6489 6.41648 98.3083 6.14286 97.9377 5.87064C97.8114 5.77105 97.7059 5.68279 97.6154 5.60702C97.0849 5.16289 97.0673 5.14818 96.3724 5.79909C95.9595 6.16065 95.554 6.53837 95.1495 6.91513C93.1586 8.76972 91.1927 10.601 88.4867 10.3666C86.4988 10.1843 84.8625 9.05456 83.2143 7.91657C82.2626 7.25946 81.3069 6.5996 80.2772 6.11779C79.4213 5.7235 78.9413 5.74596 78.2426 6.35776C77.6638 6.96396 76.9651 7.57576 76.2664 8.18757C75.9518 8.48749 75.6312 8.8228 75.3037 9.16546C74.3009 10.2144 73.2324 11.332 72.0686 11.7139C70.6813 12.1409 69.4962 11.2502 68.354 10.3916C68.1262 10.2204 67.9001 10.0505 67.6745 9.89256C67.2979 9.61592 66.9293 9.34824 66.5667 9.08488C65.5022 8.31165 64.4889 7.57566 63.4726 6.75924C62.6618 7.59346 61.8811 8.42628 61.1003 9.25909C60.3195 10.0919 59.5388 10.9247 58.728 11.7589C56.5224 13.889 54.4506 13.1173 52.347 11.4784C51.5702 10.9668 50.8389 10.3956 50.1258 9.83858C49.7083 9.51239 49.2969 9.19108 48.8863 8.88947C48.5956 8.64845 48.304 8.38259 48.0092 8.11388C47.2984 7.46585 46.5693 6.80122 45.7909 6.42827L45.6762 6.57842C45.5668 6.87309 45.4522 7.02324 45.3375 7.17338L43.9771 9.40871C43.5811 10.0787 43.1836 10.7126 42.7862 11.3466C42.3888 11.9805 41.9914 12.6144 41.5953 13.2844C41.1365 13.885 40.0672 14.2246 39.446 13.6745C37.5877 12.1689 35.7294 10.6633 33.7617 9.45232L31.1781 7.83585C31.0145 7.74698 30.8383 7.67479 30.662 7.60261C30.3095 7.45824 29.9569 7.31387 29.7063 7.03603C29.3549 7.05247 29.1908 6.90498 29.2651 6.70476L29.101 6.91957C28.6005 7.47385 28.1429 8.10654 27.6854 8.73923C26.7702 10.0046 25.8551 11.27 24.5964 11.908C22.7136 13.0096 21.2259 11.7762 19.8476 10.2481C19.2711 9.70068 18.7448 9.08764 18.2008 8.45397C17.9221 8.12929 17.6387 7.7992 17.3415 7.46976C17.2205 7.33564 17.0747 7.20268 16.9238 7.06514C16.6059 6.77528 16.2656 6.46505 16.0885 6.08059C16.0285 6.0834 15.9972 6.04867 15.9658 6.01394C15.9345 5.97921 15.9032 5.94449 15.8432 5.94729C14.5923 7.88794 12.616 9.71775 10.9839 11.0971C9.00236 12.7824 7.77056 11.9714 6.02694 10.3156C5.15247 9.41544 4.24934 8.55283 3.3462 7.69021Z" fill="white"/>
</svg>
