<svg width="381" height="355" viewBox="0 0 381 355" fill="none" xmlns="http://www.w3.org/2000/svg">
<path d="M70.8668 37.7444C61.47 31.7609 49.8539 29.4055 38.9133 31.6761C36.7158 32.172 34.9114 33.8526 35.1582 36.2769C35.3707 38.3645 37.5659 40.5225 39.7635 40.0266C48.3649 38.1982 57.2212 39.5419 64.8822 43.8649C71.3821 47.4897 80.9046 56.0459 77.2638 64.4453C75.1143 69.427 82.7604 72.9351 84.9774 67.9465C90.2912 55.9067 80.6887 43.8886 70.8668 37.7444Z" fill="#F7C300"/>
<path d="M89.5062 134.506C89.0445 132.647 87.9292 131.06 86.5042 129.776C83.3639 127.034 77.9153 127.044 74.967 130.202C73.1295 132.227 72.7638 135.326 73.7054 137.883C73.8277 138.415 73.8757 138.887 74.0654 139.412C74.615 141.465 76.0137 143.16 77.9576 144.186C79.9082 145.281 82.2817 145.175 84.3981 144.551C86.4539 144.002 88.4274 142.644 89.3348 140.851C90.3632 138.909 90.0558 136.559 89.5062 134.506Z" fill="#F7C300"/>
<path d="M82.6135 69.4798C82.7541 68.8531 82.8947 68.2264 83.0421 67.6671C83.7175 64.2644 83.8935 60.6403 83.105 56.9103C80.2081 42.5085 66.166 37.0661 60.202 35.3599C52.5514 33.1451 44.3853 33.2281 37.0385 35.3369C36.506 35.4591 35.9804 35.6487 35.5153 35.7641C34.9896 35.9537 34.5314 36.1364 34.0057 36.326C30.9865 37.4499 28.204 38.8899 25.6648 40.7134C15.764 47.845 10.1805 59.9124 11.3598 71.4953C11.5038 72.9094 12.7916 72.8464 13.0613 72.8189C13.331 72.7914 14.6052 72.5937 14.4612 71.1795C13.4053 60.8088 18.1283 50.3259 26.8566 43.7219C29.3216 41.838 32.0367 40.4048 34.9884 39.2878C35.5141 39.0982 35.9724 38.9155 36.5049 38.7932C37.0305 38.6036 37.4956 38.4882 38.0213 38.2986C40.1377 37.6749 42.2746 37.2532 44.4995 37.0267C49.9607 36.4707 55.6059 37.0526 61.0305 38.8137C70.9622 42.021 81.1989 50.2323 80.3509 63.3144C80.2526 65.0254 80.0058 66.6154 79.6173 68.1519C79.463 68.6439 79.383 69.1963 79.2287 69.6883C79.0745 70.1803 78.927 70.7397 78.7053 71.2385C75.7788 79.2931 69.633 85.8383 62.86 92.2433C58.0798 96.8124 56.0514 101.646 56.6605 106.959C57.4124 113.006 61.0018 118.152 64.942 123.398C65.3339 123.902 65.759 124.063 66.2984 124.008C66.9052 123.947 67.5383 123.474 67.8206 122.901C67.9817 122.476 67.9337 122.005 67.5486 121.568L67.1566 121.063C63.3856 116.14 58.7426 110.013 59.7894 102.898C60.5299 98.1279 64.4015 94.6719 67.8355 91.6007C68.9599 90.6017 70.0844 89.6026 71.0066 88.6242C74.5743 84.859 79.527 78.6393 81.969 71.1784C82.3256 70.6658 82.4661 70.0391 82.6135 69.4798Z" fill="#1E1E1E"/>
<path d="M43.9269 43.2825C43.0367 43.237 42.1603 43.3262 41.2838 43.4155C32.1818 44.3422 24.1002 50.6082 21.1074 59.35C20.8994 59.9835 20.8137 61.1489 21.8124 61.5916C22.1701 61.7593 22.7838 61.7648 23.242 61.5821C23.4374 61.4941 23.7608 61.3251 23.8614 60.9747C26.8943 51.9567 35.0375 46.2968 44.5863 46.4132C44.9303 46.4462 45.1725 46.1494 45.2937 46.001C45.6639 45.6231 45.8113 45.0638 45.7702 44.6597C45.7142 43.4407 44.4732 43.2949 43.9269 43.2825Z" fill="#1E1E1E"/>
<path d="M90.3192 65.7729C90.1775 65.7193 89.9752 65.7398 89.7729 65.7604C89.5032 65.7879 89.2404 65.8827 89.0518 66.038C88.8564 66.1259 88.5467 66.4296 88.453 66.8474C86.6121 74.8595 82.0582 81.6509 77.6186 88.2265C77.3832 88.5907 77.4243 88.9948 77.4518 89.2641C77.5672 89.7287 77.8174 90.1795 78.1751 90.3472C79.0459 90.8709 79.9487 90.3707 80.4263 89.7097C84.5094 83.6467 89.6083 76.1874 91.4219 67.9059C91.535 67.0099 91.2299 66.0203 90.3192 65.7729Z" fill="#1E1E1E"/>
<path d="M85.3508 133.84C84.8503 132.938 84.2287 132.185 83.5464 131.506C82.9385 130.888 82.2026 130.35 81.4872 130.015C81.4198 130.022 81.4129 129.954 81.3387 129.894C80.3399 129.451 79.2943 129.217 78.2018 129.193C77.1768 129.161 76.1586 129.197 75.1473 129.3C74.473 129.368 73.7931 130.05 73.7268 130.737C73.6468 131.289 73.3577 131.795 72.7715 132.059C72.6435 132.14 72.5761 132.147 72.5155 132.221C69.8015 134.334 68.4519 137.806 69.037 140.876C69.7306 144.344 72.4526 146.992 75.8523 147.599C76.1963 147.632 76.5402 147.665 76.8842 147.698C77.7744 147.743 78.644 147.587 79.5674 147.288C80.093 147.099 80.6187 146.909 81.1444 146.72C81.4072 146.625 81.7306 146.456 81.9866 146.294C83.2196 145.692 84.56 144.807 85.4685 143.694C87.3792 141.05 87.3529 137.446 85.3508 133.84ZM83.7201 138.565L83.7338 138.699C83.7407 138.767 83.7476 138.834 83.7613 138.969C83.7613 138.969 83.7613 138.969 83.7681 139.036C83.775 139.103 83.775 139.103 83.7818 139.171C83.7955 139.305 83.8024 139.373 83.8093 139.44C83.8161 139.507 83.7556 139.582 83.7624 139.649C83.7156 139.858 83.7361 140.06 83.6756 140.134C83.6824 140.202 83.6287 140.343 83.6356 140.41C83.5887 140.619 83.535 140.761 83.4744 140.835C83.4744 140.835 83.4207 140.977 83.3064 141.192C83.2527 141.334 83.1316 141.482 83.0105 141.631L82.8356 141.921C82.4654 142.299 82.1488 142.535 81.8997 142.764C81.6437 142.927 81.5158 143.008 81.3272 143.163L80.4244 143.663C80.0336 143.839 79.6428 144.015 79.3194 144.184C78.996 144.353 78.5983 144.461 78.2681 144.563C78.1332 144.577 77.9378 144.665 77.8704 144.672C77.6681 144.692 77.5333 144.706 77.4659 144.713C77.3984 144.72 77.331 144.726 77.1962 144.74C77.0613 144.754 76.8591 144.775 76.7848 144.714C76.5082 144.674 76.3665 144.621 76.1643 144.641L76.0968 144.648C75.9551 144.594 75.8203 144.608 75.6786 144.555L75.0375 144.28C75.0375 144.28 75.0375 144.28 74.9701 144.286C74.8284 144.233 74.6124 144.119 74.5381 144.058C74.241 143.816 73.9508 143.642 73.7279 143.46C73.7279 143.46 73.5725 143.272 73.5051 143.279C73.4308 143.218 73.3497 143.091 73.2754 143.03L73.12 142.842C73.0457 142.781 72.9714 142.721 72.9577 142.586C72.7349 142.405 72.5726 142.149 72.5452 141.88L72.3624 141.422C72.3624 141.422 72.3692 141.489 72.4435 141.55C72.3555 141.355 72.2675 141.16 72.2401 140.89L72.1441 139.947C72.1304 139.813 72.1167 139.678 72.1772 139.604C72.2172 139.328 72.2035 139.193 72.2572 139.051C72.2504 138.984 72.2972 138.775 72.3441 138.566C72.3235 138.364 72.3772 138.223 72.4241 138.014C72.4778 137.872 72.5246 137.663 72.5852 137.589C72.6389 137.448 72.6995 137.373 72.7532 137.232L72.9212 136.875C72.9143 136.807 72.9749 136.733 72.9749 136.733C73.0354 136.659 73.0286 136.591 73.0891 136.517L73.2103 136.369C73.3246 136.153 73.5131 135.998 73.6948 135.775L73.7554 135.701C73.7554 135.701 73.9371 135.478 74.0045 135.471C74.0045 135.471 74.1256 135.323 74.193 135.316L74.3816 135.161C74.6981 134.925 74.9267 134.493 75.0135 134.008C75.0604 133.799 75.1141 133.657 75.1678 133.516C75.2821 133.3 75.4101 133.219 75.5986 133.064C75.8546 132.902 76.1106 132.74 76.4477 132.705L76.7848 132.671C77.0545 132.643 77.3916 132.609 77.6613 132.582C78.0053 132.615 78.2075 132.594 78.3492 132.648C78.4841 132.634 78.6258 132.688 78.7675 132.741C78.8349 132.734 78.9023 132.727 78.9092 132.795L79.3274 132.888C79.6782 132.989 79.8199 133.042 79.8942 133.103L80.1102 133.217C80.1845 133.277 80.4679 133.385 80.5422 133.445C80.6907 133.566 80.8393 133.687 80.9135 133.747C80.9878 133.808 81.0621 133.868 81.1364 133.929L81.3592 134.11C81.6632 134.42 81.8997 134.736 82.1294 134.984C82.4471 135.428 82.6094 135.684 82.8459 136C82.9202 136.061 83.0082 136.256 83.0151 136.323C83.1979 136.781 83.367 137.104 83.4687 137.434L83.5567 137.629C83.6984 137.682 83.679 138.161 83.7201 138.565Z" fill="#1E1E1E"/>
<path d="M18.4273 76.9823C17.5508 77.0715 16.6743 77.1608 15.8584 77.1758L15.5887 77.2033C15.4539 77.217 15.319 77.2307 15.1773 77.1771C15.1099 77.184 15.0425 77.1908 14.9682 77.1304L14.6916 77.0905C14.4825 77.0437 14.2128 77.0712 14.0037 77.0244C13.1809 76.9721 12.3513 76.8525 11.5822 76.6586C11.164 76.5651 10.7457 76.4716 10.3275 76.3781C10.0509 76.3382 9.83497 76.2241 9.62585 76.1774C9.13332 76.0234 8.70137 75.7952 8.20198 75.5739C7.7026 75.3526 7.16894 74.7946 7.11409 74.2558C6.93583 72.5049 6.81813 70.6798 6.76099 68.7805C6.73357 68.5111 6.56444 68.1881 6.26733 67.9462C6.03764 67.6975 5.54511 67.5435 5.208 67.5778C5.208 67.5778 5.208 67.5778 5.14058 67.5847C3.86642 67.7824 3.63215 68.8269 3.63329 69.5072C3.72471 71.7432 3.82869 73.4336 4.06067 75.043C4.25836 76.3156 4.6846 77.1568 5.42739 77.7615C6.02162 78.2454 6.87182 78.567 7.72202 78.8887C11.2645 80.2291 15.0482 80.5923 18.6147 80.1611C19.0867 80.1131 19.5312 79.7957 19.834 79.4246C20.0157 79.202 20.1905 78.912 20.0751 78.4475C19.9929 77.6394 19.2364 76.8999 18.4273 76.9823Z" fill="#F7C300"/>
<path d="M285.245 314.752C284.84 314.793 284.389 315.043 284.153 315.407C280.13 320.716 274.425 324.903 268.11 327.111C267.254 327.402 266.872 328.325 267.156 329.113C267.441 329.9 268.372 330.35 269.161 330.065C276.136 327.654 282.353 323.143 286.726 317.255C286.961 316.89 287.055 316.473 287.014 316.069C286.973 315.664 286.729 315.281 286.365 315.046C286.068 314.804 285.649 314.711 285.245 314.752Z" fill="#1E1E1E"/>
<path d="M104.115 216.436C104.005 215.358 103.956 214.206 103.981 213.115C104.007 212.704 103.831 212.314 103.527 212.005C103.223 211.695 102.866 211.528 102.387 211.508C102.319 211.515 102.252 211.522 102.184 211.529C101.375 211.611 100.763 212.286 100.778 213.101C100.766 214.327 100.822 215.546 100.946 216.758C101.542 222.617 103.622 228.325 107.246 233.807C107.726 234.507 108.704 234.748 109.404 234.268C109.788 234.025 110.024 233.661 110.117 233.243C110.211 232.825 110.103 232.428 109.927 232.037C106.627 227.066 104.656 221.756 104.115 216.436Z" fill="#1E1E1E"/>
<path d="M247.339 329.837C248.122 330.166 249.106 329.794 249.435 329.012C249.596 328.587 249.622 328.176 249.446 327.786C249.27 327.395 248.966 327.086 248.608 326.918C242.778 324.518 237.88 319.234 235.395 312.887C235.124 312.234 234.469 311.824 233.728 311.9C233.593 311.913 233.458 311.927 233.33 312.008C232.541 312.293 232.091 313.223 232.45 314.071C235.227 321.273 240.652 327.048 247.339 329.837Z" fill="#1E1E1E"/>
<path d="M143.606 257.73C143.861 256.887 143.36 255.986 142.584 255.724C138.928 254.6 135.297 253.064 131.335 250.95C128.885 249.635 126.414 248.117 124.214 246.572C123.916 246.33 123.498 246.237 123.161 246.271C122.689 246.319 122.305 246.562 122.002 246.933C121.532 247.662 121.695 248.598 122.363 249.142C124.713 250.808 127.258 252.386 129.85 253.755C133.953 255.923 137.8 257.572 141.598 258.75C142.441 259.005 143.351 258.572 143.606 257.73Z" fill="#1E1E1E"/>
<path d="M247.072 254.952C246.862 254.906 246.653 254.859 246.451 254.879C246.249 254.9 246.053 254.988 245.858 255.076C245.467 255.252 245.232 255.616 245.071 256.041C244.977 256.458 245.018 256.862 245.194 257.253C245.37 257.643 245.735 257.878 246.153 257.972C253.028 259.925 259.438 262.675 265.162 266.038C265.885 266.441 266.882 266.203 267.353 265.475C267.824 264.747 267.519 263.757 266.79 263.287C260.85 259.809 254.162 257.02 247.072 254.952Z" fill="#1E1E1E"/>
<path d="M293.784 287.551L290.107 286.224C289.756 286.124 289.452 285.815 289.283 285.492C288.539 284.207 287.72 282.861 286.767 281.529C285.726 280.002 284.55 278.489 283.321 277.117C282.774 276.425 281.748 276.393 281.055 276.94C280.361 277.487 280.329 278.51 280.877 279.203C281.181 279.512 281.417 279.829 281.728 280.205C282.194 280.77 282.202 281.518 281.785 282.104C281.368 282.691 280.647 282.969 280.006 282.694C277.685 281.978 275.58 281.375 273.556 280.901C273.347 280.854 273.212 280.868 273.01 280.889C272.808 280.909 272.545 281.004 272.349 281.092C271.965 281.335 271.723 281.632 271.629 282.05C271.536 282.468 271.577 282.872 271.82 283.255C272.064 283.639 272.361 283.88 272.779 283.974C277.528 285.123 282.258 286.751 286.644 288.346C287.002 288.514 287.366 288.749 287.542 289.139C288.835 291.797 289.574 294.375 289.895 296.86C289.984 297.736 290.794 298.333 291.604 298.251L291.671 298.244C292.075 298.203 292.459 297.96 292.702 297.663C292.944 297.366 293.105 296.941 293.057 296.47C292.927 295.191 292.655 293.857 292.248 292.538C292.139 292.141 292.159 291.663 292.394 291.298C292.63 290.934 293.014 290.691 293.411 290.583C293.944 290.46 294.382 290.076 294.603 289.577C294.764 289.152 294.723 288.748 294.547 288.358C294.506 287.954 294.209 287.712 293.784 287.551Z" fill="#1E1E1E"/>
<path d="M126.657 179.576C126.386 178.923 125.738 178.581 125.064 178.649C124.929 178.663 124.727 178.684 124.599 178.765C122.126 179.901 119.808 181.226 117.646 182.739C113.827 185.373 110.556 188.7 107.811 192.517C107.575 192.881 107.482 193.299 107.523 193.703C107.564 194.107 107.807 194.491 108.172 194.726C108.833 195.203 109.905 195.026 110.383 194.365C112.825 190.918 115.982 187.807 119.478 185.342C121.452 183.984 123.641 182.741 125.919 181.692C126.633 181.347 127.016 180.424 126.657 179.576Z" fill="#1E1E1E"/>
<path d="M225.932 251.389C219.275 250.91 212.269 251.011 204.63 251.585C203.753 251.674 203.08 252.423 203.169 253.299C203.258 254.174 204.008 254.846 204.885 254.757C212.389 254.197 219.193 254.117 225.708 254.542C226.598 254.587 227.352 253.966 227.398 253.077C227.511 252.181 226.822 251.435 225.932 251.389Z" fill="#1E1E1E"/>
<path d="M138.003 206.045C131.587 203.909 125.405 200.728 119.801 196.536C119.503 196.294 119.085 196.2 118.681 196.242L118.613 196.248C118.209 196.29 117.825 196.533 117.589 196.897C117.051 197.632 117.215 198.568 117.95 199.106C123.838 203.405 130.243 206.767 137.017 209.071C137.861 209.326 138.77 208.893 139.025 208.051C139.186 207.626 139.145 207.222 138.969 206.832C138.726 206.448 138.429 206.206 138.003 206.045Z" fill="#1E1E1E"/>
<path d="M175.549 197.46C175.373 197.07 175.008 196.835 174.583 196.674C174.374 196.627 174.165 196.58 173.963 196.601C173.761 196.621 173.565 196.709 173.37 196.797C172.979 196.973 172.743 197.337 172.582 197.762C171.315 202.041 167.538 205.76 162.747 207.541C161.237 208.102 159.64 208.469 157.961 208.708C157.084 208.797 156.486 209.607 156.575 210.482C156.664 211.358 157.474 211.956 158.283 211.873C158.283 211.873 158.283 211.873 158.351 211.866C160.299 211.6 162.159 211.138 163.864 210.489C169.572 208.342 174.09 203.868 175.605 198.679C175.833 198.247 175.792 197.843 175.549 197.46Z" fill="#1E1E1E"/>
<path d="M104.924 184.238C105.618 183.691 105.791 182.721 105.244 182.028C101.06 176.399 97.9144 170.255 95.8335 163.867C95.6232 163.14 94.901 162.737 94.1594 162.813C94.0245 162.827 93.9571 162.833 93.8291 162.915C93.4314 163.023 93.1218 163.327 92.8863 163.691C92.7184 164.048 92.6247 164.466 92.8075 164.924C94.997 171.709 98.3052 178.108 102.651 183.993C103.192 184.619 104.23 184.785 104.924 184.238Z" fill="#1E1E1E"/>
<path d="M334.718 296.855C334.785 296.849 334.852 296.842 334.92 296.835C335.655 296.692 336.2 296.024 336.185 295.209C336.163 294.327 335.346 293.662 334.537 293.744C326.345 294.238 319.722 294.096 313.841 293.198C313.706 293.211 313.564 293.158 313.429 293.171C312.755 293.24 312.129 293.78 312.002 294.541C311.889 295.437 312.443 296.198 313.34 296.31C319.424 297.188 326.121 297.391 334.38 296.89C334.448 296.883 334.583 296.869 334.718 296.855Z" fill="#1E1E1E"/>
<path d="M376.791 285.903C376.548 285.52 376.183 285.285 375.765 285.191C375.623 285.138 375.421 285.158 375.286 285.172C375.017 285.2 374.821 285.288 374.633 285.443C369.964 288.436 363.831 290.421 355.31 291.697C354.905 291.738 354.521 291.981 354.286 292.345C354.051 292.709 353.957 293.127 353.998 293.531C354.148 294.332 354.742 294.816 355.565 294.869C355.632 294.862 355.767 294.848 355.834 294.841C355.969 294.827 356.104 294.814 356.246 294.867C364.963 293.504 371.426 291.417 376.411 288.187C376.795 287.944 377.03 287.58 377.124 287.162C377.143 286.684 377.035 286.287 376.791 285.903Z" fill="#1E1E1E"/>
<path d="M252.178 280.356C252.111 280.363 252.043 280.37 251.976 280.376C243.786 282.231 237.461 286.345 233.775 292.3C233.54 292.664 233.514 293.075 233.555 293.479C233.663 293.876 233.907 294.259 234.271 294.494C235 294.964 235.998 294.727 236.469 293.998C240.632 287.383 247.573 284.635 252.635 283.507C253.033 283.399 253.417 283.156 253.652 282.791C253.888 282.427 253.981 282.009 253.873 281.612C253.764 281.215 253.521 280.832 253.156 280.597C252.866 280.422 252.515 280.322 252.178 280.356Z" fill="#1E1E1E"/>
<path d="M163.106 260.575L163.51 260.534C167.96 260.081 172.443 259.285 176.731 258.576L178.807 258.228C180.546 257.915 182.286 257.602 184.032 257.356C184.436 257.315 184.82 257.072 185.056 256.708C185.291 256.343 185.385 255.926 185.344 255.522C185.303 255.118 185.059 254.734 184.695 254.499C184.33 254.264 183.979 254.164 183.575 254.205C181.768 254.525 180.022 254.771 178.283 255.084L176.274 255.424C171.926 256.207 167.571 256.923 163.256 257.362L162.784 257.41C161.907 257.5 161.301 258.242 161.391 259.117C161.48 259.993 162.229 260.665 163.106 260.575Z" fill="#1E1E1E"/>
<path d="M145.717 177.431C147.483 177.388 149.264 177.479 151.051 177.637C156.892 178.131 161.527 179.496 165.226 181.705C165.955 182.175 166.952 181.937 167.423 181.209C167.894 180.481 167.656 179.484 166.927 179.014C162.857 176.503 157.729 174.984 151.343 174.477C149.488 174.326 147.573 174.249 145.739 174.299C145.671 174.306 145.671 174.306 145.604 174.313C144.795 174.395 144.182 175.07 144.197 175.885C144.084 176.781 144.833 177.453 145.717 177.431Z" fill="#1E1E1E"/>
<path d="M221.661 286.388L221.594 286.395C221.392 286.416 220.994 286.524 220.752 286.821C219.211 289.087 218.582 291.601 218.088 294.781C217.655 297.887 217.424 300.972 217.53 304.023C217.696 310.334 219.385 316.218 222.522 320.933C222.921 321.505 223.339 321.599 223.609 321.571C224.215 321.509 224.855 321.104 225.138 320.531C225.427 320.025 225.372 319.487 225.047 318.975C222.39 314.959 220.993 309.93 220.733 304.037C220.628 301.667 220.786 299.201 221.125 296.513L221.245 295.684C221.512 293.616 221.791 291.002 223.163 289.093C223.641 288.432 223.807 287.395 222.997 286.797C222.626 286.494 222.133 286.34 221.661 286.388Z" fill="#F7C300"/>
<path d="M181.049 183.904C178.794 178.487 175.044 173.765 170.338 170.366C170.041 170.124 169.765 170.084 169.427 170.119C169.293 170.132 169.158 170.146 169.03 170.227C168.511 170.484 168.154 170.997 168.068 171.482C168.021 171.691 168.055 172.027 168.568 172.383C172.909 175.548 176.261 179.697 178.373 184.381C180.234 188.614 181.964 194.902 179.674 200.51C179.453 201.009 179.494 201.413 179.805 201.79C180.122 202.234 180.689 202.448 181.228 202.393C181.228 202.393 181.228 202.393 181.296 202.386C181.633 202.352 181.95 202.116 182.111 201.691C184.824 194.883 182.654 187.619 181.049 183.904Z" fill="#F7C300"/>
<path d="M170.621 270.153C170.579 269.749 170.329 269.298 169.958 268.995C169.809 268.874 169.445 268.639 169.04 268.681C157.863 270.635 146.688 269.936 135.731 266.697C135.657 266.636 135.522 266.65 135.455 266.657C135.253 266.677 135.057 266.765 134.929 266.846C134.478 267.096 134.121 267.609 134.095 268.02C133.881 269.266 135.089 269.756 135.582 269.91C146.397 273.095 157.976 273.753 169.16 271.866C169.969 271.784 170.717 271.095 170.621 270.153Z" fill="#F7C300"/>
</svg>
