<svg width="1127" height="237" viewBox="0 0 1127 237" fill="none" xmlns="http://www.w3.org/2000/svg">
<path d="M868.254 108.67C868.031 108.157 867.622 107.76 867.166 107.486C866.477 106.601 865.275 106.552 864.426 107.162L863.076 108.093C862.492 108.147 862.056 108.541 861.742 108.984L861.686 109.009C860.708 109.71 859.845 110.597 860.025 111.943C860.187 113.092 860.997 114.025 862.072 114.401C863.187 114.794 864.314 114.435 865.26 113.816C866.877 112.801 869.211 110.793 868.254 108.67Z" fill="white" fill-opacity="0.25"/>
<path d="M880.816 173.29C879.142 171.922 876.803 170.812 874.731 171.789C873.751 172.253 873.361 173.374 873.725 174.367C873.369 174.557 873.062 174.861 872.83 175.336C871.903 177.473 872.992 179.979 875.029 181.018C877.148 182.089 879.669 181.288 881.249 179.645C883.193 177.672 882.94 175.07 880.816 173.29ZM876.801 177.562C876.679 177.513 876.629 177.4 876.523 177.31C876.523 177.31 876.523 177.31 876.482 177.294C876.946 177.43 877.474 177.402 878.009 177.235C877.677 177.482 877.249 177.738 876.801 177.562Z" fill="white" fill-opacity="0.25"/>
<path d="M971.767 160.637C971.329 160.795 970.982 161.083 970.66 161.428C969.732 161.157 968.637 161.434 967.978 162.402C966.957 163.935 967.879 165.667 969.055 166.744C971.385 168.842 975.419 168.496 976.526 165.297C977.602 162.417 974.666 159.466 971.767 160.637Z" fill="white" fill-opacity="0.25"/>
<path d="M852.328 147.81C851.943 146.147 850.45 145.276 848.969 144.74C848.358 144.499 847.757 144.593 847.313 144.89C846.464 143.092 843.269 143.816 843.593 146.115C843.874 147.925 844.333 149.759 845.706 151.055C846.949 152.205 848.755 152.634 850.333 151.839C851.814 151.054 852.688 149.415 852.328 147.81Z" fill="white" fill-opacity="0.25"/>
<path d="M940.164 194.923C939.709 193.8 938.575 192.975 937.34 193.008C936.577 193.038 935.792 193.484 935.195 194.051C933.628 194.095 932.053 195.363 931.951 197.069C931.878 198.221 932.511 199.367 933.458 200.071C934.527 200.822 935.761 200.789 936.945 200.406C939.148 199.574 941.212 197.413 940.164 194.923Z" fill="white" fill-opacity="0.25"/>
<path d="M872.151 88.205C871.976 87.5696 871.534 87.0177 871.012 86.6703C870.978 86.5155 870.929 86.4016 870.879 86.2877C870.361 85.3281 869.609 84.607 868.688 84.1971C868.254 83.743 867.619 83.4454 866.987 83.6212C866.833 83.6549 866.662 83.7296 866.508 83.7633C865.299 83.8533 864.133 84.4327 863.322 85.6707C861.882 87.7946 862.752 90.2616 864.492 91.7024C864.564 92.7221 865.383 93.753 866.681 93.5563C867.03 93.5049 867.436 93.4286 867.8 93.3363C868.378 93.4221 869.01 93.2463 869.487 92.8676C870.184 92.7648 870.889 92.5232 871.472 92.2335C873.01 91.423 873.11 89.4798 872.151 88.205Z" fill="white" fill-opacity="0.25"/>
<path d="M945.291 125.422C945.155 123.244 943.282 121.421 941.4 120.585C937.978 119.001 934.236 122.814 934.714 126.165C933.844 127.191 933.708 128.743 934.74 129.952C936.295 131.745 939.451 131.241 941.412 130.55C943.64 129.776 945.43 127.837 945.291 125.422Z" fill="white" fill-opacity="0.25"/>
<path d="M755.546 117.849C755.368 116.74 754.541 115.848 753.523 115.447C751.365 114.597 749.531 116.046 748.284 117.679C747.632 118.508 747.827 119.812 748.668 120.427C748.856 120.548 749.003 120.653 749.222 120.692C749.641 121.424 750.36 121.99 751.214 122.091C752.287 122.23 753.364 121.757 754.163 121.034C755.059 120.301 755.758 119.113 755.546 117.849Z" fill="white" fill-opacity="0.25"/>
<path d="M806.286 182.261C806.052 182.5 805.859 182.754 805.732 183.081C805.618 183.131 805.521 183.14 805.407 183.19C804.616 182.689 803.309 182.788 802.779 183.665C801.567 185.689 802.585 188.498 805.144 188.562C806.07 188.596 806.855 188.15 807.386 187.51C809.003 187.58 810.638 186.761 811.367 185.254C812.736 182.347 808.239 180.387 806.286 182.261Z" fill="white" fill-opacity="0.25"/>
<path d="M114.816 177.309C113.142 175.941 110.803 174.831 108.731 175.809C107.751 176.273 107.361 177.393 107.725 178.387C107.369 178.577 107.062 178.881 106.83 179.356C105.903 181.493 106.992 183.999 109.029 185.038C111.148 186.108 113.669 185.307 115.249 183.664C117.193 181.692 116.94 179.09 114.816 177.309ZM110.801 181.581C110.679 181.533 110.629 181.419 110.523 181.33C110.523 181.33 110.523 181.33 110.482 181.314C110.946 181.449 111.474 181.421 112.009 181.254C111.677 181.502 111.249 181.758 110.801 181.581Z" fill="white" fill-opacity="0.25"/>
<path d="M32.8811 178.171C32.4329 175.586 29.4555 173.705 27.2267 175.565C26.9361 175.829 26.6862 176.108 26.4931 176.362C25.7953 176.465 25.2301 176.95 24.8933 177.573C23.6345 179.957 25.0456 183.204 27.5526 184.002C29.1071 184.473 30.7212 182.985 31.7207 181.868C32.5748 180.882 33.1176 179.491 32.8811 178.171Z" fill="white" fill-opacity="0.25"/>
<path d="M86.3287 151.829C85.9437 150.167 84.4514 149.296 82.9696 148.759C82.3588 148.519 81.7584 148.612 81.3137 148.909C80.4649 147.112 77.2698 147.836 77.5942 150.135C77.8747 151.945 78.3339 153.778 79.7073 155.075C80.9497 156.225 82.7557 156.653 84.334 155.859C85.8149 155.073 86.6889 153.435 86.3287 151.829Z" fill="white" fill-opacity="0.25"/>
<path d="M106.151 92.2248C105.976 91.5894 105.534 91.0375 105.012 90.6901C104.978 90.5353 104.929 90.4213 104.879 90.3074C104.361 89.3479 103.609 88.6267 102.688 88.2169C102.254 87.7628 101.619 87.4652 100.987 87.641C100.833 87.6747 100.662 87.7493 100.508 87.7831C99.2989 87.8731 98.1333 88.4525 97.3215 89.6905C95.8823 91.8144 96.752 94.2814 98.4918 95.7222C98.5638 96.7419 99.3831 97.7728 100.681 97.5761C101.03 97.5247 101.436 97.4484 101.8 97.3561C102.378 97.4419 103.01 97.2661 103.487 96.8873C104.184 96.7846 104.889 96.543 105.472 96.2533C107.01 95.4428 107.11 93.4996 106.151 92.2248Z" fill="white" fill-opacity="0.25"/>
<path d="M459.065 17.0222C458.89 16.3868 458.448 15.8348 457.926 15.4875C457.892 15.3326 457.843 15.2187 457.793 15.1048C457.275 14.1453 456.523 13.4241 455.602 13.0142C455.169 12.5602 454.533 12.2626 453.901 12.4384C453.747 12.4721 453.577 12.5467 453.423 12.5804C452.213 12.6704 451.047 13.2498 450.236 14.4879C448.796 16.6118 449.666 19.0788 451.406 20.5195C451.478 21.5393 452.297 22.5701 453.595 22.3734C453.944 22.322 454.35 22.2458 454.715 22.1535C455.292 22.2392 455.924 22.0635 456.401 21.6847C457.099 21.5819 457.803 21.3404 458.386 21.0506C459.924 20.2401 460.024 18.2969 459.065 17.0222Z" fill="white" fill-opacity="0.25"/>
<path d="M179.291 129.442C179.155 127.264 177.282 125.44 175.4 124.604C171.978 123.02 168.236 126.833 168.714 130.185C167.844 131.211 167.708 132.762 168.74 133.971C170.295 135.764 173.451 135.261 175.412 134.57C177.64 133.795 179.43 131.857 179.291 129.442Z" fill="white" fill-opacity="0.25"/>
<path d="M342.46 46.6657C342.282 45.5569 341.455 44.6648 340.437 44.2638C338.279 43.4136 336.446 44.8628 335.198 46.4956C334.546 47.3245 334.741 48.629 335.582 49.2435C335.77 49.3646 335.917 49.4697 336.136 49.509C336.556 50.2406 337.274 50.807 338.128 50.9072C339.201 51.0467 340.278 50.574 341.077 49.8502C341.973 49.1176 342.672 47.9293 342.46 46.6657Z" fill="white" fill-opacity="0.25"/>
<path d="M40.2864 186.281C40.0525 186.519 39.8593 186.774 39.7316 187.101C39.6182 187.151 39.5208 187.16 39.4074 187.21C38.6162 186.709 37.3093 186.808 36.7792 187.685C35.5667 189.709 36.585 192.518 39.1438 192.582C40.0699 192.616 40.8547 192.17 41.3863 191.53C43.0031 191.6 44.638 190.781 45.3668 189.274C46.7357 186.367 42.239 184.407 40.2864 186.281Z" fill="white" fill-opacity="0.25"/>
<path d="M393.2 111.078C392.967 111.316 392.773 111.571 392.646 111.898C392.532 111.948 392.435 111.957 392.322 112.006C391.53 111.506 390.223 111.605 389.693 112.482C388.481 114.506 389.499 117.315 392.058 117.379C392.984 117.413 393.769 116.967 394.3 116.327C395.917 116.397 397.552 115.578 398.281 114.071C399.65 111.164 395.153 109.204 393.2 111.078Z" fill="white" fill-opacity="0.25"/>
<path d="M1099.21 3.48592C1098.98 2.97327 1098.57 2.57617 1098.12 2.30183C1097.43 1.41696 1096.23 1.36816 1095.38 1.97802L1094.03 2.90966C1093.44 2.96268 1093.01 3.35747 1092.69 3.80038L1092.64 3.82526C1091.66 4.52579 1090.8 5.41324 1090.98 6.7587C1091.14 7.90839 1091.95 8.84139 1093.02 9.21755C1094.14 9.60975 1095.27 9.25098 1096.21 8.63229C1097.83 7.61718 1100.16 5.60953 1099.21 3.48592Z" fill="white" fill-opacity="0.25"/>
<path d="M552.767 97.2486C551.093 95.8808 548.754 94.7707 546.682 95.7482C545.702 96.212 545.312 97.3329 545.676 98.3261C545.32 98.5163 545.014 98.8204 544.781 99.2954C543.854 101.432 544.943 103.938 546.981 104.977C549.1 106.048 551.62 105.247 553.201 103.604C555.145 101.631 554.891 99.0295 552.767 97.2486ZM548.752 101.521C548.63 101.472 548.58 101.358 548.474 101.269C548.474 101.269 548.474 101.269 548.433 101.253C548.897 101.389 549.425 101.361 549.96 101.194C549.628 101.441 549.2 101.697 548.752 101.521Z" fill="white" fill-opacity="0.25"/>
<path d="M470.832 98.11C470.384 95.5258 467.407 93.6448 465.178 95.5048C464.887 95.768 464.637 96.0472 464.444 96.3016C463.746 96.4043 463.181 96.8898 462.844 97.5124C461.585 99.8962 462.997 103.143 465.504 103.942C467.058 104.413 468.672 102.924 469.672 101.807C470.526 100.822 471.069 99.4306 470.832 98.11Z" fill="white" fill-opacity="0.25"/>
<path d="M346.834 229.672C346.386 227.087 343.409 225.206 341.18 227.066C340.889 227.329 340.639 227.609 340.446 227.863C339.748 227.966 339.183 228.451 338.846 229.074C337.588 231.458 338.999 234.705 341.506 235.503C343.06 235.974 344.674 234.486 345.674 233.369C346.528 232.383 347.071 230.992 346.834 229.672Z" fill="white" fill-opacity="0.25"/>
<path d="M227.834 55.6716C227.386 53.0874 224.409 51.2063 222.18 53.0663C221.889 53.3295 221.639 53.6087 221.446 53.8631C220.749 53.9659 220.183 54.4513 219.847 55.074C218.588 57.4578 219.999 60.7046 222.506 61.5034C224.06 61.9742 225.674 60.4857 226.674 59.3687C227.528 58.3834 228.071 56.9921 227.834 55.6716Z" fill="white" fill-opacity="0.25"/>
<path d="M781.681 13.9121C780.741 13.0698 779.488 12.6704 778.298 13.1929C777.334 13.6158 776.667 14.7223 776.78 15.758C776.246 17.2472 776.323 18.977 777.452 20.1771C779.146 21.9773 782.223 21.9151 783.344 19.5241C784.273 17.6241 783.177 15.2566 781.681 13.9121Z" fill="white" fill-opacity="0.25"/>
<path d="M1083.28 42.6261C1082.89 40.9638 1081.4 40.0926 1079.92 39.5561C1079.31 39.3154 1078.71 39.4094 1078.26 39.7063C1077.42 37.9084 1074.22 38.6325 1074.55 40.9318C1074.83 42.7418 1075.28 44.575 1076.66 45.8714C1077.9 47.0218 1079.71 47.45 1081.28 46.6555C1082.77 45.8699 1083.64 44.2315 1083.28 42.6261Z" fill="white" fill-opacity="0.25"/>
<path d="M902.49 29.8263C902.105 28.164 900.613 27.2928 899.131 26.7562C898.521 26.5156 897.92 26.6096 897.475 26.9065C896.627 25.1086 893.432 25.8326 893.756 28.132C894.036 29.942 894.496 31.7752 895.869 33.0716C897.111 34.222 898.917 34.6502 900.496 33.8557C901.977 33.0701 902.851 31.4317 902.49 29.8263Z" fill="white" fill-opacity="0.25"/>
<path d="M524.28 71.7687C523.895 70.1063 522.403 69.2352 520.921 68.6986C520.31 68.458 519.71 68.5519 519.265 68.8489C518.416 67.051 515.221 67.775 515.545 70.0744C515.826 71.8844 516.285 73.7176 517.659 75.014C518.901 76.1644 520.707 76.5926 522.285 75.7981C523.766 75.0125 524.64 73.3741 524.28 71.7687Z" fill="white" fill-opacity="0.25"/>
<path d="M617.244 49.3814C617.107 47.2032 615.235 45.3797 613.353 44.5439C609.931 42.9598 606.188 46.7728 606.666 50.124C605.796 51.1502 605.66 52.7019 606.692 53.9109C608.247 55.7039 611.403 55.2005 613.364 54.5094C615.592 53.7349 617.382 51.7964 617.244 49.3814Z" fill="white" fill-opacity="0.25"/>
<path d="M1037.24 77.0783C1037 77.3166 1036.81 77.5709 1036.68 77.8983C1036.57 77.9481 1036.47 77.9569 1036.36 78.0066C1035.57 77.5061 1034.26 77.6049 1033.73 78.4819C1032.52 80.5063 1033.54 83.3151 1036.1 83.379C1037.02 83.4133 1037.81 82.9672 1038.34 82.3269C1039.96 82.3973 1041.59 81.5779 1042.32 80.0711C1043.69 77.1642 1039.19 75.2038 1037.24 77.0783Z" fill="white" fill-opacity="0.25"/>
<path d="M478.238 106.221C478.004 106.459 477.811 106.714 477.684 107.041C477.57 107.091 477.473 107.099 477.359 107.149C476.568 106.649 475.261 106.748 474.731 107.625C473.519 109.649 474.537 112.458 477.096 112.522C478.022 112.556 478.807 112.11 479.338 111.469C480.955 111.54 482.59 110.721 483.319 109.214C484.688 106.307 480.191 104.346 478.238 106.221Z" fill="white" fill-opacity="0.25"/>
<path d="M688.29 3.98797C687.853 4.14607 687.505 4.43414 687.183 4.77917C686.255 4.5081 685.161 4.78502 684.501 5.75269C683.48 7.28602 684.402 9.0181 685.579 10.0955C687.908 12.1932 691.942 11.847 693.049 8.64804C694.126 5.76761 691.19 2.81706 688.29 3.98797Z" fill="white" fill-opacity="0.25"/>
<path d="M401.522 190.596C401.385 188.417 399.513 186.594 397.631 185.758C394.209 184.174 390.467 187.987 390.944 191.338C390.074 192.364 389.939 193.916 390.97 195.125C392.526 196.918 395.682 196.415 397.642 195.724C399.871 194.949 401.66 193.01 401.522 190.596Z" fill="white" fill-opacity="0.25"/>
<path d="M1124.83 224.672C1124.39 222.087 1121.41 220.206 1119.18 222.066C1118.89 222.329 1118.64 222.609 1118.45 222.863C1117.75 222.966 1117.18 223.451 1116.85 224.074C1115.59 226.458 1117 229.705 1119.51 230.503C1121.06 230.974 1122.67 229.486 1123.67 228.369C1124.53 227.383 1125.07 225.992 1124.83 224.672Z" fill="white" fill-opacity="0.25"/>
<path d="M985.832 28.883C985.384 26.2988 982.407 24.4177 980.178 26.2777C979.887 26.5409 979.637 26.8202 979.444 27.0745C978.746 27.1773 978.181 27.6628 977.844 28.2854C976.586 30.6692 977.997 33.916 980.504 34.7148C982.058 35.1856 983.672 33.6971 984.672 32.5802C985.526 31.5948 986.069 30.2036 985.832 28.883Z" fill="white" fill-opacity="0.25"/>
<path d="M205.681 164.656C205.243 164.815 204.896 165.103 204.574 165.448C203.646 165.177 202.551 165.453 201.892 166.421C200.871 167.954 201.793 169.687 202.97 170.764C205.299 172.862 209.333 172.515 210.44 169.316C211.516 166.436 208.581 163.486 205.681 164.656Z" fill="white" fill-opacity="0.25"/>
<path d="M62.2479 23.8745C62.0729 23.239 61.6306 22.6871 61.1084 22.3398C61.0749 22.1849 61.0253 22.071 60.9758 21.9571C60.4576 20.9976 59.7054 20.2764 58.7848 19.8665C58.3513 19.4125 57.7157 19.1149 57.0834 19.2907C56.9293 19.3244 56.7593 19.399 56.6052 19.4327C55.3957 19.5227 54.2301 20.1021 53.4183 21.3402C51.9791 23.4641 52.8488 25.9311 54.5886 27.3718C54.6606 28.3916 55.4799 29.4224 56.778 29.2257C57.1269 29.1743 57.5324 29.0981 57.8973 29.0057C58.4745 29.0915 59.1068 28.9157 59.5834 28.537C60.2812 28.4342 60.9861 28.1926 61.5689 27.9029C63.1065 27.0924 63.2069 25.1492 62.2479 23.8745Z" fill="white" fill-opacity="0.25"/>
<path d="M1076.11 169.136C1075.81 168.734 1075.41 168.332 1075.01 168.131C1074.51 167.93 1074.01 167.83 1073.41 167.83L1066.91 168.634C1065.91 167.729 1064.91 166.423 1063.91 165.117C1063.71 164.815 1063.51 164.614 1063.21 164.313L1062.71 163.81C1062.01 163.006 1060.91 162.705 1059.91 163.006C1058.91 163.308 1058.11 164.112 1057.91 165.117L1056.71 171.247C1056.61 172.051 1054.81 172.553 1053.51 173.056L1053.31 173.156C1052.61 173.357 1052.01 173.558 1051.41 173.859L1050.71 174.161C1049.71 174.563 1049.11 175.568 1049.01 176.573C1048.91 177.678 1049.51 178.583 1050.41 179.186L1056.11 182.301C1056.21 183.105 1056.31 183.909 1056.41 184.612C1056.61 186.019 1056.81 187.225 1056.71 188.531C1056.71 188.632 1056.71 188.732 1056.71 188.833C1056.81 189.335 1057.01 189.838 1057.31 190.34C1057.81 190.943 1058.51 191.345 1059.31 191.345C1059.61 191.345 1059.91 191.345 1060.21 191.245C1060.61 191.144 1061.01 190.943 1061.41 190.642L1066.11 186.22L1067.61 186.522C1067.71 186.522 1067.91 186.522 1068.01 186.522C1068.41 186.522 1069.11 186.723 1069.71 186.924C1070.91 187.225 1072.51 187.727 1073.91 187.125C1074.11 187.024 1074.31 186.924 1074.51 186.823C1074.81 186.622 1075.11 186.321 1075.21 186.019C1076.41 184.713 1075.51 183.004 1074.71 181.597C1074.61 181.396 1074.41 181.095 1074.41 180.994L1072.91 177.779L1073.01 177.578C1073.11 177.377 1073.31 177.176 1073.41 176.874C1073.41 176.774 1073.51 176.673 1073.51 176.673C1073.81 176.07 1074.11 175.367 1074.61 174.764C1075.41 173.558 1076.11 172.252 1076.41 170.644C1076.41 169.94 1076.41 169.438 1076.11 169.136Z" fill="white" fill-opacity="0.5"/>
<path d="M1125.81 144.043C1125.71 143.541 1125.51 143.038 1125.21 142.636C1124.91 142.234 1124.41 141.933 1123.91 141.732L1117.71 139.822C1117.11 138.617 1116.71 137.009 1116.31 135.401C1116.21 135.099 1116.11 134.798 1116.01 134.396L1115.81 133.692C1115.51 132.687 1114.61 131.984 1113.61 131.783C1112.51 131.582 1111.51 132.084 1110.91 132.989L1107.41 138.114C1107.01 138.717 1105.21 138.616 1103.71 138.416H1103.51C1102.81 138.315 1102.11 138.315 1101.51 138.315H1100.81C1099.71 138.315 1098.81 138.918 1098.31 139.822C1097.81 140.827 1097.91 141.933 1098.61 142.737L1102.51 147.862C1102.31 148.666 1102.01 149.369 1101.91 150.073C1101.51 151.379 1101.21 152.685 1100.61 153.791C1100.61 153.891 1100.51 153.891 1100.51 153.992C1100.31 154.494 1100.31 155.097 1100.51 155.6C1100.71 156.303 1101.21 157.007 1101.91 157.308C1102.21 157.409 1102.51 157.509 1102.81 157.61C1103.21 157.71 1103.71 157.61 1104.11 157.509L1110.21 155.399L1111.41 156.303C1111.51 156.404 1111.61 156.404 1111.71 156.504C1112.11 156.705 1112.61 157.107 1113.11 157.509C1114.11 158.313 1115.41 159.418 1116.81 159.418C1117.01 159.418 1117.21 159.418 1117.41 159.318C1117.81 159.217 1118.11 159.117 1118.41 158.916C1120.01 158.213 1119.81 156.303 1119.71 154.695C1119.71 154.394 1119.71 154.193 1119.61 153.992L1119.51 150.475L1119.71 150.374C1119.91 150.274 1120.11 150.073 1120.31 149.872C1120.41 149.771 1120.41 149.771 1120.51 149.671C1121.01 149.168 1121.61 148.766 1122.21 148.364C1123.41 147.56 1124.61 146.656 1125.51 145.249C1125.81 144.948 1125.91 144.445 1125.81 144.043ZM1115.81 154.193C1115.81 154.494 1115.81 154.796 1115.91 155.097C1115.91 155.198 1115.91 155.198 1115.91 155.298C1115.61 155.097 1115.31 154.896 1115.21 154.695C1114.51 154.193 1113.91 153.59 1113.21 153.288L1111.71 152.183C1111.11 151.681 1110.21 151.58 1109.41 151.681C1109.31 151.681 1109.21 151.781 1109.11 151.781L1104.41 153.389C1104.71 152.585 1104.91 151.781 1105.11 150.877C1105.31 150.073 1105.51 149.269 1105.81 148.465C1105.91 148.063 1106.01 147.56 1105.91 147.158C1105.81 146.756 1105.61 146.254 1105.41 145.952L1102.31 141.933C1102.61 141.933 1102.81 141.933 1103.11 142.033C1105.51 142.234 1108.51 142.536 1110.11 140.124L1112.61 136.506C1113.11 138.416 1113.61 140.425 1114.61 142.134C1114.71 142.234 1114.81 142.435 1114.91 142.536C1115.21 142.837 1115.61 143.038 1116.01 143.239L1120.81 144.646C1120.51 144.847 1120.21 145.048 1120.01 145.249C1119.31 145.751 1118.51 146.254 1117.91 146.857C1117.71 147.058 1117.51 147.158 1117.31 147.259L1116.71 147.661C1116.01 148.163 1115.51 149.068 1115.51 149.972L1115.81 154.193Z" fill="#59C69F"/>
<path d="M85.1691 117.032C84.934 116.588 84.6001 116.13 84.2356 115.869C83.7722 115.594 83.2934 115.417 82.7005 115.325L76.1548 115.117C75.3047 114.069 74.516 112.624 73.7274 111.178C73.5758 110.85 73.4088 110.62 73.1584 110.276L72.7411 109.702C72.1721 108.8 71.1312 108.333 70.097 108.476C69.0628 108.62 68.1495 109.291 67.7984 110.253L65.6766 116.126C65.455 116.905 63.5996 117.124 62.2383 117.42L62.0253 117.488C61.3029 117.579 60.6793 117.685 60.0404 117.89L59.3026 118.08C58.2531 118.323 57.5068 119.224 57.2545 120.201C56.9869 121.278 57.4417 122.264 58.2389 122.999L63.3957 126.956C63.3718 127.766 63.3478 128.576 63.3392 129.287C63.322 130.708 63.3355 131.93 63.0372 133.206C63.0219 133.305 63.0065 133.404 62.9912 133.504C63.0133 134.015 63.1342 134.543 63.3539 135.086C63.7559 135.759 64.3862 136.264 65.1767 136.387C65.4732 136.433 65.7696 136.48 66.0814 136.427C66.492 136.389 66.918 136.252 67.3593 136.016L72.6788 132.371L74.115 132.9C74.2138 132.916 74.4115 132.947 74.5103 132.962C74.9055 133.024 75.5665 133.33 76.1288 133.621C77.2685 134.104 78.7728 134.848 80.2483 134.468C80.4613 134.399 80.6743 134.331 80.8873 134.262C81.2144 134.11 81.5569 133.858 81.7017 133.576C83.087 132.47 82.4585 130.643 81.8828 129.13C81.8147 128.915 81.6631 128.587 81.6785 128.487L80.6873 125.078L80.8168 124.895C80.9463 124.712 81.1746 124.544 81.3195 124.262C81.3348 124.163 81.449 124.079 81.449 124.079C81.8375 123.529 82.2414 122.88 82.8275 122.362C83.8022 121.293 84.6934 120.11 85.2353 118.568C85.3428 117.873 85.4195 117.376 85.1691 117.032Z" fill="#F1C527"/>
<path d="M307.663 146.117C307.711 145.607 307.663 145.068 307.491 144.596C307.319 144.125 306.927 143.691 306.506 143.354L301.115 139.731C300.886 138.403 300.964 136.747 301.042 135.092C301.033 134.774 301.023 134.457 301.043 134.043L301.053 133.311C301.053 132.262 300.393 131.328 299.493 130.846C298.497 130.335 297.396 130.527 296.562 131.219L291.741 135.114C291.186 135.576 289.491 134.959 288.112 134.332L287.92 134.274C287.279 133.976 286.608 133.773 286.034 133.599L285.363 133.397C284.31 133.078 283.275 133.395 282.537 134.117C281.771 134.934 281.55 136.022 281.989 136.994L284.255 143.031C283.834 143.743 283.345 144.33 283.047 144.975C282.29 146.11 281.628 147.274 280.737 148.159C280.708 148.255 280.612 148.226 280.583 148.323C280.248 148.746 280.075 149.323 280.123 149.862C280.113 150.594 280.39 151.412 280.974 151.904C281.232 152.087 281.491 152.27 281.749 152.453C282.103 152.665 282.611 152.713 283.023 152.733L289.469 152.477L290.359 153.691C290.426 153.816 290.522 153.845 290.589 153.97C290.914 154.278 291.278 154.808 291.642 155.337C292.369 156.397 293.297 157.832 294.638 158.237C294.829 158.295 295.021 158.352 295.241 158.314C295.653 158.334 295.969 158.324 296.314 158.219C298.048 158.008 298.403 156.122 298.768 154.553C298.855 154.264 298.912 154.072 298.874 153.85L299.786 150.453L300.007 150.415C300.227 150.376 300.476 150.242 300.725 150.107C300.85 150.04 300.85 150.04 300.974 149.973C301.597 149.636 302.287 149.425 302.977 149.214C304.356 148.791 305.765 148.272 307.03 147.185C307.403 146.984 307.643 146.531 307.663 146.117ZM295.178 152.943C295.091 153.232 295.005 153.52 295.014 153.838C294.985 153.934 294.985 153.934 294.957 154.031C294.727 153.751 294.497 153.472 294.459 153.251C293.933 152.567 293.531 151.816 292.947 151.324L291.827 149.832C291.397 149.177 290.564 148.82 289.769 148.685C289.673 148.656 289.548 148.723 289.453 148.694L284.491 148.874C285.009 148.191 285.431 147.479 285.881 146.671C286.303 145.959 286.725 145.247 287.243 144.564C287.454 144.208 287.694 143.755 287.713 143.341C287.732 142.928 287.685 142.389 287.58 142.042L285.763 137.295C286.05 137.382 286.242 137.44 286.5 137.623C288.741 138.51 291.528 139.667 293.751 137.821L297.182 135.08C297.114 137.053 297.016 139.122 297.484 141.048C297.551 141.173 297.59 141.394 297.656 141.519C297.857 141.895 298.183 142.203 298.508 142.511L302.702 145.248C302.357 145.353 302.012 145.459 301.763 145.594C300.948 145.872 300.038 146.122 299.291 146.526C299.042 146.66 298.822 146.699 298.601 146.737L297.911 146.948C297.097 147.227 296.359 147.948 296.1 148.814L295.178 152.943Z" fill="white"/>
<path d="M31.0403 60.832C31.0885 60.3219 31.041 59.7829 30.8689 59.3111C30.6968 58.8393 30.3044 58.4059 29.8832 58.0687L24.4931 54.4459C24.2641 53.1175 24.3418 51.4619 24.4195 49.8064C24.4102 49.4888 24.4008 49.1711 24.4202 48.7572L24.4303 48.0257C24.431 46.9765 23.7707 46.0424 22.8707 45.5606C21.8749 45.0497 20.7733 45.2415 19.9395 45.934L15.119 49.829C14.5632 50.2907 12.8682 49.6735 11.4894 49.0469L11.2979 48.989C10.6563 48.6902 9.98597 48.4876 9.41139 48.314L8.74104 48.1114C7.68764 47.793 6.65298 48.11 5.91497 48.8314C5.14816 49.649 4.92713 50.7365 5.36708 51.709L7.6331 57.7457C7.21118 58.4577 6.72229 59.0445 6.42493 59.6892C5.66749 60.8245 5.00581 61.9887 4.11444 62.8737C4.08564 62.9699 3.98988 62.941 3.96109 63.0372C3.62556 63.4605 3.45277 64.0379 3.5003 64.577C3.49023 65.3085 3.76745 66.1268 4.35139 66.6181C4.60988 66.8012 4.86837 66.9843 5.12686 67.1673C5.48111 67.3793 5.98873 67.4278 6.40058 67.4473L12.8469 67.1918L13.7369 68.4052C13.8039 68.5304 13.8996 68.5593 13.9666 68.6845C14.292 68.9927 14.6557 69.5224 15.0193 70.052C15.7465 71.1113 16.6746 72.5461 18.0153 72.9513C18.2069 73.0092 18.3984 73.0671 18.6187 73.0287C19.0306 73.0482 19.3467 73.0388 19.6915 72.9332C21.4254 72.7226 21.781 70.8362 22.146 69.2675C22.2324 68.9788 22.29 68.7864 22.2519 68.565L23.1641 65.1678L23.3844 65.1294C23.6047 65.0911 23.8538 64.9565 24.103 64.8219C24.2275 64.7546 24.2275 64.7546 24.3521 64.6873C24.9749 64.3508 25.6647 64.1396 26.3545 63.9283C27.734 63.5057 29.1424 62.9869 30.4074 61.9C30.7811 61.6981 31.0209 61.2459 31.0403 60.832ZM18.5553 67.6577C18.4689 67.9464 18.3825 68.2351 18.3918 68.5527C18.363 68.649 18.363 68.649 18.3342 68.7452C18.1045 68.4659 17.8749 68.1866 17.8367 67.9652C17.3103 67.2814 16.9086 66.5304 16.3246 66.0391L15.205 64.5464C14.7744 63.8916 13.9413 63.5349 13.1464 63.3996C13.0506 63.3706 12.9261 63.4379 12.8303 63.409L7.86864 63.5885C8.38633 62.9054 8.80824 62.1934 9.25896 61.3852C9.68088 60.6732 10.1028 59.9612 10.6205 59.2782C10.8314 58.9222 11.0712 58.4699 11.0906 58.056C11.1101 57.6422 11.0625 57.1031 10.9574 56.7565L9.14072 52.0099C9.42801 52.0968 9.61954 52.1547 9.87803 52.3377C12.1187 53.2248 14.9052 54.3817 17.1286 52.5351L20.5595 49.7942C20.4911 51.7674 20.394 53.8368 20.862 55.7622C20.929 55.8873 20.9671 56.1088 21.0341 56.2339C21.235 56.6095 21.5605 56.9177 21.8859 57.2259L26.0793 59.9624C25.7345 60.068 25.3896 60.1737 25.1405 60.3083C24.3261 60.5869 23.416 60.8365 22.6686 61.2403C22.4195 61.3749 22.1992 61.4132 21.9789 61.4516L21.2891 61.6629C20.4747 61.9414 19.7367 62.6629 19.4775 63.529L18.5553 67.6577Z" fill="white"/>
</svg>
