<svg width="141" height="130" viewBox="0 0 141 130" fill="none" xmlns="http://www.w3.org/2000/svg">
<path d="M125.907 86.3442C126.123 85.6457 126.172 84.837 126.305 84.0834C126.45 81.295 125.429 78.46 123.803 76.1873C122.569 74.4132 121.031 72.9201 119.439 71.5112C117.96 70.2964 116.088 68.5831 114.225 67.9567C113.614 67.7943 113.086 67.6869 112.532 67.8028L112.394 67.8317C112.394 67.8317 112.339 67.9158 112.422 67.9709C113.007 71.8405 113.067 75.9652 112.126 79.7911C112.126 79.7911 112.071 79.8752 112.155 79.9303C112.155 79.9303 112.239 79.9854 112.322 80.0404C112.741 80.3159 113.049 80.7594 113.219 81.2319C113.957 83.4001 112.561 85.7246 110.767 86.8257C108.918 88.0109 106.561 88.141 104.398 88.158C104.758 88.1551 106.112 83.88 106.219 83.3496C106.732 81.6453 107.246 79.941 107.538 78.2107C108.259 74.7209 108.537 71.1789 108.508 67.5557C108.374 60.9789 107.518 54.4077 104.947 48.2681C104.211 46.4622 103.254 44.6302 102.187 42.9662C96.9361 34.7015 88.6153 31.1436 79.4752 29.2088C78.5032 29.0492 77.3379 29.0026 76.5388 29.6778C76.484 29.7619 76.2907 29.8749 76.1523 29.9039C76.0138 29.9328 75.8754 29.9618 75.7917 29.9067C69.0426 28.7056 62.8788 27.89 56.3715 29.2513C50.5565 30.4677 44.9748 33.1595 40.7082 37.3182C40.3505 37.6834 39.9927 38.0486 39.6898 38.3297C39.0292 38.9759 38.3974 39.7613 37.8204 40.4627C37.1626 41.4713 36.0663 43.1523 35.6826 43.7406C35.244 44.413 34.8343 45.2245 34.341 45.981C30.8672 52.2239 29.4267 59.5657 29.4544 66.673C27.6172 65.8234 25.806 64.7506 24.1881 63.5648C22.7374 62.4892 21.3676 61.1064 20.716 59.3555C20.0644 57.6047 20.3532 55.512 21.7581 54.2745C23.3014 53.0081 25.5223 53.2694 27.2069 52.3363C27.4002 52.2233 27.7319 52.0813 27.8964 51.8292C28.1157 51.493 28.1965 51.1858 28.3321 50.7945C29.1374 47.3598 30.4417 43.8934 32.0257 40.7313C32.3258 40.0879 33.3181 39.2996 33.2577 38.659C33.2204 37.4329 31.4205 37.8094 30.5061 37.9281C28.0111 38.0871 25.6314 38.8027 23.3094 39.7965C14.8518 43.598 3.53197 53.8048 8.57785 64.2173C9.87535 66.9943 12.1912 68.7599 14.7811 70.1053C20.2752 73.9642 26.0693 77.1797 32.1923 79.8908C36.82 90.0279 47.8601 97.2993 57.5739 101.655C65.6177 105.27 74.7319 107.428 83.5381 105.659C89.4916 104.414 94.3494 101.365 98.0334 97.183C100.834 97.1052 103.69 96.9434 106.404 96.4482C107.624 96.4107 108.899 96.2892 110.174 96.1677C113.416 95.7798 116.684 95.1687 119.473 93.6417C122.54 92.0567 125.044 89.5006 125.907 86.3442ZM36.1211 60.8509C36.3347 59.79 36.4647 58.6741 36.6783 57.6133C36.7851 57.0829 36.8919 56.5524 37.0823 56.0771C37.6706 56.825 38.0108 57.77 37.9905 58.7178C37.9441 59.8889 37.0614 60.509 36.1211 60.8509ZM87.3611 97.9639C79.7083 101.815 70.623 99.7959 63.0289 96.9569C55.5186 94.173 48.1065 89.7718 42.3763 84.0752C50.1924 86.9402 58.1989 89.33 66.2055 91.7197C73.5169 93.892 81.5207 95.9194 89.5707 96.7758C88.8525 97.1438 88.0794 97.5959 87.3611 97.9639ZM80.6668 78.896C82.4464 79.4673 83.1008 81.5805 82.838 83.45C80.3922 82.8003 77.9464 82.1506 75.5005 81.501C76.5681 79.6809 78.3595 78.2174 80.6668 78.896ZM88.5084 85.022C89.36 80.4163 87.8235 75.4392 83.1483 73.4414C77.4434 71.0056 71.7866 74.7293 69.5533 79.9869C64.4943 78.5774 59.4354 77.1678 54.4313 75.6742C48.8158 74.0182 43.007 72.4752 37.3626 70.6801C36.8059 70.4336 36.1657 70.1321 35.609 69.8856C35.4909 68.9667 35.5113 68.0189 35.448 67.016C39.3535 66.3442 43.5246 64.1652 43.8773 59.5913C44.1519 55.687 42.1277 52.191 39.1688 49.7615C42.6369 42.7939 48.3689 38.0384 55.2859 35.8656C55.0435 36.7873 55.1616 37.7062 55.5566 38.5671C55.9256 39.6512 56.7072 40.2861 57.8204 40.7791C58.1262 40.8603 58.5155 40.9966 58.7924 40.9387C60.598 41.2868 62.6172 40.5741 63.7135 38.8931C64.5905 37.5483 64.5216 35.8208 63.596 34.4902C67.4783 34.4039 71.5048 35.0132 75.5369 36.3472C76.927 36.7823 78.0607 36.3274 78.6636 35.4028C88.6634 37.3031 95.885 42.1796 99.4022 52.1861C102.406 60.4127 102.817 70.4156 100.748 78.9052C100.049 81.8094 98.9901 84.7165 97.5129 87.3481C94.7902 86.7564 91.6205 85.75 88.5084 85.022Z" fill="white" fill-opacity="0.5"/>
<path d="M95.3957 54.1133C96.4553 47.7222 89.9231 42.3385 84.6913 40.0941C84.2963 39.2332 83.5147 38.5983 82.211 38.5807C79.6324 38.6846 76.8 38.2609 74.5384 39.8953C72.0287 41.7268 70.586 45.2222 70.3605 48.3178C69.8315 55.1786 75.928 61.5971 82.3482 63.3025C88.3792 64.8716 94.388 60.0581 95.3957 54.1133ZM83.1049 57.1924C80.0737 56.1572 76.3563 52.5073 76.3309 49.2464C76.3196 47.7971 76.6949 46.1218 77.9641 45.2756C79.0401 44.5425 80.1506 44.6731 81.3158 44.7197C81.6244 45.1632 82.0714 45.5778 82.7117 45.8793C84.6873 46.6999 87.7271 48.8222 88.7968 50.8485C90.6826 54.3734 86.8313 58.4452 83.1049 57.1924Z" fill="white" fill-opacity="0.5"/>
</svg>
