<svg width="342" height="16" viewBox="0 0 342 16" fill="none" xmlns="http://www.w3.org/2000/svg">
<path d="M170.321 8.02562C172.532 5.01825 175.944 3.68395 179.326 4.07836C181.54 4.30323 183.504 5.18903 185.344 6.40528C185.882 6.74186 186.409 7.14441 186.939 7.5499C188.08 8.42186 189.239 9.30746 190.567 9.5801C192.084 10.0165 193.204 8.8034 194.314 7.60022C194.633 7.25516 194.951 6.91091 195.277 6.60662C196.603 5.24752 198.36 4.35616 200.168 4.7618C201.529 5.04116 202.581 6.04945 203.625 7.05075C204.074 7.4811 204.522 7.91015 204.992 8.27949C205.066 8.33523 205.141 8.39263 205.219 8.45136C206.632 9.52312 208.631 11.0386 210.197 10.9679C211.08 10.8116 212.086 10.1489 212.932 9.59098C213.266 9.37074 213.576 9.16684 213.843 9.01688L216.676 7.42734C216.763 7.37537 216.849 7.32341 216.935 7.27162C218.588 6.27365 220.137 5.33829 221.98 5.56389C223.926 5.96331 225.628 7.18578 227.329 8.40824C227.755 8.71386 228.146 9.02103 228.537 9.3282C228.928 9.63536 229.319 9.94253 229.744 10.2481C229.889 10.3599 230.01 10.459 230.114 10.5441C230.723 11.0426 230.743 11.0592 231.539 10.3295C232.013 9.92427 232.477 9.50087 232.94 9.07855C235.221 6.9997 237.473 4.94695 240.577 5.21183C242.857 5.41779 244.736 6.6862 246.628 7.96387C247.72 8.70165 248.817 9.44251 249.999 9.98369C250.981 10.4266 251.531 10.4017 252.332 9.71598C252.995 9.03643 253.795 8.35068 254.596 7.66492C254.956 7.32872 255.323 6.95282 255.699 6.5687C256.847 5.39288 258.071 4.13995 259.405 3.71248C260.996 3.23448 262.356 4.2345 263.668 5.19837C263.929 5.39056 264.189 5.58132 264.447 5.75864C264.88 6.06918 265.303 6.36967 265.719 6.6653C266.941 7.53344 268.104 8.35978 269.271 9.27633C270.2 8.34117 271.094 7.40757 271.988 6.47396C272.883 5.54036 273.777 4.60676 274.706 3.6716C277.232 1.28387 279.609 2.15103 282.024 3.99094C282.916 4.56527 283.756 5.20657 284.574 5.83192C285.054 6.19809 285.526 6.5588 285.997 6.8974C286.331 7.16796 286.666 7.46637 287.004 7.76799C287.82 8.49541 288.657 9.24146 289.551 9.66036L289.682 9.49203C289.807 9.16157 289.938 8.99324 290.07 8.8249L291.627 6.31851C292.08 5.56722 292.535 4.85645 292.99 4.14569C293.445 3.43493 293.9 2.72416 294.353 1.97287C294.878 1.29953 296.104 0.919387 296.818 1.53683C298.951 3.22704 301.084 4.91724 303.343 6.27699L306.308 8.09205C306.496 8.19185 306.698 8.27295 306.9 8.35405C307.305 8.51625 307.709 8.67844 307.997 8.99027C308.4 8.97208 308.589 9.13765 308.504 9.3622L308.692 9.12134C309.265 8.49998 309.789 7.79062 310.313 7.08126C311.361 5.66253 312.408 4.24378 313.851 3.52904C316.009 2.2948 317.717 3.67939 319.3 5.39443C319.962 6.00888 320.566 6.69692 321.191 7.4081C321.511 7.77249 321.837 8.14295 322.178 8.5127C322.317 8.66322 322.484 8.81246 322.657 8.96685C323.022 9.29221 323.413 9.64046 323.617 10.0718C323.686 10.0687 323.722 10.1077 323.758 10.1467C323.794 10.1857 323.83 10.2246 323.898 10.2215C325.33 8.04561 327.594 5.99454 329.464 4.44848C331.735 2.55953 333.149 3.47017 335.151 5.32871C336.155 6.33905 337.192 7.30729 338.229 8.27554C339.266 9.24379 340.303 10.212 341.307 11.2224C343.315 13.243 340.558 16.7781 338.136 14.776C337.132 13.7657 336.095 12.7974 335.058 11.8292C334.021 10.8609 332.984 9.8927 331.98 8.88237L331.548 8.41463L330.347 9.44327C329.285 10.4654 328.359 11.4814 327.434 12.4973L327.433 12.4981C327.189 12.7536 326.95 13.0271 326.71 13.3013C325.516 14.6663 324.307 16.0492 322.442 15.3219C321.618 14.9505 320.874 14.1187 320.231 13.4001C320.107 13.2618 319.987 13.1277 319.871 13.0018C319.209 12.3874 318.604 11.6995 317.98 10.9883C317.659 10.6239 317.334 10.2534 316.992 9.88357C316.854 9.73305 316.699 9.54959 316.539 9.3598C316.202 8.95982 315.842 8.53171 315.554 8.32444C315.152 8.06604 315.152 7.84185 315.08 7.82161C315.026 7.80619 314.93 7.90921 314.584 8.20579C313.91 8.70269 313.32 9.53078 312.75 10.3322C312.526 10.6468 312.305 10.9573 312.082 11.242C312.028 11.3062 311.974 11.3701 311.919 11.4338C310.408 13.2129 309.105 14.7477 306.803 13.754C302.875 11.9824 299.196 9.54987 295.643 6.7869C295.383 7.20435 295.091 7.66383 294.799 8.12333C294.507 8.58346 294.214 9.04361 293.954 9.46163C293.756 9.80215 293.559 10.1638 293.358 10.5333C292.77 11.6116 292.146 12.7567 291.359 13.6389C289.436 15.7943 287.248 14.0633 285.371 12.578C285.185 12.4307 285.002 12.2859 284.822 12.1475C284.184 11.6891 283.58 11.2292 282.977 10.7693C282.373 10.3092 281.769 9.84919 281.131 9.39071C280.913 9.23423 280.619 8.97474 280.284 8.67879C279.309 7.81877 277.985 6.65092 277.171 6.8085C276.817 6.93023 276.362 7.46952 275.977 7.92569C275.771 8.1702 275.584 8.39083 275.445 8.51048C275.182 8.84715 274.884 9.14484 274.585 9.44253C274.286 9.74022 273.988 10.0379 273.725 10.3746C273.128 10.97 272.565 11.5639 272.002 12.1577C271.439 12.7515 270.876 13.3453 270.279 13.9407C269.491 14.9507 268.384 14.8382 267.671 14.2208C267.664 14.0587 267.527 14.0649 267.527 14.0649C266.532 13.2977 265.503 12.5321 264.474 11.7666C263.445 11.001 262.415 10.2354 261.421 9.46821C261.319 9.41401 261.123 9.25762 260.901 9.08074C260.509 8.76906 260.039 8.39373 259.863 8.40166C259.863 8.40166 259.607 8.90045 259.469 8.90666C258.826 9.15526 258.078 9.92821 257.413 10.6148C257.094 10.9438 256.795 11.253 256.536 11.4752C256.279 11.7145 256.019 11.9689 255.754 12.2281C254.507 13.4473 253.155 14.7704 251.576 15.1095C249.8 15.5145 247.973 14.6225 246.415 13.556C245.873 13.2338 245.309 12.8385 244.729 12.4317C242.59 10.9324 240.225 9.2751 237.889 10.5302C236.976 11.0339 236.079 11.9485 235.158 12.8875C233.492 14.5863 231.748 16.365 229.689 15.9349C228.365 15.7559 227.155 14.6942 226.043 13.7182C225.643 13.3664 225.254 13.0257 224.878 12.7415C224.61 12.569 224.332 12.3679 224.044 12.1601C222.811 11.271 221.41 10.2601 219.98 10.8512C218.818 11.3677 217.665 12.0959 216.512 12.8241C215.646 13.3702 214.781 13.9164 213.913 14.3732C213.831 14.418 213.749 14.4629 213.668 14.5076C212.142 15.3445 210.719 16.1249 209.009 15.8938C207.345 15.644 205.512 14.5899 203.954 13.5234C203.365 13.0778 202.794 12.5194 202.228 11.965C201.431 11.1846 200.642 10.4123 199.819 9.97461C198.695 9.25047 197.31 10.7974 196.255 11.9756C195.983 12.279 195.734 12.5579 195.516 12.7673C194.178 13.8022 192.695 14.6811 191.038 14.5935C188.615 14.5931 186.641 13.1627 184.659 11.7271C183.709 11.0387 182.757 10.3491 181.754 9.81545C178.745 8.21529 174.891 8.3401 173.041 11.8496C172.884 13.5368 170.947 15.006 169.187 13.5511C168.183 12.5408 167.146 11.5726 166.109 10.6044C165.072 9.6361 164.035 8.66783 163.031 7.65747L162.599 7.18973L161.398 8.21837C160.335 9.24067 159.41 10.2568 158.484 11.2728C158.241 11.5283 158.001 11.8022 157.761 12.0764C156.567 13.4414 155.358 14.8243 153.493 14.097C152.669 13.7256 151.925 12.8939 151.282 12.1753C151.158 12.037 151.038 11.9028 150.921 11.7769C150.26 11.1625 149.655 10.4745 149.03 9.76336C148.71 9.39894 148.385 9.02845 148.043 8.65868C147.904 8.50813 147.75 8.32464 147.59 8.13482C147.253 7.73487 146.893 7.30679 146.604 7.09954C146.203 6.84114 146.203 6.61695 146.131 6.59671C146.077 6.58129 145.981 6.68431 145.635 6.98089C144.961 7.47778 144.371 8.30585 143.801 9.10724C143.577 9.42187 143.355 9.73238 143.133 10.0171C143.079 10.0813 143.024 10.1452 142.97 10.2089C141.459 11.988 140.156 13.5228 137.854 12.5291C133.926 10.7575 130.247 8.32497 126.694 5.56201C126.434 5.97974 126.142 6.43955 125.849 6.89937C125.557 7.35918 125.265 7.819 125.005 8.23673C124.807 8.57722 124.61 8.93883 124.409 9.3083C123.821 10.3866 123.197 11.5318 122.41 12.414C120.487 14.5694 118.299 12.8384 116.422 11.3531C116.236 11.2058 116.053 11.061 115.873 10.9226C115.235 10.4641 114.631 10.0042 114.027 9.5442C113.424 9.08422 112.82 8.62424 112.182 8.16582C111.964 8.00932 111.67 7.7498 111.334 7.45384C110.36 6.59382 109.036 5.42603 108.222 5.5836C107.868 5.70533 107.413 6.24463 107.028 6.70081C106.821 6.94531 106.635 7.16594 106.496 7.28558C106.233 7.62226 105.934 7.91995 105.636 8.21765C105.337 8.51533 105.038 8.81302 104.776 9.14968C104.179 9.74505 103.616 10.3389 103.053 10.9327C102.49 11.5265 101.927 12.1204 101.33 12.7158C100.542 13.7258 99.4348 13.6133 98.7215 12.9959C98.7153 12.8338 98.5776 12.84 98.5776 12.84C97.5829 12.0728 96.5538 11.3072 95.5246 10.5416C94.4955 9.77605 93.4663 9.01046 92.4716 8.24331C92.3697 8.18911 92.1734 8.03273 91.9515 7.85584C91.5603 7.54416 91.0894 7.16884 90.9138 7.17676C90.9138 7.17676 90.6574 7.67555 90.5198 7.68176C89.8771 7.93036 89.1287 8.70332 88.4639 9.38992C88.1453 9.71892 87.846 10.0281 87.5866 10.2503C87.3301 10.4896 87.0699 10.744 86.805 11.0032C85.5583 12.2224 84.2055 13.5455 82.6269 13.8847C80.8505 14.2896 79.0238 13.3976 77.466 12.3311C76.9239 12.0089 76.36 11.6136 75.7795 11.2068C73.6407 9.70754 71.2763 8.0502 68.9395 9.30532C68.0266 9.80903 67.1297 10.7236 66.2089 11.6626C64.5429 13.3614 62.7986 15.1401 60.7399 14.71C59.4157 14.531 58.2062 13.4693 57.0942 12.4933C56.6934 12.1415 56.3053 11.8008 55.929 11.5166C55.6612 11.3441 55.3824 11.143 55.0944 10.9352C53.8618 10.0461 52.4605 9.03521 51.0308 9.62633C49.8692 10.1428 48.7158 10.871 47.5624 11.5992C46.6974 12.1453 45.8324 12.6915 44.9639 13.1483C44.8818 13.1931 44.8 13.238 44.7185 13.2827C43.1928 14.1196 41.7703 14.9 40.06 14.6689C38.3961 14.4191 36.5631 13.365 35.0053 12.2985C34.4155 11.8529 33.8451 11.2945 33.2789 10.7401C32.4817 9.95968 31.6929 9.18736 30.8699 8.74971C29.7455 8.02557 28.3606 9.57253 27.3059 10.7507C27.0343 11.0541 26.7845 11.333 26.5668 11.5424C25.2284 12.5773 23.7461 13.4562 22.0884 13.3686C19.6658 13.3682 17.6915 11.9378 15.7101 10.5022C14.76 9.8138 13.8082 9.12424 12.8046 8.59055C9.70794 6.94382 5.71712 7.12393 3.93514 10.9397C2.66589 13.7579 -1.0064 11.4876 0.262842 8.66934C2.30118 4.35475 6.36045 2.38507 10.3764 2.85346C12.5908 3.07834 14.5552 3.96413 16.3945 5.18039C16.9326 5.51696 17.4594 5.91951 17.9901 6.325C19.1313 7.19696 20.2903 8.08256 21.6182 8.3552C23.135 8.79159 24.2548 7.57851 25.3654 6.37533C25.6839 6.03027 26.0017 5.68601 26.3279 5.38172C27.6537 4.02262 29.4112 3.13126 31.2191 3.5369C32.5798 3.81626 33.6315 4.82455 34.676 5.82584C35.1249 6.25619 35.5724 6.68525 36.0426 7.05459C36.1164 7.11033 36.1921 7.16774 36.2696 7.22648C37.6832 8.29823 39.682 9.81368 41.2475 9.74303C42.131 9.58672 43.1366 8.924 43.9831 8.3661C44.3173 8.14586 44.6267 7.94195 44.894 7.79198L47.7273 6.20244C47.8137 6.15046 47.8998 6.0985 47.9855 6.0467C49.6386 5.04874 51.1879 4.1134 53.0314 4.33899C54.9768 4.73841 56.6785 5.96088 58.3802 7.18334C58.8056 7.48896 59.1966 7.79613 59.5876 8.1033C59.9786 8.41047 60.3697 8.71764 60.7951 9.02325C60.94 9.13505 61.0611 9.23413 61.165 9.31918C61.7741 9.81775 61.7943 9.83426 62.5904 9.10464C63.0635 8.69937 63.528 8.27597 63.9913 7.85364C66.2721 5.77479 68.5243 3.72206 71.6282 3.98693C73.9084 4.1929 75.7866 5.4613 77.6785 6.73898C78.7709 7.47675 79.8679 8.21761 81.0496 8.75879C82.0317 9.20169 82.5822 9.17685 83.3827 8.49109C84.0457 7.81154 84.8462 7.12578 85.6467 6.44002C86.0071 6.10383 86.3742 5.72794 86.7495 5.34382C87.898 4.168 89.122 2.91505 90.4562 2.48758C92.0468 2.00958 93.4072 3.00961 94.7184 3.97347C94.9799 4.16567 95.2394 4.35643 95.4984 4.53374C95.9306 4.84429 96.3536 5.14477 96.7698 5.4404C97.9919 6.30854 99.1551 7.13488 100.322 8.05143C101.251 7.1163 102.145 6.18273 103.039 5.24916C103.933 4.31552 104.828 3.38189 105.757 2.44671C108.283 0.0589683 110.66 0.926132 113.075 2.76604C113.967 3.34037 114.806 3.98166 115.625 4.607C116.104 4.97318 116.577 5.3339 117.048 5.6725C117.382 5.94306 117.717 6.24148 118.055 6.5431C118.871 7.27051 119.708 8.01657 120.602 8.43547L120.733 8.26713C120.858 7.93667 120.989 7.76834 121.121 7.6L122.678 5.09362C123.131 4.34232 123.586 3.63156 124.041 2.92079C124.496 2.21003 124.951 1.49927 125.404 0.747971C125.929 0.0746326 127.155 -0.305511 127.868 0.311932C130.002 2.00211 132.135 3.69236 134.394 5.05209L137.359 6.86715C137.547 6.96696 137.749 7.04805 137.951 7.12915C138.356 7.29135 138.76 7.45355 139.048 7.76537C139.451 7.74719 139.64 7.91275 139.555 8.13729L139.743 7.89644C140.316 7.27508 140.84 6.56571 141.364 5.85634C142.411 4.43761 143.459 3.01888 144.902 2.30414C147.06 1.0699 148.768 2.45449 150.351 4.16954C151.013 4.78396 151.617 5.47197 152.242 6.18312C152.562 6.54754 152.887 6.91803 153.229 7.28781C153.368 7.43833 153.535 7.58757 153.708 7.74197C154.073 8.06733 154.464 8.41557 154.668 8.84694C154.737 8.84383 154.773 8.88281 154.809 8.92179C154.844 8.96077 154.88 8.99975 154.949 8.99664C156.381 6.82071 158.645 4.76965 160.515 3.22358C162.786 1.33464 164.199 2.24527 166.202 4.10381C167.206 5.11412 168.243 6.08234 169.28 7.05057C169.627 7.37506 169.975 7.69955 170.321 8.02562Z" fill="#F7C300"/>
</svg>
