<svg width="275" height="347" viewBox="0 0 275 347" fill="none" xmlns="http://www.w3.org/2000/svg">
<path d="M49.8912 140.686C50.2535 140.552 50.636 140.418 50.9984 140.283C51.844 139.957 52.6694 139.63 53.4948 139.266C55.1054 138.555 56.6354 137.71 58.0245 136.654C58.4473 136.328 58.4272 135.656 58.0849 135.291C58.0648 135.253 58.0245 135.233 57.9843 135.214C57.9037 135.08 57.8031 134.945 57.6621 134.849C55.4677 133.198 53.2935 131.547 51.0991 129.895C50.7568 129.627 50.1931 129.742 49.871 129.991C49.1261 130.625 49.106 131.681 48.9449 132.564L48.4618 135.329C48.2806 136.309 48.1195 137.288 47.9383 138.267C47.7974 139.112 47.2337 140.533 48.4014 140.936C48.9449 141.109 49.408 140.878 49.8912 140.686ZM50.4548 135.502C50.5756 134.772 50.7166 134.043 50.8374 133.313C50.8978 132.968 50.9581 132.622 51.0185 132.276C52.5888 133.467 54.1793 134.657 55.7496 135.848C54.8034 136.462 53.8169 137.019 52.7902 137.48C52.1057 137.787 51.4011 138.075 50.6964 138.344C50.4347 138.44 50.173 138.555 49.8912 138.67C49.9515 138.382 49.9918 138.094 50.0522 137.806L50.4548 135.502Z" fill="#59C69F" fill-opacity="0.5"/>
<path d="M2.86699 346.187C3.28976 346.025 3.73602 345.862 4.1588 345.699C5.14527 345.304 6.10825 344.909 7.07124 344.467C8.95023 343.607 10.7353 342.584 12.3559 341.306C12.8491 340.911 12.8257 340.097 12.4264 339.656C12.4029 339.609 12.3559 339.586 12.3089 339.563C12.215 339.4 12.0976 339.237 11.9331 339.121C9.37301 337.122 6.83636 335.123 4.27623 333.124C3.87695 332.799 3.2193 332.938 2.8435 333.241C1.97446 334.008 1.95098 335.286 1.76308 336.355L1.19937 339.702C0.987985 340.888 0.800089 342.073 0.588702 343.259C0.42429 344.281 -0.23336 346.001 1.12891 346.489C1.76307 346.699 2.30329 346.42 2.86699 346.187ZM3.52463 339.911C3.66556 339.028 3.82997 338.145 3.97089 337.262C4.04136 336.843 4.11182 336.425 4.18228 336.007C6.0143 337.448 7.86982 338.889 9.70184 340.33C8.59793 341.074 7.44704 341.748 6.24918 342.306C5.4506 342.677 4.62854 343.026 3.80648 343.352C3.50114 343.468 3.19581 343.607 2.86699 343.747C2.93745 343.398 2.98442 343.049 3.05488 342.701L3.52463 339.911Z" fill="#DADADA" fill-opacity="0.5"/>
<path fill-rule="evenodd" clip-rule="evenodd" d="M106 334.946C105.483 334.757 104.872 334.468 104.37 333.941C103.787 333.328 103.48 332.535 103.281 331.912C102.819 330.532 102.441 328.601 103.226 326.871L103.228 326.868C103.859 325.488 105.071 324.654 106.253 324.299C107.452 323.939 108.672 324.018 109.777 324.242L109.783 324.243L109.789 324.245C110.327 324.362 111.024 324.545 111.639 325.027C112.214 325.469 112.612 326.085 112.873 326.706C113.975 329.226 113.355 331.8 111.912 333.44C110.489 335.059 108.256 335.808 106 334.946ZM110.541 331.685C111.421 330.685 111.734 329.263 111.102 327.825L111.098 327.814L111.093 327.804C110.957 327.478 110.778 327.224 110.563 327.06L110.557 327.055L110.551 327.051C110.298 326.851 109.948 326.73 109.44 326.62C108.482 326.426 107.566 326.391 106.736 326.64C105.89 326.894 105.254 327.431 104.979 328.031C104.643 328.774 104.732 329.808 105.138 331.017L105.142 331.028L105.145 331.039C105.309 331.556 105.473 331.901 105.684 332.122C105.868 332.316 106.16 332.485 106.584 332.639L106.591 332.642L106.598 332.644C108.163 333.244 109.642 332.707 110.541 331.685Z" fill="#FFD540" fill-opacity="0.5"/>
<path fill-rule="evenodd" clip-rule="evenodd" d="M79.5737 111.702C79.1145 111.563 78.5712 111.351 78.1251 110.962C77.6064 110.51 77.3335 109.926 77.157 109.467C76.7464 108.45 76.4102 107.027 77.1078 105.753L77.1092 105.75C77.6702 104.734 78.7481 104.119 79.7991 103.858C80.8645 103.592 81.9493 103.65 82.9321 103.816L82.9372 103.816L82.9424 103.817C83.4206 103.904 84.0402 104.038 84.5866 104.394C85.0983 104.719 85.4518 105.173 85.6844 105.631C86.6638 107.488 86.1126 109.384 84.83 110.593C83.5644 111.786 81.5799 112.338 79.5737 111.702ZM83.6111 109.3C84.3929 108.563 84.6716 107.515 84.1099 106.455L84.1059 106.448L84.102 106.44C83.9808 106.2 83.8215 106.013 83.6302 105.892L83.6249 105.888L83.6197 105.885C83.3949 105.738 83.0841 105.649 82.6322 105.567C81.7803 105.425 80.9659 105.399 80.2284 105.582C79.4758 105.77 78.9109 106.165 78.6659 106.608C78.3674 107.155 78.4466 107.917 78.8075 108.807L78.8107 108.815L78.8138 108.824C78.9597 109.205 79.1054 109.459 79.2926 109.622C79.4566 109.765 79.7159 109.889 80.0931 110.003L80.0995 110.005L80.1058 110.007C81.4967 110.449 82.8119 110.053 83.6111 109.3Z" fill="#FFD540" fill-opacity="0.5"/>
<path d="M159.208 246.164C158.846 246.298 158.464 246.433 158.101 246.567C157.256 246.894 156.43 247.22 155.605 247.585C153.994 248.295 152.464 249.14 151.075 250.196C150.652 250.523 150.672 251.195 151.015 251.559C151.035 251.598 151.075 251.617 151.115 251.636C151.196 251.771 151.297 251.905 151.437 252.001C153.632 253.652 155.806 255.304 158.001 256.955C158.343 257.224 158.906 257.109 159.229 256.859C159.973 256.225 159.994 255.169 160.155 254.286L160.638 251.521C160.819 250.542 160.98 249.563 161.161 248.583C161.302 247.738 161.866 246.318 160.698 245.914C160.155 245.741 159.692 245.972 159.208 246.164ZM158.645 251.348C158.524 252.078 158.383 252.808 158.262 253.537C158.202 253.883 158.141 254.228 158.081 254.574C156.511 253.384 154.92 252.193 153.35 251.003C154.296 250.388 155.283 249.831 156.309 249.371C156.994 249.063 157.699 248.775 158.403 248.506C158.665 248.41 158.927 248.295 159.208 248.18C159.148 248.468 159.108 248.756 159.047 249.044L158.645 251.348Z" fill="#DADADA" fill-opacity="0.5"/>
<path d="M154.691 0.379313C154.268 0.542017 153.822 0.704721 153.399 0.867426C152.413 1.26256 151.45 1.6577 150.487 2.09933C148.608 2.95934 146.823 3.98205 145.202 5.26044C144.709 5.65558 144.732 6.4691 145.132 6.91073C145.155 6.95721 145.202 6.98046 145.249 7.0037C145.343 7.1664 145.461 7.32911 145.625 7.44533C148.185 9.44426 150.722 11.4432 153.282 13.4421C153.681 13.7675 154.339 13.6281 154.715 13.3259C155.584 12.5589 155.607 11.2805 155.795 10.2113L156.359 6.86424C156.57 5.67882 156.758 4.49341 156.969 3.30799C157.134 2.28528 157.791 0.565261 156.429 0.0771478C155.795 -0.132043 155.255 0.146878 154.691 0.379313ZM154.033 6.65505C153.893 7.5383 153.728 8.42155 153.587 9.3048C153.517 9.72319 153.446 10.1416 153.376 10.56C151.544 9.11886 149.688 7.67776 147.856 6.23667C148.96 5.49288 150.111 4.81881 151.309 4.26097C152.108 3.88908 152.93 3.54042 153.752 3.21502C154.057 3.0988 154.362 2.95934 154.691 2.81988C154.621 3.16853 154.574 3.51718 154.503 3.86583L154.033 6.65505Z" fill="#DADADA" fill-opacity="0.5"/>
<path fill-rule="evenodd" clip-rule="evenodd" d="M248.239 96.3356C248.756 96.5241 249.367 96.8128 249.868 97.3402C250.452 97.9535 250.759 98.7457 250.957 99.3695C251.419 100.75 251.798 102.68 251.013 104.41L251.011 104.413C250.38 105.793 249.168 106.627 247.985 106.982C246.787 107.342 245.567 107.263 244.461 107.039L244.456 107.038L244.45 107.037C243.912 106.92 243.215 106.737 242.6 106.254C242.025 105.812 241.627 105.196 241.365 104.575C240.264 102.056 240.884 99.4816 242.326 97.841C243.75 96.222 245.982 95.4734 248.239 96.3356ZM243.698 99.5962C242.818 100.596 242.505 102.018 243.136 103.457L243.141 103.467L243.145 103.477C243.282 103.803 243.461 104.057 243.676 104.221L243.682 104.226L243.688 104.231C243.941 104.43 244.29 104.551 244.799 104.662C245.757 104.855 246.673 104.89 247.503 104.641C248.349 104.387 248.985 103.85 249.26 103.25C249.596 102.507 249.507 101.473 249.101 100.264L249.097 100.253L249.094 100.242C248.93 99.725 248.766 99.3801 248.555 99.1588C248.371 98.9648 248.079 98.7966 247.655 98.6422L247.648 98.6396L247.64 98.6369C246.076 98.0367 244.596 98.5739 243.698 99.5962Z" fill="#59C69F" fill-opacity="0.5"/>
<path d="M220.031 311.02C219.803 310.724 219.574 310.409 219.327 310.114C218.794 309.424 218.242 308.735 217.671 308.085C216.549 306.785 215.312 305.623 213.923 304.638C213.504 304.342 212.877 304.559 212.629 304.993C212.61 305.032 212.591 305.091 212.591 305.13C212.477 305.249 212.382 305.386 212.325 305.544C211.373 308.085 210.403 310.626 209.452 313.187C209.299 313.58 209.547 314.093 209.889 314.29C210.707 314.802 211.697 314.487 212.591 314.368L215.331 313.994C216.301 313.856 217.291 313.718 218.261 313.6C219.118 313.482 220.602 313.58 220.659 312.359C220.697 311.788 220.335 311.433 220.031 311.02ZM214.97 312.064C214.228 312.162 213.504 312.261 212.762 312.359C212.42 312.399 212.077 312.458 211.735 312.497C212.42 310.665 213.105 308.833 213.809 307.002C214.646 307.691 215.445 308.459 216.168 309.286C216.663 309.838 217.12 310.409 217.576 310.98C217.748 311.197 217.919 311.414 218.109 311.63C217.824 311.67 217.538 311.709 217.253 311.749L214.97 312.064Z" fill="#59C69F" fill-opacity="0.5"/>
<path fill-rule="evenodd" clip-rule="evenodd" d="M271.702 68.9896C272.161 69.1285 272.705 69.3413 273.151 69.7299C273.669 70.1818 273.942 70.7655 274.119 71.2252C274.53 72.242 274.866 73.6647 274.168 74.939L274.167 74.9416C273.606 75.9582 272.528 76.5727 271.477 76.8343C270.411 77.0995 269.327 77.0416 268.344 76.8764L268.339 76.8755L268.334 76.8746C267.855 76.7884 267.236 76.6535 266.689 76.2982C266.178 75.9724 265.824 75.5188 265.592 75.0611C264.612 73.2043 265.163 71.3078 266.446 70.0989C267.711 68.906 269.696 68.3543 271.702 68.9896ZM267.665 71.3922C266.883 72.1291 266.604 73.1765 267.166 74.2367L267.17 74.2443L267.174 74.2521C267.295 74.492 267.454 74.6791 267.646 74.8003L267.651 74.8036L267.656 74.807C267.881 74.9539 268.192 75.0429 268.644 75.1246C269.496 75.2674 270.31 75.2933 271.047 75.1097C271.8 74.9224 272.365 74.5269 272.61 74.0842C272.908 73.5374 272.829 72.7752 272.468 71.8845L272.465 71.8764L272.462 71.8684C272.316 71.4871 272.17 71.2329 271.983 71.0699C271.819 70.927 271.56 70.803 271.183 70.6893L271.176 70.6873L271.17 70.6853C269.779 70.2431 268.464 70.639 267.665 71.3922Z" fill="#FFD540" fill-opacity="0.5"/>
</svg>
