<svg width="264" height="267" viewBox="0 0 264 267" fill="none" xmlns="http://www.w3.org/2000/svg">
<g clip-path="url(#clip0)">
<path fill-rule="evenodd" clip-rule="evenodd" d="M134.82 151.743C133.303 150.943 131.607 150.41 129.911 150.587C127.501 150.765 125.448 152.187 123.484 153.431C122.145 154.23 121.252 155.119 120.538 156.363C119.199 159.917 118.753 163.738 120.538 167.381C122.68 171.646 127.501 173.956 132.142 172.623C136.874 171.29 140.623 167.292 140.98 162.316C141.248 158.318 138.837 154.23 135.535 152.098C135.356 152.009 135.088 151.831 134.82 151.743Z" fill="#F7C300"/>
<path d="M136.606 153.52C133.571 149.788 127.858 147.567 123.394 150.054C121.877 150.854 123.216 153.164 124.733 152.365C127.679 150.676 131.428 152.187 133.66 154.319C136.159 156.719 137.409 160.273 136.695 163.738C136.338 165.426 135.624 167.292 134.106 168.27C132.499 169.247 130.357 169.602 128.482 169.691C125.18 169.78 121.609 168.181 120.181 165.071C118.663 161.517 120.359 157.341 123.93 155.919C124.644 155.652 125.09 155.03 124.823 154.319C124.644 153.697 123.841 153.076 123.216 153.342C118.931 155.03 116.342 159.206 117.146 163.827C117.86 168.27 121.877 171.468 126.251 172.09C128.75 172.446 131.428 172.179 133.838 171.291C136.159 170.402 137.677 168.98 138.659 166.67C140.444 162.316 139.641 157.163 136.606 153.52Z" fill="#1E1E1E"/>
<path d="M135.088 157.163C134.374 156.807 133.66 157.074 133.213 157.607C132.321 158.762 131.517 159.828 130.625 160.984C130.178 161.517 129.732 162.139 129.286 162.672C129.018 162.938 128.839 163.205 128.572 163.56L128.482 163.649L128.393 163.56C128.036 163.294 127.679 162.938 127.411 162.672C126.786 162.05 126.34 161.428 125.894 160.717C125.537 160.095 124.733 159.828 124.019 160.273C123.394 160.628 123.126 161.517 123.573 162.139C124.108 163.116 125.001 164.093 125.983 164.982C126.518 165.426 127.054 165.871 127.59 166.226C128.393 166.759 129.286 166.581 129.911 165.871C131.874 163.649 133.749 161.25 135.534 158.94C135.981 158.407 135.624 157.429 135.088 157.163Z" fill="#1E1E1E"/>
</g>
<path d="M201.866 159.595C203.873 155.826 203.99 150.724 200.532 147.663C198.896 146.214 196.872 145.245 194.765 144.644C192.427 143.979 189.754 143.517 187.452 144.506C185.431 145.368 184.023 147.271 183.39 149.314C182.727 151.432 182.319 154.203 182.837 156.392C183.346 158.516 184.674 160.411 185.849 162.234C187.035 164.084 188.235 165.922 189.1 167.948C189.124 168.001 189.161 168.041 189.185 168.08C189.595 169.304 190.926 170.315 192.176 170.325C194.116 170.33 195.272 169.067 195.579 167.29C195.488 167.823 195.605 167.291 195.649 167.204C195.708 167.053 195.767 166.902 195.826 166.764C195.869 166.69 195.954 166.553 195.969 166.515C196.094 166.342 196.208 166.156 196.333 165.983C196.432 165.834 196.542 165.698 196.653 165.563C196.708 165.502 196.805 165.391 196.819 165.366C197.175 164.999 197.545 164.633 197.914 164.267C198.966 163.256 200.019 162.232 200.896 161.058C201.171 160.764 201.396 160.43 201.557 160.054C201.669 159.905 201.78 159.757 201.866 159.595Z" fill="#F1C527"/>
<path d="M196.215 92.1655C195.162 89.9348 192.295 88.6012 189.847 89.5832C189.454 89.7408 189.124 89.9106 188.883 90.25C188.363 90.3106 187.881 90.6016 187.526 91.0623C186.22 92.8202 185.345 94.8326 185.712 97.0027C185.877 97.9968 186.359 98.9303 187.07 99.6699C187.907 100.519 189.048 100.955 190.241 101.076C192.422 101.307 194.376 100.167 195.593 98.506C196.925 96.6875 197.166 94.178 196.215 92.1655ZM193.069 95.8025C193.057 95.8268 193.018 95.948 192.993 96.0329C192.98 96.0692 192.955 96.1056 192.955 96.1298C192.904 96.2147 192.866 96.3117 192.803 96.3966C192.714 96.542 192.625 96.6754 192.536 96.8088C192.524 96.833 192.524 96.833 192.511 96.8451C192.473 96.8815 192.435 96.9179 192.422 96.93C192.308 97.0512 192.194 97.1603 192.067 97.2694C192.054 97.2816 192.042 97.2937 192.029 97.3058C191.978 97.3422 191.915 97.3664 191.877 97.3907C191.763 97.4634 191.649 97.5119 191.534 97.5725C191.471 97.5847 191.382 97.621 191.344 97.6331C191.306 97.6453 191.179 97.6938 191.052 97.718C191.04 97.718 191.027 97.718 190.964 97.718C190.862 97.718 190.761 97.7301 190.659 97.718C190.596 97.718 190.545 97.718 190.482 97.7059C190.342 97.6695 190.19 97.6453 190.05 97.5968C190.038 97.5968 190.025 97.5847 190.012 97.5847C190 97.5725 190 97.5725 189.974 97.5604C189.911 97.524 189.835 97.4755 189.771 97.4392C189.759 97.4392 189.759 97.4392 189.759 97.427C189.759 97.427 189.759 97.427 189.746 97.4149C189.695 97.3543 189.632 97.3058 189.568 97.2452C189.556 97.2331 189.543 97.2209 189.53 97.2209C189.467 97.1361 189.416 97.0391 189.378 96.9785C189.378 96.9664 189.365 96.9542 189.353 96.9542C189.429 97.0512 189.327 96.9179 189.302 96.8451C189.239 96.6754 189.201 96.5178 189.162 96.3481C189.162 96.2753 189.15 96.1783 189.137 96.1298C189.124 95.9601 189.137 95.8025 189.15 95.6328C189.175 95.5358 189.213 95.3055 189.213 95.2812C189.264 95.0994 189.315 94.9296 189.378 94.7599C189.403 94.6993 189.429 94.5659 189.48 94.5053C189.264 94.8326 189.492 94.4811 189.53 94.4083C189.619 94.2265 189.721 94.0446 189.835 93.8628C190.025 93.5354 190.241 93.2324 190.469 92.9293C190.57 92.9172 190.672 92.8929 190.786 92.8565C190.964 92.7838 191.129 92.7474 191.306 92.6868C191.344 92.6747 191.357 92.6747 191.37 92.6626C191.42 92.6626 191.471 92.6626 191.509 92.6626C191.598 92.6626 191.687 92.6626 191.788 92.6626C191.801 92.6626 191.801 92.6626 191.801 92.6626C191.877 92.6747 191.978 92.7111 191.991 92.7111C192.067 92.7353 192.359 92.8929 192.143 92.7474C191.915 92.602 192.308 92.8444 192.359 92.8808C192.372 92.8929 192.422 92.9172 192.46 92.9414C192.473 92.9535 192.473 92.9657 192.486 92.9778C192.536 93.0263 192.651 93.1111 192.739 93.196C192.739 93.2081 192.752 93.2202 192.777 93.2566C192.828 93.3415 192.892 93.4263 192.942 93.5112C192.98 93.5718 193.006 93.6324 193.044 93.6931C193.095 93.8628 193.158 94.0204 193.196 94.1901C193.196 94.2144 193.209 94.2507 193.221 94.2992C193.221 94.3477 193.234 94.4083 193.234 94.4326C193.247 94.6387 193.234 94.8569 193.234 95.063C193.234 95.0751 193.234 95.0872 193.234 95.1115C193.221 95.1842 193.209 95.2448 193.196 95.3055C193.171 95.4631 193.12 95.6328 193.069 95.8025Z" fill="#F6F6F6"/>
<path d="M207.538 113.042C207.461 112.867 207.333 112.73 207.153 112.605L206.781 112.356L206.832 111.907C208.602 96.9719 203.588 82.174 193.099 71.3155C192.509 70.7046 192.084 70 191.47 70H191.098H190.765C189.953 70 189.637 70.2434 188.944 71.1036C178.763 83.7572 173.492 98.2684 174.095 111.969L174.108 112.156L174.031 112.318C170.556 119.549 169.338 125.895 170.338 131.716C170.504 132.714 171.223 136.055 173.351 137.389C174.198 137.925 175.146 138.037 176.262 137.763C178.006 137.314 178.622 135.743 179.263 134.073L180.571 130.694L181.199 130.806C181.661 130.881 182.148 130.931 182.622 130.968C182.943 130.993 183.251 131.031 183.558 131.068C184.7 131.205 185.828 131.343 186.969 131.467C192.073 132.003 196.317 131.978 200.344 131.405C200.395 131.392 200.434 131.38 200.485 131.368L201.088 131.168L201.434 131.692C201.947 132.552 202.28 133.499 202.613 134.422C202.947 135.344 203.255 136.204 203.716 136.965C204.165 137.7 204.883 138.137 205.704 138.137C206.525 138.075 207.294 137.7 207.756 136.952C208.512 135.731 208.922 134.073 209.294 132.602L209.333 132.452C210.91 126.032 210.295 119.312 207.538 113.042ZM175.236 134.883L174.351 133.474C174.121 132.901 173.992 132.365 173.877 131.854L173.851 131.729C173.582 130.532 173.441 129.273 173.428 127.889C173.403 125.994 173.633 124 174.121 121.943L174.813 118.938L175.608 121.918C176.006 123.389 176.403 124.685 176.852 125.907C176.865 125.957 176.89 125.994 176.916 126.032L177.044 126.393C177.198 126.892 177.416 127.44 177.673 127.964L177.814 128.251L175.236 134.883ZM198.279 127.939L198.087 128.301L197.677 128.338C196.484 128.45 195.253 128.5 193.932 128.5C192.265 128.5 190.457 128.413 188.431 128.238C186.572 128.076 184.725 127.852 183.161 127.652C183.02 127.64 182.879 127.615 182.725 127.578C182.494 127.54 182.25 127.49 182.071 127.503C181.943 127.503 181.815 127.503 181.686 127.478L181.443 127.428L181.276 127.254C180.891 126.867 180.481 125.77 180.391 125.446C180.353 125.334 180.314 125.234 180.263 125.147C178.814 121.17 177.955 117.031 177.673 112.755L177.66 112.618L177.711 112.48C177.865 112.032 177.839 111.57 177.66 111.172L177.596 110.885C177.301 98.7172 181.84 85.9015 190.393 74.7937L190.957 74.0582L191.586 74.7438C204.858 89.3298 207.55 110.698 198.279 127.939ZM206.294 130.146C206.281 130.22 206.255 130.308 206.243 130.383L205.781 132.589L204.755 130.657C204.165 129.448 203.524 128.55 202.729 127.839L202.319 127.478L202.549 126.979C203.486 124.972 204.268 122.965 204.896 120.995L205.883 117.866L206.383 121.107C206.614 122.566 206.73 123.863 206.73 125.072C206.743 126.892 206.602 128.55 206.294 130.146Z" fill="#F6F6F6"/>
<path d="M199.881 146.505L199.82 146.294C198.659 141.911 194.215 140.359 190.697 140.359C190.647 140.359 190.61 140.359 190.561 140.359C186.61 140.396 181.573 142.035 179.24 146.505C176.882 151.049 178.932 155.979 180.993 159.765C182.03 161.665 183.228 163.528 184.388 165.316C185.795 167.501 187.265 169.761 188.45 172.145C188.882 173.001 189.598 172.989 189.993 172.915C190.709 172.766 191.499 172.12 191.548 171.214C191.808 167.029 193.203 163.068 195.832 159.107L196.005 158.847C198.35 155.308 200.573 151.98 200.511 147.796C200.499 147.312 200.338 146.915 200.017 146.629L199.881 146.505ZM197.104 148.715C196.832 151.757 195.104 154.29 193.437 156.724C192.832 157.605 192.264 158.437 191.771 159.281C190.795 160.933 190.005 162.745 189.413 164.67L188.943 166.197L187.339 163.701C186.771 162.832 186.215 161.951 185.66 161.069L185.277 160.461C183.536 157.692 181.364 154.24 181.45 150.838C181.549 147.088 184.894 144.692 188.178 143.972C189.734 143.637 193.215 143.376 195.252 144.854C196.091 145.462 196.597 146.306 196.709 147.312C196.746 147.66 196.857 147.982 197.017 148.268L197.141 148.479L197.104 148.715Z" fill="#F6F6F6"/>
<path d="M83.7204 140.15C82.7328 138.777 81.2184 137.952 79.6381 137.746C78.848 137.609 78.0579 137.746 77.3336 138.09C76.6093 138.227 75.8851 138.433 75.1608 138.777C74.3707 139.12 73.5147 139.601 72.9879 140.287C72.3953 141.043 72.132 142.004 72.0661 142.965C71.8686 144.819 72.3295 146.88 73.2513 148.528C74.239 150.244 75.8851 151 77.7287 151.068C81.0867 151.137 84.3788 148.734 84.9056 145.094C85.169 143.309 84.7739 141.523 83.7204 140.15Z" fill="#59C69F"/>
<path d="M84.0495 140.7C83.3252 140.768 82.6668 140.906 81.9425 140.974C81.9425 139.738 81.9425 138.433 81.9425 137.197C81.9425 136.991 81.9425 136.854 81.8767 136.717C82.0742 136.167 81.9425 135.481 81.2841 135.275C79.7038 134.863 78.1236 134.794 76.5433 135.206C75.8849 135.343 75.2265 135.618 74.7656 136.167C74.2388 136.717 74.1071 137.472 74.0413 138.227C73.7121 141.661 73.8438 145.163 74.173 148.597C74.2388 149.146 74.568 149.627 75.1606 149.627C75.6215 149.627 76.2141 149.146 76.1483 148.597C76.0166 147.086 75.8849 145.506 75.8849 143.996C77.1359 143.996 78.4528 143.584 79.638 143.378C79.7038 143.378 79.8355 143.378 79.9014 143.309C79.9014 144.957 79.9014 146.537 79.9672 148.185C79.9672 149.489 81.9425 149.489 81.9425 148.185C81.9425 146.468 81.8767 144.751 81.8767 143.034C82.6009 142.897 83.2593 142.828 83.9836 142.76C84.5104 142.691 84.9713 142.348 84.9713 141.73C85.0371 141.249 84.5762 140.631 84.0495 140.7ZM79.5063 141.386C78.3211 141.592 77.1359 142.004 75.8849 142.004C75.8849 141.318 75.8849 140.562 75.9507 139.876C75.9507 139.258 75.9507 138.639 76.0824 138.021C76.2141 137.472 76.4775 137.403 76.9384 137.266C77.9261 136.991 78.9796 136.991 79.9672 137.129C79.9672 137.129 79.9672 137.129 79.9672 137.197C79.9672 138.571 79.9672 139.944 79.9672 141.318C79.7697 141.318 79.638 141.386 79.5063 141.386Z" fill="#1E1E1E"/>
<path d="M87.0784 141.729C85.8274 141.729 85.8274 143.79 87.0784 143.79C88.3294 143.79 88.3294 141.729 87.0784 141.729Z" fill="#1E1E1E"/>
<path d="M86.9466 146.742C85.6956 146.742 85.6956 148.802 86.9466 148.802C88.2635 148.802 88.2635 146.742 86.9466 146.742Z" fill="#1E1E1E"/>
<g clip-path="url(#clip1)">
<path d="M84.4643 163.345C82.4725 158.892 76.8292 158.174 74.2399 162.268C71.6506 166.433 73.8415 171.531 78.2234 172.752C78.8209 172.896 79.3521 172.896 79.8168 172.752C83.8004 172.321 86.3233 167.438 84.4643 163.345Z" fill="#F7C300"/>
<path d="M84.4646 171.675C84.199 170.67 83.6015 169.88 82.8712 169.162C84.1327 167.151 84.1327 164.207 83.2696 161.981C82.1409 158.893 79.286 156.738 76.1656 157.026C75.8336 157.026 75.6345 157.241 75.5017 157.457C73.3107 158.246 72.2485 161.047 72.0493 163.417C71.7837 166.074 72.5804 169.521 74.705 171.245C75.8336 172.178 77.3607 172.106 78.7549 171.891C79.8172 171.675 80.8131 171.245 81.6762 170.598C81.9417 170.814 82.1409 171.101 82.3401 171.316C82.3401 171.388 82.4065 171.388 82.4065 171.46C82.4729 171.532 82.5392 171.676 82.6056 171.747C82.672 171.819 82.672 171.891 82.7384 172.035C82.7384 172.106 82.8048 172.178 82.8048 172.25C82.9376 172.753 83.4687 173.112 83.9335 172.968C84.2654 172.753 84.5974 172.178 84.4646 171.675ZM76.4976 170.024C75.5017 169.808 74.9705 168.803 74.5058 167.869C74.0411 166.936 73.8419 165.859 73.7755 164.781C73.7755 163.561 73.9083 162.34 74.373 161.263C74.7714 160.329 75.4353 159.324 76.4976 159.252C76.7631 159.252 76.8959 159.18 77.0951 159.036C78.7549 159.18 80.2819 160.114 81.145 161.622C82.2073 163.417 82.5392 166.146 81.477 168.013C81.0122 167.726 80.5475 167.438 80.0163 167.223C79.5516 167.008 79.0205 167.439 78.8877 167.941C78.7549 168.516 79.0205 168.947 79.5516 169.162C79.618 169.162 79.618 169.234 79.6844 169.234C79.7508 169.306 79.8836 169.306 79.95 169.377C79.95 169.377 80.0163 169.377 80.0163 169.449C78.8877 169.952 77.5598 170.239 76.4976 170.024Z" fill="#1E1E1E"/>
<path d="M86.9881 163.489C85.7266 163.489 85.7266 165.643 86.9881 165.643C88.2495 165.643 88.2495 163.489 86.9881 163.489Z" fill="#1E1E1E"/>
<path d="M87.0535 168.731C85.7921 168.731 85.7921 170.885 87.0535 170.885C88.315 170.885 88.315 168.731 87.0535 168.731Z" fill="#1E1E1E"/>
</g>
<g clip-path="url(#clip2)">
<path d="M109.208 137.31C108.439 136.86 107.649 137.2 107.159 137.85C106.199 139.11 105.219 140.37 104.219 141.6C103.709 142.23 103.199 142.86 102.679 143.47C102.409 143.8 102.139 144.12 101.869 144.44C101.829 144.48 101.799 144.53 101.759 144.57C101.719 144.54 101.689 144.51 101.649 144.47C101.249 144.15 100.87 143.8 100.51 143.43C99.8297 142.73 99.3097 142.06 98.7998 141.23C98.3698 140.54 97.45 140.27 96.74 140.69C96.0501 141.09 95.7802 142.05 96.2001 142.74C96.99 144 97.9399 145.18 99.0398 146.18C99.5997 146.69 100.21 147.17 100.84 147.59C101.749 148.2 102.739 148.01 103.439 147.2C105.639 144.67 107.719 142.03 109.738 139.36C110.238 138.71 109.848 137.68 109.208 137.31Z" fill="white"/>
</g>
<path d="M5.35381 235.227C4.04338 240.942 5.59169 247.849 10.3143 248.402C31.6135 250.763 53.4074 247.745 74.9107 248.17C96.6004 248.53 118.156 250.748 139.712 252.966C143.458 253.297 147.206 249.253 147.981 243.554C148.733 238.031 147.476 238.788 145.565 229.994C143.06 227.873 144.193 225.081 140.982 224.734C140.752 220.327 129.322 220.413 126.275 219.731C107.216 215.71 88.8978 216.32 69.4553 215.551C59.74 215.123 49.9652 215.132 40.1306 215.58C30.4124 216.044 20.6346 216.947 11.0147 215.817C3.25592 214.94 0.120856 230.586 5.35381 235.227Z" fill="#59C69F"/>
<path d="M161.714 228.587C162.183 222.041 166.919 217.218 172.112 217.387C178.483 218.227 193.481 219.762 202.507 219.177C213.79 218.447 224.707 216.31 232.483 216.151C240.258 215.992 246.427 216.948 251 219.177C254.739 221 260.23 230.977 254.739 234.085C254.707 236.082 255.888 240.429 253.5 243.926C251.112 247.424 248.247 251.193 240.075 251.859C233.537 252.392 218.411 253.645 211.665 254.205L194.103 254.565C189.837 253.956 174.108 254.69 173.329 249.674C168.5 245.5 168.5 247.5 166.467 243.926C162.912 233.998 161.26 234.932 161.714 228.587Z" fill="#59C69F"/>
<path d="M255.502 32.1993C256.915 25.6199 253.08 17.7538 244.632 17.2504C206.556 15.1326 168.457 19.1876 130.326 19.2928C91.8754 19.4762 53.3679 17.53 14.8603 15.5837C8.17704 15.3079 2.18264 20.0411 1.71415 26.5869C1.26008 32.9314 3.36535 32.0298 8.14231 42.046C12.9127 44.4059 11.3498 47.6337 17.088 47.9431C18.1936 52.9821 38.4133 52.5693 43.9143 53.2667C78.2892 57.3465 110.617 56.1437 145.154 56.4899C162.419 56.7134 179.72 56.4333 197.058 55.6497C214.186 54.8512 231.351 53.5492 248.559 54.5783C262.432 55.3688 265.501 37.3687 255.502 32.1993Z" fill="#59C69F"/>
<g clip-path="url(#clip3)">
<path d="M63.2024 138.875C58.799 140.985 54.6158 143.964 51.0931 147.563C50.4326 148.183 49.4418 148.307 48.7813 147.563C48.2309 146.942 48.1208 145.577 48.7813 144.956C49.2216 144.46 49.7721 143.964 50.3225 143.467C33.9199 147.935 16.5265 147.19 0.894495 139.496C-1.08703 138.627 0.564241 135.4 2.54576 136.269C21.4803 145.577 43.167 143.964 61.9914 135.152C63.2024 134.656 63.973 135.649 63.973 136.766C64.0831 137.634 63.8629 138.503 63.2024 138.875Z" fill="#1E1E1E"/>
<path d="M50.763 138.131C47.1302 137.759 43.6075 136.89 40.1949 135.649C39.4243 135.401 38.7638 134.284 39.094 133.415C39.3142 132.546 40.1949 131.802 41.0755 132.174C42.7268 132.794 44.3781 133.291 46.0293 133.663C46.7999 133.911 47.6806 134.036 48.4512 134.16C49.3319 134.284 49.9924 134.408 50.763 134.532C51.6437 134.656 52.4142 135.277 52.4142 136.393C52.4142 137.262 51.6437 138.255 50.763 138.131Z" fill="#1E1E1E"/>
</g>
<g clip-path="url(#clip4)">
<path d="M63.2024 161.2C58.799 159.09 54.6158 156.112 51.0931 152.513C50.4326 151.892 49.4418 151.768 48.7813 152.513C48.2309 153.133 48.1208 154.499 48.7813 155.119C49.2216 155.616 49.7721 156.112 50.3225 156.608C33.9199 152.141 16.5265 152.885 0.894495 160.58C-1.08703 161.448 0.564241 164.675 2.54576 163.806C21.4803 154.499 43.167 156.112 61.9914 164.923C63.2024 165.42 63.973 164.427 63.973 163.31C64.0831 162.441 63.8629 161.573 63.2024 161.2Z" fill="#1E1E1E"/>
<path d="M50.763 161.945C47.1302 162.317 43.6075 163.186 40.1949 164.427C39.4243 164.675 38.7638 165.792 39.094 166.661C39.3142 167.529 40.1949 168.274 41.0755 167.902C42.7268 167.281 44.3781 166.785 46.0293 166.412C46.7999 166.164 47.6806 166.04 48.4512 165.916C49.3319 165.792 49.9924 165.668 50.763 165.544C51.6437 165.419 52.4142 164.799 52.4142 163.682C52.4142 162.813 51.6437 161.821 50.763 161.945Z" fill="#1E1E1E"/>
</g>
<g clip-path="url(#clip5)">
<path d="M14.8637 184.632C16.7581 185.224 18.1425 187.255 19.0897 189.201C19.8183 190.555 21.1298 191.317 22.5142 190.64C23.68 189.963 24.4086 188.101 23.7528 186.663C22.1499 183.532 19.8912 180.063 16.6853 179.132C15.3738 178.709 13.9165 179.301 13.4065 180.909C12.8965 182.263 13.5522 184.209 14.8637 184.632Z" fill="#F7C300"/>
<path d="M22.2227 187.847C20.4741 182.263 15.8838 179.555 11.3664 179.301C10.0549 179.217 10.0549 181.755 11.3664 181.84C14.4994 182.009 17.851 183.447 19.6726 186.917C21.3484 190.217 21.2755 194.278 19.0897 197.155C15.0823 202.485 5.1003 201.724 3.42449 193.686C2.98732 191.57 3.2059 189.286 4.00738 187.34C4.37168 186.409 4.95458 185.478 5.61033 184.801C5.31888 185.986 5.24602 187.255 5.24602 188.524C5.24602 189.201 5.75605 189.793 6.33894 189.793C6.92184 189.793 7.43187 189.201 7.43187 188.524C7.43187 187.932 7.43187 187.34 7.50473 186.832C7.50473 186.832 7.50473 186.578 7.50473 186.663C7.50473 186.578 7.50473 186.409 7.57759 186.324C7.65045 186.07 7.65045 185.817 7.72331 185.563C7.79617 185.309 7.86903 185.055 7.94189 184.801C7.94189 184.717 8.01476 184.547 8.08762 184.463V184.378C8.16048 184.209 8.3062 183.955 8.37906 183.786C9.32626 183.447 9.2534 181.332 8.08762 181.248C8.01476 181.248 7.86903 181.248 7.79617 181.248C7.50473 181.248 7.21328 181.332 6.92183 181.332C5.02744 181.501 3.06018 181.586 1.09292 181.501C0.51003 181.501 0 182.094 0 182.771C0 183.447 0.51003 184.04 1.09292 184.04C1.8944 184.04 2.62301 184.04 3.42449 184.04C2.11298 186.07 1.31151 188.863 1.31151 191.316C1.23864 196.563 4.08024 200.624 7.94189 202.147C11.7307 203.67 16.3938 203.247 19.5997 200.116C22.3685 197.324 23.68 192.416 22.2227 187.847Z" fill="#1E1E1E"/>
<path d="M9.17971 192.671C9.17971 192.586 9.17971 192.502 9.10685 192.417C9.10685 192.332 9.03399 192.163 8.96113 192.078C8.96113 192.078 8.96113 192.078 8.96113 191.994C8.96113 191.994 8.96113 191.994 8.96113 191.909C8.88827 191.825 8.8154 191.74 8.74254 191.655C8.66968 191.486 8.52396 191.402 8.37823 191.317C8.30537 191.317 8.30537 191.232 8.23251 191.232C8.08679 191.148 7.94107 191.063 7.79535 191.063C7.64962 190.979 7.5039 190.979 7.28531 190.979C6.99387 190.979 6.84814 191.063 6.5567 191.232C6.41098 191.317 6.33811 191.402 6.19239 191.571C6.04667 191.825 5.90095 191.994 5.82808 192.248C5.75522 192.502 5.75522 192.84 5.82808 193.094C5.82808 193.178 5.90095 193.348 5.97381 193.432C6.04667 193.686 6.11953 193.855 6.33812 194.025C6.41098 194.109 6.5567 194.278 6.70242 194.363C6.84815 194.448 6.99387 194.532 7.13959 194.532C7.28531 194.532 7.43104 194.617 7.64962 194.617C7.79534 194.617 7.8682 194.617 8.01393 194.532H8.08679C8.37824 194.448 8.45109 194.363 8.74254 194.109L8.81541 194.025C8.88827 193.94 8.96113 193.855 9.03399 193.686C9.17971 193.432 9.17971 193.178 9.25257 192.925C9.17971 192.84 9.17971 192.755 9.17971 192.671Z" fill="#1E1E1E"/>
<path d="M13.5518 191.571C13.479 191.232 13.3332 190.894 13.0418 190.64C12.8232 190.471 12.6775 190.302 12.386 190.217H12.3132C12.2403 190.217 12.0946 190.217 12.0217 190.132C11.9489 190.132 11.9489 190.132 11.876 190.132C11.5846 190.132 11.366 190.217 11.1474 190.386C11.0017 190.471 10.856 190.64 10.7831 190.809C10.6374 190.894 10.5645 191.063 10.4916 191.232C10.4188 191.402 10.3459 191.571 10.2731 191.74C10.2002 191.909 10.2002 192.163 10.2002 192.332C10.2002 192.502 10.2002 192.671 10.2731 192.925C10.3459 193.263 10.4916 193.432 10.6374 193.686C10.856 193.94 11.1474 194.194 11.4388 194.194C11.7303 194.278 12.0946 194.278 12.386 194.194C12.6775 194.109 12.9689 193.94 13.1875 193.601C13.2604 193.432 13.4061 193.348 13.479 193.178C13.5518 193.009 13.6247 192.84 13.6247 192.671C13.6247 192.248 13.6975 191.909 13.5518 191.571Z" fill="#1E1E1E"/>
<path d="M17.9231 191.148C17.9231 191.063 17.9231 190.978 17.8503 190.894C17.7774 190.725 17.7045 190.555 17.6317 190.386C17.486 190.132 17.3402 189.963 17.1217 189.794C16.9759 189.625 16.8302 189.54 16.6116 189.54C16.3202 189.455 16.1016 189.455 15.8101 189.54C15.6644 189.54 15.5187 189.625 15.373 189.709C15.1544 189.878 15.0087 190.048 14.8629 190.302C14.7172 190.555 14.5715 190.725 14.4986 191.063C14.4986 191.232 14.4258 191.402 14.4258 191.655C14.4258 191.994 14.4986 192.248 14.6444 192.502C14.7172 192.671 14.8629 192.84 14.9358 193.009C15.0815 193.178 15.2273 193.263 15.3001 193.432C15.4458 193.517 15.5916 193.601 15.7373 193.686C16.0287 193.771 16.2473 193.771 16.5388 193.686C16.6845 193.686 16.8302 193.601 16.9759 193.432C17.1217 193.348 17.2674 193.178 17.3402 193.009C17.4131 192.925 17.486 192.755 17.5588 192.671C17.6317 192.502 17.7045 192.417 17.7045 192.248C17.7774 192.078 17.7774 191.825 17.7774 191.655C17.996 191.486 17.9231 191.317 17.9231 191.148Z" fill="#1E1E1E"/>
</g>
<g clip-path="url(#clip6)">
<path d="M52.8548 193.398C53.2332 190.873 52.8548 188.18 51.9466 185.823C51.4168 184.561 50.7356 183.298 49.8274 182.288C49.2219 181.615 48.465 181.194 47.5568 181.531C46.8 181.783 46.1945 182.456 45.589 183.046C45.0592 183.551 44.8322 183.803 44.9835 184.645C45.4376 186.581 46.6486 188.264 47.1027 190.2C47.4055 191.631 47.4811 193.23 47.1027 194.661C46.8 195.586 46.1945 196.849 46.8 197.775C46.8757 197.859 46.9513 197.943 47.027 198.027C47.1784 198.196 47.3298 198.364 47.4811 198.532C47.7839 198.785 48.0866 198.953 48.3137 199.121C49.676 200.131 50.8113 198.785 51.4924 197.522C52.2493 196.344 52.6277 194.913 52.8548 193.398Z" fill="#F7C300"/>
<path d="M50.8102 179.342C49.8263 180.352 48.918 181.447 48.0098 182.541C46.9502 181.615 45.7393 181.11 44.3769 181.194C43.0146 181.278 43.0146 183.803 44.3769 183.719C45.1338 183.635 45.8906 183.972 46.4961 184.477C44.4526 187.086 42.6362 189.863 40.9711 192.809C40.1386 191.631 39.3061 190.453 38.4735 189.274C38.0951 188.769 37.2626 188.853 36.8841 189.274C36.43 189.779 36.5057 190.537 36.8841 191.042C38.0194 192.641 39.1547 194.324 40.29 195.923C40.7441 196.597 41.728 196.26 42.1064 195.671C43.8472 192.388 45.8906 189.274 48.0855 186.412C48.3126 186.749 48.4639 187.086 48.6153 187.422C49.4478 189.358 49.6749 191.631 49.2208 193.735C47.48 201.731 37.1112 202.488 32.9485 197.186C30.678 194.324 30.6023 190.284 32.343 187.002C34.2352 183.551 37.7167 182.12 40.9711 181.952C42.3335 181.867 42.3335 179.342 40.9711 179.427C36.203 179.511 31.4348 182.204 29.6184 187.759C28.1047 192.304 29.467 197.186 32.6458 200.132C35.9759 203.246 40.8198 203.667 44.7554 202.152C48.7667 200.552 51.6427 196.597 51.6427 191.378C51.6427 189.106 50.8859 186.497 49.6749 184.561C50.5831 183.467 51.567 182.372 52.5509 181.278C53.4591 180.016 51.8698 178.248 50.8102 179.342Z" fill="#1E1E1E"/>
</g>
<path d="M73.192 180.323C73.0303 180.404 72.8687 180.485 72.7071 180.566C72.3839 180.485 72.1415 180.566 71.8182 180.647C70.0404 181.455 68.9091 183.152 68.8283 185.091C68.6667 187.031 69.798 188.889 71.4142 189.94C73.1111 190.99 75.293 191.071 77.1516 190.505C78.1213 190.182 79.0101 189.778 79.6566 188.97C80.3031 188.162 80.5455 187.111 80.6263 186.061C80.7071 182.424 76.9091 178.869 73.192 180.323Z" fill="#F7C300"/>
<path d="M75.9394 198.748C75.4545 196.97 74.404 195.354 73.0303 194.141C73.1111 194.061 73.1111 194.061 73.1919 193.98C73.9192 193.01 74 191.717 74 190.586C74 189.455 73.7575 188.243 73.1111 187.354C71.4949 185.091 68.5858 184.606 66 185.333C64.4646 185.818 65.1111 188.162 66.6465 187.677C68.101 187.273 69.7171 187.273 70.6868 188.243C71.1717 188.727 71.4949 189.131 71.5757 189.859C71.6565 190.586 71.6565 191.475 71.4141 192.202C71.1717 192.849 70.6868 193.172 70.0404 193.414C69.4747 193.737 68.6666 193.899 68.0202 193.98C67.2121 194.061 66.4849 193.98 65.6768 193.818C64.9495 193.657 64.6263 193.333 64.303 192.687C64.303 192.687 64.303 192.606 64.2222 192.606C64.2222 192.525 64.1414 192.364 64.1414 192.283C64.1414 192.202 64.0606 192.121 64.0606 192.04V191.879C64.0606 191.717 64.0606 191.475 64.0606 191.313C64.0606 191.232 64.0606 191.152 64.0606 191.071V190.99C64.0606 190.99 64.0606 190.99 64.0606 190.909C64.1414 190.505 64.2222 190.343 64.3838 190.101C64.4646 190.02 64.4646 189.939 64.5455 189.859C64.5455 189.859 64.5455 189.778 64.6263 189.778C64.7879 189.616 64.8687 189.535 64.9495 189.455C65.5152 189.051 65.7576 188.404 65.3535 187.758C65.1111 187.273 64.303 187.03 63.7374 187.434C61.9596 188.647 61.3131 190.828 61.8788 192.929C61.9596 193.253 62.1212 193.576 62.2828 193.899C62.202 193.899 62.1212 193.98 62.0404 194.061C59.6162 195.919 58.1616 198.909 58.3232 201.98C58.3232 202.384 58.5657 202.788 58.8889 203.03C58.9697 203.515 59.3737 203.919 60.0202 204C64.8687 204.162 69.7979 204.242 74.6464 203.677C75.8586 203.515 76.2626 202.707 76.3434 201.576C76.2626 200.606 76.1818 199.636 75.9394 198.748ZM67.3737 201.495C65.1111 201.576 62.8485 201.495 60.6667 201.495C60.6667 201.333 60.6667 201.172 60.6667 201.01C60.6667 200.849 60.6667 200.768 60.6667 200.606C60.6667 200.606 60.6667 200.606 60.6667 200.525C60.6667 200.444 60.6667 200.364 60.6667 200.364C60.7475 200.04 60.8283 199.717 60.9091 199.475C60.9899 199.313 60.9899 199.152 61.0707 198.99C61.0707 198.909 61.1515 198.828 61.1515 198.828C61.3939 198.263 61.7172 197.778 62.0404 197.293C62.1212 197.212 62.1212 197.131 62.202 197.131C62.2828 197.051 62.3636 196.889 62.5253 196.808C62.6061 196.727 62.7677 196.566 62.8485 196.485C62.9293 196.404 63.0101 196.404 63.0101 196.323C63.0101 196.323 63.2525 196.162 63.0909 196.323C63.2525 196.162 63.4141 196 63.5758 195.758C63.5758 195.758 63.5758 195.758 63.6566 195.838C64.6263 196.485 65.8384 196.727 66.9697 196.727C68.2626 196.808 69.7979 196.485 71.0909 195.919C72.0606 196.647 72.7878 197.616 73.2727 198.748C73.5151 199.313 73.6767 199.879 73.7575 200.444C73.7575 200.687 73.8384 201.172 73.9192 201.576C71.7373 201.414 69.5555 201.495 67.3737 201.495Z" fill="#1E1E1E"/>
<path d="M81.8383 180.808C81.5151 180.243 80.7878 180 80.1414 180.404C78.3636 181.536 76.7474 183.071 75.5353 184.768C75.1313 184.283 74.6464 183.717 74.0808 183.313C73.5959 182.909 72.8687 182.828 72.3838 183.313C71.9798 183.798 71.899 184.606 72.3838 185.01C72.8687 185.414 73.2727 185.818 73.6767 186.222C73.9192 186.465 73.9192 186.465 74.0808 186.788C74.2424 187.031 74.404 187.273 74.5656 187.515C74.9697 188.243 76.2626 188.323 76.6666 187.515C76.9091 186.95 77.2323 186.465 77.6363 185.98C77.9596 185.495 78.202 185.172 78.6868 184.687C79.0909 184.202 79.5757 183.798 79.9798 183.394C80.0606 183.313 80.1414 183.233 80.303 183.152L80.5454 182.99C80.7878 182.828 81.1111 182.586 81.3535 182.424C81.9192 182.182 82.1616 181.374 81.8383 180.808Z" fill="#1E1E1E"/>
<path d="M62.4444 184.929C62.0404 184.444 61.3131 184.363 60.7475 184.767C59.1313 186.141 58.0808 188.161 58 190.262C58 190.909 58.404 191.555 59.0505 191.555C59.697 191.555 60.3434 191.151 60.3434 190.505C60.3434 190.262 60.3434 190.101 60.4242 189.858C60.4242 189.778 60.4242 189.616 60.505 189.535V189.454C60.5859 189.05 60.7475 188.646 60.9899 188.242C60.9899 188.242 60.9899 188.161 61.0707 188.161C61.0707 188.081 61.1515 188 61.2323 187.919C61.3131 187.757 61.4748 187.596 61.5556 187.434C61.6364 187.353 61.7172 187.273 61.798 187.192L61.8788 187.111L61.9596 187.03L62.0404 186.949C62.1212 186.868 62.202 186.788 62.2828 186.707C62.7677 186.222 62.9293 185.414 62.4444 184.929Z" fill="#1E1E1E"/>
<g clip-path="url(#clip7)">
<path d="M105.039 179.093C103.735 178.797 102.503 179.241 101.416 179.908C101.054 180.056 100.764 180.278 100.546 180.5C99.2419 181.018 98.5172 182.35 98.0099 183.682C97.4302 185.163 96.9954 186.939 98.1549 188.271C98.2998 188.493 98.5172 188.641 98.7346 188.789C99.8941 190.27 102.068 190.862 103.88 190.862C105.981 190.862 108.228 190.27 109.46 188.493C111.851 184.867 108.88 179.908 105.039 179.093Z" fill="#F7C300"/>
<path d="M106.343 192.712H104.242C104.387 194.414 104.459 196.117 104.387 197.819C104.387 198.485 104.314 199.151 104.169 199.818C104.169 199.966 104.097 200.114 104.097 200.262C104.097 200.336 104.097 200.41 104.097 200.41C103.735 200.41 103.445 200.41 103.082 200.41C101.633 200.484 100.184 200.484 98.7344 200.558C97.2851 200.632 95.8357 200.632 94.3864 200.706C92.9371 200.78 91.4877 200.854 90.1109 200.706C90.0384 200.706 89.8935 200.632 89.7485 200.632C89.7485 200.336 89.6761 200.04 89.6761 199.818C89.6036 199.003 89.6036 198.189 89.5311 197.449C89.4587 195.969 89.4587 194.488 89.3862 193.008C89.3862 191.306 89.3862 189.604 89.3862 187.901C89.3862 187.605 89.3137 187.087 89.4587 186.865C89.6036 186.643 89.9659 186.643 90.1833 186.569C90.908 186.421 91.7776 186.347 92.6472 186.347C94.0241 186.347 94.0241 184.126 92.6472 184.126C91.7776 184.126 90.908 184.2 90.1109 184.349C89.3137 184.423 88.4441 184.571 87.8644 185.089C86.7049 186.199 87.0673 188.493 87.0673 189.9C87.0673 193.6 86.9948 197.375 87.4296 201.076C87.647 202.926 89.5311 203 90.9805 203C92.7921 203 94.6038 202.926 96.4155 202.852C98.2271 202.778 100.039 202.704 101.778 202.63C103.372 202.556 105.401 202.926 105.981 201.076C106.561 199.225 106.488 197.153 106.416 195.229C106.416 194.414 106.343 193.526 106.343 192.712Z" fill="#1E1E1E"/>
<path d="M110.837 181.906C110.547 181.462 109.822 181.166 109.315 181.536C108.88 181.906 108.373 182.202 107.866 182.572C107.793 182.498 107.793 182.35 107.721 182.276C106.996 181.092 105.982 180.13 104.677 179.686C103.228 179.167 101.561 179.39 100.039 179.167C99.7496 179.167 99.5322 179.241 99.3148 179.464C99.0249 179.39 98.735 179.39 98.4452 179.538C97.3582 180.13 96.7784 181.24 96.4161 182.424C96.0538 183.608 95.7639 185.089 95.8364 186.347C96.0538 188.937 98.1553 190.566 100.474 191.232C102.866 191.898 106.054 191.972 107.793 189.825C108.88 188.419 109.025 186.495 108.663 184.719C109.243 184.274 109.822 183.904 110.402 183.46C110.982 183.09 111.199 182.498 110.837 181.906ZM106.634 187.679C105.982 189.603 103.518 189.603 101.996 189.307C100.619 189.011 98.88 188.419 98.3002 186.939C97.9379 185.903 98.2278 184.645 98.4452 183.608C98.6626 182.794 98.88 181.906 99.6771 181.462C99.7496 181.388 99.822 181.388 99.8945 181.314C99.967 181.314 100.112 181.388 100.184 181.388C101.996 181.61 104.098 181.166 105.474 182.72C105.764 183.016 105.982 183.386 106.199 183.83C106.127 183.83 106.127 183.904 106.054 183.904C105.547 184.274 104.967 184.645 104.46 185.015C104.17 185.237 103.88 185.385 103.59 185.607C103.518 185.681 103.373 185.755 103.228 185.903C102.576 185.311 102.069 184.645 101.489 183.978C101.126 183.534 100.329 183.608 99.967 183.978C99.5322 184.422 99.6046 185.089 99.967 185.533C100.619 186.347 101.344 187.087 102.069 187.827C102.576 188.345 103.156 188.493 103.808 188.123C104.315 187.827 104.75 187.457 105.257 187.161C105.837 186.791 106.344 186.421 106.924 186.051C106.851 186.643 106.779 187.235 106.634 187.679Z" fill="#1E1E1E"/>
<path d="M94.3138 188.641C93.3717 188.641 92.3572 188.567 91.4151 188.567C90.8354 188.567 90.3281 189.086 90.3281 189.678C90.3281 190.27 90.8354 190.788 91.4151 190.788C92.3572 190.788 93.3717 190.862 94.3138 190.862C94.8935 190.862 95.4008 190.344 95.4008 189.752C95.4008 189.16 94.966 188.715 94.3138 188.641Z" fill="#1E1E1E"/>
<path d="M98.88 192.564C96.4161 192.416 93.9522 192.342 91.4884 192.49C90.9086 192.49 90.4014 193.008 90.4014 193.601C90.4014 194.193 90.9086 194.711 91.4884 194.711C93.9522 194.563 96.4161 194.637 98.88 194.785C99.4597 194.785 99.967 194.267 99.967 193.675C99.967 193.008 99.4597 192.564 98.88 192.564Z" fill="#1E1E1E"/>
<path d="M102.286 196.265C98.8076 196.413 95.3292 196.487 91.9233 196.487C90.5464 196.487 90.5464 198.707 91.9233 198.707C95.4017 198.707 98.8801 198.633 102.286 198.485C103.663 198.411 103.663 196.191 102.286 196.265Z" fill="#1E1E1E"/>
</g>
<path d="M140.759 189.648C140.229 187.087 139.018 184.697 137.428 182.904C136.52 181.879 135.46 181.025 134.324 180.428C133.567 180.001 132.734 179.915 131.977 180.598C131.372 181.196 130.993 182.05 130.615 182.818C130.615 182.818 130.615 182.818 130.615 182.904C130.312 183.587 130.161 183.928 130.615 184.697C131.675 186.319 133.34 187.343 134.4 189.051C135.157 190.246 135.763 191.697 135.838 193.234C135.914 194.259 135.687 195.71 136.595 196.308C136.671 196.393 136.747 196.393 136.898 196.479C137.05 196.649 137.277 196.735 137.504 196.735C137.807 196.82 138.185 196.906 138.488 196.991C140.078 197.418 140.683 195.625 140.986 194.173C141.137 192.637 141.062 191.1 140.759 189.648Z" fill="#F7C300"/>
<path d="M138.941 188.625C137.124 182.99 132.355 180.258 127.661 180.002C126.299 179.917 126.299 182.478 127.661 182.563C130.917 182.734 134.399 184.186 136.292 187.686C138.033 191.016 137.957 195.114 135.686 198.017C131.446 203.481 121.075 202.627 119.334 194.602C118.88 192.467 119.107 190.162 119.94 188.198C120.772 186.32 122.286 184.442 124.179 184.527C125.542 184.612 125.542 182.051 124.179 181.966C119.94 181.71 117.139 187.601 117.063 192.211C116.987 197.504 119.94 201.603 123.952 203.139C127.888 204.676 132.733 204.249 136.064 201.09C139.092 198.187 140.379 193.236 138.941 188.625Z" fill="#1E1E1E"/>
<path d="M133.567 194.516C133.339 191.955 131.22 190.845 129.1 190.845C129.024 190.845 128.873 190.845 128.722 190.845C128.646 189.906 128.57 188.881 128.494 187.942C128.949 188.113 129.403 188.369 129.63 188.71C130.614 189.906 132.28 188.113 131.22 186.918C130.463 186.064 129.327 185.466 128.192 185.295C128.192 184.954 128.116 184.527 128.116 184.185C128.04 183.502 127.662 182.905 126.98 182.905C126.45 182.905 125.769 183.502 125.845 184.185C125.921 184.612 125.921 185.039 125.921 185.466C125.693 185.551 125.391 185.637 125.164 185.722C123.271 186.661 122.363 189.052 123.271 191.186C123.952 192.723 125.164 193.235 126.526 193.406C126.602 194.601 126.678 195.797 126.753 196.907C126.526 196.821 126.375 196.821 126.148 196.736C125.845 196.651 125.921 196.565 125.996 196.907C125.769 196.224 125.239 195.797 124.634 196.053C124.104 196.224 123.649 196.992 123.877 197.59C124.331 198.87 125.391 199.212 126.45 199.468C126.602 199.468 126.753 199.553 126.905 199.553C126.905 199.724 126.905 199.809 126.905 199.98C126.98 201.602 129.251 201.602 129.176 199.98C129.176 199.809 129.176 199.553 129.176 199.383C129.403 199.297 129.706 199.212 129.933 199.126C130.917 198.7 132.052 198.358 132.734 197.419C133.339 196.651 133.642 195.541 133.567 194.516ZM125.239 189.223C125.315 188.625 125.769 188.198 126.223 187.942C126.299 188.881 126.375 189.82 126.45 190.759C125.693 190.674 125.164 190.247 125.239 189.223ZM131.22 195.541C130.917 196.224 129.857 196.565 129.1 196.821C129.024 195.711 128.949 194.601 128.949 193.492C129.63 193.492 130.463 193.492 130.993 194.004C131.371 194.345 131.371 195.028 131.22 195.541Z" fill="#1E1E1E"/>
<g clip-path="url(#clip8)">
<path d="M169.648 185.865C169.396 185.203 168.807 184.624 168.303 184.045C167.377 183.053 166.284 182.226 165.106 181.481C163.845 180.654 162.415 179.992 161.069 179.331C161.069 179.331 161.069 179.331 160.985 179.331C160.733 179.165 160.481 179 160.144 179C159.387 179 158.882 179.579 158.798 180.323C158.63 183.632 158.462 186.94 158.126 190.248C158.041 191.158 159.051 191.737 159.808 191.489C161.406 191.075 162.92 190.496 164.35 189.835C165.022 189.504 165.611 189.256 166.284 189.008C166.957 188.759 167.714 188.511 168.387 188.181C169.312 187.684 170.069 186.94 169.648 185.865Z" fill="#F7C300"/>
<path d="M170.995 191.076C170.49 188.512 169.06 186.196 166.873 184.624C164.687 183.053 162.163 181.564 159.556 180.82C158.883 180.654 158.378 180.903 158.042 181.316C157.705 180.985 157.285 180.737 156.696 180.903C152.239 181.812 148.622 185.369 147.528 189.67C147.024 191.82 147.024 194.219 147.781 196.286C148.622 198.519 150.22 200.091 152.323 201.166C156.528 203.316 161.827 203.73 166.116 201.579C170.153 199.677 171.752 195.294 170.995 191.076ZM166.116 198.933C163.088 201.166 158.631 201.001 155.182 199.843C153.416 199.264 151.566 198.271 150.556 196.617C149.631 195.046 149.463 193.143 149.715 191.406C150.304 187.354 153.332 184.128 157.369 183.301C157.705 183.218 157.958 183.053 158.126 182.888C158.294 183.053 158.462 183.136 158.715 183.218C160.733 183.715 162.5 184.873 164.182 185.948C165.864 187.023 167.21 188.181 168.051 190C169.313 192.978 168.892 196.865 166.116 198.933Z" fill="#1E1E1E"/>
<path d="M165.696 189.173C165.444 188.511 164.687 187.933 163.93 188.181C162.416 188.677 160.986 189.256 159.641 190C159.641 188.76 159.641 187.602 159.725 186.361C159.725 185.617 159.052 184.955 158.295 184.955C157.538 184.955 156.865 185.534 156.865 186.361C156.781 188.346 156.781 190.331 156.781 192.316C156.697 192.564 156.781 192.812 156.865 193.06C157.033 193.639 157.622 194.053 158.211 193.97C158.631 193.97 159.052 193.805 159.304 193.474C160.145 192.978 160.986 192.481 161.912 191.985C162.164 191.902 162.416 191.737 162.669 191.654C162.837 191.572 162.921 191.572 163.089 191.489C163.089 191.489 163.173 191.489 163.173 191.406C163.678 191.158 164.267 190.993 164.771 190.827C165.444 190.662 165.949 189.917 165.696 189.173Z" fill="#1E1E1E"/>
<path d="M152.324 191.075C151.063 191.075 151.063 192.977 152.324 192.977C153.586 192.977 153.586 191.075 152.324 191.075Z" fill="#1E1E1E"/>
<path d="M153.079 194.962C151.817 194.962 151.817 196.865 153.079 196.865C154.341 196.782 154.341 194.962 153.079 194.962Z" fill="#1E1E1E"/>
<path d="M156.611 196.617C155.35 196.617 155.35 198.519 156.611 198.519C157.873 198.436 157.873 196.617 156.611 196.617Z" fill="#1E1E1E"/>
<path d="M161.07 197.03C159.809 197.03 159.809 198.932 161.07 198.932C162.332 198.932 162.332 197.03 161.07 197.03Z" fill="#1E1E1E"/>
<path d="M165.024 195.376C163.763 195.376 163.763 197.278 165.024 197.278C166.286 197.278 166.286 195.376 165.024 195.376Z" fill="#1E1E1E"/>
<path d="M166.537 191.985C165.275 191.985 165.275 193.887 166.537 193.887C167.715 193.887 167.715 191.985 166.537 191.985Z" fill="#1E1E1E"/>
<path d="M154.174 187.188C152.912 187.188 152.912 189.09 154.174 189.09C155.435 189.09 155.435 187.188 154.174 187.188Z" fill="#1E1E1E"/>
</g>
<g clip-path="url(#clip9)">
<path d="M102.987 104.547C102.696 96.2397 97.1109 88.2047 88.7537 84.0577C79.5373 79.4877 67.6183 80.0607 56.0736 85.6401C55.0896 86.1176 54.7292 87.168 55.2143 88.1502C55.6855 89.0914 56.8774 89.7326 58.0693 89.1596C66.8838 84.9035 76.0309 83.8667 83.6674 86.3358C90.8188 88.6003 96.5981 94.3844 98.3721 101.082C100.312 108.381 96.7228 116.607 89.6407 121.095C82.6279 125.542 72.4414 126.974 66.5235 121.122C63.6269 118.257 61.5341 114.056 60.6333 109.295C59.677 104.234 61.0768 99.5546 64.3614 96.799C65.193 96.1032 65.2761 94.9983 64.5693 94.1798C63.8763 93.3749 62.5459 93.0475 61.5341 93.8933C53.8422 100.346 55.3252 112.773 61.2015 121.067C63.7378 124.655 66.9947 127.097 70.6951 128.216C71.3603 128.42 72.0256 128.57 72.7186 128.693C77.403 129.471 82.7111 128.761 87.645 126.674C97.1386 122.65 103.32 113.769 102.987 104.547Z" fill="#F7C300"/>
<path d="M86.3564 105.434C85.3862 103.92 84.028 102.719 82.4619 101.914C84.1666 100.741 85.8574 99.568 87.5621 98.4085C88.6709 97.6446 89.2253 95.5438 87.6176 94.8617C84.4299 93.5112 81.1176 93.0883 77.6805 92.7472C76.5579 92.6381 75.5877 93.7431 75.5877 94.7798C75.5739 95.9666 76.5302 96.7306 77.6528 96.8397C79.0387 96.9761 80.4662 97.1125 81.866 97.3581C80.0504 98.5995 78.2487 99.8545 76.4331 101.096C75.6709 101.628 75.1858 102.446 75.4214 103.388C75.6432 104.234 76.5024 104.97 77.4171 104.929C79.3852 104.834 81.3532 105.543 82.5312 107.153C83.4737 108.435 84.2914 110.918 83.1272 112.309C81.9907 113.674 79.7039 113.305 78.2903 112.705C77.1815 112.227 76.156 111.532 75.172 110.863C74.6314 110.495 73.8969 110.058 73.9523 109.554C74.0493 108.449 72.9406 107.494 71.8873 107.494C70.6815 107.48 69.8916 108.421 69.7945 109.526C69.6421 111.163 70.6538 112.541 71.8734 113.523C73.2732 114.642 74.8393 115.652 76.4886 116.375C79.5931 117.725 83.6261 117.834 86.0931 115.174C88.5461 112.555 88.172 108.285 86.3564 105.434Z" fill="#1E1E1E"/>
</g>
<g clip-path="url(#clip10)">
<path d="M119.699 126.27C126.49 130.41 135.574 129.804 142.837 124.707C150.851 119.088 156.011 108.4 156.992 95.3742C157.081 94.2617 156.406 93.3886 155.387 93.3041C154.406 93.2055 153.335 93.9237 153.234 95.2615C152.495 105.203 149.003 113.723 143.423 119.074C138.224 124.115 130.86 126.073 124.668 124.087C117.902 121.904 113.01 114.413 112.755 105.879C112.5 97.416 116.157 87.7559 123.636 85.6999C127.305 84.686 131.663 85.0944 135.906 86.8265C140.416 88.6712 143.499 92.3606 144.162 96.6978C144.328 97.7821 145.168 98.444 146.162 98.2609C147.131 98.0779 148.022 97.0921 147.819 95.7684C146.277 85.6295 135.6 80.3347 126.184 81.067C122.107 81.3768 118.616 82.9258 115.979 85.5591C115.507 86.0238 115.061 86.5307 114.653 87.0659C111.812 90.7412 109.888 95.7403 109.226 101.148C107.952 111.568 112.156 121.665 119.699 126.27Z" fill="#F7C300"/>
<path d="M135 114.103C132.86 113.807 130.732 113.455 128.604 113.061C127.967 112.948 127.114 112.877 126.298 112.709C128.235 111.131 130.031 109.343 131.866 107.667C134.325 105.428 137.905 103.034 138.096 99.1196C138.262 95.585 135.752 92.5574 132.758 91.6984C129.675 90.8113 126.005 91.3886 123.508 93.6699C121.609 95.402 124.094 98.6267 125.98 96.8946C127.521 95.4724 130.108 95.1485 131.981 95.8526C133.497 96.4159 134.937 98.2324 133.917 99.9927C133.293 101.077 132.236 101.851 131.344 102.654C130.286 103.612 129.229 104.583 128.184 105.541C126.133 107.414 124.132 109.54 121.788 110.948C120.654 111.624 120.412 113.089 121.164 114.215C122.552 116.313 125.037 116.623 127.177 117.046C129.687 117.539 132.197 117.947 134.733 118.299C137.179 118.665 137.447 114.455 135 114.103Z" fill="#1E1E1E"/>
</g>
<g clip-path="url(#clip11)">
<path d="M46.9521 96.9205C44.4179 89.0307 37.3119 82.9353 28.8433 81.3875C19.4959 79.6753 9.18072 83.6887 0.571992 92.4003C-0.166627 93.14 -0.192096 94.2495 0.508318 95.0576C1.18326 95.8247 2.4058 96.0849 3.29724 95.1946C9.8684 88.5513 17.6239 84.9078 24.9973 85.0585C31.8996 85.1543 38.5599 89.0444 41.9474 94.9343C45.6405 101.372 44.749 110.317 39.7697 116.672C34.8286 122.973 26.2708 127.301 19.4704 123.411C16.1339 121.494 13.1412 118.069 11.0527 113.768C8.82415 109.18 8.77321 104.303 10.8999 100.701C11.4348 99.7969 11.2056 98.7148 10.3651 98.1259C9.5373 97.5643 8.27655 97.6327 7.62707 98.7422C2.6223 107.139 7.33417 118.645 14.7713 124.891C17.9932 127.603 21.508 129 25.061 129C25.6978 129 26.3345 128.959 26.9585 128.863C31.2883 128.247 35.7455 126.028 39.515 122.59C46.7866 115.987 49.7665 105.673 46.9521 96.9205Z" fill="#F7C300"/>
<path d="M36.4204 111.727C33.3513 111.426 30.2694 111.453 27.2131 111.769C28.2828 106.002 29.62 100.304 31.2246 94.6878C31.5302 93.6331 30.868 92.4414 29.8874 92.1538C28.8304 91.8387 27.8753 92.5373 27.5315 93.592C26.4745 96.8383 24.1822 99.3997 21.3169 100.879C20.3872 101.358 20.1453 102.783 20.6292 103.687C21.1895 104.714 22.3102 104.906 23.2398 104.427C23.8638 104.112 24.4496 103.728 25.0227 103.317C24.335 106.303 23.7238 109.303 23.1889 112.33C23.1889 112.344 23.1889 112.357 23.1889 112.371C22.1828 112.563 21.1895 112.782 20.1962 113.029C17.8021 113.645 18.8209 117.604 21.215 116.987C26.1943 115.7 31.301 115.33 36.3949 115.837C37.4264 115.933 38.3051 114.823 38.3051 113.782C38.3306 112.577 37.4519 111.823 36.4204 111.727Z" fill="#1E1E1E"/>
</g>
<defs>
<clipPath id="clip0">
<rect width="24" height="24" fill="white" transform="translate(117 149)"/>
</clipPath>
<clipPath id="clip1">
<rect width="16" height="16" fill="white" transform="translate(72 157)"/>
</clipPath>
<clipPath id="clip2">
<rect width="14" height="11" fill="white" transform="translate(96 137)"/>
</clipPath>
<clipPath id="clip3">
<rect width="64" height="17" fill="white" transform="translate(0 132)"/>
</clipPath>
<clipPath id="clip4">
<rect width="64" height="16" fill="white" transform="translate(0 152)"/>
</clipPath>
<clipPath id="clip5">
<rect width="24" height="24" fill="white" transform="translate(0 179)"/>
</clipPath>
<clipPath id="clip6">
<rect width="24" height="24" fill="white" transform="translate(29 179)"/>
</clipPath>
<clipPath id="clip7">
<rect width="25" height="24" fill="white" transform="translate(87 179)"/>
</clipPath>
<clipPath id="clip8">
<rect width="25" height="24" fill="white" transform="translate(147 179)"/>
</clipPath>
<clipPath id="clip9">
<rect width="48" height="48" fill="white" transform="translate(55 81)"/>
</clipPath>
<clipPath id="clip10">
<rect width="48" height="48" fill="white" transform="translate(109 81)"/>
</clipPath>
<clipPath id="clip11">
<rect width="48" height="48" fill="white" transform="translate(0 81)"/>
</clipPath>
</defs>
</svg>
