<svg width="471" height="375" viewBox="0 0 471 375" fill="none" xmlns="http://www.w3.org/2000/svg">
<path d="M29.2398 22.755C30.8139 20.2429 32.8521 17.9301 35.0956 16.0354C40.0867 11.9678 46.4492 9.6988 52.9153 10.0032C56.2711 10.1257 59.5531 11.1235 62.5629 12.4992C65.4931 13.8681 68.801 15.5093 70.6488 18.3098C70.8608 18.6483 71.0727 18.9867 71.2846 19.3251C71.7487 19.5245 72.1197 19.8764 72.4045 20.3011C75.5766 25.4573 76.6519 31.7191 75.9102 37.6675C75.1485 43.8547 72.6091 50.2126 67.5517 54.1144C62.4148 58.0094 55.8146 59.2966 49.4749 58.4418C45.9868 57.9876 42.6252 56.983 39.463 55.5144C36.5261 54.225 33.709 52.4649 31.682 49.8897C29.8006 47.4871 28.6757 44.6674 27.7167 41.7815C26.6982 38.6502 25.4611 35.2599 25.7427 31.9176C26.011 28.7343 27.4796 25.5721 29.2398 22.755ZM43.9418 46.114C46.6265 47.5424 48.2887 43.0341 45.5973 41.6852C42.2164 39.9577 42.0809 35.8589 42.6742 32.6229C43.2473 29.6257 38.5521 29.2301 37.979 32.2273C36.8595 37.9034 38.6385 43.4231 43.9418 46.114Z" fill="#F7C300"/>
<path d="M87.5663 62.9339C88.8145 61.4361 90.0829 59.6997 91.6226 58.5471C94.6158 56.3148 98.3217 57.9895 101.311 59.6039C101.855 59.81 102.392 60.0957 102.936 60.3018C110.274 63.565 117.042 67.902 124.195 71.4701C127.735 73.211 131.54 74.6537 135.08 76.3947C136.771 77.2584 138.78 78.149 140.105 79.543C141.258 80.121 141.303 81.4873 140.745 82.402C140.413 83.496 139.682 84.5565 139.118 85.5508C138.174 87.2346 137.304 89.0046 135.612 90.0642C134.085 91.0576 132.242 91.0625 130.518 90.5967C128.707 90.2037 127.024 89.2604 125.42 88.3238C123.583 87.2874 121.913 86.1849 120.156 85.1553C113.303 80.8911 105.964 77.6279 98.7313 74.0531C96.8885 73.0964 95.0456 72.1397 93.2027 71.1829C91.5918 70.3259 89.8219 69.4554 88.4766 68.3002C86.6672 66.9455 85.9662 64.8027 87.5663 62.9339Z" fill="#59C69F"/>
<path d="M163.539 98.1879C164.255 98.2483 164.925 97.904 165.377 97.3009C166.014 96.3929 165.717 95.1656 164.809 94.5281C161.322 92.1506 157.643 90.1575 154.004 88.6486C152.996 88.2431 151.835 88.7063 151.35 89.7073C150.944 90.7151 151.408 91.8761 152.409 92.3612C155.889 93.8567 159.257 95.7433 162.597 97.9483C162.909 98.0547 163.22 98.1611 163.539 98.1879Z" fill="black"/>
<path d="M217.528 167.014C218.085 167.061 218.583 166.862 219.014 166.498C219.797 165.762 219.905 164.489 219.169 163.706C217.407 161.794 215.731 159.81 214.22 157.759C211.186 153.816 208.65 149.676 206.538 146.212C205.975 145.283 204.722 144.937 203.786 145.579C202.857 146.142 202.511 147.395 203.153 148.331C205.193 151.708 207.948 156.108 211.048 160.216C212.631 162.353 214.38 164.424 216.215 166.422C216.593 166.695 217.05 166.974 217.528 167.014ZM193.122 130.415C193.52 130.448 194.011 130.329 194.349 130.117C195.278 129.554 195.545 128.294 194.902 127.359C190.577 120.663 186.616 115.36 182.529 110.608C182.237 110.262 181.866 109.911 181.581 109.486C180.852 108.623 179.572 108.595 178.789 109.331C177.926 110.06 177.899 111.34 178.634 112.123C178.926 112.468 179.217 112.813 179.588 113.165C183.603 117.831 187.418 122.961 191.677 129.491C191.955 129.996 192.565 130.368 193.122 130.415Z" fill="black"/>
<path d="M409.346 359.737C410.142 359.804 410.985 359.314 411.37 358.545C411.776 357.538 411.313 356.376 410.311 355.891C404.279 353.299 397.775 350.587 389.945 347.443C388.937 347.038 387.776 347.501 387.364 348.588C386.959 349.596 387.422 350.757 388.509 351.169C396.339 354.313 402.77 356.939 408.803 359.531C408.869 359.697 409.108 359.717 409.346 359.737ZM368.494 343.311C369.369 343.385 370.212 342.895 370.524 342.04C370.93 341.032 370.387 339.864 369.379 339.459C363.174 337.012 356.033 334.247 348.906 331.322C347.899 330.917 346.738 331.38 346.332 332.388C345.927 333.395 346.39 334.556 347.398 334.962C354.525 337.887 361.665 340.652 367.87 343.099C368.096 343.278 368.255 343.291 368.494 343.311ZM327.747 326.574C328.543 326.641 329.379 326.23 329.771 325.382C330.256 324.381 329.793 323.22 328.792 322.735L327.48 322.143C321.076 319.199 314.917 316.196 309.163 313.146C308.162 312.661 307.008 313.045 306.45 313.96C305.965 314.961 306.348 316.115 307.263 316.673C313.097 319.729 319.328 322.819 325.812 325.77L327.204 326.368C327.356 326.461 327.509 326.554 327.747 326.574ZM288.935 305.912C289.651 305.972 290.401 305.635 290.773 305.025C291.331 304.11 291.113 302.89 290.125 302.245C283.808 298.267 277.757 293.99 272.27 289.681C271.368 288.964 270.148 289.181 269.437 290.003C268.72 290.904 268.938 292.125 269.76 292.835C275.32 297.231 281.451 301.514 287.92 305.586C288.305 305.779 288.616 305.885 288.935 305.912ZM254.36 278.714C254.917 278.761 255.494 278.57 255.932 278.126C256.722 277.311 256.743 276.11 255.928 275.32C250.68 270.069 245.936 264.54 241.763 258.899C241.114 258.043 239.848 257.856 238.991 258.505C238.135 259.154 237.948 260.421 238.598 261.277C242.916 267.091 247.806 272.792 253.126 278.13C253.498 278.481 253.962 278.681 254.36 278.714ZM228.487 243.354C228.805 243.381 229.21 243.335 229.548 243.123C230.55 242.646 230.976 241.4 230.413 240.471C227.804 235.282 225.839 230.067 224.498 225.065C224.068 223.506 223.645 221.868 223.381 220.243C223.15 219.181 222.09 218.451 221.028 218.682C219.967 218.913 219.236 219.974 219.468 221.035C219.804 222.746 220.22 224.465 220.637 226.183C222.038 231.43 224.149 236.817 226.896 242.258C227.167 242.842 227.85 243.3 228.487 243.354ZM220.136 200.734C221.25 200.828 222.199 200.027 222.293 198.912C222.367 198.037 222.441 197.162 222.594 196.293C223.343 190.265 224.761 183.893 226.71 177.886C227.036 176.871 226.493 175.704 225.399 175.371C224.385 175.045 223.217 175.588 222.884 176.682C220.829 183 219.311 189.605 218.542 195.871C218.462 196.826 218.308 197.695 218.228 198.65C218.227 199.612 219.022 200.64 220.136 200.734ZM276.15 196.077C281.163 196.5 285.189 196.278 288.871 195.386C291.975 194.686 294.888 193.408 297.609 191.554C298.545 190.911 298.805 189.731 298.162 188.795C297.52 187.86 296.339 187.6 295.404 188.242C293.028 189.805 290.533 190.877 287.913 191.538C284.642 192.305 281.021 192.48 276.405 192.091C276.087 192.065 275.769 192.038 275.45 192.011C274.336 191.917 273.387 192.719 273.293 193.833C273.199 194.947 274.001 195.896 275.115 195.99C275.513 196.023 275.831 196.05 276.15 196.077ZM253.804 191.149C254.679 191.222 255.522 190.732 255.841 189.798C256.246 188.79 255.704 187.622 254.616 187.21C247.847 184.796 241.39 181.527 235.398 177.496C234.49 176.858 233.263 177.156 232.626 178.064C231.988 178.972 232.285 180.199 233.193 180.836C239.417 184.967 246.179 188.422 253.26 190.943C253.485 191.122 253.644 191.135 253.804 191.149ZM308.681 174.294C309.636 174.374 310.572 173.732 310.811 172.79C311.184 171.219 311.471 169.72 311.605 168.128C311.665 167.412 311.719 166.776 311.699 166.053C311.758 160.608 310.376 155.121 307.602 149.999C307.046 148.99 305.873 148.651 304.864 149.207C303.855 149.763 303.516 150.937 304.072 151.945C306.502 156.398 307.691 161.307 307.694 166.036C307.726 166.599 307.673 167.236 307.626 167.793C307.512 169.146 307.318 170.492 306.965 171.825C306.712 172.926 307.348 173.941 308.442 174.274C308.522 174.28 308.601 174.287 308.681 174.294ZM233.81 159.249C234.526 159.309 235.276 158.972 235.655 158.282C239.733 151.734 244.513 146.366 249.73 142.478C250.586 141.828 250.773 140.562 250.124 139.706C249.474 138.85 248.208 138.663 247.352 139.312C241.704 143.565 236.658 149.23 232.301 156.237C231.743 157.151 232.04 158.379 232.948 159.016C233.18 159.116 233.492 159.222 233.81 159.249ZM290.011 138.098C290.807 138.165 291.643 137.754 291.949 136.979C292.434 135.978 291.971 134.817 290.97 134.331C286.959 132.471 282.57 131.299 277.967 130.751C274.791 130.404 271.588 130.374 268.43 130.749C267.296 130.894 266.572 131.875 266.644 132.923C266.789 134.057 267.77 134.781 268.818 134.709C271.65 134.387 274.615 134.396 277.473 134.717C281.684 135.152 285.676 136.29 289.222 137.951C289.534 138.057 289.773 138.078 290.011 138.098Z" fill="black"/>
<path d="M440 374.502C440.796 374.57 441.552 374.152 441.931 373.463C442.495 372.469 442.112 371.314 441.118 370.75C437.67 368.856 434.058 367.029 430.445 365.202C429.444 364.717 428.289 365.1 427.804 366.101C427.319 367.102 427.703 368.257 428.704 368.742C432.317 370.569 435.93 372.396 439.304 374.203C439.443 374.456 439.761 374.482 440 374.502Z" fill="black"/>
<path d="M32.7147 22.4068C36.095 17.4822 41.3509 14.0781 46.8312 11.8149C52.6432 9.41939 59.1236 8.60297 65.1776 9.99469C65.2572 10.0014 65.2572 10.0014 65.33 10.0877C65.8017 9.24582 66.8103 8.68964 67.9571 9.34729C77.4294 14.874 82.2012 25.7752 81.7802 36.4792C81.651 39.9146 81.1766 43.6414 79.9266 47.0625C82.1281 47.5686 84.1167 48.6979 86.0191 49.9001C88.233 51.2087 90.354 52.6697 92.8603 53.3618C93.0195 53.3752 93.1719 53.4682 93.3244 53.5612C94.1873 52.8324 95.0434 52.1833 96.2572 52.0451C97.4711 51.9069 98.5516 52.3987 99.7252 52.7381C101.9 53.5625 104.074 54.3869 106.249 55.2113C110.512 56.9329 114.689 58.7275 118.766 60.7541C128.007 65.2194 136.869 70.3742 145.28 76.1321C145.963 76.5903 146.387 77.2672 146.327 77.9835C146.982 78.76 146.816 79.7879 146.264 80.623C144.81 82.6644 143.356 84.7058 141.901 86.7472C140.626 88.5632 139.35 91.341 136.857 91.4514C134.681 91.5887 132.228 90.26 130.385 89.3032C128.311 88.2468 126.249 87.0312 124.181 85.8952C115.61 81.0856 107.025 76.4351 98.2683 71.9304C96.041 70.7809 93.8932 69.6382 91.6591 68.5684C89.5842 67.5119 87.4163 66.608 86.9942 64.0077C86.9021 63.1985 86.8896 62.396 87.1158 61.6136L87.0363 61.6069C84.411 60.424 81.7991 59.0818 79.1873 57.7397C77.8085 56.9824 75.9522 56.1848 74.6932 54.9567C71.4143 57.7259 66.9493 59.3533 62.956 60.1389C52.4487 62.1388 41.4827 58.1692 34.7321 49.8263C28.7371 42.0279 26.9702 30.6586 32.7147 22.4068ZM92.3396 64.2978C94.3416 65.268 96.2573 66.311 98.2527 67.3607C106.241 71.4801 114.136 75.7519 121.951 80.017C124.172 81.246 126.393 82.475 128.613 83.704C130.602 84.8333 132.584 86.0422 134.685 86.7803C135.229 86.9864 135.779 87.1129 136.323 87.319C136.403 87.3257 136.482 87.3325 136.562 87.3392C136.569 87.2596 136.655 87.1867 136.655 87.1867C136.861 86.6431 137.385 86.1262 137.744 85.6756L138.747 84.2373C140.015 82.5008 141.211 80.6781 142.479 78.9416C129.064 69.7966 114.626 62.3287 99.39 56.7171C98.9259 56.5177 98.4551 56.3979 98.0706 56.2052C97.759 56.0988 97.0696 55.7201 96.7446 55.7729C96.1808 55.8055 95.4637 56.7068 95.1185 56.9983C93.8175 58.171 92.4303 59.4166 91.5799 60.9479C91.2875 61.5644 90.9089 62.2538 90.9281 62.9767C91.0202 63.7859 91.8026 64.0122 92.3396 64.2978ZM78.4227 52.546C79.0325 52.9179 79.7219 53.2966 80.3318 53.6686C83.0894 55.1833 85.9333 56.6251 88.7906 57.9077C89.1558 57.3775 89.5144 56.9268 89.9525 56.4829C88.0895 55.7649 86.4125 54.742 84.7355 53.7191C83.7479 53.0748 82.674 52.5035 81.6001 51.9321C81.0632 51.6464 80.5262 51.3608 79.9758 51.2342C79.8234 51.1412 78.9547 50.9879 78.4839 50.8681C78.4839 50.8681 78.4772 50.9477 78.3976 50.941C78.2184 51.1663 77.9595 51.3849 77.7803 51.6102C77.7803 51.6102 77.5214 51.8289 77.3421 52.0542C77.8925 52.1807 78.3431 52.5393 78.4227 52.546ZM36.2025 44.7407C40.7718 52.3388 49.6084 56.8503 58.4561 56.4738C63.205 56.2327 67.9749 54.7913 71.8242 51.9098C75.6669 49.108 76.8055 44.1547 77.4198 39.7183C78.8285 29.6586 75.3635 18.4668 66.2891 12.9736C65.9104 13.663 65.1539 14.0801 64.2124 13.8405C59.4183 12.7152 54.4834 13.2611 49.9456 14.8023C45.6531 16.2839 41.4528 18.5748 38.2133 21.8283C35.3189 24.7902 33.3192 28.5488 33.123 32.78C33.013 36.9383 34.1035 41.1176 36.2025 44.7407Z" fill="black"/>
<path d="M38.4981 7.98723C44.6562 4.33855 51.7943 2.37536 58.99 2.58096C60.0313 2.58855 61.0055 3.39195 61.0708 4.51949C61.1428 5.56744 60.2531 6.61451 59.1322 6.60022C52.6527 6.45497 46.2644 8.08061 40.6173 11.3716C38.4208 12.7093 36.222 9.31821 38.4981 7.98723Z" fill="black"/>
<path d="M100.339 78.757C100.817 77.8356 102.137 77.3858 103.052 77.9437C108.169 80.9396 113.466 83.7101 118.869 86.169C119.87 86.6541 120.161 87.9609 119.682 88.8824C119.118 89.8767 117.97 90.1807 116.969 89.6956C111.573 87.1571 106.269 84.4662 101.152 81.4703C100.237 80.9124 99.7808 79.6717 100.339 78.757Z" fill="black"/>
<path d="M178.277 125.878C180.193 125.959 183.583 125.683 183.421 128.555C183.354 129.351 183.121 130.213 182.888 131.075C182.881 131.154 182.848 131.552 182.741 131.864C183.776 131.951 184.758 131.713 185.745 132.358C186.581 132.909 186.991 133.745 187.063 134.793C187.142 135.761 187.141 136.723 187.06 137.678C187.047 137.837 187.02 138.155 186.92 138.387C187.159 138.407 187.398 138.428 187.716 138.454C188.817 138.707 189.639 139.418 190.195 140.426C190.685 141.269 190.85 142.165 191.015 143.06C191.061 143.465 191.1 143.949 191.146 144.354C191.883 144.175 192.619 143.997 193.315 144.296C194.793 144.821 194.998 146.201 194.963 147.56C194.942 148.761 194.994 150.048 194.973 151.248C194.973 151.248 194.967 151.328 194.96 151.407C195.292 151.275 195.617 151.222 195.703 151.149C197.123 150.467 198.534 151.788 198.493 153.228C198.491 155.151 198.251 157.054 198.01 158.957C197.637 161.491 193.664 161.076 194.038 158.543C194.205 157.515 194.285 156.56 194.372 155.525C193.092 155.497 191.932 154.999 191.25 153.579C190.774 152.577 190.961 151.311 190.895 150.183C190.87 149.54 190.923 148.903 190.891 148.339C189.272 148.523 187.674 148.469 187.191 146.585C186.94 145.762 187.021 144.807 186.935 143.919C186.889 143.514 186.843 143.109 186.711 142.778C186.645 142.612 186.572 142.525 186.585 142.366C186.34 142.426 186.101 142.406 186.021 142.399C185.537 142.438 184.98 142.391 184.509 142.272C183.495 141.946 182.766 141.083 182.615 140.028C182.45 139.133 182.848 138.204 182.922 137.329C182.956 136.931 183.089 136.301 183.049 135.817C182.572 135.777 182.088 135.816 181.617 135.696C180.516 135.443 179.522 134.879 178.959 133.95C178.469 133.107 178.47 132.145 178.63 131.197C178.75 130.726 178.783 130.328 178.903 129.857C178.505 129.824 178.101 129.87 177.703 129.836C176.662 129.829 175.8 128.634 175.967 127.606C176.22 126.506 177.242 125.79 178.277 125.878Z" fill="#F7C300"/>
<path d="M294.827 295.909C294.993 295.843 295.239 295.784 295.318 295.79C295.895 295.599 296.393 295.4 296.97 295.208C298.045 294.818 299.173 294.753 300.06 295.629C300.803 296.333 301.027 297.474 301.272 298.376C301.324 298.701 301.45 299.112 301.503 299.437C301.835 299.305 302.16 299.252 302.491 299.12C303.559 298.809 304.72 298.346 305.801 298.838C306.961 299.336 307.338 300.57 307.728 301.645C307.92 302.222 308.112 302.799 308.39 303.304C308.39 303.304 308.463 303.39 308.456 303.469C308.788 303.337 309.286 303.139 309.451 303.072C309.869 302.867 310.288 302.662 310.712 302.377C311.887 301.755 313.194 301.464 314.141 302.586C314.87 303.449 314.842 304.729 314.987 305.863C314.973 306.022 315.04 306.188 315.026 306.347C315.53 306.069 316.041 305.711 316.539 305.513C318.516 304.878 319.735 306.584 320.569 308.097C320.913 308.767 321.258 309.437 321.602 310.107C321.734 310.439 321.873 310.691 322.006 311.023C322.078 311.109 322.145 311.275 322.217 311.361C322.39 311.215 322.636 311.156 322.808 311.01C323.405 310.58 324.003 310.149 324.527 309.632C325.662 308.526 327.957 308.879 328.041 310.73C328.153 312.262 328.264 313.794 328.296 315.32C328.479 317.9 324.44 318.281 324.336 315.707C324.356 315.468 324.303 315.143 324.323 314.905C323.142 315.607 321.749 315.97 320.523 315.306C319.29 314.721 318.774 313.235 318.231 312.067C317.959 311.483 317.688 310.899 317.417 310.315C317.351 310.15 317.205 309.977 317.139 309.811C316.966 309.957 316.8 310.023 316.548 310.162C315.957 310.513 315.36 310.944 314.69 311.288C313.423 312.063 311.719 311.358 311.528 309.819C311.449 308.851 311.291 307.876 311.205 306.987C311.212 306.907 311.146 306.742 311.153 306.662C310.9 306.801 310.569 306.933 310.317 307.072C309.315 307.549 308.167 307.853 307.007 307.355C305.926 306.863 305.284 305.927 304.734 304.839C304.536 304.341 304.337 303.844 304.139 303.346C304.073 303.18 304.006 303.014 303.94 302.848C303.615 302.901 303.284 303.034 303.038 303.093C302.295 303.351 301.479 303.523 300.736 303.781C299.423 304.151 298.282 303.414 298.071 302.113C297.966 301.463 297.867 300.734 297.682 300.077C297.623 299.832 297.57 299.507 297.51 299.261C297.265 299.321 297.013 299.46 296.847 299.526C296.27 299.718 295.606 299.982 294.956 300.088C293.344 300.192 292.079 299.044 292.299 297.379C292.347 295.861 293.74 295.497 294.827 295.909Z" fill="#F7C300"/>
</svg>
