<svg width="195" height="11" viewBox="0 0 195 11" fill="none" xmlns="http://www.w3.org/2000/svg">
<path d="M194.242 7.88385C192.006 6.34451 189.621 4.93115 187.386 3.39181C185.155 1.97481 183.574 1.27724 180.99 2.68491C178.861 3.83698 176.281 5.36699 174.636 6.99746C174.481 7.00111 174.476 6.87877 174.321 6.88241C173.992 6.40036 173.201 6.05158 172.721 5.6955C171.601 4.86466 170.636 4.03018 169.521 3.32168C167.761 2.01607 165.856 0.958786 163.407 1.87347C160.953 2.66581 159.478 4.65965 157.514 6.05274C157.364 6.17872 157.213 6.3047 157.063 6.43069C157.519 6.17508 157.354 5.93405 156.733 5.94863C156.253 5.59256 155.473 5.48845 154.842 5.25835C153.737 4.79452 152.631 4.3307 151.526 3.86687C148.999 2.82416 146.619 1.53314 144.238 0.242115C143.443 -0.229005 142.056 0.0484761 141.454 0.552404C140.412 1.67895 139.364 2.68316 138.321 3.80971C137.725 4.43597 137.128 5.06223 136.532 5.6885C136.381 5.81448 136.231 5.94046 136.085 6.18878C135.935 6.31476 135.935 6.31476 135.935 6.31476C134.519 5.85822 133.239 4.90869 131.969 4.20384C130.543 3.50262 129.113 2.67908 127.532 1.98151C124.836 0.57544 122.169 -0.0966094 119.289 1.68536C117.169 3.0821 115.205 4.47519 113.086 5.87193C111.34 4.93333 109.599 4.11708 107.699 3.18213C105.958 2.36587 104.203 1.1826 102.045 1.60064C100.042 2.01504 98.2378 3.52683 96.5695 4.54562C95.6578 5.05683 94.7461 5.56805 93.9895 6.07562C93.0778 6.58684 92.4571 6.60142 91.3563 6.25993C87.739 5.12041 84.8542 2.86163 80.8051 2.5894C76.6009 2.32081 73.7395 4.59213 70.5484 6.38139C69.4863 7.01859 69.6367 6.89261 68.5263 6.30644C67.5759 5.83897 66.7807 5.36785 65.8304 4.90037C63.9297 3.96543 62.0289 3.03048 59.842 2.7145C57.6599 2.52086 55.8268 3.29862 53.8385 4.08003C52.7667 4.47256 51.695 4.86509 50.6232 5.25761C49.5515 5.65014 47.8784 6.54659 46.4866 6.70174C44.6245 6.74548 42.2438 5.45446 40.6582 4.63456C38.9127 3.69596 37.4582 2.26073 35.2712 1.94475C33.2395 1.62513 31.2463 2.2842 29.7332 3.29935C28.0649 4.31814 26.5759 5.94497 24.3842 5.50666C22.1972 5.19068 20.4372 3.88508 18.5413 3.07246C16.4854 2.14116 14.284 1.45818 11.7915 1.27183C7.27213 0.888194 2.66999 2.34326 0.312712 5.58233C-1.15696 7.69851 2.95 9.43878 4.41968 7.3226C6.48109 4.45783 10.9812 4.35211 14.4481 5.61762C17.9151 6.88313 20.8048 9.26424 24.8442 9.2918C26.7111 9.37039 28.3939 8.71861 29.9167 7.94814C31.1291 7.18496 33.2243 5.17654 34.805 5.87411C36.3809 6.44934 37.8306 7.76223 39.4161 8.58213C41.1569 9.39839 43.2079 10.2074 45.0797 10.4083C47.1066 10.6056 48.7894 9.95379 50.6274 9.29836C52.926 8.50967 55.2102 7.35396 57.5137 6.6876C59.5117 6.15086 61.4269 7.45282 63.0076 8.15038C64.5931 8.97029 66.358 10.3982 68.3849 10.5955C71.9781 11.1234 74.7912 7.62867 77.7009 6.58072C81.0713 5.39949 84.4266 7.76967 87.268 8.92742C89.0087 9.74368 91.055 10.4303 93.0626 10.1382C95.2254 9.84254 97.0344 8.4531 98.7027 7.43431C99.6144 6.92309 100.968 5.78925 102.044 5.51906C102.199 5.51542 102.495 5.14111 102.495 5.14111C102.805 5.13382 103.921 5.84233 104.236 5.95737C106.457 7.1297 108.833 8.29839 111.053 9.47072C111.053 9.47072 111.208 9.46708 111.213 9.58941C112.008 10.0605 113.255 10.1537 114.157 9.39782C115.52 8.50865 116.727 7.62313 118.09 6.73397C118.691 6.23004 119.453 5.84481 120.054 5.34088C120.51 5.08527 121.407 4.20704 122.023 4.07012C123.26 3.91863 125.5 5.5803 126.45 6.04778C127.876 6.74899 129.146 7.45385 130.571 8.15506C132.792 9.32739 135.503 11.1005 137.918 9.32943C139.125 8.44391 140.008 7.19868 140.901 6.19811C141.497 5.57185 142.244 4.8196 142.841 4.19334C146.807 6.30427 150.919 8.16687 155.322 9.53284C157.993 10.3272 159.497 9.06741 161.306 7.67797C162.208 6.92207 163.1 5.92151 164.167 5.40665C165.079 4.89543 164.468 5.15468 165.258 5.50347C165.733 5.7372 166.378 6.3343 166.858 6.69038C167.978 7.52122 168.943 8.3557 170.058 9.0642C170.858 9.65766 171.823 10.4921 172.924 10.8336C175.436 11.5093 176.925 9.8825 178.588 8.74138C179.645 7.98184 180.703 7.2223 181.915 6.45912C181.915 6.45912 182.827 5.9479 183.283 5.69229C183.443 5.81099 183.603 5.92968 183.763 6.04837C185.998 7.58771 188.384 9.00107 190.619 10.5404C193.319 12.0688 196.477 9.4232 194.242 7.88385Z" fill="#F7C300"/>
</svg>
