<svg width="132" height="209" viewBox="0 0 132 209" fill="none" xmlns="http://www.w3.org/2000/svg">
<path d="M32.2116 110.533C32.0987 110.533 31.9792 110.513 31.8663 110.472C31.0628 110.163 30.2328 109.874 29.4028 109.607C28.8782 109.435 28.586 108.865 28.7454 108.316C28.9114 107.774 29.4625 107.472 29.9938 107.636C30.8636 107.918 31.7269 108.22 32.5569 108.536C33.0749 108.735 33.3338 109.325 33.1479 109.861C32.9952 110.279 32.6167 110.533 32.2116 110.533Z" fill="#1E1E1E"/>
<path d="M41.2424 115.325C41.0432 115.325 40.844 115.263 40.6713 115.139C39.3765 114.199 37.9488 113.32 36.4282 112.517C35.9368 112.256 35.7442 111.638 35.9899 111.13C36.2356 110.622 36.8399 110.423 37.3312 110.677C38.9316 111.515 40.4455 112.448 41.8134 113.451C42.265 113.78 42.3712 114.418 42.0591 114.885C41.8599 115.174 41.5545 115.325 41.2424 115.325Z" fill="#1E1E1E"/>
<path d="M71.3133 159.656C70.9149 159.656 70.5431 159.408 70.3904 159.01L69.992 157.974C69.5139 156.718 69.0159 155.42 68.4848 154.171C68.2656 153.649 68.498 153.045 69.0027 152.819C69.5073 152.592 70.0916 152.832 70.3107 153.354C70.8552 154.638 71.3532 155.949 71.8445 157.219L72.2429 158.255C72.4487 158.784 72.1964 159.381 71.6851 159.594C71.559 159.628 71.4395 159.656 71.3133 159.656ZM41.6599 157.431C41.3545 157.431 41.0491 157.418 40.7503 157.383C40.2058 157.329 39.8008 156.821 39.8539 156.258C39.907 155.695 40.405 155.283 40.9428 155.331C42.4102 155.482 43.8909 155.159 45.2587 154.377C45.7368 154.102 46.3476 154.281 46.6132 154.782C46.8788 155.283 46.7062 155.908 46.2215 156.182C44.7806 157.013 43.2402 157.431 41.6599 157.431ZM36.1555 155.496C35.9563 155.496 35.7571 155.434 35.5779 155.304C34.1304 154.24 32.8423 152.812 31.8662 151.178C31.5741 150.691 31.7201 150.059 32.1916 149.764C32.663 149.469 33.2738 149.613 33.5594 150.1C34.396 151.501 35.4915 152.722 36.7265 153.635C37.1714 153.965 37.2777 154.61 36.9589 155.07C36.773 155.345 36.4676 155.496 36.1555 155.496ZM49.4883 152.819C49.2824 152.819 49.0766 152.757 48.904 152.62C48.4591 152.283 48.3595 151.638 48.6848 151.178C49.5613 149.935 50.2651 148.453 50.7764 146.778C50.9424 146.236 51.5001 145.934 52.0247 146.105C52.5492 146.277 52.8414 146.853 52.6754 147.396C52.0977 149.283 51.2943 150.965 50.2917 152.386C50.0991 152.668 49.7937 152.819 49.4883 152.819ZM67.0572 150.121C66.7252 150.121 66.4065 149.949 66.2139 149.64C65.3242 148.192 64.315 146.86 63.2061 145.673C62.821 145.261 62.8343 144.609 63.2327 144.217C63.6311 143.826 64.2552 143.833 64.6403 144.245C65.8421 145.529 66.9377 146.977 67.8938 148.542C68.186 149.023 68.0532 149.661 67.5884 149.963C67.4224 150.066 67.2431 150.121 67.0572 150.121ZM30.9566 146.771C30.4718 146.771 30.0469 146.4 29.9739 145.892C29.8875 145.281 29.8411 144.67 29.8411 144.066C29.8411 143.387 29.8942 142.714 30.0071 142.062C30.1266 141.362 30.3258 140.71 30.6046 140.126C30.8503 139.618 31.4479 139.412 31.9392 139.666C32.4306 139.92 32.6298 140.538 32.3841 141.046C32.1916 141.451 32.0455 141.911 31.9658 142.412C31.8728 142.947 31.8264 143.503 31.8264 144.066C31.8264 144.567 31.8596 145.075 31.9326 145.59C32.0123 146.153 31.6405 146.675 31.096 146.757C31.0561 146.764 31.0097 146.771 30.9566 146.771ZM52.6886 142.968C52.6621 142.968 52.6289 142.968 52.6023 142.961C52.0512 142.913 51.6462 142.412 51.6993 141.842C51.7724 140.977 51.8122 140.071 51.8122 139.151C51.8122 138.369 51.7856 137.559 51.7325 136.749C51.6927 136.179 52.111 135.692 52.6555 135.651C53.1933 135.603 53.678 136.042 53.7178 136.605C53.7776 137.463 53.8041 138.321 53.8041 139.151C53.8041 140.126 53.7643 141.094 53.6846 142.021C53.6315 142.563 53.1933 142.968 52.6886 142.968ZM60.0256 142.625C59.8331 142.625 59.6405 142.57 59.4745 142.453C58.4918 141.774 57.4361 141.17 56.3472 140.648C55.9554 140.463 55.557 140.284 55.1587 140.119C54.6474 139.907 54.3951 139.309 54.6009 138.781C54.8067 138.252 55.3844 137.998 55.8957 138.204C56.3273 138.383 56.7522 138.568 57.1772 138.774C58.3657 139.337 59.5144 140.003 60.5834 140.737C61.0415 141.053 61.1677 141.691 60.8623 142.165C60.6631 142.46 60.351 142.625 60.0256 142.625ZM50.6569 138.698C50.5905 138.698 50.5241 138.692 50.4577 138.678C48.904 138.348 47.2573 138.129 45.5575 138.033C45.0064 137.998 44.5881 137.511 44.6213 136.948C44.6545 136.378 45.1126 135.966 45.6704 135.98C47.4631 136.083 49.2094 136.316 50.8561 136.666C51.3939 136.783 51.7392 137.325 51.6329 137.882C51.5333 138.362 51.115 138.698 50.6569 138.698ZM35.4783 138.616C35.04 138.616 34.635 138.314 34.5155 137.854C34.3694 137.305 34.6881 136.742 35.2193 136.591C36.9523 136.11 38.8513 136.014 40.498 135.966C41.0756 135.939 41.5072 136.399 41.5205 136.969C41.5338 137.538 41.1022 138.012 40.5511 138.026C39.0173 138.074 37.2577 138.156 35.7372 138.582C35.6509 138.609 35.5646 138.616 35.4783 138.616ZM52.0247 132.5C51.5599 132.5 51.1482 132.163 51.0486 131.676C50.7498 130.173 50.3714 128.731 49.9331 127.393C49.8601 127.18 49.7937 126.974 49.714 126.768C49.5215 126.233 49.7804 125.642 50.2983 125.443C50.8096 125.244 51.3872 125.512 51.5798 126.047C51.6595 126.274 51.7392 126.5 51.8122 126.727C52.2836 128.148 52.682 129.672 52.9941 131.257C53.107 131.813 52.755 132.356 52.2172 132.472C52.1575 132.493 52.0911 132.5 52.0247 132.5ZM48.3529 122.759C48.0275 122.759 47.7088 122.594 47.5162 122.292C46.6464 120.919 45.6106 119.601 44.4354 118.386C44.0503 117.981 44.0503 117.329 44.4354 116.931C44.8271 116.533 45.4579 116.533 45.843 116.931C47.1112 118.249 48.2333 119.67 49.1828 121.167C49.4816 121.64 49.3555 122.279 48.8973 122.594C48.7247 122.711 48.5388 122.759 48.3529 122.759Z" fill="#1E1E1E"/>
<path d="M74.64 166.939C74.3013 166.939 73.9759 166.76 73.79 166.445C73.3318 165.662 72.9068 164.852 72.4752 163.96C72.2295 163.452 72.4354 162.834 72.9268 162.58C73.4181 162.326 74.0158 162.539 74.2615 163.047C74.6665 163.884 75.0649 164.646 75.4966 165.381C75.7821 165.868 75.6294 166.499 75.1579 166.795C74.9919 166.891 74.8126 166.939 74.64 166.939Z" fill="#1E1E1E"/>
<path d="M79.1223 33.259C79.0758 33.259 79.0227 33.259 78.9762 33.2453C78.1196 33.1149 77.2497 33.005 76.3931 32.9227C75.842 32.8677 75.4436 32.3666 75.4967 31.8038C75.5498 31.2409 76.0346 30.8153 76.5791 30.8771C77.4755 30.9663 78.3786 31.0761 79.2684 31.2134C79.8129 31.2958 80.1914 31.8175 80.1117 32.3804C80.032 32.8952 79.607 33.259 79.1223 33.259Z" fill="#1E1E1E"/>
<path d="M65.9949 33.0941C65.5035 33.0941 65.0719 32.7166 65.0055 32.2017C64.9324 31.6388 65.3176 31.124 65.8621 31.0485C67.5952 30.8151 69.4014 30.6778 71.2142 30.6572C71.2208 30.6572 71.2208 30.6572 71.2274 30.6572C71.7719 30.6572 72.2168 31.1103 72.2235 31.6732C72.2301 32.2429 71.7919 32.7097 71.2407 32.7166C69.501 32.7372 67.7745 32.8676 66.121 33.0872C66.0812 33.0872 66.0414 33.0941 65.9949 33.0941Z" fill="#1E1E1E"/>
<path d="M25.3133 78.1117C25.0411 78.1117 24.7622 77.995 24.5697 77.7684C24.2045 77.3428 24.2443 76.6907 24.656 76.3132L27.0795 74.0891C27.5775 73.6292 28.0755 73.1761 28.5668 72.7093C28.9719 72.3249 29.6026 72.3524 29.9745 72.7711C30.3463 73.1898 30.3197 73.842 29.9147 74.2264C29.4167 74.7 28.9055 75.1668 28.4008 75.6267L25.9773 77.8508C25.7847 78.0224 25.5457 78.1117 25.3133 78.1117ZM32.8229 70.5402C32.6171 70.5402 32.4046 70.4715 32.232 70.3342C31.7871 69.9979 31.7008 69.3526 32.0262 68.8927C32.9159 67.6571 33.7193 66.1744 34.4962 64.369C34.7153 63.8473 35.3062 63.6139 35.8109 63.8473C36.3155 64.0807 36.5412 64.6848 36.3155 65.2065C35.4789 67.156 34.5958 68.7623 33.6197 70.1214C33.4272 70.396 33.1217 70.5402 32.8229 70.5402ZM37.3115 60.7583C37.1986 60.7583 37.0857 60.7377 36.9728 60.6965C36.4549 60.5043 36.1893 59.914 36.3752 59.3786C36.6342 58.6303 36.8998 57.8821 37.172 57.1476C37.4841 56.2964 37.7829 55.4452 38.0684 54.6009L38.1813 54.2851C38.3672 53.7497 38.9382 53.4751 39.4561 53.6605C39.974 53.8527 40.2463 54.443 40.0603 54.9784L39.9475 55.2942C39.6487 56.1523 39.3499 57.0103 39.0312 57.8752C38.7656 58.6029 38.5066 59.3374 38.2477 60.0787C38.095 60.4975 37.7165 60.7583 37.3115 60.7583ZM41.0297 50.5989C40.8903 50.5989 40.7509 50.5715 40.6181 50.5097C40.1201 50.2763 39.8943 49.6653 40.1267 49.1436C40.8372 47.5305 41.5941 46.137 42.4507 44.8739C42.5901 44.668 42.7295 44.4689 42.869 44.2767C43.1943 43.8168 43.8185 43.7207 44.2633 44.0571C44.7082 44.3934 44.8012 45.0387 44.4758 45.4986C44.343 45.684 44.2102 45.8693 44.0841 46.0615C43.3006 47.2147 42.5967 48.5052 41.9394 50.0017C41.7668 50.3792 41.4082 50.5989 41.0297 50.5989ZM47.145 41.8536C46.8794 41.8536 46.6138 41.7438 46.4213 41.531C46.0428 41.1191 46.0627 40.467 46.4611 40.0757C47.7625 38.7989 49.1967 37.6388 50.7239 36.6091C51.182 36.3002 51.7995 36.4307 52.1049 36.9112C52.4037 37.3848 52.2776 38.0232 51.8128 38.339C50.3919 39.3 49.0506 40.3915 47.8289 41.579C47.6364 41.7575 47.3907 41.8536 47.145 41.8536ZM55.883 35.9296C55.4979 35.9296 55.1327 35.6962 54.9667 35.3118C54.7476 34.7901 54.98 34.186 55.4846 33.9595C57.0981 33.2318 58.8112 32.614 60.584 32.1198C61.1152 31.9756 61.6596 32.2983 61.8057 32.8474C61.9451 33.3966 61.6331 33.9595 61.1019 34.1105C59.4287 34.5773 57.8085 35.1607 56.288 35.8472C56.1552 35.9021 56.0158 35.9296 55.883 35.9296Z" fill="#1E1E1E"/>
<path d="M20.5585 84.4612C20.4987 84.4612 20.4456 84.4543 20.3858 84.4474C19.8413 84.3513 19.4827 83.8159 19.5757 83.2599C19.7417 82.2577 20.1401 81.3104 20.7842 80.3493C21.0963 79.8826 21.7205 79.7659 22.1721 80.0954C22.6236 80.418 22.7365 81.0632 22.4177 81.53C21.9396 82.2371 21.6541 82.9167 21.5346 83.6168C21.4483 84.1111 21.0299 84.4612 20.5585 84.4612Z" fill="#1E1E1E"/>
<path d="M91.9894 60.4079C94.4461 61.1562 94.4461 61.1562 96.5443 59.948C96.8962 59.9 97.268 59.8519 97.6531 59.797C104.983 58.8085 117.659 57.1061 125.567 56.0421C125.799 56.0078 126.032 55.9804 126.251 55.9529C130.626 56.2893 132.725 53.4748 131.775 48.4363C131.749 48.2098 131.715 47.9833 131.689 47.7499C130.533 38.5652 128.555 22.8456 127.293 12.8235C127.247 12.4803 127.207 12.1371 127.16 11.8076C127.154 11.5399 127.16 11.2378 127.16 10.9221C126.762 6.08947 124.04 3.9203 118.781 4.57929C118.495 4.62048 118.203 4.66167 117.898 4.70285C115.773 5.00489 113.283 5.30692 111.53 5.45794C111.265 5.49227 111.006 5.52659 110.74 5.56777C106.199 6.17871 101.312 6.8377 97.0489 7.40745C95.9533 7.5516 94.9042 7.69576 93.9083 7.83305C93.7556 7.87423 93.5431 7.91542 93.2908 7.96347C93.0385 8.01152 92.7397 8.06644 92.4276 8.12822C90.2697 8.46458 82.7202 6.94753 86.1596 14.7181C86.1795 14.9995 86.2061 15.2604 86.2327 15.4869C86.3323 16.2763 86.4385 17.1275 86.5514 18.0268C87.9059 28.7902 90.1236 46.4044 91.2258 55.2047C91.2789 55.6166 91.3254 56.0078 91.3785 56.3785C91.4051 56.4883 91.7171 58.987 91.9363 60.0441C91.9694 60.2844 91.9894 60.4079 91.9894 60.4079Z" fill="#F7C300"/>
<path d="M126.59 24.3694C126.37 22.6259 125.939 21.1569 125.72 19.4133C125.467 17.4157 124.976 15.4525 124.724 13.4618C123.98 9.50103 123.449 5.26565 122.46 1.33918C122.001 -0.376931 120.308 -0.150404 117.931 0.42621C117.446 0.487991 117.207 0.522313 116.723 0.590958L86.1265 4.95675C85.6418 5.01853 85.7414 5.76676 85.7414 5.76676C85.7414 5.76676 85.7547 5.89032 85.8344 6.00702L85.7746 6.01388C85.2899 6.07566 85.3563 6.57677 85.3895 6.82389C85.4227 7.07101 85.4493 7.32499 85.934 7.25635L118.947 2.56106C119.186 2.52673 119.186 2.52674 119.432 2.49928C119.671 2.46495 120.156 2.40317 120.395 2.36885C120.634 2.33453 120.906 2.55419 120.939 2.80131C120.999 3.30242 121.065 3.79666 121.158 4.54489C121.191 4.79201 121.218 5.04599 121.251 5.29311L125.627 30.3209C126.337 34.0277 127.048 37.7345 127.519 41.4757C127.805 43.7204 128.05 45.7179 128.303 47.7086C128.303 47.7086 128.336 47.9557 128.362 48.2097C128.422 48.6834 128.442 49.0472 128.422 49.3973C128.369 49.4316 128.336 49.4865 128.276 49.4934C127.825 49.8091 127.101 49.9052 126.616 49.967C126.377 50.0013 126.377 50.0013 126.131 50.0288L124.471 50.5024C115.879 52.4176 107.228 53.8386 98.8152 55.2183C96.644 55.5135 94.4728 55.8018 92.3015 56.097C92.0625 56.1313 92.0625 56.1313 91.8168 56.1588C91.5778 56.1931 91.3321 56.2205 91.0931 56.2549L90.3694 56.351C90.1303 56.3853 89.8581 56.1656 89.8249 55.9185C89.8249 55.9185 89.8249 55.9185 89.7917 55.6714C89.4265 54.7035 89.3336 53.9553 89.234 53.207C89.1742 52.7059 89.141 52.4588 89.0746 51.9577C88.5434 47.7155 87.7334 43.2604 86.9631 39.0525C85.2235 29.1402 83.6964 18.9465 82.4149 8.72534C82.3551 8.22424 81.6314 8.3272 81.6314 8.3272C81.5982 8.08008 81.1467 8.38898 81.2131 8.89009C81.233 9.05483 81.2595 9.21958 81.2795 9.39119C81.2795 9.39119 81.2795 9.39119 81.2728 9.39119C81.0338 9.42552 80.7881 9.45297 80.8545 9.95408C82.4547 22.6739 84.5064 35.078 86.5249 47.235C87.1424 50.1935 87.5474 53.4404 88.1649 56.399L88.1981 56.6461C88.2911 57.3944 88.3841 58.1426 88.9285 58.575C89.473 59.0075 90.4358 58.8771 91.1595 58.781C91.3985 58.7467 91.6442 58.7192 91.6442 58.7192C97.6731 57.9092 103.676 56.8452 109.465 56.0695C116.67 54.8476 122.154 53.6052 127.187 52.6716C127.911 52.5755 128.847 52.198 129.02 51.6625C129.212 51.4017 129.285 51.0447 129.299 50.674C129.325 50.6466 129.352 50.6329 129.372 50.6054C129.79 50.0425 129.664 49.0472 129.571 48.2989L129.511 47.7978C129.405 45.0246 129.033 42.0317 128.947 37.4737C128.176 33.0324 127.366 28.5774 126.59 24.3694Z" fill="#1E1E1E"/>
<path d="M113.948 11.6153C113.888 11.1142 113.37 10.9289 112.647 11.0318C112.407 11.0661 112.162 11.0936 111.956 11.375C111.956 11.375 111.504 11.6908 111.538 11.9379C111.538 11.9379 111.325 12.2194 111.086 12.2537C110.847 12.288 110.329 12.1027 109.785 11.6702C109.513 11.4506 109.273 11.4849 109.24 11.2378C108.729 11.0524 108.244 11.1211 107.76 11.1828C107.76 11.1828 107.521 11.2172 107.547 11.4643C107.335 11.7457 107.096 11.78 106.857 11.8075C106.372 11.8693 106.1 11.6565 105.588 11.4711L105.349 11.5055C104.838 11.3201 104.32 11.1348 103.596 11.2309C103.112 11.2927 102.66 11.6084 102.242 12.1713C102.275 12.4184 102.029 12.4528 101.824 12.7342C101.585 12.7685 101.585 12.7685 101.339 12.796C101.1 12.8303 100.828 12.6106 100.555 12.3978L100.283 12.1782C99.7719 11.9928 99.254 11.8075 98.8025 12.1233C98.5635 12.1576 98.351 12.439 98.1385 12.7205C97.926 13.0019 97.687 13.0362 97.4745 13.3177C97.2355 13.352 97.023 13.6335 96.7508 13.4138C96.7508 13.4138 96.5118 13.4481 96.4786 13.1941C96.2395 13.2284 96.2063 12.9745 95.9673 13.0088C95.7283 13.0431 95.456 12.8234 95.2104 12.8578C94.7257 12.9195 94.2476 12.9882 93.7961 13.304C93.5571 13.3383 93.5836 13.5854 93.3446 13.6197C93.1321 13.9012 92.6806 14.2169 92.4748 14.4984C92.2357 14.5327 91.9901 14.5602 91.7178 14.3474L91.4124 13.8806C91.1402 13.6609 91.107 13.4138 90.8679 13.4481C90.5957 13.2284 90.3567 13.2628 90.111 13.2971C89.3873 13.3932 88.7897 14.4915 88.3979 15.3015L88.2187 15.8301C88.0062 16.1115 88.3116 16.5783 88.3448 16.8254C88.5838 16.7911 88.8561 17.0108 89.0686 16.7293C89.0686 16.7293 89.281 16.4479 89.4869 16.1664C89.6993 15.885 89.9052 15.6035 90.1176 15.3221C90.0844 15.075 90.3301 15.0407 90.5691 15.0063C90.8082 14.972 91.0539 14.9446 91.0804 15.1917C91.3858 15.6585 91.6581 15.8781 92.1693 16.0566C92.9263 16.2076 93.6168 15.8644 94.4866 14.9857L94.6991 14.7043C95.3631 14.1071 95.6021 14.0728 96.3856 14.4778C96.8969 14.6631 97.4148 14.8485 97.6206 14.567C97.8597 14.5327 97.8331 14.2856 98.0389 14.0041C98.2514 13.7227 98.4572 13.4412 98.9087 13.1255C99.3603 12.8097 99.9047 13.2422 100.177 13.4618C100.416 13.4275 100.449 13.6815 100.688 13.6472C101.199 13.8325 101.717 14.0179 101.956 13.9835C102.195 13.9492 102.408 13.6678 102.62 13.3863C102.833 13.1049 103.072 13.0706 103.039 12.8234C103.457 12.2606 103.729 12.4802 103.975 12.4459C104.214 12.4116 104.486 12.6312 104.732 12.5969C104.732 12.5969 104.971 12.5626 105.004 12.8166C105.515 13.0019 106.033 13.1873 106.511 13.1186C106.75 13.0843 106.963 12.8029 107.202 12.7685C107.414 12.4871 107.892 12.4253 108.138 12.391C108.623 12.3292 109.134 12.5077 109.439 12.9745C109.679 12.9401 109.712 13.1941 109.951 13.1598C110.462 13.3451 110.947 13.2765 111.186 13.249C111.186 13.249 111.398 12.9676 111.637 12.9333C112.089 12.6175 112.746 12.0203 113.297 12.4596C113.569 12.6793 113.569 12.6793 113.808 12.645C114.048 12.6106 114.26 12.3292 114.227 12.0821C114.22 11.835 114.194 11.581 113.948 11.6153Z" fill="#1E1E1E"/>
<path d="M90.6224 23.1199C90.5892 22.8728 90.8017 22.5914 91.2532 22.2756C91.4656 21.9941 91.9769 22.1795 92.4882 22.3648C93.2717 22.763 93.9954 22.6669 94.4469 22.358C94.6594 22.0765 94.8984 22.0422 95.1109 21.7608C95.1109 21.7608 95.1109 21.7608 95.3234 21.4793C95.2902 21.2322 95.5358 21.1979 95.7749 21.1635C96.2596 21.1018 96.5318 21.3146 97.2821 21.4656C97.2821 21.4656 97.5211 21.4313 97.5543 21.6852C98.0656 21.8706 98.8225 22.0216 99.2741 21.7058C99.5131 21.6715 99.7256 21.3901 99.9646 21.3626C99.9646 21.3626 99.9646 21.3626 100.177 21.0812L100.39 20.7997C100.602 20.5183 100.841 20.484 101.113 20.7036C101.113 20.7036 101.113 20.7036 101.386 20.9233C101.386 20.9233 101.897 21.1086 102.142 21.0743C102.381 21.04 102.627 21.0125 103.105 20.9439C103.344 20.9096 103.557 20.6281 103.769 20.3467C103.736 20.0996 103.982 20.0652 103.982 20.0652C104.221 20.0309 104.221 20.0309 104.466 20.0035C104.705 19.9691 104.739 20.2231 104.978 20.1888C105.217 20.1545 105.489 20.3741 105.462 20.127C105.701 20.0927 105.642 19.5984 105.847 19.317C105.814 19.0699 105.814 19.0699 105.542 18.8502C104.513 18.4795 103.763 18.3285 103.338 18.8914L103.125 19.1729C103.158 19.42 102.913 19.4543 102.674 19.4886C102.435 19.5229 102.435 19.5229 102.162 19.3033C102.162 19.3033 101.379 18.9051 101.133 18.9326C100.648 18.9944 100.409 19.0287 100.197 19.3101C99.958 19.3445 99.9845 19.5916 99.7455 19.6259C99.7455 19.6259 99.5064 19.6602 99.533 19.9074C99.5662 20.1545 99.3205 20.1888 99.0815 20.2231C98.8425 20.2574 98.8425 20.2574 98.5968 20.2849C98.3578 20.3192 98.0855 20.0996 97.8399 20.1339C97.6008 20.1682 97.5676 19.9142 97.3286 19.9485C96.5717 19.7975 95.8214 19.6465 95.3964 20.2094C95.1839 20.4908 94.9781 20.7723 94.7656 21.0537L94.5531 21.3352C94.3407 21.6166 94.1016 21.6509 93.8626 21.6784C93.8626 21.6784 93.8626 21.6784 93.5904 21.4587C93.0791 21.2734 92.5612 21.088 92.0831 21.1567C91.8441 21.191 91.5984 21.2185 91.1469 21.5342C90.4564 21.8774 90.0381 22.4472 89.8854 23.2229C89.7061 23.7514 89.9451 23.724 90.2174 23.9368C89.9584 23.7171 90.4431 23.6553 90.6224 23.1199Z" fill="#1E1E1E"/>
<path d="M118.86 23.3808C118.05 24.7605 117.028 24.3898 116.271 24.2388C115.999 24.0191 115.514 24.0878 115.275 24.1221C115.036 24.1564 114.551 24.2182 114.339 24.4997C114.339 24.4997 114.126 24.7811 113.887 24.8154C113.675 25.0969 113.469 25.3783 113.223 25.4126C112.984 25.447 112.712 25.2273 112.44 25.0145C112.167 24.7948 111.928 24.8292 111.895 24.582C111.656 24.6164 111.384 24.3967 111.171 24.6781C110.932 24.7125 110.72 24.9939 110.508 25.2753C109.877 26.1197 109.399 26.1883 108.821 25.5019L108.549 25.2822C107.732 24.6301 107.281 24.9459 107.042 24.9802C106.802 25.0145 106.59 25.2959 106.378 25.5774C106.165 25.8588 105.959 26.1403 105.992 26.3874C105.753 26.4217 105.541 26.7032 105.508 26.4492C105.508 26.4492 105.269 26.4835 105.235 26.2295C104.996 26.2638 104.963 26.0098 104.724 26.0442C104.213 25.8588 103.695 25.6735 103.217 25.7421C102.978 25.7764 102.765 26.0579 102.281 26.1197C101.59 26.4629 100.475 27.3759 99.3261 26.0098C99.0538 25.7902 98.5691 25.8588 98.3301 25.8931C97.8786 26.2089 97.6993 26.7375 97.52 27.2729C97.3076 27.5543 97.3408 27.8015 97.1349 28.0829C96.9225 28.3644 96.7166 28.6458 96.2319 28.7144C95.7472 28.7762 95.475 28.5634 95.2027 28.3438C94.8973 27.877 94.6251 27.6573 94.147 27.726C93.908 27.7603 93.8748 27.5063 93.3901 27.5749C92.6663 27.671 91.7633 28.3026 90.9001 31.2062C90.9333 31.4534 90.9599 31.7073 90.9931 31.9545C91.2653 32.1741 91.5376 32.3869 91.75 32.1055C91.75 32.1055 91.9891 32.0712 92.2016 31.7897C92.3808 31.2612 92.5867 30.9797 92.7659 30.4443C92.7327 30.1972 92.9452 29.9157 92.9452 29.9157C92.9452 29.9157 92.912 29.6686 93.1577 29.6343C93.1245 29.3872 93.337 29.1057 93.576 29.0714C94.0607 29.0096 94.0873 29.2567 94.3595 29.4695C94.9372 30.156 95.4484 30.3345 95.9663 30.5198C96.7233 30.6708 97.3806 30.0736 97.5931 29.7922C97.8056 29.5107 98.0114 29.2293 98.1907 28.7007C98.4031 28.4193 98.3699 28.1721 98.5758 27.8907C98.5426 27.6436 98.7882 27.6093 99.0273 27.5749C99.2663 27.5406 99.2663 27.5406 99.5385 27.7603C100.083 28.1927 100.84 28.3438 101.318 28.282C101.803 28.2202 102.281 28.1516 102.732 27.8358C102.971 27.8015 102.945 27.5543 102.945 27.5543C103.396 27.2386 103.848 26.9228 104.631 27.3278C105.694 27.9456 106.411 27.8495 107.075 27.2523C107.314 27.218 107.287 26.9709 107.493 26.6894C107.46 26.4423 107.706 26.408 107.945 26.3737C108.184 26.3393 108.429 26.3119 108.456 26.559C108.728 26.7787 109 26.9915 109.239 26.9571C109.996 27.1082 111.198 26.9503 111.59 26.1334C111.557 25.8863 111.802 25.852 112.008 25.5705C112.247 25.5362 112.493 25.5087 112.519 25.7559C112.792 25.9755 112.792 25.9755 113.064 26.1883C113.575 26.3737 113.821 26.3393 114.299 26.2776C114.538 26.2432 114.511 25.9961 114.75 25.9618C114.963 25.6803 115.169 25.3989 115.653 25.3303C116.138 25.2685 116.649 25.447 116.888 25.4195C117.127 25.3852 117.4 25.6048 117.4 25.6048C118.396 25.7215 119.538 25.0625 120.168 24.2182C120.381 23.9368 120.348 23.6897 120.348 23.6897C119.803 23.2572 119.531 23.0375 119.285 23.0719C119.312 23.065 119.073 23.0993 118.86 23.3808Z" fill="#1E1E1E"/>
<path d="M110.714 34.6249C110.926 34.3434 111.165 34.3091 111.378 34.0277C111.617 33.9934 111.862 33.9659 111.889 34.213C111.889 34.213 111.889 34.213 112.128 34.1787C113.124 34.2954 114.06 33.9178 114.963 33.2932C115.415 32.9774 115.109 32.5106 114.837 32.2978C114.565 32.0782 114.326 32.1125 114.113 32.3939C113.662 32.7097 113.243 33.2726 112.247 33.149C112.008 33.1833 111.763 33.2108 111.736 32.9637C111.497 32.998 111.225 32.7783 110.979 32.8127C110.74 32.847 110.528 33.1284 110.315 33.4099L110.103 33.6913C109.89 33.9728 109.651 34.0071 109.379 33.7874L109.107 33.5678C108.29 32.9156 107.566 33.0117 106.63 33.3961L106.391 33.4305C106.179 33.7119 105.701 33.7737 105.216 33.8423C104.977 33.8767 104.705 33.657 104.459 33.6913C104.22 33.7256 103.948 33.506 103.948 33.506C103.224 33.6021 102.772 33.9178 102.175 35.0093L101.962 35.2907C101.75 35.5722 101.365 36.3822 100.854 36.2037C100.614 36.238 100.342 36.0184 100.07 35.8056L99.7978 35.5859C99.0408 35.4349 98.5893 35.7507 97.932 36.341L97.7195 36.6224C96.8165 37.254 95.462 38.1944 93.9548 37.8924L93.7157 37.9267C93.7157 37.9267 93.4767 37.961 93.5032 38.2081C93.2908 38.4896 93.324 38.7367 93.3572 38.9907C93.3904 39.2378 93.6294 39.2103 93.9016 39.4231C94.8976 39.5398 96.1061 39.382 97.0091 38.7504C97.4606 38.4347 97.9121 38.1189 98.3636 37.81C98.5761 37.5285 98.8151 37.4942 99.0276 37.2128C99.2401 36.9313 99.4791 36.897 99.7513 37.1167L100.024 37.3363C100.057 37.5835 100.329 37.8031 100.807 37.7345C101.318 37.9198 101.77 37.6041 102.255 37.5423C102.467 37.2608 102.919 36.9451 103.091 36.4165C103.091 36.4165 103.058 36.1694 103.304 36.1351C103.516 35.8536 103.662 35.0711 104.658 35.1946C104.897 35.1603 105.143 35.1329 105.415 35.3457C105.654 35.3113 105.9 35.2839 106.172 35.4967C106.411 35.4623 106.657 35.4349 107.108 35.1191C107.347 35.0848 107.56 34.8034 107.799 34.769C107.766 34.5219 108.038 34.7347 108.556 34.9201C109.598 35.531 110.083 35.4692 110.714 34.6249Z" fill="#1E1E1E"/>
<path d="M103.391 42.7116C102.88 42.5263 102.395 42.5949 101.91 42.6567C101.671 42.6911 101.22 43.0068 100.768 43.3157C100.556 43.5972 100.589 43.8443 100.35 43.8786C100.383 44.1257 100.137 44.16 99.8981 44.1944C99.6591 44.2287 99.4134 44.2561 99.3868 44.009C99.1146 43.7894 99.1146 43.7894 98.8423 43.5766C98.5369 43.1098 98.0256 42.9244 97.5076 42.7391C97.0229 42.8009 96.7838 42.8352 96.3655 43.3981C95.914 43.7139 95.4624 44.0296 94.9777 44.0914C94.7386 44.1257 94.2539 44.1875 94.3137 44.6886C94.3469 44.9357 94.3734 45.1897 94.3734 45.1897L94.6457 45.4094C95.3695 45.3133 95.8542 45.2446 96.3323 45.1828C96.5714 45.1485 96.7838 44.8671 97.0229 44.8396C97.0229 44.8396 97.2619 44.8053 97.5076 44.7778C97.7467 44.7435 97.9924 44.7161 98.0189 44.9632C98.3244 45.43 98.5966 45.6496 99.1079 45.8281C99.6193 46.0134 100.137 46.1988 100.589 45.883C101.04 45.5673 101.253 45.2858 101.425 44.7573L101.638 44.4758C101.85 44.1944 102.089 44.16 102.328 44.1326C102.813 44.0708 102.84 44.3179 103.085 44.2836C103.325 44.2493 103.842 44.4346 104.082 44.4003C104.566 44.3385 105.044 44.2699 105.469 43.707C105.708 43.6727 105.682 43.4255 105.682 43.4255C105.649 43.1784 105.649 43.1784 105.376 42.9588C105.044 42.2449 104.799 42.2723 104.593 42.5606C104.38 42.8421 104.141 42.8764 104.141 42.8764C103.902 42.8901 103.63 42.6773 103.391 42.7116Z" fill="#1E1E1E"/>
<path d="M117.985 47.592C119.764 48.1137 122.148 47.5371 123.709 46.3152C125.243 44.8394 125.475 42.78 124.738 40.8511C124.034 39.1693 122.334 37.3708 120.375 37.3777C118.144 37.1718 116.371 38.6751 115.926 41.0159C115.959 41.263 115.959 41.263 115.986 41.517C116.019 41.7641 116.258 41.7366 116.497 41.7023C116.736 41.668 117.188 41.3522 117.161 41.1051L117.128 40.858L117.095 40.6109C117.062 40.3637 117.307 40.3294 117.274 40.0823C117.241 39.8352 117.487 39.8008 117.487 39.8008C117.487 39.8008 117.487 39.8008 117.699 39.5194L117.912 39.238C118.576 38.6408 119.021 38.325 119.744 38.2289C120.229 38.1671 120.979 38.3181 121.524 38.7506C122.068 39.183 122.613 39.6155 123.224 40.5491C123.563 41.263 123.895 41.9837 123.954 42.478C123.988 42.7251 124.047 43.2262 123.841 43.5077C123.875 43.7548 123.695 44.2902 123.483 44.5716C123.065 45.1345 122.646 45.6974 121.71 46.075C121.019 46.425 120.296 46.5211 119.326 46.6516C118.602 46.7477 117.819 46.3495 117.268 45.9102C116.995 45.6906 116.723 45.4778 116.418 45.011L116.384 44.7638C116.351 44.5167 116.351 44.5167 116.351 44.5167L116.318 44.2696C116.318 44.2696 116.464 43.4871 115.953 43.3017L115.714 43.336L115.475 43.3704C115.475 43.3704 115.236 43.4047 115.262 43.6518C114.904 44.7158 115.242 45.4297 115.548 45.8965C115.9 46.6035 116.75 47.5028 117.985 47.592Z" fill="#1E1E1E"/>
<path d="M128.814 125.778C126.743 127.33 126.743 127.33 124.372 126.918C124.02 126.993 123.655 127.076 123.277 127.158C116.046 128.751 103.543 131.51 95.748 133.226C95.5156 133.274 95.2898 133.329 95.0707 133.377C91.0536 135.203 88.1653 133.267 87.4416 128.188C87.3951 127.968 87.3486 127.742 87.3021 127.508C85.4363 118.454 82.236 102.94 80.1975 93.0623C80.1245 92.7191 80.0581 92.3896 79.9983 92.0601C79.9187 91.8061 79.8191 91.5247 79.7128 91.2226C78.5309 86.5342 80.4034 83.5482 85.5758 82.3606C85.8546 82.2988 86.1468 82.2371 86.4522 82.1753C88.5571 81.7291 91.0005 81.1593 92.7003 80.6926C92.9593 80.6376 93.2182 80.5759 93.4838 80.5209C97.959 79.5325 102.78 78.4685 106.983 77.5418C108.058 77.3015 109.101 77.075 110.077 76.8622C110.236 76.8485 110.442 76.8141 110.701 76.773C110.953 76.7318 111.252 76.6768 111.564 76.6288C113.709 76.2032 120.335 72.1738 119.598 80.6857C119.671 80.9534 119.724 81.2143 119.777 81.4408C119.937 82.2233 120.109 83.0608 120.295 83.9463C122.486 94.5588 126.065 111.933 127.858 120.616C127.944 121.021 128.024 121.413 128.097 121.776C128.11 121.893 128.615 124.351 128.754 125.421C128.788 125.655 128.814 125.778 128.814 125.778Z" fill="#F7C300"/>
<path d="M84.5728 103.708C84.2209 101.985 84.1479 100.461 83.796 98.7385C83.391 96.7684 83.225 94.7502 82.8133 92.7801C82.2423 88.7918 81.3791 84.6114 81.0405 80.5682C80.9209 78.7972 82.5875 78.4265 85.0177 78.1451C85.4958 78.0421 85.7282 77.9872 86.2062 77.8842L116.47 71.466C116.949 71.363 117.101 72.0975 117.101 72.0975C117.101 72.0975 117.128 72.221 117.095 72.3583L117.154 72.3446C117.632 72.2416 117.732 72.729 117.785 72.9761C117.838 73.2233 117.885 73.4704 117.413 73.5733L84.772 80.5133C84.533 80.5682 84.533 80.5682 84.294 80.6163C84.0549 80.6712 83.5769 80.7742 83.3445 80.8291C83.1054 80.884 82.9195 81.1792 82.9726 81.4263C83.0722 81.9205 83.1785 82.4079 83.3246 83.1493C83.3777 83.3964 83.4242 83.6435 83.4773 83.8906L87.4147 108.994C87.9392 112.735 88.4638 116.476 89.2207 120.169C89.6789 122.38 90.0839 124.35 90.4889 126.32C90.4889 126.32 90.542 126.567 90.5885 126.814C90.6881 127.281 90.7811 127.631 90.9139 127.954C90.9736 127.967 91.0267 128.002 91.0799 127.995C91.6044 128.139 92.3215 127.981 92.7929 127.871C93.032 127.816 93.032 127.816 93.271 127.768L94.9841 127.645C103.702 126.491 112.314 124.851 120.693 123.258C122.831 122.785 124.976 122.311 127.114 121.844C127.353 121.789 127.353 121.789 127.592 121.741C127.831 121.686 128.07 121.638 128.303 121.583L129.013 121.425C129.252 121.371 129.438 121.075 129.385 120.828C129.385 120.828 129.385 120.828 129.332 120.581C129.365 119.545 129.212 118.81 129.06 118.069C128.96 117.575 128.907 117.334 128.807 116.84C127.944 112.66 127.267 108.177 126.643 103.949C125.089 94.0088 123.243 83.87 121.165 73.7861C121.065 73.2919 121.776 73.134 121.776 73.134C121.723 72.8869 122.254 73.031 122.353 73.5184C122.387 73.6832 122.42 73.8479 122.453 74.0127C122.453 74.0127 122.453 74.0127 122.46 74.0127C122.699 73.9577 122.938 73.9097 123.037 74.3971C125.627 86.9384 127.685 99.3425 129.697 111.499C130.069 114.506 130.726 117.698 131.098 120.705L131.151 120.952C131.304 121.686 131.457 122.428 131.078 123.025C130.706 123.622 129.75 123.835 129.04 123.986C128.801 124.041 128.562 124.089 128.562 124.089C122.612 125.4 116.617 126.464 110.906 127.727C103.715 129.052 98.1446 129.773 93.0983 130.624C92.3879 130.782 91.3853 130.747 91.04 130.308C90.7744 130.13 90.5951 129.821 90.4557 129.471C90.4225 129.45 90.3893 129.45 90.3628 129.429C89.7851 129.045 89.5792 128.057 89.4332 127.322L89.3336 126.828C88.5368 124.178 87.9259 121.226 86.5382 116.902C85.8742 112.419 85.197 107.944 84.5728 103.708Z" fill="#1E1E1E"/>
<path d="M87.1628 85.7576C87.0632 85.2634 87.4881 84.9133 88.1986 84.7554C88.4376 84.7005 88.6767 84.6525 88.9622 84.8447C88.9622 84.8447 89.4867 84.9888 89.5398 85.2291C89.5398 85.2291 89.8253 85.4213 90.0644 85.3732C90.3034 85.3183 90.7284 84.9682 91.1002 84.371C91.2861 84.0758 91.5251 84.0209 91.472 83.7738C91.897 83.4237 92.375 83.3208 92.8465 83.2109C92.8465 83.2109 93.0855 83.156 93.132 83.4031C93.4175 83.5953 93.6565 83.5473 93.8955 83.4924C94.3736 83.3894 94.5595 83.0874 94.9845 82.7373L95.2235 82.6824C95.6484 82.3323 96.0734 81.9822 96.7905 81.8243C97.2686 81.7213 97.7931 81.8586 98.3708 82.2499C98.4239 82.497 98.6563 82.4421 98.9484 82.6343C99.1875 82.5794 99.1875 82.5794 99.4265 82.5313C99.6655 82.4764 99.8514 82.1813 100.037 81.8792L100.223 81.584C100.648 81.234 101.073 80.8839 101.598 81.0212C101.837 80.9662 102.122 81.1653 102.414 81.3575C102.7 81.5497 102.939 81.5017 103.231 81.6939C103.47 81.639 103.756 81.838 103.942 81.536C103.942 81.536 104.181 81.4811 104.127 81.2408C104.367 81.1859 104.313 80.9457 104.552 80.8907C104.791 80.8358 104.977 80.5407 105.216 80.4857C105.694 80.3828 106.166 80.2729 106.697 80.4171C106.936 80.3622 106.983 80.6093 107.222 80.5612C107.507 80.7535 108.038 80.8976 108.324 81.0898C108.563 81.0349 108.802 80.9868 108.988 80.6848L109.127 80.1425C109.313 79.8473 109.267 79.6002 109.499 79.5453C109.685 79.2501 109.924 79.1952 110.163 79.1403C110.874 78.9824 111.796 79.8062 112.421 80.4446L112.759 80.8839C113.045 81.0761 112.912 81.6184 112.965 81.8655C112.726 81.9204 112.54 82.2156 112.255 82.0234C112.255 82.0234 111.969 81.8312 111.677 81.639C111.391 81.4468 111.099 81.2546 110.814 81.0555C110.761 80.8084 110.528 80.8633 110.289 80.9113C110.05 80.9663 109.811 81.0143 109.864 81.2614C109.725 81.8037 109.539 82.1058 109.114 82.4558C108.45 82.8608 107.686 82.7716 106.584 82.243L106.299 82.0508C105.482 81.7145 105.243 81.7694 104.632 82.4147C104.207 82.7647 103.782 83.1148 103.49 82.9226C103.251 82.9775 103.205 82.7304 102.912 82.5382C102.627 82.346 102.335 82.1538 101.81 82.0096C101.286 81.8655 100.907 82.4627 100.721 82.7647C100.482 82.8197 100.535 83.0599 100.296 83.1148C99.8714 83.4649 99.4464 83.815 99.2074 83.8699C98.9684 83.9248 98.6828 83.7258 98.3907 83.5336C98.1052 83.3414 97.8661 83.3894 97.813 83.1491C97.2354 82.7647 97.0494 83.0599 96.8104 83.1148C96.5714 83.1697 96.3855 83.4649 96.1464 83.5198C96.1464 83.5198 95.9074 83.5747 95.9605 83.815C95.5356 84.1651 95.1106 84.5152 94.6326 84.625C94.3935 84.6799 94.108 84.4809 93.869 84.5358C93.5835 84.3436 93.1054 84.4465 92.8664 84.5014C92.3883 84.6044 91.9634 84.9545 91.8306 85.5037C91.5915 85.5586 91.6446 85.7988 91.4056 85.8537C90.9807 86.2038 90.5026 86.3068 90.2636 86.3617C90.2636 86.3617 89.9781 86.1695 89.739 86.2176C89.2145 86.0734 88.3978 85.7439 88.026 86.3411C87.84 86.6363 87.84 86.6363 87.601 86.6912C87.362 86.7461 87.0765 86.5471 87.0233 86.3068C86.9769 86.0597 86.9237 85.8126 87.1628 85.7576Z" fill="#1E1E1E"/>
<path d="M104.174 91.0308C104.121 90.7837 103.835 90.5915 103.311 90.4474C103.025 90.2552 102.6 90.6052 102.169 90.9553C101.558 91.6075 100.841 91.7585 100.316 91.6212C100.031 91.429 99.7917 91.477 99.4995 91.2848C99.4995 91.2848 99.4995 91.2848 99.214 91.0926C99.1609 90.8455 98.9285 90.9004 98.6894 90.9485C98.2114 91.0514 98.0255 91.3535 97.3615 91.7585C97.3615 91.7585 97.1224 91.8134 97.1756 92.0536C96.7506 92.4037 96.0866 92.8087 95.5621 92.6646C95.3231 92.7195 95.0375 92.5204 94.7985 92.5753C94.7985 92.5753 94.7985 92.5753 94.513 92.3831L94.2275 92.1909C93.942 91.9987 93.703 92.0468 93.5104 92.3488C93.5104 92.3488 93.5104 92.3488 93.3245 92.644C93.3245 92.644 92.8995 92.9941 92.6605 93.049C92.4215 93.1039 92.1824 93.152 91.711 93.2618C91.472 93.3167 91.1865 93.1176 90.8943 92.9254C90.8412 92.6783 90.6088 92.7332 90.6088 92.7332C90.3698 92.7881 90.3698 92.7881 90.1307 92.8362C89.8917 92.8911 89.9448 93.1314 89.7058 93.1863C89.4667 93.2412 89.2808 93.5364 89.2277 93.2892C88.9887 93.3442 88.8891 92.8499 88.5969 92.6577C88.5438 92.4106 88.5438 92.4106 88.7364 92.1154C89.5863 91.4152 90.2502 91.0103 90.8279 91.3947L91.1134 91.5869C91.1665 91.834 91.3989 91.7791 91.638 91.731C91.877 91.6761 91.877 91.6761 92.0629 91.3809C92.0629 91.3809 92.6738 90.7288 92.9128 90.6808C93.3909 90.5778 93.6233 90.5229 93.9154 90.7151C94.1545 90.6602 94.2009 90.9073 94.44 90.8592C94.44 90.8592 94.679 90.8043 94.7255 91.0514C94.7786 91.2986 95.011 91.2436 95.25 91.1956C95.4891 91.1407 95.4891 91.1407 95.7281 91.0926C95.9671 91.0377 96.153 90.7425 96.3921 90.6876C96.6311 90.6327 96.578 90.3924 96.817 90.3375C97.481 89.9325 98.145 89.5275 98.7226 89.9188C99.0082 90.111 99.3003 90.3032 99.5858 90.5023L99.8713 90.6945C100.157 90.8867 100.396 90.8386 100.635 90.7837C100.635 90.7837 100.635 90.7837 100.821 90.4885C101.246 90.1385 101.671 89.7884 102.149 89.6785C102.388 89.6236 102.627 89.5756 103.151 89.7129C103.915 89.8021 104.493 90.1865 104.884 90.873C105.223 91.3123 104.984 91.3672 104.798 91.6624C104.991 91.3672 104.513 91.4702 104.174 91.0308Z" fill="#1E1E1E"/>
<path d="M90.9148 98.2521C92.1233 99.2749 92.9732 98.5679 93.6305 98.1698C93.8164 97.8746 94.2945 97.7648 94.5335 97.7167C94.7726 97.6618 95.244 97.5588 95.5361 97.751C95.5361 97.751 95.8217 97.9432 96.0607 97.8952C96.3462 98.0874 96.6383 98.2796 96.8774 98.2315C97.1164 98.1766 97.3023 97.8815 97.4882 97.5794C97.6742 97.2842 97.9132 97.2293 97.8601 96.9822C98.0991 96.9273 98.285 96.6321 98.5705 96.8243C98.8096 96.7694 99.0951 96.9685 99.3872 97.1607C100.25 97.7442 100.728 97.6343 101.054 96.7969L101.24 96.5017C101.804 95.6093 102.329 95.7466 102.568 95.6917C102.807 95.6368 103.092 95.8358 103.384 96.0281C103.67 96.2203 103.962 96.4125 104.015 96.6596C104.254 96.6047 104.54 96.8037 104.493 96.5566C104.493 96.5566 104.732 96.5017 104.679 96.2614C104.918 96.2065 104.865 95.9663 105.104 95.9114C105.529 95.5613 105.954 95.2112 106.432 95.1013C106.671 95.0464 106.957 95.2455 107.435 95.1357C108.198 95.2249 109.539 95.6986 110.19 94.0168C110.376 93.7216 110.854 93.6118 111.093 93.5637C111.618 93.7079 111.956 94.1472 112.302 94.5865C112.587 94.7787 112.64 95.0258 112.932 95.218C113.218 95.4102 113.51 95.6025 113.988 95.4995C114.466 95.3965 114.652 95.0945 114.838 94.7993C114.978 94.257 115.163 93.955 115.635 93.852C115.874 93.7971 115.821 93.5568 116.299 93.447C117.009 93.2891 118.065 93.5706 119.811 96.0143C119.864 96.2614 119.911 96.5086 119.964 96.7488C119.778 97.044 119.592 97.346 119.3 97.1538C119.3 97.1538 119.061 97.2087 118.775 97.0097C118.437 96.5703 118.145 96.3781 117.806 95.9388C117.753 95.6917 117.467 95.4995 117.467 95.4995C117.467 95.4995 117.414 95.2524 117.182 95.3073C117.129 95.0602 116.843 94.868 116.604 94.9229C116.126 95.0258 116.179 95.273 115.993 95.575C115.668 96.4193 115.243 96.7694 114.818 97.1195C114.154 97.5245 113.337 97.1881 113.052 96.9959C112.766 96.8037 112.474 96.6115 112.136 96.1722C111.85 95.98 111.797 95.7329 111.505 95.5407C111.452 95.2935 111.219 95.3485 110.98 95.3965C110.741 95.4446 110.741 95.4514 110.555 95.7466C110.184 96.3438 109.52 96.7488 109.042 96.8518C108.563 96.9548 108.092 97.0646 107.561 96.9204C107.322 96.9753 107.275 96.7282 107.275 96.7282C106.751 96.5841 106.22 96.4468 105.609 97.092C104.812 98.0393 104.095 98.1972 103.278 97.8609C103.039 97.9158 102.993 97.6687 102.7 97.4765C102.647 97.2293 102.415 97.2842 102.176 97.3323C101.937 97.3872 101.698 97.4353 101.751 97.6824C101.565 97.9776 101.379 98.2796 101.14 98.3345C100.476 98.7395 99.2876 99.0004 98.6569 98.3688C98.6037 98.1217 98.3713 98.1766 98.0792 97.9844C97.8401 98.0393 97.6011 98.0874 97.6542 98.3345C97.4683 98.6297 97.4683 98.6297 97.2824 98.9317C96.8575 99.2818 96.6184 99.3367 96.1404 99.4397C95.9013 99.4946 95.8549 99.2475 95.6158 99.2955C95.3303 99.1033 95.0381 98.9111 94.5601 99.0141C94.082 99.1171 93.6571 99.4671 93.418 99.5221C93.179 99.577 92.9931 99.8721 92.9931 99.8721C92.0901 100.325 90.8019 100.099 89.9321 99.5152C89.6466 99.323 89.5935 99.0759 89.5935 99.0759C89.9653 98.4787 90.1579 98.1835 90.3903 98.1286C90.3903 98.108 90.6293 98.0599 90.9148 98.2521Z" fill="#1E1E1E"/>
<path d="M92.9068 104.685C93.3318 104.335 93.8099 104.232 94.2813 104.122C94.5204 104.067 95.045 104.211 95.5696 104.348C95.8551 104.54 95.9082 104.788 96.1473 104.733C96.2004 104.98 96.4328 104.925 96.6719 104.877C96.9109 104.829 97.15 104.774 97.0968 104.527C97.2828 104.232 97.2828 104.232 97.4687 103.93C97.6081 103.387 98.0331 103.037 98.4581 102.68C98.9362 102.577 99.1753 102.522 99.7463 102.907C100.271 103.051 100.802 103.188 101.274 103.085C101.513 103.03 101.984 102.927 102.09 103.422C102.143 103.669 102.19 103.916 102.19 103.916L102.004 104.211C101.287 104.369 100.815 104.472 100.337 104.575C100.098 104.63 99.8127 104.431 99.5737 104.486C99.5737 104.486 99.3346 104.54 99.0956 104.589C98.8565 104.643 98.6175 104.691 98.6706 104.939C98.5311 105.481 98.3452 105.783 97.9202 106.133C97.4953 106.483 97.0703 106.833 96.5457 106.696C96.0211 106.552 95.7289 106.36 95.3903 105.92L95.1047 105.728C94.8192 105.536 94.5802 105.584 94.3411 105.639C93.863 105.742 93.9161 105.989 93.6771 106.044C93.438 106.099 93.0131 106.449 92.774 106.497C92.2959 106.6 91.8244 106.71 91.2467 106.318C91.0077 106.373 90.9612 106.126 90.9612 106.126C90.9081 105.879 90.9081 105.879 91.1006 105.584C91.187 104.794 91.426 104.74 91.7116 104.932C91.9971 105.124 92.2361 105.076 92.2361 105.076C92.4818 105.042 92.6678 104.74 92.9068 104.685Z" fill="#1E1E1E"/>
<path d="M100.171 122.642C98.6571 123.747 96.2267 124.029 94.3608 123.411C92.4417 122.546 91.5586 120.686 91.6316 118.613C91.7511 116.787 92.7737 114.501 94.6264 113.835C96.665 112.874 98.8231 113.684 99.9918 115.736C100.045 115.983 100.045 115.983 100.091 116.231C100.144 116.478 99.9054 116.526 99.6664 116.581C99.4273 116.636 98.9027 116.491 98.8496 116.244L98.7965 115.997L98.7434 115.75C98.6903 115.503 98.4578 115.558 98.4047 115.311C98.3516 115.064 98.1192 115.119 98.1192 115.119C98.1192 115.119 98.1192 115.119 97.8337 114.926L97.5481 114.734C96.7314 114.398 96.2068 114.26 95.4896 114.418C95.0115 114.521 94.3475 114.926 93.9756 115.524C93.6038 116.121 93.2253 116.718 92.953 117.803C92.8667 118.592 92.7804 119.381 92.88 119.876C92.9331 120.123 93.0327 120.617 93.3183 120.809C93.3714 121.056 93.71 121.496 93.9956 121.688C94.5733 122.072 95.151 122.463 96.1537 122.498C96.9173 122.587 97.6345 122.429 98.584 122.216C99.3012 122.058 99.9121 121.406 100.284 120.816C100.47 120.521 100.656 120.219 100.795 119.677L100.742 119.429C100.689 119.182 100.689 119.182 100.689 119.182L100.636 118.935C100.636 118.935 100.244 118.249 100.669 117.899L100.908 117.844L101.147 117.789C101.147 117.789 101.386 117.734 101.433 117.981C102.11 118.86 102.024 119.649 101.891 120.191C101.824 120.994 101.313 122.134 100.171 122.642Z" fill="#1E1E1E"/>
<path d="M80.2437 197.692C82.2356 199.36 82.2356 199.36 84.6193 199.079C84.9646 199.175 85.3231 199.278 85.7016 199.381C92.8394 201.378 105.176 204.831 112.872 206.987C113.097 207.048 113.323 207.11 113.542 207.172C117.46 209.218 120.441 207.447 121.43 202.422C121.49 202.202 121.543 201.982 121.603 201.756C123.947 192.818 127.951 177.511 130.507 167.756C130.593 167.42 130.68 167.09 130.759 166.768C130.852 166.514 130.965 166.239 131.091 165.944C132.519 161.324 130.806 158.242 125.706 156.766C125.428 156.691 125.142 156.615 124.843 156.533C122.765 155.97 120.355 155.263 118.682 154.707C118.429 154.638 118.17 154.563 117.911 154.494C113.496 153.259 108.735 151.927 104.585 150.767C103.523 150.472 102.494 150.183 101.531 149.909C101.378 149.881 101.166 149.84 100.913 149.785C100.661 149.73 100.369 149.662 100.057 149.593C97.9387 149.051 91.5313 144.65 91.8235 153.197C91.7372 153.464 91.6708 153.712 91.6044 153.938C91.4052 154.707 91.1861 155.537 90.9603 156.409C88.2181 166.884 83.7296 184.032 81.4853 192.599C81.3791 193.004 81.2795 193.381 81.1865 193.745C81.1666 193.862 80.5292 196.285 80.3366 197.349C80.2769 197.575 80.2437 197.692 80.2437 197.692Z" fill="#F7C300"/>
<path d="M125.574 178.135C126.019 176.433 126.165 174.916 126.609 173.213C127.121 171.271 127.393 169.266 127.898 167.324C128.681 163.376 129.763 159.244 130.308 155.228C130.52 153.464 128.874 153.004 126.463 152.592C125.992 152.462 125.76 152.393 125.288 152.263L95.409 144.163C94.9376 144.032 94.7517 144.76 94.7517 144.76C94.7517 144.76 94.7185 144.884 94.7451 145.021L94.6853 145.007C94.2139 144.877 94.0877 145.364 94.028 145.604C93.9616 145.845 93.9018 146.092 94.3732 146.222L126.603 154.981C126.835 155.05 126.835 155.05 127.074 155.112C127.307 155.18 127.778 155.311 128.01 155.373C128.243 155.441 128.416 155.75 128.356 155.99C128.23 156.478 128.103 156.958 127.911 157.693C127.845 157.933 127.785 158.18 127.718 158.42L122.473 183.27C121.756 186.977 121.039 190.683 120.083 194.321C119.512 196.504 119 198.447 118.496 200.39C118.496 200.39 118.429 200.63 118.369 200.877C118.25 201.337 118.13 201.687 117.984 201.996C117.925 202.003 117.872 202.037 117.818 202.023C117.287 202.133 116.583 201.941 116.112 201.804C115.88 201.735 115.88 201.735 115.641 201.673L113.934 201.454C105.289 199.813 96.7768 197.692 88.4904 195.633C86.3789 195.042 84.2608 194.452 82.1493 193.862C81.9169 193.793 81.9169 193.793 81.6779 193.731C81.4455 193.662 81.2065 193.601 80.9741 193.532L80.2703 193.333C80.0379 193.264 79.8652 192.955 79.925 192.715C79.925 192.715 79.925 192.715 79.9914 192.475C80.0113 191.438 80.2039 190.711 80.3898 189.983C80.5159 189.496 80.5823 189.256 80.7085 188.768C81.7908 184.643 82.7004 180.208 83.5437 176.014C85.6153 166.17 87.9857 156.155 90.5952 146.202C90.7213 145.714 90.0175 145.522 90.0175 145.522C90.0839 145.282 89.5461 145.392 89.4199 145.879C89.3801 146.044 89.3403 146.202 89.2938 146.366C89.2938 146.366 89.2938 146.366 89.2871 146.366C89.0547 146.298 88.8157 146.236 88.6895 146.723C85.4493 159.1 82.7403 171.374 80.091 183.4C79.5598 186.379 78.7365 189.537 78.2119 192.516L78.1455 192.756C77.953 193.484 77.7671 194.212 78.1057 194.829C78.451 195.447 79.3872 195.708 80.091 195.907C80.3234 195.976 80.5624 196.038 80.5624 196.038C86.432 197.678 92.368 199.079 97.9986 200.657C105.103 202.387 110.634 203.41 115.627 204.55C116.331 204.749 117.334 204.769 117.699 204.344C117.971 204.179 118.17 203.884 118.33 203.54C118.363 203.527 118.396 203.52 118.429 203.506C119.027 203.149 119.279 202.181 119.472 201.454L119.598 200.966C120.534 198.365 121.298 195.447 122.911 191.212C123.814 186.764 124.724 182.329 125.574 178.135Z" fill="#1E1E1E"/>
<path d="M118.629 161.345C118.755 160.857 118.35 160.487 117.646 160.288C117.414 160.219 117.175 160.157 116.876 160.336C116.876 160.336 116.345 160.445 116.278 160.693C116.278 160.693 115.979 160.871 115.747 160.802C115.515 160.734 115.103 160.363 114.764 159.745C114.592 159.436 114.359 159.368 114.419 159.127C114.014 158.75 113.543 158.619 113.071 158.489C113.071 158.489 112.839 158.42 112.772 158.668C112.474 158.846 112.241 158.777 112.002 158.716C111.531 158.585 111.358 158.276 110.953 157.899L110.721 157.83C110.316 157.453 109.911 157.082 109.207 156.883C108.735 156.752 108.204 156.862 107.607 157.219C107.54 157.459 107.308 157.398 107.009 157.576C106.777 157.507 106.777 157.507 106.538 157.446C106.305 157.377 106.133 157.068 105.96 156.766L105.787 156.457C105.382 156.08 104.977 155.709 104.439 155.819C104.207 155.75 103.908 155.929 103.609 156.107C103.311 156.286 103.078 156.217 102.779 156.395C102.547 156.327 102.248 156.505 102.076 156.196C102.076 156.196 101.843 156.128 101.903 155.887C101.671 155.819 101.73 155.579 101.498 155.51C101.266 155.441 101.093 155.132 100.854 155.071C100.382 154.94 99.9177 154.81 99.3798 154.92C99.1474 154.851 99.081 155.098 98.8486 155.029C98.5499 155.208 98.0187 155.318 97.7199 155.496C97.4875 155.428 97.2485 155.366 97.0758 155.057L96.9696 154.508C96.7969 154.199 96.8633 153.959 96.6243 153.89C96.4517 153.581 96.2193 153.512 95.9802 153.451C95.2764 153.251 94.3203 154.027 93.6563 154.624L93.2911 155.043C92.9923 155.222 93.0986 155.771 93.0388 156.011C93.2712 156.08 93.4438 156.389 93.7426 156.21C93.7426 156.21 94.0414 156.032 94.3402 155.853C94.639 155.675 94.9378 155.496 95.2366 155.325C95.303 155.084 95.5354 155.146 95.7678 155.215C96.0002 155.283 96.2392 155.345 96.1728 155.592C96.279 156.141 96.4517 156.45 96.8567 156.828C97.5008 157.267 98.2643 157.219 99.3931 156.759L99.6919 156.581C100.522 156.292 100.761 156.361 101.339 157.041C101.744 157.418 102.149 157.789 102.447 157.61C102.68 157.679 102.746 157.432 103.045 157.253C103.344 157.075 103.643 156.897 104.174 156.787C104.705 156.677 105.05 157.295 105.223 157.604C105.455 157.672 105.396 157.912 105.628 157.981C106.033 158.359 106.438 158.729 106.677 158.798C106.909 158.867 107.208 158.688 107.507 158.51C107.806 158.331 108.038 158.4 108.105 158.153C108.702 157.796 108.875 158.105 109.107 158.173C109.34 158.242 109.512 158.551 109.751 158.613C109.751 158.613 109.984 158.681 109.924 158.922C110.329 159.299 110.734 159.67 111.205 159.8C111.438 159.869 111.737 159.69 111.976 159.752C112.274 159.574 112.746 159.704 112.978 159.773C113.45 159.903 113.855 160.281 113.961 160.83C114.193 160.898 114.133 161.139 114.366 161.207C114.771 161.585 115.242 161.715 115.475 161.777C115.475 161.777 115.774 161.599 116.006 161.667C116.537 161.557 117.374 161.269 117.712 161.887C117.885 162.196 117.885 162.196 118.117 162.265C118.35 162.333 118.649 162.155 118.715 161.908C118.801 161.654 118.861 161.406 118.629 161.345Z" fill="#1E1E1E"/>
<path d="M92.814 162.717C92.8804 162.477 93.1791 162.299 93.7103 162.189C94.0091 162.01 94.4141 162.388 94.8192 162.759C95.3968 163.438 96.1007 163.637 96.6318 163.527C96.9306 163.349 97.163 163.418 97.4618 163.239C97.4618 163.239 97.4618 163.239 97.7606 163.061C97.827 162.82 98.0594 162.882 98.2918 162.951C98.7632 163.081 98.9359 163.39 99.5733 163.829C99.5733 163.829 99.8057 163.898 99.7459 164.138C100.151 164.516 100.795 164.955 101.326 164.838C101.559 164.907 101.857 164.729 102.096 164.79C102.096 164.79 102.096 164.79 102.395 164.612L102.694 164.433C102.993 164.255 103.225 164.324 103.398 164.633C103.398 164.633 103.398 164.633 103.57 164.941C103.57 164.941 103.975 165.319 104.215 165.381C104.447 165.449 104.686 165.511 105.151 165.642C105.383 165.71 105.682 165.532 105.981 165.353C106.047 165.113 106.279 165.175 106.279 165.175C106.512 165.243 106.512 165.243 106.751 165.305C106.983 165.374 106.924 165.614 107.156 165.683C107.388 165.751 107.561 166.06 107.627 165.813C107.86 165.882 107.993 165.394 108.285 165.216C108.351 164.976 108.351 164.976 108.178 164.667C107.368 163.919 106.724 163.479 106.127 163.829L105.828 164.008C105.762 164.248 105.529 164.186 105.297 164.118C105.064 164.049 105.064 164.049 104.892 163.747C104.892 163.747 104.314 163.067 104.082 162.999C103.61 162.868 103.378 162.8 103.079 162.978C102.847 162.91 102.78 163.157 102.548 163.088C102.548 163.088 102.316 163.019 102.249 163.267C102.183 163.507 101.95 163.445 101.718 163.376C101.486 163.308 101.486 163.308 101.247 163.246C101.014 163.177 100.841 162.868 100.602 162.807C100.37 162.738 100.43 162.498 100.197 162.429C99.5534 161.99 98.9159 161.55 98.3184 161.9C98.0196 162.079 97.7208 162.257 97.422 162.429L97.1232 162.608C96.8244 162.786 96.592 162.717 96.353 162.656C96.353 162.656 96.353 162.656 96.1803 162.347C95.7753 161.969 95.3703 161.598 94.8989 161.468C94.6665 161.399 94.4274 161.338 93.8962 161.447C93.126 161.495 92.5284 161.846 92.1035 162.511C91.7383 162.93 91.9773 162.999 92.15 163.308C91.984 163.006 92.4554 163.136 92.814 162.717Z" fill="#1E1E1E"/>
<path d="M118.802 174.161C117.547 175.115 116.73 174.36 116.093 173.92C115.92 173.612 115.449 173.481 115.216 173.412C114.984 173.344 114.513 173.213 114.214 173.392C114.214 173.392 113.915 173.57 113.683 173.502C113.384 173.68 113.085 173.859 112.853 173.79C112.62 173.721 112.448 173.412 112.275 173.11C112.102 172.801 111.87 172.733 111.93 172.493C111.697 172.424 111.525 172.115 111.226 172.294C110.993 172.225 110.695 172.403 110.396 172.582C109.499 173.11 109.028 172.98 108.749 172.122L108.577 171.813C108.065 170.886 107.527 170.996 107.295 170.934C107.063 170.866 106.764 171.044 106.465 171.223C106.166 171.401 105.868 171.58 105.808 171.82C105.575 171.751 105.277 171.93 105.336 171.689C105.336 171.689 105.104 171.621 105.164 171.381C104.931 171.312 104.991 171.072 104.759 171.01C104.354 170.632 103.949 170.262 103.477 170.131C103.245 170.063 102.946 170.241 102.475 170.111C101.704 170.159 100.343 170.557 99.7855 168.834C99.6128 168.525 99.1414 168.395 98.909 168.326C98.3778 168.436 98.0126 168.854 97.6541 169.28C97.3553 169.458 97.2889 169.699 96.9967 169.877C96.6979 170.056 96.3992 170.234 95.9277 170.097C95.4563 169.966 95.2837 169.658 95.1177 169.349C95.0114 168.8 94.8388 168.491 94.3674 168.36C94.135 168.292 94.1947 168.051 93.7233 167.921C93.0195 167.722 91.9505 167.948 90.078 170.289C90.0116 170.529 89.9519 170.776 89.8855 171.017C90.0581 171.326 90.2308 171.635 90.5296 171.456C90.5296 171.456 90.762 171.525 91.0607 171.346C91.4193 170.928 91.7181 170.749 92.0833 170.33C92.1497 170.09 92.4418 169.912 92.4418 169.912C92.4418 169.912 92.5082 169.671 92.7406 169.733C92.807 169.493 93.1058 169.314 93.3382 169.376C93.8096 169.507 93.7432 169.754 93.9159 170.056C94.1947 170.914 94.5998 171.291 95.0048 171.662C95.6489 172.101 96.4788 171.813 96.7776 171.635C97.0764 171.456 97.3752 171.278 97.7337 170.859C98.0325 170.68 98.0989 170.44 98.3911 170.262C98.4575 170.021 98.6899 170.083 98.9223 170.152C99.1547 170.22 99.1547 170.22 99.3273 170.529C99.6726 171.147 100.31 171.586 100.781 171.717C101.253 171.847 101.718 171.978 102.255 171.868C102.488 171.937 102.554 171.689 102.554 171.689C103.085 171.58 103.623 171.47 104.201 172.149C104.951 173.138 105.655 173.337 106.485 173.049C106.717 173.117 106.784 172.87 107.083 172.692C107.149 172.451 107.381 172.513 107.614 172.582C107.846 172.65 108.085 172.712 108.019 172.959C108.191 173.268 108.364 173.577 108.596 173.639C109.241 174.078 110.409 174.408 111.073 173.811C111.14 173.57 111.372 173.632 111.671 173.454C111.903 173.522 112.142 173.584 112.076 173.831C112.248 174.14 112.248 174.14 112.421 174.449C112.826 174.827 113.065 174.888 113.53 175.019C113.762 175.087 113.829 174.84 114.061 174.909C114.36 174.73 114.659 174.552 115.13 174.689C115.601 174.82 116.007 175.197 116.239 175.259C116.471 175.328 116.644 175.637 116.644 175.637C117.52 176.144 118.822 175.987 119.718 175.451C120.017 175.273 120.083 175.032 120.083 175.032C119.738 174.415 119.572 174.106 119.333 174.044C119.333 174.044 119.101 173.982 118.802 174.161Z" fill="#1E1E1E"/>
<path d="M107.103 181.307C107.401 181.128 107.634 181.197 107.933 181.019C108.165 181.087 108.404 181.149 108.338 181.396C108.338 181.396 108.338 181.396 108.57 181.465C109.447 181.973 110.449 181.993 111.512 181.767C112.043 181.657 111.936 181.101 111.764 180.799C111.591 180.49 111.359 180.421 111.06 180.6C110.529 180.71 109.931 181.067 109.055 180.559C108.822 180.49 108.583 180.428 108.65 180.181C108.417 180.112 108.245 179.804 108.006 179.742C107.773 179.673 107.475 179.852 107.176 180.03L106.877 180.209C106.578 180.387 106.346 180.318 106.173 180.009L106 179.701C105.489 178.774 104.785 178.575 103.783 178.561L103.55 178.492C103.252 178.671 102.78 178.54 102.315 178.403C102.083 178.335 101.91 178.033 101.671 177.964C101.439 177.895 101.266 177.586 101.266 177.586C100.562 177.387 100.031 177.504 99.0685 178.273L98.7697 178.451C98.4709 178.63 97.8136 179.227 97.4019 178.849C97.1695 178.781 96.9969 178.472 96.8243 178.17L96.6516 177.861C96.0076 177.422 95.4764 177.531 94.6464 177.82L94.3476 177.998C93.2786 178.218 91.6851 178.554 90.3969 177.676L90.1645 177.607C90.1645 177.607 89.9321 177.538 89.8657 177.785C89.567 177.964 89.5006 178.204 89.4408 178.451C89.3744 178.692 89.6134 178.76 89.7861 179.069C90.6625 179.577 91.8378 179.907 92.9001 179.68C93.4313 179.57 93.9691 179.46 94.5003 179.344C94.7991 179.165 95.0315 179.234 95.3303 179.055C95.6291 178.877 95.8615 178.945 96.0341 179.254L96.2068 179.563C96.1404 179.804 96.313 180.112 96.7844 180.243C97.1895 180.62 97.7206 180.504 98.1921 180.634C98.4909 180.456 99.022 180.346 99.3872 179.927C99.3872 179.927 99.4536 179.687 99.686 179.749C99.9848 179.57 100.41 178.911 101.286 179.412C101.519 179.481 101.758 179.543 101.93 179.852C102.163 179.92 102.402 179.982 102.574 180.291C102.807 180.36 103.046 180.421 103.577 180.312C103.809 180.38 104.108 180.202 104.347 180.263C104.414 180.023 104.58 180.332 104.991 180.703C105.735 181.705 106.206 181.835 107.103 181.307Z" fill="#1E1E1E"/>
<path d="M97.3429 185.864C96.9379 185.487 96.4664 185.356 95.9949 185.226C95.7625 185.157 95.2247 185.274 94.6934 185.384C94.3946 185.562 94.3282 185.802 94.0958 185.741C94.0294 185.981 93.797 185.919 93.5646 185.851C93.3322 185.782 93.0931 185.72 93.1595 185.473C92.9869 185.164 92.9869 185.164 92.8142 184.855C92.708 184.306 92.3029 183.928 91.8912 183.558C91.4198 183.427 91.1874 183.359 90.5897 183.716C90.0585 183.825 89.5206 183.935 89.0558 183.805C88.8234 183.736 88.3519 183.606 88.2258 184.093C88.1594 184.333 88.0996 184.581 88.0996 184.581L88.2723 184.889C88.9761 185.089 89.4476 185.219 89.9191 185.349C90.1515 185.418 90.4503 185.24 90.6893 185.301C90.6893 185.301 90.9217 185.37 91.1608 185.432C91.3932 185.5 91.6323 185.562 91.5658 185.809C91.6721 186.358 91.8447 186.667 92.2498 187.045C92.6549 187.422 93.0599 187.793 93.5978 187.683C94.129 187.573 94.4278 187.395 94.793 186.976L95.0918 186.798C95.3907 186.619 95.6231 186.688 95.8621 186.75C96.3336 186.88 96.2672 187.127 96.5062 187.189C96.7386 187.258 97.1503 187.628 97.3828 187.697C97.8542 187.827 98.319 187.958 98.9167 187.608C99.1491 187.676 99.2155 187.429 99.2155 187.429C99.2819 187.189 99.2819 187.189 99.1092 186.88C99.0628 186.084 98.8303 186.022 98.5315 186.201C98.2327 186.379 98.0003 186.31 98.0003 186.31C97.748 186.242 97.5753 185.933 97.3429 185.864Z" fill="#1E1E1E"/>
<path d="M109.007 196.168C110.461 197.356 112.872 197.768 114.771 197.26C116.73 196.505 117.713 194.692 117.753 192.619C117.726 190.786 116.83 188.453 115.01 187.684C113.025 186.606 110.827 187.292 109.552 189.283C109.485 189.523 109.485 189.523 109.426 189.771C109.359 190.011 109.598 190.079 109.831 190.148C110.063 190.217 110.601 190.1 110.661 189.86L110.727 189.62L110.794 189.379C110.86 189.139 111.092 189.201 111.159 188.961C111.225 188.72 111.458 188.782 111.458 188.782C111.458 188.782 111.458 188.782 111.756 188.604L112.055 188.425C112.885 188.137 113.423 188.027 114.127 188.219C114.598 188.35 115.236 188.789 115.581 189.407C115.926 190.025 116.265 190.642 116.484 191.741C116.531 192.537 116.571 193.326 116.444 193.814C116.378 194.054 116.252 194.541 115.953 194.72C115.887 194.96 115.528 195.386 115.229 195.557C114.632 195.914 114.034 196.264 113.031 196.244C112.261 196.292 111.557 196.093 110.621 195.832C109.917 195.633 109.339 194.953 108.994 194.335C108.821 194.027 108.649 193.718 108.542 193.168L108.609 192.928C108.675 192.688 108.675 192.688 108.675 192.688L108.742 192.448C108.742 192.448 109.167 191.782 108.762 191.411L108.529 191.343L108.297 191.274C108.297 191.274 108.064 191.205 107.998 191.452C107.274 192.29 107.321 193.086 107.427 193.635C107.447 194.432 107.898 195.598 109.007 196.168Z" fill="#1E1E1E"/>
<path d="M61.0348 99.9962C60.7625 99.9962 60.4969 99.9893 60.2247 99.9756C59.6736 99.9481 59.2553 99.4607 59.2818 98.891C59.3084 98.3212 59.7466 97.8888 60.3309 97.9162C62.0772 98.0192 63.87 97.7103 65.3639 97.4151C65.9017 97.3053 66.4263 97.6691 66.5325 98.232C66.6388 98.7949 66.2868 99.3303 65.7424 99.4401C64.3547 99.7079 62.7146 99.9962 61.0348 99.9962ZM76.0474 98.6988C75.9611 98.6988 75.8814 98.6851 75.7951 98.6645C74.3409 98.2732 72.8271 98.2045 70.8949 98.4448C70.3504 98.5134 69.8524 98.1153 69.786 97.5524C69.7196 96.9895 70.1047 96.4747 70.6492 96.406C72.8337 96.1246 74.5999 96.2139 76.2997 96.6738C76.8309 96.8179 77.1496 97.3808 77.0101 97.93C76.8906 98.3899 76.4922 98.6988 76.0474 98.6988ZM55.1784 98.5684C55.0589 98.5684 54.9394 98.5478 54.8265 98.4997C53.1998 97.8613 51.5332 97.3053 49.8666 96.8454C49.3354 96.6944 49.0233 96.1315 49.1628 95.5823C49.3022 95.0332 49.8533 94.7105 50.3845 94.8547C52.1109 95.3352 53.8438 95.9118 55.5304 96.5708C56.0416 96.7699 56.3072 97.3671 56.108 97.8956C55.9553 98.3144 55.5768 98.5684 55.1784 98.5684ZM44.9332 95.7127C44.8801 95.7127 44.827 95.7059 44.7672 95.699C43.0475 95.4038 41.3079 95.2048 39.5948 95.0949C39.0437 95.0606 38.6254 94.5732 38.6586 94.0035C38.6918 93.4337 39.1566 93.0013 39.7143 93.0356C41.4938 93.1454 43.3065 93.3582 45.0926 93.6603C45.637 93.7495 46.0022 94.2849 45.9093 94.841C45.8362 95.3558 45.4179 95.7127 44.9332 95.7127ZM29.6949 95.5549C29.2101 95.5549 28.7852 95.191 28.7122 94.6831C28.6325 94.1202 29.0043 93.5985 29.5488 93.5093C31.1091 93.2621 32.7027 93.0974 34.3029 93.015C34.8673 92.9876 35.3188 93.4269 35.3453 93.9898C35.3719 94.5527 34.9469 95.04 34.4025 95.0675C32.8753 95.143 31.3415 95.3077 29.8476 95.5411C29.7944 95.548 29.748 95.5549 29.6949 95.5549Z" fill="#1E1E1E"/>
<path d="M2.88291 111.564C2.42883 110.802 2.04918 109.978 1.73653 109.119C1.69187 108.986 1.64721 108.853 1.60254 108.711C1.5281 108.472 1.42388 108.268 1.23034 108.135C1.05913 108.011 0.806029 107.967 0.605041 108.038C0.217951 108.188 -0.117031 108.711 0.0392941 109.216C0.404052 110.385 0.88047 111.502 1.48344 112.529C1.60998 112.742 1.75142 112.901 1.9673 112.972C2.16084 113.034 2.41394 113.008 2.5926 112.875C2.93502 112.618 3.14346 111.998 2.88291 111.564Z" fill="#1E1E1E"/>
<path d="M22.6968 104.237C21.9914 97.576 14.8665 92.3271 8.53883 95.5922C4.53199 97.6628 3.29749 101.811 4.32036 105.554C3.57261 110.81 5.58308 116.624 11.7203 116.993C14.7678 117.174 17.914 115.321 20.0937 113.265C22.5627 110.926 23.0424 107.545 22.6968 104.237Z" fill="#F7C300"/>
<path d="M23.4787 100.596C22.2089 96.8385 18.6535 93.9281 14.421 93.1896C9.74397 92.3715 4.59434 94.2828 0.284168 98.4385C-0.0826545 98.7932 -0.0967631 99.3217 0.255951 99.6982C0.587503 100.067 1.20123 100.191 1.64565 99.7634C4.93294 96.5923 8.80575 94.8548 12.4951 94.9272C15.9517 94.9778 19.2743 96.824 20.9744 99.6403C22.8226 102.71 22.3782 106.974 19.881 110.008C17.412 113.012 13.13 115.083 9.72986 113.222C8.06505 112.31 6.56954 110.674 5.51845 108.618C4.40387 106.431 4.37566 104.1 5.44085 102.384C5.70892 101.95 5.59605 101.436 5.17279 101.153C4.75659 100.886 4.12876 100.914 3.80426 101.443C1.31409 105.476 3.67023 110.956 7.38784 113.939C8.99621 115.228 10.7598 115.894 12.5304 115.894C12.8479 115.894 13.1653 115.872 13.4827 115.829C15.6484 115.539 17.8776 114.475 19.7611 112.838C23.394 109.696 24.8825 104.773 23.4787 100.596Z" fill="#1E1E1E"/>
<path d="M18.0846 103.426C16.7582 103.31 15.4249 103.339 14.1056 103.484C14.0986 102.513 14.0986 101.543 14.0915 100.58C14.0845 99.3207 12.1797 99.3135 12.1797 100.58C12.1867 101.645 12.1867 102.709 12.1938 103.78C11.0156 104.019 9.85864 104.36 8.74398 104.801C8.26426 104.989 7.93268 105.46 8.07378 106.01C8.20076 106.481 8.76515 106.886 9.25193 106.698C10.2184 106.314 11.2061 106.018 12.2008 105.8C12.2079 106.908 12.2079 108.009 12.215 109.116C12.222 110.376 14.1268 110.383 14.1268 109.116C14.1198 107.885 14.1127 106.669 14.1127 105.46C15.4249 105.301 16.7512 105.272 18.0846 105.388C18.5996 105.431 19.037 104.903 19.037 104.41C19.037 103.838 18.5996 103.469 18.0846 103.426Z" fill="#1E1E1E"/>
</svg>
