<svg width="132" height="209" viewBox="0 0 132 209" fill="none" xmlns="http://www.w3.org/2000/svg">
<path d="M54.8336 80.3818C54.3189 78.8082 53.1424 77.4855 51.5382 77.0107C51.224 76.8276 50.9031 76.6716 50.5756 76.5359C50.248 76.4002 49.9205 76.2917 49.5929 76.2035C49.2052 76.1289 48.8042 76.0882 48.4098 76.0814C45.2346 76.0475 41.9458 78.2927 40.1076 81.3993C39.9204 81.6977 39.7399 82.0098 39.5661 82.3286C36.8455 86.9138 40.1878 93.0185 46.2975 92.5641C46.7253 92.5709 47.1531 92.5505 47.5742 92.4962C49.486 92.2588 51.4045 91.3974 52.7347 89.9594C54.0515 88.535 54.6799 86.5815 54.9807 84.6822C55.1812 83.4138 55.2481 82.1047 54.9606 80.8566C54.9272 80.6939 54.8871 80.5378 54.8336 80.3818Z" fill="#59C69F"/>
<path d="M2.62049 54.8914C4.93335 56.0445 4.93335 56.0445 7.21279 55.2306C7.57375 55.2441 7.94809 55.2577 8.34248 55.278C15.7824 55.5765 28.6368 56.0988 36.6583 56.4244C36.8922 56.4312 37.1262 56.4447 37.3535 56.4515C41.645 57.5368 44.1851 55.1492 44.0648 50.0823C44.0715 49.8585 44.0848 49.6278 44.0915 49.3972C44.4525 40.2538 45.0675 24.5986 45.4618 14.6209C45.4752 14.2749 45.4886 13.9426 45.4953 13.6102C45.5354 13.3457 45.5888 13.054 45.6423 12.742C46.0434 7.96678 43.6904 5.38925 38.3695 5.12471C38.0821 5.11115 37.7813 5.10436 37.4738 5.09758C35.3147 5.02975 32.7946 4.89409 31.0299 4.73808C30.7625 4.72452 30.4951 4.71773 30.2277 4.70417C25.6154 4.52103 20.6554 4.31754 16.3372 4.14118C15.2276 4.0937 14.158 4.053 13.1487 4.0123C12.9882 4.02587 12.7743 4.03265 12.5136 4.03265C12.2529 4.03265 11.9521 4.03265 11.6313 4.03944C9.43874 3.99874 2.19268 1.21772 4.33174 9.38442C4.305 9.65574 4.29163 9.92028 4.27826 10.1509C4.24484 10.9377 4.21142 11.7856 4.17799 12.681C3.75687 23.3981 3.06836 40.932 2.72076 49.7024C2.70739 50.1162 2.68734 50.5028 2.68065 50.8759C2.68734 50.9912 2.58707 53.4738 2.62718 54.5387C2.62049 54.7693 2.62049 54.8914 2.62049 54.8914Z" fill="#59C69F"/>
<path d="M43.5098 25.9007C43.5766 24.1643 43.3962 22.6653 43.463 20.922C43.5432 18.9346 43.3761 16.9404 43.4563 14.953C43.3694 10.9714 43.5365 6.7524 43.209 2.75723C43.0352 1.00722 41.3239 0.939389 38.864 1.08861C38.3761 1.06827 38.1287 1.06148 37.6408 1.04113L6.55087 0.00333847C6.0629 -0.0170105 6.03616 0.729117 6.03616 0.729117C6.03616 0.729117 6.02947 0.851211 6.08295 0.980087H6.02279C5.53482 0.959738 5.51476 1.4549 5.50808 1.69908C5.50139 1.95005 5.48802 2.19424 5.976 2.21459L39.5057 3.35413C39.7531 3.36091 39.7531 3.36091 39.9937 3.37448C40.2411 3.38126 40.729 3.40161 40.9697 3.41518C41.217 3.42196 41.451 3.6865 41.4376 3.93068C41.4175 4.42584 41.3975 4.921 41.3707 5.66713C41.3641 5.9181 41.3507 6.16228 41.344 6.41325L41.5646 31.5442C41.6582 35.2748 41.7584 39.0055 41.6047 42.7361C41.5178 44.9677 41.4376 46.9551 41.3574 48.9425C41.3574 48.9425 41.3507 49.1935 41.3373 49.4377C41.3173 49.9125 41.2772 50.272 41.2036 50.6044C41.1501 50.6247 41.1034 50.6722 41.0432 50.6722C40.5419 50.9028 39.8066 50.8689 39.3186 50.8485C39.0713 50.8418 39.0713 50.8418 38.8306 50.8282L37.106 51.0045C28.269 51.3844 19.4454 51.2691 10.8758 51.1673C8.67656 51.0792 6.47065 50.9842 4.27143 50.896C4.03079 50.8825 4.03079 50.8825 3.78346 50.8757C3.53613 50.8689 3.29549 50.8553 3.04816 50.8485L2.31286 50.8214C2.06553 50.8146 1.83157 50.5501 1.84494 50.3059C1.84494 50.3059 1.84494 50.3059 1.85162 50.0549C1.6444 49.051 1.67782 48.3049 1.70456 47.5588C1.72462 47.0636 1.7313 46.8127 1.75135 46.3175C1.91847 42.0985 1.85162 37.6149 1.77809 33.3892C1.68451 23.4385 1.85162 13.2437 2.25938 3.06924C2.27943 2.57409 1.54413 2.54017 1.54413 2.54017C1.55082 2.2892 1.05616 2.51982 1.03611 3.01498C1.03611 3.17777 1.02942 3.34056 1.02274 3.51014C1.02274 3.51014 1.02274 3.51014 1.01605 3.51014C0.775409 3.49657 0.534765 3.48301 0.514711 3.98495C0.00668455 16.6488 0 29.082 0 41.2642C0.127007 44.2555 -0.00668455 47.4842 0.120322 50.4755L0.113638 50.7264C0.0868993 51.4726 0.0534765 52.2187 0.521396 52.7342C0.989315 53.2497 1.97195 53.2904 2.70056 53.3243C2.94789 53.3311 3.18853 53.3447 3.18853 53.3447C9.30491 53.5956 15.4346 53.6024 21.3037 53.8398C28.6567 53.8941 34.3052 53.6296 39.4523 53.5956C40.1876 53.6228 41.1769 53.4193 41.4376 52.9309C41.6715 52.7139 41.7986 52.3747 41.8788 52.0152C41.9055 51.9949 41.9389 51.9813 41.9657 51.9609C42.4737 51.4861 42.5138 50.489 42.5472 49.7497L42.5673 49.2545C42.9216 46.5346 43.0419 43.5568 43.7103 39.1072C43.6502 34.6101 43.5833 30.1333 43.5098 25.9007Z" fill="#1E1E1E"/>
<path d="M33.0618 11.2903C33.0818 10.7952 32.6005 10.5238 31.8652 10.4967C31.6179 10.4899 31.3773 10.4764 31.1232 10.7138C31.1232 10.7138 30.6219 10.9444 30.6152 11.1886C30.6152 11.1886 30.3612 11.426 30.1139 11.4192C29.8665 11.4124 29.3919 11.1411 28.9173 10.6256C28.6834 10.3678 28.4361 10.3543 28.4494 10.1101C27.9681 9.83876 27.4802 9.81841 26.9922 9.79806C26.9922 9.79806 26.7449 9.79128 26.7382 10.0355C26.4842 10.2729 26.2368 10.2661 25.9962 10.2525C25.5082 10.2322 25.2743 9.97442 24.793 9.7031L24.5456 9.69632C24.0644 9.425 23.5897 9.16046 22.8544 9.12655C22.3665 9.1062 21.8651 9.33682 21.3571 9.81163C21.3504 10.0626 21.1031 10.049 20.8491 10.2864C20.6017 10.2797 20.6017 10.2797 20.3611 10.2661C20.1138 10.2593 19.8798 9.99477 19.6459 9.73702L19.4119 9.47926C18.9306 9.20794 18.456 8.94341 17.9547 9.16724C17.7073 9.16046 17.4533 9.39787 17.1993 9.63527C16.9453 9.87267 16.698 9.86589 16.444 10.1033C16.1966 10.0965 15.9426 10.3339 15.7087 10.0762C15.7087 10.0762 15.4613 10.0694 15.4747 9.81841C15.2274 9.81163 15.2407 9.56066 14.9934 9.54709C14.7461 9.54031 14.5121 9.27577 14.2715 9.26899C13.7835 9.24864 13.2955 9.22829 12.7942 9.45891C12.5469 9.45213 12.5402 9.69632 12.2928 9.68953C12.0388 9.92694 11.5375 10.1576 11.2835 10.395C11.0361 10.3882 10.7955 10.3746 10.5615 10.1169L10.3343 9.60814C10.1003 9.35038 10.107 9.09941 9.86635 9.09263C9.63239 8.83488 9.38506 8.82131 9.14441 8.81453C8.40911 8.7874 7.6337 9.7438 7.11899 10.4696L6.85161 10.958C6.5976 11.1954 6.82487 11.7041 6.8115 11.9483C7.05883 11.955 7.29279 12.2196 7.5468 11.9754C7.5468 11.9754 7.80082 11.738 8.05483 11.5006C8.30884 11.2632 8.56286 11.0258 8.81687 10.7884C8.82355 10.5374 9.07088 10.551 9.31821 10.5578C9.56554 10.5645 9.80618 10.5781 9.7995 10.8291C10.0268 11.3378 10.2607 11.5956 10.7353 11.8601C11.4573 12.1382 12.2059 11.9211 13.2153 11.2157L13.4693 10.9783C14.2247 10.5103 14.4653 10.5238 15.1806 11.0461C15.6619 11.3174 16.1365 11.582 16.3972 11.3446C16.6445 11.3514 16.6512 11.1072 16.9052 10.8698C17.1592 10.6324 17.4132 10.395 17.9146 10.1643C18.4159 9.93372 18.8838 10.456 19.1178 10.7138C19.3651 10.7205 19.3517 10.9715 19.5991 10.9851C20.0804 11.2564 20.555 11.5209 20.8023 11.5345C21.0496 11.5413 21.3036 11.3039 21.5576 11.0665C21.8117 10.8291 22.059 10.8359 22.0657 10.5917C22.5737 10.1169 22.8077 10.3746 23.055 10.3814C23.3023 10.3882 23.5363 10.6527 23.7769 10.6595C23.7769 10.6595 24.0242 10.6663 24.0109 10.9173C24.4922 11.1886 24.9668 11.4531 25.4614 11.4735C25.7088 11.4802 25.9628 11.2428 26.2034 11.2564C26.4574 11.019 26.9454 11.0393 27.1927 11.0461C27.6807 11.0665 28.162 11.3378 28.3893 11.8397C28.6366 11.8465 28.6232 12.0975 28.8706 12.1111C29.3518 12.3824 29.8398 12.4027 30.0871 12.4095C30.0871 12.4095 30.3412 12.1721 30.5885 12.1789C31.0898 11.9483 31.8385 11.487 32.3131 12.0025C32.5471 12.2603 32.5471 12.2603 32.7944 12.2738C33.0417 12.2806 33.2957 12.0432 33.3024 11.799C33.2957 11.5481 33.3091 11.3039 33.0618 11.2903Z" fill="#1E1E1E"/>
<path d="M8.02157 18.4669C8.02825 18.2159 8.28895 17.9785 8.78361 17.7546C9.03762 17.5172 9.51891 17.7818 10.0002 18.0531C10.7154 18.5822 11.4507 18.6093 11.9454 18.3787C12.1994 18.1413 12.4467 18.1481 12.7008 17.9107C12.7008 17.9107 12.7008 17.9107 12.9548 17.6733C12.9615 17.4223 13.2088 17.4358 13.4561 17.4426C13.9441 17.463 14.178 17.7207 14.9067 17.9988C14.9067 17.9988 15.154 18.0056 15.1406 18.2566C15.6219 18.5279 16.3438 18.806 16.8452 18.5754C17.0925 18.5822 17.3465 18.3448 17.5872 18.3583C17.5872 18.3583 17.5872 18.3583 17.8412 18.1209L18.0952 17.8835C18.3492 17.6461 18.5965 17.6529 18.8305 17.9107C18.8305 17.9107 18.8305 17.9107 19.0645 18.1684C19.0645 18.1684 19.5458 18.4397 19.7864 18.4465C20.0337 18.4533 20.2744 18.4669 20.7623 18.4872C21.0097 18.494 21.2637 18.2566 21.5177 18.0192C21.5244 17.7682 21.7717 17.7818 21.7717 17.7818C22.019 17.7886 22.019 17.7886 22.2597 17.8021C22.507 17.8089 22.4936 18.0599 22.741 18.0734C22.9883 18.0802 23.2223 18.3448 23.2289 18.0938C23.4763 18.1006 23.4963 17.6054 23.7503 17.368C23.757 17.117 23.757 17.117 23.5231 16.8593C22.5672 16.3234 21.8386 16.0453 21.3305 16.5201L21.0765 16.7576C21.0698 17.0085 20.8225 16.995 20.5752 16.9882C20.3278 16.9814 20.3278 16.9814 20.0939 16.7169C20.0939 16.7169 19.3786 16.1878 19.138 16.181C18.65 16.1606 18.4027 16.1539 18.1487 16.3913C17.9013 16.3845 17.8947 16.6287 17.6473 16.6219C17.6473 16.6219 17.4 16.6151 17.3933 16.8593C17.3866 17.1103 17.1393 17.0967 16.892 17.0899C16.6447 17.0831 16.6447 17.0831 16.404 17.0696C16.1567 17.0628 15.9227 16.7982 15.6821 16.7915C15.4347 16.7847 15.4481 16.5337 15.2008 16.5201C14.4789 16.242 13.7502 15.9639 13.2422 16.4387C12.9882 16.6762 12.7342 16.9136 12.4802 17.151L12.2262 17.3884C11.9721 17.6258 11.7248 17.619 11.4842 17.6054C11.4842 17.6054 11.4842 17.6054 11.2502 17.3477C10.7689 17.0764 10.2943 16.8118 9.79966 16.7915C9.55233 16.7847 9.31169 16.7711 8.81035 17.0017C8.06836 17.2188 7.56033 17.6936 7.27958 18.4329C7.0122 18.9213 7.25953 18.9281 7.49349 19.1859C7.26621 18.9349 7.75419 18.9552 8.02157 18.4669Z" fill="#1E1E1E"/>
<path d="M36.003 23.6015C34.9736 24.802 34.0177 24.2662 33.2891 23.9881C33.0551 23.7303 32.5672 23.71 32.3198 23.6964C32.0725 23.6896 31.5845 23.6693 31.3305 23.9067C31.3305 23.9067 31.0765 24.1441 30.8292 24.1373C30.5752 24.3747 30.3212 24.6121 30.0738 24.6053C29.8265 24.5986 29.5925 24.334 29.3586 24.0763C29.1246 23.8185 28.8773 23.8049 28.8907 23.5608C28.6433 23.554 28.4094 23.2894 28.1554 23.5336C27.908 23.5268 27.654 23.7643 27.4 24.0017C26.638 24.7139 26.15 24.6935 25.6888 23.9338L25.4548 23.6761C24.7529 22.9028 24.2516 23.1267 24.0042 23.1199C23.7569 23.1131 23.5029 23.3505 23.2489 23.5879C22.9949 23.8253 22.7409 24.0627 22.7275 24.3137C22.4802 24.3069 22.2262 24.5443 22.2395 24.2933C22.2395 24.2933 21.9922 24.2865 22.0056 24.0356C21.7582 24.0288 21.7716 23.7778 21.5243 23.7642C21.043 23.4929 20.5684 23.2284 20.0737 23.208C19.8264 23.2013 19.5724 23.4387 19.0844 23.4183C18.3424 23.6354 17.0857 24.334 16.1699 22.8011C15.936 22.5433 15.448 22.523 15.2007 22.5094C14.6993 22.74 14.4386 23.2216 14.1713 23.71C13.9172 23.9474 13.9039 24.1984 13.6499 24.4358C13.3959 24.6732 13.1418 24.9106 12.6539 24.8902C12.1659 24.8699 11.9319 24.6121 11.698 24.3544C11.4707 23.8456 11.2367 23.5879 10.7488 23.5675C10.5014 23.5608 10.5148 23.3098 10.0268 23.2894C9.29153 23.2623 8.29553 23.7168 6.95862 26.396C6.95194 26.647 6.93857 26.8912 6.93188 27.1422C7.16584 27.3999 7.3998 27.6577 7.65382 27.4203C7.65382 27.4203 7.90115 27.4271 8.15516 27.1897C8.42254 26.7013 8.67655 26.4639 8.93725 25.9755C8.94394 25.7245 9.20463 25.4871 9.20463 25.4871C9.20463 25.4871 9.21132 25.2362 9.45865 25.2497C9.46533 24.9988 9.72603 24.7613 9.96667 24.7749C10.4546 24.7953 10.448 25.0462 10.6819 25.304C11.1432 26.0705 11.6178 26.335 12.099 26.6063C12.821 26.8844 13.5763 26.4164 13.8303 26.179C14.0844 25.9416 14.3384 25.7042 14.6058 25.2158C14.8598 24.9784 14.8731 24.7274 15.1272 24.49C15.1338 24.2391 15.3812 24.2526 15.6285 24.2594C15.8758 24.2662 15.8758 24.2662 16.1098 24.5307C16.5777 25.0462 17.3063 25.3243 17.7943 25.3447C18.2823 25.365 18.7702 25.3854 19.2716 25.1548C19.5189 25.1615 19.5256 24.9174 19.5256 24.9174C20.0269 24.6867 20.5216 24.4629 21.2368 24.9852C22.186 25.772 22.9213 25.7991 23.6767 25.3311C23.924 25.3379 23.9307 25.0937 24.1847 24.8563C24.1914 24.6053 24.4387 24.6189 24.6861 24.6257C24.9334 24.6325 25.174 24.646 25.1674 24.897C25.4013 25.1548 25.6353 25.4125 25.8826 25.4261C26.6045 25.7042 27.8278 25.7584 28.3492 25.0327C28.3559 24.7817 28.6032 24.7953 28.8572 24.5579C29.1046 24.5646 29.3452 24.5782 29.3385 24.8292C29.5725 25.0869 29.5725 25.0869 29.8064 25.3447C30.2877 25.616 30.5284 25.6228 31.023 25.6431C31.2704 25.6499 31.277 25.4057 31.5244 25.4125C31.7784 25.1751 32.0324 24.9377 32.5204 24.9581C33.0083 24.9784 33.4896 25.2497 33.737 25.2565C33.9843 25.2633 34.2183 25.5278 34.2183 25.5278C35.1875 25.8195 36.4308 25.3718 37.1929 24.6528C37.4469 24.4154 37.4603 24.1644 37.4603 24.1644C36.9923 23.6489 36.7584 23.3912 36.5111 23.3776C36.4977 23.3708 36.257 23.3641 36.003 23.6015Z" fill="#1E1E1E"/>
<path d="M26.0631 33.1384C26.3171 32.901 26.5644 32.9077 26.8184 32.6703C27.0658 32.6771 27.3064 32.6907 27.2997 32.9417C27.2997 32.9417 27.2997 32.9417 27.547 32.9484C28.5163 33.2401 29.5056 33.0298 30.5016 32.5754C31.003 32.3447 30.7757 31.8428 30.5417 31.5851C30.3078 31.3273 30.0604 31.3137 29.8064 31.5579C29.3051 31.7885 28.7971 32.2634 27.8278 31.9717C27.5805 31.9649 27.3398 31.9513 27.3465 31.7004C27.0992 31.6936 26.8652 31.429 26.6246 31.4223C26.3773 31.4155 26.1232 31.6529 25.8692 31.8903L25.6152 32.1277C25.3612 32.3651 25.1139 32.3583 24.8799 32.1006L24.6459 31.8428C23.9441 31.0695 23.2088 31.0356 22.2195 31.2459L21.9721 31.2391C21.7181 31.4765 21.2301 31.4562 20.7355 31.4358C20.4882 31.429 20.2542 31.1645 20.0136 31.1577C19.7662 31.1509 19.5323 30.8864 19.5323 30.8864C18.797 30.8593 18.2956 31.0831 17.5269 32.0463L17.2729 32.2837C17.0189 32.5211 16.4975 33.2469 16.0229 32.9756C15.7755 32.9688 15.5416 32.7042 15.3076 32.4465L15.0737 32.1887C14.3517 31.9106 13.8504 32.1413 13.095 32.6025L12.841 32.8399C11.845 33.2944 10.3477 33.9794 8.89713 33.4232L8.6498 33.4165C8.6498 33.4165 8.40247 33.4097 8.39579 33.6539C8.14177 33.8913 8.1284 34.1422 8.12172 34.3864C8.11503 34.6374 8.35568 34.6442 8.58964 34.9019C9.5589 35.1936 10.7822 35.2411 11.7782 34.7866C12.2795 34.556 12.7742 34.3322 13.2755 34.1015C13.5295 33.8641 13.7769 33.8709 14.0309 33.6335C14.2849 33.3961 14.5322 33.4029 14.7662 33.6606L15.0001 33.9184C14.9934 34.1694 15.2274 34.4271 15.7154 34.4475C16.1967 34.7188 16.6913 34.4882 17.186 34.5085C17.44 34.2711 17.9413 34.0405 18.202 33.5589C18.202 33.5589 18.2087 33.3079 18.456 33.3215C18.7101 33.0841 18.9841 32.3515 19.9534 32.6364C20.2007 32.6432 20.4414 32.6568 20.6753 32.9145C20.9227 32.9213 21.1633 32.9349 21.3973 33.1926C21.6446 33.1994 21.8852 33.213 22.3866 32.9823C22.6339 32.9891 22.8879 32.7517 23.1286 32.7653C23.1419 32.5143 23.3759 32.7721 23.8505 33.0434C24.8064 33.837 25.2944 33.8506 26.0631 33.1384Z" fill="#1E1E1E"/>
<path d="M17.4601 39.7518C16.9788 39.4805 16.4908 39.4601 16.0029 39.4398C15.7555 39.433 15.2609 39.6568 14.7595 39.8874C14.5055 40.1248 14.4922 40.3758 14.2515 40.3622C14.2448 40.6132 13.9975 40.5996 13.7502 40.5929C13.5028 40.5861 13.2622 40.5725 13.2689 40.3215C13.0349 40.0638 13.0349 40.0638 12.801 39.806C12.5737 39.2973 12.0991 39.0328 11.6178 38.7615C11.1298 38.7411 10.8825 38.7343 10.3745 39.2091C9.87312 39.4398 9.37846 39.6636 8.88381 39.6432C8.63648 39.6365 8.14851 39.6161 8.12845 40.1113C8.12177 40.3622 8.1084 40.6064 8.1084 40.6064L8.34236 40.8642C9.07766 40.8913 9.56563 40.9117 10.0536 40.932C10.3009 40.9388 10.5549 40.7014 10.7956 40.715C10.7956 40.715 11.0429 40.7217 11.2836 40.7353C11.5309 40.7421 11.7715 40.7557 11.7649 41.0066C11.9921 41.5153 12.2261 41.7731 12.7007 42.0376C13.182 42.309 13.6566 42.5735 14.1579 42.3497C14.6593 42.119 14.9133 41.8816 15.174 41.4L15.428 41.1626C15.682 40.9252 15.9293 40.932 16.17 40.9456C16.658 40.9659 16.6513 41.2169 16.8919 41.2237C17.1392 41.2305 17.6138 41.5018 17.8612 41.5153C18.3491 41.5357 18.8371 41.556 19.3518 41.0812C19.5992 41.088 19.6058 40.8438 19.6058 40.8438C19.6125 40.5929 19.6125 40.5929 19.3786 40.3351C19.1647 39.5822 18.9173 39.5686 18.6633 39.806C18.4093 40.0434 18.162 40.0367 18.162 40.0367C17.9414 40.0163 17.7074 39.7586 17.4601 39.7518Z" fill="#1E1E1E"/>
<path d="M31.1432 47.0299C32.8277 47.8438 35.281 47.6946 37.039 46.7721C38.8037 45.5987 39.3719 43.6384 38.9575 41.6306C38.5364 39.8738 37.146 37.8254 35.2008 37.4998C33.0216 36.9097 31.0095 38.0764 30.1873 40.2808C30.1807 40.5318 30.1807 40.5318 30.1673 40.776C30.1606 41.0269 30.4013 41.0337 30.6486 41.0473C30.8959 41.0541 31.3906 40.8302 31.4039 40.5793L31.4106 40.3283L31.4173 40.0773C31.424 39.8264 31.6713 39.8399 31.6847 39.589C31.6914 39.338 31.9387 39.3516 31.9387 39.3516C31.9387 39.3516 31.9387 39.3516 32.1927 39.1141L32.4467 38.8767C33.2021 38.4087 33.6967 38.1849 34.432 38.212C34.92 38.2324 35.6486 38.5105 36.1166 39.026C36.5845 39.5415 37.0524 40.057 37.5069 41.0744C37.7208 41.8273 37.9348 42.587 37.9147 43.0822C37.908 43.3332 37.888 43.8283 37.6273 44.0657C37.6206 44.3167 37.3532 44.7983 37.0992 45.0357C36.5912 45.5105 36.0831 45.9853 35.0938 46.1956C34.3518 46.4126 33.6165 46.3855 32.6339 46.3448C31.8986 46.3177 31.1833 45.7886 30.7154 45.2731C30.4815 45.0153 30.2475 44.7576 30.0202 44.2489L30.0269 43.9979C30.0336 43.7469 30.0336 43.7469 30.0336 43.7469L30.0403 43.496C30.0403 43.496 30.3144 42.7634 29.8331 42.4921L29.5857 42.4853L29.3384 42.4785C29.3384 42.4785 29.0911 42.4717 29.0844 42.7159C28.5563 43.6859 28.7702 44.4456 28.9975 44.9475C29.2315 45.7072 29.9267 46.7314 31.1432 47.0299Z" fill="#1E1E1E"/>
<path d="M88.9312 126.343C91.244 127.496 91.244 127.496 93.5235 126.682C93.8844 126.696 94.2588 126.709 94.6531 126.73C102.093 127.028 114.947 127.55 122.969 127.876C123.203 127.883 123.437 127.896 123.664 127.903C127.956 128.988 130.496 126.601 130.375 121.534C130.382 121.31 130.395 121.079 130.402 120.849C130.763 111.705 131.378 96.0503 131.772 86.0725C131.786 85.7266 131.799 85.3942 131.806 85.0619C131.846 84.7973 131.899 84.5057 131.953 84.1937C132.354 79.4184 130.001 76.8409 124.68 76.5764C124.393 76.5628 124.092 76.556 123.784 76.5492C121.625 76.4814 119.105 76.3458 117.341 76.1897C117.073 76.1762 116.806 76.1694 116.538 76.1558C111.933 75.9659 106.973 75.7692 102.655 75.5928C101.545 75.5454 100.475 75.5047 99.466 75.464C99.3056 75.4775 99.0917 75.4843 98.831 75.4843C98.5703 75.4843 98.2695 75.4843 97.9486 75.4911C95.7494 75.4504 88.51 72.6694 90.6491 80.8361C90.6224 81.1074 90.609 81.3719 90.5956 81.6026C90.5622 82.3894 90.5288 83.2373 90.4953 84.1326C90.0742 94.8497 89.3857 112.384 89.0381 121.154C89.0247 121.568 89.0047 121.954 88.998 122.328C89.0047 122.443 88.9044 124.925 88.9445 125.99C88.9312 126.221 88.9312 126.343 88.9312 126.343Z" fill="#59C69F"/>
<path d="M129.821 97.3525C129.888 95.616 129.707 94.117 129.774 92.3737C129.854 90.3863 129.687 88.3921 129.767 86.4047C129.68 82.4231 129.847 78.2041 129.52 74.2089C129.346 72.4589 127.635 72.3911 125.175 72.5403C124.687 72.52 124.44 72.5132 123.952 72.4928L92.8684 71.4618C92.3805 71.4415 92.347 72.1876 92.347 72.1876C92.347 72.1876 92.3404 72.3097 92.4005 72.4386H92.3404C91.8524 72.4182 91.8323 72.9134 91.819 73.1644C91.8123 73.4153 91.7989 73.6595 92.2869 73.6799L125.817 74.8126C126.064 74.8194 126.064 74.8194 126.305 74.833C126.552 74.8398 127.04 74.8601 127.281 74.8737C127.528 74.8805 127.762 75.145 127.748 75.3892C127.728 75.8843 127.708 76.3795 127.682 77.1256C127.675 77.3766 127.662 77.6208 127.655 77.8718L127.875 103.003C127.969 106.74 128.069 110.471 127.916 114.195C127.829 116.426 127.748 118.414 127.668 120.401C127.668 120.401 127.662 120.652 127.648 120.896C127.628 121.371 127.588 121.73 127.515 122.063C127.461 122.083 127.414 122.131 127.354 122.131C126.853 122.361 126.117 122.327 125.629 122.307C125.382 122.3 125.382 122.3 125.142 122.287L123.417 122.463C114.58 122.843 105.756 122.728 97.1867 122.626C94.9874 122.538 92.7815 122.443 90.5823 122.355C90.335 122.348 90.335 122.348 90.0943 122.334C89.847 122.327 89.6064 122.314 89.359 122.307L88.6237 122.28C88.3764 122.273 88.1425 122.009 88.1558 121.764C88.1558 121.764 88.1558 121.764 88.1625 121.513C87.9553 120.51 87.9887 119.763 88.0154 119.017C88.0355 118.522 88.0422 118.271 88.0622 117.776C88.2294 113.557 88.1625 109.073 88.089 104.848C87.9954 94.897 88.1625 84.7022 88.5703 74.5277C88.5903 74.0326 87.855 73.9987 87.855 73.9987C87.8617 73.7477 87.367 73.9783 87.347 74.4735C87.3403 74.6363 87.3403 74.8058 87.3336 74.9686C87.3336 74.9686 87.3336 74.9686 87.3269 74.9686C87.0796 74.9618 86.839 74.9483 86.8189 75.4434C86.3109 88.1073 86.3042 100.54 86.3042 112.729C86.4312 115.721 86.2975 118.949 86.4245 121.934L86.4178 122.185C86.3911 122.931 86.3577 123.677 86.8256 124.193C87.2935 124.708 88.2761 124.749 89.0048 124.783C89.2521 124.79 89.4927 124.803 89.4927 124.803C95.6091 125.054 101.739 125.061 107.608 125.298C114.961 125.353 120.609 125.088 125.756 125.054C126.492 125.081 127.481 124.878 127.742 124.389C127.976 124.172 128.103 123.833 128.183 123.474C128.21 123.453 128.243 123.44 128.27 123.419C128.778 122.945 128.818 121.948 128.851 121.208L128.871 120.713C129.226 117.993 129.346 115.015 130.015 110.566C129.961 106.062 129.894 101.585 129.821 97.3525Z" fill="#1E1E1E"/>
<path d="M119.373 82.7418C119.393 82.2467 118.911 81.9754 118.176 81.9482C117.929 81.9415 117.688 81.9279 117.434 82.1653C117.434 82.1653 116.933 82.3959 116.926 82.6401C116.926 82.6401 116.672 82.8775 116.425 82.8707C116.177 82.8639 115.703 82.5926 115.228 82.0771C114.994 81.8194 114.747 81.8058 114.76 81.5616C114.279 81.2903 113.791 81.2699 113.303 81.2496C113.303 81.2496 113.056 81.2428 113.049 81.487C112.795 81.7244 112.548 81.7176 112.307 81.7041C111.819 81.6837 111.585 81.426 111.104 81.1546L110.857 81.1478C110.375 80.8765 109.901 80.612 109.165 80.5781C108.677 80.5577 108.176 80.7884 107.668 81.2632C107.661 81.5141 107.414 81.5006 107.16 81.738C106.913 81.7312 106.913 81.7312 106.672 81.7176C106.425 81.7108 106.191 81.4463 105.957 81.1885L105.723 80.9308C105.242 80.6595 104.767 80.3949 104.266 80.6188C104.018 80.612 103.764 80.8494 103.51 81.0868C103.256 81.3242 103.009 81.3174 102.755 81.5548C102.508 81.548 102.254 81.7854 102.02 81.5277C102.02 81.5277 101.772 81.5209 101.786 81.2699C101.538 81.2632 101.552 81.0122 101.304 80.9986C101.057 80.9918 100.823 80.7273 100.582 80.7205C100.094 80.7002 99.6064 80.6798 99.1051 80.9104C98.8578 80.9037 98.8511 81.1479 98.6038 81.1411C98.3497 81.3785 97.8484 81.6091 97.5944 81.8465C97.3471 81.8397 97.1064 81.8261 96.8725 81.5684L96.6452 81.0597C96.4112 80.8019 96.4179 80.5509 96.1773 80.5442C95.9433 80.2864 95.696 80.2729 95.4553 80.2661C94.72 80.2389 93.9446 81.1953 93.4299 81.9211L93.1625 82.4095C92.9085 82.6469 93.1358 83.1556 93.1224 83.3998C93.3697 83.4066 93.6037 83.6711 93.8577 83.4269C93.8577 83.4269 94.1117 83.1895 94.3657 82.9521C94.6198 82.7147 94.8738 82.4773 95.1278 82.2399C95.1345 81.9889 95.3818 82.0025 95.6291 82.0093C95.8765 82.0161 96.1171 82.0296 96.1104 82.2806C96.3377 82.7893 96.5716 83.0471 97.0462 83.3116C97.7682 83.5897 98.5169 83.3727 99.5262 82.6672L99.7802 82.4298C100.536 81.9618 100.776 81.9754 101.491 82.4977C101.973 82.769 102.447 83.0335 102.708 82.7961C102.955 82.8029 102.962 82.5587 103.216 82.3213C103.47 82.0839 103.724 81.8465 104.225 81.6159C104.727 81.3853 105.195 81.9075 105.429 82.1653C105.676 82.1721 105.663 82.423 105.91 82.4366C106.391 82.7079 106.866 82.9725 107.113 82.986C107.361 82.9928 107.615 82.7554 107.869 82.518C108.123 82.2806 108.37 82.2874 108.377 82.0432C108.885 81.5684 109.119 81.8261 109.366 81.8329C109.613 81.8397 109.847 82.1042 110.088 82.111C110.088 82.111 110.335 82.1178 110.322 82.3688C110.803 82.6401 111.278 82.9046 111.772 82.925C112.02 82.9318 112.274 82.6944 112.514 82.7079C112.768 82.4705 113.256 82.4909 113.504 82.4977C113.992 82.518 114.473 82.7893 114.7 83.2913C114.948 83.298 114.934 83.549 115.181 83.5626C115.663 83.8339 116.151 83.8542 116.398 83.861C116.398 83.861 116.652 83.6236 116.899 83.6304C117.401 83.3998 118.149 82.9385 118.624 83.4541C118.858 83.7118 118.858 83.7118 119.105 83.7254C119.353 83.7322 119.607 83.4948 119.613 83.2506C119.607 83.0064 119.62 82.7554 119.373 82.7418Z" fill="#1E1E1E"/>
<path d="M94.3324 89.9194C94.339 89.6684 94.5997 89.431 95.0944 89.2072C95.3484 88.9698 95.8297 89.2343 96.311 89.5056C97.0262 90.0347 97.7615 90.0618 98.2562 89.8312C98.5102 89.5938 98.7575 89.6006 99.0116 89.3632C99.0116 89.3632 99.0116 89.3632 99.2656 89.1258C99.2723 88.8748 99.5196 88.8884 99.7669 88.8952C100.255 88.9155 100.489 89.1733 101.217 89.4514C101.217 89.4514 101.465 89.4581 101.451 89.7091C101.933 89.9804 102.655 90.2585 103.156 90.0279C103.403 90.0347 103.657 89.7973 103.898 89.8109C103.898 89.8109 103.898 89.8109 104.152 89.5735L104.406 89.336C104.66 89.0986 104.907 89.1054 105.141 89.3632C105.141 89.3632 105.141 89.3632 105.375 89.6209C105.375 89.6209 105.857 89.8923 106.097 89.899C106.345 89.9058 106.585 89.9194 107.073 89.9397C107.32 89.9465 107.574 89.7091 107.828 89.4717C107.835 89.2207 108.083 89.2343 108.083 89.2343C108.33 89.2411 108.33 89.2411 108.57 89.2547C108.818 89.2614 108.804 89.5124 109.052 89.526C109.299 89.5328 109.533 89.7973 109.54 89.5463C109.787 89.5531 109.807 89.0579 110.061 88.8205C110.068 88.5696 110.068 88.5696 109.834 88.3118C108.878 87.776 108.149 87.4979 107.641 87.9727L107.387 88.2101C107.381 88.461 107.133 88.4475 106.886 88.4407C106.639 88.4339 106.639 88.4339 106.405 88.1694C106.405 88.1694 105.689 87.6403 105.449 87.6335C104.961 87.6132 104.713 87.6064 104.459 87.8438C104.212 87.837 104.205 88.0812 103.958 88.0744C103.958 88.0744 103.711 88.0676 103.704 88.3118C103.697 88.5628 103.45 88.5492 103.203 88.5424C102.955 88.5357 102.955 88.5357 102.715 88.5221C102.467 88.5153 102.234 88.2508 101.993 88.244C101.746 88.2372 101.759 87.9862 101.512 87.9727C100.79 87.6946 100.061 87.4165 99.553 87.8913C99.299 88.1287 99.045 88.3661 98.791 88.6035L98.537 88.8409C98.2829 89.0783 98.0356 89.0715 97.795 89.0579C97.795 89.0579 97.795 89.0579 97.561 88.8002C97.0797 88.5289 96.6051 88.2643 96.1105 88.244C95.8631 88.2372 95.6225 88.2236 95.1211 88.4543C94.3792 88.6713 93.8711 89.1461 93.5904 89.8855C93.323 90.3739 93.5703 90.3806 93.8043 90.6384C93.577 90.3874 94.065 90.4078 94.3324 89.9194Z" fill="#1E1E1E"/>
<path d="M122.314 95.0542C121.285 96.2548 120.329 95.7189 119.6 95.4408C119.366 95.1831 118.878 95.1627 118.631 95.1492C118.383 95.1424 117.895 95.122 117.641 95.3594C117.641 95.3594 117.387 95.5968 117.14 95.5901C116.886 95.8275 116.632 96.0649 116.385 96.0581C116.137 96.0513 115.903 95.7868 115.669 95.529C115.436 95.2713 115.188 95.2577 115.202 95.0135C114.954 95.0067 114.72 94.7422 114.466 94.9864C114.219 94.9796 113.965 95.217 113.711 95.4544C112.949 96.1666 112.461 96.1463 112 95.3866L111.766 95.1288C111.064 94.3556 110.562 94.5794 110.315 94.5726C110.068 94.5658 109.814 94.8032 109.56 95.0406C109.306 95.2781 109.052 95.5154 109.038 95.7664C108.791 95.7596 108.537 95.997 108.55 95.7461C108.55 95.7461 108.303 95.7393 108.316 95.4883C108.069 95.4815 108.083 95.2306 107.835 95.217C107.354 94.9457 106.879 94.6812 106.385 94.6608C106.137 94.654 105.883 94.8914 105.395 94.8711C104.653 95.0881 103.397 95.7868 102.481 94.2538C102.247 93.9961 101.759 93.9757 101.512 93.9622C101.01 94.1928 100.75 94.6744 100.482 95.1627C100.228 95.4001 100.215 95.6511 99.9608 95.8885C99.7068 96.1259 99.4528 96.3633 98.9648 96.343C98.4768 96.3226 98.2428 96.0649 98.0089 95.8071C97.7816 95.2984 97.5476 95.0406 97.0597 95.0203C96.8123 95.0135 96.8257 94.7625 96.3377 94.7422C95.6024 94.7151 94.6064 95.1695 93.2695 97.8488C93.2628 98.0998 93.2495 98.344 93.2428 98.5949C93.4768 98.8527 93.7107 99.1104 93.9647 98.873C93.9647 98.873 94.2121 98.8798 94.4661 98.6424C94.7335 98.154 94.9875 97.9166 95.2482 97.4283C95.2549 97.1773 95.5155 96.9399 95.5155 96.9399C95.5155 96.9399 95.5222 96.6889 95.7696 96.7025C95.7762 96.4515 96.0369 96.2141 96.2776 96.2277C96.7656 96.248 96.7589 96.499 96.9928 96.7567C97.4541 97.5232 97.9287 97.7877 98.41 98.0591C99.1319 98.3372 99.8872 97.8691 100.141 97.6317C100.395 97.3943 100.649 97.1569 100.917 96.6686C101.171 96.4312 101.184 96.1802 101.438 95.9428C101.445 95.6918 101.692 95.7054 101.939 95.7122C102.187 95.7189 102.187 95.7189 102.421 95.9835C102.889 96.499 103.617 96.7771 104.105 96.7974C104.593 96.8178 105.081 96.8381 105.582 96.6075C105.83 96.6143 105.837 96.3701 105.837 96.3701C106.338 96.1395 106.833 95.9156 107.548 96.4379C108.497 97.2248 109.232 97.2519 109.988 96.7839C110.235 96.7906 110.242 96.5465 110.496 96.3091C110.502 96.0581 110.75 96.0717 110.997 96.0784C111.244 96.0852 111.485 96.0988 111.478 96.3498C111.712 96.6075 111.946 96.8653 112.194 96.8788C112.915 97.1569 114.139 97.2112 114.66 96.4854C114.667 96.2345 114.914 96.248 115.168 96.0106C115.415 96.0174 115.656 96.031 115.649 96.2819C115.883 96.5397 115.883 96.5397 116.117 96.7974C116.599 97.0688 116.839 97.0755 117.334 97.0959C117.581 97.1027 117.588 96.8585 117.835 96.8653C118.089 96.6279 118.343 96.3905 118.831 96.4108C119.319 96.4312 119.801 96.7025 120.048 96.7093C120.295 96.716 120.529 96.9806 120.529 96.9806C121.498 97.2722 122.742 96.8246 123.504 96.1056C123.758 95.8682 123.771 95.6172 123.771 95.6172C123.303 95.1017 123.069 94.8439 122.822 94.8304C122.809 94.8236 122.568 94.8168 122.314 95.0542Z" fill="#1E1E1E"/>
<path d="M112.374 104.591C112.628 104.354 112.875 104.36 113.129 104.123C113.377 104.13 113.617 104.143 113.611 104.394C113.611 104.394 113.611 104.394 113.858 104.401C114.827 104.693 115.817 104.482 116.813 104.028C117.314 103.797 117.087 103.295 116.853 103.038C116.619 102.78 116.371 102.766 116.117 103.011C115.616 103.241 115.108 103.716 114.139 103.424C113.892 103.418 113.651 103.404 113.658 103.153C113.41 103.146 113.176 102.882 112.936 102.875C112.688 102.868 112.434 103.106 112.18 103.343L111.926 103.58C111.672 103.818 111.425 103.811 111.191 103.553L110.957 103.295C110.255 102.522 109.52 102.488 108.53 102.699L108.283 102.692C108.029 102.929 107.541 102.909 107.047 102.888C106.799 102.882 106.565 102.617 106.325 102.61C106.077 102.604 105.843 102.339 105.843 102.339C105.108 102.312 104.607 102.536 103.838 103.499L103.584 103.736C103.33 103.974 102.809 104.7 102.334 104.428C102.087 104.421 101.853 104.157 101.619 103.899L101.385 103.641C100.663 103.363 100.161 103.594 99.4061 104.055L99.1521 104.293C98.1561 104.747 96.6587 105.432 95.2082 104.876L94.9608 104.869C94.9608 104.869 94.7135 104.862 94.7068 105.107C94.4528 105.344 94.4394 105.595 94.4328 105.839C94.4261 106.09 94.6667 106.097 94.9007 106.355C95.8699 106.646 97.0932 106.694 98.0892 106.239C98.5906 106.009 99.0852 105.785 99.5865 105.554C99.8406 105.317 100.088 105.324 100.342 105.086C100.596 104.849 100.843 104.856 101.077 105.113L101.311 105.371C101.304 105.622 101.538 105.88 102.026 105.9C102.508 106.171 103.002 105.941 103.497 105.961C103.751 105.724 104.252 105.493 104.513 105.012C104.513 105.012 104.52 104.761 104.767 104.774C105.021 104.537 105.295 103.804 106.264 104.089C106.512 104.096 106.752 104.109 106.986 104.367C107.234 104.374 107.474 104.388 107.708 104.645C107.956 104.652 108.196 104.666 108.698 104.435C108.945 104.442 109.199 104.204 109.44 104.218C109.453 103.967 109.687 104.225 110.162 104.496C111.117 105.29 111.605 105.31 112.374 104.591Z" fill="#1E1E1E"/>
<path d="M103.771 111.205C103.29 110.933 102.802 110.913 102.314 110.893C102.066 110.886 101.572 111.11 101.07 111.34C100.816 111.578 100.803 111.829 100.562 111.815C100.556 112.066 100.308 112.052 100.061 112.046C99.8136 112.039 99.573 112.025 99.5797 111.774C99.3457 111.517 99.3457 111.517 99.1118 111.259C98.8845 110.75 98.4099 110.486 97.9286 110.214C97.4406 110.194 97.1933 110.187 96.6853 110.662C96.1839 110.893 95.6893 111.116 95.1946 111.096C94.9473 111.089 94.4593 111.069 94.4392 111.564C94.4326 111.815 94.4192 112.059 94.4192 112.059L94.6532 112.317C95.3885 112.344 95.8764 112.364 96.3644 112.385C96.6117 112.392 96.8657 112.154 97.1064 112.168C97.1064 112.168 97.3537 112.174 97.5944 112.188C97.8417 112.195 98.0823 112.208 98.0756 112.459C98.3029 112.968 98.5369 113.226 99.0115 113.49C99.4928 113.762 99.9674 114.026 100.469 113.802C100.97 113.572 101.224 113.334 101.485 112.853L101.739 112.615C101.993 112.378 102.24 112.385 102.481 112.398C102.969 112.419 102.962 112.67 103.203 112.676C103.45 112.683 103.925 112.955 104.172 112.968C104.66 112.988 105.148 113.009 105.663 112.534C105.91 112.541 105.917 112.297 105.917 112.297C105.923 112.046 105.923 112.046 105.689 111.788C105.475 111.035 105.228 111.021 104.974 111.259C104.72 111.496 104.473 111.489 104.473 111.489C104.252 111.469 104.018 111.211 103.771 111.205Z" fill="#1E1E1E"/>
<path d="M117.454 118.483C119.139 119.297 121.592 119.148 123.35 118.225C125.115 117.052 125.683 115.091 125.269 113.084C124.847 111.327 123.457 109.278 121.512 108.953C119.333 108.363 117.321 109.529 116.498 111.734C116.492 111.985 116.492 111.985 116.478 112.229C116.472 112.48 116.712 112.487 116.96 112.5C117.207 112.507 117.702 112.283 117.715 112.032L117.722 111.781L117.728 111.53C117.735 111.279 117.982 111.293 117.996 111.042C118.002 110.791 118.25 110.805 118.25 110.805C118.25 110.805 118.25 110.805 118.504 110.567L118.758 110.33C119.513 109.862 120.008 109.638 120.743 109.665C121.231 109.685 121.96 109.963 122.428 110.479C122.895 110.994 123.363 111.51 123.818 112.527C124.032 113.28 124.246 114.04 124.226 114.535C124.219 114.786 124.199 115.281 123.938 115.519C123.932 115.77 123.664 116.251 123.41 116.489C122.902 116.963 122.394 117.438 121.405 117.649C120.663 117.866 119.928 117.839 118.945 117.798C118.21 117.771 117.494 117.242 117.026 116.726C116.793 116.468 116.559 116.211 116.331 115.702L116.338 115.451C116.345 115.2 116.345 115.2 116.345 115.2L116.351 114.949C116.351 114.949 116.625 114.216 116.144 113.945L115.897 113.938L115.649 113.932C115.649 113.932 115.402 113.925 115.395 114.169C114.867 115.139 115.081 115.899 115.309 116.401C115.542 117.16 116.238 118.184 117.454 118.483Z" fill="#1E1E1E"/>
<path d="M3.93066 206.187C6.24352 207.34 6.24352 207.34 8.52296 206.526C8.88392 206.54 9.25826 206.553 9.65265 206.574C17.0926 206.872 29.947 207.395 37.9684 207.72C38.2024 207.727 38.4364 207.74 38.6636 207.747C42.9551 208.833 45.4953 206.445 45.3749 201.378C45.3816 201.154 45.395 200.924 45.4017 200.693C45.7626 191.549 46.3776 175.894 46.772 165.917C46.7854 165.571 46.7987 165.238 46.8054 164.906C46.8455 164.641 46.899 164.35 46.9525 164.038C47.3536 159.262 45.0006 156.685 39.6797 156.42C39.3923 156.407 39.0914 156.4 38.784 156.393C36.6248 156.325 34.1048 156.19 32.34 156.034C32.0727 156.02 31.8053 156.013 31.5379 156C26.9322 155.81 21.9723 155.613 17.6541 155.437C16.5444 155.389 15.4749 155.349 14.4655 155.308C14.3051 155.322 14.0912 155.328 13.8305 155.328C13.5698 155.328 13.269 155.328 12.9481 155.335C10.7489 155.294 3.50954 152.513 5.6486 160.68C5.62186 160.951 5.60849 161.216 5.59512 161.447C5.5617 162.233 5.52827 163.081 5.49485 163.977C5.07372 174.694 4.38521 192.228 4.03762 200.998C4.02425 201.412 4.00419 201.799 3.99751 202.172C4.00419 202.287 3.90393 204.77 3.94403 205.834C3.93066 206.065 3.93066 206.187 3.93066 206.187Z" fill="#59C69F"/>
<path d="M44.8134 177.197C44.8802 175.461 44.6997 173.961 44.7666 172.218C44.8468 170.231 44.6797 168.237 44.7599 166.249C44.673 162.268 44.8401 158.049 44.5126 154.053C44.3387 152.303 42.6275 152.236 40.1676 152.385C39.6796 152.364 39.4323 152.358 38.9443 152.337L7.86111 151.306C7.37314 151.286 7.33972 152.032 7.33972 152.032C7.33972 152.032 7.33303 152.154 7.39319 152.283H7.33303C6.84506 152.263 6.82501 152.758 6.81164 153.009C6.80495 153.26 6.79158 153.504 7.27956 153.524L40.8093 154.657C41.0566 154.664 41.0566 154.664 41.2973 154.677C41.5446 154.684 42.0326 154.705 42.2732 154.718C42.5206 154.725 42.7545 154.989 42.7411 155.234C42.7211 155.729 42.701 156.224 42.6743 156.97C42.6676 157.221 42.6542 157.465 42.6476 157.716L42.8681 182.847C42.9617 186.585 43.062 190.315 42.9083 194.039C42.8214 196.271 42.7411 198.258 42.6609 200.245C42.6609 200.245 42.6542 200.496 42.6409 200.741C42.6208 201.215 42.5807 201.575 42.5072 201.907C42.4537 201.928 42.4069 201.975 42.3468 201.975C41.8454 202.206 41.1101 202.172 40.6221 202.152C40.3748 202.145 40.3748 202.145 40.1342 202.131L38.4095 202.308C29.5726 202.687 20.7489 202.572 12.1793 202.47C9.98012 202.382 7.77421 202.287 5.57499 202.199C5.32766 202.192 5.32766 202.192 5.08702 202.179C4.83969 202.172 4.59905 202.158 4.35172 202.152L3.61642 202.124C3.36909 202.118 3.13513 201.853 3.1485 201.609C3.1485 201.609 3.1485 201.609 3.15518 201.358C2.94796 200.354 2.98138 199.608 3.00812 198.862C3.02818 198.367 3.03486 198.116 3.05491 197.62C3.22203 193.401 3.15518 188.918 3.08165 184.692C2.98807 174.742 3.15518 164.547 3.56294 154.372C3.58299 153.877 2.84769 153.843 2.84769 153.843C2.85438 153.592 2.35972 153.823 2.33967 154.318C2.33298 154.481 2.33298 154.65 2.3263 154.813C2.3263 154.813 2.3263 154.813 2.31961 154.813C2.07228 154.806 1.83164 154.793 1.81159 155.288C1.30356 167.952 1.29688 180.385 1.29688 192.574C1.42388 195.565 1.29019 198.794 1.4172 201.778L1.41051 202.029C1.38377 202.776 1.35035 203.522 1.81827 204.037C2.28619 204.553 3.26882 204.593 3.99744 204.627C4.24477 204.634 4.48541 204.648 4.48541 204.648C10.6018 204.899 16.7315 204.905 22.6006 205.143C29.9536 205.197 35.602 204.933 40.7491 204.899C41.4844 204.926 42.4738 204.722 42.7345 204.234C42.9684 204.017 43.0954 203.678 43.1756 203.318C43.2024 203.298 43.2358 203.284 43.2625 203.264C43.7706 202.789 43.8107 201.792 43.8441 201.053L43.8642 200.558C44.2184 197.838 44.3388 194.86 45.0072 190.41C44.9604 185.906 44.8936 181.43 44.8134 177.197Z" fill="#1E1E1E"/>
<path d="M34.3719 162.593C34.392 162.098 33.9107 161.827 33.1754 161.8C32.9281 161.793 32.6874 161.779 32.4334 162.017C32.4334 162.017 31.9321 162.247 31.9254 162.491C31.9254 162.491 31.6714 162.729 31.4241 162.722C31.1767 162.715 30.7021 162.444 30.2275 161.928C29.9936 161.671 29.7462 161.657 29.7596 161.413C29.2783 161.142 28.7903 161.121 28.3024 161.101C28.3024 161.101 28.055 161.094 28.0484 161.338C27.7943 161.576 27.547 161.569 27.3064 161.555C26.8184 161.535 26.5844 161.277 26.1031 161.006L25.8558 160.999C25.3745 160.728 24.8999 160.463 24.1646 160.429C23.6767 160.409 23.1753 160.64 22.6673 161.114C22.6606 161.365 22.4133 161.352 22.1593 161.589C21.9119 161.583 21.9119 161.583 21.6713 161.569C21.424 161.562 21.19 161.298 20.956 161.04L20.7221 160.782C20.2408 160.511 19.7662 160.246 19.2648 160.47C19.0175 160.463 18.7635 160.701 18.5095 160.938C18.2555 161.176 18.0081 161.169 17.7541 161.406C17.5068 161.399 17.2528 161.637 17.0188 161.379C17.0188 161.379 16.7715 161.372 16.7849 161.121C16.5375 161.114 16.5509 160.864 16.3036 160.85C16.0563 160.843 15.8223 160.579 15.5817 160.572C15.0937 160.551 14.6057 160.531 14.1044 160.762C13.857 160.755 13.8503 160.999 13.603 160.992C13.349 161.23 12.8477 161.46 12.5937 161.698C12.3463 161.691 12.1057 161.677 11.8717 161.42L11.6444 160.911C11.4105 160.653 11.4172 160.402 11.1765 160.395C10.9426 160.138 10.6952 160.124 10.4546 160.117C9.71929 160.09 8.94388 161.047 8.42917 161.772L8.16179 162.261C7.90778 162.498 8.13505 163.007 8.12168 163.251C8.36901 163.258 8.60297 163.522 8.85698 163.278C8.85698 163.278 9.111 163.041 9.36501 162.803C9.61902 162.566 9.87304 162.329 10.127 162.091C10.1337 161.84 10.3811 161.854 10.6284 161.861C10.8757 161.867 11.1164 161.881 11.1097 162.132C11.337 162.641 11.5709 162.898 12.0455 163.163C12.7675 163.441 13.5161 163.224 14.5255 162.519L14.7795 162.281C15.5349 161.813 15.7755 161.827 16.4908 162.349C16.972 162.62 17.4466 162.885 17.7073 162.647C17.9547 162.654 17.9614 162.41 18.2154 162.173C18.4694 161.935 18.7234 161.698 19.2247 161.467C19.7261 161.237 20.194 161.759 20.428 162.017C20.6753 162.023 20.6619 162.274 20.9092 162.288C21.3905 162.559 21.8651 162.824 22.1125 162.837C22.3598 162.844 22.6138 162.607 22.8678 162.369C23.1218 162.132 23.3692 162.139 23.3758 161.895C23.8839 161.42 24.1178 161.677 24.3652 161.684C24.6125 161.691 24.8464 161.956 25.0871 161.962C25.0871 161.962 25.3344 161.969 25.3211 162.22C25.8023 162.491 26.2769 162.756 26.7716 162.776C27.0189 162.783 27.2729 162.546 27.5136 162.559C27.7676 162.322 28.2556 162.342 28.5029 162.349C28.9909 162.369 29.4722 162.641 29.6994 163.143C29.9468 163.149 29.9334 163.4 30.1807 163.414C30.662 163.685 31.15 163.706 31.3973 163.712C31.3973 163.712 31.6513 163.475 31.8987 163.482C32.4 163.251 33.1487 162.79 33.6233 163.305C33.8572 163.563 33.8572 163.563 34.1046 163.577C34.3519 163.583 34.6059 163.346 34.6126 163.102C34.6059 162.851 34.6126 162.6 34.3719 162.593Z" fill="#1E1E1E"/>
<path d="M9.33175 169.77C9.33843 169.519 9.59913 169.281 10.0938 169.058C10.3478 168.82 10.8291 169.085 11.3104 169.356C12.0256 169.885 12.7609 169.912 13.2556 169.682C13.5096 169.444 13.7569 169.451 14.0109 169.214C14.0109 169.214 14.0109 169.214 14.265 168.976C14.2716 168.725 14.519 168.739 14.7663 168.745C15.2543 168.766 15.4882 169.024 16.2168 169.302C16.2168 169.302 16.4642 169.308 16.4508 169.559C16.9321 169.831 17.654 170.109 18.1554 169.878C18.4027 169.885 18.6567 169.648 18.8974 169.661C18.8974 169.661 18.8974 169.661 19.1514 169.424L19.4054 169.186C19.6594 168.949 19.9067 168.956 20.1407 169.214C20.1407 169.214 20.1407 169.214 20.3746 169.471C20.3746 169.471 20.8559 169.743 21.0966 169.749C21.3439 169.756 21.5845 169.77 22.0725 169.79C22.3198 169.797 22.5739 169.559 22.8279 169.322C22.8346 169.071 23.0819 169.085 23.0819 169.085C23.3292 169.091 23.3292 169.091 23.5699 169.105C23.8172 169.112 23.8038 169.363 24.0511 169.376C24.2985 169.383 24.5324 169.648 24.5391 169.397C24.7864 169.403 24.8065 168.908 25.0605 168.671C25.0672 168.42 25.0672 168.42 24.8332 168.162C23.8774 167.626 23.1487 167.348 22.6407 167.823L22.3867 168.06C22.38 168.311 22.1327 168.298 21.8854 168.291C21.638 168.284 21.638 168.284 21.4041 168.02C21.4041 168.02 20.6888 167.491 20.4482 167.484C19.9602 167.464 19.7129 167.457 19.4589 167.694C19.2115 167.687 19.2048 167.932 18.9575 167.925C18.9575 167.925 18.7102 167.918 18.7035 168.162C18.6968 168.413 18.4495 168.4 18.2022 168.393C17.9548 168.386 17.9548 168.386 17.7142 168.372C17.4669 168.366 17.2329 168.101 16.9923 168.094C16.7449 168.088 16.7583 167.837 16.511 167.823C15.789 167.545 15.0604 167.267 14.5524 167.742C14.2984 167.979 14.0444 168.216 13.7903 168.454L13.5363 168.691C13.2823 168.929 13.035 168.922 12.7944 168.908C12.7944 168.908 12.7944 168.908 12.5604 168.651C12.0791 168.379 11.6045 168.115 11.1098 168.094C10.8625 168.088 10.6219 168.074 10.1205 168.305C9.37854 168.522 8.87051 168.996 8.58976 169.736C8.32238 170.224 8.56971 170.231 8.80367 170.489C8.57639 170.238 9.06437 170.251 9.33175 169.77Z" fill="#1E1E1E"/>
<path d="M37.3066 174.898C36.2772 176.098 35.3213 175.562 34.5927 175.284C34.3587 175.026 33.8708 175.006 33.6234 174.993C33.3761 174.986 32.8881 174.965 32.6341 175.203C32.6341 175.203 32.3801 175.44 32.1328 175.433C31.8788 175.671 31.6247 175.908 31.3774 175.901C31.1301 175.895 30.8961 175.63 30.6622 175.372C30.4282 175.115 30.1809 175.101 30.1943 174.857C29.9469 174.85 29.713 174.586 29.459 174.83C29.2116 174.823 28.9576 175.06 28.7036 175.298C27.9416 176.01 27.4536 175.99 26.9923 175.23L26.7584 174.972C26.0565 174.199 25.5552 174.423 25.3078 174.416C25.0605 174.409 24.8065 174.647 24.5525 174.884C24.2985 175.121 24.0445 175.359 24.0311 175.61C23.7838 175.603 23.5297 175.84 23.5431 175.589C23.5431 175.589 23.2958 175.583 23.3092 175.332C23.0618 175.325 23.0752 175.074 22.8279 175.06C22.3466 174.789 21.872 174.525 21.3773 174.504C21.13 174.497 20.876 174.735 20.388 174.714C19.646 174.932 18.3893 175.63 17.4735 174.097C17.2396 173.839 16.7516 173.819 16.5043 173.806C16.0029 174.036 15.7422 174.518 15.4749 175.006C15.2208 175.244 15.2075 175.495 14.9535 175.732C14.6994 175.969 14.4454 176.207 13.9575 176.186C13.4695 176.166 13.2355 175.908 13.0016 175.651C12.7743 175.142 12.5403 174.884 12.0524 174.864C11.805 174.857 11.8184 174.606 11.3304 174.586C10.5951 174.558 9.59912 175.013 8.26221 177.692C8.25553 177.943 8.24216 178.187 8.23547 178.438C8.46943 178.696 8.70339 178.954 8.95741 178.716C8.95741 178.716 9.20473 178.723 9.45875 178.486C9.72613 177.997 9.98014 177.76 10.2408 177.272C10.2475 177.021 10.5082 176.783 10.5082 176.783C10.5082 176.783 10.5149 176.532 10.7622 176.546C10.7689 176.295 11.0296 176.057 11.2703 176.071C11.7582 176.091 11.7516 176.342 11.9855 176.6C12.4467 177.367 12.9213 177.631 13.4026 177.902C14.1246 178.181 14.8799 177.713 15.1339 177.475C15.388 177.238 15.642 177 15.9093 176.512C16.1634 176.275 16.1767 176.024 16.4307 175.786C16.4374 175.535 16.6848 175.549 16.9321 175.556C17.1794 175.562 17.1794 175.562 17.4134 175.827C17.8813 176.342 18.6099 176.62 19.0979 176.641C19.5859 176.661 20.0738 176.682 20.5752 176.451C20.8225 176.458 20.8292 176.213 20.8292 176.213C21.3305 175.983 21.8252 175.759 22.5404 176.281C23.4896 177.068 24.2249 177.095 24.9803 176.627C25.2276 176.634 25.2343 176.39 25.4883 176.152C25.495 175.901 25.7423 175.915 25.9897 175.922C26.237 175.929 26.4776 175.942 26.471 176.193C26.7049 176.451 26.9389 176.709 27.1862 176.722C27.9081 177 29.1314 177.055 29.6528 176.329C29.6595 176.078 29.9068 176.091 30.1608 175.854C30.4082 175.861 30.6488 175.874 30.6421 176.125C30.8761 176.383 30.8761 176.383 31.11 176.641C31.5913 176.912 31.832 176.919 32.3266 176.939C32.574 176.946 32.5806 176.702 32.828 176.709C33.082 176.471 33.336 176.234 33.824 176.254C34.3119 176.275 34.7932 176.546 35.0406 176.553C35.2879 176.559 35.5218 176.824 35.5218 176.824C36.4911 177.116 37.7344 176.668 38.4965 175.949C38.7505 175.712 38.7639 175.461 38.7639 175.461C38.2959 174.945 38.062 174.687 37.8146 174.674C37.808 174.674 37.5673 174.66 37.3066 174.898Z" fill="#1E1E1E"/>
<path d="M27.3667 184.441C27.6207 184.204 27.868 184.211 28.122 183.973C28.3693 183.98 28.61 183.994 28.6033 184.245C28.6033 184.245 28.6033 184.245 28.8506 184.251C29.8199 184.543 30.8092 184.333 31.8052 183.878C32.3066 183.648 32.0793 183.146 31.8453 182.888C31.6114 182.63 31.364 182.617 31.11 182.861C30.6087 183.091 30.1007 183.566 29.1314 183.275C28.8841 183.268 28.6434 183.254 28.6501 183.003C28.4028 182.996 28.1688 182.732 27.9282 182.725C27.6808 182.718 27.4268 182.956 27.1728 183.193L26.9188 183.431C26.6648 183.668 26.4175 183.661 26.1835 183.403L25.9495 183.146C25.2477 182.372 24.5124 182.338 23.523 182.549L23.2757 182.542C23.0217 182.779 22.5337 182.759 22.0391 182.739C21.7917 182.732 21.5578 182.467 21.3171 182.461C21.0698 182.454 20.8359 182.189 20.8359 182.189C20.1005 182.162 19.5992 182.386 18.8305 183.349L18.5765 183.587C18.3225 183.824 17.8011 184.55 17.3265 184.278C17.0791 184.272 16.8452 184.007 16.6112 183.749L16.3772 183.492C15.6553 183.214 15.154 183.444 14.3986 183.905L14.1446 184.143C13.1486 184.597 11.6513 185.282 10.2007 184.726L9.95339 184.719C9.95339 184.719 9.70606 184.713 9.69937 184.957C9.44536 185.194 9.43199 185.445 9.42531 185.689C9.41862 185.94 9.65927 185.947 9.89323 186.205C10.8625 186.496 12.0858 186.544 13.0818 186.089C13.5831 185.859 14.0778 185.635 14.5791 185.404C14.8331 185.167 15.0804 185.174 15.3345 184.936C15.5885 184.699 15.8358 184.706 16.0698 184.964L16.3037 185.221C16.297 185.472 16.531 185.73 17.019 185.75C17.5003 186.022 17.9949 185.791 18.4896 185.811C18.7436 185.574 19.2449 185.343 19.5056 184.862C19.5056 184.862 19.5123 184.611 19.7596 184.624C20.0136 184.387 20.2877 183.654 21.257 183.939C21.5043 183.946 21.745 183.96 21.9789 184.217C22.2262 184.224 22.4669 184.238 22.7008 184.495C22.9482 184.502 23.1888 184.516 23.6902 184.285C23.9375 184.292 24.1915 184.055 24.4321 184.068C24.4455 183.817 24.6795 184.075 25.1541 184.346C26.1167 185.133 26.6046 185.153 27.3667 184.441Z" fill="#1E1E1E"/>
<path d="M18.7704 191.048C18.2891 190.776 17.8011 190.756 17.3132 190.736C17.0658 190.729 16.5712 190.953 16.0698 191.183C15.8158 191.421 15.8025 191.672 15.5618 191.658C15.5551 191.909 15.3078 191.896 15.0605 191.889C14.8131 191.882 14.5725 191.868 14.5792 191.617C14.3452 191.36 14.3452 191.36 14.1113 191.102C13.884 190.593 13.4094 190.329 12.9281 190.057C12.4401 190.037 12.1928 190.03 11.6848 190.505C11.1834 190.736 10.6888 190.959 10.1941 190.939C9.94678 190.932 9.45881 190.912 9.43875 191.407C9.43207 191.658 9.4187 191.902 9.4187 191.902L9.65266 192.16C10.388 192.187 10.8759 192.208 11.3639 192.228C11.6112 192.235 11.8653 191.997 12.1059 192.011C12.1059 192.011 12.3532 192.018 12.5939 192.031C12.8412 192.038 13.0818 192.052 13.0752 192.303C13.3024 192.811 13.5364 193.069 14.011 193.334C14.4923 193.605 14.9669 193.869 15.4682 193.646C15.9696 193.422 16.2236 193.178 16.4843 192.696L16.7383 192.459C16.9923 192.221 17.2396 192.228 17.4803 192.241C17.9683 192.262 17.9616 192.513 18.2022 192.52C18.4495 192.526 18.9241 192.798 19.1715 192.811C19.6594 192.832 20.1474 192.852 20.6621 192.377C20.9095 192.384 20.9161 192.14 20.9161 192.14C20.9228 191.889 20.9228 191.889 20.6889 191.631C20.475 190.878 20.2276 190.865 19.9736 191.102C19.7196 191.339 19.4723 191.333 19.4723 191.333C19.2517 191.319 19.0177 191.061 18.7704 191.048Z" fill="#1E1E1E"/>
<path d="M32.4535 198.326C34.1381 199.14 36.5913 198.991 38.3493 198.068C40.114 196.895 40.6822 194.935 40.2678 192.927C39.8467 191.17 38.4563 189.122 36.5111 188.796C34.3319 188.206 32.3199 189.372 31.4976 191.577C31.491 191.828 31.491 191.828 31.4776 192.072C31.4709 192.323 31.7116 192.33 31.9589 192.343C32.2062 192.35 32.7009 192.126 32.7142 191.875L32.7209 191.624L32.7276 191.373C32.7343 191.123 32.9816 191.136 32.995 190.885C33.0017 190.634 33.249 190.648 33.249 190.648C33.249 190.648 33.249 190.648 33.503 190.41L33.757 190.173C34.5124 189.705 35.007 189.481 35.7423 189.508C36.2303 189.529 36.9589 189.807 37.4269 190.322C37.8948 190.838 38.3627 191.353 38.8172 192.371C39.0311 193.123 39.2451 193.883 39.225 194.378C39.2183 194.629 39.1983 195.124 38.9376 195.362C38.9309 195.613 38.6635 196.094 38.4095 196.332C37.9015 196.807 37.3934 197.281 36.4041 197.492C35.6621 197.709 34.9268 197.682 33.9442 197.641C33.2089 197.614 32.4936 197.085 32.0257 196.569C31.7918 196.311 31.5578 196.054 31.3305 195.545L31.3372 195.294C31.3439 195.043 31.3439 195.043 31.3439 195.043L31.3506 194.792C31.3506 194.792 31.6247 194.06 31.1434 193.788L30.896 193.781L30.6487 193.775C30.6487 193.775 30.4014 193.768 30.3947 194.012C29.8666 194.982 30.0805 195.742 30.3078 196.244C30.5418 197.003 31.237 198.028 32.4535 198.326Z" fill="#1E1E1E"/>
<path d="M33.4561 83.4611C33.2823 83.4611 33.1085 83.4136 32.9548 83.3255C32.3599 82.9728 31.7917 82.6675 31.2569 82.3759C30.5082 81.9689 29.8064 81.5822 29.1446 81.1481C28.6767 80.8429 28.543 80.2121 28.8438 79.7441C29.1446 79.2693 29.7662 79.1336 30.2275 79.4388C30.8224 79.8322 31.4975 80.1917 32.2061 80.5851C32.7609 80.8836 33.3425 81.2024 33.9575 81.5687C34.4388 81.8536 34.5992 82.4708 34.3184 82.9592C34.1379 83.278 33.8037 83.4611 33.4561 83.4611ZM26.0697 77.3836C25.7421 77.3836 25.4213 77.2208 25.2274 76.9223C24.3384 75.5318 23.583 74.0803 22.8477 72.6694L22.5603 72.1064C22.3063 71.6045 22.5001 70.994 22.9881 70.7363C23.4828 70.4785 24.0844 70.6752 24.3384 71.1704L24.6191 71.7198C25.3277 73.0832 26.0697 74.5008 26.9053 75.8099C27.2061 76.2847 27.0724 76.9088 26.6111 77.2208C26.444 77.3293 26.2569 77.3836 26.0697 77.3836ZM21.3704 67.6636C20.9293 67.6636 20.5282 67.3651 20.4079 66.9175C20.0937 65.7711 19.9399 64.7198 19.9399 63.6955C19.9399 62.7527 20.0736 61.8438 20.341 60.9891C20.5081 60.4533 21.0696 60.1548 21.5977 60.3244C22.1258 60.494 22.4199 61.0637 22.2528 61.5996C22.0456 62.2576 21.9453 62.963 21.9453 63.6888C21.9453 64.5231 22.0723 65.3981 22.3397 66.368C22.4868 66.9107 22.1726 67.4737 21.6445 67.6229C21.5509 67.65 21.4573 67.6636 21.3704 67.6636Z" fill="#1E1E1E"/>
<path d="M82.3072 96.4247C80.509 96.4247 78.6775 96.3433 76.8793 96.1805C76.3245 96.133 75.9167 95.6379 75.9635 95.0817C76.0103 94.5255 76.4916 94.1117 77.0464 94.1524C78.7911 94.3016 80.5625 94.383 82.3005 94.383C82.8553 94.383 83.3032 94.8375 83.3032 95.4005C83.3032 95.9635 82.862 96.4247 82.3072 96.4247ZM71.6653 95.4954C71.6119 95.4954 71.5517 95.4887 71.4982 95.4819C69.7201 95.1699 67.9354 94.7832 66.1907 94.3288C65.6559 94.1863 65.3351 93.6301 65.4688 93.0875C65.6025 92.5448 66.1506 92.2193 66.692 92.3549C68.3832 92.7958 70.1145 93.1757 71.8392 93.4741C72.3873 93.5691 72.7549 94.0981 72.6613 94.6476C72.5678 95.1495 72.1466 95.4954 71.6653 95.4954ZM61.3177 92.7822C61.2107 92.7822 61.0971 92.7619 60.9834 92.728C59.2789 92.1243 57.581 91.4392 55.9366 90.6863C55.4286 90.4557 55.208 89.852 55.4286 89.3433C55.6558 88.8278 56.2508 88.6039 56.7521 88.8278C58.343 89.5535 59.9874 90.2183 61.6385 90.8016C62.1599 90.9848 62.434 91.5681 62.2535 92.0972C62.1198 92.5245 61.7321 92.7822 61.3177 92.7822Z" fill="#1E1E1E"/>
<path d="M51.3441 77.7295C49.038 74.8807 44.82 73.185 41.4376 75.0706C40.3079 75.7014 41.3173 77.4582 42.447 76.8274C44.6729 75.5861 47.4671 76.685 49.1783 78.3468C51.0701 80.1918 51.9591 82.9185 51.4377 85.5435C51.1837 86.8255 50.6623 88.2839 49.4925 88.9825C48.2759 89.7151 46.685 90.0135 45.2879 90.0407C42.8013 90.0814 40.1274 88.9147 39.078 86.4932C37.9349 83.8546 39.2117 80.6666 41.8454 79.5949C42.3534 79.3914 42.6943 78.9166 42.5473 78.34C42.4203 77.8516 41.8186 77.4243 41.3106 77.6278C38.1354 78.9234 36.1902 82.1385 36.7584 85.6181C37.3066 89.03 40.2879 91.4447 43.5499 91.9467C45.4484 92.2383 47.4337 92.0009 49.2385 91.3294C50.9765 90.6782 52.1329 89.5455 52.8482 87.8023C54.2185 84.4379 53.6035 80.5309 51.3441 77.7295Z" fill="#1E1E1E"/>
<path d="M50.201 80.4902C49.6863 80.185 49.1582 80.4156 48.8307 80.8565C48.189 81.7179 47.5339 82.5658 46.8654 83.4069C46.5245 83.8342 46.1836 84.2547 45.836 84.6753C45.6555 84.8923 45.4751 85.1162 45.2946 85.3332C45.2678 85.3604 45.2478 85.3875 45.221 85.4214C45.1943 85.4011 45.1676 85.3807 45.1408 85.3604C44.8734 85.1365 44.6194 84.8991 44.3788 84.6482C43.9242 84.1733 43.5766 83.7189 43.2357 83.1559C42.9483 82.6879 42.34 82.5115 41.8654 82.7896C41.4042 83.0609 41.217 83.7121 41.5044 84.1801C42.0258 85.0416 42.6608 85.8352 43.4028 86.5135C43.7772 86.8594 44.1849 87.185 44.6061 87.4699C45.2144 87.8836 45.8761 87.7548 46.344 87.2053C47.8146 85.4892 49.205 83.6985 50.5553 81.8875C50.8895 81.4398 50.6288 80.7412 50.201 80.4902Z" fill="#1E1E1E"/>
<path d="M97.8551 170.747C97.3404 169.173 96.1639 167.85 94.5596 167.375C94.2455 167.192 93.9246 167.036 93.5971 166.901C93.2695 166.765 92.942 166.656 92.6144 166.568C92.2267 166.494 91.8257 166.453 91.4313 166.446C88.2561 166.412 84.9673 168.657 83.129 171.764C82.9419 172.062 82.7614 172.374 82.5876 172.693C79.867 177.279 83.2093 183.383 89.3189 182.929C89.7468 182.936 90.1746 182.915 90.5957 182.861C92.5075 182.623 94.4259 181.762 95.7562 180.324C97.073 178.9 97.7014 176.946 98.0022 175.047C98.2027 173.779 98.2696 172.469 97.9821 171.221C97.9487 171.059 97.9019 170.903 97.8551 170.747Z" fill="#59C69F"/>
<path d="M94.3593 168.094C92.0531 165.245 87.8351 163.55 84.4528 165.435C83.3231 166.066 84.3324 167.823 85.4621 167.192C87.6881 165.951 90.4822 167.05 92.1935 168.711C94.0852 170.556 94.9743 173.283 94.4529 175.908C94.1989 177.19 93.6775 178.649 92.5077 179.347C91.2911 180.08 89.7001 180.378 88.3031 180.405C85.8164 180.446 83.1426 179.279 82.0931 176.858C80.95 174.219 82.2268 171.031 84.8605 169.96C85.3685 169.756 85.7095 169.281 85.5624 168.705C85.4354 168.216 84.8338 167.789 84.3258 167.992C81.1506 169.288 79.2054 172.503 79.7736 175.983C80.3217 179.395 83.303 181.809 86.5651 182.311C88.4635 182.603 90.4488 182.366 92.2536 181.694C93.9916 181.043 95.1481 179.91 95.8633 178.167C97.2403 174.809 96.6253 170.896 94.3593 168.094Z" fill="#1E1E1E"/>
<path d="M93.2162 170.855C92.7015 170.55 92.1734 170.78 91.8458 171.221C91.2041 172.083 90.549 172.931 89.8806 173.772C89.5397 174.199 89.1987 174.619 88.8511 175.04C88.6707 175.257 88.4902 175.481 88.3097 175.698C88.283 175.725 88.2629 175.752 88.2362 175.786C88.2094 175.766 88.1827 175.745 88.156 175.725C87.8886 175.501 87.6346 175.264 87.3939 175.013C86.9394 174.538 86.5918 174.084 86.2509 173.521C85.9634 173.053 85.3551 172.876 84.8805 173.154C84.4193 173.426 84.2321 174.077 84.5196 174.545C85.041 175.406 85.676 176.2 86.418 176.878C86.7923 177.224 87.2001 177.55 87.6212 177.835C88.2295 178.248 88.8913 178.12 89.3592 177.57C90.8298 175.854 92.2202 174.063 93.5704 172.252C93.9047 171.811 93.6507 171.106 93.2162 170.855Z" fill="#1E1E1E"/>
<path d="M99.1321 165.381C98.8914 165.381 98.6441 165.292 98.4502 165.109C98.0425 164.729 98.0158 164.085 98.3901 163.671C99.5599 162.383 100.67 160.999 101.692 159.561C102.02 159.106 102.641 159.005 103.089 159.33C103.537 159.663 103.637 160.293 103.317 160.748C102.247 162.247 101.084 163.692 99.8607 165.041C99.6735 165.272 99.4061 165.381 99.1321 165.381ZM105.389 156.61C105.222 156.61 105.055 156.57 104.901 156.481C104.42 156.203 104.246 155.586 104.52 155.098C105.369 153.565 106.144 151.957 106.819 150.329C107.033 149.814 107.621 149.57 108.136 149.787C108.644 150.004 108.885 150.601 108.671 151.123C107.962 152.825 107.154 154.494 106.271 156.095C106.084 156.42 105.743 156.61 105.389 156.61ZM109.54 146.633C109.446 146.633 109.353 146.619 109.252 146.592C108.724 146.429 108.417 145.866 108.577 145.33C109.072 143.634 109.473 141.898 109.774 140.162C109.867 139.605 110.396 139.239 110.937 139.334C111.485 139.429 111.846 139.958 111.753 140.514C111.438 142.325 111.017 144.136 110.502 145.907C110.375 146.348 109.974 146.633 109.54 146.633ZM111.392 135.963C111.371 135.963 111.351 135.963 111.331 135.963C110.777 135.929 110.355 135.447 110.389 134.884C110.442 133.982 110.469 133.08 110.469 132.205C110.469 131.805 110.462 131.405 110.456 131.005C110.442 130.442 110.877 129.974 111.432 129.96C111.445 129.96 111.452 129.96 111.458 129.96C112 129.96 112.441 130.394 112.461 130.95C112.474 131.371 112.481 131.791 112.481 132.212C112.481 133.134 112.454 134.077 112.401 135.013C112.361 135.549 111.92 135.963 111.392 135.963Z" fill="#1E1E1E"/>
<path d="M60.1274 180.46C59.5793 180.46 59.1314 180.012 59.1247 179.456C59.1181 178.893 59.5592 178.432 60.1141 178.425L65.4617 178.344C65.4684 178.344 65.4751 178.344 65.4751 178.344C66.0232 178.344 66.4711 178.791 66.4778 179.347C66.4844 179.91 66.0433 180.372 65.4884 180.379L60.1408 180.46C60.1341 180.46 60.1274 180.46 60.1274 180.46ZM54.7798 180.399C54.7464 180.399 54.7062 180.399 54.6728 180.392C53.122 180.222 51.8453 179.829 50.769 179.178C50.2944 178.893 50.134 178.269 50.4214 177.781C50.7022 177.299 51.3239 177.136 51.7985 177.428C52.6207 177.923 53.63 178.228 54.8867 178.364C55.4349 178.425 55.8359 178.927 55.7758 179.483C55.7223 180.012 55.2878 180.399 54.7798 180.399ZM70.8094 180.182C70.308 180.182 69.8802 179.809 69.8134 179.293C69.7465 178.737 70.1342 178.228 70.6823 178.16C71.2773 178.086 71.7987 177.977 72.2866 177.821C72.9217 177.625 73.5367 177.455 74.1717 177.285C74.673 177.15 75.1811 177.014 75.7091 176.858C76.2372 176.702 76.7987 177.014 76.9525 177.55C77.1062 178.086 76.7987 178.656 76.2706 178.812C75.7225 178.974 75.2011 179.117 74.6864 179.253C74.0781 179.415 73.4899 179.571 72.8749 179.761C72.28 179.944 71.6449 180.08 70.9364 180.168C70.8963 180.182 70.8561 180.182 70.8094 180.182Z" fill="#1E1E1E"/>
</svg>
