<svg width="215" height="14" viewBox="0 0 215 14" fill="none" xmlns="http://www.w3.org/2000/svg">
<path d="M214.164 9.31863C211.699 7.4994 209.069 5.82907 206.605 4.00985C204.145 2.33521 202.403 1.51081 199.553 3.17442C197.205 4.53595 194.361 6.34415 192.548 8.27107C192.377 8.27538 192.371 8.1308 192.2 8.13511C191.837 7.5654 190.965 7.1532 190.436 6.73239C189.201 5.75049 188.137 4.76428 186.908 3.92696C184.967 2.38397 182.866 1.13445 180.166 2.21544C177.461 3.15185 175.835 5.5082 173.669 7.15458C173.504 7.30347 173.338 7.45236 173.172 7.60124C173.675 7.29916 173.493 7.01431 172.809 7.03154C172.279 6.61073 171.419 6.48769 170.724 6.21576C169.505 5.6676 168.286 5.11944 167.067 4.57128C164.281 3.33899 161.656 1.81323 159.032 0.287479C158.155 -0.269299 156.626 0.0586327 155.963 0.654183C154.813 1.98556 153.658 3.17235 152.508 4.50372C151.85 5.24385 151.193 5.98398 150.535 6.72411C150.369 6.873 150.203 7.02189 150.043 7.31536C149.877 7.46424 149.877 7.46424 149.877 7.46424C148.316 6.9247 146.905 5.80253 145.504 4.96951C143.932 4.14081 142.355 3.16752 140.612 2.34313C137.64 0.681408 134.699 -0.112832 131.523 1.99314C129.187 3.64382 127.021 5.29021 124.684 6.94089C122.76 5.83165 120.84 4.86698 118.745 3.76204C116.825 2.79737 114.89 1.39896 112.511 1.89301C110.303 2.38276 108.314 4.16941 106.474 5.37344C105.469 5.9776 104.464 6.58177 103.629 7.18163C102.624 7.78579 101.94 7.80303 100.726 7.39944C96.7379 6.05273 93.5572 3.38327 89.0928 3.06154C84.4574 2.74412 81.3025 5.4284 77.7841 7.54299C76.6131 8.29604 76.7789 8.14715 75.5546 7.45441C74.5068 6.90194 73.6301 6.34516 72.5822 5.79269C70.4866 4.68775 68.3909 3.58281 65.9797 3.20939C63.5737 2.98054 61.5526 3.89972 59.3604 4.8232C58.1787 5.2871 56.997 5.75099 55.8154 6.21489C54.6337 6.67878 52.789 7.73823 51.2545 7.92158C49.2014 7.97328 46.5765 6.44752 44.8283 5.47855C42.9037 4.3693 41.3 2.67311 38.8888 2.29969C36.6487 1.92195 34.4511 2.70086 32.7828 3.90058C30.9434 5.1046 29.3017 7.02722 26.8851 6.50921C24.4739 6.13579 22.5333 4.5928 20.443 3.63244C18.1762 2.53181 15.749 1.72464 13.0009 1.50441C8.01799 1.05103 2.94383 2.77065 0.344785 6.59864C-1.27563 9.09958 3.25257 11.1563 4.87298 8.65533C7.14582 5.26968 12.1074 5.14475 15.93 6.64035C19.7525 8.13595 22.9386 10.95 27.3923 10.9826C29.4507 11.0754 31.3061 10.3052 32.9851 9.3946C34.3218 8.49266 36.6319 6.11907 38.3748 6.94347C40.1123 7.62329 41.7107 9.17489 43.4588 10.1439C45.3781 11.1085 47.6395 12.0646 49.7033 12.302C51.9381 12.5352 53.7935 11.7649 55.8199 10.9903C58.3544 10.0582 60.8728 8.69238 63.4125 7.90487C65.6154 7.27054 67.7271 8.80922 69.4699 9.63362C71.2181 10.6026 73.1639 12.2902 75.3988 12.5233C79.3605 13.1471 82.4621 9.01704 85.6703 7.77855C89.3864 6.38256 93.0857 9.18368 96.2186 10.5519C98.1378 11.5166 100.394 12.3281 102.607 11.9829C104.992 11.6334 106.987 9.99137 108.826 8.78734C109.831 8.18317 111.323 6.84318 112.51 6.52387C112.681 6.51956 113.007 6.07721 113.007 6.07721C113.35 6.06859 114.579 6.90591 114.927 7.04187C117.375 8.42736 119.995 9.80853 122.443 11.194C122.443 11.194 122.614 11.1897 122.62 11.3343C123.496 11.8911 124.871 12.0012 125.865 11.1079C127.368 10.057 128.699 9.0105 130.202 7.95967C130.865 7.36412 131.704 6.90884 132.367 6.31329C132.87 6.01121 133.859 4.9733 134.538 4.81149C135.902 4.63245 138.371 6.59625 139.419 7.14872C140.991 7.97742 142.392 8.81044 143.963 9.63914C146.412 11.0246 149.4 13.1201 152.063 11.027C153.395 9.98052 154.368 8.50887 155.352 7.32639C156.01 6.58626 156.833 5.69724 157.491 4.95711C161.864 7.45184 166.398 9.6531 171.252 11.2674C174.198 12.2063 175.855 10.7174 177.85 9.0753C178.845 8.18198 179.829 6.99949 181.005 6.39102C182.01 5.78685 181.336 6.09324 182.208 6.50544C182.732 6.78167 183.443 7.48734 183.972 7.90815C185.207 8.89005 186.271 9.87626 187.5 10.7136C188.382 11.4149 189.446 12.4011 190.66 12.8047C193.429 13.6033 195.071 11.6807 196.905 10.3321C198.071 9.43443 199.236 8.53679 200.573 7.63485C200.573 7.63485 201.578 7.03068 202.081 6.7286C202.257 6.86887 202.434 7.00914 202.61 7.14942C205.075 8.96864 207.705 10.639 210.169 12.4582C213.147 14.2645 216.628 11.1378 214.164 9.31863Z" fill="#59C69F"/>
</svg>
