<svg width="209" height="178" viewBox="0 0 209 178" fill="none" xmlns="http://www.w3.org/2000/svg">
<path d="M201.235 127.025L200.983 127.252C200.732 127.48 200.732 127.48 200.481 127.48C200.229 127.48 200.229 127.708 199.978 127.708C199.224 127.935 198.214 128.391 197.46 128.85C197.209 129.078 196.958 129.078 196.455 129.078C196.203 129.078 195.952 128.85 195.701 128.622C195.449 128.395 195.449 127.939 195.449 127.712C195.449 127.484 195.701 127.256 195.952 127.029C197.213 126.573 198.47 126.118 199.731 125.659C199.983 125.659 200.485 125.659 200.737 125.886C200.988 126.114 201.239 126.342 201.239 126.569C201.486 126.565 201.486 126.793 201.235 127.025Z" fill="#1E1E1E"/>
<path d="M0.634998 86.8775C1.147 84.0328 1.982 81.0985 3.14 78.0224C12.313 53.7117 27.768 30.6927 47.904 15.3343C62.109 4.50055 78.532 -1.68911 96.667 0.423881C102.142 1.56624 107.469 3.33579 112.543 5.62051C117.617 7.90523 122.439 10.6977 126.945 13.9381C149.179 28.9232 166.255 58.6395 155.39 85.6008C145.691 110.367 133.163 143.085 113.147 162.415C109.146 166.283 104.837 169.613 100.198 172.241C91.762 177.505 80.897 179.7 71.591 175.847C42.549 163.834 18.342 143.115 4.614 112.801C0.487001 103.692 -0.958003 95.6804 0.634998 86.8775Z" fill="#F5F5F5"/>
<path d="M105.28 84.0299C105.945 78.8969 104.13 73.9285 101.335 69.6935C99.8861 67.4936 98.1151 65.5182 96.2321 63.6925C94.1701 61.6947 92.0182 59.7343 89.4412 58.4174C89.4332 58.4174 89.4331 58.4099 89.4261 58.4099C89.2991 56.7563 87.9841 55.5216 86.3401 55.2373C76.9181 53.5912 65.3002 57.6766 60.7132 66.5358C58.4042 70.9954 59.2111 75.9563 61.0941 80.4084C62.0501 82.683 63.1631 84.9951 64.4481 87.2099C64.4041 87.3521 64.3592 87.4943 64.3072 87.6364C64.1572 88.0554 63.9781 88.4595 63.8361 88.886C62.9321 91.6096 63.8812 93.6224 65.6142 95.7025C68.2072 98.8302 71.8901 101.606 75.5511 103.387C77.4341 104.3 79.6381 104.562 81.6111 103.761C82.6041 103.357 83.4042 102.661 84.3152 102.122C84.3002 102.137 84.3971 102.092 84.6291 101.973C84.6891 101.965 84.7782 101.95 84.8982 101.928C85.2642 101.883 85.6451 101.853 86.0111 101.786C87.3861 101.539 88.5221 100.925 89.5381 100.117C92.0411 99.2268 94.4092 97.865 96.7032 96.4134C101.193 93.57 104.585 89.4247 105.28 84.0299Z" fill="#F7C300"/>
<path d="M105.631 73.6443C104.242 61.59 94.0947 50.2017 81.2287 51.9825C79.4737 52.222 80.0787 54.9082 81.8197 54.6687C92.1977 53.2321 100.461 62.1662 102.516 71.639C104.421 80.4159 101.32 89.9336 93.4677 94.7374C91.7187 95.8074 89.8287 96.6155 87.8337 97.0794C85.7347 97.5658 83.5897 97.1841 81.5277 97.6181C79.9217 97.9548 78.9127 99.1446 77.9417 100.372C77.3217 101.157 76.7387 102.085 75.6257 102.07C74.4297 102.048 73.0777 100.798 72.1437 100.17C69.9397 98.6806 67.7357 97.1841 65.5317 95.6951C63.6637 94.4306 59.8377 92.5899 60.2267 89.8064C60.5027 87.8161 62.5877 86.7985 62.1167 84.5238C61.6907 82.4512 60.1297 80.6329 59.5167 78.5752C58.0747 73.7565 58.5157 68.3991 60.9887 63.9919C62.3037 61.6499 64.0897 59.5997 66.2337 57.9835C68.2737 56.4421 71.0977 54.7436 73.7427 55.0204C75.4987 55.2075 75.6107 52.4539 73.8547 52.2669C68.8117 51.7356 63.5067 56.038 60.5557 59.7269C57.3427 63.745 55.6987 68.9079 55.9827 74.0409C56.1177 76.5026 56.6327 78.8895 57.5447 81.1866C57.9857 82.294 58.5907 83.2817 59.1207 84.3442C59.8527 85.8258 58.5007 86.791 57.9177 88.078C55.3997 93.6749 63.2307 97.446 66.8167 99.8778C69.1257 101.442 71.5757 103.686 74.2577 104.562C76.4997 105.295 78.3077 104.3 79.7127 102.572C80.3927 101.733 81.0127 100.589 82.1327 100.304C83.2617 100.02 84.6507 100.289 85.8167 100.177C88.2227 99.9527 90.5687 99.2867 92.7577 98.2541C102.097 93.8395 106.789 83.7082 105.631 73.6443Z" fill="#1E1E1E"/>
<path d="M74.6772 109.044C74.4982 107.45 72.8992 106.702 71.6732 105.998C69.8882 104.981 68.1692 103.851 66.4882 102.668C64.6202 101.359 62.8052 99.9822 60.9892 98.5979C59.4132 97.4007 57.8062 96.211 57.0142 94.3404C56.3192 92.7092 53.8762 93.9737 54.5642 95.5899C55.9682 98.8972 59.5542 100.985 62.3262 103.043C63.9782 104.27 65.6512 105.467 67.3772 106.589C68.1772 107.106 68.9912 107.614 69.8132 108.093C70.2242 108.333 70.6502 108.557 71.0612 108.797C70.8592 108.729 70.6502 108.654 70.4632 108.595C69.5222 108.288 68.6102 107.899 67.7212 107.465C65.9582 106.597 64.2842 105.557 62.5882 104.569C61.1462 103.731 59.3532 102.399 57.6792 102.175C56.0882 101.958 54.9822 103.245 55.5202 104.771C56.1402 106.537 57.6192 107.981 58.9342 109.246C60.6152 110.862 62.3112 112.463 64.0002 114.064C65.2782 115.276 67.3252 113.443 66.0402 112.224C64.5452 110.802 63.0512 109.38 61.5572 107.959C60.9592 107.39 60.3542 106.829 59.7942 106.223C59.7492 106.178 59.7112 106.125 59.6672 106.073C60.4592 106.507 61.2362 106.956 62.0132 107.412C63.6342 108.37 65.2632 109.32 66.9662 110.121C68.4982 110.839 70.2912 111.715 72.0172 111.692C73.5042 111.685 74.8562 110.645 74.6772 109.044Z" fill="#1E1E1E"/>
<path d="M63.231 115.082C62.334 114.117 61.183 113.376 59.921 112.987C58.74 112.628 57.2681 112.598 56.3421 113.555C55.8411 114.072 55.6921 114.947 56.2371 115.501C56.7301 116.002 57.642 116.152 58.18 115.606C58.202 115.583 58.2251 115.561 58.2551 115.538C58.2621 115.538 58.2701 115.531 58.2771 115.531C58.2991 115.523 58.329 115.523 58.352 115.516C58.449 115.516 58.5461 115.516 58.6431 115.523C58.6511 115.523 58.6881 115.523 58.7251 115.531C58.8371 115.553 58.9571 115.583 59.0691 115.621C59.3011 115.688 59.5251 115.785 59.7411 115.875C60.1151 116.07 60.4741 116.294 60.8021 116.563C60.9371 116.683 61.0711 116.81 61.1911 116.938C61.6771 117.461 62.5961 117.566 63.1331 117.042C63.6491 116.504 63.754 115.643 63.231 115.082Z" fill="#1E1E1E"/>
<path d="M73.9155 78.9263C74.9615 74.3845 75.0655 69.7079 74.2435 65.1212C73.9305 63.3778 71.2475 63.9689 71.5615 65.7123C72.2935 69.8127 72.2195 74.0478 71.2855 78.1108C70.3515 82.1588 68.6855 86.5434 65.8155 89.6187C64.6135 90.9057 66.4515 92.9634 67.6535 91.6614C70.8815 88.212 72.8695 83.4832 73.9155 78.9263Z" fill="#1E1E1E"/>
<path d="M97.3899 76.5403C87.8719 79.87 79.6299 86.0355 73.8179 94.2961C72.8009 95.7477 75.1179 97.2219 76.1339 95.7778C81.4909 88.1681 89.1939 82.2944 97.9799 79.2265C99.6319 78.6504 99.0639 75.9567 97.3899 76.5403Z" fill="#1E1E1E"/>
<path d="M91.7643 72.23C91.3983 72.9183 90.6583 73.3748 89.9413 73.6516C89.3063 73.906 88.9473 73.704 88.5213 73.1952C88.3653 73.0081 88.2383 72.7911 88.1183 72.5741C89.4403 71.5565 90.3303 69.7383 89.4853 68.167C88.9853 67.2317 87.8863 66.9174 86.9453 67.3514C85.9363 67.8153 85.3093 69.02 85.1003 70.0526C85.0553 70.2695 85.0403 70.494 85.0173 70.711C84.7633 70.6661 84.5173 70.5988 84.2933 70.4716C84.0463 70.3369 83.8443 70.1423 83.6803 69.9179C83.8143 69.858 83.9493 69.7981 84.0683 69.7233C85.6823 68.7506 87.4383 65.795 85.4133 64.306C83.5903 62.9667 81.4013 64.8298 80.7593 66.5433C80.6393 66.8575 80.5643 67.1718 80.5123 67.4861C80.0943 67.3589 79.7053 67.1419 79.5633 66.7603C79.2943 66.0494 79.5113 64.8896 79.8023 64.2237C80.0943 63.5428 79.5483 62.7048 78.8983 62.5027C78.1293 62.2633 77.4713 62.7272 77.1803 63.4081C76.3433 65.3461 76.5303 68.167 78.3603 69.454C79.0853 69.9628 79.9673 70.2621 80.8713 70.3593C81.6553 72.1851 83.4333 73.5319 85.4883 73.4795C85.9593 74.5794 86.7433 75.5447 87.7743 76.0984C89.9043 77.2357 93.0123 75.6943 94.0803 73.6965C94.9103 72.1626 92.6013 70.6661 91.7643 72.23Z" fill="#1E1E1E"/>
<path d="M207.27 123.142C191.494 125.604 175.46 125.331 159.684 122.323C158.105 122.05 158.634 119.315 160.471 119.588C174.406 122.323 188.341 122.596 202.533 120.958C200.429 119.866 198.063 118.769 195.959 117.95C194.38 117.131 195.697 114.942 197.276 115.488C200.692 117.131 204.375 118.769 207.79 120.412C208.582 121.226 208.32 123.142 207.27 123.142Z" fill="#1E1E1E"/>
<path d="M108.501 58.0654C108.03 57.4668 106.999 57.5716 106.506 58.0654C105.916 58.6565 106.035 59.4571 106.506 60.0632C109.547 63.9541 110.391 69.117 110.496 73.9283C110.533 75.7465 113.357 75.7465 113.32 73.9283C113.193 68.279 112.042 62.5998 108.501 58.0654Z" fill="#1E1E1E"/>
<path d="M50.7378 41.8215C51.0888 41.6045 51.4698 41.3875 51.8218 41.1481C52.6508 40.6392 53.4728 40.1005 54.2648 39.5468C55.8338 38.4544 57.2608 37.2198 58.5088 35.7981C58.8818 35.3716 58.7028 34.6607 58.2398 34.3465C58.1948 34.324 58.1348 34.2941 58.0898 34.2941C57.9708 34.1594 57.8208 34.0397 57.6568 33.9574C54.9068 32.648 52.1578 31.3236 49.3858 30.0141C48.9598 29.8046 48.3618 30.0216 48.1078 30.3808C47.4508 31.2263 47.7048 32.3412 47.7498 33.3289L47.8918 36.3667C47.9508 37.4442 48.0038 38.5441 48.0338 39.6141C48.0778 40.5644 47.8168 42.1806 49.1838 42.3677C49.8118 42.4724 50.2448 42.1133 50.7378 41.8215ZM50.0808 36.1722C50.0428 35.3491 50.0058 34.5485 49.9758 33.7254C49.9688 33.3438 49.9388 32.9622 49.9238 32.5881C51.9038 33.5309 53.8908 34.4662 55.8708 35.4314C55.0118 36.277 54.0708 37.0701 53.0768 37.7809C52.4118 38.2673 51.7238 38.7088 51.0368 39.1502C50.7758 39.3148 50.5138 39.4795 50.2528 39.6665C50.2378 39.3523 50.2228 39.0305 50.2078 38.7162L50.0808 36.1722Z" fill="#59C69F"/>
<path fill-rule="evenodd" clip-rule="evenodd" d="M111.19 118.307C109.121 118.046 106.939 116.871 105.998 114.948C104.989 112.89 105.356 110.398 106.701 108.625C106.985 108.244 107.373 107.832 107.904 107.54L107.91 107.533L107.918 107.525C108.74 107.099 109.674 107.121 110.242 107.144C111.093 107.174 112.117 107.256 113.073 107.667C114.239 108.169 115.091 109.074 115.733 109.89C116.293 110.6 116.861 111.453 117.16 112.456C117.459 113.466 117.474 114.686 116.891 115.748C115.703 117.971 113.275 118.577 111.19 118.307ZM111.474 116.085C113.028 116.287 114.336 115.793 114.934 114.693C115.158 114.289 115.195 113.721 115.016 113.115C114.837 112.509 114.47 111.925 113.977 111.304V111.296C113.417 110.578 112.842 110.032 112.192 109.747C111.639 109.508 110.974 109.433 110.167 109.403C109.547 109.381 109.196 109.411 108.964 109.53C108.814 109.613 108.65 109.762 108.486 109.987V109.994V110.002C107.604 111.162 107.41 112.755 108.008 113.975C108.523 115.008 109.898 115.876 111.474 116.085Z" fill="#1E1E1E"/>
<path fill-rule="evenodd" clip-rule="evenodd" d="M144.931 40.1753C142.862 39.9134 140.68 38.7387 139.739 36.8157C138.73 34.758 139.096 32.2664 140.441 30.493C140.725 30.1114 141.113 29.6999 141.644 29.4081L141.651 29.4006L141.659 29.3931C142.481 28.9666 143.415 28.989 143.982 29.0115C144.834 29.0414 145.858 29.1237 146.814 29.5353C147.98 30.0366 148.832 30.942 149.474 31.7575C150.034 32.4684 150.602 33.3214 150.901 34.324C151.2 35.3342 151.215 36.5538 150.632 37.6163C149.444 39.8386 147.016 40.4447 144.931 40.1753ZM145.215 37.9456C146.769 38.1476 148.077 37.6537 148.675 36.5538C148.899 36.1498 148.936 35.5811 148.757 34.975C148.577 34.3689 148.211 33.7853 147.718 33.1643V33.1568C147.158 32.4385 146.583 31.8922 145.933 31.6079C145.38 31.3685 144.715 31.2936 143.908 31.2637C143.288 31.2413 142.936 31.2712 142.705 31.3909C142.555 31.4732 142.391 31.6229 142.227 31.8473V31.8548V31.8623C141.345 33.0221 141.151 34.6159 141.749 35.8355C142.264 36.8756 143.639 37.7435 145.215 37.9456Z" fill="#59C69F"/>
<path d="M51.1423 16.0291C51.1793 15.6176 51.2323 15.1836 51.2543 14.7496C51.3443 13.7844 51.4113 12.7967 51.4413 11.8314C51.5083 9.91591 51.3813 8.03033 50.9923 6.18964C50.8733 5.63594 50.2003 5.3516 49.6703 5.53118C49.6253 5.54615 49.5653 5.58356 49.5363 5.62097C49.3563 5.63594 49.1693 5.68083 49.0053 5.77062C46.3083 7.19229 43.6033 8.59151 40.8913 10.0282C40.4733 10.2452 40.2863 10.8512 40.4133 11.2703C40.6893 12.3028 41.7353 12.7668 42.5503 13.3279L45.0603 15.0414C45.9573 15.64 46.8613 16.2611 47.7423 16.8746C48.5273 17.4059 49.6633 18.5881 50.6343 17.6079C51.1053 17.159 51.0823 16.5978 51.1423 16.0291ZM46.2413 13.1633C45.5613 12.6994 44.8963 12.243 44.2233 11.7791C43.9173 11.5621 43.5883 11.3526 43.2823 11.1356C45.2243 10.1105 47.1673 9.08536 49.1173 8.0827C49.2813 9.27242 49.3493 10.507 49.3113 11.7342C49.2963 12.5572 49.2373 13.3728 49.1773 14.1884C49.1543 14.4952 49.1253 14.802 49.1173 15.1237C48.8563 14.9442 48.5943 14.7646 48.3333 14.5925L46.2413 13.1633Z" fill="#1E1E1E"/>
<path d="M31.4333 150.114C31.4703 149.703 31.5233 149.269 31.5453 148.835C31.6353 147.869 31.7023 146.882 31.7323 145.916C31.7993 144.001 31.6723 142.115 31.2833 140.275C31.1643 139.721 30.4913 139.437 29.9613 139.616C29.9163 139.631 29.8563 139.669 29.8273 139.706C29.6473 139.721 29.4603 139.766 29.2963 139.856C26.5993 141.277 23.8943 142.676 21.1823 144.113C20.7643 144.33 20.5773 144.936 20.7043 145.355C20.9803 146.388 22.0263 146.852 22.8413 147.413L25.3513 149.126C26.2483 149.725 27.1523 150.346 28.0333 150.96C28.8183 151.491 29.9543 152.673 30.9253 151.693C31.3963 151.244 31.3663 150.683 31.4333 150.114ZM26.5243 147.248C25.8443 146.784 25.1793 146.328 24.5073 145.864C24.2003 145.647 23.8723 145.437 23.5653 145.221C25.5083 144.195 27.4513 143.17 29.4013 142.168C29.5653 143.357 29.6323 144.592 29.5953 145.819C29.5803 146.642 29.5203 147.458 29.4603 148.273C29.4383 148.58 29.4083 148.887 29.4013 149.209C29.1393 149.029 28.8783 148.85 28.6163 148.677L26.5243 147.248Z" fill="#1E1E1E"/>
<path d="M120.688 157.395C120.366 157.136 120.034 156.851 119.686 156.592C118.933 155.981 118.149 155.377 117.362 154.816C115.807 153.697 114.168 152.755 112.421 152.056C111.894 151.848 111.285 152.25 111.139 152.791C111.127 152.836 111.125 152.907 111.139 152.952C111.052 153.11 110.986 153.29 110.969 153.477C110.654 156.509 110.316 159.536 110.005 162.589C109.953 163.058 110.354 163.549 110.773 163.676C111.785 164.02 112.751 163.407 113.67 163.042L116.489 161.905C117.485 161.492 118.503 161.085 119.503 160.692C120.381 160.335 121.995 160.047 121.719 158.695C121.607 158.054 121.123 157.767 120.688 157.395ZM115.579 159.887C114.815 160.195 114.066 160.494 113.307 160.796C112.957 160.93 112.6 161.087 112.249 161.222C112.475 159.037 112.701 156.852 112.95 154.673C114.031 155.197 115.095 155.827 116.095 156.539C116.771 157.009 117.416 157.511 118.062 158.014C118.304 158.203 118.543 158.398 118.806 158.583C118.512 158.701 118.217 158.818 117.929 158.94L115.579 159.887Z" fill="#F7C300"/>
</svg>
