<svg width="227" height="179" viewBox="0 0 227 179" fill="none" xmlns="http://www.w3.org/2000/svg">
<path d="M168.318 91.1159C167.773 93.9667 166.884 96.9073 165.651 99.9901C155.886 124.353 139.434 147.421 117.998 162.813C102.875 173.67 85.3926 179.873 66.0861 177.755C60.2584 176.611 54.5875 174.837 49.1856 172.548C43.7837 170.258 38.6507 167.46 33.854 164.212C10.1843 149.202 -7.98649 119.422 3.57942 92.4028C13.9051 67.5835 27.2417 34.7953 48.5505 15.4157C52.8093 11.5397 57.3968 8.20257 62.3354 5.56873C71.3162 0.293593 82.8821 -1.90626 92.7894 1.9547C123.706 13.994 149.475 34.7579 164.09 65.1367C168.483 74.2728 170.014 82.294 168.318 91.1159Z" fill="#F5F5F5"/>
<path d="M63.9488 43.0636C63.2316 40.8862 61.5804 39.0605 59.3314 38.4021C58.8906 38.1551 58.4423 37.9381 57.9866 37.7511C57.5308 37.564 57.075 37.4069 56.6118 37.2872C56.0664 37.1824 55.5135 37.1226 54.9531 37.1226C50.5001 37.0777 45.8976 40.1754 43.3274 44.4703C43.0659 44.8894 42.8119 45.3159 42.5728 45.7573C38.7623 52.095 43.4395 60.5277 52.0093 59.9067C52.6071 59.9142 53.2048 59.8842 53.795 59.8094C56.4773 59.4802 59.1596 58.2905 61.02 56.3001C62.8655 54.3322 63.7471 51.6311 64.158 49.0047C64.4345 47.2538 64.5316 45.4431 64.1281 43.7221C64.0758 43.4976 64.0161 43.2806 63.9488 43.0636Z" fill="#F7C300"/>
<path d="M59.0545 39.4047C55.8268 35.4689 49.9168 33.1194 45.1799 35.7233C43.5959 36.5912 45.008 39.023 46.5995 38.1551C49.7226 36.4416 53.6302 37.9605 56.0211 40.2577C58.6735 42.8092 59.9137 46.5729 59.189 50.2019C58.8378 51.9752 58.0981 53.9955 56.4694 54.9607C54.7584 55.9708 52.5393 56.3899 50.5743 56.4198C47.0926 56.4797 43.3494 54.8634 41.87 51.5113C40.2636 47.8673 42.0568 43.4527 45.7477 41.9711C46.4575 41.6868 46.9357 41.0358 46.7265 40.2427C46.5472 39.5693 45.7029 38.9782 45.0006 39.2625C40.5475 41.0508 37.8354 45.4954 38.6199 50.3066C39.3895 55.0206 43.566 58.3578 48.1386 59.0536C50.7985 59.4577 53.5779 59.1359 56.1032 58.2006C58.539 57.3027 60.1603 55.7314 61.154 53.3295C63.0816 48.6754 62.2224 43.2731 59.0545 39.4047Z" fill="#1E1E1E"/>
<path d="M57.4559 43.213C56.7387 42.7939 55.9915 43.1082 55.5358 43.7143C54.6392 44.904 53.7202 46.0787 52.7863 47.2385C52.3081 47.8296 51.8299 48.4133 51.3517 48.9894C51.0977 49.2962 50.8437 49.5955 50.5896 49.8948C50.5597 49.9322 50.5224 49.9771 50.485 50.0145C50.4477 49.9846 50.4178 49.9621 50.3729 49.9247C49.9994 49.618 49.6482 49.2887 49.3045 48.9445C48.662 48.2861 48.1838 47.6575 47.6981 46.8794C47.3022 46.2359 46.4429 45.9815 45.778 46.378C45.1354 46.7522 44.8739 47.6575 45.2774 48.301C46.0096 49.4908 46.8987 50.5907 47.9372 51.526C48.4677 52.0049 49.0355 52.4538 49.6258 52.8504C50.4775 53.419 51.3965 53.247 52.0615 52.4837C54.1162 50.1043 56.0662 47.6351 57.964 45.1285C58.4198 44.5299 58.0537 43.5646 57.4559 43.213Z" fill="#1E1E1E"/>
<path d="M56.2751 80.394C54.1831 79.4587 51.7249 79.4512 49.7226 80.6709C49.2444 80.828 48.7737 81.0151 48.3329 81.2246C47.892 81.4341 47.4662 81.6735 47.0627 81.9279C46.6144 82.2572 46.2035 82.6313 45.8224 83.0428C42.789 86.3052 41.9821 91.8048 43.4166 96.6011C43.5436 97.0799 43.6931 97.5513 43.8574 98.0302C45.9644 105.116 55.3486 107.331 60.6534 100.574C61.0643 100.14 61.4454 99.6764 61.7891 99.1825C63.3506 96.9752 64.2771 94.1842 64.0679 91.4681C63.8587 88.7744 62.454 86.3052 60.8028 84.2325C59.697 82.8483 58.4269 81.5538 56.8803 80.7008C56.686 80.5886 56.4843 80.4838 56.2751 80.394Z" fill="#59C69F"/>
<path d="M43.7154 82.661C46.9431 78.7252 52.853 76.3757 57.59 78.9796C59.1739 79.8476 57.7618 82.2794 56.1704 81.4114C53.0473 79.698 49.1397 81.2169 46.7488 83.514C44.0964 86.0655 42.8561 89.8292 43.5809 93.4582C43.932 95.2316 44.6717 97.2518 46.3005 98.2171C48.0115 99.2272 50.2305 99.6462 52.1955 99.6762C55.6773 99.736 59.4205 98.1198 60.8999 94.7677C62.5062 91.1237 60.7131 86.709 57.0221 85.2275C56.3123 84.9432 55.8342 84.2922 56.0434 83.4991C56.2227 82.8256 57.067 82.2345 57.7693 82.5189C62.2223 84.3072 64.9345 88.7518 64.15 93.563C63.3804 98.2769 59.2038 101.614 54.6313 102.31C51.9714 102.714 49.192 102.392 46.6666 101.457C44.2309 100.559 42.6096 98.9878 41.6159 96.5859C39.6807 91.9318 40.5474 86.5295 43.7154 82.661Z" fill="#1E1E1E"/>
<path d="M57.4559 87.0006C56.7387 86.5816 55.9915 86.8958 55.5358 87.5019C54.6392 88.6916 53.7202 89.8664 52.7863 91.0262C52.3081 91.6173 51.8299 92.2009 51.3517 92.7771C51.0977 93.0838 50.8437 93.3831 50.5896 93.6824C50.5597 93.7199 50.5224 93.7648 50.485 93.8022C50.4477 93.7722 50.4178 93.7498 50.3729 93.7124C49.9994 93.4056 49.6482 93.0764 49.3045 92.7322C48.662 92.0737 48.1838 91.4452 47.6981 90.667C47.3022 90.0235 46.4429 89.7691 45.778 90.1657C45.1354 90.5398 44.8739 91.4452 45.2774 92.0887C46.0096 93.2784 46.8987 94.3783 47.9372 95.3136C48.4677 95.7925 49.0355 96.2414 49.6258 96.638C50.4775 97.2067 51.3965 97.0346 52.0615 96.2714C54.1162 93.892 56.0662 91.4227 57.964 88.9161C58.4198 88.3175 58.0537 87.3523 57.4559 87.0006Z" fill="#1E1E1E"/>
<path d="M62.2368 144.159C63.9478 142.633 64.9639 140.388 64.68 138.061C64.7323 137.56 64.7547 137.059 64.7473 136.565C64.7398 136.071 64.695 135.592 64.6277 135.121C64.5082 134.574 64.3363 134.043 64.1271 133.527C62.4012 129.419 57.739 126.418 52.7779 125.753C52.2922 125.678 51.7991 125.61 51.2985 125.573C43.9764 124.578 38.1038 132.232 42.0712 139.857C42.3028 140.411 42.5643 140.949 42.8707 141.466C44.2379 143.8 46.3897 145.791 48.9525 146.718C51.4928 147.639 54.317 147.369 56.8798 146.711C58.5982 146.269 60.2942 145.641 61.7138 144.586C61.8931 144.459 62.065 144.309 62.2368 144.159Z" fill="#F7C300"/>
<path d="M55.3408 124.121C50.8131 121.794 44.4623 121.996 41.1449 126.283C40.0391 127.713 42.303 129.381 43.4088 127.945C45.5905 125.124 49.782 124.959 52.8901 126.111C56.3345 127.391 58.972 130.354 59.749 133.975C60.13 135.741 60.2571 137.889 59.1438 139.423C57.9782 141.031 56.1029 142.296 54.3172 143.111C51.1418 144.556 47.0698 144.571 44.3801 142.079C41.4587 139.378 41.3466 134.611 44.141 131.783C44.6789 131.237 44.8583 130.451 44.3502 129.808C43.9243 129.261 42.9082 129.059 42.3777 129.598C39.0081 133.01 38.2833 138.173 40.9133 142.273C43.4984 146.292 48.6538 147.691 53.1218 146.501C55.7218 145.813 58.1426 144.406 60.0927 142.535C61.968 140.74 62.8273 138.652 62.7899 136.048C62.7301 131.02 59.7863 126.403 55.3408 124.121Z" fill="#1E1E1E"/>
<path d="M57.4559 130.788C56.7387 130.369 55.9915 130.683 55.5358 131.289C54.6392 132.479 53.7202 133.654 52.7863 134.813C52.3081 135.405 51.8299 135.988 51.3517 136.564C51.0977 136.871 50.8437 137.17 50.5896 137.47C50.5597 137.507 50.5224 137.552 50.485 137.59C50.4477 137.56 50.4178 137.537 50.3729 137.5C49.9994 137.193 49.6482 136.864 49.3045 136.52C48.662 135.861 48.1838 135.233 47.6981 134.454C47.3022 133.811 46.4429 133.556 45.778 133.953C45.1354 134.327 44.8739 135.233 45.2774 135.876C46.0096 137.066 46.8987 138.166 47.9372 139.101C48.4677 139.58 49.0355 140.029 49.6258 140.425C50.4775 140.994 51.3965 140.822 52.0615 140.059C54.1162 137.679 56.0662 135.21 57.964 132.703C58.4198 132.105 58.0537 131.14 57.4559 130.788Z" fill="#1E1E1E"/>
<path d="M119.604 42.7045C104.997 43.5724 90.3529 43.8119 75.7237 43.4303C73.6989 43.3779 73.6989 46.528 75.7237 46.5804C90.3529 46.9695 104.997 46.7225 119.604 45.8546C121.614 45.7349 121.629 42.5847 119.604 42.7045Z" fill="#1E1E1E"/>
<path d="M135.757 50.0147C115.838 51.1371 95.8969 49.1243 75.9778 50.2168C73.968 50.329 73.9531 53.4791 75.9778 53.3669C95.8969 52.2744 115.838 54.2872 135.757 53.1649C137.767 53.0526 137.782 49.9025 135.757 50.0147Z" fill="#1E1E1E"/>
<path d="M113.881 96.8847C101.112 96.3459 88.3287 96.4357 75.5674 97.1466C73.8041 97.2439 73.7219 94.1012 75.4852 93.9965C88.2465 93.2781 101.023 93.1958 113.799 93.7346C115.555 93.8094 115.652 96.9595 113.881 96.8847Z" fill="#1E1E1E"/>
<path d="M128.084 89.4248C128.316 89.3574 128.532 89.2676 128.719 89.1255C129.085 88.8486 129.287 88.3997 129.377 87.9507C129.444 87.6065 129.444 87.2324 129.25 86.9406C128.988 86.5515 128.458 86.4393 127.987 86.4617C123.803 86.6188 119.589 86.5665 115.397 86.6413C111.116 86.7161 106.828 86.8134 102.546 86.8807C98.2652 86.9481 93.9765 86.993 89.6954 86.9705C85.4142 86.9481 81.1255 86.8583 76.8518 86.6637C76.6352 86.6563 76.426 86.6413 76.2093 86.6338C73.8707 86.5216 73.8856 89.6717 76.2093 89.7839C80.4905 89.986 84.7791 90.0832 89.0603 90.1132C93.3489 90.1431 97.6301 90.1057 101.919 90.0383C106.207 89.971 110.489 89.8812 114.777 89.7989C116.922 89.7615 119.066 89.7241 121.203 89.6941C122.271 89.6792 123.347 89.6717 124.416 89.6567C125.417 89.6492 126.433 89.6941 127.427 89.552C127.486 89.5445 127.546 89.537 127.606 89.522C127.763 89.4996 127.927 89.4697 128.084 89.4248Z" fill="#1E1E1E"/>
<path d="M115.637 139.789C102.3 139.265 88.9563 139.363 75.6271 140.096C73.7816 140.193 73.7069 137.051 75.5449 136.946C88.8666 136.22 102.218 136.115 115.555 136.639C117.393 136.714 117.482 139.864 115.637 139.789Z" fill="#1E1E1E"/>
<path d="M99.4686 132.958C99.5358 132.95 99.6031 132.943 99.6703 132.935C100.006 132.891 100.35 132.823 100.641 132.651C101.037 132.412 101.306 131.978 101.343 131.514C101.381 131.05 101.179 130.578 100.82 130.287C100.29 129.845 99.5433 129.838 98.8559 129.845C96.0392 129.845 93.2224 129.935 90.4056 129.942C87.5515 129.95 84.6899 129.92 81.8358 129.845C79.8783 129.793 77.9207 129.718 75.9632 129.606C73.9384 129.493 73.9534 132.644 75.9632 132.756C78.8024 132.913 81.649 133.003 84.4882 133.055C87.3423 133.1 90.2039 133.108 93.058 133.078C94.1713 133.07 95.2845 133.055 96.3978 133.04C97.4289 133.01 98.4674 133.063 99.4686 132.958Z" fill="#1E1E1E"/>
<path d="M135.758 129.8C132.919 129.643 130.079 129.546 127.24 129.494C124.386 129.441 121.532 129.441 118.678 129.464C117.258 129.479 115.831 129.501 114.412 129.524C113.022 129.546 111.617 129.501 110.235 129.568C109.742 129.591 109.241 129.778 108.83 130.04C108.606 130.182 108.397 130.354 108.277 130.594C108.158 130.826 108.128 131.102 108.15 131.364C108.18 131.731 108.315 132.09 108.561 132.359C109.099 132.958 109.914 132.711 110.616 132.726C111.303 132.741 111.991 132.704 112.678 132.689C114.105 132.659 115.54 132.636 116.967 132.621C117.311 132.614 117.654 132.614 117.998 132.614C120.852 132.584 123.706 132.584 126.56 132.629C129.414 132.674 132.268 132.763 135.123 132.913C135.339 132.928 135.548 132.936 135.765 132.951C137.782 133.063 137.768 129.913 135.758 129.8Z" fill="#1E1E1E"/>
<path d="M225.192 58.0873C209.416 55.6255 193.382 55.8985 177.606 58.9063C176.027 59.1793 176.556 61.9141 178.393 61.6411C192.328 58.9063 206.262 58.6333 220.455 60.2713C218.351 61.3633 215.985 62.4601 213.881 63.2791C212.302 64.0981 213.619 66.287 215.198 65.741C218.614 64.0981 222.296 62.4601 225.712 60.8173C226.504 59.9983 226.242 58.0873 225.192 58.0873Z" fill="#1E1E1E"/>
<path d="M219.157 54.2044L218.905 53.9767C218.654 53.7491 218.654 53.7491 218.403 53.7491C218.151 53.7491 218.151 53.5214 217.9 53.5214C217.146 53.2937 216.136 52.8384 215.382 52.379C215.131 52.1514 214.879 52.1514 214.377 52.1514C214.125 52.1514 213.874 52.379 213.623 52.6067C213.371 52.8344 213.371 53.2897 213.371 53.5173C213.371 53.745 213.623 53.9727 213.874 54.2003C215.135 54.6556 216.392 55.111 217.653 55.5703C217.904 55.5703 218.407 55.5703 218.658 55.3427C218.91 55.115 219.161 54.8874 219.161 54.6597C219.408 54.6597 219.408 54.432 219.157 54.2044Z" fill="#1E1E1E"/>
</svg>
