<svg width="166" height="11" viewBox="0 0 166 11" fill="none" xmlns="http://www.w3.org/2000/svg">
<path d="M165.354 7.88385C163.452 6.34451 161.421 4.93115 159.518 3.39181C157.619 1.97481 156.274 1.27724 154.073 2.68491C152.261 3.83698 150.064 5.36699 148.665 6.99746C148.533 7.00111 148.529 6.87877 148.397 6.88241C148.116 6.40036 147.443 6.05158 147.034 5.6955C146.081 4.86466 145.26 4.03018 144.31 3.32168C142.812 2.01607 141.19 0.958786 139.105 1.87347C137.016 2.66581 135.761 4.65965 134.089 6.05274C133.961 6.17872 133.833 6.3047 133.705 6.43069C134.093 6.17508 133.953 5.93405 133.424 5.94863C133.016 5.59256 132.351 5.48845 131.814 5.25835C130.873 4.79452 129.932 4.3307 128.991 3.86687C126.841 2.82416 124.814 1.53314 122.787 0.242115C122.11 -0.229005 120.93 0.0484761 120.418 0.552404C119.53 1.67895 118.638 2.68316 117.75 3.80971C117.243 4.43597 116.735 5.06223 116.227 5.6885C116.099 5.81448 115.971 5.94046 115.847 6.18878C115.719 6.31476 115.719 6.31476 115.719 6.31476C114.514 5.85822 113.424 4.90869 112.343 4.20384C111.129 3.50262 109.911 2.67908 108.566 1.98151C106.271 0.57544 104.001 -0.0966094 101.548 1.68536C99.744 3.0821 98.072 4.47519 96.2678 5.87193C94.7819 4.93333 93.3 4.11708 91.682 3.18213C90.2001 2.36587 88.7059 1.1826 86.8689 1.60064C85.164 2.01504 83.6281 3.52683 82.2079 4.54562C81.4318 5.05683 80.6556 5.56805 80.0116 6.07562C79.2354 6.58684 78.707 6.60142 77.77 6.25993C74.6907 5.12041 72.2348 2.86163 68.788 2.5894C65.209 2.32081 62.7731 4.59213 60.0566 6.38139C59.1525 7.01859 59.2804 6.89261 58.3352 6.30644C57.5262 5.83897 56.8493 5.36785 56.0402 4.90037C54.4222 3.96543 52.8041 3.03048 50.9424 2.7145C49.0848 2.52086 47.5243 3.29862 45.8317 4.08003C44.9194 4.47256 44.007 4.86509 43.0947 5.25761C42.1823 5.65014 40.758 6.54659 39.5732 6.70174C37.988 6.74548 35.9614 5.45446 34.6116 4.63456C33.1257 3.69596 31.8875 2.26073 30.0258 1.94475C28.2962 1.62513 26.5994 2.2842 25.3114 3.29935C23.8912 4.31814 22.6236 5.94497 20.7578 5.50666C18.8961 5.19068 17.3978 3.88508 15.7839 3.07246C14.0337 2.14116 12.1597 1.45818 10.0379 1.27183C6.19064 0.888194 2.27291 2.34326 0.266206 5.58233C-0.984904 7.69851 2.51129 9.43878 3.7624 7.3226C5.51724 4.45783 9.34807 4.35211 12.2994 5.61762C15.2508 6.88313 17.7107 9.26424 21.1494 9.2918C22.7387 9.37039 24.1712 8.71861 25.4675 7.94814C26.4996 7.18496 28.2833 5.17654 29.6289 5.87411C30.9704 6.44934 32.2045 7.76223 33.5543 8.58213C35.0361 9.39839 36.7821 10.2074 38.3755 10.4083C40.101 10.6056 41.5336 9.95379 43.0982 9.29836C45.055 8.50967 46.9995 7.35396 48.9604 6.6876C50.6612 6.15086 52.2916 7.45282 53.6372 8.15038C54.987 8.97029 56.4894 10.3982 58.2149 10.5955C61.2737 11.1234 63.6684 7.62867 66.1454 6.58072C69.0146 5.39949 71.8708 7.76967 74.2897 8.92742C75.7715 9.74368 77.5135 10.4303 79.2225 10.1382C81.0637 9.84254 82.6036 8.4531 84.0238 7.43431C84.8 6.92309 85.9519 5.78925 86.8683 5.51906C87.0004 5.51542 87.2523 5.14111 87.2523 5.14111C87.5165 5.13382 88.4658 5.84233 88.7341 5.95737C90.6246 7.1297 92.6472 8.29839 94.5376 9.47072C94.5376 9.47072 94.6697 9.46708 94.6738 9.58941C95.3508 10.0605 96.4117 10.1537 97.1796 9.39782C98.3397 8.50865 99.3677 7.62313 100.528 6.73397C101.04 6.23004 101.688 5.84481 102.2 5.34088C102.588 5.08527 103.352 4.20704 103.876 4.07012C104.929 3.91863 106.836 5.5803 107.645 6.04778C108.858 6.74899 109.94 7.45385 111.153 8.15506C113.044 9.32739 115.351 11.1005 117.407 9.32943C118.435 8.44391 119.186 7.19868 119.946 6.19811C120.454 5.57185 121.09 4.8196 121.598 4.19334C124.974 6.30427 128.474 8.16687 132.222 9.53284C134.497 10.3272 135.777 9.06741 137.317 7.67797C138.085 6.92207 138.844 5.92151 139.753 5.40665C140.529 4.89543 140.009 5.15468 140.681 5.50347C141.086 5.7372 141.635 6.3343 142.044 6.69038C142.997 7.52122 143.818 8.3557 144.768 9.0642C145.449 9.65766 146.27 10.4921 147.207 10.8336C149.345 11.5093 150.613 9.8825 152.029 8.74138C152.929 7.98184 153.829 7.2223 154.861 6.45912C154.861 6.45912 155.637 5.9479 156.025 5.69229C156.162 5.81099 156.298 5.92968 156.434 6.04837C158.337 7.58771 160.368 9.00107 162.27 10.5404C164.569 12.0688 167.257 9.4232 165.354 7.88385Z" fill="#F7C300"/>
</svg>
