<svg width="155" height="177" viewBox="0 0 155 177" fill="none" xmlns="http://www.w3.org/2000/svg">
<path d="M138.369 28.1587C139.998 30.5681 141.447 33.2692 142.747 36.3221C153.043 60.468 157.698 88.4225 153.409 114.491C150.383 132.876 142.396 149.644 127.251 161.818C122.32 165.14 117.06 167.894 111.628 170.101C106.197 172.309 100.585 173.962 94.8999 175.07C67.5609 181.213 33.6779 173.027 22.7769 145.731C12.5559 120.874 -1.16212 88.243 0.220884 59.4504C0.496884 53.6889 1.37889 48.0845 3.01489 42.7271C5.64489 32.6407 12.2649 22.891 21.9999 18.6036C52.3639 5.22492 85.2459 1.65578 117.03 12.7897C126.594 16.1344 133.341 20.7286 138.369 28.1587Z" fill="#F5F5F5"/>
<path d="M62.0099 97.9482C58.6479 97.9482 58.6399 103.185 62.0099 103.185C65.3789 103.185 65.3789 97.9482 62.0099 97.9482Z" fill="#59C69F"/>
<path d="M62.988 110.541C59.626 110.541 59.619 115.779 62.988 115.779C66.35 115.779 66.358 110.541 62.988 110.541Z" fill="#59C69F"/>
<path d="M62.2042 121.278C58.8422 121.278 58.8342 126.516 62.2042 126.516C65.5742 126.516 65.5742 121.278 62.2042 121.278Z" fill="#59C69F"/>
<path d="M70.3702 59.9069C69.1452 57.737 64.6992 57.1907 62.5772 57.9839C61.9952 58.2009 61.5462 58.5525 61.2032 58.9865C60.1492 59.226 59.2302 60.0341 59.2002 61.4333C59.1412 63.9474 59.0882 66.469 59.0282 68.9831C58.9762 71.1306 61.2482 72.0285 62.9662 71.2428C65.3122 70.1803 69.1602 71.3925 70.2132 68.1675C70.6392 66.8731 70.5942 65.3317 70.6692 63.9848C70.7442 62.7053 71.0282 61.0667 70.3702 59.9069Z" fill="#F7C300"/>
<path d="M90.6849 61.4483C90.4239 57.9241 86.449 57.8193 83.692 57.8567C83.042 57.8642 82.3919 58.1485 81.8989 58.59C80.4349 58.3131 78.7389 59.1362 78.7679 61.0592C78.7909 62.6081 78.813 64.157 78.843 65.7133C78.873 67.3071 78.97 68.9457 80.218 70.1055C81.443 71.2354 82.96 70.8762 84.447 70.6817C85.807 70.5021 87.4879 70.562 88.7059 69.8511C90.1029 69.0281 90.327 67.4867 90.476 66.0276C90.626 64.5386 90.7899 62.9448 90.6849 61.4483Z" fill="#F7C300"/>
<path d="M108.804 66.8877C108.722 66.1843 108.542 65.5483 108.58 64.8375C108.625 64.0369 108.752 63.2512 108.535 62.4506C107.586 58.9787 102.461 59.2705 99.7188 60.1909C98.1788 59.3603 95.7509 60.0861 95.7359 62.3832C95.7139 65.1143 95.6018 69.4916 98.0368 71.3473C99.4048 72.3873 101.101 71.7214 102.662 71.7214C104.381 71.7214 106.144 72.0805 107.541 70.7711C108.61 69.7684 108.968 68.3094 108.804 66.8877Z" fill="#F7C300"/>
<path d="M118.517 55.1334C118.472 52.4547 118.405 49.7835 118.322 47.1047C118.278 45.7579 118.218 44.3512 117.56 43.1764C116.925 42.0466 115.819 41.2759 114.781 40.5052C112.487 38.8067 110.335 36.9136 108.348 34.8559C106.405 32.8357 104.522 30.5834 101.922 29.5359C99.7556 28.6604 97.3346 28.7278 94.9956 28.8176C91.2076 28.9522 87.4126 29.0944 83.6246 29.2291C72.9246 29.6182 62.1586 30.0148 51.6836 32.2296C48.7096 32.8581 48.0976 34.5866 47.8506 37.4449C47.1936 45.0171 48.0146 52.6118 48.8066 60.1317C49.5916 67.5618 49.5686 74.947 49.8226 82.407C49.8906 84.4572 49.9646 86.5149 50.0326 88.5651C50.3086 96.504 50.5926 104.705 50.8686 115.517L51.3396 133.856C51.3476 134.208 51.4746 134.5 51.7056 134.724L51.7876 134.799L51.8106 134.911C51.8706 135.188 52.1016 135.847 52.9606 135.779C61.0006 135.458 69.0396 135.173 77.0796 134.926C83.5196 134.724 90.1096 134.388 96.6096 134.208C99.9046 134.118 103.2 134.066 106.495 134.096C108.191 134.111 109.887 134.133 111.576 134.208C112.368 134.246 113.959 134.665 114.355 133.714C114.99 132.188 112.644 131.933 111.732 131.896C96.5196 131.335 81.2636 132.21 66.0586 132.749C62.1136 132.891 58.1686 133.033 54.2166 133.19L53.8356 133.205L53.8276 132.824C53.5516 122.191 53.2746 114.17 53.0056 106.411C52.7366 98.6441 52.4606 90.6078 52.1836 79.9678L51.8706 67.7564C51.6836 60.4984 50.3456 53.3227 50.0326 46.0347C49.8976 42.9071 49.9126 39.7719 50.1446 36.6517C50.2866 34.6913 51.2276 34.5866 52.9016 34.2648C53.7976 34.0927 54.6866 33.9356 55.5836 33.7784C62.7116 32.5588 70.0856 31.9228 77.3706 31.8854C84.7976 31.848 92.1936 31.3766 99.6206 31.3017C99.4636 35.1028 99.5166 38.9039 99.7856 42.6976C99.8226 43.2064 99.8826 43.7675 100.264 44.1117C100.667 44.4784 101.28 44.4634 101.825 44.4335C106.091 44.1791 110.365 44.1492 114.631 44.3587C114.93 44.3736 115.259 44.4036 115.468 44.6131C115.677 44.8226 115.7 45.1518 115.707 45.4511C116.23 61.4935 115.931 77.4985 115.491 93.541C115.199 104.286 115.296 115.023 115.296 125.775C115.319 126.419 115.446 127.205 116.051 127.421C116.544 127.601 117.104 127.242 117.336 126.763C117.568 126.292 117.553 125.738 117.538 125.214C117.284 117.156 117.246 109.089 117.411 101.023C117.575 93.1145 118.285 85.2279 118.449 77.319C118.629 69.9188 118.517 62.5261 118.517 55.1334ZM111.224 41.7099C108.393 41.6575 105.516 41.7024 102.692 41.8445L102.318 41.867L102.296 41.4929C102.139 38.8067 102.079 36.083 102.124 33.3819L102.139 32.5364L102.752 33.1125C105.494 35.6865 108.43 38.3577 111.471 41.0514L112.233 41.7248L111.224 41.7099Z" fill="#1E1E1E"/>
<path d="M67.0225 58.7172L62.4725 58.5376C61.7995 58.5376 61.5605 59.0165 61.5385 59.4281C61.5235 59.8396 61.7625 60.4681 62.4875 60.4981L66.1035 60.6402C66.2905 60.6477 66.4775 60.6552 66.6565 60.6552C67.0445 60.6627 67.4255 60.6776 67.8065 60.7076L68.0385 60.7225C68.2325 60.7225 68.3675 60.8422 68.4345 61.0817C68.5395 61.4259 68.5695 61.815 68.5985 62.1592C68.6135 62.3313 68.6285 62.4585 68.6435 62.5857C68.7185 63.1693 68.7855 63.7454 68.8455 64.3291C68.9125 64.9426 68.9726 65.5637 69.0326 66.1772L69.1515 67.5091L68.8905 67.6139C68.6065 67.7261 68.2475 67.8384 67.9715 67.9207L67.7395 67.988C67.0225 68.205 66.3275 68.3696 65.6705 68.4594C64.3625 68.6465 63.0025 68.624 61.7475 68.3995C61.5985 68.3696 61.4565 68.3472 61.3145 68.3172L61.0825 68.2649L61.0305 68.0329C61.0005 67.8982 60.9775 67.7635 60.9555 67.6288L60.9405 67.5316C60.8065 66.7983 60.7095 66.0426 60.6495 65.3018C60.5225 63.7754 60.5225 62.1966 60.6645 60.6028C60.6795 60.3858 60.6045 60.1688 60.4325 59.9818C60.2305 59.7648 59.9545 59.6301 59.6855 59.6301C59.1475 59.6301 58.7585 60.0267 58.7065 60.6253C58.4825 63.2067 58.6245 65.8106 59.1255 68.3696C59.2225 68.856 59.3645 69.3573 59.7905 69.7389C60.2305 70.128 60.8655 70.2327 61.4865 70.33C62.7635 70.532 63.9145 70.5769 65.0425 70.4872C66.2825 70.3824 67.4555 70.1504 68.5315 69.7988L68.7555 69.7239C70.0555 69.3049 71.1245 68.8709 71.1395 67.7635C71.1465 67.367 71.0946 66.9479 71.0426 66.5439C71.0196 66.3643 70.9975 66.1847 70.9825 66.0126C70.9155 65.3242 70.8475 64.6433 70.7655 63.9624C70.6985 63.3489 70.6235 62.7353 70.5495 62.1217C70.5345 61.9721 70.5115 61.8224 70.4965 61.6728C70.4515 61.2089 70.3995 60.7225 70.2425 60.296C69.7125 58.822 68.2175 58.7621 67.0225 58.7172Z" fill="#1E1E1E"/>
<path d="M88.9437 60.0939C89.1607 59.8994 89.2957 59.6076 89.2957 59.3457C89.2957 58.8069 88.8997 58.4179 88.3017 58.3655C87.5097 58.2981 86.7177 58.2607 85.9187 58.2607C84.1327 58.2607 82.3397 58.4328 80.5687 58.777C80.0827 58.8743 79.5828 59.0164 79.2018 59.4429C78.8128 59.8769 78.7077 60.5204 78.6107 61.1415C78.4097 62.406 78.3647 63.5733 78.4537 64.7031C78.5587 65.9452 78.7908 67.12 79.1418 68.1974L79.2167 68.4294C79.6347 69.7239 80.0677 70.8013 81.1737 70.8163C81.6147 70.8163 82.0327 70.7639 82.3987 70.719C82.5787 70.6966 82.7577 70.6741 82.9297 70.6592C83.6097 70.5918 84.2967 70.5245 84.9767 70.4422C85.5897 70.3748 86.2017 70.3 86.8147 70.2252L87.2627 70.1728C87.7417 70.1204 88.2117 70.0755 88.6377 69.9184C90.0947 69.3946 90.1547 67.8981 90.1997 66.6935L90.3788 62.1366C90.3858 61.8748 90.3187 61.6578 90.1697 61.4931C90.0127 61.3211 89.7657 61.2163 89.4967 61.2013H89.4597C88.9667 61.2013 88.4437 61.5006 88.4207 62.1441L88.2787 65.7656C88.2717 65.9527 88.2647 66.1398 88.2647 66.3268C88.2497 66.7533 88.2417 67.12 88.2117 67.4791L88.1597 68.0852H87.9057C87.8837 68.0927 87.8687 68.1002 87.8457 68.1077C87.5097 68.2049 87.1507 68.2423 86.7997 68.2723C86.6277 68.2872 86.4857 68.3022 86.3437 68.3172C85.7687 68.3845 85.1857 68.4593 84.6037 68.5192C83.9907 68.5865 83.3707 68.6464 82.7207 68.7137L81.4277 68.8335L81.3237 68.5716C81.2107 68.2798 81.0988 67.9206 81.0168 67.6363L80.9497 67.4193C80.7327 66.7084 80.5757 66.0051 80.4787 65.3391C80.2917 64.0222 80.3147 62.6679 80.5387 61.4183C80.5607 61.2687 80.5907 61.119 80.6207 60.9769L80.6727 60.7449L80.9048 60.6925C81.0688 60.6551 81.2337 60.6252 81.4057 60.5952C82.1377 60.4606 82.8847 60.3633 83.6317 60.3034C85.1407 60.1762 86.7177 60.1762 88.3167 60.3184C88.5337 60.3408 88.7577 60.2585 88.9437 60.0939Z" fill="#1E1E1E"/>
<path d="M108.684 67.7935L108.692 67.7186C108.834 65.3317 108.684 62.9673 108.244 60.7001C108.147 60.2137 108.005 59.7124 107.579 59.3308C107.138 58.9342 106.503 58.8369 105.883 58.7397C105.023 58.605 104.217 58.5376 103.432 58.5376C103.058 58.5376 102.692 58.5526 102.326 58.5825C101.086 58.6873 99.9131 58.9193 98.8371 59.2709L98.6131 59.3458C97.3131 59.7648 96.2442 60.1988 96.2292 61.3062C96.2222 61.7102 96.2742 62.1292 96.3272 62.5333C96.3562 62.7503 96.3711 62.9074 96.3861 63.0645C96.4541 63.7454 96.5282 64.4338 96.6032 65.1147C96.6702 65.7283 96.7452 66.3419 96.8202 66.9554C96.8352 67.1051 96.8502 67.2547 96.8722 67.4044C96.9172 67.8758 96.9691 68.3546 97.1261 68.7812C97.6491 70.2402 99.1432 70.3001 100.346 70.345L104.896 70.5246C105.068 70.5171 105.195 70.5021 105.315 70.4497L105.524 70.4048C105.741 70.3824 105.95 70.3674 106.152 70.3525C106.69 70.3225 107.235 70.2851 107.721 70.0607C108.378 69.7464 108.849 68.9458 108.811 68.1975C108.804 68.0778 108.782 67.9656 108.744 67.8608L108.684 67.7935ZM106.712 68.1077L106.69 68.4519H106.338C106.174 68.4594 105.995 68.4744 105.815 68.4893C105.636 68.5043 105.457 68.5342 105.285 68.5642L104.994 68.6091L104.904 68.5791L100.697 68.407C100.309 68.3995 99.9201 68.3846 99.5321 68.3546L99.4271 68.3472C99.3601 68.3472 99.2631 68.3397 99.2481 68.3322C99.0991 68.3098 98.9791 68.2125 98.9121 67.9805C98.8151 67.6363 98.7772 67.2697 98.7472 66.9105C98.7322 66.7534 98.7172 66.6112 98.7032 66.4765C98.6282 65.8929 98.5681 65.3168 98.5011 64.7331C98.4341 64.1196 98.3742 63.4985 98.3142 62.885L98.1941 61.5531L98.4561 61.4483C98.7401 61.3361 99.0992 61.2239 99.3822 61.1415L99.6142 61.0742C100.316 60.8572 101.019 60.7001 101.684 60.6028C102.999 60.4157 104.351 60.4382 105.606 60.6627C105.748 60.6851 105.898 60.715 106.04 60.745L106.271 60.7974L106.324 61.0293C106.353 61.179 106.383 61.3286 106.421 61.5232C106.555 62.2564 106.652 63.0122 106.719 63.7604C106.824 65.1596 106.824 66.6187 106.712 68.1077Z" fill="#1E1E1E"/>
<path d="M58.9687 78.3505C72.6267 77.6247 86.4708 77.5723 100.129 78.1784C100.951 78.1934 101.295 77.5948 101.317 77.0485C101.347 76.3976 100.974 75.6792 100.092 75.6343C93.8607 75.3575 87.5847 75.2153 81.3077 75.2153C73.8587 75.2153 66.4027 75.4099 59.0057 75.799C58.1537 75.8439 57.7427 76.5547 57.7807 77.2356C57.8107 77.7893 58.1467 78.3954 58.9687 78.3505Z" fill="#1E1E1E"/>
<path d="M82.0706 85.2421C82.3016 84.8082 82.2946 84.2245 82.0476 83.8205C81.9056 83.5885 81.6076 83.3042 81.0466 83.3266C73.8746 83.5661 66.6116 83.5436 59.4546 83.2593C59.4316 83.2593 59.4096 83.2593 59.3946 83.2593C58.5946 83.2593 58.2816 83.8728 58.2666 84.4116C58.2436 85.0626 58.6096 85.7734 59.4916 85.8033C66.6416 86.0877 73.8817 86.1026 81.0247 85.8707C81.6227 85.8482 81.9286 85.519 82.0706 85.2421Z" fill="#1E1E1E"/>
<path d="M66.1858 99.8929C65.8948 98.4859 64.5868 97.2139 63.2118 96.9973C62.8088 96.9374 62.5028 96.9374 62.1958 97.1169C62.1138 97.1619 62.0318 97.2369 61.9348 97.3419L61.6128 97.6709L61.3518 97.2889C61.3298 97.2519 61.3068 97.2139 61.2848 97.1769C61.2698 97.1469 61.2468 97.1169 61.2398 97.1019C60.9708 96.8551 60.6498 96.7354 60.3358 96.7354C60.0148 96.7354 59.6928 96.8551 59.4238 97.1019C58.3928 98.0449 58.2138 99.5859 58.1688 100.821C58.1018 102.789 59.8798 103.791 60.9478 104.218C61.6428 104.495 62.4048 104.57 63.2118 104.435C63.7948 104.338 64.3778 104.046 64.9908 103.537C65.9988 102.699 66.4698 101.27 66.1858 99.8929ZM63.6828 101.09H63.6758C63.6678 101.113 63.6608 101.143 63.6528 101.165H63.6608C63.6008 101.277 63.5488 101.36 63.4958 101.442L63.4588 101.487L63.4508 101.479L63.4438 101.487L63.4508 101.494L63.3688 101.577C63.3468 101.599 63.2948 101.644 63.2418 101.689C63.1528 101.786 63.0258 101.868 62.8908 101.898H62.8838C62.8458 101.906 62.8088 101.913 62.7788 101.921L62.6818 101.936C62.6148 101.936 62.5468 101.943 62.4798 101.943C62.4278 101.943 62.3828 101.936 62.3308 101.936C62.3228 101.936 62.3228 101.936 62.3158 101.936C62.2858 101.943 62.1958 101.981 62.3158 101.928C62.2108 101.973 62.1138 101.996 62.0018 101.966C61.9118 101.943 61.8448 101.883 61.7928 101.816C61.7848 101.816 61.7848 101.816 61.7778 101.809L61.6958 101.779C61.5758 101.719 61.5088 101.689 61.4488 101.651C61.3148 101.577 61.1878 101.502 61.0608 101.412L60.9778 101.345L60.7168 101.09V100.941C60.7088 100.671 60.7238 100.394 60.7538 100.118C60.8068 99.8029 60.8658 99.5259 60.9478 99.2499L61.1048 98.9799C61.1428 98.9429 61.1648 98.9129 61.1878 98.8899L61.2248 98.8529L61.5308 98.5459L61.7848 98.8979C61.9938 99.1819 62.2338 99.3689 62.4428 99.3989C62.5918 99.4219 62.7338 99.4519 62.8838 99.4969L62.9508 99.5259C62.9808 99.5409 63.0258 99.5709 63.0778 99.6089C63.1078 99.6309 63.1448 99.6609 63.1748 99.6759L63.2568 99.7359C63.2718 99.7509 63.2798 99.7579 63.2948 99.7729C63.3318 99.7959 63.3688 99.8179 63.3988 99.8479C63.4218 99.8779 63.4438 99.9009 63.4588 99.9299C63.4588 99.9299 63.4588 99.9309 63.4588 99.9379C63.6228 100.155 63.7428 100.409 63.7278 100.686C63.7198 100.784 63.7048 100.873 63.6758 100.963C63.6978 101.03 63.6908 101.06 63.6828 101.09Z" fill="#1E1E1E"/>
<path d="M66.1858 123.949C65.8948 122.543 64.5868 121.271 63.2118 121.054C62.8088 120.994 62.5028 120.994 62.1958 121.173C62.1138 121.218 62.0318 121.293 61.9348 121.398L61.6128 121.727L61.3518 121.345C61.3298 121.308 61.3068 121.271 61.2848 121.233C61.2698 121.203 61.2468 121.173 61.2398 121.158C60.9708 120.911 60.6498 120.792 60.3358 120.792C60.0148 120.792 59.6928 120.911 59.4238 121.158C58.3928 122.101 58.2138 123.643 58.1688 124.877C58.1018 126.845 59.8798 127.848 60.9478 128.274C61.6428 128.551 62.4048 128.626 63.2118 128.491C63.7948 128.394 64.3778 128.102 64.9908 127.593C65.9988 126.763 66.4698 125.326 66.1858 123.949ZM63.7278 125.079C63.7048 125.132 63.6758 125.176 63.6528 125.229C63.6528 125.229 63.6528 125.236 63.6458 125.236C63.6228 125.274 63.6008 125.319 63.5778 125.356C63.5488 125.408 63.5188 125.461 63.4888 125.506L63.4508 125.551L63.4288 125.536L63.4218 125.543L63.4438 125.558L63.3618 125.64C63.3388 125.663 63.2868 125.708 63.2348 125.76L63.1448 125.82C63.0848 125.857 63.0178 125.902 62.9878 125.917L62.8838 125.962C62.8458 125.97 62.8088 125.977 62.7788 125.985L62.6818 126C62.6148 126 62.5468 126.007 62.4798 126.007C62.3898 126.007 62.3008 126.007 62.2108 126L62.1068 125.985C62.0618 125.977 62.0168 125.97 61.9798 125.955C61.9118 125.94 61.8528 125.917 61.7848 125.895L61.7028 125.865C61.5838 125.805 61.5158 125.775 61.4568 125.738C61.3218 125.663 61.1948 125.588 61.0678 125.498L60.9858 125.431L60.7238 125.176V125.027C60.7168 124.757 60.7318 124.481 60.7618 124.204C60.8138 123.889 60.8738 123.613 60.9558 123.336L61.1128 123.066C61.1498 123.029 61.1728 122.999 61.1948 122.977L61.2318 122.939L61.5388 122.632L61.7928 122.984C62.0018 123.268 62.2408 123.456 62.4498 123.485C62.5998 123.508 62.7418 123.538 62.8908 123.583L62.9578 123.613C62.9878 123.628 63.0328 123.658 63.0848 123.695C63.1148 123.717 63.1528 123.747 63.1818 123.762L63.2648 123.822C63.3018 123.86 63.3388 123.889 63.3688 123.919L63.5038 124.084C63.5108 124.092 63.5108 124.099 63.5188 124.099C63.7498 124.361 63.8468 124.742 63.7278 125.079Z" fill="#1E1E1E"/>
<path d="M66.7689 111.768C66.3659 111.132 65.8128 110.593 65.1108 110.159C64.7368 109.927 64.4158 109.778 64.1238 109.71C63.5118 109.561 62.9589 109.688 62.4279 110.1L62.1589 110.309L61.9279 110.062C61.8379 109.965 61.7559 109.897 61.6809 109.86C61.4499 109.74 61.2179 109.673 61.0009 109.673C60.8969 109.673 60.7988 109.688 60.7098 109.718C60.3958 109.823 60.1719 109.995 59.9099 110.339C59.5519 110.818 59.1108 111.469 58.9168 112.202C58.6928 113.033 58.8048 113.901 59.2228 114.574C59.8658 115.607 61.1808 116.452 62.7348 116.834C63.7058 117.073 64.4828 117.096 65.1108 116.901C65.8278 116.677 66.4259 116.213 66.8359 115.547C67.5309 114.439 67.5009 112.92 66.7689 111.768ZM64.7819 113.841L64.6549 114.252L64.5049 114.417L64.3109 114.477C64.2439 114.477 64.1769 114.484 64.1169 114.484C64.0499 114.484 63.9899 114.484 63.9229 114.477C63.6009 114.424 63.2279 114.35 62.8619 114.222L62.6368 114.14C62.4578 114.05 62.2789 113.96 62.1139 113.863C62.0099 113.803 61.9129 113.736 61.8159 113.676L61.6889 113.586C61.6289 113.534 61.5768 113.482 61.5238 113.429L61.3598 113.205V113.033L61.3899 112.868C61.3969 112.823 61.4119 112.778 61.4269 112.726L61.5619 112.456C61.6209 112.352 61.6889 112.254 61.7629 112.15L62.0848 111.686L62.4059 111.963C62.7349 112.247 63.1159 112.352 63.5039 112.277L63.6389 112.247L63.7579 112.314C63.8329 112.352 63.8698 112.374 63.9078 112.397L64.1089 112.531C64.2139 112.621 64.2738 112.681 64.3258 112.733L64.5729 113.033C64.6169 113.093 64.6619 113.167 64.6769 113.197L64.8038 113.586C64.7888 113.669 64.7889 113.751 64.7819 113.841Z" fill="#1E1E1E"/>
<path d="M72.3278 124.024C77.8938 123.486 83.5348 123.456 89.1088 123.949C89.3778 123.972 89.6537 123.867 89.8857 123.65C90.1697 123.388 90.3417 123.014 90.3417 122.677C90.3417 121.877 89.6837 121.465 89.0417 121.405C86.4117 121.173 83.7668 121.054 81.1218 121.054C78.2078 121.054 75.2937 121.196 72.4017 121.473C71.7517 121.533 71.0947 121.952 71.0947 122.745C71.0947 123.089 71.2737 123.471 71.5577 123.732C71.7897 123.949 72.0658 124.054 72.3278 124.024Z" fill="#1E1E1E"/>
<path d="M89.3709 112.127C89.6019 111.693 89.5949 111.109 89.3409 110.705C89.1909 110.473 88.8999 110.189 88.3389 110.211L71.8499 110.765C70.9759 110.795 70.602 111.498 70.624 112.142C70.639 112.696 70.9609 113.332 71.8199 113.302L88.3099 112.741C88.9219 112.733 89.2209 112.404 89.3709 112.127Z" fill="#1E1E1E"/>
<path d="M90.4831 98.9578C83.9231 99.1828 77.2741 98.9878 70.7211 98.3898C70.6761 98.3818 70.6321 98.3818 70.5871 98.3818C70.2361 98.3818 69.9521 98.5168 69.7721 98.7708C69.5111 99.1378 69.4811 99.6988 69.6981 100.171C69.8171 100.425 70.1161 100.874 70.7881 100.934C77.2961 101.525 83.9161 101.719 90.4531 101.495C91.3281 101.465 91.7011 100.762 91.6791 100.118C91.6561 99.5638 91.3501 98.9128 90.4831 98.9578Z" fill="#1E1E1E"/>
<path d="M124.091 125.116C124.188 126.149 125.085 126.314 125.466 126.336C126.265 126.381 127.064 126.433 127.864 126.493C128.237 126.523 128.648 126.553 128.865 126.576C129.246 126.613 129.627 126.643 130.016 126.68C131.57 126.83 133.176 127.017 134.79 127.234C135.447 127.324 136.21 126.995 136.329 126.291C136.396 125.917 136.292 125.491 136.068 125.184C135.956 125.027 135.761 124.84 135.477 124.78C135.455 124.772 135.425 124.772 135.403 124.765C132.1 124.316 128.693 123.994 125.264 123.792C125.002 123.777 124.718 123.904 124.487 124.151C124.218 124.428 124.061 124.81 124.091 125.116Z" fill="#59C69F"/>
<path d="M50.5409 18.2745C50.8699 18.4915 51.3179 18.5738 51.6539 18.484C52.6409 18.2147 52.5739 17.1821 52.5289 16.8753C51.8259 11.892 51.5499 6.67674 51.7069 1.37167C51.7219 0.803002 51.4449 0.511182 51.2059 0.361532C50.9969 0.234332 50.7429 0.166992 50.4809 0.166992C50.2419 0.166992 49.9959 0.226852 49.7869 0.339082C49.5099 0.488732 49.1809 0.788032 49.1659 1.39411C49.0099 6.67674 49.3229 12.1464 50.0929 17.646C50.1449 17.9528 50.3619 18.1548 50.5409 18.2745Z" fill="#59C69F"/>
<path d="M15.9698 53.2921C16.2318 53.6737 16.5748 53.7859 16.8148 53.8084C17.2248 53.8458 17.6658 53.6812 17.9948 53.3594L19.0778 52.2969L19.3248 52.6785C19.4598 52.888 19.5858 53.1125 19.7058 53.3295C19.8028 53.5091 19.8998 53.6812 19.9968 53.8383C20.5578 54.7287 21.2148 55.3573 21.9998 55.7688C22.8288 56.2028 23.7628 56.315 24.5028 56.0606C24.9138 55.9184 25.2868 55.6865 25.5858 55.3722L26.0048 54.9457L26.3108 55.7912C26.6838 56.8463 27.0128 57.7591 28.1108 57.9686C28.7318 58.0884 29.4638 57.8115 29.9868 57.2653C30.0088 57.2428 30.1208 57.1082 30.2328 56.981L30.5998 56.5395L30.8608 57.0483C30.9278 57.183 30.9658 57.2503 30.9958 57.3252C31.0928 57.5272 31.1968 57.7741 31.3018 58.0285C31.8168 59.2556 32.3628 60.5202 33.6698 60.4827C35.2688 60.4379 36.9348 58.7543 37.5698 58.0285C37.9518 57.602 37.9218 57.1905 37.8318 56.9211C37.6828 56.4721 37.2418 56.0905 36.7638 55.9858C36.4648 55.9259 36.0238 55.9409 35.6278 56.3973C35.3888 56.6667 34.8878 57.2279 34.3578 57.587L33.9918 57.834L33.5508 56.8463C33.4538 56.6293 33.3638 56.4198 33.2668 56.2028C32.9308 55.4994 32.5198 54.7811 31.8168 54.3546C31.1148 53.9281 30.3528 53.8308 29.6578 54.0852C29.4558 54.1601 29.2618 54.2723 29.0378 54.4519L28.6348 54.7736L28.4548 54.2947C28.1258 53.4118 27.8048 52.7384 27.3048 52.3194C26.9158 51.9901 26.4678 51.848 25.9598 51.9153C25.2868 52.0051 24.5918 52.4466 24.1518 53.0751C24.0688 53.1873 24.0318 53.2696 24.0018 53.322C23.8228 53.6737 23.5688 53.6513 23.3448 53.5689L23.2028 53.5241C22.6718 53.3669 22.3288 52.7908 22.0748 52.3643L21.9848 52.2146C21.2748 51.0623 20.6398 50.127 19.5118 49.4386C19.0338 49.1468 18.3908 49.4237 18.0028 49.8053L17.1958 50.5909L15.9698 48.7876C15.5068 48.1067 14.7748 48.1516 14.2588 48.5033C13.7288 48.8625 13.4148 49.5434 13.8928 50.2467L15.9698 53.2921Z" fill="#F7C300"/>
<path d="M18.638 72.2456C18.459 72.5523 18.399 72.919 18.488 73.2407C18.668 73.9067 19.363 74.2958 20.057 74.1237C23.95 73.1734 27.903 72.5449 31.81 72.2456C32.453 72.1932 33.11 71.7442 33.11 70.9736C33.11 70.6368 32.938 70.2627 32.662 70.0083C32.423 69.7913 32.146 69.6791 31.87 69.7015C27.626 70.0233 23.42 70.6892 19.363 71.6769C19.071 71.7517 18.81 71.9538 18.638 72.2456Z" fill="#1E1E1E"/>
<path d="M41.1039 23.5793C41.3209 23.8487 41.6499 23.9011 41.8289 23.9161C42.2099 23.946 42.6279 23.7963 42.8749 23.5494C43.4579 22.9583 43.2259 22.1951 42.8449 21.7237C39.9679 18.1171 37.3009 14.1589 34.9179 9.96116C34.7609 9.68436 34.4919 9.48236 34.1559 9.39256C34.0439 9.36256 33.9239 9.34766 33.8039 9.34766C33.5799 9.34766 33.3639 9.40006 33.1769 9.51226C32.5869 9.85646 32.3849 10.6571 32.7209 11.2557C35.1269 15.4683 37.9439 19.6136 41.1039 23.5793Z" fill="#1E1E1E"/>
<path d="M39.8796 151.822C40.8136 152.271 41.4186 151.582 41.6276 151.268C41.8366 150.961 42.0386 150.662 42.2556 150.363L42.7336 149.682C43.1816 149.061 43.6296 148.455 44.0936 147.849C44.9826 146.681 45.9316 145.499 46.9096 144.354C47.1486 144.077 47.2686 143.688 47.2386 143.322C47.2236 143.105 47.1416 142.79 46.8576 142.559C46.6856 142.409 46.4686 142.304 46.2376 142.252C45.8186 142.162 45.3636 142.252 45.0646 142.603C43.0846 144.93 41.1566 147.474 39.3416 150.153C39.1916 150.37 39.1616 150.677 39.2446 150.999C39.3566 151.365 39.6026 151.687 39.8796 151.822Z" fill="#1E1E1E"/>
<path d="M107.847 142.76C107.735 142.529 107.347 142.304 107.07 142.237C106.756 142.169 106.36 142.237 106.129 142.394C105.949 142.521 105.628 142.798 105.561 143.187C105.501 143.524 105.553 143.808 105.748 144.197C107.055 146.868 108.647 149.412 110.47 151.762C110.739 152.114 110.978 152.278 111.284 152.346C111.598 152.413 111.994 152.346 112.226 152.188C112.532 151.971 112.763 151.59 112.823 151.208C112.853 151.006 112.846 150.707 112.644 150.452C110.791 148.066 109.177 145.477 107.847 142.76Z" fill="#1E1E1E"/>
<path d="M122.925 138.151C122.559 138.068 122.171 138.136 121.834 138.443C121.58 138.674 121.431 139.056 121.431 139.445C121.431 139.759 121.543 140.036 121.745 140.216C125.428 143.553 129.044 147.077 132.496 150.676C132.974 151.178 133.796 151.208 134.297 150.751C134.543 150.527 134.685 150.197 134.693 149.846C134.7 149.502 134.588 149.195 134.372 148.963C130.935 145.379 127.326 141.869 123.657 138.54C123.456 138.353 123.202 138.211 122.925 138.151Z" fill="#1E1E1E"/>
<path d="M121.072 28.6297C121.64 28.3603 122.088 27.7168 121.73 26.9386C121.498 26.4448 121.244 25.8612 121.139 25.3L121.057 24.866L122.141 24.851C122.372 24.851 122.604 24.851 122.835 24.8361C123.62 24.8061 124.434 24.7089 125.099 24.2375C125.764 23.7586 126.16 23.0927 126.198 22.3594C126.205 22.1424 126.183 21.9179 126.108 21.6411L125.973 21.1472L126.489 21.1697C127.43 21.2146 128.17 21.1846 128.76 20.8928C129.216 20.6683 129.522 20.3017 129.664 19.8078C129.851 19.1494 129.717 18.3413 129.313 17.6828C129.238 17.5631 129.186 17.4958 129.149 17.4509C128.895 17.1441 129.014 16.9346 129.179 16.7475L129.276 16.6278C129.627 16.2013 130.299 16.1115 130.785 16.0442L130.964 16.0217C132.302 15.8197 133.415 15.6102 134.484 14.847C134.947 14.5177 134.939 13.8219 134.745 13.3205L134.342 12.273L136.478 11.854C137.046 11.7417 137.278 11.3901 137.375 11.1207C137.532 10.6643 137.42 10.0956 137.099 9.72896C136.904 9.50446 136.546 9.25756 135.963 9.36976L132.362 10.0732C131.906 10.1629 131.674 10.4323 131.555 10.6493C131.353 11.0159 131.338 11.4873 131.502 11.9138L132.048 13.3355L131.592 13.4103C131.345 13.4552 131.091 13.4777 130.845 13.5076C130.643 13.5301 130.441 13.5525 130.262 13.5749C129.224 13.7396 128.387 14.0912 127.699 14.6524C126.975 15.2435 126.504 16.0591 126.444 16.8448C126.407 17.2788 126.481 17.7128 126.646 18.1093L126.877 18.663L125.981 18.6107C124.86 18.5358 123.896 18.476 123.269 19.4038C122.918 19.9276 122.88 20.7132 123.172 21.4091C123.187 21.4465 123.261 21.5962 123.336 21.7458L123.598 22.2546L123.03 22.292C122.88 22.307 122.806 22.307 122.723 22.307C122.499 22.3145 122.23 22.3145 121.954 22.3145C121.842 22.3145 121.73 22.3145 121.618 22.3145C120.4 22.3145 119.212 22.4043 118.771 23.5266C118.181 25.0157 119.07 27.208 119.481 28.0835C119.809 28.8167 120.527 28.8916 121.072 28.6297Z" fill="#1E1E1E"/>
</svg>
