<svg width="119" height="13" viewBox="0 0 119 13" fill="none" xmlns="http://www.w3.org/2000/svg">
<path d="M6.98872 8.9917C4.93716 7.17246 2.74762 5.50211 0.696059 3.68287C-1.3555 1.86362 1.54238 -1.26305 4.02121 0.543266C6.07277 2.36251 8.26231 4.03286 10.3139 5.8521L10.7544 6.27292L12.0097 5.36666C13.1225 4.46471 14.0929 3.56706 15.0633 2.66942C16.5901 1.3208 17.9567 -0.601837 20.2621 0.19672C21.2724 0.600306 22.1579 1.58653 22.8922 2.28789C23.9158 3.12522 24.8014 4.11144 25.8293 5.09335C26.2699 5.51417 26.8618 6.21985 27.2979 6.49608C28.0233 6.90829 27.4625 7.21468 28.2993 6.61051C29.2786 6.00203 30.0977 4.81953 30.9256 3.92619C32.586 2.2841 33.9659 0.795207 36.4182 1.73404C40.4593 3.34838 44.2332 5.54967 47.8736 8.04443C48.4211 7.30429 49.1067 6.41526 49.6542 5.67513C50.4733 4.49263 51.2836 3.02097 52.3919 1.97443C54.6087 -0.118633 57.0964 1.97684 59.1347 3.36234C60.4431 4.19106 61.6091 5.02408 62.9175 5.85279C63.7898 6.40527 65.8457 8.36909 66.9807 8.19005C67.546 8.02823 68.3695 6.99032 68.7879 6.68823C69.3399 6.09267 70.0387 5.63739 70.5907 5.04183C71.8415 3.99099 72.9499 2.94445 74.2007 1.89361C75.0287 1.00028 76.1725 1.11039 76.9024 1.66718C76.9068 1.81176 77.0492 1.80745 77.0492 1.80745C79.0875 3.19295 81.2682 4.57414 83.3064 5.95964C83.5957 6.0956 84.6193 6.93293 84.9041 6.92432C84.9041 6.92432 85.1757 6.48196 85.3181 6.47765C86.3062 6.15833 87.5481 4.81832 88.385 4.21415C89.9162 3.01011 91.5766 1.36802 93.5616 1.01855C95.4043 0.673377 97.2824 1.48486 98.8801 2.44954C101.488 3.8178 104.568 6.61896 107.661 5.22295C110.332 3.98444 112.914 -0.145686 116.212 0.478133C117.141 0.818755 119 1.8 119 3C119 4.5 117.627 5.87124 116.082 5.54709C115.063 4.85434 115.201 4.70545 114.226 5.45852C111.297 7.57312 108.671 10.2574 104.812 9.94002C101.096 9.61828 98.4478 6.94879 95.1277 5.60206C94.1174 5.19848 93.5477 5.21571 92.7109 5.81988C92.0165 6.41975 91.1797 7.02392 90.3428 7.62809C88.8116 8.83213 87.1557 10.6188 85.3175 11.1086C83.3368 11.6026 81.7258 10.2042 80.1281 9.23951C78.3836 8.13456 76.7859 7.16988 75.1837 6.06062C73.2385 7.71133 71.4358 9.35773 69.4906 11.0084C66.8465 13.1144 64.3987 12.3202 61.9243 10.6584C60.4735 9.83403 59.1606 8.86074 57.8522 8.03202C56.6862 7.199 55.5114 6.07682 54.2118 5.53727L54.0738 5.68615C53.9403 5.97963 53.8023 6.12851 53.6643 6.2774L52.0216 8.49782C51.0645 9.82921 50.103 11.016 49.1459 12.3474C48.594 12.943 47.321 13.2709 46.5911 12.7141C44.406 11.1883 42.2209 9.66257 39.9022 8.43027L36.8581 6.78576C36.2796 6.51383 35.563 6.39079 35.1224 5.96997C34.7054 5.98259 34.5126 5.83332 34.6033 5.63391L34.4059 5.84693C32.6031 7.49333 31.2497 9.84971 28.9975 10.7861C26.7497 11.8671 25.0008 10.6176 23.3853 9.07459C22.3618 8.23726 21.4762 7.25104 20.4482 6.26913C20.0076 5.84831 19.2822 5.43611 18.9796 4.8664C18.8372 4.87071 18.8328 4.72613 18.6904 4.73043C17.1813 6.65738 14.8132 8.46559 12.8592 9.82714C10.4867 11.4908 9.03585 10.6664 6.98872 8.9917Z" fill="white"/>
</svg>
