<svg width="137" height="120" viewBox="0 0 137 120" fill="none" xmlns="http://www.w3.org/2000/svg">
<path d="M66.0261 96.9995C60.3851 98.5432 54.6159 99.3151 48.7185 99.3151C46.2826 99.3151 46.1544 103.174 48.5903 103.174C54.8723 103.174 60.8979 102.403 66.9236 100.73C69.3595 100.087 68.462 96.3563 66.0261 96.9995Z" fill="black"/>
<path d="M37.9488 96.9995C34.359 96.7423 31.1539 95.1985 28.718 92.6257C27.0513 90.8247 24.2308 93.5262 25.8975 95.3272C29.1026 98.6719 33.2052 100.602 37.8206 100.987C40.2564 100.987 40.3847 97.1282 37.9488 96.9995Z" fill="black"/>
<path d="M23.462 71.7856C20.8979 75.5163 20.1287 80.1474 21.2825 84.65C21.9235 87.0942 25.6415 86.1937 25.0005 83.7494C24.103 80.2761 24.744 76.8027 26.6671 73.8439C28.2056 71.657 24.8723 69.7273 23.462 71.7856Z" fill="black"/>
<path d="M42.8209 56.0913C38.3337 57.635 34.2312 60.0792 30.6414 63.2953C28.8465 64.9676 31.4107 67.7978 33.3337 66.1254C36.4107 63.4239 39.8722 61.237 43.7183 59.9506C46.026 59.05 45.2568 55.1908 42.8209 56.0913Z" fill="black"/>
<path d="M66.5384 42.0689C62.6923 46.4427 57.6923 49.0156 52.3077 51.0739C50 51.9744 51.923 55.3191 54.1025 54.4186C59.7436 52.2317 65.1282 49.5302 69.1025 44.7704C70.7692 42.9694 68.0769 40.1392 66.5384 42.0689Z" fill="black"/>
<path d="M75.6409 19.8135C76.1538 22.7723 76.0256 25.7311 75.3845 28.6899C74.7435 31.1341 78.4615 32.2919 79.1025 29.8477C79.9999 26.2457 80.1281 22.6437 79.4871 18.913C78.9743 16.4688 75.2563 17.3693 75.6409 19.8135Z" fill="black"/>
<path d="M75.1283 8.49303C72.6924 4.50509 67.9488 -0.126064 62.8206 0.00257916C60.3847 0.131222 60.2565 3.99052 62.6924 3.86188C66.4103 3.73323 70.0001 7.46389 71.7949 10.4227C73.077 12.481 76.5385 10.68 75.1283 8.49303Z" fill="black"/>
<path d="M52.6927 0.517306C49.103 0.774593 45.7696 1.54645 42.5645 2.96153C40.2568 3.99067 42.1799 7.3354 44.3594 6.30625C46.9235 5.14846 49.6158 4.50525 52.4363 4.24796C55.0004 4.24796 55.1286 0.388663 52.6927 0.517306Z" fill="black"/>
<path d="M30.6413 7.97859C28.2054 9.7796 25.6413 11.452 22.949 12.867C20.7695 14.0248 22.5644 17.3696 24.7438 16.2118C27.8208 14.668 30.6413 12.867 33.3336 10.6801C35.2567 9.26503 32.6926 6.43488 30.6413 7.97859Z" fill="black"/>
<path d="M14.7436 19.1703C14.2308 18.2698 13.0769 17.8839 12.1795 18.3984C11.7949 18.6557 11.4103 18.7844 10.8974 18.913C10.7692 18.913 10.5128 19.0417 10.5128 19.0417C10.2564 19.0417 10 19.1703 9.87179 19.2989C8.97436 19.5562 8.07692 19.6849 7.17949 19.8135C6.92308 19.8135 6.79487 19.8135 6.53846 19.9422C6.41026 19.9422 6.15385 19.9422 6.15385 19.9422C5.64103 19.9422 5.25641 19.9422 4.74359 19.9422C3.84615 19.9422 2.82051 19.8135 1.92308 19.6849C1.02564 19.5562 0 20.5854 0 21.6145C0 22.7723 0.769231 23.4155 1.79487 23.6728C5.89744 24.316 10.1282 23.6728 13.9744 21.8718C14.8718 21.2286 15.2564 19.9422 14.7436 19.1703Z" fill="black"/>
<path d="M117.872 56.3637C115.51 58.3696 112.693 59.8284 109.604 61.1048C108.604 61.5607 107.514 61.9254 106.514 62.2901C99.1542 63.7489 92.6119 66.2106 86.1605 69.4018C85.2519 69.8576 84.3432 70.3135 83.4346 70.7694C83.0711 71.0429 82.7077 71.2253 82.2534 71.4988C80.6178 72.5929 75.8928 74.4164 77.801 75.3282C80.6178 78.9752 85.2519 82.6222 90.9764 82.9869C91.6124 83.0781 92.2485 83.1692 92.8845 83.3516C93.3389 83.7163 93.7932 83.9898 94.3384 84.2633C94.8836 84.5369 95.4287 84.8104 95.9739 84.9927C100.699 87.728 105.151 86.178 107.605 82.8045C107.877 82.3486 108.15 81.8928 108.422 81.4369C111.694 77.1517 112.602 71.6811 115.51 66.94C115.873 66.4842 116.146 66.0283 116.419 65.5724C116.691 65.1165 117.055 64.6607 117.327 64.2048C118.508 62.2901 119.599 60.2842 120.235 58.0049C119.871 56.6372 118.69 55.5431 117.872 56.3637Z" fill="#F7C300"/>
<path d="M133.41 88.8224C132.683 83.4431 130.411 78.8843 128.957 73.7785C127.503 68.6727 127.231 63.4757 125.413 58.4611C124.596 56.3641 122.415 54.6317 120.143 55.0876C119.416 57.8229 118.235 60.3758 117.054 62.9287C115.873 65.5728 114.601 68.1257 113.328 70.7697C112.238 72.9579 110.875 75.1462 109.785 77.4255C109.058 79.0667 108.422 80.799 107.513 82.349C106.604 83.9902 105.241 85.449 103.242 85.8137C101.062 86.2695 98.9718 85.2666 97.0636 84.3549C94.792 83.2608 92.5204 82.4402 90.1579 81.5284C88.1589 80.7078 86.1599 79.7961 84.2517 78.8843C81.4349 77.6991 77.7094 76.5138 75.8013 73.9609C74.1657 74.8726 73.2571 76.5138 74.1657 78.7932C76.2556 84.0813 78.0729 89.4607 79.6176 94.84C80.3445 97.5753 81.0714 100.311 81.6166 103.046C82.0709 105.143 82.2527 107.605 83.8882 109.246C86.9776 112.346 92.7021 109.702 96.155 108.699C101.789 107.149 107.331 105.416 112.874 103.593C118.326 101.769 124.141 100.219 129.411 97.94C133.773 96.39 133.955 93.1077 133.41 88.8224Z" fill="#F7C300"/>
<path d="M83.2527 113.257C83.9796 113.44 84.5248 113.348 85.2517 113.166C85.706 113.075 86.1604 112.801 86.6147 112.984C87.3416 113.166 87.8868 112.984 88.2502 112.528C88.432 112.528 88.7046 112.528 88.8863 112.437C104.515 108.334 119.871 103.137 135.227 98.2134C136.318 97.8487 136.59 96.7546 136.318 95.934C136.318 95.8428 136.318 95.7517 136.227 95.5693C132.956 82.1666 129.23 68.855 125.05 55.7257C124.778 54.9052 124.233 54.5405 123.597 54.5405C123.415 53.6287 122.506 52.9905 121.688 52.9905C121.052 52.5346 120.325 52.5346 119.599 52.8993C104.424 60.8316 88.432 67.5785 72.1672 73.1402C70.9859 73.5049 70.8042 74.6902 71.1677 75.6019C71.1677 75.8755 71.1677 76.149 71.2585 76.5137C73.8027 83.7165 76.0744 91.0106 78.0734 98.3957C79.0729 102.043 79.8907 105.781 80.7085 109.428C80.9811 110.978 81.4354 112.71 83.2527 113.257ZM119.053 57.3669C114.964 67.3962 109.785 76.9696 103.516 85.7224C94.5199 83.443 85.8878 79.796 77.9825 74.9637C92.0666 69.9491 105.787 64.1139 119.053 57.3669ZM84.3431 109.61C84.3431 109.519 84.2522 109.428 84.2522 109.337C84.1613 108.881 84.0705 108.425 83.9796 108.06C83.7979 107.24 83.6161 106.419 83.4344 105.599C82.7075 102.225 81.7988 98.8516 80.9811 95.4781C79.3455 89.5518 77.5282 83.7165 75.5292 77.9725C84.2522 83.3518 93.7021 87.3635 103.606 89.7341C104.152 89.8253 104.515 89.7341 104.878 89.5518C105.242 89.4606 105.605 89.2782 105.878 88.9135C112.511 79.5225 118.054 69.4932 122.325 58.9169C126.141 70.8608 129.503 82.9871 132.501 95.2046C117.69 100.037 102.879 104.96 87.7959 108.881C87.5233 108.972 87.2507 109.063 87.069 109.246C86.1604 109.063 85.3426 109.519 84.3431 109.61Z" fill="black"/>
<path d="M134.319 59.6462C133.319 56.7286 132.229 53.9022 131.138 50.9846C130.593 49.617 130.048 48.067 129.23 46.7905C128.503 45.5141 127.322 44.8758 125.959 44.5111C120.053 42.87 114.238 45.5141 109.058 47.9758C108.15 48.4317 107.968 49.7081 108.422 50.5287C108.967 51.4405 109.967 51.6228 110.876 51.1669C115.055 49.1611 119.871 46.8817 124.596 47.9758C125.687 48.2493 126.141 48.5228 126.595 49.617C127.14 50.8022 127.595 51.9875 128.14 53.1728C129.139 55.6345 130.048 58.0962 130.866 60.558C131.593 62.9285 135.136 61.9256 134.319 59.6462Z" fill="black"/>
<path d="M103.879 111.89C99.7904 112.893 95.7923 114.26 91.8851 115.901C90.9765 116.266 90.7039 117.634 91.1582 118.363C91.7034 119.275 92.7029 119.457 93.7024 119.093C95.4288 118.363 97.1553 117.725 99.0634 117.087C100.972 116.448 102.88 115.901 104.788 115.446C105.697 115.172 106.423 114.169 106.151 113.257C105.787 112.254 104.879 111.616 103.879 111.89Z" fill="black"/>
</svg>
