<svg width="317" height="17" viewBox="0 0 317 17" fill="none" xmlns="http://www.w3.org/2000/svg">
<path d="M157.672 8.25552C159.719 5.162 162.878 3.78948 166.008 4.19518C168.058 4.4265 169.877 5.33767 171.579 6.58877C172.077 6.93499 172.565 7.34906 173.056 7.76618C174.113 8.66311 175.186 9.57408 176.415 9.85453C177.819 10.3034 178.856 9.05558 179.884 7.81794C180.179 7.46299 180.473 7.10888 180.775 6.79587C182.002 5.39784 183.629 4.48095 185.303 4.8982C186.563 5.18556 187.536 6.22275 188.503 7.25273C188.919 7.6954 189.333 8.13675 189.768 8.51666C189.837 8.574 189.907 8.63304 189.978 8.69346C191.287 9.79592 193.137 11.3548 194.587 11.2821C195.405 11.1213 196.335 10.4396 197.119 9.86573C197.428 9.63918 197.715 9.42943 197.962 9.27518L200.585 7.6401C200.665 7.58664 200.745 7.5332 200.824 7.47992C202.355 6.45337 203.789 5.49121 205.495 5.72327C207.296 6.13413 208.872 7.39162 210.447 8.6491C210.841 8.96347 211.203 9.27944 211.565 9.59541C211.927 9.91138 212.289 10.2273 212.682 10.5417C212.817 10.6567 212.929 10.7586 213.025 10.8461C213.589 11.359 213.608 11.376 214.344 10.6254C214.782 10.2086 215.212 9.77303 215.641 9.33861C217.753 7.20021 219.838 5.08866 222.711 5.36113C224.822 5.57299 226.561 6.87773 228.312 8.19201C229.323 8.95091 230.339 9.713 231.433 10.2697C232.342 10.7253 232.852 10.6997 233.593 9.99431C234.206 9.29529 234.947 8.58989 235.689 7.88448C236.022 7.53866 236.362 7.15199 236.709 6.75686C237.773 5.54736 238.906 4.25854 240.141 3.81883C241.613 3.32713 242.873 4.3558 244.087 5.34728C244.329 5.54498 244.569 5.7412 244.809 5.9236C245.209 6.24304 245.6 6.55213 245.986 6.85624C247.117 7.74924 248.194 8.59925 249.274 9.54206C250.134 8.58011 250.961 7.61976 251.789 6.65941C252.617 5.69907 253.445 4.73872 254.305 3.77678C256.644 1.32064 258.845 2.21265 261.08 4.10526C261.906 4.69605 262.683 5.35571 263.441 5.99898C263.884 6.37564 264.321 6.74668 264.758 7.09498C265.067 7.37329 265.377 7.68025 265.69 7.99051C266.445 8.73876 267.22 9.50619 268.047 9.93709L268.169 9.76394C268.285 9.42401 268.406 9.25086 268.528 9.0777L269.969 6.49951C270.389 5.7267 270.81 4.99557 271.231 4.26444C271.652 3.53332 272.074 2.8022 272.493 2.02938C272.979 1.33676 274.114 0.945724 274.775 1.58085C276.75 3.31948 278.725 5.0581 280.815 6.4568L283.56 8.32386C283.734 8.42652 283.921 8.50994 284.109 8.59336C284.483 8.7602 284.858 8.92704 285.124 9.2478C285.497 9.2291 285.672 9.39941 285.593 9.63038L285.767 9.38263C286.298 8.74347 286.783 8.01379 287.268 7.28411C288.238 5.82473 289.208 4.36535 290.543 3.63013C292.541 2.36054 294.122 3.78479 295.587 5.54896C296.2 6.18101 296.76 6.88876 297.338 7.62031C297.634 7.99514 297.936 8.37621 298.252 8.75656C298.38 8.91139 298.535 9.0649 298.695 9.22371C299.033 9.55839 299.395 9.91661 299.584 10.3604C299.647 10.3572 299.681 10.3973 299.714 10.4373C299.747 10.4774 299.781 10.5175 299.844 10.5143C301.17 8.27609 303.266 6.16626 304.997 4.57591C307.099 2.63285 308.407 3.56958 310.261 5.48136C311.19 6.52063 312.15 7.51662 313.11 8.5126C314.07 9.50859 315.03 10.5046 315.96 11.5438C317.819 13.6224 315.266 17.2587 313.025 15.1993C312.095 14.16 311.135 13.164 310.175 12.1681C309.215 11.1721 308.255 10.1761 307.326 9.13681L306.926 8.65567L305.814 9.71378C304.83 10.7652 303.974 11.8103 303.117 12.8553L303.116 12.8562C302.891 13.119 302.669 13.4003 302.447 13.6823C301.342 15.0864 300.222 16.5089 298.496 15.7608C297.734 15.3788 297.044 14.5232 296.449 13.784C296.334 13.6417 296.223 13.5037 296.116 13.3743C295.503 12.7423 294.943 12.0346 294.365 11.3031C294.069 10.9282 293.767 10.5471 293.451 10.1667C293.323 10.0119 293.18 9.82315 293.032 9.62792C292.72 9.21648 292.386 8.7761 292.119 8.5629C291.748 8.2971 291.747 8.06649 291.681 8.04567C291.631 8.02981 291.542 8.13578 291.222 8.44085C290.598 8.95198 290.052 9.8038 289.524 10.6282C289.316 10.9518 289.111 11.2712 288.906 11.5641C288.855 11.6301 288.805 11.6958 288.755 11.7613C287.356 13.5914 286.149 15.1702 284.019 14.148C280.382 12.3256 276.977 9.82343 273.687 6.98132C273.447 7.41073 273.177 7.88337 272.906 8.35603C272.635 8.82934 272.364 9.30267 272.124 9.73266C271.941 10.0829 271.758 10.455 271.572 10.835C271.028 11.9442 270.45 13.1221 269.722 14.0296C267.941 16.2468 265.916 14.4661 264.178 12.9383C264.006 12.7868 263.836 12.6378 263.67 12.4954C263.079 12.0239 262.521 11.5508 261.962 11.0777C261.403 10.6045 260.844 10.1313 260.253 9.65972C260.051 9.49875 259.779 9.23182 259.469 8.9274C258.566 8.04275 257.341 6.84144 256.587 7.00354C256.259 7.12875 255.838 7.68349 255.482 8.15273C255.291 8.40424 255.118 8.63119 254.989 8.75427C254.746 9.10058 254.47 9.4068 254.193 9.71302C253.917 10.0192 253.64 10.3255 253.397 10.6718C252.844 11.2842 252.323 11.8951 251.802 12.506C251.281 13.1168 250.76 13.7276 250.207 14.34C249.478 15.3789 248.453 15.2633 247.792 14.6282C247.786 14.4614 247.659 14.4678 247.659 14.4678C246.738 13.6787 245.786 12.8911 244.833 12.1036C243.88 11.3161 242.927 10.5286 242.007 9.73943C241.912 9.68368 241.73 9.52281 241.525 9.34086C241.163 9.02026 240.727 8.63418 240.564 8.64233C240.564 8.64233 240.327 9.15541 240.2 9.1618C239.605 9.41752 238.912 10.2126 238.296 10.9189C238.002 11.2573 237.724 11.5753 237.484 11.8039C237.247 12.05 237.006 12.3118 236.761 12.5783C235.607 13.8325 234.354 15.1935 232.893 15.5424C231.249 15.959 229.557 15.0414 228.115 13.9443C227.613 13.6129 227.091 13.2063 226.554 12.7878C224.574 11.2456 222.385 9.54079 220.222 10.8319C219.377 11.35 218.547 12.2908 217.694 13.2567C216.152 15.0042 214.537 16.8338 212.631 16.3914C211.406 16.2073 210.286 15.1152 209.256 14.1111C208.885 13.7493 208.526 13.3988 208.178 13.1065C207.93 12.929 207.672 12.7222 207.405 12.5085C206.264 11.5938 204.967 10.554 203.643 11.1621C202.568 11.6933 201.5 12.4424 200.433 13.1914C199.632 13.7532 198.831 14.315 198.027 14.7849C197.951 14.8311 197.875 14.8772 197.8 14.9232C196.387 15.7841 195.071 16.5868 193.487 16.349C191.947 16.0922 190.25 15.0078 188.808 13.9107C188.262 13.4524 187.734 12.878 187.21 12.3078C186.472 11.505 185.742 10.7105 184.98 10.2603C183.939 9.51546 182.657 11.1067 181.68 12.3186C181.429 12.6307 181.198 12.9177 180.996 13.1331C179.757 14.1976 178.385 15.1017 176.85 15.0116C174.608 15.0111 172.78 13.5397 170.946 12.063C170.066 11.3549 169.185 10.6456 168.256 10.0966C165.47 8.45063 161.903 8.57901 160.19 12.189C160.045 13.9245 158.252 15.4359 156.623 13.9393C155.693 12.9001 154.733 11.9041 153.773 10.9082C152.813 9.91214 151.853 8.91613 150.924 7.87683L150.524 7.39569L149.412 8.45379C148.428 9.50537 147.571 10.5506 146.715 11.5958C146.489 11.8586 146.267 12.1403 146.045 12.4224C144.94 13.8264 143.82 15.2489 142.094 14.5008C141.332 14.1188 140.642 13.2632 140.047 12.5241C139.932 12.3818 139.821 12.2438 139.714 12.1143C139.101 11.4823 138.541 10.7746 137.963 10.043C137.667 9.66818 137.365 9.28708 137.049 8.90671C136.921 8.75185 136.778 8.56311 136.63 8.36785C136.318 7.95644 135.984 7.5161 135.717 7.30291C135.346 7.03711 135.345 6.8065 135.279 6.78568C135.229 6.76982 135.14 6.87579 134.82 7.18087C134.196 7.69199 133.65 8.54378 133.122 9.36812C132.914 9.69176 132.709 10.0112 132.504 10.3041C132.453 10.3701 132.403 10.4358 132.353 10.5013C130.954 12.3314 129.747 13.9102 127.617 12.888C123.98 11.0656 120.575 8.56345 117.285 5.72133C117.045 6.15103 116.774 6.62402 116.503 7.09701C116.233 7.56999 115.962 8.04298 115.722 8.47268C115.539 8.82292 115.356 9.19489 115.17 9.57494C114.626 10.6841 114.048 11.8621 113.32 12.7696C111.539 14.9868 109.514 13.2061 107.776 11.6783C107.604 11.5268 107.434 11.3778 107.268 11.2355C106.677 10.7639 106.118 10.2908 105.56 9.8176C105.001 9.34444 104.442 8.87129 103.851 8.39973C103.649 8.23875 103.377 7.9718 103.067 7.66736C102.164 6.78271 100.939 5.58146 100.185 5.74355C99.857 5.86876 99.4359 6.42351 99.0796 6.89276C98.8887 7.14427 98.7164 7.37121 98.5871 7.49428C98.3439 7.8406 98.0675 8.14683 97.791 8.45305C97.5146 8.75926 97.2381 9.06548 96.995 9.41178C96.4421 10.0242 95.9211 10.635 95.4 11.2458C94.879 11.8567 94.3579 12.4676 93.805 13.08C93.0755 14.119 92.0506 14.0033 91.3903 13.3682C91.3845 13.2014 91.2571 13.2078 91.2571 13.2078C90.3362 12.4187 89.3835 11.6311 88.4308 10.8436C87.4781 10.0561 86.5254 9.26857 85.6045 8.47945C85.5101 8.42369 85.3285 8.26283 85.123 8.08088C84.7609 7.76027 84.3249 7.37419 84.1624 7.38234C84.1624 7.38234 83.9251 7.89543 83.7977 7.90181C83.2027 8.15753 82.5098 8.95263 81.8944 9.6589C81.5995 9.99733 81.3224 10.3154 81.0823 10.5439C80.8449 10.7901 80.604 11.0518 80.3587 11.3184C79.2046 12.5725 77.9523 13.9336 76.491 14.2824C74.8465 14.699 73.1554 13.7814 71.7133 12.6843C71.2114 12.3529 70.6895 11.9463 70.1521 11.5278C68.1721 9.98562 65.9832 8.28081 63.82 9.57188C62.975 10.09 62.1447 11.0308 61.2922 11.9967C59.7499 13.7442 58.1352 15.5738 56.2294 15.1314C55.0035 14.9473 53.8838 13.8552 52.8544 12.8512C52.4834 12.4893 52.1241 12.1388 51.7758 11.8465C51.5279 11.669 51.2698 11.4622 51.0032 11.2485C49.8621 10.3338 48.5649 9.29403 47.2413 9.90208C46.166 10.4333 45.0983 11.1824 44.0305 11.9314C43.2297 12.4932 42.429 13.055 41.625 13.5249C41.549 13.5711 41.4733 13.6172 41.3979 13.6632C39.9855 14.5241 38.6686 15.3268 37.0853 15.0891C35.5449 14.8322 33.8481 13.7479 32.406 12.6508C31.86 12.1925 31.3319 11.618 30.8078 11.0478C30.0698 10.245 29.3395 9.45054 28.5777 9.00035C27.5368 8.25547 26.2548 9.84674 25.2784 11.0586C25.0269 11.3707 24.7957 11.6577 24.5942 11.8731C23.3552 12.9376 21.9829 13.8417 20.4484 13.7516C18.2056 13.7511 16.378 12.2797 14.5437 10.803C13.6642 10.0949 12.7831 9.38561 11.8541 8.83664C8.98734 7.14273 5.2929 7.328 3.64326 11.2531C2.46828 14.1521 -0.931297 11.8166 0.243688 8.91768C2.13065 4.4795 5.88845 2.45339 9.60618 2.9352C11.6561 3.16652 13.4746 4.07769 15.1773 5.32878C15.6755 5.675 16.1632 6.08908 16.6544 6.50619C17.7109 7.40312 18.7838 8.31409 20.0131 8.59454C21.4172 9.04343 22.4538 7.7956 23.482 6.55796C23.7768 6.20301 24.071 5.84889 24.373 5.53588C25.6003 4.13785 27.2274 3.22096 28.901 3.63822C30.1606 3.92558 31.1342 4.96275 32.1011 5.99273C32.5167 6.43541 32.931 6.87676 33.3663 7.25668C33.4346 7.31401 33.5047 7.37306 33.5764 7.43349C34.885 8.53594 36.7353 10.0948 38.1846 10.0221C39.0025 9.86134 39.9334 9.17964 40.717 8.60576C41.0264 8.3792 41.3128 8.16945 41.5603 8.01519L44.1832 6.38012C44.2631 6.32665 44.3428 6.27319 44.4222 6.21991C45.9525 5.19337 47.3867 4.23123 49.0933 4.46328C50.8943 4.87415 52.4696 6.13163 54.0449 7.38912C54.4387 7.70349 54.8007 8.01945 55.1627 8.33542C55.5247 8.65139 55.8867 8.96736 56.2805 9.28173C56.4147 9.39673 56.5267 9.49865 56.6229 9.58614C57.1868 10.099 57.2055 10.116 57.9424 9.36545C58.3804 8.94857 58.8104 8.51304 59.2394 8.07862C61.3508 5.94022 63.4357 3.82868 66.309 4.10114C68.4199 4.31301 70.1586 5.61775 71.91 6.93202C72.9213 7.69093 73.9369 8.45301 75.0308 9.00969C75.94 9.46528 76.4496 9.43972 77.1906 8.73432C77.8043 8.03531 78.5454 7.3299 79.2865 6.6245C79.6201 6.27868 79.96 5.89202 80.3073 5.4969C81.3706 4.28739 82.5036 2.99856 83.7388 2.55884C85.2113 2.06715 86.4706 3.09582 87.6845 4.08729C87.9265 4.285 88.1667 4.48122 88.4065 4.66361C88.8067 4.98305 89.1982 5.29214 89.5835 5.59625C90.7149 6.48926 91.7917 7.33926 92.8718 8.28207C93.7315 7.32016 94.5594 6.35984 95.3873 5.39952C96.2152 4.43915 97.0431 3.47877 97.9029 2.51679C100.242 0.0606575 102.443 0.952662 104.678 2.84528C105.504 3.43606 106.281 4.09572 107.039 4.73897C107.482 5.11564 107.919 5.48669 108.356 5.83499C108.665 6.11331 108.975 6.42027 109.288 6.73054C110.043 7.47879 110.818 8.24621 111.645 8.67711L111.767 8.50395C111.883 8.16403 112.004 7.99087 112.126 7.81771L113.567 5.23953C113.987 4.46671 114.408 3.73559 114.829 3.00446C115.25 2.27334 115.671 1.54221 116.091 0.769397C116.577 0.0767705 117.712 -0.314262 118.373 0.320868C120.348 2.05946 122.323 3.79813 124.413 5.19681L127.158 7.06387C127.332 7.16653 127.519 7.24995 127.707 7.33337C128.081 7.50022 128.456 7.66706 128.722 7.98782C129.095 7.96911 129.27 8.13942 129.191 8.37039L129.365 8.12264C129.896 7.48348 130.381 6.75379 130.866 6.0241C131.836 4.56473 132.806 3.10536 134.141 2.37014C136.139 1.10055 137.72 2.5248 139.185 4.28898C139.798 4.921 140.357 5.62872 140.936 6.36024C141.232 6.7351 141.534 7.1162 141.85 7.49657C141.978 7.65141 142.133 7.80493 142.293 7.96374C142.631 8.29842 142.993 8.65664 143.182 9.10037C143.245 9.09717 143.279 9.13727 143.312 9.17736C143.345 9.21746 143.379 9.25755 143.442 9.25436C144.768 7.0161 146.864 4.90628 148.595 3.31592C150.697 1.37287 152.005 2.30959 153.859 4.22137C154.788 5.26062 155.748 6.25658 156.708 7.25253C157.03 7.58632 157.352 7.92011 157.672 8.25552Z" fill="#F7C300"/>
</svg>
