<svg width="273" height="134" viewBox="0 0 273 134" fill="none" xmlns="http://www.w3.org/2000/svg">
<path d="M120.639 124.328C119.516 124.328 118.617 123.539 118.393 122.412C118.168 121.172 118.954 119.933 120.302 119.707C121.538 119.482 122.662 119.144 123.785 118.693C126.931 117.454 129.852 115.425 132.098 112.946C132.997 112.045 134.458 111.932 135.356 112.833C136.255 113.735 136.367 115.087 135.581 116.101C132.885 119.144 129.402 121.51 125.583 123.088C124.122 123.651 122.662 124.102 121.201 124.328C120.864 124.328 120.752 124.328 120.639 124.328ZM106.372 120.496C105.81 120.496 105.361 120.384 104.911 119.933C103.339 118.693 101.878 117.228 100.081 115.2C98.2831 113.172 96.1485 110.58 94.5757 107.424C94.014 106.298 94.4634 104.945 95.5869 104.382C96.7103 103.819 98.0584 104.269 98.6201 105.396C99.8559 107.988 101.878 110.354 103.451 112.157C105.024 113.96 106.484 115.313 107.72 116.439C108.731 117.228 108.843 118.693 108.057 119.707C107.72 120.158 107.046 120.496 106.372 120.496ZM138.727 102.804C137.491 102.804 136.48 101.903 136.48 100.663C136.03 96.3811 134.345 91.8737 131.649 87.3662C130.975 86.2393 131.312 84.8871 132.435 84.2109C133.559 83.5348 134.907 83.8729 135.581 84.9997C138.614 90.1833 140.524 95.2543 140.974 100.1C140.974 100.1 140.974 100.213 140.974 100.325C141.086 101.565 140.075 102.692 138.839 102.804C138.839 102.804 138.839 102.804 138.727 102.804ZM97.946 94.3528C97.4967 94.3528 96.935 94.2401 96.4856 93.902C95.4745 93.1132 95.3622 91.6483 96.1486 90.6341C98.9572 87.0281 103.563 83.9856 109.742 81.5064C110.866 81.0557 112.214 81.6191 112.775 82.746C113.225 83.8729 112.663 85.2251 111.54 85.7886C106.147 87.9296 102.103 90.6341 99.8559 93.4513C99.2942 94.0147 98.6201 94.3528 97.946 94.3528ZM125.358 82.0699C124.234 82.0699 123.223 81.2811 123.111 80.1542C122.886 78.9146 123.785 77.6751 125.021 77.5624L125.695 77.4497C130.526 76.7736 135.356 75.7594 139.962 74.8579C141.198 74.6325 142.434 75.4213 142.659 76.6609C142.883 77.9005 142.097 79.14 140.861 79.3654C136.255 80.3796 131.2 81.3937 126.257 82.0699L125.695 82.1826C125.583 82.0699 125.47 82.0699 125.358 82.0699ZM155.466 76.3228C154.342 76.3228 153.331 75.534 153.219 74.4072C152.994 73.1676 153.893 71.928 155.129 71.8153L155.691 71.7027C159.96 71.0265 165.015 69.8997 169.733 68.4347C170.969 68.0967 172.205 68.7728 172.654 70.0123C172.991 71.2519 172.317 72.4915 171.082 72.9422C166.138 74.5198 160.971 75.6467 156.477 76.4355L155.915 76.5482C155.691 76.3228 155.578 76.3228 155.466 76.3228ZM124.234 76.3228C123.673 76.3228 122.999 76.0975 122.549 75.6467C121.201 74.1818 119.741 72.7168 118.168 71.2519C116.033 69.2235 113.786 67.3079 111.54 65.5049C110.529 64.7161 110.304 63.2511 111.09 62.2369C111.877 61.2227 113.337 60.9974 114.348 61.7862C116.707 63.7019 119.067 65.7302 121.314 67.7586C122.999 69.3362 124.459 70.9138 125.92 72.3788C126.818 73.2803 126.706 74.7452 125.807 75.6467C125.358 76.0975 124.796 76.3228 124.234 76.3228ZM184.563 67.1952C183.776 67.1952 182.99 66.7444 182.541 65.9556C181.979 64.8287 182.316 63.4765 183.439 62.8004C187.259 60.772 190.068 58.6309 191.865 56.4899C192.652 55.4757 194.112 55.363 195.123 56.2645C196.134 57.0533 196.246 58.5183 195.348 59.5324C193.101 62.1242 189.843 64.6034 185.574 66.8571C185.237 67.0825 184.9 67.1952 184.563 67.1952ZM100.193 57.6168C99.8559 57.6168 99.4065 57.5041 99.0695 57.3914C94.6881 55.025 90.082 52.9966 85.4759 51.3063C84.2402 50.8555 83.6785 49.616 84.0155 48.3764C84.4649 47.1369 85.7006 46.5734 86.9364 46.9115C91.8795 48.6018 96.7103 50.7428 101.316 53.222C102.44 53.7854 102.889 55.2503 102.215 56.3772C101.766 57.166 100.979 57.6168 100.193 57.6168ZM76.3762 45.7846C75.8144 46.7988 74.5786 47.2495 73.4552 46.7988C69.5232 45.2212 64.8047 44.4324 59.4123 44.6577C58.1765 44.6577 57.0531 43.7562 57.0531 42.404C57.0531 41.1644 57.9518 40.0376 59.2999 40.0376C65.2541 39.8122 70.6466 40.601 75.1403 42.404C75.1403 42.404 75.2527 42.5167 75.365 42.5167C76.4885 43.0801 77.0502 44.4324 76.4885 45.5592C76.3761 45.6719 76.3762 45.6719 76.3762 45.7846ZM46.2681 45.8973C45.9311 46.4607 45.4817 46.9115 44.8076 47.0242C42.8978 47.5876 40.8756 48.151 38.8534 48.8272C36.1572 49.7287 33.3486 50.7428 30.6524 51.9824C29.529 52.5458 28.1808 51.9824 27.6191 50.8555C27.0574 49.7287 27.6191 48.3764 28.7425 47.813C31.5511 46.5734 34.3597 45.4465 37.2806 44.545C39.4152 43.8689 41.5497 43.1928 43.4595 42.7421C44.6953 42.404 45.9311 43.1928 46.2681 44.4324C46.6051 44.7704 46.4928 45.4465 46.2681 45.8973Z" fill="black"/>
<path d="M2.78983 54.5134C2.38744 54.5631 2.08536 54.6632 1.7326 54.8641C1.07671 55.4169 0.671116 56.222 0.868565 57.0785C1.01424 58.2876 2.16643 59.2466 3.3736 59.0976C8.55399 58.553 13.7365 57.5047 18.7195 56.1035C19.9277 55.7028 20.6872 54.445 20.2901 53.2356C19.8931 52.0261 18.6395 51.2684 17.4312 51.6691C12.65 52.9196 7.71886 53.9683 2.78983 54.5134Z" fill="black"/>
<path d="M221.727 49.774C217.121 45.4919 213.301 40.3083 210.829 34.5612C210.38 33.4344 209.256 32.6456 208.021 32.9836C206.897 33.3217 205.886 34.6739 206.448 35.8008C207.684 38.8434 209.256 41.6605 211.054 44.365C209.706 45.2665 208.358 46.168 207.01 47.0695C207.01 47.0695 207.01 47.0695 206.897 47.0695C205.661 45.7173 204.313 44.365 202.965 43.1255C202.067 42.3367 201.28 41.5478 200.157 41.2098C198.921 40.759 197.573 40.9844 196.674 41.8859C195.775 42.6747 195.775 44.365 196.674 45.1538C197.348 45.7173 198.247 45.9426 199.033 45.7173C199.146 45.83 199.258 45.9426 199.37 46.0553C200.044 46.6188 200.606 47.1822 201.168 47.7456C202.404 48.8725 203.527 50.1121 204.538 51.3516C205.1 51.9151 205.661 52.5912 206.111 53.2673C206.56 53.8307 206.785 54.1688 207.347 54.8449C208.358 56.1972 209.257 57.6621 210.155 59.127C210.717 60.1412 212.29 60.592 213.301 59.9159C214.312 59.2397 214.761 57.8875 214.087 56.7606C212.851 54.6196 211.391 52.5912 209.931 50.6755C211.054 49.8867 212.29 49.0979 213.413 48.3091C213.526 48.1964 213.75 48.0837 213.863 47.971C215.323 49.774 216.896 51.4643 218.581 52.9293C219.48 53.7181 220.94 53.8307 221.839 52.9293C222.513 52.1404 222.625 50.5628 221.727 49.774Z" fill="black"/>
<path d="M236.444 39.9702C235.208 39.5195 233.972 40.0829 233.41 41.2098C233.635 40.8717 233.41 41.2098 233.298 41.3225C233.186 41.4352 232.736 41.6605 232.736 41.6605C232.174 41.9986 231.5 42.224 230.939 42.4493C229.366 43.0128 228.355 43.4635 226.782 43.5762C226.67 43.5762 226.67 43.5762 226.67 43.5762H226.557C226.333 43.5762 226.22 43.5762 226.108 43.4635C225.996 43.4635 225.883 43.4635 225.659 43.3508H225.546C225.434 43.2382 225.209 43.2382 225.097 43.1255C225.097 43.1255 224.985 43.0128 224.872 43.0128C224.647 42.9001 224.423 42.6747 224.198 42.4493C224.198 42.4493 224.086 42.4493 224.086 42.3367C223.973 42.224 223.973 42.224 223.861 42.1113C223.636 41.8859 223.524 41.6605 223.299 41.4352C223.299 41.3225 223.187 41.2098 223.187 41.2098C223.187 41.0971 223.075 41.0971 223.075 40.9844C222.962 40.6464 222.85 40.421 222.738 40.0829C222.738 39.9702 222.738 39.9702 222.625 39.8575V39.7449C222.625 39.4068 222.513 39.0687 222.513 38.7307C222.513 38.618 222.513 38.2799 222.513 38.1672C222.513 37.8292 222.625 37.3784 222.625 37.0404C222.625 36.9277 222.625 36.9277 222.625 36.815C222.625 36.815 222.625 36.815 222.625 36.7023C222.625 36.5896 222.738 36.3642 222.85 36.2516C222.962 36.1389 222.962 35.9135 223.075 35.8008C223.075 35.8008 223.075 35.8008 223.075 35.6881C223.187 35.4627 223.412 35.3501 223.524 35.1247L223.636 35.012C223.749 34.8993 223.973 34.7866 224.086 34.6739C224.198 34.5612 224.311 34.5612 224.423 34.4486C224.648 34.3359 224.872 34.2232 225.209 34.1105C225.546 33.9978 225.771 33.8851 226.108 33.7724C226.108 33.7724 226.108 33.7724 226.22 33.7724C226.445 33.7724 226.557 33.6597 226.782 33.6597C227.344 33.5471 227.905 33.5471 228.467 33.5471C228.58 33.5471 228.692 33.5471 228.804 33.5471C229.029 33.5471 229.141 33.5471 229.366 33.6597C229.478 33.6597 229.591 33.6597 229.703 33.7724C229.703 33.7724 229.928 33.8851 230.04 33.8851C230.04 33.8851 230.04 33.8851 230.152 33.8851C230.152 33.8851 230.152 33.8851 230.265 33.8851C230.265 33.8851 230.265 33.8851 230.377 33.9978V34.1105C230.377 34.1105 230.377 34.1105 230.377 34.2232C230.377 34.3359 230.377 34.3359 230.377 34.4486C230.377 34.5612 230.377 34.7866 230.377 34.8993C230.377 34.8993 230.377 34.8993 230.377 35.012C230.265 35.2374 230.265 35.3501 230.152 35.5754C230.152 35.5754 230.152 35.6881 230.04 35.6881C229.928 35.8008 229.815 36.0262 229.591 36.1389L229.366 36.3642C229.254 36.4769 229.029 36.5896 228.917 36.7023C228.467 37.0404 227.681 37.3784 226.894 37.7165C225.771 38.1672 225.097 39.6322 225.659 40.759C226.22 41.8859 227.456 42.4493 228.692 41.9986C230.602 41.2098 232.624 40.0829 233.86 38.2799C234.983 36.4769 235.432 34.1105 234.534 32.1948C232.624 28.2508 227.007 28.5888 223.524 30.0538C221.614 30.8426 220.041 32.1948 219.03 33.9978C218.019 35.6881 217.795 37.9419 218.019 39.8575C218.581 43.6889 221.165 47.1822 224.985 48.0837C227.456 48.6471 229.928 47.971 232.287 47.0695C234.534 46.2807 236.668 45.2665 237.792 43.0128C238.129 41.9986 237.455 40.421 236.444 39.9702Z" fill="black"/>
<path d="M245.768 36.8149C241.274 28.3634 235.882 20.4753 229.815 13.0379C229.029 12.1365 227.344 12.2491 226.557 13.0379C225.659 13.9394 225.771 15.2917 226.557 16.3059C232.399 23.4052 237.567 30.9552 241.836 39.0687C243.184 41.7732 247.116 39.4067 245.768 36.8149Z" fill="black"/>
<path d="M252.958 33.8851C248.352 25.2082 242.398 17.2074 236.443 9.31929C235.657 8.3051 234.421 7.85435 233.298 8.53048C232.287 9.09391 231.725 10.6715 232.511 11.6857C238.466 19.5738 244.308 27.5746 249.026 36.2515C250.374 38.8433 254.306 36.4769 252.958 33.8851Z" fill="black"/>
<path d="M266.552 9.54469C264.529 8.07976 261.945 7.51632 259.474 7.7417C258.126 7.85438 256.778 8.07976 255.542 8.75588C254.531 9.432 253.744 10.4462 253.183 11.5731C252.621 11.5731 251.947 11.7984 251.498 12.2492C248.352 15.2917 248.464 20.4753 250.936 23.856C253.52 27.3493 257.789 29.2649 262.058 28.5888C266.102 27.9127 269.585 24.6448 270.596 20.7007C271.832 16.5313 270.034 12.0238 266.552 9.54469ZM266.439 18.5597C266.439 18.5597 266.439 18.8977 266.439 19.0104C266.327 19.3485 266.327 19.5738 266.214 19.9119C266.214 20.1373 266.102 20.25 265.99 20.3627C265.99 20.3627 265.99 20.3627 265.877 20.4753C265.54 21.1515 265.203 21.7149 264.754 22.053C264.529 22.2783 264.305 22.5037 264.08 22.7291C263.968 22.8418 263.855 22.8418 263.855 22.9545C263.855 22.9545 263.631 23.0671 263.631 23.1798C263.294 23.4052 263.069 23.5179 262.732 23.7433C262.62 23.7433 262.62 23.7433 262.62 23.856C262.395 23.9686 262.17 23.9686 262.058 24.0813C261.833 24.0813 261.721 24.194 261.496 24.194C261.496 24.194 261.271 24.194 261.159 24.3067C260.934 24.3067 260.597 24.3067 260.373 24.3067C260.148 24.3067 260.036 24.3067 259.811 24.3067C259.811 24.3067 259.586 24.3067 259.474 24.3067C259.137 24.3067 258.8 24.194 258.463 24.0813C257.676 23.856 257.564 23.856 256.89 23.4052C256.216 22.9545 255.991 22.8418 255.317 22.1657C255.205 22.053 255.092 21.9403 254.98 21.8276C254.868 21.7149 254.868 21.7149 254.868 21.7149C254.868 21.7149 254.868 21.6022 254.756 21.6022C254.531 21.2642 254.306 20.9261 254.194 20.588C254.194 20.588 254.194 20.4753 254.081 20.4753C253.969 20.25 253.969 20.0246 253.857 19.9119C253.857 19.6865 253.744 19.5738 253.744 19.3485C253.744 19.2358 253.744 19.1231 253.632 19.0104C253.632 18.5597 253.632 18.2216 253.632 17.7709V17.6582C253.632 17.4328 253.744 17.3201 253.744 17.0947C253.744 16.982 253.857 16.8694 253.857 16.7567C253.857 16.7567 253.969 16.4186 254.081 16.4186C254.081 16.4186 254.194 16.1932 254.306 16.0805C254.418 15.9679 254.531 15.8552 254.643 15.7425C255.542 15.8552 256.441 15.4044 256.778 14.6156C257.115 13.9395 257.339 13.2634 257.789 12.9253C258.126 12.6999 258.688 12.5872 259.362 12.4746C260.148 12.3619 261.047 12.3619 261.721 12.5872C262.058 12.6999 262.395 12.6999 262.62 12.8126H262.732C262.732 12.8126 262.732 12.8126 262.844 12.8126C263.069 12.9253 263.294 13.038 263.406 13.1507C264.305 13.7141 265.091 14.6156 265.765 15.7425C265.765 15.7425 265.877 15.9679 265.877 16.0805C265.877 16.1932 265.99 16.5313 265.99 16.4186C266.102 16.7567 266.102 16.982 266.214 17.3201V17.4328C266.214 17.4328 266.214 17.4328 266.214 17.5455C266.214 17.7709 266.214 17.8835 266.214 18.1089C266.439 18.2216 266.439 18.3343 266.439 18.5597Z" fill="black"/>
<path d="M271.944 4.69913C269.135 2.3327 265.765 1.20583 262.282 0.0789609C261.159 -0.259101 259.699 0.52971 259.474 1.65658C259.137 2.89614 259.811 4.1357 261.047 4.47376C262.507 4.92451 263.968 5.37526 265.428 5.93869C265.428 5.93869 265.54 5.93869 265.54 6.05138C265.765 6.16407 265.878 6.16407 266.102 6.27676C266.439 6.38944 266.776 6.61482 267.113 6.84019C267.45 7.06557 267.787 7.29094 268.124 7.40363C268.237 7.51631 268.349 7.629 268.574 7.74169L268.686 7.85438C269.585 8.64319 271.045 8.86856 271.944 7.85438C272.73 7.06557 272.955 5.48794 271.944 4.69913Z" fill="#F7C300"/>
<path d="M206.785 57.2113C205.661 55.183 203.976 53.718 202.403 52.1404C201.954 51.6897 201.392 51.4643 200.831 51.4643C200.269 51.4643 199.595 51.6897 199.258 52.1404C198.809 52.5912 198.584 53.1546 198.584 53.718C198.584 54.2815 198.809 54.9576 199.258 55.2957C200.269 56.3098 201.392 57.2113 202.291 58.3382C202.516 58.6763 202.741 59.0143 202.965 59.3524C203.19 59.8031 203.752 60.2539 204.313 60.3666C204.875 60.4793 205.549 60.4793 206.111 60.1412C207.01 59.6905 207.459 58.3382 206.785 57.2113Z" fill="#F7C300"/>
<path d="M261.609 35.012C261.272 33.8851 260.036 33.0963 258.8 33.4344C257.677 33.7724 256.778 35.1247 257.227 36.2515C257.564 37.3784 258.014 38.618 258.126 39.8575C258.126 40.1956 258.126 40.421 258.126 40.759C258.126 40.8717 258.126 41.3225 258.126 41.3225C258.014 41.7732 257.901 42.224 257.789 42.6747C257.789 42.7874 257.789 42.7874 257.789 42.9001C257.789 42.9001 257.789 43.0128 257.677 43.0128C257.564 43.2382 257.452 43.4635 257.34 43.6889C257.227 43.9143 257.115 44.1396 257.003 44.2523C256.778 44.4777 256.778 44.5904 256.665 44.7031C256.328 45.1538 255.991 45.4919 255.542 45.83C255.205 46.168 255.205 46.168 254.643 46.5061C253.745 47.0695 253.295 47.2949 252.396 47.6329C251.273 47.971 250.936 48.0837 249.7 47.971C248.689 47.971 248.352 47.8583 247.341 47.5203C247.229 47.5203 247.229 47.5203 247.229 47.5203C247.229 47.5203 247.229 47.5203 247.116 47.4076C246.892 47.2949 246.667 47.1822 246.555 47.0695C246.442 46.9568 246.33 46.9568 246.218 46.8441C245.993 46.6188 245.768 46.5061 245.656 46.2807C244.757 45.3792 243.297 45.3792 242.398 46.2807C241.499 47.1822 241.499 48.6471 242.398 49.5486C246.105 53.6054 252.733 53.38 257.115 50.5628C259.474 48.9852 261.384 46.8441 262.283 44.2523C263.181 41.0971 262.62 37.9419 261.609 35.012Z" fill="black"/>
<path d="M69.9405 35.9536C79.5475 37.4293 88.7134 40.7164 97.0169 45.6222C98.0526 46.3058 99.6344 45.4062 100.004 44.4036C100.585 43.1369 99.9015 42.0132 98.7955 41.4177C90.141 36.2313 80.5711 32.9098 70.5601 31.3997C67.6271 30.9308 66.9371 35.5726 69.9405 35.9536Z" fill="black"/>
<path d="M126.66 128.35C115.762 130.604 100.596 128.463 95.2037 117.194C93.9679 114.49 89.9235 116.856 91.2716 119.561C94.3049 125.871 100.821 130.153 107.337 132.182C113.965 134.21 121.155 134.21 127.896 132.858C130.816 132.294 129.581 127.787 126.66 128.35Z" fill="#F7C300"/>
</svg>
