<svg width="296" height="108" viewBox="0 0 296 108" fill="none" xmlns="http://www.w3.org/2000/svg">
<path d="M234.998 4.68879C223.892 1.76741 212.501 0.546074 201.055 1.13036C198.139 1.33451 198.28 5.83979 201.199 5.74827C212.197 5.17806 223.247 6.29732 233.904 9.23278C236.736 9.93321 237.834 5.50185 234.998 4.68879Z" fill="black"/>
<path d="M102.233 66.1005C101.222 65.7624 100.548 66.1005 100.098 66.6639C99.7612 66.6639 99.4241 66.7766 98.9748 67.002C74.4839 80.7498 47.6338 86.2715 20.2221 90.5536C18.0875 90.8916 15.8407 91.4551 14.7172 93.5961C13.5938 95.7372 14.3802 98.329 15.8407 100.019C19.7727 104.414 27.8614 101.822 32.8045 100.808C46.8474 97.7655 60.3286 92.1312 73.6975 86.9476C81.2245 84.0177 88.6392 80.8625 95.8292 77.2565C98.5254 75.9042 102.682 74.552 104.48 71.9602C106.277 69.4811 104.817 66.8893 102.233 66.1005Z" fill="#F7C300"/>
<path d="M140.541 49.4226C139.642 49.4226 138.744 48.8592 138.407 47.9577C137.957 46.7181 138.519 45.4786 139.755 45.0278C143.799 43.4502 147.843 41.0838 152.337 37.5905C153.348 36.8017 154.809 37.027 155.595 38.0412C156.382 39.0554 156.157 40.5203 155.146 41.3091C150.203 45.0278 145.821 47.6196 141.44 49.3099C141.103 49.4226 140.766 49.4226 140.541 49.4226ZM291.531 43.6756C287.037 43.6756 282.318 42.6614 277.263 40.7457C276.027 40.295 275.466 38.9427 275.915 37.8158C276.364 36.5763 277.712 36.0128 278.948 36.4636C284.004 38.492 288.497 39.2808 292.879 39.0554C294.115 38.9427 295.238 39.9569 295.238 41.1965C295.35 42.436 294.339 43.5629 293.103 43.5629C292.654 43.6756 292.092 43.6756 291.531 43.6756ZM264.456 33.9845C264.119 33.9845 263.669 33.8718 263.332 33.6464L261.423 32.5195C260.299 31.8434 259.063 31.1673 257.94 30.4912C255.356 29.0262 252.66 27.5613 250.076 26.3218C248.953 25.7583 248.503 24.4061 249.065 23.2792C249.627 22.1523 250.975 21.7016 252.098 22.265C254.794 23.6173 257.491 25.0822 260.187 26.6598C261.31 27.3359 262.546 28.0121 263.669 28.6882L265.579 29.8151C266.703 30.4912 267.04 31.8434 266.366 32.9703C266.029 33.5337 265.355 33.9845 264.456 33.9845ZM165.481 31.9561C164.807 31.9561 164.133 31.618 163.684 31.1673C162.897 30.1531 163.01 28.6882 164.021 27.8994C167.504 24.9695 171.773 21.5889 176.716 18.659C177.839 17.9829 179.187 18.321 179.861 19.4478C180.535 20.5747 180.198 21.927 179.075 22.6031C174.469 25.3076 170.424 28.5755 167.054 31.3927C166.492 31.7307 166.043 31.9561 165.481 31.9561ZM237.044 20.462C236.819 20.462 236.482 20.462 236.258 20.3493C231.315 18.659 226.484 17.3068 221.878 16.4053C220.642 16.1799 219.856 14.9403 220.08 13.7008C220.305 12.4612 221.541 11.6724 222.777 11.8978C227.72 12.7993 232.775 14.2642 237.831 16.0672C239.066 16.518 239.628 17.7575 239.179 18.9971C238.842 19.8986 237.943 20.462 237.044 20.462ZM191.882 16.9687C190.871 16.9687 189.972 16.2926 189.635 15.2784C189.298 14.0389 190.085 12.7993 191.32 12.4612C196.263 11.109 201.544 10.4329 207.048 10.4329C208.284 10.4329 209.408 11.447 209.408 12.6866C209.408 13.9262 208.397 15.053 207.161 15.053C202.105 15.053 197.162 15.7292 192.556 16.9687C192.331 16.9687 192.107 16.9687 191.882 16.9687Z" fill="black"/>
<path d="M2.24687 102.611C3.25796 103.4 4.49373 102.949 5.50483 102.724C5.72951 102.724 5.84186 102.611 6.06654 102.611L13.4812 100.921C14.6046 100.695 15.7281 100.357 16.7392 99.9065C16.9638 100.019 17.1885 100.132 17.4132 100.245C17.6379 100.47 17.8626 100.695 18.1996 100.808C19.0984 103.4 20.7835 107.682 25.0526 107.457C26.7377 107.344 28.3105 106.555 29.771 105.879L30.5574 105.541C32.5796 104.527 34.7141 103.625 36.7363 102.949C41.0053 101.371 45.2744 100.245 49.4311 99.4558C51.0039 99.1177 52.689 98.8924 54.0372 99.5685C54.5989 99.7939 54.8236 100.132 54.9359 100.245C54.9359 100.245 54.9359 100.357 54.8236 100.583C54.4865 101.033 53.2508 101.822 52.5767 101.822C52.4644 101.822 52.352 101.71 52.352 101.71C52.015 101.146 51.3409 100.808 50.6669 100.921C49.9928 101.033 49.3187 101.371 49.0941 101.935C48.8694 102.498 48.8694 103.062 49.3187 103.513C50.6669 105.316 52.8014 105.879 55.0483 104.752C56.5087 103.963 58.9803 102.386 58.7556 99.9065C58.6432 98.667 58.0815 97.6528 57.0704 96.864C55.61 95.7371 53.5878 95.5117 51.9026 95.5117C70.4393 90.4408 87.5155 82.2147 101.671 71.284C102.12 70.946 102.345 70.3825 102.345 69.8191C102.232 69.143 101.783 68.6922 101.109 68.3541C100.435 68.1288 99.7609 68.1288 99.1992 68.5795C94.2561 72.4109 88.8636 76.0169 83.1341 79.1721C79.9885 80.8624 76.7305 82.5527 73.3602 84.0177C72.5738 77.7072 71.4504 72.8616 69.6529 68.4668C80.2132 65.3116 90.8858 63.0578 101.558 61.5929C101.671 61.8183 101.895 62.0437 102.008 62.269C102.12 62.3817 102.12 62.4944 102.232 62.7198L102.345 62.9452C102.457 63.2832 102.569 63.5086 102.682 63.8467C102.794 64.1847 102.794 64.5228 102.907 64.8608V65.0862C102.907 65.1989 102.907 65.4243 102.907 65.537C102.907 65.875 102.907 66.2131 102.907 66.5512V66.7765C102.907 66.8892 102.794 67.1146 102.794 67.2273C102.569 68.2415 103.131 69.143 104.03 69.481C104.479 69.5937 105.041 69.481 105.49 69.2556C105.94 69.0303 106.164 68.5795 106.277 68.1288C106.839 65.9877 106.614 63.734 105.94 61.8183C106.277 62.1564 106.726 62.3817 107.288 62.3817C107.737 62.3817 108.187 62.269 108.636 61.931C108.861 61.8183 109.198 61.5929 109.535 61.2549C109.984 60.9168 110.321 60.466 110.658 60.0153L110.883 59.7899C111.332 59.2265 111.782 58.6631 112.119 58.0996C114.478 58.2123 116.725 57.8742 118.972 57.4235C118.747 57.7616 118.41 58.0996 118.185 58.4377C117.399 59.5645 116.612 60.6914 115.938 61.931L115.714 62.269C115.377 62.9452 115.04 63.6213 114.59 64.1847C112.68 63.0578 110.434 62.8325 108.524 63.5086C107.513 63.8467 107.063 64.7482 107.288 65.6497C107.4 66.1004 107.737 66.5512 108.187 66.7765C108.636 67.0019 109.085 67.1146 109.535 67.0019C109.759 66.8892 109.984 66.8892 110.209 66.7765H110.546C110.771 66.7765 110.995 66.7765 111.22 66.7765H111.557C111.557 66.7765 111.557 66.7765 111.669 66.7765C112.231 66.7765 112.793 66.8892 113.242 67.1146C113.691 67.2273 114.029 67.34 114.478 67.4526C114.927 67.5653 115.377 67.678 115.826 67.9034C116.051 67.7907 116.388 67.678 116.612 67.4526C117.848 66.3258 118.635 64.8608 119.309 63.3959C119.758 62.4944 120.207 61.5929 120.769 60.8041C122.23 58.7757 124.139 57.0854 126.274 56.0712C126.499 55.9586 126.723 55.7332 126.948 55.5078C127.622 55.1698 127.959 54.2682 127.847 53.4794C127.734 52.916 127.397 52.5779 126.948 52.3526C126.611 52.1272 126.162 52.1272 125.712 52.1272C124.027 52.3526 122.342 52.8033 120.657 53.1414C117.624 53.8175 114.478 54.6063 111.22 54.2683C110.771 54.1556 110.209 54.3809 109.872 54.8317C109.422 55.0571 109.198 55.5078 109.085 55.8459L108.973 56.0712C108.861 56.1839 108.861 56.1839 108.861 56.2966C108.524 56.6347 108.299 56.9727 108.074 57.3108C107.737 57.6489 107.513 57.9869 107.176 58.325L106.951 58.5504C106.614 58.663 106.389 58.7757 106.052 59.0011C105.715 59.3392 105.49 59.7899 105.49 60.2407C105.49 60.3534 105.49 60.3534 105.49 60.466C105.041 59.5645 104.479 58.7757 103.805 57.9869C103.693 57.8742 103.468 57.7616 103.356 57.6489C102.907 57.4235 102.345 57.4235 101.895 57.6489C95.2672 58.4377 88.7513 59.5645 82.46 61.0295C59.7667 66.3258 37.7474 75.3407 16.4021 88.1871C16.1774 88.1871 16.0651 88.1871 15.8404 88.1871C14.717 88.2998 13.9306 89.3139 13.7059 90.2154C13.7059 90.2154 13.7059 90.2154 13.5935 90.2154C10.8973 90.3281 8.31341 90.6662 5.84186 91.3423C4.71842 91.6804 3.59499 92.0184 2.5839 92.4692C1.68515 92.8073 0.112343 93.4834 0 95.2864C0 96.1879 0.224687 97.202 0.449373 98.1035C0.561717 98.4416 0.67406 98.667 0.67406 99.005C0.67406 99.2304 0.786404 99.4558 0.786404 99.6812C1.01109 100.695 1.23578 101.935 2.24687 102.611ZM19.3231 97.2021C19.2107 97.0894 19.0984 97.0894 19.0984 97.0894C18.5367 96.7513 18.1996 96.6386 17.9749 96.3006C17.7503 95.8498 17.6379 95.061 17.6379 94.7229L17.3009 92.2438C17.3009 92.0184 17.3009 91.9058 17.3009 91.6804C17.6379 91.6804 17.9749 91.5677 18.1996 91.455C24.0415 87.9617 29.8833 84.6938 35.7252 81.7639C45.4991 76.9184 55.61 72.7489 65.8332 69.481C67.6307 73.8758 68.7541 78.834 69.5406 85.4826C68.9788 85.708 68.4171 85.9333 67.8554 86.1587C67.5184 84.8065 67.1813 83.3415 66.9566 81.9893C66.3949 79.2848 65.8332 76.5803 64.8221 73.9885C64.4851 72.9743 63.5863 72.5236 62.6876 72.7489C62.2382 72.8616 61.7889 73.1997 61.4518 73.7631C61.2271 74.2139 61.2271 74.6646 61.3395 75.0027C62.3506 77.4818 62.9123 80.1863 63.3617 82.7781C63.6987 84.243 64.0357 85.8206 64.3727 87.3983C50.4422 92.8073 35.2758 96.0752 19.3231 97.2021ZM22.918 102.836C22.4687 102.16 22.1316 101.371 21.7946 100.695C27.2994 100.245 32.6919 99.5685 37.7474 98.667C36.2869 99.1177 34.8264 99.6812 33.366 100.357C32.0179 100.921 30.7821 101.484 29.5463 102.048C29.0969 102.273 28.7599 102.498 28.3105 102.611C27.4118 103.062 26.513 103.513 25.6143 103.738C24.3785 103.963 23.5921 103.738 22.918 102.836ZM4.49373 99.2304L3.70733 95.9625C4.38139 95.7371 4.94311 95.5117 5.61717 95.2864C8.20107 94.4976 10.8973 94.0468 13.5935 93.9341C13.7059 93.9341 13.7059 93.9341 13.8182 93.9341C13.8182 94.1595 13.8182 94.3849 13.9306 94.6102C14.0429 95.3991 14.1553 96.1879 14.38 96.9767C13.9306 97.202 13.3689 97.3147 12.8071 97.4274L4.60608 99.3431C4.60608 99.2304 4.49373 99.2304 4.49373 99.2304Z" fill="black"/>
<path d="M114.815 61.3675V61.1421V60.9168V60.8041C114.815 60.6914 114.815 60.466 114.815 60.466C114.815 60.2406 114.703 60.0153 114.59 59.9026L114.478 59.7899L114.366 59.5645C114.141 59.3391 114.029 59.2265 113.804 59.1138C113.691 59.1138 113.579 59.0011 113.467 59.0011H113.354C112.905 58.8884 112.68 58.8884 112.343 59.0011L112.119 59.1138C112.006 59.1138 111.782 59.3391 111.669 59.3391C111.557 59.4518 111.332 59.5645 111.22 59.6772C110.995 59.9026 110.771 60.2406 110.658 60.5787C110.434 61.2548 110.658 61.9309 111.108 62.3817C111.445 62.7197 111.782 62.8324 112.231 62.9451C112.793 63.0578 113.467 63.0578 113.916 62.7197C114.029 62.6071 114.253 62.4944 114.253 62.4944L114.366 62.3817C114.478 62.269 114.59 62.1563 114.59 62.0436C114.703 61.7056 114.703 61.4802 114.815 61.3675Z" fill="black"/>
</svg>
