<svg width="74" height="13" viewBox="0 0 74 13" fill="none" xmlns="http://www.w3.org/2000/svg">
<path d="M4.68451 8.9915C3.30948 7.17228 1.84196 5.50194 0.466926 3.68272C-0.908105 1.8635 1.03416 -1.26315 2.69556 0.543151C4.07059 2.36237 5.53812 4.03271 6.91315 5.85193L7.20843 6.27275L8.04974 5.3665C8.79559 4.46455 9.44599 3.56692 10.0964 2.66928C11.1197 1.32068 12.0357 -0.601939 13.5808 0.19661C14.2579 0.600193 14.8515 1.5864 15.3436 2.28776C16.0297 3.12508 16.6232 4.11129 17.3122 5.09319C17.6075 5.514 18.0042 6.21967 18.2965 6.49591C18.7827 6.9081 18.4068 7.2145 18.9677 6.61033C19.624 6.00185 20.173 4.81937 20.7279 3.92604C21.8408 2.28397 22.7657 0.795091 24.4093 1.73391C27.1177 3.34824 29.6472 5.54951 32.0871 8.04424C32.4541 7.30411 32.9136 6.41509 33.2806 5.67496C33.8295 4.49247 34.3726 3.02083 35.1155 1.9743C36.6012 -0.11874 38.2686 1.97672 39.6347 3.3622C40.5117 4.19091 41.2931 5.02392 42.1701 5.85262C42.7547 6.40509 44.1327 8.3689 44.8934 8.18985C45.2723 8.02804 45.8243 6.99013 46.1047 6.68805C46.4746 6.0925 46.943 5.63722 47.313 5.04167C48.1513 3.99084 48.8942 2.94432 49.7325 1.89349C50.2875 1.00016 51.0541 1.11028 51.5433 1.66705C51.5463 1.81163 51.6417 1.80732 51.6417 1.80732C53.0078 3.19281 54.4694 4.57398 55.8355 5.95947C56.0294 6.09543 56.7155 6.93275 56.9064 6.92414C56.9064 6.92414 57.0884 6.48178 57.1838 6.47747C57.8461 6.15816 58.6785 4.81817 59.2394 4.214C60.2657 3.00997 61.3785 1.3679 62.709 1.01843C63.944 0.673263 65.2028 1.48474 66.2736 2.44941C68.0216 3.81766 70.0856 6.61878 72.159 5.22279C74.2824 5.44557 73.9863 5.85263 73.9863 7.62791C73.9863 9.04813 71.495 9.76093 70.2494 9.9398C67.7586 9.61807 65.9839 6.94861 63.7586 5.6019C63.0815 5.19831 62.6997 5.21555 62.1388 5.81971C61.6734 6.41954 61.1126 7.02367 60.5517 7.6278L60.5516 7.62791C59.5253 8.83193 58.4155 10.6186 57.1834 11.1083C55.8559 11.6024 54.7762 10.204 53.7053 9.23931C52.5361 8.13437 51.4652 7.1697 50.3914 6.06045C49.0877 7.71114 47.8794 9.35752 46.5756 11.0082C44.8035 13.1142 43.1629 12.3199 41.5044 10.6582C40.532 9.83382 39.6521 8.86054 38.7752 8.03183C37.9937 7.19882 37.2062 6.07664 36.3352 5.5371L36.2427 5.68599C36.1532 5.97945 36.0607 6.12834 35.9682 6.27723L34.8673 8.49762C34.2258 9.829 33.5814 11.0158 32.9399 12.3472C32.5699 12.9427 31.7167 13.2706 31.2276 12.7139C29.763 11.1881 28.2984 9.66236 26.7444 8.43007L24.7041 6.78558C24.3163 6.51366 23.8361 6.39062 23.5408 5.9698C23.2613 5.98242 23.132 5.83315 23.1929 5.63374L23.0605 5.84676C21.8522 7.49314 20.9452 9.8495 19.4356 10.7859C17.9291 11.8669 16.7569 10.6174 15.6741 9.07439C14.9881 8.23707 14.3946 7.25086 13.7056 6.26895C13.4103 5.84814 12.9241 5.43594 12.7213 4.86624C12.6258 4.87055 12.6229 4.72597 12.5274 4.73028C11.516 6.6572 9.9288 8.46539 8.61911 9.82692C7.02898 11.4905 6.05657 10.6661 4.68451 8.9915Z" fill="#59C69F"/>
</svg>
